<?xml version="1.0"?>
<svg xmlns:rdf="http://www.w3.org/1999/02/22-rdf-syntax-ns#" xmlns="http://www.w3.org/2000/svg" xmlns:cc="http://creativecommons.org/ns#" xmlns:dc="http://purl.org/dc/elements/1.1/" id="svg4701" height="556.46" viewBox="0 0 1035.5104 489.84576" width="1084.3" version="1.0">
 <g id="layer7" transform="translate(317.03 -205.25)">
  <flowRoot id="flowRoot5211" xml:space="preserve" font-size="40px" font-family="Lucida Sans Unicode" fill="#000000">
      <flowRegion id="flowRegion5213">
        <rect id="rect5215" y="151.39" width="142.99" height="80.904" x="-317.03"/>
      </flowRegion>
      <flowPara id="flowPara5217"/>
    </flowRoot>
 </g>
 <g id="layer2" transform="translate(319.53 -7.4682)">
  <g id="g4035">
   <text id="text6006" font-size="21.01px" xml:space="preserve" transform="rotate(-90)" y="20.955816" x="-414.15158" font-family="Bitstream Vera Sans" fill="#000000">         <tspan id="tspan6008" y="20.955816" x="-414.15158" font-size="21.01px">Temperatur-Abweichung (&#xB0;C)</tspan>       </text>
   <path id="path4821" fill="#f9f9f9" stroke="#898282" d="m63.958 27.241v467.78h615.6v-467.78l-615.6 0.001z"/>
   <path id="path3272" stroke-linejoin="round" d="m125.27 494.53v-467.42m61.95 467.42v-467.42m61.53 467.42v-467.42m61.32 467.42v-467.42m61.32 467.42v-467.42m62.15 467.42v-467.42m61.33 467.42v-467.42m61.32 467.42v-467.42m61.7 467.42v-467.42m-553.94 409h615.08m-615.08-58.43h615.08m-615.08-58.81h615.08m-615.08-58.05h615.08m-615.08-58.8h615.08m-615.08-58.05h615.08m-615.08-59.057h615.08" stroke="#000" stroke-miterlimit="10" stroke-dasharray="2.57076543, 2.57076543" stroke-width=".15993" fill="none"/>
   <text id="text5979" xml:space="preserve" font-size="15.317px" y="61.186699" x="328.35553" font-family="Bitstream Vera Sans" fill="#000000">         <tspan id="tspan5981" y="61.186699" x="328.35553">Mittelalterliche</tspan>         <tspan id="tspan5983" y="80.333061" x="328.35553">Warmzeit</tspan>       </text>
   <text id="text6000" xml:space="preserve" font-size="15.317px" y="469.96164" x="506.41675" font-family="Bitstream Vera Sans" fill="#000000">         <tspan id="tspan6002" y="469.96164" x="506.41675">Kleine Eiszeit</tspan>       </text>
   <path id="path4707" fill="none" stroke="#898282" d="m63.958 495.02h9m606.6 0h-9"/>
   <path id="path4713" fill="none" stroke="#898282" d="m63.958 436.42h9m606.6 0h-9"/>
   <path id="path4719" fill="none" stroke="#898282" d="m63.958 377.92h9m606.6 0h-9"/>
   <path id="path4725" fill="none" stroke="#898282" d="m63.958 319.32h9m606.6 0h-9"/>
   <path id="path4731" fill="none" stroke="#898282" d="m63.958 260.72h9m606.6 0h-9"/>
   <path id="path4737" fill="none" stroke="#898282" d="m63.958 202.12h9m606.6 0h-9"/>
   <path id="path4743" fill="none" stroke="#898282" d="m63.958 143.62h9m606.6 0h-9"/>
   <path id="path4749" fill="none" stroke="#898282" d="m63.958 85.021h9m606.6 0h-9"/>
   <path id="path4755" fill="none" stroke="#898282" d="m63.958 495.02v-10.27m0-457.69v10.273"/>
   <path id="path4761" fill="none" stroke="#898282" d="m125.56 495.02v-10.27m0-457.69v10.273"/>
   <path id="path4767" fill="none" stroke="#898282" d="m187.06 495.02v-10.27m0-457.69v10.273"/>
   <path id="path4773" fill="none" stroke="#898282" d="m248.66 495.02v-10.27m0-457.69v10.273"/>
   <path id="path4779" fill="none" stroke="#898282" d="m310.16 495.02v-10.27m0-457.69v10.273"/>
   <path id="path4785" fill="none" stroke="#898282" d="m371.76 495.02v-10.27m0-457.69v10.273"/>
   <path id="path4791" fill="none" stroke="#898282" d="m433.36 495.02v-10.27m0-457.69v10.273"/>
   <path id="path4797" fill="none" stroke="#898282" d="m494.86 495.02v-10.27m0-457.69v10.273"/>
   <path id="path4803" fill="none" stroke="#898282" d="m556.46 495.02v-10.27m0-457.69v10.273"/>
   <path id="path4809" fill="none" stroke="#898282" d="m617.96 495.02v-10.27m0-457.69v10.273"/>
   <path id="path4815" fill="none" stroke="#898282" d="m679.56 495.02v-10.27m0-457.69v10.273"/>
   <path id="path5498" fill="none" stroke="#898282" d="m63.958 27.322h9m606.6 0h-9"/>
   <g id="g4709" style="text-anchor:end" font-family="Arial" font-size="15px" transform="translate(55.658,499.52)">
    <text id="text4711">-0.8</text>
   </g>
   <g id="g4715" style="text-anchor:end" font-family="Arial" font-size="15px" transform="translate(55.658,440.92)">
    <text id="text4717">-0.6</text>
   </g>
   <g id="g4721" style="text-anchor:end" font-family="Arial" font-size="15px" transform="translate(55.658,382.42)">
    <text id="text4723">-0.4</text>
   </g>
   <g id="g4727" style="text-anchor:end" font-family="Arial" font-size="15px" transform="translate(55.658,323.82)">
    <text id="text4729">-0.2</text>
   </g>
   <g id="g4733" style="text-anchor:end" font-family="Arial" font-size="15px" transform="translate(55.658,265.22)">
    <text id="text4735">0</text>
   </g>
   <g id="g4739" style="text-anchor:end" font-family="Arial" font-size="15px" transform="translate(55.658,206.62)">
    <text id="text4741">0.2</text>
   </g>
   <g id="g4745" style="text-anchor:end" font-family="Arial" font-size="15px" transform="translate(55.658,148.12)">
    <text id="text4747">0.4</text>
   </g>
   <g id="g4751" style="text-anchor:end" font-family="Arial" font-size="15px" transform="translate(55.658,89.521)">
    <text id="text4753">0.6</text>
   </g>
   <g id="g4757" style="text-anchor:middle" font-family="Arial" font-size="15px" transform="translate(63.958,517.52)">
    <text id="text4759">0</text>
   </g>
   <g id="g4763" style="text-anchor:middle" font-family="Arial" font-size="15px" transform="translate(125.56,517.52)">
    <text id="text4765">200</text>
   </g>
   <g id="g4769" style="text-anchor:middle" font-family="Arial" font-size="15px" transform="translate(187.06,517.52)">
    <text id="text4771">400</text>
   </g>
   <g id="g4775" style="text-anchor:middle" font-family="Arial" font-size="15px" transform="translate(248.66,517.52)">
    <text id="text4777">600</text>
   </g>
   <g id="g4781" style="text-anchor:middle" font-family="Arial" font-size="15px" transform="translate(310.16,517.52)">
    <text id="text4783">800</text>
   </g>
   <g id="g4787" style="text-anchor:middle" font-family="Arial" font-size="15px" transform="translate(371.76,517.52)">
    <text id="text4789">1000</text>
   </g>
   <g id="g4793" style="text-anchor:middle" font-family="Arial" font-size="15px" transform="translate(433.36,517.52)">
    <text id="text4795">1200</text>
   </g>
   <g id="g4799" style="text-anchor:middle" font-family="Arial" font-size="15px" transform="translate(494.86,517.52)">
    <text id="text4801">1400</text>
   </g>
   <g id="g4805" style="text-anchor:middle" font-family="Arial" font-size="15px" transform="translate(556.46,517.52)">
    <text id="text4807">1600</text>
   </g>
   <g id="g4811" style="text-anchor:middle" font-family="Arial" font-size="15px" transform="translate(617.96,517.52)">
    <text id="text4813">1800</text>
   </g>
   <g id="g4817" style="text-anchor:middle" font-family="Arial" font-size="15px" transform="translate(679.56,517.52)">
    <text id="text4819">2000</text>
   </g>
   <g id="g5501" style="text-anchor:end" font-family="Arial" font-size="15px" transform="translate(55.658,32.287)">
    <text id="text5503">0.8</text>
   </g>
   <path id="path4837" fill="none" stroke="#e60000" d="m68.858 343.22c2.389-11.91 1.494-23.77 3.1-35.8 0.7 3.99 1.324 24.93 1.449 12.03 1.931-2.81 2.625 1.27 2.605-10 0.082-11.24 0.164-22.48 0.246-33.73 1.513 8.26 2.794-14.08 3.693-7.76 1.587 14.47 1.186-8.38 1.962 0.25 0.034 6.89 0.538 27.16 0.845 9.81 1.682 5.68 0.821-11.9 3.1 0.4 1.954 5.3 1.87-0.15 3.6-7.2 2.227-11.38 1.645-23.04 1.9-34.6 0.667 7.9 0.307-13.3 1.18-18.07 0.763-16.2 0.856 5.49 1.401-10.92 0.54-3.95 0.311-23.84 2.222-17.23-0.459 13.84 1.081 27.27 3.328 40.81 1.811 4.35 0.911 25.46 1.621 15.74 0.92 4.87 0.49 13.08 1.4 15.16 0 8.36 0.37 16.71 1.45 25.01 2.45-2.71 0.63-13.66 2.5-20.5 1.74-10.47 1.65-21.22 3.4-31.7 0.62 7.6 0.63-14.01 1.43-18.67 0.26-4.74 0.27-27.66 0.43-18.15 0.79 7.4-1.4 16.54 1.84 21.22 2.96 9.23 2.22-3.46 3.6-8.9 1.18-1.5 1.92 14.35 2.11 19.87 0.25 4.63 1.69 26.27 1.79 13.06 0.27-12.5 1.01 8.74 1.53 13.36 2.64 36.48 2.51 73.24 5.37 109.61 0.99 7.15 0.1 15.47 1.46-0.48 1.71-11.06 2.39-22.19 3.44-33.32 1.28 1.38 1.15-13.12 2.5-18 0.88-4.83 1.14-25.78 1.82-12.53 1.96 10.11-0.72 20.83 2.48 30.73 1.75 1.63 3.06 2.72 3.88-7.48 1.77-12.42 2.52 4.4 2.91-10.89 0.64-9.22 0.36-18.49 0.61-27.73-0.03 14.77 0.94 0.64 2.68-5.78 1.78-11.69 1.57 1.08 3.52 6.28 2.63 8.1 3.13-13.31 3.18-7.12 1.77 3.73 4.13 2.87 4.25-2.76-0.06-8.51 2.36-9.4 3.24-12.49 1.46-6.23 1.87-20.4 1.83-4.97-0.08 8.18 2.74 3.49 2.9-3.96 1.2-6.64 3.44-9.38 3.73-15.78 0.11-9.92 1.41-9.12 1.06-20.66 0.21-7.72 1.72-9.63 1.31-20.76 2.41 8.99 0.21-3.7 3.1 8.5 6.54 28.1 3.19 57.43 4.51 86.1-0.36 5.29 2.39 24.7 1.83 21.33 0.6 1.86 1.4 16.36 4.16 7.17 5.07-20.58 1.37-42.27 5.33-62.99 1-10.53 0.8-11.31 1.97-15.11 2.97-2.34 4.59-14.78 4.17-1.03-0.26 9.66 4.13 3.59 2.81 13.5-0.07 8.96 2.42 2.94 3.22 14.03 1.8-0.94 3.05 16.29 2.93 6.72 0.1-4.71 0.36-23.43 1.67-15.12 2.19-4.1 0.73-12.57 1.49 3.14-0.83 7.04 2.44 14.71 4.11 4.06 2.06 2.31 1.49 11.81 2.34 19.38 0.42 11.76 3.32 8.71 2.41-2.03 0.06-15.97 0.27-4.76 0.48-1.24 0.27-9.01 0.2-18.71 2.37-27.21 2.06 5.09 1.22 16.26 4.4 8.7 2.23-9.61 1.92-19.49 2.1-29.3-0.25 3.67 1.25 19.98 3.4 11.9 0.89-7.21 1.52-16.1 4-21.9 3.47 0.71 0.8-13.62 2.43-18.37 1.65-1.22-0.7 10.78 3.07 3.87 2.58-9.44-0.29-21.18 3.28-31.08 1.3-15.9 2.7 7.41 3.34-0.9 0.39-7.19 0.38-27.6 0.76-9.96 2.6-0.47 2.2-21.14 2.59-10.28-0.09 13.08 0.52 15.98 1.09 1.45 1.26 2.76 1.79 13.96 2.54 19.94 2.66 10.04 1.71-6.85 2.69-11.44-0.33-0.69 2.18 12.19 1.91 16.57 1 11.13 1.04 24.25 2.8 34.1 1-6.59 1.67-13.22 2.7-19.8 0.71 3.27 0.79-7.58 0.93 6.85 1.02 6.04 2.23 14.16 2.06-0.8 0.87-17.41 4.53-34.66 3.47-52.37 0.02-2.56 2 12.57 2.24 17.42 0.54 8.48 0.94 17.16 1.5 13.7 1.23 7.4 0.76-12.69 1.04 4.36-0.36 5.1 0.95 22.24 2.57 9.06 1.17-14.76 1.58 3.19 1.43 8.82 0.32 7.4-0.4 18.51 1.46 23.56 1.24-4.32 1.34-25.84 1.98-16.22 0.25 4 0.53-14.87 1.35-20.47 0.32-3.29-0.36-24.22 2.17-15.71 1.19 11.25 2.45 20.07 4.3 31.1 1.83 2.51 1.15 12.09 2.85 17.29 0.49 5.09-0.58 18.5 2.75 16.51 5.03-18.77 1.07-38.57 4.9-57.6 0.18 7.59 0.81 24.3 1.8 9.04-0.48 6.23 2.69 14.6 4 16.76 2.53 2.54-0.18 17.1 1.9 20.9 3.04 1.01 0.91-15.12 1.69-20.72 0.15-19.01 0.04-0.87 0.59 1.84 1.31-5.31 0.72-24.85 1.25-20.33 0.83 8.45 0.48-10.86 2.27-14.89 0.95 3.5 1.16 17.96 3.7 7 0.39-8.55 1.81-17 1.6-25.6 0.06 15.08 0.54 7.65 1.26-2.48 0.58-12.44-0.52-10.43 1.14-2.42 1.38-9.11 1.61-13.38 1.93-7.19-0.08-12.12 0.65-10.49 1.47-21.61 2.88-3.39 1.66-11.77 2.08-20.02-0.27-16.533 1.58 9.22 1.18-9.138 0.19-16.676 0.26 6.408 0.39 11.868 1.02 11.84 0.01 26.59 2.55 36.59 2.1-3.72 1.02-16.31 1.65-23.28-0.56-3.44 2.01-21.18 2.98-10.33 0.04 10.74 0.32 17.87 1.08 6.84 0.85 1.61 0.46-24.308 0.76-13.25-0.17 4.33 0.36 23.38 1.4 17.94 0.17-1.58 1.12 14.44 1.52 19.86 0.37 9.15 0.8 13.37 1.07 7.91 0.73 24.23 3.78 48.69 4.84 72.51 1.57-19.62 1.49-39.34 2.8-59 1.89-8.19 0.41 22.91 1.9 6.5 1.69-9.98 1.71-20.16 3-30.2 0.64 14.31 2.09-8.43 1.69-13.16 0.54-8.56-0.8-20.92 1.11-20.84 1.49 11.9-1.15 24.58 1.9 36.2-0.81-9.65 2.98 0.58 3.42-3.89 1.38-4.87 1.21-22.51 1.78-18.61 1.99 10.86-0.61 23.29 1.8 34.3 2.13-11.71-0.57-23.98 1.9-35.6-0.11 8.88 4.09 15.67 2.2 15.01 1.85-12.07 1.17 20.38 1.78 6.32 2.08-3.04 2.18-6.34 3.42-5.53 2.5 1.08 1.26-7.93 2.4-12.4 2.26 11.03 0.94 22.49 2.8 33.6 0.64-2.61 1.55 15.03 1.4 20.45-0.36 4.09 1.22 20.98 2.29 15.58 1.18 6.47 6.25 8.45 4.31 8.47-0.24 8.89 3.99 6.89 2.69-2.26-0.08-10.9 2.36 5.93 2.81-1.74 1.23 5.97-0.29 15.13 2.5 14.2 1.46-0.3 2.28 4.87 2.56 15.18 0.33 8.72-0.58 17.64 1.74 26.02 0.81-12.68 2 8.94 2.2 13.4 0.15-9.17 0.1-19.72 0.69-24.98-0.19-14.59 0.65-4.66 1.66-1.15 0.51-3.83 1.99-14.6 2.62-21.05 0.49-8.34-0.66-21.49 1.43-6.42 1.14 13.4 0.57-5.52 2.13-7.17 0.08 2.22 0.83 16.61 0.82 23.52-0.31 17.69 0.86 1.55 2.05 12.85 0.78 5.56 2.03 25.87 2.2 22.21 0.14-4.25 4.35-12.68 3.97-11.6 1.38-10.04 1.49 7.82 3.33 11.49 1.37 9.12 0.48 12.5 2.16 12.78 2.01 5.89 2.74 4.63 3.34-3.68 0.82-3.98 1.92-22.37 2.78-16.63 2.26-10.6 0.51-23.73 3.72-34.87 0.5 18.86-0.59 38.05 0.9 56.7 0.09-2.61 1.24 7.34 2.5 7.9-0.42-12.27 1.45-24.08 2.1-34.4 2.29-4.43 2.69-8.23 2.8-16.7 1.89-22.41-0.49-45.17 1.6-67.5 1.1 6.49 1.13-9.59 1.24 6.17-0.38 26.15 0.87 52.14 1.46 78.23 0.29-14.4 0.09-12.32 1.3 0.5-0.04 9.72 0.65 13.04 1.5 22.1 0.55 6.53 1.31 20.31 2.44 19.37 3.17 0.29 1.96-12.21 2.26-18.3 0.06-10.16 0.13-20.31 0.2-30.47 2.73 4.05 0.86 26.22 1.76 16.62 1.26-12.73-0.52-25.96 1.94-38.32 0.15 14.33 1.64-20.09 2.46-5.23 0.14 7.01 1.38 14 2.74 20.83 0.28-11.22 2.57-14.27 2.18-1.05 0.64 9.92-1.14 20.75 2.52 29.55-0.19-14.32 1.76 2.63 2.02-0.62 0.63 7 1.39 15.43 3.18 21.42 2.5-11.03 0.3-3.25 2.5-13.8 0.63-17.38 1.32 3.97 2.1-0.5 2.28-21.82 1.1-43.88 3.7-65.7 1.55 7.16-1.15 18.58 1.9 23.4-0.47-12.57 1.73-11.2 1.87-5.09 0.88-4.64 2.57-19.54 2.55-18.22 0.99 4.32-0.8 23.14 1.38 17.71 0.88-13.82 0.5 12.3 1.62 8.91 0.39-6.77 2.04 13.22 2.13 17.38-0.11 4.45 2.05 25.5 1.59 12.24-0.64-15 3.59 2.43 3.07 4.18 0.73-4.59 0.75 21.19 1.6 11.08 0.54 4.16 0.77 25.05 1.4 18.02 0.1-9 0.19-18.01 0.29-27.01 0.44 11.93 1.58 9.12 1.42 20.15 1.71 29.62 3.36 59.29 4.38 88.95 0.36-8.71 1.28-0.91 2.5-11.8 0.76 4.53 0.27 17.94 0.55 25.88 0.71 5.22 2.12 6.64 1.75 17.31 0.33 13.45 2.17-4.44 2.6 4.11 0.77-7.27 2.06-23.37 1.9-7.2 0.73-16.09 0.92 1.33 1.35-14.58 0.53-14.5 0.57-29.01 0.75-43.52 0.93 10.64 2.93-10.7 2.25-14.95 0.74-20.43-1.17-41.06 1.45-61.35 0.31 17.6 0.4 4.18 0.52-5.62-0.07-14.02 0.54 6.24 1.38 10.82 1.49 21.41 0.91 42.89 2.88 64.27 0.47 12.2 0.78 24.4 0.82 36.63 1.47-8.41 0.45-17.32 1.5-25.6 2.1-4.07 2.79-4.07 3.1-12.2 0.65-9.18 1.54-18.32 2.1-27.5 1.55 0.73 2.62-8.83 3.1 1 0.54 14.46 0.39 28.93 0.6 43.4 1.6-4.52 1.65 17.75 2.82 13.21 0.09-4.93-0.03-26.56 1.29-12.52 1.54 12.43 2.5 25.1 3.59 37.61-0.42-14.45 1.66-6.07 1.66-11.91 0.22 10.44 1.68 16.85 1.44 2.41 1.94-12.4 0.73 22.64 1.34 2.54-0.28-7.62 1.49-18.39 2.06-15.14 0.66-7.36 0.23 15.08 0.44 20.1 0.14 12.56-0.06 25.14 0.46 37.7 0.09-14.68 2.37 3.18 2.08 8.37 0.67 11.45 2.29-21.53 2.34-7.89 0.12 16.21 0.65-10.04 1.78-2.58 1.59 8.7 2.14 11.29 2.13 2.93 0.3-15.8-0.22-31.71 0.57-47.43 1.2 2.58 1.15-13.09 2.2-17.5 0.78-7.61 2.9-16.93 2.92-3.41 0.13 12.79 1.92 2.15 2.28-5.09 0.91 3.65 0.28-2.19 1.56-0.53 1.28 20.69 2.51 41.37 3.74 62.03 1.77-3.89 2.1-13.1 2.57 0.48 0.53 6.04 1.03 23.89 1.43 8.62 2-18.44 1.78-37.06 3.7-55.5 0.66 17.59 0.35 35.2 0.6 52.8 0.79-7.28 2.44 4.72 2.35-10.47 1.07-7.95 1.26-4.88 2.67-8.84 1.42 16 0.12-5.6 2.68-1.69 1.86-19.78 0.66-39.74 1.2-59.6 1.82 9.36 2.89 14.69 2.95 1.42 0.7-7.88 2.97-14.97 2.74-23.5 1.01-3.9 1.18-9.92 1.81-19.3 0.43-6.83-0.05-23.48 1.66-15.89 1.42-1.88 2.08-16.93 2.64-1.74 0.21 9.2 1.34 11.8 1.97 4.34-0.04-10.04 1.26-15.97 1.99-2.84 0.8 10.27 0.96 20.71 1.74 30.91-0.04-10.89 1.4-21.54 3.4-31.9 0.1 10.03 0.2 20.07 0.3 30.1 0.33-13.78 1.27-6.55 2.2-10.4 1.95-3 2.09 16.84 3.1 0 0.84 8.07 0.17 16.46 2.7 24.1 1.32-10.06 0.65-20.26 1-30.4 1.25 8.33-0.41 19.17 2.7 25.9 1.49-10.9 0.39-21.99 1.9-32.9 0.64 15.26 0.76-1.87 2.8-7.6 1.31 15.5 2.37-13.22 2.4-1.23 0.59-7.57-0.17-17.34 2.09-6.39 1.02 8.94 0.37 18.03 1.91 26.92 0.96-9.7 1.23 12.37 2.34 2.51 0.63-11.93 0.76-10.44 2.26 0.49 0.98 13.97 1.02 8.2 2.01 16.29 1.01 7.29 0.47-14.97 0.77-20.08 0.39 4.08 2-21.19 2.36-7.23-0.09 8.46 1.38-4.24 1.55-10.26 1.09-8.04 3.17 10.52 2.81-4.18 0.37-4.26 2.24-24.01 1.98-14.16-0.08 15.54 0.83 8.42 1.32-2.77 1.93-4.1 0.74-25.43 1.97-12.44 1.53 2.67 1.74 9.99 1.98-3.86 0.31-7.95 0.54-15.91 1.45-23.81 0.64 10.67 0.16-15.31 1.96-6.81 1.17-9.7 1.02 3.63 1.83 11.7 1.12 7.21 1.38-13.08 1.52-17.17 0.15-11.74 1.35 14.11 1.86 1.97 1 13.89 0.89 27.83 1.73 41.71 0.61-5.32 0.06 2.84 0.9 3.8"/>
   <text id="text5971" xml:space="preserve" font-size="26.805px" y="6.619545" x="76.27578" font-family="Bitstream Vera Sans" fill="#000000">         <tspan id="tspan5973" y="6.619545" x="76.27578">Rekonstruierte Globaltemperatur (16&#x2013;1980)</tspan>       </text>
   <text id="text5975" xml:space="preserve" font-size="10.505px" y="21.93898" x="305.21841" font-family="Bitstream Vera Sans" fill="#000000">         <tspan id="tspan5977" font-size="10.505px" y="21.93898" x="305.21841" font-family="Bitstream Vera Sans">nach Craig Loehle (2007)</tspan>       </text>
  </g>
 </g>
 <metadata>
  <rdf:RDF>
   <cc:Work>
    <dc:format>image/svg+xml</dc:format>
    <dc:type rdf:resource="http://purl.org/dc/dcmitype/StillImage"/>
    <cc:license rdf:resource="http://creativecommons.org/licenses/publicdomain/"/>
    <dc:publisher>
     <cc:Agent rdf:about="http://openclipart.org/">
      <dc:title>Openclipart</dc:title>
     </cc:Agent>
    </dc:publisher>
   </cc:Work>
   <cc:License rdf:about="http://creativecommons.org/licenses/publicdomain/">
    <cc:permits rdf:resource="http://creativecommons.org/ns#Reproduction"/>
    <cc:permits rdf:resource="http://creativecommons.org/ns#Distribution"/>
    <cc:permits rdf:resource="http://creativecommons.org/ns#DerivativeWorks"/>
   </cc:License>
  </rdf:RDF>
 </metadata>
</svg>
