<?xml version="1.0"?>
<svg xmlns:rdf="http://www.w3.org/1999/02/22-rdf-syntax-ns#" xmlns="http://www.w3.org/2000/svg" xmlns:cc="http://web.resource.org/cc/" xmlns:dc="http://purl.org/dc/elements/1.1/" stroke-linejoin="round" fill="none" xml:space="preserve" stroke-linecap="round" height="659" width="1108" version="1.0" stroke-width="1.2827" viewBox="905 480 1113 664">
<path stroke="#000" stroke-width="6" d="m1092 907l139 37"/>
<path stroke="#000" stroke-width="6" d="m1231 944l101-102"/>
<path stroke="#000" stroke-width="6" d="m1092 907l-140 37"/>
<path stroke="#000" stroke-width="6" d="m952 944l101-102"/>
<path stroke="#000" stroke-width="6" d="m1332 842l-140-38"/>
<path stroke="#000" stroke-width="6" d="m1092 907l48-255"/>
<path stroke="#000" stroke-width="6" d="m1192 804l-52-152"/>
<path stroke="#000" stroke-width="6" d="m1140 652l-125-72"/>
<path stroke="#000" stroke-width="6" d="m1140 652l71-125"/>
<path stroke="#000" stroke-width="6" d="m1092 907l-73 124"/>
<text font-size="100" text-anchor="middle" y="1107" x="1302" font-family="Arial" fill="#000">O</text>
<path stroke="#000" stroke-width="6" d="m1215 942l46 81"/>
<path stroke="#000" stroke-width="6" d="m1242 938l41 73"/>
<path stroke="#000" stroke-width="6" d="m1332 842l139-38"/>
<path stroke="#000" stroke-width="6" d="m1354 862l108-30"/>
<path stroke="#000" stroke-width="6" d="m1471 804l124 72"/>
<path stroke="#000" stroke-width="6" d="m1595 876v143"/>
<path stroke="#000" stroke-width="6" d="m1620 892v111"/>
<path stroke="#000" stroke-width="6" d="m1595 1019l123 72"/>
<path stroke="#000" stroke-width="6" d="m1718 1091l124-71"/>
<path stroke="#000" stroke-width="6" d="m1719 1061l96-55"/>
<path stroke="#000" stroke-width="6" d="m1842 1020v-144"/>
<path stroke="#000" stroke-width="6" d="m1842 876l-124-72"/>
<path stroke="#000" stroke-width="6" d="m1815 890l-96-56"/>
<path stroke="#000" stroke-width="6" d="m1718 804l-123 72"/>
<path stroke="#000" stroke-width="6" d="m1842 1020l124 72"/>
<path stroke="#000" stroke-width="6" d="m1192 804l-67 17"/>
<path stroke="#000" stroke-width="6" d="m1053 842l42-13"/>
<metadata><rdf:RDF><cc:Work><dc:format>image/svg+xml</dc:format><dc:type rdf:resource="http://purl.org/dc/dcmitype/StillImage"/><cc:license rdf:resource="http://creativecommons.org/licenses/publicdomain/"/><dc:publisher><cc:Agent rdf:about="http://openclipart.org/"><dc:title>Openclipart</dc:title></cc:Agent></dc:publisher></cc:Work><cc:License rdf:about="http://creativecommons.org/licenses/publicdomain/"><cc:permits rdf:resource="http://creativecommons.org/ns#Reproduction"/><cc:permits rdf:resource="http://creativecommons.org/ns#Distribution"/><cc:permits rdf:resource="http://creativecommons.org/ns#DerivativeWorks"/></cc:License></rdf:RDF></metadata></svg>
