<?xml version="1.0"?>
<svg xmlns:rdf="http://www.w3.org/1999/02/22-rdf-syntax-ns#" xmlns="http://www.w3.org/2000/svg" xmlns:sodipodi="http://inkscape.sourceforge.net/DTD/sodipodi-0.dtd" xmlns:cc="http://web.resource.org/cc/" xmlns:xlink="http://www.w3.org/1999/xlink" xmlns:dc="http://purl.org/dc/elements/1.1/" id="svg2" sodipodi:docname="Ammonia_lone_electron_pair.PNG.svg" sodipodi:version="0.32" height="350" width="370" version="1.0" sodipodi:docbase="D:\wiki_svg">
 <sodipodi:namedview id="base" bordercolor="#666666" pagecolor="#ffffff" borderopacity="1.0"/>
 <text id="text1316" style="text-anchor:middle;text-align:center" line-height="125%" xml:space="preserve" font-size="64px" y="176.7516" x="197.48616" font-family="Verdana" sodipodi:linespacing="125%" fill="#000000">
    <tspan id="tspan1318" sodipodi:role="line" x="197.48616" y="176.7516">N</tspan>
  </text>
 <text id="text1320" style="text-anchor:middle;text-align:center" line-height="125%" xml:space="preserve" font-size="64px" y="258.05243" x="36.795364" font-family="Verdana" sodipodi:linespacing="125%" fill="#000000">
    <tspan id="tspan1322" sodipodi:role="line" x="36.795364" y="258.05243">H</tspan>
  </text>
 <use id="use1324" xlink:href="#text1320" transform="translate(62,76)" height="400" width="400" y="0" x="0"/>
 <use id="use1328" xlink:href="#text1320" transform="translate(299,23)" height="400" width="400" y="0" x="0"/>
 <path id="path1330" d="m197.86 32.787v91.503" stroke="#000" stroke-linecap="round" stroke-width="5" fill="none"/>
 <path id="path2341" d="m258.86 210.45c-21.62 31.56-64.77 39.63-96.34 18.02-0.28-0.19-0.52-0.36-0.81-0.56" sodipodi:nodetypes="csc" stroke="#f00" stroke-width="5" fill="none"/>
 <path id="path1332" d="m305.36 240.29l-84.5-57.5" stroke="#000" stroke-linecap="round" stroke-width="5" fill="none"/>
 <path id="path1334" stroke-linejoin="round" d="m182.86 192.29l-55 95.5-12.75-10.5 67.75-85z" fill-rule="evenodd" stroke="#000" stroke-width="2.5"/>
 <path id="path1448" d="m165.86 174.04l4.75 8" stroke="#000" stroke-linecap="round" stroke-width="5" fill="none"/>
 <path id="path1450" d="m151.86 179.79l5.75 10.25" stroke="#000" stroke-linecap="round" stroke-width="5" fill="none"/>
 <path id="path1452" d="m138.11 186.79l5.5 10" stroke="#000" stroke-linecap="round" stroke-width="5" fill="none"/>
 <path id="path1454" d="m123.36 193.29l7.25 12" stroke="#000" stroke-linecap="round" stroke-width="5" fill="none"/>
 <path id="path1456" d="m109.36 199.04l7.75 13.75" stroke="#000" stroke-linecap="round" stroke-width="5" fill="none"/>
 <path id="path1458" d="m95.608 205.79l7.752 14.5" stroke="#000" stroke-linecap="round" stroke-width="5" fill="none"/>
 <path id="path1460" d="m81.358 210.79l8.25 17.5" stroke="#000" stroke-linecap="round" stroke-width="5" fill="none"/>
 <path id="path1462" d="m65.858 215.79l11.25 21.25" stroke="#000" stroke-linecap="round" stroke-width="5" fill="none"/>
 <path id="path1464" sodipodi:rx="4.5" sodipodi:ry="4.5" sodipodi:type="arc" d="m203.5 37.875a4.5 4.5 0 1 1 -9 0 4.5 4.5 0 1 1 9 0z" fill-rule="evenodd" transform="translate(-10.142 -19.213)" sodipodi:cy="37.875" sodipodi:cx="199"/>
 <use id="use2339" xlink:href="#path1464" transform="translate(18,3e-6)" height="400" width="400" y="0" x="0"/>
 <text id="text2344" style="text-anchor:middle;text-align:center" line-height="125%" font-weight="bold" xml:space="preserve" font-size="28px" y="275.13571" x="222.35876" font-family="Arial" sodipodi:linespacing="125%" fill="#ff0000">
    <tspan id="tspan2346" sodipodi:role="line" x="222.35876" y="275.13571">107&#xB0;</tspan>
  </text>
 <metadata>
  <rdf:RDF>
   <cc:Work>
    <dc:format>image/svg+xml</dc:format>
    <dc:type rdf:resource="http://purl.org/dc/dcmitype/StillImage"/>
    <cc:license rdf:resource="http://creativecommons.org/licenses/publicdomain/"/>
    <dc:publisher>
     <cc:Agent rdf:about="http://openclipart.org/">
      <dc:title>Openclipart</dc:title>
     </cc:Agent>
    </dc:publisher>
   </cc:Work>
   <cc:License rdf:about="http://creativecommons.org/licenses/publicdomain/">
    <cc:permits rdf:resource="http://creativecommons.org/ns#Reproduction"/>
    <cc:permits rdf:resource="http://creativecommons.org/ns#Distribution"/>
    <cc:permits rdf:resource="http://creativecommons.org/ns#DerivativeWorks"/>
   </cc:License>
  </rdf:RDF>
 </metadata>
</svg>
