<?xml version="1.0"?>
<svg xmlns:rdf="http://www.w3.org/1999/02/22-rdf-syntax-ns#" xmlns="http://www.w3.org/2000/svg" xmlns:cc="http://creativecommons.org/ns#" xmlns:dc="http://purl.org/dc/elements/1.1/" id="svg2" height="348.02" width="635.37" version="1.1" viewBox="0 0 635.37366 348.01562">
 <desc id="desc4">Produced by GNUPLOT 4.2 patchlevel 3</desc>
 <g id="g6" style="color:#808080" fill="none" stroke="currentColor" transform="translate(-11.526 -20.131)">
  <path id="path8" d="m76.8 299.1h569.6" stroke="#e9e7e2"/>
 </g>
 <g id="g10" style="color:#000000" fill="none" stroke="currentColor" transform="translate(-11.526 -20.131)">
  <path id="path12" d="m76.8 299.1h9m560.6 0h-9"/>
  <g id="g14" style="text-anchor:end" transform="translate(68.5,303.6)" font-size="15px" font-family="Arial" fill="#000">
   <text id="text16">-0.6</text>
  </g>
 </g>
 <g id="g18" style="color:#808080" fill="none" stroke="currentColor" transform="translate(-11.526 -20.131)">
  <path id="path20" d="m76.8 261.4h569.6" stroke="#e9e7e2"/>
 </g>
 <g id="g22" style="color:#000000" fill="none" stroke="currentColor" transform="translate(-11.526 -20.131)">
  <path id="path24" d="m76.8 261.4h9m560.6 0h-9"/>
  <g id="g26" style="text-anchor:end" transform="translate(68.5,265.9)" font-size="15px" font-family="Arial" fill="#000">
   <text id="text28">-0.4</text>
  </g>
 </g>
 <g id="g30" style="color:#808080" fill="none" stroke="currentColor" transform="translate(-11.526 -20.131)">
  <path id="path32" d="m76.8 223.7h569.6" stroke="#e9e7e2"/>
 </g>
 <g id="g34" style="color:#000000" fill="none" stroke="currentColor" transform="translate(-11.526 -20.131)">
  <path id="path36" d="m76.8 223.7h9m560.6 0h-9"/>
  <g id="g38" style="text-anchor:end" transform="translate(68.5,228.2)" font-size="15px" font-family="Arial" fill="#000">
   <text id="text40">-0.2</text>
  </g>
 </g>
 <g id="g42" style="color:#808080" fill="none" stroke="currentColor" transform="translate(-11.526 -20.131)">
  <path id="path44" d="m76.8 186h569.6" stroke="#e9e7e2"/>
 </g>
 <g id="g46" style="color:#000000" fill="none" stroke="currentColor" transform="translate(-11.526 -20.131)">
  <path id="path48" d="m76.8 186h9m560.6 0h-9"/>
  <g id="g50" style="text-anchor:end" transform="translate(68.5,190.5)" font-size="15px" font-family="Arial" fill="#000">
   <text id="text52">0</text>
  </g>
 </g>
 <g id="g54" style="color:#808080" fill="none" stroke="currentColor" transform="translate(-11.526 -20.131)">
  <path id="path56" d="m76.8 148.3h569.6" stroke="#e9e7e2"/>
 </g>
 <g id="g58" style="color:#000000" fill="none" stroke="currentColor" transform="translate(-11.526 -20.131)">
  <path id="path60" d="m76.8 148.3h9m560.6 0h-9"/>
  <g id="g62" style="text-anchor:end" transform="translate(68.5,152.8)" font-size="15px" font-family="Arial" fill="#000">
   <text id="text64">0.2</text>
  </g>
 </g>
 <g id="g66" style="color:#808080" fill="none" stroke="currentColor" transform="translate(-11.526 -20.131)">
  <path id="path68" d="m76.8 110.6h569.6" stroke="#e9e7e2"/>
 </g>
 <g id="g70" style="color:#000000" fill="none" stroke="currentColor" transform="translate(-11.526 -20.131)">
  <path id="path72" d="m76.8 110.6h9m560.6 0h-9"/>
  <g id="g74" style="text-anchor:end" transform="translate(68.5,115.1)" font-size="15px" font-family="Arial" fill="#000">
   <text id="text76">0.4</text>
  </g>
 </g>
 <g id="g78" style="color:#808080" fill="none" stroke="currentColor" transform="translate(-11.526 -20.131)">
  <path id="path80" d="m76.8 72.9h569.6" stroke="#e9e7e2"/>
 </g>
 <g id="g82" style="color:#000000" fill="none" stroke="currentColor" transform="translate(-11.526 -20.131)">
  <path id="path84" d="m76.8 72.9h9m560.6 0h-9"/>
  <g id="g86" style="text-anchor:end" transform="translate(68.5,77.4)" font-size="15px" font-family="Arial" fill="#000">
   <text id="text88">0.6</text>
  </g>
 </g>
 <g id="g90" style="color:#808080" fill="none" stroke="currentColor" transform="translate(-11.526 -20.131)">
  <path id="path92" d="m111.3 318v-264" stroke="#e9e7e2"/>
 </g>
 <g id="g94" style="color:#000000" fill="none" stroke="currentColor" transform="translate(-11.526 -20.131)">
  <path id="path96" d="m111.3 318v-9m0-255v9"/>
  <g id="g98" style="text-anchor:middle" transform="translate(111.3,340.5)" font-size="15px" font-family="Arial" fill="#000">
   <text id="text100">1860</text>
  </g>
 </g>
 <g id="g102" style="color:#808080" fill="none" stroke="currentColor" transform="translate(-11.526 -20.131)">
  <path id="path104" d="m180.4 318v-264" stroke="#e9e7e2"/>
 </g>
 <g id="g106" style="color:#000000" fill="none" stroke="currentColor" transform="translate(-11.526 -20.131)">
  <path id="path108" d="m180.4 318v-9m0-255v9"/>
  <g id="g110" style="text-anchor:middle" transform="translate(180.4,340.5)" font-size="15px" font-family="Arial" fill="#000">
   <text id="text112">1880</text>
  </g>
 </g>
 <g id="g114" style="color:#808080" fill="none" stroke="currentColor" transform="translate(-11.526 -20.131)">
  <path id="path116" d="m249.4 318v-264" stroke="#e9e7e2"/>
 </g>
 <g id="g118" style="color:#000000" fill="none" stroke="currentColor" transform="translate(-11.526 -20.131)">
  <path id="path120" d="m249.4 318v-9m0-255v9"/>
  <g id="g122" style="text-anchor:middle" transform="translate(249.4,340.5)" font-size="15px" font-family="Arial" fill="#000">
   <text id="text124">1900</text>
  </g>
 </g>
 <g id="g126" style="color:#808080" fill="none" stroke="currentColor" transform="translate(-11.526 -20.131)">
  <path id="path128" d="m318.4 318v-264" stroke="#e9e7e2"/>
 </g>
 <g id="g130" style="color:#000000" fill="none" stroke="currentColor" transform="translate(-11.526 -20.131)">
  <path id="path132" d="m318.4 318v-9m0-255v9"/>
  <g id="g134" style="text-anchor:middle" transform="translate(318.4,340.5)" font-size="15px" font-family="Arial" fill="#000">
   <text id="text136">1920</text>
  </g>
 </g>
 <g id="g138" style="color:#808080" fill="none" stroke="currentColor" transform="translate(-11.526 -20.131)">
  <path id="path140" d="m387.5 318v-264" stroke="#e9e7e2"/>
 </g>
 <g id="g142" style="color:#000000" fill="none" stroke="currentColor" transform="translate(-11.526 -20.131)">
  <path id="path144" d="m387.5 318v-9m0-255v9"/>
  <g id="g146" style="text-anchor:middle" transform="translate(387.5,340.5)" font-size="15px" font-family="Arial" fill="#000">
   <text id="text148">1940</text>
  </g>
 </g>
 <g id="g150" style="color:#808080" fill="none" stroke="currentColor" transform="translate(-11.526 -20.131)">
  <path id="path152" d="m456.5 318v-264" stroke="#e9e7e2"/>
 </g>
 <g id="g154" style="color:#000000" fill="none" stroke="currentColor" transform="translate(-11.526 -20.131)">
  <path id="path156" d="m456.5 318v-9m0-255v9"/>
  <g id="g158" style="text-anchor:middle" transform="translate(456.5,340.5)" font-size="15px" font-family="Arial" fill="#000">
   <text id="text160">1960</text>
  </g>
 </g>
 <g id="g162" style="color:#808080" fill="none" stroke="currentColor" transform="translate(-11.526 -20.131)">
  <path id="path164" d="m525.6 318v-264" stroke="#e9e7e2"/>
 </g>
 <g id="g166" style="color:#000000" fill="none" stroke="currentColor" transform="translate(-11.526 -20.131)">
  <path id="path168" d="m525.6 318v-9m0-255v9"/>
  <g id="g170" style="text-anchor:middle" transform="translate(525.6,340.5)" font-size="15px" font-family="Arial" fill="#000">
   <text id="text172">1980</text>
  </g>
 </g>
 <g id="g174" style="color:#808080" fill="none" stroke="currentColor" transform="translate(-11.526 -20.131)">
  <path id="path176" d="m594.6 318v-264" stroke="#e9e7e2"/>
 </g>
 <g id="g178" style="color:#000000" fill="none" stroke="currentColor" transform="translate(-11.526 -20.131)">
  <path id="path180" d="m594.6 318v-9m0-255v9"/>
  <g id="g182" style="text-anchor:middle" transform="translate(594.6,340.5)" font-size="15px" font-family="Arial" fill="#000">
   <text id="text184">2000</text>
  </g>
  <path id="path186" d="m76.8 54v264h569.6v-264h-569.6z"/>
  <g id="g188" style="text-anchor:middle" transform="matrix(0,-1,1,0,22.5,186)" font-size="15px" font-family="Arial" fill="#000">
   <text id="text190">AMO Departure</text>
  </g>
  <g id="g192" style="text-anchor:middle" transform="translate(361.6,367.5)" font-size="15px" font-family="Arial" fill="#000">
   <text id="text194">Year</text>
  </g>
  <g id="g196" style="text-anchor:middle" transform="translate(361.6,31.5)" font-size="15px" font-family="Arial" fill="#000">
   <text id="text198">Monthly values for the AMO index, 1856 -2009</text>
  </g>
 </g>
 <g id="g200" style="color:#ff0000" fill="none" stroke="#fe6000" transform="translate(-11.526 -20.131)">
  <path id="path202" d="m97.8 186v-39.4m0.3 39.4v-27m0.2 27v-40.5m0.3 40.5v-25.1m0.3 25.1v-35.1m0.3 35.1v-39.4m0.2 39.4v-41.7m0.3 41.7v-37.5m0.3 37.5v-50.2m0.3 50.2v-21.7m0.3 21.7v-23.8m0.2 23.8v-41.7m0.4 41.7v-38.8m1.4 38.8v-17.3m0.3 17.3v-23.2m0.6 23.2v-2.1m2 2.1v-38.5m0.3 38.5v-15.3m1.1 15.3v-11.7m0.3 11.7v-26.6m0.3 26.6v-50.3m0.2 50.3v-21.5m1 21.5v-9.8m0.3 9.8v-26.8m0.2 26.8v-14.9m0.9 14.9v-10.4m0.3 10.4v-13.6m0.2 13.6v-22.6m0.3 22.6v-9.6m0.3 9.6v-14m0.4 14v-20.2m0.5 20.2v-9.8m0.6 9.8v-30.4m0.3 30.4v-55.6m0.3 55.6v-41.7m0.2 41.7v-6m0.6 6v-19.2m0.5 19.2v-25.3m1.3 25.3v-45.3m0.3 45.3v-35.3m0.2 35.3v-53.4m0.3 53.4v-76.6m0.3 76.6v-55.4m0.3 55.4v-47.5m0.2 47.5v-38.8m0.3 38.8v-39.2m0.3 39.2v-20.4m4.4 20.4v-3.6m0.3 3.6v-7.9m0.3 7.9v-2.8m3.4 2.8v-12.3m0.3 12.3v-20.4m0.3 20.4v-47.9m0.2 47.9v-63.9m0.3 63.9v-35.3m0.3 35.3v-22.3m0.3 22.3v-33.9m0.2 33.9v-34.1m0.5 34.1v-33.9m0.2 33.9v-45.4m0.3 45.4v-29m0.3 29v-9.4m0.3 9.4v-3.6m0.2 3.6v-35.6m0.3 35.6v-20.9m0.3 20.9v-5.8m0.3 5.8v-51.7m0.2 51.7v-45.4m0.3 45.4v-38.7m0.3 38.7v-38.7m0.4 38.7v-7.2m0.3 7.2v-31.1m0.3 31.1v-37.7m0.2 37.7v-22.4m0.3 22.4v-30.5m0.3 30.5v-63.7m0.3 63.7v-50.7m0.2 50.7v-46.6m0.3 46.6v-25.6m0.3 25.6v-24.1m0.3 24.1v-47.9m0.2 47.9v-49.8m0.5 49.8v-56.4m0.2 56.4v-51.1m0.3 51.1v-70.5m0.3 70.5v-53.6m0.3 53.6v-27.3m0.2 27.3v-14.3m0.3 14.3v-17.9m0.3 17.9v-11.1m0.8 11.1v-19m0.7 19v-9.2m0.3 9.2v-22.4m0.3 22.4v-35.8m0.2 35.8v-47m0.3 47v-33m0.3 33v-59.2m0.3 59.2v-74.1m0.2 74.1v-36.2m0.3 36.2v-25.5m0.9 25.5v-20.9m0.6 20.9v-15.1m0.3 15.1v-12.4m0.3 12.4v-43.9m0.3 43.9v-51.1m0.2 51.1v-38.3m0.3 38.3v-50.7m0.3 50.7v-23.2m0.3 23.2v-15.7m3.2 15.7v-16.6m0.2 16.6v-26.2m0.3 26.2v-27.5m0.3 27.5v-30.5m0.3 30.5v-18.5m0.9 18.5v-22.3m0.3 22.3v-31.7m0.3 31.7v-24.7m0.3 24.7v-22.6m0.2 22.6v-30.2m0.3 30.2v-8.7m1.1 8.7v-14.1m1.5 14.1v-31.1m0.3 31.1v-38.8m0.3 38.8v-51.5m0.3 51.5v-70.3m0.2 70.3v-76.4m0.3 76.4v-7m1 7v-8.1m0.5 8.1v-5.7m0.3 5.7v-6.4m0.8 6.4v-13.8m0.3 13.8v-6.2m0.3 6.2v-25.5m0.3 25.5v-13.2m0.2 13.2v-9.4m0.3 9.4v-24.3m0.4 24.3v-7.5m1.1 7.5v-0.8m0.3 0.8v-28.7m0.3 28.7v-16.8m0.5 16.8v-32.1m1.6 32.1v-10.6m0.2 10.6v-4.7m0.3 4.7v-1.3m0.3 1.3v-28.9m0.3 28.9v-30m0.5 30v-15.1m0.3 15.1v-24.1m0.3 24.1v-11.5m2.6 11.5v-19.8m0.3 19.8v-30.9m0.2 30.9v-26m1.6 26v-27.9m0.2 27.9v-43.7m0.3 43.7v-25.8m0.3 25.8v-46.6m0.3 46.6v-59.6m0.2 59.6v-55.1m0.3 55.1v-67.1m0.3 67.1v-48.3m0.3 48.3v-42.6m0.2 42.6v-55.4m0.3 55.4v-58.8m0.4 58.8v-44.1m0.3 44.1v-61.7m0.3 61.7v-63.7m0.3 63.7v-120.1m0.2 120.1v-97.7m0.3 97.7v-116.9m0.3 116.9v-78.1m0.3 78.1v-109.4m0.2 109.4v-102m0.3 102v-58.8m0.3 58.8v-69m0.3 69v-87.5m0.4 87.5v-59.6m0.3 59.6v-70.1m0.2 70.1v-2.5m0.3 2.5v-5.8m0.3 5.8v-45.1m0.3 45.1v-31.9m0.2 31.9v-14.7m0.3 14.7v-1.7m0.6 1.7v-10.4m0.2 10.4v-11.5m0.3 11.5v-21.1m0.4 21.1v-13.2m0.6 13.2v-15.7m1.1 15.7v-20.7m0.3 20.7v-17.9m0.2 17.9v-46.8m0.3 46.8v-42.1m0.3 42.1v-26.6m0.7 26.6v-30.7m0.3 30.7v-22.3m0.2 22.3v-34.9m0.3 34.9v-40.7m0.3 40.7v-20.6m0.3 20.6v-21.7m0.2 21.7v-0.6m0.3 0.6v-7.5m3.2 7.5v-10.6m0.3 10.6v-12.3m0.3 12.3v-7.2m0.5 7.2v-1.9m0.3 1.9v-2.5m1.2 2.5v-4.7m0.3 4.7v-5.8m0.8 5.8v-3m1.1 3v-24.9m0.4 24.9v-5.8m1.4 5.8v-25.8m2.4 25.8v-8.9m1.6 8.9v-22.1m0.3 22.1v-7.4m0.3 7.4v-7m0.3 7v-3m0.2 3v-7.2m0.5 7.2v-25.5m0.2 25.5v-24.9m0.3 24.9v-35.6m0.3 35.6v-40.2m0.3 40.2v-45.3m0.2 45.3v-39.4m0.3 39.4v-47.3m0.3 47.3v-13m0.3 13v-1.3m2.3 1.3v-9.6m0.3 9.6v-42.8m0.3 42.8v-65.1m0.2 65.1v-40m0.3 40v-30.9m0.3 30.9v-46.8m0.3 46.8v-36.4m0.2 36.4v-36.8m0.5 36.8v-46.6m0.2 46.6v-34.5m0.3 34.5v-50.7m0.3 50.7v-25.6m0.3 25.6v-27m0.2 27v-50.2m0.3 50.2v-37.9m0.3 37.9v-30.4m0.3 30.4v-30.7m0.2 30.7v-50.5m0.3 50.5v-26.8m0.3 26.8v-17.5m0.4 17.5v-47.3m0.3 47.3v-48.7m0.3 48.7v-62.8m0.2 62.8v-59.2m0.3 59.2v-59.4m0.3 59.4v-42.8m0.3 42.8v-14.5m0.2 14.5v-18.1m0.3 18.1v-19.8m0.3 19.8v-19.6"/>
  <path id="path204" d="m214.5 186v-33.4m0.2 33.4v-9.8m0.5 9.8v-5.8m0.2 5.8v-2.8m3.8 2.8v-14.5m0.2 14.5v-21.3m0.3 21.3v-34.1m0.3 34.1v-31.3m0.3 31.3v-46.2m0.2 46.2v-19.4m0.3 19.4v-2.1m0.3 2.1v-5.5m0.6 5.5v-4.1m0.4 4.1v-12.3m0.2 12.3v-23.8m0.3 23.8v-18.7m0.3 18.7v-1.5m4 1.5v-24.3m0.3 24.3v-34.3m0.3 34.3v-31.3m0.2 31.3v-10.4m0.6 10.4v-5.1m6.3 5.1v-14.9m0.3 14.9v-14.5m1.2 14.5v-7.2m0.6 7.2v-10m0.3 10v-49.4m0.3 49.4v-36.6m0.2 36.6v-20m0.3 20v-16m0.3 16v-60m0.3 60v-30.7m0.2 30.7v-9.4m0.3 9.4v-11.3m0.4 11.3v-15.7m0.3 15.7v-25.6m0.3 25.6v-58.1m0.3 58.1v-47.3m0.2 47.3v-31.3m0.3 31.3v-19.2m0.3 19.2v-18.9m0.3 18.9v-4.1m0.2 4.1v-9.4m0.3 9.4v-14.9m1.3 14.9v-11.5m0.2 11.5v-20.7m0.3 20.7v-11.9m0.3 11.9v-17.5m0.3 17.5v-40.2m0.2 40.2v-41.5m0.3 41.5v-26.8m0.3 26.8v-20.4m0.8 20.4v-0.6m1.3 0.6v-16.8m0.2 16.8v-38.7m0.3 38.7v-36m0.3 36v-21.5m0.3 21.5v-51.5m0.2 51.5v-25.1m0.3 25.1v-18.1m0.3 18.1v-38.5m0.3 38.5v-57.1m0.4 57.1v-40m0.3 40v-39.2m0.2 39.2v-12.6m0.3 12.6v-31.9m0.3 31.9v-0.4m0.3 0.4v-1.1m0.2 1.1v-18.5m0.3 18.5v-0.8m0.3 0.8v-10.2m0.3 10.2v-22.8m0.2 22.8v-9.4m0.3 9.4v-26.8m0.4 26.8v-10.2m0.3 10.2v-36.2m0.3 36.2v-31.1m0.3 31.1v-29.6m0.2 29.6v-16.4m0.3 16.4v-42.2m0.3 42.2v-35.8m0.3 35.8v-35.3m0.2 35.3v-1.7m3.5 1.7v-0.9m0.3 0.9v-4.1m1.2 4.1v-10.9m11.5 10.9v-2.1m7.2 2.1v-4.9m0.2 4.9v-2.1m23.1 2.1v-10.4m0.3 10.4v-50m0.2 50v-56m0.3 56v-60.5m0.3 60.5v-40.5m0.3 40.5v-37.7m0.2 37.7v-6m0.6 6v-2.6m1.5 2.6v-4.3m0.3 4.3v-5.8m27.3 5.8v-9.8m5.4 9.8v-10m0.4 10v-7.7m0.3 7.7v-21.5m0.3 21.5v-10.2m0.3 10.2v-21.9m0.2 21.9v-25.1m0.3 25.1v-14.1m0.3 14.1v-27.9m0.3 27.9v-11.1m0.2 11.1v-9.2m0.3 9.2v-34.7m0.3 34.7v-6.2m0.3 6.2v-18.1m0.4 18.1v-16.4m0.3 16.4v-15.7m0.2 15.7v-8.9m0.3 8.9v-14.1m0.3 14.1v-37.5m0.3 37.5v-30.4m0.2 30.4v-30.5m0.3 30.5v-30.9m0.3 30.9v-21.1m0.3 21.1v-33.9m0.3 33.9v-27.3m1.7 27.3v-4.5m0.3 4.5v-14m0.3 14v-17.5m0.3 17.5v-20.6m0.3 20.6v-17.9m0.2 17.9v-9.1m6.1 9.1v-12.8m0.3 12.8v-14.7m0.3 14.7v-55.8m0.2 55.8v-39.6m0.3 39.6v-30.5m0.3 30.5v-28.7m0.4 28.7v-23.2m0.3 23.2v-14.1m0.3 14.1v-29.6m0.2 29.6v-30.2m0.3 30.2v-44.1m0.3 44.1v-52.4m0.3 52.4v-38.5m0.2 38.5v-30.2m0.3 30.2v-51.5m0.3 51.5v-61.9m0.3 61.9v-12.8m0.2 12.8v-34.1m0.5 34.1v-34.9m0.2 34.9v-45.1m0.3 45.1v-48.5m0.3 48.5v-41.7m0.3 41.7v-30.7m0.2 30.7v-47.7m0.3 47.7v-52.8m0.3 52.8v-74.7m0.3 74.7v-65.1m0.2 65.1v-46.8m0.3 46.8v-27.7m0.3 27.7v-19.8m0.4 19.8v-18.5m0.3 18.5v-31.3m0.3 31.3v-18.9m0.2 18.9v-41.7m0.3 41.7v-56.8m0.3 56.8v-47.7m0.3 47.7v-54.5m0.2 54.5v-54.9m0.3 54.9v-47.5m0.3 47.5v-64.3m0.3 64.3v-17m0.2 17v-2.3m1.8 2.3v-8.3m0.3 8.3v-34.1m0.3 34.1v-17m0.3 17v-28.9m0.2 28.9v-33.9m0.3 33.9v-5.3m0.3 5.3v-1.1m0.4 1.1v-10m0.8 10v-12.3m0.3 12.3v-28.7m0.3 28.7v-22.4m0.3 22.4v-13.8m0.2 13.8v-3m0.9 3v-5.7m0.2 5.7v-20.9m0.5 20.9v-27.9m0.2 27.9v-29.4m0.3 29.4v-38.5m0.3 38.5v-39m0.3 39v-33.6m0.2 33.6v-38.3m0.3 38.3v-38.7m0.3 38.7v-42.2m0.3 42.2v-34.7m0.2 34.7v-21.5m0.3 21.5v-5.7m0.3 5.7v-10.9m0.4 10.9v-12.3m0.3 12.3v-18.1m0.3 18.1v-20.6m0.2 20.6v-15.1m0.3 15.1v-26.8m0.3 26.8v-86.9m0.3 86.9v-117.3m0.2 117.3v-113.5m0.3 113.5v-97.7m0.3 97.7v-58.3m0.3 58.3v-50.5m0.2 50.5v-68.6m0.5 68.6v-41.9m0.2 41.9v-30.7m0.3 30.7v-39.6m0.3 39.6v-46.8m0.3 46.8v-40.5m0.2 40.5v-33.8m0.3 33.8v-40.7m0.3 40.7v-58.3m0.3 58.3v-60.3m0.2 60.3v-69m0.3 69v-62.2m0.3 62.2v-43.4m0.4 43.4v-27.5m0.3 27.5v-16.8m0.5 16.8v-20m0.3 20v-21.9m0.3 21.9v-35.6m0.3 35.6v-63.5m0.2 63.5v-63m0.3 63v-58.6m0.3 58.6v-4m1 4v-14m1.1 14v-2.6m0.2 2.6v-4.9m0.3 4.9v-20.6m0.3 20.6v-22.3m0.3 22.3v-7m1.5 7v-20.4m0.3 20.4v-27.2m0.2 27.2v-14.5m0.3 14.5v-9.4m0.6 9.4v-19m0.3 19v-55.1m0.2 55.1v-59.8m0.3 59.8v-80.9m0.3 80.9v-76.4m0.3 76.4v-63.9m0.4 63.9v-27.9m0.2 27.9v-39.8m0.3 39.8v-38.8m0.3 38.8v-41.1m0.3 41.1v-41.9m0.3 41.9v-51.5m0.2 51.5v-21.5m0.3 21.5v-30m0.3 30v-44.7"/>
  <path id="path206" d="m397.2 186v-40.7m0.2 40.7v-39.6m0.3 39.6v-20m0.4 20v-26.8m0.3 26.8v-20.7m1.4 20.7v-5.8m0.3 5.8v-5.7m0.2 5.7v-17.2m0.3 17.2v-17.7m0.3 17.7v-29.8m0.3 29.8v-45.6m0.4 45.6v-59.4m0.3 59.4v-62.6m0.2 62.6v-82.4m0.3 82.4v-62m0.3 62v-57.9m0.3 57.9v-68.3m0.2 68.3v-70.9m0.3 70.9v-86.6m0.3 86.6v-81.7m0.3 81.7v-71.8m0.2 71.8v-54.1m0.3 54.1v-54.5m0.4 54.5v-51.9m0.3 51.9v-68.6m0.3 68.6v-71.8m0.3 71.8v-80.5m0.2 80.5v-61.5m0.3 61.5v-35.8m0.3 35.8v-18.7m0.3 18.7v-23.2m0.2 23.2v-19m0.3 19v-22.3m0.3 22.3v-37.9m0.3 37.9v-29m0.4 29v-55.3m0.3 55.3v-39m0.2 39v-27.9m0.3 27.9v-14.7m0.3 14.7v-20m1.4 20v-0.2m3.7 0.2v-12.3m0.3 12.3v-9.8m0.4 9.8v-0.6m0.5 0.6v-8.7m0.6 8.7v-2.6m0.3 2.6v-13.8m1.1 13.8v-4.9m0.2 4.9v-28.7m0.3 28.7v-15.1m0.4 15.1v-32.2m0.3 32.2v-33.6m0.3 33.6v-10.7m0.3 10.7v-22.1m0.5 22.1v-3.6m0.3 3.6v-17m0.3 17v-22.8m0.2 22.8v-16.6m0.3 16.6v-23m0.3 23v-23.8m0.3 23.8v-25.8m0.4 25.8v-24.3m1.9 24.3v-7.4m0.3 7.4v-5.3m0.5 5.3v-18.7m0.3 18.7v-20.4m0.4 20.4v-23m0.3 23v-3.2m0.3 3.2v-6m0.3 6v-35.5m0.2 35.5v-36.2m0.3 36.2v-58.1m0.3 58.1v-83.2m0.3 83.2v-60.9m0.2 60.9v-50.7m0.3 50.7v-52.6m0.3 52.6v-36.6m0.3 36.6v-36.6m0.4 36.6v-36.2m0.3 36.2v-38.1m0.2 38.1v-47.1m0.3 47.1v-39.6m0.3 39.6v-37.7m0.3 37.7v-76m0.2 76v-73.9m0.3 73.9v-79.8m0.3 79.8v-72m0.3 72v-70.5m0.3 70.5v-50.9m0.2 50.9v-68.1m0.4 68.1v-53.7m0.3 53.7v-38.7m0.3 38.7v-30.4m0.3 30.4v-62.8m0.2 62.8v-68.3m0.3 68.3v-55.6m0.3 55.6v-68.5m0.3 68.5v-52.4m0.3 52.4v-56.6m0.2 56.6v-31.7m0.3 31.7v-50m0.3 50v-52.4m0.4 52.4v-46.6m0.3 46.6v-21.7m0.2 21.7v-22.6m0.3 22.6v-1.3m0.3 1.3v-17m0.3 17v-22.6m0.5 22.6v-0.9m0.3 0.9v-1.9m1.2 1.9v-18.3m0.3 18.3v-11.3m0.3 11.3v-11.7m0.3 11.7v-21.9m0.3 21.9v-37.1m0.2 37.1v-40.4m0.3 40.4v-54.5m0.3 54.5v-37m0.3 37v-42.2m0.2 42.2v-56.6m0.3 56.6v-76.7m0.3 76.7v-52.2m0.4 52.2v-39m0.3 39v-21.9m0.3 21.9v-6.6m0.2 6.6v-15.8m2.2 15.8v-7.7m1 7.7v-0.4m0.8 0.4v-1.7m0.3 1.7v-11.5m0.3 11.5v-42.2m0.3 42.2v-45.8m0.2 45.8v-32.2m0.3 32.2v-19.8m0.3 19.8v-19m0.4 19v-13.4m0.3 13.4v-39.6m0.3 39.6v-69m0.2 69v-69.6m0.3 69.6v-42.1m0.3 42.1v-45.8m0.3 45.8v-34.9m0.2 34.9v-34.5m0.3 34.5v-44.1m0.3 44.1v-32.6m0.3 32.6v-38.8m0.2 38.8v-45.4m0.5 45.4v-23m0.2 23v-25.6m0.6 25.6v-3.4m0.3 3.4v-5.3m0.8 5.3v-6.4m0.3 6.4v-27.7m0.2 27.7v-25.3m0.3 25.3v-13.6m0.3 13.6v-24.9m0.4 24.9v-37.3m0.3 37.3v-44.9m0.3 44.9v-20.7m0.2 20.7v-22.4m0.3 22.4v-61.1m0.3 61.1v-64.3m0.3 64.3v-55.1m0.2 55.1v-67.3m0.3 67.3v-43.9m0.3 43.9v-60m0.3 60v-51.3m0.2 51.3v-30.2m0.5 30.2v-15.7m0.2 15.7v-19.6m0.3 19.6v-32.2m0.3 32.2v-47.1m0.3 47.1v-40.7m0.2 40.7v-10.4m0.3 10.4v-0.8m0.3 0.8v-10.9m0.3 10.9v-4.7m0.2 4.7v-9.6m0.3 9.6v-17m0.3 17v-44.5m0.4 44.5v-32.4m0.3 32.4v-33m0.3 33v-35.5m0.2 35.5v-20.7m0.3 20.7v-8.7m0.6 8.7v-2.8m0.5 2.8v-5.1m0.3 5.1v-16.8m0.3 16.8v-13m0.3 13v-40.2m0.4 40.2v-33.9m0.2 33.9v-35.6m0.3 35.6v-29.6m0.3 29.6v-23.9m2.9 23.9v-8.3m0.3 8.3v-11.9m0.5 11.9v-12.1m0.3 12.1v-5.1m5.8 5.1v-6.4m0.3 6.4v-2.6m0.3 2.6v-12.6m0.2 12.6v-4.7m1.1 4.7v-4.3m0.3 4.3v-7m0.3 7v-5.1m0.3 5.1v-19.6m0.4 19.6v-20m0.3 20v-21.1m0.5 21.1v-1.7m6.4 1.7v-24.3m0.2 24.3v-43.7m0.3 43.7v-32.8m0.3 32.8v-6.6m0.3 6.6v-10m0.2 10v-22.4m1.8 22.4v-2.8m0.6 2.8v-8.5m0.3 8.5v-8.5m33.7 8.5v-5.7m0.8 5.7v-6m0.3 6v-30.4m0.2 30.4v-26.4m0.3 26.4v-15.5m0.3 15.5v-10.4m0.3 10.4v-4.5m1.8 4.5v-7.2m1.6 7.2v-0.2m0.8 0.2v-4.9m4.5 4.9v-21.9m0.2 21.9v-18.7m0.9 18.7v-5.1m1.3 5.1v-6.6m11.4 6.6v-0.4m0.2 0.4v-12.3m0.3 12.3v-17.3m0.3 17.3v-44.1m0.3 44.1v-60m0.2 60v-60.3m0.3 60.3v-44.7m0.3 44.7v-17.2m0.6 17.2v-15.3m0.9 15.3v-5.3m0.3 5.3v-17.5m0.3 17.5v-33m0.2 33v-39m0.3 39v-30.2m0.3 30.2v-6.8m2.9 6.8v-23.8m0.3 23.8v-40.5m0.3 40.5v-28.9m3.1 28.9v-3.6m0.3 3.6v-16.8m0.3 16.8v-35.1m0.3 35.1v-29.6m0.5 29.6v-1.3m13.5 1.3v-4.3m1 4.3v-0.4"/>
  <path id="path208" d="m578.2 186v-11.3m0.3 11.3v-22.1m0.2 22.1v-57.1m0.3 57.1v-76.7m0.3 76.7v-66.9m0.3 66.9v-42.4m0.2 42.4v-18.5m0.3 18.5v-26.6m0.3 26.6v-30m0.3 30v-14m0.4 14v-4.9m0.3 4.9v-0.8m0.5 0.8v-8.5m1.1 8.5v-6.2m0.3 6.2v-7.5m1.5 7.5v-0.9m0.3 0.9v-8.3m0.3 8.3v-8.3m0.2 8.3v-13.6m0.3 13.6v-9.6m0.3 9.6v-19.6m0.3 19.6v-10.7m0.2 10.7v-27.7m0.3 27.7v-35.3m0.3 35.3v-15.8m0.3 15.8v-31.7m0.4 31.7v-32.1m0.3 32.1v-62.4m0.2 62.4v-67.9m0.3 67.9v-63.2m0.3 63.2v-78.4m0.3 78.4v-99.8m0.2 99.8v-100.3m0.3 100.3v-105.6m0.3 105.6v-86.7m0.3 86.7v-81.1m0.3 81.1v-68.6m0.2 68.6v-60.2m0.4 60.2v-17.3m0.3 17.3v-18.3m0.3 18.3v-20.9m0.3 20.9v-18.3m0.2 18.3v-39.2m0.3 39.2v-43.9m0.3 43.9v-46.8m0.3 46.8v-67.5m0.3 67.5v-44.9m0.2 44.9v-13.8m0.3 13.8v-0.8m0.3 0.8v-11.5m0.7 11.5v-0.2m0.2 0.2v-26.8m0.3 26.8v-16.6m0.3 16.6v-28.1m0.3 28.1v-5.1m0.3 5.1v-22.1m0.2 22.1v-27.7m0.3 27.7v-28.1m0.3 28.1v-1.3m1.2 1.3v-3.6m0.3 3.6v-12.3m0.3 12.3v-7m0.3 7v-5.7m0.2 5.7v-45.4m0.3 45.4v-34.9m0.3 34.9v-43.2m0.3 43.2v-64.7m0.2 64.7v-58.3m0.3 58.3v-38.7m0.3 38.7v-47.9m0.4 47.9v-41.7m0.3 41.7v-39.6m0.3 39.6v-36m0.2 36v-14m1.1 14v-29.8m0.3 29.8v-25.3m0.3 25.3v-30.9m0.3 30.9v-12.6m0.2 12.6v-9.2m0.5 9.2v-18.1m0.2 18.1v-5.3m0.3 5.3v-28.3m0.3 28.3v-22.4m0.3 22.4v-37.1m0.2 37.1v-48.1m0.3 48.1v-63m0.3 63v-89.2m0.3 89.2v-94.7m0.2 94.7v-89.6m0.3 89.6v-51.1m0.3 51.1v-50.9m0.4 50.9v-47.9m0.3 47.9v-47.7m0.3 47.7v-37.7m0.2 37.7v-29.2m0.3 29.2v-7.9m0.3 7.9v-41.7m0.3 41.7v-52.6m0.2 52.6v-68.8m0.3 68.8v-54.1m0.3 54.1v-55.1m0.3 55.1v-52m0.2 52v-44.7m0.5 44.7v-30m0.2 30v-31.7m0.3 31.7v-61.9m0.3 61.9v-63.9m0.3 63.9v-63.2m0.2 63.2v-70.3m0.3 70.3v-94.5m0.3 94.5v-92.6m0.3 92.6v-88.6m0.2 88.6v-54.1m0.3 54.1v-34.3m0.3 34.3v-49.2m0.4 49.2v-31.5m0.3 31.5v-21.5m0.3 21.5v-19m0.2 19v-46.2m0.3 46.2v-66.4m0.3 66.4v-72.2m0.3 72.2v-80.9m0.2 80.9v-86.9m0.3 86.9v-78.8m0.3 78.8v-72.6m0.3 72.6v-61.9m0.2 61.9v-40.4m0.5 40.4v-40.4m0.2 40.4v-48.8m0.3 48.8v-32.4m0.3 32.4v-39m0.3 39v-29.4m0.2 29.4v-26m0.3 26v-34.7m0.3 34.7v-20.6m0.3 20.6v-28.5m0.2 28.5v-39.8m0.3 39.8v-42.6m0.3 42.6v-29.2m0.4 29.2v-13.8m0.3 13.8v-32.2m0.3 32.2v-39m0.2 39v-17.5m0.3 17.5v-40.5m0.3 40.5v-58.5m0.3 58.5v-48.8m0.2 48.8v-42.1m0.3 42.1v-47.1m0.3 47.1v-28.7m0.3 28.7v-10m0.2 10v-13.6m1.8 13.6v-32.8m0.3 32.8v-53m0.3 53v-38.5m0.3 38.5v-20.6m0.2 20.6v-41.7m0.3 41.7v-22.8m0.3 22.8v-25.5"/>
 </g>
 <g id="g210" style="color:#008000" fill="none" stroke="#3c9fef" transform="translate(-11.526 -20.131)">
  <path id="path212" d="m101.5 186v12.8m0.3-12.8v15.8m0.3-15.8v0.2m0.2-0.2v7.7m0.9-7.7v2.1m0.5-2.1v26.8m0.3-26.8v33.4m0.3-33.4v54.9m0.4-54.9v43.2m0.3-43.2v60.7m0.2-60.7v14.9m0.9-14.9v8.9m0.3-8.9v31.9m0.2-31.9v14.9m1.5-14.9v26.6m0.3-26.6v24.3m1.1-24.3v20.6m0.3-20.6v35.5m2.1-35.5v22.6m0.5-22.6v14.7m1.4-14.7v2.5m0.6-2.5v2.8m0.6-2.8v1.3m0.3-1.3v22.3m0.3-22.3v2.6m2.9-2.6v6.6m0.3-6.6v32.2m0.3-32.2v15.1m0.2-15.1v25.1m0.3-25.1v35.6m0.3-35.6v9.8m0.3-9.8v56.8m0.2-56.8v51.9m0.3-51.9v49.8m0.3-49.8v51.5m0.3-51.5v67.9m0.2-67.9v69m0.5-69v29.2m0.2-29.2v9.8m1.1-9.8v9.4m0.3-9.4v56.9m0.3-56.9v58.1m0.3-58.1v31.3m0.2-31.3v45.6m0.3-45.6v35.1m0.3-35.1v23.4m0.4-23.4v40.2m0.3-40.2v68.6m0.3-68.6v35.6m0.2-35.6v8.3m11.8-8.3v1.9m0.2-1.9v7.5m0.6-7.5v12.3m2.9-12.3v23.6m0.3-23.6v12.8m0.7-12.8v23.6m2.5-23.6v3.4m0.2-3.4v10.6m0.3-10.6v18.5m0.4-18.5v32.1m0.3-32.1v0.4m0.3-0.4v10.2m0.2-10.2v34.1m0.3-34.1v7.7m0.3-7.7v4.3m0.3-4.3v9.6m1.8-9.6v27.9m0.2-27.9v24.5m2-24.5v18.7m0.3-18.7v30m0.2-30v3m0.7-3v15.3m0.3-15.3v12.3m0.3-12.3v18.1m0.3-18.1v16m1.9-16v8.5m0.3-8.5v11.9m0.7-11.9v1.1m0.8-1.1v11.3m0.3-11.3v9.6m2.3-9.6v23.4m0.3-23.4v24.5m0.3-24.5v19m1.1-19v4.5m0.5-4.5v9.6m0.3-9.6v13m0.3-13v56.8m0.4-56.8v33.4m1.6-33.4v1.3m1.1-1.3v13m0.3-13v16.4m0.4-16.4v40.5m0.3-40.5v16.2m0.3-16.2v19m0.3-19v15.3m0.2-15.3v15.5m0.3-15.5v2.8m1.1-2.8v12.1m0.3-12.1v17.2m0.3-17.2v5.1m0.4-5.1v0.6m9.1-0.6v5.5m1.5-5.5v0.4m0.6-0.4v8.3m0.2-8.3v27.5m0.3-27.5v3.4m1.7-3.4v17.2m2.6-17.2v5.1m0.3-5.1v14m0.3-14v58.5m0.2-58.5v18.9m0.4-18.9v25.5m0.3-25.5v19.2m0.3-19.2v7m0.3-7v24.9m0.2-24.9v25.3m0.3-25.3v0.9m1.1-0.9v3.6m1-3.6v9.6m0.3-9.6v31.5m0.2-31.5v29.4m0.9-29.4v6m0.3-6v8.7m0.5-8.7v17.5m0.3-17.5v21.7m0.3-21.7v1.7m0.9-1.7v27.2m0.3-27.2v20.9m0.3-20.9v11.9m0.3-11.9v9.1m0.5-9.1v5.7m0.3-5.7v1.5m0.3-1.5v28.5m0.2-28.5v27m0.3-27v64.1m0.3-64.1v21.3m0.4-21.3v12.3m0.6-12.3v6m0.2-6v46.6m0.3-46.6v30.5m0.3-30.5v24.1m0.3-24.1v4m4.2-4v2.5m0.3-2.5v1.5m0.3-1.5v2.6m0.4-2.6v17.5m0.3-17.5v15.1m0.3-15.1v3.2m0.2-3.2v11.1m10.1-11.1v7.2m0.3-7.2v28.9m0.3-28.9v27.3m0.2-27.3v19m0.3-19v47.9m0.3-47.9v56.4m0.3-56.4v48.7m0.2-48.7v15.3m0.3-15.3v50.9m0.3-50.9v46.6m0.4-46.6v51.7m0.3-51.7v15.8m2.5-15.8v44.3m1.8-44.3v23.6m0.2-23.6v27m0.3-27v47m0.3-47v19.4m0.3-19.4v39.6m0.3-39.6v33.8m0.2-33.8v51.7m0.3-51.7v32.8m0.4-32.8v18.7m0.3-18.7v9.6m0.3-9.6v7.4m0.2-7.4v28.5m0.3-28.5v24.9m1.4-24.9v10.6m0.6-10.6v28.9m0.4-28.9v27.2m0.2-27.2v30.5m0.3-30.5v34.3m0.3-34.3v52.6m0.3-52.6v66.6m0.3-66.6v60.2m0.2-60.2v41.7m0.3-41.7v43.7m0.3-43.7v41.7m0.3-41.7v62.4m0.2-62.4v58.1m0.3-58.1v42.1m0.4-42.1v21.1m0.3-21.1v14.9m0.3-14.9v48.7m0.3-48.7v53.9m0.2-53.9v38.1m0.3-38.1v19.2m0.3-19.2v12.8m0.3-12.8v17m0.8-17v19.4m0.3-19.4v8.3m0.4-8.3v11.7m0.5-11.7v6.6m5.7-6.6v2.1m0.3-2.1v1.9m0.4-1.9v2.3m2.5-2.3v4.7m0.2-4.7v23.8m0.7-23.8v11.9m0.3-11.9v9.2m0.3-9.2v1.1m8.8-1.1v19.2m0.3-19.2v13.8m0.3-13.8v11.3m0.4-11.3v20.9m0.3-20.9v5.1m0.2-5.1v3.4m0.3-3.4v27.2m0.3-27.2v15.8m0.3-15.8v46.4m0.2-46.4v53.9m0.3-53.9v31.3m0.8-31.3v20.9m0.3-20.9v15.1m0.4-15.1v6.8m0.6-6.8v10m0.3-10v11.9m0.2-11.9v26m0.3-26v32.2m0.3-32.2v29.8m0.3-29.8v83m0.2-83v85m0.3-85v68.1m0.3-68.1v44.1m0.3-44.1v54.3m0.4-54.3v65.6m0.3-65.6v69.6m0.2-69.6v70.7m0.3-70.7v79m0.3-79v74.1m0.3-74.1v80.1m0.2-80.1v62.8m0.3-62.8v64.9m0.3-64.9v89.4m0.3-89.4v69m0.3-69v36.8m0.2-36.8v28.3m0.4-28.3v41.7m0.3-41.7v33.8m0.3-33.8v67.1m0.3-67.1v31.9m0.2-31.9v11.1m0.3-11.1v31.7m0.3-31.7v9.4m0.3-9.4v26m0.3-26v66.4m0.2-66.4v46.8m0.3-46.8v50m0.3-50v45.4"/>
  <path id="path214" d="m270.4 186v12.8m0.3-12.8v5.5m0.2-5.5v9.2m0.3-9.2v7.7m0.3-7.7v29.4m0.6-29.4v0.6m0.2-0.6v11.5m0.3-11.5v21.9m0.3-21.9v26m0.3-26v2.8m0.2-2.8v41.9m0.4-41.9v34.5m0.3-34.5v65.1m0.3-65.1v47.5m0.3-47.5v29.8m0.3-29.8v27.5m0.2-27.5v47.1m0.3-47.1v52.4m0.3-52.4v58.8m0.3-58.8v33m0.2-33v40.9m0.3-40.9v42.2m0.3-42.2v35.5m0.4-35.5v43.2m0.3-43.2v43.4m0.3-43.4v44.7m0.2-44.7v38.8m0.3-38.8v30.4m0.3-30.4v11.5m0.8-11.5v16.2m0.3-16.2v22.3m0.3-22.3v28.7m0.2-28.7v22.4m0.5-22.4v19.2m0.2-19.2v26.4m0.3-26.4v18.7m0.3-18.7v27.5m0.3-27.5v0.8m0.2-0.8v23.8m0.3-23.8v31.1m0.3-31.1v15.3m0.3-15.3v21.1m0.2-21.1v27.9m0.3-27.9v54.5m0.3-54.5v43.6m0.4-43.6v57.3m0.3-57.3v46.8m0.3-46.8v48.7m0.2-48.7v58.1m0.3-58.1v63.9m0.3-63.9v67.5m0.3-67.5v53.9m0.2-53.9v48.5m0.3-48.5v19.4m0.3-19.4v35.3m0.3-35.3v14.1m0.2-14.1v45.3m0.5-45.3v47.1m0.2-47.1v47.3m0.3-47.3v57.7m0.3-57.7v59.8m0.3-59.8v64.3m0.2-64.3v44.5m0.3-44.5v31.3m0.3-31.3v11.9m0.3-11.9v21.9m0.2-21.9v20.9m0.3-20.9v43m0.3-43v32.1m0.4-32.1v44.1m0.3-44.1v48.5m0.3-48.5v40.7m0.2-40.7v31.3m0.3-31.3v21.1m0.3-21.1v27.7m0.3-27.7v47.9m0.2-47.9v73.9m0.3-73.9v45.6m0.3-45.6v46.6m0.3-46.6v41.5m0.2-41.5v43.9m0.5-43.9v57.3m0.2-57.3v39.4m0.3-39.4v41.9m0.3-41.9v82.8m0.3-82.8v84.1m0.2-84.1v106.2m0.3-106.2v82.2m0.3-82.2v81.5m0.3-81.5v80.1m0.2-80.1v71.5m0.3-71.5v85.4m0.3-85.4v61.1m0.4-61.1v41.5m0.3-41.5v59.6m0.3-59.6v76m0.2-76v71.8m0.3-71.8v49m0.3-49v70.5m0.3-70.5v80.9m0.2-80.9v69.2m0.3-69.2v35.1m0.3-35.1v20.9m0.3-20.9v34.1m0.2-34.1v42.4m0.5-42.4v23.8m0.2-23.8v21.5m0.3-21.5m2.2 0v0.8m0.7-0.8v6.8m0.3-6.8v18.1m0.3-18.1v17m0.2-17v21.7m0.9-21.7v13.6m0.2-13.6v2.6m0.3-2.6v0.2m0.3-0.2v13.6m0.3-13.6v44.7m0.3-44.7v38.7m0.4-38.7v54.9m0.2-54.9v65.2m0.3-65.2v75.2m0.3-75.2v56.9m0.3-56.9v47.1m0.2-47.1v27.9m0.3-27.9v38.8m0.3-38.8v35.5m0.3-35.5v52.4m0.3-52.4v63.7m0.2-63.7v59.6m0.3-59.6v48.1m0.4-48.1v18.3m0.3-18.3v32.2m0.3-32.2v21.3m0.2-21.3v32.8m0.3-32.8v44.1m0.3-44.1v78.1m0.3-78.1v68.3m0.3-68.3v72.8m0.2-72.8v67.9m0.3-67.9v47.7m0.3-47.7v55.6m0.3-55.6v41.5m0.4-41.5v41.9m0.2-41.9v10.2m0.3-10.2v35.3m0.3-35.3v9.6m0.3-9.6v30.2m0.3-30.2v40.9m0.2-40.9v52.4m0.3-52.4v35.1m0.3-35.1v35.3m0.3-35.3v26m0.2-26v41.9m0.3-41.9v53.7m0.4-53.7v86m0.3-86v75.1m0.3-75.1v84.1m0.3-84.1v62.2m0.2-62.2v46.6m0.3-46.6v52m0.3-52v51.1m0.3-51.1v56m0.2-56v50.9m0.3-50.9v49.4m0.3-49.4v79.6m0.3-79.6v56m0.4-56v53.7m0.3-53.7v50.5m0.2-50.5v58.8m0.3-58.8v48.7m0.3-48.7v46.2m0.3-46.2v45.6m0.2-45.6v19.2m0.3-19.2v45.3m0.3-45.3v41.3m0.3-41.3v9.1m0.2-9.1v48.3m0.3-48.3v21.5m0.4-21.5v37.5m0.3-37.5v44.5m0.3-44.5v63m0.3-63v76.2m0.2-76.2v58.8m0.3-58.8v61.3m0.3-61.3v69.8m0.3-69.8v56.9m0.2-56.9v68.1m0.3-68.1v52.8m0.3-52.8v64.9m0.3-64.9v60m0.4-60v67.3m0.3-67.3v85.6m0.2-85.6v75.1m0.3-75.1v79.8m0.3-79.8v51.7m0.3-51.7v58.1m0.2-58.1v59.4m0.3-59.4v79m0.3-79v68.3m0.3-68.3v48.7m0.2-48.7v39.4m0.3-39.4v10.2m0.4-10.2v23.4m0.3-23.4v36.2m0.3-36.2v18.3m0.3-18.3v9.4m0.5-9.4v17m0.3-17v22.4m0.3-22.4v24.7m0.2-24.7v37.1m0.3-37.1v43.2m0.3-43.2v58.3m0.3-58.3v53m0.4-53v60.2m0.3-60.2v57.3m0.2-57.3v43.6m0.3-43.6v32.6m0.3-32.6v13.2m0.3-13.2v34.5m0.2-34.5v25.8m0.3-25.8v23.4m0.3-23.4v21.3m0.3-21.3v15.1m0.2-15.1v31.1m7.2-31.1v3m0.4-3v7.4m0.3-7.4v16.4m0.3-16.4v16.4m0.3-16.4v17.3m1.9-17.3v8.3m0.3-8.3v15.7m0.4-15.7v15.1m0.3-15.1v17.5m0.2-17.5v15.7m0.3-15.7v1.5m0.3-1.5v19.4m0.3-19.4v34.9m0.3-34.9v32.4m0.2-32.4v27.7m0.3-27.7v10.6m0.3-10.6v8.7m0.3-8.7v20m0.2-20v33.4m0.4-33.4v21.7m0.3-21.7v31.5m0.3-31.5v16.2m0.3-16.2v38.1m0.3-38.1v19.4m0.2-19.4v13.8m12.5-13.8v19m0.2-19v33.9m0.3-33.9v37.9m0.3-37.9v15.8m0.3-15.8v19.2m2.6-19.2v23.6m0.3-23.6v26.2"/>
  <path id="path216" d="m372.7 186v5.1m0.3-5.1v1.5m11.9-1.5v4m2.2-4v26.6m0.3-26.6v12.8m0.6-12.8v34.1m0.3-34.1v24.9m0.3-24.9v3.8m1.7-3.8v7m0.2-7v22.4m0.3-22.4v23.8m0.4-23.8v9.2m1.4-9.2v1.1m6.1-1.1v16.8m0.3-16.8v22.8m0.2-22.8v20.7m0.3-20.7v11.7m10.4-11.7v15.8m0.2-15.8v35.6m0.3-35.6v27.9m0.3-27.9m0.5 0v9.1m0.3-9.1v3.2m0.4-3.2v29.6m0.3-29.6v20.7m0.3-20.7v13.8m0.3-13.8v15.1m0.2-15.1v25.8m0.3-25.8v25.5m0.3-25.5v26.2m0.3-26.2v15.5m0.2-15.5v6.2m0.3-6.2v13.6m1.3-13.6v1.7m0.5-1.7v9.8m0.8-9.8v4m0.3-4v0.8m0.3-0.8v6.6m2.3-6.6v0.9m2.7-0.9v2.8m0.2-2.8v16.4m0.3-16.4v20.9m0.3-20.9v7.5m0.3-7.5v4.5m0.2-4.5v6.8m0.9-6.8v13.6m13-13.6v4.7m0.8-4.7v2.3m0.3-2.3v1.1m0.2-1.1v5.8m5-5.8v7m0.3-7v45.8m0.3-45.8v13m0.2-13v14.5m0.3-14.5v12.8m0.3-12.8v4.1m0.3-4.1v12.4m0.7-12.4v11.3m0.2-11.3v16m0.6-16v10m0.3-10v18.9m6.3-18.9v1.1m0.8-1.1v7m0.3-7v1.9m10.1-1.9v9.1m0.5-9.1v7.5m2.7-7.5v11.7m0.2-11.7v4.5m0.3-4.5v2.3m0.3-2.3v9.4m0.3-9.4v33.8m0.3-33.8v9.1m0.2-9.1v6.2m0.3-6.2v7m0.4-7v10m0.8-10v23.2m0.9-23.2v22.8m0.3-22.8v39.8m0.2-39.8v37.1m0.3-37.1v46.8m0.3-46.8v27m0.3-27v18.5m0.4-18.5v33.2m0.2-33.2v29m0.3-29v10.4m0.3-10.4v14m0.3-14v14.1m0.3-14.1v19.4m0.2-19.4v31.1m0.3-31.1v35.3m0.3-35.3v37.3m0.3-37.3v42.2m0.2-42.2v47.7m0.3-47.7v18.9m0.4-18.9v9.8m1.4-9.8v4m0.3-4v6m0.3-6v3.8m2-3.8v1.9m0.6-1.9v30.7m0.3-30.7v44.7m0.2-44.7v38.8m0.3-38.8v26.6m0.3-26.6v13.8m0.3-13.8v14.3m0.2-14.3v39.8m0.3-39.8v24.3m0.4-24.3v42.1m0.3-42.1v32.8m0.3-32.8v34.7m0.3-34.7v24.9m0.2-24.9v18.7m0.3-18.7v44.7m0.3-44.7v38.7m0.3-38.7v35.6m0.2-35.6v23.6m0.3-23.6v16.8m0.3-16.8v15.7m0.3-15.7v19.2m0.4-19.2v7.4m1.9-7.4v14.3m0.3-14.3v15.7m0.3-15.7v30.2m0.2-30.2v18.5m0.3-18.5v1.1m0.7-1.1v4.3m0.8-4.3v4m0.3-4v29.6m0.3-29.6v33m0.3-33v21.7m0.2-21.7v21.1m0.3-21.1v32.2m0.3-32.2v40.5m0.3-40.5v34.7m0.4-34.7v41.5m0.3-41.5v50.3m0.2-50.3v53.7m0.3-53.7v73.2m0.3-73.2v56.8m0.3-56.8v63.5m0.2-63.5v61.3m0.3-61.3v77.3m0.3-77.3v64.3m0.3-64.3v39.4m0.2-39.4v40.9m0.3-40.9v53.2m0.4-53.2v55.1m0.3-55.1v66.9m0.3-66.9v77.9m0.3-77.9v56.6m0.2-56.6v83.5m0.3-83.5v87.1m0.3-87.1v65.8m0.3-65.8v67.3m0.2-67.3v52m0.3-52v49m0.3-49v47.1m0.3-47.1v61.1m0.4-61.1v65.4m0.3-65.4v69m0.2-69v59.8m0.3-59.8v44.9m0.3-44.9v26.8m0.3-26.8v27.9m0.2-27.9v14.3m0.3-14.3v20m0.3-20v19.6m0.3-19.6v35.5m0.2-35.5v34.3m0.3-34.3v39.8m0.4-39.8v46.8m0.3-46.8v48.5m0.3-48.5v70.5m0.3-70.5v93.5m0.2-93.5v89.2m0.3-89.2v79.2m0.3-79.2v91.8m0.3-91.8v83.2m0.2-83.2v90.1m0.3-90.1v90.7m0.3-90.7v75.1m0.3-75.1v62.8m0.4-62.8v46.2m0.3-46.2v58.6m0.2-58.6v53.2m0.3-53.2v60m0.3-60v68.1m0.3-68.1v50.3m0.2-50.3v46m0.3-46v29.6m0.3-29.6v58.1m0.3-58.1v61.5m0.3-61.5v59m0.2-59v55.4m0.4-55.4v67.1m0.3-67.1v77.9m0.3-77.9v87.7m0.3-87.7v75.1m0.2-75.1v86.7m0.3-86.7v85.8m0.3-85.8v52.4m0.3-52.4v29.6m0.3-29.6v31.1m0.2-31.1v49.8m0.3-49.8v73m0.3-73v76m0.4-76v67.9m0.3-67.9v57.3m0.2-57.3v29m0.3-29v35.5m0.3-35.5v26.6m0.3-26.6v14.7m0.3-14.7v14.3m0.2-14.3v21.9m0.3-21.9v38.1m0.3-38.1v36.6m0.3-36.6v21.3m0.2-21.3v33m0.4-33v14.5m0.3-14.5v22.3m0.3-22.3v24.3m0.3-24.3v31.1m0.3-31.1v32.8m0.2-32.8v57.1m0.3-57.1v46.4m0.3-46.4v37.1m0.3-37.1v30.2m0.2-30.2v33.4m0.3-33.4v16.8m0.3-16.8v28.7m0.4-28.7v30.5m0.3-30.5v22.8m0.3-22.8v37.1m0.2-37.1v38.8m0.3-38.8v16.4m0.3-16.4v2.1m0.3-2.1v11.9m0.2-11.9v15.8m0.3-15.8v14.7m0.3-14.7v10.6m0.3-10.6v10.2m0.2-10.2v5.3m0.7-5.3v8.7m0.3-8.7v20.2m1.9-20.2v5.5m0.3-5.5v31.1m0.3-31.1v40.9m0.4-40.9v27.5m0.3-27.5v27.2m0.5-27.2v10.9m0.3-10.9v8.9m0.3-8.9v4.7m0.3-4.7v10.7m0.2-10.7v14.7m0.6-14.7v28.1m0.3-28.1v18.5m0.7-18.5v8.7"/>
  <path id="path218" d="m533 186v8.3m0.3-8.3v8.5m0.3-8.5v27m0.3-27v30.4m0.2-30.4v27.9m0.3-27.9v36m0.3-36v50.7m0.3-50.7v50.2m0.2-50.2v60.9m0.3-60.9v71.3m0.3-71.3v65.1m0.4-65.1v49.4m0.3-49.4v13.2m0.8-13.2v1.5m0.3-1.5v3m0.5-3v22.6m0.3-22.6v33.6m0.3-33.6v29.8m0.3-29.8v22.8m0.7-22.8v12.6m0.2-12.6v9.1m0.3-9.1v16.4m0.3-16.4v22.1m0.3-22.1v24.9m0.2-24.9v54.7m0.3-54.7v44.1m0.3-44.1v36.4m0.3-36.4v32.1m0.2-32.1v55.4m0.3-55.4v71.8m0.3-71.8v52.4m0.4-52.4v59.6m0.3-59.6v54.9m0.3-54.9v60.3m0.2-60.3v68.3m0.3-68.3v56.8m0.3-56.8v16.4m0.3-16.4v21.3m0.2-21.3v44.7m0.3-44.7v38.7m0.3-38.7v39m0.3-39v48.3m0.3-48.3v55.4m0.4-55.4v56.9m0.2-56.9v44.5m0.3-44.5v47.3m0.3-47.3v52.4m0.3-52.4v36.2m0.2-36.2v40.7m0.3-40.7v38.7m0.3-38.7v43.2m0.3-43.2v33m0.3-33v52.6m0.2-52.6v67.7m0.3-67.7v63.2m0.4-63.2v45.6m0.3-45.6v33.9m2.5-33.9v6m0.7-6v0.6m0.2-0.6v14.1m2-14.1v9.4m0.3-9.4v24.5m0.2-24.5v22.4m0.3-22.4v25.6m0.4-25.6v35.8m0.3-35.8v23m0.3-23v40m0.2-40v45.3m0.3-45.3v20.4m1.1-20.4v9.6m0.3-9.6v16m0.3-16v20.9m0.3-20.9v22.1m0.4-22.1v49.2m0.2-49.2v23m0.3-23v25.6m0.3-25.6v13m0.3-13v4m0.3-4v3.2m1.3-3.2v1.7m0.7-1.7v28.7m0.3-28.7v14.5m0.3-14.5v5.3m0.3-5.3v16.8m0.2-16.8v23.2m0.3-23.2v18.7m0.3-18.7v13.8m0.3-13.8v12.8m0.2-12.8v0.2m0.3-0.2v41.5m0.3-41.5v41.9m0.3-41.9v34.3m0.4-34.3v29.6m0.3-29.6v11.7m0.2-11.7v11.3m0.3-11.3v28.1m0.3-28.1v36.8m0.3-36.8v21.7m0.2-21.7v34.5m0.3-34.5v64.3m0.3-64.3v62m0.3-62v48.5m0.2-48.5v55.6m0.3-55.6v47.5m0.4-47.5v39.4m0.3-39.4v28.9m0.3-28.9v40.2m0.3-40.2v25.8m0.2-25.8v25.1m0.3-25.1v26.6m0.3-26.6v45.8m0.3-45.8v36m0.2-36v23.2m0.3-23.2v37.5m0.3-37.5v52m0.3-52v48.1m0.4-48.1v47.7m0.3-47.7v51.1m0.2-51.1v45.4m0.3-45.4v29.6m0.3-29.6v31.5m0.3-31.5v34.5m0.2-34.5v35.6m0.3-35.6v35.5m0.3-35.5v18.7m0.3-18.7v0.8m0.5-0.8v10.6m0.4-10.6v5.1m4-5.1v4.3m0.6-4.3v5.7m0.3-5.7v16.8m0.2-16.8v13.2m0.9-13.2v20.2m0.2-20.2v25.8m0.3-25.8v21.3m0.4-21.3v9.1m10.4-9.1v7.9m2.8-7.9v0.8m0.2-0.8v14.9m0.4-14.9v14.9m4.6-14.9v0.8m0.3-0.8v13.2m0.3-13.2v2.6m22.5-2.6v1.7m0.2-1.7v21.7m0.3-21.7v21.9m0.3-21.9v15.3m0.3-15.3v3.2"/>
 </g>
 <g id="g220" style="color:#0000ff" transform="translate(-11.526 -20.131)" stroke="currentColor" stroke-width="2.5" fill="none">
  <path id="path222" d="m99.2 150.8h0.2l0.3 3.3 0.3 4.7 0.3 2.1 0.3 3.6 0.2 1.8 0.4 1.6 0.3 3.3 0.3 4 0.3 4 0.2 4.8 0.3 8 0.3 6.9 0.3 3.9h0.3l0.2-3.3 0.3-1.9 0.3 2.2 0.4 4.6 0.3 1.1 0.2-0.8 0.3-4.5 0.3-7 0.3-6.3 0.3-1.4 0.2-3 0.3-2.1 0.3 1h0.3l0.2 1 0.4 0.3 0.3-2.1 0.3-0.2 0.3 0.4 0.2 3.3 0.3 0.7 0.3-3.9 0.3-0.2h0.3l0.2 3.5 0.3-1.3 0.3-6.3 0.4-6.5 0.3 0.4 0.2 1.3 0.3 0.3 0.3 1 0.3-0.9 0.3 1.8h0.2l0.3 1 0.3-5 0.3-0.4 0.2 0.2 0.4-2.9 0.3-4.1 0.3-4.2 0.3-1.6 0.3-3.5 0.2 0.4 0.3 0.4 0.3 0.8 0.3 1.1 0.2 5.8 0.3 5.9 0.3 5.3 0.4 11.1 0.3 9 0.3 8.1 0.2 7.5 0.3 8.9 0.3 7.5 0.3 1.9 0.2-1.9 0.3-1.6 0.3-2.7 0.3-3.2 0.2-0.1 0.5 0.1 0.2 0.5 0.3-1.6 0.3-0.4 0.3-2.8 0.2-3.8 0.3 0.9 0.3 4.9 0.3 3.3 0.2 1.3 0.3-0.7 0.3-2.5 0.4-8.8 0.3-10.1 0.3-5.6 0.2-5.6 0.3-5.8 0.3-4.8 0.3-6.1 0.2-9.6 0.3-5.3 0.3-1.5 0.3 0.7 0.2-1.3 0.5 2.3 0.2 4.8 0.3-1.4 0.3-1.9 0.3-0.4 0.2-0.4 0.3 2.3 0.3 1.2 0.3-0.8 0.2-1 0.3-2.3 0.3-2.3 0.4-2.5 0.3-3.4 0.3 2.2 0.2 1.7 0.3-0.7 0.3-1 0.3-4.1 0.2-1.6 0.3-2.8 0.3-2.6 0.3 0.3 0.2 4.1 0.5 2.8 0.2 2.9 0.3 2.3 0.3 2.7 0.3 2.4 0.2 5.1 0.3 4 0.3 2.3 0.3 2.9 0.2 0.6 0.3-0.5 0.3-3.7 0.4-4.7 0.3-2.1 0.3-2.3 0.2 1.4 0.3 2.6 0.3-2.7 0.3 2.7 0.2 0.6 0.3 1.9 0.3 0.3 0.3-1.5 0.3 1.7 0.4 2 0.2 1.1 0.3 0.8 0.3-1.7 0.3-0.2 0.2 3.3 0.3 0.7 0.3 1.3 0.3 1.9 0.3 6.5 0.2 4.9 0.3 3.5 0.4 5.1 0.3 0.5 0.3-0.9 0.2-2.5 0.3-3.5 0.3-3 0.3-0.4 0.3 2 0.2-2.7 0.3-5.5 0.3-2.7 0.3-2.2 0.4-3.3 0.2 0.6 0.3 3.8 0.3 4.8 0.3 2.8 0.3 0.3 0.2-1 0.3-1.1 0.3 3.4 0.3 4 0.2-0.5 0.3-1.4 0.4-1.8 0.3-5.1 0.3-7.9 0.3-3.1 0.2 0.4 0.3 2.2 0.3-1.9 0.3-1 0.2-1.9 0.3-1.9 0.3 3.5 0.3 4.1 0.4 3.1 0.3 5.3 0.2 4.3 0.3-0.5 0.3-1.5 0.3-3h0.2l0.3 1.9 0.3 2.5 0.3 2.1 0.2-1 0.3-3.2 0.4-0.3 0.3 0.9 0.3-0.5 0.3 1.9 0.2 1.9 0.3 6.7 0.3 3.4 0.3-2.8 0.2-2.4 0.3-1.7 0.3-2.4 0.3-0.1 0.4 1.5 0.3-1.6 0.2 0.7 0.3-1.8h0.3l0.3-3.4 0.2 0.6 0.3 2.3 0.3 1.9 0.3 1.4 0.2 3.7 0.3 2.7 0.4-1.7 0.3-1.3 0.3-0.2 0.3 2 0.2 0.3 0.3-0.9 0.3-3.4 0.3-3.6 0.2-5.3 0.3-3.4 0.3-5.2 0.3-5.2 0.4-2.9 0.3-3 0.2-1.9 0.3-4.5 0.3-6.1 0.3-5.3 0.2-3.7 0.3-2.8 0.3-1.7 0.3-7.9 0.2-4.2 0.3-4.8 0.4-1.9 0.3-3.5 0.3-4.5 0.3-1.4 0.2-1.1 0.3-2.4 0.3-1.3 0.3-0.7 0.2 5.1 0.3 9.5 0.3 4.4 0.3 7.1 0.4 5.3 0.3 9 0.2 8.9 0.3 4.1 0.3 4.8 0.3 5.5 0.2 3.9 0.3 5.8 0.3-1.1 0.3 1.2 0.2 6.1 0.3 2.9 0.4-0.5 0.3-1.4 0.3-4.3 0.3-2.6 0.2-1.3 0.3 3.2 0.3-1.5 0.3-1.9 0.2-1.6 0.3-4 0.3-4.1 0.3-2 0.4 1.6 0.3 0.9 0.2 4.3 0.3 4.7 0.3 7.1 0.3 0.1 0.2 4.7 0.3 3.5 0.3 3.4 0.3 5.5 0.3 3.8 0.2 1.9 0.4-0.8 0.3-0.4 0.3-1 0.3-0.9 0.2-5 0.3-1.8 0.3-1.3 0.3 1 0.3 1.9 0.2-2.5 0.3-2.6 0.3 0.4 0.4 1.6 0.3 0.8 0.2 2.1 0.3 1.5 0.3 0.3 0.3-1.9 0.3-1.3 0.2-0.3 0.3-0.7 0.3 1.3 0.3 1.3 0.2-2.7 0.4-0.2 0.3 0.3 0.3 1 0.3 0.4 0.3 5.2 0.2 3.8 0.3 1.6 0.3-3 0.3-1.3 0.2 2.9 0.3 1.8 0.3 4.2 0.4-0.2 0.3-1.9 0.3-3 0.2-2.9 0.3-5.6 0.3-2.3 0.3-3.2 0.2-1.3 0.3-3.5 0.3-7.2 0.3-6.3 0.2-5.3 0.5-4.3 0.2 0.8 0.3 0.5 0.3 0.7 0.3 0.4 0.2 0.8 0.3 3.6 0.3 3.4 0.3 3.2 0.2 4.3 0.3 2.9 0.3-0.2 0.4-1.5 0.3-2.3 0.3-2.4 0.2-4.1 0.3-3.2 0.3-3.3 0.3-5.3 0.2-4.2 0.3-4.4 0.3-3.1 0.3-1.5 0.2-0.6 0.5 2.3 0.2 0.8h0.3l0.3-0.3 0.3 0.8 0.2 1.6 0.3-0.1 0.3-1.1 0.3-1 0.2-2.8 0.3-2.7 0.3 0.6 0.4 1.9 0.3 1 0.3 0.9 0.2 2.6 0.3-0.5 0.3 0.6 0.3 3.5 0.2 3.8 0.3 5.8 0.3 7.4 0.3 7.2 0.2 5.1 0.5 5.2 0.2 6.3 0.3 5.7 0.3 2.9 0.3 7 0.2 4.7 0.3 4.8 0.3 1.5 0.3-1.8 0.2-4.2 0.3-5.1 0.3-4.2 0.4-7.8 0.3-6.3 0.3-4.3 0.2-1.7 0.3-0.5 0.3-4.3 0.3-5.3 0.2-3.3 0.3-0.3 0.3 1.6 0.3 4.8 0.3 4.9 0.4 7.7 0.2 3.3 0.3 3.5 0.3 3.2 0.3 0.6 0.2 3.1 0.3 2.6 0.3 2.8 0.3 2.1 0.3 2.5 0.2 0.1 0.3-4.2 0.4-6.8 0.3-4.2 0.3-4.2 0.2-1.9 0.3-4.8 0.3-0.3 0.3 0.7 0.3 1.8 0.2 2.2 0.3 2 0.3 3.5 0.3 7 0.4 6.4 0.2 6.2 0.3 4.4 0.3 4.3 0.3 5.3 0.3 1.1 0.2-0.6 0.3-1.3 0.3 1.2 0.3 0.1 0.2-2.3 0.3-3.4 0.4-2.4 0.3-2.3 0.3-4.7 0.3-6.4 0.2-3.2 0.3-2.8 0.3-0.8 0.3-1.9 0.2-3.5 0.3-5.3 0.3-7.3 0.3-4.6 0.4-2.8 0.2-2.7 0.3-3.8 0.3-1.3 0.3-2.4 0.3-1.7 0.2-2.2 0.3-1.6 0.3-5.4 0.3-3.1 0.2 1.5 0.3 1.5 0.4 0.1 0.3 1 0.3 4.2 0.3 1.3 0.2 0.9 0.3 1.1 0.3 1.5 0.3 1.2 0.2 3.1 0.3 3 0.3 1.1 0.3-1.7 0.4-1.9 0.3-1.9 0.2-0.9 0.3 1.6 0.3 1.8 0.3-0.2 0.2 0.8 0.3 1.8 0.3 1.8 0.3-0.4 0.2-1.8 0.3 0.4 0.4 1.6 0.3-2 0.3-0.4 0.3-1.9 0.2-5.2 0.3-4.7 0.3-4.3 0.3-4.1 0.2-1.1 0.3-1.3 0.3 3.2 0.3 2.9 0.4 0.3 0.3 4.2 0.2 1.2 0.3-0.4 0.3 2.5 0.3 2.5 0.2 2.5 0.3 0.2 0.3-1.5 0.3 0.2 0.2-1.4 0.3-3.4 0.4-1.4 0.3-2.9 0.3 0.7 0.3 3.5 0.2 1.9 0.3 3.2 0.3 2.6 0.3 3.4 0.2 2.9 0.3 4.8 0.3 2.6 0.3 7.4 0.4 7.5 0.3 5.6h0.2l0.3-1.9 0.3 0.6 0.3 0.3 0.2-1.2 0.3-1.3 0.3 0.5 0.3-1.3 0.2 0.9 0.3-1.2 0.4-2 0.3 4.3 0.3 7.2 0.3 6 0.2 1.9 0.3 3.3 0.3 4.9 0.3 6.7 0.2 5.1 0.3 5.6 0.3 4 0.3 4 0.4 2.7 0.3-1.5 0.2 0.4h0.3l0.3-0.6 0.3-2.1 0.2-2 0.3-3 0.3-0.3 0.3-3.9 0.3-5.3 0.2-4 0.4-4.5 0.3-3.2 0.3-1.9 0.3-1.9 0.2 1.1 0.3 1.4 0.3-2.4 0.3-2.3 0.3-4.8 0.2-2.1 0.3 1.6 0.3-2.8 0.4-0.8 0.3-1.2 0.2-3.7 0.3-1.7 0.3-4 0.3-0.3 0.3 1.8 0.2 5 0.3 3.2 0.3 1.8 0.3-0.1 0.2 4.1 0.4 4.3 0.3 4 0.3 0.9 0.3 1.2 0.3 3.3 0.2-0.5 0.3 0.7 0.3-1.8 0.3-0.3 0.2 0.8 0.3 0.2 0.3-2.9 0.4-4.8 0.3-5.1 0.3-1.4 0.2-1.5 0.3-1.2 0.3-1.1 0.3-1.9 0.2-1.5 0.3-2.1 0.3-1 0.3-2.4 0.2 1 0.5 3 0.2 1.4 0.3 0.4 0.3 0.5 0.3 2.2 0.2 1.7 0.3 3.2 0.3 1.7 0.3 2.5 0.2 2.5 0.3 5.3 0.3 3.6 0.4 1.9 0.3 2.8 0.3-0.1 0.2 0.6 0.3-3.4 0.3 0.2 0.3-0.9 0.2 0.1 0.3 0.7 0.3 0.2h0.3l0.2-1.9 0.5-1.9 0.2-3.1 0.3 0.2 0.3-1.2 0.3 2.5 0.2-1.1 0.3-0.3 0.3 0.1 0.3-1.4 0.2-2.4 0.3-3.6 0.3-1.4 0.4 1.4 0.3 5.2 0.3 1.9 0.2 2.2 0.3-0.1 0.3 0.9 0.3 1.1 0.2-0.7 0.3 0.1 0.3 4.3 0.3 5.2 0.2 6.6 0.5 2.8 0.2 0.6 0.3 2.9 0.3 2.1 0.3 3.7 0.2 1.4 0.3-1.3 0.3 1.7 0.3 2.8 0.2-0.9 0.3-2.9 0.3-3 0.4-0.1 0.3-1 0.3-3.8 0.2-4.2 0.3-4.3 0.3-1.5 0.3-1.5 0.2-3.2 0.3-6.3 0.3-6.9 0.3-8.2 0.2-10.6 0.5-11.8 0.2-9.1 0.3-6.1 0.3-2.2 0.3-2.8 0.2-3.7 0.3-1.5 0.3-0.2 0.3 1.4 0.2 2.6 0.3 3.8 0.3 4.2 0.4 6.2 0.3 3.6 0.3 3.2 0.2 1.6 0.3 3.7 0.3 3.4 0.3 4 0.2 3.9 0.3 4.9 0.3 2.9 0.3 4.3 0.3 2.8 0.4 2.1 0.2 2.8 0.3 4.3 0.3 4.2 0.3 1.2 0.2 0.8 0.3-3 0.3-2.8 0.3-4.5 0.3-2 0.2-0.2 0.3 4.1 0.4 2.5 0.3 3.1 0.3 1.3 0.2-1.3 0.3-0.4 0.3-0.5 0.3 1.9 0.3-1.8 0.2 1.2 0.3-2 0.3-1.1 0.3-3.1 0.4-1.3 0.2-3.2 0.3-2.7 0.3-1.8 0.3-1.2 0.3 1.1 0.2 3.6 0.3 5.5 0.3 4 0.3 4.4 0.2 1.4 0.3 0.9 0.4-0.1 0.3 1.7 0.3 1.3 0.3 2 0.2 3.1 0.3 0.2 0.3-2.7 0.3-2 0.2-2.1 0.3-1.1 0.3-0.1 0.3-0.5 0.4-2.7 0.3-0.9 0.2-0.8 0.3-3.3 0.3-2.6 0.3-2.9 0.2-1.4 0.3-0.5 0.3 0.4 0.3 2.3 0.2 1 0.3 1.3 0.4 4.2 0.3 1 0.3 2.2 0.3 3.7 0.2 1.4 0.3 3.2 0.3 2.5 0.3 3.4 0.2 1 0.3 0.3 0.3-0.6 0.3-0.3 0.4-0.8 0.3 1.8h0.2l0.3-0.3 0.3-2.1 0.3-4.2 0.2-3.7 0.3-4.1 0.3-4.7 0.3-5.9 0.2-5.1 0.3-3.4 0.4-3.1 0.3-4.5 0.3-2.6 0.3-0.5 0.2 1.6 0.3 3.6 0.3 3 0.3 1.8 0.2 2.1 0.3 1.9 0.3 1.9 0.3 1.5 0.4 0.3 0.3-0.1 0.2-1.3 0.3-2.4 0.3-2.2 0.3-5.3 0.2-5.6 0.3-6.6 0.3-4.5 0.3-4.5 0.2-3.2 0.3-4.1 0.4-4.5 0.3-2.8 0.3-2.6 0.3-4.1 0.2-3.1 0.3-0.7 0.3-0.7 0.3 0.4 0.2 0.2 0.3 0.6 0.3-1 0.3-1.4 0.4-0.2 0.3-1.7 0.2-0.9h0.3l0.3-1.7 0.3 1.7 0.2 2 0.3 2.7 0.3 2.1 0.3 2.6 0.3 2.7 0.2 1.4 0.4 1.1 0.3 0.9 0.3 0.2 0.3 2.1 0.2 3 0.3 1 0.3 0.7 0.3 0.1 0.3-0.1 0.2-1.3 0.3 2 0.3 4 0.4 4.2 0.3 4 0.2 2.4 0.3 1.5 0.3 1 0.3 1.4 0.3 0.6 0.2 1.2h0.3l0.3 3h0.3l0.2-1.7 0.4-3.8 0.3-3.5 0.3-5.6 0.3-4 0.3-4.2 0.2-5.2 0.3-3.7 0.3-3.8 0.3-3.8 0.2-5.7 0.3-5.3 0.3-5.5 0.4-2.2 0.3-1.2 0.3 0.3 0.2-1.8 0.3 1.4 0.3-0.4 0.3-1 0.2-2.6 0.3-1.5 0.3-1 0.3 1.1 0.2 0.4 0.5-1.2 0.2-3.7 0.3-1.1 0.3 1.2 0.3-1.2 0.2 1.2 0.3 1.4 0.3 1.1 0.3 2.5h0.2l0.3-2.2h0.3l0.4-0.1 0.3 1.6 0.3 1.5 0.2-1.5 0.3 0.9 0.3 1.5 0.3 3.1 0.2 5.4 0.3 4.8 0.3 4.8 0.3 6.3 0.2 3.3 0.5 1.7 0.2 3.1 0.3 1.6 0.3 2.5 0.3 1 0.2 0.1 0.3-2.4 0.3-0.9 0.3-1 0.2-2.3 0.3-4 0.3-1.2 0.4 1.7 0.3 1.2 0.3 2.8 0.2 3 0.3-0.1 0.3-1.6 0.3-1.5 0.2-4.4 0.3-5.4 0.3-2.3 0.3-0.4 0.2-1.3 0.5-2.1 0.2-3.2 0.3-3.3 0.3-2h0.3l0.2 0.9 0.3 1.3 0.3 0.9 0.3 1.5 0.2 2 0.3 0.6 0.3-4.1 0.4-6.5 0.3-6 0.3-5.2 0.2-3.1 0.3-3.7 0.3-4.8 0.3-2.5 0.2-1.1 0.3-1.5 0.3-2.7 0.3-1.1 0.2 4.4 0.5 6.4 0.2 4.6 0.3 3.1 0.3-0.9 0.3-1 0.2 2.1 0.3 1.2 0.3 1.2 0.3 3.6 0.2 2.3 0.3 1.5 0.3-0.2 0.4-1.9 0.3-0.3 0.3 0.1 0.2 5.4 0.3 7.4 0.3 4.7 0.3 1.1 0.2 4.3 0.3 1.7 0.3 2 0.3 1.6 0.3 2.6 0.4 3.5 0.2 3.4 0.3 4.3 0.3 1 0.3-0.4 0.2 0.9 0.3 2 0.3-4.6 0.3-4.3 0.3-1.5 0.2-0.6 0.3 0.5 0.4 0.1 0.3-2.7 0.3-4.4 0.2-7.3 0.3-8.3 0.3-7.3 0.3-3.1 0.3-1.6 0.2-1 0.3-2.2 0.3-2.7 0.3-4.4 0.4-0.2 0.2 2.1 0.3 1.3 0.3 3.3 0.3 3.1 0.3 3.6 0.2 0.1 0.3 1.6 0.3 4.7 0.3 5.3 0.2 5.2 0.3 5.3 0.4 1.3 0.3 2 0.3 2.3 0.3 1.9 0.2 0.8 0.3-2.1 0.3-2.7 0.3-3.5 0.2-8.3 0.3-7.1 0.3-6.5 0.3-6.7 0.4-5.4 0.3-6.7 0.2-5.4 0.3-4.5 0.3-2 0.3-0.8 0.2 0.6 0.3-0.5 0.3 0.9 0.3-1.5 0.2-0.3 0.3 2.7 0.4 4.3 0.3 5.3 0.3 5.2 0.3 4.2 0.2 1.3 0.3 2.1 0.3-0.2 0.3 2.4 0.2 3.7 0.3 5.5 0.3 3.4 0.3 4.3 0.4 4.6 0.3 4.2 0.2 1.6 0.3 1.8 0.3 4 0.3 2.6 0.2 7.1 0.3 5 0.3 3.5 0.3 2.5 0.2 3.8 0.3 0.8 0.4-0.8 0.3-1 0.3 0.5 0.3 1.1 0.2-1.8 0.3-1 0.3-2.6 0.3-1.5 0.2-1.9 0.3-0.5 0.3-2.3 0.3-3.3 0.4-1.8 0.3-1.3 0.2 0.1 0.3-1.6 0.3-1.3 0.3-0.5 0.2-2.6 0.3-3 0.3-0.1 0.3-2.7 0.2 0.3 0.3 0.9 0.4-1.8 0.3-2 0.3-1.9 0.3-1.5 0.2 0.4 0.3-0.9 0.3 0.7 0.3 3 0.2 2.3 0.3 3.6 0.3 0.5 0.3 0.7 0.4 2 0.3 1.2 0.2 1 0.3 3 0.3 0.5 0.3 0.4 0.2 0.1 0.3-0.5 0.3-1.8 0.3-4.7 0.2-3.7 0.3-5.2 0.4-7.5 0.3-4.5 0.3-3.8 0.3-5.5 0.2-1.5 0.3-1.3 0.3-1.1 0.3-2.9 0.2-3.4 0.3-0.4 0.3-0.1 0.3-1.5 0.4 0.8 0.3-1.6 0.2-1.8 0.3-1.5 0.3-1.2 0.3-2.6 0.2-1.5h0.3l0.3 1.4 0.3-1.9 0.3-2.6 0.2 1.7 0.4 0.5 0.3 2.2 0.3 1.3 0.3 3.3h0.2l0.3 1.4 0.3 0.6 0.3 1.4 0.3 0.6 0.2 5.1 0.3 4.3 0.3 2.8 0.4 6.1 0.3 4.2 0.2 4.6 0.3 2.8 0.3 4.3 0.3 4.8 0.3 2.4 0.2 0.9 0.3 0.9 0.3-1.7 0.3-1.7 0.2-1.5 0.4-4.9 0.3-3 0.3-3.4 0.3-4.9 0.3-6.5 0.2-4.8 0.3-1.8 0.3-0.8 0.3 0.4 0.2 0.5 0.3 3.7 0.3 7.2 0.4 5.6 0.3 4.3 0.3 4.6 0.2 5 0.3 7.4 0.3 3.8 0.3 4.2 0.2 3.1 0.3 0.5 0.3 2.2 0.3 1 0.2-4 0.5-2 0.2-4.8 0.3-4.8 0.3-3.1 0.3-2.7 0.2-0.9 0.3-2.1 0.3-4.6 0.3-5.7 0.2-6.7 0.3-5 0.3-3.7 0.4-2 0.3 0.7 0.3 0.1h0.2l0.3-1.6 0.3-2.2 0.3-0.8 0.2 1.2 0.3 5.8 0.3 5.5 0.3 3.1 0.2 4.4 0.5 3.1 0.2 2.3 0.3 1.4 0.3 0.6 0.3 2.1 0.2 1.7 0.3-1.2 0.3-1.6 0.3-1.8 0.2-1.6 0.3-4.7 0.3-5.9 0.4-4.7 0.3-5.1 0.3-1.4 0.2-2.9 0.3-3.1 0.3-0.4 0.3 1.8 0.2 2.1 0.3-1 0.3-2 0.3 1.6 0.2 4.5 0.5 4.6 0.2 4.7 0.3 3.2 0.3 4.2 0.3 2.9 0.2-1.2 0.3-1.4 0.3-1.1 0.3-0.3 0.2 2.2 0.3 2.7 0.3 1.6 0.4-0.2 0.3 1.6 0.3-0.1 0.2-0.6 0.3 0.4 0.3 0.3 0.3-0.1 0.2-0.2 0.3 0.5 0.3-0.3 0.3 1.7 0.3-0.4 0.4 0.5 0.2 0.1 0.3 3.2 0.3 2.2 0.3 1.6 0.2 3.9 0.3 3.7 0.3 2.3 0.3 1.4 0.3 4 0.2-2 0.3-0.8 0.4 1.7 0.3 2.5 0.3 0.3 0.2 3.2 0.3 1.7 0.3 1 0.3 1.9 0.3 3.1 0.2 1.9 0.3-0.8 0.3 2.2 0.3 2 0.4 0.7 0.2-0.4h0.3l0.3-0.3 0.3 1.7h0.3l0.2-1.9 0.3-3 0.3-1.1 0.3-2.2 0.2-1.6 0.3-1.2 0.4-2.1 0.3-2.7 0.3-3.4 0.3-4.1 0.2-4.4 0.3-3.2 0.3-2.5 0.3-1.2 0.2 0.3 0.3 0.9 0.3 3 0.3 3.4 0.4 2.7 0.3 1.9 0.2 1.5 0.3 1.8 0.3 3.8 0.3 3.6 0.2 5.2 0.3 4.5 0.3 2.7 0.3 2.2 0.2-1h0.7l0.3 0.8 0.3 0.8 0.3 0.2 0.2-2 0.3-0.5 0.3-2.8 0.3-4.8 0.2-6.5 0.3-4.9 0.3-2.1 0.3-4.5 0.4-5.1 0.3-1.8 0.2-0.6 0.3 1.1 0.3 0.2 0.3-1.5 0.2-0.8 0.3 2.3 0.3 3 0.3 2 0.2 0.9 0.3 3.3 0.4 4.6 0.3 0.6 0.3 0.5 0.3 0.1 0.2 1.9 0.3 2.8 0.3 3.7 0.3 3.8 0.2 5.2 0.3 6.8 0.3 4.4 0.3 2.8 0.4 2.4 0.3 4.6 0.2 3.6 0.3 0.6h0.3l0.3 1.6 0.2 1.1 0.3 1.4 0.3 2 0.3-1.4 0.2 2.3 0.3 1.9 0.4 0.4 0.3-0.8 0.3-1 0.3 0.8 0.2 0.5 0.3 0.6 0.3 0.9 0.3 0.2 0.2-1.5 0.3-1 0.3-4.7 0.3-5 0.4-4.3 0.3-3.9 0.2-2.7 0.3-1.1 0.3-1.1 0.3-1.8 0.2-1.5 0.3-1.8 0.3 0.9 0.3 4.1 0.2 5.2 0.3 4.3 0.4 6.4 0.3 5.3 0.3 5.9 0.3 4.6 0.2 3.4 0.3 1.9 0.3-0.1 0.3 0.9 0.2-1.5 0.3-2.8 0.3-1.7 0.3-2.4 0.4-3.8 0.3-4.5 0.2-2.7 0.3-2.4 0.3-1.3 0.3-0.7 0.2 1.8 0.3 1.6 0.3 2.9 0.3 1.2 0.3 1.6 0.2 2.9 0.4 0.6h0.3l0.3-2.3 0.3-1 0.2 1.2 0.3 1.7 0.3 0.1 0.3-1.7 0.3-4.9 0.2-3.3 0.3-5 0.3-6 0.4-3.1 0.3-0.7 0.2 0.6 0.3-1.1 0.3-4.3 0.3-3.6 0.3-4.4 0.2-3 0.3-0.3 0.3-0.4 0.3 0.5 0.2 3.5 0.4 2.7 0.3 1.3 0.3-0.7 0.3-0.2 0.3-0.4 0.2-0.4 0.3 1.4h0.3l0.3 1.1 0.2 0.6 0.3-1.3 0.3-4.6 0.4-2.9 0.3-1.8 0.3-1.3 0.2-1.9 0.3-0.5 0.3-2 0.3-3 0.2-1.2 0.3-1.4 0.3-3.7 0.3-3.9 0.2-2.4 0.5-2.3 0.2-2.2 0.3-1.6 0.3-0.4 0.3 1.8 0.2 2.9 0.3 2.8 0.3 1.5 0.3-2.2 0.2 1.4 0.3 3.2 0.3 2.6 0.4 2.2 0.3 2.1 0.3 0.4 0.2 1.9 0.3-1.1 0.3-3.8 0.3-1.6 0.2-1.6 0.3 1.3 0.3 1.4 0.3 1.8 0.2 1.9 0.5 2.1 0.2 3 0.3 4.2 0.3 2.7 0.3 4.4 0.2 5.9 0.3 3.4 0.3 0.4 0.3-2.6 0.2-3.8 0.3-2.4 0.3-2 0.4-3.5 0.3-2.3 0.3-1.4 0.2-2.6 0.3-4 0.3-6 0.3-3.1 0.2-0.3 0.3 3.2 0.3 3.4 0.3 1.9 0.2 4.3 0.5 4.1 0.2 1.2 0.3-0.1 0.3 2.1 0.3 4.1 0.2 4.9 0.3 3.9 0.3 3.8 0.3 3.7 0.2 3.8 0.3 2.7 0.3-3.2 0.4-1.9 0.3 0.7 0.3 0.6 0.2-1.4 0.3-2 0.3 0.3 0.3-0.2 0.2-0.9 0.3-1.1 0.3-1.3 0.3-1.7 0.3 2 0.4 1.4 0.2-0.1 0.3-0.5 0.3 1.2 0.3 1.6 0.2 0.6 0.3-0.9 0.3-0.9 0.3-4 0.3-5.3 0.2-4.5 0.3-7.1 0.4-8.2 0.3-8.6 0.3-6.5 0.2-5.8 0.3-5.2 0.3-6.5 0.3-3.7 0.2-1.7 0.3-0.4 0.3-0.4 0.3-1.4 0.3 0.5 0.4 2.5 0.2 4.4 0.3 4.5 0.3 3.5 0.3 1.4 0.2 3.4 0.3 2.9 0.3 0.8 0.3 3.7 0.3 5.3 0.2 4.4 0.3 1.3 0.4-0.9 0.3-1.8h0.3l0.2-0.7 0.3-0.1 0.3-0.3 0.3 1.1h0.3l0.2-1.2 0.3-2.7 0.3-1.4 0.3 2.3 0.4 3.1 0.2 1 0.3-3.8 0.3-3.8 0.3-1.6 0.3-1.9 0.2-1.7 0.3-0.7 0.3-1.7 0.3 0.3 0.2 1.6 0.3 1.3 0.4 1.4 0.3 2.5 0.3 2.9 0.3 5.9 0.2 3.4 0.3 3h0.3l0.3-0.2 0.2 0.5 0.3 1 0.3 1.1 0.3 0.2 0.4 1.8 0.3 4.3 0.2 5.1 0.3 0.6 0.3 1.1 0.3 1.1 0.2 0.9 0.3 1.4 0.3 2.4 0.3-0.2 0.2-1 0.3 0.4 0.4 1 0.3-2.4 0.3-3.2 0.3-0.9 0.2-0.3h0.3l0.3 0.7 0.3 1.9 0.2 0.4 0.3 0.3 0.3 0.6 0.3 0.6 0.4-0.8 0.3-0.1 0.2-0.4 0.3-3 0.3-4.7 0.3-3.1 0.2-3.6 0.3-4.3 0.3-4.7 0.3-4.3 0.2-7.4 0.3-9.3 0.4-8.5 0.3-6.5 0.3-3.1 0.3-2.3 0.2-2.1 0.3-2.1 0.3-0.8h0.3l0.2 1.3 0.3 1.1 0.3 5.2 0.3 7.8 0.4 6.7 0.3 3 0.2 0.9 0.3 3.9 0.3 4.7 0.3 2.9 0.2 1.2h0.3l0.3-1.1h0.3l0.2-1.6 0.3-2.2 0.4-2.7 0.3-0.4 0.3-1.7 0.3-4.6 0.2-3.5 0.3-4.4 0.3-3.4 0.3-5.1 0.2-5 0.3-4.6 0.3-5.4 0.3-7.5 0.4-6.7 0.3-7.9 0.2-4.9 0.3-3.8 0.3-4.5 0.3-2.3 0.2 1.2 0.3 3.7 0.3 3.9 0.3 3.7 0.3 3.3 0.2 4.7 0.4 4.4 0.3 3.2 0.3 3.5 0.3 5.6 0.2 5.6 0.3 4.1 0.3 2.1 0.3 1.5 0.3-0.5 0.2 0.2 0.3 0.9 0.3 3.2 0.4 2.1 0.3 3.3 0.2 1.4 0.3 1 0.3 0.2 0.3 2.2 0.3 0.6 0.2-0.3 0.3 1.2 0.3 0.8 0.3 1.8 0.2-3.3 0.4-1.1 0.3-1.3 0.3-3 0.3-4.8 0.3-3.2 0.2-5.3 0.3-4.7 0.3-3 0.3-2 0.2-0.6 0.3 0.6 0.3 4.9 0.4 3.1 0.3 1.1 0.3 3.3 0.2 2.3 0.3 2.1 0.3 3.3 0.3 1.9 0.2 2.9 0.3 0.6 0.3-0.7 0.3-3.1 0.2-5.1 0.5-5.5 0.2-5 0.3-5.7 0.3-4.9 0.3-3.2 0.2-3.5 0.3-2.5 0.3-3.5 0.3-0.8 0.2-0.6 0.3 2.5 0.3 0.5 0.4 0.9 0.3 1.6 0.3 3.4 0.2 2.9 0.3-0.1 0.3 0.5 0.3 1.5 0.2 1.4 0.3-2 0.3-2.9 0.3-4.6 0.2-2.4 0.5-3.5 0.2-2 0.3-2.9 0.3 0.1 0.3 1.5 0.2-0.4 0.3-0.1 0.3 0.8 0.3 3.6 0.2 1.5 0.3-0.3 0.3-0.1 0.4 1.1 0.3 0.5 0.3 0.8 0.2-1.6 0.3-2.3 0.3 0.8 0.3-0.8 0.2-2.2 0.3-1.2 0.3 0.6 0.3 3.1 0.2 3.9 0.5 3.8 0.2 5.6 0.3 4.1 0.3 2.8 0.3 1.6 0.2 0.9 0.3 2.2 0.3 1.4 0.3-0.5 0.2 1.8 0.3-1 0.3-2.7 0.4-1.2 0.3-1.7 0.3-1.6 0.2 0.9 0.3 2.7 0.3 1.3 0.3 1.3 0.2 4.5 0.3 5.1 0.3 2.7 0.3 3.7 0.2 2.1 0.5-0.3 0.2 0.3 0.3 2.2 0.3-1.1 0.3-1.1 0.2-1" stroke="#000"/>
 </g>
 <g id="g224" style="color:#000000" fill="none" stroke="currentColor" transform="translate(-11.526 -20.131)">
  <path id="path226" d="m76.8 54v264h569.6v-264h-569.6z"/>
 </g>
 <metadata>
  <rdf:RDF>
   <cc:Work>
    <dc:format>image/svg+xml</dc:format>
    <dc:type rdf:resource="http://purl.org/dc/dcmitype/StillImage"/>
    <cc:license rdf:resource="http://creativecommons.org/licenses/publicdomain/"/>
    <dc:publisher>
     <cc:Agent rdf:about="http://openclipart.org/">
      <dc:title>Openclipart</dc:title>
     </cc:Agent>
    </dc:publisher>
   </cc:Work>
   <cc:License rdf:about="http://creativecommons.org/licenses/publicdomain/">
    <cc:permits rdf:resource="http://creativecommons.org/ns#Reproduction"/>
    <cc:permits rdf:resource="http://creativecommons.org/ns#Distribution"/>
    <cc:permits rdf:resource="http://creativecommons.org/ns#DerivativeWorks"/>
   </cc:License>
  </rdf:RDF>
 </metadata>
</svg>
