<?xml version="1.0"?>
<svg xmlns:rdf="http://www.w3.org/1999/02/22-rdf-syntax-ns#" xmlns="http://www.w3.org/2000/svg" xmlns:cc="http://creativecommons.org/ns#" xmlns:xlink="http://www.w3.org/1999/xlink" xmlns:dc="http://purl.org/dc/elements/1.1/" id="svg2" height="3.6in" width="3.6in" version="1.0" viewBox="601 488 4324 4290">
 <g id="g2616">
  <path id="ellipse18" d="m4651.2 3685.9c-2.2 23.8-25.4 36.4-44.2 46.5-65 31.2-136.6 44-207 56.5-181.4 29.6-365.6 37.8-549.2 37.9-183-0.9-366.6-10.2-547.1-41.7-65.1-12.2-131.4-25.3-190.8-55.8-16.7-8.9-35.8-21.7-38.2-42 0.1-22.3 21.6-35.6 38.8-45.1 53.2-27.9 112.6-40 170.9-52 160.6-30.3 324.3-40.4 487.5-44.3 200.9-3.7 402.6 3.3 601.6 32.7 75.5 12 151.8 25.3 222.4 55.5 21.6 9.9 46.7 22.1 54.7 46.2l0.4 2.8 0.2 2.8z" stroke="#ffe0e0" stroke-width="8" fill="#ffe0e0"/>
  <path id="polyline5639" d="m3930 3589v-47" stroke="#000" stroke-width="8"/>
  <path id="polyline5641" d="m4119 3589v-47" stroke="#000" stroke-width="8"/>
  <path id="polyline5643" d="m4308 3589v-47" stroke="#000" stroke-width="8" fill="none"/>
  <path id="polyline5645" d="m4497 3589v-47" stroke="#000" stroke-width="8"/>
  <path id="polyline5647" d="m3222.1 3680.1v-47" stroke="#000" stroke-width="8"/>
  <path id="polyline5649" d="m3411.1 3680.1v-47" stroke="#000" stroke-width="8"/>
  <path id="polyline5651" d="m3600.1 3680.1v-47" stroke="#000" stroke-width="8"/>
  <path id="polyline5653" d="m3789.1 3680.1v-47" stroke="#000" stroke-width="8"/>
  <path id="path5655" d="m3741.4 3580.7c15.6 15.6 31.3 31.3 47 46.9l46.9-46.9c11.6 10.5-12.7 19.7-17.6 29-9.8 9.7-19.6 19.5-29.3 29.3l-47-47c-15.7 15.6-31.3 31.3-47 46.9-16-15.6-32-31.3-48-46.9-15.7 15.6-31.3 31.3-47 47l-47-47c-15.7 15.6-31.4 31.3-47 47-15.8-15.7-31.4-31.4-47.1-47-16 15.6-32 31.3-48 46.9-15.7-15.6-31.3-31.3-46.9-46.9-15.7 15.6-31.4 31.3-47 47-15.8-15.7-31.4-31.4-47.1-47-16 15.6-32 31.3-48 46.9-15.7-15.6-31.3-31.3-46.9-46.9-14.8 14.7-29.5 29.4-44.2 44.2-11.8-10 11.8-19.1 16.6-28 9.2-9.2 18.3-18.4 27.6-27.5 15.7 15.6 31.3 31.3 47 47 16-15.7 32-31.4 48-47 15.7 15.6 31.3 31.3 47 46.9 15.6-15.6 31.3-31.3 47-46.9 15.7 15.6 31.3 31.3 47 47 16-15.7 32-31.4 48-47 15.7 15.6 31.3 31.3 47 46.9 15.6-15.6 31.3-31.3 47-46.9 15.6 15.6 31.3 31.3 47 46.9 15.6-15.6 31.2-31.3 46.9-46.9 16 15.6 32 31.3 48 47 15.7-15.7 31.3-31.4 47.1-47z"/>
  <path id="path5657" d="m3977.3 3639.3c-15.7-15.6-31.3-31.3-47-46.9-15.7 15.6-31.3 31.3-47 46.9-17.5-17.8-35.9-34.6-53.8-52.1 13.1-11.4 23.1 15.8 34.3 21 10.2 8.6 20.5 27.3 30.3 9l36.2-36.2c15.7 15.6 31.3 31.3 47 47 15.6-15.7 31.3-31.3 47-46.9 16 15.6 32 31.3 48 46.9l47-47c15.7 15.6 31.3 31.3 47 47 15.7-15.7 31.3-31.4 47-47 15.7 15.7 31.3 31.4 47 47 16-15.6 32-31.3 48-46.9 15.7 15.6 31.3 31.2 47 46.9 15.7-15.7 31.3-31.4 47-47 15.7 15.7 31.3 31.4 47 47 16-15.6 32-31.3 48-46.9 15.7 15.6 31.3 31.2 47 46.9 14.7-14.7 29.4-29.4 44.1-44.2 11.8 10-11.8 19.1-16.6 28-9.1 9.2-18.3 18.4-27.5 27.5-15.7-15.6-31.4-31.3-47-47-16 15.7-32 31.3-48 47-15.7-15.6-31.4-31.3-47-46.9-15.7 15.6-31.3 31.3-47 46.9-15.7-15.6-31.4-31.3-47-47-16 15.7-32 31.3-48 47-15.7-15.6-31.4-31.3-47-46.9-15.7 15.6-31.3 31.3-47 46.9-15.7-15.6-31.3-31.3-47-46.9-15.7 15.6-31.3 31.3-47 46.9-16-15.7-32-31.3-48-47-15.7 15.7-31.3 31.4-47 47z"/>
  <path id="polyline5659" d="m3929.4 3736.1v-47" stroke="#000" stroke-width="8"/>
  <path id="polyline5661" d="m4118.4 3736.1v-47" stroke="#000" stroke-width="8"/>
  <path id="polyline5663" d="m4307.4 3736.1v-47" stroke="#000" stroke-width="8" fill="none"/>
  <path id="polyline5665" d="m4496.4 3736.1v-47" stroke="#000" stroke-width="8"/>
  <path id="polyline5667" d="m3221.5 3827.1v-47" stroke="#000" stroke-width="8"/>
  <path id="polyline5669" d="m3410.5 3827.1v-47" stroke="#000" stroke-width="8"/>
  <path id="polyline5671" d="m3599.5 3827.1v-47" stroke="#000" stroke-width="8"/>
  <path id="polyline5673" d="m3788.5 3827.1v-47" stroke="#000" stroke-width="8"/>
  <path id="path5675" d="m3740.8 3727.7c15.7 15.6 31.3 31.3 47 47 15.6-15.7 31.3-31.3 46.9-47 11.6 10.5-12.7 19.8-17.6 29-9.8 9.8-19.6 19.5-29.3 29.3-15.7-15.6-31.4-31.3-47-47-15.7 15.7-31.3 31.4-47 47-16-15.7-32-31.3-48-47-15.7 15.7-31.3 31.4-47 47-15.7-15.6-31.4-31.3-47-47-15.7 15.7-31.3 31.4-47 47-15.7-15.6-31.4-31.3-47.1-47-16 15.7-32 31.3-48 47-15.6-15.6-31.3-31.3-46.9-47-15.7 15.7-31.3 31.4-47 47-15.7-15.6-31.4-31.3-47.1-47-16 15.7-32 31.3-48 47-15.6-15.6-31.3-31.3-46.9-47-14.7 14.8-29.5 29.5-44.2 44.2-11.8-9.9 11.8-19.1 16.6-28 9.2-9.2 18.4-18.3 27.6-27.5 15.7 15.6 31.3 31.3 47 47 16-15.7 32-31.3 48-47 15.7 15.6 31.3 31.3 47 47 15.6-15.7 31.3-31.4 47-47 15.7 15.6 31.3 31.3 47 47 16-15.7 32-31.3 48-47 15.7 15.6 31.3 31.3 47 47 15.6-15.7 31.3-31.4 47-47 15.7 15.6 31.3 31.3 47 47 15.6-15.7 31.3-31.4 46.9-47 16 15.7 32 31.3 48 47 15.7-15.7 31.4-31.4 47.1-47z"/>
  <path id="path5677" d="m3976.7 3786.4l-47-47c-15.7 15.7-31.3 31.3-47 46.9-17.5-17.7-35.9-34.6-53.8-52 13.1-11.5 23.1 15.7 34.3 20.9 10.2 8.6 20.5 27.3 30.3 9 12.1-12 24.1-24.1 36.2-36.1 15.7 15.6 31.3 31.3 47 46.9 15.7-15.6 31.3-31.3 47-46.9 16 15.6 32 31.3 48 47 15.7-15.7 31.3-31.4 47-47 15.7 15.6 31.3 31.3 47 46.9 15.7-15.6 31.3-31.3 47-46.9 15.7 15.6 31.4 31.3 47 47 16-15.7 32-31.4 48-47 15.7 15.6 31.3 31.3 47 46.9 15.7-15.6 31.3-31.3 47-46.9 15.7 15.6 31.4 31.3 47 47 16-15.7 32-31.4 48-47 15.7 15.6 31.3 31.3 47 46.9 14.7-14.7 29.4-29.4 44.2-44.1 11.7 9.9-11.8 19.1-16.6 28-9.2 9.1-18.4 18.3-27.6 27.5-15.7-15.7-31.3-31.4-47-47-16 15.6-32 31.3-48 46.9-15.7-15.6-31.3-31.3-47-46.9l-47 47c-15.7-15.7-31.3-31.4-47-47-16 15.6-32 31.3-48 46.9-15.7-15.6-31.3-31.3-47-46.9l-47 47-47-47c-15.7 15.6-31.3 31.3-47 46.9-16-15.6-32-31.3-48-46.9l-47 47z"/>
 </g>
 <g id="g2639" transform="translate(2.5277 333.66)">
  <path id="path2641" d="m4651.2 3685.9c-2.2 23.8-25.4 36.4-44.2 46.5-65 31.2-136.6 44-207 56.5-181.4 29.6-365.6 37.8-549.2 37.9-183-0.9-366.6-10.2-547.1-41.7-65.1-12.2-131.4-25.3-190.8-55.8-16.7-8.9-35.8-21.7-38.2-42 0.1-22.3 21.6-35.6 38.8-45.1 53.2-27.9 112.6-40 170.9-52 160.6-30.3 324.3-40.4 487.5-44.3 200.9-3.7 402.6 3.3 601.6 32.7 75.5 12 151.8 25.3 222.4 55.5 21.6 9.9 46.7 22.1 54.7 46.2l0.4 2.8 0.2 2.8z" stroke="#ffe0e0" stroke-width="8" fill="#ffe0e0"/>
  <path id="path2643" d="m3930 3589v-47" stroke="#000" stroke-width="8"/>
  <path id="path2645" d="m4119 3589v-47" stroke="#000" stroke-width="8"/>
  <path id="path2647" d="m4308 3589v-47" stroke="#000" stroke-width="8" fill="none"/>
  <path id="path2649" d="m4497 3589v-47" stroke="#000" stroke-width="8"/>
  <path id="path2651" d="m3222.1 3680.1v-47" stroke="#000" stroke-width="8"/>
  <path id="path2653" d="m3411.1 3680.1v-47" stroke="#000" stroke-width="8"/>
  <path id="path2655" d="m3600.1 3680.1v-47" stroke="#000" stroke-width="8"/>
  <path id="path2657" d="m3789.1 3680.1v-47" stroke="#000" stroke-width="8"/>
  <path id="path2659" d="m3741.4 3580.7c15.6 15.6 31.3 31.3 47 46.9l46.9-46.9c11.6 10.5-12.7 19.7-17.6 29-9.8 9.7-19.6 19.5-29.3 29.3l-47-47c-15.7 15.6-31.3 31.3-47 46.9-16-15.6-32-31.3-48-46.9-15.7 15.6-31.3 31.3-47 47l-47-47c-15.7 15.6-31.4 31.3-47 47-15.8-15.7-31.4-31.4-47.1-47-16 15.6-32 31.3-48 46.9-15.7-15.6-31.3-31.3-46.9-46.9-15.7 15.6-31.4 31.3-47 47-15.8-15.7-31.4-31.4-47.1-47-16 15.6-32 31.3-48 46.9-15.7-15.6-31.3-31.3-46.9-46.9-14.8 14.7-29.5 29.4-44.2 44.2-11.8-10 11.8-19.1 16.6-28 9.2-9.2 18.3-18.4 27.6-27.5 15.7 15.6 31.3 31.3 47 47 16-15.7 32-31.4 48-47 15.7 15.6 31.3 31.3 47 46.9 15.6-15.6 31.3-31.3 47-46.9 15.7 15.6 31.3 31.3 47 47 16-15.7 32-31.4 48-47 15.7 15.6 31.3 31.3 47 46.9 15.6-15.6 31.3-31.3 47-46.9 15.6 15.6 31.3 31.3 47 46.9 15.6-15.6 31.2-31.3 46.9-46.9 16 15.6 32 31.3 48 47 15.7-15.7 31.3-31.4 47.1-47z"/>
  <path id="path2661" d="m3977.3 3639.3c-15.7-15.6-31.3-31.3-47-46.9-15.7 15.6-31.3 31.3-47 46.9-17.5-17.8-35.9-34.6-53.8-52.1 13.1-11.4 23.1 15.8 34.3 21 10.2 8.6 20.5 27.3 30.3 9l36.2-36.2c15.7 15.6 31.3 31.3 47 47 15.6-15.7 31.3-31.3 47-46.9 16 15.6 32 31.3 48 46.9l47-47c15.7 15.6 31.3 31.3 47 47 15.7-15.7 31.3-31.4 47-47 15.7 15.7 31.3 31.4 47 47 16-15.6 32-31.3 48-46.9 15.7 15.6 31.3 31.2 47 46.9 15.7-15.7 31.3-31.4 47-47 15.7 15.7 31.3 31.4 47 47 16-15.6 32-31.3 48-46.9 15.7 15.6 31.3 31.2 47 46.9 14.7-14.7 29.4-29.4 44.1-44.2 11.8 10-11.8 19.1-16.6 28-9.1 9.2-18.3 18.4-27.5 27.5-15.7-15.6-31.4-31.3-47-47-16 15.7-32 31.3-48 47-15.7-15.6-31.4-31.3-47-46.9-15.7 15.6-31.3 31.3-47 46.9-15.7-15.6-31.4-31.3-47-47-16 15.7-32 31.3-48 47-15.7-15.6-31.4-31.3-47-46.9-15.7 15.6-31.3 31.3-47 46.9-15.7-15.6-31.3-31.3-47-46.9-15.7 15.6-31.3 31.3-47 46.9-16-15.7-32-31.3-48-47-15.7 15.7-31.3 31.4-47 47z"/>
  <path id="path2663" d="m3929.4 3736.1v-47" stroke="#000" stroke-width="8"/>
  <path id="path2665" d="m4118.4 3736.1v-47" stroke="#000" stroke-width="8"/>
  <path id="path2667" d="m4307.4 3736.1v-47" stroke="#000" stroke-width="8" fill="none"/>
  <path id="path2669" d="m4496.4 3736.1v-47" stroke="#000" stroke-width="8"/>
  <path id="path2671" d="m3221.5 3827.1v-47" stroke="#000" stroke-width="8"/>
  <path id="path2673" d="m3410.5 3827.1v-47" stroke="#000" stroke-width="8"/>
  <path id="path2675" d="m3599.5 3827.1v-47" stroke="#000" stroke-width="8"/>
  <path id="path2677" d="m3788.5 3827.1v-47" stroke="#000" stroke-width="8"/>
  <path id="path2679" d="m3740.8 3727.7c15.7 15.6 31.3 31.3 47 47 15.6-15.7 31.3-31.3 46.9-47 11.6 10.5-12.7 19.8-17.6 29-9.8 9.8-19.6 19.5-29.3 29.3-15.7-15.6-31.4-31.3-47-47-15.7 15.7-31.3 31.4-47 47-16-15.7-32-31.3-48-47-15.7 15.7-31.3 31.4-47 47-15.7-15.6-31.4-31.3-47-47-15.7 15.7-31.3 31.4-47 47-15.7-15.6-31.4-31.3-47.1-47-16 15.7-32 31.3-48 47-15.6-15.6-31.3-31.3-46.9-47-15.7 15.7-31.3 31.4-47 47-15.7-15.6-31.4-31.3-47.1-47-16 15.7-32 31.3-48 47-15.6-15.6-31.3-31.3-46.9-47-14.7 14.8-29.5 29.5-44.2 44.2-11.8-9.9 11.8-19.1 16.6-28 9.2-9.2 18.4-18.3 27.6-27.5 15.7 15.6 31.3 31.3 47 47 16-15.7 32-31.3 48-47 15.7 15.6 31.3 31.3 47 47 15.6-15.7 31.3-31.4 47-47 15.7 15.6 31.3 31.3 47 47 16-15.7 32-31.3 48-47 15.7 15.6 31.3 31.3 47 47 15.6-15.7 31.3-31.4 47-47 15.7 15.6 31.3 31.3 47 47 15.6-15.7 31.3-31.4 46.9-47 16 15.7 32 31.3 48 47 15.7-15.7 31.4-31.4 47.1-47z"/>
  <path id="path2681" d="m3976.7 3786.4l-47-47c-15.7 15.7-31.3 31.3-47 46.9-17.5-17.7-35.9-34.6-53.8-52 13.1-11.5 23.1 15.7 34.3 20.9 10.2 8.6 20.5 27.3 30.3 9 12.1-12 24.1-24.1 36.2-36.1 15.7 15.6 31.3 31.3 47 46.9 15.7-15.6 31.3-31.3 47-46.9 16 15.6 32 31.3 48 47 15.7-15.7 31.3-31.4 47-47 15.7 15.6 31.3 31.3 47 46.9 15.7-15.6 31.3-31.3 47-46.9 15.7 15.6 31.4 31.3 47 47 16-15.7 32-31.4 48-47 15.7 15.6 31.3 31.3 47 46.9 15.7-15.6 31.3-31.3 47-46.9 15.7 15.6 31.4 31.3 47 47 16-15.7 32-31.4 48-47 15.7 15.6 31.3 31.3 47 46.9 14.7-14.7 29.4-29.4 44.2-44.1 11.7 9.9-11.8 19.1-16.6 28-9.2 9.1-18.4 18.3-27.6 27.5-15.7-15.7-31.3-31.4-47-47-16 15.6-32 31.3-48 46.9-15.7-15.6-31.3-31.3-47-46.9l-47 47c-15.7-15.7-31.3-31.4-47-47-16 15.6-32 31.3-48 46.9-15.7-15.6-31.3-31.3-47-46.9l-47 47-47-47c-15.7 15.6-31.3 31.3-47 46.9-16-15.6-32-31.3-48-46.9l-47 47z"/>
 </g>
 <path id="ellipse5625" d="m4650.7 4347.5c-2.2 23.8-25.4 36.5-44.2 46.6-65 31.1-136.6 44-207.1 56.5-181.4 29.5-365.5 37.7-549.1 37.8-183-0.9-366.6-10.2-547.1-41.6-65.1-12.3-131.4-25.3-190.8-55.9-16.7-8.9-35.8-21.6-38.2-42 0-22.2 21.5-35.6 38.8-45.1 53.1-27.9 112.6-40 170.9-51.9 160.6-30.4 324.3-40.4 487.5-44.4 200.9-3.6 402.6 3.4 601.6 32.8 75.5 11.9 151.8 25.2 222.4 55.5 21.6 9.8 46.7 22 54.6 46.2l0.5 2.7 0.2 2.8z" stroke="#ffe0e0" stroke-width="8" fill="#ffe0e0"/>
 <path id="ellipse6" d="m1685.1 4346.1c-1.1-35.2-31.5-59.6-59.4-75.9-75.5-41.6-162.2-55.8-247-62.5-105-7.1-212.1-0.2-313.1 30.6-44.6 14.2-90.68 33.2-121.23 70.3-15.85 20.5-18.37 51.6-1.5 72.3 24.55 34.4 64.93 52 103.23 66.5 99.4 34.8 206.3 42.9 311 38.5 84.4-4.4 169.9-17.5 247.3-52.7 31.8-15.3 65.6-35.9 78.2-70.8 1.6-5.2 2.5-10.8 2.5-16.3z" stroke="#ffe0e0" stroke-width="8" fill="#ffe0e0"/>
 <path id="ellipse8" d="m2508.4 4346.1c-1.1-35.2-31.5-59.6-59.4-75.9-75.5-41.6-162.2-55.8-247-62.5-105-7.1-212.1-0.2-313.1 30.6-44.6 14.2-90.7 33.2-121.2 70.3-15.9 20.5-18.4 51.6-1.5 72.3 24.5 34.4 64.9 52 103.2 66.5 99.4 34.8 206.3 42.9 311 38.5 84.4-4.4 169.9-17.5 247.3-52.7 31.8-15.3 65.7-35.9 78.2-70.8 1.6-5.2 2.5-10.8 2.5-16.3z" stroke="#ffe0e0" stroke-width="8" fill="#ffe0e0"/>
 <path id="ellipse10" d="m1685.1 4016.1c-1.1-35.2-31.5-59.6-59.4-75.9-75.5-41.6-162.2-55.8-247-62.5-105-7.1-212.1-0.2-313.1 30.6-44.6 14.2-90.68 33.2-121.23 70.3-15.85 20.5-18.37 51.6-1.5 72.3 24.55 34.4 64.93 52 103.23 66.5 99.4 34.8 206.3 42.9 311 38.5 84.4-4.4 169.9-17.5 247.3-52.7 31.8-15.3 65.6-35.9 78.2-70.8 1.6-5.2 2.5-10.8 2.5-16.3z" stroke="#ffe0e0" stroke-width="8" fill="#ffe0e0"/>
 <path id="ellipse12" d="m2508.4 4016.1c-1.1-35.2-31.5-59.6-59.4-75.9-75.5-41.6-162.2-55.8-247-62.5-105-7.1-212.1-0.2-313.1 30.6-44.6 14.2-90.7 33.2-121.2 70.3-15.9 20.5-18.4 51.6-1.5 72.3 24.5 34.4 64.9 52 103.2 66.5 99.4 34.8 206.3 42.9 311 38.5 84.4-4.4 169.9-17.5 247.3-52.7 31.8-15.3 65.7-35.9 78.2-70.8 1.6-5.2 2.5-10.8 2.5-16.3z" stroke="#ffe0e0" stroke-width="8" fill="#ffe0e0"/>
 <path id="ellipse14" d="m1685.1 3685.1c-1.1-35.2-31.5-59.6-59.4-75.9-75.5-41.6-162.2-55.8-247-62.5-105-7.1-212.1-0.2-313.1 30.6-44.6 14.2-90.68 33.2-121.23 70.3-15.85 20.5-18.37 51.6-1.5 72.3 24.55 34.4 64.93 52 103.23 66.5 99.4 34.8 206.3 42.9 311 38.5 84.4-4.4 169.9-17.5 247.3-52.7 31.8-15.3 65.6-35.9 78.2-70.8 1.6-5.2 2.5-10.8 2.5-16.3z" stroke="#ffe0e0" stroke-width="8" fill="#ffe0e0"/>
 <path id="ellipse16" d="m2508.4 3685.1c-1.1-35.2-31.5-59.6-59.4-75.9-75.5-41.6-162.2-55.8-247-62.5-105-7.1-212.1-0.2-313.1 30.6-44.6 14.2-90.7 33.2-121.2 70.3-15.9 20.5-18.4 51.6-1.5 72.3 24.5 34.4 64.9 52 103.2 66.5 99.4 34.8 206.3 42.9 311 38.5 84.4-4.4 169.9-17.5 247.3-52.7 31.8-15.3 65.7-35.9 78.2-70.8 1.6-5.2 2.5-10.8 2.5-16.3z" stroke="#ffe0e0" stroke-width="8" fill="#ffe0e0"/>
 <path id="ellipse22" d="m3415 2549.8c-0.1 46.6-31.1 86.2-65.1 115.1-76.4 62.9-170.3 98.7-263.1 129.6-208.6 65.8-426.2 97.1-643.5 116-315.9 25.7-634.4 21.8-949.1-15.6-184.8-22.8-369.6-56-545.22-119.1-80.24-29.9-161.14-65.4-224.19-124.9-30.56-29.7-55.4-71.5-48.76-115.6 7.27-49 44.27-86.5 82.15-115.1 86.53-62.8 188.84-98.5 290.32-129 219.6-63 447.4-92.1 674.8-107.9 315.1-20.2 632.6-12.5 945.6 30.9 170.1 24.4 340.1 58.2 500.8 120.4 74.2 29.9 149.2 65.2 205 124.1 22.6 24.9 40.5 56.6 40.3 91.1z" stroke="#ffe0e0" stroke-width="8" fill="#ffe0e0"/>
 <path id="ellipse24" d="m3401 1287.8c-0.1 46.6-31.1 86.2-65.1 115.1-76.4 62.9-170.3 98.7-263.1 129.6-208.6 65.8-426.2 97.1-643.5 116-315.9 25.7-634.4 21.8-949.1-15.6-184.8-22.8-369.6-56-545.22-119.1-80.24-29.9-161.14-65.4-224.19-124.9-30.56-29.7-55.4-71.5-48.76-115.6 7.27-49 44.27-86.5 82.15-115.1 86.53-62.8 188.84-98.5 290.32-129 219.6-63.01 447.4-92.12 674.8-107.88 315.1-20.19 632.6-12.49 945.6 30.87 170.1 24.43 340.1 58.21 500.8 120.41 74.2 29.9 149.2 65.2 205 124.1 22.6 24.9 40.5 56.6 40.3 91.1z" stroke="#ffe0e0" stroke-width="8" fill="#ffe0e0"/>
 <path id="polygon28" d="m871.07 3896v249c28.12-10.7 51.69-31.2 67.24-56.8 8.52-18.6 16.89-38.1 16.09-59 2.09-28.2-4.58-57.4-19.22-81.5-16.18-22-36.72-42.3-62.86-51.8l-1.25 0.1z" stroke="#ff0" stroke-width="8" fill="#ff0"/>
 <path id="polygon30" d="m778.07 3896v249c-28.11-10.7-51.69-31.2-67.23-56.8-8.52-18.6-16.9-38.1-16.09-59-2.3-27 4.76-54.3 16.21-78.5 17.53-22 36.76-44.5 64.09-54.2l3.02-1.5v0.9 0.1z" stroke="#0f0" stroke-width="8" fill="#0f0"/>
 <path id="polygon32" d="m871.07 4226v250c20.61-8.3 39.67-20.7 53.19-38.6 16-15.6 22.93-37.5 28.94-58.4 2.56-25.8 2.75-52.4-6.96-76.9-11.23-35-40.98-61-73.54-76.2-1.94-2.3-1.61-0.8-1.63 0.1z" stroke="#ff0" stroke-width="8" fill="#ff0"/>
 <path id="polygon34" d="m778.07 4226v250c-20.6-8.3-39.66-20.7-53.18-38.6-16-15.6-22.93-37.5-28.94-58.4-2.6-25.6-2.62-51.8 6.59-76.2 3.64-16.8 14.11-30.3 25.69-42.5 13.4-15.3 30.68-26.6 49.09-34.6l0.75 0.3z" stroke="#0f0" stroke-width="8" fill="#0f0"/>
 <path id="polygon36" d="m871.07 3565v250c18.93-9.6 38.64-19.2 51.57-36.7 16.28-16.8 24.52-39.2 30.56-61.3 2.9-26.5 2.31-53.8-7.99-78.8-10.03-29-33.67-51.4-59.31-67.2-4.33-1.6-12.03-6.9-14.83-6z" stroke="#ff0" stroke-width="8" fill="#ff0"/>
 <path id="polygon38" d="m778.07 3565v250c-18.92-9.6-38.64-19.2-51.56-36.7-16.28-16.8-24.52-39.2-30.56-61.3-2.68-25.2-2.47-51.1 6.59-75.2 3.53-16.2 13.4-29.4 24.57-41.3 14.03-15.2 30.88-29.8 50.96-35.5z" stroke="#0f0" stroke-width="8" fill="#0f0"/>
 <path id="polygon40" d="m2568.4 3896v249c-19.8-8.2-38.6-19.6-51.6-36.9-16.8-16-24.5-38.4-30.5-60.1-2.6-25.8-2.8-52.4 6.9-76.9 7.2-23.8 25.2-42.3 43.7-58.1 9.4-7 20.2-14.2 31.5-17z" stroke="#ff0" stroke-width="8" fill="#ff0"/>
 <path id="polygon42" d="m2661.4 3896v249c22-8.6 41.4-22.6 56.3-41 13.8-13.6 18.2-33 24.4-50.8 4.4-24.9 4.6-51.3-3.4-75.7-3.7-15.3-10.1-29.5-21.6-40.6-14.2-17.2-31.4-32.6-52.7-40.4l-3-1.5v0.9 0.1z" stroke="#0f0" stroke-width="8" fill="#0f0"/>
 <path id="polygon44" d="m2568.4 4226v250c-18.2-7.9-36.4-17.4-48.3-33.9-12-12-22.3-25.7-27.2-42.2-9.3-21.3-8.9-45.2-7.2-67.9 4.2-26.3 13.8-52.6 32.9-71.8 13.7-15.3 31.5-26.3 49.8-35.2v0.9 0.1z" stroke="#ff0" stroke-width="8" fill="#ff0"/>
 <path id="polygon46" d="m2661.4 4226v250c19.8-8.2 38.5-19.6 51.6-36.8 10.9-10.1 19.1-22.5 23-36.9 9.6-21 9.7-44.6 8.4-67.2-2.7-18.5-7.8-37.1-16.1-53.9-16-22.6-36.5-42.4-62.1-53.8-1.1 0.1-3.3-2.7-4.8-1.4z" stroke="#0f0" stroke-width="8" fill="#0f0"/>
 <path id="polygon48" d="m2568.4 3565v250c-17.2-9.2-36.4-17-48-33.6-12-12.6-22.4-26.7-27.5-43.5-9.2-21-8.9-44.6-7.2-67 4.3-27.6 14.9-55 35.6-74.6 13.6-13.5 29.1-25.3 47.1-32.3v0.9 0.1z" stroke="#ff0" stroke-width="8" fill="#ff0"/>
 <path id="polygon50" d="m2661.4 3565v250c18.8-9.5 38.3-19.1 51.2-36.3 12.6-11.9 20.3-27.2 25.3-43.5 8.3-20.3 7.7-42.8 6.2-64.3-3.6-17.9-7.7-36.6-17.1-52.4-16.7-22.5-37.4-43.8-64.3-53.5h-1.3z" stroke="#0f0" stroke-width="8" fill="#0f0"/>
 <path id="polygon60" d="m3077.3 3565v250c19.5-9.3 38.6-20.5 51.7-38.1 10.6-10.3 17.9-22.9 22-37 8.4-20.2 11.3-42.6 8.9-64.3-3.5-19.2-7.9-39.1-17.4-56.2-14.6-20.9-32.8-39.8-56-50.9-2.3-0.4-8.6-5.6-9.2-3.5z" stroke="#ff0" stroke-width="8" fill="#ff0"/>
 <path id="polygon62" d="m2983.3 3565v250c-17.2-9.2-36.4-17-48-33.6-12.4-12.3-21.7-26.9-26.8-43.8-9.1-17.8-9.1-38-8.7-57.5 1.2-20.7 9.3-40.5 17.1-59.4 13.8-21.3 32.7-39.6 55.2-51.5 2.9-0.6 10-6 11.2-4.2z" stroke="#0f0" stroke-width="8" fill="#0f0"/>
 <path id="polygon72" d="m4649.6 3565v250c-19.5-9.3-38.7-20.5-51.8-38.1-10.6-10.3-17.9-22.9-22-37-8.4-20.2-11.2-42.6-8.9-64.3 3.7-19.5 8-40 18.1-57.2 16.6-22.4 37.3-43.2 63.5-53.6l1.1 0.2z" stroke="#ff0" stroke-width="8" fill="#ff0"/>
 <path id="polygon74" d="m4743.6 3565v250c17.2-9.2 36.3-17 47.9-33.6 12.5-12.3 21.8-26.9 26.9-43.8 9.1-17.8 9-38 8.7-57.5-1.3-20.7-9.4-40.5-17.1-59.4-13.9-21.3-32.8-39.6-55.3-51.5-2.9-0.6-10-6-11.1-4.2z" stroke="#0f0" stroke-width="8" fill="#0f0"/>
 <path id="circle76" d="m4833 2830c1.1 115.2-60 228.3-156.1 291.5-93 62.6-216.7 76.2-321 34.8-102.9-39.9-184.6-130.8-211.8-238-27.5-105-3.2-222.2 65.3-306.6 66.5-83.9 172.9-134.5 280-131.8 107 1.5 211.8 55.4 274.9 141.8 44.3 59.8 69.1 133.9 68.7 208.3z" stroke="#0f0" stroke-width="8" fill="#0f0"/>
 <path id="ellipse78" d="m4142 2638c-0.5 121.5-26.2 246.2-92.8 349.4-36.7 56.2-90.5 106.5-158.3 119.8-62.3 12.1-127-14.4-171-58.3-62.6-59.9-99.1-141.7-120.8-224.3-33.4-131.8-31-272.8 8.4-402.9 24.8-80 65.7-158.2 131.7-211.6 45.5-36.1 107.7-54.6 164.7-38.2 68.2 18.7 120 73.3 155.1 132.4 59.4 100.2 82.4 218.3 83 333.7z" stroke="#f00" stroke-width="8" fill="#f00"/>
 <path id="circle80" d="m4786 846c1.1 115.18-60 228.3-156.1 291.5-93 62.6-216.7 76.2-321 34.8-102.9-39.9-184.6-130.8-211.8-238.02-27.5-104.93-3.2-222.23 65.3-306.61 66.5-83.86 172.9-134.48 280-131.74 107 1.49 211.8 55.36 274.9 141.81 44.3 59.73 69.1 133.84 68.7 208.26z" stroke="#0f0" stroke-width="8" fill="#0f0"/>
 <path id="ellipse82" d="m4157 1109c-0.2 127.9-35 259.1-115 360.7-48.2 60.8-117.5 109.3-196.1 117.8-80.2 9.8-160.9-25.5-217-81.8-76.1-74.3-119.5-176.6-137.8-280.2-24.3-140.4-5.7-290.52 63.8-416.01 40.8-72.91 102.6-137.82 182.6-166.57 71.1-25.52 153.1-14.97 216.3 25.91 78.4 48.93 131.7 129.82 163.7 215.04 26.9 71.77 39.5 148.63 39.5 225.13z" stroke="#f00" stroke-width="8" fill="#f00"/>
 <path id="polygon84" d="m787.07 3889v261c12.18 6 25.31 5.7 38.4 5.6 13.05 3.3 26.95-2.3 37.6-7.6v-257c-21.42-8.5-44.79-6.5-67.09-3.8-3.27-0.7-5.98 0.4-8.91 1.8z" stroke="#f00" stroke-width="8" fill="#f00"/>
 <path id="polygon86" d="m787.07 4220v260c14.21 9.3 30.36 4.7 46 7.5 9.96 0.1 23.11-6 30-9.5v-256c-21.42-8.5-44.79-6.5-67.09-3.8-3.27-0.7-5.98 0.4-8.91 1.8z" stroke="#f00" stroke-width="8" fill="#f00"/>
 <path id="polygon88" d="m787.07 3559v260c12.18 6 25.31 5.7 38.4 5.6 13.05 3.3 26.95-2.3 37.6-7.6v-256c-20.84-10.1-44.32-7.3-66.48-4.9-3.8-0.8-6.51 0.7-9.52 2.9z" stroke="#f00" stroke-width="8" fill="#f00"/>
 <path id="polygon90" d="m2652.4 3889v261c-12.2 6.1-25.3 5.6-38.4 5.7-13.1 3.2-27-2.4-37.6-7.7v-257c21.4-8.5 44.8-6.5 67.1-3.8 3.2-0.7 6 0.4 8.9 1.8z" stroke="#f00" stroke-width="8" fill="#f00"/>
 <path id="polygon92" d="m2652.4 4220v260c-14.2 9.2-30.4 4.8-46 7.5-10 0-23.1-6-30-9.5v-256c21.4-8.5 44.8-6.5 67.1-3.8 3.2-0.7 6 0.4 8.9 1.8z" stroke="#f00" stroke-width="8" fill="#f00"/>
 <path id="polygon94" d="m2652.4 3559v260c-12.2 6.1-25.3 5.6-38.4 5.7-13.1 3.2-27-2.4-37.6-7.7v-256c20.8-10.1 44.3-7.3 66.5-4.9 3.8-0.8 6.5 0.7 9.5 2.9z" stroke="#f00" stroke-width="8" fill="#f00"/>
 <path id="polygon100" d="m2993.3 3559v260c15.7 8.5 33.2 4 50.1 6.6 12.2-3.3 30.5-3.9 24.9-21.6v-243c-20.6-10-43.8-7.4-65.6-5-3.8-0.7-6.5 0.9-9.4 3z" stroke="#f00" stroke-width="8" fill="#f00"/>
 <path id="polygon106" d="m4733.6 3559v260c-15.7 8.5-33.3 4-50.1 6.6-12.3-3.3-30.6-3.9-24.9-21.6v-243c20.5-10 43.7-7.4 65.6-5 3.7-0.7 6.4 0.9 9.4 3z" stroke="#f00" stroke-width="8" fill="#f00"/>
 <path id="ellipse108" d="m3650 2462c-0.5 121.5-26.2 246.2-92.8 349.4-36.7 56.2-90.5 106.5-158.3 119.8-62.3 12.1-127-14.4-171-58.3-62.6-59.9-99.1-141.7-120.8-224.3-33.4-131.8-31-272.8 8.4-402.9 24.8-80 65.7-158.2 131.7-211.6 45.5-36.1 107.7-54.6 164.7-38.2 68.2 18.7 120 73.3 155.1 132.4 59.4 100.2 82.4 218.3 83 333.7z" stroke="#ff0" stroke-width="8" fill="#ff0"/>
 <path id="ellipse110" d="m3644 1231c1.1 90.7-55.2 177.4-135.4 218.1-93.2 49.4-215.8 36.6-295.7-32.7-64.1-53.6-98.3-141.5-83.8-224.2 14.3-89.9 83.3-166.8 169.2-195.05 94.7-32.82 207.8-7.63 277 65.65 43.2 44.6 69.2 105.9 68.7 168.2z" stroke="#ff0" stroke-width="8" fill="#ff0"/>
 <path id="circle112" d="m4582 3307c1.4 49.7-43.4 94.8-93.1 94.1-47.3 1.3-91.5-38.3-94.7-85.8-4.8-46.3 29.8-92.8 75.8-100.7 45.5-9.4 95.6 19.9 107.9 65 2.7 8.9 4.1 18.1 4.1 27.4z" stroke="#000" stroke-width="8" fill="none"/>
 <path id="text114" d="m4477.8 3298.2c-22.9-6.4-13.5-42.8 9-41.7 18.8-4.4 40.1 20.6 24.5 35.8-16.3 10.4 15.1 13.9 8.9 29.2-0.2 15.4-14.4 28.7-29.9 27.4-22.1 2.1-39.6-26.8-23.9-44.1 3-3.3 7.1-5.6 11.4-6.6zm-2.2-18.7c-2.2 22.6 38.9 14.5 28.2-5.5-5.6-13.5-28.6-9.6-28.2 5.5zm-3.6 41.6c-2.3 22.5 37.2 24.6 36.8 1.8 3.1-18.3-24.7-27-34-12.1-2 3.1-2.8 6.7-2.8 10.3z" stroke="#000" stroke-width=".025in"/>
 <path id="polyline116" d="m3291 2180v95" stroke="#000" stroke-width="8"/>
 <path id="polyline118" d="m3338 2180v95" stroke="#000" stroke-width="8"/>
 <path id="polyline120" d="m4401 2661v94" stroke="#000" stroke-width="8"/>
 <path id="polyline122" d="m4448 2661v94" stroke="#000" stroke-width="8"/>
 <path id="circle124" d="m3448 1606c1.4 49.7-43.4 94.8-93.1 94.1-47.3 1.3-91.5-38.3-94.7-85.8-4.8-46.3 29.8-92.8 75.8-100.7 45.5-9.4 95.6 19.9 107.9 65 2.7 8.9 4.1 18.1 4.1 27.4z" stroke="#000" stroke-width="8" fill="none"/>
 <path id="text126" d="m3382.6 1643.9c3.4 20.4-25.5 6.7-37.1 10.6-11.2 0.3-29.9 3.3-18.8-12.5 10.8-19.9 36.1-27.9 44.6-49.2 3.2-17.3-24.9-28-32.6-11.3 1.9 17.1-24.7 6.3-9.8-4.8 11.8-20.9 51.4-15.7 53.5 9.7 1 21.3-19.6 33.3-33.4 45.9-13.6 6.3-7.3 15.6 5.4 11.6h28.2z" stroke="#000" stroke-width=".025in"/>
 <path id="circle128" d="m3920 1700c1.4 49.7-43.4 94.8-93.1 94.1-47.3 1.3-91.5-38.3-94.7-85.8-4.8-46.3 29.8-92.8 75.8-100.7 45.5-9.4 95.6 19.9 107.9 65 2.7 8.9 4.1 18.1 4.1 27.4z" stroke="#000" stroke-width="8" fill="none"/>
 <path id="text130" d="m3802.1 1720.4c15.5-7.6 16.1 24.3 34.1 16.1 16.9-4.8 16.6-36.3-2.8-36.5-15.3 6-8.2-14.8 2.6-9.8 24-8-5.7-42.6-18.2-21.1 1 14.6-23.1 9.8-11.3-2.4 10.5-19.3 45-17.1 49.6 5.5 6.5 8.9-14.2 28-9.8 23.6 20.7 6.3 18.5 38.6-0.1 46.3-17.1 9.9-43.5-0.4-44.1-21.7z" stroke="#000" stroke-width=".025in"/>
 <path id="circle132" d="m4562 1302c1.4 49.7-43.4 94.8-93.1 94.1-47.3 1.3-91.5-38.3-94.7-85.8-4.8-46.3 29.8-92.8 75.8-100.7 45.5-9.4 95.6 19.9 107.9 65 2.7 8.9 4.1 18.1 4.1 27.4z" stroke="#000" stroke-width="8" fill="none"/>
 <path id="text134" d="m4478.2 1344.6c-0.3-11 4.2-26.7-12.2-21.6-11.2-1-35.2 5.6-25.1-13.1 13.5-18.2 26.2-37.1 39.4-55.5 18.1-1.4 5.2 26.2 9 37.3 0.6 10.5-4.4 25.4 11.1 21.5 6.6 9.7-4.5 10.3-11.1 10.8-1.5 10.3 5.8 25.4-11.1 20.6zm0-31.8c-1.1-11 2.3-36.4-1.7-38.1-8.9 12.7-17.7 25.4-26.5 38.1h28.2z" stroke="#000" stroke-width=".025in"/>
 <path id="polyline136" d="m4354 937v95" stroke="#000" stroke-width="8"/>
 <path id="polyline138" d="m4402 937v95" stroke="#000" stroke-width="8"/>
 <path id="polyline140" d="m3298 2677v94" stroke="#000" stroke-width="8"/>
 <path id="polyline142" d="m3345 2677v94" stroke="#000" stroke-width="8"/>
 <path id="polyline148" d="m1895.4 4446.8c-15.7-15.6-31.3-31.3-47-47l-47 47c-11.5-10.5 12.7-19.8 17.7-29 9.7-9.8 19.5-19.6 29.3-29.3 15.7 15.6 31.3 31.3 47 46.9 15.6-15.6 31.3-31.3 47-46.9 16 15.7 32 31.3 48 47 15.6-15.7 31.3-31.4 47-47 15.7 15.6 31.3 31.3 47 46.9 15.7-15.6 31.3-31.3 47-46.9 15.7 15.6 31.3 31.3 47 47 16-15.7 32-31.3 48-47 15.7 15.6 31.3 31.3 47 46.9 15.7-15.6 31.3-31.3 47-46.9 15.7 15.6 31.3 31.3 47 47 16-15.7 32-31.3 48-47 15.7 15.6 31.3 31.3 47 46.9l44.1-44.1c11.8 9.9-11.8 19.1-16.6 28-9.1 9.2-18.3 18.3-27.5 27.5-15.7-15.6-31.4-31.3-47-47-16 15.6-32 31.3-48 47-15.7-15.7-31.4-31.3-47-47-15.7 15.7-31.3 31.4-47 47-15.7-15.6-31.4-31.3-47-47-16 15.6-32 31.3-48 47-15.7-15.7-31.4-31.3-47-47-15.7 15.7-31.3 31.4-47 47-15.7-15.6-31.3-31.3-47-47l-47 47c-16-15.7-32-31.4-48-47-15.7 15.7-31.3 31.4-47 47z"/>
 <path id="polyline316" d="m1179.1 1242.9v142" stroke="#000" stroke-width="8"/>
 <path id="polyline318" d="m1746.1 1242.9v142" stroke="#000" stroke-width="8"/>
 <path id="polyline320" d="m2313.1 1242.9v142" stroke="#000" stroke-width="8"/>
 <path id="polyline322" d="m2880.1 1242.9v142" stroke="#000" stroke-width="8"/>
 <path id="polyline324" d="m1179.8 959.93v141.97" stroke="#000" stroke-width="8"/>
 <path id="polyline326" d="m1746.8 959.93v141.97" stroke="#000" stroke-width="8"/>
 <path id="polyline328" d="m2313.8 959.93v141.97" stroke="#000" stroke-width="8"/>
 <path id="polyline330" d="m2880.8 959.93v141.97" stroke="#000" stroke-width="8"/>
 <path id="polyline334" d="m1086 2498.5c-11.9-11 14.9-21 19.7-31 40.8-40.7 81.5-81.6 122.3-122.3 47.4 47.3 94.7 94.6 142 142 47-47.4 94-94.7 141-142 47.3 47.3 94.7 94.6 142 142 47.3-47.4 94.7-94.7 142-142 47.3 47.3 94.7 94.6 142 142 47-47.4 94-94.7 141-142 47.4 47.3 94.7 94.6 142 142 47.3-47.4 94.6-94.7 142-142 47 47.3 94 94.6 141 142 47.3-47.4 94.6-94.7 142-142 47.4 47.3 94.7 94.6 142 142 47.3-47.4 94.6-94.7 142-142 47 47.3 94 94.6 141 142l139.2-139.2c12 11-14.6 20.9-19.3 30.7-40 39.9-79.9 79.9-119.9 119.8-47-47.3-94-94.6-141-142-47.3 47.4-94.7 94.7-142 142-47.3-47.3-94.7-94.6-142-142-47.3 47.4-94.7 94.7-142 142-47-47.3-94-94.6-141-142-47.3 47.4-94.7 94.7-142 142-47.3-47.3-94.7-94.6-142-142-47 47.4-94 94.7-141 142-47.3-47.3-94.7-94.6-142-142-47.3 47.4-94.7 94.7-142 142-47.3-47.3-94.7-94.6-142-142-47 47.4-94 94.7-141 142-47.4-47.3-94.7-94.6-142-142-47.3 47.4-94.7 94.7-142 142z"/>
 <path id="circle336" d="m1847.4 4674c1.4 49.7-43.4 94.8-93.1 94.1-47.3 1.3-91.5-38.3-94.7-85.8-4.8-46.3 29.8-92.8 75.8-100.7 45.5-9.4 95.5 19.9 107.9 65 2.7 8.9 4.1 18.1 4.1 27.4z" stroke="#000" stroke-width="8" fill="none"/>
 <path id="circle338" d="m3965.5 4674c1.5 49.7-43.3 94.8-93.1 94.1-47.3 1.3-91.5-38.3-94.7-85.8-4.7-46.3 29.8-92.8 75.9-100.7 45.5-9.4 95.5 19.9 107.9 65 2.7 8.9 4.1 18.1 4 27.4z" stroke="#000" stroke-width="8" fill="none"/>
 <path id="circle342" d="m3448 3070c1.4 49.7-43.4 94.8-93.1 94.1-47.3 1.3-91.5-38.3-94.7-85.8-4.8-46.3 29.8-92.8 75.8-100.7 45.5-9.4 95.6 19.9 107.9 65 2.7 8.9 4.1 18.1 4.1 27.4z" stroke="#000" stroke-width="8" fill="none"/>
 <path id="circle344" d="m3987 3239c1.4 49.7-43.4 94.8-93.1 94.1-47.3 1.3-91.5-38.3-94.7-85.8-4.8-46.3 29.8-92.8 75.8-100.7 45.5-9.4 95.6 19.9 107.9 65 2.7 8.9 4.1 18.1 4.1 27.4z" stroke="#000" stroke-width="8" fill="none"/>
 <path id="polyline348" d="m3637 2582h142" stroke="#000" stroke-width="8"/>
 <path id="polyline350" d="m3622 2338h141" stroke="#000" stroke-width="8"/>
 <path id="polyline352" d="m3912 2590h95" stroke="#000" stroke-width="8"/>
 <path id="polyline354" d="m3377 2574h94" stroke="#000" stroke-width="8"/>
 <path id="polyline356" d="m3826 2661v94" stroke="#000" stroke-width="8"/>
 <path id="polyline358" d="m3921 2834h189" stroke="#000" stroke-width="8"/>
 <path id="polyline360" d="m4428 2917v95" stroke="#000" stroke-width="8"/>
 <path id="polyline362" d="m4475 2838h95" stroke="#000" stroke-width="8"/>
 <path id="polyline364" d="m4283 2841h94" stroke="#000" stroke-width="8"/>
 <path id="polyline366" d="m3384 2346h95" stroke="#000" stroke-width="8"/>
 <path id="polyline368" d="m3590 1354h142" stroke="#000" stroke-width="8"/>
 <path id="polyline370" d="m3574 1109h142" stroke="#000" stroke-width="8"/>
 <path id="polyline372" d="m3330 1345h94" stroke="#000" stroke-width="8"/>
 <path id="polyline374" d="m3337 1118h95" stroke="#000" stroke-width="8"/>
 <path id="polyline376" d="m3874 843h188" stroke="#000" stroke-width="8"/>
 <path id="polyline378" d="m3842 1118h95" stroke="#000" stroke-width="8"/>
 <path id="polyline380" d="m4428 854h94" stroke="#000" stroke-width="8"/>
 <path id="polyline382" d="m4236 857h94" stroke="#000" stroke-width="8"/>
 <path id="polyline384" d="m3818 2424v94" stroke="#000" stroke-width="8"/>
 <path id="polyline386" d="m3786 1196v95" stroke="#000" stroke-width="8"/>
 <path id="polyline388" d="m3786 944v95" stroke="#000" stroke-width="8"/>
 <path id="polyline390" d="m4377 661v94" stroke="#000" stroke-width="8"/>
 <path id="text392" d="m1728.4 4697.4c14.2-5.8 17.6 23.9 34.3 11.6 8.3-4.2 16.6-27.4 9.2-29.1-14 16.1-43.7 5.2-44.9-15.9-5.2-21.3 16.9-43.5 38-34.7 18.5 6.8 22.3 28.3 21 45.6 0.3 17.1-5.2 38.6-23.8 43.9-14.8 4.7-33.4-4.7-33.8-21.4zm45.3-39.8c4.8-21.6-32.4-27.8-35-5.8-5.7 13.3 7 27.5 20.7 25.5 10.4-0.6 14.7-10.6 14.3-19.7z" stroke="#000" stroke-width=".025in"/>
 <path id="text394" d="m3839.2 4715.8c-18.6 4.3-8.6-19.1-11-29.5v-41c-4.9 8.6-30.9 18-19.7 1.9 11.3-1.5 22.3-29.5 31.1-17.5-0.9 28.6-0.1 57.4-0.4 86.1zm28.5-44.4c-0.7-17.2 3.3-40.5 22.7-45.4 18.3-5.7 33.6 12.1 35.3 29 0.9 19.2 3.6 43.2-12.7 57.2-16.6 13.9-43.3-0.9-43.7-21.7-1.3-6.3-1.6-12.7-1.6-19.1zm11.3 0c-1.9 13.9 2.6 37.9 20.7 36.3 19.1-6.7 15.3-31.9 14.8-48 5.9-18.8-22.2-34-32.4-15.6-3.1 8.4-2.5 18.3-3.1 27.3z" stroke="#000" stroke-width=".025in"/>
 <g id="g2612" stroke="#000" transform="translate(-42.897 114.39)">
  <path id="circle340" d="m2165.6 2929c1.4 49.7-43.4 94.8-93.1 94.1-47.3 1.3-91.5-38.3-94.7-85.8-4.7-46.3 29.8-92.8 75.9-100.7 45.5-9.4 95.5 19.9 107.9 65 2.7 8.9 4 18.1 4 27.4z" stroke-width="8" fill="none"/>
  <path id="text396" d="m2047.7 2942.8c15.7-6 19.6 28 38.3 13.4 17.6-9.6 10.3-45.3-11.8-39-8.5 3.7-30.6 14.6-22.3-4.2 4.5-10.9-0.1-33.6 12.1-35.5 12.4 1.6 31-3.4 39.5 2.5-0.3 21.9-42.6-7-38.7 20.2-1.2 6.9-5 15.5 3.9 8.4 17.9-7.8 39.9 7.1 39 26.7 1 18.9-17.4 36.9-36.6 32.4-12.4-1.5-22.9-12.3-23.4-24.9z" stroke-width=".025in"/>
 </g>
 <path id="text398" d="m3384.8 3041.8c-14.3 5.2-21-26.1-37.2-9.4-9.1 6.3-15.6 39.2 0.9 21.3 16.5-7.8 37.5 5.2 37.9 23.4 2.6 18.4-14.1 38.8-33.5 34-21.2-3-27.7-27.7-26.2-46.1-0.2-17.6 5.6-40.9 25.7-45 14.4-4.1 31.8 6.1 32.4 21.8zm-45.3 38.9c-4.5 19.7 29.5 30.5 34.4 9.5 6.1-11.7-2-26.6-14.9-28.2-11.6-2.7-20.1 8.1-19.5 18.7z" stroke="#000" stroke-width=".025in"/>
 <path id="text400" d="m3871.4 3204.9c-3.4-20.3 25-6.9 36.4-10.6 11.2-1 30.5-2.3 18.7 13.2-15.4 17.7-25.1 40-29.6 62.9 3.7 11.4-11.6 20.7-12.7 5.8 2.4-21 10.6-40.7 22-58.3 5.4-7.8 10.8-16.3-3.2-13h-31.6z" stroke="#000" stroke-width=".025in"/>
 <path id="text402" d="m3333.1 2613.4c21.8 0.7 2.6 27.4-9.5 30-21.9 10-52.1-2.4-56.2-27.4-7.2-23.2 2-55.1 28.2-61.2 18.9-6.2 43.6 4.1 47.9 24.7-16.9 8.3-20.9-24.8-40.8-15.8-18.9 2-26.5 22-25.1 38.7-0.5 15.8 9.7 33.5 27.1 34 13.6 1.3 26.8-9.3 28.4-23z" stroke="#000" stroke-width=".025in"/>
 <path id="text404" d="m3502.1 2601.1c-2.2-23.4 16.1-48 40.6-48 23.5-2.1 45.3 18.2 45.6 41.6 3.3 23.9-13.3 50.8-38.9 51.8-25.7 3.2-49-19.8-47.3-45.4zm12.3 0.2c-3.2 21.9 21.6 42.8 42.4 32.9 23.9-10.7 25.2-47 7.8-64.1-17.2-15-49.3-2.9-49.5 20.9-0.5 3.4-0.7 6.8-0.7 10.3z" stroke="#000" stroke-width=".025in"/>
 <path id="text406" d="m3265.1 2853.1c-2.2-23.4 16.1-48 40.6-48 23.5-2.1 45.3 18.2 45.6 41.6 3.3 23.9-13.3 50.8-38.9 51.8-25.7 3.2-49-19.8-47.3-45.4zm12.3 0.2c-3.2 21.9 21.6 42.8 42.4 32.9 23.9-10.7 25.2-47 7.8-64.1-17.2-15-49.3-2.9-49.5 20.9-0.5 3.4-0.7 6.8-0.7 10.3z" stroke="#000" stroke-width=".025in"/>
 <path id="text408" d="m3853.1 2377.4c21.8 0.7 2.6 27.4-9.5 30-21.9 10-52.1-2.4-56.2-27.4-7.2-23.2 2-55.1 28.2-61.2 18.9-6.2 43.6 4.1 47.9 24.7-16.9 8.3-20.9-24.8-40.8-15.8-18.9 2-26.5 22-25.1 38.7-0.5 15.8 9.7 33.5 27.1 34 13.6 1.3 26.8-9.3 28.4-23zm27 31.6v-90.2c18.8-5.1 10.1 17 12 27.7-3.3 18.1 23.9 5.7 35.1 9.3 20.6 5.1 8.6-22.4 11.8-34.7 4.2-7.5 17.6 0.4 11.9 10v77.9c-20.1 4.9-9.3-20.2-11.9-31.4 4.3-20.7-25.6-7.3-38.1-11.1-17-2.6-5.4 23.5-8.8 34.5 2.2 11.7-3.5 7.2-12 8z" stroke="#000" stroke-width=".025in"/>
 <path id="text410" d="m3853.1 2613.4c21.8 0.7 2.6 27.4-9.5 30-21.9 10-52.1-2.4-56.2-27.4-7.2-23.2 2-55.1 28.2-61.2 18.9-6.2 43.6 4.1 47.9 24.7-16.9 8.3-20.9-24.8-40.8-15.8-18.9 2-26.5 22-25.1 38.7-0.5 15.8 9.7 33.5 27.1 34 13.6 1.3 26.8-9.3 28.4-23z" stroke="#000" stroke-width=".025in"/>
 <path id="text412" d="m4387.1 2590.1c-2.2-23.4 16.1-48 40.6-48 23.5-2.1 45.3 18.2 45.6 41.6 3.3 23.9-13.3 50.8-38.9 51.8-25.7 3.2-49-19.8-47.3-45.4zm12.3 0.2c-3.2 21.9 21.6 42.8 42.4 32.9 23.9-10.7 25.2-47 7.8-64.1-17.2-15-49.3-2.9-49.5 20.9-0.5 3.4-0.7 6.8-0.7 10.3z" stroke="#000" stroke-width=".025in"/>
 <path id="text414" d="m4390.7 2894v-90.2c19.7 1.6 41.5-4.1 59.6 5.5 17.3 13.2 8.9 47.1-14 47.2-10.9 5-36.8-7.8-33.6 10-2.6 11.2 7.8 33.4-12 27.5zm12-47.3c14.8-1.6 38 5.8 44.5-12.5 2.6-23-24.1-21.2-39.5-19.7-10.6-0.5-2.5 24-5 32.2z" stroke="#000" stroke-width=".025in"/>
 <path id="text416" d="m4378.1 3101.1c-2.2-23.4 16.1-48 40.6-48 23.5-2.1 45.3 18.2 45.6 41.6 3.3 23.9-13.3 50.8-38.9 51.8-25.7 3.2-49-19.8-47.3-45.4zm12.3 0.2c-3.2 21.9 21.6 42.8 42.4 32.9 23.9-10.7 25.2-47 7.8-64.1-17.2-15-49.3-2.9-49.5 20.9-0.5 3.4-0.7 6.8-0.7 10.3z" stroke="#000" stroke-width=".025in"/>
 <path id="text418" d="m4150.1 2850.1c-2.2-23.4 16.1-48 40.6-48 23.5-2.1 45.3 18.2 45.6 41.6 3.3 23.9-13.3 50.8-38.9 51.8-25.7 3.2-49-19.8-47.3-45.4zm12.3 0.2c-3.2 21.9 21.6 42.8 42.4 32.9 23.9-10.7 25.2-47 7.8-64.1-17.2-15-49.3-2.9-49.5 20.9-0.5 3.4-0.7 6.8-0.7 10.3z" stroke="#000" stroke-width=".025in"/>
 <path id="text420" d="m4607.1 2850.1c-2.2-23.4 16.1-48 40.6-48 23.5-2.1 45.3 18.2 45.6 41.6 3.3 23.9-13.3 50.8-38.9 51.8-25.7 3.2-49-19.8-47.3-45.4zm12.3 0.2c-3.2 21.9 21.6 42.8 42.4 32.9 23.9-10.7 25.2-47 7.8-64.1-17.2-15-49.3-2.9-49.5 20.9-0.5 3.4-0.7 6.8-0.7 10.3z" stroke="#000" stroke-width=".025in"/>
 <path id="text422" d="m4502 3047.9c-4.5-20.4 22.8-7.7 34-11.1 5.4 21-23.2 7.3-34 11.1z" stroke="#000" stroke-width=".025in"/>
 <path id="text424" d="m4730 2779.9c-4.5-20.4 22.8-7.7 34-11.1 5.4 21-23.2 7.3-34 11.1z" stroke="#000" stroke-width=".025in"/>
 <path id="text426" d="m4021.1 2634v-90.2c18.8-5.1 10.1 17 11.9 27.7-3.3 18.1 24 5.7 35.2 9.3 20.6 5.1 8.5-22.4 11.7-34.7 4.2-7.5 17.6 0.4 11.9 10v77.9c-20 4.9-9.3-20.2-11.9-31.4 4.3-20.7-25.5-7.3-38.1-11.1-17-2.6-5.4 23.5-8.8 34.5 2.2 11.7-3.4 7.2-11.9 8z" stroke="#000" stroke-width=".025in"/>
 <path id="text428" d="m3333.1 2377.4c21.8 0.7 2.6 27.4-9.5 30-21.9 10-52.1-2.4-56.2-27.4-7.2-23.2 2-55.1 28.2-61.2 18.9-6.2 43.6 4.1 47.9 24.7-16.9 8.3-20.9-24.8-40.8-15.8-18.9 2-26.5 22-25.1 38.7-0.5 15.8 9.7 33.5 27.1 34 13.6 1.3 26.8-9.3 28.4-23z" stroke="#000" stroke-width=".025in"/>
 <path id="text430" d="m3502.1 2365.1c-2.2-23.4 16.1-48 40.6-48 23.5-2.1 45.3 18.2 45.6 41.6 3.3 23.9-13.3 50.8-38.9 51.8-25.7 3.2-49-19.8-47.3-45.4zm12.3 0.2c-3.2 21.9 21.6 42.8 42.4 32.9 23.9-10.7 25.2-47 7.8-64.1-17.2-15-49.3-2.9-49.5 20.9-0.5 3.4-0.7 6.8-0.7 10.3z" stroke="#000" stroke-width=".025in"/>
 <path id="text432" d="m3265.1 2105.1c-2.2-23.4 16.1-48 40.6-48 23.5-2.1 45.3 18.2 45.6 41.6 3.3 23.9-13.3 50.8-38.9 51.8-25.7 3.2-49-19.8-47.3-45.4zm12.3 0.2c-3.2 21.9 21.6 42.8 42.4 32.9 23.9-10.7 25.2-47 7.8-64.1-17.2-15-49.3-2.9-49.5 20.9-0.5 3.4-0.7 6.8-0.7 10.3z" stroke="#000" stroke-width=".025in"/>
 <path id="text434" d="m4018.8 2447.5c1.1 17-25.2 4.9-36 8.5-21.4 5.2-5.9-18.3 3.5-24 9.7-8.4 24.5-17.5 22.8-32.2-6.2-17.6-28-4.1-31.8 5.4-12.9-9.3 12.2-27.5 23.7-21.5 22.3 2.8 21.9 32 5.2 42.2-5.8 6.3-22.7 16.2-20.6 21.6h33.2z" stroke="#000" stroke-width=".025in"/>
 <g id="g2608" stroke="#000" transform="translate(-14.299 107.24)">
  <path id="circle346" d="m2166.3 1680c1.4 49.7-43.4 94.8-93.1 94.1-47.3 1.3-91.5-38.3-94.7-85.8-4.8-46.3 29.8-92.8 75.8-100.7 45.5-9.4 95.6 19.9 107.9 65 2.7 8.9 4.1 18.1 4.1 27.4z" stroke-width="8" fill="none"/>
  <path id="text436" d="m2087.4 1718.2c-18.6 4.3-8.6-19.2-11-29.6v-41c-4.9 8.6-30.9 18-19.7 2 11.3-1.5 22.3-29.6 31.1-17.6-0.9 28.7-0.1 57.5-0.4 86.2z" stroke-width=".025in"/>
 </g>
 <path id="text438" d="m3286.1 1385.4c21.8 0.7 2.6 27.4-9.5 30-21.9 10-52.1-2.4-56.2-27.4-7.2-23.2 2-55.1 28.2-61.2 18.9-6.2 43.6 4.1 47.9 24.7-16.9 8.3-20.9-24.8-40.8-15.8-18.9 2-26.5 22-25.1 38.7-0.5 15.8 9.7 33.5 27.1 34 13.6 1.3 26.8-9.3 28.4-23z" stroke="#000" stroke-width=".025in"/>
 <path id="text440" d="m3454.1 1373.1c-2.2-23.4 16.1-48 40.6-48 23.5-2.1 45.3 18.2 45.6 41.6 3.3 23.9-13.3 50.8-38.9 51.8-25.7 3.2-49-19.8-47.3-45.4zm12.3 0.2c-3.2 21.9 21.6 42.8 42.4 32.9 23.9-10.7 25.2-47 7.8-64.1-17.2-15-49.3-2.9-49.5 20.9-0.5 3.4-0.7 6.8-0.7 10.3z" stroke="#000" stroke-width=".025in"/>
 <path id="text442" d="m3286.1 1149.4c21.8 0.7 2.6 27.4-9.5 30-21.9 10-52.1-2.4-56.2-27.4-7.2-23.2 2-55.1 28.2-61.2 18.9-6.2 43.6 4.1 47.9 24.7-16.9 8.3-20.9-24.8-40.8-15.8-18.9 2-26.5 22-25.1 38.7-0.5 15.8 9.7 33.5 27.1 34 13.6 1.3 26.8-9.3 28.4-23z" stroke="#000" stroke-width=".025in"/>
 <path id="text444" d="m3454.1 1137.1c-2.2-23.4 16.1-48 40.6-48 23.5-2.1 45.3 18.2 45.6 41.6 3.3 23.9-13.3 50.8-38.9 51.8-25.7 3.2-49-19.8-47.3-45.4zm12.3 0.2c-3.2 21.9 21.6 42.8 42.4 32.9 23.9-10.7 25.2-47 7.8-64.1-17.2-15-49.3-2.9-49.5 20.9-0.5 3.4-0.7 6.8-0.7 10.3z" stroke="#000" stroke-width=".025in"/>
 <path id="text446" d="m3806.1 1149.4c21.8 0.7 2.6 27.4-9.5 30-21.9 10-52.1-2.4-56.2-27.4-7.2-23.2 2-55.1 28.2-61.2 18.9-6.2 43.6 4.1 47.9 24.7-16.9 8.3-20.9-24.8-40.8-15.8-18.9 2-26.5 22-25.1 38.7-0.5 15.8 9.7 33.5 27.1 34 13.6 1.3 26.8-9.3 28.4-23z" stroke="#000" stroke-width=".025in"/>
 <path id="text448" d="m3822.1 1376.4c21.8 0.7 2.6 27.4-9.5 30-21.9 10-52.1-2.4-56.2-27.4-7.2-23.2 2-55.1 28.2-61.2 18.9-6.2 43.6 4.1 47.9 24.7-16.9 8.3-20.9-24.8-40.8-15.8-18.9 2-26.5 22-25.1 38.7-0.5 15.8 9.7 33.5 27.1 34 13.6 1.3 26.8-9.3 28.4-23zm27 31.6v-90.2c18.8-5.1 10.1 17 12 27.7-3.3 18.1 23.9 5.7 35.1 9.3 20.6 5.1 8.6-22.4 11.8-34.7 4.2-7.5 17.6 0.4 11.9 10v77.9c-20.1 4.9-9.3-20.2-11.9-31.4 4.3-20.7-25.6-7.3-38.1-11.1-17-2.6-5.4 23.5-8.8 34.5 2.2 11.7-3.5 7.2-12 8z" stroke="#000" stroke-width=".025in"/>
 <path id="text450" d="m3950.1 1186v-90.2c18.8-5.1 10.1 17 11.9 27.7-3.3 18.1 24 5.7 35.2 9.3 20.6 5.1 8.5-22.4 11.7-34.7 4.2-7.5 17.6 0.4 11.9 10v77.9c-20 4.9-9.3-20.2-11.9-31.4 4.3-20.7-25.5-7.3-38.1-11.1-17-2.6-5.4 23.5-8.8 34.5 2.2 11.7-3.4 7.2-11.9 8z" stroke="#000" stroke-width=".025in"/>
 <path id="text452" d="m4339.1 605.07c-2.2-23.39 16.1-48 40.6-47.99 23.5-2.1 45.3 18.19 45.6 41.65 3.3 23.84-13.3 50.81-38.9 51.79-25.7 3.16-49-19.78-47.3-45.45zm12.3 0.19c-3.2 21.9 21.6 42.81 42.4 32.93 23.9-10.66 25.2-47.04 7.8-64.05-17.2-15-49.3-2.95-49.5 20.86-0.5 3.39-0.7 6.83-0.7 10.26z" stroke="#000" stroke-width=".025in"/>
 <path id="text454" d="m4342.7 910v-90.19c19.7 1.55 41.5-4.09 59.6 5.54 17.3 13.1 8.9 47.02-14 47.19-10.9 4.94-36.8-7.81-33.6 9.96-2.6 11.2 7.8 33.4-12 27.5zm12-47.31c14.8-1.56 38 5.83 44.5-12.48 2.6-23-24.1-21.24-39.5-19.76-10.6-0.45-2.5 24.01-5 32.24z" stroke="#000" stroke-width=".025in"/>
 <path id="text456" d="m4331.1 1117.1c-2.2-23.4 16.1-48 40.6-48 23.5-2.1 45.3 18.2 45.6 41.6 3.3 23.9-13.3 50.8-38.9 51.8-25.7 3.2-49-19.8-47.3-45.4zm12.3 0.2c-3.2 21.9 21.6 42.8 42.4 32.9 23.9-10.7 25.2-47 7.8-64.1-17.2-15-49.3-2.9-49.5 20.9-0.5 3.4-0.7 6.8-0.7 10.3z" stroke="#000" stroke-width=".025in"/>
 <path id="text458" d="m4103.1 866.07c-2.2-23.39 16.1-48 40.6-47.99 23.5-2.1 45.3 18.19 45.6 41.65 3.3 23.84-13.3 50.81-38.9 51.79-25.7 3.16-49-19.78-47.3-45.45zm12.3 0.19c-3.2 21.9 21.6 42.81 42.4 32.93 23.9-10.66 25.2-47.04 7.8-64.05-17.2-15-49.3-2.95-49.5 20.86-0.5 3.39-0.7 6.83-0.7 10.26z" stroke="#000" stroke-width=".025in"/>
 <path id="text460" d="m4560.1 866.07c-2.2-23.39 16.1-48 40.6-47.99 23.5-2.1 45.3 18.19 45.6 41.65 3.3 23.84-13.3 50.81-38.9 51.79-25.7 3.16-49-19.78-47.3-45.45zm12.3 0.19c-3.2 21.9 21.6 42.81 42.4 32.93 23.9-10.66 25.2-47.04 7.8-64.05-17.2-15-49.3-2.95-49.5 20.86-0.5 3.39-0.7 6.83-0.7 10.26z" stroke="#000" stroke-width=".025in"/>
 <path id="text462" d="m4683 795.93c-4.5-20.39 22.8-7.73 34-11.14 5.4 21.03-23.2 7.26-34 11.14z" stroke="#000" stroke-width=".025in"/>
 <path id="text464" d="m4479 567.93c-4.5-20.39 22.8-7.73 34-11.14 5.4 21.03-23.2 7.26-34 11.14z" stroke="#000" stroke-width=".025in"/>
 <path id="text466" d="m3971.8 1455.5c1.1 17-25.2 4.9-36 8.5-21.4 5.2-5.9-18.3 3.5-24 9.7-8.4 24.5-17.5 22.8-32.2-6.2-17.6-28-4.1-31.8 5.4-12.9-9.3 12.2-27.5 23.7-21.5 22.3 2.8 21.9 32 5.2 42.2-5.8 6.3-22.7 16.2-20.6 21.6h33.2z" stroke="#000" stroke-width=".025in"/>
 <path id="text468" d="m3825 865.38c21.8 0.68 2.7 27.45-9.4 30.04-21.9 9.93-52.1-2.46-56.2-27.37-7.3-23.29 1.9-55.17 28.1-61.28 19-6.16 43.6 4.15 47.9 24.77-16.8 8.22-20.9-24.86-40.8-15.83-18.9 1.99-26.5 21.99-25.1 38.66-0.4 15.84 9.8 33.5 27.1 34.02 13.7 1.32 26.9-9.33 28.4-23.01z" stroke="#000" stroke-width=".025in"/>
 <path id="text470" d="m3881 2849.4c21.8 0.7 2.7 27.4-9.4 30-21.9 10-52.1-2.4-56.2-27.4-7.3-23.2 1.9-55.1 28.1-61.2 19-6.2 43.6 4.1 47.9 24.7-16.8 8.3-20.9-24.8-40.8-15.8-18.9 2-26.5 22-25.1 38.7-0.4 15.8 9.8 33.5 27.1 34 13.7 1.3 26.9-9.3 28.4-23z" stroke="#000" stroke-width=".025in"/>
 <path id="text472" d="m3738.7 935.47c1.1 17.01-25.2 4.97-36 8.53-21.4 5.24-5.9-18.34 3.5-24.02 9.7-8.41 24.5-17.51 22.8-32.18-6.2-17.6-28.1-4.1-31.8 5.35-13-9.3 12.1-27.44 23.7-21.47 22.3 2.79 21.8 32.04 5.2 42.22-5.8 6.34-22.7 16.23-20.6 21.57h33.2z" stroke="#000" stroke-width=".025in"/>
 <path id="text474" d="m3611 897v-90.19c18.8-5.09 10.1 17.04 12 27.67-3.3 18.15 23.9 5.72 35.1 9.36 20.6 5.1 8.6-22.44 11.8-34.72 4.1-7.55 17.6 0.33 11.9 9.96v77.92c-20.1 4.92-9.3-20.2-11.9-31.44 4.3-20.7-25.6-7.26-38.1-11.07-17-2.56-5.4 23.5-8.8 34.54 2.1 11.64-3.5 7.2-12 7.97z" stroke="#000" stroke-width=".025in"/>
 <path id="text476" d="m3795.7 2920.5c1.1 17-25.2 4.9-36 8.5-21.4 5.2-5.9-18.3 3.5-24 9.7-8.4 24.5-17.5 22.8-32.2-6.2-17.6-28.1-4.1-31.8 5.4-13-9.3 12.1-27.5 23.7-21.5 22.3 2.8 21.8 32 5.2 42.2-5.8 6.3-22.7 16.2-20.6 21.6h33.2z" stroke="#000" stroke-width=".025in"/>
 <path id="text478" d="m3674 2881v-90.2c18.8-5.1 10.1 17 12 27.7-3.3 18.1 23.9 5.7 35.1 9.3 20.6 5.1 8.6-22.4 11.8-34.7 4.1-7.5 17.6 0.4 11.9 10v77.9c-20.1 4.9-9.3-20.2-11.9-31.4 4.3-20.7-25.6-7.3-38.1-11.1-17-2.6-5.4 23.5-8.8 34.5 2.1 11.7-3.5 7.2-12 8z" stroke="#000" stroke-width=".025in"/>
 <path id="path5382" d="m1087.5 2769.8c-11.9-11 14.9-21 19.7-31 40.8-40.7 81.5-81.5 122.3-122.3 47.4 47.3 94.7 94.7 142 142 47-47.4 94-94.7 141-142 47.3 47.3 94.7 94.6 142 142 47.3-47.4 94.7-94.7 142-142 47.3 47.3 94.7 94.6 142 142 47-47.3 94-94.7 141-142 47.4 47.3 94.7 94.7 142 142 47.3-47.3 94.6-94.7 142-142 47 47.3 94 94.7 141 142 47.3-47.3 94.6-94.7 142-142 47.4 47.3 94.7 94.7 142 142 47.3-47.3 94.6-94.7 142-142 47 47.3 94 94.7 141 142l139.2-139.2c12 11-14.5 20.9-19.3 30.7-40 39.9-79.9 79.9-119.9 119.8-47-47.3-94-94.6-141-142-47.3 47.4-94.7 94.7-142 142-47.3-47.3-94.7-94.6-142-142-47.3 47.4-94.7 94.7-142 142-47-47.3-94-94.6-141-142-47.3 47.4-94.7 94.7-142 142-47.3-47.3-94.7-94.6-142-142-47 47.4-94 94.7-141 142-47.3-47.3-94.7-94.6-142-142-47.3 47.4-94.7 94.7-142 142-47.3-47.3-94.7-94.6-142-142-47 47.4-94 94.7-141 142-47.4-47.3-94.7-94.6-142-142-47.3 47.4-94.7 94.7-142 142z"/>
 <path id="path5384" d="m1037.7 1245.8c-11.9-11 14.9-21 19.7-30.9 40.8-40.8 81.5-81.6 122.3-122.4 47.4 47.3 94.7 94.7 142 142 47-47.4 94-94.7 141-142 47.3 47.3 94.7 94.6 142 142 47.3-47.4 94.7-94.7 142-142 47.3 47.3 94.7 94.6 142 142 47-47.3 94-94.7 141-142 47.4 47.3 94.7 94.7 142 142 47.3-47.3 94.6-94.7 142-142 47 47.3 94 94.7 141 142 47.3-47.3 94.6-94.7 142-142 47.4 47.3 94.7 94.7 142 142 47.3-47.3 94.6-94.7 142-142 47 47.3 94 94.7 141 142l139.2-139.2c12 11-14.5 20.9-19.3 30.7-40 39.9-79.9 79.9-119.9 119.8-47-47.3-94-94.6-141-142-47.3 47.4-94.7 94.7-142 142-47.3-47.3-94.7-94.6-142-142-47.3 47.4-94.7 94.7-142 142-47-47.3-94-94.6-141-142-47.3 47.4-94.7 94.7-142 142-47.3-47.3-94.7-94.6-142-142-47 47.4-94 94.7-141 142-47.3-47.3-94.7-94.6-142-142-47.3 47.4-94.7 94.7-142 142-47.3-47.3-94.7-94.6-142-142-47 47.4-94 94.7-141 142-47.4-47.3-94.7-94.6-142-142-47.3 47.4-94.7 94.7-142 142z"/>
 <path id="path5386" d="m1037 1532.6c-12-11.1 14.9-21.1 19.7-31 40.7-40.8 81.5-81.6 122.3-122.3 47.3 47.2 94.6 94.6 142 141.9 47-47.3 94-94.6 141-141.9 47.3 47.3 94.6 94.6 142 141.9 47.3-47.3 94.6-94.6 142-141.9 47.3 47.3 94.6 94.6 142 141.9 47-47.3 94-94.6 141-141.9 47.3 47.2 94.6 94.6 142 141.9 47.3-47.3 94.6-94.7 142-141.9 47 47.3 94 94.6 141 141.9 47.3-47.3 94.6-94.7 142-141.9 47.3 47.2 94.6 94.6 142 141.9 47.3-47.3 94.6-94.7 142-141.9 47 47.3 94 94.6 141 141.9 46.4-46.4 92.8-92.7 139.1-139.1 12.1 10.9-14.5 20.8-19.3 30.6-39.9 40-79.9 79.9-119.8 119.9-47-47.4-94-94.7-141-142-47.4 47.3-94.7 94.6-142 142l-142-142c-47.4 47.3-94.7 94.6-142 142-47-47.4-94-94.7-141-142-47.4 47.3-94.7 94.6-142 142l-142-142c-47 47.3-94 94.6-141 142l-142-142c-47.4 47.3-94.7 94.6-142 142l-142-142c-47 47.3-94 94.7-141 142-47.4-47.3-94.7-94.7-142-142-47.4 47.3-94.7 94.6-142 142z"/>
 <path id="path5393" d="m1897 4305.2c-15.7-15.6-31.4-31.3-47-47-15.7 15.7-31.4 31.3-47 46.9-11.6-10.4 12.7-19.7 17.6-29 9.8-9.7 19.6-19.5 29.4-29.2 15.7 15.6 31.3 31.3 47 46.9 15.6-15.6 31.2-31.3 46.9-46.9 16 15.7 32 31.3 48 47 15.7-15.7 31.4-31.4 47.1-47 15.7 15.6 31.3 31.3 47 46.9 15.6-15.6 31.3-31.3 47-46.9 15.7 15.6 31.3 31.3 47 47 16-15.7 32-31.3 48-47 15.7 15.6 31.3 31.3 47 46.9 15.6-15.6 31.3-31.3 47-46.9 15.7 15.6 31.3 31.3 47 47 16-15.7 32-31.3 48-47 15.7 15.6 31.3 31.3 47 46.9l44.1-44.1c11.8 9.9-11.8 19.1-16.6 28-9.2 9.1-18.3 18.3-27.5 27.5-15.7-15.7-31.4-31.4-47.1-47-16 15.6-32 31.3-48 46.9-15.7-15.6-31.3-31.2-46.9-46.9-15.7 15.7-31.3 31.4-47 47-15.7-15.7-31.4-31.4-47.1-47-16 15.6-32 31.3-48 46.9-15.7-15.6-31.3-31.2-46.9-46.9-15.7 15.7-31.3 31.4-47 47-15.7-15.6-31.4-31.3-47-47-15.7 15.7-31.3 31.3-47 46.9-16-15.6-32-31.3-48-46.9-15.7 15.6-31.3 31.3-47 47z"/>
 <path id="path5395" d="m1894.4 4118c-15.7-15.6-31.3-31.3-47-47-15.6 15.7-31.3 31.3-46.9 47-11.6-10.5 12.7-19.8 17.6-29 9.8-9.8 19.5-19.6 29.3-29.3 15.7 15.6 31.4 31.3 47 47 15.7-15.7 31.3-31.4 47-47 16 15.7 32 31.3 48 47 15.7-15.7 31.3-31.4 47-47 15.7 15.6 31.4 31.3 47 47 15.7-15.7 31.3-31.4 47-47 15.7 15.6 31.4 31.3 47.1 47 16-15.7 32-31.3 48-47 15.6 15.6 31.3 31.3 46.9 47 15.7-15.7 31.3-31.4 47-47 15.7 15.6 31.4 31.3 47.1 47 16-15.7 32-31.3 48-47 15.6 15.6 31.3 31.3 46.9 47l44.2-44.2c11.8 10-11.8 19.1-16.6 28-9.2 9.2-18.4 18.4-27.6 27.5-15.7-15.6-31.3-31.3-47-47-16 15.7-32 31.3-48 47-15.7-15.6-31.3-31.3-47-47-15.6 15.7-31.3 31.4-47 47-15.7-15.6-31.3-31.3-47-47-16 15.7-32 31.3-48 47-15.7-15.6-31.3-31.3-47-47-15.6 15.7-31.3 31.4-47 47-15.7-15.6-31.3-31.3-47-47-15.6 15.7-31.3 31.4-46.9 47-16-15.7-32-31.3-48-47-15.7 15.7-31.4 31.4-47.1 47z"/>
 <path id="path5397" d="m1896 3976.4c-15.7-15.6-31.3-31.3-47-47l-47 47c-11.5-10.5 12.7-19.8 17.7-29 9.7-9.8 19.5-19.6 29.3-29.3 15.7 15.6 31.3 31.3 47 47 15.7-15.7 31.3-31.4 47-47 16 15.7 32 31.3 48 47 15.7-15.7 31.3-31.4 47-47 15.7 15.6 31.3 31.3 47 47 15.7-15.7 31.3-31.4 47-47 15.7 15.6 31.4 31.3 47 47 16-15.7 32-31.3 48-47 15.7 15.6 31.3 31.3 47 47 15.7-15.7 31.3-31.4 47-47 15.7 15.6 31.4 31.3 47 47 16-15.7 32-31.3 48-47 15.7 15.6 31.3 31.3 47 47 14.7-14.8 29.4-29.5 44.2-44.2 11.7 9.9-11.8 19.1-16.6 28-9.2 9.2-18.4 18.3-27.6 27.5-15.7-15.6-31.3-31.3-47-47-16 15.7-32 31.3-48 47-15.7-15.6-31.3-31.3-47-47-15.7 15.7-31.3 31.4-47 47-15.7-15.6-31.3-31.3-47-47-16 15.7-32 31.3-48 47-15.7-15.6-31.3-31.3-47-47-15.7 15.7-31.3 31.4-47 47-15.7-15.6-31.3-31.3-47-47-15.7 15.7-31.3 31.4-47 47-16-15.7-32-31.3-48-47-15.6 15.7-31.3 31.4-47 47z"/>
 <path id="path5399" d="m1895 3786c-15.7-15.6-31.3-31.3-47-46.9-15.6 15.6-31.3 31.2-46.9 46.9-11.6-10.5 12.6-19.8 17.6-29l29.3-29.3c15.7 15.6 31.4 31.3 47 47l47-47c16 15.7 32 31.4 48 47 15.7-15.7 31.3-31.4 47-47 15.7 15.6 31.4 31.3 47 47 15.7-15.7 31.3-31.4 47-47 15.7 15.6 31.4 31.3 47.1 47 16-15.6 32-31.3 48-47 15.6 15.7 31.3 31.3 46.9 47 15.7-15.7 31.3-31.4 47-47 15.7 15.6 31.4 31.3 47.1 47 16-15.6 32-31.3 48-47 15.6 15.7 31.3 31.3 46.9 47l44.2-44.2c11.8 10-11.8 19.1-16.6 28-9.2 9.2-18.4 18.4-27.6 27.5-15.7-15.6-31.3-31.3-47-47-16 15.7-32 31.3-48 47-15.7-15.6-31.3-31.3-47-46.9-15.6 15.6-31.3 31.3-47 46.9-15.7-15.6-31.3-31.3-47-47-16 15.7-32 31.3-48 47-15.7-15.6-31.3-31.3-47-46.9-15.6 15.6-31.3 31.3-47 46.9-15.7-15.6-31.3-31.3-47-46.9l-46.9 46.9c-16-15.7-32-31.3-48-47-15.7 15.7-31.4 31.4-47.1 47z"/>
 <path id="path5401" d="m1896.6 3644.4c-15.7-15.6-31.3-31.3-47-47l-47 47c-11.5-10.5 12.7-19.8 17.7-29 9.7-9.8 19.5-19.6 29.3-29.3 15.7 15.6 31.3 31.3 47 47 15.7-15.7 31.3-31.4 47-47 16 15.7 32 31.3 48 47 15.7-15.7 31.3-31.4 47-47 15.7 15.6 31.3 31.3 47 47 15.7-15.7 31.3-31.4 47-47 15.7 15.6 31.4 31.3 47 47 16-15.7 32-31.3 48-47 15.7 15.6 31.3 31.3 47 47 15.7-15.7 31.3-31.4 47-47 15.7 15.6 31.4 31.3 47 47 16-15.7 32-31.3 48-47 15.7 15.6 31.3 31.3 47 47 14.7-14.8 29.4-29.5 44.2-44.2 11.7 10-11.8 19.1-16.6 28-9.2 9.2-18.4 18.4-27.6 27.5-15.7-15.6-31.3-31.3-47-47-16 15.7-32 31.3-48 47-15.7-15.6-31.3-31.3-47-47-15.7 15.7-31.3 31.4-47 47-15.7-15.6-31.3-31.3-47-47-16 15.7-32 31.3-48 47-15.7-15.6-31.3-31.3-47-47-15.7 15.7-31.3 31.4-47 47-15.7-15.6-31.3-31.3-47-47-15.7 15.7-31.3 31.4-47 47-16-15.7-32-31.3-48-47-15.6 15.7-31.3 31.4-47 47z"/>
 <path id="path5403" d="m1544.2 4388.1c15.7 15.6 31.3 31.3 47 46.9 15.7-15.6 31.3-31.3 47-46.9 11.5 10.5-12.7 19.7-17.7 29-9.7 9.8-19.5 19.5-29.3 29.3l-47-47c-15.6 15.6-31.3 31.3-47 46.9-16-15.6-32-31.3-48-46.9l-47 47-47-47-47 47c-15.7-15.7-31.3-31.4-47-47-16 15.6-32 31.3-48 46.9-15.7-15.6-31.3-31.3-47-46.9l-47 47c-15.7-15.7-31.3-31.4-47-47-16 15.6-32 31.3-48 46.9-15.7-15.6-31.32-31.3-46.98-46.9-14.72 14.7-29.44 29.4-44.16 44.2-11.77-10 11.8-19.1 16.61-28 9.17-9.2 18.34-18.4 27.55-27.5 15.7 15.6 31.38 31.3 46.98 47 16-15.7 32-31.4 48-47 15.7 15.6 31.4 31.3 47 46.9 15.7-15.6 31.3-31.3 47-46.9 15.7 15.6 31.4 31.3 47 47 16-15.7 32-31.4 48-47 15.7 15.6 31.4 31.3 47 46.9 15.7-15.6 31.3-31.3 47-46.9 15.7 15.6 31.3 31.3 47 46.9 15.7-15.6 31.3-31.3 47-46.9 16 15.6 32 31.3 48 47 15.7-15.7 31.3-31.4 47-47z"/>
 <path id="path5405" d="m1542.6 4246.4l47 47c15.7-15.6 31.4-31.3 47-46.9 11.6 10.5-12.7 19.7-17.6 29-9.8 9.7-19.6 19.5-29.4 29.3-15.7-15.7-31.3-31.4-47-47-15.6 15.6-31.2 31.3-46.9 46.9-16-15.6-32-31.3-48-46.9-15.7 15.6-31.4 31.3-47.1 47-15.7-15.7-31.3-31.4-47-47l-47 47c-15.7-15.7-31.3-31.4-47-47-16 15.6-32 31.3-48 46.9-15.7-15.6-31.3-31.3-47-46.9l-47 47c-15.7-15.7-31.3-31.4-47-47-16 15.6-32 31.3-48 46.9-15.7-15.6-31.3-31.3-46.96-46.9l-44.16 44.1c-11.77-9.9 11.81-19.1 16.61-27.9 9.18-9.2 18.35-18.4 27.55-27.6 15.71 15.7 31.36 31.4 47.06 47 16-15.6 32-31.3 48-46.9 15.7 15.6 31.3 31.3 46.9 46.9 15.7-15.6 31.3-31.3 47-47 15.7 15.7 31.4 31.4 47.1 47 16-15.6 32-31.3 48-46.9 15.7 15.6 31.3 31.3 46.9 46.9 15.7-15.6 31.3-31.3 47-47l47 47c15.7-15.6 31.3-31.3 47-46.9 16 15.6 32 31.3 48 46.9 15.7-15.6 31.3-31.3 47-47z"/>
 <path id="path5407" d="m1545 4056.2l47 47c15.7-15.6 31.3-31.3 47-46.9 11.6 10.5-12.7 19.7-17.7 29-9.7 9.7-19.5 19.5-29.3 29.2-15.7-15.6-31.3-31.3-47-46.9l-46.9 46.9c-16-15.6-32-31.3-48-47-15.7 15.7-31.4 31.4-47.1 47-15.7-15.6-31.3-31.3-47-46.9-15.6 15.6-31.3 31.3-47 46.9-15.7-15.6-31.3-31.3-47-47-16 15.7-32 31.4-48 47-15.7-15.6-31.3-31.3-47-46.9-15.6 15.6-31.3 31.3-47 46.9-15.7-15.6-31.3-31.3-47-47-16 15.7-32 31.4-48 47-15.7-15.6-31.31-31.3-46.98-46.9-14.71 14.7-29.43 29.4-44.15 44.1-11.77-9.9 11.8-19.1 16.6-27.9 9.18-9.2 18.35-18.4 27.55-27.6 15.71 15.7 31.38 31.4 47.08 47 16-15.6 32-31.3 48-46.9l46.9 46.9c15.7-15.6 31.3-31.3 47-47 15.7 15.7 31.4 31.4 47.1 47 16-15.6 32-31.3 48-46.9l46.9 46.9c15.7-15.6 31.3-31.3 47-47l47 47c15.7-15.6 31.3-31.3 47-46.9 16 15.6 32 31.3 48 46.9 15.7-15.6 31.3-31.3 47-47z"/>
 <path id="path5409" d="m1543.4 3914.6c15.7 15.6 31.4 31.3 47 47 15.7-15.7 31.4-31.3 47-46.9 11.6 10.4-12.7 19.7-17.6 29-9.8 9.7-19.6 19.5-29.4 29.2-15.6-15.6-31.3-31.3-47-46.9-15.6 15.6-31.2 31.3-46.9 46.9-16-15.7-32-31.3-48-47-15.7 15.7-31.3 31.4-47.1 47-15.6-15.6-31.3-31.3-47-46.9-15.6 15.6-31.3 31.3-47 46.9-15.7-15.6-31.3-31.3-47-47-16 15.7-32 31.3-48 47-15.7-15.6-31.3-31.3-47-46.9-15.6 15.6-31.3 31.3-47 46.9-15.7-15.6-31.3-31.3-47-47-16 15.7-32 31.3-48 47-15.7-15.6-31.29-31.3-46.95-46.9l-44.16 44.1c-11.77-9.9 11.8-19.1 16.61-28 9.17-9.1 18.35-18.3 27.55-27.5 15.71 15.7 31.35 31.4 47.05 47 16-15.6 32-31.3 48-46.9 15.7 15.6 31.3 31.2 46.9 46.9 15.7-15.7 31.3-31.4 47-47 15.8 15.7 31.4 31.4 47.1 47 16-15.6 32-31.3 48-46.9 15.7 15.6 31.3 31.2 46.9 46.9l47-47c15.7 15.6 31.4 31.3 47 47 15.7-15.7 31.3-31.3 47-46.9 16 15.6 32 31.3 48 46.9 15.7-15.6 31.3-31.3 47-47z"/>
 <path id="path5411" d="m1544.1 3726.4c15.7 15.6 31.3 31.3 47 46.9l46.9-46.9c11.6 10.5-12.7 19.7-17.6 29l-29.3 29.3c-15.7-15.6-31.4-31.3-47-47-15.7 15.7-31.3 31.3-47 46.9-16-15.6-32-31.3-48-46.9-15.7 15.6-31.3 31.3-47 47-15.7-15.6-31.4-31.3-47-47-15.7 15.7-31.3 31.4-47 47-15.7-15.7-31.4-31.4-47.1-47-16 15.6-32 31.3-48 46.9-15.7-15.6-31.3-31.2-46.9-46.9-15.7 15.7-31.3 31.4-47 47-15.7-15.7-31.4-31.4-47.1-47-16 15.6-32 31.3-48 46.9-15.7-15.6-31.28-31.2-46.94-46.9-14.72 14.7-29.44 29.4-44.16 44.2-11.77-10 11.81-19.1 16.61-28 9.18-9.2 18.35-18.4 27.55-27.5 15.71 15.6 31.34 31.3 47.04 47 16-15.7 32-31.3 48-47 15.7 15.6 31.3 31.3 47 46.9 15.6-15.6 31.3-31.3 47-46.9 15.7 15.6 31.3 31.3 47 47 16-15.7 32-31.3 48-47 15.7 15.6 31.3 31.3 47 46.9 15.6-15.6 31.3-31.3 47-46.9 15.7 15.6 31.3 31.3 47 46.9 15.6-15.6 31.2-31.3 46.9-46.9 16 15.7 32 31.3 48 47 15.7-15.7 31.4-31.4 47.1-47z"/>
 <path id="path5413" d="m1542.5 3584.8c15.7 15.6 31.3 31.3 47 46.9 15.6-15.6 31.3-31.3 47-46.9 11.5 10.5-12.7 19.7-17.7 29l-29.3 29.3-47-47c-15.7 15.6-31.3 31.3-47 46.9-16-15.6-32-31.3-48-46.9-15.7 15.6-31.3 31.3-47 47l-47-47-47 47-47-47c-16 15.6-32 31.3-48 46.9-15.7-15.6-31.4-31.3-47-46.9-15.7 15.6-31.3 31.3-47 47l-47-47c-16 15.6-32 31.3-48 46.9-15.7-15.6-31.35-31.3-47.02-46.9-14.71 14.7-29.43 29.4-44.15 44.2-11.77-10 11.8-19.1 16.6-28 9.18-9.2 18.35-18.4 27.55-27.5 15.71 15.6 31.32 31.3 47.02 47 16-15.7 32-31.4 48-47 15.7 15.6 31.3 31.3 47 46.9 15.7-15.6 31.3-31.3 47-46.9 15.7 15.6 31.3 31.3 47 47 16-15.7 32-31.4 48-47 15.7 15.6 31.3 31.3 47 46.9 15.7-15.6 31.3-31.3 47-46.9 15.7 15.6 31.3 31.3 47 46.9 15.6-15.6 31.3-31.3 47-46.9 16 15.6 32 31.3 48 47 15.6-15.7 31.3-31.4 47-47z"/>
 <path id="polyline5419" d="m3930.5 4250.7v-47" stroke="#000" stroke-width="8"/>
 <path id="polyline5421" d="m4119.5 4250.7v-47" stroke="#000" stroke-width="8"/>
 <path id="polyline5423" d="m4308.5 4250.7v-47" stroke="#000" stroke-width="8" fill="none"/>
 <path id="polyline5425" d="m4497.5 4250.7v-47" stroke="#000" stroke-width="8"/>
 <path id="polyline5427" d="m3222.6 4341.7v-47" stroke="#000" stroke-width="8"/>
 <path id="polyline5429" d="m3411.6 4341.7v-47" stroke="#000" stroke-width="8"/>
 <path id="polyline5431" d="m3600.6 4341.7v-47" stroke="#000" stroke-width="8"/>
 <path id="polyline5433" d="m3789.6 4341.7v-47" stroke="#000" stroke-width="8"/>
 <path id="path5435" d="m3741.9 4242.3c15.7 15.6 31.3 31.3 47 47 15.6-15.7 31.3-31.3 46.9-47 11.6 10.5-12.7 19.8-17.6 29-9.8 9.8-19.6 19.5-29.3 29.3-15.7-15.6-31.4-31.3-47-47-15.7 15.7-31.3 31.4-47 47-16-15.7-32-31.3-48-47-15.7 15.7-31.3 31.4-47 47-15.7-15.6-31.4-31.3-47-47-15.7 15.7-31.3 31.4-47 47-15.7-15.6-31.4-31.3-47.1-47-16 15.7-32 31.3-48 47-15.7-15.6-31.3-31.3-46.9-47-15.7 15.7-31.3 31.4-47 47-15.7-15.6-31.4-31.3-47.1-47-16 15.7-32 31.3-48 47-15.7-15.6-31.3-31.3-46.9-47l-44.2 44.2c-11.8-10 11.8-19.1 16.6-28 9.2-9.2 18.4-18.4 27.6-27.5 15.7 15.6 31.3 31.3 47 47 16-15.7 32-31.3 48-47 15.7 15.6 31.3 31.3 47 47 15.6-15.7 31.3-31.4 47-47 15.7 15.6 31.3 31.3 47 47 16-15.7 32-31.3 48-47 15.7 15.6 31.3 31.3 47 47 15.6-15.7 31.3-31.4 47-47 15.7 15.6 31.3 31.3 47 47 15.6-15.7 31.2-31.4 46.9-47 16 15.7 32 31.3 48 47 15.7-15.7 31.4-31.4 47.1-47z"/>
 <path id="path5437" d="m3977.8 4301c-15.7-15.7-31.3-31.4-47-47-15.7 15.6-31.3 31.3-47 46.9-17.5-17.7-35.9-34.6-53.8-52 13.1-11.5 23.1 15.7 34.3 20.9 10.2 8.6 20.5 27.3 30.3 9 12.1-12 24.1-24.1 36.2-36.1 15.7 15.6 31.3 31.3 47 46.9 15.7-15.6 31.3-31.3 47-46.9 16 15.6 32 31.3 48 47 15.7-15.7 31.3-31.4 47-47 15.7 15.6 31.3 31.3 47 46.9 15.7-15.6 31.3-31.3 47-46.9 15.7 15.6 31.3 31.3 47 47 16-15.7 32-31.4 48-47 15.7 15.6 31.3 31.3 47 46.9 15.7-15.6 31.3-31.3 47-46.9 15.7 15.6 31.3 31.3 47 47 16-15.7 32-31.4 48-47 15.7 15.6 31.3 31.3 47 46.9 14.7-14.7 29.4-29.4 44.2-44.1 11.7 9.9-11.8 19.1-16.7 27.9-9.1 9.2-18.3 18.4-27.5 27.6-15.7-15.7-31.3-31.4-47-47-16 15.6-32 31.3-48 46.9-15.7-15.6-31.3-31.3-47-46.9-15.7 15.6-31.3 31.3-47 47-15.7-15.7-31.3-31.4-47-47-16 15.6-32 31.3-48 46.9-15.7-15.6-31.3-31.3-47-46.9-15.7 15.6-31.3 31.3-47 47-15.7-15.7-31.3-31.4-47-47-15.7 15.6-31.3 31.3-47 46.9-16-15.6-32-31.3-48-46.9-15.7 15.6-31.3 31.3-47 47z"/>
 <path id="polyline5551" d="m3929.9 4397.7v-47" stroke="#000" stroke-width="8"/>
 <path id="polyline5553" d="m4118.9 4397.7v-47" stroke="#000" stroke-width="8"/>
 <path id="polyline5555" d="m4307.9 4397.7v-47" stroke="#000" stroke-width="8" fill="none"/>
 <path id="polyline5557" d="m4496.9 4397.7v-47" stroke="#000" stroke-width="8"/>
 <path id="polyline5559" d="m3222 4488.7v-47" stroke="#000" stroke-width="8"/>
 <path id="polyline5561" d="m3411 4488.7v-47" stroke="#000" stroke-width="8"/>
 <path id="polyline5563" d="m3600 4488.7v-47" stroke="#000" stroke-width="8"/>
 <path id="polyline5565" d="m3789 4488.7v-47" stroke="#000" stroke-width="8"/>
 <path id="path5567" d="m3741.3 4389.3l47 47c15.6-15.6 31.3-31.3 47-46.9 11.5 10.5-12.7 19.7-17.7 29-9.8 9.7-19.5 19.5-29.3 29.2-15.7-15.6-31.3-31.3-47-46.9-15.7 15.6-31.3 31.3-47 46.9-16-15.6-32-31.3-48-47-15.7 15.7-31.3 31.4-47 47-15.7-15.6-31.3-31.3-47-46.9-15.7 15.6-31.3 31.3-47 46.9-15.7-15.6-31.4-31.3-47-47-16 15.7-32 31.4-48 47-15.7-15.6-31.4-31.3-47-46.9-15.7 15.6-31.3 31.3-47 46.9-15.7-15.6-31.4-31.3-47-47-16 15.7-32 31.4-48 47-15.7-15.6-31.4-31.3-47-46.9-14.7 14.7-29.5 29.4-44.2 44.1-11.7-9.9 11.8-19.1 16.6-28 9.2-9.1 18.4-18.3 27.6-27.5 15.7 15.7 31.3 31.4 47 47 16-15.6 32-31.3 48-46.9 15.7 15.6 31.3 31.3 47 46.9l47-47c15.7 15.7 31.3 31.4 47 47 16-15.6 32-31.3 48-46.9 15.7 15.6 31.3 31.3 47 46.9l47-47 47 47c15.6-15.6 31.3-31.3 47-46.9 16 15.6 32 31.3 48 46.9l47-47z"/>
 <path id="path5569" d="m3977.2 4448c-15.7-15.6-31.3-31.3-47-47-15.6 15.7-31.3 31.3-47 47-17.5-17.8-35.9-34.7-53.7-52.1 13-11.5 23 15.8 34.2 20.9 10.2 8.7 20.5 27.3 30.3 9 12.1-12 24.2-24.1 36.2-36.1 15.7 15.6 31.3 31.3 47 47 15.7-15.7 31.3-31.4 47-47 16 15.7 32 31.3 48 47 15.7-15.7 31.3-31.4 47-47 15.7 15.6 31.3 31.3 47 47 15.7-15.7 31.3-31.4 47-47 15.7 15.6 31.4 31.3 47 47 16.1-15.7 32-31.3 48-47 15.7 15.6 31.4 31.3 47 47 15.7-15.7 31.3-31.4 47-47 15.7 15.6 31.4 31.3 47 47 16.1-15.7 32-31.3 48-47 15.7 15.6 31.4 31.3 47 47 14.7-14.8 29.5-29.5 44.2-44.2 11.7 10-11.8 19.1-16.6 28-9.2 9.2-18.4 18.4-27.6 27.5-15.7-15.6-31.3-31.3-47-47-16 15.7-32 31.3-48 47-15.7-15.6-31.3-31.3-47-47-15.7 15.7-31.3 31.4-47 47-15.7-15.6-31.3-31.3-47-47-16 15.7-32 31.3-48 47-15.7-15.6-31.3-31.3-47-47-15.7 15.7-31.3 31.4-47 47-15.7-15.6-31.3-31.3-47-47-15.6 15.7-31.3 31.4-47 47-16-15.7-32-31.3-48-47-15.6 15.7-31.3 31.4-47 47z"/>
 <path id="polygon5573" d="m3076.8 3895.6v250c19.5-9.2 38.6-20.5 51.7-38 10.6-10.3 17.9-23 22-37.1 8.4-20.2 11.3-42.6 8.9-64.2-3.5-19.3-7.9-39.2-17.4-56.3-14.7-20.9-32.8-39.8-56.1-50.9-2.2-0.3-8.5-5.6-9.1-3.5z" stroke="#ff0" stroke-width="8" fill="#ff0"/>
 <path id="polygon5575" d="m2982.8 3895.6v250c-17.2-9.2-36.4-17-48-33.6-12.4-12.3-21.8-26.9-26.8-43.8-9.1-17.8-9.1-38-8.7-57.5 1.2-20.7 9.3-40.4 17-59.4 13.9-21.3 32.8-39.6 55.3-51.5 2.9-0.6 10-6 11.2-4.2z" stroke="#0f0" stroke-width="8" fill="#0f0"/>
 <path id="polygon5577" d="m4649 3895.6v250c-19.4-9.2-38.6-20.5-51.7-38-10.6-10.3-17.9-23-22-37.1-8.4-20.2-11.2-42.6-8.9-64.2 3.7-19.6 7.9-40.1 18.1-57.3 16.6-22.4 37.2-43.2 63.5-53.6l1 0.2z" stroke="#ff0" stroke-width="8" fill="#ff0"/>
 <path id="polygon5579" d="m4743 3895.6v250c17.3-9.2 36.4-17 48-33.6 12.5-12.3 21.8-26.9 26.8-43.8 9.1-17.8 9.1-38 8.7-57.5-1.2-20.7-9.3-40.4-17-59.4-13.9-21.3-32.8-39.6-55.3-51.5-2.9-0.6-10-6-11.2-4.2z" stroke="#0f0" stroke-width="8" fill="#0f0"/>
 <path id="polygon5581" d="m2992.8 3889.6v260c15.7 8.5 33.2 4 50.1 6.7 12.2-3.4 30.5-4 24.9-21.7v-243c-20.6-10-43.8-7.4-65.7-4.9-3.7-0.8-6.4 0.8-9.3 2.9z" stroke="#f00" stroke-width="8" fill="#f00"/>
 <path id="polygon5583" d="m4733 3889.6v260c-15.6 8.5-33.2 4-50.1 6.7-12.2-3.4-30.5-4-24.9-21.7v-243c20.6-10 43.8-7.4 65.7-4.9 3.7-0.8 6.4 0.8 9.3 2.9z" stroke="#f00" stroke-width="8" fill="#f00"/>
 <path id="polygon5627" d="m3076.8 4226.6v250c19.5-9.2 38.6-20.4 51.7-38 10.6-10.3 17.9-23 22-37.1 8.4-20.2 11.3-42.6 8.9-64.2-3.5-19.3-7.9-39.2-17.4-56.3-14.7-20.9-32.8-39.8-56.1-50.8-2.2-0.4-8.5-5.7-9.1-3.6z" stroke="#ff0" stroke-width="8" fill="#ff0"/>
 <path id="polygon5629" d="m2982.8 4226.6v250c-17.2-9.2-36.4-17-48-33.5-12.4-12.4-21.8-27-26.8-43.8-9.1-17.8-9.1-38-8.7-57.5 1.2-20.8 9.3-40.5 17-59.5 13.9-21.3 32.8-39.6 55.3-51.5 2.9-0.6 10-6 11.2-4.2z" stroke="#0f0" stroke-width="8" fill="#0f0"/>
 <path id="polygon5631" d="m4649 4226.6v250c-19.4-9.2-38.6-20.4-51.7-38-10.6-10.3-17.9-23-22-37.1-8.4-20.2-11.2-42.6-8.9-64.2 3.7-19.6 7.9-40 18.1-57.3 16.6-22.4 37.2-43.1 63.5-53.5l1 0.1z" stroke="#ff0" stroke-width="8" fill="#ff0"/>
 <path id="polygon5633" d="m4743 4226.6v250c17.3-9.2 36.4-17 48-33.5 12.5-12.4 21.8-27 26.8-43.8 9.1-17.8 9.1-38 8.7-57.5-1.2-20.8-9.3-40.5-17-59.5-13.9-21.3-32.8-39.6-55.3-51.5-2.9-0.6-10-6-11.2-4.2z" stroke="#0f0" stroke-width="8" fill="#0f0"/>
 <path id="polygon5635" d="m2992.8 4220.6v260c15.7 8.5 33.2 4 50.1 6.7 12.2-3.4 30.5-4 24.9-21.7v-243c-20.6-10-43.8-7.4-65.7-4.9-3.7-0.8-6.4 0.8-9.3 2.9z" stroke="#f00" stroke-width="8" fill="#f00"/>
 <path id="polygon5637" d="m4733 4220.6v260c-15.6 8.5-33.2 4-50.1 6.7-12.2-3.4-30.5-4-24.9-21.7v-243c20.6-10 43.8-7.4 65.7-4.9 3.7-0.8 6.4 0.8 9.3 2.9z" stroke="#f00" stroke-width="8" fill="#f00"/>
 <metadata>
  <rdf:RDF>
   <cc:Work>
    <dc:format>image/svg+xml</dc:format>
    <dc:type rdf:resource="http://purl.org/dc/dcmitype/StillImage"/>
    <cc:license rdf:resource="http://creativecommons.org/licenses/publicdomain/"/>
    <dc:publisher>
     <cc:Agent rdf:about="http://openclipart.org/">
      <dc:title>Openclipart</dc:title>
     </cc:Agent>
    </dc:publisher>
   </cc:Work>
   <cc:License rdf:about="http://creativecommons.org/licenses/publicdomain/">
    <cc:permits rdf:resource="http://creativecommons.org/ns#Reproduction"/>
    <cc:permits rdf:resource="http://creativecommons.org/ns#Distribution"/>
    <cc:permits rdf:resource="http://creativecommons.org/ns#DerivativeWorks"/>
   </cc:License>
  </rdf:RDF>
 </metadata>
</svg>
