<?xml version="1.0"?>
<svg xmlns:rdf="http://www.w3.org/1999/02/22-rdf-syntax-ns#" xmlns="http://www.w3.org/2000/svg" xmlns:cc="http://creativecommons.org/ns#" xmlns:xlink="http://www.w3.org/1999/xlink" xmlns:dc="http://purl.org/dc/elements/1.1/" id="svg1901" viewBox="0 0 603.66 2710.1" version="1.0">
 <defs id="defs1903">
  <linearGradient id="linearGradient3384">
   <stop id="stop3386" stop-color="#7171d6" offset="0"/>
   <stop id="stop3388" stop-color="#5d5db7" stop-opacity="0" offset="1"/>
  </linearGradient>
  <linearGradient id="linearGradient3390" x1="263.17" xlink:href="#linearGradient3384" gradientUnits="userSpaceOnUse" y1="1984.2" gradientTransform="translate(-36.484,-96.918)" x2="354.03" y2="1837.2"/>
  <linearGradient id="linearGradient3395" x1="261.65" xlink:href="#linearGradient3384" gradientUnits="userSpaceOnUse" y1="1985.2" gradientTransform="translate(56.373,-136.92)" x2="355.55" y2="1836.7"/>
  <linearGradient id="linearGradient3399" x1="261.65" xlink:href="#linearGradient3384" gradientUnits="userSpaceOnUse" y1="1985.2" gradientTransform="translate(76.373,-78.347)" x2="319.12" y2="1880.3"/>
  <filter id="filter3459" height="1.268" width="1.3113" y="-.13398" x="-.15564" color-interpolation-filters="sRGB">
   <feGaussianBlur id="feGaussianBlur3461" stdDeviation="15.471427"/>
  </filter>
  <linearGradient id="linearGradient3511" y2="2146.1" gradientUnits="userSpaceOnUse" y1="2087.7" x2="106.39" x1="72.495">
   <stop id="stop3507" stop-color="#c8c8c8" offset="0"/>
   <stop id="stop3509" stop-color="#838383" offset="1"/>
  </linearGradient>
  <linearGradient id="linearGradient3528" y2="2602.3" gradientUnits="userSpaceOnUse" y1="-95.193" x2="226.66" x1="248.88">
   <stop id="stop3524" offset="0"/>
   <stop id="stop3531" stop-color="#28285f" offset=".81481"/>
   <stop id="stop3526" stop-color="#5050bf" offset="1"/>
  </linearGradient>
  <radialGradient id="radialGradient3754" gradientUnits="userSpaceOnUse" cy="869.56" cx="226.48" gradientTransform="matrix(1 0 0 .58555 0 360.39)" r="17.239">
   <stop id="stop3750" stop-color="#ffffe9" offset="0"/>
   <stop id="stop3752" offset="1"/>
  </radialGradient>
  <filter id="filter3763" height="1.4194" width="1.2803" y="-.20971" x="-.14013" color-interpolation-filters="sRGB">
   <feGaussianBlur id="feGaussianBlur3765" stdDeviation="12.401201"/>
  </filter>
  <linearGradient id="linearGradient3819" x1="439.29" gradientUnits="userSpaceOnUse" y1="2367.6" gradientTransform="matrix(.87724 0 0 .87541 -106.86 310.73)" x2="443.68" y2="2361.2">
   <stop id="stop3815" offset="0"/>
   <stop id="stop3817" stop-color="#fff" offset="1"/>
  </linearGradient>
  <linearGradient id="linearGradient3834" y2="2378.2" gradientUnits="userSpaceOnUse" y1="2382.5" x2="390.73" x1="292.33">
   <stop id="stop3828" stop-color="#fff" stop-opacity="0" offset="0"/>
   <stop id="stop3836" stop-color="#fff" offset=".5"/>
   <stop id="stop3830" stop-color="#fff" stop-opacity="0" offset="1"/>
  </linearGradient>
  <filter id="filter3877" height="1.6357" width="1.2511" y="-.31785" x="-.12555" color-interpolation-filters="sRGB">
   <feGaussianBlur id="feGaussianBlur3879" stdDeviation="9.6803458"/>
  </filter>
 </defs>
 <g id="layer1" transform="translate(57.79,107.78)">
  <rect id="rect3482" height="2697.5" width="593.97" y="-95.193" x="-48.101" fill="url(#linearGradient3528)"/>
  <path id="path3840" filter="url(#filter3877)" style="color:#000000" fill="#fff" d="m245.79 2344.6c-0.49 0.1-0.97 0.1-1.46 0.2-0.04 0-0.06-0.1-0.1-0.1l-0.13 0.1c-2.83 0.4-5.6 1.3-8.19 3-1.11 7.8 2.04 15.5 9 21.8l24.22 17.1-21.94 5.9-1.01-1.1-0.36 0.3c-0.55-0.4-1.23-0.6-1.95-0.6-1.72 0-3.16 1.4-3.41 3.2l-19.27 5.2-1.56-1.1-0.33 0.3c-0.56-0.4-1.25-0.7-1.98-0.7-1.78 0-3.22 1.5-3.41 3.4l-4.49 1.2 2.31 2.6 3.87-0.1c0.51 0.3 1.08 0.5 1.72 0.5l5.36 3.1c3.81 1.2 6.53-1.5 5.43-3.9l64.55-1.6 11.93 8.4c1.07 0.8 2.13 1.5 3.19 2.1l-4.1 0.9 0.91 1.8 6.67-1c8.65 3.5 16.96 1.9 25.35 1.5-0.38-1.1-0.8-2.2-1.23-3.2l30.97-3.7 2.31-2.5-35.01 2.9c-0.11-0.2-0.24-0.4-0.36-0.6l2.15-15.8 35.79-7.3 4 3.1c3.02 2.2 6.88-1.5 4.87-4.9l14.37-3-1.63-4.1-19.82 1-0.65-0.5c-0.67-0.8-1.66-1.4-2.77-1.4-1.44 0-2.67 0.9-3.25 2.3l-46.58 2.4c-0.47-0.3-1.02-0.5-1.59-0.5-0.69 0-1.31 0.3-1.85 0.7l-14.5 0.7-45.64-35.7c-3.44-1.6-6.97-2.4-10.4-2.3zm80.55 51.4-1.92 4.3-3.93-3.1 5.85-1.2z"/>
  <path id="path3769" style="color:#000000" d="m25.542 1523.6h73.551" stroke="#c30000" stroke-width="3" fill="none"/>
  <path id="path3757" style="color:#000000" d="m226.48 947.34c11.1-1.31 17.18-9.47 23.57-22.22 3.84-11.93 11.98-19.3 25.25-18.43 4.01 1.51 39.03-11.11 52.53-17.93 7.71-3.15 5.88-11.49-3.03-10.11l-42.43 4.04c0.04-6.15-4.24-9.85-11.11-9.59-9.15-2.77-17.12-7.5-24.24-13.64 12.41 0.46 19.54-4.16 0.5-18.18-15.54-7.97-11.58 2.18-14.39 7.83-4.62-0.42-1.23-43.78-6.65-43.69-5.41-0.09-2.02 43.27-6.64 43.69-2.81-5.65-0.11-15.8-14.39-7.83-19.04 14.02-11.91 18.64 0.5 18.18-7.12 6.14-15.1 10.87-24.24 13.64-6.87-0.26-11.16 3.44-11.11 9.59l-42.43-4.04c-8.92-1.38-10.74 6.96-3.03 10.11 13.5 6.82 48.51 19.44 52.53 17.93 13.27-0.87 21.41 6.5 25.25 18.43 6.39 12.75 12.47 20.91 23.56 22.22z" transform="matrix(1.1278,0,0,1.1278,-28.944,-112)" filter="url(#filter3763)" fill="#ffffe9"/>
  <path id="path2339" style="color:#000000" d="m226.48 947.34c11.1-1.31 17.18-9.47 23.57-22.22 3.84-11.93 11.98-19.3 25.25-18.43 4.01 1.51 39.03-11.11 52.53-17.93 7.71-3.15 5.88-11.49-3.03-10.11l-42.43 4.04c0.04-6.15-4.24-9.85-11.11-9.59-9.15-2.77-17.12-7.5-24.24-13.64 12.41 0.46 19.54-4.16 0.5-18.18-15.54-7.97-11.58 2.18-14.39 7.83-4.62-0.42-1.23-43.78-6.65-43.69-5.41-0.09-2.02 43.27-6.64 43.69-2.81-5.65-0.11-15.8-14.39-7.83-19.04 14.02-11.91 18.64 0.5 18.18-7.12 6.14-15.1 10.87-24.24 13.64-6.87-0.26-11.16 3.44-11.11 9.59l-42.43-4.04c-8.92-1.38-10.74 6.96-3.03 10.11 13.5 6.82 48.51 19.44 52.53 17.93 13.27-0.87 21.41 6.5 25.25 18.43 6.39 12.75 12.47 20.91 23.56 22.22z" stroke="#000" stroke-width="2" fill="#ffffe9"/>
  <path id="path3402" style="color:#000000" transform="translate(-23.857,-90.352)" d="m63.571 2691.1c5.1-19.2 31.33-29.7 51.429-42.8l27.14-69.3 22.86-27.1 14.29 27.1 20-1.4 13.57 27.1 2.14-10 6.43 27.2c1.27 9.4 9.58 14.3 20.36 17.1 13.3 4.9 22.64 12.4 35.35 16.1 21.26 5.5 31.78 19.7 37.86 37.5l-251.43-1.5z"/>
  <rect id="rect2218" height="484.29" width="84.286" y="-107.78" x="-53.571" fill="#fb8a89"/>
  <rect id="rect2220" height="1279" width="84.286" y="376.22" x="-53.571" fill="#8b8bfb"/>
  <rect id="rect2222" height="329.58" width="84.286" y="1655.7" x="-53.571" fill="#c355c6"/>
  <rect id="rect2224" height="312.8" width="84.286" y="1984.6" x="-53.571" fill="#25c223"/>
  <rect id="rect2226" height="301.72" width="84.286" y="2297.9" x="-53.571" fill="#fdc603"/>
  <text id="text2246" font-size="40px" xml:space="preserve" transform="rotate(-90)" y="16.78759" x="-254.97687" font-family="Sans" fill="#000000">       <tspan id="tspan2248" y="16.78759" x="-254.97687">Exosphere</tspan>     </text>
  <text id="text2250" font-size="40px" xml:space="preserve" transform="rotate(-90)" y="16.78759" x="-1098.9769" font-family="Sans" fill="#000000">       <tspan id="tspan2252" y="16.78759" x="-1098.9769">Thermosphere</tspan>     </text>
  <text id="text2254" font-size="40px" xml:space="preserve" transform="rotate(-90)" y="16.78759" x="-1946.9769" font-family="Sans" fill="#000000">       <tspan id="tspan2256" y="16.78759" x="-1946.9769">Mesosphere</tspan>     </text>
  <text id="text2258" font-size="40px" xml:space="preserve" transform="rotate(-90)" y="16.78759" x="-2272.9771" font-family="Sans" fill="#000000">       <tspan id="tspan2260" y="16.78759" x="-2272.9771">Stratosphere</tspan>     </text>
  <text id="text2262" font-size="40px" xml:space="preserve" transform="rotate(-90)" y="16.78759" x="-2566.9771" font-family="Sans" fill="#000000">       <tspan id="tspan2264" y="16.78759" x="-2566.9771">Troposphere</tspan>     </text>
  <path id="path2341" style="color:#000000" d="m187.38 993.5c13.76-1.55 38.87-12.19 38.64-29.8-1.96-20.74 17.56-24.75 25.51-23.99" transform="translate(-23.857,-90.352)" stroke="#000" stroke-width="2" fill="none"/>
  <path id="path2343" style="color:#000000" d="m225.52 964.21c-5.3 4.9-23.63 12.25-30.81 9.09-1.05 7.23-3.78 13.89-6.82 20.45" transform="translate(-23.857,-90.352)" stroke="#000" stroke-width="2" fill="none"/>
  <path id="path2345" style="color:#000000" transform="translate(-23.857,-90.352)" d="m247.74 993.25c-6.91-3-12.96-4.29-18.18-3.91-1.5-1.03 2.42-11.34 5.3-9.98l12.12 5.3c1.13 0.34 2.37 9.39 0.76 8.59z"/>
  <text id="text2349" xml:space="preserve" font-size="32px" y="-53.441376" x="37.600193" font-family="Sans" fill="#ffffff">       <tspan id="tspan2351" y="-53.441376" x="37.600193">10,000 km</tspan>     </text>
  <text id="text3322" xml:space="preserve" font-size="32px" y="410.55862" x="37.600193" font-family="Sans" fill="#ffffff">       <tspan id="tspan3324" y="410.55862" x="37.600193">690 km</tspan>     </text>
  <text id="text3326" xml:space="preserve" font-size="32px" y="1692.5586" x="37.600193" font-family="Sans" fill="#ffffff">       <tspan id="tspan3328" y="1692.5586" x="37.600193">85 km</tspan>     </text>
  <text id="text3330" xml:space="preserve" font-size="32px" y="2022.5586" x="41.600193" font-family="Sans" fill="#ffffff">       <tspan id="tspan3332" y="2022.5586" x="41.600193">50 km</tspan>     </text>
  <text id="text3334" xml:space="preserve" font-size="32px" y="2340.5586" x="41.600193" font-family="Sans" fill="#ffffff">       <tspan id="tspan3336" y="2340.5586" x="41.600193">6 &#x2013; 20 km</tspan>     </text>
  <text id="text3338" xml:space="preserve" font-size="40px" y="2579.1299" x="50.171623" font-family="Sans" fill="#ffffff">       <tspan id="tspan3340" y="2579.1299" x="50.171623">Mount Everest</tspan>     </text>
  <text id="text3342" xml:space="preserve" font-size="40px" y="2121.9871" x="140.17163" font-family="Sans" fill="#ffffff">       <tspan id="tspan3344" y="2121.9871" x="140.17163">Weather</tspan>       <tspan id="tspan3346" y="2171.9871" x="140.17163">balloon</tspan>     </text>
  <text id="text3348" xml:space="preserve" font-size="40px" y="1834.8442" x="77.314491" font-family="Sans" fill="#ffffff">       <tspan id="tspan3352" y="1834.8442" x="77.314491">Meteors</tspan>     </text>
  <text id="text3356" xml:space="preserve" font-size="40px" y="1469.13" x="281.60022" font-family="Sans" fill="#ffffff">       <tspan id="tspan3358" y="1469.13" x="281.60022">Aurora</tspan>     </text>
  <text id="text3360" xml:space="preserve" font-size="40px" y="1005.13" x="201.60022" font-family="Sans" fill="#ffffff">       <tspan id="tspan3362" y="1005.13" x="201.60022">Shuttle</tspan>     </text>
  <text id="text3364" xml:space="preserve" font-size="28px" y="1553.4158" x="34.457363" font-family="Sans" fill="#ffffff">       <tspan id="tspan3366" y="1553.4158" x="34.457363">100 km</tspan>       <tspan id="tspan3368" y="1588.4158" x="34.457363">(K&#xE1;rm&#xE1;n</tspan>       <tspan id="tspan3370" y="1623.4158" x="34.457363">line)</tspan>     </text>
  <path id="path3373" style="color:#000000" d="m441.68 376.36h-497.97" stroke="#fff" stroke-width="3" fill="none"/>
  <path id="path3375" style="color:#000000" d="m441.68 1656.4h-497.97" stroke="#fff" stroke-width="3" fill="none"/>
  <path id="path3377" style="color:#000000" d="m441.68 1985.4h-497.97" stroke="#fff" stroke-width="3" fill="none"/>
  <path id="path3379" style="color:#000000" d="m441.68 2297.4h-497.97" stroke="#fff" stroke-width="3" fill="none"/>
  <path id="path3382" style="color:#000000" d="m222.62 1890.8 99.67-162.5" stroke="url(#linearGradient3390)" stroke-linecap="round" stroke-width="7" fill="none"/>
  <path id="path3393" opacity="0.885" style="color:#000000" d="m315.48 1850.8 83.24-153.9" stroke="url(#linearGradient3395)" stroke-linecap="round" stroke-width="7" fill="none"/>
  <path id="path3397" opacity=".775" style="color:#000000" d="m335.48 1909.4 62.53-114.7" stroke="url(#linearGradient3399)" stroke-linecap="round" stroke-width="7" fill="none"/>
  <path id="path3407" opacity="0.84" style="color:#000000" d="m311.86 1579.4c-11.31-23.2-21.91-46.5-25.72-71.5m-12.85-30c0.11 31-2.39 61.9 8.57 92.9m-27.15-32.9c3.34 9.2 6.67 20.4 10 31.5m-17.14-118.6c3.72 36.2-17.08 75.2 1.43 112.8m-21.43-140c5.2 40.7-8.94 97.1 5.72 137.2m-22.86-132.9c-5.4 41.3-6.38 83.5 7.14 128.6m-20-124.3c0.94 39.5 3.9 79.1 14.29 118.6m-34.29-140c6.78 55.7 17.53 100.9 30 141.4m-41.43-170c1 52.3 0.83 104.4 12.86 158.6m-25.71-70 6.42 58.6m-27.85-182.9c-0.14 56.8 1.26 119.3 8.57 174.3m-27.14-208.6c0.76 65.3 0.48 130.9 8.57 194.3m-28.574-167.1c0.917 56.5 7.194 111.5 21.424 164.2m-31.424-161.4c22.584 186.2 1.805 178.2 228.57 235.7" filter="url(#filter3459)" stroke="#4bd22b" stroke-width="10" fill="none"/>
  <path id="path3468" style="color:#000000" d="m289.44 903.15c-13.76-1.55-38.86-12.19-38.64-29.8 1.97-20.74-17.56-24.75-25.5-23.99" stroke="#000" stroke-width="2" fill="none"/>
  <path id="path3470" style="color:#000000" d="m251.31 873.86c5.29 4.9 23.63 12.25 30.81 9.09 1.04 7.22 3.77 13.89 6.82 20.45" stroke="#000" stroke-width="2" fill="none"/>
  <path id="path3472" style="color:#000000" d="m229.09 902.9c6.9-3 12.96-4.29 18.18-3.92 1.5-1.03-2.42-11.33-5.3-9.97l-12.13 5.3c-1.13 0.34-2.36 9.39-0.75 8.59z"/>
  <path id="path2347" style="color:#000000" d="m226.48 876.89c5.56-0.84 10.78 0.17 16.24 1.76l-0.25-11.11c0.55-3.87-6.36-7.23-15.99-7.07-9.62-0.16-16.53 3.2-15.98 7.07l-0.25 11.11c5.46-1.59 10.68-2.6 16.23-1.76z" stroke="#000" stroke-width="2" fill="url(#radialGradient3754)"/>
  <path id="path3405" style="color:#000000" d="m226.48 947.09c6.76-0.69 15.54-7.01 22.81-20.71 2.5-9.44 8.65-17.21 20.96-20.2-10.5-2.99-17.01 0.35-23.99 13.64-1.25 4.31-13.07 4.74-19.78 4.8-6.7-0.06-18.52-0.49-19.77-4.8-6.99-13.29-13.49-16.63-23.99-13.64 12.31 2.99 18.46 10.76 20.96 20.2 7.27 13.7 16.05 20.02 22.8 20.71z"/>
  <path id="path3487" style="color:#000000" d="m111.62 2257.8v9.9" transform="translate(-23.857,-90.352)" stroke="#000" stroke-width="2" fill="none"/>
  <path id="path3489" style="color:#000000" d="m92.649 2167.5v9.8" stroke="#000" stroke-width="2" fill="none"/>
  <rect id="rect3491" height="5.6821" width="8.0812" y="2177.3" x="86.249" fill="#fff"/>
  <path id="path3485" style="color:#000000" d="m92.636 2167.6c14.614-19.9 27.294-39 28.034-52.8 3.71-33.9-20.717-36.9-30.47-30.5-9.752-6.4-34.177-3.4-30.467 30.5 0.735 13.8 13.413 32.9 28.032 52.8h4.871z" stroke="#000" stroke-width="2" fill="url(#linearGradient3511)"/>
  <path id="path3500" style="color:#000000" d="m113.64 2175.1c-43.187 9.7-7.24 62.9 1.01 82.5-5.15-28.2-15.013-58.7-1.01-82.5z" fill-opacity=".78689" transform="translate(-23.857,-90.352)" stroke="#000" stroke-width="2" fill="#dedede"/>
  <path id="path3502" style="color:#000000" d="m90.925 2084.8c43.185 9.6 7.491 62.7-0.757 82.3 5.149-28.2 14.762-58.6 0.757-82.3z" fill-opacity=".78689" stroke="#000" stroke-width="2" fill="#919191"/>
  <path id="path3778" style="color:#000000" d="m272.86 2386-59.15 15.9 2.21 2.4 82.19-2-25.25-16.3z" stroke="#000" stroke-width="2" fill="#717171"/>
  <path id="path3582" d="m277.23 60.964a3.0357 3.0357 0 1 1 -6.07 0 3.0357 3.0357 0 1 1 6.07 0z" transform="matrix(.63235 0 0 .63235 68.709 -68.296)" fill="#fff"/>
  <path id="path3668" d="m277.23 60.964a3.0357 3.0357 0 1 1 -6.07 0 3.0357 3.0357 0 1 1 6.07 0z" transform="matrix(.63235 0 0 .63235 -17.291 -70.296)" fill="#fff"/>
  <path id="path3670" d="m277.23 60.964a3.0357 3.0357 0 1 1 -6.07 0 3.0357 3.0357 0 1 1 6.07 0z" transform="matrix(.63235 0 0 .63235 -71.291 -8.2959)" fill="#fff"/>
  <path id="path3672" d="m277.23 60.964a3.0357 3.0357 0 1 1 -6.07 0 3.0357 3.0357 0 1 1 6.07 0z" transform="matrix(.63235 0 0 .63235 68.709 -4.2959)" fill="#fff"/>
  <path id="path3674" d="m277.23 60.964a3.0357 3.0357 0 1 1 -6.07 0 3.0357 3.0357 0 1 1 6.07 0z" transform="matrix(.63235 0 0 .63235 12.709 63.704)" fill="#fff"/>
  <path id="path3676" d="m277.23 60.964a3.0357 3.0357 0 1 1 -6.07 0 3.0357 3.0357 0 1 1 6.07 0z" transform="matrix(.63235 0 0 .63235 170.71 69.704)" fill="#fff"/>
  <path id="path3678" d="m277.23 60.964a3.0357 3.0357 0 1 1 -6.07 0 3.0357 3.0357 0 1 1 6.07 0z" transform="matrix(.63235 0 0 .63235 198.71 27.704)" fill="#fff"/>
  <path id="path3680" d="m277.23 60.964a3.0357 3.0357 0 1 1 -6.07 0 3.0357 3.0357 0 1 1 6.07 0z" transform="matrix(.63235 0 0 .63235 200.71 35.704)" fill="#fff"/>
  <path id="path3682" d="m277.23 60.964a3.0357 3.0357 0 1 1 -6.07 0 3.0357 3.0357 0 1 1 6.07 0z" transform="matrix(.63235 0 0 .63235 186.71 5.7041)" fill="#fff"/>
  <path id="path3684" d="m277.23 60.964a3.0357 3.0357 0 1 1 -6.07 0 3.0357 3.0357 0 1 1 6.07 0z" transform="matrix(.63235 0 0 .63235 190.71 -50.296)" fill="#fff"/>
  <path id="path3686" d="m277.23 60.964a3.0357 3.0357 0 1 1 -6.07 0 3.0357 3.0357 0 1 1 6.07 0z" transform="matrix(.63235 0 0 .63235 150.71 137.7)" fill="#fff"/>
  <path id="path3688" d="m277.23 60.964a3.0357 3.0357 0 1 1 -6.07 0 3.0357 3.0357 0 1 1 6.07 0z" transform="matrix(.63235 0 0 .63235 44.709 153.7)" fill="#fff"/>
  <path id="path3690" d="m277.23 60.964a3.0357 3.0357 0 1 1 -6.07 0 3.0357 3.0357 0 1 1 6.07 0z" transform="matrix(.63235 0 0 .63235 116.71 185.7)" fill="#fff"/>
  <path id="path3692" d="m277.23 60.964a3.0357 3.0357 0 1 1 -6.07 0 3.0357 3.0357 0 1 1 6.07 0z" transform="matrix(.63235 0 0 .63235 196.71 217.7)" fill="#fff"/>
  <path id="path3694" d="m277.23 60.964a3.0357 3.0357 0 1 1 -6.07 0 3.0357 3.0357 0 1 1 6.07 0z" transform="matrix(.63235 0 0 .63235 82.709 251.7)" fill="#fff"/>
  <path id="path3696" d="m277.23 60.964a3.0357 3.0357 0 1 1 -6.07 0 3.0357 3.0357 0 1 1 6.07 0z" transform="matrix(.63235 0 0 .63235 134.71 309.7)" fill="#fff"/>
  <path id="path3698" d="m277.23 60.964a3.0357 3.0357 0 1 1 -6.07 0 3.0357 3.0357 0 1 1 6.07 0z" transform="matrix(.63235 0 0 .63235 -17.291 285.7)" fill="#fff"/>
  <path id="path3700" d="m277.23 60.964a3.0357 3.0357 0 1 1 -6.07 0 3.0357 3.0357 0 1 1 6.07 0z" transform="matrix(.63235 0 0 .63235 -21.291 219.7)" fill="#fff"/>
  <path id="path3702" d="m277.23 60.964a3.0357 3.0357 0 1 1 -6.07 0 3.0357 3.0357 0 1 1 6.07 0z" transform="matrix(.63235 0 0 .63235 -95.291 239.7)" fill="#fff"/>
  <path id="path3704" d="m277.23 60.964a3.0357 3.0357 0 1 1 -6.07 0 3.0357 3.0357 0 1 1 6.07 0z" transform="matrix(.63235 0 0 .63235 -43.291 131.7)" fill="#fff"/>
  <path id="path3707" d="m277.23 60.964a3.0357 3.0357 0 1 1 -6.07 0 3.0357 3.0357 0 1 1 6.07 0z" transform="matrix(.63235 0 0 .63235 92.709 399.7)" fill="#fff"/>
  <path id="path3709" d="m277.23 60.964a3.0357 3.0357 0 1 1 -6.07 0 3.0357 3.0357 0 1 1 6.07 0z" transform="matrix(.63235 0 0 .63235 206.71 447.7)" fill="#fff"/>
  <path id="path3711" d="m277.23 60.964a3.0357 3.0357 0 1 1 -6.07 0 3.0357 3.0357 0 1 1 6.07 0z" transform="matrix(.63235 0 0 .63235 -67.291 385.7)" fill="#fff"/>
  <path id="path3713" d="m277.23 60.964a3.0357 3.0357 0 1 1 -6.07 0 3.0357 3.0357 0 1 1 6.07 0z" transform="matrix(.63235 0 0 .63235 82.709 507.7)" fill="#fff"/>
  <path id="path3715" d="m277.23 60.964a3.0357 3.0357 0 1 1 -6.07 0 3.0357 3.0357 0 1 1 6.07 0z" transform="matrix(.63235 0 0 .63235 2.7093 567.7)" fill="#fff"/>
  <path id="path3717" d="m277.23 60.964a3.0357 3.0357 0 1 1 -6.07 0 3.0357 3.0357 0 1 1 6.07 0z" transform="matrix(.63235 0 0 .63235 172.71 619.7)" fill="#fff"/>
  <path id="path3719" d="m277.23 60.964a3.0357 3.0357 0 1 1 -6.07 0 3.0357 3.0357 0 1 1 6.07 0z" transform="matrix(.63235 0 0 .63235 134.71 713.7)" fill="#fff"/>
  <path id="path3721" d="m277.23 60.964a3.0357 3.0357 0 1 1 -6.07 0 3.0357 3.0357 0 1 1 6.07 0z" transform="matrix(.63235 0 0 .63235 -89.291 719.7)" fill="#fff"/>
  <path id="path3723" d="m277.23 60.964a3.0357 3.0357 0 1 1 -6.07 0 3.0357 3.0357 0 1 1 6.07 0z" transform="matrix(.63235 0 0 .63235 -79.291 921.7)" fill="#fff"/>
  <path id="path3725" d="m277.23 60.964a3.0357 3.0357 0 1 1 -6.07 0 3.0357 3.0357 0 1 1 6.07 0z" transform="matrix(.63235 0 0 .63235 192.71 1013.7)" fill="#fff"/>
  <path id="path3727" d="m277.23 60.964a3.0357 3.0357 0 1 1 -6.07 0 3.0357 3.0357 0 1 1 6.07 0z" transform="matrix(.63235 0 0 .63235 -9.2907 1141.7)" fill="#fff"/>
  <path id="path3729" d="m277.23 60.964a3.0357 3.0357 0 1 1 -6.07 0 3.0357 3.0357 0 1 1 6.07 0z" transform="matrix(.63235 0 0 .63235 148.71 1273.7)" fill="#dedede"/>
  <path id="path3735" style="color:#000000" d="m230.06 1013.7c8.2-19.46 30.78-19.91 40.66 0" transform="translate(-23.857,-90.352)" stroke="#000" stroke-width="2" fill="none"/>
  <path id="path3737" style="color:#000000" d="m237.13 1017c2.6-13.1 21.81-13.3 25.26-1" transform="translate(-23.857,-90.352)" stroke="#000" stroke-width="2" fill="none"/>
  <path id="path3743" d="m260.11 1027.8a9.3439 9.3439 0 1 1 -18.68 0 9.3439 9.3439 0 1 1 18.68 0z" transform="matrix(1.1892,0,0,1.1892,-71.805,-285.57)" fill="#ffffe9"/>
  <path id="path3784" style="color:#000000" d="m323.81 2400.6 4.65-10.4h6.87l-2.88 21.4-8.64-11z" stroke="#000" stroke-width="2" fill="#c00"/>
  <path id="path3780" style="color:#000000" d="m332.45 2409.4 34.34-2.9-2.21 2.5-31.02 3.7-1.11-3.3z" stroke="#000" stroke-width="2" fill="#444"/>
  <path id="path3782" style="color:#000000" d="m310.3 2412.1-5.98 1.3 0.88 1.8 9.97-1.6-4.87-1.5z" stroke="#000" stroke-width="2" fill="#444"/>
  <path id="path3774" style="color:#000000" d="m247.83 2370.1c-6.7-6.1-9.72-13.5-8.64-21 5.96-3.8 12.86-4 19.49-0.9l66.02 51.7c4.4 3.8 8.64 7.9 11.3 15.7-10.12 0.5-20.11 2.9-30.8-5.1l-57.37-40.4z" stroke="#000" stroke-width="2" fill="url(#linearGradient3819)"/>
  <path id="path3776" style="color:#000000" d="m291.47 2383.1 98.58-5.1 1.55 4-79.52 16.3-20.61-15.2z" stroke="#000" stroke-width="2" fill="#717171"/>
  <path id="path3822" style="color:#000000" d="m389.73 2377.9-97.91 5.1" stroke="url(#linearGradient3834)" stroke-linecap="round" stroke-width="2" fill="none"/>
  <path id="path3791" style="color:#000000" d="m369.68 2378 7.52 6c3.21 3.5-0.94 7.9-4.1 5.5l-7.8-6 4.38-5.5z" stroke="#000" stroke-width="2" fill="#810707"/>
  <path id="path3789" stroke-linejoin="round" d="m488.41 2369.3a3.79 4.169 0 1 1 -7.58 0 3.79 4.169 0 1 1 7.58 0z" transform="matrix(.91789 0 0 .91521 -77.109 212.53)" stroke="#000" stroke-linecap="round" stroke-width="2.1821" fill="#212121"/>
  <path id="path3797" style="color:#000000" d="m218.21 2403 8.26 4.7c4.5 1.5 7.4-2.9 3.85-5.2l-6.8-4.7-5.31 5.2z" stroke="#000" stroke-width="2" fill="#810707"/>
  <path id="path3801" style="color:#000000" d="m243.74 2396.3 7.09 5.6c2.62 2.1 7.4-1.5 3.61-5l-5.38-5.8-5.32 5.2z" stroke="#000" stroke-width="2" fill="#810707"/>
  <path id="path3803" style="color:#000000" d="m252.11 2349.7 0.63-1.3c-1.46-1.1-3.28-1.8-5.57-2.3l-2.35 1c3.11 0.4 5.62 1.3 7.29 2.6z"/>
  <path id="path3793" style="color:#000000" d="m316.11 2387.4 6.43 4.8c2.62 2.1 7.71-1.9 3.92-5.5l-6.28-4.7-4.07 5.4z" stroke="#000" stroke-width="2" fill="#810707"/>
  <path id="path3787" stroke-linejoin="round" d="m488.41 2369.3a3.79 4.169 0 1 1 -7.58 0 3.79 4.169 0 1 1 7.58 0z" transform="matrix(.87724 0 0 .87541 -106.86 310.73)" stroke="#000" stroke-linecap="round" stroke-width="2.2822" fill="#212121"/>
  <path id="path3795" stroke-linejoin="round" d="m488.41 2369.3a3.79 4.169 0 1 1 -7.58 0 3.79 4.169 0 1 1 7.58 0z" transform="matrix(.87724 0 0 .87541 -203.82 326.99)" stroke="#000" stroke-linecap="round" stroke-width="2.2822" fill="#212121"/>
  <path id="path3799" stroke-linejoin="round" d="m488.41 2369.3a3.79 4.169 0 1 1 -7.58 0 3.79 4.169 0 1 1 7.58 0z" transform="matrix(.87724 0 0 .87541 -178.29 320.27)" stroke="#000" stroke-linecap="round" stroke-width="2.2822" fill="#212121"/>
  <path id="path3838" style="color:#000000" d="m331.98 1523.6h210.79" stroke="#c30000" stroke-width="3" fill="none"/>
 </g>
 <metadata>
  <rdf:RDF>
   <cc:Work>
    <dc:format>image/svg+xml</dc:format>
    <dc:type rdf:resource="http://purl.org/dc/dcmitype/StillImage"/>
    <cc:license rdf:resource="http://creativecommons.org/licenses/publicdomain/"/>
    <dc:publisher>
     <cc:Agent rdf:about="http://openclipart.org/">
      <dc:title>Openclipart</dc:title>
     </cc:Agent>
    </dc:publisher>
   </cc:Work>
   <cc:License rdf:about="http://creativecommons.org/licenses/publicdomain/">
    <cc:permits rdf:resource="http://creativecommons.org/ns#Reproduction"/>
    <cc:permits rdf:resource="http://creativecommons.org/ns#Distribution"/>
    <cc:permits rdf:resource="http://creativecommons.org/ns#DerivativeWorks"/>
   </cc:License>
  </rdf:RDF>
 </metadata>
</svg>
