<?xml version="1.0"?>
<svg xmlns:rdf="http://www.w3.org/1999/02/22-rdf-syntax-ns#" xmlns="http://www.w3.org/2000/svg" xmlns:cc="http://web.resource.org/cc/" xmlns:xlink="http://www.w3.org/1999/xlink" xmlns:dc="http://purl.org/dc/elements/1.1/" text-rendering="geometricPrecision" fill-rule="evenodd" xml:space="preserve" shape-rendering="geometricPrecision" height="640px" width="1280px" clip-rule="evenodd" image-rendering="optimizeQuality" viewBox="0 0 1302.91 734.26">
 <defs>
   <linearGradient id="id0" y2="511.62" gradientUnits="userSpaceOnUse" x2="688.05" y1="181.04" x1="688.05">
    <stop stop-color="#4457C2" offset="0"/>
    <stop stop-color="#CBF3FF" offset=".63137"/>
    <stop stop-color="#57D99A" offset="1"/>
   </linearGradient>
 </defs>
 <g id="Layer_x0020_1">
  <polygon stroke="#000" stroke-width="1.1462" points="0.5731 0.57115 1302.3 0.57115 1302.3 733.69 0.5731 733.69" fill="#FFFFBF"/>
  <rect height="635.74" width="1158.4" stroke="#000" y="28.464" x="108.88" stroke-width="1.1462" fill="url(#id0)"/>
  <path stroke-linejoin="round" d="m192.03 44.428c-5.5868 5.4698-16.316 4.961-16.558 12.775-0.16699 5.4165 11.189 1.0702 16.055 3.449 2.1865 1.0676-4.8655 3.681-3.2742 5.5238 2.0312 2.3548 6.6225-0.065627 9.3191 1.4815 1.2242 0.70371-3.6654 2.9045-2.3866 3.5133 3.0689 1.46 6.9396-0.77128 10.194 0.20533 0.95322 0.2859-0.61989 2.822 0.36582 2.9682 3.3262 0.49383 7.3314-1.063 9.9845 0.99611 2.4185 1.8766-1.2879 4.3119-1.1936 7.373 0.075374 2.4549 0.85316 4.4536 1.7161 6.7538 0.55621 1.488 1.0877 0.67057 2.6764 0.63483 3.0091-0.068876 6.8266-0.44835 8.9175 1.7128 2.9311 3.0293-0.52827 5.987 0.70501 10.019 0.57635 1.883 2.7128 3.0468 4.5348 3.794 4.2586 1.7466 9.4464 1.0981 13.348 3.5393 1.358 0.84926 1.0228 3.5738 0 4.8058-3.0611 3.6875-9.7272 4.3334-11.335 8.85-0.86615 2.4373 5.7005-0.02989 7.5569 1.7706 1.3294 1.2905-1.386 4.3327 0 5.564 1.6342 1.4496 4.8896-1.1664 6.5484 0.25276 1.41 1.206-1.2853 4.5237 0.25211 5.564 2.9584 2.0039 8.0546-0.76154 10.578 1.7706 1.911 1.9188-2.2248 5.8168-0.75504 8.0923 1.2508 1.9357 5.3243-0.50358 6.7999 1.2638 1.4061 1.6829-1.7089 4.937-0.25146 6.5751 1.4548 1.6361 4.8168-0.83236 6.5484 0.50618 1.1995 0.92723-1.3119 3.7921 0 4.5517 5.9987 3.4731 14.834 1.8376 19.645 6.8278 2.3268 2.4133-7.3698 7.7954-4.2827 9.1047 12.43 5.2723 26.923 2.9058 40.048 6.0689 1.9695 0.47434 4.7336 2.653 4.0299 4.5517-1.1858 3.2002-11.29 5.2138-8.0605 6.323 14.27 4.9071 29.242 0.81872 43.823 4.7057 2.3996 0.64003 2.6394 6.2463 4.9396 7.18 5.0767 2.0611 16.72-1.4821 15.967 3.9422-0.80832 5.8214-24.094 4.7862-17.981 10.17 7.0592 4.0774 20.819-1.091 33.597 2.4126 2.2313 0.61209-3.3671 3.8096-1.7622 5.477 2.1573 2.243 7.0865-0.37687 9.5205 1.566 1.8486 1.4737-0.50618 4.0507 0.30215 6.2729 1.1728 3.2294 2.2411 7.2638 5.2885 8.8513 8.7174 4.5413 19.884 3.3736 28.209 8.5985 2.271 1.4243-6.4451 2.6595-6.0449 5.3113 0.39376 2.6062 7.696 0.42755 7.3035 3.0338-0.50098 3.321-11.129 3.1462-8.5621 5.3113 5.5569 4.6868 14.928 1.5595 21.156 5.3106 1.8837 1.1345-4.3158 2.4009-4.785 4.5517-0.45094 2.063 4.2853 4.6615 2.5172 5.8162-5.0481 3.2937-13.22-0.064978-17.63 4.0468-2.6517 2.4711 14.003 1.3431 10.578 2.5276-17.842 6.1735-38.147 4.7044-55.158 12.899-5.5816 2.6881 15.453-0.63873 17.883 5.0579 1.8908 4.4321-12.524 0.81482-13.349 5.564-0.7115 4.0877 12.235 0.45419 11.585 4.551-0.77648 4.8993-8.6661 4.9428-13.348 6.5751-9.3886 3.2729-19.118 5.4861-28.713 8.0923-14.918 4.052-29.803 8.2606-44.831 11.886-15.37 3.7076-30.842 7.0033-46.345 10.116-13.885 2.7882-27.796 5.5257-41.809 7.5874-8.9253 1.3132-18.63-0.96297-26.951 2.5283-3.3905 1.423-0.7271 8.3119-3.7778 10.368-3.8506 2.5959-9.4926-0.084471-13.852 1.5172-2.8506 1.0468-3.8246 5.4568-6.8006 6.0702-13.041 2.6888-26.617 1.6218-39.794 3.5406-3.1326 0.45614-6.6602 1.2203-8.8162 3.5393-1.0013 1.0773 0.65627 3.0793 1.7628 4.0468 1.6693 1.4588 5.2911 0.69851 6.0449 2.7817 0.7167 1.9818-2.3164 2.5582-3.4269 4.3509-0.82262 1.3294-3.5335 3.2417-2.1638 3.9955 3.0916 1.7011 7.4854-0.50488 10.377 1.5172 1.5738 1.1027-3.3314 3.7063-2.2671 5.3093 1.5432 2.3256 6.3067 0.68097 7.8071 3.0358 0.89539 1.4074-4.9558 2.1059-3.7778 3.2879 3.3951 3.4081 13.215 1.2599 13.097 6.0689-0.16179 6.6024-12.164 7.9676-13.6 14.415-0.73555 3.2983 8.295 1.13 9.8227 4.1449 1.7648 3.4796-0.53672 6.5627-2.7706 9.7629-2.5796 3.6927-7.7687 4.7862-10.83 8.0936-6.9182 7.4757-14.724 14.726-18.89 24.024-1.1222 2.5068 4.9825 3.5933 5.2898 6.323 0.29955 2.6569-2.5413 4.7083-3.7778 7.08-1.6179 3.1059-4.5289 5.8649-4.7862 9.3581-0.13905 1.9012 3.603 2.3996 3.7778 4.2983 0.21898 2.3678-2.5822 4.2047-2.7706 6.5751-0.16699 2.1001 1.9584 3.9727 1.7635 6.0702-0.32814 3.527-3.4068 6.5738-3.2742 10.116 0.062378 1.668 3.0838 1.77 3.7778 3.2872 0.84406 1.8447-0.29825 4.2047 0.50358 6.0689 0.63483 1.475 4.0916 1.7849 3.5263 3.2872-1.0936 2.9019-7.052 2.9695-7.052 6.0702 0 3.0462 6.5601 2.809 7.052 5.8162 0.64133 3.9208-3.807 7.1813-4.2814 11.127-0.23847 1.9877 1.6244 3.668 2.2671 5.564 0.70241 2.0715 0.53412 4.512 1.7622 6.3223 1.4087 2.0747 4.6972 2.5491 5.7934 4.8044 0.81612 1.6816 0.41716 4.1066-0.75569 5.564-2.2658 2.8155-7.2385 3.0676-8.8155 6.3217-0.76154 1.5731 4.7992 1.3639 4.2814 3.0345-2.3256 7.4906-10.801 10.86-11.585 18.666-0.31839 3.1612 6.7882 1.924 9.3191 3.8421 1.8246 1.3847 0.66797 4.7213 2.0143 6.5751 1.0838 1.4925 2.9929 2.347 4.7856 2.7817 3.191 0.77258 6.9026-0.73945 9.8233 0.75894 1.4548 0.74594-0.30929 3.8337 1.0065 4.8051 2.0663 1.525 5.436 0.068876 7.5569 1.5172 0.83886 0.57245-2.0578 2.1488-1.2599 2.781 3.0955 2.4542 8.1053 1.9493 10.83 4.8058 1.6322 1.7122-0.48733 4.9338 0.50488 7.08 1.874 4.0468 6.0663 7.7668 8.6687 11.392" stroke="#000" stroke-linecap="round" stroke-width="3.2489" fill="none"/>
  <line stroke-width="1.9493" x1="108.67" x2="131.18" stroke="#000" y1="72.548" y2="72.548" fill="none"/>
  <line stroke-width="1.9493" x1="108.8" x2="131.31" stroke="#000" y1="155.81" y2="155.81" fill="none"/>
  <line stroke-width="1.9493" x1="108.7" x2="131.2" stroke="#000" y1="240.9" y2="240.9" fill="none"/>
  <line stroke-width="1.9493" x1="108.71" x2="131.22" stroke="#000" y1="324.28" y2="324.28" fill="none"/>
  <line stroke-width="1.9493" x1="108.72" x2="131.23" stroke="#000" y1="409.6" y2="409.6" fill="none"/>
  <line stroke-width="1.9493" x1="108.73" x2="131.24" stroke="#000" y1="494.46" y2="494.46" fill="none"/>
  <line stroke-width="1.9493" x1="108.52" x2="131.02" stroke="#000" y1="580.81" y2="580.81" fill="none"/>
  <line stroke-width="1.9493" x1="170.4" x2="170.4" stroke="#000" y1="665.07" y2="642.56" fill="none"/>
  <line stroke-width="1.9493" x1="118.27" x2="118.27" stroke="#000" y1="665.07" y2="642.56" fill="none"/>
  <line stroke-width="1.9493" x1="222.52" x2="222.52" stroke="#000" y1="665.07" y2="642.56" fill="none"/>
  <line stroke-width="1.9493" x1="274.65" x2="274.65" stroke="#000" y1="665.07" y2="642.56" fill="none"/>
  <line stroke-width="1.9493" x1="326.78" x2="326.78" stroke="#000" y1="665.07" y2="642.56" fill="none"/>
  <line stroke-width="1.9493" x1="378.91" x2="378.91" stroke="#000" y1="665.07" y2="642.56" fill="none"/>
  <text y="704.464" x="108.465" font-size="35.49" font-family="Arial" fill="black">0</text>
  <text y="704.009" x="161.246" font-size="35.49" font-family="Arial" fill="black">5</text>
  <text y="704.464" x="205.775" font-size="35.49" font-family="Arial" fill="black">1</text>
  <text y="704.464" x="225.513" font-size="35.49" font-family="Arial" fill="black">0</text>
  <text y="704.464" x="258.556" font-size="35.49" font-family="Arial" fill="black">15</text>
  <text y="704.464" x="311.338" font-size="35.49" font-family="Arial" fill="black">2</text>
  <text y="704.464" x="331.076" font-size="35.49" font-family="Arial" fill="black">0</text>
  <text y="704.464" x="364.119" font-size="35.49" font-family="Arial" fill="black">25</text>
  <g font-size="31.747" font-family="Arial" transform="matrix(.97815 0 -.20791 .97815 -2.7732 -145.14)">
   <text y="873.087" x="640">&#x41A;</text>
   <text y="873.087" x="658.499">&#x43E;</text>
   <text y="873.087" x="675.464">&#x43B;</text>
   <text y="873.087" x="693.995">&#x438;</text>
   <text y="873.087" x="711.738">&#x447;</text>
   <text y="873.087" x="728.285">&#x435;</text>
   <text y="873.087" x="745.949">&#x441;</text>
   <text y="873.087" x="761.829">&#x442;</text>
   <text y="873.087" x="776.376">&#x432;</text>
   <text y="873.087" x="792.896">&#x43E; </text>
   <text y="873.087" x="819.392">&#x43E;</text>
   <text y="873.087" x="836.701">&#x437;</text>
   <text y="873.087" x="850.909">&#x43E;</text>
   <text y="873.087" x="868.573">&#x43D;</text>
   <text y="873.087" x="886.109">&#x430;</text>
   <text y="873.087" x="903.448"> </text>
   <text y="873.087" x="912.288">(</text>
   <text y="873.087" x="922.866">&#x43F;</text>
   <text y="873.087" x="940.064">&#x430;</text>
   <text y="873.087" x="957.727">&#x440;</text>
   <text y="873.087" x="975.391">&#x446;</text>
   <text y="873.087" x="993.583">&#x438;</text>
   <text y="873.087" x="1011.33">&#x430;</text>
   <text y="873.087" x="1028.99">&#x43B;</text>
   <text y="873.087" x="1047.52">&#x44C;</text>
   <text y="873.087" x="1064.07">&#x43D;</text>
   <text y="873.087" x="1081.6">&#x43E;</text>
   <text y="873.087" x="1099.27">&#x435; </text>
   <text y="873.087" x="1125.76">&#x434;</text>
   <text y="873.087" x="1144.29">&#x430;</text>
   <text y="873.087" x="1161.96">&#x432;</text>
   <text y="873.087" x="1178.1">&#x43B;</text>
   <text y="873.087" x="1196.63">&#x435;</text>
   <text y="873.087" x="1214.3">&#x43D;</text>
   <text y="873.087" x="1231.83">&#x438;</text>
   <text y="873.087" x="1249.58">&#x435;</text>
   <text y="873.087" x="1267.24">, </text>
   <text y="873.087" x="1284.9">&#x43C;</text>
   <text y="873.087" x="1306.73">&#x41F;</text>
   <text y="873.087" x="1329.56">&#x430;</text>
   <text y="873.087" x="1347.22">)</text>
  </g>
  <text y="90.7257" x="58.1927" font-size="35.49" font-family="Arial" fill="black">3</text>
  <text y="90.7257" x="77.9556" font-size="35.49" font-family="Arial" fill="black">5</text>
  <text y="173.746" x="58.1927" font-size="35.49" font-family="Arial" fill="black">3</text>
  <text y="173.746" x="77.9556" font-size="35.49" font-family="Arial" fill="black">0</text>
  <text y="256.766" x="58.1927" font-size="35.49" font-family="Arial" fill="black">2</text>
  <text y="256.766" x="77.9556" font-size="35.49" font-family="Arial" fill="black">5</text>
  <text y="343.15" x="58.1927" font-size="35.49" font-family="Arial" fill="black">2</text>
  <text y="343.15" x="77.9556" font-size="35.49" font-family="Arial" fill="black">0</text>
  <text y="429.535" x="58.1927" font-size="35.49" font-family="Arial" fill="black">1</text>
  <text y="429.535" x="77.9556" font-size="35.49" font-family="Arial" fill="black">5</text>
  <text y="515.919" x="58.1927" font-size="35.49" font-family="Arial" fill="black">1</text>
  <text y="515.919" x="77.9556" font-size="35.49" font-family="Arial" fill="black">0</text>
  <text y="595.575" x="77.2643" font-size="35.49" font-family="Arial" fill="black">5</text>
  <g font-size="31.747" font-family="Arial" transform="matrix(0 -.97815 .97815 .20791 -812.07 952.24)">
   <text y="873.087" x="640">&#x412;&#x44B;&#x441;&#x43E;&#x442;&#x430; </text>
   <text y="873.087" x="757.946">(&#x43A;&#x438;&#x43B;&#x43E;&#x43C;&#x435;&#x442;&#x440;&#x44B;)</text>
  </g>
 </g>
 <g id="Outline">
  <rect rx="23.041" ry="23.041" height="308.75" width="405.11" y="47.44" x="848.75" fill="#fff"/>
  <text y="75.8406" x="855.637" font-size="21.433" font-family="Symbol" fill="black">&#xB7;</text>
  <text y="134.996" x="855.637" font-size="21.433" font-family="Symbol" fill="black">&#xB7;</text>
  <text y="225.137" x="855.637" font-size="21.433" font-family="Symbol" fill="black">&#xB7;</text>
  <text y="253.306" x="890.024" font-size="21.433" font-family="Symbol" fill="black">-</text>
  <text y="312.461" x="890.024" font-size="21.433" font-family="Symbol" fill="black">-</text>
  <text y="75.8406" x="870.081" font-size="25.215" font-family="Arial" fill="black">&#x421;&#x43E;&#x434;&#x435;&#x440;&#x436;&#x438;&#x442; 90% &#x430;&#x442;&#x43C;&#x43E;&#x441;&#x444;&#x435;&#x440;&#x43D;&#x43E;&#x433;&#x43E; </text>
  <text y="106.827" x="855.637" font-size="25.215" font-family="Arial" fill="black">&#x43E;&#x437;&#x43E;&#x43D;&#x430;</text>
  <text y="134.996" x="870.081" font-size="25.215" font-family="Arial" fill="black">&#x41F;&#x43E;&#x43B;&#x43E;&#x436;&#x438;&#x442;&#x435;&#x43B;&#x44C;&#x43D;&#x430;&#x44F; &#x440;&#x43E;&#x43B;&#x44C;: &#x434;&#x435;&#x439;&#x441;&#x442;&#x432;&#x443;&#x435;&#x442; </text>
  <text y="165.982" x="855.637" font-size="25.215" font-family="Arial" fill="black">&#x43A;&#x430;&#x43A; &#x43E;&#x441;&#x43D;&#x43E;&#x432;&#x43D;&#x430;&#x44F; &#x437;&#x430;&#x449;&#x438;&#x442;&#x430; &#x43E;&#x442; &#x443;&#x43B;&#x44C;&#x442;&#x440;&#x430;-</text>
  <text y="196.967" x="855.637" font-size="25.215" font-family="Arial" fill="black">&#x444;&#x438;&#x43E;&#x43B;&#x435;&#x442;&#x43E;&#x432;&#x43E;&#x433;&#x43E; &#x438;&#x437;&#x43B;&#x443;&#x447;&#x435;&#x43D;&#x438;&#x44F;</text>
  <text y="225.137" x="870.081" font-size="25.215" font-family="Arial" fill="black">&#x422;&#x435;&#x43A;&#x443;&#x449;&#x438;&#x435; &#x43F;&#x440;&#x43E;&#x431;&#x43B;&#x435;&#x43C;&#x44B;:</text>
  <text y="253.306" x="906.371" font-size="25.215" font-family="Arial" fill="black">&#x414;&#x43E;&#x43B;&#x433;&#x43E;&#x441;&#x440;&#x43E;&#x447;&#x43D;&#x430;&#x44F; &#x433;&#x43B;&#x43E;&#x431;&#x430;&#x43B;&#x44C;&#x43D;&#x430;&#x44F; </text>
  <text y="284.292" x="855.637" font-size="25.215" font-family="Arial" fill="black">&#x442;&#x435;&#x43D;&#x434;&#x435;&#x43D;&#x446;&#x438;&#x44F; &#x43A; &#x443;&#x43C;&#x435;&#x43D;&#x44C;&#x448;&#x435;&#x43D;&#x438;&#x44E;</text>
  <text y="312.461" x="906.371" font-size="25.215" font-family="Arial" fill="black">&#x412;&#x435;&#x441;&#x435;&#x43D;&#x43D;&#x44F;&#x44F; &#x430;&#x43D;&#x442;&#x430;&#x440;&#x43A;&#x442;&#x438;&#x447;&#x435;&#x441;&#x43A;&#x430;&#x44F; </text>
  <text y="343.447" x="855.637" font-size="25.215" font-family="Arial" fill="black">&#x43E;&#x437;&#x43E;&#x43D;&#x43E;&#x432;&#x430;&#x44F; &#x434;&#x44B;&#x440;&#x430; &#x43A;&#x430;&#x436;&#x434;&#x44B;&#x439; &#x433;&#x43E;&#x434;</text>
  <rect rx="23.041" ry="23.041" height="249.62" width="405.11" y="387.86" x="848.52" fill="#fff"/>
  <text y="417.011" x="855.409" font-size="21.433" font-family="Symbol" fill="black">&#xB7;</text>
  <text y="476.166" x="855.409" font-size="21.433" font-family="Symbol" fill="black">&#xB7;</text>
  <text y="535.321" x="855.409" font-size="21.433" font-family="Symbol" fill="black">&#xB7;</text>
  <text y="563.49" x="889.795" font-size="21.433" font-family="Symbol" fill="black">-</text>
  <text y="417.011" x="869.853" font-size="25.215" font-family="Arial" fill="black">&#x421;&#x43E;&#x434;&#x435;&#x440;&#x436;&#x438;&#x442; </text>
  <text y="417.011" x="1007.83" font-size="25.215" font-family="Arial" fill="black">0% &#x430;&#x442;&#x43C;&#x43E;&#x441;&#x444;&#x435;&#x440;&#x43D;&#x43E;&#x433;&#x43E; </text>
  <text y="447.997" x="855.409" font-size="25.215" font-family="Arial" fill="black">&#x43E;&#x437;&#x43E;&#x43D;&#x430;</text>
  <text y="476.166" x="869.853" font-size="25.215" font-family="Arial" fill="black">&#x41D;&#x435;&#x433;&#x430;&#x442;&#x438;&#x432;&#x43D;&#x43E;&#x435; &#x432;&#x43E;&#x437;&#x434;&#x435;&#x439;&#x441;&#x442;&#x432;&#x438;&#x435;: </text>
  <text y="507.152" x="855.409" font-size="25.215" font-family="Arial" fill="black">&#x442;&#x43E;&#x43A;&#x441;&#x438;&#x447;&#x435;&#x43D; &#x434;&#x43B;&#x44F; &#x43B;&#x44E;&#x434;&#x435;&#x439; &#x438; &#x440;&#x430;&#x441;&#x442;&#x435;&#x43D;&#x438;&#x439;</text>
  <text y="535.321" x="869.853" font-size="25.215" font-family="Arial" fill="black">&#x422;&#x435;&#x43A;&#x443;&#x449;&#x438;&#x435; &#x43F;&#x440;&#x43E;&#x431;&#x43B;&#x435;&#x43C;&#x44B;:</text>
  <text y="563.49" x="906.143" font-size="25.215" font-family="Arial" fill="black">&#x41F;&#x43E;&#x432;&#x44B;&#x448;&#x435;&#x43D;&#x438;&#x435; &#x43A;&#x43E;&#x43D;&#x446;&#x435;&#x43D;&#x442;&#x440;&#x430;&#x446;&#x438;&#x438; </text>
  <text y="594.476" x="855.409" font-size="25.215" font-family="Arial" fill="black">&#x43F;&#x43E;&#x432;&#x435;&#x440;&#x445;&#x43D;&#x43E;&#x441;&#x442;&#x43D;&#x43E;&#x433;&#x43E; &#x43E;&#x437;&#x43E;&#x43D;&#x430; &#x432; &#x433;&#x43E;&#x440;&#x43E;&#x434;-</text>
  <text y="625.462" x="855.409" font-size="25.215" font-family="Arial" fill="black">&#x441;&#x43A;&#x438;&#x445; &#x438; &#x441;&#x435;&#x43B;&#x44C;&#x441;&#x43A;&#x438;&#x445; &#x440;&#x430;&#x439;&#x43E;&#x43D;&#x430;&#x445;</text>
  <text y="417.011" x="993.803" font-size="25.215" font-family="Arial" fill="black">1</text>
  <path fill-rule="nonzero" d="m231.48 561.57v-29.032c0-5.3431 6.4516-9.6771 14.406-9.6771h212.66c7.9546 0 14.406 4.334 14.406 9.6771v29.032c0 5.3431-6.4516 9.6771-14.406 9.6771h-124.44l-165.3 55.299c36.988-18.433 73.977-36.866 110.97-55.299h-33.888c-7.9546 0-14.406-4.334-14.406-9.6771zm0-14.516m4.2196-21.358m116.52-2.835m116.52 2.835m4.2203 21.358m-4.2203 21.358m-72.406 2.835m-144.87 27.649m-27.166 0m38.539-27.649m-27.13-2.835" fill="#fff"/>
  <text y="556.101" x="242.485" font-size="31.053" font-family="Arial" fill="black">&#x421;</text>
  <text y="556.101" x="264.903" font-size="31.053" font-family="Arial" fill="black">&#x43C;</text>
  <text y="556.101" x="286.246" font-size="31.053" font-family="Arial" fill="black">&#x43E;</text>
  <text y="556.101" x="303.51" font-size="31.053" font-family="Arial" fill="black">&#x433;</text>
  <text y="556.101" x="314.144" font-size="31.053" font-family="Arial" fill="black">&#x43E;</text>
  <text y="556.101" x="331.408" font-size="31.053" font-family="Arial" fill="black">&#x432;</text>
  <text y="556.101" x="347.901" font-size="31.053" font-family="Arial" fill="black">&#x44B;</text>
  <text y="556.101" x="370.216" font-size="31.053" font-family="Arial" fill="black">&#x439; </text>
  <text y="556.101" x="396.102" font-size="31.053" font-family="Arial" fill="black">&#x43E;</text>
  <text y="556.101" x="413.019" font-size="31.053" font-family="Arial" fill="black">&#x437;</text>
  <text y="556.101" x="426.903" font-size="31.053" font-family="Arial" fill="black">&#x43E;</text>
  <text y="556.101" x="444.167" font-size="31.053" font-family="Arial" fill="black">&#x43D;</text>
  <rect rx="21.889" ry="21.889" height="55.299" width="322.58" y="450.28" x="482.92" fill="#fff"/>
  <text y="487.731" x="497.008" font-size="31.053" font-family="Arial" fill="black">&#x422;&#x440;&#x43E;&#x43F;&#x43E;&#x441;&#x444;&#x435;&#x440;&#x43D;&#x44B;&#x439; </text>
  <text y="487.731" x="723.874" font-size="31.053" font-family="Arial" fill="black">&#x43E;&#x437;&#x43E;&#x43D;</text>
  <g id="_50794040">
   <rect id="_50803632" rx="21.889" ry="21.889" height="85.252" width="322.58" y="127.71" x="471.61" fill="#fff"/>
   <text id="_50799232" font-size="31.053" y="162.112" x="479.481" font-family="Arial" fill="black">&#x421;</text>
   <text id="_50799232" font-size="31.053" y="162.112" x="501.909" font-family="Arial" fill="black">&#x442;</text>
   <text id="_50799232" font-size="31.053" y="162.112" x="516.134" font-family="Arial" fill="black">&#x440;</text>
   <text id="_50799232" font-size="31.053" y="162.112" x="533.408" font-family="Arial" fill="black">&#x430;</text>
   <text id="_50799232" font-size="31.053" y="162.112" x="549.999" font-family="Arial" fill="black">&#x442;</text>
   <text id="_50799232" font-size="31.053" y="162.112" x="563.877" font-family="Arial" fill="black">&#x43E;</text>
   <text id="_50799232" font-size="31.053" y="162.112" x="581.151" font-family="Arial" fill="black">&#x441;</text>
   <text id="_50799232" font-size="31.053" y="162.112" x="596.681" font-family="Arial" fill="black">&#x444;</text>
   <text id="_50799232" font-size="31.053" y="162.112" x="622.235" font-family="Arial" fill="black">&#x435;</text>
   <text id="_50799232" font-size="31.053" y="162.112" x="639.509" font-family="Arial" fill="black">&#x440;</text>
   <text id="_50799232" font-size="31.053" y="162.112" x="656.782" font-family="Arial" fill="black">&#x43D;</text>
   <text id="_50799232" font-size="31.053" y="162.112" x="673.932" font-family="Arial" fill="black">&#x44B;</text>
   <text id="_50799232" font-size="31.053" y="162.112" x="696.257" font-family="Arial" fill="black">&#x439; </text>
   <text id="_50799232" font-size="31.053" y="162.112" x="722.13" font-family="Arial" fill="black">&#x43E;</text>
   <text id="_50799232" font-size="31.053" y="162.112" x="739.057" font-family="Arial" fill="black">&#x437;</text>
   <text id="_50799232" font-size="31.053" y="162.112" x="752.951" font-family="Arial" fill="black">&#x43E;</text>
   <text id="_50799232" font-size="31.053" y="162.112" x="770.225" font-family="Arial" fill="black">&#x43D;</text>
   <text id="_50794064" font-size="31.053" y="198.013" x="520.741" font-family="Arial" fill="black">(&#x43E;&#x437;&#x43E;&#x43D;&#x43E;&#x432;&#x44B;&#x439; </text>
   <text id="_50794064" font-size="31.053" y="198.013" x="678.43" font-family="Arial" fill="black">&#x441;&#x43B;&#x43E;&#x439;</text>
   <text id="_50794064" font-size="31.053" y="198.013" x="744.246" font-family="Arial" fill="black">)</text>
  </g>
 </g>
<metadata><rdf:RDF><cc:Work><dc:format>image/svg+xml</dc:format><dc:type rdf:resource="http://purl.org/dc/dcmitype/StillImage"/><cc:license rdf:resource="http://creativecommons.org/licenses/publicdomain/"/><dc:publisher><cc:Agent rdf:about="http://openclipart.org/"><dc:title>Openclipart</dc:title></cc:Agent></dc:publisher></cc:Work><cc:License rdf:about="http://creativecommons.org/licenses/publicdomain/"><cc:permits rdf:resource="http://creativecommons.org/ns#Reproduction"/><cc:permits rdf:resource="http://creativecommons.org/ns#Distribution"/><cc:permits rdf:resource="http://creativecommons.org/ns#DerivativeWorks"/></cc:License></rdf:RDF></metadata></svg>
