<?xml version="1.0"?>
<svg xmlns:rdf="http://www.w3.org/1999/02/22-rdf-syntax-ns#" xmlns="http://www.w3.org/2000/svg" xmlns:cc="http://creativecommons.org/ns#" xmlns:xlink="http://www.w3.org/1999/xlink" xmlns:dc="http://purl.org/dc/elements/1.1/" id="svg1901" height="780" width="1650" version="1.0">
 <defs id="defs1903">
  <linearGradient id="linearGradient3281" y2="1488.4" gradientUnits="userSpaceOnUse" x2="821.71" gradientTransform="translate(-18,-354)" y1="1488.4" x1="778.64">
   <stop id="stop3263" stop-color="#ce519f" stop-opacity="0" offset="0"/>
   <stop id="stop3269" stop-color="#ce519f" offset=".079519"/>
   <stop id="stop3271" stop-color="#2a3382" offset=".26078"/>
   <stop id="stop3273" stop-color="#66cbd7" offset=".43553"/>
   <stop id="stop3275" stop-color="#1ab24e" offset=".59753"/>
   <stop id="stop3277" stop-color="#f8ea29" offset=".75523"/>
   <stop id="stop3279" stop-color="#e3281f" offset=".91286"/>
   <stop id="stop3265" stop-color="#e3281f" stop-opacity="0" offset="1"/>
  </linearGradient>
  <linearGradient id="linearGradient3309" y2="1752.6" gradientUnits="userSpaceOnUse" x2="536.99" gradientTransform="translate(-18,-354)" y1="1478.8" x1="536.99">
   <stop id="stop3305" stop-color="#c39a30" offset="0"/>
   <stop id="stop3307" stop-color="#908032" offset="1"/>
  </linearGradient>
  <linearGradient id="linearGradient3555" y2="1005.4" gradientUnits="userSpaceOnUse" x2="533.22" gradientTransform="matrix(.95427 0 0 1 232.66 402.43)" y1="479.93" x1="533.22">
   <stop id="stop3551" stop-color="#c7e5ef" offset="0"/>
   <stop id="stop3553" stop-color="#18bff3" offset="1"/>
  </linearGradient>
 </defs>
 <g id="layer1" transform="translate(-117.86 -756.43)">
  <path id="path3317" stroke-linejoin="round" d="m286.72 1406.3h-18.04" stroke="#000" stroke-width="2" fill="none"/>
  <path id="path3313" stroke-linejoin="round" d="m286.72 1127.7h-18.04" stroke="#000" stroke-width="2" fill="none"/>
  <path id="path3319" stroke-linejoin="round" d="m286.72 1267h-18.04" stroke="#000" stroke-width="2" fill="none"/>
  <rect id="rect3537" fill-rule="evenodd" height="523.48" width="1467.5" y="883.37" x="284.21" fill="url(#linearGradient3555)"/>
  <path id="path3259" d="m762.18 883.22h40.53v450.88c-2.02 2-4.58-0.7-6.6 10.9-2.37 21.4-9.57 53.4-24.65 35.2-7.18-6.5-3.9-50.3-5.17-77.9-0.5-44.5 0.33-90.1-4.65-131l0.54-288.08z" fill-rule="evenodd" fill="url(#linearGradient3281)"/>
  <rect id="rect3557" stroke-linejoin="round" height="523.48" width="1467.5" stroke="#000" stroke-linecap="round" y="883.37" x="284.21" stroke-width="2" fill="none"/>
  <path id="path3395" stroke-linejoin="round" d="m420.1 896.87l31.83-13.29 6.43 13.29-2.25 1.29-6.11 0.43" fill-rule="evenodd" stroke="#000" stroke-linecap="round" stroke-width="2" fill="#fff"/>
  <path id="path3539" stroke-linejoin="round" d="m526.42 812.63l37.94-7.51-8.79 7.51-31.51 3 2.36-3z" fill-rule="evenodd" stroke="#000" stroke-linecap="round" stroke-width="2" fill="#c2c2c2"/>
  <path id="path3541" stroke-linejoin="round" d="m554.72 813.06l-33.87 2.14-6.01 7.29 35.38-3.86 4.5-5.57z" fill-rule="evenodd" stroke="#000" stroke-linecap="round" stroke-width="2" fill="#c2c2c2"/>
  <path id="path3543" stroke-linejoin="round" d="m548.07 819.92l-9.43 6.64-33.23 1.72 10.08-6.44 32.58-1.92z" fill-rule="evenodd" stroke="#000" stroke-linecap="round" stroke-width="2" fill="#c2c2c2"/>
  <path id="path3545" stroke-linejoin="round" d="m538.85 826.56l-7.28 7.5-27.87 0.65 0.43-6.43 34.72-1.72z" fill-rule="evenodd" stroke="#000" stroke-linecap="round" stroke-width="2" fill="#c2c2c2"/>
  <path id="path3297" stroke-linejoin="round" d="m1037.2 884.23l1 19.45-7.3 1.51-7.1-20.7 13.4-0.26z" fill-rule="evenodd" stroke="#000" stroke-width="2" fill="#d6d6d6"/>
  <path id="path3291" stroke-linejoin="round" d="m1081.3 892.15c-3.2 9.25-11.9 15.21-24.7 18.75-5.6-0.33-12.3-1.95-21.2-6.07l0.5-11.97c15.3-0.44 39.2-12.43 45.4-0.71z" fill-rule="evenodd" stroke="#000" stroke-width="2" fill="#fff"/>
  <path id="path3283" stroke-linejoin="round" d="m1074.6 877.16l4.7 12.88-11.6 11.37-18.9 4.04-13.6-13.39-0.6-5.05 40-9.85z" fill-rule="evenodd" stroke="#000" stroke-width="2" fill="#fff"/>
  <path id="path3238" stroke-linejoin="round" d="m1339.7 1383.8c13.8 6.9 30.7 14.7 33.6 22.9h17.4c4.2-10.5 20.3-16.1 31.3-23.7l-82.3 0.8z" fill-rule="evenodd" stroke="#000" stroke-linecap="round" stroke-width="2" fill="#fff"/>
  <path id="path3228" stroke-linejoin="round" d="m1241 959.6a35.103 10.607 0 1 1 -70.2 0 35.103 10.607 0 1 1 70.2 0z" fill-rule="evenodd" transform="matrix(1.7518 0 0 2.0833 -730.93 -630.95)" stroke="#000" stroke-linecap="round" stroke-width="1.0469" fill="#ededed"/>
  <path id="path3230" stroke-linejoin="round" d="m1333.9 1382.2l50.8-63 44.4 62.5" stroke="#000" stroke-linecap="round" stroke-width="2" fill="none"/>
  <path id="path3232" stroke-linejoin="round" d="m1384.7 1320.1l0.7 25.5" stroke="#000" stroke-linecap="round" stroke-width="2" fill="none"/>
  <path id="path3234" d="m1228.3 918.25a2.9673 2.9673 0 1 1 -6 0 2.9673 2.9673 0 1 1 6 0z" fill-rule="evenodd" transform="matrix(1.0851 0 0 1.0851 55.575 324.28)"/>
  <path id="path3236" d="m1222.8 964.18a2.0203 1.4837 0 1 1 -4.1 0 2.0203 1.4837 0 1 1 4.1 0z" fill-rule="evenodd" transform="matrix(1.8438 0 0 2.0426 -868.71 -601.42)"/>
  <path id="path3216" stroke-linejoin="round" d="m1751.4 1128.7l-1.7-0.6-191.2-0.5c-6.5-0.1-19.8 18.3-20.9 42.3-2.5 75.6-7.4 153.7-15.6 234.8l-260.5 1c-11.2-13.4-17.2-31.7-24.3-49-7.8-15.7-2.9-80.9-3.6-86.6-4-35.5-9.7-39.1-21.4 0.6-6.8 17.6-11.3 3.5-12.3-19.6-1.1-25.8 1.7-62.6-0.5-80.4-4.5-33.3-28-8.5-35 50.5-2 15.2-7.1 21.5-7.9 0-1.6-51.7-11.5-93.8-32.1-93.8l-130.76-0.6c-15.4 0-18.59 3.7-25.68 27-4.39 14.5-12.76 48-14.14 60.7-1.13 11.7-4.24 21.4-5.89 3.1-1.3-16.1-0.34-33.4-3.75-48.2-2.41-17.1-4.56-15-5.54 2.3l-6.07 127.3c-0.07 66.7-19.04 63.9-32.68 59.8-2.98-57.9-1.49-116.8-2.32-174.7 0.31-8.8-3.09-31.7-8.03-0.6-3.05 33-5.46 66-11.61 99-2 10.4-5.74 27.9-6.79 3.6-0.48-33.7-3.04-67.3-5.35-101-1.39-18.5-4.71-9.7-6.43-4.1-2 9.9-4.04 19.7-4.65 33l-4.64 136.3c-2.26-57.5-3.78-114.8-4.64-172.9-0.62-17.7-4.63-20.4-6.43-1.1-3.26 54.3-4.98 108.6-10.36 162.9l-7.68-55.4c-3.56 24.4-12.34 115.9-16.6 65.7-1.37-19.1-5.05-25.6-11.79 15.5-3.26 30.2-26.09 26-25.71-3.9 0.57-51.9-1.68-112.6-1.74-144.6-0.13-70.5-23.17-90.9-38.62-89.4l-359.64 0.8h-82.63v278.6h1467.2v-277.8z" fill-rule="evenodd" stroke="#000" stroke-linecap="round" stroke-width="2" fill="url(#linearGradient3309)"/>
  <path id="path3218" stroke-linejoin="round" d="m410.8 1425.6v-19.6" stroke="#000" stroke-width="2" fill="none"/>
  <path id="path3220" stroke-linejoin="round" d="m510.17 1425.6v-19.6" stroke="#000" stroke-width="2" fill="none"/>
  <path id="path3223" stroke-linejoin="round" d="m609.92 1425.6v-19.6" stroke="#000" stroke-width="2" fill="none"/>
  <path id="path3225" stroke-linejoin="round" d="m709.93 1425.6v-19.6" stroke="#000" stroke-width="2" fill="none"/>
  <path id="path3227" stroke-linejoin="round" d="m809.3 1425.6v-19.6" stroke="#000" stroke-width="2" fill="none"/>
  <path id="path3229" stroke-linejoin="round" d="m909.18 1425.6v-19.6" stroke="#000" stroke-width="2" fill="none"/>
  <path id="path3231" stroke-linejoin="round" d="m1008.4 1425.6v-19.6" stroke="#000" stroke-width="2" fill="none"/>
  <path id="path3233" stroke-linejoin="round" d="m1108.3 1425.6v-19.6" stroke="#000" stroke-width="2" fill="none"/>
  <path id="path3235" stroke-linejoin="round" d="m1208.1 1425.6v-19.6" stroke="#000" stroke-width="2" fill="none"/>
  <path id="path3237" stroke-linejoin="round" d="m1307.7 1425.6v-19.6" stroke="#000" stroke-width="2" fill="none"/>
  <path id="path3239" stroke-linejoin="round" d="m1407.3 1425.6v-19.6" stroke="#000" stroke-width="2" fill="none"/>
  <path id="path3241" stroke-linejoin="round" d="m1506.8 1425.6v-19.6" stroke="#000" stroke-width="2" fill="none"/>
  <path id="path3243" stroke-linejoin="round" d="m1606.4 1425.6v-19.6" stroke="#000" stroke-width="2" fill="none"/>
  <path id="path3245" stroke-linejoin="round" d="m1706.3 1425.6v-19.6" stroke="#000" stroke-width="2" fill="none"/>
  <path id="path3255" stroke-linejoin="round" d="m1067.5 853.04l14.5 4.11 3 9.82-22.1 18.93-34.3 1.96-5.2-12.68 16.5-26.78 27.6 4.64z" fill-rule="evenodd" stroke="#000" stroke-width="2" fill="#fff"/>
  <path id="path3257" stroke-linejoin="round" d="m1029.7 872.68l3.2 9.5-4.1 5.68-4.7-8.03 5.6-7.15z" fill-rule="evenodd" stroke="#000" stroke-width="2" fill="#d6d6d6"/>
  <path id="path3251" stroke-linejoin="round" d="m1055.9 784.23l4.8 35.1 5.5 6.57 2.5 28.53c1.7 15.15-26.8 23.89-37.3 11.12l-7.1-29.05c0.9-4.11 3.3-7.54 1.8-12.88l-8.9-40.65 38.7 1.26z" fill-rule="evenodd" stroke="#000" stroke-width="2" fill="#fff"/>
  <path id="path3247" stroke-linejoin="round" d="m1012.4 781.08l20 85-2.5 9.64-2.5 5.36 7.5 26.78 0.3 6.43-8.2-10.36-33.57-123.21 18.97 0.36z" fill-rule="evenodd" stroke="#000" stroke-width="2" fill="#fff"/>
  <path id="path3285" stroke-linejoin="round" d="m1046 887.52l2.3 16.41" stroke="#000" stroke-width="2" fill="none"/>
  <path id="path3287" stroke-linejoin="round" d="m1066.2 901.41l-3.8-16.42" stroke="#000" stroke-width="2" fill="none"/>
  <path id="path3289" stroke-linejoin="round" d="m1084 868.58l3.7 19.1-7.1 4.47-5.4-16.97" stroke="#000" stroke-width="2" fill="none"/>
  <path id="path3293" stroke-linejoin="round" d="m1048.1 904.83l-10.7 0.89" stroke="#000" stroke-width="2" fill="none"/>
  <path id="path3295" stroke-linejoin="round" d="m1043.6 905.36l-7.5-6.07" stroke="#000" stroke-width="2" fill="none"/>
  <path id="path3180" stroke-linejoin="round" d="m997.54 801.26l8.96 5.35 20.7 87.32 0.9 9.65-6.6-12.68-23.96-89.64z" fill-rule="evenodd" stroke="#000" stroke-linecap="round" stroke-width="2" fill="#d6d6d6"/>
  <path id="path2408" stroke-linejoin="round" d="m993.79 779.83l8.21 9.64h4.6l5.2-8.21-1.2-7.68-5.9-0.36-10.91 6.61z" fill-rule="evenodd" stroke="#000" stroke-linecap="round" stroke-width="2" fill="#fff"/>
  <path id="path3253" stroke-linejoin="round" d="m1036.4 787.26l15.7 83.59" stroke="#000" stroke-width="2" fill="none"/>
  <path id="path2406" stroke-linejoin="round" d="m905.71 382.21a24.286 11.786 0 1 1 -48.57 0 24.286 11.786 0 1 1 48.57 0z" fill-rule="evenodd" transform="matrix(.80889 .076504 -.050646 .53549 343.11 511.03)" stroke="#000" stroke-linecap="round" stroke-width="3.0254" fill="#c2c2c2"/>
  <path id="path3249" stroke-linejoin="round" d="m1007 788.58l22.1 88.21" stroke="#000" stroke-width="2" fill="none"/>
  <path id="path3547" stroke-linejoin="round" d="m528.99 834.71l-8.79 7.5-17.15-6.22 23.37-5.36 2.57 4.08z" fill-rule="evenodd" stroke="#000" stroke-linecap="round" stroke-width="2" fill="#c2c2c2"/>
  <path id="path3311" stroke-linejoin="round" d="m520.21 841.08l-26.78-14.65-15.72 0.72c-0.72-4.09 0.34-10.66-2.5-11.79l2.86-3.21 0.36-5.72-6.43-3.93-1.07 8.93c-3.81-2.32-7.62-1.26-11.43-0.35l-21.79 11.42c-4.33 2.39-6.5 4.05-6.07 6.43-2.14-1.2-4.28-1.74-6.43 0.36l-6.42 8.57 3.57-0.36-0.36 23.93 8.21 0.72c2.53 1.37 6.23 5.68 9.65 9.28l-1.43-3.93 29.28 15 12.5 5v2.86l6.79 2.86 3.93-1.43 6.78 6.43 14.29-1.79-3.21 5.36c1.07 3.6 3.68 3.53 7.14 1.43l4.28-4.64 6.79-1.08 0.71-6.42 1.43-2.15 4.82 0.18 0.54-5.89 7.5-7.14-1.79-6.79-2.5 1.79v-7.15l7.86-2.14-10.36-10.36-2.14 7.5-12.86-17.85z" fill-rule="evenodd" stroke="#000" stroke-width="2" fill="#fff"/>
  <path id="path3224" stroke-linejoin="round" d="m530.75 845.72l2.05 12.77c-7.23 8.16-20 8.64-27.94-0.54l1.78-12.41 24.11 0.18z" fill-rule="evenodd" stroke="#000" stroke-linecap="round" stroke-width="2" fill="#fff"/>
  <path id="path3323" stroke-linejoin="round" d="m500.04 827.33c1.47 5.79 4.18 11.72-3.04 16.6-15.34 2.01-21.52-1.71-25.54-6.78 1.04-5.99 2.24-10.14 3.75-10.89l24.83 1.07z" fill-rule="evenodd" stroke="#000" stroke-width="2" fill="#fff"/>
  <path id="path3325" stroke-linejoin="round" d="m470.93 812.15c5.22 5.25 2.92 11.92 0.71 18.57l-20.35 14.11" stroke="#000" stroke-width="2" fill="none"/>
  <path id="path3327" stroke-linejoin="round" d="m436.11 823.76c7-0.98 15.99-6.27 17.68 4.28 0.39 5.54-0.46 11.07-1.97 16.61l-6.61-0.18c-0.8-12.05-6.05-12.3-11.07-6.97l-2.85-0.35v-8.04" stroke="#000" stroke-width="2" fill="none"/>
  <path id="path3329" stroke-linejoin="round" d="m422.62 837.42h8.84l-0.89 24.55" stroke="#000" stroke-width="2" fill="none"/>
  <path id="path3331" stroke-linejoin="round" d="m471.73 837.15c-1.7 2.59-1.17 6.69-1.25 10.44" stroke="#000" stroke-width="2" fill="none"/>
  <path id="path3333" stroke-linejoin="round" d="m497.71 844.02c1.76 8.45-0.42 13.87-11.25 12.59" stroke="#000" stroke-width="2" fill="none"/>
  <path id="path2450" stroke-linejoin="round" d="m382.5 454a22.143 8.9286 0 1 1 -44.29 0 22.143 8.9286 0 1 1 44.29 0z" fill-rule="evenodd" transform="matrix(.53629 0 0 .77 325.44 496.23)" stroke="#000" stroke-linecap="round" stroke-width="3.1123" fill="#c2c2c2"/>
  <path id="path3222" stroke-linejoin="round" d="m382.5 454a22.143 8.9286 0 1 1 -44.29 0 22.143 8.9286 0 1 1 44.29 0z" fill-rule="evenodd" transform="matrix(.53629 0 0 .77 294.19 477.12)" stroke="#000" stroke-linecap="round" stroke-width="3.1123" fill="#c2c2c2"/>
  <path id="path3335" stroke-linejoin="round" d="m462.71 838.22l-1.42 5.89" fill-rule="evenodd" stroke="#000" stroke-width="2" fill="#fff"/>
  <path id="path3337" stroke-linejoin="round" d="m495.39 860.9l-5.71 4.1-33.22-18.74 6.97-2.68 31.96 17.32z" stroke="#000" stroke-width="2" fill="none"/>
  <path id="path3339" stroke-linejoin="round" d="m456.46 846.79l-1.78 19.29 33.21 17.32 1.61-18.04" stroke="#000" stroke-width="2" fill="none"/>
  <path id="path3341" stroke-linejoin="round" d="m475.57 857.86l-3.39 16.61" stroke="#000" stroke-width="2" fill="none"/>
  <path id="path3343" stroke-linejoin="round" d="m504.32 856.43l-3.03-0.89v19.46l5.17 6.08 6.61-4.47-0.53-4.28 4.28-4.47-0.18-3.03" stroke="#000" stroke-width="2" fill="none"/>
  <path id="path3345" stroke-linejoin="round" d="m516.82 867.68l5 2.86-0.18 5.89-8.03 0.9" stroke="#000" stroke-width="2" fill="none"/>
  <path id="path3347" stroke-linejoin="round" d="m506.82 881.61l-1.07 9.47-8.21 3.39v-15.36l3.57-4.64" stroke="#000" stroke-width="2" fill="none"/>
  <path id="path3349" stroke-linejoin="round" d="m498.96 875.9l-0.35-6.79h-4.11l-1.96 1.97-0.18 3.75 4.46 3.93 2.14-2.86z" stroke="#000" stroke-width="2" fill="none"/>
  <path id="path3351" stroke-linejoin="round" d="m489.14 875.72l2.86-0.18 5.18 16.61-0.36 4.64" stroke="#000" stroke-width="2" fill="none"/>
  <path id="path3353" stroke-linejoin="round" d="m537.54 863.76l-24.11 20.71-6.07-3.57" stroke="#000" stroke-width="2" fill="none"/>
  <path id="path3355" stroke-linejoin="round" d="m513.43 884.65l-0.54 11.43 25.18-24.82" stroke="#000" stroke-width="2" fill="none"/>
  <path id="path3357" stroke-linejoin="round" d="m520.39 890l4.11 7.5" stroke="#000" stroke-width="2" fill="none"/>
  <path id="path3359" stroke-linejoin="round" d="m536.46 873.93l2.86 4.47" stroke="#000" stroke-width="2" fill="none"/>
  <path id="path3361" stroke-linejoin="round" d="m376.64 866.08l55-3.04 4.29 4.82-59.29-1.78z" fill-rule="evenodd" stroke="#000" stroke-width="2" fill="#fff"/>
  <path id="path3363" stroke-linejoin="round" d="m232.14 460.16a9.5536 5.2679 0 1 1 -19.1 0 9.5536 5.2679 0 1 1 19.1 0z" fill-rule="evenodd" transform="matrix(.77235 -.29657 .30036 .59562 74.189 653.46)" stroke="#000" stroke-width="2.699" fill="#fff"/>
  <path id="path3365" stroke-linejoin="round" d="m383.88 861.34l-3.31-5.44" stroke="#000" stroke-linecap="round" stroke-width="2" fill="none"/>
  <path id="path3367" stroke-linejoin="round" d="m442.36 836.08l-6.07 5.71-3.93-3.57" stroke="#000" stroke-linecap="round" stroke-width="2" fill="none"/>
  <path id="path3369" stroke-linejoin="round" d="m436.2 842.33l8.84 7.67-0.27-5.53" stroke="#000" stroke-linecap="round" stroke-width="2" fill="none"/>
  <path id="path3371" stroke-linejoin="round" d="m445.39 849.74l0.09 9.37-9.91-16.43" stroke="#000" stroke-linecap="round" stroke-width="2" fill="none"/>
  <path id="path3373" stroke-linejoin="round" d="m432 845.81l3.12 0.09 3.13 21.69" stroke="#000" stroke-linecap="round" stroke-width="2" fill="none"/>
  <path id="path3375" stroke-linejoin="round" d="m442.18 869.2l-0.09-10 17.05 11.07-0.8 7.06" stroke="#000" stroke-linecap="round" stroke-width="2" fill="none"/>
  <path id="path3377" stroke-linejoin="round" d="m454.86 860.72l-8.93-1.88" stroke="#000" stroke-linecap="round" stroke-width="2" fill="none"/>
  <path id="path3379" stroke-linejoin="round" d="m532.48 859.61l-1.64 9.09" stroke="#000" stroke-linecap="round" stroke-width="2" fill="none"/>
  <path id="path3381" stroke-linejoin="round" d="m480.45 879.94l-0.37 7.7" stroke="#000" stroke-linecap="round" stroke-width="2" fill="none"/>
  <path id="path3383" stroke-linejoin="round" d="m487.15 893.07l0.75-8.84c2.84-1.99 3.07 2.39 2.91 7.71" stroke="#000" stroke-linecap="round" stroke-width="2" fill="none"/>
  <path id="path3385" stroke-linejoin="round" d="m469.34 874.26l-1.26 8.21" stroke="#000" stroke-linecap="round" stroke-width="2" fill="none"/>
  <path id="path3387" stroke-linejoin="round" d="m349.89 947.11l16.29-13.13 42.81 2.15-13.89 15.15-45.21-4.17z" fill-rule="evenodd" stroke="#000" stroke-linecap="round" stroke-width="2" fill="#c2c2c2"/>
  <path id="path3389" stroke-linejoin="round" d="m456.32 897.73l-40.94-0.43-12.43 8.04 42.44 1.39 10.93-9z" fill-rule="evenodd" stroke="#000" stroke-linecap="round" stroke-width="2" fill="#c2c2c2"/>
  <path id="path3391" stroke-linejoin="round" d="m400.16 906.95l-15.22 12.97 42.55 1.28 15.54-13.82-42.87-0.43z" fill-rule="evenodd" stroke="#000" stroke-linecap="round" stroke-width="2" fill="#c2c2c2"/>
  <path id="path3393" stroke-linejoin="round" d="m384.73 920.24l-18.01 12.65 42.44 3.1 17.15-14.36-41.58-1.39z" fill-rule="evenodd" stroke="#000" stroke-linecap="round" stroke-width="2" fill="#c2c2c2"/>
  <path id="path3397" stroke-linejoin="round" d="m451.29 883.26l10.71-9.11 4.93 1.93-14.14 8.57" fill-rule="evenodd" stroke="#000" stroke-linecap="round" stroke-width="2"/>
  <path id="path3399" stroke-linejoin="round" d="m494.91 862.47l6.22 4.39" stroke="#000" stroke-linecap="round" stroke-width="2" fill="none"/>
  <path id="path3401" stroke-linejoin="round" d="m522.24 872.22h4.4" stroke="#000" stroke-linecap="round" stroke-width="2" fill="none"/>
  <text id="text3403" xml:space="preserve" font-size="22px" y="998.69537" x="311.32672" font-family="Sans" line-height="129.99999522999999613%" fill="#000000">
      <tspan id="tspan3405" x="311.32672" y="998.69537">Gamma rays, X-rays and ultraviolet</tspan>
      <tspan id="tspan3407" x="311.32672" y="1027.2954">light blocked by the upper atmosphere</tspan>
      <tspan id="tspan3409" x="311.32672" y="1055.8954">(best observed from space).</tspan>
    </text>
  <text id="text3411" line-height="129.99999522999999613%" font-size="22px" y="960.47107" x="813.39807" font-family="Sans" xml:space="preserve" fill="#000000">
      <tspan id="tspan3417" y="960.47107" x="813.39807">Visible light</tspan>
      <tspan id="tspan3424" y="989.07104" x="813.39807">observable</tspan>
      <tspan id="tspan3426" y="1017.6711" x="813.39807">from Earth,</tspan>
      <tspan id="tspan3428" y="1046.2711" x="813.39807">with some</tspan>
      <tspan id="tspan3430" y="1074.8711" x="813.39807">atmospheric</tspan>
      <tspan id="tspan3432" y="1103.4711" x="813.39807">distortion.</tspan>
    </text>
  <text id="text3434" xml:space="preserve" font-size="22px" y="942.28162" x="989.22943" font-family="Sans" line-height="129.99999522999999613%" fill="#000000">
      <tspan id="tspan3446" x="989.22943" y="942.28162">Most of the</tspan>
      <tspan id="tspan3468" x="989.22943" y="970.88159">infrared spectrum</tspan>
      <tspan id="tspan3470" x="989.22943" y="999.48163">absorbed by</tspan>
      <tspan id="tspan3472" x="989.22943" y="1028.0817">atmospheric</tspan>
      <tspan id="tspan3474" x="989.22943" y="1056.6816">gasses (best</tspan>
      <tspan id="tspan3476" x="989.22943" y="1085.2816">observed</tspan>
      <tspan id="tspan3478" x="989.22943" y="1113.8816">from space).</tspan>
    </text>
  <text id="text3480" line-height="129.99999522999999613%" font-size="22px" y="979.87317" x="1241.3389" font-family="Sans" xml:space="preserve" fill="#000000">
      <tspan id="tspan3494" y="979.87317" x="1241.3389">Radio waves observable</tspan>
      <tspan id="tspan3523" y="1008.4731" x="1241.3389">from Earth.</tspan>
    </text>
  <text id="text3525" xml:space="preserve" font-size="22px" y="959.25842" x="1555.4099" font-family="Sans" line-height="129.99999522999999613%" fill="#000000">
      <tspan id="tspan3529" x="1555.4099" y="959.25842">Long-wavelength</tspan>
      <tspan id="tspan3533" x="1555.4099" y="987.8584">radio waves</tspan>
      <tspan id="tspan3535" x="1555.4099" y="1016.4584">blocked.</tspan>
    </text>
  <text id="text3559" style="text-anchor:end;text-align:end" xml:space="preserve" font-size="22px" y="1413.6995" x="263.53699" font-family="Sans" line-height="100%" fill="#000000">
      <tspan id="tspan3561" x="263.53699" y="1413.6995">0 %</tspan>
    </text>
  <text id="text3563" style="text-anchor:end;text-align:end" line-height="100%" font-size="22px" y="1275.4597" x="263.53699" font-family="Sans" xml:space="preserve" fill="#000000">
      <tspan id="tspan3565" y="1275.4597" x="263.53699">50 %</tspan>
    </text>
  <text id="text3567" style="text-anchor:end;text-align:end" xml:space="preserve" font-size="22px" y="1136.0073" x="263.53699" font-family="Sans" line-height="100%" fill="#000000">
      <tspan id="tspan3569" x="263.53699" y="1136.0073">100 %</tspan>
    </text>
  <text id="text3571" style="text-anchor:middle;text-align:center" xml:space="preserve" font-size="18px" y="1445.8341" x="410.26511" font-family="Sans" line-height="100%" fill="#000000">
      <tspan id="tspan3573" x="410.26511" y="1445.8341">0.1 nm</tspan>
    </text>
  <text id="text3575" style="text-anchor:middle;text-align:center" line-height="100%" font-size="18px" y="1445.8341" x="508.4881" font-family="Sans" xml:space="preserve" fill="#000000">
      <tspan id="tspan3577" y="1445.8341" x="508.4881">1 nm</tspan>
    </text>
  <text id="text3579" style="text-anchor:middle;text-align:center" xml:space="preserve" font-size="18px" y="1445.8341" x="610.349" font-family="Sans" line-height="100%" fill="#000000">
      <tspan id="tspan3581" x="610.349" y="1445.8341">10 nm</tspan>
    </text>
  <text id="text3583" style="text-anchor:middle;text-align:center" line-height="100%" font-size="18px" y="1445.8341" x="708.57196" font-family="Sans" xml:space="preserve" fill="#000000">
      <tspan id="tspan3585" y="1445.8341" x="708.57196">100 nm</tspan>
    </text>
  <text id="text3587" style="text-anchor:middle;text-align:center" xml:space="preserve" font-size="18px" y="1445.8341" x="809.22021" font-family="Sans" line-height="100%" fill="#000000">
      <tspan id="tspan3589" x="809.22021" y="1445.8341">1 &#xB5;m</tspan>
    </text>
  <text id="text3591" style="text-anchor:middle;text-align:center" line-height="100%" font-size="18px" y="1445.8341" x="909.86847" font-family="Sans" xml:space="preserve" fill="#000000">
      <tspan id="tspan3593" y="1445.8341" x="909.86847">10 &#xB5;m</tspan>
    </text>
  <text id="text3595" style="text-anchor:middle;text-align:center" xml:space="preserve" font-size="18px" y="1445.8341" x="1008.6978" font-family="Sans" line-height="100%" fill="#000000">
      <tspan id="tspan3597" x="1008.6978" y="1445.8341">100 &#xB5;m</tspan>
    </text>
  <text id="text3599" style="text-anchor:middle;text-align:center" line-height="100%" font-size="18px" y="1445.8341" x="1108.1334" font-family="Sans" xml:space="preserve" fill="#000000">
      <tspan id="tspan3601" y="1445.8341" x="1108.1334">1 mm</tspan>
    </text>
  <text id="text3603" style="text-anchor:middle;text-align:center" xml:space="preserve" font-size="18px" y="1445.8341" x="1208.4561" font-family="Sans" line-height="100%" fill="#000000">
      <tspan id="tspan3605" x="1208.4561" y="1445.8341">1 cm</tspan>
    </text>
  <text id="text3607" style="text-anchor:middle;text-align:center" line-height="100%" font-size="18px" y="1445.8341" x="1307.2854" font-family="Sans" xml:space="preserve" fill="#000000">
      <tspan id="tspan3609" y="1445.8341" x="1307.2854">10 cm</tspan>
    </text>
  <text id="text3611" style="text-anchor:middle;text-align:center" xml:space="preserve" font-size="18px" y="1445.8341" x="1406.1147" font-family="Sans" line-height="100%" fill="#000000">
      <tspan id="tspan3613" x="1406.1147" y="1445.8341">1 m</tspan>
    </text>
  <text id="text3615" style="text-anchor:middle;text-align:center" line-height="100%" font-size="18px" y="1445.8341" x="1507.3694" font-family="Sans" xml:space="preserve" fill="#000000">
      <tspan id="tspan3617" y="1445.8341" x="1507.3694">10 m</tspan>
    </text>
  <text id="text3619" style="text-anchor:middle;text-align:center" xml:space="preserve" font-size="18px" y="1445.8341" x="1606.1987" font-family="Sans" line-height="100%" fill="#000000">
      <tspan id="tspan3621" x="1606.1987" y="1445.8341">100 m</tspan>
    </text>
  <text id="text3623" style="text-anchor:middle;text-align:center" line-height="100%" font-size="18px" y="1445.8341" x="1706.2406" font-family="Sans" xml:space="preserve" fill="#000000">
      <tspan id="tspan3625" y="1445.8341" x="1706.2406">1 km</tspan>
    </text>
  <text id="text3627" xml:space="preserve" font-size="22px" y="1502.0374" x="923.91974" font-family="Sans" line-height="100%" fill="#000000">
      <tspan id="tspan3629" y="1502.0374" x="923.91974" font-weight="bold">Wavelength</tspan>
    </text>
  <text id="text3631" style="text-anchor:middle;text-align:center" line-height="100%" font-weight="bold" transform="rotate(-90)" font-size="22px" y="150.02792" x="-1265.9453" font-family="Sans" xml:space="preserve" fill="#000000">
      <tspan id="tspan3633" y="150.02792" x="-1265.9453">Atmospheric</tspan>
      <tspan id="tspan3635" y="172.02792" x="-1265.9453">opacity</tspan>
    </text>
 </g>
 <metadata>
  <rdf:RDF>
   <cc:Work>
    <dc:format>image/svg+xml</dc:format>
    <dc:type rdf:resource="http://purl.org/dc/dcmitype/StillImage"/>
    <cc:license rdf:resource="http://creativecommons.org/licenses/publicdomain/"/>
    <dc:publisher>
     <cc:Agent rdf:about="http://openclipart.org/">
      <dc:title>Openclipart</dc:title>
     </cc:Agent>
    </dc:publisher>
   </cc:Work>
   <cc:License rdf:about="http://creativecommons.org/licenses/publicdomain/">
    <cc:permits rdf:resource="http://creativecommons.org/ns#Reproduction"/>
    <cc:permits rdf:resource="http://creativecommons.org/ns#Distribution"/>
    <cc:permits rdf:resource="http://creativecommons.org/ns#DerivativeWorks"/>
   </cc:License>
  </rdf:RDF>
 </metadata>
</svg>
