<?xml version="1.0"?>
<svg xmlns:rdf="http://www.w3.org/1999/02/22-rdf-syntax-ns#" xmlns="http://www.w3.org/2000/svg" xmlns:cc="http://creativecommons.org/ns#" xmlns:dc="http://purl.org/dc/elements/1.1/" id="Layer_1" xml:space="preserve" overflow="visible" height="320.84" viewBox="0 0 274.996 320.83701" width="275" version="1.1" enable-background="new 0 0 300 340">
		<path id="path3" d="m84.788 129.36 4.304 1.083c-0.9 3.527-2.521 6.216-4.86 8.068s-5.199 2.778-8.579 2.778c-3.498 0-6.343-0.712-8.535-2.135-2.192-1.424-3.859-3.485-5.003-6.185s-1.716-5.599-1.716-8.698c0-3.377 0.646-6.325 1.937-8.84s3.129-4.425 5.513-5.731 5.008-1.959 7.871-1.959c3.247 0 5.978 0.827 8.192 2.479 2.214 1.653 3.756 3.977 4.627 6.972l-4.23 0.996c-0.753-2.359-1.847-4.078-3.279-5.154-1.433-1.076-3.235-1.615-5.406-1.615-2.496 0-4.583 0.598-6.258 1.792-1.676 1.194-2.854 2.798-3.534 4.811s-1.019 4.088-1.019 6.227c0 2.757 0.402 5.165 1.207 7.222 0.805 2.058 2.055 3.595 3.753 4.613 1.698 1.017 3.536 1.526 5.515 1.526 2.406 0 4.443-0.693 6.111-2.079 1.668-1.4 2.798-3.46 3.388-6.19z"/>
		<path id="path5" d="m147.17 93.457 4.305 1.083c-0.901 3.526-2.521 6.216-4.86 8.067-2.339 1.853-5.198 2.778-8.578 2.778-3.499 0-6.344-0.712-8.535-2.135-2.192-1.424-3.86-3.485-5.003-6.185s-1.716-5.599-1.716-8.697c0-3.378 0.646-6.324 1.937-8.84 1.292-2.515 3.129-4.426 5.513-5.731s5.008-1.959 7.871-1.959c3.248 0 5.979 0.827 8.193 2.479 2.213 1.653 3.755 3.977 4.627 6.973l-4.23 0.996c-0.753-2.359-1.847-4.078-3.279-5.154-1.433-1.076-3.234-1.615-5.405-1.615-2.497 0-4.583 0.598-6.259 1.792-1.676 1.195-2.854 2.799-3.534 4.812-0.679 2.013-1.019 4.088-1.019 6.227 0 2.757 0.402 5.165 1.207 7.222 0.805 2.058 2.055 3.595 3.753 4.612s3.536 1.526 5.514 1.526c2.406 0 4.443-0.692 6.111-2.079 1.69-1.39 2.81-3.45 3.4-6.18z"/>
		<path id="path7" d="m210.15 129.36 4.303 1.083c-0.9 3.527-2.52 6.216-4.858 8.068-2.34 1.852-5.2 2.778-8.579 2.778-3.499 0-6.344-0.712-8.535-2.135-2.192-1.424-3.858-3.485-5.003-6.185-1.144-2.7-1.716-5.599-1.716-8.698 0-3.377 0.646-6.325 1.937-8.84 1.292-2.515 3.13-4.425 5.514-5.731s5.007-1.959 7.87-1.959c3.248 0 5.979 0.827 8.192 2.479 2.215 1.653 3.756 3.977 4.627 6.972l-4.23 0.996c-0.753-2.359-1.846-4.078-3.277-5.154-1.434-1.076-3.235-1.615-5.407-1.615-2.495 0-4.581 0.598-6.257 1.792-1.678 1.194-2.854 2.798-3.535 4.811-0.678 2.013-1.019 4.088-1.019 6.227 0 2.757 0.402 5.165 1.207 7.222 0.805 2.058 2.056 3.595 3.753 4.613 1.698 1.017 3.536 1.526 5.515 1.526 2.405 0 4.443-0.693 6.111-2.079s2.81-3.46 3.4-6.19z"/>
		<path id="path9" d="m84.788 201.76 4.304 1.083c-0.9 3.526-2.521 6.216-4.86 8.068-2.339 1.851-5.199 2.777-8.579 2.777-3.498 0-6.343-0.712-8.535-2.136-2.192-1.423-3.859-3.484-5.003-6.184s-1.716-5.6-1.716-8.698c0-3.378 0.646-6.324 1.937-8.84s3.129-4.426 5.513-5.731 5.008-1.959 7.871-1.959c3.247 0 5.978 0.827 8.192 2.479 2.214 1.653 3.756 3.978 4.627 6.974l-4.23 0.994c-0.753-2.358-1.847-4.077-3.279-5.153-1.433-1.077-3.235-1.615-5.406-1.615-2.496 0-4.583 0.598-6.258 1.792-1.676 1.194-2.854 2.798-3.534 4.812-0.679 2.013-1.019 4.089-1.019 6.227 0 2.757 0.402 5.165 1.207 7.222 0.805 2.058 2.055 3.596 3.753 4.613s3.536 1.525 5.515 1.525c2.406 0 4.443-0.692 6.111-2.078 1.668-1.38 2.798-3.44 3.388-6.16z"/>
		<path id="path11" d="m210.15 201.17 4.303 1.083c-0.9 3.526-2.52 6.217-4.858 8.068-2.34 1.852-5.2 2.777-8.579 2.777-3.499 0-6.344-0.711-8.535-2.135-2.192-1.423-3.858-3.484-5.003-6.186-1.144-2.699-1.716-5.599-1.716-8.696 0-3.378 0.646-6.324 1.937-8.84 1.292-2.516 3.13-4.426 5.514-5.732 2.384-1.305 5.007-1.958 7.87-1.958 3.248 0 5.979 0.825 8.192 2.479 2.215 1.653 3.756 3.977 4.627 6.973l-4.23 0.995c-0.753-2.359-1.846-4.077-3.277-5.153-1.434-1.077-3.235-1.615-5.407-1.615-2.495 0-4.581 0.598-6.257 1.791-1.678 1.195-2.854 2.799-3.535 4.812-0.678 2.012-1.019 4.088-1.019 6.226 0 2.758 0.402 5.166 1.207 7.222 0.805 2.058 2.056 3.597 3.753 4.613 1.698 1.018 3.536 1.525 5.515 1.525 2.405 0 4.443-0.691 6.111-2.079 1.68-1.37 2.81-3.42 3.4-6.15z"/>
		<path id="path13" d="m147.17 237.66 4.305 1.085c-0.901 3.525-2.521 6.215-4.86 8.067s-5.198 2.778-8.578 2.778c-3.499 0-6.344-0.713-8.535-2.137-2.192-1.423-3.86-3.484-5.003-6.185-1.144-2.699-1.716-5.598-1.716-8.697 0-3.378 0.646-6.324 1.937-8.84 1.292-2.515 3.129-4.426 5.513-5.73 2.384-1.307 5.008-1.96 7.871-1.96 3.248 0 5.979 0.828 8.193 2.48 2.213 1.652 3.755 3.976 4.627 6.973l-4.23 0.995c-0.753-2.359-1.847-4.078-3.279-5.154s-3.234-1.615-5.405-1.615c-2.497 0-4.583 0.598-6.259 1.793-1.676 1.193-2.854 2.798-3.534 4.811-0.679 2.014-1.019 4.089-1.019 6.227 0 2.757 0.402 5.165 1.207 7.223s2.055 3.595 3.753 4.611c1.698 1.018 3.536 1.527 5.514 1.527 2.406 0 4.443-0.693 6.111-2.079 1.69-1.39 2.81-3.45 3.4-6.17z"/>
	<rect id="rect15" y="167.96" x="187.93" width="2.796" height="6.915"/>
		<rect id="rect17" y="145.74" x="73.753" width="2.796" height="29.133"/>
		<rect id="rect19" y="145.74" x="198.53" width="2.796" height="29.133"/>
			<rect id="rect21" y="145.74" x="187.93" width="2.796" height="6.915"/>
			<rect id="rect23" y="156.85" x="187.93" width="2.796" height="6.915"/>
			<rect id="rect25" y="167.96" x="187.93" width="2.796" height="6.915"/>
			<rect id="rect27" y="145.74" x="84.347" width="2.795" height="6.915"/>
			<rect id="rect29" y="156.85" x="84.347" width="2.795" height="6.915"/>
			<rect id="rect31" y="167.96" x="84.347" width="2.795" height="6.915"/>
		<rect id="rect33" y="253.74" x="136.43" width="2.795" height="29.134"/>
		<rect id="rect35" y="38.33" x="136.43" width="2.795" height="29.133"/>
		<path id="path37" d="m0 249.03v-32.445h4.304v13.317h16.847v-13.317h4.304v32.445h-4.304v-15.3h-16.847v15.303h-4.304z"/>
		<path id="path39" d="m0 104.84v-32.448h4.304v13.316h16.847v-13.316h4.304v32.444h-4.304v-15.308h-16.847v15.303h-4.304z"/>
			<path id="path41" d="m249.54 249.03v-32.445h4.304v13.317h16.847v-13.317h4.305v32.445h-4.305v-15.303h-16.847v15.303h-4.31z"/>
			<path id="path43" d="m249.54 104.84v-32.448h4.304v13.316h16.847v-13.316h4.305v32.444h-4.305v-15.308h-16.847v15.303h-4.31z"/>
		<path id="path45" d="m125.36 320.84v-32.442h4.303v13.314h16.847v-13.314h4.304v32.442h-4.304v-15.302h-16.847v15.302h-4.3z"/>
		<path id="path47" d="m125.36 32.444v-32.444h4.304v13.316h16.847v-13.316h4.304v32.444h-4.304v-15.302h-16.847v15.302h-4.3z"/>
			<rect id="rect49" transform="rotate(240.01)" height="29.134" width="2.795" y="23.992" x="-271.64"/>
		<rect id="rect51" transform="rotate(240)" height="29.132" width="2.7949" y="23.947" x="-146.87"/>
				<rect id="rect53" transform="rotate(239.99)" height="6.9162" width="2.7961" y="23.929" x="-157.45"/>
				<rect id="rect55" transform="rotate(240.01)" height="6.9151" width="2.796" y="35.073" x="-157.45"/>
			<rect id="rect57" transform="rotate(239.99)" height="6.9152" width="2.7961" y="46.145" x="-157.46"/>
				<rect id="rect59" transform="rotate(239.99)" height="6.9159" width="2.796" y="23.884" x="-261.05"/>
				<rect id="rect61" transform="rotate(240.02)" height="6.9164" width="2.7961" y="35.143" x="-261.02"/>
				<rect id="rect63" transform="rotate(240.03)" height="6.9149" width="2.796" y="46.313" x="-261.02"/>
			<rect id="rect65" transform="rotate(240.02)" height="29.133" width="2.795" y="132.01" x="-208.9"/>
			<rect id="rect67" transform="rotate(240.01)" height="29.132" width="2.795" y="-83.425" x="-208.97"/>
		<rect id="rect69" transform="rotate(120)" height="29.133" width="2.7949" y="-214.27" x="6.5271"/>
			<rect id="rect71" transform="rotate(119.99)" height="29.133" width="2.795" y="-214.26" x="131.34"/>
				<rect id="rect73" transform="rotate(119.99)" height="6.9151" width="2.795" y="-214.26" x="120.75"/>
				<rect id="rect75" transform="rotate(119.99)" height="6.9161" width="2.796" y="-203.14" x="120.74"/>
				<rect id="rect77" transform="rotate(119.99)" height="6.9151" width="2.796" y="-192.04" x="120.74"/>
				<rect id="rect79" transform="rotate(119.98)" height="6.916" width="2.795" y="-214.26" x="17.196"/>
			<rect id="rect81" transform="rotate(120.01)" height="6.9162" width="2.7961" y="-203.17" x="17.116"/>
				<rect id="rect83" transform="rotate(119.97)" height="6.9153" width="2.7951" y="-192.04" x="17.224"/>
			<rect id="rect85" transform="rotate(120.01)" height="29.132" width="2.796" y="-106.29" x="69.189"/>
			<rect id="rect87" transform="rotate(119.99)" height="29.134" width="2.795" y="-321.68" x="69.264"/>
<metadata><rdf:RDF><cc:Work><dc:format>image/svg+xml</dc:format><dc:type rdf:resource="http://purl.org/dc/dcmitype/StillImage"/><cc:license rdf:resource="http://creativecommons.org/licenses/publicdomain/"/><dc:publisher><cc:Agent rdf:about="http://openclipart.org/"><dc:title>Openclipart</dc:title></cc:Agent></dc:publisher></cc:Work><cc:License rdf:about="http://creativecommons.org/licenses/publicdomain/"><cc:permits rdf:resource="http://creativecommons.org/ns#Reproduction"/><cc:permits rdf:resource="http://creativecommons.org/ns#Distribution"/><cc:permits rdf:resource="http://creativecommons.org/ns#DerivativeWorks"/></cc:License></rdf:RDF></metadata></svg>
