<?xml version="1.0"?>
<svg xmlns:rdf="http://www.w3.org/1999/02/22-rdf-syntax-ns#" xmlns="http://www.w3.org/2000/svg" xmlns:cc="http://web.resource.org/cc/" xmlns:xlink="http://www.w3.org/1999/xlink" xmlns:dc="http://purl.org/dc/elements/1.1/" id="Layer_1" xml:space="preserve" overflow="visible" height="340" viewBox="0 0 300 340" width="300" version="1.1" enable-background="new 0 0 300 340">
		<path d="m97.288 138.94l4.304 1.083c-0.9 3.527-2.521 6.216-4.86 8.068s-5.199 2.778-8.579 2.778c-3.498 0-6.343-0.712-8.535-2.135-2.192-1.424-3.859-3.485-5.003-6.185s-1.716-5.599-1.716-8.698c0-3.377 0.646-6.325 1.937-8.84s3.129-4.425 5.513-5.731 5.008-1.959 7.871-1.959c3.247 0 5.978 0.827 8.192 2.479 2.214 1.653 3.756 3.977 4.627 6.972l-4.23 0.996c-0.753-2.359-1.847-4.078-3.279-5.154-1.433-1.076-3.235-1.615-5.406-1.615-2.496 0-4.583 0.598-6.258 1.792-1.676 1.194-2.854 2.798-3.534 4.811s-1.019 4.088-1.019 6.227c0 2.757 0.402 5.165 1.207 7.222 0.805 2.058 2.055 3.595 3.753 4.613 1.698 1.017 3.536 1.526 5.515 1.526 2.406 0 4.443-0.693 6.111-2.079 1.668-1.4 2.798-3.46 3.388-6.19z"/>
		<path d="m159.67 103.04l4.305 1.083c-0.901 3.526-2.521 6.216-4.86 8.067-2.339 1.853-5.198 2.778-8.578 2.778-3.499 0-6.344-0.712-8.535-2.135-2.192-1.424-3.86-3.485-5.003-6.185s-1.716-5.599-1.716-8.697c0-3.378 0.646-6.324 1.937-8.84 1.292-2.515 3.129-4.426 5.513-5.731s5.008-1.959 7.871-1.959c3.248 0 5.979 0.827 8.193 2.479 2.213 1.653 3.755 3.977 4.627 6.973l-4.23 0.996c-0.753-2.359-1.847-4.078-3.279-5.154-1.433-1.076-3.234-1.615-5.405-1.615-2.497 0-4.583 0.598-6.259 1.792-1.676 1.195-2.854 2.799-3.534 4.812-0.679 2.013-1.019 4.088-1.019 6.227 0 2.757 0.402 5.165 1.207 7.222 0.805 2.058 2.055 3.595 3.753 4.612s3.536 1.526 5.514 1.526c2.406 0 4.443-0.692 6.111-2.079 1.69-1.39 2.81-3.45 3.4-6.18z"/>
		<path d="m222.65 138.94l4.303 1.083c-0.9 3.527-2.52 6.216-4.858 8.068-2.34 1.852-5.2 2.778-8.579 2.778-3.499 0-6.344-0.712-8.535-2.135-2.192-1.424-3.858-3.485-5.003-6.185-1.144-2.7-1.716-5.599-1.716-8.698 0-3.377 0.646-6.325 1.937-8.84 1.292-2.515 3.13-4.425 5.514-5.731s5.007-1.959 7.87-1.959c3.248 0 5.979 0.827 8.192 2.479 2.215 1.653 3.756 3.977 4.627 6.972l-4.23 0.996c-0.753-2.359-1.846-4.078-3.277-5.154-1.434-1.076-3.235-1.615-5.407-1.615-2.495 0-4.581 0.598-6.257 1.792-1.678 1.194-2.854 2.798-3.535 4.811-0.678 2.013-1.019 4.088-1.019 6.227 0 2.757 0.402 5.165 1.207 7.222 0.805 2.058 2.056 3.595 3.753 4.613 1.698 1.017 3.536 1.526 5.515 1.526 2.405 0 4.443-0.693 6.111-2.079s2.81-3.46 3.4-6.19z"/>
		<path d="m97.288 211.34l4.304 1.083c-0.9 3.526-2.521 6.216-4.86 8.068-2.339 1.851-5.199 2.777-8.579 2.777-3.498 0-6.343-0.712-8.535-2.136-2.192-1.423-3.859-3.484-5.003-6.184s-1.716-5.6-1.716-8.698c0-3.378 0.646-6.324 1.937-8.84s3.129-4.426 5.513-5.731 5.008-1.959 7.871-1.959c3.247 0 5.978 0.827 8.192 2.479 2.214 1.653 3.756 3.978 4.627 6.974l-4.23 0.994c-0.753-2.358-1.847-4.077-3.279-5.153-1.433-1.077-3.235-1.615-5.406-1.615-2.496 0-4.583 0.598-6.258 1.792-1.676 1.194-2.854 2.798-3.534 4.812-0.679 2.013-1.019 4.089-1.019 6.227 0 2.757 0.402 5.165 1.207 7.222 0.805 2.058 2.055 3.596 3.753 4.613s3.536 1.525 5.515 1.525c2.406 0 4.443-0.692 6.111-2.078 1.668-1.38 2.798-3.44 3.388-6.16z"/>
		<path d="m222.65 210.75l4.303 1.083c-0.9 3.526-2.52 6.217-4.858 8.068-2.34 1.852-5.2 2.777-8.579 2.777-3.499 0-6.344-0.711-8.535-2.135-2.192-1.423-3.858-3.484-5.003-6.186-1.144-2.699-1.716-5.599-1.716-8.696 0-3.378 0.646-6.324 1.937-8.84 1.292-2.516 3.13-4.426 5.514-5.732 2.384-1.305 5.007-1.958 7.87-1.958 3.248 0 5.979 0.825 8.192 2.479 2.215 1.653 3.756 3.977 4.627 6.973l-4.23 0.995c-0.753-2.359-1.846-4.077-3.277-5.153-1.434-1.077-3.235-1.615-5.407-1.615-2.495 0-4.581 0.598-6.257 1.791-1.678 1.195-2.854 2.799-3.535 4.812-0.678 2.012-1.019 4.088-1.019 6.226 0 2.758 0.402 5.166 1.207 7.222 0.805 2.058 2.056 3.597 3.753 4.613 1.698 1.018 3.536 1.525 5.515 1.525 2.405 0 4.443-0.691 6.111-2.079 1.68-1.37 2.81-3.42 3.4-6.15z"/>
		<path d="m159.67 247.24l4.305 1.085c-0.901 3.525-2.521 6.215-4.86 8.067s-5.198 2.778-8.578 2.778c-3.499 0-6.344-0.713-8.535-2.137-2.192-1.423-3.86-3.484-5.003-6.185-1.144-2.699-1.716-5.598-1.716-8.697 0-3.378 0.646-6.324 1.937-8.84 1.292-2.515 3.129-4.426 5.513-5.73 2.384-1.307 5.008-1.96 7.871-1.96 3.248 0 5.979 0.828 8.193 2.48 2.213 1.652 3.755 3.976 4.627 6.973l-4.23 0.995c-0.753-2.359-1.847-4.078-3.279-5.154s-3.234-1.615-5.405-1.615c-2.497 0-4.583 0.598-6.259 1.793-1.676 1.193-2.854 2.798-3.534 4.811-0.679 2.014-1.019 4.089-1.019 6.227 0 2.757 0.402 5.165 1.207 7.223s2.055 3.595 3.753 4.611c1.698 1.018 3.536 1.527 5.514 1.527 2.406 0 4.443-0.693 6.111-2.079 1.69-1.39 2.81-3.45 3.4-6.17z"/>
	<rect y="177.54" x="200.43" height="6.915" width="2.796"/>
		<rect y="155.32" x="86.253" height="29.133" width="2.796"/>
		<rect y="155.32" x="211.03" height="29.133" width="2.796"/>
			<rect y="155.32" x="200.43" height="6.915" width="2.796"/>
			<rect y="166.43" x="200.43" height="6.915" width="2.796"/>
			<rect y="177.54" x="200.43" height="6.915" width="2.796"/>
			<rect y="155.32" x="96.847" height="6.915" width="2.795"/>
			<rect y="166.43" x="96.847" height="6.915" width="2.795"/>
			<rect y="177.54" x="96.847" height="6.915" width="2.795"/>
		<rect y="263.32" x="148.93" height="29.134" width="2.795"/>
		<rect y="47.913" x="148.93" height="29.133" width="2.795"/>
		<path d="m12.5 258.61v-32.445h4.304v13.317h16.847v-13.317h4.304v32.445h-4.304v-15.303h-16.847v15.303h-4.304z"/>
		<path d="m12.5 114.42v-32.445h4.304v13.316h16.847v-13.316h4.304v32.444h-4.304v-15.304h-16.847v15.303h-4.304z"/>
			<path d="m262.04 258.61v-32.445h4.304v13.317h16.847v-13.317h4.305v32.445h-4.305v-15.303h-16.847v15.303h-4.31z"/>
			<path d="m262.04 114.42v-32.445h4.304v13.316h16.847v-13.316h4.305v32.444h-4.305v-15.304h-16.847v15.303h-4.31z"/>
		<path d="m137.86 330.42v-32.442h4.303v13.314h16.847v-13.314h4.304v32.442h-4.304v-15.302h-16.847v15.302h-4.3z"/>
		<path d="m137.86 42.027v-32.444h4.304v13.316h16.847v-13.316h4.304v32.444h-4.304v-15.302h-16.847v15.302h-4.3z"/>
			<rect y="209.79" x="179.58" height="29.134" transform="matrix(-.4999 -.8661 .8661 -.4999 77.142 493.26)" width="2.795"/>
		<rect y="101.74" x="117.19" height="29.133" transform="matrix(-.5 -.866 .866 -.5 77.164 277.16)" width="2.795"/>
				<rect y="127.57" x="112.87" height="6.916" transform="matrix(-.5001 -.866 .866 -.5001 57.933 295.51)" width="2.796"/>
				<rect y="122.02" x="122.49" height="6.915" transform="matrix(-.4999 -.8661 .8661 -.4999 77.134 295.5)" width="2.796"/>
			<rect y="116.46" x="132.11" height="6.915" transform="matrix(-.5001 -.866 .866 -.5001 96.417 295.51)" width="2.796"/>
				<rect y="217.28" x="164.66" height="6.916" transform="matrix(-.5002 -.8659 .8659 -.5002 57.978 474.94)" width="2.796"/>
				<rect y="211.73" x="174.28" height="6.916" transform="matrix(-.4998 -.8662 .8662 -.4998 77.097 474.89)" width="2.796"/>
				<rect y="206.17" x="183.9" height="6.915" transform="matrix(-.4995 -.8663 .8663 -.4995 96.257 474.87)" width="2.796"/>
			<rect y="101.51" x="241.77" height="29.133" transform="matrix(-.4997 -.8662 .8662 -.4997 264.12 384.71)" width="2.795"/>
			<rect y="209.22" x="55.218" height="29.132" transform="matrix(-.4999 -.8661 .8661 -.4999 -108.89 384.69)" width="2.795"/>
		<rect y="101.74" x="180.09" height="29.134" transform="matrix(-.5 .866 -.866 -.5 372.95 17.285)" width="2.795"/>
			<rect y="209.79" x="117.7" height="29.133" transform="matrix(-.4999 .8661 -.8661 -.4999 372.95 233.38)" width="2.795"/>
				<rect y="217.28" x="132.62" height="6.915" transform="matrix(-.4999 .8661 -.8661 -.4999 392.19 215.03)" width="2.795"/>
				<rect y="211.73" x="123" height="6.916" transform="matrix(-.4999 .8661 -.8661 -.4999 372.95 215.02)" width="2.796"/>
				<rect y="206.17" x="113.38" height="6.915" transform="matrix(-.4999 .8661 -.8661 -.4999 353.71 215.02)" width="2.796"/>
				<rect y="127.57" x="184.41" height="6.916" transform="matrix(-.4997 .8662 -.8662 -.4997 392.15 35.555)" width="2.795"/>
			<rect y="122.02" x="174.79" height="6.916" transform="matrix(-.5001 .866 -.866 -.5001 372.96 35.66)" width="2.796"/>
				<rect y="116.47" x="165.17" height="6.915" transform="matrix(-.4996 .8663 -.8663 -.4996 353.67 35.545)" width="2.795"/>
			<rect y="102.02" x="55.217" height="29.132" transform="matrix(-.5002 .8659 -.8659 -.5002 185.89 125.88)" width="2.796"/>
			<rect y="209.72" x="241.77" height="29.134" transform="matrix(-.4999 .8661 -.8661 -.4999 558.98 125.82)" width="2.795"/>
<metadata><rdf:RDF><cc:Work><dc:format>image/svg+xml</dc:format><dc:type rdf:resource="http://purl.org/dc/dcmitype/StillImage"/><cc:license rdf:resource="http://creativecommons.org/licenses/publicdomain/"/><dc:publisher><cc:Agent rdf:about="http://openclipart.org/"><dc:title>Openclipart</dc:title></cc:Agent></dc:publisher></cc:Work><cc:License rdf:about="http://creativecommons.org/licenses/publicdomain/"><cc:permits rdf:resource="http://creativecommons.org/ns#Reproduction"/><cc:permits rdf:resource="http://creativecommons.org/ns#Distribution"/><cc:permits rdf:resource="http://creativecommons.org/ns#DerivativeWorks"/></cc:License></rdf:RDF></metadata></svg>
