<?xml version="1.0" encoding="UTF-8" standalone="no"?>
<!-- Created with Inkscape (http://www.inkscape.org/) -->
<svg
   xmlns:svg="http://www.w3.org/2000/svg"
   xmlns="http://www.w3.org/2000/svg"
   xmlns:xlink="http://www.w3.org/1999/xlink"
   xmlns:inkscape="http://www.inkscape.org/namespaces/inkscape"
   version="1.0"
   width="340"
   height="290"
   id="svg2">
  <defs
     id="defs4">
    <linearGradient
       x1="272.8634"
       y1="317.28613"
       x2="300.31088"
       y2="346.57455"
       id="linearGradient10267"
       xlink:href="#linearGradient17464"
       gradientUnits="userSpaceOnUse" />
    <radialGradient
       cx="284"
       cy="332.36218"
       r="18"
       fx="284"
       fy="332.36218"
       id="radialGradient1970"
       xlink:href="#linearGradient8481"
       gradientUnits="userSpaceOnUse" />
    <radialGradient
       cx="284"
       cy="332.36218"
       r="18"
       fx="284"
       fy="332.36218"
       id="radialGradient1966"
       xlink:href="#linearGradient8481"
       gradientUnits="userSpaceOnUse" />
    <linearGradient
       x1="273.68356"
       y1="319.42142"
       x2="295.54535"
       y2="346.99124"
       id="linearGradient1964"
       xlink:href="#linearGradient11154"
       gradientUnits="userSpaceOnUse" />
    <radialGradient
       cx="284"
       cy="332.36218"
       r="18"
       fx="284"
       fy="332.36218"
       id="radialGradient23708"
       xlink:href="#linearGradient17451"
       gradientUnits="userSpaceOnUse" />
    <linearGradient
       x1="272.8634"
       y1="317.28613"
       x2="300.31088"
       y2="346.57455"
       id="linearGradient23706"
       xlink:href="#linearGradient17464"
       gradientUnits="userSpaceOnUse" />
    <linearGradient
       x1="272.8634"
       y1="317.28613"
       x2="300.31088"
       y2="346.57455"
       id="linearGradient23702"
       xlink:href="#linearGradient17464"
       gradientUnits="userSpaceOnUse" />
    <radialGradient
       cx="284"
       cy="332.36218"
       r="18"
       fx="284"
       fy="332.36218"
       id="radialGradient13824"
       xlink:href="#linearGradient8481"
       gradientUnits="userSpaceOnUse" />
    <linearGradient
       x1="273.68356"
       y1="319.42142"
       x2="296.74283"
       y2="352.37991"
       id="linearGradient11152"
       xlink:href="#linearGradient11154"
       gradientUnits="userSpaceOnUse" />
    <linearGradient
       id="linearGradient8481">
      <stop
         style="stop-color:#00890a;stop-opacity:1"
         offset="0"
         id="stop8483" />
      <stop
         style="stop-color:#00890a;stop-opacity:0.49803922"
         offset="0.51497006"
         id="stop13826" />
      <stop
         style="stop-color:#00890a;stop-opacity:0"
         offset="1"
         id="stop8485" />
    </linearGradient>
    <linearGradient
       id="linearGradient11154">
      <stop
         style="stop-color:#00f900;stop-opacity:1"
         offset="0"
         id="stop11156" />
      <stop
         style="stop-color:#00000a;stop-opacity:1"
         offset="1"
         id="stop11160" />
    </linearGradient>
    <linearGradient
       id="linearGradient15608">
      <stop
         style="stop-color:white;stop-opacity:0"
         offset="0"
         id="stop15610" />
      <stop
         style="stop-color:white;stop-opacity:1"
         offset="1"
         id="stop15612" />
    </linearGradient>
    <linearGradient
       id="linearGradient17451">
      <stop
         style="stop-color:#00a6a6;stop-opacity:1"
         offset="0"
         id="stop17453" />
      <stop
         style="stop-color:#00a6a6;stop-opacity:0"
         offset="1"
         id="stop21027" />
    </linearGradient>
    <linearGradient
       id="linearGradient17464">
      <stop
         style="stop-color:aqua;stop-opacity:1"
         offset="0"
         id="stop17466" />
      <stop
         style="stop-color:black;stop-opacity:1"
         offset="1"
         id="stop17468" />
    </linearGradient>
    <marker
       refX="0"
       refY="0"
       orient="auto"
       style="overflow:visible"
       id="Arrow1Lend">
      <path
         d="M 0,0 L 5,-5 L -12.5,0 L 5,5 L 0,0 z "
         transform="matrix(-0.8,0,0,-0.8,-10,0)"
         style="fill-rule:evenodd;stroke:black;stroke-width:1pt;marker-start:none"
         id="path4738" />
    </marker>
    <marker
       refX="0"
       refY="0"
       orient="auto"
       style="overflow:visible"
       id="Arrow2Lend">
      <path
         d="M 8.7185878,4.0337352 L -2.2072895,0.016013256 L 8.7185884,-4.0017078 C 6.97309,-1.6296469 6.9831476,1.6157441 8.7185878,4.0337352 z "
         transform="matrix(-1.1,0,0,-1.1,-1.1,0)"
         style="font-size:12px;fill-rule:evenodd;stroke-width:0.625;stroke-linejoin:round"
         id="path4720" />
    </marker>
    <marker
       refX="0"
       refY="0"
       orient="auto"
       style="overflow:visible"
       id="TriangleOutL">
      <path
         d="M 5.77,0 L -2.88,5 L -2.88,-5 L 5.77,0 z "
         transform="scale(0.8,0.8)"
         style="fill-rule:evenodd;stroke:black;stroke-width:1pt;marker-start:none"
         id="path4643" />
    </marker>
    <marker
       refX="0"
       refY="0"
       orient="auto"
       style="overflow:visible"
       id="Arrow2Mend">
      <path
         d="M 8.7185878,4.0337352 L -2.2072895,0.016013256 L 8.7185884,-4.0017078 C 6.97309,-1.6296469 6.9831476,1.6157441 8.7185878,4.0337352 z "
         transform="scale(-0.6,-0.6)"
         style="font-size:12px;fill-rule:evenodd;stroke-width:0.625;stroke-linejoin:round"
         id="path4714" />
    </marker>
    <marker
       refX="0"
       refY="0"
       orient="auto"
       style="overflow:visible"
       id="TriangleInL">
      <path
         d="M 5.77,0 L -2.88,5 L -2.88,-5 L 5.77,0 z "
         transform="scale(-0.8,-0.8)"
         style="fill-rule:evenodd;stroke:black;stroke-width:1pt;marker-start:none"
         id="path4652" />
    </marker>
    <marker
       refX="0"
       refY="0"
       orient="auto"
       style="overflow:visible"
       id="Arrow1Lstart">
      <path
         d="M 0,0 L 5,-5 L -12.5,0 L 5,5 L 0,0 z "
         transform="matrix(0.8,0,0,0.8,10,0)"
         style="fill-rule:evenodd;stroke:black;stroke-width:1pt;marker-start:none"
         id="path4741" />
    </marker>
    <marker
       refX="0"
       refY="0"
       orient="auto"
       style="overflow:visible"
       id="Arrow1Sstart">
      <path
         d="M 0,0 L 5,-5 L -12.5,0 L 5,5 L 0,0 z "
         transform="matrix(0.2,0,0,0.2,1.2,0)"
         style="fill-rule:evenodd;stroke:black;stroke-width:1pt;marker-start:none"
         id="path4729" />
    </marker>
    <linearGradient
       id="linearGradient2947">
      <stop
         style="stop-color:white;stop-opacity:1"
         offset="0"
         id="stop2949" />
      <stop
         style="stop-color:white;stop-opacity:1"
         offset="0.90734822"
         id="stop3838" />
      <stop
         style="stop-color:white;stop-opacity:0"
         offset="1"
         id="stop2951" />
    </linearGradient>
    <filter
       id="filter4042">
      <feGaussianBlur
         id="feGaussianBlur4044"
         stdDeviation="2"
         inkscape:collect="always" />
    </filter>
    <linearGradient
       x1="273.68356"
       y1="319.42142"
       x2="295.54535"
       y2="346.99124"
       id="linearGradient2283"
       xlink:href="#linearGradient11154"
       gradientUnits="userSpaceOnUse" />
    <linearGradient
       x1="270.51953"
       y1="329.23996"
       x2="301.76099"
       y2="337.23413"
       id="linearGradient2268"
       xlink:href="#linearGradient17464"
       gradientUnits="userSpaceOnUse" />
    <linearGradient
       x1="270.51953"
       y1="329.23996"
       x2="301.76099"
       y2="337.23413"
       id="linearGradient2270"
       xlink:href="#linearGradient17464"
       gradientUnits="userSpaceOnUse" />
    <filter
       id="filter4141">
      <feGaussianBlur
         id="feGaussianBlur4143"
         stdDeviation="1.75"
         inkscape:collect="always" />
    </filter>
    <linearGradient
       x1="273.68356"
       y1="319.42142"
       x2="295.54535"
       y2="346.99124"
       id="linearGradient5189"
       xlink:href="#linearGradient11154"
       gradientUnits="userSpaceOnUse" />
    <linearGradient
       x1="270.51953"
       y1="329.23996"
       x2="301.76099"
       y2="337.23413"
       id="linearGradient5191"
       xlink:href="#linearGradient17464"
       gradientUnits="userSpaceOnUse" />
    <linearGradient
       x1="270.51953"
       y1="329.23996"
       x2="301.76099"
       y2="337.23413"
       id="linearGradient5193"
       xlink:href="#linearGradient17464"
       gradientUnits="userSpaceOnUse" />
    <linearGradient
       x1="273.68356"
       y1="319.42142"
       x2="295.54535"
       y2="346.99124"
       id="linearGradient5288"
       xlink:href="#linearGradient11154"
       gradientUnits="userSpaceOnUse" />
    <linearGradient
       x1="270.51953"
       y1="329.23996"
       x2="301.76099"
       y2="337.23413"
       id="linearGradient5290"
       xlink:href="#linearGradient17464"
       gradientUnits="userSpaceOnUse" />
    <linearGradient
       x1="270.51953"
       y1="329.23996"
       x2="301.76099"
       y2="337.23413"
       id="linearGradient5292"
       xlink:href="#linearGradient17464"
       gradientUnits="userSpaceOnUse" />
    <linearGradient
       x1="270.51953"
       y1="329.23996"
       x2="301.76099"
       y2="337.23413"
       id="linearGradient5339"
       xlink:href="#linearGradient17464"
       gradientUnits="userSpaceOnUse" />
    <linearGradient
       x1="270.51953"
       y1="329.23996"
       x2="301.76099"
       y2="337.23413"
       id="linearGradient5344"
       xlink:href="#linearGradient17464"
       gradientUnits="userSpaceOnUse" />
    <linearGradient
       x1="273.68356"
       y1="319.42142"
       x2="295.54535"
       y2="346.99124"
       id="linearGradient6090"
       xlink:href="#linearGradient11154"
       gradientUnits="userSpaceOnUse" />
    <linearGradient
       x1="270.51953"
       y1="329.23996"
       x2="301.76099"
       y2="337.23413"
       id="linearGradient6092"
       xlink:href="#linearGradient17464"
       gradientUnits="userSpaceOnUse" />
    <linearGradient
       x1="270.51953"
       y1="329.23996"
       x2="301.76099"
       y2="337.23413"
       id="linearGradient6094"
       xlink:href="#linearGradient17464"
       gradientUnits="userSpaceOnUse" />
  </defs>
  <g
     transform="translate(-113.6959,-176.235)"
     id="layer1">
    <path
       d="M 440 327.36218 A 58 58 0 1 1  324,327.36218 A 58 58 0 1 1  440 327.36218 z"
       transform="matrix(0.823276,0,0,0.823276,4.113159,59.62036)"
       style="fill:none;fill-opacity:1;fill-rule:evenodd;stroke:#bcbcbc;stroke-width:2.42931461;stroke-linecap:butt;stroke-linejoin:miter;marker-start:none;stroke-miterlimit:4;stroke-dasharray:2.42931449, 4.85862897;stroke-dashoffset:0;stroke-opacity:1"
       id="path2760" />
    <path
       d="M 440 327.36218 A 58 58 0 1 1  324,327.36218 A 58 58 0 1 1  440 327.36218 z"
       transform="matrix(1.514655,0,0,1.514655,-259.8946,-166.8121)"
       style="fill:none;fill-opacity:1;fill-rule:evenodd;stroke:#bcbcbc;stroke-width:1.3204273;stroke-linecap:butt;stroke-linejoin:miter;marker-start:none;stroke-miterlimit:4;stroke-dasharray:1.32042708, 2.64085419;stroke-dashoffset:0;stroke-opacity:1"
       id="path6565" />
    <path
       d="M 440 327.36218 A 58 58 0 1 1  324,327.36218 A 58 58 0 1 1  440 327.36218 z"
       transform="matrix(2.206035,0,0,2.206035,-523.9007,-393.2425)"
       style="fill:none;fill-opacity:1;fill-rule:evenodd;stroke:#bcbcbc;stroke-width:0.90660208;stroke-linecap:butt;stroke-linejoin:miter;marker-start:none;stroke-miterlimit:4;stroke-dasharray:0.90660201, 1.81320406;stroke-dashoffset:0;stroke-opacity:1"
       id="path6567" />
    <path
       d="M 214.96642,265.44655 L 214.40392,266.2903 L 233.43517,278.7903 C 232.99886,279.30052 232.43608,279.70224 231.77892,279.94655 L 238.59142,281.5403 L 234.43517,275.9153 C 234.4654,276.63394 234.30107,277.33383 233.99767,277.94655 L 214.96642,265.44655 z "
       style="fill:#00cbcb;fill-opacity:1;fill-rule:evenodd;stroke:none;stroke-width:1.00000024;stroke-linecap:butt;stroke-linejoin:miter;stroke-miterlimit:6.80000019;stroke-dasharray:none;stroke-opacity:1"
       id="path24595" />
    <path
       d="M 306.30532,273.31716 C 306.54555,272.6785 306.72426,272.09549 306.84145,271.56814 L 306.86782,271.3572 C 306.84438,271.01736 306.71254,270.84451 306.47231,270.83865 C 306.29067,270.85623 306.14418,270.93533 306.03286,271.07595 L 305.63735,271.58572 L 305.55825,271.62966 L 305.46157,271.62966 C 305.43813,271.62381 305.41762,271.61209 305.40004,271.59451 L 305.18911,271.44509 L 305.12758,271.39236 L 305.11879,271.31326 C 305.12465,271.07303 305.54067,270.48709 306.36684,269.55544 C 306.72426,269.15116 307.13442,268.94901 307.59731,268.949 C 308.17153,268.94315 308.46742,269.33573 308.48501,270.12673 C 308.49086,270.51346 308.4352,270.87674 308.31801,271.21658 L 308.0895,271.86697 C 308.34145,271.48025 308.53481,271.19608 308.66958,271.01443 C 308.88051,270.73319 309.12074,270.46072 309.39028,270.19705 C 310.2516,269.3533 311.06605,268.93729 311.83364,268.949 C 312.76527,268.96073 313.22523,269.36209 313.21352,270.1531 C 313.20765,270.52225 313.06996,271.06717 312.80044,271.78787 L 311.93911,274.0906 C 311.61683,274.95779 311.4557,275.47927 311.45571,275.65505 C 311.46156,275.93045 311.58461,276.074 311.82485,276.08572 C 311.95375,276.09158 312.19691,275.92166 312.55434,275.57595 L 313.12563,275.02224 C 313.13734,275.01638 313.15492,275.01345 313.17837,275.01345 C 313.21351,275.01345 313.24574,275.02517 313.27504,275.04861 L 313.49477,275.22439 L 313.52993,275.26833 C 313.53578,275.28591 313.53871,275.30056 313.53872,275.31228 C 313.53285,275.42947 313.38636,275.63455 313.09926,275.92751 L 312.56313,276.47244 C 311.77211,277.27517 311.05433,277.6824 310.40981,277.69412 C 310.15199,277.69997 309.92641,277.58572 309.73305,277.35134 C 309.56898,277.15212 309.48695,276.90896 309.48696,276.62185 C 309.48109,276.14138 309.75941,275.15408 310.32192,273.65994 L 310.96352,271.94607 C 311.11586,271.53592 311.22133,271.18143 311.27993,270.88259 L 311.29751,270.61892 C 311.30922,270.43143 311.26967,270.28934 311.17885,270.19265 C 311.08803,270.09598 310.95473,270.05057 310.77895,270.05642 C 310.47426,270.06815 310.18129,270.22342 309.90004,270.52224 C 309.20277,271.26639 308.55531,272.33279 307.95766,273.72146 C 307.78774,274.11404 307.55043,274.7117 307.24575,275.51443 C 307.1227,275.88943 306.92348,276.44314 306.64809,277.17556 C 306.57192,277.34548 306.34926,277.43044 305.98012,277.43044 L 305.40883,277.43044 C 305.11,277.43044 304.96352,277.29861 304.96938,277.03494 C 304.96938,276.92361 305.08657,276.5574 305.32094,275.9363 L 306.30532,273.31716 z M 316.51854,274.10021 C 316.51854,273.97717 316.59178,273.91565 316.73827,273.91564 L 325.53612,273.91564 C 325.68845,273.91565 325.76463,273.97717 325.76464,274.10021 L 325.76464,275.19885 L 325.74706,275.28674 L 325.70312,275.33947 C 325.67381,275.36291 325.61814,275.37463 325.53612,275.37463 L 316.73827,275.37463 C 316.65038,275.37463 316.59471,275.36291 316.57128,275.33947 L 316.53612,275.29553 L 316.51854,275.19885 L 316.51854,274.10021 z M 316.51854,271.17346 L 316.53612,271.07678 L 316.57128,271.03283 C 316.60057,271.0094 316.65624,270.99768 316.73827,270.99767 L 325.53612,270.99767 C 325.61228,270.99768 325.66795,271.0094 325.70312,271.03283 L 325.74706,271.08556 L 325.76464,271.17346 L 325.76464,272.28088 L 325.74706,272.36877 L 325.70312,272.4215 C 325.67381,272.44494 325.61814,272.45666 325.53612,272.45666 L 316.73827,272.45666 C 316.65038,272.45666 316.59471,272.44494 316.57128,272.4215 L 316.53612,272.37756 L 316.51854,272.28088 L 316.51854,271.17346 z M 329.24394,268.47521 C 329.14433,268.54553 329.05937,268.57776 328.98906,268.57189 C 328.9246,268.57776 328.86601,268.54846 328.81328,268.484 L 328.59355,268.22912 C 328.55839,268.19983 328.53496,268.16468 328.52324,268.12365 C 328.51152,268.11194 328.50859,268.09729 328.51445,268.07971 C 328.51445,268.04456 328.8748,267.75745 329.5955,267.21838 C 330.14042,266.80823 330.63261,266.38929 331.07207,265.96154 L 331.45,265.5924 C 331.5496,265.4928 331.69609,265.443 331.88945,265.44299 L 332.575,265.44299 L 332.68047,265.46935 C 332.72733,265.48108 332.75077,265.57483 332.75078,265.7506 L 332.75078,275.49767 C 332.75077,276.31799 333.01444,276.74572 333.54179,276.78088 L 333.9373,276.80724 C 334.07792,276.81896 334.14823,276.90392 334.14824,277.06213 L 334.14824,277.43127 C 334.14823,277.61291 334.0369,277.70666 333.81425,277.71252 C 333.74979,277.71252 333.57401,277.7008 333.28691,277.67736 C 332.95878,277.64806 332.66288,277.63049 332.39922,277.62463 L 331.87187,277.60705 L 331.19511,277.62463 L 329.63945,277.71252 L 329.49882,277.69494 C 329.41679,277.68322 329.37578,277.61877 329.37578,277.50158 L 329.37578,277.08849 C 329.37578,276.93029 329.46367,276.83654 329.63945,276.80724 L 330.02617,276.74572 C 330.52421,276.66369 330.77323,276.25061 330.77324,275.50646 L 330.77324,267.39416 L 329.24394,268.47521 z "
       style="font-size:18px;font-style:normal;font-weight:normal;color:black;fill:black;fill-opacity:1;fill-rule:nonzero;stroke:none;stroke-width:1;stroke-linecap:butt;stroke-linejoin:miter;marker:none;marker-start:none;marker-mid:none;marker-end:none;stroke-miterlimit:4;stroke-dashoffset:0;stroke-opacity:1;visibility:visible;display:inline;overflow:visible;font-family:TI Uni"
       id="text3174" />
    <path
       d="M 305.03032,232.91107 C 305.27056,232.2724 305.44927,231.68939 305.56646,231.16204 L 305.59282,230.9511 C 305.56938,230.61127 305.43755,230.43842 305.19732,230.43255 C 305.01567,230.45013 304.86919,230.52924 304.75786,230.66985 L 304.36236,231.17962 L 304.28325,231.22357 L 304.18657,231.22357 C 304.16314,231.21771 304.14263,231.20599 304.12505,231.18841 L 303.91411,231.03899 L 303.85259,230.98626 L 303.8438,230.90716 C 303.84966,230.66693 304.26567,230.08099 305.09185,229.14935 C 305.44927,228.74506 305.85942,228.54291 306.32232,228.5429 C 306.89653,228.53705 307.19243,228.92963 307.21001,229.72064 C 307.21587,230.10736 307.1602,230.47064 307.04302,230.81048 L 306.8145,231.46087 C 307.06645,231.07416 307.25981,230.78998 307.39458,230.60833 C 307.60552,230.32709 307.84575,230.05463 308.11529,229.79095 C 308.97661,228.94721 309.79106,228.53119 310.55864,228.5429 C 311.49028,228.55463 311.95024,228.956 311.93853,229.747 C 311.93266,230.11615 311.79496,230.66107 311.52544,231.38177 L 310.66411,233.6845 C 310.34184,234.55169 310.18071,235.07318 310.18072,235.24896 C 310.18657,235.52435 310.30961,235.6679 310.54986,235.67962 C 310.67875,235.68548 310.92192,235.51556 311.27935,235.16985 L 311.85064,234.61614 C 311.86235,234.61029 311.87992,234.60736 311.90337,234.60735 C 311.93852,234.60736 311.97075,234.61908 312.00005,234.64251 L 312.21978,234.81829 L 312.25493,234.86224 C 312.26078,234.87982 312.26371,234.89447 312.26372,234.90618 C 312.25785,235.02337 312.11137,235.22845 311.82427,235.52142 L 311.28814,236.06634 C 310.49711,236.86907 309.77934,237.2763 309.13482,237.28802 C 308.877,237.29388 308.65141,237.17962 308.45806,236.94524 C 308.29399,236.74603 308.21196,236.50286 308.21197,236.21575 C 308.2061,235.73529 308.48442,234.74798 309.04693,233.25384 L 309.68853,231.53997 C 309.84086,231.12982 309.94633,230.77533 310.00493,230.47649 L 310.02251,230.21282 C 310.03422,230.02533 309.99467,229.88324 309.90386,229.78655 C 309.81303,229.68988 309.67973,229.64447 309.50396,229.65032 C 309.19926,229.66205 308.90629,229.81732 308.62505,230.11614 C 307.92778,230.86029 307.28032,231.9267 306.68267,233.31536 C 306.51274,233.70794 306.27544,234.3056 305.97075,235.10833 C 305.8477,235.48333 305.64849,236.03704 305.3731,236.76946 C 305.29692,236.93939 305.07427,237.02435 304.70513,237.02435 L 304.13384,237.02435 C 303.83501,237.02435 303.68853,236.89251 303.69439,236.62884 C 303.69439,236.51751 303.81157,236.1513 304.04595,235.53021 L 305.03032,232.91107 z M 315.24355,233.69412 C 315.24355,233.57107 315.31679,233.50955 315.46328,233.50955 L 324.26113,233.50955 C 324.41346,233.50955 324.48963,233.57107 324.48964,233.69412 L 324.48964,234.79275 L 324.47207,234.88064 L 324.42812,234.93337 C 324.39881,234.95681 324.34315,234.96853 324.26113,234.96853 L 315.46328,234.96853 C 315.37538,234.96853 315.31972,234.95681 315.29629,234.93337 L 315.26113,234.88943 L 315.24355,234.79275 L 315.24355,233.69412 z M 315.24355,230.76736 L 315.26113,230.67068 L 315.29629,230.62673 C 315.32558,230.6033 315.38124,230.59158 315.46328,230.59158 L 324.26113,230.59158 C 324.33729,230.59158 324.39295,230.6033 324.42812,230.62673 L 324.47207,230.67947 L 324.48964,230.76736 L 324.48964,231.87478 L 324.47207,231.96267 L 324.42812,232.0154 C 324.39881,232.03885 324.34315,232.05057 324.26113,232.05056 L 315.46328,232.05056 C 315.37538,232.05057 315.31972,232.03885 315.29629,232.0154 L 315.26113,231.97146 L 315.24355,231.87478 L 315.24355,230.76736 z M 334.92226,235.22341 C 335.18593,235.22341 335.34413,235.27029 335.39687,235.36404 L 335.42324,235.48708 C 335.41737,235.57498 335.39686,235.64822 335.36171,235.70681 L 334.55312,237.06912 C 334.45936,237.22732 334.28651,237.30642 334.03457,237.30642 L 333.88515,237.30642 C 333.38124,237.30642 332.82167,237.28884 332.20644,237.25369 C 331.56191,237.21853 331.18105,237.20095 331.06386,237.20095 C 330.7123,237.20095 329.81581,237.23025 328.37441,237.28884 L 327.96132,237.30642 C 327.87929,237.31228 327.82656,237.30349 327.80312,237.28005 L 327.75918,237.22732 L 327.7416,237.10427 L 327.7416,236.69998 C 327.7416,236.57693 327.82363,236.45388 327.98769,236.33083 C 328.28652,236.10818 328.65566,235.78591 329.09511,235.36404 C 329.63417,234.84842 330.18788,234.26541 330.75625,233.61501 C 331.5121,232.75369 332.04823,232.08279 332.36464,231.60232 C 332.92128,230.75858 333.19667,229.95291 333.19082,229.18533 C 333.17909,227.74393 332.48769,227.0203 331.1166,227.01443 C 330.50136,227.00858 329.97109,227.21659 329.52578,227.63845 L 329.01601,228.12185 C 328.9457,228.18631 328.89003,228.21854 328.84902,228.21853 C 328.81972,228.21854 328.78456,228.20389 328.74355,228.17458 L 328.49746,227.9988 C 328.43886,227.9578 328.4125,227.90799 328.41836,227.84939 L 328.43593,227.7615 C 328.5414,227.52127 328.77578,227.1785 329.13906,226.73318 C 329.44374,226.35819 329.74257,226.06229 330.03554,225.84548 C 330.75624,225.31229 331.53554,225.04276 332.37343,225.03689 C 333.28749,225.03104 334.01112,225.34452 334.54433,225.97732 C 335.05995,226.5867 335.32069,227.34256 335.32656,228.2449 C 335.33241,228.78397 335.24159,229.28201 335.0541,229.73904 C 334.68495,230.64725 333.89686,231.72244 332.68984,232.96462 C 332.10976,233.55642 331.30702,234.30935 330.28164,235.22341 L 334.92226,235.22341 z "
       style="font-size:18px;font-style:normal;font-weight:normal;color:black;fill:black;fill-opacity:1;fill-rule:nonzero;stroke:none;stroke-width:1;stroke-linecap:butt;stroke-linejoin:miter;marker:none;marker-start:none;marker-mid:none;marker-end:none;stroke-miterlimit:4;stroke-dashoffset:0;stroke-opacity:1;visibility:visible;display:inline;overflow:visible;font-family:TI Uni"
       id="text3195" />
    <path
       d="M 305.127,192.46436 C 305.36724,191.8257 305.54595,191.24269 305.66314,190.71534 L 305.6895,190.5044 C 305.66606,190.16457 305.53423,189.99171 305.294,189.98585 C 305.11235,190.00343 304.96587,190.08253 304.85454,190.22315 L 304.45904,190.73292 L 304.37993,190.77686 L 304.28325,190.77686 C 304.25982,190.77101 304.23931,190.75929 304.22173,190.74171 L 304.01079,190.59229 L 303.94927,190.53956 L 303.94048,190.46046 C 303.94634,190.22023 304.36235,189.63429 305.18853,188.70265 C 305.54595,188.29836 305.9561,188.09621 306.419,188.0962 C 306.99321,188.09035 307.28911,188.48293 307.30669,189.27393 C 307.31255,189.66066 307.25688,190.02394 307.1397,190.36378 L 306.91118,191.01417 C 307.16313,190.62746 307.35649,190.34328 307.49126,190.16163 C 307.70219,189.88039 307.94243,189.60793 308.21197,189.34425 C 309.07329,188.50051 309.88774,188.08449 310.65532,188.0962 C 311.58696,188.10793 312.04692,188.50929 312.03521,189.3003 C 312.02934,189.66945 311.89164,190.21437 311.62212,190.93507 L 310.76079,193.2378 C 310.43852,194.10499 310.27739,194.62648 310.27739,194.80225 C 310.28325,195.07765 310.40629,195.2212 310.64654,195.23292 C 310.77543,195.23878 311.0186,195.06886 311.37603,194.72315 L 311.94732,194.16944 C 311.95903,194.16359 311.9766,194.16066 312.00005,194.16065 C 312.0352,194.16066 312.06742,194.17237 312.09673,194.19581 L 312.31646,194.37159 L 312.35161,194.41554 C 312.35746,194.43312 312.36039,194.44776 312.3604,194.45948 C 312.35453,194.57667 312.20805,194.78175 311.92095,195.07472 L 311.38482,195.61964 C 310.59379,196.42237 309.87602,196.8296 309.2315,196.84132 C 308.97368,196.84718 308.74809,196.73292 308.55474,196.49854 C 308.39067,196.29933 308.30864,196.05616 308.30864,195.76905 C 308.30278,195.28858 308.5811,194.30128 309.14361,192.80714 L 309.78521,191.09327 C 309.93754,190.68312 310.04301,190.32863 310.10161,190.02979 L 310.11919,189.76612 C 310.1309,189.57863 310.09135,189.43654 310.00054,189.33985 C 309.90971,189.24318 309.77641,189.19777 309.60064,189.20362 C 309.29594,189.21535 309.00297,189.37062 308.72173,189.66944 C 308.02446,190.41359 307.377,191.47999 306.77935,192.86866 C 306.60942,193.26124 306.37212,193.8589 306.06743,194.66163 C 305.94438,195.03663 305.74517,195.59034 305.46978,196.32276 C 305.3936,196.49268 305.17095,196.57765 304.80181,196.57765 L 304.23052,196.57765 C 303.93169,196.57765 303.78521,196.44581 303.79107,196.18214 C 303.79107,196.07081 303.90825,195.7046 304.14263,195.0835 L 305.127,192.46436 z M 315.34023,193.24741 C 315.34023,193.12437 315.41347,193.06285 315.55996,193.06284 L 324.35781,193.06284 C 324.51014,193.06285 324.58631,193.12437 324.58632,193.24741 L 324.58632,194.34605 L 324.56875,194.43394 L 324.5248,194.48667 C 324.49549,194.51011 324.43983,194.52183 324.35781,194.52183 L 315.55996,194.52183 C 315.47206,194.52183 315.4164,194.51011 315.39296,194.48667 L 315.35781,194.44273 L 315.34023,194.34605 L 315.34023,193.24741 z M 315.34023,190.32066 L 315.35781,190.22398 L 315.39296,190.18003 C 315.42226,190.1566 315.47792,190.14488 315.55996,190.14488 L 324.35781,190.14488 C 324.43397,190.14488 324.48963,190.1566 324.5248,190.18003 L 324.56875,190.23277 L 324.58632,190.32066 L 324.58632,191.42808 L 324.56875,191.51597 L 324.5248,191.5687 C 324.49549,191.59215 324.43983,191.60387 324.35781,191.60386 L 315.55996,191.60386 C 315.47206,191.60387 315.4164,191.59215 315.39296,191.5687 L 315.35781,191.52476 L 315.34023,191.42808 L 315.34023,190.32066 z M 332.83046,189.28355 C 334.49452,189.67613 335.32655,190.71031 335.32656,192.38609 C 335.32655,193.61656 334.70839,194.71519 333.47207,195.68199 C 332.32948,196.57847 331.12538,197.02378 329.85976,197.01792 C 329.42617,197.01792 329.03652,196.93589 328.69082,196.77183 C 328.22207,196.54917 327.98769,196.24742 327.98769,195.86656 C 327.98769,195.60288 328.10488,195.38609 328.33925,195.21616 C 328.55605,195.06968 328.80214,194.99644 329.07754,194.99644 C 329.38222,195.0023 329.77187,195.15171 330.24648,195.44468 C 330.69765,195.72593 331.05214,195.86656 331.30996,195.86656 C 331.88417,195.87242 332.36171,195.61167 332.74257,195.08433 C 333.03554,194.68003 333.18495,194.1439 333.19082,193.47593 C 333.19667,192.61461 332.91835,191.9232 332.35586,191.40171 C 331.95155,191.02672 331.50331,190.83336 331.01113,190.82163 C 330.93495,190.82164 330.82948,190.83482 330.69472,190.86118 C 330.55995,190.88756 330.46327,190.90367 330.40468,190.90952 C 330.27577,190.91539 330.20253,190.87437 330.18496,190.78648 L 330.13222,190.51402 C 330.13222,190.36754 330.2787,190.20348 330.57168,190.02183 C 330.78847,189.90465 331.00527,189.78453 331.22207,189.66148 C 331.4623,189.49742 331.70839,189.31578 331.96035,189.11656 C 332.45253,188.72984 332.70155,188.32262 332.70742,187.89488 C 332.71327,187.49645 332.50819,187.16539 332.09218,186.90171 C 331.7289,186.67907 331.33339,186.56774 330.90566,186.56773 C 330.44863,186.56774 330.06777,186.67614 329.76308,186.89292 C 329.67519,186.95739 329.60781,186.98961 329.56093,186.9896 C 329.51406,186.98961 329.4789,186.98082 329.45546,186.96324 L 329.20937,186.81382 C 329.18007,186.80211 329.15664,186.77867 329.13906,186.74351 L 329.11269,186.6732 L 329.13906,186.57652 C 329.36757,186.10778 329.72499,185.66832 330.21132,185.25816 C 330.74452,184.807 331.33925,184.58434 331.9955,184.59019 C 332.5873,184.59606 333.11464,184.7777 333.57754,185.13511 C 334.11073,185.55114 334.38319,186.04332 334.39492,186.61167 C 334.41249,187.47887 334.06093,188.22301 333.34023,188.84409 L 332.83046,189.28355 z "
       style="font-size:18px;font-style:normal;font-weight:normal;color:black;fill:black;fill-opacity:1;fill-rule:nonzero;stroke:none;stroke-width:1;stroke-linecap:butt;stroke-linejoin:miter;marker:none;marker-start:none;marker-mid:none;marker-end:none;stroke-miterlimit:4;stroke-dashoffset:0;stroke-opacity:1;visibility:visible;display:inline;overflow:visible;font-family:TI Uni"
       id="text3207" />
    <g
       transform="translate(-1.392472e-5,-5.004339)"
       id="g2267">
      <path
         d="M 302 332.36218 A 18 18 0 1 1  266,332.36218 A 18 18 0 1 1  302 332.36218 z"
         transform="matrix(0.707602,0,0,0.707602,118.5954,98.00367)"
         style="fill:url(#linearGradient6090);fill-opacity:1;fill-rule:evenodd;stroke:none;stroke-width:1.74581969;stroke-linecap:round;stroke-linejoin:bevel;stroke-miterlimit:4;stroke-dasharray:none;stroke-opacity:1;filter:url(#filter4141)"
         id="path10265" />
      <path
         d="M 320.47156,326.17358 L 320.47156,332.25569 L 326.55367,332.25569 L 326.55367,334.11199 L 320.47156,334.11199 L 320.47156,340.19409 L 318.6371,340.19409 L 318.6371,334.11199 L 312.555,334.11199 L 312.555,332.25569 L 318.6371,332.25569 L 318.6371,326.17358 L 320.47156,326.17358 z "
         style="font-size:22.3629303px;font-style:normal;font-weight:normal;opacity:0.65;color:black;fill:white;fill-opacity:1;fill-rule:nonzero;stroke:none;stroke-width:1;stroke-linecap:butt;stroke-linejoin:miter;marker:none;marker-start:none;marker-mid:none;marker-end:none;stroke-miterlimit:4;stroke-dashoffset:0;stroke-opacity:1;visibility:visible;display:inline;overflow:visible;font-family:Garamond"
         id="text2247" />
    </g>
    <g
       transform="translate(-1.392472e-5,-5.004339)"
       id="g2275">
      <path
         d="M 302 332.36218 A 18 18 0 1 1  266,332.36218 A 18 18 0 1 1  302 332.36218 z"
         transform="matrix(0.134659,0.139965,-0.139965,0.134659,217.8709,182.907)"
         style="fill:url(#linearGradient6092);fill-opacity:1;fill-rule:evenodd;stroke:none;stroke-width:1.74581969;stroke-linecap:round;stroke-linejoin:bevel;stroke-miterlimit:4;stroke-dasharray:none;stroke-opacity:1;filter:url(#filter4042)"
         id="path15626" />
      <path
         d="M 207.10052,266.91262 L 212.08944,266.91262 L 212.08944,267.91262 L 207.10052,267.91262 L 207.10052,266.91262 z "
         style="font-size:8.39179993px;font-style:normal;font-weight:normal;opacity:0.65;color:black;fill:white;fill-opacity:1;fill-rule:nonzero;stroke:none;stroke-width:1;stroke-linecap:butt;stroke-linejoin:miter;marker:none;marker-start:none;marker-mid:none;marker-end:none;stroke-miterlimit:4;stroke-dashoffset:0;stroke-opacity:1;visibility:visible;display:inline;overflow:visible;font-family:Garamond"
         id="text2251" />
    </g>
    <g
       transform="matrix(0.996722,-8.089538e-2,8.089538e-2,0.996722,-15.11603,23.16818)"
       id="g5931">
      <path
         d="M 133.70268,366.13937 L 128.54718,379.91182 L 141.39693,372.76034 C 137.68734,372.47722 134.58803,369.79348 133.70268,366.13937 z "
         style="font-size:12px;opacity:1;fill:#ff8080;fill-opacity:1;fill-rule:evenodd;stroke:#ff8080;stroke-width:0.62499982;stroke-linejoin:round;stroke-opacity:1"
         id="path4170" />
      <path
         d="M 216.05363,272.43849 C 210.90841,270.10374 206.15058,268.51013 204.52825,270.41225 C 201.2836,274.21649 220.1694,290.32426 216.92475,294.1285 C 213.6801,297.93274 194.7943,281.82497 191.54965,285.62921 C 188.305,289.43345 207.1908,305.54122 203.94615,309.34546 C 200.7015,313.1497 181.8157,297.04193 178.57105,300.84617 C 175.3264,304.65041 194.2122,320.75818 190.96755,324.56242 C 187.7229,328.36666 168.8371,312.25889 165.59245,316.06313 C 162.3478,319.86737 181.2336,335.97514 177.98895,339.77938 C 174.7443,343.58362 155.8585,327.47585 152.61385,331.28009 C 149.3692,335.08433 168.255,351.1921 165.01035,354.99634 C 161.7657,358.80058 144.42946,345.65734 139.63525,346.49705 C 134.84103,347.33676 144.28393,355.39064 142.58885,362.15941 C 140.89376,368.92818 136.09955,369.76789 132.8549,373.57213"
         style="opacity:1;fill:none;fill-opacity:0.75;fill-rule:evenodd;stroke:#ff8080;stroke-width:0.99999994px;stroke-linecap:butt;stroke-linejoin:miter;stroke-opacity:1"
         id="path4165" />
    </g>
    <path
       d="M 130.71177,316.0922 L 119.63712,316.0922 L 125.43285,303.29173 L 130.71177,316.0922 z M 128.53374,315.33544 L 124.85143,306.4111 L 120.79072,315.33544 L 128.53374,315.33544 z M 131.83227,315.84778 C 131.90716,315.78038 131.97082,315.73918 132.02324,315.72421 C 132.15056,315.68676 132.36775,315.6568 132.67481,315.63433 C 133.40126,315.5894 133.85062,315.522 134.02287,315.43212 C 134.12772,315.28234 134.18015,315.07264 134.18015,314.80303 L 134.16891,314.01666 L 134.18015,311.16325 L 134.15768,309.81519 L 134.16891,306.99548 L 134.11275,303.79383 C 134.10525,303.02994 134.05657,302.5993 133.96671,302.50193 C 133.8319,302.35965 133.43122,302.27727 132.76468,302.25478 C 132.48009,302.24731 132.2292,302.22484 132.01201,302.18738 C 131.91465,302.13497 131.86597,302.06757 131.86597,301.98517 C 131.86597,301.92527 131.88469,301.85412 131.92214,301.77173 C 131.98954,301.7343 132.04946,301.71557 132.10188,301.71556 C 132.20673,301.71557 132.33405,301.71932 132.48383,301.72679 C 132.9257,301.76425 133.38254,301.78298 133.85437,301.78296 L 134.68567,301.76049 L 136.66284,301.80543 C 137.65141,301.80544 138.4228,301.79421 138.97702,301.77173 C 139.53121,301.74927 139.90567,301.73804 140.1004,301.73803 C 140.27265,301.73804 140.69953,301.75302 141.38107,301.78296 L 142.97628,301.77173 L 143.16725,301.80543 L 144.09966,301.77173 L 144.212,301.8279 C 144.24944,301.88783 144.27565,301.95148 144.29064,302.01887 C 144.29063,302.12374 144.27378,302.28476 144.24009,302.50193 C 144.20637,302.71913 144.18952,302.85394 144.18954,302.90635 C 144.18952,303.68524 144.21573,304.3443 144.26817,304.88351 C 144.26067,304.92846 144.2382,304.95842 144.20077,304.97338 C 144.11837,304.97339 144.04348,304.96216 143.97609,304.93968 C 143.8937,304.7974 143.78323,304.54651 143.64469,304.18701 C 143.50613,303.82754 143.2983,303.41189 143.02121,302.94005 C 142.83397,302.62552 142.68793,302.43828 142.58309,302.37836 C 142.47823,302.31846 142.26104,302.2885 141.93153,302.28849 C 141.86411,302.2885 141.52335,302.28101 140.90924,302.26602 C 140.74447,302.25854 140.58345,302.2548 140.42619,302.25478 L 137.22453,302.32219 L 136.94368,302.32219 C 136.53177,302.3222 136.28462,302.37463 136.20225,302.47946 C 136.07492,302.65922 136.01127,303.18721 136.01127,304.06344 C 136.01127,304.15332 136.02999,305.05203 136.06744,306.75957 L 136.06744,308.32108 C 136.14982,308.34355 136.23969,308.35479 136.33705,308.35478 L 136.52803,308.35478 C 136.65534,308.35479 136.84257,308.35853 137.08972,308.36601 C 137.47916,308.381 137.74128,308.38849 137.8761,308.38848 C 137.96596,308.38849 138.0446,308.38475 138.11201,308.37725 C 138.92084,308.3473 139.96184,308.33232 141.23503,308.33231 C 141.63195,308.26492 141.86411,308.18628 141.93153,308.0964 C 142.04385,307.9616 142.12811,307.60961 142.18429,307.04042 C 142.24045,306.47124 142.36589,306.14921 142.56062,306.0743 C 142.65797,306.07431 142.74784,306.09304 142.83024,306.13047 C 142.8452,306.1904 142.85269,306.24657 142.8527,306.29898 C 142.85269,306.35142 142.8452,306.43754 142.83024,306.55736 C 142.79278,306.83447 142.77405,307.70322 142.77407,309.16362 C 142.77405,309.55307 142.79465,309.98744 142.83585,310.46675 C 142.87703,310.94607 142.89763,311.20445 142.89764,311.24189 C 142.89763,311.3093 142.88639,311.39917 142.86394,311.5115 C 142.80401,311.54146 142.75533,311.55644 142.7179,311.55644 L 142.63926,311.55644 C 142.51942,311.34674 142.40334,311.02096 142.29101,310.57909 C 142.09628,309.82268 141.8922,309.34899 141.67876,309.158 C 141.46531,308.96703 141.11893,308.87155 140.63963,308.87154 C 140.53477,308.87155 140.34379,308.87716 140.0667,308.88839 C 139.78959,308.89963 139.37768,308.90525 138.83097,308.90524 L 138.10077,308.90524 C 137.05976,308.90525 136.37824,308.92772 136.05621,308.97264 L 136.04497,309.34336 L 136.05621,311.4104 L 136.04497,312.71353 L 136.05621,313.98295 C 136.06369,314.74686 136.11237,315.18872 136.20225,315.30855 C 136.32956,315.47332 136.60666,315.5557 137.03355,315.5557 L 137.71882,315.54446 C 137.77873,315.54446 138.01277,315.55008 138.42094,315.56131 C 138.82909,315.57255 139.33275,315.57817 139.9319,315.57817 C 141.37731,315.57817 142.33968,315.51638 142.819,315.39281 C 143.2983,315.26923 143.69336,315.05017 144.00418,314.73562 C 144.31497,314.42108 144.70628,313.7433 145.17812,312.70229 C 145.3204,312.39524 145.46269,312.24171 145.605,312.2417 C 145.67239,312.24171 145.74729,312.27166 145.82968,312.33157 C 145.61248,313.07301 145.48891,313.55981 145.45896,313.79198 C 145.37657,314.31623 145.32789,314.85171 145.31292,315.39842 C 145.31291,315.64557 145.253,315.85152 145.13318,316.01629 L 144.88604,316.01629 L 141.72932,316.04999 L 140.31385,316.03875 L 136.94368,316.08369 L 135.57315,316.08369 C 135.40089,316.08369 135.23987,316.08743 135.09009,316.09492 C 133.74203,316.15484 132.7497,316.18479 132.11312,316.18479 C 132.00078,316.18479 131.92401,316.16607 131.88282,316.12863 C 131.84163,316.09118 131.82103,316.03501 131.82103,315.96012 L 131.83227,315.84778 z M 160.41058,316.02752 L 160.38811,315.70174 C 160.44802,315.6568 160.50419,315.62872 160.55662,315.61748 C 160.60904,315.60625 160.79815,315.5894 161.12393,315.56693 C 161.44971,315.54446 161.65379,315.47144 161.73618,315.34787 C 161.81856,315.2243 161.85975,314.71316 161.85975,313.81445 L 161.88222,309.37706 L 161.85975,308.59069 C 161.85975,308.5233 161.86724,308.27241 161.88222,307.83802 C 161.89719,307.63582 161.90468,307.39242 161.90468,307.10782 L 161.85975,305.15313 L 161.87098,303.44558 C 161.87098,303.03368 161.81294,302.76968 161.69686,302.65359 C 161.58077,302.53752 161.17074,302.4308 160.46675,302.33342 L 160.46675,302.19861 C 160.46675,302.15369 160.47049,302.09003 160.47798,302.00764 C 160.90487,301.91778 161.28307,301.80544 161.6126,301.67062 C 161.78485,301.59574 162.22298,301.36358 162.92697,300.97412 L 163.27522,300.97412 C 163.26772,301.14639 163.26398,301.25124 163.26398,301.28867 L 163.26398,302.26602 L 163.25275,302.74908 L 163.28645,303.63655 L 163.27522,304.97338 L 163.28645,307.19769 L 163.25275,309.96123 L 163.25275,310.815 C 163.25275,310.91986 163.25649,311.0659 163.26398,311.25312 L 163.38756,311.26436 C 163.64219,311.26436 163.90057,311.17074 164.16269,310.98351 C 165.3385,310.14472 166.07619,309.57366 166.37577,309.27034 C 166.67533,308.96703 166.82512,308.74797 166.82512,308.61316 C 166.82512,308.53079 166.77644,308.42594 166.67908,308.29861 C 166.4544,308.17879 166.20351,308.09641 165.92641,308.05147 C 165.84403,308.0365 165.75415,308.01777 165.6568,307.9953 C 165.52199,307.95786 165.40965,307.93165 165.31978,307.91666 L 165.29732,307.80432 C 165.29731,307.7519 165.31603,307.67701 165.35349,307.57964 C 166.53678,307.53472 167.56655,307.51225 168.4428,307.51224 C 168.93708,307.51225 169.46508,307.52348 170.02678,307.54594 L 170.02678,307.69198 C 170.02677,307.74441 170.00805,307.81182 169.97061,307.89419 C 169.85826,307.91667 169.68226,307.95037 169.44262,307.9953 C 168.97827,308.0702 168.62628,308.17505 168.38663,308.30985 C 167.80995,308.61691 167.21456,309.04754 166.60045,309.60174 C 166.23347,309.93127 165.91517,310.20838 165.64557,310.43305 L 165.24115,310.7813 C 165.2711,310.83373 165.31978,310.89739 165.38719,310.97227 C 165.41714,311.00224 165.47705,311.06964 165.56693,311.17448 C 165.65679,311.27934 165.81781,311.45534 166.04999,311.70248 C 166.85882,312.55626 167.45796,313.21531 167.84741,313.67964 C 167.97472,313.82943 168.11701,313.99419 168.27429,314.17393 C 168.85845,314.8255 169.19921,315.18872 169.29658,315.26362 C 169.50627,315.39842 169.81707,315.50327 170.22899,315.57817 C 170.4237,315.61561 170.59221,315.64931 170.73451,315.67927 C 170.76446,315.76914 170.77944,315.84029 170.77945,315.89271 L 170.76822,316.00505 C 170.23647,315.96012 169.85452,315.93765 169.62236,315.93765 L 169.42015,315.93765 L 166.29713,316.02752 C 166.1773,316.0425 166.09491,316.04999 166.04999,316.04999 C 165.97509,316.04999 165.89645,316.03501 165.81407,316.00505 C 165.7916,315.94514 165.78037,315.89271 165.78037,315.84778 L 165.78037,315.76914 C 165.8253,315.70174 165.86649,315.66055 165.90395,315.64557 C 166.64537,315.58565 167.07601,315.53697 167.19584,315.49953 C 167.26324,315.48455 167.3269,315.44336 167.38682,315.37596 C 167.38681,315.24864 167.27822,315.04268 167.06103,314.75809 C 166.84384,314.4735 166.30087,313.84815 165.43212,312.88203 C 164.87791,312.26792 164.5203,311.91031 164.35929,311.8092 C 164.19826,311.7081 163.97546,311.65755 163.69087,311.65754 L 163.26398,311.65754 C 163.23402,311.92716 163.21904,312.54502 163.21905,313.51113 C 163.21904,314.40984 163.29394,314.98652 163.44373,315.24115 C 163.5261,315.38345 163.72082,315.47332 164.02789,315.51076 C 164.33494,315.54821 164.53341,315.60438 164.62328,315.67927 C 164.68319,315.72421 164.72064,315.82906 164.73562,315.99382 C 164.28626,315.98633 163.90806,315.98258 163.601,315.98258 C 163.10671,315.98258 162.56748,315.99382 161.98332,316.01629 C 161.63132,316.03126 161.35422,316.03875 161.15201,316.03875 C 161.00223,316.03875 160.75508,316.03501 160.41058,316.02752 L 160.41058,316.02752 z M 174.78994,316.27467 L 174.44169,316.27467 C 174.26944,314.94158 173.97361,313.58415 173.55422,312.20238 C 173.13482,310.82062 172.43832,309.59051 171.46471,308.51206 C 171.15017,308.16007 170.99289,307.8605 170.99289,307.61334 C 170.99289,307.38868 171.07153,307.19957 171.2288,307.04603 C 171.38608,306.89251 171.57705,306.81575 171.80173,306.81574 C 172.37091,306.81575 172.8989,307.48978 173.38571,308.83784 C 173.87251,310.18591 174.28816,312.02452 174.63267,314.35367 C 176.48251,312.30162 177.40743,310.4031 177.40744,308.6581 C 177.40743,308.08892 177.30632,307.53472 177.10412,306.99548 L 177.30633,306.81574 C 178.07023,307.48229 178.45218,308.43343 178.45219,309.66914 C 178.45218,311.48155 177.23143,313.68339 174.78994,316.27467 L 174.78994,316.27467 z M 148.37962,311.3413 C 148.37962,311.21354 148.46063,311.14966 148.62266,311.14965 L 158.35391,311.14965 C 158.5224,311.14966 158.60666,311.21354 158.60667,311.3413 L 158.60667,312.48203 L 158.58722,312.57329 L 158.53861,312.62805 C 158.5062,312.65238 158.44463,312.66455 158.35391,312.66455 L 148.62266,312.66455 C 148.52544,312.66455 148.46387,312.65238 148.43794,312.62805 L 148.39906,312.58242 L 148.37962,312.48203 L 148.37962,311.3413 z M 148.37962,307.49003 L 148.39906,307.38965 L 148.43794,307.34402 C 148.47035,307.31969 148.53192,307.30752 148.62266,307.30752 L 158.35391,307.30752 C 158.43815,307.30752 158.49971,307.31969 158.53861,307.34402 L 158.58722,307.39877 L 158.60667,307.49003 L 158.60667,308.63989 L 158.58722,308.73115 L 158.53861,308.7859 C 158.5062,308.81025 158.44463,308.82242 158.35391,308.82241 L 148.62266,308.82241 C 148.52544,308.82242 148.46387,308.81025 148.43794,308.7859 L 148.39906,308.74027 L 148.37962,308.63989 L 148.37962,307.49003 z "
       style="font-size:23.00698471px;font-style:normal;font-weight:normal;color:black;fill:black;fill-opacity:1;fill-rule:nonzero;stroke:none;stroke-width:1;stroke-linecap:butt;stroke-linejoin:miter;marker:none;marker-start:none;marker-mid:none;marker-end:none;stroke-miterlimit:4;stroke-dashoffset:0;stroke-opacity:1;visibility:visible;display:inline;overflow:visible;font-family:TI Uni"
       id="path4158" />
    <g
       transform="translate(-1.392472e-5,-5.004339)"
       id="g2271">
      <path
         d="M 302 332.36218 A 18 18 0 1 1  266,332.36218 A 18 18 0 1 1  302 332.36218 z"
         transform="matrix(0.134659,0.139965,-0.139965,0.134659,251.6763,205.0773)"
         style="fill:url(#linearGradient6094);fill-opacity:1;fill-rule:evenodd;stroke:none;stroke-width:1.74581969;stroke-linecap:round;stroke-linejoin:bevel;stroke-miterlimit:4;stroke-dasharray:none;stroke-opacity:1;filter:url(#filter4042)"
         id="path2262" />
      <path
         d="M 240.90592,289.08292 L 245.89484,289.08292 L 245.89484,290.08292 L 240.90592,290.08292 L 240.90592,289.08292 z "
         style="font-size:8.39179993px;font-style:normal;font-weight:normal;opacity:0.65;color:black;fill:white;fill-opacity:1;fill-rule:nonzero;stroke:none;stroke-width:1;stroke-linecap:butt;stroke-linejoin:miter;marker:none;marker-start:none;marker-mid:none;marker-end:none;stroke-miterlimit:4;stroke-dashoffset:0;stroke-opacity:1;visibility:visible;display:inline;overflow:visible;font-family:Garamond"
         id="path2465" />
    </g>
  </g>
</svg>
