<?xml version="1.0"?>
<svg xmlns:rdf="http://www.w3.org/1999/02/22-rdf-syntax-ns#" xmlns="http://www.w3.org/2000/svg" xmlns:cc="http://creativecommons.org/ns#" xmlns:xlink="http://www.w3.org/1999/xlink" xmlns:dc="http://purl.org/dc/elements/1.1/" id="svg2" viewBox="0 0 328.1 273.27" version="1.0">
 <defs id="defs4">
  <linearGradient id="linearGradient17464">
   <stop id="stop17466" stop-color="aqua" offset="0"/>
   <stop id="stop17468" offset="1"/>
  </linearGradient>
  <filter id="filter4042" color-interpolation-filters="sRGB">
   <feGaussianBlur id="feGaussianBlur4044" stdDeviation="2"/>
  </filter>
  <filter id="filter4141" color-interpolation-filters="sRGB">
   <feGaussianBlur id="feGaussianBlur4143" stdDeviation="1.75"/>
  </filter>
  <linearGradient id="linearGradient6090" y2="346.99" gradientUnits="userSpaceOnUse" y1="319.42" x2="295.55" x1="273.68">
   <stop id="stop11156" stop-color="#00f900" offset="0"/>
   <stop id="stop11160" stop-color="#00000a" offset="1"/>
  </linearGradient>
  <linearGradient id="linearGradient6092" x1="270.52" xlink:href="#linearGradient17464" gradientUnits="userSpaceOnUse" x2="301.76" y1="329.24" y2="337.23"/>
 </defs>
 <g id="layer1" transform="translate(-119.64 -184.59)">
  <path id="path2760" d="m440 327.36a58 58 0 1 1 -116 0 58 58 0 1 1 116 0z" transform="matrix(.82328 0 0 .82328 4.1132 59.62)" stroke="#bcbcbc" stroke-dasharray="2.42931449, 4.85862897" stroke-width="2.4293" fill="none"/>
  <path id="path6565" d="m440 327.36a58 58 0 1 1 -116 0 58 58 0 1 1 116 0z" transform="matrix(1.5147,0,0,1.5147,-259.89,-166.81)" stroke="#bcbcbc" stroke-dasharray="1.32042708, 2.64085419" stroke-width="1.3204" fill="none"/>
  <path id="path6567" d="m440 327.36a58 58 0 1 1 -116 0 58 58 0 1 1 116 0z" transform="matrix(2.206,0,0,2.206,-523.9,-393.24)" stroke="#bcbcbc" stroke-dasharray="0.90660201, 1.81320406" stroke-width=".9066" fill="none"/>
  <path id="path24595" fill-rule="evenodd" fill="#00cbcb" d="m214.97 265.45-0.57 0.84 19.04 12.5c-0.44 0.51-1 0.91-1.66 1.16l6.81 1.59-4.15-5.62c0.03 0.71-0.14 1.41-0.44 2.03l-19.03-12.5z"/>
  <path id="text3174" style="color:#000000" d="m306.31 273.32c0.24-0.64 0.41-1.22 0.53-1.75l0.03-0.21c-0.03-0.34-0.16-0.52-0.4-0.52-0.18 0.02-0.33 0.1-0.44 0.24l-0.39 0.51-0.08 0.04h-0.1c-0.02-0.01-0.04-0.02-0.06-0.04l-0.21-0.14-0.06-0.06-0.01-0.08c0-0.24 0.42-0.82 1.25-1.75 0.35-0.41 0.76-0.61 1.23-0.61 0.57-0.01 0.87 0.39 0.89 1.18 0 0.38-0.05 0.75-0.17 1.09l-0.23 0.65c0.25-0.39 0.44-0.67 0.58-0.86 0.21-0.28 0.45-0.55 0.72-0.81 0.86-0.85 1.68-1.26 2.44-1.25 0.94 0.01 1.4 0.41 1.38 1.2 0 0.37-0.14 0.92-0.41 1.64l-0.86 2.3c-0.32 0.87-0.48 1.39-0.48 1.57 0 0.27 0.12 0.41 0.36 0.43 0.13 0 0.38-0.17 0.73-0.51l0.58-0.56c0.01 0 0.02-0.01 0.05-0.01s0.07 0.02 0.1 0.04l0.21 0.17 0.04 0.05c0.01 0.02 0.01 0.03 0.01 0.04-0.01 0.12-0.15 0.32-0.44 0.62l-0.54 0.54c-0.79 0.81-1.51 1.21-2.15 1.22-0.26 0.01-0.48-0.1-0.68-0.34-0.16-0.2-0.24-0.44-0.24-0.73-0.01-0.48 0.27-1.47 0.83-2.96l0.64-1.71c0.16-0.41 0.26-0.77 0.32-1.07l0.02-0.26c0.01-0.19-0.03-0.33-0.12-0.43-0.09-0.09-0.23-0.14-0.4-0.13-0.31 0.01-0.6 0.16-0.88 0.46-0.7 0.75-1.34 1.81-1.94 3.2-0.17 0.39-0.41 0.99-0.71 1.79-0.13 0.38-0.33 0.93-0.6 1.67-0.08 0.17-0.3 0.25-0.67 0.25h-0.57c-0.3 0-0.45-0.13-0.44-0.4 0-0.11 0.12-0.47 0.35-1.09l0.99-2.62zm10.21 0.78c0-0.12 0.07-0.18 0.22-0.18h8.8c0.15 0 0.22 0.06 0.22 0.18v1.1l-0.01 0.09-0.05 0.05c-0.03 0.02-0.08 0.03-0.16 0.03h-8.8c-0.09 0-0.15-0.01-0.17-0.03l-0.03-0.04-0.02-0.1v-1.1zm0-2.93 0.02-0.09 0.03-0.05c0.03-0.02 0.09-0.03 0.17-0.03h8.8c0.07 0 0.13 0.01 0.16 0.03l0.05 0.06 0.01 0.08v1.11l-0.01 0.09-0.05 0.05c-0.03 0.02-0.08 0.04-0.16 0.04h-8.8c-0.09 0-0.15-0.02-0.17-0.04l-0.03-0.04-0.02-0.1v-1.11zm12.72-2.69c-0.1 0.07-0.18 0.1-0.25 0.09-0.07 0.01-0.12-0.02-0.18-0.09l-0.22-0.25c-0.03-0.03-0.06-0.07-0.07-0.11-0.01-0.01-0.01-0.02-0.01-0.04 0-0.04 0.36-0.32 1.09-0.86 0.54-0.41 1.03-0.83 1.47-1.26l0.38-0.37c0.1-0.1 0.25-0.15 0.44-0.15h0.69l0.1 0.03c0.05 0.01 0.07 0.1 0.07 0.28v9.75c0 0.82 0.26 1.25 0.79 1.28l0.4 0.03c0.14 0.01 0.21 0.09 0.21 0.25v0.37c0 0.18-0.11 0.28-0.34 0.28-0.06 0-0.24-0.01-0.52-0.03-0.33-0.03-0.63-0.05-0.89-0.06l-0.53-0.01-0.67 0.01-1.56 0.09-0.14-0.02c-0.08-0.01-0.12-0.07-0.12-0.19v-0.41c0-0.16 0.08-0.25 0.26-0.28l0.39-0.06c0.49-0.09 0.74-0.5 0.74-1.24v-8.12l-1.53 1.09z"/>
  <path id="text3195" style="color:#000000" d="m305.03 232.91c0.24-0.64 0.42-1.22 0.54-1.75l0.02-0.21c-0.02-0.34-0.15-0.51-0.39-0.52-0.18 0.02-0.33 0.1-0.44 0.24l-0.4 0.51-0.08 0.04h-0.09c-0.03 0-0.05-0.01-0.06-0.03l-0.22-0.15-0.06-0.05-0.01-0.08c0.01-0.24 0.43-0.83 1.25-1.76 0.36-0.4 0.77-0.61 1.23-0.61 0.58 0 0.87 0.39 0.89 1.18 0.01 0.39-0.05 0.75-0.17 1.09l-0.23 0.65c0.26-0.39 0.45-0.67 0.58-0.85 0.22-0.28 0.46-0.56 0.73-0.82 0.86-0.84 1.67-1.26 2.44-1.25 0.93 0.01 1.39 0.42 1.38 1.21-0.01 0.37-0.15 0.91-0.41 1.63l-0.87 2.3c-0.32 0.87-0.48 1.39-0.48 1.57 0.01 0.27 0.13 0.42 0.37 0.43 0.13 0.01 0.37-0.16 0.73-0.51l0.57-0.55c0.01-0.01 0.03-0.01 0.05-0.01 0.04 0 0.07 0.01 0.1 0.03l0.22 0.18 0.03 0.04c0.01 0.02 0.01 0.03 0.01 0.05 0 0.11-0.15 0.32-0.44 0.61l-0.53 0.55c-0.79 0.8-1.51 1.21-2.16 1.22-0.25 0-0.48-0.11-0.67-0.34-0.17-0.2-0.25-0.45-0.25-0.73 0-0.48 0.27-1.47 0.84-2.97l0.64-1.71c0.15-0.41 0.26-0.76 0.31-1.06l0.02-0.27c0.01-0.18-0.03-0.33-0.12-0.42-0.09-0.1-0.22-0.15-0.4-0.14-0.3 0.01-0.59 0.17-0.87 0.47-0.7 0.74-1.35 1.81-1.95 3.2-0.17 0.39-0.4 0.99-0.71 1.79-0.12 0.37-0.32 0.93-0.6 1.66-0.07 0.17-0.3 0.25-0.66 0.25h-0.58c-0.29 0-0.44-0.13-0.44-0.39 0-0.11 0.12-0.48 0.36-1.1l0.98-2.62zm10.21 0.78c0-0.12 0.08-0.18 0.22-0.18h8.8c0.15 0 0.23 0.06 0.23 0.18v1.1l-0.02 0.09-0.04 0.05c-0.03 0.03-0.09 0.04-0.17 0.04h-8.8c-0.08 0-0.14-0.01-0.16-0.04l-0.04-0.04-0.02-0.1v-1.1zm0-2.92 0.02-0.1 0.04-0.04c0.03-0.03 0.08-0.04 0.16-0.04h8.8c0.08 0 0.13 0.01 0.17 0.04l0.04 0.05 0.02 0.09v1.1l-0.02 0.09-0.04 0.06c-0.03 0.02-0.09 0.03-0.17 0.03h-8.8c-0.08 0-0.14-0.01-0.16-0.03l-0.04-0.05-0.02-0.1v-1.1zm19.68 4.45c0.27 0 0.42 0.05 0.48 0.14l0.02 0.13c0 0.08-0.02 0.16-0.06 0.22l-0.81 1.36c-0.09 0.16-0.26 0.24-0.52 0.24h-0.14c-0.51 0-1.07-0.02-1.68-0.06-0.65-0.03-1.03-0.05-1.15-0.05-0.35 0-1.24 0.03-2.69 0.09l-0.41 0.02c-0.08 0-0.13-0.01-0.16-0.03l-0.04-0.05-0.02-0.13v-0.4c0-0.12 0.08-0.25 0.25-0.37 0.3-0.22 0.67-0.54 1.11-0.97 0.53-0.51 1.09-1.09 1.66-1.74 0.75-0.87 1.29-1.54 1.6-2.02 0.56-0.84 0.84-1.65 0.83-2.41-0.01-1.45-0.7-2.17-2.07-2.18-0.62 0-1.15 0.21-1.59 0.63l-0.51 0.48c-0.07 0.07-0.13 0.1-0.17 0.1-0.03 0-0.07-0.02-0.11-0.05l-0.24-0.17c-0.06-0.04-0.09-0.09-0.08-0.15l0.02-0.09c0.1-0.24 0.34-0.58 0.7-1.03 0.3-0.37 0.6-0.67 0.9-0.88 0.72-0.54 1.5-0.81 2.33-0.81 0.92-0.01 1.64 0.3 2.17 0.94 0.52 0.61 0.78 1.36 0.79 2.26 0 0.54-0.09 1.04-0.28 1.5-0.37 0.91-1.15 1.98-2.36 3.22-0.58 0.6-1.38 1.35-2.41 2.26h4.64z"/>
  <path id="text3207" style="color:#000000" d="m305.13 192.46c0.24-0.63 0.42-1.22 0.53-1.74l0.03-0.22c-0.02-0.34-0.16-0.51-0.4-0.51-0.18 0.01-0.32 0.09-0.44 0.23l-0.39 0.51-0.08 0.05h-0.1c-0.02-0.01-0.04-0.02-0.06-0.04l-0.21-0.15-0.06-0.05-0.01-0.08c0.01-0.24 0.42-0.83 1.25-1.76 0.36-0.4 0.77-0.6 1.23-0.6 0.57-0.01 0.87 0.38 0.89 1.17 0 0.39-0.05 0.75-0.17 1.09l-0.23 0.65c0.25-0.38 0.45-0.67 0.58-0.85 0.21-0.28 0.45-0.55 0.72-0.82 0.86-0.84 1.68-1.26 2.45-1.24 0.93 0.01 1.39 0.41 1.38 1.2-0.01 0.37-0.15 0.91-0.42 1.64l-0.86 2.3c-0.32 0.86-0.48 1.39-0.48 1.56 0 0.28 0.13 0.42 0.37 0.43 0.13 0.01 0.37-0.16 0.73-0.51l0.57-0.55c0.01-0.01 0.03-0.01 0.05-0.01 0.04 0 0.07 0.01 0.1 0.04l0.22 0.17 0.03 0.05c0.01 0.01 0.01 0.03 0.01 0.04-0.01 0.12-0.15 0.32-0.44 0.61l-0.54 0.55c-0.79 0.8-1.5 1.21-2.15 1.22-0.26 0.01-0.48-0.11-0.68-0.34-0.16-0.2-0.24-0.44-0.24-0.73-0.01-0.48 0.27-1.47 0.83-2.96l0.65-1.72c0.15-0.41 0.25-0.76 0.31-1.06l0.02-0.26c0.01-0.19-0.03-0.33-0.12-0.43s-0.22-0.14-0.4-0.14c-0.3 0.02-0.6 0.17-0.88 0.47-0.7 0.74-1.34 1.81-1.94 3.2-0.17 0.39-0.41 0.99-0.71 1.79-0.13 0.38-0.32 0.93-0.6 1.66-0.08 0.17-0.3 0.26-0.67 0.26h-0.57c-0.3 0-0.44-0.13-0.44-0.4 0-0.11 0.12-0.48 0.35-1.1l0.99-2.62zm10.21 0.79c0-0.13 0.07-0.19 0.22-0.19h8.8c0.15 0 0.23 0.06 0.23 0.19v1.1l-0.02 0.08-0.05 0.06c-0.02 0.02-0.08 0.03-0.16 0.03h-8.8c-0.09 0-0.14-0.01-0.17-0.03l-0.03-0.05-0.02-0.09v-1.1zm0-2.93 0.02-0.1 0.03-0.04c0.03-0.02 0.09-0.04 0.17-0.04h8.8c0.07 0 0.13 0.02 0.16 0.04l0.05 0.05 0.02 0.09v1.11l-0.02 0.09-0.05 0.05c-0.02 0.02-0.08 0.03-0.16 0.03h-8.8c-0.09 0-0.14-0.01-0.17-0.03l-0.03-0.05-0.02-0.09v-1.11zm17.49-1.04c1.66 0.4 2.5 1.43 2.5 3.11 0 1.23-0.62 2.33-1.86 3.29-1.14 0.9-2.34 1.34-3.61 1.34-0.43 0-0.82-0.08-1.17-0.25-0.47-0.22-0.7-0.52-0.7-0.9 0-0.27 0.11-0.48 0.35-0.65 0.22-0.15 0.46-0.22 0.74-0.22 0.3 0 0.69 0.15 1.17 0.44 0.45 0.29 0.8 0.43 1.06 0.43 0.57 0 1.05-0.26 1.43-0.79 0.3-0.4 0.44-0.94 0.45-1.6 0.01-0.87-0.27-1.56-0.83-2.08-0.41-0.37-0.86-0.57-1.35-0.58-0.08 0-0.18 0.01-0.32 0.04-0.13 0.03-0.23 0.04-0.29 0.05-0.12 0.01-0.2-0.04-0.22-0.12l-0.05-0.28c0-0.14 0.15-0.31 0.44-0.49 0.22-0.12 0.44-0.24 0.65-0.36 0.24-0.16 0.49-0.34 0.74-0.54 0.49-0.39 0.74-0.8 0.75-1.23 0-0.39-0.2-0.72-0.62-0.99-0.36-0.22-0.76-0.33-1.18-0.33-0.46 0-0.84 0.11-1.15 0.32-0.08 0.07-0.15 0.1-0.2 0.1s-0.08-0.01-0.1-0.03l-0.25-0.15c-0.03-0.01-0.05-0.03-0.07-0.07l-0.03-0.07 0.03-0.09c0.23-0.47 0.58-0.91 1.07-1.32 0.53-0.45 1.13-0.68 1.79-0.67 0.59 0.01 1.11 0.19 1.58 0.55 0.53 0.41 0.8 0.9 0.81 1.47 0.02 0.87-0.33 1.61-1.05 2.23l-0.51 0.44z"/>
  <g id="g2267" transform="translate(-1.3925e-5,-5.0043)">
   <path id="path10265" d="m302 332.36a18 18 0 1 1 -36 0 18 18 0 1 1 36 0z" fill-rule="evenodd" transform="matrix(.7076 0 0 .7076 118.6 98.004)" filter="url(#filter4141)" fill="url(#linearGradient6090)"/>
   <path id="text2247" opacity=".65" style="color:#000000" fill="#fff" d="m320.47 326.17v6.09h6.08v1.85h-6.08v6.08h-1.83v-6.08h-6.08v-1.85h6.08v-6.09h1.83z"/>
  </g>
  <g id="g2275" transform="translate(-1.3925e-5,-5.0043)">
   <path id="path15626" d="m302 332.36a18 18 0 1 1 -36 0 18 18 0 1 1 36 0z" fill-rule="evenodd" transform="matrix(.13466 .13996 -.13996 .13466 217.87 182.91)" filter="url(#filter4042)" fill="url(#linearGradient6092)"/>
   <path id="text2251" opacity=".65" style="color:#000000" fill="#fff" d="m207.1 266.91h4.99v1h-4.99v-1z"/>
  </g>
  <g id="g5931" stroke="#ff8080" transform="matrix(.99672 -.080895 .080895 .99672 -15.116 23.168)">
   <path id="path4170" stroke-linejoin="round" d="m133.7 366.14-5.15 13.77 12.85-7.15c-3.71-0.28-6.81-2.97-7.7-6.62z" fill-rule="evenodd" stroke-width=".625" fill="#ff8080"/>
   <path id="path4165" stroke-width="1px" fill="none" d="m216.05 272.44c-5.14-2.34-9.9-3.93-11.52-2.03-3.25 3.81 15.64 19.91 12.39 23.72-3.24 3.8-22.13-12.31-25.37-8.5-3.25 3.8 15.64 19.91 12.4 23.72-3.25 3.8-22.13-12.31-25.38-8.5-3.24 3.8 15.64 19.91 12.4 23.71-3.25 3.81-22.13-12.3-25.38-8.5-3.24 3.81 15.64 19.92 12.4 23.72-3.25 3.8-22.13-12.3-25.38-8.5-3.24 3.8 15.65 19.91 12.4 23.72-3.24 3.8-20.58-9.34-25.37-8.5-4.8 0.84 4.64 8.89 2.95 15.66-1.7 6.77-6.49 7.61-9.74 11.41"/>
  </g>
  <path id="path4158" style="color:#000000" d="m130.71 316.09h-11.07l5.79-12.8 5.28 12.8zm-2.18-0.75-3.68-8.93-4.06 8.93h7.74zm3.3 0.51c0.08-0.07 0.14-0.11 0.19-0.13 0.13-0.03 0.35-0.06 0.65-0.09 0.73-0.04 1.18-0.11 1.35-0.2 0.11-0.15 0.16-0.36 0.16-0.63l-0.01-0.78 0.01-2.86-0.02-1.34 0.01-2.82-0.06-3.21c0-0.76-0.05-1.19-0.14-1.29-0.14-0.14-0.54-0.22-1.21-0.25-0.28 0-0.53-0.03-0.75-0.06-0.1-0.06-0.14-0.12-0.14-0.2 0-0.06 0.01-0.14 0.05-0.22 0.07-0.04 0.13-0.05 0.18-0.05 0.11 0 0.23 0 0.38 0.01 0.45 0.03 0.9 0.05 1.37 0.05l0.84-0.02 1.97 0.05c0.99 0 1.76-0.02 2.32-0.04 0.55-0.02 0.93-0.03 1.12-0.03 0.17 0 0.6 0.01 1.28 0.04l1.6-0.01 0.19 0.04 0.93-0.04 0.11 0.06c0.04 0.06 0.07 0.12 0.08 0.19 0 0.1-0.02 0.26-0.05 0.48s-0.05 0.35-0.05 0.41c0 0.78 0.03 1.43 0.08 1.97-0.01 0.05-0.03 0.08-0.07 0.09-0.08 0-0.16-0.01-0.22-0.03-0.09-0.14-0.2-0.39-0.34-0.75-0.13-0.36-0.34-0.78-0.62-1.25-0.19-0.31-0.33-0.5-0.44-0.56-0.1-0.06-0.32-0.09-0.65-0.09-0.07 0-0.41-0.01-1.02-0.02-0.17-0.01-0.33-0.02-0.48-0.02l-3.21 0.07h-0.28c-0.41 0-0.66 0.05-0.74 0.16-0.13 0.18-0.19 0.71-0.19 1.58 0 0.09 0.02 0.99 0.06 2.7v1.56c0.08 0.02 0.17 0.03 0.27 0.03h0.19c0.13 0 0.31 0.01 0.56 0.02 0.39 0.01 0.65 0.02 0.79 0.02 0.09 0 0.16-0.01 0.23-0.01 0.81-0.03 1.85-0.05 3.13-0.05 0.39-0.07 0.62-0.14 0.69-0.23 0.11-0.14 0.2-0.49 0.25-1.06 0.06-0.57 0.19-0.89 0.38-0.97 0.1 0 0.19 0.02 0.27 0.06 0.02 0.06 0.02 0.12 0.02 0.17s0 0.14-0.02 0.26c-0.04 0.27-0.06 1.14-0.06 2.6 0 0.39 0.02 0.83 0.07 1.31 0.04 0.48 0.06 0.73 0.06 0.77 0 0.07-0.01 0.16-0.04 0.27-0.06 0.03-0.1 0.05-0.14 0.05h-0.08c-0.12-0.21-0.24-0.54-0.35-0.98-0.19-0.76-0.4-1.23-0.61-1.42s-0.56-0.29-1.04-0.29c-0.11 0-0.3 0.01-0.57 0.02-0.28 0.01-0.69 0.02-1.24 0.02h-0.73c-1.04 0-1.72 0.02-2.04 0.06l-0.02 0.37 0.02 2.07-0.02 1.3 0.02 1.27c0 0.77 0.05 1.21 0.14 1.33 0.13 0.16 0.41 0.25 0.83 0.25l0.69-0.02c0.06 0 0.29 0.01 0.7 0.02s0.91 0.02 1.51 0.02c1.45 0 2.41-0.06 2.89-0.19 0.48-0.12 0.87-0.34 1.18-0.65 0.31-0.32 0.71-1 1.18-2.04 0.14-0.3 0.28-0.46 0.42-0.46 0.07 0 0.15 0.03 0.23 0.09-0.22 0.74-0.34 1.23-0.37 1.46-0.08 0.53-0.13 1.06-0.15 1.61 0 0.25-0.06 0.45-0.18 0.62h-0.24l-3.16 0.03-1.42-0.01-3.37 0.04h-1.37c-0.17 0-0.33 0.01-0.48 0.01-1.35 0.06-2.34 0.09-2.98 0.09-0.11 0-0.19-0.01-0.23-0.05s-0.06-0.09-0.06-0.17l0.01-0.11zm28.58 0.18-0.02-0.33c0.06-0.04 0.11-0.07 0.17-0.08 0.05-0.01 0.24-0.03 0.56-0.05 0.33-0.03 0.53-0.1 0.62-0.22 0.08-0.13 0.12-0.64 0.12-1.54l0.02-4.43-0.02-0.79c0-0.07 0.01-0.32 0.02-0.75 0.02-0.2 0.02-0.45 0.02-0.73l-0.04-1.96 0.01-1.7c0-0.42-0.06-0.68-0.17-0.8-0.12-0.11-0.53-0.22-1.23-0.32v-0.13c0-0.05 0-0.11 0.01-0.19 0.42-0.09 0.8-0.2 1.13-0.34 0.17-0.07 0.61-0.31 1.32-0.7h0.35c-0.01 0.18-0.02 0.28-0.02 0.32v0.98l-0.01 0.48 0.04 0.89-0.01 1.33 0.01 2.23-0.04 2.76v0.86c0 0.1 0.01 0.25 0.01 0.43l0.13 0.01c0.25 0 0.51-0.09 0.77-0.28 1.18-0.84 1.92-1.41 2.22-1.71s0.45-0.52 0.45-0.66c0-0.08-0.05-0.18-0.15-0.31-0.23-0.12-0.48-0.2-0.75-0.25-0.09-0.01-0.18-0.03-0.27-0.05-0.14-0.04-0.25-0.07-0.34-0.08l-0.02-0.12c0-0.05 0.02-0.12 0.05-0.22 1.19-0.05 2.22-0.07 3.09-0.07 0.5 0 1.03 0.01 1.59 0.04v0.14c0 0.05-0.02 0.12-0.06 0.2-0.11 0.03-0.29 0.06-0.53 0.11-0.46 0.07-0.81 0.18-1.05 0.31-0.58 0.31-1.18 0.74-1.79 1.29-0.37 0.33-0.68 0.61-0.95 0.83l-0.41 0.35c0.03 0.05 0.08 0.12 0.15 0.19 0.03 0.03 0.09 0.1 0.18 0.2 0.09 0.11 0.25 0.29 0.48 0.53 0.81 0.86 1.41 1.52 1.8 1.98 0.12 0.15 0.27 0.31 0.42 0.49 0.59 0.66 0.93 1.02 1.03 1.09 0.21 0.14 0.52 0.24 0.93 0.32 0.19 0.04 0.36 0.07 0.5 0.1 0.03 0.09 0.05 0.16 0.05 0.21l-0.01 0.12c-0.53-0.05-0.92-0.07-1.15-0.07h-0.2l-3.12 0.09c-0.12 0.01-0.21 0.02-0.25 0.02-0.07 0-0.15-0.01-0.24-0.04-0.02-0.06-0.03-0.12-0.03-0.16v-0.08c0.05-0.07 0.09-0.11 0.12-0.12 0.75-0.06 1.18-0.11 1.3-0.15 0.06-0.02 0.13-0.06 0.19-0.12 0-0.13-0.11-0.34-0.33-0.62-0.22-0.29-0.76-0.91-1.63-1.88-0.55-0.61-0.91-0.97-1.07-1.07s-0.38-0.15-0.67-0.15h-0.43c-0.03 0.27-0.04 0.89-0.04 1.85 0 0.9 0.07 1.48 0.22 1.73 0.09 0.14 0.28 0.23 0.59 0.27 0.3 0.04 0.5 0.09 0.59 0.17 0.06 0.04 0.1 0.15 0.12 0.31-0.45 0-0.83-0.01-1.14-0.01-0.49 0-1.03 0.01-1.62 0.04-0.35 0.01-0.63 0.02-0.83 0.02-0.15 0-0.39 0-0.74-0.01zm14.38 0.24h-0.35c-0.17-1.33-0.47-2.69-0.89-4.07s-1.11-2.61-2.09-3.69c-0.31-0.35-0.47-0.65-0.47-0.9 0-0.22 0.08-0.41 0.24-0.56 0.16-0.16 0.35-0.23 0.57-0.23 0.57 0 1.1 0.67 1.59 2.02 0.48 1.35 0.9 3.18 1.24 5.51 1.85-2.05 2.78-3.95 2.78-5.69 0-0.57-0.1-1.13-0.31-1.66l0.21-0.18c0.76 0.66 1.14 1.61 1.14 2.85 0 1.81-1.22 4.01-3.66 6.6zm-26.41-4.93c0-0.13 0.08-0.19 0.24-0.19h9.73c0.17 0 0.26 0.06 0.26 0.19v1.14l-0.02 0.09-0.05 0.06c-0.03 0.02-0.1 0.03-0.19 0.03h-9.73c-0.09 0-0.16-0.01-0.18-0.03l-0.04-0.05-0.02-0.1v-1.14zm0-3.85 0.02-0.1 0.04-0.05c0.03-0.02 0.09-0.03 0.18-0.03h9.73c0.09 0 0.15 0.01 0.19 0.03l0.05 0.06 0.02 0.09v1.15l-0.02 0.09-0.05 0.06c-0.03 0.02-0.1 0.03-0.19 0.03h-9.73c-0.09 0-0.16-0.01-0.18-0.03l-0.04-0.05-0.02-0.1v-1.15z"/>
  <g id="g2271" transform="translate(-1.3925e-5,-5.0043)">
   <path id="path2262" d="m302 332.36a18 18 0 1 1 -36 0 18 18 0 1 1 36 0z" fill-rule="evenodd" transform="matrix(.13466 .13996 -.13996 .13466 251.68 205.08)" filter="url(#filter4042)" fill="url(#linearGradient6092)"/>
   <path id="path2465" opacity=".65" style="color:#000000" fill="#fff" d="m240.91 289.08h4.98v1h-4.98v-1z"/>
  </g>
 </g>
 <metadata>
  <rdf:RDF>
   <cc:Work>
    <dc:format>image/svg+xml</dc:format>
    <dc:type rdf:resource="http://purl.org/dc/dcmitype/StillImage"/>
    <cc:license rdf:resource="http://creativecommons.org/licenses/publicdomain/"/>
    <dc:publisher>
     <cc:Agent rdf:about="http://openclipart.org/">
      <dc:title>Openclipart</dc:title>
     </cc:Agent>
    </dc:publisher>
   </cc:Work>
   <cc:License rdf:about="http://creativecommons.org/licenses/publicdomain/">
    <cc:permits rdf:resource="http://creativecommons.org/ns#Reproduction"/>
    <cc:permits rdf:resource="http://creativecommons.org/ns#Distribution"/>
    <cc:permits rdf:resource="http://creativecommons.org/ns#DerivativeWorks"/>
   </cc:License>
  </rdf:RDF>
 </metadata>
</svg>
