<?xml version="1.0"?>
<svg xmlns:rdf="http://www.w3.org/1999/02/22-rdf-syntax-ns#" xmlns="http://www.w3.org/2000/svg" xmlns:cc="http://web.resource.org/cc/" xmlns:dc="http://purl.org/dc/elements/1.1/" id="svg3381" height="188.5" width="1029.3" version="1.1">
 <path id="path7582" d="m267.96 34.434h-1.8457v-11.761c-0.44434 0.4238-1.0271 0.8476-1.7483 1.2714-0.7212 0.4239-1.3689 0.7418-1.9431 0.9537v-1.7842c1.0322-0.4854 1.9346-1.0733 2.707-1.7637 0.77245-0.6904 1.3193-1.3603 1.6406-2.0098h1.1895z"/>
 <path id="path7584" d="m273.69 34.434v-2.1021h2.102v2.1021c0 0.7725-0.13673 1.3962-0.41015 1.8713-0.27345 0.4751-0.70753 0.8426-1.3022 1.1023l-0.5127-0.7895c0.38964-0.1709 0.67676-0.4221 0.86133-0.7537 0.18456-0.3315 0.28711-0.8083 0.30762-1.4304z"/>
 <path id="path7586" d="m278.53 30.466 1.8457-0.2461c0.21191 1.0459 0.5725 1.7996 1.0818 2.261 0.50927 0.4615 1.1296 0.6922 1.8611 0.6922 0.86815 0 1.6013-0.3008 2.1995-0.9024 0.59814-0.6015 0.89721-1.3467 0.89721-2.2353 0-0.8477-0.27686-1.5467-0.83056-2.097-0.55372-0.5502-1.2578-0.8254-2.1123-0.8254-0.34864 0-0.78272 0.068-1.3022 0.2051l0.20508-1.6201c0.12304 0.014 0.22216 0.021 0.29736 0.021 0.78613 0 1.4936-0.2051 2.1226-0.6153 0.6289-0.4101 0.94335-1.0424 0.94336-1.8969-0.00001-0.6768-0.22901-1.2373-0.68702-1.6817-0.45801-0.4443-1.0493-0.6665-1.7739-0.6665-0.71778 0-1.3159 0.2256-1.7944 0.6768-0.47852 0.4512-0.78614 1.1279-0.92286 2.0302l-1.8457-0.3281c0.22558-1.2373 0.73827-2.196 1.5381-2.8762 0.7998-0.6802 1.7944-1.0202 2.9839-1.0203 0.82031 0.0001 1.5757 0.1761 2.2661 0.5281 0.69042 0.3521 1.2185 0.8323 1.5842 1.4407 0.36572 0.6084 0.54858 1.2544 0.54859 1.938-0.00001 0.6494-0.17433 1.2407-0.52295 1.7739-0.34864 0.5332-0.86475 0.957-1.5483 1.2715 0.88866 0.2051 1.5791 0.6306 2.0713 1.2766 0.49217 0.646 0.73827 1.4543 0.73828 2.425-0.00001 1.3125-0.47852 2.4251-1.4356 3.3377-0.95703 0.9126-2.167 1.3689-3.6299 1.3689-1.3194 0-2.4148-0.3931-3.2864-1.1792-0.87159-0.7861-1.3689-1.8047-1.492-3.0557z"/>
 <path id="path7588" d="m290.48 30.958 1.7739-0.164c0.15039 0.8339 0.4375 1.4389 0.86133 1.8149s0.96728 0.564 1.6304 0.564c0.56738 0 1.0647-0.1299 1.492-0.3897 0.42724-0.2597 0.77757-0.6067 1.051-1.0408 0.27343-0.434 0.50243-1.0202 0.68701-1.7585 0.18456-0.7383 0.27685-1.4902 0.27686-2.2559-0.00001-0.082-0.004-0.205-0.0103-0.3691-0.36915 0.5879-0.8733 1.0647-1.5124 1.4304-0.63917 0.3658-1.3313 0.5486-2.0764 0.5486-1.2441 0-2.2969-0.4512-3.1582-1.3535-0.86132-0.9023-1.292-2.0918-1.292-3.5684 0-1.5244 0.44946-2.7514 1.3484-3.6811 0.89892-0.9297 2.0251-1.3945 3.3787-1.3946 0.97753 0.0001 1.8713 0.2632 2.6814 0.7896 0.81004 0.5264 1.4253 1.2766 1.8457 2.2507 0.4204 0.9742 0.6306 2.3841 0.63062 4.2298-0.00002 1.9209-0.20851 3.4504-0.62549 4.5886-0.417 1.1382-1.0374 2.0046-1.8611 2.5994-0.82374 0.5947-1.7893 0.892-2.8967 0.892-1.1758 0-2.1362-0.3264-2.8814-0.9792-0.74511-0.6528-1.1929-1.5706-1.3432-2.7532zm7.5571-6.6343c0-1.0595-0.28199-1.9003-0.84594-2.5224-0.56397-0.6221-1.2424-0.9331-2.0354-0.9331-0.82032 0-1.5347 0.335-2.1431 1.0049s-0.9126 1.5381-0.9126 2.6045c0 0.957 0.28882 1.7346 0.86646 2.3327 0.57763 0.5982 1.2903 0.8972 2.1379 0.8972 0.8545 0 1.5569-0.299 2.1072-0.8972 0.55029-0.5981 0.82544-1.427 0.82545-2.4866z"/>
 <path id="path7573" d="m265.78 131.95h-1.8457v-11.761c-0.44434 0.4238-1.0271 0.8477-1.7483 1.2715s-1.3689 0.7417-1.9431 0.9536v-1.7842c1.0322-0.4853 1.9346-1.0732 2.707-1.7636 0.77246-0.6905 1.3193-1.3604 1.6406-2.0098h1.1894z"/>
 <path id="path7575" d="m271.51 131.95v-2.102h2.102v2.102c0 0.7725-0.13671 1.3963-0.41015 1.8714s-0.70753 0.8425-1.3022 1.1023l-0.51269-0.7896c0.38964-0.1709 0.67676-0.4221 0.86132-0.7536 0.18457-0.3316 0.28711-0.8084 0.30762-1.4305z"/>
 <path id="path7577" d="m276.35 127.98 1.8457-0.2461c0.21191 1.0459 0.57251 1.7995 1.0818 2.261 0.50927 0.4614 1.1296 0.6921 1.8611 0.6921 0.86816 0 1.6013-0.3008 2.1995-0.9023 0.59813-0.6016 0.8972-1.3467 0.89721-2.2354-0.00001-0.8476-0.27686-1.5466-0.83057-2.0969s-1.2578-0.8254-2.1123-0.8254c-0.34863 0-0.78272 0.068-1.3022 0.205l0.20508-1.6201c0.12303 0.014 0.22215 0.021 0.29736 0.021 0.78612 0 1.4936-0.205 2.1226-0.6152 0.62889-0.4102 0.94335-1.0425 0.94335-1.897 0-0.6767-0.22901-1.2373-0.687-1.6816-0.45802-0.4444-1.0493-0.6665-1.7739-0.6665-0.71778 0-1.3159 0.2256-1.7944 0.6767-0.47851 0.4512-0.78613 1.128-0.92285 2.0303l-1.8457-0.3281c0.22558-1.2373 0.73828-2.1961 1.5381-2.8762 0.7998-0.68021 1.7944-1.0203 2.9839-1.0203 0.82031 0 1.5757 0.176 2.2661 0.5281 0.69043 0.35201 1.2185 0.83231 1.5842 1.4406 0.36572 0.6085 0.54857 1.2544 0.54859 1.938-0.00002 0.6495-0.17433 1.2408-0.52296 1.774s-0.86474 0.957-1.5483 1.2714c0.88866 0.2051 1.5791 0.6307 2.0713 1.2766 0.49217 0.6461 0.73827 1.4544 0.73828 2.4251-0.00001 1.3125-0.47853 2.425-1.4356 3.3376-0.95704 0.9126-2.167 1.3689-3.6299 1.3689-1.3193 0-2.4148-0.393-3.2864-1.1792-0.87158-0.7861-1.3689-1.8046-1.4919-3.0556z"/>
 <path id="path7579" d="m288.15 118.89v-1.774h9.731v1.4356c-0.95704 1.0185-1.9055 2.3721-2.8454 4.0605-0.93996 1.6885-1.6663 3.4248-2.179 5.209-0.36915 1.2578-0.60499 2.6353-0.70752 4.1323h-1.897c0.0205-1.1826 0.25292-2.6113 0.69726-4.2861s1.0818-3.2898 1.9124-4.845c0.83055-1.5551 1.7141-2.8659 2.6506-3.9323z"/>
 <path id="path7564" d="m437.08 34.434h-1.8457v-11.761c-0.44435 0.4238-1.0271 0.8476-1.7483 1.2715-0.7212 0.4238-1.3689 0.7417-1.9431 0.9536v-1.7842c1.0322-0.4854 1.9346-1.0732 2.707-1.7637 0.77245-0.6904 1.3193-1.3603 1.6406-2.0097h1.1894z"/>
 <path id="path7566" d="m442.81 34.434v-2.102h2.1021v2.102c-0.00001 0.7725-0.13673 1.3962-0.41016 1.8713-0.27344 0.4751-0.70752 0.8426-1.3022 1.1023l-0.5127-0.7895c0.38964-0.1709 0.67675-0.4221 0.86133-0.7537 0.18456-0.3315 0.28711-0.8083 0.30762-1.4304z"/>
 <path id="path7568" d="m447.65 30.466 1.8457-0.2461c0.21192 1.046 0.57251 1.7996 1.0818 2.261 0.50927 0.4615 1.1296 0.6922 1.8611 0.6922 0.86815 0 1.6013-0.3008 2.1994-0.9024 0.59815-0.6015 0.89722-1.3466 0.89722-2.2353 0-0.8477-0.27686-1.5466-0.83056-2.0969-0.55372-0.5503-1.2578-0.8255-2.1123-0.8255-0.34864 0-0.78272 0.068-1.3022 0.2051l0.20507-1.6201c0.12305 0.014 0.22217 0.021 0.29737 0.021 0.78613 0 1.4936-0.2051 2.1226-0.6153 0.6289-0.4101 0.94335-1.0424 0.94336-1.8969-0.00001-0.6768-0.22901-1.2373-0.68702-1.6817-0.45801-0.4443-1.0493-0.6665-1.7739-0.6665-0.71778 0-1.3159 0.2256-1.7944 0.6768-0.47853 0.4512-0.78614 1.1279-0.92286 2.0303l-1.8457-0.3282c0.22558-1.2373 0.73828-2.196 1.5381-2.8762 0.79981-0.6802 1.7944-1.0202 2.9839-1.0203 0.82031 0.0001 1.5757 0.1761 2.2661 0.5281 0.69043 0.3521 1.2185 0.8323 1.5842 1.4407 0.36572 0.6084 0.54858 1.2544 0.54859 1.938-0.00001 0.6494-0.17433 1.2407-0.52295 1.7739-0.34865 0.5332-0.86476 0.9571-1.5483 1.2715 0.88866 0.2051 1.5791 0.6306 2.0713 1.2766 0.49218 0.646 0.73828 1.4544 0.73829 2.4251-0.00001 1.3125-0.47852 2.425-1.4356 3.3376-0.95704 0.9126-2.167 1.3689-3.6299 1.3689-1.3193 0-2.4148-0.3931-3.2864-1.1792-0.87158-0.7861-1.3689-1.8047-1.4919-3.0557z"/>
 <path id="path7570" d="m462.17 26.282c-0.76563-0.2802-1.333-0.6801-1.7022-1.1997-0.36914-0.5195-0.55371-1.1416-0.55371-1.8662 0-1.0937 0.39307-2.0131 1.1792-2.7583 0.78613-0.7451 1.832-1.1176 3.1377-1.1176 1.3125 0 2.3686 0.3811 3.1684 1.1433 0.79979 0.7622 1.1997 1.6902 1.1997 2.7839-0.00001 0.6973-0.18287 1.304-0.54858 1.8201-0.36574 0.5161-0.92116 0.9143-1.6663 1.1945 0.92284 0.3008 1.6252 0.7862 2.1072 1.4561 0.48192 0.6699 0.72288 1.4697 0.72289 2.3994-0.00001 1.2852-0.4546 2.3653-1.3638 3.2403-0.90918 0.875-2.1055 1.3125-3.5889 1.3125s-2.6797-0.4393-3.5889-1.3177c-0.90918-0.8784-1.3638-1.9739-1.3638-3.2864 0-0.9775 0.2478-1.7961 0.74341-2.4558 0.49561-0.6596 1.2014-1.1091 2.1174-1.3484zm-0.36914-3.1274c-0.00001 0.711 0.229 1.292 0.68701 1.7432 0.458 0.4511 1.0527 0.6767 1.7842 0.6767 0.71093 0 1.2937-0.2238 1.7483-0.6716 0.45458-0.4477 0.68188-0.9963 0.68188-1.6458 0-0.6767-0.23413-1.2458-0.70238-1.7072-0.46828-0.4614-1.051-0.6922-1.7483-0.6922-0.70411 0-1.2886 0.2256-1.7534 0.6768-0.46484 0.4512-0.69727 0.9912-0.69726 1.6201zm-0.59473 6.9419c0 0.5264 0.12476 1.0356 0.37427 1.5278s0.62036 0.8733 1.1126 1.1433c0.49218 0.2701 1.022 0.4051 1.5894 0.4051 0.88183 0 1.6099-0.2837 2.1841-0.8511s0.86132-1.2886 0.86133-2.1636c-0.00001-0.8886-0.29567-1.6235-0.88697-2.2046-0.59131-0.581-1.3313-0.8715-2.22-0.8715-0.86817 0-1.5876 0.2871-2.1584 0.8613s-0.8562 1.292-0.8562 2.1533z"/>
 <path id="path7555" d="m466.09 83.495h-1.8457v-11.761c-0.44434 0.4239-1.0271 0.8477-1.7483 1.2715-0.7212 0.4239-1.3689 0.7417-1.9431 0.9536v-1.7841c1.0322-0.4854 1.9346-1.0733 2.707-1.7637 0.77245-0.6904 1.3193-1.3604 1.6406-2.0098h1.1894z"/>
 <path id="path7557" d="m471.82 83.495v-2.1021h2.1021v2.1021c-0.00001 0.7724-0.13673 1.3962-0.41016 1.8713-0.27344 0.4751-0.70752 0.8425-1.3022 1.1023l-0.51269-0.7895c0.38965-0.171 0.67675-0.4222 0.86133-0.7537 0.18457-0.3316 0.28711-0.8084 0.30761-1.4304z"/>
 <path id="path7559" d="m482.57 83.495v-3.5992h-6.5215v-1.6918l6.8599-9.7413h1.5073v9.7413h2.0303v1.6918h-2.0303v3.5992zm0-5.291v-6.7779l-4.7065 6.7779z"/>
 <path id="path7561" d="m495.29 83.495h-1.8457v-11.761c-0.44435 0.4239-1.0271 0.8477-1.7483 1.2715-0.72119 0.4239-1.3689 0.7417-1.9431 0.9536v-1.7841c1.0322-0.4854 1.9346-1.0733 2.707-1.7637 0.77246-0.6904 1.3193-1.3604 1.6406-2.0098h1.1894z"/>
 <path id="path7546" d="m443.58 135.19h-1.8457v-11.761c-0.44434 0.4239-1.0271 0.8477-1.7483 1.2715-0.72119 0.4238-1.3689 0.7417-1.9431 0.9536v-1.7842c1.0322-0.4853 1.9346-1.0732 2.707-1.7636 0.77246-0.6905 1.3193-1.3604 1.6406-2.0098h1.1895z"/>
 <path id="path7548" d="m449.31 135.19v-2.1021h2.102v2.1021c0 0.7724-0.13672 1.3962-0.41015 1.8713-0.27345 0.4751-0.70752 0.8425-1.3022 1.1023l-0.51269-0.7896c0.38964-0.1709 0.67675-0.4221 0.86133-0.7536 0.18456-0.3316 0.2871-0.8084 0.30761-1.4304z"/>
 <path id="path7550" d="m454.26 122.13v-1.7739h9.731v1.4355c-0.95704 1.0186-1.9055 2.3721-2.8455 4.0605-0.93995 1.6885-1.6663 3.4248-2.179 5.209-0.36915 1.2578-0.60498 2.6353-0.70751 4.1324h-1.897c0.0205-1.1827 0.25293-2.6114 0.69727-4.2862 0.44433-1.6748 1.0818-3.2898 1.9124-4.845 0.83056-1.5551 1.7141-2.8659 2.6506-3.9323z"/>
 <path id="path7552" d="m465.84 131.22 1.8457-0.2461c0.21191 1.0459 0.57251 1.7996 1.0818 2.261 0.50927 0.4614 1.1296 0.6921 1.8611 0.6921 0.86816 0 1.6013-0.3008 2.1995-0.9023 0.59813-0.6016 0.8972-1.3467 0.89721-2.2354-0.00001-0.8476-0.27686-1.5466-0.83057-2.0969s-1.2578-0.8254-2.1123-0.8254c-0.34863 0-0.78272 0.068-1.3022 0.205l0.20508-1.6201c0.12303 0.014 0.22215 0.02 0.29736 0.02 0.78612 0 1.4936-0.2051 2.1226-0.6152 0.62889-0.4102 0.94335-1.0425 0.94335-1.897 0-0.6767-0.22901-1.2373-0.687-1.6816-0.45802-0.4444-1.0493-0.6665-1.7739-0.6665-0.71778 0-1.3159 0.2256-1.7944 0.6767-0.47851 0.4512-0.78613 1.128-0.92285 2.0303l-1.8457-0.3281c0.22559-1.2373 0.73828-2.1961 1.5381-2.8762 0.7998-0.6802 1.7944-1.0203 2.9839-1.0203 0.82031 0 1.5757 0.176 2.2661 0.5281 0.69042 0.352 1.2185 0.8323 1.5842 1.4406 0.36572 0.6084 0.54857 1.2544 0.54859 1.938-0.00002 0.6494-0.17433 1.2408-0.52295 1.774-0.34864 0.5332-0.86475 0.957-1.5483 1.2714 0.88866 0.2051 1.5791 0.6307 2.0713 1.2766 0.49217 0.6461 0.73827 1.4544 0.73828 2.4251-0.00001 1.3125-0.47853 2.425-1.4356 3.3376-0.95704 0.9126-2.167 1.3689-3.6299 1.3689-1.3193 0-2.4148-0.393-3.2864-1.1792-0.87158-0.7861-1.3689-1.8046-1.4919-3.0556z"/>
 <path id="path7537" d="m605.72 34.434h-1.8457v-11.761c-0.44435 0.4238-1.0271 0.8476-1.7483 1.2715-0.72119 0.4238-1.3689 0.7417-1.9431 0.9536v-1.7842c1.0322-0.4853 1.9346-1.0732 2.707-1.7637 0.77246-0.6904 1.3193-1.3603 1.6406-2.0097h1.1894z"/>
 <path id="path7539" d="m611.46 34.434v-2.1021h2.102v2.1021c0 0.7725-0.13672 1.3962-0.41016 1.8713-0.27343 0.4751-0.70752 0.8426-1.3022 1.1023l-0.5127-0.7895c0.38965-0.1709 0.67676-0.4221 0.86133-0.7537 0.18457-0.3315 0.28711-0.8083 0.30762-1.4304z"/>
 <path id="path7541" d="m622.2 34.434v-3.5991h-6.5215v-1.6919l6.8599-9.7412h1.5073v9.7412h2.0303v1.6919h-2.0303v3.5991zm0-5.291v-6.7778l-4.7066 6.7778z"/>
 <path id="path7543" d="m627.97 27.021c-0.00001-1.7773 0.18286-3.2077 0.54858-4.2912s0.90918-1.9192 1.6304-2.5071c0.72119-0.5879 1.6287-0.8818 2.7224-0.8818 0.80663 0 1.5142 0.1623 2.1226 0.487 0.60839 0.3247 1.1108 0.793 1.5073 1.4048 0.39647 0.6118 0.7075 1.3569 0.9331 2.2354 0.22557 0.8784 0.33837 2.0627 0.33838 3.5529-0.00001 1.7637-0.18116 3.1873-0.54346 4.2708-0.36231 1.0835-0.90406 1.9209-1.6252 2.5122-0.7212 0.5913-1.6321 0.8869-2.7327 0.8869-1.4492 0-2.5874-0.5195-3.4146-1.5585-0.99121-1.251-1.4868-3.2881-1.4868-6.1114zm1.897 0c0 2.4678 0.28881 4.1101 0.86646 4.927 0.57762 0.8169 1.2903 1.2254 2.1379 1.2254 0.84765 0 1.5603-0.4102 2.1379-1.2305 0.57763-0.8203 0.86645-2.4609 0.86646-4.9219-0.00001-2.4746-0.28883-4.1186-0.86646-4.9321-0.57764-0.8135-1.2971-1.2202-2.1584-1.2202-0.84767 0-1.5244 0.3589-2.0303 1.0766-0.63574 0.9161-0.95361 2.608-0.95361 5.0757z"/>
 <path id="path7528" d="m637.8 83.495h-1.8457v-11.761c-0.44434 0.4238-1.0271 0.8476-1.7483 1.2714-0.72119 0.4239-1.3689 0.7417-1.9431 0.9536v-1.7841c1.0322-0.4854 1.9346-1.0733 2.707-1.7637 0.77245-0.6904 1.3193-1.3603 1.6406-2.0098h1.1894z"/>
 <path id="path7530" d="m643.53 83.495v-2.1021h2.102v2.1021c-0.00001 0.7724-0.13672 1.3962-0.41016 1.8713s-0.70752 0.8425-1.3022 1.1023l-0.51269-0.7895c0.38965-0.1709 0.67676-0.4222 0.86133-0.7537s0.28711-0.8084 0.30761-1.4304z"/>
 <path id="path7532" d="m648.37 79.526 1.8457-0.2461c0.21191 1.0459 0.57251 1.7996 1.0818 2.261 0.50928 0.4614 1.1296 0.6922 1.8611 0.6922 0.86817 0 1.6013-0.3008 2.1995-0.9024 0.59813-0.6016 0.89721-1.3467 0.89722-2.2353-0.00001-0.8477-0.27687-1.5467-0.83057-2.097-0.55372-0.5503-1.2578-0.8254-2.1123-0.8254-0.34863 0-0.78272 0.068-1.3022 0.2051l0.20508-1.6201c0.12304 0.014 0.22216 0.021 0.29736 0.021 0.78612 0 1.4936-0.2051 2.1226-0.6153 0.62889-0.4101 0.94335-1.0424 0.94336-1.8969-0.00001-0.6768-0.22901-1.2373-0.68701-1.6817-0.45802-0.4443-1.0493-0.6665-1.7739-0.6665-0.71778 0-1.3159 0.2256-1.7944 0.6768-0.47852 0.4512-0.78614 1.1279-0.92285 2.0302l-1.8457-0.3281c0.22559-1.2373 0.73828-2.196 1.5381-2.8762 0.7998-0.6802 1.7944-1.0203 2.9839-1.0203 0.8203 0 1.5757 0.1761 2.2661 0.5281 0.69042 0.3521 1.2185 0.8323 1.5842 1.4407 0.36571 0.6084 0.54857 1.2544 0.54858 1.938-0.00001 0.6494-0.17432 1.2407-0.52295 1.7739-0.34864 0.5332-0.86475 0.957-1.5483 1.2715 0.88867 0.2051 1.5791 0.6306 2.0713 1.2766 0.49218 0.646 0.73827 1.4543 0.73828 2.425-0.00001 1.3125-0.47853 2.4251-1.4356 3.3377-0.95704 0.9126-2.167 1.3689-3.6299 1.3689-1.3193 0-2.4148-0.3931-3.2864-1.1792-0.87158-0.7862-1.3689-1.8047-1.4919-3.0557z"/>
 <path id="path7534" d="m660.32 80.018 1.7739-0.1641c0.15039 0.834 0.4375 1.439 0.86133 1.815 0.42382 0.376 0.96728 0.564 1.6304 0.564 0.56738 0 1.0647-0.1299 1.4919-0.3897 0.42724-0.2598 0.77758-0.6067 1.051-1.0408 0.27343-0.434 0.50243-1.0202 0.68701-1.7585 0.18457-0.7383 0.27685-1.4902 0.27685-2.2559 0-0.082-0.004-0.205-0.0103-0.3691-0.36915 0.5879-0.8733 1.0647-1.5124 1.4304-0.63916 0.3657-1.3313 0.5486-2.0764 0.5486-1.2441 0-2.2969-0.4512-3.1582-1.3535-0.86133-0.9024-1.292-2.0918-1.292-3.5684 0-1.5244 0.44946-2.7514 1.3484-3.6811 0.89893-0.9297 2.0251-1.3946 3.3787-1.3946 0.97752 0 1.8713 0.2632 2.6814 0.7896 0.81005 0.5264 1.4253 1.2766 1.8457 2.2507s0.63061 2.3841 0.63062 4.2298c-0.00001 1.9209-0.20851 3.4504-0.62549 4.5886-0.417 1.1382-1.0374 2.0046-1.8611 2.5993-0.82374 0.5948-1.7893 0.8921-2.8967 0.8921-1.1758 0-2.1362-0.3264-2.8814-0.9792-0.74512-0.6528-1.1929-1.5706-1.3433-2.7532zm7.5571-6.6343c-0.00002-1.0595-0.28199-1.9003-0.84595-2.5224-0.56398-0.6221-1.2424-0.9331-2.0354-0.9331-0.82032 0-1.5347 0.3349-2.1431 1.0048-0.6084 0.67-0.9126 1.5381-0.9126 2.6045 0 0.9571 0.28882 1.7347 0.86646 2.3328 0.57763 0.5982 1.2903 0.8972 2.1379 0.8972 0.85448 0 1.5569-0.299 2.1072-0.8972 0.55028-0.5981 0.82542-1.427 0.82544-2.4866z"/>
 <path id="path7519" d="m613.05 138.99h-1.8457v-11.761c-0.44435 0.4238-1.0271 0.8477-1.7483 1.2715-0.72119 0.4238-1.3689 0.7417-1.9431 0.9536v-1.7842c1.0322-0.4853 1.9346-1.0732 2.707-1.7637 0.77246-0.6904 1.3193-1.3603 1.6406-2.0097h1.1894z"/>
 <path id="path7521" d="m618.78 138.99v-2.102h2.1021v2.102c-0.00001 0.7725-0.13673 1.3963-0.41016 1.8714-0.27345 0.4751-0.70752 0.8425-1.3022 1.1023l-0.51269-0.7896c0.38964-0.1709 0.67675-0.4221 0.86133-0.7537 0.18456-0.3315 0.28709-0.8083 0.30761-1.4304z"/>
 <path id="path7523" d="m626.45 130.83c-0.76562-0.2803-1.333-0.6802-1.7022-1.1997-0.36914-0.5196-0.55371-1.1416-0.55371-1.8663 0-1.0937 0.39307-2.0131 1.1792-2.7583 0.78612-0.7451 1.832-1.1176 3.1377-1.1176 1.3125 0 2.3686 0.3811 3.1685 1.1433 0.79979 0.7622 1.1997 1.6902 1.1997 2.7839 0 0.6973-0.18287 1.304-0.54858 1.8201-0.36573 0.5161-0.92115 0.9143-1.6663 1.1946 0.92284 0.3008 1.6252 0.7861 2.1072 1.456 0.48193 0.6699 0.7229 1.4698 0.72291 2.3994-0.00001 1.2852-0.4546 2.3653-1.3638 3.2403-0.90919 0.875-2.1055 1.3125-3.5889 1.3125s-2.6797-0.4392-3.5889-1.3177c-0.90918-0.8784-1.3638-1.9738-1.3638-3.2863 0-0.9776 0.2478-1.7962 0.74341-2.4558 0.49561-0.6597 1.2014-1.1092 2.1174-1.3484zm-0.36913-3.1275c-0.00001 0.711 0.22899 1.292 0.687 1.7432s1.0527 0.6768 1.7842 0.6767c0.71093 0.0001 1.2937-0.2238 1.7483-0.6716 0.45459-0.4477 0.68188-0.9963 0.68189-1.6457-0.00001-0.6768-0.23414-1.2459-0.70239-1.7073-0.46827-0.4614-1.051-0.6921-1.7483-0.6921-0.7041 0-1.2886 0.2256-1.7534 0.6767-0.46485 0.4512-0.69727 0.9912-0.69726 1.6201zm-0.59473 6.9419c-0.00001 0.5264 0.12475 1.0357 0.37426 1.5278 0.24951 0.4922 0.62036 0.8733 1.1126 1.1434 0.49218 0.27 1.022 0.405 1.5894 0.405 0.88183 0 1.6098-0.2837 2.1841-0.8511 0.57421-0.5674 0.86132-1.2886 0.86133-2.1636-0.00001-0.8886-0.29566-1.6235-0.88696-2.2046-0.59132-0.581-1.3313-0.8715-2.22-0.8715-0.86817 0-1.5877 0.2871-2.1584 0.8613-0.5708 0.5742-0.85621 1.292-0.8562 2.1533z"/>
 <path id="path7525" d="m635.3 135.05 1.938-0.164c0.14355 0.9433 0.47679 1.6525 0.99975 2.1276 0.52294 0.4751 1.1536 0.7127 1.8918 0.7127 0.88866 0 1.6406-0.335 2.2559-1.0049 0.61522-0.6699 0.92283-1.5586 0.92285-2.666-0.00002-1.0527-0.29567-1.8833-0.88697-2.4917-0.59131-0.6084-1.3655-0.9126-2.3225-0.9126-0.59473 0-1.1314 0.135-1.6099 0.405-0.47852 0.2701-0.85449 0.6204-1.1279 1.051l-1.7329-0.2255 1.4561-7.7212h7.4751v1.7636h-5.9985l-0.81006 4.0401c0.90234-0.6289 1.8491-0.9434 2.8403-0.9434 1.3125 0 2.4199 0.4546 3.3223 1.3638 0.90233 0.9092 1.3535 2.0781 1.3535 3.5068-0.00001 1.3604-0.3965 2.5362-1.1894 3.5274-0.96388 1.2168-2.2798 1.8252-3.9478 1.8252-1.3672 0-2.4832-0.3828-3.3479-1.1485-0.86475-0.7656-1.3586-1.7807-1.4817-3.0454z"/>
 <path id="path7510" d="m774.92 34.434h-1.8457v-11.761c-0.44433 0.4238-1.0271 0.8476-1.7483 1.2715-0.7212 0.4238-1.3689 0.7417-1.9431 0.9536v-1.7842c1.0322-0.4853 1.9346-1.0732 2.707-1.7637 0.77245-0.6904 1.3193-1.3603 1.6406-2.0097h1.1895z"/>
 <path id="path7512" d="m780.66 34.434v-2.102h2.102v2.102c0 0.7725-0.13672 1.3962-0.41015 1.8713-0.27344 0.4751-0.70753 0.8426-1.3022 1.1023l-0.5127-0.7895c0.38965-0.1709 0.67676-0.4221 0.86133-0.7537 0.18457-0.3315 0.28711-0.8083 0.30762-1.4304z"/>
 <path id="path7514" d="m785.5 30.466 1.8457-0.246c0.21191 1.0459 0.5725 1.7995 1.0818 2.2609 0.50928 0.4615 1.1296 0.6922 1.8611 0.6922 0.86816 0 1.6013-0.3008 2.1995-0.9024 0.59813-0.6015 0.8972-1.3466 0.89721-2.2353-0.00001-0.8477-0.27687-1.5466-0.83057-2.0969-0.55372-0.5503-1.2578-0.8255-2.1123-0.8255-0.34864 0-0.78272 0.068-1.3022 0.2051l0.20508-1.6201c0.12304 0.014 0.22216 0.021 0.29736 0.021 0.78613 0 1.4936-0.2051 2.1226-0.6153 0.6289-0.4101 0.94335-1.0424 0.94336-1.8969-0.00001-0.6768-0.22901-1.2373-0.68702-1.6817-0.45801-0.4443-1.0493-0.6665-1.7739-0.6665-0.71778 0-1.3159 0.2256-1.7944 0.6768-0.47852 0.4512-0.78614 1.1279-0.92285 2.0303l-1.8457-0.3282c0.22558-1.2373 0.73828-2.196 1.5381-2.8762 0.7998-0.6801 1.7944-1.0202 2.9839-1.0203 0.8203 0.0001 1.5757 0.1761 2.2661 0.5281 0.69042 0.3521 1.2185 0.8323 1.5842 1.4407 0.36571 0.6084 0.54857 1.2544 0.54859 1.938-0.00002 0.6494-0.17433 1.2407-0.52296 1.7739s-0.86475 0.9571-1.5483 1.2715c0.88866 0.2051 1.5791 0.6306 2.0713 1.2766 0.49217 0.646 0.73827 1.4544 0.73827 2.4251 0 1.3125-0.47852 2.425-1.4355 3.3376-0.95704 0.9126-2.167 1.3689-3.6299 1.3689-1.3193 0-2.4148-0.3931-3.2864-1.1792-0.87158-0.7861-1.3689-1.8047-1.492-3.0557z"/>
 <path id="path7516" d="m797.45 30.958 1.7739-0.164c0.15039 0.834 0.4375 1.4389 0.86133 1.8149s0.96729 0.564 1.6304 0.564c0.56737 0 1.0647-0.1299 1.4919-0.3897 0.42724-0.2597 0.77758-0.6067 1.051-1.0407 0.27343-0.4341 0.50243-1.0203 0.68701-1.7586 0.18456-0.7383 0.27685-1.4902 0.27686-2.2558-0.00001-0.082-0.004-0.2051-0.0103-0.3692-0.36915 0.5879-0.8733 1.0647-1.5124 1.4304-0.63917 0.3658-1.3313 0.5486-2.0764 0.5486-1.2441 0-2.2969-0.4512-3.1582-1.3535-0.86133-0.9023-1.292-2.0918-1.292-3.5684 0-1.5244 0.44946-2.7514 1.3484-3.6811 0.89892-0.9297 2.0251-1.3945 3.3787-1.3945 0.97753 0 1.8713 0.2632 2.6814 0.7895 0.81004 0.5264 1.4253 1.2766 1.8457 2.2507 0.4204 0.9742 0.6306 2.3841 0.63062 4.2298-0.00002 1.9209-0.20851 3.4504-0.62549 4.5886-0.417 1.1382-1.0374 2.0046-1.8611 2.5994-0.82374 0.5947-1.7893 0.8921-2.8967 0.8921-1.1758 0-2.1362-0.3265-2.8814-0.9793-0.74511-0.6528-1.1929-1.5705-1.3432-2.7532zm7.5571-6.6342c-0.00001-1.0596-0.28199-1.9004-0.84595-2.5225-0.56397-0.6221-1.2424-0.9331-2.0354-0.9331-0.82031 0-1.5347 0.335-2.1431 1.0049s-0.9126 1.5381-0.9126 2.6045c0 0.957 0.28882 1.7346 0.86646 2.3327 0.57763 0.5982 1.2903 0.8973 2.1379 0.8972 0.85449 0.0001 1.5569-0.299 2.1072-0.8972 0.55029-0.5981 0.82544-1.427 0.82545-2.4865z"/>
 <path id="path7501" d="m808.76 81.495h-1.8457v-11.761c-0.44435 0.4239-1.0271 0.8477-1.7483 1.2715-0.72119 0.4239-1.3689 0.7417-1.9431 0.9536v-1.7841c1.0322-0.4854 1.9346-1.0733 2.707-1.7637 0.77246-0.6904 1.3193-1.3604 1.6406-2.0098h1.1894z"/>
 <path id="path7503" d="m814.5 81.495v-2.1021h2.102v2.1021c0 0.7724-0.13672 1.3962-0.41016 1.8713s-0.70752 0.8425-1.3022 1.1023l-0.5127-0.7896c0.38965-0.1708 0.67676-0.4221 0.86134-0.7536 0.18456-0.3316 0.2871-0.8084 0.30761-1.4304z"/>
 <path id="path7505" d="m825.24 81.495v-3.5992h-6.5215v-1.6918l6.8599-9.7413h1.5073v9.7413h2.0303v1.6918h-2.0303v3.5992zm0-5.291v-6.7779l-4.7066 6.7779z"/>
 <path id="path7507" d="m831.01 74.081c0-1.7773 0.18287-3.2078 0.54859-4.2913 0.36572-1.0834 0.90917-1.9191 1.6304-2.507 0.72119-0.5879 1.6287-0.8819 2.7224-0.8819 0.80663 0 1.5142 0.1624 2.1226 0.4871 0.60839 0.3247 1.1108 0.793 1.5073 1.4048 0.39648 0.6118 0.70751 1.3569 0.93311 2.2353 0.22557 0.8784 0.33837 2.0628 0.33838 3.553-0.00001 1.7637-0.18117 3.1873-0.54346 4.2707-0.36231 1.0835-0.90406 1.9209-1.6252 2.5123-0.7212 0.5913-1.6321 0.8869-2.7327 0.8869-1.4492 0-2.5874-0.5195-3.4146-1.5586-0.99121-1.251-1.4868-3.2881-1.4868-6.1113zm1.897 0c0 2.4678 0.28881 4.1101 0.86645 4.927 0.57763 0.8169 1.2903 1.2253 2.1379 1.2253 0.84765 0 1.5603-0.4101 2.1379-1.2304 0.57763-0.8203 0.86645-2.461 0.86646-4.9219-0.00001-2.4746-0.28883-4.1186-0.86646-4.9321-0.57764-0.8135-1.2971-1.2202-2.1584-1.2203-0.84767 0.0001-1.5244 0.359-2.0303 1.0767-0.63575 0.916-0.95361 2.6079-0.95361 5.0757z"/>
 <path id="path7492" d="m790.05 137.72v1.7739h-9.936c-0.0136-0.4443 0.0581-0.8716 0.21533-1.2817 0.25293-0.6768 0.65796-1.3433 1.2151-1.9996 0.55712-0.6562 1.362-1.415 2.4148-2.2763 1.6338-1.3399 2.7378-2.4011 3.312-3.1839 0.5742-0.7827 0.86131-1.5227 0.86133-2.2199-0.00002-0.7315-0.26149-1.3484-0.78443-1.8509-0.52296-0.5024-1.2048-0.7536-2.0456-0.7536-0.88868 0-1.5996 0.2666-2.1328 0.7998s-0.80322 1.2715-0.81006 2.2148l-1.897-0.1948c0.12988-1.415 0.61865-2.4934 1.4663-3.2351 0.84766-0.7417 1.9858-1.1125 3.4146-1.1126 1.4424 0.0001 2.584 0.4 3.4248 1.1997 0.84081 0.7999 1.2612 1.7911 1.2612 2.9737-0.00001 0.6016-0.12305 1.1929-0.36914 1.7739-0.2461 0.5811-0.65455 1.1929-1.2253 1.8355-0.5708 0.6425-1.5193 1.5244-2.8455 2.6455-1.1074 0.9297-1.8184 1.5603-2.1328 1.8918-0.31446 0.3316-0.57422 0.6648-0.77929 0.9998z"/>
 <path id="path7494" d="m793.03 139.49v-2.1021h2.102v2.1021c-0.00001 0.7725-0.13672 1.3962-0.41016 1.8713s-0.70752 0.8426-1.3022 1.1023l-0.5127-0.7895c0.38965-0.1709 0.67676-0.4221 0.86133-0.7537 0.18457-0.3315 0.28711-0.8083 0.30762-1.4304z"/>
 <path id="path7496" d="m797.86 132.08c0-1.7773 0.18286-3.2077 0.54858-4.2912 0.36573-1.0835 0.90918-1.9192 1.6304-2.5071 0.72119-0.5879 1.6287-0.8818 2.7224-0.8819 0.80664 0.0001 1.5142 0.1624 2.1226 0.4871s1.1108 0.793 1.5073 1.4048c0.39648 0.6118 0.70752 1.3569 0.93312 2.2353 0.22557 0.8785 0.33836 2.0628 0.33837 3.553-0.00001 1.7637-0.18116 3.1873-0.54345 4.2708-0.36232 1.0835-0.90407 1.9209-1.6252 2.5122-0.7212 0.5913-1.6321 0.8869-2.7327 0.8869-1.4492 0-2.5874-0.5195-3.4145-1.5585-0.99122-1.251-1.4868-3.2881-1.4868-6.1114zm1.897 0c0 2.4678 0.28882 4.1101 0.86646 4.927 0.57763 0.8169 1.2903 1.2254 2.1379 1.2254 0.84765 0 1.5603-0.4102 2.1379-1.2305 0.57763-0.8203 0.86644-2.4609 0.86645-4.9219-0.00001-2.4746-0.28882-4.1186-0.86645-4.9321-0.57765-0.8135-1.2971-1.2202-2.1584-1.2202-0.84766 0-1.5244 0.3589-2.0303 1.0766-0.63575 0.9161-0.95362 2.608-0.95362 5.0757z"/>
 <path id="path7498" d="m809.55 135.55 1.938-0.1641c0.14355 0.9434 0.4768 1.6526 0.99975 2.1277s1.1536 0.7127 1.8918 0.7127c0.88866 0 1.6406-0.335 2.2559-1.0049 0.61523-0.6699 0.92284-1.5586 0.92285-2.666-0.00001-1.0528-0.29566-1.8833-0.88696-2.4917-0.59132-0.6084-1.3655-0.9126-2.3225-0.9126-0.59474 0-1.1314 0.135-1.6099 0.405-0.47852 0.27-0.8545 0.6204-1.1279 1.051l-1.7329-0.2256 1.4561-7.7212h7.4751v1.7637h-5.9985l-0.81006 4.0401c0.90234-0.6289 1.8491-0.9434 2.8403-0.9434 1.3125 0 2.4199 0.4546 3.3223 1.3638 0.90234 0.9092 1.3535 2.0781 1.3535 3.5068 0 1.3604-0.39648 2.5361-1.1894 3.5273-0.96388 1.2168-2.2798 1.8252-3.9478 1.8252-1.3672 0-2.4832-0.3828-3.3479-1.1484-0.86475-0.7656-1.3586-1.7808-1.4817-3.0454z"/>
 <path id="path7483" d="m947.41 34.434h-1.8457v-11.761c-0.44434 0.4238-1.0271 0.8476-1.7483 1.2715-0.72119 0.4238-1.3689 0.7417-1.9431 0.9536v-1.7842c1.0322-0.4853 1.9346-1.0732 2.707-1.7637 0.77246-0.6904 1.3193-1.3603 1.6406-2.0097h1.1894z"/>
 <path id="path7485" d="m953.14 34.434v-2.102h2.102v2.102c-0.00001 0.7725-0.13672 1.3962-0.41016 1.8713s-0.70752 0.8426-1.3022 1.1023l-0.51269-0.7895c0.38965-0.1709 0.67676-0.4221 0.86133-0.7537 0.18457-0.3315 0.28711-0.8083 0.30762-1.4304z"/>
 <path id="path7487" d="m963.89 34.434v-3.5991h-6.5215v-1.6919l6.8599-9.7412h1.5073v9.7412h2.0303v1.6919h-2.0303v3.5991zm0-5.291v-6.7778l-4.7066 6.7778z"/>
 <path id="path7489" d="m969.66 27.021c0-1.7773 0.18286-3.2077 0.54859-4.2912 0.36572-1.0835 0.90917-1.9192 1.6304-2.5071 0.72118-0.5879 1.6286-0.8818 2.7224-0.8818 0.80663 0 1.5142 0.1623 2.1226 0.487 0.60838 0.3247 1.1108 0.793 1.5073 1.4048 0.39648 0.6118 0.70751 1.3569 0.9331 2.2354 0.22558 0.8784 0.33837 2.0627 0.33839 3.5529-0.00002 1.7637-0.18117 3.1873-0.54346 4.2708-0.36232 1.0835-0.90406 1.9209-1.6252 2.5122-0.7212 0.5913-1.6321 0.887-2.7327 0.887-1.4492 0-2.5874-0.5196-3.4146-1.5586-0.9912-1.251-1.4868-3.2881-1.4868-6.1114zm1.897 0c0 2.4678 0.28882 4.1101 0.86646 4.927 0.57763 0.8169 1.2903 1.2254 2.1379 1.2254 0.84765 0 1.5603-0.4102 2.1379-1.2305 0.57764-0.8203 0.86646-2.4609 0.86646-4.9219 0-2.4746-0.28882-4.1186-0.86646-4.9321s-1.2971-1.2202-2.1584-1.2202c-0.84766 0-1.5244 0.3589-2.0303 1.0767-0.63574 0.916-0.95361 2.6079-0.95361 5.0756z"/>
 <path id="path7474" d="m979.48 81.474h-1.8457v-11.761c-0.44433 0.4239-1.0271 0.8477-1.7483 1.2715-0.7212 0.4239-1.3689 0.7417-1.9431 0.9536v-1.7841c1.0322-0.4854 1.9346-1.0733 2.707-1.7637 0.77245-0.6904 1.3193-1.3604 1.6406-2.0098h1.1895z"/>
 <path id="path7476" d="m985.21 81.474v-2.1021h2.102v2.1021c0 0.7724-0.13672 1.3962-0.41015 1.8713-0.27344 0.4751-0.70752 0.8425-1.3022 1.1023l-0.51269-0.7895c0.38965-0.1709 0.67675-0.4222 0.86133-0.7537 0.18457-0.3315 0.2871-0.8084 0.30761-1.4304z"/>
 <path id="path7478" d="m995.96 81.474v-3.5991h-6.5215v-1.6919l6.8599-9.7413h1.5073v9.7413h2.0303v1.6919h-2.0303v3.5991zm0-5.291v-6.7779l-4.7066 6.7779z"/>
 <path id="path7480" d="m1001.7 74.061c0-1.7773 0.1828-3.2078 0.5485-4.2913 0.3658-1.0834 0.9092-1.9191 1.6304-2.507s1.6287-0.8819 2.7224-0.8819c0.8067 0 1.5142 0.1624 2.1226 0.4871s1.1108 0.793 1.5073 1.4048 0.7075 1.3569 0.9331 2.2353c0.2256 0.8785 0.3384 2.0628 0.3384 3.553 0 1.7637-0.1812 3.1873-0.5435 4.2708-0.3623 1.0834-0.904 1.9209-1.6252 2.5122s-1.6321 0.8869-2.7327 0.8869c-1.4492 0-2.5874-0.5195-3.4145-1.5586-0.9912-1.251-1.4868-3.2881-1.4868-6.1113zm1.8969 0c0 2.4678 0.2888 4.1101 0.8665 4.927 0.5776 0.8169 1.2903 1.2253 2.1379 1.2253 0.8477 0 1.5603-0.4101 2.138-1.2304 0.5776-0.8203 0.8664-2.461 0.8664-4.9219 0-2.4746-0.2888-4.1186-0.8664-4.9321-0.5777-0.8135-1.2972-1.2202-2.1585-1.2202-0.8476 0-1.5244 0.3589-2.0303 1.0766-0.6357 0.916-0.9536 2.6079-0.9536 5.0757z"/>
 <path id="path7465" d="m963.29 137.97v1.7739h-9.936c-0.0136-0.4443 0.0581-0.8715 0.21533-1.2817 0.25293-0.6768 0.65796-1.3433 1.2151-1.9995 0.55712-0.6563 1.362-1.415 2.4148-2.2764 1.6338-1.3398 2.7378-2.4011 3.312-3.1838 0.57421-0.7827 0.86132-1.5227 0.86133-2.22-0.00001-0.7314-0.26149-1.3484-0.78443-1.8508-0.52296-0.5024-1.2048-0.7537-2.0456-0.7537-0.88868 0-1.5996 0.2666-2.1328 0.7998-0.53321 0.5332-0.80323 1.2715-0.81006 2.2149l-1.897-0.1949c0.12988-1.415 0.61864-2.4934 1.4663-3.2351 0.84766-0.7416 1.9858-1.1125 3.4146-1.1125 1.4424 0 2.584 0.3999 3.4248 1.1997 0.84081 0.7998 1.2612 1.791 1.2612 2.9736-0.00001 0.6016-0.12306 1.1929-0.36914 1.774-0.2461 0.581-0.65455 1.1928-1.2253 1.8354-0.57081 0.6426-1.5193 1.5244-2.8455 2.6455-1.1074 0.9297-1.8184 1.5603-2.1328 1.8919-0.31445 0.3315-0.57422 0.6648-0.77929 0.9997z"/>
 <path id="path7467" d="m966.27 139.74v-2.102h2.102v2.102c0 0.7725-0.13672 1.3963-0.41016 1.8714-0.27343 0.4751-0.70751 0.8425-1.3022 1.1023l-0.51269-0.7896c0.38964-0.1709 0.67675-0.4221 0.86133-0.7536 0.18456-0.3316 0.2871-0.8084 0.30762-1.4305z"/>
 <path id="path7469" d="m978.05 139.74h-1.8457v-11.761c-0.44434 0.4238-1.0271 0.8477-1.7483 1.2715s-1.3689 0.7417-1.9431 0.9536v-1.7842c1.0322-0.4853 1.9346-1.0732 2.707-1.7636 0.77246-0.6905 1.3193-1.3604 1.6406-2.0098h1.1894z"/>
 <path id="path7471" d="m982.91 126.68v-1.774h9.731v1.4356c-0.95704 1.0185-1.9055 2.3721-2.8455 4.0605-0.93995 1.6885-1.6663 3.4248-2.179 5.209-0.36915 1.2578-0.60499 2.6353-0.70752 4.1323h-1.897c0.0205-1.1826 0.25293-2.6113 0.69727-4.2861 0.44433-1.6748 1.0818-3.2898 1.9124-4.845 0.83057-1.5551 1.7141-2.8659 2.6506-3.9323z"/>
 <path id="path7456" d="m292.36 83.495h-1.8457v-11.761c-0.44434 0.4238-1.0271 0.8476-1.7483 1.2714-0.7212 0.4239-1.3689 0.7417-1.9431 0.9536v-1.7841c1.0322-0.4854 1.9346-1.0733 2.707-1.7637 0.77246-0.6904 1.3193-1.3603 1.6406-2.0098h1.1894z"/>
 <path id="path7458" d="m298.09 83.495v-2.1021h2.102v2.1021c0 0.7724-0.13672 1.3962-0.41016 1.8713s-0.70752 0.8425-1.3022 1.1023l-0.5127-0.7895c0.38964-0.1709 0.67676-0.4222 0.86133-0.7537 0.18456-0.3315 0.2871-0.8084 0.30762-1.4304z"/>
 <path id="path7460" d="m302.93 79.526 1.8457-0.2461c0.21191 1.0459 0.5725 1.7996 1.0818 2.261 0.50927 0.4614 1.1296 0.6922 1.8611 0.6922 0.86815 0 1.6013-0.3008 2.1995-0.9024 0.59813-0.6016 0.8972-1.3467 0.89722-2.2353-0.00002-0.8477-0.27687-1.5467-0.83057-2.097-0.55372-0.5503-1.2578-0.8254-2.1123-0.8254-0.34864 0-0.78273 0.068-1.3022 0.2051l0.20508-1.6201c0.12304 0.014 0.22216 0.021 0.29736 0.021 0.78613 0 1.4936-0.2051 2.1226-0.6153 0.6289-0.4101 0.94335-1.0425 0.94336-1.897-0.00001-0.6767-0.22902-1.2372-0.68701-1.6816-0.45802-0.4443-1.0493-0.6665-1.7739-0.6665-0.71778 0-1.3159 0.2256-1.7944 0.6768-0.47851 0.4511-0.78613 1.1279-0.92285 2.0302l-1.8457-0.3281c0.22559-1.2373 0.73828-2.196 1.5381-2.8762 0.7998-0.6802 1.7944-1.0203 2.9839-1.0203 0.82031 0 1.5757 0.1761 2.2661 0.5281 0.69042 0.3521 1.2185 0.8323 1.5842 1.4407 0.36572 0.6084 0.54858 1.2544 0.54859 1.938-0.00001 0.6494-0.17433 1.2407-0.52295 1.7739-0.34864 0.5332-0.86475 0.957-1.5483 1.2715 0.88866 0.2051 1.5791 0.6306 2.0713 1.2766 0.49217 0.646 0.73827 1.4543 0.73828 2.425-0.00001 1.3125-0.47852 2.4251-1.4356 3.3377-0.95703 0.9126-2.167 1.3689-3.6299 1.3689-1.3193 0-2.4148-0.3931-3.2864-1.1792-0.87158-0.7862-1.3689-1.8047-1.4919-3.0557z"/>
 <path id="path7462" d="m314.89 80.018 1.7739-0.1641c0.15039 0.834 0.4375 1.439 0.86133 1.815 0.42382 0.376 0.96728 0.564 1.6304 0.564 0.56738 0 1.0647-0.1299 1.492-0.3897 0.42723-0.2598 0.77757-0.6067 1.051-1.0408 0.27343-0.434 0.50244-1.0202 0.68701-1.7585 0.18456-0.7383 0.27685-1.4902 0.27686-2.2559-0.00001-0.082-0.004-0.205-0.0103-0.3691-0.36915 0.5879-0.8733 1.0647-1.5124 1.4304-0.63917 0.3657-1.3313 0.5486-2.0764 0.5486-1.2441 0-2.2969-0.4512-3.1582-1.3535-0.86133-0.9024-1.292-2.0918-1.292-3.5684 0-1.5244 0.44946-2.7514 1.3484-3.6811 0.89892-0.9297 2.0251-1.3945 3.3787-1.3946 0.97753 0 1.8713 0.2632 2.6814 0.7896 0.81004 0.5264 1.4253 1.2766 1.8457 2.2507s0.6306 2.3841 0.63062 4.2298c-0.00002 1.9209-0.20851 3.4504-0.62549 4.5886-0.417 1.1382-1.0374 2.0046-1.8611 2.5993-0.82374 0.5948-1.7893 0.8921-2.8967 0.8921-1.1758 0-2.1362-0.3264-2.8813-0.9792-0.74512-0.6528-1.1929-1.5706-1.3433-2.7532zm7.5571-6.6343c0-1.0595-0.28199-1.9003-0.84594-2.5224-0.56397-0.6221-1.2424-0.9331-2.0354-0.9331-0.82031 0-1.5347 0.3349-2.1431 1.0048-0.6084 0.67-0.9126 1.5381-0.91259 2.6045-0.00001 0.9571 0.28881 1.7347 0.86645 2.3328 0.57763 0.5982 1.2903 0.8972 2.1379 0.8972 0.85448 0 1.5569-0.299 2.1072-0.8972 0.55028-0.5981 0.82543-1.427 0.82543-2.4866z"/>
 <path id="path2818-4-9-45-5-7-9-1" d="m240.31 124.35 39.605-24.27" stroke="#000" stroke-linecap="round" stroke-width="2.126" fill="none"/>
 <path id="path2818-4-9-45-6-42-6-6-9" d="m240.31 124.35-39.605-24.27" stroke="#000" stroke-linecap="round" stroke-width="2.126" fill="none"/>
 <path id="path2818-4-2-0-2-3-8" d="m200.66 100.12-1.19-47.22" stroke="#000" stroke-linecap="round" stroke-width="2.126" fill="none"/>
 <path id="path2818-4-2-3-9-9-4-9" d="m279.95 100.04 1.1962-47.143" stroke="#000" stroke-linecap="round" stroke-width="2.126" fill="none"/>
 <path id="path2818-4-0-4-8-3-2-8-7" d="m199.47 52.9 40.839-23.578" stroke="#000" stroke-linecap="round" stroke-width="2.126" fill="none"/>
 <path id="path2818-4-0-4-8-6-7-0-8-2" d="m281.15 52.9-40.839-23.578" stroke="#000" stroke-linecap="round" stroke-width="2.126" fill="none"/>
 <path id="path4646-1-2-4-7" style="color:#000000" d="m290.52 100.08a10.607 10.607 0 0 1 -21.213 0 10.607 10.607 0 1 1 21.213 0z" stroke="#000" stroke-linecap="round" stroke-width="2.126" fill="#fff"/>
 <path id="path4646-0-5-4-8" style="color:#000000" d="m291.75 52.901a10.607 10.607 0 0 1 -21.213 0 10.607 10.607 0 1 1 21.213 0z" stroke="#000" stroke-linecap="round" stroke-width="2.126" fill="#fff"/>
 <path id="path4646-14-8-4-1" style="color:#000000" d="m250.91 29.322a10.607 10.607 0 0 1 -21.213 0 10.607 10.607 0 1 1 21.213 0z" stroke="#000" stroke-linecap="round" stroke-width="2.126" fill="#fff"/>
 <path id="path4646-07-6-2-5" style="color:#000000" d="m210.07 52.901a10.607 10.607 0 0 1 -21.213 0 10.607 10.607 0 1 1 21.213 0z" stroke="#000" stroke-linecap="round" stroke-width="2.126" fill="#fff"/>
 <path id="path4646-7-7-9-8" style="color:#000000" d="m211.27 100.12a10.607 10.607 0 0 1 -21.213 0 10.607 10.607 0 1 1 21.213 0z" stroke="#000" stroke-linecap="round" stroke-width="2.126" fill="#fff"/>
 <path id="path4646-7-3-81-9-3-3-5" style="color:#000000" d="m250.93 124.35a10.624 10.624 0 0 1 -21.248 0 10.624 10.624 0 1 1 21.248 0z" stroke="#000" stroke-linecap="round" stroke-width="2.126" fill="#afc6e9"/>
 <path id="path4646-7-3-81-9-1-0-1-5-5" style="block-progression:tb;text-indent:0;color:#000000;text-transform:none" d="m242.91 92.06c-10.368-0.8247-20.959 3.3337-27.931 12.066a1.0689 1.0689 0 1 0 1.6616 1.3451c10.437-13.074 29.455-15.224 42.529-4.787 1.7524 1.399 3.3461 2.9969 4.7474 4.7474a1.0689 1.0689 0 1 0 1.6616 -1.3451c-1.4998-1.8734-3.1884-3.5667-5.0639-5.0639-5.2396-4.1828-11.384-6.468-17.605-6.9629z" fill="#f00"/>
 <path id="path6747" stroke-linejoin="round" d="m226.64 99.457-12.7 7.6945 4.6898-14.089c0.97559 3.6278 4.2189 6.2005 8.0105 6.3948z" fill-rule="evenodd" stroke-width=".625" fill="#f00"/>
 <path id="path6749" stroke-linejoin="round" d="m261.97 93.007 4.7091 14.083-12.711-7.6771c3.7536-0.1528 6.9773-2.75 8.0017-6.4058z" fill-rule="evenodd" stroke-width=".625" fill="#f00"/>
 <path id="path7300" d="m234.38 131.87v-15.032h2.0405l7.8955 11.802v-11.802h1.9072v15.032h-2.0405l-7.8955-11.812v11.812z"/>
 <path id="path7621" fill="#a00" d="m229.95 89.605h-1.8457v-11.761c-0.44435 0.4238-1.0271 0.8476-1.7483 1.2715-0.72119 0.4238-1.3689 0.7417-1.9431 0.9536v-1.7842c1.0322-0.4854 1.9346-1.0732 2.707-1.7637 0.77246-0.6904 1.3193-1.3603 1.6406-2.0098h1.1894z"/>
 <path id="path7623" fill="#a00" d="m241.64 89.605h-1.8457v-11.761c-0.44434 0.4238-1.0271 0.8476-1.7483 1.2715-0.7212 0.4238-1.3689 0.7417-1.9431 0.9536v-1.7842c1.0322-0.4854 1.9346-1.0732 2.707-1.7637 0.77245-0.6904 1.3193-1.3603 1.6406-2.0098h1.1894z"/>
 <path id="path7625" fill="#a00" d="m246.5 76.542v-1.7739h9.731v1.4355c-0.95704 1.0186-1.9055 2.3721-2.8455 4.0606-0.93995 1.6885-1.6663 3.4248-2.179 5.209-0.36914 1.2578-0.60498 2.6352-0.70752 4.1323h-1.897c0.0205-1.1826 0.25292-2.6113 0.69726-4.2861 0.44433-1.6748 1.0818-3.2898 1.9124-4.845 0.83056-1.5552 1.7141-2.866 2.6506-3.9324z"/>
 <path id="path7627" fill="#a00" d="m258.51 77.157c0-0.7862 0.27856-1.4561 0.83569-2.0098s1.2253-0.8306 2.0046-0.8306c0.79296 0 1.4663 0.2769 2.02 0.8306s0.83056 1.2236 0.83057 2.0098c-0.00001 0.7861-0.27858 1.4577-0.8357 2.0148-0.55714 0.5572-1.2288 0.8358-2.0149 0.8357-0.7793 0.0001-1.4475-0.2768-2.0046-0.8305-0.55713-0.5537-0.83569-1.2271-0.83569-2.02zm1.1177 0c0 0.4785 0.16919 0.8869 0.50757 1.2253s0.74682 0.5076 1.2253 0.5076c0.47168 0 0.87671-0.1692 1.2151-0.5076 0.33837-0.3384 0.50757-0.7468 0.50757-1.2253s-0.1692-0.887-0.50757-1.2254c-0.33838-0.3384-0.74341-0.5075-1.2151-0.5076-0.47852 0.0001-0.88696 0.1692-1.2253 0.5076-0.33838 0.3384-0.50757 0.7469-0.50757 1.2254z"/>
 <path id="path2818-4-9-4-5-9-9-1-6" d="m410.61 137.72 45.23-37.285" stroke="#000" stroke-linecap="round" stroke-width="2.126" fill="none"/>
 <path id="path2818-4-9-4-5-7-0-7-6-8" d="m410.61 137.72-45.23-37.29" stroke="#000" stroke-linecap="round" stroke-width="2.126" fill="none"/>
 <path id="path2818-4-1-6-2-3-3" d="m369.45 52.912 40.859-23.59" stroke="#000" stroke-linecap="round" stroke-width="2.126" fill="none"/>
 <path id="path2818-4-0-4-13-8-5-4" d="m410.31 29.322 41.447 23.929" stroke="#000" stroke-linecap="round" stroke-width="2.126" fill="none"/>
 <path id="path2818-4-2-2-8-2-5-8" d="m365.38 100.43 4.077-47.519" stroke="#000" stroke-linecap="round" stroke-width="2.126" fill="none"/>
 <path id="path2818-4-2-6-9-8-3-4" d="m455.84 100.43-4.08-47.179" stroke="#000" stroke-linecap="round" stroke-width="2.126" fill="none"/>
 <path id="path4646-77-7-3-6" style="color:#000000" d="m375.98 100.43a10.607 10.607 0 0 1 -21.213 0 10.607 10.607 0 1 1 21.213 0z" stroke="#000" stroke-linecap="round" stroke-width="2.126" fill="#fff"/>
 <path id="path4646-3-2-0-1" style="color:#000000" d="m380.06 52.912a10.607 10.607 0 0 1 -21.213 0 10.607 10.607 0 1 1 21.213 0z" stroke="#000" stroke-linecap="round" stroke-width="2.126" fill="#fff"/>
 <path id="path4646-9-2-7-2" style="color:#000000" d="m420.92 29.322a10.607 10.607 0 0 1 -21.213 0 10.607 10.607 0 1 1 21.213 0z" stroke="#000" stroke-linecap="round" stroke-width="2.126" fill="#fff"/>
 <path id="path4646-8-9-7-4" style="color:#000000" d="m462.37 53.251a10.607 10.607 0 0 1 -21.213 0 10.607 10.607 0 1 1 21.213 0z" stroke="#000" stroke-linecap="round" stroke-width="2.126" fill="#fff"/>
 <path id="path4646-2-4-8-2" style="color:#000000" d="m466.46 100.34a10.607 10.607 0 0 1 -21.213 0 10.607 10.607 0 1 1 21.213 0z" stroke="#000" stroke-linecap="round" stroke-width="2.126" fill="#fff"/>
 <path id="path4646-7-3-81-9-7-2-2" style="color:#000000" d="m422.96 137.72a12.357 12.357 0 0 1 -24.714 0 12.357 12.357 0 1 1 24.714 0z" stroke="#000" stroke-linecap="round" stroke-width="2.126" fill="#afe9af"/>
 <path id="path4646-7-3-81-9-1-0-5-1-3" style="block-progression:tb;text-indent:0;color:#000000;text-transform:none" d="m410.84 105.35c-8-0.053-16.036 2.8164-22.313 8.664a1.0634 1.0634 0 1 0 1.4638 1.5429c11.744-10.942 29.941-10.819 41.54 0.277a1.0631 1.0631 0 1 0 1.4638 -1.5034c-6.1988-5.9301-14.155-8.9277-22.155-8.9805z" fill="#f00"/>
 <path id="path6757" stroke-linejoin="round" d="m400.76 111.11-13.691 5.7505 6.7038-13.25c0.43346 3.7317 3.2648 6.7519 6.987 7.4996z" fill-rule="evenodd" stroke-width=".625" fill="#f00"/>
 <path id="path6759" stroke-linejoin="round" d="m427.92 103.8 6.528 13.338-13.613-5.931c3.7005-0.6473 6.553-3.6475 7.0855-7.4066z" fill-rule="evenodd" stroke-width=".625" fill="#f00"/>
 <path id="path7297" d="m404.87 145.23v-15.032h5.6704c0.99804 0 1.7602 0.048 2.2866 0.1435 0.73827 0.1231 1.3569 0.3572 1.856 0.7024 0.49901 0.3453 0.90062 0.8289 1.2048 1.451 0.30418 0.622 0.45628 1.3056 0.45629 2.0507-0.00001 1.2784-0.40675 2.3602-1.2202 3.2454-0.81348 0.8853-2.2832 1.3279-4.4092 1.3279h-3.8555v6.1113zm1.9893-7.8852h3.8862c1.2852 0 2.1978-0.2393 2.7378-0.7178 0.54003-0.4785 0.81005-1.1519 0.81006-2.02-0.00001-0.6289-0.15895-1.1673-0.4768-1.615-0.31788-0.4478-0.73659-0.7434-1.2561-0.887-0.33497-0.089-0.95362-0.1333-1.856-0.1333h-3.8452z"/>
 <path id="path7612" fill="#a00" d="m400.26 101.91h-1.8457v-11.761c-0.44434 0.4239-1.0271 0.8477-1.7483 1.2715-0.72119 0.4239-1.3689 0.7417-1.9431 0.9536v-1.7841c1.0322-0.4854 1.9346-1.0733 2.707-1.7637 0.77246-0.6904 1.3193-1.3604 1.6406-2.0098h1.1894z"/>
 <path id="path7614" fill="#a00" d="m405 94.497c0-1.7773 0.18286-3.2078 0.54858-4.2913s0.90918-1.9191 1.6304-2.507c0.72118-0.5879 1.6286-0.8819 2.7224-0.8819 0.80665 0 1.5142 0.1624 2.1226 0.4871 0.60839 0.3247 1.1108 0.793 1.5073 1.4048 0.39648 0.6118 0.70751 1.3569 0.93311 2.2353 0.22558 0.8784 0.33837 2.0628 0.33838 3.553-0.00001 1.7637-0.18117 3.1872-0.54346 4.2707-0.36232 1.0835-0.90407 1.9209-1.6252 2.5122-0.7212 0.5914-1.6321 0.887-2.7327 0.887-1.4492 0-2.5874-0.5195-3.4146-1.5586-0.99122-1.251-1.4868-3.2881-1.4868-6.1113zm1.897 0c0 2.4678 0.28882 4.1101 0.86646 4.927 0.57763 0.8169 1.2903 1.2253 2.1379 1.2253 0.84765 0 1.5603-0.4101 2.138-1.2304 0.57762-0.8203 0.86644-2.461 0.86645-4.9219-0.00001-2.4746-0.28883-4.1187-0.86645-4.9321-0.57765-0.8135-1.2971-1.2202-2.1584-1.2203-0.84767 0.0001-1.5244 0.3589-2.0303 1.0767-0.63575 0.916-0.95362 2.6079-0.95362 5.0757z"/>
 <path id="path7616" fill="#a00" d="m423.64 101.91h-1.8457v-11.761c-0.44434 0.4239-1.0271 0.8477-1.7483 1.2715-0.7212 0.4239-1.3689 0.7417-1.9431 0.9536v-1.7841c1.0322-0.4854 1.9346-1.0733 2.707-1.7637 0.77245-0.6904 1.3193-1.3604 1.6406-2.0098h1.1895z"/>
 <path id="path7618" fill="#a00" d="m428.82 89.462c0-0.7861 0.27857-1.456 0.8357-2.0097s1.2253-0.8306 2.0046-0.8306c0.79297 0 1.4663 0.2769 2.02 0.8306s0.83055 1.2236 0.83056 2.0097c-0.00001 0.7862-0.27857 1.4578-0.83569 2.0149-0.55714 0.5572-1.2288 0.8357-2.0149 0.8357-0.77929 0-1.4475-0.2768-2.0046-0.8306-0.55713-0.5537-0.8357-1.227-0.8357-2.02zm1.1177 0c-0.00001 0.4785 0.16919 0.887 0.50757 1.2254 0.33837 0.3384 0.74682 0.5075 1.2253 0.5075 0.47167 0 0.8767-0.1691 1.2151-0.5075 0.33837-0.3384 0.50756-0.7469 0.50757-1.2254-0.00001-0.4785-0.1692-0.8869-0.50757-1.2253-0.33839-0.3384-0.74342-0.5076-1.2151-0.5076-0.47852 0-0.88697 0.1692-1.2253 0.5076-0.33838 0.3384-0.50758 0.7468-0.50757 1.2253z"/>
 <path id="path2818-4-9-4-8-1-4-7-2-9" d="m581.04 142.03 47.377-41.915" stroke="#000" stroke-linecap="round" stroke-width="2.126" fill="none"/>
 <path id="path2818-4-9-4-8-1-2-6-8-5-9" d="m581.04 142.03-47.37-41.91" stroke="#000" stroke-linecap="round" stroke-width="2.126" fill="none"/>
 <path id="path2818-4-2-5-0-1-3-2" d="m533.67 100.12 6.2238-47.204" stroke="#000" stroke-linecap="round" stroke-width="2.126" fill="none"/>
 <path id="path2818-4-2-61-6-5-6-5" d="m628.42 100.12-6.22-46.869" stroke="#000" stroke-linecap="round" stroke-width="2.126" fill="none"/>
 <path id="path2818-4-1-1-1-6-8-5" d="m539.89 52.912 40.859-23.59" stroke="#000" stroke-linecap="round" stroke-width="2.126" fill="none"/>
 <path id="path2818-4-0-4-1-84-1-6-3" d="m580.75 29.322 41.447 23.929" stroke="#000" stroke-linecap="round" stroke-width="2.126" fill="none"/>
 <path id="path4646-03-1-7-5" style="color:#000000" d="m544.27 100.12a10.607 10.607 0 0 1 -21.213 0 10.607 10.607 0 1 1 21.213 0z" stroke="#000" stroke-linecap="round" stroke-width="2.126" fill="#fff"/>
 <path id="path4646-01-9-3-8" style="color:#000000" d="m550.5 52.912a10.607 10.607 0 0 1 -21.213 0 10.607 10.607 0 1 1 21.213 0z" stroke="#000" stroke-linecap="round" stroke-width="2.126" fill="#fff"/>
 <path id="path4646-09-6-0-6" style="color:#000000" d="m591.36 29.322a10.607 10.607 0 0 1 -21.213 0 10.607 10.607 0 1 1 21.213 0z" stroke="#000" stroke-linecap="round" stroke-width="2.126" fill="#fff"/>
 <path id="path4646-78-9-3-2" style="color:#000000" d="m632.8 53.251a10.607 10.607 0 0 1 -21.213 0 10.607 10.607 0 1 1 21.213 0z" stroke="#000" stroke-linecap="round" stroke-width="2.126" fill="#fff"/>
 <path id="path4646-12-8-8-6" style="color:#000000" d="m638.79 100.1a10.607 10.607 0 0 1 -21.213 0 10.607 10.607 0 1 1 21.213 0z" stroke="#000" stroke-linecap="round" stroke-width="2.126" fill="#fff"/>
 <path id="path4646-7-3-81-9-6-5-0" style="color:#000000" d="m595.15 142.03a14.107 14.107 0 0 1 -28.215 0 14.107 14.107 0 1 1 28.215 0z" stroke="#000" stroke-linecap="round" stroke-width="2.126" fill="#deaa87"/>
 <path id="path4646-7-3-81-9-1-0-54-0-2" style="block-progression:tb;text-indent:0;color:#000000;text-transform:none" d="m581.04 109.62c-7.6667 0-15.317 2.7377-21.443 8.1497a1.0645 1.0645 0 0 0 1.4242 1.5825c11.459-10.124 28.624-10.132 40.076 0a1.0645 1.0645 0 0 0 1.4242 -1.5825c-6.1218-5.416-13.815-8.1472-21.482-8.1497z" fill="#f00"/>
 <path id="path6767" stroke-linejoin="round" d="m571.9 115.18-13.838 5.3873 7.051-13.069c0.33487 3.7418 3.0855 6.8356 6.7867 7.6813z" fill-rule="evenodd" stroke-width=".625" fill="#f00"/>
 <path id="path6769" stroke-linejoin="round" d="m597.02 107.48 7.0423 13.073-13.834-5.3965c3.6725-0.7908 6.406-3.8999 6.7918-7.6768z" fill-rule="evenodd" stroke-width=".625" fill="#f00"/>
 <path id="path7292" d="m569.17 149.42 5.773-15.032h2.1431l6.1524 15.032h-2.2661l-1.7534-4.5527h-6.2856l-1.6509 4.5527zm4.3374-6.1729h5.0962l-1.5688-4.163c-0.47852-1.2647-0.83398-2.3037-1.0664-3.1172-0.19141 0.9639-0.46143 1.9209-0.81006 2.8711z"/>
 <path id="path7294" d="m583.87 146.17 1.8252-0.2871c0.10253 0.7314 0.38793 1.292 0.8562 1.6816 0.46825 0.3897 1.1228 0.5845 1.9636 0.5845 0.84765 0 1.4766-0.1726 1.8867-0.5178 0.41015-0.3452 0.61523-0.7503 0.61523-1.2151 0-0.417-0.18115-0.7451-0.54346-0.9844-0.25293-0.164-0.88184-0.3725-1.8867-0.6255-1.3535-0.3418-2.2918-0.6374-2.8147-0.8869-0.52295-0.2495-0.91944-0.5947-1.1894-1.0357-0.27003-0.4409-0.40503-0.9279-0.40503-1.4612 0-0.4853 0.11108-0.9348 0.33325-1.3483 0.22217-0.4136 0.52466-0.7571 0.90747-1.0306 0.28711-0.2119 0.67847-0.3913 1.1741-0.5383 0.4956-0.1469 1.0271-0.2204 1.5945-0.2204 0.85449 0 1.6047 0.123 2.2507 0.3691 0.64599 0.2461 1.1228 0.5794 1.4304 0.9998 0.30761 0.4204 0.51952 0.9826 0.63574 1.6867l-1.8047 0.2461c-0.082-0.5605-0.31958-0.998-0.71264-1.3125-0.39308-0.3144-0.9485-0.4717-1.6663-0.4717-0.84767 0-1.4526 0.1402-1.8149 0.4204-0.36231 0.2803-0.54347 0.6084-0.54346 0.9844-0.00001 0.2393 0.0752 0.4546 0.22559 0.646 0.15039 0.1983 0.38622 0.3623 0.70752 0.4922 0.18456 0.068 0.72802 0.2256 1.6304 0.4717 1.3056 0.3486 2.2165 0.634 2.7327 0.8562 0.51611 0.2222 0.92114 0.5452 1.2151 0.969 0.29393 0.4238 0.44091 0.9502 0.44092 1.5791-0.00001 0.6152-0.17945 1.1946-0.53833 1.738-0.3589 0.5435-0.87672 0.9639-1.5535 1.2612-0.67677 0.2974-1.4424 0.4461-2.2969 0.4461-1.415 0-2.4934-0.294-3.2351-0.8818-0.7417-0.5879-1.2151-1.4595-1.4202-2.6148z"/>
 <path id="path7605" fill="#a00" d="m570.45 103.47 1.7739-0.1641c0.15039 0.834 0.4375 1.439 0.86133 1.815 0.42383 0.3759 0.96729 0.5639 1.6304 0.5639 0.56737 0 1.0647-0.1299 1.4919-0.3896 0.42725-0.2598 0.77759-0.6067 1.051-1.0408 0.27343-0.4341 0.50243-1.0203 0.68702-1.7585 0.18456-0.7383 0.27684-1.4903 0.27685-2.2559-0.00001-0.082-0.004-0.2051-0.0103-0.3691-0.36915 0.5878-0.8733 1.0647-1.5125 1.4304-0.63917 0.3657-1.3313 0.5486-2.0764 0.5486-1.2442 0-2.2969-0.4512-3.1582-1.3536-0.86133-0.9023-1.292-2.0917-1.292-3.5683 0-1.5244 0.44946-2.7515 1.3484-3.6812 0.89892-0.9296 2.0251-1.3945 3.3787-1.3945 0.97754 0 1.8713 0.2632 2.6814 0.7895 0.81005 0.5264 1.4253 1.2767 1.8457 2.2508s0.63061 2.384 0.63061 4.2297c0 1.9209-0.2085 3.4505-0.62548 4.5886-0.417 1.1382-1.0374 2.0047-1.8611 2.5994-0.82373 0.5947-1.7893 0.8921-2.8967 0.8921-1.1758 0-2.1362-0.3264-2.8814-0.9793-0.74512-0.6528-1.1929-1.5705-1.3433-2.7531zm7.5571-6.6343c-0.00001-1.0596-0.28199-1.9004-0.84595-2.5225-0.56397-0.622-1.2424-0.9331-2.0354-0.9331-0.82032 0-1.5347 0.335-2.1431 1.0049s-0.9126 1.5381-0.9126 2.6045c0 0.957 0.28882 1.7346 0.86646 2.3328 0.57763 0.5981 1.2903 0.8972 2.1379 0.8972 0.85449 0 1.5569-0.2991 2.1072-0.8972 0.55028-0.5982 0.82543-1.427 0.82544-2.4866z"/>
 <path id="path7607" fill="#a00" d="m581.98 93.88v-1.774h9.731v1.4356c-0.95704 1.0186-1.9055 2.3721-2.8455 4.0605-0.93995 1.6885-1.6663 3.4249-2.179 5.209-0.36915 1.2578-0.60499 2.6353-0.70752 4.1323h-1.897c0.0205-1.1826 0.25293-2.6113 0.69727-4.2861 0.44433-1.6748 1.0818-3.2898 1.9124-4.845 0.83057-1.5551 1.7141-2.8659 2.6506-3.9323z"/>
 <path id="path7609" fill="#a00" d="m593.99 94.495c0-0.7861 0.27856-1.456 0.83569-2.0098 0.55712-0.5537 1.2253-0.8305 2.0046-0.8305 0.79297 0 1.4663 0.2768 2.02 0.8305 0.5537 0.5538 0.83056 1.2237 0.83056 2.0098s-0.27857 1.4578-0.83569 2.0149c-0.55713 0.5571-1.2288 0.8357-2.0149 0.8357-0.7793 0-1.4475-0.2769-2.0046-0.8306-0.55713-0.5537-0.83569-1.227-0.83569-2.02zm1.1177 0c-0.00001 0.4785 0.16918 0.887 0.50756 1.2253 0.33838 0.3384 0.74683 0.5076 1.2253 0.5076 0.47168 0 0.87671-0.1692 1.2151-0.5076 0.33837-0.3383 0.50756-0.7468 0.50757-1.2253-0.00001-0.4785-0.1692-0.8869-0.50757-1.2253-0.33838-0.3384-0.74341-0.5076-1.2151-0.5076-0.47851 0-0.88696 0.1692-1.2253 0.5076-0.33838 0.3384-0.50757 0.7468-0.50756 1.2253z"/>
 <path id="path2818-4-9-4-8-8-7-3-2-4-3" d="m751.03 148 50.98-48.377" stroke="#000" stroke-linecap="round" stroke-width="2.126" fill="none"/>
 <path id="path2818-4-9-4-8-8-7-5-7-5-6-3" d="m751.03 148-50.98-48.377" stroke="#000" stroke-linecap="round" stroke-width="2.126" fill="none"/>
 <path id="path2818-4-2-27-8-8-2-7" d="m700.05 99.623 9.8235-46.711" stroke="#000" stroke-linecap="round" stroke-width="2.126" fill="none"/>
 <path id="path2818-4-2-54-8-6-9-4" d="m802.01 99.623-9.83-46.372" stroke="#000" stroke-linecap="round" stroke-width="2.126" fill="none"/>
 <path id="path2818-4-1-1-3-9-6-5-3" d="m709.88 52.912 40.859-23.59" stroke="#000" stroke-linecap="round" stroke-width="2.126" fill="none"/>
 <path id="path2818-4-0-4-1-8-1-5-0-8" d="m750.73 29.322 41.447 23.929" stroke="#000" stroke-linecap="round" stroke-width="2.126" fill="none"/>
 <path id="path4646-6-2-2-5" style="color:#000000" d="m711.07 99.424a10.607 10.607 0 0 1 -21.213 0 10.607 10.607 0 1 1 21.213 0z" stroke="#000" stroke-linecap="round" stroke-width="2.126" fill="#fff"/>
 <path id="path4646-61-5-5-3" style="color:#000000" d="m720.48 52.912a10.607 10.607 0 0 1 -21.213 0 10.607 10.607 0 1 1 21.213 0z" stroke="#000" stroke-linecap="round" stroke-width="2.126" fill="#fff"/>
 <path id="path4646-84-5-2-9" style="color:#000000" d="m761.34 29.322a10.607 10.607 0 0 1 -21.213 0 10.607 10.607 0 1 1 21.213 0z" stroke="#000" stroke-linecap="round" stroke-width="2.126" fill="#fff"/>
 <path id="path4646-39-4-0-2" style="color:#000000" d="m802.79 53.251a10.607 10.607 0 0 1 -21.213 0 10.607 10.607 0 1 1 21.213 0z" stroke="#000" stroke-linecap="round" stroke-width="2.126" fill="#fff"/>
 <path id="path4646-08-9-3-4" style="color:#000000" d="m812.61 99.623a10.607 10.607 0 0 1 -21.213 0 10.607 10.607 0 1 1 21.213 0z" stroke="#000" stroke-linecap="round" stroke-width="2.126" fill="#fff"/>
 <path id="path4646-7-3-81-9-2-3-0" style="color:#000000" d="m766.89 148a15.858 15.858 0 0 1 -31.716 0 15.858 15.858 0 1 1 31.716 0z" stroke="#000" stroke-linecap="round" stroke-width="2.126" fill="#e9ddaf"/>
 <path id="path4646-7-3-81-9-1-0-2-9-5" style="block-progression:tb;text-indent:0;color:#000000;text-transform:none" d="m750.98 115.59c-7.3475 0.012-14.703 2.5304-20.691 7.5168a1.0663 1.0663 0 1 0 1.3847 1.622c11.2-9.3267 27.423-9.3308 38.652-0.04a1.0689 1.0689 0 1 0 1.3451 -1.6616c-6.0035-4.9674-13.343-7.4492-20.691-7.4376z" fill="#f00"/>
 <path id="path6777" stroke-linejoin="round" d="m742.68 120.76-13.989 4.9804 7.4301-12.857c0.22531 3.75 2.8843 6.9229 6.5592 7.8765z" fill-rule="evenodd" stroke-width=".625" fill="#f00"/>
 <path id="path6779" stroke-linejoin="round" d="m765.71 112.8 7.4706 12.833-14.005-4.9362c3.6444-0.9118 6.2736-4.1095 6.5343-7.8971z" fill-rule="evenodd" stroke-width=".625" fill="#f00"/>
 <path id="path7287" d="m739.08 150.68 1.8765-0.1641c0.0889 0.752 0.29565 1.3689 0.62037 1.8509 0.3247 0.4819 0.82885 0.8716 1.5124 1.1689 0.68359 0.2974 1.4526 0.4461 2.3071 0.4461 0.75879 0 1.4287-0.1128 2.0098-0.3384 0.58105-0.2256 1.0134-0.5349 1.2971-0.928 0.28368-0.3931 0.42553-0.822 0.42553-1.2869 0-0.4716-0.13672-0.8835-0.41015-1.2356-0.27345-0.352-0.72462-0.6477-1.3535-0.8869-0.40332-0.1572-1.2954-0.4016-2.6763-0.7332-1.3809-0.3315-2.3481-0.6442-2.9018-0.9382-0.71777-0.376-1.2527-0.8425-1.6047-1.3997-0.35205-0.5571-0.52807-1.1809-0.52807-1.8713 0-0.7588 0.21533-1.468 0.64599-2.1277 0.43066-0.6596 1.0596-1.1604 1.8867-1.5022 0.82714-0.3418 1.7466-0.5127 2.7583-0.5127 1.1143 0 2.0969 0.1795 2.948 0.5384 0.85106 0.3589 1.5056 0.8869 1.9636 1.5842 0.45799 0.6973 0.70408 1.4868 0.73827 2.3686l-1.9072 0.1436c-0.10255-0.9502-0.44947-1.668-1.0408-2.1533-0.59133-0.4854-1.4646-0.728-2.6199-0.7281-1.2031 0.0001-2.0798 0.2205-2.6301 0.6614s-0.82544 0.9724-0.82544 1.5945c0 0.54 0.19482 0.9844 0.58447 1.333 0.38281 0.3487 1.3826 0.7058 2.9993 1.0715 1.6167 0.3658 2.7258 0.6854 3.3274 0.9588 0.87499 0.4033 1.521 0.9143 1.938 1.5329 0.41698 0.6187 0.62548 1.3313 0.62548 2.138 0 0.7998-0.22901 1.5535-0.687 2.261-0.45802 0.7075-1.116 1.2578-1.9739 1.6508-0.85792 0.3931-1.8235 0.5896-2.8967 0.5896-1.3604 0-2.5002-0.1982-3.4197-0.5947-0.91944-0.3965-1.6406-0.9929-2.1636-1.7893-0.52296-0.7964-0.7981-1.697-0.82544-2.7019z"/>
 <path id="path7289" d="m755.25 155.51h-1.7124v-15.032h1.8457v5.3628c0.77929-0.9776 1.7739-1.4663 2.9839-1.4663 0.66992 0 1.304 0.135 1.9021 0.405 0.59813 0.27 1.0903 0.6494 1.4766 1.1382 0.38622 0.4887 0.68871 1.0783 0.90747 1.7688 0.21874 0.6904 0.32811 1.4287 0.32813 2.2148-0.00002 1.8662-0.46144 3.3086-1.3843 4.3272-0.92286 1.0185-2.0303 1.5278-3.3223 1.5278-1.2852 0-2.2935-0.5366-3.0249-1.6099zm-0.0205-5.5269c0 1.3057 0.17772 2.2491 0.5332 2.8301 0.58105 0.9502 1.3672 1.4253 2.3584 1.4253 0.80663 0 1.5039-0.3503 2.0918-1.051 0.58788-0.7007 0.88183-1.7449 0.88184-3.1326-0.00001-1.4218-0.282-2.4712-0.84595-3.1479-0.56397-0.6768-1.2458-1.0152-2.0457-1.0152-0.80664 0-1.5039 0.3504-2.0918 1.0511-0.58789 0.7006-0.88183 1.7141-0.88183 3.0402z"/>
 <path id="path7598" fill="#a00" d="m740.76 107.32 1.7739-0.1641c0.15039 0.834 0.43749 1.439 0.86133 1.815 0.42382 0.376 0.96728 0.564 1.6304 0.5639 0.56737 0.0001 1.0647-0.1298 1.4919-0.3896 0.42724-0.2598 0.77758-0.6067 1.051-1.0408 0.27343-0.434 0.50243-1.0202 0.68701-1.7585 0.18456-0.7383 0.27685-1.4902 0.27685-2.2559 0-0.082-0.004-0.205-0.0103-0.3691-0.36915 0.5879-0.8733 1.0647-1.5124 1.4304-0.63916 0.3657-1.3313 0.5486-2.0764 0.5486-1.2441 0-2.2969-0.4512-3.1582-1.3535-0.86133-0.9024-1.292-2.0918-1.292-3.5684 0-1.5244 0.44946-2.7514 1.3484-3.6811 0.89893-0.9297 2.0251-1.3946 3.3787-1.3946 0.97752 0 1.8713 0.2632 2.6814 0.7896 0.81005 0.5264 1.4253 1.2766 1.8457 2.2507s0.6306 2.3841 0.63062 4.2297c-0.00002 1.921-0.20851 3.4505-0.62549 4.5887-0.417 1.1382-1.0374 2.0046-1.8611 2.5993-0.82374 0.5948-1.7893 0.8921-2.8967 0.8921-1.1758 0-2.1362-0.3264-2.8813-0.9792-0.74512-0.6528-1.1929-1.5706-1.3433-2.7532zm7.5571-6.6343c-0.00001-1.0595-0.28198-1.9003-0.84595-2.5224s-1.2424-0.9331-2.0354-0.9331c-0.82032 0-1.5347 0.3349-2.1431 1.0048-0.6084 0.67-0.9126 1.5381-0.9126 2.6045 0 0.9571 0.28881 1.7347 0.86645 2.3328 0.57764 0.5982 1.2903 0.8972 2.138 0.8972 0.85448 0 1.5569-0.299 2.1072-0.8972 0.55028-0.5981 0.82542-1.427 0.82543-2.4866z"/>
 <path id="path7600" fill="#a00" d="m752.18 106.83 1.8457-0.2461c0.21191 1.0459 0.57251 1.7996 1.0818 2.261 0.50927 0.4614 1.1296 0.6922 1.8611 0.6921 0.86816 0.0001 1.6013-0.3007 2.1995-0.9023 0.59814-0.6016 0.89721-1.3467 0.89722-2.2353-0.00001-0.8477-0.27687-1.5467-0.83057-2.097-0.55371-0.5503-1.2578-0.8254-2.1123-0.8254-0.34864 0-0.78272 0.068-1.3022 0.2051l0.20508-1.6201c0.12304 0.014 0.22216 0.021 0.29737 0.021 0.78612 0 1.4936-0.2051 2.1226-0.6153 0.6289-0.4101 0.94335-1.0425 0.94336-1.897-0.00001-0.6767-0.22901-1.2372-0.68701-1.6816-0.45801-0.4443-1.0493-0.6665-1.7739-0.6665-0.71778 0-1.3159 0.2256-1.7944 0.6768-0.47852 0.4511-0.78613 1.1279-0.92285 2.0302l-1.8457-0.3281c0.22559-1.2373 0.73829-2.196 1.5381-2.8762 0.7998-0.6802 1.7944-1.0203 2.9839-1.0203 0.8203 0 1.5757 0.1761 2.2661 0.5281 0.69042 0.3521 1.2185 0.8323 1.5842 1.4407 0.36571 0.6084 0.54857 1.2544 0.54859 1.938-0.00002 0.6494-0.17433 1.2407-0.52295 1.7739-0.34865 0.5332-0.86476 0.957-1.5483 1.2715 0.88866 0.2051 1.5791 0.6306 2.0713 1.2766 0.49217 0.646 0.73827 1.4543 0.73828 2.425-0.00001 1.3125-0.47853 2.4251-1.4356 3.3377-0.95704 0.9126-2.167 1.3689-3.6299 1.3689-1.3193 0-2.4148-0.3931-3.2864-1.1792-0.87158-0.7862-1.3689-1.8047-1.4919-3.0557z"/>
 <path id="path7602" fill="#a00" d="m764.3 98.348c-0.00001-0.7861 0.27855-1.456 0.83568-2.0097s1.2254-0.8306 2.0046-0.8306c0.79296 0 1.4663 0.2769 2.02 0.8306s0.83056 1.2236 0.83056 2.0097c0 0.7862-0.27857 1.4578-0.83569 2.0149-0.55714 0.5572-1.2288 0.8357-2.0149 0.8357-0.7793 0-1.4475-0.2768-2.0046-0.8305-0.55713-0.5537-0.83569-1.2271-0.83568-2.0201zm1.1177 0c0 0.4786 0.16918 0.887 0.50757 1.2254 0.33838 0.3384 0.74682 0.5076 1.2253 0.5076 0.47168 0 0.87671-0.1692 1.2151-0.5076 0.33837-0.3384 0.50756-0.7468 0.50756-1.2254 0-0.4785-0.16919-0.8869-0.50756-1.2253-0.33838-0.3384-0.74341-0.5076-1.2151-0.5076-0.47852 0-0.88696 0.1692-1.2253 0.5076-0.33839 0.3384-0.50757 0.7468-0.50757 1.2253z"/>
 <path id="path2818-4-9-4-8-8-2-1-9-2-4-0" d="m921.54 152.2 52.773-52.773" stroke="#000" stroke-linecap="round" stroke-width="2.126" fill="none"/>
 <path id="path2818-4-9-4-8-8-2-1-1-8-4-9-8" d="m921.54 152.2-52.77-52.776" stroke="#000" stroke-linecap="round" stroke-width="2.126" fill="none"/>
 <path id="path2818-4-2-1-4-6-2-8" d="m868.77 99.424 11.62-46.512" stroke="#000" stroke-linecap="round" stroke-width="2.126" fill="none"/>
 <path id="path2818-4-2-34-0-1-9-0" d="m974.32 99.424-11.62-46.173" stroke="#000" stroke-linecap="round" stroke-width="2.126" fill="none"/>
 <path id="path2818-4-1-1-3-7-6-2-4-6" d="m880.39 52.912 40.859-23.59" stroke="#000" stroke-linecap="round" stroke-width="2.126" fill="none"/>
 <path id="path2818-4-0-4-1-8-4-3-1-4-8" d="m921.25 29.322 41.447 23.929" stroke="#000" stroke-linecap="round" stroke-width="2.126" fill="none"/>
 <path id="path4646-83-1-7-6" style="color:#000000" d="m879.38 99.424a10.607 10.607 0 0 1 -21.213 0 10.607 10.607 0 1 1 21.213 0z" stroke="#000" stroke-linecap="round" stroke-width="2.126" fill="#fff"/>
 <path id="path4646-71-2-2-1" style="color:#000000" d="m891 52.912a10.607 10.607 0 0 1 -21.213 0 10.607 10.607 0 1 1 21.213 0z" stroke="#000" stroke-linecap="round" stroke-width="2.126" fill="#fff"/>
 <path id="path4646-34-5-9-8" style="color:#000000" d="m931.86 29.322a10.607 10.607 0 0 1 -21.213 0 10.607 10.607 0 1 1 21.213 0z" stroke="#000" stroke-linecap="round" stroke-width="2.126" fill="#fff"/>
 <path id="path4646-5-0-7-2" style="color:#000000" d="m973.3 53.251a10.607 10.607 0 0 1 -21.213 0 10.607 10.607 0 1 1 21.213 0z" stroke="#000" stroke-linecap="round" stroke-width="2.126" fill="#fff"/>
 <path id="path4646-99-8-5-1" style="color:#000000" d="m984.92 99.424a10.607 10.607 0 0 1 -21.213 0 10.607 10.607 0 1 1 21.213 0z" stroke="#000" stroke-linecap="round" stroke-width="2.126" fill="#fff"/>
 <path id="path4646-7-3-81-9-4-5-3" style="color:#000000" d="m939.15 152.2a17.608 17.608 0 0 1 -35.217 0 17.608 17.608 0 1 1 35.217 0z" stroke="#000" stroke-linecap="round" stroke-width="2.126" fill="#c4c8b7"/>
 <path id="path4646-7-3-81-9-1-0-0-9-2" style="block-progression:tb;text-indent:0;color:#000000;text-transform:none" d="m921.54 119.79c-7.0873 0-14.181 2.3268-20.058 6.9629a1.0722 1.0722 0 1 0 1.3055 1.7012c10.99-8.6704 26.467-8.7005 37.465-0.04a1.0689 1.0689 0 1 0 1.3451 -1.6616c-5.8806-4.631-12.971-6.966-20.058-6.9629z" fill="#f00"/>
 <path id="path6787" stroke-linejoin="round" d="m914.06 124.75-14.116 4.6085 7.7677-12.656c0.12601 3.7546 2.7001 6.9968 6.3485 8.0472z" fill-rule="evenodd" stroke-width=".625" fill="#f00"/>
 <path id="path6789" stroke-linejoin="round" d="m935.37 116.66 7.7785 12.649-14.12-4.5964c3.6213-0.9996 6.1724-4.2599 6.3416-8.0527z" fill-rule="evenodd" stroke-width=".625" fill="#f00"/>
 <path id="path7282" d="m913.68 159.71v-15.032h5.6396c1.1484 0 2.0696 0.1521 2.7634 0.4563 0.69383 0.3042 1.2373 0.7725 1.6304 1.4048 0.39306 0.6323 0.58959 1.2937 0.5896 1.9841-0.00001 0.6426-0.17433 1.2476-0.52295 1.8149-0.34865 0.5674-0.87501 1.0254-1.5791 1.3741 0.90917 0.2666 1.6081 0.7212 2.0969 1.3637 0.48876 0.6426 0.73314 1.4014 0.73316 2.2764-0.00002 0.7041-0.1487 1.3587-0.44605 1.9636-0.29738 0.605-0.66481 1.0716-1.1023 1.3997-0.43751 0.3281-0.9861 0.5759-1.6458 0.7434-0.65967 0.1675-1.468 0.2512-2.425 0.2512zm1.9893-8.7158h3.2505c0.88182 0 1.5142-0.058 1.897-0.1743 0.50585-0.1504 0.88695-0.3999 1.1433-0.7486 0.25634-0.3486 0.38451-0.7861 0.38452-1.3125-0.00001-0.499-0.11964-0.9382-0.35889-1.3176-0.23926-0.3794-0.58106-0.6391-1.0254-0.7793-0.44434-0.1401-1.2066-0.2102-2.2866-0.2102h-3.0044zm0 6.9419h3.7427c0.64257 0 1.0937-0.024 1.3535-0.072 0.458-0.082 0.84081-0.2188 1.1484-0.4102 0.3076-0.1914 0.56053-0.4699 0.75879-0.8357 0.19823-0.3657 0.29735-0.7878 0.29736-1.2663-0.00001-0.5606-0.14357-1.0476-0.43067-1.4612-0.28711-0.4136-0.68531-0.7041-1.1946-0.8716-0.50929-0.1674-1.2424-0.2512-2.1995-0.2512h-3.4761z"/>
 <path id="path7284" d="m927.56 146.8v-2.1226h1.8457v2.1226zm0 12.91v-10.89h1.8457v10.89z"/>
 <path id="path7591" fill="#a00" d="m911.06 112.3 1.7739-0.164c0.15039 0.834 0.4375 1.439 0.86133 1.8149 0.42383 0.376 0.96728 0.564 1.6304 0.564 0.56738 0 1.0647-0.1299 1.492-0.3897 0.42724-0.2597 0.77758-0.6066 1.051-1.0407 0.27343-0.4341 0.50243-1.0203 0.68701-1.7586 0.18456-0.7382 0.27685-1.4902 0.27686-2.2558-0.00001-0.082-0.004-0.2051-0.0103-0.3692-0.36915 0.5879-0.8733 1.0647-1.5124 1.4304-0.63917 0.3658-1.3313 0.5486-2.0764 0.5486-1.2441 0-2.2969-0.4511-3.1582-1.3535-0.86133-0.9023-1.292-2.0918-1.292-3.5683 0-1.5244 0.44946-2.7515 1.3484-3.6812 0.89892-0.9297 2.0251-1.3945 3.3787-1.3945 0.97753 0 1.8713 0.2632 2.6814 0.7895 0.81004 0.5264 1.4253 1.2767 1.8457 2.2508s0.6306 2.384 0.63062 4.2297c-0.00002 1.9209-0.20851 3.4504-0.6255 4.5886-0.417 1.1382-1.0374 2.0047-1.8611 2.5994-0.82373 0.5947-1.7893 0.8921-2.8967 0.8921-1.1758 0-2.1362-0.3264-2.8814-0.9793-0.74512-0.6528-1.1929-1.5705-1.3433-2.7532zm7.5571-6.6342c-0.00001-1.0596-0.282-1.9004-0.84595-2.5225-0.56397-0.622-1.2424-0.9331-2.0354-0.9331-0.82032 0-1.5347 0.335-2.1431 1.0049s-0.9126 1.5381-0.91259 2.6045c-0.00001 0.957 0.28881 1.7346 0.86645 2.3327 0.57764 0.5982 1.2903 0.8973 2.1379 0.8973 0.85449 0 1.5569-0.2991 2.1072-0.8973 0.55029-0.5981 0.82544-1.427 0.82545-2.4865z"/>
 <path id="path7593" fill="#a00" d="m922.48 108.36c-0.00001-1.7773 0.18286-3.2077 0.54858-4.2912s0.90918-1.9192 1.6304-2.5071c0.72118-0.5879 1.6286-0.8818 2.7224-0.8818 0.80663 0 1.5142 0.1623 2.1226 0.487 0.60839 0.3248 1.1108 0.793 1.5073 1.4048 0.39647 0.6118 0.7075 1.357 0.9331 2.2354 0.22557 0.8784 0.33836 2.0627 0.33838 3.5529-0.00002 1.7637-0.18116 3.1873-0.54346 4.2708-0.36232 1.0835-0.90406 1.9209-1.6252 2.5122-0.7212 0.5913-1.6321 0.887-2.7327 0.887-1.4492 0-2.5874-0.5196-3.4146-1.5586-0.99121-1.251-1.4868-3.2881-1.4868-6.1114zm1.897 0c0 2.4678 0.28882 4.1102 0.86646 4.9271 0.57763 0.8168 1.2903 1.2253 2.1379 1.2253 0.84765 0 1.5603-0.4102 2.1379-1.2305 0.57763-0.8203 0.86645-2.4609 0.86645-4.9219 0-2.4745-0.28882-4.1186-0.86645-4.9321-0.57764-0.8134-1.2971-1.2202-2.1584-1.2202-0.84766 0-1.5244 0.3589-2.0303 1.0767-0.63574 0.916-0.95362 2.6079-0.95362 5.0756z"/>
 <path id="path7595" fill="#a00" d="m934.61 103.33c0-0.7861 0.27857-1.4561 0.8357-2.0098s1.2253-0.8305 2.0046-0.8306c0.79296 0.0001 1.4663 0.2769 2.02 0.8306s0.83056 1.2237 0.83056 2.0098-0.27856 1.4578-0.83569 2.0149-1.2288 0.8357-2.0149 0.8357c-0.7793 0-1.4475-0.2769-2.0046-0.8306-0.55713-0.5537-0.8357-1.227-0.8357-2.02zm1.1177 0c0 0.4785 0.16919 0.887 0.50757 1.2253 0.33837 0.3384 0.74682 0.5076 1.2253 0.5076 0.47168 0 0.8767-0.1692 1.2151-0.5076 0.33837-0.3383 0.50756-0.7468 0.50757-1.2253-0.00001-0.4785-0.1692-0.887-0.50757-1.2254-0.33839-0.3383-0.74341-0.5075-1.2151-0.5075-0.47852 0-0.88697 0.1692-1.2253 0.5075-0.33838 0.3384-0.50757 0.7469-0.50757 1.2254z"/>
 <path id="path7582-1" d="m97.956 34.434h-1.8457v-11.761c-0.44434 0.4238-1.0271 0.8476-1.7483 1.2714-0.7212 0.4239-1.3689 0.7418-1.9431 0.9537v-1.7842c1.0322-0.4854 1.9346-1.0733 2.707-1.7637 0.77245-0.6904 1.3193-1.3603 1.6406-2.0098h1.1895z"/>
 <path id="path7584-7" d="m103.69 34.434v-2.1021h2.102v2.1021c0 0.7725-0.13673 1.3962-0.41015 1.8713-0.27345 0.4751-0.70753 0.8426-1.3022 1.1023l-0.5127-0.7895c0.38964-0.1709 0.67676-0.4221 0.86133-0.7537 0.18456-0.3315 0.28711-0.8083 0.30762-1.4304z"/>
 <path id="path7586-4" d="m108.53 30.466 1.8457-0.2461c0.21191 1.0459 0.5725 1.7996 1.0818 2.261 0.50927 0.4615 1.1296 0.6922 1.8611 0.6922 0.86815 0 1.6013-0.3008 2.1995-0.9024 0.59814-0.6015 0.89721-1.3467 0.89721-2.2353 0-0.8477-0.27686-1.5467-0.83056-2.097-0.55372-0.5502-1.2578-0.8254-2.1123-0.8254-0.34864 0-0.78272 0.068-1.3022 0.2051l0.20508-1.6201c0.12304 0.014 0.22216 0.021 0.29736 0.021 0.78613 0 1.4936-0.2051 2.1226-0.6153 0.6289-0.4101 0.94335-1.0424 0.94336-1.8969-0.00001-0.6768-0.22901-1.2373-0.68702-1.6817-0.45801-0.4443-1.0493-0.6665-1.7739-0.6665-0.71778 0-1.3159 0.2256-1.7944 0.6768-0.47852 0.4512-0.78614 1.1279-0.92286 2.0302l-1.8457-0.3281c0.22558-1.2373 0.73827-2.196 1.5381-2.8762 0.7998-0.6802 1.7944-1.0202 2.9839-1.0203 0.82031 0.0001 1.5757 0.1761 2.2661 0.5281 0.69042 0.3521 1.2185 0.8323 1.5842 1.4407 0.36572 0.6084 0.54858 1.2544 0.54859 1.938-0.00001 0.6494-0.17433 1.2407-0.52295 1.7739-0.34864 0.5332-0.86475 0.957-1.5483 1.2715 0.88866 0.2051 1.5791 0.6306 2.0713 1.2766 0.49216 0.646 0.73826 1.4543 0.73827 2.425-0.00001 1.3125-0.47852 2.4251-1.4355 3.3377-0.95703 0.9126-2.167 1.3689-3.6299 1.3689-1.3194 0-2.4148-0.3931-3.2864-1.1792-0.87159-0.7861-1.3689-1.8047-1.492-3.0557z"/>
 <path id="path7588-0" d="m120.48 30.958 1.7739-0.164c0.15039 0.8339 0.4375 1.4389 0.86133 1.8149s0.96728 0.564 1.6304 0.564c0.56738 0 1.0647-0.1299 1.492-0.3897 0.42724-0.2597 0.77757-0.6067 1.051-1.0408 0.27343-0.434 0.50243-1.0202 0.68701-1.7585 0.18456-0.7383 0.27685-1.4902 0.27686-2.2559-0.00001-0.082-0.004-0.205-0.0103-0.3691-0.36915 0.5879-0.8733 1.0647-1.5124 1.4304-0.63917 0.3658-1.3313 0.5486-2.0764 0.5486-1.2441 0-2.2969-0.4512-3.1582-1.3535-0.86132-0.9023-1.292-2.0918-1.292-3.5684 0-1.5244 0.44946-2.7514 1.3484-3.6811 0.89892-0.9297 2.0251-1.3945 3.3787-1.3946 0.97753 0.0001 1.8713 0.2632 2.6814 0.7896 0.81004 0.5264 1.4253 1.2766 1.8457 2.2507 0.4204 0.9742 0.6306 2.3841 0.63062 4.2298-0.00002 1.9209-0.20851 3.4504-0.62549 4.5886-0.417 1.1382-1.0374 2.0046-1.8611 2.5994-0.82374 0.5947-1.7893 0.892-2.8967 0.892-1.1758 0-2.1362-0.3264-2.8814-0.9792-0.74511-0.6528-1.1929-1.5706-1.3432-2.7532zm7.5571-6.6343c0-1.0595-0.28199-1.9003-0.84594-2.5224-0.56397-0.6221-1.2424-0.9331-2.0354-0.9331-0.82032 0-1.5347 0.335-2.1431 1.0049s-0.9126 1.5381-0.9126 2.6045c0 0.957 0.28882 1.7346 0.86646 2.3327 0.57763 0.5982 1.2903 0.8972 2.1379 0.8972 0.8545 0 1.5569-0.299 2.1072-0.8972 0.55029-0.5981 0.82544-1.427 0.82545-2.4866z"/>
 <path id="path7456-2" d="m122.36 83.495h-1.8457v-11.761c-0.44434 0.4238-1.0271 0.8476-1.7483 1.2714-0.7212 0.4239-1.3689 0.7417-1.9431 0.9536v-1.7841c1.0322-0.4854 1.9346-1.0733 2.707-1.7637 0.77246-0.6904 1.3193-1.3603 1.6406-2.0098h1.1894z"/>
 <path id="path7458-4" d="m128.09 83.495v-2.1021h2.102v2.1021c0 0.7724-0.13672 1.3962-0.41016 1.8713s-0.70752 0.8425-1.3022 1.1023l-0.5127-0.7895c0.38964-0.1709 0.67676-0.4222 0.86133-0.7537 0.18456-0.3315 0.2871-0.8084 0.30762-1.4304z"/>
 <path id="path7460-5" d="m132.93 79.526 1.8457-0.2461c0.21191 1.0459 0.5725 1.7996 1.0818 2.261 0.50927 0.4614 1.1296 0.6922 1.8611 0.6922 0.86815 0 1.6013-0.3008 2.1995-0.9024 0.59813-0.6016 0.8972-1.3467 0.89722-2.2353-0.00002-0.8477-0.27687-1.5467-0.83057-2.097-0.55372-0.5503-1.2578-0.8254-2.1123-0.8254-0.34864 0-0.78273 0.068-1.3022 0.2051l0.20508-1.6201c0.12304 0.014 0.22216 0.021 0.29736 0.021 0.78613 0 1.4936-0.2051 2.1226-0.6153 0.6289-0.4101 0.94335-1.0425 0.94336-1.897-0.00001-0.6767-0.22902-1.2372-0.68701-1.6816-0.45802-0.4443-1.0493-0.6665-1.7739-0.6665-0.71778 0-1.3159 0.2256-1.7944 0.6768-0.47851 0.4511-0.78613 1.1279-0.92285 2.0302l-1.8457-0.3281c0.22559-1.2373 0.73828-2.196 1.5381-2.8762 0.7998-0.6802 1.7944-1.0203 2.9839-1.0203 0.82031 0 1.5757 0.1761 2.2661 0.5281 0.69042 0.3521 1.2185 0.8323 1.5842 1.4407 0.36572 0.6084 0.54858 1.2544 0.54859 1.938-0.00001 0.6494-0.17433 1.2407-0.52295 1.7739-0.34864 0.5332-0.86475 0.957-1.5483 1.2715 0.88866 0.2051 1.5791 0.6306 2.0713 1.2766 0.49217 0.646 0.73827 1.4543 0.73828 2.425-0.00001 1.3125-0.47852 2.4251-1.4356 3.3377-0.95703 0.9126-2.167 1.3689-3.6299 1.3689-1.3193 0-2.4148-0.3931-3.2864-1.1792-0.87158-0.7862-1.3689-1.8047-1.4919-3.0557z"/>
 <path id="path7462-5" d="m144.89 80.018 1.7739-0.1641c0.15039 0.834 0.4375 1.439 0.86133 1.815 0.42382 0.376 0.96728 0.564 1.6304 0.564 0.56738 0 1.0647-0.1299 1.492-0.3897 0.42723-0.2598 0.77757-0.6067 1.051-1.0408 0.27343-0.434 0.50244-1.0202 0.68701-1.7585 0.18456-0.7383 0.27685-1.4902 0.27686-2.2559-0.00001-0.082-0.004-0.205-0.0103-0.3691-0.36915 0.5879-0.8733 1.0647-1.5124 1.4304-0.63917 0.3657-1.3313 0.5486-2.0764 0.5486-1.2441 0-2.2969-0.4512-3.1582-1.3535-0.86133-0.9024-1.292-2.0918-1.292-3.5684 0-1.5244 0.44946-2.7514 1.3484-3.6811 0.89892-0.9297 2.0251-1.3945 3.3787-1.3946 0.97753 0 1.8713 0.2632 2.6814 0.7896 0.81004 0.5264 1.4253 1.2766 1.8457 2.2507s0.6306 2.3841 0.63062 4.2298c-0.00002 1.9209-0.20851 3.4504-0.62549 4.5886-0.417 1.1382-1.0374 2.0046-1.8611 2.5993-0.82374 0.5948-1.7893 0.8921-2.8967 0.8921-1.1758 0-2.1362-0.3264-2.8813-0.9792-0.74512-0.6528-1.1929-1.5706-1.3433-2.7532zm7.5571-6.6343c0-1.0595-0.28199-1.9003-0.84594-2.5224-0.56397-0.6221-1.2424-0.9331-2.0354-0.9331-0.82031 0-1.5347 0.3349-2.1431 1.0048-0.6084 0.67-0.9126 1.5381-0.91259 2.6045-0.00001 0.9571 0.28881 1.7347 0.86645 2.3328 0.57763 0.5982 1.2903 0.8972 2.1379 0.8972 0.85448 0 1.5569-0.299 2.1072-0.8972 0.55028-0.5981 0.82543-1.427 0.82543-2.4866z"/>
 <path id="path2818-4-2-0-2-3-8-1" d="m29.467 100.24v-47.339" stroke="#000" stroke-linecap="round" stroke-width="2.126" fill="none"/>
 <path id="path2818-4-2-3-9-9-4-9-1" d="m111.15 100.24v-47.339" stroke="#000" stroke-linecap="round" stroke-width="2.126" fill="none"/>
 <path id="path2818-4-0-4-8-3-2-8-7-5" d="m29.467 52.9 40.839-23.578" stroke="#000" stroke-linecap="round" stroke-width="2.126" fill="none"/>
 <path id="path2818-4-0-4-8-6-7-0-8-2-2" d="m111.15 52.9-40.844-23.578" stroke="#000" stroke-linecap="round" stroke-width="2.126" fill="none"/>
 <path id="path4646-0-5-4-8-6" style="color:#000000" d="m121.75 52.9a10.607 10.607 0 0 1 -21.213 0 10.607 10.607 0 1 1 21.213 0z" stroke="#000" stroke-linecap="round" stroke-width="2.126" fill="#fff"/>
 <path id="path4646-14-8-4-1-1" style="color:#000000" d="m80.913 29.322a10.607 10.607 0 0 1 -21.213 0 10.607 10.607 0 1 1 21.213 0z" stroke="#000" stroke-linecap="round" stroke-width="2.126" fill="#fff"/>
 <path id="path4646-07-6-2-5-4" style="color:#000000" d="m40.074 52.9a10.607 10.607 0 0 1 -21.213 0 10.607 10.607 0 1 1 21.213 0z" stroke="#000" stroke-linecap="round" stroke-width="2.126" fill="#fff"/>
 <path id="path4646-7-3-81-9-1-0-1-5-5-2" style="block-progression:tb;text-indent:0;color:#000000;text-transform:none" d="m72.913 92.06c-10.368-0.8247-20.959 3.3337-27.931 12.066a1.0689 1.0689 0 1 0 1.6616 1.3451c10.437-13.074 29.455-15.224 42.529-4.787 1.7524 1.399 3.3461 2.9969 4.7474 4.7474a1.0689 1.0689 0 1 0 1.6616 -1.3451c-1.4998-1.8734-3.1884-3.5667-5.0639-5.0639-5.2396-4.1828-11.384-6.468-17.605-6.9629z" fill="#f00"/>
 <path id="path6747-2" stroke-linejoin="round" d="m56.493 99.609-12.7 7.6945 4.6898-14.089c0.97559 3.6278 4.2189 6.2005 8.0105 6.3948z" fill-rule="evenodd" stroke-width=".625" fill="#f00"/>
 <path id="path6749-1" stroke-linejoin="round" d="m92.119 93.159 4.7091 14.083-12.711-7.6771c3.7536-0.1528 6.9773-2.75 8.0017-6.4058z" fill-rule="evenodd" stroke-width=".625" fill="#f00"/>
 <path id="path7621-5" fill="#a00" d="m59.951 89.605h-1.8457v-11.761c-0.44435 0.4238-1.0271 0.8476-1.7483 1.2715-0.72119 0.4238-1.3689 0.7417-1.9431 0.9536v-1.7842c1.0322-0.4854 1.9346-1.0732 2.707-1.7637 0.77246-0.6904 1.3193-1.3603 1.6406-2.0098h1.1894z"/>
 <path id="path7627-1" fill="#a00" d="m88.508 77.157c0-0.7862 0.27856-1.4561 0.83569-2.0098s1.2253-0.8306 2.0046-0.8306c0.79296 0 1.4663 0.2769 2.02 0.8306s0.83056 1.2236 0.83057 2.0098c-0.00001 0.7861-0.27858 1.4577-0.8357 2.0148-0.55714 0.5572-1.2288 0.8358-2.0149 0.8357-0.7793 0.0001-1.4475-0.2768-2.0046-0.8305-0.55713-0.5537-0.83569-1.2271-0.83569-2.02zm1.1177 0c0 0.4785 0.16919 0.8869 0.50757 1.2253s0.74682 0.5076 1.2253 0.5076c0.47168 0 0.87671-0.1692 1.2151-0.5076 0.33837-0.3384 0.50757-0.7468 0.50757-1.2253s-0.1692-0.887-0.50757-1.2254c-0.33838-0.3384-0.74341-0.5075-1.2151-0.5076-0.47852 0.0001-0.88696 0.1692-1.2253 0.5076-0.33838 0.3384-0.50757 0.7469-0.50757 1.2254z"/>
 <path id="path2818-4-0-4-8-3-2-8-7-5-5" d="m29.467 100.24 40.839 23.579" stroke="#000" stroke-linecap="round" stroke-width="2.126" fill="none"/>
 <path id="path2818-4-0-4-8-6-7-0-8-2-2-9" d="m111.15 100.24-40.844 23.58" stroke="#000" stroke-linecap="round" stroke-width="2.126" fill="none"/>
 <path id="path4646-0-5-4-8-6-8" style="color:#000000" d="m121.75 100.24a10.607 10.607 0 0 0 -21.213 0 10.607 10.607 0 1 0 21.213 0z" stroke="#000" stroke-linecap="round" stroke-width="2.126" fill="#fff"/>
 <path id="path4646-14-8-4-1-1-4" style="color:#000000" d="m80.913 123.82a10.607 10.607 0 1 0 -21.213 0 10.607 10.607 0 0 0 21.213 0z" stroke="#000" stroke-linecap="round" stroke-width="2.126" fill="#fff"/>
 <path id="path4646-07-6-2-5-4-0" style="color:#000000" d="m40.074 100.24a10.607 10.607 0 1 0 -21.213 0 10.607 10.607 0 0 0 21.213 0z" stroke="#000" stroke-linecap="round" stroke-width="2.126" fill="#fff"/>
 <path id="path7492-7" fill="#a00" d="m73.841 87.831v1.7739h-9.936c-0.0136-0.4443 0.0581-0.8716 0.21533-1.2817 0.25293-0.6768 0.65796-1.3433 1.2151-1.9996 0.55712-0.6562 1.362-1.415 2.4148-2.2763 1.6338-1.3399 2.7378-2.4011 3.312-3.1839 0.5742-0.7827 0.86131-1.5227 0.86133-2.2199-0.00002-0.7315-0.26149-1.3484-0.78443-1.8509-0.52296-0.5024-1.2048-0.7536-2.0456-0.7536-0.88868 0-1.5996 0.2666-2.1328 0.7998s-0.80322 1.2715-0.81006 2.2148l-1.897-0.1948c0.12988-1.415 0.61865-2.4934 1.4663-3.2351 0.84766-0.7417 1.9858-1.1125 3.4146-1.1126 1.4424 0.0001 2.584 0.4 3.4248 1.1997 0.84081 0.7999 1.2612 1.7911 1.2612 2.9737-0.00001 0.6016-0.12305 1.1929-0.36914 1.7739-0.2461 0.5811-0.65455 1.1929-1.2253 1.8355-0.5708 0.6425-1.5193 1.5244-2.8455 2.6455-1.1074 0.9297-1.8184 1.5603-2.1328 1.8918-0.31446 0.3316-0.57422 0.6648-0.77929 0.9998z"/>
 <path id="path7614-6" fill="#a00" d="m76.465 82.192c0-1.7773 0.18286-3.2077 0.54858-4.2912s0.90918-1.9192 1.6304-2.5071c0.72118-0.5879 1.6286-0.8818 2.7224-0.8818 0.80665 0 1.5142 0.1623 2.1226 0.487 0.60839 0.3247 1.1108 0.793 1.5073 1.4048 0.39648 0.6118 0.70751 1.3569 0.93311 2.2354 0.22558 0.8784 0.33837 2.0627 0.33838 3.5529-0.00001 1.7637-0.18117 3.1873-0.54346 4.2708-0.36232 1.0835-0.90407 1.9209-1.6252 2.5122-0.7212 0.5913-1.6321 0.8869-2.7327 0.8869-1.4492 0-2.5874-0.5195-3.4146-1.5585-0.99122-1.251-1.4868-3.2881-1.4868-6.1114zm1.897 0c0 2.4678 0.28882 4.1101 0.86646 4.927 0.57763 0.8169 1.2903 1.2254 2.1379 1.2254 0.84765 0 1.5603-0.4102 2.138-1.2305 0.57762-0.8203 0.86644-2.4609 0.86645-4.9219-0.00001-2.4746-0.28883-4.1186-0.86645-4.9321-0.57765-0.8135-1.2971-1.2202-2.1584-1.2202-0.84767 0-1.5244 0.3589-2.0303 1.0766-0.63575 0.9161-0.95362 2.608-0.95362 5.0757z"/>
 <path id="path7456-2-3" d="m95.657 132h-1.8457v-11.761c-0.44434 0.4238-1.0271 0.8476-1.7483 1.2715-0.7212 0.4238-1.3689 0.7417-1.9431 0.9536v-1.7842c1.0322-0.4853 1.9346-1.0732 2.707-1.7637 0.77246-0.6904 1.3193-1.3603 1.6406-2.0097h1.1894z"/>
 <path id="path7458-4-6" d="m101.39 132v-2.102h2.102v2.102c0 0.7725-0.13672 1.3963-0.41016 1.8713-0.27344 0.4751-0.70752 0.8426-1.3022 1.1023l-0.5127-0.7895c0.38964-0.1709 0.67676-0.4221 0.86133-0.7537 0.18456-0.3315 0.2871-0.8083 0.30762-1.4304z"/>
 <path id="path7460-5-1" d="m106.23 128.03 1.8457-0.246c0.21191 1.0459 0.5725 1.7995 1.0818 2.2609 0.50927 0.4615 1.1296 0.6922 1.8611 0.6922 0.86815 0 1.6013-0.3008 2.1995-0.9024 0.59813-0.6015 0.8972-1.3466 0.89722-2.2353-0.00002-0.8477-0.27687-1.5466-0.83057-2.0969-0.55372-0.5503-1.2578-0.8255-2.1123-0.8255-0.34864 0-0.78273 0.068-1.3022 0.2051l0.20508-1.6201c0.12304 0.014 0.22216 0.021 0.29736 0.02 0.78613 0 1.4936-0.2051 2.1226-0.6153 0.6289-0.4101 0.94335-1.0424 0.94336-1.8969-0.00001-0.6768-0.22902-1.2373-0.68701-1.6817-0.45802-0.4443-1.0493-0.6665-1.7739-0.6665-0.71778 0-1.3159 0.2256-1.7944 0.6768-0.47851 0.4512-0.78613 1.1279-0.92285 2.0303l-1.8457-0.3282c0.22559-1.2373 0.73828-2.196 1.5381-2.8762 0.7998-0.68021 1.7944-1.0202 2.9839-1.0203 0.82031 0.0001 1.5757 0.1761 2.2661 0.5281 0.69042 0.35211 1.2185 0.83231 1.5842 1.4407 0.36572 0.6084 0.54858 1.2544 0.54859 1.938-0.00001 0.6494-0.17433 1.2407-0.52295 1.7739-0.34864 0.5332-0.86475 0.9571-1.5483 1.2715 0.88866 0.2051 1.5791 0.6306 2.0713 1.2766 0.49217 0.646 0.73827 1.4544 0.73828 2.4251-0.00001 1.3125-0.47852 2.425-1.4356 3.3376-0.95703 0.9126-2.167 1.3689-3.6299 1.3689-1.3193 0-2.4148-0.3931-3.2864-1.1792-0.87158-0.7861-1.3689-1.8047-1.4919-3.0557z"/>
 <path id="path7462-5-5" d="m118.19 128.53 1.7739-0.164c0.15039 0.834 0.4375 1.4389 0.86133 1.8149 0.42382 0.376 0.96728 0.564 1.6304 0.564 0.56738 0 1.0647-0.1299 1.492-0.3897 0.42723-0.2597 0.77757-0.6067 1.051-1.0407 0.27343-0.4341 0.50244-1.0203 0.68701-1.7586 0.18456-0.7383 0.27685-1.4902 0.27686-2.2558-0.00001-0.082-0.004-0.2051-0.0103-0.3692-0.36915 0.5879-0.8733 1.0647-1.5124 1.4304-0.63917 0.3658-1.3313 0.5486-2.0764 0.5486-1.2441 0-2.2969-0.4511-3.1582-1.3535-0.86133-0.9023-1.292-2.0918-1.292-3.5683 0-1.5245 0.44946-2.7515 1.3484-3.6812 0.89892-0.92971 2.0251-1.3945 3.3787-1.3945 0.97753 0 1.8713 0.2632 2.6814 0.78951 0.81004 0.5264 1.4253 1.2766 1.8457 2.2507 0.4204 0.9742 0.6306 2.3841 0.63062 4.2298-0.00002 1.9209-0.20851 3.4504-0.62549 4.5886-0.417 1.1382-1.0374 2.0046-1.8611 2.5994-0.82374 0.5947-1.7893 0.8921-2.8967 0.8921-1.1758 0-2.1362-0.3265-2.8813-0.9793-0.74512-0.6528-1.1929-1.5705-1.3433-2.7532zm7.5571-6.6342c0-1.0596-0.28199-1.9004-0.84594-2.5225-0.56397-0.6221-1.2424-0.9331-2.0354-0.9331-0.82031 0-1.5347 0.335-2.1431 1.0049s-0.9126 1.5381-0.91259 2.6045c-0.00001 0.957 0.28881 1.7346 0.86645 2.3327 0.57763 0.5982 1.2903 0.8973 2.1379 0.8973 0.85448 0 1.5569-0.2991 2.1072-0.8973 0.55028-0.5981 0.82543-1.427 0.82543-2.4865z"/>
 <path id="path7303-4" d="m74.962 126.06 1.9893 0.5025c-0.41701 1.6338-1.1673 2.8796-2.2507 3.7375-1.0835 0.8579-2.408 1.2869-3.9734 1.2869-1.6201 0-2.9377-0.3298-3.9529-0.9895-1.0151-0.6597-1.7876-1.615-2.3174-2.866-0.52979-1.2509-0.79468-2.5942-0.79468-4.0298 0-1.5654 0.29908-2.9309 0.89722-4.0964s1.4492-2.0508 2.5532-2.6558c1.104-0.6049 2.3191-0.9074 3.6453-0.9074 1.5039 0 2.7686 0.3828 3.794 1.1484 1.0254 0.76571 1.7397 1.8423 2.1431 3.23l-1.9585 0.4614c-0.34864-1.0937-0.8545-1.8901-1.5176-2.3891s-1.4971-0.7486-2.502-0.7486c-1.1553 0-2.1209 0.2769-2.8967 0.8306-0.77588 0.5537-1.321 1.2971-1.6355 2.2302-0.31446 0.9331-0.47169 1.8953-0.47169 2.8865 0 1.2783 0.18628 2.3943 0.55884 3.3479s0.9519 1.6662 1.738 2.1379c0.78613 0.4717 1.6372 0.7076 2.5532 0.7076 1.1142 0 2.0576-0.3213 2.8301-0.9639 0.77245-0.6426 1.2954-1.5962 1.5688-2.8609z"/>
 <metadata>
  <rdf:RDF>
   <cc:Work>
    <dc:format>image/svg+xml</dc:format>
    <dc:type rdf:resource="http://purl.org/dc/dcmitype/StillImage"/>
    <cc:license rdf:resource="http://creativecommons.org/licenses/publicdomain/"/>
    <dc:publisher>
     <cc:Agent rdf:about="http://openclipart.org/">
      <dc:title>Openclipart</dc:title>
     </cc:Agent>
    </dc:publisher>
   </cc:Work>
   <cc:License rdf:about="http://creativecommons.org/licenses/publicdomain/">
    <cc:permits rdf:resource="http://creativecommons.org/ns#Reproduction"/>
    <cc:permits rdf:resource="http://creativecommons.org/ns#Distribution"/>
    <cc:permits rdf:resource="http://creativecommons.org/ns#DerivativeWorks"/>
   </cc:License>
  </rdf:RDF>
 </metadata>
</svg>
