<?xml version="1.0"?>
<svg xmlns:rdf="http://www.w3.org/1999/02/22-rdf-syntax-ns#" xmlns="http://www.w3.org/2000/svg" xmlns:cc="http://web.resource.org/cc/" xmlns:xlink="http://www.w3.org/1999/xlink" xmlns:dc="http://purl.org/dc/elements/1.1/" id="svg2" xml:space="preserve" height="400" width="400" version="1.0" viewBox="0 0 276.06738 243.03857"><defs id="defs365">
		<linearGradient id="linearGradient4660" y2="169.34" gradientUnits="userSpaceOnUse" x2="268.97" y1="169.34" x1="5.3251"><stop id="stop4656" stop-color="#e8e8e8" offset="0"/><stop id="stop4658" stop-color="#b3b3b3" offset="1"/></linearGradient>
			</defs>
		<path id="path7" d="m110.42 120.47c12.26 2.34 29.1 6.47 35.51 3.9 15.91-6.39 3.53-9.76 11.21-19.5 7.43-9.428 46.31-1.87 41.26 6.71-5.19 8.85-35.61 17.43-19.98 19.55 5.07 0.69 21.76 3.58 34.94 7.7 11.31 3.54 20.07 7.99 16.45 12.65-8.12 10.45-14.35 27.75-12.97 30.01 0.89 1.46 6.44 3.42 15.93 4.5 6.37 0.72 19.8-3.54 25.49-1.8 8.65 2.67 10.69 11.01 7.13 19.17-4.9 11.29-15.79 13.1-26.94 10.43-8.6-2.05-7.49-8.24-11.33-12.6-3.79-4.28-18.1-7.51-22.74-2.41-4.71 5.17-30.36 40.99-44.52 39.34-14.06-1.62-47.42-10.61-48.86-13.05-1.44-2.45 6.35-10.34 11.59-12.53 5.3-2.21 16.74-8.86 10.27-13.87-6.54-5.06-44.955-13.83-51.863-8.65-6.998 5.25-0.574 12.91-1.494 16.44-0.906 3.5-5.431 10.75-15.493 8.61-10.038-2.14-57.01-9.39-56.774-24.56 0.2834-18.36 26.198-37.82 38.529-36.78 10.778 0.92 17.189 17.1 32.905 14.6 15.758-2.52 29.35-23.56 17.857-29.23-11.609-5.71-36.177 4.85-34.715-4.82 0.868-5.72 4.701-12.19 9.711-16.99 3.742-3.59 26.865 0.89 38.897 3.18z" stroke="#444" stroke-width="3.82" fill="url(#linearGradient4660)"/><path id="path11" d="m106.48 160.36c4.81-6.56 7.91-14.54 7.91-14.54l35.08-0.32 35.08-0.32s20.29 3.18 27.6 13.28c5.81 8.02-0.76 23.03-2.17 25.56-3.18 5.73-10.19 16.56-19.1 25.47s-22.28 26.74-28.01 17.19-30.56-39.47-42.66-40.11c-12.09-0.64-23.519-8.8-24.156-13.26-0.309-2.15 5.926-6.81 10.426-12.95z" fill-opacity=".058824" fill="#8693ff"/><g id="g13" opacity=".99508" fill-opacity=".058824" transform="matrix(.95499 0 0 .95499 5.325 7.9875)" fill="#8693ff">
					<path id="path15" d="m115.88 145.21c-0.07-0.24 35.28-0.74 35.65-0.74 0.21 0 35.4-0.26 35.53-0.12 0.1 0.11 20.42 3.41 27.65 13.73 5.79 8.24-0.81 23.48-2.26 26.2-3.16 5.93-10.24 16.85-19.14 25.9-8.98 9.13-22.38 27.07-28.26 17.58-4.4-7.08-19.35-25.88-31.78-35.32-4.21-3.17-8.12-5.29-11.21-5.5-12.12-0.83-23.576-9.07-24.264-13.66-0.346-2.26 5.834-7.01 10.294-13.25 4.75-6.64 7.81-14.72 7.79-14.82z" fill-opacity=".058824" fill="#8693ff"/>
				</g><g id="g17" opacity=".99017" fill-opacity=".058824" transform="matrix(.95499 0 0 .95499 5.325 7.9875)" fill="#8693ff">
					<path id="path19" d="m117.55 146.1c-0.13-0.48 33.84-1.15 34.57-1.15 0.41 0 34.06-0.19 34.32 0.08 0.2 0.22 19.6 3.5 26.41 13.56 5.48 8.1-0.82 22.84-2.25 25.63-3 5.86-9.81 16.37-18.27 25.13-8.63 8.94-21.43 26.16-27.19 17.17-4.32-6.69-18.59-25-30.58-34.22-4.02-3.1-7.77-5.17-10.74-5.43-11.57-0.99-22.51-8.91-23.23-13.43-0.36-2.26 5.46-6.89 9.66-12.92 4.48-6.43 7.36-14.21 7.3-14.42z" fill-opacity=".058824" fill="#8693ff"/>
				</g><g id="g21" opacity=".98525" fill-opacity=".058824" transform="matrix(.95499 0 0 .95499 5.325 7.9875)" fill="#8693ff">
					<path id="path23" d="m119.23 146.99c-0.2-0.72 32.39-1.56 33.49-1.57 0.61 0 32.71-0.11 33.1 0.3 0.31 0.33 18.78 3.59 25.16 13.38 5.19 7.96-0.82 22.21-2.22 25.06-2.84 5.8-9.39 15.89-17.42 24.36-8.28 8.74-20.46 25.23-26.12 16.77-4.23-6.33-17.83-24.11-29.37-33.14-3.84-3-7.43-5.05-10.27-5.34-11.03-1.15-21.45-8.76-22.2-13.21-0.38-2.26 5.1-6.76 9.04-12.59 4.2-6.22 6.89-13.71 6.81-14.02z" fill-opacity=".058824" fill="#8693ff"/>
				</g><g id="g25" opacity=".98034" fill-opacity=".058824" transform="matrix(.95499 0 0 .95499 5.325 7.9875)" fill="#8693ff">
					<path id="path27" d="m120.9 147.88c-0.26-0.96 30.95-1.97 32.41-1.98 0.82 0 31.38-0.05 31.9 0.51 0.41 0.43 17.95 3.68 23.91 13.2 4.89 7.82-0.84 21.57-2.21 24.49-2.69 5.72-8.96 15.41-16.56 23.6-7.92 8.54-19.5 24.3-25.04 16.35-4.15-5.95-17.09-23.21-28.17-32.05-3.65-2.91-7.08-4.92-9.81-5.26-10.47-1.3-20.38-8.6-21.16-12.98-0.4-2.26 4.73-6.64 8.41-12.27 3.93-6 6.43-13.2 6.32-13.61z" fill-opacity=".058824" fill="#8693ff"/>
				</g><g id="g29" opacity=".97542" fill-opacity=".058824" transform="matrix(.95499 0 0 .95499 5.325 7.9875)" fill="#8693ff">
					<path id="path31" d="m122.58 148.77c-0.33-1.2 29.49-2.38 31.33-2.39 1.02-0.01 30.03 0.02 30.68 0.71 0.51 0.54 17.12 3.78 22.66 13.04 4.59 7.67-0.85 20.93-2.19 23.92-2.53 5.64-8.53 14.93-15.69 22.82-7.58 8.35-18.55 23.38-23.98 15.94-4.06-5.57-16.33-22.31-26.96-30.95-3.47-2.82-6.73-4.8-9.34-5.18-9.91-1.46-19.33-8.46-20.13-12.76-0.42-2.26 4.36-6.51 7.79-11.94 3.65-5.79 5.97-12.7 5.83-13.21z" fill-opacity=".058824" fill="#8693ff"/>
				</g><g id="g33" opacity=".97051" fill-opacity=".058824" transform="matrix(.95499 0 0 .95499 5.325 7.9875)" fill="#8693ff">
					<path id="path35" d="m124.26 149.66c-0.4-1.44 28.04-2.79 30.24-2.81 1.23 0 28.69 0.1 29.47 0.93 0.61 0.65 16.3 3.87 21.42 12.86 4.29 7.53-0.86 20.29-2.18 23.35-2.39 5.56-8.09 14.46-14.83 22.06-7.22 8.15-17.59 22.45-22.9 15.52-3.99-5.19-15.59-21.41-25.77-29.86-3.27-2.72-6.38-4.67-8.86-5.1-9.36-1.6-18.27-8.3-19.1-12.53-0.44-2.26 3.99-6.39 7.16-11.62 3.38-5.57 5.51-12.19 5.35-12.8z" fill-opacity=".058824" fill="#8693ff"/>
				</g><g id="g37" opacity=".96559" fill-opacity=".058824" transform="matrix(.95499 0 0 .95499 5.325 7.9875)" fill="#8693ff">
					<path id="path39" d="m125.93 150.55c-0.46-1.67 26.6-3.21 29.16-3.22 1.43-0.01 27.36 0.17 28.26 1.13 0.72 0.76 15.47 3.98 20.18 12.69 3.98 7.39-0.88 19.65-2.17 22.78-2.24 5.48-7.66 13.99-13.96 21.29-6.88 7.97-16.65 21.53-21.84 15.11-3.9-4.81-14.83-20.5-24.56-28.77-3.09-2.63-6.03-4.54-8.39-5.01-8.8-1.75-17.21-8.15-18.07-12.31-0.46-2.26 3.62-6.26 6.54-11.29 3.1-5.36 5.04-11.69 4.85-12.4z" fill-opacity=".058824" fill="#8693ff"/>
				</g><g id="g41" opacity=".96068" fill-opacity=".058824" transform="matrix(.95499 0 0 .95499 5.325 7.9875)" fill="#8693ff">
					<path id="path43" d="m127.61 151.44c-0.53-1.92 25.15-3.62 28.08-3.63 1.63-0.01 26.01 0.24 27.05 1.34 0.82 0.87 14.64 4.08 18.92 12.52 3.69 7.25-0.89 19-2.14 22.2-2.11 5.4-7.23 13.52-13.11 20.53-6.52 7.77-15.69 20.6-20.77 14.7-3.81-4.44-14.08-19.61-23.35-27.68-2.91-2.54-5.68-4.42-7.92-4.94-8.25-1.89-16.16-7.99-17.03-12.08-0.49-2.26 3.24-6.14 5.9-10.96 2.83-5.15 4.59-11.19 4.37-12z" fill-opacity=".058824" fill="#8693ff"/>
				</g><g id="g45" opacity=".95576" fill-opacity=".058824" transform="matrix(.95499 0 0 .95499 5.325 7.9875)" fill="#8693ff">
					<path id="path47" d="m129.28 152.33c-0.58-2.15 23.7-4.03 27-4.04 1.84-0.01 24.67 0.31 25.84 1.54 0.92 0.98 13.8 4.19 17.68 12.35 3.38 7.12-0.91 18.36-2.13 21.64-1.97 5.3-6.8 13.05-12.25 19.75-6.17 7.59-14.73 19.68-19.69 14.29-3.74-4.06-13.34-18.7-22.15-26.59-2.73-2.44-5.33-4.29-7.45-4.85-7.68-2.03-15.1-7.84-16-11.86-0.51-2.26 2.88-6.01 5.28-10.64 2.55-4.93 4.12-10.68 3.87-11.59z" fill-opacity=".058824" fill="#8693ff"/>
				</g><g id="g49" opacity=".95084" fill-opacity=".058824" transform="matrix(.95499 0 0 .95499 5.325 7.9875)" fill="#8693ff">
					<path id="path51" d="m130.96 153.22c-0.65-2.4 22.25-4.44 25.91-4.46 2.05-0.01 23.34 0.38 24.63 1.76 1.03 1.09 12.97 4.3 16.43 12.17 3.08 7-0.93 17.71-2.11 21.07-1.84 5.22-6.36 12.58-11.38 18.99-5.82 7.4-13.78 18.74-18.63 13.87-3.65-3.68-12.58-17.79-20.94-25.5-2.54-2.34-4.98-4.16-6.99-4.77-7.11-2.15-14.04-7.69-14.96-11.63-0.53-2.26 2.51-5.89 4.65-10.31 2.28-4.72 3.66-10.18 3.39-11.19z" fill-opacity=".058824" fill="#8693ff"/>
				</g><g id="g53" opacity=".94593" fill-opacity=".058824" transform="matrix(.95499 0 0 .95499 5.325 7.9875)" fill="#8693ff">
					<path id="path55" d="m132.64 154.11c-0.72-2.63 20.8-4.85 24.83-4.87 2.25-0.01 21.99 0.45 23.42 1.97 1.12 1.19 12.12 4.41 15.18 12 2.76 6.86-0.96 17.06-2.1 20.49-1.71 5.13-5.92 12.12-10.52 18.22-5.46 7.22-12.83 17.82-17.55 13.46-3.58-3.3-11.84-16.88-19.74-24.4-2.36-2.25-4.62-4.03-6.52-4.69-6.55-2.28-12.99-7.54-13.93-11.41-0.55-2.26 2.14-5.76 4.02-9.99 2.01-4.49 3.21-9.67 2.91-10.78z" fill-opacity=".058824" fill="#8693ff"/>
				</g><g id="g57" opacity=".94101" fill-opacity=".058824" transform="matrix(.95499 0 0 .95499 5.325 7.9875)" fill="#8693ff">
					<path id="path59" d="m134.31 155c-0.78-2.88 19.36-5.26 23.75-5.28 2.45-0.02 20.65 0.52 22.21 2.17 1.23 1.31 11.28 4.53 13.93 11.83 2.46 6.74-0.97 16.42-2.08 19.92-1.58 5.04-5.47 11.67-9.66 17.46-5.1 7.04-11.88 16.89-16.48 13.04-3.5-2.92-11.09-15.96-18.53-23.31-2.18-2.15-4.27-3.89-6.05-4.6-5.98-2.4-11.93-7.39-12.9-11.19-0.57-2.26 1.77-5.64 3.4-9.66 1.73-4.28 2.74-9.17 2.41-10.38z" fill-opacity=".058824" fill="#8693ff"/>
				</g><g id="g61" opacity=".93610" fill-opacity=".058824" transform="matrix(.95499 0 0 .95499 5.325 7.9875)" fill="#8693ff">
					<path id="path63" d="m135.99 155.89c-0.85-3.12 17.9-5.67 22.66-5.7 2.66-0.01 19.32 0.6 21 2.39 1.33 1.41 10.43 4.65 12.69 11.65 2.13 6.62-1.01 15.77-2.06 19.36-1.47 4.94-5.03 11.21-8.8 16.68-4.74 6.87-10.93 15.97-15.41 12.64-3.43-2.56-10.36-15.05-17.33-22.23-2-2.05-3.91-3.75-5.58-4.52-5.42-2.49-10.88-7.23-11.87-10.96-0.6-2.26 1.4-5.51 2.77-9.33 1.46-4.07 2.28-8.67 1.93-9.98z" fill-opacity=".058824" fill="#8693ff"/>
				</g><g id="g65" opacity=".93118" fill-opacity=".058824" transform="matrix(.95499 0 0 .95499 5.325 7.9875)" fill="#8693ff">
					<path id="path67" d="m137.66 156.78c-0.91-3.35 16.46-6.08 21.59-6.11 2.86-0.02 17.97 0.67 19.78 2.59 1.44 1.52 9.57 4.78 11.44 11.48 1.82 6.51-1.03 15.13-2.04 18.79-1.35 4.85-4.58 10.76-7.94 15.91-4.37 6.71-9.98 15.05-14.34 12.23-3.35-2.18-9.61-14.13-16.12-21.13-1.82-1.96-3.56-3.62-5.11-4.44-4.86-2.58-9.83-7.08-10.84-10.74-0.62-2.26 1.04-5.39 2.15-9.01 1.18-3.85 1.82-8.16 1.43-9.57z" fill-opacity=".058824" fill="#8693ff"/>
				</g><g id="g69" opacity=".92627" fill-opacity=".058824" transform="matrix(.95499 0 0 .95499 5.325 7.9875)" fill="#8693ff">
					<path id="path71" d="m139.34 157.67c-0.98-3.6 15.01-6.49 20.5-6.52 3.07-0.02 16.63 0.73 18.58 2.8 1.53 1.63 8.7 4.9 10.19 11.31 1.48 6.39-1.07 14.47-2.03 18.21-1.23 4.76-4.12 10.32-7.08 15.15-4 6.54-9.03 14.13-13.26 11.81-3.28-1.79-8.88-13.2-14.92-20.04-1.64-1.85-3.21-3.47-4.64-4.36-4.3-2.65-8.78-6.92-9.81-10.51-0.64-2.26 0.67-5.26 1.52-8.68 0.91-3.64 1.36-7.66 0.95-9.17z" fill-opacity=".058824" fill="#8693ff"/>
				</g><g id="g73" opacity=".92135" fill-opacity=".058824" transform="matrix(.95499 0 0 .95499 5.325 7.9875)" fill="#8693ff">
					<path id="path75" d="m141.01 158.55c-1.04-3.82 13.56-6.9 19.42-6.93 3.28-0.02 15.3 0.81 17.37 3.01 1.64 1.74 7.83 5.03 8.94 11.14 1.15 6.27-1.1 13.83-2.01 17.64-1.12 4.67-3.65 9.88-6.21 14.38-3.62 6.38-8.1 13.21-12.2 11.4-3.2-1.41-8.14-12.27-13.72-18.95-1.46-1.75-2.85-3.32-4.16-4.27-3.75-2.71-7.73-6.77-8.77-10.28-0.67-2.26 0.29-5.15 0.88-8.37 0.64-3.42 0.91-7.15 0.46-8.77z" fill-opacity=".058824" fill="#8693ff"/>
				</g><g id="g77" opacity=".91644" fill-opacity=".058824" transform="matrix(.95499 0 0 .95499 5.325 7.9875)" fill="#8693ff">
					<path id="path79" d="m142.69 159.44c-1.11-4.06 12.11-7.31 18.34-7.34 3.47-0.02 13.95 0.88 16.15 3.22 1.74 1.85 6.95 5.16 7.7 10.96 0.8 6.16-1.14 13.18-2 17.08-1 4.57-3.18 9.43-5.35 13.61-3.23 6.22-7.15 12.29-11.12 10.98-3.13-1.02-7.42-11.34-12.52-17.85-1.28-1.65-2.5-3.17-3.7-4.2-3.2-2.75-6.67-6.61-7.73-10.05-0.7-2.26-0.08-5.03 0.26-8.04 0.36-3.21 0.44-6.65-0.03-8.37z" fill-opacity=".058824" fill="#8693ff"/>
				</g><g id="g81" opacity=".91152" fill-opacity=".058824" transform="matrix(.95499 0 0 .95499 5.325 7.9875)" fill="#8693ff">
					<path id="path83" d="m144.37 160.33c-1.18-4.31 10.66-7.72 17.25-7.75 3.68-0.02 12.61 0.95 14.94 3.43 1.85 1.95 6.06 5.28 6.46 10.79 0.43 6.04-1.19 12.53-1.99 16.5-0.9 4.48-2.7 9-4.49 12.84-2.82 6.08-6.21 11.38-10.05 10.58-3.06-0.65-6.71-10.4-11.31-16.77-1.11-1.54-2.16-3.01-3.23-4.11-2.68-2.78-5.63-6.46-6.7-9.83-0.72-2.26-0.45-4.9-0.37-7.71 0.09-3-0.02-6.15-0.51-7.97z" fill-opacity=".058824" fill="#8693ff"/>
				</g><g id="g85" opacity=".90661" fill-opacity=".058824" transform="matrix(.95499 0 0 .95499 5.325 7.9875)" fill="#8693ff">
					<path id="path87" d="m146.04 161.22c-1.24-4.54 9.22-8.13 16.17-8.17 3.89-0.02 11.28 1.03 13.74 3.64 1.94 2.07 5.14 5.41 5.2 10.62 0.06 5.92-1.23 11.88-1.96 15.93-0.8 4.39-2.22 8.57-3.63 12.08-2.4 5.93-5.27 10.47-8.98 10.16-2.99-0.25-6.01-9.45-10.11-15.68-0.94-1.43-1.84-2.84-2.76-4.03-2.18-2.8-4.58-6.3-5.67-9.6-0.75-2.26-0.82-4.77-0.99-7.39-0.19-2.78-0.49-5.64-1.01-7.56z" fill-opacity=".058824" fill="#8693ff"/>
				</g><g id="g89" opacity=".90169" fill-opacity=".058824" transform="matrix(.95499 0 0 .95499 5.325 7.9875)" fill="#8693ff">
					<path id="path91" d="m147.72 162.11c-1.31-4.79 7.76-8.54 15.09-8.58 4.09-0.02 9.93 1.1 12.52 3.85 2.05 2.17 4.23 5.52 3.96 10.44-0.33 5.8-1.28 11.23-1.95 15.36-0.7 4.3-1.71 8.15-2.77 11.31-1.94 5.8-4.32 9.57-7.91 9.75-2.91 0.15-5.33-8.49-8.9-14.58-0.78-1.33-1.52-2.68-2.29-3.95-1.71-2.83-3.53-6.15-4.64-9.38-0.77-2.26-1.18-4.65-1.62-7.06-0.46-2.57-0.94-5.14-1.49-7.16z" fill-opacity=".058824" fill="#8693ff"/>
				</g><g id="g93" opacity=".89677" fill-opacity=".058824" transform="matrix(.95499 0 0 .95499 5.325 7.9875)" fill="#8693ff">
					<path id="path95" d="m149.39 163c1.12 4.11 2.58 8.84 4.23 13.49 1.66 4.65 3.51 9.22 5.43 13.02 3.02 5.97 4.86 14.04 7.69 13.49 3.47-0.67 5.41-3.67 6.84-9.33 0.72-2.84 1.31-6.34 1.91-10.54 0.6-4.21 1.2-9.13 1.93-14.8 1.37-10.52-6.33-14.36-14.02-14.32s-15.38 3.97-14.01 8.99z" fill-opacity=".058824" fill="#8693ff"/>
				</g><g id="g97" opacity=".87719" transform="matrix(.95499 0 0 .95499 5.325 7.9875)">
				<g id="g99" opacity=".8">
					<path id="path101" fill="#3247ff" d="m116.01 55.486c-6.89 11.278-15.83 24.819-23.534 36.056-7.703 11.238-14.165 20.168-16.113 22.228-5.775 6.12-19.366 17.67-12.571 32.28 6.796 14.61 31.597 15.29 45.528 14.95 13.93-0.34 52.66-0.34 66.59 0s38.73-0.34 45.52-14.95c6.8-14.61-6.79-26.16-12.57-32.28-1.96-2.07-7.91-11.12-15.09-22.472-7.18-11.35-15.59-25.005-22.47-36.298l-55.29 0.486z"/>
				</g>
				<g id="g103" opacity=".80645">
					<path id="path105" fill="#384cff" d="m170.29 54.997c-0.08-0.125-32.08 0.24-32.17 0.264-0.05 0.013-21.8 0.27-21.87 0.376-6.99 10.87-15.48 24.281-23.018 35.325-7.499 10.968-13.804 19.708-15.723 21.808-5.798 6.34-19.059 18-12.369 32.23 6.646 14.2 30.749 14.85 44.34 14.48 8.19-0.23 25.1-0.36 40.22-0.37 9.96 0 19.15 0.04 24.54 0.14 13.56 0.26 37.63-0.48 44.25-14.7 6.63-14.2-6.65-25.3-12.06-31.42-1.89-2.15-7.6-11.08-14.45-22.233-3.58-5.83-7.46-12.245-11.28-18.623-3.6-6.011-6.99-12.05-10.41-17.277z"/>
				</g>
				<g id="g107" opacity=".81290">
					<path id="path109" fill="#3d51ff" d="m169.28 54.993c-0.16-0.25-31.29 0.193-31.46 0.24-0.1 0.025-21.19 0.342-21.33 0.553-6.88 10.597-15.13 23.746-22.5 34.596-7.296 10.698-13.444 19.238-15.336 21.378-5.818 6.58-18.75 18.34-12.168 32.2 6.498 13.79 29.903 14.41 43.154 13.99 7.99-0.25 24.41-0.41 39.09-0.48 9.68-0.04 18.6-0.03 23.85 0.03 13.17 0.17 36.51-0.62 42.97-14.44 6.45-13.8-6.51-24.47-11.55-30.58-1.82-2.22-7.28-11.03-13.8-21.985-3.45-5.785-7.17-12.125-10.82-18.416-3.48-6-6.75-11.969-10.1-17.086z"/>
				</g>
				<g id="g111" opacity=".81935">
					<path id="path113" fill="#4356ff" d="m168.27 54.99c-0.25-0.376-30.5 0.144-30.76 0.215-0.13 0.037-20.57 0.415-20.77 0.731-6.72 10.359-14.79 23.209-21.994 33.866-7.093 10.428-13.082 18.778-14.947 20.948-5.839 6.81-18.411 18.66-11.966 32.16 6.379 13.36 29.056 13.97 41.967 13.52 7.79-0.27 23.72-0.48 37.97-0.61 9.38-0.06 18.03-0.1 23.14-0.08 12.8 0.07 35.41-0.75 41.71-14.18 6.27-13.4-6.36-23.64-11.05-29.73-1.76-2.3-6.96-10.98-13.16-21.737-3.31-5.742-6.87-12.006-10.35-18.21-3.36-5.989-6.5-11.891-9.79-16.893z"/>
				</g>
				<g id="g115" opacity=".82581">
					<path id="path117" fill="#485bff" d="m167.26 54.987c-0.33-0.501-29.7 0.096-30.05 0.19-0.18 0.05-19.96 0.487-20.23 0.909-6.56 10.115-14.44 22.672-21.476 33.136-6.89 10.159-12.721 18.308-14.56 20.528-5.856 7.04-18.092 18.99-11.763 32.12 6.24 12.94 28.209 13.53 40.789 13.03 7.58-0.29 23.01-0.54 36.83-0.72 9.09-0.1 17.48-0.21 22.45-0.19 12.42 0.05 34.29-0.89 40.43-13.93 6.1-12.99-6.2-22.83-10.54-28.88-1.7-2.38-6.64-10.93-12.52-21.489-3.17-5.699-6.57-11.888-9.88-18.004-3.24-5.979-6.26-11.808-9.48-16.7z"/>
				</g>
				<g id="g119" opacity=".83226">
					<path id="path121" fill="#4e60ff" d="m166.25 54.984c-0.41-0.625-28.91 0.047-29.34 0.165-0.23 0.062-19.35 0.56-19.69 1.087-6.4 9.867-14.06 22.153-20.959 32.406-6.663 9.906-12.359 17.848-14.171 20.098-5.874 7.28-17.775 19.32-11.562 32.08 6.1 12.53 27.362 13.09 39.602 12.56 7.38-0.32 22.32-0.61 35.71-0.85 8.8-0.13 16.92-0.24 21.74-0.29 12.05-0.11 33.19-1.03 39.16-13.67 5.93-12.59-6.02-22.05-10.03-28.04-1.64-2.47-6.32-10.886-11.88-21.24-3.03-5.66-6.26-11.773-9.41-17.798-3.12-5.972-6.02-11.727-9.17-16.508z"/>
				</g>
				<g id="g123" opacity=".83871">
					<path id="path125" fill="#5366ff" d="m165.24 54.98c-0.49-0.749-28.11-0.001-28.63 0.142-0.28 0.074-18.74 0.631-19.15 1.264-6.24 9.621-13.71 21.619-20.442 31.675-6.456 9.64-11.996 17.389-13.784 19.669-5.89 7.52-17.457 19.65-11.359 32.05 5.96 12.11 26.515 12.64 38.415 12.08 7.18-0.34 21.63-0.68 34.59-0.97 8.5-0.16 16.35-0.32 21.04-0.4 11.67-0.2 32.08-1.17 37.88-13.42 5.76-12.18-5.83-21.28-9.51-27.19-1.6-2.56-6.01-10.846-11.25-20.992-2.9-5.621-5.96-11.659-8.94-17.592-3-5.965-5.78-11.645-8.86-16.316z"/>
				</g>
				<g id="g127" opacity=".84516">
					<path id="path129" fill="#596bff" d="m164.23 54.977c-0.58-0.874-27.32-0.05-27.93 0.116-0.31 0.087-18.12 0.705-18.6 1.443-6.09 9.372-13.35 21.085-19.925 30.944-6.249 9.374-11.632 16.93-13.395 19.24-5.905 7.76-17.14 19.99-11.158 32.01 5.82 11.7 25.668 12.21 37.228 11.6 6.97-0.36 20.94-0.77 33.46-1.09 8.21-0.21 15.8-0.38 20.34-0.5 11.3-0.29 30.97-1.31 36.61-13.17 5.58-11.78-5.63-20.52-9-26.34-1.54-2.67-5.68-10.81-10.6-20.744-2.77-5.584-5.67-11.546-8.48-17.386-2.88-5.96-5.54-11.563-8.55-16.123z"/>
				</g>
				<g id="g131" opacity=".85161">
					<path id="path133" fill="#5f70ff" d="m163.22 54.974c-0.66-0.999-26.52-0.099-27.22 0.091-0.36 0.1-17.51 0.778-18.06 1.621-5.93 9.125-13 20.551-19.408 30.214-6.042 9.106-11.268 16.47-13.007 18.82-5.919 8-16.822 20.31-10.956 31.97 5.68 11.28 24.821 11.76 36.041 11.12 6.77-0.39 20.25-0.84 32.34-1.21 7.92-0.25 15.24-0.46 19.64-0.61 10.92-0.38 29.86-1.45 35.33-12.91 5.41-11.38-4.38-20.48-8.49-25.5-0.94-3-5.35-10.774-9.96-20.495-2.63-5.549-5.36-11.436-8.01-17.18-2.75-5.958-5.3-11.482-8.24-15.931z"/>
				</g>
				<g id="g135" opacity=".85806">
					<path id="path137" fill="#6475ff" d="m162.21 54.971c-0.74-1.124-25.73-0.147-26.51 0.067-0.41 0.111-16.9 0.85-17.52 1.798-5.77 8.879-12.64 20.018-18.891 29.484-5.835 8.839-10.903 16.01-12.619 18.39-5.933 8.24-16.504 20.65-10.753 31.93 5.539 10.87 23.974 11.33 34.863 10.65 6.56-0.41 19.55-0.91 31.21-1.34 7.62-0.27 14.67-0.52 18.93-0.71 10.54-0.47 28.75-1.59 34.06-12.66 5.24-10.97-4.08-19.76-7.98-24.65-0.81-3.12-5.02-10.743-9.32-20.246-2.49-5.516-5.05-11.327-7.54-16.975-2.63-5.955-5.06-11.4-7.93-15.738z"/>
				</g>
				<g id="g139" opacity=".86452">
					<path id="path141" fill="#6a7aff" d="m161.2 54.968c-0.83-1.248-24.93-0.196-25.8 0.041-0.46 0.124-16.29 0.924-16.97 1.976-5.63 8.634-12.3 19.484-18.38 28.755-5.632 8.572-10.543 15.55-12.235 17.96-5.942 8.49-16.188 20.98-10.551 31.89 5.397 10.46 23.126 10.89 33.676 10.18 6.36-0.44 18.86-0.98 30.08-1.46 7.34-0.31 14.12-0.6 18.24-0.82 10.16-0.56 27.64-1.73 32.78-12.41 5.07-10.56-3.78-19.05-7.47-23.8-0.68-3.23-4.69-10.717-8.68-19.998-2.35-5.484-4.74-11.219-7.07-16.768-2.5-5.955-4.82-11.32-7.62-15.546z"/>
				</g>
				<g id="g143" opacity=".87097">
					<path id="path145" fill="#6f7fff" d="m160.19 54.964c-0.91-1.372-24.14-0.244-25.09 0.017-0.5 0.137-15.68 0.997-16.43 2.154-5.47 8.386-11.94 18.949-17.87 28.024-5.42 8.305-10.17 15.091-11.839 17.531-5.951 8.74-15.871 21.31-10.35 31.86 5.255 10.03 22.279 10.44 32.489 9.69 6.16-0.46 18.16-1.05 28.96-1.57 7.04-0.35 13.56-0.67 17.53-0.93 9.79-0.65 26.54-1.87 31.51-12.15 4.9-10.16-3.47-18.35-6.96-22.96-0.55-3.35-4.35-10.692-8.03-19.75-2.22-5.454-4.44-11.112-6.61-16.563-2.38-5.955-4.58-11.237-7.31-15.353z"/>
				</g>
				<g id="g147" opacity=".87742">
					<path id="path149" fill="#7584ff" d="m159.18 54.961c-1-1.496-23.34-0.292-24.39-0.007-0.54 0.148-15.06 1.069-15.88 2.331-5.31 8.139-11.59 18.415-17.35 27.294-5.216 8.038-9.807 14.627-11.454 17.111-5.958 8.98-15.556 21.64-10.148 31.81 5.113 9.62 21.432 10.01 31.302 9.22 5.96-0.48 17.47-1.12 27.84-1.7 6.74-0.38 12.99-0.73 16.83-1.04 9.41-0.73 25.42-2 30.24-11.89 4.71-9.76-3.18-17.63-6.46-22.11-0.42-3.46-4.01-10.672-7.39-19.501-2.08-5.427-4.12-11.008-6.14-16.357-2.25-5.958-4.34-11.156-7-15.161z"/>
				</g>
				<g id="g151" opacity=".88387">
					<path id="path153" fill="#7b89ff" d="m158.17 54.959c-1.08-1.621-22.55-0.341-23.68-0.033-0.59 0.161-14.45 1.142-15.34 2.51-5.15 7.893-11.23 17.88-16.83 26.563-5.012 7.769-9.443 14.168-11.068 16.681-5.966 9.23-15.24 21.97-9.946 31.78 4.969 9.2 20.584 9.56 30.114 8.74 5.76-0.51 16.78-1.19 26.71-1.82 6.46-0.42 12.44-0.81 16.13-1.15 9.03-0.82 24.32-2.14 28.97-11.64 4.54-9.35-2.88-16.92-5.95-21.26-0.29-3.58-3.66-10.655-6.75-19.253-1.94-5.4-3.81-10.905-5.67-16.15-2.12-5.962-4.1-11.075-6.69-14.968z"/>
				</g>
				<g id="g155" opacity=".89032">
					<path id="path157" fill="#808eff" d="m157.16 54.955c-1.16-1.744-21.75-0.39-22.97-0.058-0.64 0.174-13.84 1.216-14.8 2.688-5 7.646-10.88 17.346-16.32 25.834-4.801 7.501-9.07 13.708-10.674 16.254-5.968 9.477-14.925 22.307-9.744 31.737 4.827 8.79 19.738 9.13 28.928 8.26 5.56-0.52 16.09-1.25 25.59-1.94 6.16-0.44 11.87-0.87 15.43-1.25 8.65-0.91 23.21-2.28 27.69-11.38 4.37-8.95-2.58-16.21-5.44-20.42-0.16-3.69-3.31-10.641-6.11-19.005-1.79-5.376-3.49-10.802-5.2-15.945-1.99-5.966-3.86-10.993-6.38-14.775z"/>
				</g>
				<g id="g159" opacity=".89677">
					<path id="path161" fill="#8693ff" d="m156.15 54.952c-1.25-1.868-20.96-0.438-22.26-0.082-0.68 0.185-13.22 1.288-14.26 2.864-4.84 7.4-10.52 16.811-15.8 25.104-4.6 7.233-8.706 13.25-10.289 15.827-5.973 9.725-14.61 22.635-9.541 31.705 4.682 8.37 18.89 8.68 27.75 7.78 5.35-0.55 15.39-1.33 24.46-2.06 5.86-0.48 11.31-0.95 14.72-1.36 8.28-1 22.1-2.42 26.42-11.13 4.2-8.54-2.27-15.5-4.93-19.57-0.03-3.81-2.96-10.631-5.46-18.757-1.66-5.354-3.18-10.702-4.74-15.738-1.86-5.973-3.62-10.912-6.07-14.583z"/>
				</g>
				<g id="g163" opacity=".90323">
					<path id="path165" fill="#8b99ff" d="m155.14 54.949c-1.33-1.991-20.16-0.487-21.56-0.107-0.72 0.198-12.6 1.362-13.7 3.043-4.7 7.153-10.18 16.276-15.29 24.373-4.4 6.965-8.342 12.792-9.903 15.4-5.974 9.972-14.297 22.972-9.34 31.662 4.537 7.96 18.043 8.25 26.563 7.3 5.14-0.57 14.69-1.39 23.33-2.18 5.58-0.51 10.76-1.01 14.03-1.46 7.9-1.09 20.99-2.56 25.14-10.88 4.03-8.14-1.97-14.79-4.42-18.72 0.1-3.925-2.6-10.623-4.82-18.508-1.51-5.334-2.85-10.602-4.27-15.533-1.72-5.981-3.38-10.83-5.76-14.39z"/>
				</g>
				<g id="g167" opacity=".90968">
					<path id="path169" fill="#919eff" d="m154.13 54.946c-1.42-2.115-19.37-0.535-20.85-0.132-0.77 0.21-11.99 1.435-13.16 3.221-4.54 6.905-9.83 15.74-14.77 23.643-4.2 6.696-7.976 12.333-9.518 14.973-5.975 10.229-13.983 23.299-9.138 31.629 4.391 7.54 17.196 7.8 25.376 6.82 4.94-0.59 14-1.46 22.21-2.3 5.28-0.55 10.19-1.08 13.32-1.57 7.52-1.17 19.89-2.7 23.87-10.62 3.85-7.74-1.67-14.08-3.91-17.88 0.23-4.04-2.23-10.619-4.18-18.26-1.35-5.316-2.53-10.504-3.8-15.326-1.58-5.99-3.14-10.749-5.45-14.198z"/>
				</g>
				<g id="g171" opacity=".91613">
					<path id="path173" fill="#96a3ff" d="m153.12 54.943c-1.51-2.237-18.57-0.584-20.14-0.157-0.82 0.223-11.38 1.509-12.62 3.399-4.38 6.66-9.47 15.204-14.26 22.913-3.98 6.426-7.6 11.875-9.122 14.546-5.973 10.476-13.673 23.626-8.937 31.586 4.244 7.13 16.349 7.36 24.189 6.35 4.74-0.62 13.31-1.53 21.08-2.43 4.99-0.57 9.64-1.15 12.62-1.67 7.15-1.26 18.8-2.83 22.6-10.37 3.7-7.32-1.36-13.37-3.4-17.03 0.36-4.155-1.86-10.618-3.54-18.012-1.2-5.299-2.2-10.406-3.33-15.12-1.44-6-2.9-10.667-5.14-14.005z"/>
				</g>
				<g id="g175" opacity=".92258">
					<path id="path177" fill="#9ca8ff" d="m152.11 54.939c-1.59-2.359-17.78-0.632-19.43-0.181-0.86 0.235-10.77 1.583-12.08 3.576-4.22 6.414-9.12 14.669-13.74 22.183-3.78 6.157-7.234 11.418-8.737 14.119-5.969 10.734-13.36 23.964-8.734 31.554 4.096 6.71 15.501 6.92 23.001 5.86 4.54-0.64 12.62-1.59 19.96-2.54 4.7-0.61 9.07-1.22 11.92-1.78 6.76-1.34 17.68-2.97 21.32-10.12 3.52-6.91-1.06-12.65-2.88-16.18 0.48-4.27-1.49-10.619-2.91-17.763-1.04-5.285-1.87-10.31-2.86-14.915-1.3-6.011-2.66-10.585-4.83-13.813z"/>
				</g>
				<g id="g179" opacity=".92903">
					<path id="path181" fill="#a2adff" d="m151.1 54.936c-1.68-2.482-16.98-0.681-18.72-0.206-0.91 0.248-10.16 1.657-11.54 3.754-4.07 6.166-8.77 14.132-13.22 21.453-3.58 5.887-6.87 10.96-8.352 13.692-5.965 10.981-13.051 24.291-8.533 31.511 3.949 6.31 14.655 6.48 21.825 5.39 4.33-0.66 11.91-1.66 18.83-2.67 4.4-0.64 8.51-1.28 11.21-1.88 6.39-1.43 16.58-3.11 20.05-9.86 3.35-6.52-0.76-11.95-2.37-15.34 0.61-4.385-1.11-10.622-2.26-17.514-0.89-5.272-1.54-10.215-2.4-14.709-1.15-6.024-2.42-10.504-4.52-13.621z"/>
				</g>
				<g id="g183" opacity=".93548">
					<path id="path185" fill="#a7b2ff" d="m150.09 54.933c-1.76-2.604-16.19-0.729-18.02-0.231-0.95 0.26-9.53 1.731-10.99 3.932-3.91 5.92-8.42 13.596-12.71 20.723-3.38 5.617-6.49 10.502-7.96 13.265-5.955 11.238-12.738 24.628-8.327 31.468 3.797 5.9 13.807 6.05 20.637 4.92 4.13-0.69 11.22-1.73 17.7-2.79 4.12-0.67 7.96-1.35 10.52-2 6.01-1.5 15.47-3.24 18.78-9.6 3.17-6.11-0.47-11.24-1.87-14.48 0.74-4.51-0.71-10.637-1.62-17.276-0.72-5.26-1.21-10.119-1.93-14.503-1-6.036-2.18-10.423-4.21-13.428z"/>
				</g>
				<g id="g187" opacity=".94194">
					<path id="path189" fill="#adb7ff" d="m149.08 54.93c-1.85-2.726-15.4-0.778-17.31-0.256-1 0.272-8.92 1.806-10.45 4.11-3.75 5.673-8.07 13.058-12.19 19.992-3.18 5.346-6.13 10.046-7.57 12.838-5.951 11.496-12.436 24.966-8.13 31.436 3.645 5.48 12.96 5.6 19.45 4.43 3.93-0.71 10.53-1.79 16.58-2.91 3.82-0.7 7.39-1.41 9.81-2.1 5.63-1.58 14.36-3.38 17.51-9.35 3-5.7-0.16-10.52-1.36-13.634 0.87-4.621-0.31-10.638-0.98-17.024-0.54-5.248-0.87-10.024-1.46-14.296-0.84-6.05-1.94-10.341-3.9-13.236z"/>
				</g>
				<g id="g191" opacity=".94839">
					<path id="path193" fill="#b2bcff" d="m148.07 54.927c-1.94-2.848-14.6-0.826-16.6-0.281-1.04 0.285-8.31 1.88-9.9 4.288-3.61 5.426-7.73 12.52-11.68 19.262-2.98 5.075-5.76 9.587-7.19 12.411-5.937 11.743-12.125 25.293-7.923 31.393 3.492 5.07 12.113 5.17 18.263 3.96 3.73-0.73 9.84-1.86 15.46-3.03 3.52-0.73 6.83-1.49 9.11-2.21 5.25-1.66 13.25-3.52 16.23-9.09 2.83-5.3 0.14-9.82-0.85-12.794 1-4.736 0.09-10.643-0.34-16.775-0.36-5.237-0.52-9.929-0.99-14.091-0.68-6.062-1.7-10.26-3.59-13.043z"/>
				</g>
				<g id="g195" opacity=".95484">
					<path id="path197" fill="#b8c1ff" d="m147.05 54.923c-2.02-2.967-13.8-0.874-15.88-0.305-1.09 0.297-7.69 1.956-9.36 4.466-3.45 5.18-7.38 11.981-11.17 18.532-2.77 4.803-5.38 9.13-6.79 11.984-5.931 12-11.827 25.63-7.726 31.36 3.336 4.66 11.266 4.72 17.076 3.48 3.53-0.76 9.14-1.93 14.33-3.15 3.23-0.77 6.27-1.55 8.41-2.32 4.87-1.74 12.15-3.66 14.96-8.84 2.65-4.9 0.44-9.1-0.34-11.943 1.13-4.852 0.51-10.649 0.31-16.528-0.18-5.225-0.19-9.833-0.53-13.885-0.51-6.075-1.46-10.177-3.29-12.851z"/>
				</g>
				<g id="g199" opacity=".96129">
					<path id="path201" fill="#bec6ff" d="m146.04 54.92c-2.11-3.089-13-0.923-15.17-0.33-1.14 0.309-7.08 2.031-8.82 4.644-3.29 4.933-7.03 11.443-10.65 17.802-2.57 4.531-5.01 8.672-6.41 11.557-5.912 12.257-11.52 25.967-7.518 31.317 3.178 4.25 10.418 4.28 15.898 3 3.31-0.78 8.44-1.98 13.2-3.27 2.94-0.79 5.71-1.61 7.71-2.42 4.49-1.81 11.03-3.8 13.68-8.59 2.48-4.49 0.74-8.39 0.17-11.093 1.26-4.967 0.93-10.652 0.95-16.28 0.01-5.211 0.16-9.736-0.06-13.678-0.34-6.087-1.22-10.097-2.98-12.659z"/>
				</g>
				<g id="g203" opacity=".96774">
					<path id="path205" fill="#c3ccff" d="m145.03 54.917c-2.2-3.209-12.21-0.972-14.47-0.355-1.18 0.322-6.45 2.107-8.27 4.822-3.14 4.687-6.68 10.903-10.13 17.072-2.38 4.258-4.65 8.214-6.02 11.129-5.9 12.515-11.228 26.305-7.322 31.285 3.022 3.84 9.572 3.84 14.712 2.52 3.11-0.8 7.75-2.05 12.08-3.39 2.64-0.83 5.14-1.68 7-2.53 4.12-1.88 9.93-3.94 12.41-8.33 2.31-4.09 1.05-7.686 0.68-10.252 1.39-5.083 1.36-10.653 1.59-16.033 0.22-5.195 0.51-9.638 0.41-13.472-0.16-6.098-0.98-10.014-2.67-12.466z"/>
				</g>
				<g id="g207" opacity=".97419">
					<path id="path209" fill="#c9d1ff" d="m144.02 54.914c-2.29-3.328-11.41-1.02-13.76-0.38-1.22 0.335-5.84 2.183-7.73 5-2.98 4.44-6.34 10.362-9.61 16.341-2.19 3.986-4.28 7.758-5.64 10.703-5.88 12.77-10.927 26.652-7.11 31.242 2.85 3.44 8.72 3.4 13.52 2.05 2.91-0.83 7.06-2.11 10.95-3.52 2.35-0.85 4.59-1.74 6.31-2.63 3.74-1.95 8.81-4.08 11.13-8.08 2.14-3.68 0.93-6.982 1.19-9.402 0.59-5.382 1.8-10.649 2.23-15.784 0.44-5.177 0.87-9.54 0.88-13.266 0.02-6.108-0.74-9.934-2.36-12.274z"/>
				</g>
				<g id="g211" opacity=".98065">
					<path id="path213" fill="#ced6ff" d="m143.01 54.911c-2.38-3.446-10.62-1.069-13.05-0.405-1.27 0.347-5.22 2.26-7.19 5.178-2.82 4.193-6 9.82-9.1 15.611-1.98 3.712-3.9 7.301-5.24 10.276-5.87 13.027-10.643 26.999-6.92 31.209 2.69 3.03 7.88 2.96 12.34 1.56 2.71-0.84 6.36-2.16 9.83-3.63 2.06-0.88 4.03-1.8 5.6-2.74 3.37-2.02 7.71-4.22 9.86-7.83 1.96-3.28 1.34-6.287 1.7-8.551 0.89-5.49 2.24-10.639 2.88-15.537 0.66-5.152 1.21-9.439 1.34-13.06 0.21-6.114-0.5-9.851-2.05-12.081z"/>
				</g>
				<g id="g215" opacity=".98710">
					<path id="path217" fill="#d4dbff" d="m142 54.908c-2.48-3.564-9.82-1.117-12.34-0.429-1.32 0.358-4.61 2.336-6.65 5.354-2.67 3.948-5.66 9.277-8.58 14.882-1.79 3.437-3.53 6.844-4.85 9.848-5.86 13.285-10.363 27.347-6.72 31.167 2.52 2.64 7.03 2.52 11.15 1.09 2.51-0.87 5.68-2.22 8.7-3.76 1.77-0.9 3.48-1.85 4.91-2.85 3-2.07 6.59-4.35 8.58-7.56 1.79-2.879 1.74-5.59 2.21-7.711 1.23-5.576 2.7-10.622 3.52-15.289 0.9-5.121 1.57-9.336 1.81-12.854 0.41-6.118-0.26-9.769-1.74-11.888z"/>
				</g>
				<g id="g219" opacity=".99355">
					<path id="path221" fill="#d9e0ff" d="m140.99 54.904c-2.57-3.68-9.03-1.165-11.64-0.454-1.36 0.372-3.98 2.416-6.09 5.533-2.52 3.702-5.33 8.732-8.07 14.151-1.6 3.163-3.16 6.388-4.47 9.422-5.81 13.55-10.08 27.714-6.51 31.134 2.35 2.24 6.18 2.08 9.97 0.61 2.3-0.9 4.98-2.27 7.57-3.88 1.48-0.92 2.92-1.92 4.2-2.96 2.64-2.14 5.48-4.5 7.31-7.31 1.61-2.476 2.15-4.867 2.72-6.86 1.62-5.636 3.15-10.596 4.16-15.041 1.15-5.082 1.93-9.231 2.28-12.648 0.62-6.118-0.02-9.688-1.43-11.697z"/>
				</g>
				<path id="path223" fill="#dfe5ff" d="m129.05 54.422c-3.75 1.024-11.37 14.328-17.18 28.127-5.82 13.798-9.82 28.091-6.32 31.091s9.58 0.59 15.24-3.87c5.66-4.45 10.91-10.952 12.76-16.13 4.44-12.386 6.72-21.121 7.55-27.235s0.22-9.606-1.12-11.504c-2.67-3.795-8.23-1.214-10.93-0.479z"/>
			</g><g id="Ebene_4" transform="matrix(.95499 0 0 .95499 5.325 7.9875)">
				<g id="g226">
					<path id="path228" fill="#bfbfbf" d="m121.5 1.9116c0.36-0.2373 24.91-0.4746 27.4-0.1186 2.5 0.3559 16.37-1.5425 16.61 1.8979 0.09 1.3174 0.29 5.5098-0.95 9.4901-1.99 6.415-5.87 13.4-6.17 15.303-0.47 3.084 2.5 14.709 4.99 17.912 2.49 3.204 5.45 8.186 5.45 8.186l0.83 1.236h-54.25c0.47 0 12.02-19.505 12.02-19.505s-2.01-14.116-1.9-14.591c0.12-0.474-5.81-8.897-5.93-9.49s0.6-8.897 0.6-8.897l1.3-1.4234z"/>
					<path id="path230" fill="#c0c0c0" d="m148.66 1.8057c2.46 0.3505 16.23-1.5298 16.46 1.8574 0.09 1.2973 0.29 5.4927-0.92 9.5029-1.96 6.398-5.78 13.377-6.07 15.339-0.47 3.122 2.45 14.66 4.91 17.887 2.46 3.212 5.38 8.165 5.38 8.19 0.01 0.012 0.83 1.236 0.83 1.236h-53.64c0.35-0.135 5.63-8.818 9.05-14.561 1.64-2.762 2.86-4.824 2.86-4.85 0.01-0.036-1.98-13.987-1.86-14.507 0.12-0.503-5.71-8.832-5.83-9.451-0.12-0.614 0.59-8.8191 0.59-8.845 0-0.0063 1.28-1.4145 1.28-1.4209 0.1-0.085 2.14-0.1519 5.06-0.2353 7.32-0.209 20.15-0.3931 21.9-0.1421z"/>
					<path id="path232" fill="#c1c1c1" d="m148.42 1.8188c2.41 0.3453 16.08-1.518 16.31 1.8169 0.09 1.2769 0.3 5.4786-0.9 9.5143-1.9 6.389-5.68 13.356-5.97 15.377-0.47 3.16 2.41 14.614 4.84 17.861 2.42 3.226 5.31 8.145 5.31 8.195 0.01 0.024 0.81 1.235 0.81 1.235h-53.01c0.39-0.271 5.58-8.78 8.97-14.488 1.63-2.729 2.82-4.778 2.83-4.829 0.01-0.073-1.94-13.856-1.82-14.423 0.12-0.531-5.62-8.768-5.73-9.413-0.12-0.634 0.58-8.7402 0.58-8.7924 0-0.0132 1.26-1.4053 1.26-1.4175 0.1-0.1026 2.11-0.169 4.98-0.2813 7.21-0.2812 19.81-0.602 21.54-0.355z"/>
					<path id="path234" fill="#c2c2c2" d="m148.18 1.8315c2.37 0.3399 15.93-1.5053 16.16 1.7764 0.08 1.2568 0.31 5.4634-0.87 9.5271-1.86 6.375-5.58 13.335-5.87 15.414-0.46 3.198 2.36 14.565 4.77 17.834 2.37 3.238 5.23 8.125 5.24 8.2 0 0.036 0.79 1.235 0.79 1.235h-52.39c0.43-0.406 5.54-8.742 8.89-14.416 1.61-2.694 2.79-4.731 2.8-4.807 0.01-0.11-1.91-13.726-1.78-14.338 0.12-0.559-5.53-8.703-5.64-9.375-0.11-0.655 0.57-8.6623 0.58-8.7404 0-0.0195 1.24-1.3965 1.24-1.415 0.1-0.1197 2.08-0.1856 4.9-0.3272 7.1-0.355 19.48-0.8105 21.18-0.5679z"/>
					<path id="path236" fill="#c3c3c3" d="m147.94 1.8452c2.34 0.334 15.78-1.4936 16.01 1.7349 0.08 1.2363 0.32 5.4477-0.85 9.5389-1.81 6.362-5.47 13.315-5.77 15.452-0.45 3.235 2.33 14.517 4.7 17.807 2.34 3.249 5.15 8.105 5.17 8.205 0 0.048 0.79 1.235 0.79 1.235h-51.77c0.46-0.542 5.48-8.712 8.81-14.343 1.57-2.665 2.74-4.684 2.76-4.786 0.01-0.147-1.87-13.596-1.74-14.254 0.12-0.587-5.43-8.639-5.54-9.336-0.11-0.676 0.57-8.5848 0.57-8.6888 0-0.0259 1.22-1.3868 1.22-1.4117 0.1-0.1372 2.05-0.2031 4.82-0.3735 6.99-0.4287 19.15-1.019 20.82-0.7798z"/>
					<path id="path238" fill="#c4c4c4" d="m147.7 1.8579c2.3 0.3286 15.64-1.4805 15.86 1.6953 0.08 1.2158 0.32 5.4317-0.82 9.5508-1.77 6.348-5.38 13.293-5.68 15.489-0.44 3.272 2.29 14.468 4.63 17.781 2.3 3.259 5.08 8.084 5.1 8.209 0 0.06 0.78 1.235 0.78 1.235h-51.15c0.5-0.677 5.43-8.676 8.73-14.271 1.55-2.632 2.71-4.637 2.72-4.764 0.03-0.184-1.82-13.466-1.69-14.17 0.12-0.615-5.34-8.574-5.45-9.297-0.1-0.697 0.56-8.5064 0.57-8.6368 0-0.0327 1.2-1.3784 1.2-1.4087 0.1-0.1548 2.02-0.2202 4.75-0.4194 6.87-0.5015 18.8-1.2285 20.45-0.9932z"/>
					<path id="path240" fill="#c5c5c5" d="m147.45 1.8706c2.26 0.3232 15.5-1.4683 15.71 1.6548 0.09 1.1958 0.34 5.415-0.79 9.5636-1.73 6.333-5.28 13.271-5.57 15.525-0.44 3.31 2.24 14.42 4.55 17.756 2.27 3.27 5.01 8.064 5.03 8.213 0.01 0.073 0.77 1.235 0.77 1.235h-50.53c0.53-0.813 5.39-8.64 8.65-14.198 1.53-2.599 2.67-4.591 2.69-4.743 0.03-0.22-1.79-13.335-1.65-14.086 0.11-0.644-5.25-8.509-5.35-9.259-0.1-0.718 0.55-8.428 0.56-8.5842 0-0.0391 1.18-1.3692 1.18-1.4058 0.1-0.1719 1.99-0.2373 4.67-0.4653 6.77-0.5752 18.47-1.4375 20.08-1.2061z"/>
					<path id="path242" fill="#c6c6c6" d="m147.21 1.8838c2.22 0.3174 15.35-1.4561 15.56 1.6138 0.08 1.1757 0.35 5.3994-0.77 9.5754-1.68 6.32-5.17 13.25-5.47 15.563-0.43 3.347 2.2 14.37 4.49 17.729 2.22 3.281 4.93 8.044 4.95 8.218 0.01 0.085 0.76 1.235 0.76 1.235h-49.91c0.57-0.948 5.34-8.604 8.58-14.126 1.5-2.566 2.63-4.544 2.65-4.722 0.03-0.256-1.75-13.204-1.61-14 0.11-0.672-5.16-8.445-5.25-9.22-0.1-0.74 0.54-8.3511 0.55-8.5332 0-0.0459 1.16-1.3599 1.17-1.4028 0.09-0.1895 1.95-0.2544 4.58-0.5113 6.67-0.6494 18.13-1.6465 19.72-1.4189z"/>
					<path id="path244" fill="#c7c7c7" d="m146.97 1.8965c2.18 0.312 15.2-1.4434 15.41 1.5737 0.08 1.1553 0.35 5.3833-0.74 9.5878-1.64 6.305-5.08 13.228-5.38 15.6-0.42 3.385 2.17 14.321 4.42 17.702 2.19 3.292 4.86 8.024 4.88 8.223 0.01 0.097 0.75 1.235 0.75 1.235h-49.28c0.6-1.084 5.29-8.568 8.49-14.053 1.48-2.533 2.6-4.497 2.62-4.701 0.03-0.293-1.71-13.074-1.57-13.916 0.11-0.7-5.06-8.38-5.16-9.182-0.09-0.759 0.54-8.2726 0.55-8.4806 0-0.0523 1.14-1.3511 1.15-1.4 0.09-0.2065 1.91-0.2714 4.5-0.5571 6.56-0.7231 17.8-1.8554 19.36-1.6318z"/>
					<path id="path246" fill="#c8c8c8" d="m146.73 1.9097c2.15 0.3066 15.06-1.4312 15.26 1.5327 0.08 1.1347 0.36 5.3672-0.72 9.5996-1.59 6.291-4.97 13.207-5.27 15.638-0.42 3.422 2.12 14.272 4.34 17.675 2.16 3.303 4.78 8.005 4.81 8.228 0.01 0.109 0.74 1.235 0.74 1.235h-48.66c0.64-1.219 5.24-8.532 8.42-13.981 1.45-2.5 2.55-4.45 2.58-4.679 0.03-0.33-1.68-12.944-1.53-13.832 0.11-0.727-4.97-8.315-5.06-9.143-0.09-0.781 0.53-8.1942 0.54-8.4286 0-0.0586 1.12-1.3418 1.13-1.397 0.09-0.2241 1.89-0.2895 4.43-0.6035 6.45-0.7974 17.45-2.0635 18.99-1.8442z"/>
					<path id="path248" fill="#c9c9c9" d="m146.49 1.9224c2.1 0.3012 14.91-1.419 15.11 1.4922 0.08 1.1147 0.36 5.3505-0.69 9.6124-1.56 6.276-4.88 13.185-5.18 15.674-0.42 3.46 2.08 14.224 4.27 17.65 2.12 3.314 4.71 7.984 4.74 8.232 0.01 0.122 0.73 1.235 0.73 1.235h-48.04c0.67-1.355 5.2-8.496 8.34-13.908 1.43-2.467 2.52-4.404 2.55-4.658 0.04-0.366-1.64-12.813-1.49-13.748 0.11-0.755-4.88-8.25-4.97-9.105-0.08-0.801 0.53-8.1153 0.54-8.3756 0-0.0654 1.09-1.3339 1.11-1.3945 0.04-0.2529 1.86-0.3071 4.35-0.6489 6.35-0.8726 17.12-2.273 18.63-2.0576z"/>
					<path id="path250" fill="#cacaca" d="m146.25 1.9355c2.06 0.2955 14.76-1.4067 14.96 1.4517 0.07 1.0942 0.37 5.3345-0.67 9.6248-1.51 6.261-4.78 13.164-5.08 15.711-0.41 3.497 2.04 14.174 4.21 17.624 2.08 3.323 4.63 7.964 4.66 8.236 0.02 0.134 0.72 1.235 0.72 1.235h-47.42c0.71-1.49 5.16-8.46 8.26-13.836 1.41-2.434 2.48-4.357 2.51-4.636 0.05-0.404-1.59-12.683-1.45-13.664 0.12-0.784-4.77-8.185-4.86-9.065-0.08-0.823 0.52-8.0389 0.53-8.325 0-0.0718 1.08-1.3252 1.09-1.3916 0.05-0.2686 1.83-0.3252 4.27-0.6948 6.25-0.9468 16.78-2.482 18.27-2.2701z"/>
					<path id="path252" fill="#cbcbcb" d="m146 1.9487c2.03 0.2901 14.62-1.3945 14.82 1.4107 0.07 1.0742 0.38 5.3178-0.64 9.6366-1.48 6.246-4.68 13.143-4.98 15.749-0.41 3.534 2 14.124 4.13 17.597 2.05 3.333 4.56 7.944 4.59 8.242 0.02 0.145 0.71 1.234 0.71 1.234h-46.79c0.74-1.626 5.1-8.424 8.18-13.763 1.38-2.402 2.44-4.31 2.47-4.615 0.05-0.44-1.55-12.553-1.41-13.579 0.12-0.812-4.68-8.121-4.76-9.028-0.08-0.843 0.51-7.9595 0.52-8.272 0-0.0781 1.05-1.3159 1.07-1.3886 0.05-0.2857 1.8-0.3438 4.19-0.7412 6.16-1.023 16.45-2.6905 17.9-2.4825z"/>
					<path id="path254" fill="#ccc" d="m145.76 1.9614c1.99 0.2847 14.48-1.3818 14.66 1.3701 0.08 1.0542 0.39 5.3013-0.61 9.6485-1.43 6.231-4.58 13.122-4.88 15.786-0.4 3.572 1.96 14.075 4.06 17.571 2.01 3.344 4.49 7.924 4.52 8.246 0.02 0.158 0.7 1.235 0.7 1.235h-46.17c0.78-1.761 5.06-8.387 8.1-13.691 1.36-2.368 2.4-4.263 2.44-4.593 0.05-0.477-1.52-12.423-1.37-13.495 0.12-0.84-4.59-8.056-4.67-8.989-0.07-0.863 0.51-7.882 0.52-8.2204 0-0.085 1.03-1.3067 1.05-1.3853 0.05-0.3022 1.77-0.3623 4.11-0.7871 6.06-1.0981 16.12-2.8999 17.54-2.6958z"/>
					<path id="path256" fill="#cdcdcd" d="m145.52 1.9746c1.95 0.2793 14.33-1.3701 14.51 1.3296 0.07 1.0337 0.4 5.2837-0.58 9.6608-1.39 6.216-4.49 13.1-4.78 15.823-0.4 3.609 1.91 14.025 3.98 17.545 1.98 3.354 4.41 7.903 4.45 8.251 0.02 0.17 0.69 1.234 0.69 1.234h-45.55c0.82-1.897 5.01-8.352 8.02-13.618 1.34-2.335 2.37-4.217 2.41-4.572 0.06-0.514-1.48-12.293-1.33-13.411 0.12-0.868-4.5-7.991-4.57-8.95-0.07-0.885 0.5-7.8041 0.51-8.1684 0-0.0913 1.02-1.2978 1.03-1.3823 0.05-0.3188 1.74-0.3818 4.04-0.8335 5.96-1.1748 15.77-3.1084 17.17-2.9082z"/>
					<path id="path258" fill="#cecece" d="m145.28 1.9873c1.91 0.2739 14.18-1.3569 14.36 1.2896 0.07 1.0131 0.4 5.2666-0.56 9.6731-1.35 6.2-4.38 13.078-4.68 15.86-0.39 3.647 1.88 13.976 3.92 17.519 1.93 3.363 4.33 7.882 4.38 8.255 0.02 0.182 0.67 1.234 0.67 1.234h-44.93c0.85-2.032 4.97-8.314 7.95-13.546 1.31-2.301 2.32-4.169 2.37-4.55 0.06-0.551-1.44-12.161-1.29-13.327 0.12-0.895-4.4-7.926-4.48-8.912-0.06-0.904 0.5-7.7252 0.51-8.1158 0-0.0982 1-1.2886 1.01-1.3794 0.05-0.3359 1.72-0.4004 3.96-0.8789 5.87-1.2525 15.44-3.3174 16.81-3.1216z"/>
					<path id="path260" fill="#cfcfcf" d="m145.04 2c1.87 0.2686 14.03-1.3442 14.21 1.249 0.07 0.9932 0.41 5.2505-0.53 9.686-1.32 6.184-4.29 13.056-4.59 15.897-0.39 3.684 1.84 13.925 3.85 17.492 1.9 3.373 4.26 7.863 4.31 8.26 0.02 0.194 0.66 1.234 0.66 1.234h-44.3c0.88-2.168 4.91-8.278 7.86-13.473 1.29-2.269 2.29-4.123 2.33-4.53 0.07-0.586-1.4-12.031-1.24-13.242 0.12-0.924-4.31-7.861-4.38-8.872-0.06-0.927 0.49-7.6483 0.5-8.0653 0-0.104 0.98-1.2793 0.99-1.3764 0.04-0.3526 1.69-0.4204 3.88-0.9253 5.78-1.3301 15.1-3.5259 16.45-3.334z"/>
					<path id="path262" fill="#d0d0d0" d="m144.79 2.0132c1.84 0.2632 13.89-1.332 14.07 1.2085 0.07 0.9726 0.41 5.2329-0.51 9.6973-1.27 6.169-4.18 13.035-4.48 15.934-0.39 3.722 1.79 13.876 3.77 17.466 1.87 3.383 4.19 7.843 4.24 8.265 0.02 0.207 0.65 1.234 0.65 1.234h-43.68c0.92-2.303 4.87-8.242 7.79-13.401 1.26-2.235 2.24-4.076 2.29-4.508 0.07-0.623-1.36-11.9-1.2-13.157 0.12-0.952-4.22-7.797-4.28-8.835-0.06-0.947 0.48-7.5698 0.49-8.0127 0-0.1104 0.96-1.27 0.97-1.3731 0.05-0.3691 1.66-0.4414 3.8-0.9716 5.69-1.4092 14.77-3.7344 16.08-3.5464z"/>
					<path id="path264" fill="#d1d1d1" d="m144.55 2.0264c1.8 0.2573 13.75-1.3204 13.92 1.1674 0.06 0.9527 0.41 5.2159-0.49 9.7102-1.23 6.153-4.08 13.013-4.38 15.971-0.38 3.758 1.76 13.826 3.7 17.44 1.83 3.393 4.12 7.822 4.17 8.269 0.02 0.219 0.64 1.234 0.64 1.234h-43.06c0.96-2.438 4.83-8.206 7.71-13.328 1.24-2.202 2.21-4.03 2.26-4.487 0.08-0.66-1.32-11.77-1.16-13.073 0.12-0.98-4.12-7.732-4.19-8.796-0.05-0.968 0.48-7.4914 0.49-7.9607 0-0.1171 0.94-1.2607 0.95-1.3706 0.04-0.3857 1.63-0.4619 3.72-1.0171 5.61-1.4882 14.43-3.9438 15.72-3.7592z"/>
					<path id="path266" fill="#d2d2d2" d="m144.31 1.9888c1.76 0.2519 13.6-1.3076 13.77 1.1269 0.06 0.9326 0.42 5.1983-0.46 9.7213-1.19 6.137-3.99 12.993-4.29 16.009-0.37 3.796 1.72 13.777 3.64 17.414 1.79 3.402 4.03 7.802 4.09 8.275 0.02 0.23 0.63 1.233 0.63 1.233h-42.44c0.99-2.574 4.78-8.17 7.63-13.257 1.22-2.168 2.17-3.982 2.23-4.465 0.08-0.696-1.28-11.639-1.12-12.989 0.11-1.008-4.03-7.667-4.09-8.757-0.06-0.989 0.46-7.4128 0.48-7.9079 0-0.124 0.92-1.252 0.93-1.3682 0.05-0.4023 1.61-0.4834 3.65-1.0635 5.51-1.5683 14.09-4.1523 15.35-3.9716z"/>
					<path id="path268" fill="#d3d3d3" d="m144.07 1.9995c1.72 0.2461 13.45-1.2954 13.62 1.0864 0.06 0.9121 0.42 5.1817-0.44 9.7341-1.15 6.12-3.88 12.971-4.18 16.045-0.38 3.834 1.67 13.726 3.56 17.388 1.76 3.411 3.96 7.782 4.02 8.279 0.03 0.243 0.62 1.234 0.62 1.234h-41.81c1.02-2.71 4.73-8.134 7.55-13.184 1.19-2.136 2.13-3.936 2.19-4.444 0.08-0.733-1.25-11.509-1.08-12.905 0.11-1.036-3.94-7.602-4-8.718-0.05-1.01 0.46-7.3358 0.48-7.8568 0-0.1299 0.9-1.2427 0.91-1.3647 0.05-0.4195 1.58-0.5059 3.57-1.1094 5.43-1.6504 13.76-4.3613 14.99-4.1846z"/>
					<path id="path270" fill="#d4d4d4" d="m143.83 2.0098c1.68 0.2407 13.3-1.2828 13.46 1.0459 0.06 0.8916 0.44 5.164-0.4 9.7463-1.12 6.105-3.79 12.949-4.09 16.083-0.37 3.87 1.64 13.675 3.49 17.361 1.72 3.421 3.89 7.762 3.95 8.283 0.03 0.255 0.61 1.234 0.61 1.234h-41.19c1.06-2.846 4.68-8.096 7.47-13.111 1.17-2.102 2.09-3.889 2.15-4.423 0.09-0.77-1.2-11.378-1.04-12.82 0.12-1.064-3.84-7.536-3.89-8.68-0.05-1.03 0.45-7.2573 0.47-7.8042 0-0.1367 0.88-1.2339 0.89-1.3618 0.04-0.437 1.56-0.5288 3.49-1.1553 5.35-1.7334 13.42-4.5703 14.63-4.3979z"/>
					<path id="path272" fill="#d5d5d5" d="m143.58 2.021c1.65 0.2353 13.17-1.271 13.32 1.0049 0.06 0.8716 0.44 5.1465-0.38 9.7591-1.08 6.088-3.69 12.927-3.99 16.12-0.36 3.907 1.6 13.625 3.42 17.335 1.69 3.429 3.82 7.741 3.88 8.288 0.03 0.267 0.6 1.233 0.6 1.233h-40.57c1.1-2.981 4.64-8.06 7.39-13.038 1.15-2.069 2.06-3.843 2.12-4.401 0.1-0.807-1.16-11.249-1-12.737 0.12-1.091-3.74-7.472-3.79-8.641-0.05-1.05 0.44-7.1794 0.46-7.7526 0-0.1431 0.86-1.2241 0.87-1.3584 0.05-0.4541 1.53-0.5527 3.41-1.2017 5.27-1.8173 13.09-4.7788 14.26-4.6103z"/>
					<path id="path274" fill="#d6d6d6" d="m143.34 2.0308c1.61 0.2304 13.02-1.2578 13.17 0.9648 0.06 0.8516 0.44 5.1289-0.35 9.7704-1.04 6.072-3.6 12.906-3.89 16.157-0.36 3.946 1.56 13.575 3.35 17.31 1.65 3.437 3.74 7.721 3.8 8.292 0.03 0.279 0.59 1.233 0.59 1.233h-39.95c1.14-3.116 4.59-8.023 7.32-12.966 1.12-2.036 2.01-3.795 2.08-4.379 0.1-0.844-1.12-11.119-0.96-12.652 0.12-1.12-3.65-7.407-3.7-8.603-0.04-1.072 0.44-7.101 0.46-7.7005 0-0.1494 0.84-1.2158 0.85-1.3554 0.05-0.4708 1.51-0.5772 3.34-1.2471 5.19-1.9024 12.74-4.9883 13.89-4.8242z"/>
					<path id="path276" fill="#d7d7d7" d="m143.1 2.0415c1.57 0.2246 12.87-1.2456 13.02 0.9243 0.06 0.8311 0.45 5.1118-0.33 9.7832-1 6.055-3.5 12.883-3.79 16.194-0.36 3.982 1.52 13.523 3.28 17.283 1.61 3.446 3.66 7.7 3.73 8.297 0.03 0.291 0.58 1.233 0.58 1.233h-39.32c1.16-3.252 4.54-7.987 7.23-12.894 1.1-2.002 1.98-3.749 2.05-4.359 0.1-0.879-1.09-10.986-0.92-12.566 0.12-1.148-3.56-7.343-3.6-8.564-0.04-1.093 0.43-7.024 0.45-7.6494 0-0.1562 0.82-1.206 0.83-1.3525 0.05-0.4883 1.39-0.9238 3.26-1.2935 4.68-2.854 12.41-5.1967 13.53-5.0361z"/>
					<path id="path278" fill="#d8d8d8" d="m142.86 2.0522c1.53 0.2193 12.72-1.2334 12.87 0.8838 0.06 0.8111 0.45 5.0938-0.3 9.795-0.97 6.039-3.4 12.862-3.7 16.231-0.35 4.02 1.48 13.474 3.21 17.257 1.58 3.456 3.59 7.681 3.66 8.302 0.04 0.304 0.57 1.233 0.57 1.233h-38.7c1.2-3.387 4.5-7.95 7.16-12.821 1.07-1.969 1.93-3.703 2.01-4.337 0.1-0.917-1.05-10.857-0.88-12.484 0.12-1.175-3.47-7.277-3.51-8.525-0.03-1.113 0.43-6.945 0.45-7.5963 0-0.1626 0.8-1.1972 0.81-1.3501 0.05-0.5049 1.36-0.9565 3.18-1.3393 4.57-2.9673 12.07-5.4058 13.17-5.2491z"/>
					<path id="path280" fill="#d9d9d9" d="m142.62 2.064c1.49 0.2133 12.58-1.2212 12.72 0.8432 0.05 0.7906 0.45 5.0757-0.28 9.8068-0.93 6.023-3.3 12.842-3.59 16.268-0.35 4.057 1.44 13.423 3.14 17.23 1.54 3.466 3.51 7.662 3.58 8.308 0.04 0.315 0.56 1.232 0.56 1.232h-38.08c1.24-3.523 4.45-7.913 7.08-12.748 1.05-1.936 1.9-3.656 1.98-4.316 0.11-0.954-1.01-10.726-0.84-12.398 0.12-1.205-3.37-7.214-3.41-8.488-0.03-1.133 0.42-6.867 0.44-7.544 0-0.17 0.78-1.1887 0.79-1.3474 0.05-0.5219 1.32-0.9892 3.1-1.3847 4.46-3.0811 11.74-5.6153 12.81-5.4619z"/>
					<path id="path282" fill="#dadada" d="m142.38 2.0747c1.45 0.208 12.43-1.209 12.57 0.8023 0.05 0.77 0.46 5.0581-0.25 9.82-0.9 6.005-3.2 12.819-3.5 16.305-0.34 4.094 1.4 13.372 3.07 17.204 1.51 3.474 3.44 7.641 3.52 8.312 0.03 0.327 0.54 1.232 0.54 1.232h-37.46c1.28-3.658 4.41-7.876 7-12.676 1.03-1.901 1.87-3.609 1.94-4.294 0.12-0.99-0.96-10.596-0.79-12.315 0.12-1.232-3.28-7.148-3.31-8.448-0.03-1.155 0.41-6.789 0.43-7.493 0-0.175 0.76-1.1788 0.78-1.3438 0.04-0.5391 1.28-1.0225 3.01-1.4312 4.35-3.1938 11.4-5.8232 12.45-5.6743z"/>
					<path id="path284" fill="#dbdbdb" d="m142.13 2.0854c1.42 0.2027 12.29-1.1962 12.43 0.7618 0.05 0.75 0.46 5.0405-0.23 9.8318-0.86 5.988-3.1 12.798-3.4 16.343-0.34 4.131 1.37 13.32 3 17.177 1.48 3.483 3.36 7.621 3.45 8.317 0.04 0.339 0.53 1.232 0.53 1.232h-36.83c1.3-3.794 4.36-7.84 6.92-12.604 1-1.868 1.82-3.561 1.9-4.272 0.12-1.027-0.93-10.466-0.75-12.23 0.12-1.261-3.19-7.084-3.22-8.411-0.02-1.175 0.41-6.71 0.43-7.439 0-0.183 0.74-1.1709 0.76-1.3423 0.04-0.5561 1.25-1.0547 2.94-1.477 4.23-3.3072 11.06-6.0323 12.07-5.8873z"/>
					<path id="path286" fill="#dcdcdc" d="m141.89 2.0967c1.38 0.1972 12.14-1.1846 12.27 0.7212 0.05 0.7295 0.47 5.0224-0.2 9.8441-0.82 5.972-3 12.776-3.29 16.38-0.34 4.168 1.32 13.269 2.92 17.151 1.44 3.491 3.29 7.6 3.38 8.321 0.04 0.352 0.52 1.232 0.52 1.232h-36.21c1.34-3.929 4.31-7.802 6.84-12.531 0.98-1.834 1.79-3.515 1.87-4.252 0.12-1.063-0.89-10.335-0.71-12.146 0.12-1.287-3.1-7.018-3.12-8.371-0.02-1.196 0.4-6.633 0.42-7.388 0-0.189 0.72-1.161 0.74-1.3378 0.04-0.5737 1.22-1.0889 2.86-1.5234 4.11-3.4209 10.73-6.2412 11.71-6.1001z"/>
					<path id="path288" fill="#ddd" d="m141.65 2.1074c1.34 0.1919 11.99-1.1718 12.12 0.6807 0.05 0.7095 0.47 5.0049-0.17 9.8569-0.79 5.954-2.91 12.754-3.2 16.417-0.33 4.205 1.29 13.218 2.86 17.125 1.4 3.499 3.21 7.579 3.3 8.325 0.04 0.364 0.51 1.232 0.51 1.232h-35.59c1.38-4.064 4.27-7.765 6.77-12.459 0.95-1.801 1.74-3.468 1.83-4.23 0.13-1.1-0.85-10.204-0.67-12.061 0.12-1.316-3-6.954-3.02-8.333-0.02-1.217 0.39-6.555 0.41-7.336 0-0.195 0.7-1.152 0.72-1.3353 0.04-0.5908 1.19-1.121 2.78-1.5693 4-3.5342 10.39-6.4502 11.35-6.313z"/>
					<path id="path290" fill="#dedede" d="m141.41 2.1182c1.3 0.1865 11.85-1.1592 11.97 0.6406 0.05 0.689 0.47 4.9868-0.15 9.8682-0.75 5.938-2.81 12.733-3.1 16.454-0.33 4.243 1.25 13.168 2.79 17.099 1.37 3.508 3.14 7.56 3.23 8.33 0.04 0.376 0.5 1.232 0.5 1.232h-34.97c1.42-4.2 4.22-7.729 6.69-12.386 0.93-1.768 1.71-3.421 1.8-4.209 0.13-1.136-0.81-10.074-0.64-11.977 0.13-1.344-2.9-6.889-2.92-8.294-0.02-1.238 0.39-6.477 0.41-7.284 0-0.202 0.68-1.144 0.7-1.333 0.03-0.6076 1.15-1.153 2.7-1.615 3.89-3.6474 10.06-6.6591 10.99-6.5258z"/>
					<path id="path292" fill="#dfdfdf" d="m141.17 2.1294c1.26 0.1807 11.7-1.1465 11.82 0.5996 0.05 0.6689 0.47 4.9697-0.12 9.881-0.72 5.921-2.71 12.711-3 16.491-0.33 4.28 1.21 13.116 2.71 17.072 1.34 3.517 3.07 7.54 3.16 8.335 0.04 0.389 0.49 1.233 0.49 1.233h-34.34c1.44-4.336 4.17-7.693 6.6-12.315 0.91-1.733 1.67-3.374 1.77-4.186 0.13-1.174-0.77-9.945-0.6-11.893 0.13-1.372-2.81-6.825-2.82-8.256-0.01-1.258 0.38-6.399 0.4-7.232 0.01-0.208 0.67-1.134 0.68-1.329 0.04-0.6252 1.12-1.1877 2.63-1.6613 3.77-3.7608 9.71-6.8682 10.62-6.7393z"/>
					<path id="path294" fill="#dfdfdf" d="m140.92 2.1411c1.23 0.1758 11.56-1.1348 11.68 0.5596 0.04 0.6484 0.47 4.9512-0.1 9.8923-0.68 5.905-2.61 12.69-2.9 16.529-0.32 4.316 1.17 13.065 2.64 17.045 1.31 3.526 2.99 7.52 3.09 8.34 0.05 0.401 0.48 1.232 0.48 1.232h-33.72c1.48-4.471 4.13-7.655 6.53-12.241 0.88-1.701 1.63-3.329 1.72-4.166 0.14-1.21-0.73-9.814-0.55-11.809 0.13-1.399-2.72-6.759-2.73-8.217-0.01-1.279 0.37-6.32 0.4-7.18 0-0.214 0.64-1.125 0.66-1.327 0.04-0.641 1.09-1.2184 2.55-1.7067 3.66-3.874 9.38-7.0762 10.25-6.9512z"/>
					<path id="path296" fill="#e0e0e0" d="m140.68 2.1523c1.19 0.17 11.41-1.122 11.53 0.5186 0.04 0.6284 0.48 4.9331-0.07 9.9051-0.65 5.887-2.52 12.668-2.8 16.566-0.33 4.354 1.13 13.013 2.57 17.019 1.27 3.533 2.91 7.5 3.01 8.345 0.05 0.412 0.47 1.231 0.47 1.231h-33.1c1.52-4.607 4.09-7.617 6.45-12.169 0.87-1.666 1.59-3.281 1.69-4.144 0.15-1.247-0.69-9.683-0.51-11.724 0.13-1.428-2.62-6.695-2.63-8.179-0.01-1.3 0.36-6.242 0.39-7.127 0.01-0.222 0.63-1.117 0.64-1.324 0.04-0.66 1.06-1.2526 2.47-1.7536 3.54-3.9873 9.04-7.2852 9.89-7.1641z"/>
					<path id="path298" fill="#e1e1e1" d="m140.44 2.1641c1.15 0.164 11.27-1.1099 11.38 0.478 0.04 0.6079 0.48 4.915-0.05 9.9169-0.61 5.87-2.41 12.647-2.7 16.603-0.32 4.391 1.09 12.962 2.5 16.993 1.23 3.542 2.84 7.479 2.94 8.349 0.05 0.425 0.46 1.232 0.46 1.232h-32.48c1.56-4.742 4.04-7.581 6.37-12.097 0.85-1.632 1.56-3.234 1.66-4.123 0.15-1.283-0.65-9.552-0.47-11.64 0.13-1.455-2.53-6.629-2.53-8.139-0.01-1.321 0.35-6.165 0.38-7.076 0.01-0.228 0.61-1.107 0.62-1.321 0.04-0.676 1.02-1.285 2.39-1.799 3.43-4.1006 8.71-7.4946 9.53-7.3769z"/>
					<path id="path300" fill="#e2e2e2" d="m140.2 2.1758c1.11 0.1587 11.12-1.0977 11.22 0.4375 0.04 0.5879 0.49 4.897-0.01 9.9287-0.59 5.854-2.32 12.625-2.61 16.641-0.31 4.428 1.06 12.91 2.43 16.967 1.2 3.55 2.77 7.459 2.87 8.353 0.05 0.437 0.45 1.232 0.45 1.232h-31.85c1.59-4.878 3.99-7.543 6.29-12.024 0.82-1.598 1.51-3.188 1.62-4.102 0.15-1.32-0.61-9.421-0.43-11.555 0.13-1.484-2.44-6.565-2.44-8.101 0-1.342 0.35-6.087 0.38-7.024 0-0.235 0.59-1.098 0.6-1.318 0.04-0.694 0.99-1.319 2.31-1.8454 3.32-4.2138 8.37-7.7036 9.17-7.5898z"/>
					<path id="path302" fill="#e3e3e3" d="m139.96 2.187c1.07 0.1533 10.97-1.0854 11.07 0.3965 0.04 0.5674 0.49 4.8794 0.01 9.9415-0.55 5.837-2.22 12.603-2.5 16.677-0.31 4.466 1.02 12.86 2.35 16.942 1.17 3.558 2.7 7.438 2.8 8.357 0.05 0.45 0.44 1.232 0.44 1.232h-31.23c1.62-5.013 3.95-7.505 6.21-11.952 0.8-1.564 1.48-3.14 1.59-4.08 0.15-1.357-0.58-9.291-0.39-11.471 0.13-1.512-2.35-6.501-2.34-8.063 0-1.362 0.34-6.008 0.37-6.972 0.01-0.24 0.57-1.089 0.58-1.314 0.04-0.712 0.96-1.351 2.24-1.8917 3.2-4.3272 8.03-7.9122 8.8-7.8023z"/>
					<path id="path304" fill="#e4e4e4" d="m139.72 2.1987c1.03 0.1475 10.82-1.0732 10.92 0.356 0.04 0.5474 0.49 4.8613 0.04 9.9543-0.52 5.818-2.13 12.581-2.41 16.714-0.31 4.502 0.98 12.808 2.29 16.915 1.13 3.566 2.61 7.418 2.72 8.362 0.06 0.461 0.43 1.231 0.43 1.231h-30.61c1.66-5.148 3.9-7.467 6.14-11.879 0.77-1.53 1.43-3.094 1.55-4.059 0.16-1.393-0.54-9.16-0.35-11.386 0.13-1.54-2.25-6.436-2.25-8.024 0.01-1.384 0.34-5.93 0.37-6.92 0.01-0.248 0.55-1.08 0.56-1.312 0.04-0.729 0.93-1.384 2.16-1.937 3.09-4.4406 7.7-8.1212 8.44-8.0153z"/>
					<path id="path306" fill="#e5e5e5" d="m139.47 2.2104c1 0.1426 10.69-1.0605 10.78 0.3155 0.04 0.5273 0.49 4.8432 0.06 9.9661-0.48 5.802-2.02 12.56-2.31 16.751-0.3 4.54 0.95 12.757 2.22 16.889 1.1 3.574 2.54 7.398 2.65 8.368 0.06 0.473 0.42 1.23 0.42 1.23h-29.99c1.7-5.284 3.86-7.43 6.06-11.806 0.75-1.497 1.4-3.048 1.51-4.038 0.17-1.43-0.49-9.03-0.3-11.302 0.13-1.568-2.16-6.371-2.15-7.985 0.01-1.405 0.33-5.853 0.36-6.869 0.01-0.253 0.53-1.07 0.54-1.309 0.04-0.745 0.89-1.416 2.08-1.983 2.97-4.5532 7.36-8.3296 8.07-8.2276z"/>
					<path id="path308" fill="#e6e6e6" d="m139.23 2.2222c0.96 0.1372 10.54-1.0479 10.63 0.2754 0.03 0.5063 0.49 4.8247 0.08 9.9784-0.45 5.784-1.92 12.538-2.2 16.788-0.3 4.577 0.9 12.706 2.14 16.862 1.07 3.583 2.47 7.378 2.58 8.373 0.06 0.485 0.42 1.23 0.42 1.23h-29.37c1.73-5.419 3.81-7.393 5.97-11.734 0.73-1.462 1.36-3 1.48-4.016 0.17-1.467-0.45-8.899-0.26-11.218 0.13-1.595-2.07-6.306-2.05-7.947 0.01-1.425 0.32-5.774 0.35-6.815 0.01-0.261 0.51-1.062 0.52-1.307 0.04-0.762 0.86-1.449 2-2.028 2.86-4.6679 7.03-8.5395 7.71-8.4418z"/>
					<path id="path310" fill="#e7e7e7" d="m138.99 2.2349c0.92 0.1313 10.39-1.0357 10.48 0.2343 0.03 0.4864 0.49 4.8072 0.11 9.9908-0.42 5.768-1.83 12.517-2.11 16.825-0.3 4.615 0.87 12.653 2.08 16.836 1.03 3.591 2.39 7.358 2.51 8.377 0.05 0.498 0.4 1.231 0.4 1.231h-28.75c1.77-5.555 3.77-7.354 5.9-11.662 0.7-1.428 1.32-2.953 1.44-3.994 0.17-1.504-0.42-8.77-0.22-11.134 0.13-1.624-1.97-6.241-1.96-7.908 0.02-1.447 0.32-5.697 0.35-6.764 0.01-0.267 0.49-1.052 0.5-1.303 0.04-0.78 0.83-1.483 1.93-2.075 2.74-4.7811 6.68-8.7484 7.34-8.6541z"/>
					<path id="path312" fill="#e8e8e8" d="m138.75 2.2471c0.88 0.1259 10.24-1.0235 10.33 0.1938 0.03 0.4663 0.48 4.7891 0.13 10.002-0.38 5.751-1.73 12.495-2.01 16.863-0.29 4.652 0.84 12.602 2.01 16.81 1 3.599 2.32 7.338 2.44 8.382 0.05 0.509 0.39 1.23 0.39 1.23h-28.13c1.8-5.69 3.72-7.317 5.82-11.589 0.68-1.394 1.28-2.907 1.41-3.973 0.18-1.541-0.38-8.639-0.19-11.05 0.13-1.652-1.87-6.176-1.85-7.869 0.02-1.467 0.31-5.619 0.34-6.712 0.01-0.274 0.47-1.043 0.48-1.301 0.04-0.797 0.8-1.515 1.85-2.121 2.63-4.8933 6.35-8.9563 6.98-8.8659z"/>
					<path id="path314" fill="#e9e9e9" d="m138.51 2.2588c0.84 0.1206 10.1-1.0108 10.18 0.1533 0.03 0.4458 0.48 4.771 0.16 10.015-0.36 5.734-1.64 12.473-1.91 16.9-0.29 4.689 0.8 12.55 1.93 16.783 0.97 3.607 2.24 7.318 2.37 8.387 0.06 0.522 0.38 1.23 0.38 1.23h-27.51c1.84-5.826 3.68-7.278 5.74-11.517 0.67-1.36 1.25-2.859 1.38-3.951 0.18-1.577-0.34-8.509-0.15-10.966 0.13-1.679-1.78-6.111-1.76-7.831 0.03-1.487 0.31-5.54 0.34-6.659 0.01-0.281 0.45-1.035 0.46-1.298 0.04-0.815 0.77-1.548 1.77-2.167 2.51-5.0069 6.01-9.1651 6.62-9.0792z"/>
					<path id="path316" fill="#eaeaea" d="m138.27 2.272c0.8 0.1147 9.95-0.9991 10.02 0.1128 0.03 0.4253 0.49 4.7529 0.19 10.027-0.32 5.716-1.53 12.451-1.81 16.937-0.29 4.726 0.76 12.499 1.86 16.757 0.94 3.615 2.17 7.297 2.3 8.391 0.06 0.534 0.37 1.23 0.37 1.23h-26.88c1.87-5.962 3.63-7.241 5.66-11.444 0.64-1.326 1.2-2.813 1.33-3.93 0.19-1.614-0.29-8.379-0.1-10.881 0.13-1.708-1.69-6.047-1.66-7.793 0.02-1.508 0.3-5.462 0.33-6.608 0.01-0.286 0.43-1.025 0.44-1.294 0.04-0.832 0.73-1.581 1.69-2.213 2.4-5.1206 5.68-9.3745 6.26-9.292z"/>
					<path id="path318" fill="#ebebeb" d="m138.02 2.2842c0.77 0.1094 9.81-0.9863 9.88 0.0722 0.03 0.4053 0.49 4.7344 0.22 10.04-0.29 5.699-1.44 12.43-1.72 16.974-0.28 4.763 0.73 12.447 1.8 16.731 0.9 3.624 2.09 7.277 2.22 8.395 0.06 0.546 0.36 1.231 0.36 1.231h-26.26c1.91-6.098 3.59-7.202 5.58-11.372 0.62-1.292 1.17-2.767 1.3-3.909 0.19-1.651-0.25-8.248-0.06-10.797 0.13-1.736-1.6-5.982-1.56-7.753 0.02-1.53 0.29-5.384 0.32-6.556 0.01-0.294 0.41-1.016 0.42-1.292 0.04-0.849 0.7-1.613 1.61-2.259 2.29-5.2338 5.35-9.5834 5.89-9.5048z"/>
					<path id="path320" fill="#ececec" d="m137.78 2.2974c0.73 0.104 9.66-0.9742 9.73 0.0312 0.03 0.3853 0.49 4.7173 0.24 10.051-0.26 5.683-1.34 12.409-1.61 17.012-0.28 4.8 0.69 12.396 1.72 16.704 0.87 3.632 2.02 7.258 2.15 8.401 0.06 0.558 0.35 1.23 0.35 1.23h-25.64c1.94-6.233 3.55-7.165 5.51-11.3 0.59-1.257 1.13-2.719 1.26-3.887 0.2-1.687-0.21-8.118-0.02-10.712 0.13-1.765-1.5-5.918-1.47-7.716 0.03-1.55 0.29-5.305 0.32-6.504 0.01-0.299 0.39-1.006 0.4-1.288 0.04-0.866 0.67-1.647 1.54-2.305 2.17-5.347 5-9.7923 5.52-9.7176z"/>
					<path id="path322" fill="#ededed" d="m137.54 2.3101c0.69 0.0986 9.51-0.9615 9.58-0.0088 0.03 0.3647 0.48 4.6987 0.27 10.064-0.23 5.666-1.25 12.387-1.52 17.048-0.28 4.838 0.65 12.345 1.65 16.679 0.84 3.639 1.95 7.237 2.08 8.405 0.07 0.57 0.34 1.23 0.34 1.23h-25.02c1.98-6.369 3.51-7.126 5.43-11.227 0.57-1.224 1.09-2.673 1.23-3.866 0.2-1.724-0.18-7.987 0.02-10.628 0.13-1.792-1.41-5.853-1.37-7.677 0.03-1.571 0.28-5.228 0.31-6.452 0.01-0.306 0.38-0.998 0.39-1.285 0.03-0.884 0.63-1.68 1.45-2.351 2.06-5.4607 4.67-10.001 5.16-9.9309z"/>
					<path id="path324" fill="#eee" d="m137.3 2.3237c0.65 0.0933 9.37-0.9492 9.43-0.0493 0.02 0.3443 0.48 4.6807 0.29 10.076-0.2 5.649-1.14 12.365-1.41 17.086-0.28 4.875 0.61 12.292 1.57 16.652 0.81 3.647 1.87 7.216 2.01 8.409 0.07 0.583 0.33 1.23 0.33 1.23h-24.39c2.01-6.503 3.45-7.087 5.34-11.154 0.55-1.189 1.06-2.626 1.2-3.845 0.2-1.76-0.14-7.856 0.06-10.543 0.13-1.821-1.32-5.789-1.27-7.639 0.03-1.591 0.27-5.15 0.3-6.4 0.01-0.312 0.36-0.988 0.37-1.282 0.03-0.901 0.59-1.713 1.37-2.397 1.94-5.5739 4.33-10.21 4.8-10.143z"/>
					<path id="path326" fill="#efefef" d="m137.06 2.3369c0.61 0.0879 9.22-0.9365 9.28-0.0898 0.02 0.3242 0.48 4.6631 0.32 10.088-0.17 5.632-1.05 12.344-1.32 17.123-0.27 4.912 0.58 12.241 1.51 16.625 0.77 3.656 1.79 7.197 1.93 8.415 0.07 0.595 0.32 1.23 0.32 1.23h-23.77c2.05-6.64 3.42-7.048 5.27-11.082 0.53-1.154 1.01-2.58 1.16-3.824 0.2-1.797-0.1-7.725 0.1-10.459 0.14-1.847-1.23-5.723-1.18-7.6 0.04-1.612 0.27-5.071 0.3-6.347 0.01-0.319 0.34-0.98 0.35-1.28 0.03-0.918 0.56-1.745 1.29-2.443 1.83-5.6867 4-10.419 4.44-10.356z"/>
					<path id="path328" fill="#f0f0f0" d="m136.82 2.3511c0.57 0.082 9.07-0.9248 9.13-0.1309 0.02 0.3042 0.47 4.6455 0.34 10.101-0.14 5.615-0.95 12.322-1.22 17.159-0.27 4.95 0.55 12.19 1.44 16.6 0.74 3.664 1.72 7.176 1.86 8.419 0.07 0.607 0.31 1.23 0.31 1.23h-23.15c2.09-6.775 3.38-7.009 5.19-11.01 0.51-1.12 0.98-2.532 1.12-3.802 0.22-1.834-0.05-7.595 0.15-10.375 0.14-1.875-1.14-5.658-1.08-7.561 0.04-1.633 0.26-4.993 0.29-6.295 0.01-0.326 0.32-0.971 0.33-1.277 0.03-0.936 0.53-1.779 1.21-2.489 1.72-5.8004 3.66-10.628 4.08-10.569z"/>
					<path id="path330" fill="#f1f1f1" d="m136.57 2.3652c0.54 0.0767 8.93-0.9121 8.98-0.1709 0.02 0.2837 0.48 4.6275 0.37 10.113-0.1 5.598-0.85 12.3-1.11 17.196-0.27 4.987 0.5 12.139 1.36 16.574 0.71 3.673 1.65 7.156 1.79 8.423 0.07 0.62 0.3 1.23 0.3 1.23h-22.53c2.12-6.91 3.34-6.969 5.11-10.937 0.49-1.085 0.94-2.486 1.09-3.781 0.22-1.87-0.01-7.464 0.19-10.29 0.13-1.904-1.04-5.594-0.99-7.523 0.04-1.654 0.25-4.915 0.29-6.243 0.01-0.332 0.3-0.962 0.31-1.274 0.03-0.953 0.5-1.811 1.14-2.535 1.6-5.9136 3.32-10.836 3.7-10.782z"/>
					<path id="path332" fill="#f2f2f2" d="m136.33 2.3799c0.5 0.0713 8.79-0.8999 8.83-0.2119 0.02 0.2636 0.48 4.6093 0.4 10.124-0.08 5.583-0.76 12.279-1.02 17.235-0.26 5.023 0.47 12.086 1.29 16.547 0.68 3.68 1.58 7.136 1.72 8.428 0.08 0.631 0.29 1.229 0.29 1.229h-21.9c2.15-7.045 3.29-6.93 5.03-10.864 0.46-1.051 0.9-2.439 1.05-3.759 0.22-1.907 0.03-7.335 0.23-10.206 0.13-1.932-0.95-5.529-0.89-7.485 0.04-1.674 0.24-4.836 0.28-6.191 0.01-0.338 0.28-0.953 0.29-1.271 0.03-0.97 0.47-1.844 1.06-2.58 1.49-6.0278 2.99-11.046 3.34-10.995z"/>
					<path id="path334" fill="#f3f3f3" d="m136.09 2.3945c0.46 0.0659 8.64-0.8872 8.68-0.2519 0.02 0.2431 0.47 4.5913 0.42 10.136-0.04 5.565-0.65 12.258-0.92 17.271-0.26 5.061 0.44 12.036 1.23 16.521 0.64 3.689 1.49 7.116 1.65 8.433 0.07 0.643 0.27 1.229 0.27 1.229h-21.28c2.19-7.181 3.25-6.891 4.95-10.792 0.45-1.016 0.86-2.392 1.02-3.737 0.22-1.944 0.06-7.204 0.26-10.122 0.14-1.96-0.85-5.464-0.79-7.446 0.05-1.695 0.24-4.759 0.28-6.139 0.01-0.345 0.26-0.944 0.27-1.268 0.03-0.988 0.43-1.877 0.98-2.627 1.37-6.1401 2.65-11.254 2.98-11.208z"/>
					<path id="path336" fill="#f4f4f4" d="m135.85 2.4102c0.42 0.06 8.49-0.875 8.53-0.293 0.02 0.2231 0.47 4.5737 0.45 10.149-0.02 5.549-0.57 12.236-0.82 17.309-0.26 5.098 0.4 11.984 1.15 16.494 0.61 3.697 1.42 7.096 1.58 8.438 0.07 0.655 0.26 1.229 0.26 1.229h-20.66c2.23-7.317 3.21-6.851 4.87-10.72 0.43-0.981 0.83-2.345 0.99-3.716 0.22-1.981 0.1-7.073 0.3-10.037 0.14-1.988-0.76-5.4-0.69-7.408 0.05-1.716 0.23-4.68 0.27-6.087 0.01-0.351 0.24-0.935 0.25-1.265 0.03-1.005 0.4-1.91 0.9-2.673 1.26-6.2533 2.32-11.463 2.62-11.42z"/>
					<path id="path338" fill="#f5f5f5" d="m135.61 2.4258c0.38 0.0552 8.34-0.8628 8.38-0.3335 0.01 0.2031 0.46 4.5566 0.47 10.162 0.01 5.532-0.47 12.213-0.72 17.345-0.27 5.135 0.37 11.932 1.08 16.469 0.59 3.705 1.35 7.075 1.51 8.442 0.07 0.668 0.25 1.229 0.25 1.229h-20.04c2.26-7.452 3.17-6.812 4.8-10.647 0.4-0.947 0.78-2.299 0.95-3.695 0.23-2.017 0.14-6.943 0.34-9.954 0.14-2.015-0.66-5.334-0.59-7.368 0.05-1.737 0.22-4.603 0.26-6.035 0.01-0.358 0.22-0.926 0.23-1.262 0.03-1.022 0.37-1.943 0.83-2.719 1.14-6.3671 1.97-11.672 2.25-11.633z"/>
					<path id="path340" fill="#f6f6f6" d="m135.36 2.4424c0.35 0.0493 8.21-0.8506 8.24-0.374 0.01 0.1826 0.46 4.5385 0.5 10.174 0.03 5.515-0.38 12.192-0.63 17.383-0.26 5.171 0.34 11.88 1.01 16.442 0.56 3.713 1.28 7.055 1.44 8.446 0.08 0.68 0.24 1.229 0.24 1.229h-19.41c2.29-7.588 3.13-6.77 4.71-10.575 0.38-0.911 0.75-2.251 0.91-3.673 0.24-2.054 0.18-6.812 0.39-9.869 0.14-2.043-0.57-5.27-0.5-7.33 0.06-1.757 0.22-4.524 0.26-5.983 0.01-0.365 0.2-0.916 0.21-1.259 0.03-1.039 0.47-1.92 0.75-2.765 2.05-6.2314 1.64-11.881 1.88-11.846z"/>
					<path id="path342" fill="#f7f7f7" d="m135.12 2.4595c0.31 0.0434 8.06-0.8384 8.09-0.4151 0.01 0.1626 0.45 4.5215 0.52 10.186 0.07 5.499-0.28 12.171-0.52 17.42-0.26 5.209 0.3 11.829 0.94 16.416 0.52 3.722 1.2 7.035 1.36 8.452 0.08 0.691 0.23 1.228 0.23 1.228h-18.79c2.33-7.723 3.09-6.73 4.64-10.502 0.36-0.877 0.7-2.205 0.87-3.652 0.24-2.091 0.22-6.682 0.43-9.785 0.14-2.072-0.48-5.204-0.4-7.291 0.06-1.779 0.21-4.447 0.25-5.931 0.01-0.371 0.18-0.908 0.19-1.256 0.03-1.057 0.42-1.965 0.67-2.811 1.85-6.394 1.3-12.09 1.52-12.058z"/>
					<path id="path344" fill="#f8f8f8" d="m134.88 2.4771c0.27 0.0385 7.91-0.8257 7.94-0.4551 0.01 0.1416 0.45 4.5039 0.55 10.198 0.09 5.483-0.18 12.149-0.43 17.457-0.25 5.246 0.27 11.778 0.87 16.389 0.49 3.73 1.12 7.015 1.29 8.456 0.08 0.705 0.22 1.229 0.22 1.229h-18.17c2.37-7.859 3.06-6.689 4.56-10.43 0.34-0.842 0.67-2.158 0.84-3.631 0.25-2.127 0.26-6.551 0.47-9.7 0.14-2.099-0.38-5.139-0.3-7.252 0.06-1.8 0.2-4.369 0.24-5.88 0.01-0.377 0.16-0.898 0.17-1.253 0.03-1.074 0.38-2.007 0.59-2.856 1.65-6.5517 0.97-12.299 1.16-12.272z"/>
					<path id="path346" fill="#f9f9f9" d="m134.64 2.4961c0.23 0.0327 7.76-0.8135 7.78-0.4961 0.01 0.1216 0.45 4.4863 0.58 10.21 0.12 5.467-0.08 12.127-0.32 17.494-0.26 5.284 0.23 11.727 0.79 16.364 0.46 3.739 1.05 6.994 1.22 8.46 0.08 0.717 0.21 1.229 0.21 1.229h-17.54c2.39-7.994 3.01-6.649 4.47-10.358 0.32-0.807 0.63-2.11 0.81-3.608 0.25-2.165 0.3-6.422 0.51-9.617 0.14-2.127-0.29-5.075-0.21-7.214 0.07-1.82 0.2-4.29 0.24-5.827 0.01-0.384 0.14-0.889 0.15-1.25 0.03-1.091 0.33-2.049 0.51-2.903 1.43-6.7051 0.63-12.507 0.8-12.484z"/>
					<path id="path348" fill="#fafafa" d="m134.4 2.5151c0.19 0.0274 7.61-0.8007 7.63-0.5361 0.01 0.1006 0.44 4.4688 0.61 10.222 0.15 5.45 0.01 12.106-0.23 17.531-0.25 5.321 0.2 11.676 0.73 16.337 0.42 3.748 0.97 6.974 1.14 8.466 0.09 0.728 0.2 1.228 0.2 1.228h-16.92c2.43-8.13 2.98-6.606 4.4-10.285 0.3-0.772 0.59-2.064 0.77-3.588 0.25-2.2 0.34-6.291 0.55-9.531 0.14-2.156-0.2-5.011-0.11-7.176 0.07-1.841 0.19-4.212 0.23-5.775 0.01-0.391 0.12-0.88 0.13-1.247 0.03-1.109 0.29-2.09 0.44-2.95 1.19-6.8521 0.29-12.715 0.43-12.696z"/>
					<path id="path350" fill="#fbfbfb" d="m134.16 2.5835c0.15 0.022 7.47-0.7886 7.48-0.5772 0.01 0.0811 0.44 4.4522 0.63 10.235 0.18 5.434 0.11 12.084-0.13 17.568-0.24 5.359 0.17 11.625 0.66 16.311 0.39 3.756 0.9 6.954 1.07 8.47 0.09 0.741 0.19 1.228 0.19 1.228h-16.3c2.47-8.265 2.95-6.564 4.32-10.212 0.28-0.737 0.55-2.018 0.73-3.566 0.26-2.238 0.38-6.161 0.6-9.448 0.14-2.183-0.11-4.945-0.02-7.136 0.08-1.862 0.19-4.135 0.23-5.724 0.01-0.397 0.1-0.871 0.11-1.244 0.03-1.126 0.24-2.129 0.36-2.995 0.97-6.995-0.04-12.925 0.07-12.91z"/>
					<path id="path352" fill="#fcfcfc" d="m133.91 2.5962c0.12 0.0166 7.33-0.7764 7.34-0.6172 0 0.0606 0.43 4.4346 0.66 10.247 0.2 5.418 0.21 12.062-0.03 17.605-0.24 5.396 0.12 11.573 0.58 16.285 0.37 3.764 0.83 6.934 1 8.474 0.09 0.753 0.18 1.228 0.18 1.228h-15.68c2.51-8.401 2.92-6.521 4.25-10.139 0.25-0.703 0.51-1.971 0.69-3.546 0.27-2.273 0.42-6.029 0.64-9.362 0.14-2.212-0.01-4.881 0.08-7.099 0.08-1.882 0.18-4.056 0.22-5.671 0.01-0.404 0.08-0.862 0.09-1.242 0.03-1.143 0.19-2.166 0.28-3.04 0.73-7.1311-0.38-13.134-0.3-13.123z"/>
					<path id="path354" fill="#fdfdfd" d="m133.67 2.6094c0.08 0.0107 7.18-0.7642 7.19-0.6582 0 0.0405 0.42 4.4175 0.68 10.259 0.24 5.403 0.31 12.041 0.07 17.643-0.24 5.433 0.1 11.521 0.51 16.258 0.34 3.773 0.75 6.914 0.93 8.479 0.09 0.765 0.17 1.228 0.17 1.228h-15.05c2.54-8.536 2.88-6.478 4.16-10.067 0.24-0.668 0.47-1.924 0.66-3.524 0.27-2.31 0.46-5.899 0.68-9.278 0.14-2.24 0.08-4.816 0.18-7.06 0.08-1.904 0.17-3.978 0.21-5.619 0.01-0.41 0.06-0.853 0.07-1.239 0.03-1.16 0.14-2.202 0.2-3.087 0.49-7.2599-0.71-13.342-0.66-13.335z"/>
					<path id="path356" fill="#fefefe" d="m133.43 2.6221c0.04 0.0058 7.04-0.7515 7.04-0.6983 0 0.02 0.41 4.4009 0.7 10.271 0.26 5.387 0.41 12.019 0.17 17.68-0.23 5.47 0.07 11.47 0.45 16.231 0.3 3.782 0.67 6.894 0.85 8.485 0.09 0.777 0.16 1.227 0.16 1.227h-14.43c2.57-8.672 2.85-6.434 4.08-9.994 0.22-0.633 0.44-1.878 0.63-3.503 0.27-2.347 0.5-5.769 0.71-9.194 0.15-2.268 0.18-4.752 0.28-7.021 0.09-1.924 0.17-3.9 0.21-5.567 0.01-0.417 0.05-0.844 0.05-1.236 0.03-1.178 0.09-2.238 0.13-3.133 0.24-7.3829-1.06-13.552-1.03-13.548z"/>
					<path id="path358" fill="#fff" d="m133.19 2.6353s1.39 6.2607 1.39 13.761c0 7.5-1 26.5-2 29.5-1.18 3.532-1.4 1.115-4.01 9.922h13.81s-1.8-13.922-1.3-25.922-1-28-1-28l-6.89 0.7393z"/>
				</g>
				<line id="line360" y2="30.33" y1="30.419" x2="148.33" x1="136.61" fill="none"/>
			</g><path id="path362" d="m173.32 161.74c13.3 0.32 36.98-0.32 43.47-14.28 6.49-13.95-6.49-24.98-12-30.82-5.52-5.84-49-69.431-48.67-76.893 0.32-7.463 1.95-12.005 5.19-15.574 3.25-3.569 4.22-14.276-0.97-14.276-5.19 0.0005-32.45 0.0005-37.64 0.0005s-4.22 10.706-0.97 14.276c3.24 3.568 4.86 8.11 5.19 15.573 0.32 7.462-43.153 71.053-48.669 76.893-5.515 5.84-18.494 16.87-12.005 30.82 6.49 13.96 30.174 14.6 43.474 14.28 13.31-0.32 50.29-0.32 63.6 0z" stroke="#4d4d4d" stroke-width="3.82" fill="none"/>
	<metadata><rdf:RDF><cc:Work><dc:format>image/svg+xml</dc:format><dc:type rdf:resource="http://purl.org/dc/dcmitype/StillImage"/><cc:license rdf:resource="http://creativecommons.org/licenses/publicdomain/"/><dc:publisher><cc:Agent rdf:about="http://openclipart.org/"><dc:title>Openclipart</dc:title></cc:Agent></dc:publisher></cc:Work><cc:License rdf:about="http://creativecommons.org/licenses/publicdomain/"><cc:permits rdf:resource="http://creativecommons.org/ns#Reproduction"/><cc:permits rdf:resource="http://creativecommons.org/ns#Distribution"/><cc:permits rdf:resource="http://creativecommons.org/ns#DerivativeWorks"/></cc:License></rdf:RDF></metadata></svg>
