<?xml version="1.0"?>
<svg xmlns:rdf="http://www.w3.org/1999/02/22-rdf-syntax-ns#" xmlns="http://www.w3.org/2000/svg" xmlns:cc="http://creativecommons.org/ns#" xmlns:xlink="http://www.w3.org/1999/xlink" xmlns:dc="http://purl.org/dc/elements/1.1/" id="svg2" height="505.84" width="753.86" version="1.1" viewBox="0 0 753.85687 505.83832">
 <defs id="defs4">
  <linearGradient id="j" x1="327.2" gradientUnits="userSpaceOnUse" x2="327.2" gradientTransform="matrix(.9971 0 0 .6399 320.4 -46.58)" y1="567.8" y2="523.2">
   <stop id="stop7" offset="0"/>
   <stop id="stop9" stop-color="#bfbfbf" offset=".49"/>
   <stop id="stop11" stop-color="#fff" offset=".71"/>
   <stop id="stop13" stop-color="#888" offset="1"/>
  </linearGradient>
  <clipPath id="i" clipPathUnits="userSpaceOnUse">
   <path id="path16" d="m261.7 148.6c6.1 0 11-4.9 11-10.9 0-6.1-4.9-11-11-11l-117.2-50c21.6 0 39.2 28.4 39.2 63.5s-17.6 63.5-39.2 63.5z"/>
  </clipPath>
  <linearGradient id="linearGradient3151" y2="523.2" xlink:href="#j" gradientUnits="userSpaceOnUse" x2="327.2" gradientTransform="matrix(.9971 0 0 .6399 325.89 -52.942)" y1="567.8" x1="327.2"/>
  <linearGradient id="linearGradient3153" y2="523.2" xlink:href="#j" gradientUnits="userSpaceOnUse" x2="327.2" gradientTransform="matrix(.9971 0 0 .6399 314.91 -52.942)" y1="567.8" x1="327.2"/>
  <radialGradient id="radialGradient3155" gradientUnits="userSpaceOnUse" cy="389.7" cx="342.6" gradientTransform="matrix(1.384 .799 -.8336 1.444 193.3 -446.7)" r="25.22">
   <stop id="stop19" stop-color="#fff" offset="0"/>
   <stop id="stop21" stop-color="#eb7548" offset=".5"/>
   <stop id="stop23" stop-color="#7c0000" offset="1"/>
  </radialGradient>
  <radialGradient id="radialGradient3157" gradientUnits="userSpaceOnUse" cy="476.1" cx="335.5" gradientTransform="matrix(1.55 .2883 -.2884 1.55 -47.07 -358.6)" r="17.03">
   <stop id="stop43" stop-color="#fff" offset="0"/>
   <stop id="stop45" stop-color="#5429a3" offset=".693"/>
   <stop id="stop47" stop-color="#333" offset="1"/>
  </radialGradient>
  <radialGradient id="radialGradient3159" gradientUnits="userSpaceOnUse" cy="430.3" cx="412.6" gradientTransform="matrix(1.395 .4125 -.3858 1.305 2.916 -301.5)" r="8.671">
   <stop id="stop26" stop-color="#fff" offset="0"/>
   <stop id="stop28" stop-color="#999" offset="1"/>
  </radialGradient>
  <radialGradient id="radialGradient3161" gradientUnits="userSpaceOnUse" cy="429.4" cx="366.8" gradientTransform="matrix(1.002 .2684 -.2665 .9946 113.8 -96.16)" r="12.45">
   <stop id="stop31" stop-color="#ccc" offset="0"/>
   <stop id="stop33" stop-color="#222" offset="1"/>
  </radialGradient>
  <radialGradient id="radialGradient3163" gradientUnits="userSpaceOnUse" cy="430.1" cx="324.5" gradientTransform="matrix(1.384 .3709 -.4338 1.619 61.93 -386.5)" r="23.12">
   <stop id="stop36" stop-color="#fff" offset="0"/>
   <stop id="stop38" stop-color="#2ca0a0" offset=".64"/>
   <stop id="stop40" stop-color="#333" offset="1"/>
  </radialGradient>
 </defs>
 <g id="q" stroke-linejoin="round" transform="matrix(3 0 0 3 -515.49 -1003.8)" stroke="#bbb" stroke-linecap="round" clip-rule="evenodd" fill="#fcfcfc">
  <path id="path50" d="m385.3 502.7c-1-5.9 1.7-14.2 4.2-19.3 10-12.6 19.2-25.3 21.5-41.3 2.9-1 1.8-14.8 3.3-18.4 2.4-6.2 4.4-14.4 1.7-20.8-0.5-2.9 0.9-7.5-2.1-13-4.4-3.5-8.5-0.2-11.2 3-4.3 5-3.8 15.6-4.2 24-3 4.5-4.1 8-5.4 7.6-0.2-1.1-0.4-2.2-0.5-3.3-3.1-21.4 3.6-44.3 2.5-66.5-0.1-3.1-0.1-6.8-2.4-8.9-2.4-2.3-6.9-2.1-8.9 0.9-5.3 16.4-5.9 33.6-9.6 50.4-0.4 0.3-0.8 0.6-1.2 0.8-4.7-20.4 0.1-43.2-10.5-61.5-1.6-1.7-5.2-1.8-7 0-8 7.9-1.3 22.4-2 33 5.6 8.2-13.4 9.7-10.2-2.1-0.8-7.7-6.3-27.2-16.5-17.6-2.5 2.5 2.3 18.6 2.3 22.9 1.2 4.9-0.6 16.4-6.7 7.6-1.9-4.7-6-14-10.1-14.6h-0.3c-1.8 0-4.1 1.3-4.3 2-4.2 15.7 8.7 32.3 12.3 46.6 0.4 14.5 5.4 32.8 4.7 41-1.6 11.3 6.6 18.7 6.9 31.9-2.5 3.8-2.7 11-3.4 15.1" stroke="#777"/>
  <path id="path52" d="m416 402.9c-1.1 0.6-2.9 1.6-4.5 1.2-2.4-2.6-0.8-10.3 2.5-13.9" stroke="#777"/>
  <path id="path54" d="m373 398.6c0 1-0.2 1.6 0.5 2.2 3.8 2.8 10.9 4.3 15 6.9"/>
  <path id="path56" d="m382.9 444.8c9.8-3 8.5-12.5 10.3-19.4-0.9 3.6 1 18.7 5.4 18"/>
  <path id="path58" d="m338.5 494.7c3 1.5 6.6 2.9 9.9 2.9"/>
  <path id="path60" d="m368.8 497.7c-6.9 0-16-1.8-21.6-3.2"/>
  <path id="path62" d="m343.1 493.6c4.4 0.6 9.8 1.3 13.8 0.8"/>
  <path id="path64" d="m390.3 482c-13.2 7.5-26.6 9.6-29.9-7.8-0.3-8.4 4.3-18.9 11.9-22.3"/>
  <path id="path66" d="m379.7 381.1c2.6 0.7 7.4 1 8.8-0.2"/>
  <path id="path68" d="m380.8 383.5c2.4-1.1 6.4 1 9.8 1.1"/>
  <path id="path70" d="m383.4 358.3c3.1-0.7 5.4 0.5 7.6 1"/>
  <path id="path72" d="m399.1 417.6c1.1 1.5 5.3 2.6 5.2 1.8"/>
  <path id="path74" d="m354.6 356.3c3.3-0.9 6.7 0 9.7 0.3"/>
  <path id="path76" d="m331.5 368.3c1.7-2.5 4.8-3.6 7.8-3.9"/>
  <path id="path78" d="m311.2 384.1c1.7-3 5.6-3.5 9.3-3.5"/>
  <path id="path80" d="m365.4 372.2h-6.9"/>
  <path id="path82" d="m367 375.9c-3-0.1-6.2-0.3-8.8-0.7"/>
  <path id="path84" d="m389.4 482.6c-10.2 6.2-25.8 9.7-29-8.4-1.5-8.3 4.3-18.9 11.9-22.3"/>
 </g>
 <use id="use86" xlink:href="#q" transform="matrix(-1 0 0 1 754.02 4.3741e-8)" height="519" width="765" y="0" x="0"/>
 <rect id="rect88" opacity=".8" transform="scale(-1,1)" height="28.37" width="209.5" y="281.44" x="-234.11" fill="url(#linearGradient3151)"/>
 <rect id="rect90" opacity=".8" height="28.37" width="209.5" y="281.74" x="519.91" fill="url(#linearGradient3153)"/>
 <g id="g92" stroke-width="0.64" stroke="#999" transform="translate(-5.4877 -6.3617)">
  <circle id="n" d="m 376.82001,397.60001 c 0,13.92862 -11.29138,25.22 -25.22,25.22 -13.92862,0 -25.22,-11.29138 -25.22,-25.22 0,-13.92862 11.29138,-25.22 25.22,-25.22 13.92862,0 25.22,11.29138 25.22,25.22 z" cx="351.6" transform="matrix(3.123,0,0,3.123,-850.4,-1064)" cy="397.6" r="25.22" fill="url(#radialGradient3155)"/>
  <circle id="m" d="m 358.53,482.10001 c 0,9.40541 -7.62459,17.03 -17.03,17.03 -9.40541,0 -17.03,-7.62459 -17.03,-17.03 0,-9.40541 7.62459,-17.03 17.03,-17.03 9.40541,0 17.03,7.62459 17.03,17.03 z" cx="341.5" transform="matrix(3.083,0,0,3.083,-804.7,-1060)" cy="482.1" r="17.03" fill="url(#radialGradient3157)"/>
  <circle id="l" d="m 424.37101,434 c 0,4.78886 -3.88214,8.671 -8.671,8.671 -4.78886,0 -8.671,-3.88214 -8.671,-8.671 0,-4.78886 3.88214,-8.671 8.671,-8.671 4.78886,0 8.671,3.88214 8.671,8.671 z" cx="415.7" transform="matrix(3.173,0,0,3.173,-1285,-1075)" cy="434" r="8.671" fill="url(#radialGradient3159)"/>
  <circle id="k" d="m 383.05001,434 c 0,6.87595 -5.57406,12.45 -12.45,12.45 -6.87595,0 -12.45,-5.57405 -12.45,-12.45 0,-6.87595 5.57405,-12.45 12.45,-12.45 6.87594,0 12.45,5.57405 12.45,12.45 z" cx="370.6" transform="matrix(3.797,0,0,3.797,-1235,-1346)" cy="434" r="12.45" fill="url(#radialGradient3161)"/>
  <circle id="h" d="m 355.93999,438.5 c 0,12.4485 -10.0915,22.54 -22.54,22.54 -12.44849,0 -22.54,-10.0915 -22.54,-22.54 0,-12.4485 10.09151,-22.54 22.54,-22.54 12.4485,0 22.54,10.0915 22.54,22.54 z" cx="333.4" transform="matrix(3.168,0,0,3.168,-766.3,-1087)" cy="438.5" r="22.54" fill="url(#radialGradient3163)"/>
  <use id="use99" xlink:href="#m" height="519" width="765" y="0" x="268.70001"/>
  <use id="use101" xlink:href="#n" height="519" width="765" y="0" x="270.10001"/>
  <use id="use103" xlink:href="#l" height="519" width="765" y="0" x="696.79999"/>
  <use id="use105" xlink:href="#k" height="519" width="765" y="0" x="420.5"/>
  <use id="use107" xlink:href="#h" height="519" width="765" y="0" x="185"/>
 </g>
 <g id="g109" stroke-width="1pt" font-size="36px" font-family="'Arial, sans-serif'" stroke-opacity=".5" transform="translate(-5.4877 -6.3617)" stroke="#fff" font-weight="bold" line-height="125%">
  <text id="text111" y="317.32672" x="270.37701" font-size="42px">R</text>
  <text id="text113" font-size="39px" y="317.55899" x="152.02513" fill="#ffffff">C</text>
  <text id="text115" y="191.696" x="187.6691">COOH</text>
  <text id="text117" y="443.90894" x="208.16588" fill="#ffffff">
   <tspan id="tspan119">NH</tspan>
   <tspan id="tspan121" font-size="27px" dx="-1" dy="9">2</tspan>
  </text>
  <text id="text123" y="314.72113" x="21.200001" font-size="33px">H</text>
  <text id="text125" y="317.32672" x="461.44086" font-size="42px">R</text>
  <text id="text127" font-size="39px" y="317.55899" x="584.96222" fill="#ffffff">C</text>
  <text id="text129" y="191.696" x="470.40283">COOH</text>
  <text id="text131" y="443.90894" x="491.47238" fill="#ffffff">
   <tspan id="tspan133">NH</tspan>
   <tspan id="tspan135" font-size="27px" dx="-1" dy="9">2</tspan>
  </text>
  <text id="text137" y="314.72113" x="720" font-size="33px">H</text>
 </g>
 <g id="a" opacity=".8" transform="matrix(-.3805 .6638 -.6273 -.3595 723.61 262.24)" clip-path="url(#i)">
  <path id="path140" fill="#ddd" d="m174.1 168.3 116.6-31.3-114.8 38.6s-1.8-7.3-1.8-7.3"/>
  <path id="path142" fill="#c8c8c8" d="m174.2 162.1l116.5-25.1-115 32.4-1.5-7.3"/>
  <path id="path144" fill="#b4b4b4" d="m174.3 156 116.4-19.1-115.3 26.4-1.1-7.3"/>
  <path id="path146" fill="#a0a0a0" d="m174.4 149.9 116.3-13-115.5 20.2-0.8-7.2"/>
  <path id="path148" fill="#8c8c8c" d="m174.6 143.7 116.1-6.8-115.8 14.1s-0.3-7.3-0.3-7.3"/>
  <path id="path150" fill="#787878" d="m174.7 137.6 116.1-0.7-116.1 8v-7.3"/>
  <path id="path152" fill="#646464" d="m174.8 131.5 116 5.4-116.4 1.8 0.4-7.2"/>
  <path id="path154" fill="#505050" d="m175 125.3 115.8 11.6-116.7-4.3 0.9-7.3"/>
  <path id="path156" fill="#3c3c3c" d="m175.1 119.2 115.7 17.7-116.9-10.5 1.2-7.2"/>
  <path id="path158" fill="#282828" d="m175.2 113.1 115.6 23.8-117.2-16.6 1.6-7.2"/>
  <path id="path160" fill="#141414" d="m175.3 106.9 115.5 30-117.4-22.8l1.9-7.2"/>
 </g>
 <use id="use162" xlink:href="#a" transform="matrix(.4642 .8857 .8857 -.4642 -367.61 -87.654)" height="519" width="765" y="0" x="0"/>
 <use id="use164" xlink:href="#a" transform="matrix(.2434 .7564 -.4629 .4634 232 -287.86)" height="519" width="765" y="0" x="0"/>
 <use id="use166" xlink:href="#a" transform="matrix(-.2454 .7557 .4617 .4646 523.5 -288.26)" height="519" width="765" y="0" x="0"/>
 <use id="use168" xlink:href="#a" transform="matrix(.9999 .01341 .01341 -.9999 -4.0232 583.25)" height="519" width="765" y="0" x="0"/>
 <use id="use170" xlink:href="#a" transform="matrix(-1 .001827 .001827 1 753.64 -1.23)" height="519" width="765" y="0" x="0"/>
 <metadata>
  <rdf:RDF>
   <cc:Work>
    <dc:format>image/svg+xml</dc:format>
    <dc:type rdf:resource="http://purl.org/dc/dcmitype/StillImage"/>
    <cc:license rdf:resource="http://creativecommons.org/licenses/publicdomain/"/>
    <dc:publisher>
     <cc:Agent rdf:about="http://openclipart.org/">
      <dc:title>Openclipart</dc:title>
     </cc:Agent>
    </dc:publisher>
   </cc:Work>
   <cc:License rdf:about="http://creativecommons.org/licenses/publicdomain/">
    <cc:permits rdf:resource="http://creativecommons.org/ns#Reproduction"/>
    <cc:permits rdf:resource="http://creativecommons.org/ns#Distribution"/>
    <cc:permits rdf:resource="http://creativecommons.org/ns#DerivativeWorks"/>
   </cc:License>
  </rdf:RDF>
 </metadata>
</svg>
