<?xml version="1.0"?>
<svg xmlns:rdf="http://www.w3.org/1999/02/22-rdf-syntax-ns#" xmlns="http://www.w3.org/2000/svg" xmlns:cc="http://creativecommons.org/ns#" xmlns:dc="http://purl.org/dc/elements/1.1/" id="svg2" xml:space="preserve" version="1.0" viewBox="0 0 2230.8 987.6">
<rect id="rect4" height="987.6" width="2230.8" y="0" x="-.000051987" fill="#fff"/>
<g id="g6" transform="translate(50 53.957)">
<path id="path8" d="m142 407c0-38.1-30.9-69-69-69s-69 30.9-69 69 30.9 69 69 69 69-30.9 69-69" stroke="#00a0c6" stroke-width="8" fill="#00a0c6"/>
<path id="path10" d="m295.6 563c0-38.1-30.9-69-69-69s-69 30.9-69 69 30.9 69 69 69 69-30.9 69-69" stroke="#ff0" stroke-width="8" fill="#ff0"/>
<path id="path12" d="m575.2 407c0-38.1-30.9-69-69-69s-69 30.9-69 69 30.9 69 69 69 69-30.9 69-69" stroke="#f0037f" stroke-width="8" fill="#f0037f"/>
<path id="path14" d="m350.1 134.6c0-38.4-31.1-69.5-69.5-69.5s-69.5 31.1-69.5 69.5 31.1 69.5 69.5 69.5 69.5-31.1 69.5-69.5" stroke="#008837" stroke-width="8" fill="#008837"/>
<path id="path16" d="m304.6 365.4 9.5 2.4c-2 7.8-5.6 13.7-10.7 17.8s-11.5 6.1-18.9 6.1c-7.7 0-14-1.6-18.8-4.7s-8.5-7.7-11-13.7-3.8-12.4-3.8-19.2c0-7.5 1.4-14 4.3-19.5s6.9-9.8 12.1-12.7 11-4.3 17.3-4.3c7.2 0 13.2 1.8 18 5.5 4.9 3.7 8.3 8.8 10.2 15.4l-9.4 2.2c-1.7-5.2-4.1-9-7.2-11.4-3.2-2.4-7.1-3.6-11.9-3.6-5.5 0-10.1 1.3-13.8 4-3.7 2.6-6.3 6.2-7.8 10.6s-2.2 9-2.2 13.8c0 6.1 0.9 11.4 2.7 16 1.8 4.5 4.5 7.9 8.3 10.2 3.7 2.3 7.8 3.4 12.1 3.4 5.3 0 9.8-1.5 13.5-4.6s6.2-7.7 7.5-13.7z"/>
<path id="path18" d="m293.6 149.4 9.5 2.4c-2 7.8-5.6 13.7-10.7 17.8s-11.5 6.1-18.9 6.1c-7.7 0-14-1.6-18.8-4.7s-8.5-7.7-11-13.7-3.8-12.4-3.8-19.2c0-7.5 1.4-14 4.3-19.5s6.9-9.8 12.1-12.7 11-4.3 17.3-4.3c7.2 0 13.2 1.8 18 5.5 4.9 3.7 8.3 8.8 10.2 15.4l-9.4 2.2c-1.7-5.2-4.1-9-7.2-11.4-3.2-2.4-7.1-3.6-11.9-3.6-5.5 0-10.1 1.3-13.8 4-3.7 2.6-6.3 6.2-7.8 10.6s-2.2 9-2.2 13.8c0 6.1 0.9 11.4 2.7 16 1.8 4.5 4.5 7.9 8.3 10.2 3.7 2.3 7.8 3.4 12.1 3.4 5.3 0 9.8-1.5 13.5-4.6s6.2-7.7 7.5-13.7z"/>
<path id="path20" d="m313.5 174.5v-71.6h8.8v71.6h-8.8z"/>
<rect id="rect22" y="191" width="8" height="111" x="277.9"/>
<path id="path24" d="m463.3 446.5v-71.6h26.8c5.5 0 9.8 0.7 13.1 2.2 3.3 1.4 5.9 3.7 7.8 6.7s2.8 6.2 2.8 9.4c0 3.1-0.8 5.9-2.5 8.6s-4.2 4.9-7.6 6.5c4.4 1.3 7.7 3.4 10 6.5s3.5 6.7 3.5 10.8c0 3.4-0.7 6.5-2.1 9.4s-3.2 5.1-5.2 6.7-4.7 2.7-7.8 3.5-7 1.2-11.5 1.2h-27.3v0.1zm9.5-41.6h15.4c4.2 0 7.2-0.3 9-0.8 2.4-0.7 4.2-1.9 5.4-3.5s1.8-3.7 1.8-6.2c0-2.4-0.6-4.4-1.7-6.2s-2.8-3-4.9-3.7-5.7-1-10.8-1h-14.2v21.4zm0 33.1h17.8c3.1 0 5.2-0.1 6.4-0.3 2.2-0.4 4-1 5.5-2s2.7-2.2 3.6-4 1.4-3.8 1.4-6c0-2.7-0.7-5-2.1-7s-3.3-3.4-5.7-4.2-5.9-1.2-10.4-1.2h-16.5v24.7z"/>
<path id="path26" d="m529.1 446.5v-51.9h7.9v8c2-3.7 3.9-6.1 5.6-7.3s3.6-1.8 5.6-1.8c3 0 6 0.9 9 2.8l-3.1 8.1c-2.1-1.2-4.3-1.8-6.4-1.8-1.9 0-3.6 0.6-5.1 1.7-1.5 1.2-2.6 2.8-3.3 4.8-1 3.1-1.5 6.5-1.5 10.2v27.1h-8.7v0.1z"/>
<rect id="rect28" transform="matrix(-.2573 .9663 -.9663 -.2573 853.4 103.63)" height="115.9" width="7.8" y="321.8" x="383"/>
<path id="path30" d="m202.4 599v-71.6h48.4v8.5h-38.9v22.1h33.6v8.5h-33.6v32.5h-9.5z"/>
<polygon id="polygon32" points="271.4 406 253.9 512.5 224.9 505 263.4 404"/>
<path id="path34" d="m44.9 446.5v-71.6h9.5v29.4h37.3v-29.4h9.5v71.6h-9.5v-33.8h-37.3v33.8h-9.5z"/>
<polygon id="polygon36" points="133.9 406 125.9 408.5 118.4 380 126.4 378.5"/>
<polygon id="polygon38" points="158.9 396.5 151.4 399.5 144.9 375 152.9 374"/>
<polygon id="polygon40" points="184.4 387 176.9 390 171.9 370.5 179.9 369.5"/>
<polygon id="polygon42" points="209.9 377.5 202.4 380.5 198.9 366 206.4 365"/>
<polygon id="polygon44" points="235.4 368 227.9 371 225.4 361.5 233.4 360.5"/>
<path id="path46" d="m1384 408.2c0-38.1-30.9-69-69-69s-69 30.9-69 69 30.9 69 69 69 69-30.9 69-69" stroke="#00a0c6" stroke-width="8" fill="#00a0c6"/>
<path id="path48" d="m1230.4 560.6c0-38.1-30.9-69-69-69s-69 30.9-69 69 30.9 69 69 69 69-30.9 69-69" stroke="#ff0" stroke-width="8" fill="#ff0"/>
<path id="path50" d="m983.2 408.2c0-38.1-30.9-69-69-69s-69 30.9-69 69 30.9 69 69 69 69-30.9 69-69" stroke="#f0037f" stroke-width="8" fill="#f0037f"/>
<path id="path52" d="m1175.2 137c0-38.1-30.9-69-69-69s-69 30.9-69 69 30.9 69 69 69 69-30.9 69-69" stroke="#008837" stroke-width="8" fill="#008837"/>
<path id="path54" d="m1129.1 365.9 9.5 2.4c-2 7.8-5.6 13.7-10.7 17.8s-11.5 6.1-18.9 6.1c-7.7 0-14-1.6-18.8-4.7s-8.5-7.7-11-13.7-3.8-12.4-3.8-19.2c0-7.5 1.4-14 4.3-19.5s6.9-9.8 12.1-12.7 11-4.3 17.3-4.3c7.2 0 13.2 1.8 18 5.5 4.9 3.7 8.3 8.8 10.2 15.4l-9.4 2.2c-1.7-5.2-4.1-9-7.2-11.4-3.2-2.4-7.1-3.6-11.9-3.6-5.5 0-10.1 1.3-13.8 4-3.7 2.6-6.3 6.2-7.8 10.6s-2.2 9-2.2 13.8c0 6.1 0.9 11.4 2.7 16 1.8 4.5 4.5 7.9 8.3 10.2 3.7 2.3 7.8 3.4 12.1 3.4 5.3 0 9.8-1.5 13.5-4.6s6.2-7.7 7.5-13.7z"/>
<path id="path56" d="m1118.1 149.9 9.5 2.4c-2 7.8-5.6 13.7-10.7 17.8s-11.5 6.1-18.9 6.1c-7.7 0-14-1.6-18.8-4.7s-8.5-7.7-11-13.7-3.8-12.4-3.8-19.2c0-7.5 1.4-14 4.3-19.5s6.9-9.8 12.1-12.7 11-4.3 17.3-4.3c7.2 0 13.2 1.8 18 5.5 4.9 3.7 8.3 8.8 10.2 15.4l-9.4 2.2c-1.7-5.2-4.1-9-7.2-11.4-3.2-2.4-7.1-3.6-11.9-3.6-5.5 0-10.1 1.3-13.8 4-3.7 2.6-6.3 6.2-7.8 10.6s-2.2 9-2.2 13.8c0 6.1 0.9 11.4 2.7 16 1.8 4.5 4.5 7.9 8.3 10.2 3.7 2.3 7.8 3.4 12.1 3.4 5.3 0 9.8-1.5 13.5-4.6s6.2-7.7 7.5-13.7z"/>
<path id="path58" d="m1138 175v-71.6h8.8v71.6h-8.8z"/>
<rect id="rect60" y="191.5" width="8" height="111" x="1102.4"/>
<path id="path62" d="m870.8 447v-71.6h26.8c5.5 0 9.8 0.7 13.1 2.2 3.3 1.4 5.9 3.7 7.8 6.7s2.8 6.2 2.8 9.4c0 3.1-0.8 5.9-2.5 8.6s-4.2 4.9-7.6 6.5c4.4 1.3 7.7 3.4 10 6.5s3.5 6.7 3.5 10.8c0 3.4-0.7 6.5-2.1 9.4s-3.2 5.1-5.2 6.7-4.7 2.7-7.8 3.5-7 1.2-11.5 1.2h-27.3v0.1zm9.5-41.6h15.4c4.2 0 7.2-0.3 9-0.8 2.4-0.7 4.2-1.9 5.4-3.5s1.8-3.7 1.8-6.2c0-2.4-0.6-4.4-1.7-6.2s-2.8-3-4.9-3.7-5.7-1-10.8-1h-14.2v21.4zm0 33.1h17.8c3.1 0 5.2-0.1 6.4-0.3 2.2-0.4 4-1 5.5-2s2.7-2.2 3.6-4 1.4-3.8 1.4-6c0-2.7-0.7-5-2.1-7s-3.3-3.4-5.7-4.2-5.9-1.2-10.4-1.2h-16.5v24.7z"/>
<path id="path64" d="m936.6 447v-51.9h7.9v8c2-3.7 3.9-6.1 5.6-7.3s3.6-1.8 5.6-1.8c3 0 6 0.9 9 2.8l-3.1 8.1c-2.1-1.2-4.3-1.8-6.4-1.8-1.9 0-3.6 0.6-5.1 1.7-1.5 1.2-2.6 2.8-3.3 4.8-1 3.1-1.5 6.5-1.5 10.2v27.2h-8.7z"/>
<rect id="rect66" transform="matrix(-.2579 -.9662 .9662 -.2579 917.93 1456.6)" height="84.9" width="7.8" y="333.3" x="1014.5"/>
<path id="path68" d="m1139.4 599.5v-71.6h48.4v8.5h-38.9v22.1h33.6v8.5h-33.6v32.5h-9.5z"/>
<polygon id="polygon70" points="1124.9 405 1163.4 505.5 1134.4 513.5 1117.4 407.5"/>
<path id="path72" d="m1287.4 447v-71.6h9.5v29.4h37.3v-29.4h9.5v71.6h-9.5v-33.8h-37.3v33.8h-9.5z"/>
<polygon id="polygon74" points="1261.4 379 1269.4 380 1261.9 409 1254.4 406.5"/>
<polygon id="polygon76" points="1235.4 374.5 1243.4 376 1236.9 400 1229.4 397"/>
<polygon id="polygon78" points="1208.9 370 1216.9 371.5 1211.9 390.5 1204.4 387.5"/>
<polygon id="polygon80" points="1182.9 366 1190.9 367 1186.9 381 1179.4 378.5"/>
<polygon id="polygon82" points="1156.4 361.5 1164.4 362.5 1161.9 372 1154.4 369"/>
<line id="line84" stroke-width="8" y2="697.5" stroke="#000" stroke-dasharray="25" x2="711.4" x1="711.4" fill="none"/>
<path id="path86" d="m2126.8 407c0-38.1-30.9-69-69-69s-69 30.9-69 69 30.9 69 69 69 69-30.9 69-69" stroke="#ff0" stroke-width="8" fill="#ff0"/>
<path id="path88" d="m1973.2 563c0-38.1-30.9-69-69-69s-69 30.9-69 69 30.9 69 69 69 69-30.9 69-69" stroke="#00a0c6" stroke-width="8" fill="#00a0c6"/>
<path id="path90" d="m1726 407c0-38.1-30.9-69-69-69s-69 30.9-69 69 30.9 69 69 69 69-30.9 69-69" stroke="#f0037f" stroke-width="8" fill="#f0037f"/>
<path id="path92" d="m1919.7 134.6c0-38.4-31.1-69.5-69.5-69.5s-69.5 31.1-69.5 69.5 31.1 69.5 69.5 69.5 69.5-31.1 69.5-69.5" stroke="#008837" stroke-width="8" fill="#008837"/>
<path id="path94" d="m1871.6 365.4 9.5 2.4c-2 7.8-5.6 13.7-10.7 17.8s-11.5 6.1-18.9 6.1c-7.7 0-14-1.6-18.8-4.7s-8.5-7.7-11-13.7-3.8-12.4-3.8-19.2c0-7.5 1.4-14 4.3-19.5s6.9-9.8 12.1-12.7 11-4.3 17.3-4.3c7.2 0 13.2 1.8 18 5.5 4.9 3.7 8.3 8.8 10.2 15.4l-9.4 2.2c-1.7-5.2-4.1-9-7.2-11.4-3.2-2.4-7.1-3.6-11.9-3.6-5.5 0-10.1 1.3-13.8 4-3.7 2.6-6.3 6.2-7.8 10.6s-2.2 9-2.2 13.8c0 6.1 0.9 11.4 2.7 16 1.8 4.5 4.5 7.9 8.3 10.2 3.7 2.3 7.8 3.4 12.1 3.4 5.3 0 9.8-1.5 13.5-4.6s6.2-7.7 7.5-13.7z"/>
<path id="path96" d="m1860.6 149.4 9.5 2.4c-2 7.8-5.6 13.7-10.7 17.8s-11.5 6.1-18.9 6.1c-7.7 0-14-1.6-18.8-4.7s-8.5-7.7-11-13.7-3.8-12.4-3.8-19.2c0-7.5 1.4-14 4.3-19.5s6.9-9.8 12.1-12.7 11-4.3 17.3-4.3c7.2 0 13.2 1.8 18 5.5 4.9 3.7 8.3 8.8 10.2 15.4l-9.4 2.2c-1.7-5.2-4.1-9-7.2-11.4-3.2-2.4-7.1-3.6-11.9-3.6-5.5 0-10.1 1.3-13.8 4-3.7 2.6-6.3 6.2-7.8 10.6s-2.2 9-2.2 13.8c0 6.1 0.9 11.4 2.7 16 1.8 4.5 4.5 7.9 8.3 10.2 3.7 2.3 7.8 3.4 12.1 3.4 5.3 0 9.8-1.5 13.5-4.6s6.2-7.7 7.5-13.7z"/>
<path id="path98" d="m1880.5 174.5v-71.6h8.8v71.6h-8.8z"/>
<rect id="rect100" y="191" width="8" height="111" x="1844.9"/>
<path id="path102" d="m1613.3 446.5v-71.6h26.8c5.5 0 9.8 0.7 13.1 2.2 3.3 1.4 5.9 3.7 7.8 6.7s2.8 6.2 2.8 9.4c0 3.1-0.8 5.9-2.5 8.6s-4.2 4.9-7.6 6.5c4.4 1.3 7.7 3.4 10 6.5s3.5 6.7 3.5 10.8c0 3.4-0.7 6.5-2.1 9.4s-3.2 5.1-5.2 6.7-4.7 2.7-7.8 3.5-7 1.2-11.5 1.2h-27.3v0.1zm9.5-41.6h15.4c4.2 0 7.2-0.3 9-0.8 2.4-0.7 4.2-1.9 5.4-3.5s1.8-3.7 1.8-6.2c0-2.4-0.6-4.4-1.7-6.2s-2.8-3-4.9-3.7-5.7-1-10.8-1h-14.2v21.4zm0 33.1h17.8c3.1 0 5.2-0.1 6.4-0.3 2.2-0.4 4-1 5.5-2s2.7-2.2 3.6-4 1.4-3.8 1.4-6c0-2.7-0.7-5-2.1-7s-3.3-3.4-5.7-4.2-5.9-1.2-10.4-1.2h-16.5v24.7z"/>
<path id="path104" d="m1679.1 446.5v-51.9h7.9v8c2-3.7 3.9-6.1 5.6-7.3s3.6-1.8 5.6-1.8c3 0 6 0.9 9 2.8l-3.1 8.1c-2.1-1.2-4.3-1.8-6.4-1.8-1.9 0-3.6 0.6-5.1 1.7-1.5 1.2-2.6 2.8-3.3 4.8-1 3.1-1.5 6.5-1.5 10.2v27.1h-8.7v0.1z"/>
<rect id="rect106" transform="matrix(-.2579 -.9662 .9662 -.2579 1852.4 2173.4)" height="84.9" width="7.8" y="332.8" x="1757"/>
<path id="path108" d="m1876.9 599v-71.6h9.5v29.4h37.3v-29.4h9.5v71.6h-9.5v-33.8h-37.3v33.8h-9.5z"/>
<polygon id="polygon110" points="1867.4 404.5 1905.4 504 1876.4 511.5 1859.4 406.5"/>
<path id="path112" d="m2034.4 446.5v-71.6h48.4v8.5h-38.9v22.1h33.6v8.5h-33.6v32.5h-9.5z"/>
<polygon id="polygon114" points="2008.4 379.5 2016.4 381 2008.4 410 2000.9 407"/>
<polygon id="polygon116" points="1980.9 375 1988.9 376 1982.4 400 1974.9 397.5"/>
<polygon id="polygon118" points="1953.9 370 1961.4 371.5 1956.4 390.5 1948.9 388"/>
<polygon id="polygon120" points="1926.4 365.5 1934.4 367 1930.4 381 1922.9 378"/>
<polygon id="polygon122" points="1898.9 361 1906.9 362 1904.4 371.5 1896.9 368.5"/>
<path id="path124" d="m1730.6 654.8-57.7 25.9c7.1-0.1 13.9 2.9 18.6 8.2s6.7 12.5 5.6 19.5l33.5-53.6z"/>
<path id="path126" d="m1691.4 689c-292.5 255-1257.5 257.5-1362.5-12.5" stroke="#000" stroke-width="8" fill="none"/>
<path id="path128" d="m1089.5 843.8c0 19.1-38.8 34.6-86.5 34.6-47.8 0-86.5-15.5-86.5-34.6s38.8-34.6 86.5-34.6 86.5 15.5 86.5 34.6" stroke="#000" stroke-width="8" fill="#fff"/>
<path id="path130" d="m1482.8 426.6-9.5 21.8h-6.7l9.5-21.8h-13.8v-8.3h17.4l5.9-13.4h-23.3v-8.3h26.9l9.5-21.8h6.7l-9.5 21.8h13.8v8.3h-17.4l-5.9 13.4h23.3v8.3h-26.9z"/>
</g>
<metadata><rdf:RDF><cc:Work><dc:format>image/svg+xml</dc:format><dc:type rdf:resource="http://purl.org/dc/dcmitype/StillImage"/><cc:license rdf:resource="http://creativecommons.org/licenses/publicdomain/"/><dc:publisher><cc:Agent rdf:about="http://openclipart.org/"><dc:title>Openclipart</dc:title></cc:Agent></dc:publisher></cc:Work><cc:License rdf:about="http://creativecommons.org/licenses/publicdomain/"><cc:permits rdf:resource="http://creativecommons.org/ns#Reproduction"/><cc:permits rdf:resource="http://creativecommons.org/ns#Distribution"/><cc:permits rdf:resource="http://creativecommons.org/ns#DerivativeWorks"/></cc:License></rdf:RDF></metadata></svg>
