<?xml version="1.0" encoding="UTF-8" standalone="no"?>
<!-- Created with Inkscape (http://www.inkscape.org/) -->

<svg
   xmlns:dc="http://purl.org/dc/elements/1.1/"
   xmlns:cc="http://creativecommons.org/ns#"
   xmlns:rdf="http://www.w3.org/1999/02/22-rdf-syntax-ns#"
   xmlns:svg="http://www.w3.org/2000/svg"
   xmlns="http://www.w3.org/2000/svg"
   xmlns:sodipodi="http://sodipodi.sourceforge.net/DTD/sodipodi-0.dtd"
   xmlns:inkscape="http://www.inkscape.org/namespaces/inkscape"
   version="1.0"
   width="440"
   height="295.57001"
   viewBox="0 0 1616.503 1058.963"
   id="svg2"
   xml:space="preserve"
   inkscape:version="0.48.1 "
   sodipodi:docname="Cholesterol.svg"><metadata
   id="metadata62"><rdf:RDF><cc:Work
       rdf:about=""><dc:format>image/svg+xml</dc:format><dc:type
         rdf:resource="http://purl.org/dc/dcmitype/StillImage" /></cc:Work></rdf:RDF></metadata><sodipodi:namedview
   pagecolor="#ffffff"
   bordercolor="#666666"
   borderopacity="1"
   objecttolerance="10"
   gridtolerance="10"
   guidetolerance="10"
   inkscape:pageopacity="0"
   inkscape:pageshadow="2"
   inkscape:window-width="931"
   inkscape:window-height="668"
   id="namedview60"
   showgrid="false"
   inkscape:zoom="1.01"
   inkscape:cx="215.3411"
   inkscape:cy="173.32338"
   inkscape:window-x="0"
   inkscape:window-y="0"
   inkscape:window-maximized="0"
   inkscape:current-layer="svg2" /><defs
   id="defs118">
			
		
				
				
				
				
				
				
				
				
				
				
				
				
				
				
				
				
				
				
				
				
				
				
				

				
				
				
				
				
				
				
				
				
				
				
				
				
				
				
				

				
				
				
				
				

				
				
				
				
				

				
			</defs>
	
		<polygon
   points="240.502,774.492 240.502,913.496 240.502,913.496 236.503,915.996 232.5,913.496 232.5,769.492 "
   style="fill:#231815"
   id="polygon9"
   transform="matrix(0.9136179,0,0,0.9136181,66.159501,60.009026)" /><polygon
   points="240.502,913.496 361,983.496 361,983.496 361,992.5 236.503,920.996 236.503,915.996 "
   style="fill:#231815"
   id="polygon11"
   transform="matrix(0.9136179,0,0,0.9136181,66.159501,60.009026)" /><polygon
   points="361,983.496 481.503,913.496 481.503,913.496 485.502,915.996 485.502,920.488 361,992.5 "
   style="fill:#231815"
   id="polygon13"
   transform="matrix(0.9136179,0,0,0.9136181,66.159501,60.009026)" /><polygon
   points="485.502,915.996 481.503,913.496 481.503,774.492 481.503,774.492 485.502,771.992 489.501,774.492 489.501,913.496 "
   style="fill:#231815"
   id="polygon15"
   transform="matrix(0.9136179,0,0,0.9136181,66.159501,60.009026)" /><polygon
   points="481.503,774.492 361,704.492 361,704.492 361,695.488 481,765 485.502,771.992 "
   style="fill:#231815"
   id="polygon17"
   transform="matrix(0.9136179,0,0,0.9136181,66.159501,60.009026)" /><polygon
   points="240.502,774.492 240.502,774.492 232.5,769.492 361,695.488 361,704.492 "
   style="fill:#231815"
   id="polygon19"
   transform="matrix(0.9136179,0,0,0.9136181,66.159501,60.009026)" /><polygon
   points="489.501,913.496 610.502,983.496 610.502,983.496 610.502,992.5 485.502,920.488 485.502,915.996 "
   style="fill:#231815"
   id="polygon21"
   transform="matrix(0.9136179,0,0,0.9136181,66.159501,60.009026)" /><polygon
   points="612.5,954.492 612.5,954.492 608.5,961.504 509.501,904.492 513.5,897.5 "
   style="fill:#231815"
   id="polygon23"
   transform="matrix(0.9136179,0,0,0.9136181,66.159501,60.009026)" /><polygon
   points="731,913.496 731,913.496 739.003,918.496 610.502,992.5 610.502,983.496 "
   style="fill:#231815"
   id="polygon25"
   transform="matrix(0.9136179,0,0,0.9136181,66.159501,60.009026)" /><polygon
   points="731,913.496 731,774.492 731,774.492 735,771.992 739.003,774.492 739.003,918.496 "
   style="fill:#231815"
   id="polygon27"
   transform="matrix(0.9136179,0,0,0.9136181,66.159501,60.009026)" /><polygon
   points="735,771.992 731,774.492 610.502,704.492 610.502,704.492 610.502,700 614.501,697.5 730,764.492 "
   style="fill:#231815"
   id="polygon29"
   transform="matrix(0.9136179,0,0,0.9136181,66.159501,60.009026)" /><polygon
   points="610.502,700 610.502,704.492 489.501,774.492 489.501,774.492 485.502,771.992 490.502,765 606.503,697.5 "
   style="fill:#231815"
   id="polygon31"
   transform="matrix(0.9136179,0,0,0.9136181,66.159501,60.009026)" /><polygon
   points="735,771.992 740,764.492 856.005,697.5 856.005,697.5 860,700 860.498,704.492 739.003,774.492 "
   style="fill:#231815"
   id="polygon33"
   transform="matrix(0.9136179,0,0,0.9136181,66.159501,60.009026)" /><polygon
   points="860,700 856.005,697.5 856.005,558.496 856.005,558.496 860,555.996 864.003,559.004 864.003,696.992 "
   style="fill:#231815"
   id="polygon35"
   transform="matrix(0.9136179,0,0,0.9136181,66.159501,60.009026)" /><polygon
   points="856.005,558.496 735,488.496 735,488.496 735,479.497 855.498,549.004 860,555.996 "
   style="fill:#231815"
   id="polygon37"
   transform="matrix(0.9136179,0,0,0.9136181,66.159501,60.009026)" /><polygon
   points="614.501,558.496 614.501,558.496 606.503,553.496 735,479.497 735,488.496 "
   style="fill:#231815"
   id="polygon39"
   transform="matrix(0.9136179,0,0,0.9136181,66.159501,60.009026)" /><polygon
   points="614.501,558.496 614.501,697.5 614.501,697.5 610.502,700 606.503,697.5 606.503,553.496 "
   style="fill:#231815"
   id="polygon41"
   transform="matrix(0.9136179,0,0,0.9136181,66.159501,60.009026)" /><polygon
   points="864.003,696.992 995.498,740 995.498,740 998.505,749.004 860.498,704.492 860,700 "
   style="fill:#231815"
   id="polygon43"
   transform="matrix(0.9136179,0,0,0.9136181,66.159501,60.009026)" /><polygon
   points="1076.503,627.988 1076.503,627.988 1086.503,627.988 998.505,749.004 995.498,740 "
   style="fill:#231815"
   id="polygon45"
   transform="matrix(0.9136179,0,0,0.9136181,66.159501,60.009026)" /><polygon
   points="1076.503,627.988 995.498,515.996 995.498,515.996 997.001,511.499 1001.503,510.996 1086.503,627.988 "
   style="fill:#231815"
   id="polygon47"
   transform="matrix(0.9136179,0,0,0.9136181,66.159501,60.009026)" /><polygon
   points="997.001,511.499 995.498,515.996 864.003,559.004 864.003,559.004 860,555.996 864.501,550.488 993.505,508.496 "
   style="fill:#231815"
   id="polygon49"
   transform="matrix(0.9136179,0,0,0.9136181,66.159501,60.009026)" /><polygon
   points="860,555.996 855.498,549.004 845,411.997 845,411.997 860,411.997 875,411.997 864.501,550.488 "
   style="fill:#231815"
   id="polygon51"
   transform="matrix(0.9136179,0,0,0.9136181,66.159501,60.009026)" /><text
   id="text53"
   x="704.7865"
   y="669.3833"
   style="font-size:10.9634161px"><tspan
     x="704.7865"
     y="669.3833"
     style="font-size:91.36180115px;fill:#231815;font-family:ArialMT"
     id="tspan55">H</tspan></text>
<polygon
   points="730,764.492 720,679.004 720,679.004 750,679.004 740,764.492 735,771.992 "
   style="fill:#231815"
   id="polygon57"
   transform="matrix(0.9136179,0,0,0.9136181,66.159501,60.009026)" /><polygon
   points="485.502,771.992 481,765 470.502,627.988 470.502,627.988 485.502,627.988 500.502,627.988 490.502,765 "
   style="fill:#231815"
   id="polygon59"
   transform="matrix(0.9136179,0,0,0.9136181,66.159501,60.009026)" /><g
   id="g3278"
   transform="translate(26.366096,15.313143)"><polygon
     transform="matrix(0.9136179,0,0,0.9136181,66.159501,60.009026)"
     id="polygon63"
     style="fill:#231815"
     points="1187.5,378.999 1055.498,378.999 1026.503,370.996 1182.998,370.996 1182.998,370.996 " /><polygon
     transform="matrix(0.9136179,0,0,0.9136181,66.159501,60.009026)"
     id="polygon65"
     style="fill:#231815"
     points="956.005,257.998 984.003,246.499 982.001,242.998 985.498,250 961.005,264.497 956.005,257.998 " /><polygon
     transform="matrix(0.9136179,0,0,0.9136181,66.159501,60.009026)"
     id="polygon67"
     style="fill:#231815"
     points="992.001,263.999 995.498,270.996 974.003,283.496 969.501,276.997 969.501,276.997 " /><polygon
     transform="matrix(0.9136179,0,0,0.9136181,66.159501,60.009026)"
     id="polygon69"
     style="fill:#231815"
     points="1001.503,285 1005,292.5 987.5,302.5 982.998,295.996 982.998,295.996 " /><polygon
     transform="matrix(0.9136179,0,0,0.9136181,66.159501,60.009026)"
     id="polygon71"
     style="fill:#231815"
     points="1011.503,305.996 1015,313.496 1001.005,321.499 996.503,315 996.503,315 " /><polygon
     transform="matrix(0.9136179,0,0,0.9136181,66.159501,60.009026)"
     id="polygon73"
     style="fill:#231815"
     points="1021.503,327.5 1024.501,334.497 1014.501,340.498 1009.501,333.999 1009.501,333.999 " /><polygon
     transform="matrix(0.9136179,0,0,0.9136181,66.159501,60.009026)"
     id="polygon75"
     style="fill:#231815"
     points="1031.005,348.496 1034.501,355.498 1027.5,359.497 1022.998,352.998 1022.998,352.998 " /><polygon
     transform="matrix(0.9136179,0,0,0.9136181,66.159501,60.009026)"
     id="polygon77"
     style="fill:#231815"
     points="1259.501,254.497 1187.5,378.999 1182.998,370.996 1255,246.499 1255,246.499 " /><polygon
     transform="matrix(0.9136179,0,0,0.9136181,66.159501,60.009026)"
     id="polygon79"
     style="fill:#231815"
     points="1403.505,254.497 1259.501,254.497 1255,246.499 1399.003,246.499 1399.003,246.499 " /><polygon
     transform="matrix(0.9136179,0,0,0.9136181,66.159501,60.009026)"
     id="polygon81"
     style="fill:#231815"
     points="1468.505,125.996 1472.998,125.996 1475,130 1403.505,254.497 1399.003,246.499 1468.505,125.996 " /><polygon
     transform="matrix(0.9136179,0,0,0.9136181,66.159501,60.009026)"
     id="polygon83"
     style="fill:#231815"
     points="1616.503,121.997 1616.503,121.997 1616.503,125.996 1616.503,130 1475,130 1472.998,125.996 1475,121.997 " /><polygon
     transform="matrix(0.9136179,0,0,0.9136181,66.159501,60.009026)"
     id="polygon85"
     style="fill:#231815"
     points="1397.5,3.999 1397.5,3.999 1401.005,1.997 1404.501,0 1475,121.997 1472.998,125.996 1468.505,125.996 " /></g><text
   id="text87"
   x="818.98834"
   y="866.72833"
   style="font-size:10.9634161px"><tspan
     x="818.98834"
     y="866.72833"
     style="font-size:91.36180115px;fill:#231815;font-family:ArialMT"
     id="tspan89">H</tspan></text>
<polygon
   points="875,800 875,800 845,800 846.005,791.992 873.505,791.992 "
   style="fill:#231815"
   id="polygon91"
   transform="matrix(0.9136179,0,0,0.9136181,66.159501,60.009026)" /><polygon
   points="871.503,775.996 871.503,775.996 847.998,775.996 849.003,767.988 870.498,767.988 "
   style="fill:#231815"
   id="polygon93"
   transform="matrix(0.9136179,0,0,0.9136181,66.159501,60.009026)" /><polygon
   points="867.998,751.992 867.998,751.992 851.503,751.992 852.5,744.004 867.001,744.004 "
   style="fill:#231815"
   id="polygon95"
   transform="matrix(0.9136179,0,0,0.9136181,66.159501,60.009026)" /><polygon
   points="865,727.988 865,727.988 854.501,727.988 856.005,720 864.003,720 "
   style="fill:#231815"
   id="polygon97"
   transform="matrix(0.9136179,0,0,0.9136181,66.159501,60.009026)" /><text
   id="text99"
   x="591.03302"
   y="866.72833"
   style="font-size:10.9634161px"><tspan
     x="591.03302"
     y="866.72833"
     style="font-size:91.36180115px;fill:#231815;font-family:ArialMT"
     id="tspan101">H</tspan></text>
<polygon
   points="625.502,800 625.502,800 595.502,800 596.503,791.992 624.501,791.992 "
   style="fill:#231815"
   id="polygon103"
   transform="matrix(0.9136179,0,0,0.9136181,66.159501,60.009026)" /><polygon
   points="622.001,775.996 622.001,775.996 598.5,775.996 600,767.988 621,767.988 "
   style="fill:#231815"
   id="polygon105"
   transform="matrix(0.9136179,0,0,0.9136181,66.159501,60.009026)" /><polygon
   points="619.003,751.992 619.003,751.992 602.001,751.992 603.002,744.004 617.5,744.004 "
   style="fill:#231815"
   id="polygon107"
   transform="matrix(0.9136179,0,0,0.9136181,66.159501,60.009026)" /><polygon
   points="615.502,727.988 615.502,727.988 605.502,727.988 606.503,720 614.501,720 "
   style="fill:#231815"
   id="polygon109"
   transform="matrix(0.9136179,0,0,0.9136181,66.159501,60.009026)" /><text
   id="text111"
   x="66.161339"
   y="997.83167"
   style="font-size:10.9634161px"><tspan
     x="66.161339"
     y="997.83167"
     style="font-size:91.36180115px;fill:#231815;font-family:ArialMT"
     id="tspan113">HO</tspan></text>
<polygon
   points="236.503,920.996 158.5,978.496 158.5,978.496 143.5,952.5 232.5,913.496 236.503,915.996 "
   style="fill:#231815"
   id="polygon115"
   transform="matrix(0.9136179,0,0,0.9136181,66.159501,60.009026)" />
	<g
   id="g3233"
   transform="matrix(0,-1,1,0,182.31933,1681.2501)"><polygon
     transform="matrix(0.91361788,0,0,0.9136181,370.54589,151.68362)"
     id="polygon91-2"
     style="fill:#231815"
     points="845,800 846.005,791.992 873.505,791.992 875,800 875,800 " /><polygon
     transform="matrix(0.91361788,0,0,0.9136181,370.54589,151.68362)"
     id="polygon93-4"
     style="fill:#231815"
     points="847.998,775.996 849.003,767.988 870.498,767.988 871.503,775.996 871.503,775.996 " /><polygon
     transform="matrix(0.91361788,0,0,0.9136181,370.54589,151.68362)"
     id="polygon95-5"
     style="fill:#231815"
     points="851.503,751.992 852.5,744.004 867.001,744.004 867.998,751.992 867.998,751.992 " /><polygon
     transform="matrix(0.91361788,0,0,0.9136181,370.54589,151.68362)"
     id="polygon97-5"
     style="fill:#231815"
     points="854.501,727.988 856.005,720 864.003,720 865,727.988 865,727.988 " /></g><text
   id="text87-1"
   x="1068.2913"
   y="556.41321"
   style="font-size:10.9634161px"><tspan
     x="1068.2913"
     y="556.41321"
     style="font-size:91.36179352px;fill:#231815;font-family:ArialMT"
     id="tspan89-7">H</tspan></text>
<polygon
   points="1182.998,370.996 1255,246.499 1255,246.499 1259.501,254.497 1187.5,378.999 "
   style="fill:#231815"
   id="polygon77-1"
   transform="matrix(0.91361788,0,0,0.9136181,-107.14721,187.12804)" /></svg>