<?xml version="1.0"?>
<svg xmlns:rdf="http://www.w3.org/1999/02/22-rdf-syntax-ns#" xmlns="http://www.w3.org/2000/svg" xmlns:cc="http://creativecommons.org/ns#" xmlns:dc="http://purl.org/dc/elements/1.1/" id="svg2" xml:space="preserve" height="295.57" width="440" version="1.0" viewBox="0 0 1616.503 1058.963">
		<polygon id="polygon9" points="240.5 774.49 240.5 913.5 240.5 913.5 236.5 916 232.5 913.5 232.5 769.49" fill="#231815" transform="matrix(.91362 0 0 .91362 66.16 60.009)"/><polygon id="polygon11" points="240.5 913.5 361 983.5 361 983.5 361 992.5 236.5 921 236.5 916" fill="#231815" transform="matrix(.91362 0 0 .91362 66.16 60.009)"/><polygon id="polygon13" points="361 983.5 481.5 913.5 481.5 913.5 485.5 916 485.5 920.49 361 992.5" fill="#231815" transform="matrix(.91362 0 0 .91362 66.16 60.009)"/><polygon id="polygon15" points="485.5 916 481.5 913.5 481.5 774.49 481.5 774.49 485.5 771.99 489.5 774.49 489.5 913.5" fill="#231815" transform="matrix(.91362 0 0 .91362 66.16 60.009)"/><polygon id="polygon17" points="481.5 774.49 361 704.49 361 704.49 361 695.49 481 765 485.5 771.99" fill="#231815" transform="matrix(.91362 0 0 .91362 66.16 60.009)"/><polygon id="polygon19" points="240.5 774.49 240.5 774.49 232.5 769.49 361 695.49 361 704.49" fill="#231815" transform="matrix(.91362 0 0 .91362 66.16 60.009)"/><polygon id="polygon21" points="489.5 913.5 610.5 983.5 610.5 983.5 610.5 992.5 485.5 920.49 485.5 916" fill="#231815" transform="matrix(.91362 0 0 .91362 66.16 60.009)"/><polygon id="polygon23" points="612.5 954.49 612.5 954.49 608.5 961.5 509.5 904.49 513.5 897.5" fill="#231815" transform="matrix(.91362 0 0 .91362 66.16 60.009)"/><polygon id="polygon25" points="731 913.5 731 913.5 739 918.5 610.5 992.5 610.5 983.5" fill="#231815" transform="matrix(.91362 0 0 .91362 66.16 60.009)"/><polygon id="polygon27" points="731 913.5 731 774.49 731 774.49 735 771.99 739 774.49 739 918.5" fill="#231815" transform="matrix(.91362 0 0 .91362 66.16 60.009)"/><polygon id="polygon29" points="735 771.99 731 774.49 610.5 704.49 610.5 704.49 610.5 700 614.5 697.5 730 764.49" fill="#231815" transform="matrix(.91362 0 0 .91362 66.16 60.009)"/><polygon id="polygon31" points="610.5 700 610.5 704.49 489.5 774.49 489.5 774.49 485.5 771.99 490.5 765 606.5 697.5" fill="#231815" transform="matrix(.91362 0 0 .91362 66.16 60.009)"/><polygon id="polygon33" points="735 771.99 740 764.49 856 697.5 856 697.5 860 700 860.5 704.49 739 774.49" fill="#231815" transform="matrix(.91362 0 0 .91362 66.16 60.009)"/><polygon id="polygon35" points="860 700 856 697.5 856 558.5 856 558.5 860 556 864 559 864 696.99" fill="#231815" transform="matrix(.91362 0 0 .91362 66.16 60.009)"/><polygon id="polygon37" points="856 558.5 735 488.5 735 488.5 735 479.5 855.5 549 860 556" fill="#231815" transform="matrix(.91362 0 0 .91362 66.16 60.009)"/><polygon id="polygon39" points="614.5 558.5 614.5 558.5 606.5 553.5 735 479.5 735 488.5" fill="#231815" transform="matrix(.91362 0 0 .91362 66.16 60.009)"/><polygon id="polygon41" points="614.5 558.5 614.5 697.5 614.5 697.5 610.5 700 606.5 697.5 606.5 553.5" fill="#231815" transform="matrix(.91362 0 0 .91362 66.16 60.009)"/><polygon id="polygon43" points="864 696.99 995.5 740 995.5 740 998.5 749 860.5 704.49 860 700" fill="#231815" transform="matrix(.91362 0 0 .91362 66.16 60.009)"/><polygon id="polygon45" points="1076.5 627.99 1076.5 627.99 1086.5 627.99 998.5 749 995.5 740" fill="#231815" transform="matrix(.91362 0 0 .91362 66.16 60.009)"/><polygon id="polygon47" points="1076.5 627.99 995.5 516 995.5 516 997 511.5 1001.5 511 1086.5 627.99" fill="#231815" transform="matrix(.91362 0 0 .91362 66.16 60.009)"/><polygon id="polygon49" points="997 511.5 995.5 516 864 559 864 559 860 556 864.5 550.49 993.5 508.5" fill="#231815" transform="matrix(.91362 0 0 .91362 66.16 60.009)"/><polygon id="polygon51" points="860 556 855.5 549 845 412 845 412 860 412 875 412 864.5 550.49" fill="#231815" transform="matrix(.91362 0 0 .91362 66.16 60.009)"/><text id="text53" y="669.3833" x="704.7865" font-size="10.963px"><tspan id="tspan55" font-size="91.362px" y="669.3833" x="704.7865" font-family="ArialMT" fill="#231815">H</tspan></text>
<polygon id="polygon57" points="730 764.49 720 679 720 679 750 679 740 764.49 735 771.99" fill="#231815" transform="matrix(.91362 0 0 .91362 66.16 60.009)"/><polygon id="polygon59" points="485.5 771.99 481 765 470.5 627.99 470.5 627.99 485.5 627.99 500.5 627.99 490.5 765" fill="#231815" transform="matrix(.91362 0 0 .91362 66.16 60.009)"/><g id="g3278" fill="#231815" transform="translate(26.366 15.313)"><polygon id="polygon63" points="1187.5 379 1055.5 379 1026.5 371 1183 371 1183 371" transform="matrix(.91362 0 0 .91362 66.16 60.009)"/><polygon id="polygon65" points="956 258 984 246.5 982 243 985.5 250 961 264.5" transform="matrix(.91362 0 0 .91362 66.16 60.009)"/><polygon id="polygon67" points="992 264 995.5 271 974 283.5 969.5 277 969.5 277" transform="matrix(.91362 0 0 .91362 66.16 60.009)"/><polygon id="polygon69" points="1001.5 285 1005 292.5 987.5 302.5 983 296 983 296" transform="matrix(.91362 0 0 .91362 66.16 60.009)"/><polygon id="polygon71" points="1011.5 306 1015 313.5 1001 321.5 996.5 315 996.5 315" transform="matrix(.91362 0 0 .91362 66.16 60.009)"/><polygon id="polygon73" points="1021.5 327.5 1024.5 334.5 1014.5 340.5 1009.5 334 1009.5 334" transform="matrix(.91362 0 0 .91362 66.16 60.009)"/><polygon id="polygon75" points="1031 348.5 1034.5 355.5 1027.5 359.5 1023 353 1023 353" transform="matrix(.91362 0 0 .91362 66.16 60.009)"/><polygon id="polygon77" points="1259.5 254.5 1187.5 379 1183 371 1255 246.5 1255 246.5" transform="matrix(.91362 0 0 .91362 66.16 60.009)"/><polygon id="polygon79" points="1403.5 254.5 1259.5 254.5 1255 246.5 1399 246.5 1399 246.5" transform="matrix(.91362 0 0 .91362 66.16 60.009)"/><polygon id="polygon81" points="1468.5 126 1473 126 1475 130 1403.5 254.5 1399 246.5" transform="matrix(.91362 0 0 .91362 66.16 60.009)"/><polygon id="polygon83" points="1616.5 122 1616.5 122 1616.5 126 1616.5 130 1475 130 1473 126 1475 122" transform="matrix(.91362 0 0 .91362 66.16 60.009)"/><polygon id="polygon85" points="1397.5 3.999 1397.5 3.999 1401 1.997 1404.5 0 1475 122 1473 126 1468.5 126" transform="matrix(.91362 0 0 .91362 66.16 60.009)"/></g><text id="text87" y="866.72833" x="818.98834" font-size="10.963px"><tspan id="tspan89" font-size="91.362px" y="866.72833" x="818.98834" font-family="ArialMT" fill="#231815">H</tspan></text>
<polygon id="polygon91" points="875 800 875 800 845 800 846 791.99 873.5 791.99" fill="#231815" transform="matrix(.91362 0 0 .91362 66.16 60.009)"/><polygon id="polygon93" points="871.5 776 871.5 776 848 776 849 767.99 870.5 767.99" fill="#231815" transform="matrix(.91362 0 0 .91362 66.16 60.009)"/><polygon id="polygon95" points="868 751.99 868 751.99 851.5 751.99 852.5 744 867 744" fill="#231815" transform="matrix(.91362 0 0 .91362 66.16 60.009)"/><polygon id="polygon97" points="865 727.99 865 727.99 854.5 727.99 856 720 864 720" fill="#231815" transform="matrix(.91362 0 0 .91362 66.16 60.009)"/><text id="text99" y="866.72833" x="591.03302" font-size="10.963px"><tspan id="tspan101" font-size="91.362px" y="866.72833" x="591.03302" font-family="ArialMT" fill="#231815">H</tspan></text>
<polygon id="polygon103" points="625.5 800 625.5 800 595.5 800 596.5 791.99 624.5 791.99" fill="#231815" transform="matrix(.91362 0 0 .91362 66.16 60.009)"/><polygon id="polygon105" points="622 776 622 776 598.5 776 600 767.99 621 767.99" fill="#231815" transform="matrix(.91362 0 0 .91362 66.16 60.009)"/><polygon id="polygon107" points="619 751.99 619 751.99 602 751.99 603 744 617.5 744" fill="#231815" transform="matrix(.91362 0 0 .91362 66.16 60.009)"/><polygon id="polygon109" points="615.5 727.99 615.5 727.99 605.5 727.99 606.5 720 614.5 720" fill="#231815" transform="matrix(.91362 0 0 .91362 66.16 60.009)"/><text id="text111" y="997.83167" x="66.161339" font-size="10.963px"><tspan id="tspan113" font-size="91.362px" y="997.83167" x="66.161339" font-family="ArialMT" fill="#231815">HO</tspan></text>
<polygon id="polygon115" points="236.5 921 158.5 978.5 158.5 978.5 143.5 952.5 232.5 913.5 236.5 916" fill="#231815" transform="matrix(.91362 0 0 .91362 66.16 60.009)"/>
	<g id="g3233" fill="#231815" transform="matrix(0 -1 1 0 182.32 1681.3)"><polygon id="polygon91-2" points="845 800 846 791.99 873.5 791.99 875 800 875 800" transform="matrix(.91362 0 0 .91362 370.55 151.68)"/><polygon id="polygon93-4" points="848 776 849 767.99 870.5 767.99 871.5 776 871.5 776" transform="matrix(.91362 0 0 .91362 370.55 151.68)"/><polygon id="polygon95-5" points="851.5 751.99 852.5 744 867 744 868 751.99 868 751.99" transform="matrix(.91362 0 0 .91362 370.55 151.68)"/><polygon id="polygon97-5" points="854.5 727.99 856 720 864 720 865 727.99 865 727.99" transform="matrix(.91362 0 0 .91362 370.55 151.68)"/></g><text id="text87-1" y="556.41321" x="1068.2913" font-size="10.963px"><tspan id="tspan89-7" font-size="91.362px" y="556.41321" x="1068.2913" font-family="ArialMT" fill="#231815">H</tspan></text>
<polygon id="polygon77-1" points="1183 371 1255 246.5 1255 246.5 1259.5 254.5 1187.5 379" fill="#231815" transform="matrix(.91362 0 0 .91362 -107.15 187.13)"/><metadata><rdf:RDF><cc:Work><dc:format>image/svg+xml</dc:format><dc:type rdf:resource="http://purl.org/dc/dcmitype/StillImage"/><cc:license rdf:resource="http://creativecommons.org/licenses/publicdomain/"/><dc:publisher><cc:Agent rdf:about="http://openclipart.org/"><dc:title>Openclipart</dc:title></cc:Agent></dc:publisher></cc:Work><cc:License rdf:about="http://creativecommons.org/licenses/publicdomain/"><cc:permits rdf:resource="http://creativecommons.org/ns#Reproduction"/><cc:permits rdf:resource="http://creativecommons.org/ns#Distribution"/><cc:permits rdf:resource="http://creativecommons.org/ns#DerivativeWorks"/></cc:License></rdf:RDF></metadata></svg>
