<?xml version="1.0"?>
<svg xmlns:rdf="http://www.w3.org/1999/02/22-rdf-syntax-ns#" xmlns="http://www.w3.org/2000/svg" xmlns:cc="http://creativecommons.org/ns#" xmlns:dc="http://purl.org/dc/elements/1.1/" id="svg2" xml:space="preserve" viewBox="0 0 480.64 327.09" version="1.0">
<style id="style4" type="text/css">
   text {font-family: Helvetica, Arial, sans-serif; font-size: 100px}
</style>
<g id="g6" transform="translate(0 -11.7)">
<polygon id="polygon8" points="8 120.8 8 259.8 8 259.8 0 264.8 0 115.8"/>
<polygon id="polygon10" points="8 259.8 129 329.8 129 329.8 129 338.79 0 264.8"/>
<polygon id="polygon12" points="129 329.8 249.5 259.8 249.5 259.8 257.5 264.8 129 338.79"/>
<polygon id="polygon14" points="257.5 264.8 249.5 259.8 249.5 120.8 249.5 120.8 253.5 118.3 257.5 120.8"/>
<polygon id="polygon16" points="253.5 118.3 249.5 120.8 129 50.8 129 50.8 129 41.8 253.5 113.8"/>
<polygon id="polygon18" points="129 50.8 8 120.8 8 120.8 0 115.8 129 41.8"/>
<polygon id="polygon20" points="253.5 118.3 253.5 113.8 333.5 67.8 333.5 67.8 337.5 74.3 257.5 120.8"/>
<text id="text22" font-size="100px" y="85.799797" x="338.50201" font-family="'Helvetica, Arial, sans-serif'">OH</text>
</g>
<metadata><rdf:RDF><cc:Work><dc:format>image/svg+xml</dc:format><dc:type rdf:resource="http://purl.org/dc/dcmitype/StillImage"/><cc:license rdf:resource="http://creativecommons.org/licenses/publicdomain/"/><dc:publisher><cc:Agent rdf:about="http://openclipart.org/"><dc:title>Openclipart</dc:title></cc:Agent></dc:publisher></cc:Work><cc:License rdf:about="http://creativecommons.org/licenses/publicdomain/"><cc:permits rdf:resource="http://creativecommons.org/ns#Reproduction"/><cc:permits rdf:resource="http://creativecommons.org/ns#Distribution"/><cc:permits rdf:resource="http://creativecommons.org/ns#DerivativeWorks"/></cc:License></rdf:RDF></metadata></svg>
