<?xml version="1.0"?>
<svg xmlns:rdf="http://www.w3.org/1999/02/22-rdf-syntax-ns#" xmlns="http://www.w3.org/2000/svg" xmlns:cc="http://web.resource.org/cc/" xmlns:xlink="http://www.w3.org/1999/xlink" xmlns:dc="http://purl.org/dc/elements/1.1/" height="491pt" width="1061pt" viewBox="0 0 1061 491">
 <g transform="translate(417.55 121.85)">
  <path d="m1.7 39.7l-0.85 0.5-0.85-0.5v-39.7l1.7 1v38.7z"/>
 </g>
 <g transform="translate(423.5 125.8)">
  <path d="m1.7 32.8h-1.7v-32.8h1.7v32.8z"/>
 </g>
 <g transform="translate(418.4 161.55)">
  <path d="m34.35 19.35v1.95l-34.35-19.85v-0.95l0.85-0.5 33.5 19.35z"/>
 </g>
 <g transform="translate(452.75 161.55)">
  <path d="m33.5 0s1.7 0.95 1.7 0.95l-35.2 20.35v-1.95l33.5-19.35z"/>
 </g>
 <g transform="translate(452.3 157.85)">
  <path d="m28.45 0l0.85 1.5-28.4 16.4-0.9-1.5 28.45-16.4z"/>
 </g>
 <g transform="translate(486.25 122.35)">
  <path d="m0 0.5l0.85-0.5 0.85 0.5v39.65s-1.7-0.95-1.7-0.95v-38.7z"/>
 </g>
 <g transform="translate(452.75 101.5)">
  <path d="m0 2v-2l34.35 19.85v1l-0.85 0.5-33.5-19.35z"/>
 </g>
 <g transform="translate(452.3 108.65)">
  <path d="m0 1.45l0.9-1.45 28.4 16.4-0.85 1.45-28.45-16.4z"/>
 </g>
 <g transform="translate(417.55 101.5)">
  <path d="m1.7 21.35l-1.7-1 35.2-20.35v2l-33.5 19.35z"/>
 </g>
 <g transform="translate(487.1 102.05)">
  <path d="m33.5 0l0.85 0.45v1l-33.5 19.35-0.85-0.5v-1l33.5-19.3z"/>
 </g>
 <g transform="translate(521.45 102.05)">
  <path d="m34.35 19.3v1l-0.85 0.5-33.5-19.35v-1l0.85-0.45 33.5 19.3z"/>
 </g>
 <g transform="translate(520.6 62.85)">
  <path d="m0 0.5l0.85-0.5 0.85 0.5v38.7l-0.85 0.45-0.85-0.45v-38.7z"/>
 </g>
 <g transform="translate(554.95 122.35)">
  <path d="m1.7 39.2s-1.7 0.95-1.7 0.95v-39.65l0.85-0.5 0.85 0.5v38.7z"/>
 </g>
 <g transform="translate(560.9 125.8)">
  <path d="m1.7 32.8h-1.7v-32.8h1.7v32.8z"/>
 </g>
 <g transform="translate(554.95 161.55)">
  <path d="m35.2 19.35v1.95l-35.2-20.35s1.7-0.95 1.7-0.95l33.5 19.35z"/>
 </g>
 <g transform="translate(590.15 161.55)">
  <path d="m33.55 0l0.85 0.5v0.95l-34.4 19.85v-1.95l33.55-19.35z"/>
 </g>
 <g transform="translate(589.75 157.85)">
  <path d="m28.4 0l0.85 1.5-28.4 16.4-0.85-1.5 28.4-16.4z"/>
 </g>
 <g transform="translate(623.7 121.85)">
  <path d="m0 1l1.7-1v39.7l-0.85 0.5-0.85-0.5v-38.7z"/>
 </g>
 <g transform="translate(590.15 101.5)">
  <path d="m0 2v-2l35.25 20.35-1.7 1-33.55-19.35z"/>
 </g>
 <g transform="translate(589.75 108.65)">
  <path d="m0 1.45l0.85-1.45 28.4 16.4-0.85 1.45-28.4-16.4z"/>
 </g>
 <g transform="translate(555.8 101.5)">
  <path d="m0.85 21.35l-0.85-0.5v-1l34.35-19.85v2l-33.5 19.35z"/>
 </g>
 <g transform="translate(367.15 172.97)" fill-rule="evenodd">
  <path d="m14.736 5.712c-0.696-3.84-2.904-5.712-6.744-5.712-2.352 0-4.248 0.744-5.544 2.184-1.584 1.728-2.448 4.224-2.448 7.056 0 2.88 0.888 5.352 2.544 7.056 1.344 1.392 3.072 2.04 5.352 2.04 4.272 0 6.672-2.304 7.2-6.936h-2.304c-0.192 1.2-0.432 2.016-0.792 2.712-0.72 1.44-2.208 2.256-4.08 2.256-3.48 0-5.688-2.784-5.688-7.152 0-4.488 2.112-7.248 5.496-7.248 1.416 0 2.736 0.432 3.456 1.104 0.648 0.6 1.008 1.344 1.272 2.64h2.28z"/>
 </g>
 <g transform="translate(385.13 173.25)" fill-rule="evenodd">
  <path d="m2.016 0h-2.016v17.496h2.016v-17.496z"/>
 </g>
 <g transform="translate(390.1 161.55)">
  <path d="m0.85 18.3l-0.85-1.45 27.45-16.85 0.85 0.5v0.95l-27.45 16.85z"/>
 </g>
 <g transform="translate(651.4 172.97)" fill-rule="evenodd">
  <path d="m14.736 5.712c-0.696-3.84-2.904-5.712-6.744-5.712-2.352 0-4.248 0.744-5.544 2.184-1.584 1.728-2.448 4.224-2.448 7.056 0 2.88 0.888 5.352 2.544 7.056 1.344 1.392 3.072 2.04 5.352 2.04 4.272 0 6.672-2.304 7.2-6.936h-2.304c-0.192 1.2-0.432 2.016-0.792 2.712-0.72 1.44-2.208 2.256-4.08 2.256-3.48 0-5.688-2.784-5.688-7.152 0-4.488 2.112-7.248 5.496-7.248 1.416 0 2.736 0.432 3.456 1.104 0.648 0.6 1.008 1.344 1.272 2.64h2.28z"/>
 </g>
 <g transform="translate(669.13 173.25)" fill-rule="evenodd">
  <path d="m2.016 0h-2.016v17.496h2.016v-17.496z"/>
 </g>
 <g transform="translate(624.55 161.55)">
  <path d="m25.95 14.5l-0.85 1.45-25.1-14.5v-0.95l0.85-0.5 25.1 14.5z"/>
 </g>
 <g transform="translate(548.4 34.216)" fill-rule="evenodd">
  <path d="m14.736 5.7119c-0.696-3.8398-2.904-5.7119-6.744-5.7119-2.352 0-4.248 0.7442-5.544 2.1846-1.584 1.7275-2.448 4.2236-2.448 7.0557 0 2.8797 0.888 5.3517 2.544 7.0557 1.344 1.392 3.072 2.04 5.352 2.04 4.272 0 6.672-2.304 7.2-6.936h-2.304c-0.192 1.201-0.432 2.016-0.792 2.712-0.72 1.44-2.208 2.256-4.08 2.256-3.48 0-5.688-2.784-5.688-7.1522 0-4.4873 2.112-7.248 5.496-7.248 1.416 0 2.736 0.4326 3.456 1.1045 0.648 0.5996 1.008 1.3437 1.272 2.6396h2.28z"/>
 </g>
 <g transform="translate(566.13 34.504)" fill-rule="evenodd">
  <path d="m2.016 0h-2.016v17.496h2.016v-17.496z"/>
 </g>
 <g transform="translate(521.45 47.5)">
  <path d="m24.9 0l0.85 1.5-24.9 14.35-0.85-0.5 0.85-1.45 24.05-13.9z"/>
 </g>
 <g transform="translate(470.4 35.216)" fill-rule="evenodd">
  <path d="m14.736 5.7119c-0.696-3.8398-2.904-5.7119-6.744-5.7119-2.352 0-4.248 0.7442-5.544 2.1846-1.584 1.7275-2.448 4.2236-2.448 7.0557 0 2.8797 0.888 5.3517 2.544 7.0557 1.344 1.392 3.072 2.04 5.352 2.04 4.272 0 6.672-2.304 7.2-6.936h-2.304c-0.192 1.201-0.432 2.016-0.792 2.712-0.72 1.44-2.208 2.256-4.08 2.256-3.48 0-5.688-2.784-5.688-7.1522 0-4.4873 2.112-7.248 5.496-7.248 1.416 0 2.736 0.4326 3.456 1.1045 0.648 0.5996 1.008 1.3437 1.272 2.6396h2.28z"/>
 </g>
 <g transform="translate(488.13 35.504)" fill-rule="evenodd">
  <path d="m2.016 0h-2.016v17.496h2.016v-17.496z"/>
 </g>
 <g transform="translate(493.1 45.9)">
  <path d="m0 1.4492l0.9-1.4492 26.6 15.5 0.85 1.449-0.85 0.5-27.5-16z"/>
 </g>
 <g transform="translate(513.9 14.216)" fill-rule="evenodd">
  <path d="m14.736 5.7119c-0.696-3.8398-2.904-5.7119-6.744-5.7119-2.352 0-4.248 0.7442-5.544 2.1846-1.584 1.7275-2.448 4.2236-2.448 7.0557 0 2.8797 0.888 5.3517 2.544 7.0557 1.344 1.392 3.072 2.04 5.352 2.04 4.272 0 6.672-2.304 7.2-6.936h-2.304c-0.192 1.201-0.432 2.016-0.792 2.712-0.72 1.44-2.208 2.256-4.08 2.256-3.48 0-5.688-2.784-5.688-7.1522 0-4.4873 2.112-7.248 5.496-7.248 1.416 0 2.736 0.4326 3.456 1.1045 0.648 0.5996 1.008 1.3437 1.272 2.6396h2.28z"/>
 </g>
 <g transform="translate(531.88 14.504)" fill-rule="evenodd">
  <path d="m2.016 0h-2.016v17.496h2.016v-17.496z"/>
 </g>
 <g transform="translate(520.6 34.65)">
  <path d="m0 0h1.7v26.75l-0.85 1.449-0.85-1.449v-26.75z"/>
 </g>
 <g transform="translate(667.75 246.8)" stroke="#000" stroke-width="1.35" fill="none">
  <path d="m107.25 61.6l-107.25-61.6"/>
 </g>
 <g transform="translate(770.95 303.6)">
  <path d="m16.95 12.2l-12.6-12.2s0.6 3.15-0.35 4.8-4 2.65-4 2.65 16.95 4.75 16.95 4.75"/>
 </g>
 <g transform="translate(791.2 407.25)">
  <path d="m1.7 39.7l-0.85 0.5-0.85-0.5v-39.7l1.7 1v38.7z"/>
 </g>
 <g transform="translate(797.15 411.2)">
  <path d="m1.7 32.8h-1.7v-32.8h1.7v32.8z"/>
 </g>
 <g transform="translate(792.05 446.95)">
  <path d="m34.35 19.35v1.95l-34.35-19.85v-0.95l0.85-0.5 33.5 19.35z"/>
 </g>
 <g transform="translate(826.4 446.95)">
  <path d="m33.55 0s1.7 0.95 1.7 0.95l-35.25 20.35v-1.95l33.55-19.35z"/>
 </g>
 <g transform="translate(826 443.25)">
  <path d="m28.4 0l0.85 1.5-28.4 16.4-0.85-1.5 28.4-16.4z"/>
 </g>
 <g transform="translate(859.95 407.75)">
  <path d="m0 0.5l0.85-0.5 0.85 0.5v39.65s-1.7-0.95-1.7-0.95v-38.7z"/>
 </g>
 <g transform="translate(826.4 386.9)">
  <path d="m0 2v-2l34.4 19.85v1l-0.85 0.5-33.55-19.35z"/>
 </g>
 <g transform="translate(826 394.05)">
  <path d="m0 1.45l0.85-1.45 28.4 16.4-0.85 1.45-28.4-16.4z"/>
 </g>
 <g transform="translate(791.2 386.9)">
  <path d="m1.7 21.35l-1.7-1 35.2-20.35v2l-33.5 19.35z"/>
 </g>
 <g transform="translate(860.8 387.45)">
  <path d="m33.45 0l0.85 0.45v1l-33.45 19.35-0.85-0.5v-1l33.45-19.3z"/>
 </g>
 <g transform="translate(895.1 387.45)">
  <path d="m34.35 19.3v1l-0.85 0.5-33.5-19.35v-1l0.85-0.45 33.5 19.3z"/>
 </g>
 <g transform="translate(928.6 407.75)">
  <path d="m1.7 39.2s-1.7 0.95-1.7 0.95v-39.65l0.85-0.5 0.85 0.5v38.7z"/>
 </g>
 <g transform="translate(934.55 411.2)">
  <path d="m1.7 32.8h-1.7v-32.8h1.7v32.8z"/>
 </g>
 <g transform="translate(928.6 446.95)">
  <path d="m35.25 19.35v1.95l-35.25-20.35s1.7-0.95 1.7-0.95l33.55 19.35z"/>
 </g>
 <g transform="translate(963.85 446.95)">
  <path d="m33.5 0l0.85 0.5v0.95l-34.35 19.85v-1.95l33.5-19.35z"/>
 </g>
 <g transform="translate(963.4 443.25)">
  <path d="m28.4 0l0.85 1.5-28.4 16.4-0.85-1.5 28.4-16.4z"/>
 </g>
 <g transform="translate(997.35 407.25)">
  <path d="m0 1l1.7-1v39.7l-0.85 0.5-0.85-0.5v-38.7z"/>
 </g>
 <g transform="translate(963.85 386.9)">
  <path d="m0 2v-2l35.2 20.35-1.7 1-33.5-19.35z"/>
 </g>
 <g transform="translate(963.4 394.05)">
  <path d="m0 1.45l0.85-1.45 28.4 16.4-0.85 1.45-28.4-16.4z"/>
 </g>
 <g transform="translate(929.45 386.9)">
  <path d="m0.85 21.35l-0.85-0.5v-1l34.4-19.85v2l-33.55 19.35z"/>
 </g>
 <g transform="translate(740.9 458.47)" fill-rule="evenodd">
  <path d="m14.736 5.712c-0.696-3.84-2.904-5.712-6.744-5.712-2.352 0-4.248 0.744-5.544 2.184-1.584 1.728-2.448 4.224-2.448 7.056 0 2.88 0.888 5.352 2.544 7.056 1.344 1.392 3.072 2.04 5.352 2.04 4.272 0 6.672-2.304 7.2-6.936h-2.304c-0.192 1.2-0.432 2.016-0.792 2.712-0.72 1.44-2.208 2.256-4.08 2.256-3.48 0-5.688-2.784-5.688-7.152 0-4.488 2.112-7.248 5.496-7.248 1.416 0 2.736 0.432 3.456 1.104 0.648 0.6 1.008 1.344 1.272 2.64h2.28z"/>
 </g>
 <g transform="translate(758.63 458.75)" fill-rule="evenodd">
  <path d="m2.016 0h-2.016v17.496h2.016v-17.496z"/>
 </g>
 <g transform="translate(763.75 446.95)">
  <path d="m0.9 18.3l-0.9-1.45 27.45-16.85 0.85 0.5v0.95l-27.4 16.85z"/>
 </g>
 <g transform="translate(1025.2 458.47)" fill-rule="evenodd">
  <path d="m14.74 5.712c-0.7-3.84-2.91-5.712-6.75-5.712-2.35 0-4.24 0.744-5.54 2.184-1.58 1.728-2.45 4.224-2.45 7.056 0 2.88 0.89 5.352 2.55 7.056 1.34 1.392 3.07 2.04 5.35 2.04 4.27 0 6.67-2.304 7.2-6.936h-2.31c-0.19 1.2-0.43 2.016-0.79 2.712-0.72 1.44-2.21 2.256-4.08 2.256-3.48 0-5.69-2.784-5.69-7.152 0-4.488 2.12-7.248 5.5-7.248 1.42 0 2.74 0.432 3.46 1.104 0.64 0.6 1 1.344 1.27 2.64h2.28z"/>
 </g>
 <g transform="translate(1042.9 458.75)" fill-rule="evenodd">
  <path d="m2.02 0h-2.02v17.496h2.02v-17.496z"/>
 </g>
 <g transform="translate(998.2 446.95)">
  <path d="m26 14.5l-0.85 1.45-25.15-14.5v-0.95l0.85-0.5 25.15 14.5z"/>
 </g>
 <g transform="translate(921.9 319.47)" fill-rule="evenodd">
  <path d="m14.736 5.712c-0.696-3.84-2.904-5.712-6.744-5.712-2.352 0-4.248 0.744-5.544 2.184-1.584 1.728-2.448 4.224-2.448 7.056 0 2.88 0.888 5.352 2.544 7.056 1.344 1.392 3.072 2.04 5.352 2.04 4.272 0 6.672-2.304 7.2-6.936h-2.304c-0.192 1.2-0.432 2.016-0.792 2.712-0.72 1.44-2.208 2.256-4.08 2.256-3.48 0-5.688-2.784-5.688-7.152 0-4.488 2.112-7.248 5.496-7.248 1.416 0 2.736 0.432 3.456 1.104 0.648 0.6 1.008 1.344 1.272 2.64h2.28z"/>
 </g>
 <g transform="translate(939.88 319.75)" fill-rule="evenodd">
  <path d="m2.016 0h-2.016v17.496h2.016v-17.496z"/>
 </g>
 <g transform="translate(895.1 332.9)">
  <path d="m24.95 0l0.85 1.5-24.95 14.35-0.85-0.5 0.85-1.45 24.1-13.9z"/>
 </g>
 <g transform="translate(843.9 320.47)" fill-rule="evenodd">
  <path d="m14.736 5.712c-0.696-3.84-2.904-5.712-6.744-5.712-2.352 0-4.248 0.744-5.544 2.184-1.584 1.728-2.448 4.224-2.448 7.056 0 2.88 0.888 5.352 2.544 7.056 1.344 1.392 3.072 2.04 5.352 2.04 4.272 0 6.672-2.304 7.2-6.936h-2.304c-0.192 1.2-0.432 2.016-0.792 2.712-0.72 1.44-2.208 2.256-4.08 2.256-3.48 0-5.688-2.784-5.688-7.152 0-4.488 2.112-7.248 5.496-7.248 1.416 0 2.736 0.432 3.456 1.104 0.648 0.6 1.008 1.344 1.272 2.64h2.28z"/>
 </g>
 <g transform="translate(861.88 320.75)" fill-rule="evenodd">
  <path d="m2.016 0h-2.016v17.496h2.016v-17.496z"/>
 </g>
 <g transform="translate(866.8 331.3)">
  <path d="m0 1.45l0.85-1.45 26.6 15.5 0.85 1.45-0.85 0.5-27.45-16z"/>
 </g>
 <g transform="translate(713.24 199.5)" fill-rule="evenodd">
  <path d="m11.232 9.528v7.968h2.232v-17.496h-2.232v7.56h-9v-7.56h-2.232v17.496h2.256v-7.968h8.976z"/>
 </g>
 <g transform="translate(729.11 208.74)" fill-rule="evenodd">
  <path d="m8.496 11.196h-6.714c0.162-1.044 0.738-1.71 2.304-2.628l1.8-0.972c1.782-0.972 2.7-2.286 2.7-3.852 0-1.062-0.432-2.052-1.188-2.736-0.756-0.683-1.692-1.008-2.898-1.008-1.62 0-2.826 0.576-3.528 1.656-0.45 0.684-0.648 1.476-0.684 2.772h1.584c0.054-0.864 0.162-1.386 0.378-1.8 0.414-0.774 1.242-1.242 2.196-1.242 1.44 0 2.52 1.026 2.52 2.394 0 1.008-0.594 1.872-1.728 2.52l-1.656 0.936c-2.664 1.512-3.438 2.718-3.582 5.526h8.496v-1.566z"/>
 </g>
 <g transform="translate(888.49 299.75)" fill-rule="evenodd">
  <path d="m11.232 9.528v7.968h2.232v-17.496h-2.232v7.56h-9v-7.56h-2.232v17.496h2.256v-7.968h8.976z"/>
 </g>
 <g transform="translate(894.25 319.45)">
  <path d="m0.1 0h1.7l-0.1 27.35-0.85 1.45-0.85-1.45 0.1-27.35z"/>
 </g>
 <g transform="translate(894.25 348.25)">
  <path d="m1.7 39.2l-0.85 0.45-0.85-0.45v-38.7l0.85-0.5 0.85 0.5v38.7z"/>
 </g>
 <g transform="translate(702.25 227.1)" stroke="#000" stroke-width="1.7" fill="none">
  <path d="m72.35 48.85c-12.35 11.5-32.15 13.75-46.8 5.35-19-10.9-25.55-35.2-14.65-54.2"/>
 </g>
 <g transform="translate(770.85 266.65)">
  <path d="m11.15 0l-11.15 8.5s2.55-0.1 3.75 0.8c1.2 0.95 1.65 3.5 1.65 3.5l5.75-12.8"/>
 </g>
 <g transform="translate(776.49 235.75)" fill-rule="evenodd">
  <path d="m11.232 9.528v7.968h2.232v-17.496h-2.232v7.56h-9v-7.56h-2.232v17.496h2.256v-7.968h8.976z"/>
 </g>
 <g transform="translate(793.15 235.47)" fill-rule="evenodd">
  <path d="m14.736 5.712c-0.696-3.84-2.904-5.712-6.744-5.712-2.352 0-4.248 0.744-5.544 2.184-1.584 1.728-2.448 4.224-2.448 7.056 0 2.88 0.888 5.352 2.544 7.056 1.344 1.392 3.072 2.04 5.352 2.04 4.272 0 6.672-2.304 7.2-6.936h-2.304c-0.192 1.2-0.432 2.016-0.792 2.712-0.72 1.44-2.208 2.256-4.08 2.256-3.48 0-5.688-2.784-5.688-7.152 0-4.488 2.112-7.248 5.496-7.248 1.416 0 2.736 0.432 3.456 1.104 0.648 0.6 1.008 1.344 1.272 2.64h2.28z"/>
 </g>
 <g transform="translate(810.88 235.75)" fill-rule="evenodd">
  <path d="m2.016 0h-2.016v17.496h2.016v-17.496z"/>
 </g>
 <g transform="translate(268.1 246.6)" stroke="#000" stroke-width="1.35" fill="none">
  <path d="m0 61.8l107.15-61.8"/>
 </g>
 <g transform="translate(255.25 303.55)">
  <path d="m0 12.25s16.95-4.75 16.95-4.75-3.1-1.05-4.05-2.7c-0.95-1.6-0.3-4.8-0.3-4.8l-12.6 12.25"/>
 </g>
 <g transform="translate(66.2 407.25)">
  <path d="m1.7002 39.7l-0.8506 0.5-0.8496-0.5v-39.7l1.7002 1v38.7z"/>
 </g>
 <g transform="translate(72.15 411.2)">
  <path d="m1.6992 32.8h-1.6992v-32.8h1.6992v32.8z"/>
 </g>
 <g transform="translate(67.05 446.95)">
  <path d="m34.35 19.35v1.95l-34.35-19.85v-0.95l0.8506-0.5 33.499 19.35z"/>
 </g>
 <g transform="translate(101.4 446.95)">
  <path d="m33.55 0s1.7 0.95 1.7 0.95l-35.25 20.35v-1.95l33.55-19.35z"/>
 </g>
 <g transform="translate(101 443.25)">
  <path d="m28.4 0l0.85 1.5-28.4 16.4-0.85-1.5 28.4-16.4z"/>
 </g>
 <g transform="translate(134.95 407.75)">
  <path d="m0 0.5l0.85-0.5 0.85 0.5v39.65s-1.7-0.95-1.7-0.95v-38.7z"/>
 </g>
 <g transform="translate(101.4 386.9)">
  <path d="m0 2v-2l34.4 19.85v1l-0.85 0.5-33.55-19.35z"/>
 </g>
 <g transform="translate(101 394.05)">
  <path d="m0 1.45l0.85-1.45 28.4 16.4-0.85 1.45-28.4-16.4z"/>
 </g>
 <g transform="translate(66.2 386.9)">
  <path d="m1.7002 21.35l-1.7002-1 35.2-20.35v2l-33.5 19.35z"/>
 </g>
 <g transform="translate(135.8 386.95)">
  <path d="m34.3 0v1.95l-33.45 19.35-0.85-0.5v-1l34.3-19.8z"/>
 </g>
 <g transform="translate(170.1 386.95)">
  <path d="m34.35 19.8v1l-0.85 0.5-33.5-19.35v-1.95l34.35 19.8z"/>
 </g>
 <g transform="translate(166.3 346.55)">
  <path d="m0 0h1.7v43.1h-1.7v-43.1z"/>
 </g>
 <g transform="translate(172.25 346.55)">
  <path d="m0 0h1.7v43.1h-1.7v-43.1z"/>
 </g>
 <g transform="translate(203.6 407.75)">
  <path d="m1.7 39.2s-1.7 0.95-1.7 0.95v-39.65l0.85-0.5 0.85 0.5v38.7z"/>
 </g>
 <g transform="translate(209.55 411.2)">
  <path d="m1.7 32.8h-1.7v-32.8h1.7v32.8z"/>
 </g>
 <g transform="translate(203.6 446.95)">
  <path d="m35.25 19.35v1.95l-35.25-20.35s1.7-0.95 1.7-0.95l33.55 19.35z"/>
 </g>
 <g transform="translate(238.85 446.95)">
  <path d="m33.5 0l0.85 0.5v0.95l-34.35 19.85v-1.95l33.5-19.35z"/>
 </g>
 <g transform="translate(238.4 443.25)">
  <path d="m28.4 0l0.85 1.5-28.4 16.4-0.85-1.5 28.4-16.4z"/>
 </g>
 <g transform="translate(272.35 407.25)">
  <path d="m0 1l1.7-1v39.7l-0.85 0.5-0.85-0.5v-38.7z"/>
 </g>
 <g transform="translate(238.85 386.9)">
  <path d="m0 2v-2l35.2 20.35-1.7 1-33.5-19.35z"/>
 </g>
 <g transform="translate(238.4 394.05)">
  <path d="m0 1.45l0.85-1.45 28.4 16.4-0.85 1.45-28.4-16.4z"/>
 </g>
 <g transform="translate(204.45 386.9)">
  <path d="m0.85 21.35l-0.85-0.5v-1l34.4-19.85v2l-33.55 19.35z"/>
 </g>
 <g transform="translate(15.902 458.47)" fill-rule="evenodd">
  <path d="m14.735 5.712c-0.695-3.84-2.903-5.712-6.7437-5.712-2.3516 0-4.2471 0.744-5.544 2.184-1.584 1.728-2.4473 4.224-2.4473 7.056 0 2.88 0.8877 5.352 2.544 7.056 1.3437 1.392 3.0713 2.04 5.3516 2.04 4.2724 0 6.6714-2.304 7.2004-6.936h-2.304c-0.192 1.2-0.433 2.016-0.792 2.712-0.721 1.44-2.208 2.256-4.08 2.256-3.4805 0-5.6885-2.784-5.6885-7.152 0-4.488 2.1123-7.248 5.4961-7.248 1.416 0 2.7364 0.432 3.4564 1.104 0.648 0.6 1.008 1.344 1.272 2.64h2.279z"/>
 </g>
 <g transform="translate(33.632 458.75)" fill-rule="evenodd">
  <path d="m2.0166 0h-2.0166v17.496h2.0166v-17.496z"/>
 </g>
 <g transform="translate(38.75 446.95)">
  <path d="m0.9004 18.3l-0.9004-1.45 27.45-16.85 0.85 0.5v0.95l-27.4 16.85z"/>
 </g>
 <g transform="translate(300.15 458.47)" fill-rule="evenodd">
  <path d="m14.736 5.712c-0.696-3.84-2.904-5.712-6.744-5.712-2.352 0-4.248 0.744-5.544 2.184-1.584 1.728-2.448 4.224-2.448 7.056 0 2.88 0.888 5.352 2.544 7.056 1.344 1.392 3.072 2.04 5.352 2.04 4.272 0 6.672-2.304 7.2-6.936h-2.304c-0.192 1.2-0.432 2.016-0.792 2.712-0.72 1.44-2.208 2.256-4.08 2.256-3.48 0-5.688-2.784-5.688-7.152 0-4.488 2.112-7.248 5.496-7.248 1.416 0 2.736 0.432 3.456 1.104 0.648 0.6 1.008 1.344 1.272 2.64h2.28z"/>
 </g>
 <g transform="translate(317.88 458.75)" fill-rule="evenodd">
  <path d="m2.016 0h-2.016v17.496h2.016v-17.496z"/>
 </g>
 <g transform="translate(273.2 446.95)">
  <path d="m26 14.5l-0.85 1.45-25.15-14.5v-0.95l0.85-0.5 25.15 14.5z"/>
 </g>
 <g transform="translate(196.9 319.47)" fill-rule="evenodd">
  <path d="m14.736 5.712c-0.696-3.84-2.904-5.712-6.744-5.712-2.352 0-4.248 0.744-5.544 2.184-1.584 1.728-2.448 4.224-2.448 7.056 0 2.88 0.888 5.352 2.544 7.056 1.344 1.392 3.072 2.04 5.352 2.04 4.272 0 6.672-2.304 7.2-6.936h-2.304c-0.192 1.2-0.432 2.016-0.792 2.712-0.72 1.44-2.208 2.256-4.08 2.256-3.48 0-5.688-2.784-5.688-7.152 0-4.488 2.112-7.248 5.496-7.248 1.416 0 2.736 0.432 3.456 1.104 0.648 0.6 1.008 1.344 1.272 2.64h2.28z"/>
 </g>
 <g transform="translate(214.88 319.75)" fill-rule="evenodd">
  <path d="m2.016 0h-2.016v17.496h2.016v-17.496z"/>
 </g>
 <g transform="translate(170.1 332.9)">
  <path d="m24.95 0l0.85 1.5-25.8 14.85v-1.95l24.95-14.4z"/>
 </g>
 <g transform="translate(118.9 320.47)" fill-rule="evenodd">
  <path d="m14.736 5.712c-0.696-3.84-2.904-5.712-6.744-5.712-2.352 0-4.248 0.744-5.544 2.184-1.584 1.728-2.448 4.224-2.448 7.056 0 2.88 0.888 5.352 2.544 7.056 1.344 1.392 3.072 2.04 5.352 2.04 4.272 0 6.672-2.304 7.2-6.936h-2.304c-0.192 1.2-0.432 2.016-0.792 2.712-0.72 1.44-2.208 2.256-4.08 2.256-3.48 0-5.688-2.784-5.688-7.152 0-4.488 2.112-7.248 5.496-7.248 1.416 0 2.736 0.432 3.456 1.104 0.648 0.6 1.008 1.344 1.272 2.64h2.28z"/>
 </g>
 <g transform="translate(136.88 320.75)" fill-rule="evenodd">
  <path d="m2.016 0h-2.016v17.496h2.016v-17.496z"/>
 </g>
 <g transform="translate(141.8 331.3)">
  <path d="m0 1.45l0.85-1.45 27.45 16v1.95l-28.3-16.5z"/>
 </g>
 <g transform="translate(263.7 256.93)" fill-rule="evenodd">
  <path d="m0 0v1.512h10.09v-1.512h-10.09z"/>
 </g>
 <g transform="translate(281.74 249)" fill-rule="evenodd">
  <path d="m11.232 9.528v7.968h2.232v-17.496h-2.232v7.56h-9v-7.56h-2.232v17.496h2.256v-7.968h8.976z"/>
 </g>
 <g transform="translate(298.15 248.72)" fill-rule="evenodd">
  <path d="m14.736 5.712c-0.696-3.84-2.904-5.712-6.744-5.712-2.352 0-4.248 0.744-5.544 2.184-1.584 1.728-2.448 4.224-2.448 7.056 0 2.88 0.888 5.352 2.544 7.056 1.344 1.392 3.072 2.04 5.352 2.04 4.272 0 6.672-2.304 7.2-6.936h-2.304c-0.192 1.2-0.432 2.016-0.792 2.712-0.72 1.44-2.208 2.256-4.08 2.256-3.48 0-5.688-2.784-5.688-7.152 0-4.488 2.112-7.248 5.496-7.248 1.416 0 2.736 0.432 3.456 1.104 0.648 0.6 1.008 1.344 1.272 2.64h2.28z"/>
 </g>
 <g transform="translate(315.88 249)" fill-rule="evenodd">
  <path d="m2.016 0h-2.016v17.496h2.016v-17.496z"/>
 </g>
 <metadata>
  <rdf:RDF>
   <cc:Work>
    <dc:format>image/svg+xml</dc:format>
    <dc:type rdf:resource="http://purl.org/dc/dcmitype/StillImage"/>
    <cc:license rdf:resource="http://creativecommons.org/licenses/publicdomain/"/>
    <dc:publisher>
     <cc:Agent rdf:about="http://openclipart.org/">
      <dc:title>Openclipart</dc:title>
     </cc:Agent>
    </dc:publisher>
   </cc:Work>
   <cc:License rdf:about="http://creativecommons.org/licenses/publicdomain/">
    <cc:permits rdf:resource="http://creativecommons.org/ns#Reproduction"/>
    <cc:permits rdf:resource="http://creativecommons.org/ns#Distribution"/>
    <cc:permits rdf:resource="http://creativecommons.org/ns#DerivativeWorks"/>
   </cc:License>
  </rdf:RDF>
 </metadata>
</svg>
