<?xml version="1.0"?>
<svg xmlns:rdf="http://www.w3.org/1999/02/22-rdf-syntax-ns#" xmlns="http://www.w3.org/2000/svg" xmlns:cc="http://creativecommons.org/ns#" xmlns:dc="http://purl.org/dc/elements/1.1/" id="svg2" viewBox="0 0 189.97 235.34" version="1.1">
 <g id="layer1" transform="translate(-236.52 -130.48)">
  <path id="path4167" fill="#d40000" d="m331.58 130.48c-45.512 0.0334-62.809 4.0154-76.125 17.469-14.972 15.126-18.923 34.337-18.938 92.312-0.0126 49.516 1.7032 62.819 10.312 80.094 4.0986 7.4224 10.162 13.133 16.469 18.688l-22.781 26.781c22.856-4.2549 36.066-9.8785 54-12.5 11.165-2.9503 12.098-3.0438 32.219-2.9062 48.355 0.33045 68.935-4.556 83.188-19.812 7.8992-8.4557 13.31-23.869 15.469-43.938 1.6051-14.923 1.3958-79.893-0.3125-94.25-3.4545-29.033-11.181-43.263-28.406-52.281-14.358-7.517-28.903-9.6828-65.094-9.6562zm-0.46875 65.562h29.312c33.967 3.126 41.968 20.172 43.719 49.125v32.281c-1.7508 28.953-9.7522 45.999-43.719 49.125h-24.844c-33.967-3.126-41.968-20.172-43.719-49.125v-38.125c2.345-24.579 10.698-39.464 39.25-43.281zm40.469 21.75c-24.281 0.3934-52.669 0.1738-55.625 3.75-3.4771 0.96119-3.3464 42.639-4.75 67l1-0.375 59.375-70.375zm12 15.75-1 0.375-59.375 70.375c24.281-0.3934 52.669-0.17379 55.625-3.75 3.4771-0.96119 3.3464-42.639 4.75-67z"/>
 </g>
 <metadata>
  <rdf:RDF>
   <cc:Work>
    <dc:format>image/svg+xml</dc:format>
    <dc:type rdf:resource="http://purl.org/dc/dcmitype/StillImage"/>
    <cc:license rdf:resource="http://creativecommons.org/licenses/publicdomain/"/>
    <dc:publisher>
     <cc:Agent rdf:about="http://openclipart.org/">
      <dc:title>Openclipart</dc:title>
     </cc:Agent>
    </dc:publisher>
   </cc:Work>
   <cc:License rdf:about="http://creativecommons.org/licenses/publicdomain/">
    <cc:permits rdf:resource="http://creativecommons.org/ns#Reproduction"/>
    <cc:permits rdf:resource="http://creativecommons.org/ns#Distribution"/>
    <cc:permits rdf:resource="http://creativecommons.org/ns#DerivativeWorks"/>
   </cc:License>
  </rdf:RDF>
 </metadata>
</svg>
