<?xml version="1.0"?>
<svg xmlns:rdf="http://www.w3.org/1999/02/22-rdf-syntax-ns#" xmlns="http://www.w3.org/2000/svg" xmlns:cc="http://creativecommons.org/ns#" xmlns:xlink="http://www.w3.org/1999/xlink" xmlns:dc="http://purl.org/dc/elements/1.1/" id="svg2" height="268" width="249" version="1.0">
 <defs id="d">
  <linearGradient id="g3">
   <stop id="s8" stop-color="#1e90ff" offset="0"/>
   <stop id="s9" stop-color="#1464b2" offset="1"/>
  </linearGradient>
  <linearGradient id="linearGradient3172" y2="77.995" xlink:href="#g3" gradientUnits="userSpaceOnUse" x2="117.86" y1="87.788" x1="48.975"/>
  <radialGradient id="radialGradient3174" xlink:href="#g3" gradientUnits="userSpaceOnUse" cy="84.331" cx="67.081" gradientTransform="matrix(1 0 0 1.431 0 -36.345)" r="58.42"/>
  <linearGradient id="linearGradient3177" y2="94.321" gradientUnits="userSpaceOnUse" x2="221.69" y1="98.31" x1="116.57">
   <stop id="s1" stop-color="#1e90ff" offset="0"/>
   <stop id="s2" stop-color="#1464b2" offset="0.52"/>
   <stop id="s3" stop-color="#1464b2" offset="0.67"/>
   <stop id="s4" stop-color="#1e90ff" offset="1"/>
  </linearGradient>
  <radialGradient id="radialGradient3179" xlink:href="#g3" gradientUnits="userSpaceOnUse" cy="98.31" cx="175.42" gradientTransform="matrix(1 0 0 1.1743 0 -17.139)" r="72.108"/>
  <linearGradient id="linearGradient3182" y2="144.07" gradientUnits="userSpaceOnUse" x2="4.318" y1="144.07" x1="-3.7498">
   <stop id="s5" stop-color="#783000" offset="0"/>
   <stop id="s6" offset=".75"/>
   <stop id="s7" stop-color="#642800" offset="1"/>
  </linearGradient>
 </defs>
 <rect id="re" transform="matrix(.89301 -.45004 .32183 .94680 0 0)" rx="4.0339" ry="4.0339" height="270.8" width="8.0679" y="8.672" x="-3.7498" fill="url(#linearGradient3182)"/>
 <path id="path3159" stroke-linejoin="bevel" d="m105.38 25.577c-2.31-26.704-3.53 1.368 7.19 3.743 23.99 6.096 48.81 7.313 73.42 5.47 7.52-0.562 39.79-13.088 40.31-9.789-4.39 8.202-7.2 48.577-4.89 69.099-0.26 19.92 22.82 71.49 25.62 88.39-33.73-20.19-58.74-25.22-91.27-15.55-7.95 2.37-26.77 3.53-29.37-6.62-1.8-5.18-0.89-9.14-1.54-15.26-1.86-17.54 1.08 7.52-3.06-8.92-7.4-29.37-14.11-83.859-16.41-110.56z" fill-rule="evenodd" stroke="url(#radialGradient3179)" fill="url(#linearGradient3177)"/>
 <path id="path2186" stroke-linejoin="bevel" d="m9.1613 12.297c17.285 3.218 46.177 5.842 55.172 2.646s18.291-9.4245 28.909-12.622c10.928-3.2896 15.538 0.9599 17.098 11.604 3.86 36.485 13.84 101.48 14.66 132.34-6.92-14.66-27.677-12.16-63.314 21.17-0.027-12.46 1.409-52.57-12.825-79.807-14.235-27.237-17.112-42.203-24.227-51.914s-14.838-17.803-15.473-23.412z" fill-rule="evenodd" stroke="url(#radialGradient3174)" fill="url(#linearGradient3172)"/>
 <metadata>
  <rdf:RDF>
   <cc:Work>
    <dc:format>image/svg+xml</dc:format>
    <dc:type rdf:resource="http://purl.org/dc/dcmitype/StillImage"/>
    <cc:license rdf:resource="http://creativecommons.org/licenses/publicdomain/"/>
    <dc:publisher>
     <cc:Agent rdf:about="http://openclipart.org/">
      <dc:title>Openclipart</dc:title>
     </cc:Agent>
    </dc:publisher>
   </cc:Work>
   <cc:License rdf:about="http://creativecommons.org/licenses/publicdomain/">
    <cc:permits rdf:resource="http://creativecommons.org/ns#Reproduction"/>
    <cc:permits rdf:resource="http://creativecommons.org/ns#Distribution"/>
    <cc:permits rdf:resource="http://creativecommons.org/ns#DerivativeWorks"/>
   </cc:License>
  </rdf:RDF>
 </metadata>
</svg>
