<?xml version="1.0"?>
<svg xmlns:rdf="http://www.w3.org/1999/02/22-rdf-syntax-ns#" xmlns="http://www.w3.org/2000/svg" xmlns:cc="http://creativecommons.org/ns#" xmlns:dc="http://purl.org/dc/elements/1.1/" id="svg2" height="174.37" viewBox="0 0 706.69479 186.64229" width="660.23" version="1.0">
 <g id="g4" stroke-linecap="round" transform="translate(-40.233 -63.357)">
  <g id="g6" stroke-width="2.2756" stroke="#000">
   <line id="line8" x2="183.14" y1="147.36" x1="186.55" y2="153.27"/>
   <line id="line10" x2="188.89" y1="150.68" x1="192.3" y2="156.59"/>
   <line id="line12" x2="194.64" y1="154" x1="198.05" y2="159.91"/>
   <line id="line14" x2="200.38" y1="157.32" x1="203.8" y2="163.23"/>
   <line id="line16" x2="206.13" y1="160.64" x1="209.54" y2="166.55"/>
   <line id="line18" x2="211.88" y1="163.96" x1="215.29" y2="169.87"/>
   <line id="line20" x2="217.63" y1="167.28" x1="221.04" y2="173.19"/>
   <line id="line22" x2="223.37" y1="170.59" x1="226.79" y2="176.51"/>
  </g>
  <g id="g24" stroke-width="2.2756" stroke="#000">
   <line id="line26" x2="80.02" y1="147" x1="126" y2="120.45"/>
  </g>
  <g id="g28" stroke-width="2.2756" stroke="#000">
   <line id="line30" x2="214" y1="147" x1="179.1" y2="126.85"/>
  </g>
  <g id="g32" stroke="#000">
   <polygon id="polygon34" points="126.99 147.57 126.99 147.57 113.94 174.71 108.03 171.29 125.01 146.43" stroke="#000"/>
  </g>
  <g id="g36" stroke-width="2.2756" stroke="#000">
   <line id="line38" x2="179.1" y1="147" x1="126" y2="147"/>
  </g>
  <g id="g40" stroke-width="2.2756" stroke="#000">
   <line id="line42" x2="118.55" y1="153.27" x1="121.96" y2="147.36"/>
   <line id="line44" x2="112.8" y1="156.59" x1="116.21" y2="150.68"/>
   <line id="line46" x2="107.05" y1="159.91" x1="110.46" y2="154"/>
   <line id="line48" x2="101.3" y1="163.23" x1="104.72" y2="157.32"/>
   <line id="line50" x2="95.56" y1="166.55" x1="98.97" y2="160.64"/>
   <line id="line52" x2="89.81" y1="169.87" x1="93.22" y2="163.96"/>
   <line id="line54" x2="84.06" y1="173.19" x1="87.47" y2="167.28"/>
   <line id="line56" x2="78.31" y1="176.51" x1="81.73" y2="170.59"/>
  </g>
  <g id="g58" stroke="#000">
   <polygon id="polygon60" points="180.09 146.43 180.09 146.43 208.61 191.27 202.69 194.69 178.11 147.57" stroke="#000"/>
  </g>
  <path id="text62" d="m227.03 119.23 7.38-10.65h-3.33l-5.64 8.58-5.61-8.58h-3.39l7.26 10.65-7.74 11.22h3.39l6-9.12 5.97 9.12h3.45l-7.74-11.22"/>
  <path id="text64" d="m104.83 193.02v9.96h2.79v-21.87h-2.79v9.45h-11.25v-9.45h-2.79v21.87h2.82v-9.96h11.22"/>
  <polyline id="polyline66" stroke="#000" points="263 151 315.68 151" stroke-width="2.2756" fill="none"/>
  <polygon id="polygon68" points="323.68 151 323.68 151 313.68 148 315.68 151 313.68 154" stroke="#000" fill-rule="evenodd"/>
  <g id="g70" stroke="#000">
   <polygon id="polygon72" points="395 148.93 395 148.93 350.11 177.38 346.7 171.46 393.86 146.96" stroke="#000"/>
  </g>
  <g id="g74" stroke-width="2.2756" stroke="#000">
   <line id="line76" x2="394.43" y1="148.03" x1="447.53" y2="147.94"/>
  </g>
  <g id="g78" stroke-width="2.2756" stroke="#000">
   <line id="line80" x2="482" y1="148.03" x1="447.53" y2="128.19"/>
  </g>
  <g id="g82" stroke-width="2.2756" stroke="#000">
   <line id="line84" x2="390.4" y1="147.57" x1="386.98" y2="141.66"/>
   <line id="line86" x2="384.66" y1="144.24" x1="381.23" y2="138.33"/>
   <line id="line88" x2="378.91" y1="140.91" x1="375.49" y2="135"/>
   <line id="line90" x2="373.17" y1="137.58" x1="369.75" y2="131.68"/>
   <line id="line92" x2="367.43" y1="134.26" x1="364.01" y2="128.35"/>
   <line id="line94" x2="361.69" y1="130.93" x1="358.26" y2="125.02"/>
   <line id="line96" x2="355.94" y1="127.6" x1="352.52" y2="121.69"/>
   <line id="line98" x2="350.2" y1="124.27" x1="346.78" y2="118.36"/>
  </g>
  <g id="g100" stroke="#000">
   <polygon id="polygon102" points="448.51 147.46 448.51 147.46 476.96 192.33 471.04 195.74 446.54 148.59" stroke="#000"/>
  </g>
  <g id="g104" stroke-width="2.2756" stroke="#000">
   <line id="line106" x2="451.55" y1="148.4" x1="454.98" y2="154.31"/>
   <line id="line108" x2="457.29" y1="151.73" x1="460.72" y2="157.63"/>
   <line id="line110" x2="463.03" y1="155.06" x1="466.46" y2="160.96"/>
   <line id="line112" x2="468.78" y1="158.38" x1="472.2" y2="164.29"/>
   <line id="line114" x2="474.52" y1="161.71" x1="477.94" y2="167.62"/>
   <line id="line116" x2="480.26" y1="165.04" x1="483.68" y2="170.94"/>
   <line id="line118" x2="486" y1="168.37" x1="489.42" y2="174.27"/>
   <line id="line120" x2="491.74" y1="171.69" x1="495.16" y2="177.6"/>
  </g>
  <line id="line122" stroke-width="2.0232" y2="151.76" x2="408.58" stroke="#000" y1="157" x1="389.04"/>
  <g id="g124" stroke="#000">
   <ellipse id="ellipse126" d="m 403.5,140.89 c 0,2.76142 -2.23858,5 -5,5 -2.76142,0 -5,-2.23858 -5,-5 0,-2.76142 2.23858,-5 5,-5 2.76142,0 5,2.23858 5,5 z" rx="5" transform="translate(2.1407,23.548)" ry="5" cy="140.89" cx="398.5" fill="none"/>
   <line id="line128" y1="164.44" x2="403.64" x1="397.64" y2="164.44"/>
  </g>
  <path id="text130" d="m495.03 120.33 7.38-10.65h-3.33l-5.64 8.58-5.61-8.58h-3.39l7.26 10.65-7.74 11.22h3.39l6-9.12 5.97 9.12h3.45l-7.74-11.22"/>
  <polyline id="polyline132" stroke="#000" points="520 150 572.68 150" stroke-width="2.2756" fill="none"/>
  <polygon id="polygon134" points="580.68 150 580.68 150 570.68 147 572.68 150 570.68 153" stroke="#000" fill-rule="evenodd"/>
  <g id="g136" stroke-width="2.2756" stroke="#000">
   <line id="line138" x2="705.55" y1="141.73" x1="702.14" y2="147.64"/>
   <line id="line140" x2="711.3" y1="138.41" x1="707.89" y2="144.32"/>
   <line id="line142" x2="717.05" y1="135.09" x1="713.64" y2="141"/>
   <line id="line144" x2="722.8" y1="131.77" x1="719.38" y2="137.68"/>
   <line id="line146" x2="728.54" y1="128.45" x1="725.13" y2="134.36"/>
   <line id="line148" x2="734.29" y1="125.13" x1="730.88" y2="131.04"/>
   <line id="line150" x2="740.04" y1="121.81" x1="736.63" y2="127.72"/>
   <line id="line152" x2="745.79" y1="118.49" x1="742.37" y2="124.41"/>
  </g>
  <g id="g154" stroke-width="2.2756" stroke="#000">
   <line id="line156" x2="640.96" y1="147.64" x1="637.55" y2="141.73"/>
   <line id="line158" x2="635.21" y1="144.32" x1="631.8" y2="138.41"/>
   <line id="line160" x2="629.46" y1="141" x1="626.05" y2="135.09"/>
   <line id="line162" x2="623.72" y1="137.68" x1="620.3" y2="131.77"/>
   <line id="line164" x2="617.97" y1="134.36" x1="614.56" y2="128.45"/>
   <line id="line166" x2="612.22" y1="131.04" x1="608.81" y2="125.13"/>
   <line id="line168" x2="606.47" y1="127.72" x1="603.06" y2="121.81"/>
   <line id="line170" x2="600.73" y1="124.41" x1="597.31" y2="118.49"/>
  </g>
  <g id="g172" stroke-width="2.2756" stroke="#000">
   <line id="line174" x2="698.1" y1="148" x1="645" y2="148"/>
   <line id="line176" x2="694.12" y1="140.04" x1="648.98" y2="140.04"/>
  </g>
  <g id="g178" stroke="#000">
   <polygon id="polygon180" points="645.57 148.99 645.57 148.99 600.73 177.51 597.31 171.59 644.43 147.01" stroke="#000"/>
  </g>
  <g id="g182" stroke="#000">
   <polygon id="polygon184" points="698.67 147.01 698.67 147.01 745.79 171.59 742.37 177.51 697.53 148.99" stroke="#000"/>
  </g>
  <path id="text186" d="m278.32 125.24h-15.12v2.1h15.12v-2.1m17.73-1.95v9.96h2.79v-21.87h-2.79v9.45h-11.25v-9.45h-2.79v21.87h2.82v-9.96h11.22"/>
  <path id="text188" d="m544.32 123.24h-15.12v2.1h15.12v-2.1m12.93-3.21 7.38-10.65h-3.33l-5.64 8.58-5.61-8.58h-3.39l7.26 10.65-7.74 11.22h3.39l6-9.12 5.97 9.12h3.45l-7.74-11.22"/>
  <path id="path190" d="m459 132.68c-11.333-31.787-10.277-52.94 3.17-63.46 13.447-10.513 22.643-3.49 27.59 21.07" stroke="#f00" stroke-width="2.2756" fill="none"/>
  <polygon id="polygon192" fill-rule="evenodd" stroke="#f00" points="491.34 98.13 491.34 98.13 492.31 87.73 489.76 90.29 486.42 88.92" fill="#f00"/>
  <path id="text194" d="m40.233 250h9.87c2.07 0 3.6-0.57 4.77-1.83 1.08-1.14 1.68-2.7 1.68-4.41 0-2.64-1.2-4.23-3.99-5.31 1.98-0.93 3.03-2.55 3.03-4.77 0-1.59-0.6-3-1.74-4.02-1.14-1.05-2.64-1.53-4.74-1.53h-8.88v21.87m2.79-12.45v-6.96h5.4c1.56 0 2.43 0.21 3.18 0.78 0.78 0.6 1.2 1.5 1.2 2.7 0 1.17-0.42 2.1-1.2 2.7-0.75 0.57-1.62 0.78-3.18 0.78h-5.4m0 9.99v-7.53h6.81c1.35 0 2.25 0.33 2.91 1.05 0.66 0.69 1.02 1.65 1.02 2.73 0 1.05-0.36 2.01-1.02 2.7-0.66 0.72-1.56 1.05-2.91 1.05h-6.81"/>
  <line id="line196" stroke-width="2.1588" y2="227.49" x2="58.838" stroke="#000" y1="248.84" x1="62.04"/>
  <path id="path198" d="m72.32 236c51.787-4 68.42-15.23 49.9-33.69" stroke="#f00" stroke-width="2.2756" fill="none"/>
  <polygon id="polygon200" fill-rule="evenodd" stroke="#f00" points="116.55 196.66 116.55 196.66 121.51 205.84 122.22 202.31 125.75 201.59" fill="#f00"/>
 </g>
 <ellipse id="ellipse3350" rx="5" transform="translate(134.27 -94.497)" stroke="#000" ry="5" cy="140.89" cx="398.5" fill="none"/>
 <line id="line3352" y2="46.394" x2="535.76" stroke="#000" y1="46.394" x1="529.76"/>
 <ellipse id="ellipse3354" rx="5" transform="translate(-131.34 -92.271)" stroke="#000" ry="5" cy="140.89" cx="398.5" fill="none"/>
 <line id="line3356" y2="48.62" x2="270.16" stroke="#000" y1="48.62" x1="264.16"/>
 <line id="line3358" y2="45.591" x2="267.18" stroke="#000" y1="51.591" x1="267.19"/>
 <path id="path190-6" d="m354.88 111.37c-0.4432 6.9436 2.315 18.908 8.9554 23.983 9.3629 6.0892 17.198-15.227 22.145-39.787" stroke="#f00" stroke-linecap="round" stroke-width="2.2756" fill="none"/>
 <polygon id="polygon192-9" fill-rule="evenodd" stroke-linecap="round" transform="matrix(1 0 0 -1 -104.8 188.58)" stroke="#f00" points="492.31 87.73 489.76 90.29 486.42 88.92 491.34 98.13 491.34 98.13" fill="#f00"/>
 <metadata>
  <rdf:RDF>
   <cc:Work>
    <dc:format>image/svg+xml</dc:format>
    <dc:type rdf:resource="http://purl.org/dc/dcmitype/StillImage"/>
    <cc:license rdf:resource="http://creativecommons.org/licenses/publicdomain/"/>
    <dc:publisher>
     <cc:Agent rdf:about="http://openclipart.org/">
      <dc:title>Openclipart</dc:title>
     </cc:Agent>
    </dc:publisher>
   </cc:Work>
   <cc:License rdf:about="http://creativecommons.org/licenses/publicdomain/">
    <cc:permits rdf:resource="http://creativecommons.org/ns#Reproduction"/>
    <cc:permits rdf:resource="http://creativecommons.org/ns#Distribution"/>
    <cc:permits rdf:resource="http://creativecommons.org/ns#DerivativeWorks"/>
   </cc:License>
  </rdf:RDF>
 </metadata>
</svg>
