<?xml version="1.0" encoding="UTF-8" standalone="no"?>
<!-- Created with Inkscape (http://www.inkscape.org/) -->

<svg
   xmlns:svg="http://www.w3.org/2000/svg"
   xmlns="http://www.w3.org/2000/svg"
   version="1.0"
   width="192.74414mm"
   height="58.271481mm"
   viewBox="0 0 731 221"
   id="svg2">
  <defs
     id="defs203" />
  <g
     transform="translate(-23,-45)"
     id="g4"
     style="font-size:15px;stroke-linecap:round;font-family:Helvetica">
    <g
       id="g6"
       style="stroke:#000000;stroke-width:2.27555561">
      <line
         x1="186.55"
         x2="183.14"
         y1="147.36"
         y2="153.27"
         id="line8" />
      <line
         x1="192.3"
         x2="188.89"
         y1="150.67999"
         y2="156.59"
         id="line10" />
      <line
         x1="198.05"
         x2="194.64"
         y1="154"
         y2="159.91"
         id="line12" />
      <line
         x1="203.8"
         x2="200.38"
         y1="157.32001"
         y2="163.23"
         id="line14" />
      <line
         x1="209.53999"
         x2="206.13"
         y1="160.64"
         y2="166.55"
         id="line16" />
      <line
         x1="215.28999"
         x2="211.88"
         y1="163.96001"
         y2="169.87"
         id="line18" />
      <line
         x1="221.03999"
         x2="217.63"
         y1="167.28"
         y2="173.19"
         id="line20" />
      <line
         x1="226.78999"
         x2="223.37"
         y1="170.59"
         y2="176.50999"
         id="line22" />
    </g>
    <g
       id="g24"
       style="stroke:#000000;stroke-width:2.27555561">
      <line
         x1="126"
         x2="80.019997"
         y1="147"
         y2="120.45"
         id="line26" />
    </g>
    <g
       id="g28"
       style="stroke:#000000;stroke-width:2.27555561">
      <line
         x1="179.10001"
         x2="214"
         y1="147"
         y2="126.85"
         id="line30" />
    </g>
    <g
       id="g32"
       style="stroke:#000000;stroke-width:1">
      <polygon
         points="113.94,174.71 108.03,171.29 125.01,146.43 126.99,147.57 126.99,147.57 "
         id="polygon34"
         style="fill:#000000;stroke:#000000" />
    </g>
    <g
       id="g36"
       style="stroke:#000000;stroke-width:2.27555561">
      <line
         x1="126"
         x2="179.10001"
         y1="147"
         y2="147"
         id="line38" />
    </g>
    <g
       id="g40"
       style="stroke:#000000;stroke-width:2.27555561">
      <line
         x1="121.96"
         x2="118.55"
         y1="153.27"
         y2="147.36"
         id="line42" />
      <line
         x1="116.21"
         x2="112.8"
         y1="156.59"
         y2="150.67999"
         id="line44" />
      <line
         x1="110.46"
         x2="107.05"
         y1="159.91"
         y2="154"
         id="line46" />
      <line
         x1="104.72"
         x2="101.3"
         y1="163.23"
         y2="157.32001"
         id="line48" />
      <line
         x1="98.970001"
         x2="95.559998"
         y1="166.55"
         y2="160.64"
         id="line50" />
      <line
         x1="93.220001"
         x2="89.809998"
         y1="169.87"
         y2="163.96001"
         id="line52" />
      <line
         x1="87.470001"
         x2="84.059998"
         y1="173.19"
         y2="167.28"
         id="line54" />
      <line
         x1="81.730003"
         x2="78.309998"
         y1="176.50999"
         y2="170.59"
         id="line56" />
    </g>
    <g
       id="g58"
       style="stroke:#000000;stroke-width:1">
      <polygon
         points="208.61,191.27 202.69,194.69 178.11,147.57 180.09,146.43 180.09,146.43 "
         id="polygon60"
         style="fill:#000000;stroke:#000000" />
    </g>
    <path
       d="m 227.03,119.23 7.38,-10.65 -3.33,0 -5.64,8.58 -5.61,-8.58 -3.39,0 7.26,10.65 -7.74,11.22 3.39,0 6,-9.12 5.97,9.12 3.45,0 -7.74,-11.22"
       id="text62"
       style="font-size:30px;fill:#000000;font-family:helvetica" />
    <path
       d="m 104.83,193.02 0,9.96 2.79,0 0,-21.87 -2.79,0 0,9.45 -11.249997,0 0,-9.45 -2.79,0 0,21.87 2.82,0 0,-9.96 11.219997,0"
       id="text64"
       style="font-size:30px;fill:#000000;font-family:helvetica" />
    <polyline
       fill="none"
       points="263.00,151.00 315.68,151.00"
       stroke="#000000"
       stroke-width="2.27555555556"
       id="polyline66"
       style="fill:none;stroke:#000000;stroke-width:2.27555561" />
    <polygon
       points="313.68,148 315.68,151 313.68,154 323.68,151 323.68,151 "
       id="polygon68"
       style="fill:#000000;fill-rule:evenodd;stroke:#000000;stroke-width:1" />
    <g
       id="g70"
       style="stroke:#000000;stroke-width:1">
      <polygon
         points="350.11,177.38 346.7,171.46 393.86,146.96 395,148.93 395,148.93 "
         id="polygon72"
         style="fill:#000000;stroke:#000000" />
    </g>
    <g
       id="g74"
       style="stroke:#000000;stroke-width:2.27555561">
      <line
         x1="447.53"
         x2="394.42999"
         y1="148.03"
         y2="147.94"
         id="line76" />
    </g>
    <g
       id="g78"
       style="stroke:#000000;stroke-width:2.27555561">
      <line
         x1="447.53"
         x2="482"
         y1="148.03"
         y2="128.19"
         id="line80" />
    </g>
    <g
       id="g82"
       style="stroke:#000000;stroke-width:2.27555561">
      <line
         x1="386.98001"
         x2="390.39999"
         y1="147.57001"
         y2="141.66"
         id="line84" />
      <line
         x1="381.23001"
         x2="384.66"
         y1="144.24001"
         y2="138.33"
         id="line86" />
      <line
         x1="375.48999"
         x2="378.91"
         y1="140.91"
         y2="135"
         id="line88" />
      <line
         x1="369.75"
         x2="373.17001"
         y1="137.58"
         y2="131.67999"
         id="line90" />
      <line
         x1="364.01001"
         x2="367.42999"
         y1="134.25999"
         y2="128.35001"
         id="line92" />
      <line
         x1="358.26001"
         x2="361.69"
         y1="130.92999"
         y2="125.02"
         id="line94" />
      <line
         x1="352.51999"
         x2="355.94"
         y1="127.6"
         y2="121.69"
         id="line96" />
      <line
         x1="346.78"
         x2="350.20001"
         y1="124.27"
         y2="118.36"
         id="line98" />
    </g>
    <g
       id="g100"
       style="stroke:#000000;stroke-width:1">
      <polygon
         points="476.96,192.33 471.04,195.74 446.54,148.59 448.51,147.46 448.51,147.46 "
         id="polygon102"
         style="fill:#000000;stroke:#000000" />
    </g>
    <g
       id="g104"
       style="stroke:#000000;stroke-width:2.27555561">
      <line
         x1="454.98001"
         x2="451.54999"
         y1="148.39999"
         y2="154.31"
         id="line106" />
      <line
         x1="460.72"
         x2="457.29001"
         y1="151.73"
         y2="157.63"
         id="line108" />
      <line
         x1="466.45999"
         x2="463.03"
         y1="155.06"
         y2="160.96001"
         id="line110" />
      <line
         x1="472.20001"
         x2="468.78"
         y1="158.38"
         y2="164.28999"
         id="line112" />
      <line
         x1="477.94"
         x2="474.51999"
         y1="161.71001"
         y2="167.62"
         id="line114" />
      <line
         x1="483.67999"
         x2="480.26001"
         y1="165.03999"
         y2="170.94"
         id="line116" />
      <line
         x1="489.42001"
         x2="486"
         y1="168.37"
         y2="174.27"
         id="line118" />
      <line
         x1="495.16"
         x2="491.73999"
         y1="171.69"
         y2="177.60001"
         id="line120" />
    </g>
    <line
       x1="389.04028"
       x2="408.58139"
       y1="156.99628"
       y2="151.75595"
       id="line122"
       style="fill:#000000;stroke:#000000;stroke-width:2.02315426" />
    <g
       id="g124">
      <ellipse
         cx="398.49878"
         cy="140.89136"
         rx="5"
         ry="5"
         transform="translate(2.1407079,23.547788)"
         id="ellipse126"
         style="fill:none;stroke:#000000;stroke-width:1" />
      <line
         x1="397.6395"
         x2="403.6395"
         y1="164.43907"
         y2="164.43907"
         id="line128"
         style="fill:#000000;stroke:#000000;stroke-width:1" />
    </g>
    <path
       d="m 495.02999,120.33 7.38,-10.65 -3.33,0 -5.64,8.58 -5.61,-8.58 -3.39,0 7.26,10.65 -7.74,11.22 3.39,0 6,-9.12 5.97,9.12 3.45,0 -7.74,-11.22"
       id="text130"
       style="font-size:30px;fill:#000000;font-family:helvetica" />
    <polyline
       fill="none"
       points="520.00,150.00 572.68,150.00"
       stroke="#000000"
       stroke-width="2.27555555556"
       id="polyline132"
       style="fill:none;stroke:#000000;stroke-width:2.27555561" />
    <polygon
       points="570.68,147 572.68,150 570.68,153 580.68,150 580.68,150 "
       id="polygon134"
       style="fill:#000000;fill-rule:evenodd;stroke:#000000;stroke-width:1" />
    <g
       id="g136"
       style="stroke:#000000;stroke-width:2.27555561">
      <line
         x1="702.14001"
         x2="705.54999"
         y1="141.73"
         y2="147.64"
         id="line138" />
      <line
         x1="707.89001"
         x2="711.29999"
         y1="138.41"
         y2="144.32001"
         id="line140" />
      <line
         x1="713.64001"
         x2="717.04999"
         y1="135.09"
         y2="141"
         id="line142" />
      <line
         x1="719.38"
         x2="722.79999"
         y1="131.77"
         y2="137.67999"
         id="line144" />
      <line
         x1="725.13"
         x2="728.53998"
         y1="128.45"
         y2="134.36"
         id="line146" />
      <line
         x1="730.88"
         x2="734.28998"
         y1="125.13"
         y2="131.03999"
         id="line148" />
      <line
         x1="736.63"
         x2="740.03998"
         y1="121.81"
         y2="127.72"
         id="line150" />
      <line
         x1="742.37"
         x2="745.78998"
         y1="118.49"
         y2="124.41"
         id="line152" />
    </g>
    <g
       id="g154"
       style="stroke:#000000;stroke-width:2.27555561">
      <line
         x1="637.54999"
         x2="640.96002"
         y1="147.64"
         y2="141.73"
         id="line156" />
      <line
         x1="631.79999"
         x2="635.21002"
         y1="144.32001"
         y2="138.41"
         id="line158" />
      <line
         x1="626.04999"
         x2="629.46002"
         y1="141"
         y2="135.09"
         id="line160" />
      <line
         x1="620.29999"
         x2="623.71997"
         y1="137.67999"
         y2="131.77"
         id="line162" />
      <line
         x1="614.56"
         x2="617.96997"
         y1="134.36"
         y2="128.45"
         id="line164" />
      <line
         x1="608.81"
         x2="612.21997"
         y1="131.03999"
         y2="125.13"
         id="line166" />
      <line
         x1="603.06"
         x2="606.46997"
         y1="127.72"
         y2="121.81"
         id="line168" />
      <line
         x1="597.31"
         x2="600.72998"
         y1="124.41"
         y2="118.49"
         id="line170" />
    </g>
    <g
       id="g172"
       style="stroke:#000000;stroke-width:2.27555561">
      <line
         x1="645"
         x2="698.09998"
         y1="148"
         y2="148"
         id="line174" />
      <line
         x1="648.97998"
         x2="694.12"
         y1="140.03999"
         y2="140.03999"
         id="line176" />
    </g>
    <g
       id="g178"
       style="stroke:#000000;stroke-width:1">
      <polygon
         points="600.73,177.51 597.31,171.59 644.43,147.01 645.57,148.99 645.57,148.99 "
         id="polygon180"
         style="fill:#000000;stroke:#000000" />
    </g>
    <g
       id="g182"
       style="stroke:#000000;stroke-width:1">
      <polygon
         points="745.79,171.59 742.37,177.51 697.53,148.99 698.67,147.01 698.67,147.01 "
         id="polygon184"
         style="fill:#000000;stroke:#000000" />
    </g>
    <path
       d="m 278.32,125.24 -15.12,0 0,2.1 15.12,0 0,-2.1 m 17.72953,-1.95 0,9.96 2.79,0 0,-21.87 -2.79,0 0,9.45 -11.25,0 0,-9.45 -2.79,0 0,21.87 2.82,0 0,-9.96 11.22,0"
       id="text186"
       style="font-size:30px;fill:#000000;font-family:helvetica" />
    <path
       d="m 544.32,123.24 -15.12,0 0,2.1 15.12,0 0,-2.1 m 12.92953,-3.21 7.38,-10.65 -3.33,0 -5.64,8.58 -5.61,-8.58 -3.39,0 7.26,10.65 -7.74,11.22 3.39,0 6,-9.12 5.97,9.12 3.45,0 -7.74,-11.22"
       id="text188"
       style="font-size:30px;fill:#000000;font-family:helvetica" />
    <path
       d="m 459,132.68 c -11.33333,-31.78667 -10.27667,-52.94 3.17,-63.46 13.44667,-10.513333 22.64333,-3.49 27.59,21.07"
       id="path190"
       style="fill:none;stroke:#ff0000;stroke-width:2.27555561;stroke-opacity:1" />
    <polygon
       points="492.31,87.73 489.76,90.29 486.42,88.92 491.34,98.13 491.34,98.13 "
       id="polygon192"
       style="fill:#ff0000;fill-opacity:1;fill-rule:evenodd;stroke:#ff0000;stroke-width:1;stroke-opacity:1" />
    <path
       d="m 40.232831,250 9.87,0 c 2.069998,0 3.600001,-0.57 4.77,-1.83 1.079999,-1.14 1.68,-2.7 1.68,-4.41 0,-2.64 -1.200003,-4.23 -3.99,-5.31 1.979998,-0.93 3.03,-2.55 3.03,-4.77 0,-1.59 -0.600001,-3 -1.74,-4.02 -1.139999,-1.05 -2.640002,-1.53 -4.74,-1.53 l -8.88,0 0,21.87 m 2.79,-12.45 0,-6.96 5.4,0 c 1.559999,0 2.430001,0.21 3.18,0.78 0.779999,0.6 1.2,1.5 1.2,2.7 0,1.17 -0.420001,2.1 -1.2,2.7 -0.749999,0.57 -1.620001,0.78 -3.18,0.78 l -5.4,0 m 0,9.99 0,-7.53 6.81,0 c 1.349999,0 2.250001,0.33 2.91,1.05 0.659999,0.69 1.02,1.65 1.02,2.73 0,1.05 -0.360001,2.01 -1.02,2.7 -0.659999,0.72 -1.560001,1.05 -2.91,1.05 l -6.81,0"
       id="text194"
       style="font-size:30px;fill:#000000;font-family:helvetica" />
    <line
       x1="62.04007"
       x2="58.8377"
       y1="248.84297"
       y2="227.4938"
       id="line196"
       style="fill:#000000;stroke:#000000;stroke-width:2.15879893" />
    <path
       d="m 72.32,236 c 51.78667,-4 68.42,-15.23 49.9,-33.69"
       id="path198"
       style="fill:none;stroke:#ff0000;stroke-width:2.27555561;stroke-opacity:1" />
    <polygon
       points="121.51,205.84 122.22,202.31 125.75,201.59 116.55,196.66 116.55,196.66 "
       id="polygon200"
       style="fill:#ff0000;fill-opacity:1;fill-rule:evenodd;stroke:#ff0000;stroke-width:1;stroke-opacity:1" />
  </g>
  <ellipse
     cx="398.49878"
     cy="140.89136"
     rx="5"
     ry="5"
     transform="translate(151.49589,-76.140335)"
     id="ellipse3350"
     style="fill:none;stroke:#000000;stroke-width:1" />
  <line
     x1="546.99463"
     x2="552.99463"
     y1="64.750954"
     y2="64.750954"
     id="line3352"
     style="fill:#000000;stroke:#000000;stroke-width:1" />
  <ellipse
     cx="398.49878"
     cy="140.89136"
     rx="5"
     ry="5"
     transform="translate(-114.11303,-73.914169)"
     id="ellipse3354"
     style="fill:none;stroke:#000000;stroke-width:1" />
  <line
     x1="281.38577"
     x2="287.38577"
     y1="66.977112"
     y2="66.977112"
     id="line3356"
     style="fill:#000000;stroke:#000000;stroke-width:1" />
  <line
     x1="284.41537"
     x2="284.41458"
     y1="69.947975"
     y2="63.947975"
     id="line3358"
     style="fill:#000000;stroke:#000000;stroke-width:1" />
  <path
     d="m 372.10916,129.73327 c -0.4432,6.94356 2.31505,18.90834 8.95539,23.98328 9.36286,6.08921 17.19826,-15.22742 22.14493,-39.78742"
     id="path190-6"
     style="font-size:15px;fill:none;stroke:#ff0000;stroke-width:2.27555561;stroke-linecap:round;stroke-opacity:1;font-family:Helvetica" />
  <polygon
     points="486.42,88.92 491.34,98.13 491.34,98.13 492.31,87.73 489.76,90.29 "
     transform="matrix(1,0,0,-1,-87.571472,206.94166)"
     id="polygon192-9"
     style="font-size:15px;fill:#ff0000;fill-opacity:1;fill-rule:evenodd;stroke:#ff0000;stroke-width:1;stroke-linecap:round;stroke-opacity:1;font-family:Helvetica" />
</svg>
