<?xml version="1.0"?>
<svg xmlns:rdf="http://www.w3.org/1999/02/22-rdf-syntax-ns#" xmlns="http://www.w3.org/2000/svg" xmlns:cc="http://creativecommons.org/ns#" xmlns:dc="http://purl.org/dc/elements/1.1/" id="svg2" height="180.25" viewBox="0 0 467.2578 192.93455" width="436.53" version="1.0">
 <g id="g4" stroke-linecap="round" transform="translate(-31.67 -57.364)">
  <g id="g6" stroke-width="2.2756" stroke="#000">
   <line id="line8" x2="183.14" y1="147.36" x1="186.55" y2="153.27"/>
   <line id="line10" x2="188.89" y1="150.68" x1="192.3" y2="156.59"/>
   <line id="line12" x2="194.64" y1="154" x1="198.05" y2="159.91"/>
   <line id="line14" x2="200.38" y1="157.32" x1="203.8" y2="163.23"/>
   <line id="line16" x2="206.13" y1="160.64" x1="209.54" y2="166.55"/>
   <line id="line18" x2="211.88" y1="163.96" x1="215.29" y2="169.87"/>
   <line id="line20" x2="217.63" y1="167.28" x1="221.04" y2="173.19"/>
   <line id="line22" x2="223.37" y1="170.59" x1="226.79" y2="176.51"/>
  </g>
  <g id="g24" stroke-width="2.2756" stroke="#000">
   <line id="line26" x2="80.02" y1="147" x1="126" y2="120.45"/>
  </g>
  <g id="g28" stroke-width="2.2756" stroke="#000">
   <line id="line30" x2="214" y1="147" x1="179.1" y2="126.85"/>
  </g>
  <g id="g32" stroke="#000">
   <polygon id="polygon34" points="126.99 147.57 126.99 147.57 113.94 174.71 108.03 171.29 125.01 146.43" stroke="#000"/>
  </g>
  <g id="g36" stroke-width="2.2756" stroke="#000">
   <line id="line38" x2="179.1" y1="147" x1="126" y2="147"/>
  </g>
  <g id="g40" stroke-width="2.2756" stroke="#000">
   <line id="line42" x2="118.55" y1="153.27" x1="121.96" y2="147.36"/>
   <line id="line44" x2="112.8" y1="156.59" x1="116.21" y2="150.68"/>
   <line id="line46" x2="107.05" y1="159.91" x1="110.46" y2="154"/>
   <line id="line48" x2="101.3" y1="163.23" x1="104.72" y2="157.32"/>
   <line id="line50" x2="95.56" y1="166.55" x1="98.97" y2="160.64"/>
   <line id="line52" x2="89.81" y1="169.87" x1="93.22" y2="163.96"/>
   <line id="line54" x2="84.06" y1="173.19" x1="87.47" y2="167.28"/>
   <line id="line56" x2="78.31" y1="176.51" x1="81.73" y2="170.59"/>
  </g>
  <g id="g58" stroke="#000">
   <polygon id="polygon60" points="180.09 146.43 180.09 146.43 208.61 191.27 202.69 194.69 178.11 147.57" stroke="#000"/>
  </g>
  <path id="text62" d="m227.03 119.23 7.38-10.65h-3.33l-5.64 8.58-5.61-8.58h-3.39l7.26 10.65-7.74 11.22h3.39l6-9.12 5.97 9.12h3.45l-7.74-11.22"/>
  <path id="text64" d="m104.83 193.02v9.96h2.79v-21.87h-2.79v9.45h-11.25v-9.45h-2.79v21.87h2.82v-9.96h11.22"/>
  <polyline id="polyline66" stroke="#000" points="263 151 315.68 151" stroke-width="2.2756" fill="none"/>
  <polygon id="polygon68" points="323.68 151 323.68 151 313.68 148 315.68 151 313.68 154" stroke="#000" fill-rule="evenodd"/>
  <g id="g70" stroke-width="2.2756" stroke="#000">
   <line id="line72" x2="457.55" y1="148.73" x1="454.14" y2="154.64"/>
   <line id="line74" x2="463.3" y1="145.41" x1="459.89" y2="151.32"/>
   <line id="line76" x2="469.05" y1="142.09" x1="465.64" y2="148"/>
   <line id="line78" x2="474.8" y1="138.77" x1="471.38" y2="144.68"/>
   <line id="line80" x2="480.54" y1="135.45" x1="477.13" y2="141.36"/>
   <line id="line82" x2="486.29" y1="132.13" x1="482.88" y2="138.04"/>
   <line id="line84" x2="492.04" y1="128.81" x1="488.63" y2="134.72"/>
   <line id="line86" x2="497.79" y1="125.49" x1="494.37" y2="131.41"/>
  </g>
  <g id="g88" stroke-width="2.2756" stroke="#000">
   <line id="line90" x2="392.96" y1="154.64" x1="389.55" y2="148.73"/>
   <line id="line92" x2="387.21" y1="151.32" x1="383.8" y2="145.41"/>
   <line id="line94" x2="381.46" y1="148" x1="378.05" y2="142.09"/>
   <line id="line96" x2="375.72" y1="144.68" x1="372.3" y2="138.77"/>
   <line id="line98" x2="369.97" y1="141.36" x1="366.56" y2="135.45"/>
   <line id="line100" x2="364.22" y1="138.04" x1="360.81" y2="132.13"/>
   <line id="line102" x2="358.47" y1="134.72" x1="355.06" y2="128.81"/>
   <line id="line104" x2="352.73" y1="131.41" x1="349.31" y2="125.49"/>
  </g>
  <g id="g106" stroke-width="2.2756" stroke="#000">
   <line id="line108" x2="450.1" y1="155" x1="397" y2="155"/>
   <line id="line110" x2="446.12" y1="147.04" x1="400.98" y2="147.04"/>
  </g>
  <g id="g112" stroke="#000">
   <polygon id="polygon114" points="397.57 155.99 397.57 155.99 352.73 184.51 349.31 178.59 396.43 154.01" stroke="#000"/>
  </g>
  <g id="g116" stroke="#000">
   <polygon id="polygon118" points="450.67 154.01 450.67 154.01 497.79 178.59 494.37 184.51 449.53 155.99" stroke="#000"/>
  </g>
  <path id="text120" d="m278.32 125.24h-15.12v2.1h15.12v-2.1m17.73-1.95v9.96h2.79v-21.87h-2.79v9.45h-11.25v-9.45h-2.79v21.87h2.82v-9.96h11.22m16.88-1.26 7.38-10.65h-3.33l-5.64 8.58-5.61-8.58h-3.39l7.26 10.65-7.74 11.22h3.39l6-9.12 5.97 9.12h3.45l-7.74-11.22"/>
  <path id="path122" d="m194 126.68c-11.333-31.787-10.277-52.937 3.17-63.45 13.447-10.52 22.643-3.5 27.59 21.06" stroke="#f00" stroke-width="2.2756" fill="none"/>
  <polygon id="polygon124" fill-rule="evenodd" stroke="#f00" points="226.34 92.13 226.34 92.13 227.31 81.73 224.76 84.29 221.42 82.92" fill="#f00"/>
  <path id="text126" d="m31.67 250h9.87c2.07 0 3.6-0.57 4.77-1.83 1.08-1.14 1.68-2.7 1.68-4.41 0-2.64-1.2-4.23-3.99-5.31 1.98-0.93 3.03-2.55 3.03-4.77 0-1.59-0.6-3-1.74-4.02-1.14-1.05-2.64-1.53-4.74-1.53h-8.88v21.87m2.79-12.45v-6.96h5.4c1.56 0 2.43 0.21 3.18 0.78 0.78 0.6 1.2 1.5 1.2 2.7 0 1.17-0.42 2.1-1.2 2.7-0.75 0.57-1.62 0.78-3.18 0.78h-5.4m0 9.99v-7.53h6.81c1.35 0 2.25 0.33 2.91 1.05 0.66 0.69 1.02 1.65 1.02 2.73 0 1.05-0.36 2.01-1.02 2.7-0.66 0.72-1.56 1.05-2.91 1.05h-6.81"/>
  <line id="line128" stroke-width="2.1029" y2="228.46" x2="52.186" stroke="#000" y1="249.25" x1="55.306"/>
  <path id="path130" d="m62.13 237.24c51.79-4 78.61-16.47 60.09-34.93" stroke="#f00" stroke-width="2.2756" fill="none"/>
  <polygon id="polygon132" fill-rule="evenodd" stroke="#f00" points="116.55 196.66 116.55 196.66 121.51 205.84 122.22 202.31 125.75 201.59" fill="#f00"/>
 </g>
 <path id="path130-9" d="m94.36 106.97c8.5028 17.642 27.632 23.452 29.792-4.1455" stroke="#f00" stroke-linecap="round" stroke-width="2.2756" fill="none"/>
 <polygon id="polygon132-8" fill-rule="evenodd" stroke-linecap="round" transform="matrix(.64887 .7609 -.7609 .64887 198.81 -121.24)" stroke="#f00" points="122.22 202.31 125.75 201.59 116.55 196.66 116.55 196.66 121.51 205.84" fill="#f00"/>
 <metadata>
  <rdf:RDF>
   <cc:Work>
    <dc:format>image/svg+xml</dc:format>
    <dc:type rdf:resource="http://purl.org/dc/dcmitype/StillImage"/>
    <cc:license rdf:resource="http://creativecommons.org/licenses/publicdomain/"/>
    <dc:publisher>
     <cc:Agent rdf:about="http://openclipart.org/">
      <dc:title>Openclipart</dc:title>
     </cc:Agent>
    </dc:publisher>
   </cc:Work>
   <cc:License rdf:about="http://creativecommons.org/licenses/publicdomain/">
    <cc:permits rdf:resource="http://creativecommons.org/ns#Reproduction"/>
    <cc:permits rdf:resource="http://creativecommons.org/ns#Distribution"/>
    <cc:permits rdf:resource="http://creativecommons.org/ns#DerivativeWorks"/>
   </cc:License>
  </rdf:RDF>
 </metadata>
</svg>
