<?xml version="1.0"?>
<svg xmlns:rdf="http://www.w3.org/1999/02/22-rdf-syntax-ns#" xmlns="http://www.w3.org/2000/svg" xmlns:cc="http://creativecommons.org/ns#" xmlns:dc="http://purl.org/dc/elements/1.1/" id="svg2" xml:space="preserve" viewBox="0 0 1196.4 506.65" version="1.0">
<style id="style4" type="text/css">
   text {font-family:'Helvetica', 'Arial', 'sans-serif'; font-size:100px}
   .smalltext {font-size: 75px}
</style>
<polygon id="polygon8" points="594.62 264.81 594.62 264.81 598.62 262.31 602.62 264.81 602.62 408.81 594.62 403.81" transform="translate(-3.814 -11.578)"/><polygon id="polygon10" points="474.12 194.81 474.12 194.81 474.12 185.81 598.62 257.81 598.62 262.31 594.62 264.81" transform="translate(-3.814 -11.578)"/><polygon id="polygon12" points="353.62 264.81 353.62 264.81 349.62 262.31 349.62 257.81 474.12 185.81 474.12 194.81" transform="translate(-3.814 -11.578)"/><polygon id="polygon14" points="353.62 264.81 353.62 403.81 353.62 403.81 349.62 406.31 345.62 403.81 345.62 264.81 349.62 262.31" transform="translate(-3.814 -11.578)"/><polygon id="polygon16" points="474.12 473.81 474.12 473.81 474.12 482.8 349.62 410.8 349.62 406.31 353.62 403.81" transform="translate(-3.814 -11.578)"/><polygon id="polygon18" points="594.62 403.81 602.62 408.81 474.12 482.8 474.12 473.81" transform="translate(-3.814 -11.578)"/><polygon id="polygon20" points="264.62 217.81 264.62 217.81 268.62 211.31 349.62 257.81 349.62 262.31 345.62 264.81" transform="translate(-3.814 -11.578)"/><polygon id="polygon22" points="266.12 458.81 266.12 458.81 262.12 452.31 345.62 403.81 349.62 406.31 349.62 410.8" transform="translate(-3.814 -11.578)"/><polygon id="polygon24" points="723.12 185.81 723.12 185.81 723.12 195.31 602.62 264.81 598.62 262.31 598.62 257.81" transform="translate(-3.814 -11.578)"/><polygon id="polygon26" points="847.12 257.81 847.12 266.81 723.12 195.31 723.12 185.81" transform="translate(-3.814 -11.578)"/><polygon id="polygon28" points="849.12 228.81 845.13 235.81 734.12 171.81 738.12 164.81" transform="translate(-3.814 -11.578)"/><polygon id="polygon30" points="971.62 185.81 971.62 195.31 847.12 266.81 847.12 257.81" transform="translate(-3.814 -11.578)"/><polygon id="polygon32" points="1057.1 235.31 1053.1 242.31 971.62 195.31 971.62 185.81" transform="translate(-3.814 -11.578)"/><rect id="rect34" y="265.73" x="565.31" height="114" width="8"/><rect id="rect36" transform="matrix(.49647 .86805 -.86805 .49647 0 0)" height="114.24" width="8.0004" y="-304.61" x="410.84"/><rect id="rect38" transform="matrix(.49589 -.86838 .86838 .49589 0 0)" height="114.24" width="8.0001" y="510.72" x="-149.82"/><rect id="rect40" y="86.728" x="950.81" height="99.502" width="8"/><rect id="rect42" y="86.728" x="976.77" height="99.502" width="8"/><text id="text44" font-size="100px" line-height="125%" y="216.96091" x="-9.8144531" font-family="'Helvetica&quot;, &quot;Arial&quot;, &quot;sans-serif'"><tspan id="tspan3088" y="216.96091" x="-9.8144531">H</tspan></text>
<text id="text46" font-size="75px" class="smalltext" y="236.98386" x="64.590347" font-family="'Helvetica&quot;, &quot;Arial&quot;, &quot;sans-serif'">3</text>
<text id="text48" font-size="100px" y="218.23044" x="182.29594" font-family="'Helvetica&quot;, &quot;Arial&quot;, &quot;sans-serif'">O</text>
<text id="text50" font-size="100px" y="505.229" x="109.81255" font-family="'Helvetica&quot;, &quot;Arial&quot;, &quot;sans-serif'">HO</text>
<text id="text52" font-size="100px" y="289.73773" x="1052.3125" font-family="'Helvetica&quot;, &quot;Arial&quot;, &quot;sans-serif'">OH</text>
<text id="text54" font-size="100px" y="74.21875" x="927.80902" font-family="'Helvetica&quot;, &quot;Arial&quot;, &quot;sans-serif'">O</text>
<text id="text44-1" font-size="100px" line-height="125%" y="218.18161" x="107.37303" font-family="'Helvetica&quot;, &quot;Arial&quot;, &quot;sans-serif'"><tspan id="tspan3065-7" y="218.18161" x="107.37303">C</tspan></text>
<metadata><rdf:RDF><cc:Work><dc:format>image/svg+xml</dc:format><dc:type rdf:resource="http://purl.org/dc/dcmitype/StillImage"/><cc:license rdf:resource="http://creativecommons.org/licenses/publicdomain/"/><dc:publisher><cc:Agent rdf:about="http://openclipart.org/"><dc:title>Openclipart</dc:title></cc:Agent></dc:publisher></cc:Work><cc:License rdf:about="http://creativecommons.org/licenses/publicdomain/"><cc:permits rdf:resource="http://creativecommons.org/ns#Reproduction"/><cc:permits rdf:resource="http://creativecommons.org/ns#Distribution"/><cc:permits rdf:resource="http://creativecommons.org/ns#DerivativeWorks"/></cc:License></rdf:RDF></metadata></svg>
