<?xml version="1.0"?>
<svg xmlns:rdf="http://www.w3.org/1999/02/22-rdf-syntax-ns#" xmlns="http://www.w3.org/2000/svg" xmlns:cc="http://creativecommons.org/ns#" xmlns:dc="http://purl.org/dc/elements/1.1/" id="svg2" xml:space="preserve" height="605.08" width="1293" version="1.0">
<style id="style4" type="text/css">
   text {font-family:'Helvetica', 'Arial', 'sans-serif'; font-size:100px}
   .smalltext {font-size: 75px}
</style>
<polygon id="polygon8" points="602.62 264.81 602.62 408.81 594.62 403.81 594.62 264.81 594.62 264.81 598.62 262.31" transform="translate(45.02 37.054)"/><polygon id="polygon10" points="598.62 257.81 598.62 262.31 594.62 264.81 474.12 194.81 474.12 194.81 474.12 185.81" transform="translate(45.02 37.054)"/><polygon id="polygon12" points="349.62 257.81 474.12 185.81 474.12 194.81 353.62 264.81 353.62 264.81 349.62 262.31" transform="translate(45.02 37.054)"/><polygon id="polygon14" points="345.62 403.81 345.62 264.81 349.62 262.31 353.62 264.81 353.62 403.81 353.62 403.81 349.62 406.31" transform="translate(45.02 37.054)"/><polygon id="polygon16" points="349.62 410.8 349.62 406.31 353.62 403.81 474.12 473.81 474.12 473.81 474.12 482.8" transform="translate(45.02 37.054)"/><polygon id="polygon18" points="474.12 482.8 474.12 473.81 594.62 403.81 594.62 403.81 602.62 408.81" transform="translate(45.02 37.054)"/><polygon id="polygon20" points="349.62 257.81 349.62 262.31 345.62 264.81 264.62 217.81 264.62 217.81 268.62 211.31" transform="translate(45.02 37.054)"/><polygon id="polygon22" points="345.62 403.81 349.62 406.31 349.62 410.8 266.12 458.81 266.12 458.81 262.12 452.31" transform="translate(45.02 37.054)"/><polygon id="polygon24" points="602.62 264.81 598.62 262.31 598.62 257.81 723.12 185.81 723.12 185.81 723.12 195.31" transform="translate(45.02 37.054)"/><polygon id="polygon26" points="723.12 195.31 723.12 185.81 847.12 257.81 847.12 257.81 847.12 266.81" transform="translate(45.02 37.054)"/><polygon id="polygon28" points="734.12 171.81 738.12 164.81 849.12 228.81 849.12 228.81 845.13 235.81" transform="translate(45.02 37.054)"/><polygon id="polygon30" points="847.12 266.81 847.12 257.81 971.62 185.81 971.62 185.81 971.62 195.31" transform="translate(45.02 37.054)"/><polygon id="polygon32" points="971.62 195.31 971.62 185.81 1057.1 235.31 1057.1 235.31 1053.1 242.31" transform="translate(45.02 37.054)"/><rect id="rect34" y="314.36" x="614.14" width="8" height="114"/><rect id="rect36" transform="matrix(.49647 .86805 -.86805 .49647 0 0)" height="114.24" width="8.0004" y="-322.86" x="477.3"/><rect id="rect38" transform="matrix(.49589 -.86838 .86838 .49589 0 0)" height="114.24" width="8.0001" y="577.25" x="-167.84"/><rect id="rect40" y="135.36" x="999.64" width="8" height="99.502"/><rect id="rect42" y="135.36" x="1025.6" width="8" height="99.502"/><text id="text44" font-size="100px" line-height="125%" y="265.59323" x="39.019531" font-family="Sans"><tspan id="tspan3088" x="39.019531" y="265.59323">H</tspan></text>
<text id="text46" font-size="75px" class="smalltext" y="285.61618" x="113.42433" font-family="'Helvetica&quot;, &quot;Arial&quot;, &quot;sans-serif'">3</text>
<text id="text48" font-size="100px" y="266.86276" x="231.12993" font-family="'Helvetica&quot;, &quot;Arial&quot;, &quot;sans-serif'">O</text>
<text id="text50" font-size="100px" y="553.86133" x="158.64653" font-family="'Helvetica&quot;, &quot;Arial&quot;, &quot;sans-serif'">HO</text>
<text id="text52" font-size="100px" y="338.37006" x="1101.1465" font-family="'Helvetica&quot;, &quot;Arial&quot;, &quot;sans-serif'">OH</text>
<text id="text54" font-size="100px" y="122.85107" x="976.64301" font-family="'Helvetica&quot;, &quot;Arial&quot;, &quot;sans-serif'">O</text>
<text id="text44-1" font-size="100px" line-height="125%" y="266.81393" x="156.20702" font-family="Sans"><tspan id="tspan3065-7" y="266.81393" x="156.20702">C</tspan></text>
<metadata><rdf:RDF><cc:Work><dc:format>image/svg+xml</dc:format><dc:type rdf:resource="http://purl.org/dc/dcmitype/StillImage"/><cc:license rdf:resource="http://creativecommons.org/licenses/publicdomain/"/><dc:publisher><cc:Agent rdf:about="http://openclipart.org/"><dc:title>Openclipart</dc:title></cc:Agent></dc:publisher></cc:Work><cc:License rdf:about="http://creativecommons.org/licenses/publicdomain/"><cc:permits rdf:resource="http://creativecommons.org/ns#Reproduction"/><cc:permits rdf:resource="http://creativecommons.org/ns#Distribution"/><cc:permits rdf:resource="http://creativecommons.org/ns#DerivativeWorks"/></cc:License></rdf:RDF></metadata></svg>
