<?xml version="1.0" encoding="UTF-8" standalone="no"?>
<svg
   xmlns:dc="http://purl.org/dc/elements/1.1/"
   xmlns:cc="http://creativecommons.org/ns#"
   xmlns:rdf="http://www.w3.org/1999/02/22-rdf-syntax-ns#"
   xmlns:svg="http://www.w3.org/2000/svg"
   xmlns="http://www.w3.org/2000/svg"
   xmlns:sodipodi="http://sodipodi.sourceforge.net/DTD/sodipodi-0.dtd"
   xmlns:inkscape="http://www.inkscape.org/namespaces/inkscape"
   version="1.0"
   width="1293.041"
   height="605.08197"
   xml:space="preserve"
   id="svg2"
   inkscape:version="0.48.2 r9819"
   sodipodi:docname="Ferulic_acid_acsv.svg"><metadata
   id="metadata60"><rdf:RDF><cc:Work
       rdf:about=""><dc:format>image/svg+xml</dc:format><dc:type
         rdf:resource="http://purl.org/dc/dcmitype/StillImage" /></cc:Work></rdf:RDF></metadata><defs
   id="defs58">
























</defs><sodipodi:namedview
   pagecolor="#ffffff"
   bordercolor="#666666"
   borderopacity="1"
   objecttolerance="10"
   gridtolerance="10"
   guidetolerance="10"
   inkscape:pageopacity="0"
   inkscape:pageshadow="2"
   inkscape:window-width="699"
   inkscape:window-height="511"
   id="namedview56"
   showgrid="false"
   inkscape:zoom="0.45014485"
   inkscape:cx="646.52051"
   inkscape:cy="302.54099"
   inkscape:window-x="107"
   inkscape:window-y="13"
   inkscape:window-maximized="0"
   inkscape:current-layer="svg2" />
<style
   type="text/css"
   id="style4">
   text {font-family:'Helvetica', 'Arial', 'sans-serif'; font-size:100px}
   .smalltext {font-size: 75px}
</style>
<polygon
   id="polygon8"
   points="602.622,264.807 602.622,408.811 594.624,403.811 594.624,264.807 594.624,264.807 598.623,262.307 "
   transform="translate(45.01953,37.05417)" /><polygon
   id="polygon10"
   points="598.623,257.81 598.623,262.307 594.624,264.807 474.121,194.807 474.121,194.807 474.121,185.808 "
   transform="translate(45.01953,37.05417)" /><polygon
   id="polygon12"
   points="349.624,257.81 474.121,185.808 474.121,194.807 353.623,264.807 353.623,264.807 349.624,262.307 "
   transform="translate(45.01953,37.05417)" /><polygon
   id="polygon14"
   points="345.625,403.811 345.625,264.807 349.624,262.307 353.623,264.807 353.623,403.811 353.623,403.811 349.624,406.311 "
   transform="translate(45.01953,37.05417)" /><polygon
   id="polygon16"
   points="349.624,410.803 349.624,406.311 353.623,403.811 474.121,473.811 474.121,473.811 474.121,482.805 "
   transform="translate(45.01953,37.05417)" /><polygon
   id="polygon18"
   points="474.121,482.805 474.121,473.811 594.624,403.811 594.624,403.811 602.622,408.811 "
   transform="translate(45.01953,37.05417)" /><polygon
   id="polygon20"
   points="349.624,257.81 349.624,262.307 345.625,264.807 264.624,217.81 264.624,217.81 268.623,211.306 "
   transform="translate(45.01953,37.05417)" /><polygon
   id="polygon22"
   points="345.625,403.811 349.624,406.311 349.624,410.803 266.123,458.811 266.123,458.811 262.124,452.307 "
   transform="translate(45.01953,37.05417)" /><polygon
   id="polygon24"
   points="602.622,264.807 598.623,262.307 598.623,257.81 723.125,185.808 723.125,185.808 723.125,195.31 "
   transform="translate(45.01953,37.05417)" /><polygon
   id="polygon26"
   points="723.125,195.31 723.125,185.808 847.119,257.81 847.119,257.81 847.119,266.809 "
   transform="translate(45.01953,37.05417)" /><polygon
   id="polygon28"
   points="734.121,171.809 738.125,164.807 849.121,228.806 849.121,228.806 845.126,235.808 "
   transform="translate(45.01953,37.05417)" /><polygon
   id="polygon30"
   points="847.119,266.809 847.119,257.81 971.621,185.808 971.621,185.808 971.621,195.31 "
   transform="translate(45.01953,37.05417)" /><polygon
   id="polygon32"
   points="971.621,195.31 971.621,185.808 1057.119,235.31 1057.119,235.31 1053.125,242.307 "
   transform="translate(45.01953,37.05417)" /><rect
   id="rect34"
   y="314.36118"
   x="614.1405"
   height="114.004"
   width="8" /><rect
   id="rect36"
   transform="matrix(0.49647273,0.86805232,-0.86805232,0.49647273,0,0)"
   y="-322.86414"
   x="477.30441"
   height="114.24327"
   width="8.0004396" /><rect
   id="rect38"
   transform="matrix(0.49589123,-0.86838464,0.86838464,0.49589123,0,0)"
   y="577.24725"
   x="-167.83841"
   height="114.23902"
   width="8.0001411" /><rect
   id="rect40"
   y="135.36217"
   x="999.63855"
   height="99.501999"
   width="8" /><rect
   id="rect42"
   y="135.36217"
   x="1025.6445"
   height="99.501999"
   width="8" /><text
   style="font-size:100px;font-style:normal;font-variant:normal;font-weight:normal;font-stretch:normal;text-align:start;line-height:125%;writing-mode:lr-tb;text-anchor:start;font-family:Sans;-inkscape-font-specification:Sans"
   id="text44"
   y="265.59323"
   x="39.019531"
   sodipodi:linespacing="125%"><tspan
     sodipodi:role="line"
     id="tspan3088"
     x="39.019531"
     y="265.59323">H</tspan></text>
<text
   style="font-size:75px;font-family:'Helvetica&quot;, &quot;Arial&quot;, &quot;sans-serif'"
   id="text46"
   class="smalltext"
   y="285.61618"
   x="113.42433">3</text>
<text
   style="font-size:100px;font-family:'Helvetica&quot;, &quot;Arial&quot;, &quot;sans-serif'"
   id="text48"
   y="266.86276"
   x="231.12993">O</text>
<text
   style="font-size:100px;font-family:'Helvetica&quot;, &quot;Arial&quot;, &quot;sans-serif'"
   id="text50"
   y="553.86133"
   x="158.64653">HO</text>
<text
   style="font-size:100px;font-family:'Helvetica&quot;, &quot;Arial&quot;, &quot;sans-serif'"
   id="text52"
   y="338.37006"
   x="1101.1465">OH</text>
<text
   style="font-size:100px;font-family:'Helvetica&quot;, &quot;Arial&quot;, &quot;sans-serif'"
   id="text54"
   y="122.85107"
   x="976.64301">O</text>

<text
   style="font-size:100px;font-style:normal;font-variant:normal;font-weight:normal;font-stretch:normal;text-align:start;line-height:125%;writing-mode:lr-tb;text-anchor:start;font-family:Sans;-inkscape-font-specification:Sans"
   id="text44-1"
   y="266.81393"
   x="156.20702"
   sodipodi:linespacing="125%"><tspan
     y="266.81393"
     x="156.20702"
     sodipodi:role="line"
     id="tspan3065-7">C</tspan></text>
</svg>