<?xml version="1.0"?>
<svg xmlns:rdf="http://www.w3.org/1999/02/22-rdf-syntax-ns#" xmlns="http://www.w3.org/2000/svg" xmlns:cc="http://creativecommons.org/ns#" xmlns:dc="http://purl.org/dc/elements/1.1/" id="svg4595" height="652.44" viewBox="0 0 1003.9 652.44098" width="1003.9" version="1.0">
 <path id="line4601" d="m415.3 89.911-32.7 100.6" stroke="#000" stroke-linecap="round" stroke-width="4"/>
 <path id="line4603" d="m388.4 95.011-24.5 75.5" stroke="#000" stroke-linecap="round" stroke-width="4"/>
 <path id="line4605" d="m382.6 190.51 62.2 85.6" stroke="#000" stroke-linecap="round" stroke-width="4"/>
 <path id="line4607" d="m185.2 349.01-91.6 53" stroke="#000" stroke-linecap="round" stroke-width="4"/>
 <path id="line4609" d="m161.7 334.91-68.7 39.7" stroke="#000" stroke-linecap="round" stroke-width="4"/>
 <path id="line4611" d="m185.2 349.01 68 39.3" stroke="#000" stroke-linecap="round" stroke-width="4"/>
 <path id="line4613" d="m862.3 467.71-19 6.2" stroke="#000" stroke-linecap="round" stroke-width="4"/>
 <path id="line4615" d="m867 482.11-19.1 6.2" stroke="#000" stroke-linecap="round" stroke-width="4"/>
 <path id="line4617" d="m871.6 496.51-19 6.2" stroke="#000" stroke-linecap="round" stroke-width="4"/>
 <path id="line4619" d="m876.3 510.91-19 6.1" stroke="#000" stroke-linecap="round" stroke-width="4"/>
 <path id="line4621" d="m881 525.21-19.1 6.2" stroke="#000" stroke-linecap="round" stroke-width="4"/>
 <path id="line4623" d="m885.6 539.61-19 6.2" stroke="#000" stroke-linecap="round" stroke-width="4"/>
 <path id="line4625" d="m890.3 554.01-19 6.2" stroke="#000" stroke-linecap="round" stroke-width="4"/>
 <path id="line4627" d="m910.3 370.91 91.6-52.9" stroke="#000" stroke-linecap="round" stroke-width="4"/>
 <path id="line4629" d="m185.2 243.41v105.6" stroke="#000" stroke-linecap="round" stroke-width="4"/>
 <path id="line4631" d="m721.2 423.81h-79.5" stroke="#000" stroke-linecap="round" stroke-width="4"/>
 <path id="line4633" d="m641.7 423.81v-105.8" stroke="#000" stroke-linecap="round" stroke-width="4"/>
 <path id="line4635" d="m880.8 557.11-39.6 44" stroke="#000" stroke-linecap="round" stroke-width="4"/>
 <path id="line4639" stroke-width="4" stroke="#000" d="m273.2 68.811 28-20.4"/>
 <path id="line4641" stroke-width="4" stroke="#000" d="m93.6 190.51v-83.1"/>
 <path id="line4643" stroke-width="4" stroke="#000" d="m910.3 370.91-62.2 85.6"/>
 <path id="line4645" stroke-width="4" stroke="#000" d="m452.1 279.41-26.4 59.3"/>
 <path id="line4647" stroke-width="4" stroke="#000" d="m437.5 272.91-26.4 59.2"/>
 <path id="line4649" stroke-width="4" stroke="#000" d="m641.7 318.01h105.8"/>
 <path id="line4651" stroke-width="4" stroke="#000" d="m747.5 318.01v69.4"/>
 <path id="line4653" stroke-width="4" stroke="#000" d="m276.8 190.51h105.8"/>
 <path id="line4655" stroke-width="4" stroke="#000" d="m864.2 307.41 46.1 63.5"/>
 <path id="line4657" stroke-width="4" stroke="#000" d="m737.5 301.51h20"/>
 <path id="line4659" stroke-width="4" stroke="#000" d="m737.5 284.91h20"/>
 <path id="line4661" stroke-width="4" stroke="#000" d="m737.5 268.41h20"/>
 <path id="line4663" stroke-width="4" stroke="#000" d="m737.5 251.91h20"/>
 <path id="line4665" stroke-width="4" stroke="#000" d="m737.5 235.41h20"/>
 <path id="line4667" stroke-width="4" stroke="#000" d="m444.8 276.11 76.4-8"/>
 <path id="line4669" stroke-width="4" stroke="#000" d="m93.6 190.51 91.6 52.9"/>
 <path id="line4671" stroke-width="4" stroke="#000" d="m93 217.91 68.7 39.7"/>
 <path id="line4673" stroke-width="4" stroke="#000" d="m185.2 243.41 91.6-52.9"/>
 <path id="line4675" stroke-width="4" stroke="#000" d="m747.5 318.01 73.7-24"/>
 <path id="line4677" stroke-width="4" stroke="#000" d="m2 243.41v105.6"/>
 <path id="line4679" stroke-width="4" stroke="#000" d="m26 256.61v79.2"/>
 <path id="line4681" stroke-width="4" stroke="#000" d="m2 243.41 91.6-52.9"/>
 <path id="line4683" stroke-width="4" stroke="#000" d="m276.8 190.51-24.4-75.1"/>
 <path id="line4685" stroke-width="4" stroke="#000" d="m296.6 173.71-18.3-56.3"/>
 <path id="line4687" stroke-width="4" stroke="#000" d="m882.5 549.31 72.4 15.3"/>
 <path id="line4689" stroke-width="4" stroke="#000" d="m879.1 564.91 72.4 15.4"/>
 <path id="line4691" stroke-width="4" stroke="#000" d="m415.3 89.911 100.7-32.7"/>
 <path id="line4693" stroke-width="4" stroke="#000" d="m910.3 370.91 91.6 52.9"/>
 <path id="line4695" stroke-width="4" stroke="#000" d="m647.3 429.41-44.4 44.5"/>
 <path id="line4697" stroke-width="4" stroke="#000" d="m636 418.11-44.5 44.5"/>
 <path id="line4699" stroke-width="4" stroke="#000" d="m361.2 50.611 54.1 39.3"/>
 <path id="polygon4701" stroke-width="4" stroke="#000" d="m640.7 319.71-57-23.6 10-17.4 49 37.5-2 3.5z"/>
 <path id="line4703" stroke-width="4" stroke="#000" d="m2 349.01 91.6 53"/>
 <path id="line4705" stroke-width="4" stroke="#000" d="m848.1 456.51-70.9-23.1"/>
 <path id="text4707" stroke-linecap="round" d="m105.67 85.651 5.69 1.44c-1.19 4.66-3.34 8.22-6.43 10.68-3.1 2.45-6.88 3.67-11.36 3.67-4.63 0-8.39-0.94-11.29-2.82-2.901-1.89-5.108-4.62-6.621-8.19-1.514-3.58-2.271-7.415-2.271-11.517 0-4.473 0.855-8.374 2.564-11.704s4.14-5.859 7.295-7.588c3.153-1.728 6.623-2.593 10.413-2.593 4.3 0 7.91 1.094 10.84 3.282 2.93 2.187 4.97 5.263 6.12 9.228l-5.59 1.318c-1-3.124-2.44-5.4-4.34-6.826-1.89-1.425-4.27-2.138-7.15-2.138-3.3 0-6.06 0.791-8.27 2.373-2.219 1.582-3.776 3.706-4.675 6.372-0.898 2.666-1.347 5.415-1.347 8.247 0 3.652 0.532 6.836 1.596 9.566 1.065 2.72 2.72 4.76 4.966 6.11 2.25 1.35 4.68 2.02 7.3 2.02 3.18 0 5.87-0.92 8.08-2.75 2.21-1.84 3.7-4.57 4.48-8.18v0zm11.93 15.06v-42.948h5.27v42.949h-5.27z"/>
 <path id="text4709" stroke-linecap="round" d="m263.32 417.91v-42.95h28.98v5.07h-23.29v13.3h20.15v5.07h-20.15v19.51h-5.69z"/>
 <path id="text4711" stroke-linecap="round" d="m226.97 105.91v-42.948h5.83l22.56 33.719v-33.719h5.45v42.949h-5.83l-22.56-33.75v33.75h-5.45z"/>
 <path id="text4713" stroke-linecap="round" d="m309.3 22.793c0-7.129 1.91-12.71 5.74-16.743s8.77-6.05 14.83-6.05c3.96 0 7.54 0.947 10.72 2.842 3.18 1.894 5.61 4.536 7.28 7.925 1.67 3.388 2.5 7.231 2.5 11.528 0 4.355-0.87 8.252-2.63 11.689-1.76 3.438-4.25 6.04-7.47 7.808-3.23 1.768-6.7 2.651-10.43 2.651-4.05 0-7.66-0.976-10.84-2.929-3.19-1.953-5.6-4.619-7.24-7.998s-2.46-6.953-2.46-10.723v0zm5.86 0.088c0 5.176 1.39 9.253 4.17 12.231 2.79 2.979 6.28 4.468 10.48 4.468 4.28 0 7.8-1.504 10.56-4.512 2.76-3.007 4.15-7.275 4.15-12.802 0-3.496-0.6-6.548-1.78-9.156-1.18-2.607-2.91-4.628-5.18-6.064-2.28-1.436-4.83-2.153-7.66-2.153-4.03 0-7.49 1.382-10.39 4.145-2.9 2.764-4.35 7.378-4.35 13.843v0z"/>
 <path id="text4715" stroke-linecap="round" d="m381.3 367.89c0-7.13 1.91-12.71 5.74-16.74s8.77-6.05 14.83-6.05c3.96 0 7.54 0.95 10.72 2.84 3.18 1.9 5.61 4.54 7.28 7.93 1.67 3.38 2.5 7.23 2.5 11.52 0 4.36-0.87 8.26-2.63 11.69-1.76 3.44-4.25 6.04-7.47 7.81-3.23 1.77-6.7 2.65-10.43 2.65-4.05 0-7.66-0.97-10.84-2.93-3.19-1.95-5.6-4.62-7.24-8-1.64-3.37-2.46-6.95-2.46-10.72v0zm5.86 0.09c0 5.18 1.39 9.25 4.17 12.23 2.79 2.98 6.28 4.47 10.48 4.47 4.28 0 7.8-1.5 10.56-4.51s4.15-7.28 4.15-12.81c0-3.49-0.6-6.54-1.78-9.15s-2.91-4.63-5.18-6.07c-2.28-1.43-4.83-2.15-7.66-2.15-4.03 0-7.49 1.38-10.39 4.15-2.9 2.76-4.35 7.38-4.35 13.84v0z"/>
 <path id="text4717" stroke-linecap="round" d="m530.97 281.01v-42.95h5.83l22.56 33.72v-33.72h5.45v42.95h-5.83l-22.56-33.75v33.75h-5.45zm43.59 0v-42.95h5.69v17.64h22.32v-17.64h5.69v42.95h-5.69v-20.24h-22.32v20.24h-5.69z"/>
 <path id="text4719" stroke-linecap="round" d="m731.2 228.21v-42.95h5.69v17.64h22.32v-17.64h5.69v42.95h-5.69v-20.24h-22.32v20.24h-5.69z"/>
 <path id="text4721" stroke-linecap="round" d="m829.1 287.51 5.36-0.47c0.25 2.15 0.84 3.91 1.77 5.29s2.37 2.49 4.32 3.34 4.15 1.27 6.59 1.27c2.17 0 4.08-0.32 5.74-0.96 1.66-0.65 2.9-1.53 3.71-2.65 0.81-1.13 1.22-2.35 1.22-3.68 0-1.35-0.39-2.52-1.18-3.53-0.78-1.01-2.07-1.85-3.86-2.53-1.16-0.45-3.7-1.15-7.65-2.1-3.94-0.95-6.71-1.84-8.29-2.68-2.05-1.07-3.58-2.41-4.59-4-1-1.59-1.5-3.37-1.5-5.35 0-2.16 0.61-4.19 1.84-6.07 1.23-1.89 3.03-3.32 5.39-4.3 2.37-0.97 4.99-1.46 7.88-1.46 3.19 0 5.99 0.51 8.43 1.54 2.43 1.02 4.3 2.53 5.61 4.52 1.3 2 2.01 4.25 2.11 6.77l-5.45 0.41c-0.3-2.71-1.29-4.77-2.98-6.15-1.69-1.39-4.18-2.08-7.48-2.08-3.44 0-5.94 0.63-7.52 1.89-1.57 1.26-2.36 2.78-2.36 4.55 0 1.55 0.56 2.82 1.67 3.81 1.1 1 3.95 2.02 8.57 3.06 4.62 1.05 7.79 1.96 9.51 2.74 2.5 1.16 4.35 2.62 5.54 4.38 1.19 1.77 1.78 3.81 1.78 6.11 0 2.29-0.65 4.44-1.96 6.46s-3.19 3.59-5.64 4.72c-2.45 1.12-5.21 1.68-8.27 1.68-3.89 0-7.15-0.56-9.77-1.7-2.63-1.13-4.69-2.83-6.19-5.11-1.49-2.27-2.28-4.85-2.35-7.72v0z"/>
 <path id="text4723" stroke-linecap="round" d="m545.3 493.69c0-7.13 1.91-12.71 5.74-16.74s8.77-6.05 14.83-6.05c3.96 0 7.54 0.95 10.72 2.84 3.18 1.9 5.61 4.54 7.28 7.93 1.67 3.38 2.5 7.23 2.5 11.52 0 4.36-0.87 8.26-2.63 11.69-1.76 3.44-4.25 6.04-7.47 7.81-3.23 1.77-6.7 2.65-10.43 2.65-4.05 0-7.66-0.97-10.84-2.93-3.19-1.95-5.6-4.62-7.24-8-1.64-3.37-2.46-6.95-2.46-10.72v0zm5.86 0.09c0 5.18 1.39 9.25 4.17 12.23 2.79 2.98 6.28 4.47 10.48 4.47 4.28 0 7.8-1.5 10.56-4.51s4.15-7.28 4.15-12.81c0-3.49-0.6-6.54-1.78-9.15s-2.91-4.63-5.18-6.07c-2.28-1.43-4.83-2.15-7.66-2.15-4.03 0-7.49 1.38-10.39 4.15-2.9 2.76-4.35 7.38-4.35 13.84v0z"/>
 <path id="text4725" stroke-linecap="round" d="m730.97 439.81v-42.95h5.83l22.56 33.72v-33.72h5.45v42.95h-5.83l-22.56-33.75v33.75h-5.45z"/>
 <path id="text4727" stroke-linecap="round" d="m743.2 651.71v-42.95h5.69v17.64h22.32v-17.64h5.69v42.95h-5.69v-20.24h-22.32v20.24h-5.69zm41.46-20.92c0-7.13 1.91-12.71 5.74-16.74s8.77-6.05 14.83-6.05c3.96 0 7.54 0.95 10.72 2.84 3.18 1.9 5.61 4.54 7.28 7.93 1.67 3.38 2.5 7.23 2.5 11.52 0 4.36-0.87 8.26-2.63 11.69-1.76 3.44-4.25 6.04-7.47 7.81-3.23 1.77-6.7 2.65-10.43 2.65-4.05 0-7.66-0.97-10.84-2.93-3.19-1.95-5.6-4.62-7.24-8-1.64-3.37-2.46-6.95-2.46-10.72v0zm5.86 0.09c0 5.18 1.39 9.25 4.17 12.23 2.79 2.98 6.28 4.47 10.48 4.47 4.27 0 7.8-1.5 10.56-4.51s4.14-7.28 4.14-12.81c0-3.49-0.59-6.54-1.77-9.15s-2.91-4.63-5.18-6.07c-2.28-1.43-4.83-2.15-7.66-2.15-4.03 0-7.49 1.38-10.39 4.15-2.9 2.76-4.35 7.38-4.35 13.84v0z"/>
 <path id="text4729" stroke-linecap="round" d="m957.3 574.19c0-7.13 1.91-12.71 5.74-16.74s8.77-6.05 14.83-6.05c3.96 0 7.53 0.95 10.73 2.84 3.2 1.9 5.6 4.54 7.3 7.93 1.6 3.38 2.5 7.23 2.5 11.52 0 4.36-0.9 8.26-2.7 11.69-1.7 3.44-4.2 6.04-7.4 7.81-3.26 1.77-6.73 2.65-10.46 2.65-4.05 0-7.66-0.97-10.84-2.93-3.19-1.95-5.6-4.62-7.24-8-1.64-3.37-2.46-6.95-2.46-10.72v0zm5.86 0.09c0 5.18 1.39 9.25 4.17 12.23 2.79 2.98 6.28 4.47 10.48 4.47 4.28 0 7.79-1.5 10.59-4.51 2.7-3.01 4.1-7.28 4.1-12.81 0-3.49-0.6-6.54-1.8-9.15-1.1-2.61-2.9-4.63-5.1-6.07-2.32-1.43-4.87-2.15-7.7-2.15-4.03 0-7.49 1.38-10.39 4.15-2.9 2.76-4.35 7.38-4.35 13.84v0z"/>
 <metadata>
  <rdf:RDF>
   <cc:Work>
    <dc:format>image/svg+xml</dc:format>
    <dc:type rdf:resource="http://purl.org/dc/dcmitype/StillImage"/>
    <cc:license rdf:resource="http://creativecommons.org/licenses/publicdomain/"/>
    <dc:publisher>
     <cc:Agent rdf:about="http://openclipart.org/">
      <dc:title>Openclipart</dc:title>
     </cc:Agent>
    </dc:publisher>
   </cc:Work>
   <cc:License rdf:about="http://creativecommons.org/licenses/publicdomain/">
    <cc:permits rdf:resource="http://creativecommons.org/ns#Reproduction"/>
    <cc:permits rdf:resource="http://creativecommons.org/ns#Distribution"/>
    <cc:permits rdf:resource="http://creativecommons.org/ns#DerivativeWorks"/>
   </cc:License>
  </rdf:RDF>
 </metadata>
</svg>
