<?xml version="1.0" encoding="UTF-8" standalone="no"?>
<!-- Created with Inkscape (http://www.inkscape.org/) -->
<svg
   xmlns:svg="http://www.w3.org/2000/svg"
   xmlns="http://www.w3.org/2000/svg"
   version="1.0"
   width="1030"
   height="700"
   viewBox="0 0 1030 700"
   id="svg4595">
  <defs
     id="defs4732" />
  <path
     d="M 430.10001,106.5 L 397.39999,207.10001"
     id="line4601"
     style="font-size:60px;stroke:#000000;stroke-width:4;stroke-linecap:round;font-family:Helvetica" />
  <path
     d="M 403.20001,111.6 L 378.70001,187.10001"
     id="line4603"
     style="font-size:60px;stroke:#000000;stroke-width:4;stroke-linecap:round;font-family:Helvetica" />
  <path
     d="M 397.39999,207.10001 L 459.60001,292.70001"
     id="line4605"
     style="font-size:60px;stroke:#000000;stroke-width:4;stroke-linecap:round;font-family:Helvetica" />
  <path
     d="M 200,365.60001 L 108.4,418.60001"
     id="line4607"
     style="font-size:60px;stroke:#000000;stroke-width:4;stroke-linecap:round;font-family:Helvetica" />
  <path
     d="M 176.5,351.5 L 107.8,391.20001"
     id="line4609"
     style="font-size:60px;stroke:#000000;stroke-width:4;stroke-linecap:round;font-family:Helvetica" />
  <path
     d="M 200,365.60001 L 268,404.89999"
     id="line4611"
     style="font-size:60px;stroke:#000000;stroke-width:4;stroke-linecap:round;font-family:Helvetica" />
  <path
     d="M 877.09998,484.29999 L 858.09998,490.5"
     id="line4613"
     style="font-size:60px;stroke:#000000;stroke-width:4;stroke-linecap:round;font-family:Helvetica" />
  <path
     d="M 881.79999,498.70001 L 862.70001,504.89999"
     id="line4615"
     style="font-size:60px;stroke:#000000;stroke-width:4;stroke-linecap:round;font-family:Helvetica" />
  <path
     d="M 886.40002,513.09998 L 867.40002,519.29999"
     id="line4617"
     style="font-size:60px;stroke:#000000;stroke-width:4;stroke-linecap:round;font-family:Helvetica" />
  <path
     d="M 891.09998,527.5 L 872.09998,533.59998"
     id="line4619"
     style="font-size:60px;stroke:#000000;stroke-width:4;stroke-linecap:round;font-family:Helvetica" />
  <path
     d="M 895.79999,541.79999 L 876.70001,548"
     id="line4621"
     style="font-size:60px;stroke:#000000;stroke-width:4;stroke-linecap:round;font-family:Helvetica" />
  <path
     d="M 900.40002,556.20001 L 881.40002,562.40002"
     id="line4623"
     style="font-size:60px;stroke:#000000;stroke-width:4;stroke-linecap:round;font-family:Helvetica" />
  <path
     d="M 905.09998,570.59998 L 886.09998,576.79999"
     id="line4625"
     style="font-size:60px;stroke:#000000;stroke-width:4;stroke-linecap:round;font-family:Helvetica" />
  <path
     d="M 925.09998,387.5 L 1016.7,334.60001"
     id="line4627"
     style="font-size:60px;stroke:#000000;stroke-width:4;stroke-linecap:round;font-family:Helvetica" />
  <path
     d="M 200,260 L 200,365.60001"
     id="line4629"
     style="font-size:60px;stroke:#000000;stroke-width:4;stroke-linecap:round;font-family:Helvetica" />
  <path
     d="M 736,440.39999 L 656.5,440.39999"
     id="line4631"
     style="font-size:60px;stroke:#000000;stroke-width:4;stroke-linecap:round;font-family:Helvetica" />
  <path
     d="M 656.5,440.39999 L 656.5,334.60001"
     id="line4633"
     style="font-size:60px;stroke:#000000;stroke-width:4;stroke-linecap:round;font-family:Helvetica" />
  <path
     d="M 895.59998,573.70001 L 856,617.70001"
     id="line4635"
     style="font-size:60px;stroke:#000000;stroke-width:4;stroke-linecap:round;font-family:Helvetica" />
  <path
     d="M 288,85.400002 L 316,65"
     id="line4639"
     style="font-size:60px;stroke:#000000;stroke-width:4;stroke-linecap:butt;font-family:Helvetica" />
  <path
     d="M 108.4,207.10001 L 108.4,124"
     id="line4641"
     style="font-size:60px;stroke:#000000;stroke-width:4;stroke-linecap:butt;font-family:Helvetica" />
  <path
     d="M 925.09998,387.5 L 862.90002,473.10001"
     id="line4643"
     style="font-size:60px;stroke:#000000;stroke-width:4;stroke-linecap:butt;font-family:Helvetica" />
  <path
     d="M 466.89999,296 L 440.5,355.29999"
     id="line4645"
     style="font-size:60px;stroke:#000000;stroke-width:4;stroke-linecap:butt;font-family:Helvetica" />
  <path
     d="M 452.29999,289.5 L 425.89999,348.70001"
     id="line4647"
     style="font-size:60px;stroke:#000000;stroke-width:4;stroke-linecap:butt;font-family:Helvetica" />
  <path
     d="M 656.5,334.60001 L 762.29999,334.60001"
     id="line4649"
     style="font-size:60px;stroke:#000000;stroke-width:4;stroke-linecap:butt;font-family:Helvetica" />
  <path
     d="M 762.29999,334.60001 L 762.29999,404"
     id="line4651"
     style="font-size:60px;stroke:#000000;stroke-width:4;stroke-linecap:butt;font-family:Helvetica" />
  <path
     d="M 291.60001,207.10001 L 397.39999,207.10001"
     id="line4653"
     style="font-size:60px;stroke:#000000;stroke-width:4;stroke-linecap:butt;font-family:Helvetica" />
  <path
     d="M 879,324 L 925.09998,387.5"
     id="line4655"
     style="font-size:60px;stroke:#000000;stroke-width:4;stroke-linecap:butt;font-family:Helvetica" />
  <path
     d="M 752.29999,318.10001 L 772.29999,318.10001"
     id="line4657"
     style="font-size:60px;stroke:#000000;stroke-width:4;stroke-linecap:butt;font-family:Helvetica" />
  <path
     d="M 752.29999,301.5 L 772.29999,301.5"
     id="line4659"
     style="font-size:60px;stroke:#000000;stroke-width:4;stroke-linecap:butt;font-family:Helvetica" />
  <path
     d="M 752.29999,285 L 772.29999,285"
     id="line4661"
     style="font-size:60px;stroke:#000000;stroke-width:4;stroke-linecap:butt;font-family:Helvetica" />
  <path
     d="M 752.29999,268.5 L 772.29999,268.5"
     id="line4663"
     style="font-size:60px;stroke:#000000;stroke-width:4;stroke-linecap:butt;font-family:Helvetica" />
  <path
     d="M 752.29999,252 L 772.29999,252"
     id="line4665"
     style="font-size:60px;stroke:#000000;stroke-width:4;stroke-linecap:butt;font-family:Helvetica" />
  <path
     d="M 459.60001,292.70001 L 536,284.70001"
     id="line4667"
     style="font-size:60px;stroke:#000000;stroke-width:4;stroke-linecap:butt;font-family:Helvetica" />
  <path
     d="M 108.4,207.10001 L 200,260"
     id="line4669"
     style="font-size:60px;stroke:#000000;stroke-width:4;stroke-linecap:butt;font-family:Helvetica" />
  <path
     d="M 107.8,234.5 L 176.5,274.20001"
     id="line4671"
     style="font-size:60px;stroke:#000000;stroke-width:4;stroke-linecap:butt;font-family:Helvetica" />
  <path
     d="M 200,260 L 291.60001,207.10001"
     id="line4673"
     style="font-size:60px;stroke:#000000;stroke-width:4;stroke-linecap:butt;font-family:Helvetica" />
  <path
     d="M 762.29999,334.60001 L 836,310.60001"
     id="line4675"
     style="font-size:60px;stroke:#000000;stroke-width:4;stroke-linecap:butt;font-family:Helvetica" />
  <path
     d="M 16.799999,260 L 16.799999,365.60001"
     id="line4677"
     style="font-size:60px;stroke:#000000;stroke-width:4;stroke-linecap:butt;font-family:Helvetica" />
  <path
     d="M 40.799999,273.20001 L 40.799999,352.39999"
     id="line4679"
     style="font-size:60px;stroke:#000000;stroke-width:4;stroke-linecap:butt;font-family:Helvetica" />
  <path
     d="M 16.799999,260 L 108.4,207.10001"
     id="line4681"
     style="font-size:60px;stroke:#000000;stroke-width:4;stroke-linecap:butt;font-family:Helvetica" />
  <path
     d="M 291.60001,207.10001 L 267.20001,132"
     id="line4683"
     style="font-size:60px;stroke:#000000;stroke-width:4;stroke-linecap:butt;font-family:Helvetica" />
  <path
     d="M 311.39999,190.3 L 293.10001,134"
     id="line4685"
     style="font-size:60px;stroke:#000000;stroke-width:4;stroke-linecap:butt;font-family:Helvetica" />
  <path
     d="M 897.29999,565.90002 L 969.70001,581.20001"
     id="line4687"
     style="font-size:60px;stroke:#000000;stroke-width:4;stroke-linecap:butt;font-family:Helvetica" />
  <path
     d="M 893.90002,581.5 L 966.29999,596.90002"
     id="line4689"
     style="font-size:60px;stroke:#000000;stroke-width:4;stroke-linecap:butt;font-family:Helvetica" />
  <path
     d="M 430.10001,106.5 L 530.79999,73.800003"
     id="line4691"
     style="font-size:60px;stroke:#000000;stroke-width:4;stroke-linecap:butt;font-family:Helvetica" />
  <path
     d="M 925.09998,387.5 L 1016.7,440.39999"
     id="line4693"
     style="font-size:60px;stroke:#000000;stroke-width:4;stroke-linecap:butt;font-family:Helvetica" />
  <path
     d="M 662.09998,446 L 617.70001,490.5"
     id="line4695"
     style="font-size:60px;stroke:#000000;stroke-width:4;stroke-linecap:butt;font-family:Helvetica" />
  <path
     d="M 650.79999,434.70001 L 606.29999,479.20001"
     id="line4697"
     style="font-size:60px;stroke:#000000;stroke-width:4;stroke-linecap:butt;font-family:Helvetica" />
  <path
     d="M 376,67.199997 L 430.10001,106.5"
     id="line4699"
     style="font-size:60px;stroke:#000000;stroke-width:4;stroke-linecap:butt;font-family:Helvetica" />
  <path
     d="M 655.5,336.3 L 598.5,312.7 L 608.5,295.3 L 657.5,332.8 L 655.5,336.3 z"
     id="polygon4701"
     style="font-size:60px;fill:#000000;stroke:#000000;stroke-width:4;stroke-linecap:butt;font-family:Helvetica" />
  <path
     d="M 16.799999,365.60001 L 108.4,418.60001"
     id="line4703"
     style="font-size:60px;stroke:#000000;stroke-width:4;stroke-linecap:butt;font-family:Helvetica" />
  <path
     d="M 862.90002,473.10001 L 792,450"
     id="line4705"
     style="font-size:60px;stroke:#000000;stroke-width:4;stroke-linecap:butt;font-family:Helvetica" />
  <path
     d="M 120.47343,102.24141 L 126.15703,103.67696 C 124.96558,108.34493 122.82203,111.9045 119.72636,114.35567 C 116.63063,116.80684 112.84645,118.03242 108.37383,118.03242 C 103.7449,118.03242 99.980256,117.09004 97.07988,115.20528 C 94.17948,113.32051 91.972451,110.59103 90.458786,107.0168 C 88.94511,103.4426 88.188275,99.604708 88.188278,95.503128 C 88.188275,91.030498 89.042767,87.129135 90.751755,83.799026 C 92.460732,80.468985 94.89237,77.939691 98.046677,76.211136 C 101.20096,74.482663 104.67263,73.618406 108.46172,73.618362 C 112.75856,73.618406 116.37184,74.712155 119.30156,76.899612 C 122.23121,79.087151 124.27222,82.163319 125.42461,86.128128 L 119.8289,87.446487 C 118.83278,84.32152 117.38746,82.046132 115.49297,80.620316 C 113.59841,79.194572 111.2156,78.481682 108.34453,78.481644 C 105.04373,78.481682 102.28494,79.272697 100.06816,80.854691 C 97.851351,82.436757 96.293736,84.560778 95.395309,87.226761 C 94.496863,89.892804 94.047644,92.641825 94.047653,95.473831 C 94.047644,99.126193 94.57987,102.31467 95.644333,105.03926 C 96.708775,107.76388 98.364046,109.80001 100.61015,111.14766 C 102.85623,112.49532 105.28787,113.16915 107.90508,113.16914 C 111.08864,113.16915 113.78395,112.25118 115.99101,110.41524 C 118.19801,108.57931 119.69215,105.8547 120.47343,102.24141 L 120.47343,102.24141 z M 132.39726,117.3 L 132.39726,74.350784 L 137.6707,74.350784 L 137.6707,117.3 L 132.39726,117.3 z"
     id="text4707"
     style="font-size:60px;fill:#000000;stroke-linecap:round;font-family:Helvetica" />
  <path
     d="M 278.12189,434.5 L 278.12189,391.55078 L 307.0965,391.55078 L 307.0965,396.61914 L 283.80548,396.61914 L 283.80548,409.91992 L 303.96173,409.91992 L 303.96173,414.98828 L 283.80548,414.98828 L 283.80548,434.5 L 278.12189,434.5 z"
     id="text4709"
     style="font-size:60px;fill:#000000;stroke-linecap:round;font-family:Helvetica" />
  <path
     d="M 241.77031,122.5 L 241.77031,79.550781 L 247.60039,79.550781 L 270.15898,113.27148 L 270.15898,79.550781 L 275.6082,79.550781 L 275.6082,122.5 L 269.77812,122.5 L 247.21953,88.75 L 247.21953,122.5 L 241.77031,122.5 z"
     id="text4711"
     style="font-size:60px;fill:#000000;stroke-linecap:round;font-family:Helvetica" />
  <path
     d="M 324.1004,39.38203 C 324.1004,32.253152 326.01446,26.672103 329.84259,22.638866 C 333.6707,18.605705 338.6121,16.589105 344.66681,16.589062 C 348.63163,16.589105 352.20584,17.53637 355.38947,19.430859 C 358.57302,21.325429 360.99978,23.967028 362.66974,27.355663 C 364.33962,30.744365 365.17458,34.587134 365.17462,38.883984 C 365.17458,43.239469 364.29567,47.13595 362.5379,50.573437 C 360.78005,54.010943 358.28982,56.613479 355.0672,58.381054 C 351.84451,60.148632 348.36795,61.03242 344.63751,61.032421 C 340.59452,61.03242 336.98125,60.055859 333.79767,58.102734 C 330.61407,56.149613 328.20196,53.4836 326.56134,50.104687 C 324.92071,46.725794 324.1004,43.151579 324.1004,39.38203 L 324.1004,39.38203 z M 329.95978,39.469921 C 329.95977,44.645718 331.35137,48.722862 334.13458,51.701366 C 336.91777,54.679888 340.40898,56.169144 344.60822,56.16914 C 348.88553,56.169144 352.40604,54.665239 355.16974,51.657421 C 357.93337,48.64962 359.31521,44.382046 359.31525,38.854687 C 359.31521,35.358618 358.72439,32.306863 357.54279,29.699413 C 356.36111,27.092025 354.6326,25.070542 352.35724,23.63496 C 350.08182,22.199451 347.52811,21.481679 344.69611,21.48164 C 340.67265,21.481679 337.21074,22.863513 334.31036,25.627148 C 331.40996,28.390851 329.95977,33.005105 329.95978,39.469921 L 329.95978,39.469921 z"
     id="text4713"
     style="font-size:60px;fill:#000000;stroke-linecap:round;font-family:Helvetica" />
  <path
     d="M 396.1004,384.48203 C 396.1004,377.35315 398.01446,371.7721 401.84259,367.73886 C 405.6707,363.7057 410.6121,361.6891 416.66681,361.68906 C 420.63163,361.6891 424.20584,362.63636 427.38947,364.53085 C 430.57302,366.42542 432.99978,369.06702 434.66974,372.45566 C 436.33962,375.84436 437.17458,379.68713 437.17462,383.98398 C 437.17458,388.33946 436.29567,392.23594 434.5379,395.67343 C 432.78005,399.11094 430.28982,401.71347 427.0672,403.48105 C 423.84451,405.24863 420.36795,406.13242 416.63751,406.13242 C 412.59452,406.13242 408.98125,405.15585 405.79767,403.20273 C 402.61407,401.24961 400.20196,398.58359 398.56134,395.20468 C 396.92071,391.82579 396.1004,388.25157 396.1004,384.48203 L 396.1004,384.48203 z M 401.95978,384.56992 C 401.95977,389.74571 403.35137,393.82286 406.13458,396.80136 C 408.91777,399.77988 412.40898,401.26914 416.60822,401.26913 C 420.88553,401.26914 424.40604,399.76523 427.16974,396.75742 C 429.93337,393.74961 431.31521,389.48204 431.31525,383.95468 C 431.31521,380.45861 430.72439,377.40686 429.54279,374.79941 C 428.36111,372.19202 426.6326,370.17054 424.35724,368.73495 C 422.08182,367.29945 419.52811,366.58167 416.69611,366.58163 C 412.67265,366.58167 409.21074,367.96351 406.31036,370.72714 C 403.40996,373.49085 401.95977,378.1051 401.95978,384.56992 L 401.95978,384.56992 z"
     id="text4715"
     style="font-size:60px;fill:#000000;stroke-linecap:round;font-family:Helvetica" />
  <path
     d="M 545.77032,297.60001 L 545.77032,254.65079 L 551.6004,254.65079 L 574.159,288.37149 L 574.159,254.65079 L 579.60822,254.65079 L 579.60822,297.60001 L 573.77814,297.60001 L 551.21954,263.85001 L 551.21954,297.60001 L 545.77032,297.60001 z M 589.36407,297.60001 L 589.36407,254.65079 L 595.04767,254.65079 L 595.04767,272.28751 L 617.37189,272.28751 L 617.37189,254.65079 L 623.05548,254.65079 L 623.05548,297.60001 L 617.37189,297.60001 L 617.37189,277.35587 L 595.04767,277.35587 L 595.04767,297.60001 L 589.36407,297.60001 z"
     id="text4717"
     style="font-size:60px;fill:#000000;stroke-linecap:round;font-family:Helvetica" />
  <path
     d="M 746.0047,244.8 L 746.0047,201.85078 L 751.68829,201.85078 L 751.68829,219.4875 L 774.01251,219.4875 L 774.01251,201.85078 L 779.69611,201.85078 L 779.69611,244.8 L 774.01251,244.8 L 774.01251,224.55586 L 751.68829,224.55586 L 751.68829,244.8 L 746.0047,244.8 z"
     id="text4719"
     style="font-size:60px;fill:#000000;stroke-linecap:round;font-family:Helvetica" />
  <path
     d="M 843.89532,304.10117 L 849.25665,303.63242 C 849.51055,305.78087 850.10137,307.54356 851.02911,308.9205 C 851.95684,310.29746 853.39727,311.41074 855.3504,312.26035 C 857.30351,313.10996 859.50078,313.53476 861.9422,313.53476 C 864.11015,313.53476 866.02421,313.2125 867.68439,312.56796 C 869.34452,311.92344 870.57987,311.03965 871.39044,309.9166 C 872.20096,308.79356 872.60623,307.56797 872.60626,306.23984 C 872.60623,304.89219 872.21561,303.71544 871.43439,302.70956 C 870.65311,301.70372 869.36405,300.859 867.5672,300.17538 C 866.41483,299.72618 863.86601,299.02794 859.92072,298.08066 C 855.97539,297.13341 853.21172,296.23986 851.6297,295.39999 C 849.57891,294.3258 848.05059,292.99279 847.04474,291.40097 C 846.03887,289.8092 845.53595,288.02698 845.53595,286.05429 C 845.53595,283.88636 846.15118,281.85999 847.38165,279.97519 C 848.61211,278.09046 850.40899,276.6598 852.77228,275.6832 C 855.13555,274.70668 857.7625,274.2184 860.65314,274.21835 C 863.83671,274.2184 866.64432,274.73109 869.07599,275.75644 C 871.5076,276.78187 873.37771,278.29066 874.68634,280.28281 C 875.9949,282.27503 876.69802,284.53089 876.79572,287.05038 L 871.3465,287.46054 C 871.0535,284.74573 870.06229,282.69495 868.37286,281.3082 C 866.68339,279.92152 864.18827,279.22816 860.88751,279.22812 C 857.45,279.22816 854.94512,279.85804 853.37286,281.11777 C 851.80059,282.37757 851.01446,283.89612 851.01447,285.67343 C 851.01446,287.21643 851.5711,288.48596 852.68439,289.48203 C 853.77812,290.47815 856.63457,291.49865 861.25372,292.54355 C 865.87284,293.58849 869.04178,294.50158 870.76056,295.28281 C 873.26053,296.43517 875.10623,297.89513 876.29767,299.66269 C 877.48904,301.43028 878.08474,303.46641 878.08478,305.77109 C 878.08474,308.05625 877.43044,310.20957 876.12189,312.23105 C 874.81326,314.25254 872.93338,315.8248 870.48224,316.94785 C 868.03104,318.07089 865.27225,318.63242 862.20587,318.63242 C 858.31914,318.63242 855.0623,318.06601 852.43536,316.9332 C 849.8084,315.80039 847.74786,314.09629 846.25372,311.82089 C 844.75958,309.54551 843.97345,306.97227 843.89532,304.10117 L 843.89532,304.10117 z"
     id="text4721"
     style="font-size:60px;fill:#000000;stroke-linecap:round;font-family:Helvetica" />
  <path
     d="M 560.1004,510.28204 C 560.1004,503.15317 562.01446,497.57212 565.84259,493.53888 C 569.6707,489.50572 574.6121,487.48912 580.66681,487.48907 C 584.63163,487.48912 588.20584,488.43638 591.38947,490.33087 C 594.57302,492.22544 596.99978,494.86704 598.66974,498.25568 C 600.33962,501.64438 601.17458,505.48715 601.17462,509.784 C 601.17458,514.13948 600.29567,518.03596 598.5379,521.47345 C 596.78005,524.91096 594.28982,527.51349 591.0672,529.28107 C 587.84451,531.04865 584.36795,531.93243 580.63751,531.93243 C 576.59452,531.93243 572.98125,530.95587 569.79767,529.00275 C 566.61407,527.04963 564.20196,524.38361 562.56134,521.0047 C 560.92071,517.62581 560.1004,514.05159 560.1004,510.28204 L 560.1004,510.28204 z M 565.95978,510.36993 C 565.95977,515.54573 567.35137,519.62288 570.13458,522.60138 C 572.91777,525.5799 576.40898,527.06916 580.60822,527.06915 C 584.88553,527.06916 588.40604,525.56525 591.16974,522.55743 C 593.93337,519.54963 595.31521,515.28206 595.31525,509.7547 C 595.31521,506.25863 594.72439,503.20688 593.54279,500.59943 C 592.36111,497.99204 590.6326,495.97056 588.35724,494.53497 C 586.08182,493.09946 583.52811,492.38169 580.69611,492.38165 C 576.67265,492.38169 573.21074,493.76353 570.31036,496.52716 C 567.40996,499.29086 565.95977,503.90512 565.95978,510.36993 L 565.95978,510.36993 z"
     id="text4723"
     style="font-size:60px;fill:#000000;stroke-linecap:round;font-family:Helvetica" />
  <path
     d="M 745.77032,456.39999 L 745.77032,413.45078 L 751.6004,413.45078 L 774.159,447.17148 L 774.159,413.45078 L 779.60822,413.45078 L 779.60822,456.39999 L 773.77814,456.39999 L 751.21954,422.64999 L 751.21954,456.39999 L 745.77032,456.39999 z"
     id="text4725"
     style="font-size:60px;fill:#000000;stroke-linecap:round;font-family:Helvetica" />
  <path
     d="M 758.0047,668.29999 L 758.0047,625.35077 L 763.68829,625.35077 L 763.68829,642.98749 L 786.01251,642.98749 L 786.01251,625.35077 L 791.69611,625.35077 L 791.69611,668.29999 L 786.01251,668.29999 L 786.01251,648.05585 L 763.68829,648.05585 L 763.68829,668.29999 L 758.0047,668.29999 z M 799.45978,647.38202 C 799.45977,640.25314 801.37384,634.67209 805.20197,630.63885 C 809.03008,626.60569 813.97148,624.58909 820.02618,624.58905 C 823.991,624.58909 827.56522,625.53636 830.74884,627.43085 C 833.9324,629.32542 836.35915,631.96702 838.02911,635.35565 C 839.69899,638.74435 840.53395,642.58712 840.534,646.88397 C 840.53395,651.23946 839.65505,655.13594 837.89728,658.57343 C 836.13943,662.01093 833.64919,664.61347 830.42657,666.38104 C 827.20389,668.14862 823.72733,669.03241 819.99689,669.03241 C 815.9539,669.03241 812.34062,668.05585 809.15704,666.10272 C 805.97344,664.1496 803.56133,661.48359 801.92072,658.10468 C 800.28009,654.72578 799.45977,651.15157 799.45978,647.38202 L 799.45978,647.38202 z M 805.31915,647.46991 C 805.31914,652.64571 806.71074,656.72285 809.49396,659.70135 C 812.27714,662.67988 815.76835,664.16913 819.96759,664.16913 C 824.24491,664.16913 827.76541,662.66523 830.52911,659.65741 C 833.29275,656.64961 834.67458,652.38203 834.67462,646.85468 C 834.67458,643.35861 834.08376,640.30685 832.90216,637.6994 C 831.72048,635.09201 829.99197,633.07053 827.71661,631.63495 C 825.44119,630.19944 822.88749,629.48167 820.05548,629.48163 C 816.03202,629.48167 812.57011,630.8635 809.66974,633.62714 C 806.76934,636.39084 805.31914,641.00509 805.31915,647.46991 L 805.31915,647.46991 z"
     id="text4727"
     style="font-size:60px;fill:#000000;stroke-linecap:round;font-family:Helvetica" />
  <path
     d="M 972.1004,590.78204 C 972.1004,583.65317 974.01446,578.07212 977.84259,574.03888 C 981.6707,570.00572 986.6121,567.98912 992.66681,567.98907 C 996.63163,567.98912 1000.2058,568.93638 1003.3895,570.83087 C 1006.573,572.72544 1008.9998,575.36704 1010.6697,578.75568 C 1012.3396,582.14438 1013.1746,585.98715 1013.1746,590.284 C 1013.1746,594.63948 1012.2957,598.53596 1010.5379,601.97345 C 1008.7801,605.41096 1006.2898,608.01349 1003.0672,609.78107 C 999.84451,611.54865 996.36795,612.43243 992.63751,612.43243 C 988.59452,612.43243 984.98125,611.45587 981.79767,609.50275 C 978.61407,607.54963 976.20196,604.88361 974.56134,601.5047 C 972.92071,598.12581 972.1004,594.55159 972.1004,590.78204 L 972.1004,590.78204 z M 977.95978,590.86993 C 977.95977,596.04573 979.35137,600.12288 982.13458,603.10138 C 984.91777,606.0799 988.40898,607.56916 992.60822,607.56915 C 996.88553,607.56916 1000.406,606.06525 1003.1697,603.05743 C 1005.9334,600.04963 1007.3152,595.78206 1007.3152,590.2547 C 1007.3152,586.75863 1006.7244,583.70688 1005.5428,581.09943 C 1004.3611,578.49204 1002.6326,576.47056 1000.3572,575.03497 C 998.08182,573.59946 995.52811,572.88169 992.69611,572.88165 C 988.67265,572.88169 985.21074,574.26353 982.31036,577.02716 C 979.40996,579.79086 977.95977,584.40512 977.95978,590.86993 L 977.95978,590.86993 z"
     id="text4729"
     style="font-size:60px;fill:#000000;stroke-linecap:round;font-family:Helvetica" />
</svg>
