<?xml version="1.0"?>
<svg xmlns:rdf="http://www.w3.org/1999/02/22-rdf-syntax-ns#" xmlns="http://www.w3.org/2000/svg" xmlns:cc="http://creativecommons.org/ns#" xmlns:xlink="http://www.w3.org/1999/xlink" xmlns:dc="http://purl.org/dc/elements/1.1/" id="svg2" height="1052.4" width="744.09" version="1.0">
 <defs id="defs4">
  <linearGradient id="linearGradient4368">
   <stop id="stop4376" stop-color="#515ac0" stop-opacity=".49804" offset="0"/>
   <stop id="stop2315" stop-color="#9397ca" stop-opacity=".24706" offset=".5"/>
   <stop id="stop4372" stop-color="#d5d5d5" stop-opacity="0" offset="1"/>
  </linearGradient>
  <linearGradient id="linearGradient4374" y2="476.56" xlink:href="#linearGradient4368" gradientUnits="userSpaceOnUse" x2="884.47" y1="467.54" x1="617.48"/>
  <linearGradient id="linearGradient5255" y2="253.57" xlink:href="#linearGradient4368" gradientUnits="userSpaceOnUse" x2="549.36" y1="250.82" x1="237.19"/>
  <linearGradient id="linearGradient5264" y2="253.57" xlink:href="#linearGradient4368" gradientUnits="userSpaceOnUse" x2="549.36" gradientTransform="translate(-28)" y1="250.82" x1="237.19"/>
 </defs>
 <g id="layer1">
  <rect id="rect6208" height="111.78" width="208.56" y="192.21" x="238.55" fill="#fff"/>
  <rect id="rect3285" transform="matrix(.88590 .46388 -.47221 .88148 0 0)" height="126.14" width="233.52" y="419.19" x="603.46" fill="#fff"/>
  <path id="path2160" stroke-linejoin="round" d="m28.446 309.34h676.68" fill-rule="evenodd" stroke="#000034" stroke-width="10.91px" fill="url(#linearGradient10298)"/>
  <rect id="rect9881" transform="matrix(.88590 .46388 -.47221 .88148 0 0)" height="126.14" width="233.52" stroke="#000" y="420.31" x="603.43" stroke-width="1.765" fill="url(#linearGradient4374)"/>
  <path id="path9889" d="m497.56 588.68l-88.85 174.32" fill-rule="evenodd" marker-start="url(#Arrow1Lstart)" stroke="#ff0036" stroke-width="2.8306" fill="#f00"/>
  <path id="flowRoot9903" fill="#f00" d="m524.99 582.46l5.8 3.08 0.01 34.12 14.11-26.64 4.18 2.21-16.87 31.85-5.8-3.08-0.01-34.12-14.11 26.64-4.18-2.21 16.87-31.85z"/>
  <path id="path10001" marker-end="url(#Arrow1Lend)" d="m410.55 765.4l-70.58-36.62" fill-rule="evenodd" stroke="#8300ff" stroke-miterlimit="8.8" stroke-width="1.0694" fill="#800080"/>
  <g id="g6509" transform="translate(10 -4)">
   <g id="g6594" fill-rule="evenodd" stroke="#00f" fill="#00f">
    <path id="path8740" d="m213.31 831.9h13.24" stroke-opacity=".69079" transform="translate(-10 4)" stroke-width="1.441"/>
    <path id="path9711" d="m209.68 836.22v-10.25" stroke-opacity=".67763" stroke-width="1.2678px"/>
   </g>
  </g>
  <g id="g6082" transform="translate(-30)">
   <path id="flowRoot9772" fill="#f00" d="m394.05 109.26h5.9l14.37 27.11v-27.11h4.25v32.4h-5.9l-14.37-27.1v27.1h-4.25v-32.4z"/>
   <path id="text9780" fill="#f00" d="m428.19 127.93c-1.35 0-2.41 0.54-3.2 1.61-0.78 1.07-1.18 2.55-1.18 4.42 0 1.86 0.39 3.34 1.17 4.41 0.78 1.08 1.85 1.61 3.21 1.61 1.35 0 2.41-0.54 3.19-1.62 0.79-1.07 1.18-2.54 1.18-4.4s-0.39-3.32-1.18-4.41c-0.78-1.08-1.84-1.62-3.19-1.62zm0-2.18c2.19 0 3.91 0.73 5.16 2.18s1.88 3.46 1.88 6.03c0 2.55-0.63 4.56-1.88 6.02-1.25 1.45-2.97 2.18-5.16 2.18-2.2 0-3.92-0.73-5.16-2.18-1.25-1.46-1.87-3.47-1.87-6.02 0-2.57 0.62-4.58 1.87-6.03 1.24-1.45 2.96-2.18 5.16-2.18zm20.08 2.78c-0.28-0.17-0.59-0.29-0.92-0.37s-0.7-0.12-1.1-0.12c-1.43 0-2.52 0.47-3.28 1.42-0.76 0.94-1.15 2.3-1.15 4.06v8.24h-2.53v-15.63h2.53v2.43c0.54-0.95 1.22-1.66 2.07-2.12s1.88-0.69 3.09-0.69c0.18 0 0.37 0.01 0.58 0.04 0.21 0.02 0.44 0.05 0.7 0.1l0.01 2.64zm14.61 0.6c0.62-1.15 1.38-2.01 2.25-2.55 0.88-0.55 1.91-0.83 3.1-0.83 1.59 0 2.83 0.57 3.69 1.71 0.87 1.14 1.3 2.76 1.3 4.86v9.44h-2.53v-9.35c0-1.5-0.26-2.61-0.78-3.34-0.52-0.72-1.31-1.09-2.38-1.09-1.31 0-2.34 0.45-3.09 1.33-0.76 0.88-1.14 2.09-1.14 3.61v8.84h-2.53v-9.35c0-1.51-0.26-2.62-0.78-3.34-0.52-0.73-1.33-1.09-2.41-1.09-1.29 0-2.31 0.45-3.07 1.34-0.75 0.88-1.13 2.09-1.13 3.6v8.84h-2.54v-15.63h2.54v2.43c0.57-0.96 1.26-1.67 2.06-2.12 0.81-0.46 1.76-0.69 2.86-0.69 1.12 0 2.06 0.29 2.84 0.87 0.78 0.57 1.36 1.41 1.74 2.51zm22.35 4.77c-2.04 0-3.45 0.24-4.23 0.71-0.79 0.48-1.18 1.29-1.18 2.43 0 0.91 0.29 1.63 0.88 2.17 0.59 0.53 1.39 0.8 2.4 0.8 1.4 0 2.52-0.5 3.36-1.51 0.85-1.01 1.27-2.35 1.27-4.03v-0.57h-2.5zm5.02-1.06v8.92h-2.52v-2.38c-0.57 0.95-1.29 1.65-2.15 2.1s-1.9 0.68-3.15 0.68c-1.57 0-2.81-0.45-3.74-1.35-0.93-0.89-1.39-2.1-1.39-3.6 0-1.76 0.58-3.09 1.73-3.98 1.16-0.89 2.88-1.34 5.17-1.34h3.53v-0.25c0-1.18-0.38-2.1-1.14-2.74-0.76-0.65-1.83-0.97-3.21-0.97-0.88 0-1.73 0.11-2.56 0.32s-1.63 0.53-2.4 0.96v-2.37c0.92-0.36 1.82-0.63 2.69-0.82 0.86-0.18 1.71-0.27 2.53-0.27 2.22 0 3.87 0.59 4.97 1.76 1.09 1.17 1.64 2.95 1.64 5.33zm5.2-12.79h2.52v21.71h-2.52v-21.71zm24.46 0v2.13h-2.41c-0.9 0-1.53 0.19-1.88 0.56s-0.53 1.04-0.53 2.01v1.38h4.15v1.99h-4.15v13.64h-2.53v-13.64h-2.41v-1.99h2.41v-1.09c0-1.74 0.4-3.01 1.19-3.8 0.79-0.8 2.05-1.19 3.78-1.19h2.38zm8.03 7.88c-1.35 0-2.42 0.54-3.2 1.61s-1.18 2.55-1.18 4.42c0 1.86 0.39 3.34 1.17 4.41 0.78 1.08 1.85 1.61 3.21 1.61 1.34 0 2.41-0.54 3.19-1.62 0.79-1.07 1.18-2.54 1.18-4.4s-0.39-3.32-1.18-4.41c-0.78-1.08-1.85-1.62-3.19-1.62zm0-2.18c2.19 0 3.91 0.73 5.16 2.18s1.88 3.46 1.88 6.03c0 2.55-0.63 4.56-1.88 6.02-1.25 1.45-2.97 2.18-5.16 2.18-2.2 0-3.92-0.73-5.16-2.18-1.25-1.46-1.87-3.47-1.87-6.02 0-2.57 0.62-4.58 1.87-6.03 1.24-1.45 2.96-2.18 5.16-2.18zm20.08 2.78c-0.28-0.17-0.59-0.29-0.92-0.37-0.34-0.08-0.7-0.12-1.1-0.12-1.43 0-2.52 0.47-3.28 1.42-0.76 0.94-1.15 2.3-1.15 4.06v8.24h-2.53v-15.63h2.53v2.43c0.53-0.95 1.22-1.66 2.07-2.12s1.88-0.69 3.09-0.69c0.18 0 0.37 0.01 0.58 0.04 0.21 0.02 0.44 0.05 0.7 0.1l0.01 2.64zm13.7-1.8v2.4c-0.71-0.4-1.42-0.7-2.14-0.9s-1.44-0.3-2.17-0.3c-1.63 0-2.9 0.53-3.81 1.58-0.9 1.06-1.35 2.54-1.35 4.45 0 1.9 0.45 3.38 1.35 4.44 0.91 1.06 2.18 1.58 3.81 1.58 0.73 0 1.45-0.1 2.17-0.3s1.43-0.5 2.14-0.9v2.38c-0.7 0.33-1.43 0.58-2.18 0.75-0.76 0.17-1.56 0.25-2.4 0.25-2.31 0-4.15-0.74-5.51-2.22-1.35-1.48-2.03-3.47-2.03-5.98 0-2.55 0.68-4.56 2.06-6.02 1.37-1.46 3.25-2.19 5.64-2.19 0.78 0 1.53 0.08 2.27 0.25 0.74 0.16 1.46 0.4 2.15 0.73zm17.52 6.57v1.26h-11.58c0.11 1.76 0.63 3.11 1.57 4.04 0.93 0.92 2.24 1.38 3.91 1.38 0.96 0 1.9-0.12 2.81-0.36s1.81-0.6 2.7-1.09v2.43c-0.9 0.39-1.83 0.69-2.78 0.89-0.95 0.21-1.91 0.31-2.89 0.31-2.44 0-4.38-0.73-5.8-2.18-1.43-1.45-2.15-3.41-2.15-5.88 0-2.56 0.68-4.59 2.04-6.1 1.35-1.5 3.18-2.25 5.48-2.25 2.06 0 3.69 0.68 4.89 2.03 1.2 1.36 1.8 3.2 1.8 5.52zm-2.52-0.75c-0.02-1.41-0.4-2.53-1.16-3.37-0.75-0.83-1.74-1.25-2.98-1.25-1.41 0-2.54 0.4-3.38 1.21s-1.33 1.95-1.46 3.42l8.98-0.01z"/>
   <g id="g2509" transform="translate(-6)">
    <path id="text9796" d="m598.74 127.09c-0.82 1.43-1.44 2.84-1.84 4.24-0.41 1.39-0.61 2.81-0.61 4.24s0.2 2.85 0.61 4.25c0.4 1.41 1.02 2.82 1.84 4.24h-1.48c-0.93-1.46-1.63-2.89-2.09-4.3-0.46-1.4-0.69-2.8-0.69-4.19s0.23-2.78 0.68-4.18c0.46-1.4 1.16-2.83 2.1-4.3h1.48zm3.41 0.57h2.53l6.16 11.62v-11.62h1.82v13.89h-2.53l-6.16-11.62v11.62h-1.82v-13.89zm18.21 4.67c-0.92 0-1.64 0.36-2.18 1.07-0.53 0.72-0.8 1.7-0.8 2.95s0.27 2.23 0.8 2.94c0.53 0.72 1.26 1.08 2.18 1.08 0.91 0 1.64-0.36 2.17-1.08s0.8-1.7 0.8-2.94c0-1.23-0.27-2.21-0.8-2.94-0.53-0.72-1.26-1.08-2.17-1.08zm0-1.45c1.49 0 2.66 0.48 3.51 1.45s1.27 2.31 1.27 4.02c0 1.7-0.42 3.04-1.27 4.01s-2.02 1.46-3.51 1.46-2.66-0.49-3.51-1.46-1.27-2.31-1.27-4.01c0-1.71 0.42-3.05 1.27-4.02s2.02-1.45 3.51-1.45zm13.65 1.85c-0.2-0.11-0.41-0.19-0.63-0.25-0.23-0.05-0.48-0.08-0.75-0.08-0.97 0-1.71 0.32-2.23 0.95s-0.78 1.53-0.78 2.71v5.49h-1.72v-10.42h1.72v1.62c0.36-0.63 0.83-1.1 1.41-1.41s1.28-0.46 2.1-0.46c0.12 0 0.25 0.01 0.39 0.02 0.14 0.02 0.3 0.04 0.48 0.07l0.01 1.76zm9.92 0.4c0.43-0.77 0.94-1.34 1.53-1.7 0.6-0.37 1.3-0.55 2.11-0.55 1.08 0 1.92 0.38 2.51 1.14s0.88 1.84 0.88 3.24v6.29h-1.72v-6.23c0-1-0.18-1.74-0.53-2.23-0.35-0.48-0.89-0.72-1.62-0.72-0.88 0-1.59 0.29-2.1 0.88s-0.77 1.39-0.77 2.41v5.89h-1.72v-6.23c0-1.01-0.18-1.75-0.53-2.23-0.36-0.48-0.9-0.72-1.64-0.72-0.87 0-1.57 0.29-2.08 0.89-0.52 0.59-0.77 1.39-0.77 2.4v5.89h-1.72v-10.42h1.72v1.62c0.39-0.64 0.85-1.11 1.4-1.41 0.55-0.31 1.19-0.46 1.94-0.46 0.76 0 1.4 0.19 1.93 0.58 0.53 0.38 0.93 0.94 1.18 1.67zm15.19 3.18c-1.38 0-2.34 0.16-2.88 0.48-0.53 0.31-0.8 0.85-0.8 1.61 0 0.61 0.2 1.09 0.6 1.45s0.95 0.53 1.64 0.53c0.95 0 1.71-0.33 2.28-1 0.57-0.68 0.86-1.57 0.86-2.69v-0.38h-1.7zm3.41-0.71v5.95h-1.71v-1.58c-0.39 0.63-0.88 1.1-1.46 1.4s-1.3 0.45-2.14 0.45c-1.06 0-1.91-0.3-2.54-0.9s-0.95-1.4-0.95-2.4c0-1.18 0.4-2.06 1.18-2.66 0.79-0.59 1.95-0.89 3.51-0.89h2.4v-0.17c0-0.78-0.26-1.39-0.78-1.82-0.51-0.43-1.24-0.65-2.18-0.65-0.59 0-1.17 0.07-1.74 0.21-0.56 0.15-1.1 0.36-1.62 0.65v-1.59c0.62-0.24 1.23-0.42 1.82-0.54s1.16-0.18 1.72-0.18c1.51 0 2.63 0.39 3.38 1.17 0.74 0.78 1.11 1.97 1.11 3.55zm3.54-8.52h1.71v14.47h-1.71v-14.47zm11.57 5.82h11.92v1.56h-11.92v-1.56zm0 3.79h11.92v1.58h-11.92v-1.58zm20.64-9.03h1.89l2.93 11.74 2.91-11.74h2.11l2.92 11.74 2.91-11.74h1.91l-3.49 13.89h-2.36l-2.93-12.06-2.96 12.06h-2.36l-3.48-13.89zm28.9 8.25v0.84h-7.87c0.07 1.18 0.43 2.07 1.06 2.69 0.64 0.62 1.52 0.93 2.66 0.93 0.65 0 1.29-0.08 1.91-0.25 0.62-0.16 1.23-0.4 1.84-0.72v1.62c-0.62 0.26-1.25 0.46-1.89 0.59-0.65 0.14-1.3 0.21-1.97 0.21-1.66 0-2.97-0.49-3.94-1.45-0.97-0.97-1.46-2.28-1.46-3.93 0-1.7 0.46-3.06 1.38-4.06s2.16-1.5 3.73-1.5c1.4 0 2.51 0.45 3.32 1.35 0.82 0.91 1.23 2.13 1.23 3.68zm-1.72-0.5c-0.01-0.94-0.27-1.68-0.78-2.24s-1.19-0.84-2.03-0.84c-0.96 0-1.72 0.27-2.3 0.81-0.57 0.54-0.9 1.3-0.99 2.28l6.1-0.01zm4.52-4.28h1.72v10.42h-1.72v-10.42zm0-4.05h1.72v2.16h-1.72v-2.16zm12.14 9.14c0-1.24-0.25-2.2-0.76-2.88-0.52-0.69-1.23-1.03-2.16-1.03-0.92 0-1.63 0.34-2.14 1.03-0.51 0.68-0.77 1.64-0.77 2.88 0 1.23 0.26 2.19 0.77 2.87 0.51 0.69 1.22 1.03 2.14 1.03 0.93 0 1.64-0.34 2.16-1.03 0.51-0.68 0.76-1.64 0.76-2.87zm1.71 4.04c0 1.77-0.39 3.09-1.18 3.95-0.79 0.87-1.99 1.3-3.62 1.3-0.6 0-1.16-0.05-1.7-0.13-0.53-0.1-1.05-0.23-1.55-0.42v-1.66c0.5 0.27 1 0.47 1.49 0.6s0.99 0.2 1.49 0.2c1.13 0 1.97-0.3 2.52-0.88 0.56-0.59 0.84-1.47 0.84-2.66v-0.84c-0.35 0.61-0.8 1.07-1.36 1.37-0.55 0.31-1.21 0.46-1.98 0.46-1.27 0-2.3-0.49-3.08-1.46-0.79-0.98-1.18-2.27-1.18-3.87 0-1.61 0.39-2.91 1.18-3.88 0.78-0.97 1.81-1.46 3.08-1.46 0.77 0 1.43 0.15 1.98 0.46 0.56 0.3 1.01 0.76 1.36 1.37v-1.58h1.71v9.13zm12.19-5v6.29h-1.71v-6.23c0-0.99-0.19-1.73-0.58-2.22-0.38-0.49-0.96-0.73-1.73-0.73-0.92 0-1.65 0.29-2.19 0.88-0.53 0.59-0.79 1.39-0.79 2.41v5.89h-1.73v-14.47h1.73v5.67c0.4-0.63 0.89-1.09 1.44-1.41 0.56-0.3 1.2-0.46 1.92-0.46 1.2 0 2.1 0.37 2.72 1.11 0.61 0.74 0.92 1.83 0.92 3.27zm5.12-7.09v2.96h3.53v1.33h-3.53v5.66c0 0.84 0.12 1.39 0.35 1.63 0.23 0.25 0.71 0.37 1.42 0.37h1.76v1.43h-1.76c-1.32 0-2.23-0.25-2.73-0.74-0.51-0.49-0.76-1.39-0.76-2.69v-5.66h-1.25v-1.33h1.25v-2.96h1.72zm5.52-1.08h1.49c0.93 1.47 1.62 2.9 2.09 4.3 0.46 1.4 0.69 2.79 0.69 4.18s-0.23 2.79-0.69 4.19c-0.47 1.41-1.16 2.84-2.09 4.3h-1.49c0.82-1.42 1.44-2.83 1.84-4.24 0.41-1.4 0.61-2.82 0.61-4.25s-0.2-2.85-0.61-4.24c-0.4-1.4-1.02-2.81-1.84-4.24z"/>
    <g id="g2505" transform="translate(26)">
     <path id="text7741" fill="#808080" d="m643.92 152.1c0.44-0.69 0.98-1.19 1.6-1.52 0.62-0.32 1.34-0.49 2.18-0.49 1.14 0 2.01 0.34 2.62 1.02 0.61 0.67 0.92 1.63 0.92 2.88v5.6h-1.79v-5.55c0-0.89-0.19-1.55-0.55-1.98-0.37-0.43-0.93-0.64-1.69-0.64-0.92 0-1.65 0.26-2.19 0.78-0.54 0.53-0.8 1.24-0.8 2.15v5.24h-1.8v-5.55c0-0.89-0.18-1.55-0.55-1.98s-0.93-0.64-1.7-0.64c-0.91 0-1.64 0.26-2.17 0.79-0.54 0.53-0.81 1.24-0.81 2.14v5.24h-1.79v-9.27h1.79v1.44c0.41-0.57 0.9-0.99 1.47-1.26 0.56-0.27 1.24-0.41 2.02-0.41 0.79 0 1.46 0.17 2.01 0.52 0.55 0.34 0.96 0.83 1.23 1.49zm30.66 2.74c0-1.1-0.27-1.96-0.8-2.56-0.53-0.61-1.28-0.91-2.24-0.91s-1.7 0.3-2.24 0.91c-0.53 0.6-0.8 1.46-0.8 2.56s0.27 1.96 0.8 2.56c0.54 0.61 1.28 0.91 2.24 0.91s1.71-0.3 2.24-0.91c0.53-0.6 0.8-1.46 0.8-2.56zm1.78 3.6c0 1.58-0.41 2.75-1.23 3.52s-2.08 1.15-3.77 1.15c-0.62 0-1.22-0.04-1.77-0.12-0.56-0.08-1.1-0.2-1.62-0.36v-1.49c0.52 0.25 1.04 0.43 1.55 0.54 0.51 0.12 1.03 0.18 1.56 0.18 1.17 0 2.04-0.26 2.63-0.79 0.58-0.52 0.87-1.31 0.87-2.36v-0.75c-0.37 0.54-0.84 0.95-1.42 1.22-0.57 0.27-1.26 0.41-2.06 0.41-1.33 0-2.4-0.43-3.22-1.3-0.81-0.87-1.22-2.02-1.22-3.45s0.41-2.58 1.22-3.45c0.82-0.86 1.89-1.3 3.22-1.3 0.8 0 1.49 0.14 2.06 0.41 0.58 0.27 1.05 0.68 1.42 1.22v-1.4h1.78v8.12z"/>
     <path id="text2469" d="m597.85 169.41l-1.87 2.52 1.97 2.66h-1.01l-1.5-2.03-1.51 2.03h-1.01l2.02-2.71-1.85-2.47h1.01l1.37 1.85 1.38-1.85h1z" transform="scale(1.1052 .90482)" fill="#666"/>
    </g>
   </g>
  </g>
  <path id="path5055" marker-end="url(#Arrow1Lend)" d="m331.62 722.31l173.09 94.15" stroke-opacity=".58824" fill-rule="evenodd" stroke-dashoffset="0pt" stroke="#00f" stroke-miterlimit="8.8" stroke-dasharray="5.59027, 5.59027" stroke-width="2.7951" fill="#00f"/>
  <g id="g6331" fill="#00f">
   <path id="flowRoot9748" d="m385.21 374.04c1-1.79 2.2-3.12 3.59-3.97 1.38-0.85 3.02-1.28 4.9-1.28 2.53 0 4.48 0.88 5.86 2.66 1.37 1.77 2.06 4.29 2.06 7.56v14.67h-4.01v-14.54c0-2.33-0.42-4.06-1.24-5.19-0.83-1.13-2.08-1.69-3.78-1.69-2.07 0-3.7 0.69-4.9 2.06-1.2 1.38-1.8 3.25-1.8 5.62v13.74h-4.02v-14.54c0-2.34-0.41-4.08-1.23-5.2-0.83-1.12-2.1-1.68-3.82-1.68-2.04 0-3.67 0.69-4.87 2.07-1.2 1.39-1.8 3.25-1.8 5.61v13.74h-4.01v-24.31h4.01v3.78c0.91-1.49 2.01-2.59 3.28-3.3s2.79-1.06 4.53-1.06c1.77 0 3.27 0.45 4.51 1.34 1.24 0.9 2.15 2.2 2.74 3.91z"/>
   <path id="text9756" d="m411.91 385.17c-2.07 0-3.51 0.24-4.31 0.72-0.8 0.47-1.2 1.28-1.2 2.42 0 0.91 0.3 1.64 0.9 2.17 0.6 0.54 1.42 0.8 2.45 0.8 1.42 0 2.57-0.5 3.43-1.51s1.29-2.35 1.29-4.02v-0.58h-2.56zm5.12-1.06v8.92h-2.56v-2.37c-0.59 0.95-1.32 1.65-2.19 2.1-0.88 0.45-1.95 0.67-3.21 0.67-1.6 0-2.87-0.45-3.82-1.34-0.94-0.9-1.41-2.1-1.41-3.61 0-1.76 0.58-3.08 1.76-3.98 1.18-0.89 2.93-1.34 5.27-1.34h3.6v-0.25c0-1.18-0.39-2.09-1.17-2.74-0.78-0.64-1.87-0.97-3.27-0.97-0.89 0-1.76 0.11-2.61 0.32-0.85 0.22-1.66 0.54-2.44 0.97v-2.37c0.94-0.37 1.85-0.64 2.73-0.82 0.89-0.18 1.75-0.27 2.59-0.27 2.26 0 3.94 0.58 5.06 1.75 1.12 1.18 1.67 2.95 1.67 5.33zm15.27-6.25v2.43c-0.73-0.37-1.48-0.65-2.26-0.84-0.78-0.18-1.59-0.27-2.43-0.27-1.27 0-2.23 0.19-2.87 0.58s-0.95 0.98-0.95 1.76c0 0.59 0.22 1.06 0.68 1.4 0.45 0.34 1.37 0.66 2.75 0.97l0.88 0.2c1.82 0.39 3.12 0.94 3.88 1.65 0.77 0.71 1.15 1.7 1.15 2.98 0 1.45-0.57 2.6-1.72 3.44-1.15 0.85-2.73 1.27-4.74 1.27-0.83 0-1.71-0.08-2.61-0.24-0.91-0.16-1.86-0.41-2.87-0.73v-2.65c0.95 0.49 1.88 0.86 2.81 1.11 0.92 0.24 1.83 0.36 2.73 0.36 1.21 0 2.14-0.2 2.79-0.62 0.65-0.41 0.98-0.99 0.98-1.75 0-0.69-0.24-1.23-0.71-1.6s-1.5-0.73-3.09-1.08l-0.89-0.21c-1.59-0.33-2.74-0.84-3.45-1.54-0.7-0.69-1.06-1.64-1.06-2.85 0-1.47 0.52-2.6 1.56-3.4 1.05-0.8 2.53-1.2 4.44-1.2 0.95 0 1.84 0.07 2.68 0.21s1.61 0.34 2.32 0.62zm14.9 0v2.43c-0.73-0.37-1.48-0.65-2.26-0.84-0.78-0.18-1.59-0.27-2.43-0.27-1.27 0-2.23 0.19-2.87 0.58s-0.95 0.98-0.95 1.76c0 0.59 0.22 1.06 0.68 1.4s1.37 0.66 2.75 0.97l0.88 0.2c1.82 0.39 3.12 0.94 3.88 1.65 0.77 0.71 1.15 1.7 1.15 2.98 0 1.45-0.57 2.6-1.72 3.44-1.15 0.85-2.73 1.27-4.74 1.27-0.83 0-1.71-0.08-2.61-0.24-0.91-0.16-1.86-0.41-2.87-0.73v-2.65c0.95 0.49 1.89 0.86 2.81 1.11 0.92 0.24 1.83 0.36 2.73 0.36 1.21 0 2.14-0.2 2.79-0.62 0.65-0.41 0.98-0.99 0.98-1.75 0-0.69-0.24-1.23-0.71-1.6s-1.5-0.73-3.09-1.08l-0.89-0.21c-1.59-0.33-2.74-0.84-3.45-1.54-0.7-0.69-1.06-1.64-1.06-2.85 0-1.47 0.52-2.6 1.57-3.4 1.04-0.8 2.52-1.2 4.43-1.2 0.95 0 1.84 0.07 2.68 0.21s1.61 0.34 2.32 0.62z"/>
   <path id="flowRoot2545" d="m482.76 380.78c0-2.89-0.6-5.13-1.79-6.72-1.2-1.6-2.87-2.39-5.03-2.39-2.14 0-3.8 0.79-5 2.39-1.19 1.59-1.79 3.83-1.79 6.72 0 2.88 0.6 5.12 1.79 6.71 1.2 1.59 2.86 2.39 5 2.39 2.16 0 3.83-0.8 5.03-2.39 1.19-1.59 1.79-3.83 1.79-6.71zm3.99 9.42c0 4.14-0.92 7.22-2.75 9.24-1.84 2.01-4.66 3.02-8.45 3.02-1.4 0-2.72-0.1-3.97-0.31-1.24-0.21-2.45-0.53-3.62-0.97v-3.88c1.17 0.64 2.33 1.1 3.47 1.41 1.14 0.3 2.31 0.45 3.49 0.45 2.62 0 4.58-0.68 5.88-2.05 1.31-1.36 1.96-3.43 1.96-6.19v-1.98c-0.83 1.44-1.88 2.51-3.17 3.22-1.29 0.7-2.83 1.06-4.62 1.06-2.98 0-5.39-1.14-7.21-3.41s-2.73-5.28-2.73-9.03c0-3.76 0.91-6.78 2.73-9.05s4.23-3.41 7.21-3.41c1.79 0 3.33 0.36 4.62 1.07s2.34 1.78 3.17 3.21v-3.69h3.99v21.29z"/>
   <path id="text2553" d="m500.57 380.23c-0.29-0.17-0.6-0.29-0.94-0.37s-0.71-0.12-1.12-0.12c-1.45 0-2.57 0.47-3.34 1.42-0.78 0.94-1.17 2.3-1.17 4.06v8.24h-2.58v-15.63h2.58v2.43c0.54-0.95 1.24-1.66 2.11-2.12 0.86-0.46 1.91-0.69 3.15-0.69 0.18 0 0.37 0.01 0.59 0.04 0.21 0.02 0.45 0.06 0.71 0.1l0.01 2.64zm9.83 5.37c-2.08 0-3.52 0.24-4.32 0.71-0.8 0.48-1.2 1.29-1.2 2.43 0 0.91 0.3 1.63 0.9 2.17 0.6 0.53 1.42 0.8 2.45 0.8 1.43 0 2.57-0.5 3.43-1.51s1.29-2.35 1.29-4.03v-0.57h-2.55zm5.12-1.06v8.92h-2.57v-2.38c-0.59 0.95-1.32 1.65-2.19 2.1-0.88 0.45-1.95 0.68-3.21 0.68-1.6 0-2.87-0.45-3.82-1.35-0.94-0.89-1.41-2.1-1.41-3.6 0-1.76 0.59-3.09 1.76-3.98 1.18-0.89 2.94-1.34 5.27-1.34h3.6v-0.25c0-1.18-0.39-2.1-1.17-2.74-0.77-0.65-1.86-0.97-3.27-0.97-0.89 0-1.76 0.11-2.61 0.32-0.84 0.21-1.66 0.53-2.44 0.96v-2.37c0.94-0.36 1.85-0.63 2.74-0.82 0.88-0.18 1.74-0.27 2.58-0.27 2.26 0 3.94 0.59 5.06 1.76s1.68 2.95 1.68 5.33zm3.46-6.71h2.72l4.88 13.11 4.88-13.11h2.72l-5.86 15.63h-3.48l-5.86-15.63zm18.75 0h2.56v15.63h-2.56v-15.63zm0-6.08h2.56v3.25h-2.56v-3.25zm10.46 1.64v4.44h5.29v1.99h-5.29v8.49c0 1.27 0.17 2.09 0.52 2.45s1.06 0.55 2.13 0.55h2.64v2.15h-2.64c-1.98 0-3.35-0.37-4.1-1.11s-1.13-2.09-1.13-4.04v-8.49h-1.88v-1.99h1.88v-4.44h2.58zm15.18 21.52c-0.73 1.86-1.43 3.07-2.12 3.64s-1.61 0.85-2.76 0.85h-2.05v-2.15h1.5c0.71 0 1.26-0.17 1.65-0.5 0.39-0.34 0.82-1.13 1.3-2.37l0.46-1.18-6.32-15.37h2.72l4.88 12.22 4.88-12.22h2.72l-6.86 17.08z"/>
   <path id="text2557" d="m462.79 378.76l-4.11 4.57 4.32 4.82h-2.2l-3.31-3.69-3.31 3.69h-2.21l4.42-4.91-4.04-4.48h2.2l3.02 3.35 3.01-3.35h2.21z"/>
  </g>
  <g id="g6092" transform="translate(-35.363 -.089490)">
   <path id="text2494" d="m441.48 448.67c0.41-0.74 0.91-1.29 1.48-1.64s1.25-0.53 2.02-0.53c1.05 0 1.85 0.37 2.42 1.1s0.85 1.77 0.85 3.12v6.05h-1.65v-6c0-0.96-0.18-1.67-0.52-2.14-0.34-0.46-0.86-0.7-1.55-0.7-0.86 0-1.53 0.29-2.03 0.85-0.49 0.57-0.74 1.34-0.74 2.32v5.67h-1.66v-6c0-0.96-0.17-1.68-0.51-2.14-0.34-0.47-0.86-0.7-1.57-0.7-0.85 0-1.52 0.29-2.01 0.86-0.5 0.57-0.74 1.34-0.74 2.31v5.67h-1.66v-10.03h1.66v1.56c0.37-0.61 0.82-1.07 1.35-1.36 0.52-0.29 1.15-0.44 1.87-0.44 0.73 0 1.35 0.19 1.86 0.56s0.89 0.9 1.13 1.61zm28.34 2.97c0-1.19-0.24-2.12-0.73-2.78-0.5-0.65-1.19-0.98-2.08-0.98-0.88 0-1.57 0.33-2.06 0.98-0.49 0.66-0.74 1.59-0.74 2.78s0.25 2.11 0.74 2.77c0.49 0.65 1.18 0.98 2.06 0.98 0.89 0 1.58-0.33 2.08-0.98 0.49-0.66 0.73-1.58 0.73-2.77zm1.65 3.89c0 1.71-0.38 2.98-1.13 3.81-0.76 0.83-1.92 1.25-3.49 1.25-0.58 0-1.12-0.05-1.64-0.13-0.51-0.09-1.01-0.22-1.49-0.4v-1.6c0.48 0.26 0.96 0.45 1.43 0.58 0.47 0.12 0.95 0.19 1.44 0.19 1.08 0 1.89-0.29 2.43-0.85s0.8-1.42 0.8-2.56v-0.81c-0.34 0.59-0.77 1.03-1.3 1.32-0.53 0.3-1.17 0.44-1.91 0.44-1.23 0-2.22-0.47-2.97-1.4-0.76-0.94-1.13-2.18-1.13-3.73s0.37-2.8 1.13-3.73c0.75-0.94 1.74-1.41 2.97-1.41 0.74 0 1.38 0.15 1.91 0.44s0.96 0.73 1.3 1.32v-1.52h1.65v8.79z" transform="scale(1.0818 .92440)" fill="#808080"/>
   <text id="text2498" xml:space="preserve" transform="scale(1.1052 .90482)" font-size="9.4796px" y="464.873" x="443.194" font-family="Bitstream Vera Sans" fill="rgb(102, 102, 102)">
        <tspan id="tspan2500" y="464.87299" x="443.194">x</tspan>
      </text>
  </g>
  <path id="path6285" d="m717.77 398.1v2.64h3.67v1.18h-3.67v5.03c0 0.76 0.12 1.25 0.36 1.46 0.24 0.22 0.73 0.32 1.48 0.32h1.83v1.28h-1.83c-1.38 0-2.33-0.22-2.85-0.66s-0.79-1.24-0.79-2.4v-5.03h-1.3v-1.18h1.3v-2.64h1.8z"/>
  <g id="g6402" transform="translate(-17.363 -10.09)">
   <path id="path6265" fill="#808080" d="m672.78 428.41v12.87h1.78v-1.37c0.38 0.55 0.84 0.95 1.41 1.21 0.57 0.27 1.27 0.41 2.06 0.41 1.32 0 2.4-0.45 3.22-1.34 0.82-0.9 1.22-2.08 1.22-3.53 0-1.46-0.4-2.64-1.22-3.54-0.82-0.89-1.9-1.34-3.22-1.34-0.79 0-1.49 0.14-2.06 0.41s-1.03 0.7-1.41 1.25v-5.03h-1.78zm4.81 4.65c0.95 0 1.68 0.33 2.22 0.97s0.81 1.51 0.81 2.63-0.27 2.02-0.81 2.65c-0.54 0.64-1.27 0.94-2.22 0.94-0.94 0-1.68-0.3-2.21-0.94-0.54-0.63-0.82-1.53-0.82-2.65s0.28-1.99 0.82-2.63c0.53-0.64 1.27-0.97 2.21-0.97z"/>
   <path id="path6269" fill="#808080" d="m664.91 431.78c-1.56 0-2.78 0.45-3.66 1.31-0.88 0.87-1.31 2.04-1.31 3.57 0 1.51 0.43 2.73 1.31 3.59s2.1 1.28 3.66 1.28c1.55 0 2.77-0.42 3.65-1.28 0.89-0.86 1.35-2.08 1.35-3.59 0-1.53-0.46-2.7-1.35-3.57-0.88-0.86-2.1-1.31-3.65-1.31zm0 1.31c0.95 0 1.72 0.33 2.28 0.97 0.55 0.64 0.81 1.5 0.81 2.6s-0.26 1.98-0.81 2.62c-0.56 0.64-1.33 0.97-2.28 0.97-0.97 0-1.7-0.33-2.25-0.97-0.56-0.64-0.85-1.51-0.85-2.62s0.29-1.99 0.85-2.63c0.55-0.64 1.29-0.94 2.25-0.94z"/>
   <path id="path6281" fill="#808080" d="m608.41 431.78c-1.56 0-2.78 0.45-3.66 1.31-0.88 0.87-1.31 2.04-1.31 3.57 0 1.51 0.43 2.73 1.31 3.59s2.1 1.28 3.66 1.28c1.55 0 2.77-0.42 3.65-1.28 0.89-0.86 1.35-2.08 1.35-3.59 0-1.53-0.46-2.7-1.35-3.57-0.88-0.86-2.1-1.31-3.65-1.31zm0 1.31c0.95 0 1.72 0.33 2.28 0.97 0.55 0.64 0.81 1.5 0.81 2.6s-0.26 1.98-0.81 2.62c-0.56 0.64-1.33 0.97-2.28 0.97-0.97 0-1.7-0.33-2.25-0.97-0.56-0.64-0.85-1.51-0.85-2.62s0.29-1.99 0.85-2.63c0.55-0.64 1.29-0.94 2.25-0.94z"/>
   <path id="path6275" fill="#808080" d="m633.44 431.78c-0.58 0-1.17 0.08-1.78 0.19-0.62 0.11-1.26 0.25-1.91 0.47v1.4c0.54-0.25 1.1-0.43 1.69-0.56 0.58-0.13 1.19-0.19 1.81-0.19 0.97 0 1.74 0.18 2.28 0.57 0.54 0.38 0.81 0.92 0.81 1.62v0.16h-2.5c-1.62 0-2.84 0.25-3.65 0.78-0.82 0.53-1.22 1.33-1.22 2.37 0 0.9 0.31 1.6 0.97 2.13 0.65 0.53 1.54 0.81 2.65 0.81 0.88 0 1.61-0.14 2.22-0.41 0.61-0.26 1.13-0.68 1.53-1.24v1.4h1.78v-5.28c0-1.41-0.38-2.46-1.15-3.16-0.78-0.69-1.96-1.06-3.53-1.06zm1.12 4.84h1.78v0.35c0 0.99-0.3 1.77-0.9 2.37s-1.39 0.91-2.38 0.91c-0.71 0-1.27-0.15-1.68-0.47-0.42-0.32-0.63-0.74-0.63-1.28 0-0.68 0.26-1.16 0.81-1.44 0.56-0.28 1.56-0.44 3-0.44z"/>
   <path id="path6289" d="m711.84 410.59c-1.33 0-2.4 0.45-3.22 1.32-0.81 0.86-1.21 2-1.21 3.43s0.4 2.61 1.21 3.47c0.82 0.87 1.89 1.28 3.22 1.28 0.8 0 1.49-0.13 2.07-0.4 0.57-0.27 1.03-0.67 1.4-1.22v0.75c0 1.05-0.29 1.85-0.87 2.37-0.58 0.53-1.46 0.79-2.63 0.79-0.53 0-1.05-0.08-1.56-0.19-0.51-0.12-1.01-0.29-1.53-0.53v1.46c0.52 0.17 1.07 0.3 1.62 0.38 0.56 0.08 1.13 0.12 1.75 0.12 1.7 0 2.97-0.38 3.79-1.15s1.21-1.95 1.21-3.53v-8.13h-1.78v1.41c-0.37-0.55-0.83-0.95-1.4-1.22-0.58-0.27-1.27-0.41-2.07-0.41zm0.44 1.29c0.96 0 1.72 0.29 2.25 0.9s0.78 1.46 0.78 2.56-0.25 1.96-0.78 2.57c-0.53 0.6-1.29 0.9-2.25 0.9s-1.72-0.3-2.25-0.9c-0.53-0.61-0.78-1.47-0.78-2.57s0.25-1.95 0.78-2.56 1.29-0.9 2.25-0.9z"/>
   <path id="path6315" fill="#808080" d="m604.16 407.22v12.87h1.78v-1.37c0.37 0.55 0.83 0.95 1.4 1.22 0.58 0.26 1.27 0.4 2.07 0.4 1.31 0 2.39-0.45 3.21-1.34 0.83-0.89 1.22-2.07 1.22-3.53s-0.39-2.64-1.22-3.53c-0.82-0.9-1.9-1.35-3.21-1.35-0.8 0-1.49 0.14-2.07 0.41-0.57 0.27-1.03 0.67-1.4 1.22v-5h-1.78zm4.81 4.66c0.94 0 1.68 0.33 2.22 0.96 0.54 0.64 0.81 1.51 0.81 2.63s-0.27 1.99-0.81 2.62c-0.54 0.64-1.28 0.97-2.22 0.97s-1.68-0.33-2.22-0.97c-0.54-0.63-0.81-1.5-0.81-2.62s0.27-1.99 0.81-2.63c0.54-0.63 1.28-0.96 2.22-0.96z"/>
   <path id="path6319" fill="#808080" d="m731.81 389.41c-1.55 0-2.8 0.42-3.69 1.28-0.88 0.86-1.31 2.07-1.31 3.59s0.43 2.7 1.31 3.56c0.89 0.87 2.14 1.32 3.69 1.32s2.74-0.45 3.63-1.32c0.88-0.86 1.34-2.04 1.34-3.56s-0.46-2.73-1.34-3.59c-0.89-0.86-2.08-1.28-3.63-1.28zm0 1.28c0.95 0 1.7 0.32 2.25 0.97 0.56 0.64 0.82 1.52 0.82 2.62s-0.26 1.99-0.82 2.63c-0.55 0.64-1.3 0.93-2.25 0.93-0.96 0-1.73-0.3-2.28-0.93-0.55-0.64-0.84-1.52-0.84-2.63s0.29-1.99 0.84-2.62c0.56-0.64 1.33-0.97 2.28-0.97z"/>
   <path id="path6351" fill="#808080" d="m619.34 389.41c-1.55 0-2.77 0.42-3.65 1.28s-1.31 2.07-1.31 3.59 0.43 2.7 1.31 3.56c0.88 0.87 2.1 1.32 3.65 1.32s2.78-0.45 3.66-1.32c0.88-0.86 1.31-2.04 1.31-3.56s-0.43-2.73-1.31-3.59-2.11-1.28-3.66-1.28zm0 1.28c0.95 0 1.7 0.32 2.25 0.97 0.56 0.64 0.85 1.52 0.85 2.62s-0.29 1.99-0.85 2.63c-0.55 0.64-1.3 0.93-2.25 0.93-0.96 0-1.72-0.3-2.28-0.93-0.55-0.64-0.81-1.52-0.81-2.63s0.26-1.99 0.81-2.62c0.56-0.64 1.33-0.97 2.28-0.97z"/>
   <path id="path6357" fill="#808080" d="m709.47 368.22c-1.56 0-2.78 0.42-3.66 1.28s-1.31 2.07-1.31 3.59 0.43 2.7 1.31 3.57c0.88 0.86 2.1 1.31 3.66 1.31 1.55 0 2.77-0.45 3.65-1.31 0.89-0.87 1.35-2.05 1.35-3.57s-0.46-2.73-1.35-3.59c-0.88-0.86-2.1-1.28-3.65-1.28zm0 1.28c0.95 0 1.73 0.33 2.28 0.97s0.81 1.53 0.81 2.62c0 1.11-0.26 1.96-0.81 2.6s-1.33 0.97-2.28 0.97c-0.96 0-1.7-0.3-2.25-0.94s-0.84-1.52-0.84-2.63 0.28-1.98 0.84-2.62c0.55-0.64 1.29-0.97 2.25-0.97z"/>
   <path id="path6365" fill="#808080" d="m681.06 368.22c-0.58 0-1.16 0.05-1.78 0.16-0.61 0.1-1.25 0.28-1.9 0.5v1.4c0.54-0.25 1.1-0.47 1.68-0.59 0.59-0.13 1.2-0.19 1.82-0.19 0.97 0 1.74 0.21 2.28 0.59 0.54 0.39 0.81 0.93 0.81 1.63v0.16h-2.5c-1.62 0-2.84 0.25-3.66 0.78-0.81 0.53-1.22 1.33-1.22 2.37 0 0.89 0.32 1.59 0.97 2.13 0.66 0.53 1.55 0.81 2.66 0.81 0.88 0 1.61-0.14 2.22-0.41 0.6-0.26 1.12-0.68 1.53-1.25v1.41h1.78v-5.28c0-1.42-0.38-2.5-1.16-3.19-0.77-0.69-1.96-1.03-3.53-1.03zm1.13 4.84h1.78v0.35c0 0.99-0.31 1.77-0.91 2.37s-1.38 0.91-2.37 0.91c-0.72 0-1.27-0.15-1.69-0.47s-0.62-0.77-0.62-1.31c0-0.68 0.25-1.16 0.81-1.44 0.55-0.28 1.56-0.41 3-0.41z"/>
   <path id="path6375" fill="#808080" d="m639.84 368.22c-1.33 0-2.4 0.44-3.22 1.31-0.81 0.87-1.21 2-1.21 3.44 0 1.43 0.4 2.57 1.21 3.44 0.82 0.86 1.89 1.31 3.22 1.31 0.8 0 1.49-0.14 2.07-0.41 0.57-0.27 1.03-0.67 1.4-1.22v0.75c0 1.06-0.29 1.83-0.87 2.35s-1.46 0.78-2.63 0.78c-0.53 0-1.05-0.04-1.56-0.16-0.51-0.11-1.01-0.29-1.53-0.53v1.47c0.52 0.17 1.07 0.29 1.62 0.37 0.56 0.08 1.13 0.13 1.75 0.13 1.7 0 2.97-0.39 3.79-1.16s1.21-1.95 1.21-3.53v-8.12h-1.78v1.4c-0.37-0.54-0.83-0.94-1.4-1.22-0.58-0.26-1.27-0.4-2.07-0.4zm0.44 1.28c0.96 0 1.72 0.3 2.25 0.91 0.53 0.6 0.78 1.45 0.78 2.56 0 1.1-0.25 1.95-0.78 2.56s-1.29 0.91-2.25 0.91-1.72-0.3-2.25-0.91-0.78-1.46-0.78-2.56c0-1.11 0.25-1.96 0.78-2.56 0.53-0.61 1.29-0.91 2.25-0.91z"/>
   <path id="path6379" fill="#808080" d="m612.66 370.22c0.45-0.68 0.98-1.19 1.6-1.51 0.62-0.33 1.35-0.49 2.19-0.49 1.13 0 2 0.34 2.61 1.01 0.62 0.68 0.92 1.64 0.92 2.89v5.6h-1.79v-5.55c0-0.89-0.18-1.55-0.55-1.98s-0.93-0.65-1.69-0.65c-0.92 0-1.65 0.27-2.19 0.79-0.53 0.53-0.8 1.24-0.8 2.14v5.25h-1.79v-5.55c0-0.9-0.19-1.56-0.55-1.98-0.37-0.43-0.94-0.65-1.71-0.65-0.91 0-1.63 0.27-2.17 0.8-0.54 0.52-0.8 1.24-0.8 2.13v5.25h-1.8v-9.28h1.8v1.44c0.4-0.56 0.89-0.98 1.46-1.26 0.57-0.26 1.24-0.4 2.02-0.4 0.79 0 1.46 0.17 2.02 0.51 0.55 0.35 0.96 0.84 1.22 1.49z"/>
   <path id="path6373" fill="#808080" d="m655.09 368.44h1.78v9.28h-1.78v-9.28z"/>
   <path id="path6371" fill="#808080" d="m655.09 364.83h1.78v1.93h-1.78v-1.93z"/>
   <path id="path6369" fill="#808080" d="m667.51 368.72v1.44c-0.5-0.22-1.03-0.39-1.57-0.5s-1.1-0.17-1.68-0.17c-0.89 0-1.55 0.12-2 0.35-0.44 0.23-0.66 0.58-0.66 1.04 0 0.36 0.16 0.64 0.48 0.84 0.31 0.2 0.95 0.39 1.9 0.57l0.62 0.12c1.26 0.23 2.16 0.56 2.69 0.98 0.54 0.42 0.8 1.01 0.8 1.77 0 0.86-0.4 1.54-1.19 2.04-0.8 0.5-1.9 0.76-3.29 0.76-0.58 0-1.19-0.05-1.82-0.15s-1.29-0.24-1.99-0.43v-1.58c0.66 0.3 1.31 0.51 1.95 0.66s1.27 0.22 1.9 0.22c0.83 0 1.48-0.12 1.93-0.37 0.46-0.24 0.68-0.59 0.68-1.04 0-0.41-0.16-0.73-0.49-0.95-0.32-0.22-1.04-0.43-2.14-0.64l-0.62-0.12c-1.11-0.2-1.91-0.5-2.4-0.92-0.49-0.41-0.73-0.97-0.73-1.69 0-0.87 0.36-1.54 1.08-2.02 0.73-0.47 1.75-0.71 3.08-0.71 0.66 0 1.28 0.04 1.86 0.12 0.58 0.09 1.12 0.21 1.61 0.38z"/>
   <path id="path6363" fill="#808080" d="m689.42 364.83h1.79v12.89h-1.79v-12.89z"/>
   <path id="path6361" fill="#808080" d="m701.84 368.72v1.44c-0.5-0.22-1.02-0.39-1.57-0.5-0.54-0.11-1.1-0.17-1.68-0.17-0.89 0-1.55 0.12-1.99 0.35s-0.67 0.58-0.67 1.04c0 0.36 0.16 0.64 0.48 0.84 0.31 0.2 0.95 0.39 1.91 0.57l0.61 0.12c1.26 0.23 2.16 0.56 2.7 0.98 0.53 0.42 0.79 1.01 0.79 1.77 0 0.86-0.39 1.54-1.19 2.04s-1.9 0.76-3.29 0.76c-0.58 0-1.19-0.05-1.82-0.15s-1.29-0.24-1.99-0.43v-1.58c0.66 0.3 1.31 0.51 1.95 0.66s1.27 0.22 1.9 0.22c0.84 0 1.48-0.12 1.94-0.37 0.45-0.24 0.67-0.59 0.67-1.04 0-0.41-0.16-0.73-0.49-0.95-0.32-0.22-1.04-0.43-2.14-0.64l-0.62-0.12c-1.11-0.2-1.9-0.5-2.39-0.92-0.49-0.41-0.74-0.97-0.74-1.69 0-0.87 0.36-1.54 1.09-2.02 0.72-0.47 1.74-0.71 3.08-0.71 0.65 0 1.27 0.04 1.86 0.12 0.58 0.09 1.11 0.21 1.6 0.38z"/>
   <path id="path6355" fill="#808080" d="m612.02 389.99v1.43c-0.5-0.24-1.01-0.42-1.52-0.54-0.5-0.12-1.01-0.18-1.53-0.18-1.16 0-2.05 0.32-2.69 0.94-0.64 0.63-0.96 1.51-0.96 2.64s0.32 2.01 0.96 2.64c0.64 0.62 1.53 0.94 2.69 0.94 0.52 0 1.03-0.06 1.53-0.18 0.51-0.12 1.02-0.3 1.52-0.54v1.41c-0.5 0.2-1.01 0.35-1.54 0.45-0.54 0.1-1.1 0.15-1.7 0.15-1.64 0-2.94-0.44-3.9-1.32s-1.44-2.06-1.44-3.55c0-1.51 0.48-2.7 1.46-3.57 0.97-0.87 2.3-1.3 3.99-1.3 0.55 0 1.09 0.05 1.61 0.15 0.52 0.09 1.03 0.24 1.52 0.43z"/>
   <path id="path6349" fill="#808080" d="m636.29 393.31v5.6h-1.78v-5.55c0-0.88-0.21-1.53-0.61-1.97s-1-0.65-1.8-0.65c-0.96 0-1.72 0.26-2.27 0.78-0.56 0.53-0.84 1.24-0.84 2.15v5.24h-1.79v-9.27h1.79v1.44c0.43-0.56 0.93-0.98 1.51-1.26 0.58-0.27 1.24-0.41 2-0.41 1.25 0 2.19 0.33 2.83 0.99s0.96 1.63 0.96 2.91z"/>
   <path id="path6347" fill="#808080" d="m646.78 389.91v1.44c-0.5-0.22-1.03-0.39-1.57-0.5s-1.1-0.16-1.69-0.16c-0.88 0-1.54 0.11-1.99 0.34-0.44 0.24-0.66 0.58-0.66 1.05 0 0.35 0.16 0.63 0.47 0.83 0.32 0.2 0.96 0.39 1.91 0.57l0.61 0.12c1.27 0.23 2.17 0.56 2.7 0.98 0.54 0.42 0.8 1.01 0.8 1.77 0 0.86-0.4 1.54-1.2 2.04-0.79 0.51-1.89 0.76-3.28 0.76-0.59 0-1.19-0.05-1.82-0.15s-1.29-0.24-1.99-0.43v-1.58c0.66 0.3 1.31 0.52 1.95 0.66 0.64 0.15 1.27 0.22 1.89 0.22 0.84 0 1.49-0.12 1.94-0.37 0.45-0.24 0.68-0.59 0.68-1.04 0-0.41-0.16-0.73-0.49-0.95-0.32-0.22-1.04-0.43-2.14-0.63l-0.62-0.13c-1.11-0.2-1.91-0.5-2.4-0.91-0.49-0.42-0.73-0.98-0.73-1.7 0-0.87 0.36-1.54 1.08-2.02 0.72-0.47 1.75-0.71 3.08-0.71 0.66 0 1.28 0.04 1.86 0.13 0.58 0.08 1.12 0.2 1.61 0.37z"/>
   <path id="path6345" fill="#808080" d="m650.21 389.64h1.78v9.27h-1.78v-9.27z"/>
   <path id="path6343" fill="#808080" d="m650.21 386.03h1.78v1.93h-1.78v-1.93z"/>
   <path id="path6341" fill="#808080" d="m662.84 386.03v5c-0.37-0.55-0.83-0.95-1.4-1.22s-1.26-0.4-2.06-0.4c-1.32 0-2.4 0.45-3.22 1.34-0.83 0.89-1.22 2.07-1.22 3.53s0.39 2.64 1.22 3.53c0.82 0.9 1.9 1.35 3.22 1.35 0.8 0 1.49-0.14 2.06-0.41s1.03-0.67 1.4-1.22v1.38h1.78v-12.88h-1.78zm-3.03 4.66c0.95 0 1.68 0.33 2.22 0.97 0.54 0.63 0.81 1.5 0.81 2.62s-0.27 1.99-0.81 2.63c-0.54 0.63-1.27 0.97-2.22 0.97-0.94 0-1.68-0.34-2.22-0.97-0.53-0.64-0.81-1.51-0.81-2.63s0.27-1.99 0.81-2.62c0.54-0.64 1.28-0.97 2.22-0.97z"/>
   <path id="path6337" fill="#808080" d="m672.84 389.41c-1.62 0-2.91 0.45-3.87 1.34s-1.44 2.11-1.44 3.63c0 1.46 0.49 2.6 1.5 3.46s2.39 1.32 4.13 1.32c0.69 0 1.36-0.07 2.03-0.19s1.33-0.3 1.97-0.53v-1.44c-0.64 0.29-1.27 0.48-1.91 0.62-0.64 0.15-1.31 0.22-2 0.22-1.18 0-2.09-0.26-2.75-0.81s-1.05-1.36-1.12-2.41h8.21v-0.74c0-1.38-0.43-2.45-1.28-3.26-0.85-0.8-2.01-1.21-3.47-1.21zm0.04 1.28c0.87 0 1.59 0.25 2.12 0.75 0.53 0.49 0.8 1.16 0.81 2h-6.37c0.09-0.87 0.43-1.52 1.03-2s1.41-0.75 2.41-0.75z"/>
   <path id="path6333" fill="#808080" d="m686.8 391.06c-0.2-0.1-0.42-0.17-0.66-0.22-0.23-0.05-0.49-0.07-0.78-0.07-1 0-1.78 0.28-2.32 0.84-0.53 0.56-0.8 1.36-0.8 2.41v4.89h-1.8v-9.27h1.8v1.44c0.37-0.57 0.86-0.99 1.46-1.26s1.33-0.41 2.19-0.41c0.12 0 0.26 0.01 0.41 0.02 0.14 0.02 0.31 0.04 0.49 0.06l0.01 1.57z"/>
   <path id="path6331" fill="#808080" d="m693.22 389.41c-1.63 0-2.92 0.45-3.88 1.34s-1.43 2.11-1.43 3.63c0 1.46 0.52 2.6 1.53 3.46s2.36 1.32 4.09 1.32c0.69 0 1.39-0.07 2.06-0.19s1.33-0.3 1.97-0.53v-1.44c-0.63 0.29-1.29 0.48-1.94 0.62-0.64 0.15-1.28 0.22-1.96 0.22-1.19 0-2.12-0.26-2.78-0.81-0.67-0.55-1.02-1.36-1.1-2.41h8.19v-0.74c0-1.38-0.43-2.45-1.28-3.26-0.85-0.8-2.01-1.21-3.47-1.21zm0.03 1.28c0.88 0 1.59 0.25 2.13 0.75 0.53 0.49 0.8 1.16 0.81 2h-6.35c0.09-0.87 0.44-1.52 1.04-2 0.59-0.48 1.38-0.75 2.37-0.75z"/>
   <path id="path6327" fill="#808080" d="m708.03 386.03v5c-0.37-0.55-0.83-0.95-1.41-1.22-0.57-0.27-1.26-0.4-2.06-0.4-1.31 0-2.39 0.45-3.22 1.34-0.82 0.89-1.22 2.07-1.22 3.53s0.4 2.64 1.22 3.53c0.83 0.9 1.91 1.35 3.22 1.35 0.8 0 1.49-0.14 2.06-0.41 0.58-0.27 1.04-0.67 1.41-1.22v1.38h1.78v-12.88h-1.78zm-3.03 4.66c0.94 0 1.68 0.33 2.22 0.97 0.54 0.63 0.81 1.5 0.81 2.62s-0.27 1.99-0.81 2.63c-0.54 0.63-1.28 0.97-2.22 0.97s-1.68-0.34-2.22-0.97c-0.54-0.64-0.81-1.51-0.81-2.63s0.27-1.99 0.81-2.62c0.54-0.64 1.28-0.97 2.22-0.97z"/>
   <path id="path6323" fill="#808080" d="m721.57 387v2.64h3.67v1.18h-3.67v5.03c0 0.76 0.12 1.24 0.36 1.46 0.24 0.21 0.73 0.32 1.48 0.32h1.83v1.28h-1.83c-1.38 0-2.33-0.22-2.85-0.66s-0.78-1.24-0.78-2.4v-5.03h-1.31v-1.18h1.31v-2.64h1.79z"/>
   <path id="path6313" fill="#808080" d="m621.34 410.59c-1.62 0-2.91 0.46-3.87 1.35s-1.44 2.1-1.44 3.62c0 1.47 0.52 2.64 1.53 3.5s2.36 1.28 4.1 1.28c0.69 0 1.39-0.06 2.06-0.18s1.3-0.3 1.94-0.54v-1.43c-0.64 0.28-1.27 0.51-1.91 0.65-0.64 0.15-1.28 0.22-1.97 0.22-1.18 0-2.12-0.29-2.78-0.84s-1.02-1.36-1.09-2.41h8.18v-0.72c0-1.38-0.43-2.47-1.28-3.28-0.85-0.8-2.01-1.22-3.47-1.22zm0.04 1.32c0.87 0 1.59 0.22 2.12 0.71 0.53 0.5 0.8 1.17 0.81 2l-6.37 0.04c0.09-0.88 0.43-1.56 1.03-2.04s1.41-0.71 2.41-0.71z"/>
   <path id="path6309" fill="#808080" d="m637.09 408.2v2.63h3.67v1.18h-3.67v5.03c0 0.76 0.12 1.25 0.37 1.46 0.24 0.22 0.73 0.32 1.47 0.32h1.83v1.28h-1.83c-1.37 0-2.32-0.22-2.85-0.66-0.52-0.44-0.78-1.24-0.78-2.4v-5.03h-1.31v-1.18h1.31v-2.63h1.79z"/>
   <path id="path6307" fill="#808080" d="m652.14 414.5v5.6h-1.79v-5.55c0-0.87-0.2-1.53-0.6-1.97-0.4-0.43-1-0.65-1.8-0.65-0.96 0-1.72 0.26-2.27 0.78-0.56 0.53-0.84 1.24-0.84 2.15v5.24h-1.79v-12.88h1.79v5.05c0.43-0.56 0.93-0.98 1.51-1.25 0.58-0.28 1.24-0.42 2-0.42 1.25 0 2.19 0.33 2.83 0.99s0.96 1.63 0.96 2.91z"/>
   <path id="path6305" fill="#808080" d="m660.25 410.59c-1.63 0-2.92 0.46-3.87 1.35-0.96 0.89-1.44 2.1-1.44 3.62 0 1.47 0.49 2.64 1.5 3.5s2.39 1.28 4.12 1.28c0.69 0 1.36-0.06 2.03-0.18s1.33-0.3 1.97-0.54v-1.43c-0.63 0.28-1.26 0.51-1.9 0.65-0.65 0.15-1.32 0.22-2 0.22-1.19 0-2.09-0.29-2.75-0.84-0.67-0.55-1.05-1.36-1.13-2.41h8.22v-0.72c0-1.38-0.43-2.47-1.28-3.28-0.85-0.8-2.01-1.22-3.47-1.22zm0.03 1.32c0.88 0 1.59 0.22 2.13 0.71 0.53 0.5 0.8 1.17 0.81 2l-6.38 0.04c0.09-0.88 0.44-1.56 1.04-2.04 0.59-0.48 1.41-0.71 2.4-0.71z"/>
   <path id="path6301" d="m673.2 410.83h1.78l2.23 7.23 2.22-7.23h2.1l2.23 7.23 2.22-7.23h1.78l-2.84 9.27h-2.1l-2.34-7.6-2.34 7.6h-2.1l-2.84-9.27z"/>
   <path id="path6299" d="m695 410.59c-1.63 0-2.92 0.46-3.88 1.35-0.95 0.89-1.43 2.1-1.43 3.62 0 1.47 0.52 2.64 1.53 3.5s2.36 1.28 4.09 1.28c0.69 0 1.39-0.06 2.07-0.18 0.67-0.12 1.32-0.3 1.96-0.54v-1.43c-0.63 0.28-1.29 0.51-1.93 0.65-0.65 0.15-1.29 0.22-1.97 0.22-1.18 0-2.12-0.29-2.78-0.84-0.67-0.55-1.02-1.36-1.1-2.41h8.19v-0.72c0-1.38-0.43-2.47-1.28-3.28-0.85-0.8-2.01-1.22-3.47-1.22zm0.03 1.32c0.88 0 1.59 0.22 2.13 0.71 0.53 0.5 0.8 1.17 0.81 2l-6.35 0.04c0.1-0.88 0.44-1.56 1.04-2.04 0.59-0.48 1.38-0.71 2.37-0.71z"/>
   <path id="path6295" d="m702.68 410.83h1.78v9.27h-1.78v-9.27z"/>
   <path id="path6293" d="m702.68 407.22h1.78v1.93h-1.78v-1.93z"/>
   <path id="path6287" d="m729.79 414.5v5.6h-1.78v-5.55c0-0.87-0.2-1.53-0.6-1.97-0.4-0.43-1-0.65-1.8-0.65-0.97 0-1.72 0.26-2.28 0.78-0.55 0.53-0.83 1.24-0.83 2.15v5.24h-1.8v-12.88h1.8v5.05c0.42-0.56 0.93-0.98 1.5-1.25 0.58-0.28 1.25-0.42 2-0.42 1.25 0 2.19 0.33 2.83 0.99s0.96 1.63 0.96 2.91z"/>
   <path id="path6279" fill="#808080" d="m621.83 428.41v1.27h-1.7c-0.64 0-1.08 0.11-1.33 0.33s-0.38 0.62-0.38 1.19v0.82h2.94v1.18h-2.94v8.09h-1.79v-8.09h-1.7v-1.18h1.7v-0.65c0-1.03 0.28-1.78 0.85-2.25 0.56-0.47 1.45-0.71 2.67-0.71h1.68z"/>
   <path id="path6273" fill="#808080" d="m650.82 435.7v5.59h-1.78v-5.55c0-0.87-0.2-1.53-0.6-1.97-0.4-0.43-1-0.65-1.81-0.65-0.96 0-1.72 0.26-2.27 0.79-0.56 0.52-0.84 1.23-0.84 2.14v5.24h-1.79v-9.27h1.79v1.44c0.43-0.56 0.93-0.98 1.51-1.25 0.58-0.28 1.25-0.41 2-0.41 1.25 0 2.19 0.32 2.83 0.98s0.96 1.63 0.96 2.92z"/>
   <path id="path6263" fill="#808080" d="m685.43 432.02h1.79v9.44c0 1.18-0.27 2.03-0.79 2.56-0.53 0.53-1.38 0.8-2.55 0.8h-0.68v-1.29h0.48c0.68 0 1.14-0.14 1.38-0.41 0.25-0.26 0.37-0.82 0.37-1.66v-9.44z"/>
   <path id="path6261" fill="#808080" d="m685.43 428.41h1.79v1.93h-1.79v-1.93z"/>
   <path id="path6259" fill="#808080" d="m695.47 431.78c-1.63 0-2.92 0.45-3.88 1.34-0.95 0.9-1.43 2.11-1.43 3.63 0 1.47 0.52 2.64 1.53 3.5s2.36 1.28 4.09 1.28c0.69 0 1.39-0.07 2.06-0.19 0.68-0.12 1.33-0.3 1.97-0.53v-1.43c-0.63 0.28-1.29 0.51-1.93 0.65-0.65 0.15-1.29 0.22-1.97 0.22-1.19 0-2.12-0.29-2.79-0.84-0.66-0.55-1.01-1.33-1.09-2.38h8.19v-0.75c0-1.38-0.43-2.48-1.28-3.28s-2.01-1.22-3.47-1.22zm0.03 1.31c0.88 0 1.59 0.26 2.12 0.75 0.54 0.5 0.8 1.14 0.82 1.97l-6.35 0.03c0.09-0.87 0.44-1.55 1.03-2.03 0.6-0.48 1.38-0.72 2.38-0.72z"/>
   <path id="path6255" fill="#808080" d="m710.95 432.38v1.42c-0.5-0.24-1.01-0.42-1.52-0.54-0.5-0.11-1.01-0.17-1.53-0.17-1.16 0-2.06 0.31-2.7 0.94-0.63 0.62-0.95 1.5-0.95 2.63s0.32 2.01 0.95 2.64c0.64 0.63 1.54 0.94 2.7 0.94 0.52 0 1.03-0.06 1.53-0.18 0.51-0.12 1.02-0.3 1.52-0.53v1.41c-0.5 0.19-1.01 0.34-1.55 0.44-0.53 0.1-1.1 0.15-1.7 0.15-1.63 0-2.93-0.44-3.89-1.32-0.96-0.87-1.44-2.06-1.44-3.55 0-1.51 0.48-2.7 1.45-3.56 0.98-0.87 2.31-1.3 4-1.3 0.55 0 1.09 0.04 1.61 0.14s1.03 0.24 1.52 0.44z"/>
   <path id="text4814" fill="#808080" d="m715.83 429.39v2.63h3.67v1.18h-3.67v5.04c0 0.75 0.12 1.24 0.37 1.45 0.24 0.22 0.73 0.33 1.47 0.33h1.83v1.27h-1.83c-1.37 0-2.32-0.22-2.85-0.66-0.52-0.44-0.78-1.23-0.78-2.39v-5.04h-1.31v-1.18h1.31v-2.63h1.79z"/>
   <path id="text2513" d="m569.65 409.66l-1.87 2.52 1.97 2.66h-1l-1.51-2.04-1.51 2.04h-1.01l2.02-2.71-1.84-2.47h1l1.37 1.84 1.38-1.84h1z" transform="scale(1.1052 .90482)" fill="#666"/>
  </g>
  <g id="g7592" fill="#00f">
   <path id="flowRoot9891" d="m445.83 913.56c1.07-2.01 2.37-3.51 3.9-4.49 1.52-0.98 3.33-1.49 5.42-1.53 2.82-0.05 5.01 0.9 6.58 2.84 1.56 1.94 2.38 4.73 2.45 8.37l0.3 16.31-4.46 0.08-0.31-16.16c-0.05-2.6-0.54-4.51-1.48-5.75-0.94-1.23-2.35-1.84-4.23-1.8-2.3 0.04-4.11 0.84-5.42 2.39-1.3 1.56-1.93 3.65-1.88 6.29l0.28 15.28-4.46 0.08-0.3-16.17c-0.05-2.6-0.55-4.52-1.49-5.75s-2.37-1.83-4.28-1.79c-2.27 0.04-4.05 0.84-5.36 2.4s-1.94 3.66-1.89 6.28l0.29 15.28-4.47 0.08-0.5-27.03 4.46-0.08 0.08 4.19c0.98-1.67 2.18-2.92 3.58-3.73 1.4-0.82 3.07-1.24 5.02-1.28 1.96-0.03 3.64 0.43 5.03 1.41 1.4 0.97 2.44 2.4 3.14 4.28zm60.79 6.88c-0.06-3.22-0.77-5.7-2.13-7.44-1.36-1.75-3.24-2.6-5.63-2.55-2.38 0.04-4.22 0.96-5.52 2.75-1.29 1.8-1.91 4.31-1.85 7.52 0.06 3.2 0.77 5.68 2.13 7.42 1.36 1.75 3.23 2.6 5.62 2.55 2.39-0.04 4.24-0.96 5.53-2.75 1.3-1.8 1.91-4.3 1.85-7.5zm4.64 10.39c0.09 4.6-0.87 8.05-2.87 10.33s-5.11 3.46-9.33 3.54c-1.56 0.03-3.03-0.06-4.42-0.27s-2.74-0.54-4.05-1l-0.08-4.32c1.31 0.69 2.61 1.19 3.89 1.5s2.57 0.46 3.89 0.43c2.92-0.05 5.08-0.85 6.5-2.4s2.1-3.86 2.04-6.93l-0.04-2.19c-0.88 1.6-2.04 2.82-3.45 3.63-1.42 0.82-3.13 1.24-5.12 1.28-3.32 0.06-6.01-1.15-8.08-3.64-2.08-2.49-3.16-5.81-3.23-9.98-0.08-4.18 0.87-7.56 2.85-10.12 1.98-2.57 4.63-3.88 7.94-3.94 2-0.04 3.72 0.33 5.16 1.09 1.45 0.76 2.65 1.93 3.59 3.5l-0.07-4.1 4.44-0.08 0.44 23.67z"/>
   <path id="text2510" d="m483.06 917.39l-5.99 6.34 6.3 6.69h-3.21l-4.82-5.12-4.83 5.12h-3.21l6.44-6.82-5.89-6.21h3.21l4.4 4.64 4.39-4.64h3.21z"/>
  </g>
  <g id="g7597" fill="#00f">
   <path id="flowRoot8732" d="m399.75 258.1h11.73v2.32h-8.97v6.02h8.09v2.32h-8.09v9.75h-2.76v-20.41zm34.18 7.7h17.53v2.3h-17.53v-2.3zm0 5.58h17.53v2.32h-17.53v-2.32z" fill-opacity=".71710" transform="matrix(.86795 -.017040 .016218 .91195 -149.85 583.81)"/>
   <g id="g6530" transform="translate(-6 -2)">
    <path id="flowRoot11019" d="m398.96 241.7h2.16v2.08c1-1.42 2.2-2.24 3.58-2.44 0.17-0.02 0.36-0.04 0.56-0.06h0.36c1.67 0 2.9 0.61 3.7 1.82 0.09 0.13 0.18 0.27 0.25 0.42 1.01-1.21 2.1-1.92 3.28-2.12 0.15-0.04 0.31-0.07 0.47-0.09h0.06c0.22-0.02 0.46-0.03 0.7-0.03 2.28 0 3.65 0.92 4.12 2.75 0.09 0.41 0.14 0.86 0.14 1.34v11.01h-2.36v-10.11c0-1.51-0.58-2.45-1.76-2.8-0.3-0.1-0.62-0.14-0.95-0.14-1.14 0-2.06 0.5-2.75 1.51-0.46 0.69-0.7 1.46-0.7 2.32v9.22h-2.35v-10.11c0-1.63-0.66-2.58-1.99-2.86-0.22-0.05-0.46-0.08-0.72-0.08-1.16 0-2.08 0.52-2.78 1.57-0.44 0.67-0.67 1.42-0.67 2.26v9.22h-2.35v-14.68zm40.69 0h2.16v12.27c0 2.87-0.38 4.91-1.15 6.1-0.13 0.19-0.26 0.37-0.39 0.53-0.9 1.12-2.36 1.74-4.4 1.85-0.2 0.02-0.41 0.03-0.61 0.03-2.58 0-4.33-0.82-5.27-2.46-0.31-0.58-0.51-1.24-0.59-1.96h2.39c0.11 0.72 0.41 1.28 0.89 1.68 0.67 0.52 1.56 0.78 2.66 0.78 1.51 0 2.6-0.46 3.25-1.37 0.56-0.77 0.84-2.1 0.84-4.01v-0.75c-1.1 1.53-2.33 2.39-3.7 2.57-0.2 0.04-0.45 0.06-0.75 0.06-1.55 0-2.9-0.6-4.03-1.79-0.06-0.06-0.12-0.11-0.17-0.17-1.24-1.44-1.85-3.36-1.85-5.77 0-2.85 0.79-5.02 2.38-6.49 1.06-1.01 2.35-1.52 3.86-1.52 1.83 0 3.33 0.85 4.48 2.55v-2.13zm-4.23 1.74c-1.64 0-2.8 0.84-3.5 2.52-0.37 0.9-0.56 1.96-0.56 3.19 0 2.6 0.73 4.33 2.19 5.21 0.54 0.34 1.17 0.5 1.9 0.5 1.67 0 2.82-0.86 3.47-2.57 0.34-0.86 0.51-1.88 0.51-3.05 0-2.8-0.77-4.61-2.3-5.41-0.5-0.26-1.07-0.39-1.71-0.39zm29.24 3.19h-2.36c-0.24-1.81-1.14-2.85-2.71-3.13-0.34-0.02-0.59-0.04-0.76-0.06-1.75 0-2.96 0.93-3.61 2.8-0.3 0.86-0.45 1.88-0.45 3.05 0 2.56 0.74 4.26 2.21 5.1 0.55 0.31 1.18 0.47 1.91 0.47 2 0 3.19-1.17 3.58-3.52h2.35c-0.2 2.55-1.27 4.26-3.22 5.12-0.8 0.37-1.72 0.56-2.77 0.56-2.41 0-4.19-0.98-5.35-2.94-0.76-1.31-1.14-2.9-1.14-4.79 0-2.99 0.86-5.2 2.57-6.63 1.1-0.92 2.42-1.38 3.95-1.38 1.98 0 3.51 0.64 4.59 1.91 0.08 0.09 0.15 0.18 0.23 0.28 0.54 0.8 0.86 1.85 0.98 3.16zm8.42-5.35c2.84 0 4.79 1.21 5.86 3.62 0.54 1.21 0.81 2.66 0.81 4.36 0 3.12-0.95 5.34-2.86 6.67-1.04 0.73-2.3 1.09-3.78 1.09-2.69 0-4.59-1.11-5.71-3.33-0.62-1.25-0.92-2.77-0.92-4.54 0-3.25 0.98-5.53 2.94-6.83 1.02-0.69 2.25-1.04 3.66-1.04zm0.03 2.16c-1.73 0-2.96 0.86-3.67 2.58-0.35 0.89-0.53 1.94-0.53 3.13 0 2.56 0.73 4.29 2.19 5.18 0.58 0.36 1.25 0.53 2.01 0.53 1.68 0 2.89-0.82 3.61-2.46 0.4-0.88 0.59-1.93 0.59-3.16 0-2.71-0.76-4.49-2.29-5.35-0.56-0.3-1.2-0.45-1.91-0.45zm20.21 2.35h-2.46c-0.06-1.57-1.04-2.35-2.94-2.35-1.54 0-2.52 0.46-2.94 1.37-0.12 0.26-0.17 0.54-0.17 0.84 0 0.84 0.61 1.47 1.85 1.88 0.26 0.07 0.54 0.15 0.86 0.22l2.24 0.53c2.2 0.53 3.52 1.44 3.95 2.75 0.13 0.39 0.2 0.84 0.2 1.34 0 1.79-0.84 3.1-2.52 3.92-0.97 0.49-2.15 0.73-3.53 0.73-3.62 0-5.56-1.51-5.82-4.54-0.02-0.15-0.03-0.3-0.03-0.47h2.46c0.11 0.87 0.34 1.5 0.67 1.87 0.62 0.66 1.59 0.98 2.92 0.98 1.56 0 2.61-0.44 3.13-1.31 0.19-0.3 0.28-0.63 0.28-0.98 0-0.84-0.48-1.44-1.45-1.79-0.25-0.1-0.52-0.18-0.82-0.26l-2.18-0.53c-2.22-0.54-3.62-1.29-4.2-2.24-0.17-0.3-0.29-0.64-0.37-1.03-0.05-0.28-0.08-0.6-0.08-0.96 0-1.73 0.79-2.99 2.35-3.78 0.92-0.46 2.01-0.7 3.28-0.7 2.7 0 4.39 0.95 5.04 2.83 0.18 0.51 0.28 1.07 0.28 1.68zm17-9.85c3.76 0 5.81 2.85 6.16 8.56 0.04 0.58 0.06 1.18 0.06 1.8 0 5-0.93 8.15-2.8 9.46-0.91 0.63-2.05 0.95-3.42 0.95-2.59 0-4.35-1.19-5.29-3.58-0.2-0.56-0.38-1.2-0.53-1.91-0.28-1.34-0.42-2.98-0.42-4.92 0.13-6.8 2.21-10.25 6.24-10.36zm0 2.01c-2.55 0-3.83 2.39-3.83 7.17h7.7c0-2.02-0.27-3.73-0.81-5.15-0.54-1.35-1.56-2.02-3.06-2.02zm3.87 9.19h-7.7c0 3.9 0.75 6.27 2.24 7.11 0.45 0.26 0.98 0.39 1.59 0.39 1.83 0 2.99-1.11 3.48-3.33 0.26-1.22 0.39-2.61 0.39-4.17z" fill-opacity=".71710" transform="matrix(1.7652 -.032983 .032983 1.7652 -573.26 440.74)"/>
    <path id="text2483" d="m174.86 932.46l-5.1 6.87 5.37 7.25h-2.73l-4.11-5.55-4.11 5.55h-2.73l5.48-7.39-5.02-6.73h2.74l3.74 5.03 3.74-5.03h2.73z" transform="scale(1.0826 .92371)"/>
    <path id="text2514" d="m231.73 860.86l-5.52 6.34 5.81 6.69h-2.96l-4.45-5.12-4.44 5.12h-2.96l5.93-6.82-5.43-6.21h2.96l4.05 4.64 4.05-4.64h2.96z"/>
   </g>
  </g>
  <g id="g7581" fill="#00f">
   <g id="g6501">
    <path id="flowRoot9719" d="m399.75 258.1h11.73v2.32h-8.97v6.02h8.09v2.32h-8.09v9.75h-2.76v-20.41zm34.18 7.7h17.53v2.3h-17.53v-2.3zm0 5.58h17.53v2.32h-17.53v-2.32z" fill-opacity=".71710" transform="matrix(.86795 -.017040 .016218 .91195 244.38 528.23)"/>
    <path id="path9731" d="m610.65 776.98v-10.26" stroke-opacity=".80921" fill-rule="evenodd" stroke="#00f" stroke-width="1.2678px"/>
    <path id="path5403" d="m615.19 776.94v-10.26" stroke-opacity=".80921" fill-rule="evenodd" stroke="#0000f9" stroke-width="1.2678px"/>
   </g>
   <g id="g7575">
    <path id="flowRoot11011" d="m411.56 266.14c0.63-1.13 1.38-1.96 2.26-2.5 0.87-0.54 1.9-0.81 3.09-0.81 1.59 0 2.82 0.56 3.69 1.68 0.86 1.11 1.3 2.7 1.3 4.76v9.24h-2.53v-9.16c0-1.46-0.26-2.55-0.78-3.27-0.52-0.7-1.31-1.06-2.38-1.06-1.3 0-2.33 0.43-3.09 1.3-0.76 0.86-1.14 2.04-1.14 3.54v8.65h-2.52v-9.16c0-1.47-0.26-2.57-0.78-3.27-0.52-0.71-1.33-1.06-2.41-1.06-1.29 0-2.31 0.43-3.06 1.3-0.76 0.88-1.14 2.05-1.14 3.54v8.65h-2.53v-15.31h2.53v2.38c0.58-0.94 1.27-1.63 2.07-2.08 0.8-0.44 1.75-0.67 2.85-0.67 1.12 0 2.06 0.28 2.84 0.85 0.78 0.56 1.36 1.38 1.73 2.46zm34.36 4.54c0-1.82-0.38-3.24-1.13-4.24s-1.81-1.5-3.17-1.5c-1.34 0-2.39 0.5-3.15 1.5-0.75 1-1.12 2.42-1.12 4.24 0 1.81 0.37 3.22 1.12 4.22 0.76 1.01 1.81 1.51 3.15 1.51 1.36 0 2.42-0.5 3.17-1.51 0.75-1 1.13-2.41 1.13-4.22zm2.51 5.93c0 2.61-0.57 4.55-1.73 5.82s-2.93 1.91-5.32 1.91c-0.88 0-1.72-0.07-2.5-0.2-0.79-0.13-1.55-0.34-2.29-0.61v-2.45c0.74 0.4 1.47 0.7 2.19 0.89s1.46 0.29 2.2 0.29c1.65 0 2.89-0.43 3.71-1.29s1.23-2.17 1.23-3.91v-1.24c-0.52 0.9-1.19 1.58-2 2.02-0.81 0.45-1.78 0.67-2.91 0.67-1.88 0-3.39-0.71-4.54-2.14s-1.72-3.33-1.72-5.69c0-2.37 0.57-4.27 1.72-5.7s2.66-2.15 4.54-2.15c1.13 0 2.1 0.23 2.91 0.67 0.81 0.45 1.48 1.12 2 2.02v-2.32h2.51v13.41z" fill-opacity=".76974" transform="matrix(1.7652 -.032983 .032983 1.7652 -173.92 338.41)"/>
    <path id="text7755" d="m552.37 865.18l-5.11 6.86 5.37 7.25h-2.73l-4.11-5.55-4.11 5.55h-2.73l5.48-7.39-5.01-6.72h2.73l3.74 5.02 3.74-5.02h2.74z" transform="scale(1.0826 .92371)"/>
    <path id="text2506" d="m646.12 798.13l-6 6.93 6.31 7.32h-3.21l-4.83-5.6-4.82 5.6h-3.21l6.44-7.46-5.9-6.79h3.22l4.39 5.08 4.4-5.08h3.21z"/>
    <path id="flowRoot6537" d="m665.77 798.15h-3.17c-0.07-2.02-1.33-3.03-3.78-3.03-1.97 0-3.23 0.59-3.78 1.77-0.14 0.33-0.22 0.69-0.22 1.08 0 1.08 0.8 1.88 2.38 2.41 0.34 0.1 0.71 0.19 1.12 0.29l2.88 0.68c2.83 0.67 4.52 1.85 5.07 3.53 0.17 0.5 0.25 1.08 0.25 1.73 0 2.3-1.08 3.98-3.24 5.04-1.24 0.62-2.76 0.93-4.53 0.93-4.66 0-7.15-1.94-7.49-5.83-0.02-0.19-0.04-0.39-0.04-0.61h3.17c0.15 1.13 0.43 1.93 0.87 2.41 0.79 0.84 2.04 1.26 3.74 1.26 2.02 0 3.36-0.56 4.03-1.69 0.24-0.38 0.36-0.8 0.36-1.26 0-1.08-0.62-1.85-1.87-2.3-0.31-0.12-0.66-0.23-1.04-0.33l-2.81-0.68c-2.86-0.7-4.66-1.66-5.4-2.88-0.22-0.39-0.37-0.83-0.47-1.33-0.07-0.36-0.11-0.77-0.11-1.23 0-2.23 1.01-3.85 3.03-4.86 1.17-0.6 2.58-0.9 4.21-0.9 3.48 0 5.64 1.21 6.48 3.64 0.24 0.65 0.36 1.37 0.36 2.16zm7.63-5.26v18.87h-2.99v-18.87h2.99zm0-7.38v3.78h-3.02v-3.78h3.02zm5.14 7.38h2.77v3.17c1.29-2.04 2.85-3.23 4.68-3.56 0.48-0.1 1.01-0.15 1.58-0.15 2.5 0 4.25 0.83 5.26 2.49 0.48 0.76 0.72 1.65 0.72 2.66v14.26h-2.99v-13.07c0-1.68-0.71-2.81-2.12-3.39-0.51-0.21-1.1-0.32-1.77-0.32-2.01 0-3.47 0.92-4.35 2.77-0.51 1.01-0.76 2.21-0.76 3.6v10.41h-3.02v-18.87zm37.15-7.41c4.82 0 7.46 3.67 7.92 11.01 0.05 0.75 0.07 1.51 0.07 2.31 0 6.43-1.2 10.48-3.6 12.16-1.18 0.82-2.64 1.23-4.39 1.23-3.34 0-5.61-1.54-6.81-4.61-0.26-0.72-0.49-1.54-0.68-2.45-0.36-1.73-0.54-3.84-0.54-6.33 0.17-8.74 2.84-13.18 8.03-13.32zm0 2.59c-3.29 0-4.93 3.07-4.93 9.21h9.9c0-2.59-0.35-4.8-1.05-6.62-0.69-1.73-2-2.59-3.92-2.59zm4.97 11.81h-9.9c0 5.01 0.96 8.06 2.88 9.14 0.57 0.34 1.26 0.5 2.05 0.5 2.35 0 3.84-1.42 4.46-4.28 0.34-1.56 0.51-3.35 0.51-5.36z" fill-opacity=".71765" transform="matrix(1.2484 0 0 1.2484 -162.78 -199.14)"/>
   </g>
  </g>
  <g id="g3391">
   <path id="path9823" stroke-linejoin="round" d="m41.764 637.1l665.08 352.25" fill-rule="evenodd" stroke="#000034" stroke-width="12.134px" fill="url(#linearGradient10188)"/>
   <path id="path9993" stroke-linejoin="round" d="m37.055 986.7l668.06 2.46" fill-rule="evenodd" stroke="#000034" stroke-width="11.933px" fill="url(#linearGradient10086)"/>
   <path id="path9997" stroke-linejoin="round" d="m41.567 635.49l-4.786 357.07" fill-rule="evenodd" stroke="#000034" stroke-width="10.425px" fill="url(#linearGradient10083)"/>
   <rect id="rect13189" stroke-linejoin="round" fill-opacity="0" height="72.532" width="77.862" stroke="#000" y="909.68" x="42.476" stroke-width="1.7832"/>
   <path id="path2521" d="m615.72 948.12s-9.33 17.42-4.35 31.35l4.98 13.93" stroke="#000" stroke-width=".73627px" fill="none"/>
   <path id="flowRoot7753" d="m575.95 935.13c7.5 0 11.61 5.71 12.32 17.14 0.07 1.15 0.11 2.35 0.11 3.58 0 10.01-1.87 16.31-5.6 18.93-1.83 1.27-4.11 1.9-6.83 1.9-5.19 0-8.72-2.39-10.59-7.17-0.41-1.12-0.76-2.39-1.06-3.8-0.56-2.69-0.84-5.98-0.84-9.86 0.26-13.59 4.42-20.5 12.49-20.72zm0 4.03c-5.12 0-7.68 4.78-7.68 14.34h15.4c0-4.03-0.54-7.47-1.62-10.31-1.08-2.68-3.12-4.03-6.1-4.03zm7.72 18.37h-15.4c0 7.8 1.5 12.54 4.48 14.23 0.9 0.52 1.96 0.78 3.2 0.78 3.65 0 5.97-2.22 6.94-6.67 0.52-2.42 0.78-5.2 0.78-8.34z"/>
  </g>
  <path id="path9887" marker-end="url(#Arrow1Lend)" d="m406.91 763l-91.04 170.93" stroke-opacity=".58824" fill-rule="evenodd" stroke-dashoffset="26.153" stroke="#00f" stroke-miterlimit="8.8" stroke-dasharray="5.39238, 5.39238" stroke-width="2.6962" fill="#00f"/>
  <path id="path11007" marker-end="url(#Arrow1Lend)" d="m407.94 762.72l1.87 214.12" stroke="#00f" stroke-miterlimit="8.8" stroke-width="2.4229" fill="#ef1010"/>
  <g id="g2378">
   <path id="flowRoot10972" fill="#800080" d="m114.88 543.17l18.54 9.22-1.82 3.68-14.18-7.06-4.73 9.51 12.79 6.37-1.83 3.67-12.79-6.36-7.67 15.4-4.363-2.17 16.053-32.26z"/>
   <path id="text10980" fill="#800080" d="m138.77 576.51c-0.2-0.3-0.44-0.58-0.74-0.82-0.29-0.25-0.63-0.47-1.03-0.67-1.42-0.7-2.74-0.77-3.97-0.21s-2.28 1.72-3.15 3.48l-4.08 8.2-2.52-1.26 7.74-15.55 2.52 1.25-1.2 2.42c1-0.69 2.03-1.05 3.1-1.08 1.08-0.04 2.22 0.24 3.42 0.84 0.18 0.09 0.36 0.19 0.56 0.32s0.41 0.28 0.64 0.45l-1.29 2.63zm3.85-1.06l2.5 1.25-7.74 15.55-2.51-1.24 7.75-15.56zm3.01-6.06l2.51 1.25-1.61 3.24-2.51-1.25 1.61-3.24zm15.41 15.97l-1.18 2.39c-0.52-0.75-1.08-1.4-1.69-1.95-0.62-0.56-1.29-1.02-2.01-1.38-1.63-0.81-3.15-0.91-4.58-0.31-1.42 0.61-2.6 1.86-3.55 3.76-0.94 1.89-1.23 3.59-0.85 5.09s1.38 2.66 3 3.46c0.73 0.37 1.5 0.62 2.31 0.78s1.67 0.21 2.58 0.16l-1.17 2.37c-0.87-0.02-1.72-0.13-2.55-0.33-0.83-0.21-1.67-0.52-2.52-0.94-2.3-1.15-3.75-2.79-4.38-4.94-0.62-2.15-0.31-4.47 0.94-6.97 1.26-2.54 2.94-4.19 5.03-4.97 2.09-0.77 4.33-0.56 6.71 0.62 0.77 0.38 1.48 0.84 2.14 1.37 0.65 0.53 1.25 1.13 1.77 1.79zm9.37-1.59l-2.2 4.41 5.17 2.57-0.99 1.99-5.17-2.57-4.2 8.45c-0.63 1.26-0.87 2.16-0.71 2.7 0.16 0.53 0.77 1.05 1.81 1.57l2.58 1.28-1.07 2.14-2.57-1.28c-1.94-0.96-3.09-1.99-3.46-3.1-0.37-1.1-0.07-2.62 0.9-4.57l4.2-8.44-1.84-0.92 0.99-1.99 1.84 0.92 2.2-4.42 2.52 1.26zm6.28 8.63l2.5 1.25-7.74 15.56-2.51-1.25 7.75-15.56zm3.01-6.05l2.51 1.24-1.61 3.24-2.51-1.25 1.61-3.23zm9.75 14.64c-1.35-0.67-2.67-0.66-3.99 0.02-1.31 0.68-2.43 1.95-3.36 3.81-0.92 1.86-1.26 3.52-1.02 4.98 0.24 1.45 1.04 2.52 2.4 3.19 1.33 0.67 2.66 0.66 3.97-0.03 1.32-0.68 2.44-1.95 3.36-3.8s1.25-3.5 1.01-4.97-1.03-2.53-2.37-3.2zm1.08-2.17c2.18 1.09 3.53 2.66 4.06 4.73 0.52 2.06 0.15 4.37-1.12 6.93-1.27 2.54-2.89 4.23-4.85 5.06-1.97 0.83-4.04 0.7-6.22-0.38-2.19-1.09-3.54-2.67-4.06-4.74-0.52-2.06-0.15-4.37 1.12-6.92s2.89-4.24 4.84-5.07c1.96-0.83 4.04-0.7 6.23 0.39zm20.58 18.41l-4.68 9.39-2.5-1.25 4.63-9.31c0.73-1.47 1-2.71 0.8-3.72-0.2-1.02-0.86-1.8-1.99-2.36-1.35-0.68-2.64-0.77-3.86-0.28s-2.21 1.5-2.96 3.02l-4.38 8.79-2.52-1.25 7.74-15.56 2.53 1.25-1.21 2.42c1.07-0.64 2.12-0.99 3.17-1.04 1.04-0.06 2.09 0.17 3.16 0.7 1.75 0.88 2.8 2.09 3.15 3.64 0.35 1.56-0.01 3.41-1.08 5.56zm27.72-1.46l-1.05 2.13-2.4-1.2c-0.9-0.44-1.62-0.57-2.15-0.37-0.54 0.19-1.05 0.77-1.53 1.74l-0.68 1.37 4.13 2.06-0.99 1.98-4.13-2.05-6.75 13.57-2.52-1.25 6.75-13.58-2.4-1.19 0.99-1.99 2.4 1.2 0.54-1.09c0.86-1.73 1.88-2.79 3.07-3.19 1.18-0.4 2.63-0.17 4.35 0.68l2.37 1.18zm4.1 11.83c-1.35-0.67-2.68-0.66-3.99 0.02-1.32 0.68-2.44 1.95-3.36 3.81-0.93 1.87-1.27 3.52-1.02 4.98 0.24 1.46 1.04 2.52 2.39 3.19 1.34 0.67 2.66 0.66 3.98-0.03 1.32-0.68 2.43-1.95 3.36-3.8 0.91-1.85 1.25-3.5 1.01-4.97-0.25-1.47-1.04-2.53-2.37-3.2zm1.07-2.16c2.18 1.08 3.54 2.66 4.06 4.72 0.53 2.06 0.16 4.37-1.12 6.93-1.26 2.55-2.88 4.23-4.85 5.07-1.96 0.82-4.03 0.7-6.22-0.39s-3.54-2.67-4.06-4.73c-0.52-2.07-0.14-4.38 1.12-6.92 1.28-2.56 2.89-4.25 4.85-5.08 1.96-0.82 4.04-0.69 6.22 0.4zm18.62 12.71c-0.2-0.31-0.44-0.58-0.74-0.83-0.29-0.24-0.64-0.46-1.03-0.66-1.42-0.71-2.74-0.78-3.97-0.22-1.23 0.57-2.28 1.73-3.15 3.49l-4.08 8.19-2.52-1.25 7.74-15.56 2.52 1.26-1.2 2.41c0.99-0.68 2.03-1.04 3.1-1.08 1.08-0.04 2.22 0.25 3.43 0.85 0.17 0.08 0.35 0.19 0.55 0.32 0.2 0.12 0.41 0.27 0.64 0.45l-1.29 2.63zm14.53 5l-1.19 2.39c-0.51-0.76-1.07-1.41-1.68-1.96-0.62-0.56-1.29-1.01-2.01-1.38-1.63-0.8-3.15-0.91-4.58-0.3-1.42 0.6-2.6 1.85-3.55 3.75-0.94 1.9-1.23 3.6-0.85 5.09 0.38 1.5 1.38 2.66 3 3.47 0.73 0.36 1.5 0.62 2.31 0.77 0.81 0.16 1.67 0.21 2.58 0.17l-1.18 2.36c-0.86-0.01-1.71-0.13-2.54-0.33-0.83-0.21-1.67-0.52-2.52-0.94-2.3-1.14-3.76-2.79-4.38-4.94-0.62-2.14-0.31-4.47 0.94-6.97 1.26-2.53 2.94-4.19 5.03-4.96 2.09-0.78 4.33-0.57 6.71 0.61 0.77 0.39 1.48 0.84 2.14 1.37 0.65 0.53 1.24 1.13 1.77 1.8zm14.19 15.22l-0.62 1.25-11.53-5.74c-0.77 1.82-0.91 3.42-0.44 4.8 0.47 1.39 1.54 2.49 3.2 3.32 0.97 0.48 1.96 0.82 2.98 1.03 1.03 0.21 2.1 0.3 3.23 0.26l-1.2 2.41c-1.09-0.05-2.16-0.22-3.21-0.48-1.05-0.27-2.05-0.64-3.03-1.13-2.43-1.21-4-2.89-4.7-5.04-0.71-2.16-0.44-4.46 0.78-6.93 1.27-2.54 2.95-4.23 5.04-5.05 2.1-0.83 4.29-0.67 6.58 0.47 2.05 1.02 3.34 2.5 3.86 4.44 0.53 1.95 0.21 4.08-0.94 6.39zm-2.13-2c0.67-1.41 0.85-2.71 0.51-3.92-0.33-1.21-1.12-2.12-2.35-2.73-1.4-0.7-2.72-0.85-3.96-0.46-1.25 0.38-2.29 1.28-3.15 2.68l8.95 4.43z"/>
   <path id="path3831" d="m163.59 662.34l44.89 0.23" stroke-opacity=".375" fill-rule="evenodd" stroke="#000" stroke-width="1.3779px" fill="#999"/>
   <path id="path3833" d="m225.02 668.76l22.73 31.56" stroke-opacity=".43421" stroke="#000" stroke-width="1.5466px" fill="none"/>
   <path id="text3807" fill="#666" d="m159.63 664.31l1.46 0.73-0.7 1.4c1.16-0.62 2.25-0.77 3.25-0.44 0.12 0.04 0.25 0.09 0.4 0.15 0.08 0.04 0.16 0.08 0.25 0.12 1.12 0.56 1.75 1.39 1.89 2.48 0.02 0.12 0.03 0.25 0.03 0.37 1.09-0.48 2.07-0.59 2.93-0.34 0.12 0.03 0.23 0.06 0.35 0.11 0.02 0 0.03 0.01 0.04 0.02 0.16 0.06 0.32 0.13 0.48 0.21 1.55 0.77 2.17 1.85 1.87 3.25-0.08 0.31-0.2 0.63-0.36 0.96l-3.71 7.45-1.59-0.79 3.4-6.85c0.51-1.02 0.43-1.85-0.25-2.49-0.17-0.16-0.37-0.3-0.59-0.42-0.78-0.38-1.57-0.35-2.37 0.1-0.55 0.31-0.97 0.76-1.26 1.34l-3.11 6.24-1.59-0.79 3.41-6.85c0.54-1.1 0.42-1.97-0.38-2.6-0.14-0.12-0.29-0.22-0.47-0.31-0.79-0.38-1.59-0.34-2.41 0.13-0.53 0.31-0.93 0.74-1.22 1.31l-3.1 6.24-1.6-0.79 4.95-9.94zm32.83 16.34l1.46 0.72-4.14 8.31c-0.97 1.95-1.91 3.2-2.83 3.75-0.15 0.08-0.3 0.16-0.45 0.23-0.98 0.45-2.18 0.38-3.6-0.23-0.14-0.06-0.29-0.12-0.42-0.19-1.75-0.87-2.66-2.02-2.74-3.44-0.02-0.5 0.07-1.01 0.26-1.53l1.61 0.8c-0.17 0.53-0.15 1.01 0.05 1.44 0.27 0.58 0.79 1.06 1.53 1.43 1.03 0.51 1.91 0.56 2.67 0.16 0.63-0.32 1.27-1.14 1.91-2.42l0.26-0.52c-1.26 0.67-2.39 0.84-3.37 0.5-0.16-0.04-0.33-0.11-0.54-0.21-1.04-0.53-1.75-1.38-2.12-2.58-0.02-0.05-0.04-0.11-0.06-0.17-0.35-1.39-0.12-2.9 0.69-4.53 0.97-1.93 2.23-3.13 3.81-3.6 1.06-0.32 2.1-0.23 3.12 0.28 1.24 0.62 1.97 1.7 2.18 3.24l0.72-1.44zm-3.45-0.25c-1.12-0.56-2.19-0.38-3.22 0.52-0.56 0.49-1.04 1.14-1.46 1.98-0.87 1.76-0.97 3.18-0.27 4.26 0.25 0.41 0.62 0.74 1.11 0.99 1.13 0.56 2.2 0.36 3.23-0.58 0.51-0.47 0.97-1.1 1.36-1.9 0.95-1.89 1.04-3.37 0.27-4.43-0.25-0.35-0.59-0.63-1.02-0.84zm23.98 14.63l-1.59-0.79c0.44-1.31 0.18-2.32-0.78-3.04-0.22-0.13-0.39-0.22-0.5-0.29-1.18-0.59-2.32-0.37-3.39 0.68-0.49 0.48-0.93 1.11-1.33 1.91-0.86 1.73-0.94 3.13-0.22 4.2 0.26 0.4 0.64 0.72 1.13 0.96 1.35 0.68 2.56 0.28 3.62-1.18l1.59 0.8c-1 1.66-2.3 2.45-3.91 2.38-0.67-0.02-1.36-0.2-2.07-0.55-1.63-0.82-2.5-2.08-2.63-3.8-0.07-1.14 0.21-2.35 0.84-3.63 1.01-2.02 2.33-3.23 3.98-3.63 1.06-0.24 2.1-0.11 3.14 0.41 1.34 0.66 2.16 1.61 2.47 2.83l0.06 0.27c0.09 0.72-0.04 1.55-0.41 2.47zm7.51-0.78c1.93 0.96 2.84 2.43 2.75 4.42-0.04 1-0.35 2.08-0.92 3.23-1.05 2.11-2.45 3.3-4.18 3.55-0.96 0.15-1.93-0.03-2.93-0.53-1.82-0.91-2.74-2.3-2.75-4.18 0.01-1.06 0.31-2.19 0.91-3.39 1.09-2.2 2.52-3.41 4.29-3.63 0.93-0.13 1.87 0.05 2.83 0.53zm-0.7 1.47c-1.18-0.58-2.3-0.42-3.36 0.51-0.54 0.49-1.01 1.13-1.42 1.94-0.86 1.74-0.95 3.15-0.26 4.25 0.27 0.43 0.67 0.78 1.18 1.04 1.14 0.57 2.24 0.42 3.28-0.45 0.56-0.47 1.05-1.11 1.47-1.95 0.91-1.83 0.99-3.3 0.25-4.4-0.28-0.39-0.66-0.7-1.14-0.94zm12.89 8.4l-1.67-0.82c0.49-1.09 0.09-1.95-1.2-2.59-1.03-0.52-1.85-0.54-2.45-0.06-0.17 0.14-0.3 0.31-0.4 0.51-0.28 0.57-0.07 1.2 0.62 1.9 0.15 0.13 0.32 0.28 0.51 0.44l1.34 1.11c1.32 1.1 1.9 2.16 1.75 3.19-0.04 0.31-0.15 0.64-0.32 0.98-0.6 1.22-1.61 1.82-3.03 1.81-0.82 0-1.7-0.23-2.63-0.7-2.46-1.22-3.26-2.9-2.42-5.04 0.04-0.1 0.09-0.21 0.14-0.33l1.67 0.83c-0.22 0.63-0.28 1.13-0.18 1.5 0.2 0.65 0.75 1.2 1.65 1.65 1.06 0.52 1.91 0.58 2.57 0.16 0.22-0.14 0.4-0.33 0.51-0.57 0.29-0.57 0.16-1.13-0.38-1.7-0.13-0.15-0.29-0.3-0.46-0.45l-1.3-1.09c-1.33-1.12-2.02-2.1-2.09-2.94-0.02-0.26 0.02-0.53 0.1-0.82 0.06-0.21 0.14-0.43 0.26-0.67 0.59-1.18 1.54-1.77 2.87-1.77 0.78-0.01 1.6 0.2 2.46 0.63 1.83 0.91 2.65 2.12 2.46 3.61-0.05 0.41-0.17 0.82-0.38 1.23zm14.84-0.94c2.54 1.27 2.97 3.89 1.29 7.88-0.17 0.41-0.36 0.82-0.57 1.24-1.69 3.38-3.38 5.21-5.09 5.46-0.83 0.12-1.71-0.05-2.63-0.5-1.76-0.88-2.55-2.28-2.38-4.22 0.05-0.44 0.15-0.94 0.28-1.47 0.27-1 0.73-2.16 1.38-3.47 2.38-4.56 4.95-6.2 7.72-4.92zm-0.68 1.37c-1.73-0.87-3.4 0.32-5.01 3.56l5.21 2.59c0.68-1.36 1.08-2.62 1.19-3.76 0.09-1.09-0.38-1.89-1.39-2.39zm-0.48 7.52l-5.21-2.59c-1.32 2.64-1.61 4.5-0.88 5.57 0.21 0.33 0.53 0.59 0.95 0.8 1.24 0.62 2.39 0.26 3.47-1.09 0.59-0.73 1.15-1.63 1.67-2.69z"/>
   <path id="text4806" fill="#666" d="m178.24 684.16l-0.82-3.67 4.14-1-1.27-0.73-3.18 0.76-0.65-2.96-1.28-0.73 0.88 3.95-3.86 0.92 1.27 0.73 2.89-0.69 0.6 2.69 1.28 0.73z"/>
   <path id="text2459" fill="#666" d="m199.1 693.25l-0.82-3.68 4.14-1-1.27-0.73-3.17 0.77-0.66-2.96-1.28-0.73 0.88 3.94-3.86 0.92 1.28 0.74 2.88-0.7 0.61 2.7 1.27 0.73z"/>
   <g id="g2402">
    <path id="path2352" d="m143.41 615.75c-0.52 0.02-1.04 0.14-1.53 0.34-1.33 0.55-2.41 1.64-3.26 3.35-0.84 1.7-1.08 3.27-0.71 4.65 0.36 1.39 1.26 2.45 2.75 3.19 1.48 0.74 2.89 0.83 4.22 0.28 1.32-0.54 2.4-1.68 3.24-3.37 0.85-1.71 1.09-3.24 0.72-4.63-0.36-1.38-1.26-2.45-2.75-3.18-0.93-0.47-1.82-0.67-2.68-0.63zm0.59 1.72c0.45 0 0.92 0.11 1.38 0.34 0.9 0.45 1.45 1.17 1.62 2.16 0.17 0.98-0.04 2.08-0.66 3.31-0.61 1.24-1.39 2.08-2.28 2.53-0.88 0.45-1.78 0.45-2.68 0-0.92-0.45-1.46-1.15-1.63-2.12-0.17-0.98 0.04-2.11 0.66-3.35 0.61-1.24 1.36-2.08 2.25-2.53 0.44-0.22 0.89-0.34 1.34-0.34z"/>
    <path id="path2370" d="m96.578 587.74l7.942 3.96-0.78 1.57-6.074-3.03-2.028 4.08 5.482 2.73-0.78 1.57-5.486-2.72-3.286 6.6-1.871-0.93 6.881-13.83z"/>
    <path id="path2368" d="m110.93 601.18c-0.13-0.21-0.3-0.39-0.5-0.56-0.2-0.16-0.44-0.31-0.71-0.45-0.96-0.47-1.86-0.53-2.68-0.16-0.83 0.37-1.54 1.14-2.12 2.31l-2.72 5.47-1.71-0.85 5.16-10.38 1.71 0.86-0.8 1.61c0.67-0.45 1.37-0.69 2.1-0.71 0.72-0.02 1.5 0.18 2.32 0.58 0.12 0.06 0.24 0.14 0.38 0.22 0.13 0.09 0.28 0.19 0.43 0.3l-0.86 1.76z"/>
    <path id="path2366" d="m113.53 600.49l1.7 0.84-5.16 10.38-1.7-0.85 5.16-10.37z"/>
    <path id="path2364" d="m115.54 596.45l1.7 0.85-1.07 2.15-1.71-0.84 1.08-2.16z"/>
    <path id="path2362" d="m126.06 607.22l-0.8 1.59c-0.35-0.51-0.73-0.95-1.15-1.32s-0.87-0.68-1.37-0.93c-1.1-0.55-2.14-0.62-3.1-0.23-0.96 0.4-1.75 1.23-2.38 2.49-0.63 1.27-0.81 2.41-0.55 3.41 0.26 1.01 0.95 1.78 2.05 2.33 0.49 0.25 1.02 0.43 1.57 0.54 0.55 0.1 1.13 0.14 1.74 0.12l-0.78 1.57c-0.59-0.01-1.16-0.09-1.73-0.23-0.56-0.14-1.13-0.36-1.7-0.64-1.57-0.78-2.56-1.89-2.99-3.33s-0.24-2.99 0.59-4.66c0.84-1.69 1.97-2.79 3.38-3.3 1.42-0.5 2.93-0.35 4.55 0.45 0.52 0.26 1.01 0.57 1.45 0.93 0.45 0.35 0.86 0.76 1.22 1.21z"/>
    <path id="path2360" d="m132.39 606.2l-1.47 2.94 3.51 1.75-0.66 1.32-3.51-1.74-2.8 5.63c-0.42 0.84-0.58 1.44-0.46 1.8 0.11 0.36 0.52 0.71 1.23 1.06l1.75 0.88-0.71 1.42-1.75-0.87c-1.32-0.65-2.1-1.35-2.36-2.09-0.25-0.74-0.06-1.76 0.59-3.06l2.8-5.63-1.25-0.62 0.66-1.32 1.25 0.62 1.46-2.95 1.72 0.86z"/>
    <path id="path2358" d="m136.68 612.01l1.71 0.85-5.17 10.37-1.7-0.85 5.16-10.37z"/>
    <path id="path2356" d="m138.69 607.97l1.71 0.85-1.08 2.16-1.7-0.85 1.07-2.16z"/>
    <path id="path2350" d="m160.11 628.8l-3.11 6.26-1.71-0.85 3.09-6.2c0.49-0.99 0.66-1.81 0.52-2.49s-0.59-1.21-1.35-1.59c-0.92-0.46-1.79-0.53-2.62-0.21-0.82 0.33-1.48 1-1.99 2.01l-2.92 5.86-1.71-0.85 5.16-10.38 1.72 0.86-0.81 1.61c0.72-0.42 1.43-0.65 2.14-0.68 0.71-0.04 1.42 0.13 2.14 0.49 1.2 0.59 1.91 1.41 2.16 2.45 0.24 1.04 0.01 2.28-0.71 3.71z"/>
   </g>
   <g id="g2414">
    <path id="path2348" d="m170.96 631.26l11.88 5.91-0.78 1.56-11.87-5.91 0.77-1.56z"/>
    <g id="g2393">
     <path id="path2346" d="m169.08 635.04l11.87 5.91-0.78 1.57-11.87-5.9 0.78-1.58z"/>
     <g id="g2386">
      <path id="text10984" d="m218.42 648.38l2.52 1.25 0.37 14.62 5.76-11.57 1.81 0.9-6.88 13.83-2.52-1.25-0.37-14.62-5.76 11.56-1.81-0.9 6.88-13.82z"/>
      <path id="text2834" d="m208.44 658.58l-0.89-4.04 4.44-1.1-1.36-0.8-3.4 0.84-0.7-3.25-1.37-0.81 0.94 4.34-4.13 1.01 1.36 0.81 3.09-0.76 0.65 2.95 1.37 0.81z"/>
      <g id="g2382">
       <path id="path2344" d="m196.61 648.03l0.86 0.43-2.13 4.27 3.68-0.97 1.09 0.54-3.98 1.06 1.5 4.21-1.11-0.55-1.38-3.87-1.27 2.55-0.86-0.43 3.6-7.24z"/>
       <path id="flowRoot2373" transform="matrix(1.2411 .63197 -.63197 1.2411 287.31 -194.89)" d="m208.46 573.33v-9.06h1.08v4.08c0 0.56 0.13 0.99 0.4 1.28s0.67 0.43 1.2 0.43c0.57 0 1.01-0.16 1.3-0.49s0.44-0.82 0.44-1.47v-3.83h1.07v5.05c0 0.23 0.04 0.41 0.11 0.52 0.06 0.11 0.17 0.16 0.32 0.16 0.03 0 0.08 0 0.14-0.03 0.06-0.02 0.15-0.05 0.26-0.1v0.87c-0.16 0.09-0.31 0.15-0.46 0.2-0.14 0.04-0.28 0.06-0.41 0.06-0.27 0-0.49-0.08-0.65-0.23s-0.27-0.38-0.33-0.69c-0.19 0.3-0.43 0.54-0.71 0.69-0.29 0.15-0.62 0.23-1 0.23-0.4 0-0.74-0.08-1.02-0.23s-0.5-0.38-0.66-0.68v3.24h-1.08z"/>
      </g>
     </g>
    </g>
   </g>
  </g>
  <path id="path9883" stroke-linejoin="round" d="m382.86 119.5a4.2857 4.2857 0 1 1 -8.57 0 4.2857 4.2857 0 1 1 8.57 0z" transform="matrix(1.5602 .82631 -.82631 1.5602 -84.063 265.17)" stroke="#000034"/>
 </g>
 <rect id="rect2582" height="111.4" width="209.96" stroke="#000" y="193.27" x="238.42" stroke-width="1.5728" fill="url(#linearGradient5255)"/>
 <path id="path3654" marker-end="url(#Arrow1Lend)" d="m344.57 253.92l1.72 140.96" fill-rule="evenodd" stroke="#00f" stroke-miterlimit="8.8" stroke-width="1.8858" fill="url(#linearGradient5264)"/>
 <path id="path4681" d="m343.09 112.34l1.72 140.96" fill-rule="evenodd" marker-start="url(#Arrow1Lstart)" stroke="#ff0036" stroke-width="2.0446" fill="url(#linearGradient5264)"/>
 <path id="path3646" stroke-linejoin="round" d="m382.86 119.5a4.2857 4.2857 0 1 1 -8.57 0 4.2857 4.2857 0 1 1 8.57 0z" transform="matrix(1.5874 0 0 1.5874 -256.38 64.778)" stroke="#000034"/>
 <path id="path7777" d="m342.97 104.71l-12.11 43.75 12.5-11.72 12.5 10.94-12.89-42.97z" fill-rule="evenodd" fill="#f00"/>
 <path id="path8748" d="m346.46 404.02l12.13-43.84-12.52 11.74-12.53-10.96 12.92 43.06z" fill-rule="evenodd" fill="#00f"/>
 <path id="path8750" d="m311.04 710.89l31.79 32.41-3.87-16.69 15.73-5.33-43.65-10.39z" fill-rule="evenodd" fill="#800080"/>
 <path id="path8752" d="m497.27 587.51l-30.93 33.23 16.5-4.63 6.05 15.47 8.38-44.07z" fill-rule="evenodd" fill="#f00"/>
 <path id="path8754" d="m409.64 981.26l12.77-43.56-12.68 11.53-12.33-11.13 12.24 43.16z" fill-rule="evenodd" fill="#00f"/>
 <path id="path8767" d="m502.66 816.07l-33.22-30.93 4.63 16.5-15.47 6.04 44.06 8.39z" fill-rule="evenodd" fill="#06f"/>
 <path id="path8769" d="m315 936.9l30.93-33.23-16.49 4.63-6.05-15.47-8.39 44.07z" fill-rule="evenodd" fill="#0055d4"/>
 <metadata>
  <rdf:RDF>
   <cc:Work>
    <dc:format>image/svg+xml</dc:format>
    <dc:type rdf:resource="http://purl.org/dc/dcmitype/StillImage"/>
    <cc:license rdf:resource="http://creativecommons.org/licenses/publicdomain/"/>
    <dc:publisher>
     <cc:Agent rdf:about="http://openclipart.org/">
      <dc:title>Openclipart</dc:title>
     </cc:Agent>
    </dc:publisher>
   </cc:Work>
   <cc:License rdf:about="http://creativecommons.org/licenses/publicdomain/">
    <cc:permits rdf:resource="http://creativecommons.org/ns#Reproduction"/>
    <cc:permits rdf:resource="http://creativecommons.org/ns#Distribution"/>
    <cc:permits rdf:resource="http://creativecommons.org/ns#DerivativeWorks"/>
   </cc:License>
  </rdf:RDF>
 </metadata>
</svg>
