<?xml version="1.0"?>
<svg xmlns:rdf="http://www.w3.org/1999/02/22-rdf-syntax-ns#" xmlns="http://www.w3.org/2000/svg" xmlns:cc="http://creativecommons.org/ns#" xmlns:dc="http://purl.org/dc/elements/1.1/" id="svg2228" enable-background="new 0 0 310 310" xml:space="preserve" height="281.32" viewBox="0 0 288.19 281.31601" width="288.19" version="1.1" y="0px" x="0px">
<g id="layer1" transform="translate(-15.936,-14.094)">
		<path id="path2339" d="m125.37 170.18c0.211-6.429 0.436-12.811 1.174-17.297 0.739-4.487 2.01-7.017 3.982-6.963 1.973 0.054 4.644 2.68 7.74 6.868s6.595 9.862 9.96 15.043c3.365 5.18 6.572 9.776 9.176 12.15 2.603 2.375 4.59 2.48 5.902 0.107s1.961-7.197 2.31-13.119c0.35-5.921 0.424-12.854 0.773-18.775s0.997-10.746 2.31-13.119c1.313-2.374 3.301-2.267 5.903 0.107 2.603 2.374 5.81 6.97 9.175 12.151s6.865 10.854 9.961 15.042 5.767 6.814 7.739 6.868 3.243-2.476 3.982-6.963c0.739-4.486 0.964-10.868 1.175-17.297" stroke="#000" stroke-width="2" fill="none"/>
	<path id="path3314" d="m77.2 259.72 48.294-90.021" stroke="#000" stroke-width="2" fill="none"/>
	<path id="path3316" d="m82.944 57.899 42.423 111.94" stroke="#000" stroke-width="2" fill="none"/>
	<path id="path3320" d="m206.55 145.08 20.63-87.621" stroke="#000" stroke-width="2" fill="none"/>
	<path id="path3322" d="m206.52 145.1 65.92-48.609" stroke="#000" stroke-width="2" fill="none"/>
	<g id="g4749">
		<path id="path4514" d="m19.531 37.781v247.22h0.938v-247.22h-0.938z"/>
		<path id="path4755" d="m15.936 47.58 4.048-11.008 4.048 11.008c-2.39-1.759-5.66-1.748-8.096 0z"/>
	</g>
	<g id="g12" enable-background="new    ">
		<path id="path14" d="m289.42 91.032 2.805 0.367c-0.442 1.736-1.262 3.084-2.458 4.042-1.196 0.959-2.724 1.438-4.583 1.438-2.342 0-4.198-0.765-5.57-2.293s-2.058-3.672-2.058-6.431c0-2.854 0.693-5.069 2.08-6.646 1.387-1.576 3.187-2.364 5.397-2.364 2.141 0 3.89 0.772 5.246 2.316 1.356 1.545 2.035 3.718 2.035 6.519 0 0.171-0.005 0.426-0.015 0.767h-11.94c0.101 1.864 0.598 3.292 1.493 4.282 0.894 0.99 2.01 1.485 3.347 1.485 0.995 0 1.844-0.276 2.548-0.83 0.7-0.554 1.26-1.438 1.67-2.652zm-8.91-4.65h8.939c-0.12-1.427-0.462-2.497-1.025-3.211-0.864-1.107-1.984-1.662-3.361-1.662-1.247 0-2.294 0.442-3.144 1.326-0.85 0.885-1.32 2.067-1.41 3.547z"/>
	</g>
	<g id="g16" enable-background="new    ">
		<path id="path18" d="m186.09 194.78-4.099-16.368h2.097l2.35 10.729c0.252 1.124 0.47 2.241 0.652 3.35 0.394-1.749 0.626-2.758 0.695-3.025l2.94-11.054h2.465l2.213 8.284c0.555 2.055 0.955 3.986 1.201 5.795 0.196-1.034 0.453-2.222 0.769-3.562l2.424-10.518h2.054l-4.235 16.368h-1.97l-3.256-12.472c-0.273-1.042-0.436-1.683-0.484-1.921-0.162 0.752-0.313 1.393-0.453 1.921l-3.276 12.472h-2.07z"/>
	</g>
	<path id="path4544" fill="none" stroke="#000" d="m65.322 259.72 48.294-90.021"/>
	<path id="path4546" fill="none" stroke="#000" d="m71.066 57.899 42.422 111.94"/>
	<path id="path4548" fill="none" stroke="#000" d="m53.444 259.72 48.294-90.021"/>
	<path id="path4550" fill="none" stroke="#000" d="m59.188 57.899 42.422 111.94"/>
	<g id="g24" enable-background="new    ">
		<path id="path26" d="m85.21 52v-1.393c-0.696 1.072-1.643 1.607-2.839 1.607-0.528 0-1.021-0.107-1.479-0.321s-0.798-0.484-1.02-0.808c-0.222-0.325-0.378-0.722-0.468-1.192-0.062-0.315-0.093-0.815-0.093-1.5v-5.875h1.517v5.259c0 0.839 0.031 1.405 0.093 1.696 0.096 0.423 0.298 0.754 0.607 0.996 0.309 0.241 0.691 0.361 1.146 0.361s0.882-0.123 1.281-0.37 0.681-0.583 0.847-1.009c0.166-0.425 0.249-1.043 0.249-1.853v-5.081h1.517v9.483h-1.358z"/>
	</g>
	<g id="g28" enable-background="new    ">
		<path id="path30" d="m60.446 51.576v-1.393c-0.696 1.072-1.643 1.607-2.839 1.607-0.528 0-1.021-0.107-1.479-0.321s-0.798-0.484-1.02-0.808c-0.222-0.325-0.378-0.722-0.468-1.192-0.062-0.315-0.093-0.815-0.093-1.5v-5.875h1.517v5.259c0 0.839 0.031 1.405 0.093 1.696 0.096 0.423 0.298 0.754 0.607 0.996 0.309 0.241 0.691 0.361 1.146 0.361s0.882-0.123 1.281-0.37 0.681-0.583 0.847-1.009c0.166-0.425 0.249-1.043 0.249-1.853v-5.081h1.517v9.482h-1.358z"/>
	</g>
	<g id="g32" enable-background="new    ">
		<path id="path34" d="m72.51 52v-1.196c-0.567 0.94-1.401 1.411-2.502 1.411-0.714 0-1.369-0.208-1.968-0.625-0.598-0.417-1.062-0.999-1.39-1.746s-0.493-1.606-0.493-2.576c0-0.946 0.149-1.805 0.446-2.576 0.298-0.771 0.745-1.362 1.34-1.772s1.261-0.616 1.997-0.616c0.54 0 1.02 0.121 1.441 0.362s0.764 0.555 1.028 0.942v-4.698h1.508v13.09h-1.407zm-4.794-4.732c0 1.214 0.242 2.122 0.725 2.724 0.483 0.601 1.053 0.901 1.71 0.901 0.663 0 1.226-0.287 1.689-0.861s0.695-1.451 0.695-2.629c0-1.298-0.236-2.25-0.708-2.857s-1.053-0.911-1.744-0.911c-0.674 0-1.237 0.292-1.689 0.875s-0.678 1.502-0.678 2.758z"/>
	</g>
	<g id="g36" enable-background="new    ">
		<path id="path38" d="m76.818 277v-1.162c-0.551 0.914-1.361 1.37-2.43 1.37-0.692 0-1.329-0.202-1.91-0.606s-1.031-0.971-1.35-1.695c-0.319-0.726-0.479-1.56-0.479-2.502 0-0.919 0.145-1.752 0.434-2.501s0.723-1.322 1.301-1.722c0.578-0.398 1.225-0.598 1.939-0.598 0.524 0 0.99 0.117 1.399 0.352 0.409 0.233 0.742 0.539 0.998 0.914v-4.561h1.464v12.72h-1.366zm-4.655-4.6c0 1.18 0.234 2.061 0.704 2.645 0.469 0.584 1.022 0.876 1.661 0.876 0.644 0 1.19-0.278 1.641-0.837 0.45-0.558 0.675-1.408 0.675-2.553 0-1.261-0.229-2.186-0.687-2.775-0.458-0.59-1.023-0.884-1.694-0.884-0.654 0-1.201 0.283-1.64 0.85-0.441 0.56-0.66 1.46-0.66 2.67z"/>
	</g>
	<g id="g40" enable-background="new    ">
		<path id="path42" d="m54.16 277v-1.353c-0.676 1.04-1.595 1.561-2.757 1.561-0.513 0-0.991-0.104-1.436-0.312-0.445-0.209-0.775-0.471-0.99-0.785s-0.367-0.701-0.454-1.158c-0.06-0.306-0.09-0.791-0.09-1.456v-5.705h1.473v5.106c0 0.815 0.03 1.365 0.09 1.648 0.093 0.41 0.289 0.732 0.589 0.967 0.3 0.233 0.671 0.351 1.113 0.351 0.441 0 0.856-0.12 1.244-0.36 0.387-0.239 0.661-0.566 0.822-0.979s0.241-1.013 0.241-1.799v-4.934h1.473v9.19h-1.318z"/>
	</g>
	<g id="g44" enable-background="new    ">
		<path id="path46" d="m65.93 277v-1.162c-0.551 0.914-1.361 1.37-2.43 1.37-0.692 0-1.329-0.202-1.91-0.606s-1.031-0.971-1.35-1.695c-0.319-0.726-0.479-1.56-0.479-2.502 0-0.919 0.145-1.752 0.434-2.501s0.723-1.322 1.301-1.722c0.578-0.398 1.225-0.598 1.939-0.598 0.524 0 0.99 0.117 1.399 0.352 0.409 0.233 0.742 0.539 0.998 0.914v-4.561h1.464v12.72h-1.366zm-4.655-4.6c0 1.18 0.234 2.061 0.704 2.645 0.469 0.584 1.022 0.876 1.661 0.876 0.644 0 1.19-0.278 1.641-0.837 0.45-0.558 0.675-1.408 0.675-2.553 0-1.261-0.229-2.186-0.687-2.775-0.458-0.59-1.023-0.884-1.694-0.884-0.654 0-1.201 0.283-1.64 0.85-0.441 0.56-0.66 1.46-0.66 2.67z"/>
	</g>
	<g id="g48" enable-background="new    ">
		<path id="path50" d="m58.647 295.41v-12.812h1.844v1.821c0.888-1.407 2.17-2.11 3.848-2.11 0.729 0 1.398 0.139 2.009 0.416s1.068 0.642 1.372 1.092 0.516 0.985 0.638 1.604c0.076 0.402 0.114 1.105 0.114 2.111v7.877h-2.049v-7.793c0-0.885-0.08-1.546-0.239-1.984s-0.442-0.788-0.848-1.05c-0.406-0.261-0.882-0.392-1.429-0.392-0.873 0-1.626 0.293-2.26 0.88-0.633 0.588-0.95 1.701-0.95 3.342v6.997h-2.05z"/>
	</g>
	<g id="g52" enable-background="new    ">
		<path id="path54" d="m64.25 32.104v-17.721h1.867v1.665c0.44-0.651 0.937-1.14 1.491-1.466s1.226-0.488 2.015-0.488c1.032 0 1.943 0.281 2.732 0.844s1.385 1.357 1.787 2.383c0.402 1.025 0.603 2.149 0.603 3.372 0 1.311-0.222 2.491-0.666 3.541-0.444 1.049-1.089 1.854-1.936 2.413-0.846 0.559-1.736 0.838-2.669 0.838-0.683 0-1.296-0.153-1.838-0.458s-0.989-0.691-1.337-1.158v6.237h-2.049zm1.856-11.243c0 1.649 0.315 2.867 0.945 3.655 0.63 0.789 1.393 1.182 2.289 1.182 0.911 0 1.69-0.408 2.339-1.224s0.974-2.081 0.974-3.794c0-1.632-0.317-2.855-0.951-3.667-0.634-0.813-1.391-1.219-2.271-1.219-0.873 0-1.645 0.433-2.316 1.297-0.673 0.865-1.009 2.121-1.009 3.77z"/>
	</g>
	<g id="g56" enable-background="new    ">
		<path id="path58" d="m225.36 47.829-3.332-10.48c-0.221-0.692-0.513-1.374-0.874-2.045-0.362-0.671-0.859-1.007-1.493-1.007-0.301 0-0.633 0.07-0.995 0.208l-0.211-0.559 3.754-1.63h0.664l3.965 12.286 2.457-5.32c0.452-0.958 0.679-1.709 0.679-2.253 0-0.437-0.086-1.049-0.257-1.837-0.131-0.575-0.196-1.007-0.196-1.294 0-1.054 0.538-1.582 1.613-1.582 0.955 0 1.433 0.479 1.433 1.438 0 0.948-0.663 2.759-1.99 5.432l-4.312 8.643h-0.9z"/>
	</g>
	<g id="g60" enable-background="new    ">
		<path id="path62" d="m242.66 48.344 1.603 0.21c-0.253 0.992-0.721 1.762-1.404 2.31s-1.557 0.822-2.619 0.822c-1.338 0-2.399-0.437-3.183-1.31-0.784-0.874-1.176-2.098-1.176-3.675 0-1.631 0.396-2.897 1.188-3.798 0.793-0.9 1.82-1.351 3.084-1.351 1.224 0 2.223 0.441 2.998 1.324s1.163 2.124 1.163 3.725c0 0.098-0.003 0.244-0.009 0.438h-6.823c0.058 1.065 0.342 1.881 0.854 2.447 0.511 0.566 1.148 0.849 1.912 0.849 0.568 0 1.054-0.158 1.456-0.475 0.4-0.318 0.72-0.822 0.96-1.516zm-5.1-2.657h5.108c-0.069-0.815-0.265-1.427-0.586-1.835-0.494-0.633-1.135-0.95-1.921-0.95-0.713 0-1.312 0.253-1.797 0.758-0.48 0.506-0.74 1.181-0.8 2.027z"/>
	</g>
	<g id="g4729">
		<path id="path4735" d="m92.136 221.65 10.447-9.274-1.95 13.832c-1.515-3.2-4.953-5.03-8.494-4.56z"/>
	</g>
	<g id="g4675" transform="translate(-1.6071,-4.6429)">
		<path id="path4681" d="m103.34 125.37-0.138-13.969 9.154 10.552c-3.4-0.95-7.04 0.44-9.01 3.42z"/>
	</g>
	<g id="g4721">
		<path id="path4727" d="m84.864 218.18 5.223-4.637-0.975 6.916c-0.759-1.6-2.478-2.51-4.248-2.28z"/>
	</g>
	<g id="g4697">
		<path id="path4703" d="m91.868 119.62-0.069-6.984 4.577 5.276c-1.702-0.48-3.52 0.21-4.508 1.7z"/>
	</g>
	<g id="g4713">
		<path id="path4719" d="m72.986 218.18 5.223-4.637-0.975 6.916c-0.759-1.6-2.478-2.51-4.248-2.28z"/>
	</g>
	<g id="g4705">
		<path id="path4711" d="m79.99 119.62-0.069-6.984 4.577 5.276c-1.702-0.48-3.52 0.21-4.508 1.7z"/>
	</g>
	<g id="g4667" transform="translate(3.75,-2.6786)">
		<path id="path4673" d="m228.19 123.11 13.414-3.9-7.691 11.661c0-3.53-2.32-6.66-5.72-7.76z"/>
	</g>
		<path id="path4626" d="m125.37 170.18c0.211-6.429 0.436-12.811 1.174-17.297 0.739-4.487 2.01-7.017 3.982-6.963 1.973 0.054 4.644 2.68 7.74 6.868s6.595 9.862 9.96 15.043c3.365 5.18 6.572 9.776 9.176 12.15 2.603 2.375 4.59 2.48 5.902 0.107s1.961-7.197 2.31-13.119c0.35-5.921 0.424-12.854 0.773-18.775s0.997-10.746 2.31-13.119c1.313-2.374 3.301-2.267 5.903 0.107 2.603 2.374 5.81 6.97 9.175 12.151s6.865 10.854 9.961 15.042 5.767 6.814 7.739 6.868 3.243-2.476 3.982-6.963c0.739-4.486 0.964-10.868 1.175-17.297" stroke="#000" stroke-width="2" fill="none"/>
	<path id="path4653" d="m218.98 25.784h13.771" stroke="#000" stroke-width="1.1015" fill="none"/>
	<path id="path4655" fill="none" stroke="#000" d="m294.91 76.242h8.716"/>
		<g id="g4745" transform="matrix(.98026 -.19771 .19771 .98026 -66.342 97.155)">
		<path id="path4747" d="m209.73 110.37 7.699-11.657 1.687 13.867c-2.3-2.69-6.09-3.57-9.39-2.21z"/>
	</g>
		<g id="g2378" transform="matrix(-1 -.0025533 .0025533 -1 432.47 207.73)">
		<path id="path2380" d="m209.73 110.37 7.698-11.657 1.688 13.867c-2.3-2.69-6.09-3.57-9.39-2.21z"/>
	</g>
	<path id="path2778" fill="none" stroke="#000" d="m204.88 179.18h6.092"/>
</g>
	<path id="path86" d="m6.322 1.325-0.575 3.03h3.03l-0.339 1.698h-3.03l-1.149 6.139c-0.157 0.706-0.262 1.358-0.262 2.011 0 0.758 0.366 1.228 1.202 1.228 0.392 0 0.731-0.026 1.019-0.104l-0.104 1.698c-0.392 0.157-1.045 0.235-1.672 0.235-1.907 0-2.665-1.149-2.665-2.456 0-0.731 0.104-1.437 0.288-2.351l1.228-6.4h-1.803l0.313-1.698h1.803l0.444-2.351 2.272-0.679z"/>
<metadata><rdf:RDF><cc:Work><dc:format>image/svg+xml</dc:format><dc:type rdf:resource="http://purl.org/dc/dcmitype/StillImage"/><cc:license rdf:resource="http://creativecommons.org/licenses/publicdomain/"/><dc:publisher><cc:Agent rdf:about="http://openclipart.org/"><dc:title>Openclipart</dc:title></cc:Agent></dc:publisher></cc:Work><cc:License rdf:about="http://creativecommons.org/licenses/publicdomain/"><cc:permits rdf:resource="http://creativecommons.org/ns#Reproduction"/><cc:permits rdf:resource="http://creativecommons.org/ns#Distribution"/><cc:permits rdf:resource="http://creativecommons.org/ns#DerivativeWorks"/></cc:License></rdf:RDF></metadata></svg>
