<?xml version="1.0" encoding="UTF-8" standalone="no"?>
<!-- Created with Inkscape (http://www.inkscape.org/) -->
<svg
   xmlns:svg="http://www.w3.org/2000/svg"
   xmlns="http://www.w3.org/2000/svg"
   version="1.0"
   width="625"
   height="472"
   id="svg2">
  <defs
     id="defs5" />
  <path
     d="M 319.48183,458.8929 C 317.34942,458.13278 315.24805,456.03476 314.40304,453.82213 C 314.02546,452.8335 313.79709,451.94401 313.89552,451.84561 C 313.99395,451.74715 314.83875,451.5444 315.77286,451.39507 C 317.42743,451.13049 317.48344,451.16049 317.94475,452.55823 C 318.66082,454.72797 320.11104,455.86317 322.42077,456.06199 C 324.92805,456.27783 326.95039,455.27275 327.99309,453.29262 C 330.17272,449.15339 327.21298,444.59763 322.6764,445.10897 C 320.74582,445.32655 320.75145,445.33285 321.13939,443.39316 C 321.34401,442.37013 321.60931,442.09826 322.40307,442.09826 C 322.95565,442.09826 323.94658,441.81965 324.60513,441.47907 C 327.77294,439.84095 328.00747,435.97525 325.03237,434.43679 C 322.3951,433.07299 319.27683,434.24437 318.3898,436.93203 C 317.89389,438.43469 317.85768,438.45536 316.18723,438.18822 C 315.25312,438.03888 314.43439,437.86219 314.36784,437.79565 C 314.08492,437.51271 315.27517,434.73726 316.23108,433.45093 C 319.46888,429.09384 327.51721,429.7799 329.98828,434.62363 C 330.44859,435.52591 330.82521,436.84935 330.82521,437.56469 C 330.82521,439.38732 329.65335,441.65274 328.27786,442.48921 L 327.11449,443.19675 L 328.5143,443.86425 C 332.18806,445.61615 333.4939,450.17492 331.49329,454.26405 C 329.35653,458.63143 324.2592,460.59577 319.48183,458.8929 z M 273.95344,455.90109 C 273.55461,455.79684 273.22624,455.49216 273.22375,455.22402 C 273.22123,454.95583 273.1049,454.04515 272.96522,453.20029 L 272.71125,451.66411 L 274.20603,451.90668 C 277.06557,452.37073 278.33198,451.35885 279.63734,447.56699 L 280.25103,445.78429 L 276.27399,435.34319 C 274.08662,429.60056 271.85547,423.73665 271.3159,422.31228 L 270.33487,419.72249 L 272.75458,419.72249 L 275.17432,419.72249 L 278.57271,428.94213 C 280.44182,434.01294 282.05947,438.42156 282.16749,438.73903 C 282.27549,439.05653 282.44696,439.23321 282.54852,439.13166 C 282.65007,439.03014 284.20659,434.66809 286.00743,429.43833 L 289.2817,419.92968 L 291.61417,419.80541 C 292.897,419.73703 293.94661,419.85525 293.94661,420.06807 C 293.94661,420.68203 284.18691,448.30899 283.20633,450.47073 C 281.12217,455.06539 277.9283,456.93983 273.95344,455.90109 z M 228.598,454.32554 C 226.73401,451.99507 224.47797,448.06165 223.08201,444.70839 C 218.67868,434.13111 220.38838,422.43385 227.80901,412.36749 C 229.60263,409.9344 229.81924,409.7777 231.38919,409.7777 L 233.06025,409.7777 L 231.60626,412.05066 C 229.27813,415.69009 227.73495,419.0073 226.5523,422.91451 C 225.59611,426.07364 225.44415,427.33286 225.41241,432.36066 C 225.38431,436.81269 225.55629,438.83634 226.15195,441.06235 C 227.16375,444.84356 229.56908,450.39453 231.49359,453.38973 L 233.02449,455.77235 L 231.38984,455.77235 C 230.01961,455.77235 229.568,455.53831 228.598,454.32554 z M 298.68554,452.86914 C 303.88712,444.43243 305.80814,434.65611 303.97743,425.93798 C 302.89773,420.79627 301.8956,418.23081 299.15565,413.59404 L 296.9005,409.7777 L 298.53217,409.7777 C 300.05378,409.7777 300.29257,409.95235 302.07294,412.36749 C 304.49552,415.6538 306.8608,420.34255 308.09295,424.30094 C 309.33952,428.3058 309.45706,436.26825 308.33119,440.4408 C 307.42884,443.78502 304.01438,450.73166 301.91554,453.49333 C 300.52125,455.32794 300.14206,455.57971 298.60389,455.69209 L 296.86681,455.81905 L 298.68554,452.86914 z M 248.26105,445.81827 C 241.3303,444.06799 237.06243,438.0642 236.48539,429.25291 C 236.19147,424.76499 236.79799,421.52253 238.62865,417.79497 C 240.32531,414.34022 242.09854,412.63885 245.86051,410.85614 C 248.33818,409.68204 248.93294,409.57122 252.71717,409.5786 C 256.06083,409.58511 257.2349,409.75799 258.79828,410.47399 C 261.33367,411.63517 264.13101,414.24686 265.23495,416.48349 C 266.74647,419.54588 266.67697,419.82708 264.27397,420.37122 L 262.15669,420.85064 L 261.08635,418.66825 C 259.26199,414.94848 256.03468,413.24365 251.50553,413.6072 C 246.93031,413.97446 243.3815,416.71088 241.90139,421.01279 C 240.86309,424.03057 240.82653,431.01522 241.83202,434.26143 C 245.05441,444.66476 260.10505,444.59042 262.60239,434.15883 L 262.86629,433.05645 L 264.98241,433.61469 C 266.14629,433.92169 267.17446,434.24883 267.26728,434.34165 C 267.58592,434.6603 266.15941,438.12768 264.90626,440.08055 C 262.42534,443.94671 258.71697,445.87197 253.35763,446.07618 C 251.41006,446.1504 249.11661,446.03433 248.26105,445.81827 z M 187.86886,427.80263 L 187.86886,409.7777 L 196.34297,409.7777 C 205.73746,409.7777 208.05119,410.10663 210.7657,411.82813 C 215.14838,414.60753 216.09286,422.0598 212.6626,426.79513 C 211.83937,427.93161 210.64887,428.86083 209.0764,429.59431 C 206.87054,430.62321 206.27307,430.70169 199.57471,430.84233 L 192.42689,430.99237 L 192.42689,438.40999 L 192.42689,445.82755 L 190.14788,445.82755 L 187.86886,445.82755 L 187.86886,427.80263 z M 207.29721,425.73079 C 209.36163,424.51173 210.33187,422.48419 210.13102,419.80889 C 209.93995,417.26361 208.95951,415.69718 206.90026,414.64715 C 205.72585,414.0483 204.34756,413.92254 198.95317,413.922 L 192.42689,413.92136 L 192.42689,420.38664 L 192.42689,426.85187 L 199.16035,426.70572 C 204.9851,426.57925 206.08318,426.44769 207.29721,425.73079 z M 199.29353,404.56853 C 198.70643,403.98143 198.64239,396.62741 198.64239,329.80502 C 198.64239,262.98265 198.70643,255.62862 199.29353,255.04152 C 200.12002,254.21503 200.89405,254.21503 201.72053,255.04152 C 202.30763,255.62862 202.37169,262.98265 202.37169,329.80502 C 202.37169,396.62741 202.30763,403.98143 201.72053,404.56853 C 201.36241,404.92665 200.81632,405.21967 200.50703,405.21967 C 200.19775,405.21967 199.65166,404.92665 199.29353,404.56853 z M 24.503301,346.78475 C 17.572558,345.03449 13.304678,339.03067 12.727636,330.21939 C 12.433726,325.73147 13.040246,322.48901 14.870899,318.76145 C 16.567567,315.30671 18.340798,313.60533 22.102757,311.82263 C 24.580436,310.64851 25.175192,310.53769 28.959428,310.54507 C 32.303081,310.55159 33.477147,310.72446 35.04053,311.44047 C 37.575921,312.60165 40.373264,315.21335 41.477199,317.44997 C 42.98872,320.51238 42.919214,320.79357 40.516224,321.33769 L 38.398933,321.81711 L 37.328602,319.63476 C 35.504239,315.91495 32.276936,314.21013 27.747788,314.57369 C 23.17256,314.94093 19.623749,317.67737 18.14365,321.97925 C 17.105348,324.99705 17.068775,331.98169 18.074277,335.22791 C 21.296657,345.63123 36.347305,345.55691 38.84464,335.12532 L 39.108552,334.02294 L 41.22467,334.58117 C 42.388534,334.88819 43.416726,335.21533 43.509534,335.30813 C 43.82817,335.62677 42.401665,339.09415 41.148512,341.04701 C 38.667591,344.91319 34.959214,346.83846 29.599881,347.04266 C 27.652323,347.11687 25.35886,347.00081 24.503301,346.78475 z M 49.470558,328.76911 L 49.470558,310.74417 L 51.749574,310.74417 L 54.02859,310.74417 L 54.02859,328.76911 L 54.02859,346.79403 L 51.749574,346.79403 L 49.470558,346.79403 L 49.470558,328.76911 z M 63.845994,309.80815 C 62.13051,306.79049 60.664902,304.09205 60.589098,303.81159 C 60.50523,303.50135 83.24403,291.45762 118.66001,273.05402 C 175.70749,243.40981 176.87872,242.82479 177.36789,243.72957 C 177.64239,244.23733 177.73999,244.76757 177.58477,244.9079 C 177.33423,245.13437 68.612094,314.34033 67.43745,315.02105 C 67.141026,315.19283 65.803182,313.25097 63.845994,309.80815 z M 227.02647,247.13808 C 224.95594,246.40596 222.87367,244.19021 222.29385,242.10211 C 222.03903,241.18441 221.85053,236.42504 221.8492,230.87509 L 221.8469,221.24108 L 224.09836,221.24108 L 226.34981,221.24108 L 226.48096,230.87509 C 226.62568,241.50653 226.69928,241.82911 229.25672,243.04271 C 231.97467,244.33245 235.30191,243.31207 237.36003,240.55761 C 238.15083,239.49923 238.22467,238.73858 238.35298,230.32765 L 238.49159,221.24108 L 240.73558,221.24108 L 242.97957,221.24108 L 242.97957,234.29361 L 242.97957,247.34615 L 240.70055,247.34615 L 238.42155,247.34615 L 238.42155,245.2599 L 238.42155,243.17365 L 237.0784,244.7034 C 234.60055,247.52552 230.75584,248.45675 227.02647,247.13808 z M 186.62577,229.28464 L 186.62577,211.22313 L 197.08851,211.37602 C 208.65611,211.54507 209.33207,211.6774 211.78089,214.25257 C 214.52072,217.13377 215.14207,221.63758 213.3076,225.31887 C 212.07231,227.79778 210.2036,229.26201 207.12051,230.16679 L 205.03228,230.7796 L 207.34423,233.15816 C 209.25907,235.12817 216.46013,246.15437 216.46013,247.11633 C 216.46013,247.26449 215.30991,247.33017 213.9041,247.26233 L 211.34806,247.13897 L 207.97612,241.63975 C 203.96722,235.10173 201.91149,232.54067 200.04712,231.76168 C 199.21594,231.41439 197.18366,231.18586 194.9264,231.18586 L 191.18379,231.18586 L 191.18379,239.26601 L 191.18379,247.34615 L 188.90479,247.34615 L 186.62577,247.34615 L 186.62577,229.28464 z M 206.92971,225.99219 C 211.1845,223.51953 210.41979,217.16234 205.71016,215.854 C 204.89956,215.62882 201.2995,215.44353 197.71006,215.44226 L 191.18379,215.43994 L 191.18379,221.28208 L 191.18379,227.12421 L 198.33161,226.97961 C 204.60699,226.85266 205.65645,226.73215 206.92971,225.99219 z M 250.26058,231.77781 C 249.90244,231.41968 249.60943,230.87361 249.60943,230.56431 C 249.60943,230.25502 249.90244,229.70895 250.26058,229.35081 C 250.84767,228.76372 258.18711,228.69967 324.86364,228.69967 L 398.81556,228.69967 L 473.64028,185.61802 C 514.79389,161.92311 548.79637,142.43121 549.20133,142.30269 C 549.90496,142.07936 551.26802,143.02617 551.26802,143.73829 C 551.26802,143.92467 550.94172,144.45169 550.54288,144.90946 C 550.14405,145.36723 515.91666,165.24639 474.48202,189.08536 L 399.14636,232.42897 L 325.02904,232.42897 C 258.20215,232.42897 250.84767,232.36491 250.26058,231.77781 z M 250.26058,215.20317 C 249.90244,214.84504 249.60943,214.29897 249.60943,213.98967 C 249.60943,213.68037 249.90244,213.1343 250.26058,212.77617 C 250.84768,212.18906 258.22053,212.12502 325.23127,212.12502 C 392.24199,212.12502 399.61483,212.18906 400.20195,212.77617 C 400.56008,213.1343 400.85308,213.68037 400.85308,213.98967 C 400.85308,214.29897 400.56008,214.84504 400.20195,215.20317 C 399.61483,215.79028 392.24199,215.85432 325.23127,215.85432 C 258.22053,215.85432 250.84768,215.79028 250.26058,215.20317 z M 199.29353,206.08711 C 198.70643,205.50001 198.64239,198.14599 198.64239,131.3236 C 198.64239,64.501232 198.70643,57.147212 199.29353,56.560112 C 200.12002,55.733612 200.89405,55.733612 201.72053,56.560112 C 202.30763,57.147212 202.37169,64.501232 202.37169,131.3236 C 202.37169,198.14599 202.30763,205.50001 201.72053,206.08711 C 201.36241,206.44525 200.81632,206.73826 200.50703,206.73826 C 200.19775,206.73826 199.65166,206.44525 199.29353,206.08711 z M 252.50999,205.21263 C 251.86672,205.01972 249.06633,200.8324 248.60183,199.3689 C 248.34875,198.57153 249.23577,197.20784 250.00749,197.20784 C 250.72996,197.20784 252.13024,198.76197 253.53235,201.11994 C 255.21081,203.94268 255.21717,203.97189 254.34505,204.84402 C 253.67696,205.51209 253.57612,205.53235 252.50999,205.21263 z M 264.06839,199.41991 C 263.21015,199.19032 259.86067,192.17007 260.19442,191.30035 C 260.50645,190.48719 261.41566,190.10889 262.27003,190.43673 C 262.78312,190.63363 266.59845,197.48181 266.59845,198.20588 C 266.59845,198.52528 265.31061,199.69651 265.01497,199.64596 C 264.86032,199.61953 264.43437,199.5178 264.06839,199.41991 z M 276.12886,193.21122 C 275.55651,193.05357 275.03241,192.20979 272.15121,186.80733 C 271.11475,184.86391 271.14706,183.78504 272.25445,183.36009 C 273.39924,182.9208 274.42171,183.93655 276.29169,187.37083 C 278.72696,191.84329 278.77956,192.01176 277.98775,192.80356 C 277.29958,193.49173 277.21482,193.51032 276.12886,193.21122 z M 287.73112,186.99573 C 286.73715,186.72195 282.21511,178.13725 282.57325,177.20394 C 282.91728,176.30742 283.90983,175.99677 284.8399,176.49453 C 285.48578,176.84019 290.21732,184.96036 290.21732,185.72314 C 290.21732,186.08133 288.95565,187.26999 288.63385,187.21498 C 288.4792,187.18855 288.07297,187.08987 287.73112,186.99573 z M 299.74774,181.19115 C 299.21593,181.04173 294.73772,173.62046 293.85621,171.42772 C 293.24131,169.89819 294.56913,168.66966 296.00602,169.43865 C 296.65405,169.78546 301.27858,177.46766 302.02681,179.44026 C 302.16766,179.81161 301.97978,180.41379 301.60663,180.78694 C 300.91759,181.47597 300.82957,181.49511 299.74774,181.19115 z M 311.34999,174.97675 C 310.79421,174.82155 309.62932,172.8991 305.84889,165.89811 C 305.21626,164.72652 304.81113,163.47482 304.9486,163.11655 C 305.31225,162.16893 306.37975,161.88705 307.2974,162.49635 C 308.00305,162.96489 313.83619,172.92045 313.83619,173.65627 C 313.83619,174.05235 312.5987,175.25751 312.25272,175.19836 C 312.09807,175.17193 311.69185,175.0722 311.34999,174.97675 z M 323.36661,168.75837 C 322.81669,168.60226 317.00061,159.30602 316.23198,157.35457 C 315.62542,155.81462 316.93803,154.57753 318.36706,155.34232 C 319.02134,155.69247 324.99267,165.26016 325.64858,167.00926 C 325.78712,167.37871 325.59673,167.98472 325.2255,168.35596 C 324.53601,169.04544 324.44632,169.06485 323.36661,168.75837 z M 334.96887,162.95689 C 334.43953,162.80634 328.30171,152.51734 327.41986,150.30231 C 326.80897,148.76781 328.12952,147.53523 329.56268,148.30222 C 330.2011,148.64391 336.50424,159.22596 337.25,161.20814 C 337.38904,161.5777 337.19911,162.18346 336.82774,162.55483 C 336.13818,163.24441 336.04816,163.26387 334.96887,162.95689 z M 346.98549,156.74079 C 346.43692,156.58423 339.37852,145.23417 338.60775,143.26923 C 338.00293,141.72736 339.31239,140.48832 340.73953,141.25209 C 341.38909,141.59973 348.61262,153.23728 349.2684,154.99264 C 349.40642,155.36209 349.21561,155.9681 348.84436,156.33934 C 348.15464,157.02907 348.06408,157.04863 346.98549,156.74079 z M 369.25598,149.54644 C 362.32524,147.79617 358.05735,141.79236 357.48031,132.98108 C 357.1864,128.49316 357.79293,125.2507 359.62358,121.52314 C 361.32025,118.06839 363.09348,116.36701 366.85544,114.58431 C 369.33312,113.41021 369.92787,113.29939 373.71211,113.30676 C 377.05576,113.31327 378.22983,113.48614 379.7932,114.20216 C 382.3286,115.36334 385.12594,117.97503 386.22987,120.21165 C 387.7414,123.27406 387.67189,123.55526 385.2689,124.09939 L 383.15161,124.57881 L 382.08128,122.39644 C 380.25692,118.67665 377.02962,116.97181 372.50047,117.33537 C 367.92524,117.70263 364.37643,120.43905 362.89633,124.74094 C 361.85803,127.75875 361.82145,134.74336 362.82696,137.98959 C 366.04934,148.39293 381.09998,148.31859 383.59731,137.887 L 383.86123,136.78462 L 385.97734,137.34285 C 387.14121,137.64987 388.16941,137.977 388.2622,138.06982 C 388.58085,138.38846 387.15434,141.85584 385.90119,143.8087 C 383.42026,147.67489 379.71189,149.60014 374.35256,149.80435 C 372.40501,149.87857 370.11154,149.7625 369.25598,149.54644 z M 394.22323,131.5308 L 394.22323,113.50587 L 396.50224,113.50587 L 398.78126,113.50587 L 398.78126,131.5308 L 398.78126,149.55573 L 396.50224,149.55573 L 394.22323,149.55573 L 394.22323,131.5308 z M 558.72661,130.28769 L 558.72661,112.26277 L 567.20073,112.26277 C 576.59521,112.26277 578.90894,112.59171 581.62345,114.3132 C 586.00613,117.0926 586.95063,124.54488 583.52034,129.28021 C 582.69711,130.41667 581.50661,131.34589 579.93417,132.07936 C 577.7283,133.10829 577.13082,133.18677 570.43245,133.32739 L 563.28464,133.47745 L 563.28464,140.89503 L 563.28464,148.31263 L 561.00564,148.31263 L 558.72661,148.31263 L 558.72661,130.28769 z M 578.15496,128.21587 C 580.21938,126.99681 581.18961,124.96927 580.98877,122.29396 C 580.79771,119.74869 579.81727,118.18225 577.758,117.13221 C 576.58361,116.53336 575.2053,116.4076 569.81091,116.40706 L 563.28464,116.40643 L 563.28464,122.87169 L 563.28464,129.33694 L 570.01809,129.19077 C 575.84283,129.06433 576.94095,128.93276 578.15496,128.21587 z M 591.46154,130.28769 L 591.46154,112.26277 L 593.74056,112.26277 L 596.01957,112.26277 L 596.01957,118.94084 L 596.01957,125.61891 L 597.6477,124.148 C 601.90017,120.30616 609.05234,121.29612 611.67678,126.0898 C 612.28296,127.197 612.4068,128.92054 612.52203,137.84988 L 612.65703,148.31263 L 610.34661,148.31263 L 608.03619,148.31263 L 608.03619,139.66273 C 608.03619,134.90529 607.92018,130.43278 607.77837,129.72382 C 607.01361,125.8999 601.66809,124.69143 598.36128,127.59486 C 596.32285,129.38462 596.01957,131.01412 596.01957,140.17696 L 596.01957,148.31263 L 593.74056,148.31263 L 591.46154,148.31263 L 591.46154,130.28769 z M 319.48183,61.930076 C 317.34942,61.169972 315.24805,59.07194 314.40304,56.859332 C 314.02546,55.870664 313.79709,54.981224 313.89552,54.882788 C 313.99395,54.784352 314.83875,54.581612 315.77286,54.432236 C 317.42743,54.16766 317.48344,54.19766 317.94475,55.595432 C 318.66082,57.76514 320.11104,58.900352 322.42077,59.09918 C 324.92805,59.315024 326.95039,58.309952 327.99309,56.329796 C 330.17272,52.190552 327.21298,47.6348 322.6764,48.146144 C 320.74582,48.363752 320.75145,48.370028 321.13939,46.430336 C 321.34401,45.4073 321.60931,45.135452 322.40307,45.135452 C 322.95565,45.135452 323.94658,44.856812 324.60513,44.516264 C 327.77294,42.878132 328.00747,39.01244 325.03237,37.473956 C 322.3951,36.110168 319.27683,37.281548 318.3898,39.969224 C 317.89389,41.471876 317.85768,41.492528 316.18723,41.225408 C 315.25312,41.076044 314.43439,40.899368 314.36784,40.832816 C 314.08492,40.549892 315.27517,37.774448 316.23108,36.488108 C 319.46888,32.131028 327.51721,32.817092 329.98828,37.660808 C 330.44859,38.563076 330.82521,39.886556 330.82521,40.601876 C 330.82521,42.424496 329.65335,44.689928 328.27786,45.526412 L 327.11449,46.233908 L 328.5143,46.901432 C 332.18806,48.653324 333.4939,53.212124 331.49329,57.301244 C 329.35653,61.668608 324.2592,63.63296 319.48183,61.930076 z M 273.95344,58.93826 C 273.55461,58.83404 273.22624,58.529348 273.22375,58.261184 C 273.22123,57.99302 273.1049,57.08234 272.96522,56.237456 L 272.71125,54.701312 L 274.20603,54.94388 C 277.06557,55.407908 278.33198,54.396032 279.63734,50.604152 L 280.25103,48.821468 L 276.27399,38.380352 C 274.08662,32.637752 271.85547,26.773844 271.3159,25.349456 L 270.33487,22.759664 L 272.75458,22.759664 L 275.17432,22.759664 L 278.57271,31.979312 C 280.44182,37.050128 282.05947,41.458736 282.16749,41.776232 C 282.27549,42.093728 282.44696,42.270404 282.54852,42.168848 C 282.65007,42.067292 284.20659,37.705304 286.00743,32.475524 L 289.2817,22.966844 L 291.61417,22.842584 C 292.897,22.774232 293.94661,22.892432 293.94661,23.10524 C 293.94661,23.719232 284.18691,51.346184 283.20633,53.507912 C 281.12217,58.10258 277.9283,59.977004 273.95344,58.93826 z M 228.598,57.362744 C 226.73401,55.032224 224.47797,51.098816 223.08201,47.745572 C 218.67868,37.168304 220.38838,25.471028 227.80901,15.404672 C 229.60263,12.971588 229.81924,12.81488 231.38919,12.81488 L 233.06025,12.81488 L 231.60626,15.087824 C 229.27813,18.727268 227.73495,22.044464 226.5523,25.9517 C 225.59611,29.110808 225.44415,30.37004 225.41241,35.397836 C 225.38431,39.849872 225.55629,41.873516 226.15195,44.099528 C 227.16375,47.880752 229.56908,53.431736 231.49359,56.426924 L 233.02449,58.809524 L 231.38984,58.809524 C 230.01961,58.809524 229.568,58.575488 228.598,57.362744 z M 298.68554,55.906328 C 303.88712,47.46962 305.80814,37.693292 303.97743,28.97516 C 302.89773,23.833472 301.8956,21.267992 299.15565,16.631228 L 296.9005,12.81488 L 298.53217,12.81488 C 300.05378,12.81488 300.29257,12.98954 302.07294,15.404672 C 304.49552,18.690992 306.8608,23.379704 308.09295,27.338132 C 309.33952,31.342964 309.45706,39.30542 308.33119,43.477976 C 307.42884,46.82222 304.01438,53.768864 301.91554,56.530508 C 300.52125,58.365104 300.14206,58.616888 298.60389,58.72928 L 296.86681,58.856216 L 298.68554,55.906328 z M 248.26105,48.855452 C 241.3303,47.105192 237.06243,41.101364 236.48539,32.290088 C 236.19147,27.802184 236.79799,24.559712 238.62865,20.832152 C 240.32531,17.377412 242.09854,15.676028 245.86051,13.893332 C 248.33818,12.719216 248.93294,12.608396 252.71717,12.615776 C 256.06083,12.622292 257.2349,12.795164 258.79828,13.511168 C 261.33367,14.672348 264.13101,17.284052 265.23495,19.520672 C 266.74647,22.583084 266.67697,22.86428 264.27397,23.408384 L 262.15669,23.88782 L 261.08635,21.705464 C 259.26199,17.985656 256.03468,16.280828 251.50553,16.644392 C 246.93031,17.011652 243.3815,19.74806 241.90139,24.049952 C 240.86309,27.06776 240.82653,34.052384 241.83202,37.298612 C 245.05441,47.70194 260.10505,47.627612 262.60239,37.196024 L 262.86629,36.093644 L 264.98241,36.651872 C 266.14629,36.958892 267.17446,37.286024 267.26728,37.378832 C 267.58592,37.697468 266.15941,41.164844 264.90626,43.117712 C 262.42534,46.983896 258.71697,48.909164 253.35763,49.113368 C 251.41006,49.187576 249.11661,49.071512 248.26105,48.855452 z M 187.86886,30.839804 L 187.86886,12.81488 L 196.34297,12.81488 C 205.73746,12.81488 208.05119,13.143812 210.7657,14.865308 C 215.14838,17.644712 216.09286,25.096988 212.6626,29.832332 C 211.83937,30.968792 210.64887,31.898 209.0764,32.631476 C 206.87054,33.660404 206.27307,33.738872 199.57471,33.8795 L 192.42689,34.02956 L 192.42689,41.447144 L 192.42689,48.86474 L 190.14788,48.86474 L 187.86886,48.86474 L 187.86886,30.839804 z M 207.29721,28.76798 C 209.36163,27.548924 210.33187,25.521368 210.13102,22.846076 C 209.93995,20.300804 208.95951,18.734372 206.90026,17.684324 C 205.72585,17.085476 204.34756,16.959716 198.95317,16.959188 L 192.42689,16.95854 L 192.42689,23.423804 L 192.42689,29.889068 L 199.16035,29.742884 C 204.9851,29.61644 206.08318,29.484872 207.29721,28.76798 z "
     style="fill:#000000"
     id="path1439" />
</svg>
