<?xml version="1.0"?>
<svg xmlns:rdf="http://www.w3.org/1999/02/22-rdf-syntax-ns#" xmlns="http://www.w3.org/2000/svg" xmlns:cc="http://creativecommons.org/ns#" xmlns:dc="http://purl.org/dc/elements/1.1/" id="svg2" viewBox="0 0 600 446.89" version="1.0">
 <path id="path1439" d="m306.83 446.27c-2.13-0.76-4.23-2.86-5.08-5.07-0.37-0.99-0.6-1.88-0.5-1.97 0.09-0.1 0.94-0.31 1.87-0.45 1.66-0.27 1.71-0.24 2.17 1.16 0.72 2.17 2.17 3.3 4.48 3.5 2.51 0.22 4.53-0.79 5.57-2.77 2.18-4.14-0.78-8.69-5.31-8.18-1.93 0.22-1.93 0.22-1.54-1.72 0.2-1.02 0.47-1.29 1.26-1.29 0.56 0 1.55-0.28 2.21-0.62 3.16-1.64 3.4-5.5 0.42-7.04-2.63-1.37-5.75-0.2-6.64 2.49-0.5 1.5-0.53 1.53-2.2 1.26-0.94-0.15-1.76-0.33-1.82-0.39-0.29-0.29 0.91-3.06 1.86-4.35 3.24-4.36 11.29-3.67 13.76 1.17 0.46 0.91 0.84 2.23 0.84 2.94 0 1.83-1.18 4.09-2.55 4.93l-1.17 0.71 1.4 0.66c3.68 1.76 4.98 6.31 2.98 10.4-2.13 4.37-7.23 6.34-12.01 4.63zm-45.53-2.99c-0.4-0.1-0.72-0.41-0.73-0.68 0-0.26-0.12-1.17-0.25-2.02l-0.26-1.54 1.5 0.25c2.86 0.46 4.12-0.55 5.43-4.34l0.61-1.79-3.98-10.44c-2.18-5.74-4.41-11.6-4.95-13.03l-0.99-2.59h4.84l3.4 9.22c1.87 5.07 3.49 9.48 3.6 9.8s0.28 0.49 0.38 0.39 1.66-4.46 3.46-9.69l3.27-9.51 2.33-0.12c1.29-0.07 2.34 0.05 2.34 0.26 0 0.61-9.76 28.24-10.74 30.4-2.09 4.6-5.28 6.47-9.26 5.43zm-45.35-1.57c-1.87-2.33-4.12-6.27-5.52-9.62-4.4-10.58-2.69-22.28 4.73-32.34 1.79-2.44 2.01-2.59 3.58-2.59h1.67l-1.45 2.27c-2.33 3.64-3.88 6.96-5.06 10.86-0.95 3.16-1.11 4.42-1.14 9.45-0.03 4.45 0.15 6.48 0.74 8.7 1.01 3.78 3.42 9.33 5.34 12.33l1.53 2.38h-1.63c-1.37 0-1.82-0.23-2.79-1.44zm70.09-1.46c5.2-8.44 7.12-18.21 5.29-26.93-1.08-5.14-2.08-7.71-4.82-12.35l-2.26-3.81h1.63c1.52 0 1.76 0.17 3.54 2.59 2.43 3.28 4.79 7.97 6.02 11.93 1.25 4.01 1.37 11.97 0.24 16.14-0.9 3.35-4.32 10.29-6.41 13.05-1.4 1.84-1.78 2.09-3.32 2.2l-1.73 0.13 1.82-2.95zm-50.43-7.05c-6.93-1.75-11.2-7.76-11.77-16.57-0.3-4.49 0.31-7.73 2.14-11.46 1.7-3.45 3.47-5.15 7.23-6.93 2.48-1.18 3.07-1.29 6.86-1.28 3.34 0.01 4.51 0.18 6.08 0.89 2.53 1.17 5.33 3.78 6.43 6.01 1.52 3.07 1.45 3.35-0.96 3.89l-2.11 0.48-1.07-2.18c-1.83-3.72-5.06-5.43-9.58-5.06-4.58 0.36-8.13 3.1-9.61 7.4-1.04 3.02-1.07 10.01-0.07 13.25 3.22 10.4 18.28 10.33 20.77-0.1l0.27-1.1 2.11 0.55c1.17 0.31 2.19 0.64 2.29 0.73 0.32 0.32-1.11 3.79-2.36 5.74-2.48 3.87-6.19 5.79-11.55 6-1.95 0.07-4.24-0.05-5.1-0.26zm-60.39-18.02v-18.02h8.47c9.4 0 11.71 0.33 14.43 2.05 4.38 2.78 5.32 10.23 1.89 14.97-0.82 1.13-2.01 2.06-3.58 2.79-2.21 1.03-2.81 1.11-9.51 1.25l-7.14 0.15v14.84h-4.56v-18.03zm19.43-2.07c2.06-1.22 3.03-3.25 2.83-5.92-0.19-2.55-1.17-4.11-3.23-5.16-1.17-0.6-2.55-0.73-7.95-0.73h-6.52v12.93l6.73-0.14c5.83-0.13 6.92-0.26 8.14-0.98zm-8.01-21.16c-0.58-0.59-0.65-7.94-0.65-74.76 0-66.83 0.07-74.18 0.65-74.77 0.83-0.82 1.6-0.82 2.43 0 0.59 0.59 0.65 7.94 0.65 74.77 0 66.82-0.06 74.17-0.65 74.76-0.36 0.36-0.9 0.65-1.21 0.65s-0.86-0.29-1.22-0.65zm-174.79-57.79c-6.93-1.75-11.198-7.75-11.775-16.56-0.294-4.49 0.312-7.73 2.143-11.46 1.697-3.45 3.47-5.15 7.232-6.94 2.477-1.17 3.072-1.28 6.856-1.27 3.344 0 4.518 0.17 6.082 0.89 2.535 1.16 5.332 3.77 6.436 6.01 1.512 3.06 1.442 3.34-0.961 3.89l-2.117 0.48-1.07-2.19c-1.825-3.72-5.052-5.42-9.581-5.06-4.575 0.37-8.124 3.11-9.604 7.41-1.039 3.02-1.075 10-0.07 13.25 3.223 10.4 18.273 10.33 20.771-0.1l0.264-1.11 2.116 0.56c1.164 0.31 2.192 0.64 2.285 0.73 0.318 0.32-1.108 3.78-2.361 5.74-2.481 3.86-6.19 5.79-11.549 5.99-1.948 0.08-4.241-0.04-5.097-0.26zm24.968-18.01v-18.03h4.558v36.05h-4.558v-18.02zm14.375-18.96c-1.715-3.02-3.181-5.72-3.257-6-0.084-0.31 22.655-12.35 58.071-30.76 57.05-29.64 58.22-30.23 58.71-29.32 0.27 0.51 0.37 1.04 0.21 1.18-0.25 0.22-108.97 69.43-110.14 70.11-0.299 0.17-1.637-1.77-3.594-5.21zm163.18-62.67c-2.07-0.73-4.16-2.95-4.74-5.04-0.25-0.92-0.44-5.67-0.44-11.22v-9.64h4.5l0.13 9.64c0.15 10.63 0.22 10.95 2.78 12.16 2.71 1.29 6.04 0.27 8.1-2.48 0.79-1.06 0.86-1.82 0.99-10.23l0.14-9.09h4.49v26.11h-4.56v-4.18l-1.34 1.53c-2.48 2.83-6.32 3.76-10.05 2.44zm-40.4-17.86v-18.06l10.46 0.16c11.57 0.17 12.24 0.3 14.69 2.87 2.74 2.88 3.36 7.39 1.53 11.07-1.24 2.48-3.11 3.94-6.19 4.85l-2.09 0.61 2.31 2.38c1.92 1.97 9.12 12.99 9.12 13.96 0 0.14-1.15 0.21-2.56 0.14l-2.55-0.12-3.37-5.5c-4.01-6.54-6.07-9.1-7.93-9.88-0.83-0.35-2.87-0.57-5.12-0.57h-3.75v16.16h-4.55v-18.07zm20.3-3.29c4.25-2.47 3.49-8.83-1.22-10.14-0.81-0.22-4.41-0.41-8-0.41h-6.53v11.68l7.15-0.14c6.28-0.13 7.33-0.25 8.6-0.99zm43.33 5.79c-0.36-0.36-0.65-0.91-0.65-1.22 0-0.3 0.29-0.85 0.65-1.21 0.59-0.59 7.93-0.65 74.6-0.65h73.96l74.82-43.08c41.15-23.7 75.16-43.19 75.56-43.32 0.7-0.22 2.07 0.73 2.07 1.44 0 0.18-0.33 0.71-0.73 1.17s-34.62 20.34-76.06 44.18l-75.33 43.34h-74.12c-66.83 0-74.18-0.07-74.77-0.65zm0-16.58c-0.36-0.35-0.65-0.9-0.65-1.21s0.29-0.86 0.65-1.21c0.59-0.59 7.96-0.65 74.97-0.65s74.38 0.06 74.97 0.65c0.36 0.35 0.65 0.9 0.65 1.21s-0.29 0.86-0.65 1.21c-0.59 0.59-7.96 0.65-74.97 0.65s-74.38-0.06-74.97-0.65zm-50.97-9.11c-0.58-0.59-0.65-7.94-0.65-74.77 0-66.819 0.07-74.173 0.65-74.76 0.83-0.826 1.6-0.826 2.43 0 0.59 0.587 0.65 7.941 0.65 74.76 0 66.83-0.06 74.18-0.65 74.77-0.36 0.36-0.9 0.65-1.21 0.65s-0.86-0.29-1.22-0.65zm53.22-0.88c-0.64-0.19-3.44-4.38-3.91-5.84-0.25-0.8 0.64-2.16 1.41-2.16 0.72 0 2.12 1.55 3.52 3.91 1.68 2.82 1.69 2.85 0.82 3.72-0.67 0.67-0.77 0.69-1.84 0.37zm11.56-5.79c-0.86-0.23-4.21-7.25-3.88-8.12 0.32-0.81 1.23-1.19 2.08-0.86 0.51 0.19 4.33 7.04 4.33 7.77 0 0.32-1.29 1.49-1.59 1.44-0.15-0.03-0.58-0.13-0.94-0.23zm12.06-6.21c-0.57-0.16-1.1-1-3.98-6.4-1.04-1.95-1-3.02 0.1-3.45 1.15-0.44 2.17 0.58 4.04 4.01 2.44 4.47 2.49 4.64 1.7 5.43-0.69 0.69-0.78 0.71-1.86 0.41zm11.6-6.21c-0.99-0.28-5.51-8.86-5.16-9.8 0.35-0.89 1.34-1.2 2.27-0.71 0.65 0.35 5.38 8.47 5.38 9.23 0 0.36-1.26 1.55-1.59 1.49-0.15-0.02-0.56-0.12-0.9-0.21zm12.02-5.81c-0.53-0.15-5.01-7.57-5.89-9.76-0.62-1.53 0.71-2.76 2.15-1.99 0.64 0.35 5.27 8.03 6.02 10 0.14 0.37-0.05 0.97-0.42 1.35-0.69 0.69-0.78 0.71-1.86 0.4zm11.6-6.21c-0.56-0.16-1.72-2.08-5.5-9.08-0.63-1.17-1.04-2.43-0.9-2.78 0.36-0.95 1.43-1.23 2.35-0.62 0.7 0.46 6.54 10.42 6.54 11.16 0 0.39-1.24 1.6-1.59 1.54-0.15-0.03-0.56-0.13-0.9-0.22zm12.02-6.22c-0.55-0.16-6.37-9.45-7.14-11.41-0.6-1.54 0.71-2.77 2.14-2.01 0.65 0.35 6.62 9.92 7.28 11.67 0.14 0.37-0.05 0.97-0.42 1.35-0.69 0.69-0.78 0.7-1.86 0.4zm11.6-5.8c-0.53-0.15-6.67-10.44-7.55-12.66-0.61-1.53 0.71-2.76 2.14-2 0.64 0.34 6.94 10.93 7.69 12.91 0.14 0.37-0.05 0.97-0.42 1.34-0.69 0.69-0.78 0.71-1.86 0.41zm12.02-6.22c-0.55-0.16-7.61-11.51-8.38-13.47-0.61-1.54 0.7-2.78 2.13-2.02 0.65 0.35 7.87 11.99 8.53 13.74 0.14 0.37-0.05 0.98-0.43 1.35-0.69 0.69-0.78 0.71-1.85 0.4zm22.27-7.19c-6.93-1.75-11.2-7.76-11.78-16.57-0.29-4.49 0.31-7.73 2.14-11.46 1.7-3.45 3.47-5.15 7.24-6.94 2.47-1.17 3.07-1.28 6.85-1.27 3.35 0 4.52 0.18 6.08 0.89 2.54 1.16 5.34 3.78 6.44 6.01 1.51 3.06 1.44 3.35-0.96 3.89l-2.12 0.48-1.07-2.18c-1.82-3.72-5.05-5.43-9.58-5.06-4.57 0.36-8.12 3.1-9.6 7.4-1.04 3.02-1.08 10-0.07 13.25 3.22 10.4 18.27 10.33 20.77-0.1l0.26-1.11 2.12 0.56c1.16 0.31 2.19 0.64 2.28 0.73 0.32 0.32-1.11 3.79-2.36 5.74-2.48 3.86-6.19 5.79-11.55 5.99-1.94 0.08-4.24-0.04-5.09-0.25zm24.96-18.02v-18.02h4.56v36.05h-4.56v-18.03zm164.51-1.24v-18.026h8.47c9.4 0 11.71 0.33 14.42 2.05 4.39 2.78 5.33 10.23 1.9 14.97-0.82 1.14-2.01 2.07-3.59 2.8-2.2 1.03-2.8 1.11-9.5 1.25l-7.15 0.15v14.83h-4.55v-18.02zm19.42-2.07c2.07-1.22 3.04-3.25 2.84-5.93-0.19-2.54-1.17-4.11-3.23-5.16-1.18-0.6-2.55-0.72-7.95-0.72h-6.53v12.93l6.74-0.15c5.82-0.13 6.92-0.26 8.13-0.97zm13.31 2.07v-18.026h4.56v13.36l1.63-1.47c4.25-3.84 11.4-2.85 14.03 1.94 0.6 1.11 0.73 2.83 0.84 11.76l0.14 10.46h-4.62v-8.65c0-4.75-0.12-9.23-0.26-9.94-0.77-3.82-6.11-5.03-9.42-2.13-2.04 1.79-2.34 3.42-2.34 12.59v8.13h-4.56v-18.02zm-271.98-68.36c-2.13-0.76-4.23-2.858-5.08-5.071-0.37-0.988-0.6-1.878-0.5-1.976 0.09-0.099 0.94-0.301 1.87-0.451 1.66-0.264 1.71-0.234 2.17 1.163 0.72 2.17 2.17 3.305 4.48 3.504 2.51 0.216 4.53-0.789 5.57-2.769 2.18-4.139-0.78-8.695-5.31-8.184-1.93 0.218-1.93 0.224-1.54-1.716 0.2-1.023 0.47-1.295 1.26-1.295 0.56 0 1.55-0.278 2.21-0.619 3.16-1.638 3.4-5.504 0.42-7.042-2.63-1.364-5.75-0.192-6.64 2.495-0.5 1.503-0.53 1.524-2.2 1.256-0.94-0.149-1.76-0.326-1.82-0.392-0.29-0.283 0.91-3.059 1.86-4.345 3.24-4.357 11.29-3.671 13.76 1.173 0.46 0.902 0.84 2.226 0.84 2.941 0 1.822-1.18 4.088-2.55 4.924l-1.17 0.708 1.4 0.667c3.68 1.752 4.98 6.311 2.98 10.4-2.13 4.368-7.23 6.332-12.01 4.629zm-45.53-2.992c-0.4-0.104-0.72-0.409-0.73-0.677 0-0.268-0.12-1.179-0.25-2.024l-0.26-1.536 1.5 0.243c2.86 0.464 4.12-0.548 5.43-4.34l0.61-1.783-3.98-10.441c-2.18-5.742-4.41-11.606-4.95-13.031l-0.99-2.589h4.84l3.4 9.219c1.87 5.071 3.49 9.48 3.6 9.797 0.11 0.318 0.28 0.494 0.38 0.393 0.1-0.102 1.66-4.464 3.46-9.693l3.27-9.509 2.33-0.124c1.29-0.069 2.34 0.049 2.34 0.262 0 0.614-9.76 28.241-10.74 30.403-2.09 4.595-5.28 6.469-9.26 5.43zm-45.35-1.575c-1.87-2.331-4.12-6.264-5.52-9.617-4.4-10.578-2.69-22.275 4.73-32.341 1.79-2.433 2.01-2.59 3.58-2.59h1.67l-1.45 2.273c-2.33 3.639-3.88 6.956-5.06 10.864-0.95 3.159-1.11 4.418-1.14 9.446-0.03 4.452 0.15 6.476 0.74 8.702 1.01 3.781 3.42 9.332 5.34 12.327l1.53 2.383h-1.63c-1.37 0-1.82-0.235-2.79-1.447zm70.09-1.457c5.2-8.436 7.12-18.213 5.29-26.931-1.08-5.142-2.08-7.707-4.82-12.344l-2.26-3.816h1.63c1.52 0 1.76 0.175 3.54 2.59 2.43 3.286 4.79 7.975 6.02 11.933 1.25 4.005 1.37 11.967 0.24 16.14-0.9 3.344-4.32 10.291-6.41 13.053-1.4 1.834-1.78 2.086-3.32 2.198l-1.73 0.127 1.82-2.95zm-50.43-7.051c-6.93-1.75-11.2-7.754-11.77-16.565-0.3-4.488 0.31-7.73 2.14-11.458 1.7-3.455 3.47-5.156 7.23-6.939 2.48-1.174 3.07-1.285 6.86-1.277 3.34 0.006 4.51 0.179 6.08 0.895 2.53 1.161 5.33 3.773 6.43 6.01 1.52 3.062 1.45 3.343-0.96 3.887l-2.11 0.48-1.07-2.183c-1.83-3.719-5.06-5.424-9.58-5.061-4.58 0.368-8.13 3.104-9.61 7.406-1.04 3.018-1.07 10.002-0.07 13.249 3.22 10.403 18.28 10.329 20.77-0.103l0.27-1.102 2.11 0.558c1.17 0.307 2.19 0.634 2.29 0.727 0.32 0.318-1.11 3.786-2.36 5.739-2.48 3.866-6.19 5.791-11.55 5.995-1.95 0.075-4.24-0.041-5.1-0.258zm-60.39-18.015v-18.021h8.47c9.4 0 11.71 0.329 14.43 2.05 4.38 2.78 5.32 10.232 1.89 14.967-0.82 1.137-2.01 2.066-3.58 2.799-2.21 1.029-2.81 1.108-9.51 1.249l-7.14 0.15v14.835h-4.56v-18.025zm19.43-2.072c2.06-1.219 3.03-3.247 2.83-5.922-0.19-2.545-1.17-4.112-3.23-5.162-1.17-0.599-2.55-0.724-7.95-0.725h-6.52v12.93l6.73-0.146c5.83-0.127 6.92-0.258 8.14-0.975z"/>
 <metadata>
  <rdf:RDF>
   <cc:Work>
    <dc:format>image/svg+xml</dc:format>
    <dc:type rdf:resource="http://purl.org/dc/dcmitype/StillImage"/>
    <cc:license rdf:resource="http://creativecommons.org/licenses/publicdomain/"/>
    <dc:publisher>
     <cc:Agent rdf:about="http://openclipart.org/">
      <dc:title>Openclipart</dc:title>
     </cc:Agent>
    </dc:publisher>
   </cc:Work>
   <cc:License rdf:about="http://creativecommons.org/licenses/publicdomain/">
    <cc:permits rdf:resource="http://creativecommons.org/ns#Reproduction"/>
    <cc:permits rdf:resource="http://creativecommons.org/ns#Distribution"/>
    <cc:permits rdf:resource="http://creativecommons.org/ns#DerivativeWorks"/>
   </cc:License>
  </rdf:RDF>
 </metadata>
</svg>
