<?xml version="1.0"?>
<svg xmlns:rdf="http://www.w3.org/1999/02/22-rdf-syntax-ns#" xmlns="http://www.w3.org/2000/svg" xmlns:cc="http://creativecommons.org/ns#" xmlns:xlink="http://www.w3.org/1999/xlink" xmlns:dc="http://purl.org/dc/elements/1.1/" id="svg3075" height="307.3" viewBox="0 0 536.62939 307.29764" width="536.63" version="1.1" preserveAspectRatio="none">
 <style id="style3077" type="text/css">text {
	font-family : Verdana, Tahoma, sans-serif;
	font-size : 11px;
	fill : black;
	stroke : none;
}
/* As at 20060630, Wikipedia's SVG rasteriser couldn't make use of these styles. Leave them in in case it improves. */
#percentage_numbers text {
	text-anchor : end;
}
#x_axis_numbers text {
	text-anchor : middle;
}</style>
 <desc id="desc3079">Usage share of Netscape Navigator</desc>
 <defs id="defs3081">
  <line id="horizontal_line" stroke-width="25" x2="2e3" x1="-1e4"/>
  <line id="vertical_line" stroke-width="25" y2="-100" x2="0" y1="100"/>
 </defs>
 <g id="g3085" transform="translate(43.357 36.019)">
  <g id="g3087" transform="matrix(.04 0 0 -.04 400 250)">
   <use id="use3089" xlink:href="#horizontal_line" height="275" width="550" stroke="#000000" y="0" x="0"/>
   <g id="g3091" stroke="#ccc">
    <use id="use3093" xlink:href="#horizontal_line" height="275" width="550" y="0" x="0"/>
    <use id="use3095" xlink:href="#horizontal_line" height="275" width="550" stroke-dasharray="100" y="1000" x="0"/>
    <use id="use3097" xlink:href="#horizontal_line" height="275" width="550" y="2000" x="0"/>
    <use id="use3099" xlink:href="#horizontal_line" height="275" width="550" stroke-dasharray="100" y="3000" x="0"/>
    <use id="use3101" xlink:href="#horizontal_line" height="275" width="550" y="4000" x="0"/>
    <use id="use3103" xlink:href="#horizontal_line" height="275" width="550" stroke-dasharray="100" y="5000" x="0"/>
    <use id="use3105" xlink:href="#horizontal_line" height="275" width="550" y="6000" x="0"/>
    <use id="use3167" xlink:href="#horizontal_line" transform="translate(0 2e3)" height="275" width="550" stroke-dasharray="100" y="5000" x="0"/>
   </g>
   <g id="g3107" stroke="#000">
    <use id="use3109" xlink:href="#vertical_line" height="275" width="550" y="0" x="-10000"/>
    <use id="use3111" xlink:href="#vertical_line" height="275" width="550" y="0" x="-8000"/>
    <use id="use3113" xlink:href="#vertical_line" height="275" width="550" y="0" x="-6000"/>
    <use id="use3115" xlink:href="#vertical_line" height="275" width="550" y="0" x="-4000"/>
    <use id="use3117" xlink:href="#vertical_line" height="275" width="550" y="0" x="-2000"/>
    <use id="use3119" xlink:href="#vertical_line" transform="scale(1,1.5)" height="275" width="550" y="0" x="0"/>
    <use id="use3121" xlink:href="#vertical_line" height="275" width="550" y="0" x="1000"/>
    <use id="use3123" xlink:href="#vertical_line" height="275" width="550" y="0" x="2000"/>
   </g>
   <path id="path3125" d="m-1e4 0v4l2e3 1h3e3l1e3 2 1e3 7 1e3 13 1e3 23 250 10 250 40 100 60 200-10 201 20 199 20h300l100 10 100 10 100 10 100 6 100 84 100-9 100 59 50 40 50-40 40 83 60-93 100 75 100 120 50-75 50 130 50 190 50 190 50 280 50 390 10 100 10 110 10 210 10 230 10 100 10 620 10 680 4 300 6 430 7 570 3 260 10 810 0.5 430 0.25 247.5 0.45 252.5 0.1 0.025v-7e3z" stroke="#000" stroke-width="20" fill="#555"/>
  </g>
  <text id="text3127" style="text-anchor:middle" font-size="11px" transform="matrix(0,-1,1,0,-160,120)" y="125" x="0" font-family="'Verdana, Tahoma, sans-serif'" fill="#000000">World population, billions</text>
  <g id="percentage_numbers" style="text-anchor:end" font-size="11px" transform="translate(-10,2)" font-family="'Verdana, Tahoma, sans-serif'" fill="#000000">
   <text id="text3130" style="text-anchor:end" y="250" x="0">0</text>
   <text id="text3132" style="text-anchor:end" y="210" x="0">1</text>
   <text id="text3134" style="text-anchor:end" y="170" x="0">2</text>
   <text id="text3136" style="text-anchor:end" y="130" x="0">3</text>
   <text id="text3138" style="text-anchor:end" y="90" x="0">4</text>
   <text id="text3140" style="text-anchor:end" y="50" x="0">5</text>
   <text id="text3142" style="text-anchor:end" y="10" x="0">6</text>
   <text id="text3165" style="text-anchor:end" y="-30.000277" x="0">7</text>
  </g>
  <g id="x_axis_numbers" style="text-anchor:middle" font-size="11px" transform="translate(0,20)" font-family="'Verdana, Tahoma, sans-serif'" fill="#000000">
   <text id="text3145" style="text-anchor:middle" y="250" x="0">10,000 BC</text>
   <text id="text3147" style="text-anchor:middle" y="250" x="80">8000</text>
   <text id="text3149" style="text-anchor:middle" y="250" x="160">6000</text>
   <text id="text3151" style="text-anchor:middle" y="250" x="240">4000</text>
   <text id="text3153" style="text-anchor:middle" y="250" x="320">2000</text>
   <text id="text3155" style="text-anchor:middle" y="250" x="400">AD 1</text>
   <text id="text3157" style="text-anchor:middle" y="250" x="440">1000</text>
   <text id="text3159" style="text-anchor:middle" y="250" x="480">2000</text>
  </g>
 </g>
 <metadata>
  <rdf:RDF>
   <cc:Work>
    <dc:format>image/svg+xml</dc:format>
    <dc:type rdf:resource="http://purl.org/dc/dcmitype/StillImage"/>
    <cc:license rdf:resource="http://creativecommons.org/licenses/publicdomain/"/>
    <dc:publisher>
     <cc:Agent rdf:about="http://openclipart.org/">
      <dc:title>Openclipart</dc:title>
     </cc:Agent>
    </dc:publisher>
   </cc:Work>
   <cc:License rdf:about="http://creativecommons.org/licenses/publicdomain/">
    <cc:permits rdf:resource="http://creativecommons.org/ns#Reproduction"/>
    <cc:permits rdf:resource="http://creativecommons.org/ns#Distribution"/>
    <cc:permits rdf:resource="http://creativecommons.org/ns#DerivativeWorks"/>
   </cc:License>
  </rdf:RDF>
 </metadata>
</svg>
