<?xml version="1.0"?>
<svg xmlns:rdf="http://www.w3.org/1999/02/22-rdf-syntax-ns#" xmlns="http://www.w3.org/2000/svg" xmlns:cc="http://web.resource.org/cc/" xmlns:dc="http://purl.org/dc/elements/1.1/" id="svg2" xml:space="preserve" height="665.84" width="1387" version="1.0" viewBox="0 0 1387.002 665.845">
		<g id="&#x30EC;&#x30A4;&#x30E4;&#x30FC;_1" transform="translate(50,37.052)">
			<g id="g7">
				<text id="text9" transform="translate(510.5 490.8)"><tspan id="tspan11" font-size="100px" y="0" x="0" font-family="ArialMT">N</tspan></text>
				<text id="text13" transform="translate(510.5 574.22)"><tspan id="tspan15" font-size="100px" y="0" x="0" font-family="ArialMT">H</tspan></text>
				<polygon id="polygon17" points="477 234.3 474.5 230.3 476 226.3 616 226.3 618.5 230.3 615.5 234.3"/>
				<polygon id="polygon19" points="434.5 365.8 430 367.3 427 363.79 470 231.3 474.5 230.3 477 234.3"/>
					<rect id="rect21" transform="matrix(.9487 .3162 -.3162 .9487 113.9 -120.26)" height="114.16" width="7.906" y="233.72" x="423.55"/> 
				<polygon id="polygon23" points="502 415.3 497.5 421.29 429 371.79 430 367.3 434.5 365.8"/>
				<polygon id="polygon25" points="658 365.8 663 367.3 663.5 371.79 595 421.79 590 415.3"/>
				<polygon id="polygon27" points="615.5 234.3 618.5 230.3 622.5 230.8 666 364.29 663 367.3 658 365.8"/>
					<rect id="rect29" transform="matrix(-.9487 .3162 -.3162 -.9487 1297.5 403.54)" height="106.1" width="7.906" y="254" x="612.05"/> 
				<text id="text31" transform="translate(904.5 240.3)"><tspan id="tspan33" font-size="100px" y="0" x="0" font-family="ArialMT">N</tspan></text>
				<polygon id="polygon35" points="797.5 413.79 797.5 417.8 795 421.29 663.5 371.79 663 367.3 666 364.29"/>
				<polygon id="polygon37" points="918 341.79 921.5 344.29 921.5 348.79 803.5 419.29 797.5 417.8 797.5 413.79"/>
				<polygon id="polygon39" points="936.5 254.79 944.5 256.3 926 342.3 921.5 344.29 918 341.79"/>
				<polygon id="polygon41" points="839.5 101.3 842.5 93.295 903 156.3 897.5 161.8"/>
				<polygon id="polygon43" points="700 113.8 695.5 106.3 842.5 93.295 839.5 101.3"/>
				<polygon id="polygon45" points="622.5 230.8 618.5 230.3 616 226.3 695.5 106.3 700 113.8"/>
				<polygon id="polygon47" points="376.5 127.8 379.5 119.3 476 226.3 474.5 230.3 470 231.3"/>
				<polygon id="polygon49" points="240 156.8 237 153.3 238.5 148.8 379.5 119.3 376.5 127.8"/>
				<polygon id="polygon51" points="258 179.3 256.5 171.8 368 147.8 369.5 155.8"/>
				<polygon id="polygon53" points="197 289.3 188 291.3 232.5 154.3 237 153.3 240 156.8"/>
				<polygon id="polygon55" points="290.5 392.8 287.5 401.79 188 291.3 197 289.3"/>
				<polygon id="polygon57" points="301 366.29 295.5 371.29 219 286.8 225 281.3"/>
				<polygon id="polygon59" points="427 363.79 430 367.3 429 371.79 287.5 401.79 290.5 392.8"/>
				<text id="text61" transform="translate(103 85.8)"><tspan id="tspan63" font-size="100px" y="0" x="0" font-family="ArialMT">O</tspan></text>
				<polygon id="polygon65" points="174.5 89.794 180.5 84.794 238.5 148.8 237 153.3 232.5 154.3"/>
				<polygon id="polygon67" points="877 526.79 861 559.29 795 421.29 797.5 417.8 803.5 419.29"/>
				<polygon id="polygon69" points="985 464.29 994.5 470.8 994.5 482.3 861 559.29 877 526.79"/>
				<polygon id="polygon71" points="1088.5 513.3 1162 578.79 994.5 482.3 994.5 470.8 1005 465.3"/>
				<polygon id="polygon73" points="1045.5 411.29 1046 416.29 1043 418.79 1028.5 410.8 1030 402.3"/>
				<polygon id="polygon75" points="921.5 348.79 921.5 344.29 926 342.3 981 374.29 980 382.8"/>
				<polygon id="polygon77" points="1162 578.79 1088.5 513.3 1043 418.79 1046 416.29 1051 416.79"/>
				<polygon id="polygon79" points="1146.5 310.3 1148.5 319.29 1051 416.79 1046 416.29 1045.5 411.29"/>
				<polygon id="polygon81" points="1287 347.8 1286 351.79 1285 355.8 1148.5 319.29 1146.5 310.3"/>
				<polygon id="polygon83" points="1002 338.79 1025 318.3 1005 465.3 994.5 470.8 985 464.29"/>
				<polygon id="polygon85" points="969 258.3 976 254.3 1025 318.3 1002 338.79"/>
				<polygon id="polygon87" points="1.499 80.297 1.001 76.796 0 72.797 90.498 53.295 92.002 61.298"/>
			</g>
		</g>
	<metadata><rdf:RDF><cc:Work><dc:format>image/svg+xml</dc:format><dc:type rdf:resource="http://purl.org/dc/dcmitype/StillImage"/><cc:license rdf:resource="http://creativecommons.org/licenses/publicdomain/"/><dc:publisher><cc:Agent rdf:about="http://openclipart.org/"><dc:title>Openclipart</dc:title></cc:Agent></dc:publisher></cc:Work><cc:License rdf:about="http://creativecommons.org/licenses/publicdomain/"><cc:permits rdf:resource="http://creativecommons.org/ns#Reproduction"/><cc:permits rdf:resource="http://creativecommons.org/ns#Distribution"/><cc:permits rdf:resource="http://creativecommons.org/ns#DerivativeWorks"/></cc:License></rdf:RDF></metadata></svg>
