<?xml version="1.0" encoding="UTF-8" standalone="no"?>
<!-- Created with Inkscape (http://www.inkscape.org/) -->
<svg
   xmlns:svg="http://www.w3.org/2000/svg"
   xmlns="http://www.w3.org/2000/svg"
   version="1.0"
   width="1387.002"
   height="665.84497"
   viewBox="0 0 1387.002 665.845"
   id="svg2"
   xml:space="preserve"><defs
   id="defs90" />
	
		<g
   transform="translate(50,37.052)"
   id="レイヤー_1">
			<g
   id="g7">
				<text
   transform="translate(510.4985,490.8003)"
   id="text9"><tspan
     x="0"
     y="0"
     style="font-size:100px;font-family:ArialMT"
     id="tspan11">N</tspan></text>

				<text
   transform="translate(510.4985,574.2153)"
   id="text13"><tspan
     x="0"
     y="0"
     style="font-size:100px;font-family:ArialMT"
     id="tspan15">H</tspan></text>

				<polygon
   points="477.002,234.296 474.502,230.297 476.001,226.298 616.001,226.298 618.501,230.297 615.498,234.296 477.002,234.296 "
   id="polygon17" />
				<polygon
   points="434.502,365.795 430,367.299 427.002,363.793 470,231.298 474.502,230.297 477.002,234.296 434.502,365.795 "
   id="polygon19" />
				
					<rect
   width="7.9060001"
   height="114.156"
   x="423.547"
   y="233.718"
   transform="matrix(0.9487,0.3162,-0.3162,0.9487,113.8955,-120.2647)"
   id="rect21" /> 
				<polygon
   points="502.002,415.297 497.5,421.293 428.999,371.792 430,367.299 434.502,365.795 502.002,415.297 "
   id="polygon23" />
				<polygon
   points="657.998,365.795 662.998,367.299 663.496,371.792 595,421.792 590,415.297 657.998,365.795 "
   id="polygon25" />
				<polygon
   points="615.498,234.296 618.501,230.297 622.5,230.795 665.996,364.292 662.998,367.299 657.998,365.795 615.498,234.296 "
   id="polygon27" />
				
					<rect
   width="7.9060001"
   height="106.096"
   x="612.04797"
   y="253.99699"
   transform="matrix(-0.9487,0.3162,-0.3162,-0.9487,1297.487,403.5377)"
   id="rect29" /> 
				<text
   transform="translate(904.499,240.2979)"
   id="text31"><tspan
     x="0"
     y="0"
     style="font-size:100px;font-family:ArialMT"
     id="tspan33">N</tspan></text>

				<polygon
   points="797.5,413.793 797.5,417.797 795,421.293 663.496,371.792 662.998,367.299 665.996,364.292 797.5,413.793 "
   id="polygon35" />
				<polygon
   points="917.998,341.792 921.504,344.292 921.504,348.793 803.496,419.292 797.5,417.797 797.5,413.793 917.998,341.792 "
   id="polygon37" />
				<polygon
   points="936.504,254.794 944.502,256.298 925.996,342.299 921.504,344.292 917.998,341.792 936.504,254.794 "
   id="polygon39" />
				<polygon
   points="839.502,101.298 842.5,93.295 902.998,156.298 897.5,161.796 839.502,101.298 "
   id="polygon41" />
				<polygon
   points="700,113.798 695.498,106.298 842.5,93.295 839.502,101.298 700,113.798 "
   id="polygon43" />
				<polygon
   points="622.5,230.795 618.501,230.297 616.001,226.298 695.498,106.298 700,113.798 622.5,230.795 "
   id="polygon45" />
				<polygon
   points="376.499,127.797 379.502,119.296 476.001,226.298 474.502,230.297 470,231.298 376.499,127.797 "
   id="polygon47" />
				<polygon
   points="240,156.796 237.002,153.295 238.501,148.798 379.502,119.296 376.499,127.797 240,156.796 "
   id="polygon49" />
				<polygon
   points="257.998,179.296 256.499,171.796 367.998,147.797 369.502,155.795 257.998,179.296 "
   id="polygon51" />
				<polygon
   points="197.002,289.296 187.998,291.298 232.5,154.296 237.002,153.295 240,156.796 197.002,289.296 "
   id="polygon53" />
				<polygon
   points="290.498,392.797 287.5,401.792 187.998,291.298 197.002,289.296 290.498,392.797 "
   id="polygon55" />
				<polygon
   points="301.001,366.293 295.498,371.293 218.999,286.796 225,281.298 301.001,366.293 "
   id="polygon57" />
				<polygon
   points="427.002,363.793 430,367.299 428.999,371.792 287.5,401.792 290.498,392.797 427.002,363.793 "
   id="polygon59" />
				<text
   transform="translate(102.9985,85.7998)"
   id="text61"><tspan
     x="0"
     y="0"
     style="font-size:100px;font-family:ArialMT"
     id="tspan63">O</tspan></text>

				<polygon
   points="174.502,89.794 180.498,84.794 238.501,148.798 237.002,153.295 232.5,154.296 174.502,89.794 "
   id="polygon65" />
				<polygon
   points="877.002,526.792 860.996,559.292 795,421.293 797.5,417.797 803.496,419.292 877.002,526.792 "
   id="polygon67" />
				<polygon
   points="985,464.292 994.502,470.795 994.502,482.299 860.996,559.292 877.002,526.792 985,464.292 "
   id="polygon69" />
				<polygon
   points="1088.496,513.295 1162.002,578.793 994.502,482.299 994.502,470.795 1005,465.297 1088.496,513.295 "
   id="polygon71" />
				<polygon
   points="1045.498,411.293 1045.996,416.293 1042.998,418.793 1028.496,410.795 1030,402.299 1045.498,411.293 "
   id="polygon73" />
				<polygon
   points="921.504,348.793 921.504,344.292 925.996,342.299 980.996,374.292 980,382.797 921.504,348.793 "
   id="polygon75" />
				<polygon
   points="1162.002,578.793 1088.496,513.295 1042.998,418.793 1045.996,416.293 1050.996,416.792 1162.002,578.793 "
   id="polygon77" />
				<polygon
   points="1146.504,310.297 1148.496,319.292 1050.996,416.792 1045.996,416.293 1045.498,411.293 1146.504,310.297 "
   id="polygon79" />
				<polygon
   points="1287.002,347.797 1285.996,351.792 1285,355.795 1148.496,319.292 1146.504,310.297 1287.002,347.797 "
   id="polygon81" />
				<polygon
   points="1002.002,338.793 1025,318.295 1005,465.297 994.502,470.795 985,464.292 1002.002,338.793 "
   id="polygon83" />
				<polygon
   points="969.004,258.295 975.996,254.296 1025,318.295 1002.002,338.793 969.004,258.295 "
   id="polygon85" />
				<polygon
   points="1.499,80.297 1.001,76.796 0,72.797 90.498,53.295 92.002,61.298 1.499,80.297 "
   id="polygon87" />
			</g>
		</g>
	</svg>