<?xml version="1.0"?>
<svg xmlns:rdf="http://www.w3.org/1999/02/22-rdf-syntax-ns#" xmlns="http://www.w3.org/2000/svg" xmlns:cc="http://web.resource.org/cc/" xmlns:xlink="http://www.w3.org/1999/xlink" xmlns:dc="http://purl.org/dc/elements/1.1/" xml:space="preserve" height="768" width="640" version="1.1">
  <path stroke="#d3d3d3" d="m81.5 728.5v-712m40 712v-712m40 712v-712m40 712v-712m40 712v-712m40 712v-712m40 712v-712m40 712v-712m40 712v-712m40 712v-712m40 712v-712m-442 670h476m-476-40h476m-476-40h476m-476-40h476m-476-40h476m-476-40h476m-476-40h476m-476-40h476m-476-40h476m-476-40h476m-476-40h476m-476-40h476m-476-40h476m-476-40h476m-476-40h476m-476-40h476m-476-40h476" fill="none"/>
  <line stroke-width=".707" y2="251.5" x2="516.5" stroke="#000" y1="748.5" x1="19.5"/>
  <g stroke-width=".9" transform="translate(40.05,727.95) scale(4,-4)" fill="none">
    <path stroke="#f4f4ff" d="m1 21v9m0 1v9m0 1v9m0 1v9m1-39v9m0 11v9m0 21v9m1-79v9m0 1v9m1-9v9m0 11v9m0 41v9m1-79v9m0 11v9m0 61v9m1-99v9m1 11v9m1-9v9m1 11v9m0 1v9m1-19v9m1 1v9" transform="scale(1 .1) translate(.45 9)"/>
    <path stroke="#e8e8ff" d="m3 81v9m2 31v9m1 11v9m9-59v9m2 11v9m0 1v9m1-19v9m1 11v9m0 1v9m16 181v9m2 11v9" transform="scale(1 .1) translate(.45 9)"/>
    <path stroke="#ddf" d="m7 161v9m1-9v9m0 1v9m1 1v9m1 41v9m1-169v9m0 171v9m2-189v9m1 201v9m6-159v9m3 41v9m6 51v9m31 721v9m12-179v9m15 461v9m2-9v9m2-9v9m1-9v9" transform="scale(1 .1) translate(.45 9)"/>
    <path stroke="#d2d2ff" d="m4 101v9m0 1v9m3 51v9m1 1v9m0 1v9m1 1v9m0 1v9m1 1v9m1 11v9m1-9v9m0 1v9m0 1v9m0 1v9m1-19v9m0 1v9m0 1v9m0 1v9m2-9v9m0 1v9m1 1v9m0 1v9m1-29v9m0 1v9m0 11v9m1-29v9m0 1v9m2 1v9m1-169v9m1 201v9m1-9v9m2-209v9m1 251v9m0 1v9m1-229v9m0 221v9m0 1v9m1-259v9m0 251v9m0 1v9m1-269v9m0 261v9m1 1v9m0 1v9m1 1v9m0 1v9m1-259v9m0 231v9m0 11v9m1-19v9m0 1v9m0 1v9m0 1v9m0 1v9m1-299v9m0 251v9m0 11v9m0 1v9m0 1v9m1-9v9m0 1v9m0 1v9m1 11v9m2 1v9m1-289v9m0 291v9m1-299v9m0 311v9m1 1v9m1-19v9m2 41v9m0 1v9m1-29v9m0 21v9m1-29v9m0 11v9m5 91v9m0 1v9m1-19v9m0 11v9m0 1v9m1-9v9m0 1v9m3 31v9m1-19v9m0 1v9m0 1v9m1-19v9m0 1v9m0 1v9m1-19v9m0 1v9m1-319v9m0 301v9m4-259v9m1 1v9m2 21v9m1-9v9m2 31v9m4 361v9m0 1v9m6 111v9m1-9v9m0 1v9m3 31v9m0 1v9m1-89v9m1-9v9m2-9v9m2-9v9" transform="scale(1 .1) translate(.45 9)"/>
    <path stroke="#c6c6ff" d="m14 291v9m14-109v9m2 51v9m22 261v9m33 751v9m2-9v9m4-9v9m1-9v9" transform="scale(1 .1) translate(.45 9)"/>
    <path stroke="#bbf" d="m14 231v9m21 81v9m2 11v9m1 1v9m6 61v9m1 1v9m1 1v9m1 1v9m4 51v9m18 221v9m8 121v9m9 401v9m2-9v9m1-9v9m1-9v9m2 1v9m1 11v9m9 131v9m8 101v9" transform="scale(1 .1) translate(.45 9)"/>
    <path stroke="#b0b0ff" d="m13 251v9m53 471v9m3 11v9m15 521v9m6 1v9m1-9v9" transform="scale(1 .1) translate(.45 9)"/>
    <path stroke="#a4a4ff" d="m55 571v9m20 251v9m12 451v9m1-9v9m1-9v9m3 1v9m12 181v9" transform="scale(1 .1) translate(.45 9)"/>
    <path stroke="#99f" d="m52 531v9m23 641v9m2-329v9m3 31v9m3 101v9m3 271v9m6-39v9m10 201v9m2 1v9m6 81v9" transform="scale(1 .1) translate(.45 9)"/>
    <path stroke="#8e8eff" d="m53 551v9m24 341v9m1-39v9m1 11v9m0 1v9m1 1v9m2 31v9m2 331v9m1-9v9m0 1v9m5-49v9m1-9v9m16 251v9m0 21v9m3 21v9m0 31v9m3 11v9" transform="scale(1 .1) translate(.45 9)"/>
    <path stroke="#8282ff" d="m55 561v9m8 91v9m2 21v9m10 141v9m3 31v9m2 31v9m4 101v9m2 31v9m0 221v9m3-49v9m3-19v9m0 51v9m8 91v9m0 151v9m8-29v9m4 81v9m0 41v9" transform="scale(1 .1) translate(.45 9)"/>
    <path stroke="#77f" d="m5 131v9m4 51v9m2 31v9m7 101v9m1 1v9m2 21v9m1 11v9m4-229v9m26 351v9m21 261v9m1 11v9m2 11v9m2 31v9m1 11v9m1 11v9m2 21v9m2 81v9m0 241v9m1-259v9m1 1v9m2 51v9m0 131v9m2 31v9m0 1v9m12 231v9m4-49v9m2 41v9m0 1v9m1-19v9m9 181v9" transform="scale(1 .1) translate(.45 9)"/>
    <path stroke="#6c6cff" d="m3 71v9m1 11v9m1-9v9m0 11v9m1 31v9m2-119v9m1 111v9m0 1v9m1 11v9m0 1v9m0 1v9m1-9v9m0 1v9m1 1v9m1 1v9m7 111v9m8-169v9m14 191v9m6 51v9m1 1v9m1 1v9m17 231v9m0 1v9m7 101v9m2 11v9m2 31v9m1 11v9m2 11v9m1 21v9m2 61v9m2 31v9m0 1v9m1 161v9m3-89v9m0 1v9m1 1v9m0 1v9m0 31v9m0 41v9m0 1v9m9 111v9m0 151v9m2-9v9m2-89v9m2 11v9m0 11v9m3 41v9m0 41v9m1-69v9m1 1v9m0 1v9m0 1v9m0 31v9m5 71v9" transform="scale(1 .1) translate(.45 9)"/>
    <path stroke="#6060ff" d="m4 71v9m1-19v9m0 1v9m0 1v9m1 41v9m1-99v9m0 91v9m0 1v9m3 11v9m0 1v9m1-29v9m0 21v9m0 1v9m1 1v9m1 11v9m1-169v9m0 181v9m0 1v9m1 1v9m1-199v9m0 1v9m1 211v9m1-209v9m0 201v9m1-9v9m0 1v9m1-209v9m0 191v9m0 1v9m1-9v9m0 1v9m0 1v9m1-219v9m0 191v9m0 1v9m0 11v9m1-9v9m0 1v9m0 1v9m1-249v9m0 1v9m0 211v9m0 1v9m1 11v9m1-249v9m0 1v9m2 1v9m2 21v9m2 21v9m1 21v9m5 31v9m1 321v9m0 1v9m2 21v9m13-179v9m3 41v9m6 71v9m9 151v9m1-9v9m2 11v9m1 11v9m1 1v9m1 21v9m1 11v9m1 1v9m0 1v9m1-9v9m2 41v9m0 11v9m2 41v9m1 181v9m1-159v9m0 181v9m0 1v9m1-189v9m0 1v9m0 151v9m0 1v9m1-149v9m0 121v9m1-99v9m0 31v9m1-39v9m0 1v9m1 1v9m6 141v9m6 131v9m0 11v9m3-29v9m2 31v9m0 1v9m2 41v9m1 11v9m4 71v9m0 11v9m1-29v9" transform="scale(1 .1) translate(.45 9)"/>
    <path stroke="#55f" d="m6 111v9m0 1v9m1 1v9m1 1v9m0 1v9m1-9v9m1 1v9m1 1v9m0 1v9m1-119v9m0 111v9m0 1v9m0 11v9m1-149v9m0 91v9m0 1v9m0 1v9m0 1v9m0 1v9m1-149v9m0 131v9m0 11v9m0 1v9m1-159v9m0 151v9m0 1v9m1 1v9m0 1v9m2-169v9m2 181v9m1 11v9m1-179v9m0 1v9m0 151v9m0 1v9m1-9v9m0 11v9m1-189v9m0 1v9m0 181v9m0 21v9m1-229v9m0 171v9m0 1v9m0 1v9m0 1v9m1-209v9m0 1v9m0 201v9m1-219v9m0 201v9m0 1v9m0 1v9m1-229v9m0 1v9m1 1v9m0 1v9m1-9v9m0 1v9m1 1v9m0 231v9m1-249v9m1 31v9m1-29v9m0 1v9m1 261v9m1-269v9m0 1v9m0 251v9m0 1v9m0 1v9m0 1v9m1-269v9m0 241v9m0 1v9m0 1v9m1-279v9m0 261v9m1-269v9m1 1v9m0 281v9m1-279v9m0 281v9m1 11v9m0 1v9m1-309v9m0 281v9m0 1v9m0 1v9m3 31v9m1 11v9m0 1v9m0 11v9m1-9v9m0 1v9m1 11v9m4-319v9m1 1v9m1 371v9m0 1v9m0 1v9m1 1v9m1 1v9m1 1v9m13-209v9m0 1v9m2 41v9m1 1v9m2 21v9m1 1v9m1 21v9m0 1v9m3 21v9m1 11v9m0 1v9m1 31v9m1 21v9m0 1v9m1 231v9m1-219v9m0 1v9m0 191v9m1-199v9m0 1v9m1 11v9m1 1v9m0 11v9m0 121v9m1-119v9m2 111v9m1-9v9m13 241v9m2 1v9m2 11v9m5 101v9m0 1v9m1 31v9m1-29v9" transform="scale(1 .1) translate(.45 9)"/>
    <path stroke="#4a4aff" d="m2 51v9m1-9v9m3-39v9m0 71v9m1 1v9m0 1v9m3-69v9m0 81v9m1-9v9m1-79v9m0 91v9m2-99v9m0 1v9m1 1v9m0 1v9m0 101v9m0 1v9m0 1v9m1-149v9m0 1v9m0 131v9m0 1v9m1-149v9m0 1v9m0 131v9m0 1v9m1-159v9m0 151v9m1-159v9m0 161v9m1-179v9m0 1v9m1 11v9m0 141v9m1-149v9m0 131v9m1-139v9m0 111v9m0 11v9m0 11v9m1-159v9m0 141v9m0 1v9m0 1v9m1-179v9m0 1v9m0 141v9m1-149v9m0 1v9m0 161v9m0 1v9m1-189v9m0 1v9m0 101v9m0 11v9m0 21v9m1-169v9m0 1v9m0 201v9m1-209v9m0 211v9m1-219v9m0 211v9m1-219v9m0 1v9m0 201v9m1-219v9m0 231v9m1-239v9m1 1v9m0 231v9m1 1v9m1-239v9m0 221v9m0 1v9m1-9v9m0 1v9m0 1v9m1-9v9m0 1v9m0 1v9m1 1v9m0 1v9m1 11v9m1-9v9m0 1v9m0 1v9m1-19v9m0 1v9m0 11v9m1-39v9m0 1v9m0 1v9m0 1v9m1 11v9m0 1v9m1-19v9m0 11v9m0 1v9m1-9v9m1-9v9m0 1v9m0 1v9m0 1v9m0 21v9m1-29v9m0 1v9m0 1v9m1 1v9m0 1v9m0 1v9m1 1v9m0 1v9m3 11v9m1 11v9m0 1v9m0 1v9m1-19v9m0 1v9m1 1v9m0 11v9m1 1v9m1-369v9m0 1v9m0 351v9m1-9v9m0 1v9m0 1v9m1-9v9m0 1v9m1 1v9m1 1v9m1-349v9m0 341v9m1-9v9m1-339v9m1 1v9m2 21v9m1 11v9m1 1v9m1 51v9m1 1v9m1 311v9m2-309v9m1 21v9m3 41v9m0 1v9m1 1v9m0 1v9m3 61v9m1 261v9m1-239v9m0 171v9m2-129v9m1 11v9m0 1v9m1 11v9m0 11v9m0 31v9m1-39v9m0 1v9m1 1v9m9 171v9m2 141v9m4-39v9m1-9v9m1 111v9m2 11v9m1-49v9m0 21v9m1-19v9m0 41v9m1-29v9m1 11v9" transform="scale(1 .1) translate(.45 9)"/>
    <path stroke="#3e3eff" d="m2 31v9m1 1v9m2-29v9m1 61v9m1 1v9m2 31v9m1-9v9m1-69v9m1 81v9m1-89v9m0 71v9m1 21v9m0 1v9m1 1v9m2 31v9m0 1v9m1-129v9m0 131v9m1-139v9m0 131v9m0 1v9m1-149v9m0 1v9m1 1v9m0 121v9m1-129v9m1-19v9m0 11v9m0 1v9m0 101v9m1-119v9m0 111v9m0 1v9m1-129v9m0 111v9m0 1v9m1 21v9m0 1v9m1-19v9m0 21v9m1 11v9m0 1v9m0 1v9m1-9v9m0 1v9m0 1v9m1-9v9m0 1v9m1 1v9m1 1v9m0 1v9m1-9v9m0 1v9m1 1v9m1 1v9m0 1v9m2 1v9m1 1v9m0 1v9m1 1v9m0 1v9m0 1v9m1 11v9m1-259v9m0 241v9m0 1v9m1 1v9m1-259v9m0 231v9m0 1v9m1 11v9m0 1v9m0 1v9m0 1v9m1-29v9m0 1v9m0 1v9m1-269v9m0 261v9m0 1v9m1-279v9m0 261v9m0 1v9m1 11v9m0 1v9m0 1v9m1-9v9m0 11v9m0 1v9m1 21v9m1-329v9m0 11v9m0 291v9m0 1v9m2-299v9m0 291v9m0 1v9m1-319v9m0 311v9m0 1v9m1-319v9m0 301v9m0 1v9m1-339v9m0 1v9m0 311v9m0 1v9m0 1v9m1-9v9m2-309v9m0 1v9m1-9v9m0 1v9m0 331v9m1-349v9m0 341v9m0 1v9m1-359v9m0 1v9m0 341v9m1-319v9m0 311v9m1-339v9m1 11v9m0 41v9m0 281v9m1-339v9m0 11v9m1-9v9m0 11v9m1-9v9m1 1v9m0 1v9m0 1v9m1-19v9m0 41v9m1-39v9m0 1v9m0 21v9m1-29v9m1-9v9m0 21v9m1 1v9m1 1v9m0 1v9m1 11v9m1 1v9m0 1v9m1 11v9m0 1v9m3 11v9m1 21v9m0 1v9m1 31v9m1 21v9m0 1v9m1-9v9m0 1v9m1 11v9m1 21v9m2 41v9m0 11v9m0 1v9m1 81v9m0 1v9m1-19v9m1 1v9m1-9v9m8 91v9m2 41v9m0 41v9m2-9v9m1-19v9m1 31v9m0 1v9m2 61v9m0 11v9m4 31v9m1 11v9m0 1v9" transform="scale(1 .1) translate(.45 9)"/>
    <path stroke="#33f" d="m6 81v9m2 41v9m1-9v9m1-69v9m1 61v9m1 11v9m1-69v9m1 1v9m0 71v9m1 11v9m1-89v9m0 1v9m0 91v9m0 1v9m1-109v9m0 91v9m1-99v9m0 111v9m1-119v9m0 111v9m2 11v9m1-9v9m0 1v9m4 41v9m0 1v9m1-19v9m0 21v9m1 11v9m0 1v9m1 1v9m0 1v9m1 1v9m0 1v9m1-9v9m0 1v9m0 1v9m1 1v9m1 1v9m1 11v9m1-199v9m0 191v9m1 1v9m0 1v9m1-9v9m1 1v9m1 1v9m0 1v9m1-19v9m0 11v9m0 1v9m0 1v9m0 1v9m1-59v9m0 21v9m0 11v9m1 11v9m1-229v9m1-9v9m0 1v9m0 211v9m0 1v9m1-239v9m0 1v9m0 211v9m0 1v9m1 21v9m1-249v9m0 241v9m1-259v9m0 1v9m0 251v9m0 1v9m1-279v9m0 1v9m0 261v9m0 21v9m1-309v9m0 1v9m0 311v9m0 1v9m1-309v9m0 291v9m1-289v9m0 281v9m0 1v9m1-289v9m0 41v9m0 221v9m1-289v9m0 1v9m0 271v9m0 1v9m1-289v9m0 261v9m0 1v9m0 1v9m1-299v9m0 1v9m0 281v9m1-299v9m0 1v9m0 1v9m0 271v9m0 1v9m1-299v9m0 291v9m0 1v9m1-329v9m0 21v9m0 11v9m0 11v9m0 251v9m1-289v9m1-19v9m0 1v9m0 1v9m0 1v9m0 281v9m0 1v9m1-319v9m0 1v9m0 301v9m0 1v9m1-319v9m0 11v9m0 41v9m0 241v9m1-319v9m0 11v9m0 291v9m0 11v9m1-319v9m0 1v9m0 281v9m0 1v9m1-299v9m0 291v9m0 1v9m1-299v9m1-9v9m0 1v9m0 291v9m1-289v9m0 21v9m1-39v9m0 1v9m0 21v9m1-29v9m1-19v9m0 31v9m1 1v9m0 1v9m0 271v9m1-289v9m0 1v9m1 1v9m0 1v9m1 1v9m2 41v9m1-9v9m0 1v9m0 1v9m1-9v9m0 1v9m1-19v9m0 11v9m3 311v9m1-219v9m0 201v9m1-199v9m1 21v9m1 11v9m0 1v9m0 51v9m2-19v9m1 81v9m3-9v9m4 41v9m1 11v9m1 41v9m0 121v9m1-149v9m0 1v9m1 21v9m0 1v9m0 31v9m1-49v9m1 1v9m0 61v9m1-89v9m0 1v9m0 1v9m0 21v9m0 1v9m1 1v9m1 11v9m3 21v9m0 11v9m0 1v9m1 1v9m1 11v9m2 61v9" transform="scale(1 .1) translate(.45 9)"/>
    <path stroke="#2d46f9" d="m7 81v9m0 1v9m1 21v9m1-19v9m0 1v9m3-39v9m1 11v9m0 41v9m1-49v9m0 51v9m1-59v9m0 61v9m1 21v9m1 1v9m1 21v9m1 1v9m1 21v9m1-19v9m2 1v9m1 11v9m1-9v9m1 21v9m2 41v9m1-139v9m0 131v9m0 1v9m1 11v9m1 1v9m1 11v9m0 1v9m1 1v9m1 11v9m1 1v9m1 1v9m1-9v9m0 1v9m1-189v9m0 1v9m1-9v9m0 31v9m0 131v9m0 1v9m1-189v9m0 1v9m0 181v9m1-189v9m0 1v9m0 161v9m0 1v9m0 11v9m1-219v9m0 1v9m0 201v9m0 1v9m1-209v9m0 191v9m1-189v9m1-9v9m0 191v9m1-209v9m0 1v9m0 221v9m1-229v9m0 171v9m0 31v9m0 1v9m1-229v9m0 231v9m1-239v9m0 231v9m0 21v9m1-269v9m0 1v9m1 21v9m0 1v9m1-9v9m1 11v9m0 1v9m0 1v9m0 231v9m2-249v9m0 1v9m1-9v9m0 1v9m0 251v9m1-259v9m0 1v9m0 241v9m1-259v9m0 1v9m0 241v9m0 1v9m1-269v9m0 11v9m0 221v9m0 11v9m0 1v9m1-269v9m0 1v9m0 251v9m0 1v9m1-269v9m0 1v9m0 251v9m1-279v9m0 1v9m0 1v9m0 251v9m0 1v9m1-269v9m0 261v9m0 1v9m1-279v9m0 1v9m0 261v9m1-269v9m0 21v9m0 231v9m1-269v9m0 1v9m0 261v9m1-269v9m0 1v9m0 1v9m0 251v9m0 1v9m1-289v9m0 1v9m1 1v9m0 1v9m0 11v9m1-29v9m1 21v9m1 1v9m1 11v9m1 1v9m0 1v9m1 1v9m0 1v9m0 11v9m1-29v9m0 1v9m0 1v9m0 271v9m0 1v9m1-309v9m0 1v9m0 1v9m0 1v9m0 1v9m0 1v9m0 211v9m0 1v9m1-249v9m1 11v9m0 1v9m1-9v9m0 11v9m1-39v9m0 11v9m1 1v9m0 1v9m1 21v9m1 31v9m0 1v9m1 1v9m0 1v9m1 1v9m0 1v9m0 161v9m1-159v9m0 261v9m1-249v9m0 1v9m1 21v9m10 161v9m1 21v9m1 11v9m2 71v9m0 1v9m1-39v9m0 11v9m2 31v9m2 11v9m0 1v9m1-9v9m1 31v9m0 1v9m0 31v9m1-29v9m1 11v9" transform="scale(1 .1) translate(.45 9)"/>
    <path stroke="#2659f2" d="m4 61v9m2-39v9m2 61v9m0 1v9m1-19v9m1-29v9m1 1v9m1 1v9m3 71v9m1 31v9m2 31v9m1 1v9m1 11v9m0 1v9m1-19v9m3 21v9m3 21v9m1 21v9m0 1v9m0 1v9m1 1v9m1 1v9m0 11v9m1 1v9m1-139v9m0 141v9m1-19v9m0 11v9m0 1v9m1-159v9m0 161v9m1-169v9m0 161v9m1-179v9m0 1v9m1 1v9m1 181v9m1-179v9m0 1v9m1 161v9m1-149v9m1-9v9m0 1v9m1 1v9m0 101v9m0 61v9m1-189v9m0 191v9m1-189v9m0 161v9m0 1v9m1-179v9m0 201v9m1-209v9m1 1v9m0 211v9m1-219v9m0 1v9m0 191v9m0 21v9m1-229v9m1 31v9m0 1v9m0 231v9m1-259v9m0 1v9m0 231v9m0 1v9m1-9v9m1-249v9m0 1v9m0 241v9m1-239v9m0 51v9m0 161v9m1-229v9m0 1v9m0 211v9m0 1v9m1-229v9m0 1v9m0 201v9m0 1v9m1-229v9m0 11v9m1 221v9m1-229v9m0 1v9m0 211v9m0 1v9m1-229v9m0 1v9m0 211v9m0 1v9m1-239v9m0 231v9m1-239v9m0 1v9m0 1v9m0 41v9m0 161v9m0 1v9m1-239v9m0 1v9m0 231v9m1-239v9m0 11v9m0 1v9m0 191v9m0 1v9m1-239v9m0 1v9m0 231v9m1 1v9m0 1v9m1-249v9m0 1v9m0 1v9m0 231v9m1 1v9m0 1v9m1-249v9m1 1v9m0 1v9m0 241v9m1-259v9m0 1v9m0 251v9m0 1v9m1-269v9m0 1v9m0 1v9m0 221v9m1-239v9m0 1v9m1 1v9m0 11v9m0 201v9m1-219v9m0 1v9m1 21v9m0 1v9m0 231v9m1-269v9m0 1v9m0 1v9m0 231v9m1-239v9m0 1v9m0 191v9m0 21v9m1-249v9m0 11v9m1-19v9m0 1v9m0 1v9m1-9v9m0 1v9m1 11v9m1 181v9m2 131v9m1-229v9m0 1v9m0 121v9m0 91v9m0 1v9m1-219v9m0 1v9m0 81v9m0 111v9m0 1v9m7-119v9m0 1v9m2 11v9m2 41v9m0 1v9m1 21v9m1 1v9m1 61v9m1-49v9m0 1v9m0 1v9m2-9v9m0 41v9m1 11v9m0 11v9m1-29v9m0 41v9m2-29v9m0 1v9m1 31v9m5 51v9m0 1v9" transform="scale(1 .1) translate(.45 9)"/>
    <path stroke="#206cec" d="m8 51v9m1 11v9m1 41v9m1 1v9m4 51v9m2 21v9m0 1v9m4-39v9m1 91v9m1-19v9m0 1v9m2 1v9m0 1v9m0 11v9m1 1v9m1-99v9m2 21v9m0 101v9m1-109v9m0 121v9m1-129v9m0 121v9m1-139v9m0 141v9m1-139v9m0 131v9m1-149v9m0 161v9m1-149v9m0 131v9m0 1v9m1 11v9m1-159v9m0 31v9m0 101v9m1 11v9m1-149v9m1-9v9m0 1v9m1 11v9m1 151v9m0 1v9m0 1v9m1-169v9m0 121v9m0 21v9m1-149v9m0 151v9m1-169v9m0 141v9m1 41v9m1-189v9m0 181v9m1-189v9m0 1v9m0 181v9m1-189v9m0 161v9m0 21v9m1-199v9m0 251v9m0 1v9m1-229v9m0 1v9m2 1v9m0 201v9m1-219v9m0 1v9m0 211v9m1-219v9m0 1v9m0 51v9m0 131v9m2-179v9m0 1v9m0 171v9m1-199v9m0 201v9m0 1v9m1-209v9m0 1v9m0 1v9m0 1v9m1-19v9m0 1v9m1 1v9m0 61v9m0 121v9m1-209v9m0 1v9m1 21v9m0 1v9m0 171v9m1-199v9m0 201v9m0 1v9m2-199v9m0 211v9m1-219v9m0 1v9m0 1v9m0 191v9m1-199v9m0 191v9m0 11v9m1-219v9m0 1v9m0 201v9m1-219v9m0 1v9m0 221v9m1-229v9m0 1v9m0 211v9m1-229v9m0 1v9m0 11v9m1-9v9m0 1v9m1-9v9m0 1v9m1 11v9m1 1v9m0 1v9m1 21v9m0 1v9m1-19v9m0 1v9m1 1v9m0 1v9m0 181v9m0 1v9m1-209v9m0 1v9m0 221v9m1-239v9m0 1v9m0 211v9m1-229v9m0 1v9m0 241v9m1-249v9m0 1v9m0 231v9m0 1v9m1-229v9m0 141v9m1-139v9m0 1v9m0 171v9m0 21v9m0 1v9m1-219v9m0 1v9m0 151v9m0 71v9m1-219v9m0 1v9m0 31v9m0 121v9m0 11v9m0 1v9m1-89v9m1-19v9m0 111v9m0 1v9m3-119v9m1-9v9m1-9v9m1 11v9m1-19v9m0 11v9m1 11v9m1 1v9m0 1v9m1 21v9m0 1v9m1 11v9m1 1v9m1 11v9m0 1v9m0 91v9m2-59v9m1-9v9m1 91v9m2-49v9m0 1v9m0 11v9m3 31v9m1 21v9m3 21v9" transform="scale(1 .1) translate(.45 9)"/>
    <path stroke="#1a80e6" d="m8 61v9m2 61v9m3 1v9m2-9v9m1 51v9m3 51v9m2 11v9m1 1v9m1-19v9m1 11v9m1-69v9m4 111v9m0 11v9m0 1v9m1-109v9m1 21v9m0 101v9m2-99v9m1 11v9m0 121v9m1-129v9m0 111v9m1-119v9m0 131v9m1-139v9m0 121v9m1-139v9m0 1v9m3 41v9m0 111v9m1-119v9m1 1v9m0 1v9m0 91v9m1-119v9m0 141v9m0 1v9m1-149v9m0 81v9m1-99v9m0 1v9m0 151v9m0 1v9m1-169v9m0 1v9m0 151v9m1 11v9m1-169v9m0 1v9m0 121v9m0 21v9m1-169v9m0 1v9m0 221v9m1-179v9m0 171v9m0 1v9m1-229v9m0 1v9m1 21v9m0 41v9m1-59v9m0 181v9m1-179v9m0 1v9m0 51v9m1-79v9m0 1v9m0 11v9m1 1v9m0 1v9m1-19v9m0 1v9m0 151v9m1-69v9m0 71v9m0 1v9m2-159v9m0 1v9m0 1v9m0 1v9m0 131v9m0 1v9m1-179v9m0 1v9m1 21v9m1-19v9m0 1v9m0 161v9m1 11v9m0 1v9m1-189v9m0 1v9m1 11v9m0 151v9m0 1v9m0 1v9m1-179v9m0 191v9m1-189v9m0 1v9m0 51v9m0 111v9m1-189v9m0 1v9m0 1v9m0 181v9m1-199v9m0 1v9m0 1v9m0 11v9m0 141v9m0 1v9m1-199v9m0 21v9m0 11v9m0 151v9m0 1v9m1-199v9m0 1v9m0 171v9m1-189v9m0 1v9m1 1v9m0 1v9m0 51v9m1-59v9m0 1v9m0 1v9m0 181v9m1-179v9m1-9v9m0 181v9m2-169v9m0 1v9m0 161v9m0 11v9m1-199v9m0 1v9m0 1v9m0 141v9m0 1v9m0 1v9m0 1v9m1-199v9m0 1v9m1 1v9m0 1v9m0 1v9m0 141v9m1-149v9m0 191v9m1-179v9m0 171v9m0 1v9m1-179v9m0 191v9m1-169v9m0 1v9m0 91v9m0 21v9m0 1v9m0 11v9m1-159v9m0 151v9m0 11v9m0 1v9m1-109v9m0 61v9m0 11v9m0 1v9m0 21v9m1-9v9m1-129v9m0 111v9m0 11v9m1-9v9m1-139v9m0 1v9m0 121v9m0 1v9m1-159v9m1 11v9m0 1v9m0 11v9m0 121v9m1-159v9m1-29v9m0 31v9m0 11v9m0 1v9m0 121v9m1-149v9m0 1v9m1 141v9m1-109v9m1 1v9m0 1v9m0 91v9m1-89v9m1 31v9m2 11v9m1 51v9m3-99v9m2 141v9m2 1v9m0 1v9" transform="scale(1 .1) translate(.45 9)"/>
    <path stroke="#1393df" d="m0 1v9m7 41v9m5 81v9m1 1v9m5 81v9m0 1v9m1-79v9m1 91v9m2-9v9m2 21v9m2-59v9m0 71v9m1-9v9m2-29v9m2 1v9m0 81v9m2-79v9m0 91v9m2-39v9m1-59v9m1 131v9m1 21v9m1-119v9m0 111v9m1-119v9m1 11v9m1-19v9m0 21v9m0 91v9m0 1v9m1-29v9m0 31v9m2-119v9m0 11v9m0 91v9m2-99v9m0 1v9m1-19v9m0 1v9m1 11v9m1 1v9m0 201v9m1-179v9m1-9v9m0 1v9m1 11v9m1-9v9m0 181v9m1-169v9m0 151v9m1-169v9m0 21v9m0 141v9m1-149v9m0 1v9m0 31v9m0 11v9m0 61v9m1-139v9m0 141v9m1-149v9m0 21v9m0 101v9m1-149v9m0 1v9m0 151v9m0 1v9m1-139v9m0 111v9m1-139v9m0 21v9m0 131v9m0 1v9m2 11v9m1-19v9m1-139v9m0 161v9m0 1v9m1-169v9m0 1v9m0 21v9m1-39v9m1 21v9m0 1v9m0 131v9m0 1v9m1-139v9m0 11v9m0 131v9m1-159v9m0 21v9m0 111v9m1-159v9m1 21v9m0 151v9m1-159v9m0 1v9m0 151v9m1-159v9m0 1v9m0 1v9m0 1v9m0 121v9m1-139v9m0 151v9m1-149v9m0 141v9m1-159v9m1 1v9m0 1v9m0 1v9m0 1v9m1-9v9m0 161v9m1-159v9m1-9v9m0 1v9m0 1v9m0 171v9m1-179v9m0 1v9m0 161v9m0 1v9m1-189v9m0 1v9m0 1v9m1 1v9m0 1v9m1 1v9m0 1v9m0 181v9m1-59v9m2 61v9m1-79v9m0 91v9m0 21v9m1-39v9m0 1v9m1-109v9m1 21v9m0 81v9m0 1v9m1-129v9m1 21v9m0 121v9m2-89v9m0 101v9m1-119v9m0 121v9m1-119v9m2 41v9m3 61v9m1 1v9m1 31v9m3 51v9m2 11v9" transform="scale(1 .1) translate(.45 9)"/>
    <path stroke="#0da6d9" d="m6 41v9m11 111v9m0 31v9m2 31v9m0 1v9m4-29v9m1 1v9m1 1v9m4 41v9m1 11v9m1 51v9m1-49v9m1 11v9m1-19v9m0 121v9m1-109v9m0 91v9m2-89v9m0 1v9m0 81v9m1-89v9m1 11v9m0 91v9m1-119v9m1 121v9m2 31v9m1-119v9m1 11v9m0 91v9m1-109v9m0 1v9m1 141v9m1 11v9m1-129v9m0 41v9m0 61v9m1-119v9m0 11v9m1 21v9m0 141v9m0 1v9m1 11v9m1-169v9m0 81v9m0 51v9m1-159v9m0 1v9m1 21v9m0 41v9m0 71v9m1 11v9m2-139v9m1 21v9m0 1v9m0 81v9m0 11v9m1-119v9m0 1v9m1 21v9m1-19v9m0 131v9m1 11v9m0 1v9m1-159v9m1 161v9m1-139v9m1 21v9m0 21v9m0 1v9m0 41v9m1-99v9m0 1v9m0 11v9m1 1v9m0 1v9m1-19v9m0 41v9m1-19v9m0 101v9m1-119v9m1 11v9m0 1v9m0 121v9m1-129v9m0 1v9m0 31v9m0 101v9m1-129v9m1-9v9m0 151v9m2-149v9m0 141v9m1-119v9m0 1v9m0 101v9m1-129v9m0 1v9m0 161v9m1-169v9m0 1v9m1 1v9m0 1v9m0 131v9m0 21v9m1-169v9m0 1v9m0 121v9m0 1v9m1-139v9m0 1v9m1 1v9m0 1v9m1 1v9m0 1v9m0 21v9m0 81v9m0 11v9m1-129v9m0 101v9m1 21v9m2-39v9m0 61v9m0 21v9m1-109v9m0 71v9m1 21v9m0 21v9m1-129v9m0 11v9m1-29v9m0 1v9m0 11v9m1 91v9m0 1v9m1-119v9m0 131v9m2-99v9m0 1v9m1 11v9m1 1v9m1 21v9m0 1v9m0 51v9m1 1v9m1-39v9m2 21v9m2 61v9m6 51v9" transform="scale(1 .1) translate(.45 9)"/>
    <path stroke="#06b9d2" d="m9 81v9m5 71v9m3 41v9m1 1v9m3 41v9m4 21v9m2 21v9m1 21v9m3-9v9m1-39v9m0 81v9m0 21v9m1-19v9m1 11v9m1-79v9m0 71v9m1-79v9m0 91v9m2-99v9m0 111v9m2-79v9m1 1v9m0 71v9m2-69v9m1 1v9m1 91v9m2-59v9m0 1v9m1-19v9m0 1v9m1 11v9m0 71v9m0 1v9m1 81v9m0 1v9m1-139v9m1-19v9m0 1v9m0 151v9m1-149v9m0 1v9m0 101v9m1-109v9m2 1v9m0 21v9m0 91v9m1-99v9m0 101v9m2-79v9m0 1v9m1 11v9m0 71v9m1-9v9m1-99v9m3 11v9m0 1v9m1 21v9m0 121v9m1-109v9m0 41v9m0 1v9m1-59v9m0 41v9m1-19v9m1-9v9m0 121v9m0 1v9m2 21v9m1-109v9m0 31v9m1-39v9m0 1v9m2 11v9m1 1v9m0 121v9m1-129v9m0 1v9m0 1v9m3 41v9m0 1v9m1 1v9m0 1v9m1 1v9m0 1v9m0 91v9m1-89v9m1 1v9m0 1v9m1 1v9m0 131v9m2 31v9m1-29v9m2 71v9m1-119v9m1 91v9m2-59v9m0 1v9m0 61v9m1-89v9m0 101v9m1 1v9m1 21v9m1-79v9m1 51v9m1-19v9m0 21v9m1-19v9m1 51v9m1-39v9m1 11v9m1 31v9m1-9v9m0 1v9m1 1v9" transform="scale(1 .1) translate(.45 9)"/>
    <path stroke="#0cc" d="m16 211v9m5-9v9m1 1v9m4 21v9m3 51v9m1 81v9m1 1v9m3-39v9m1 51v9m1 61v9m1-89v9m0 1v9m2 1v9m0 61v9m3-59v9m1 21v9m1 91v9m2-69v9m0 91v9m1-9v9m0 1v9m1-79v9m0 91v9m1-99v9m0 1v9m1-19v9m1 51v9m0 1v9m0 101v9m2 31v9m2-109v9m2 21v9m0 1v9m0 71v9m1-109v9m0 1v9m1 41v9m0 51v9m1-89v9m0 1v9m5 41v9m0 1v9m1 11v9m0 31v9m1 11v9m0 61v9m1-79v9m0 91v9m1-69v9m0 61v9m2 31v9m1 31v9m1-129v9m0 21v9m0 71v9m2 31v9m2-89v9m0 101v9m2-69v9m0 1v9m1-19v9m1 31v9m0 1v9m0 1v9m1 81v9m2-79v9m0 21v9m1 1v9m0 1v9m0 1v9m4 81v9m0 31v9m2 31v9m3 51v9m2-69v9m1 21v9m0 1v9m0 51v9m1-49v9m1 11v9m0 51v9m1-69v9m0 21v9m1 11v9m2 21v9m0 1v9m1 31v9m1-9v9" transform="scale(1 .1) translate(.45 9)"/>
    <path stroke="#07d3aa" d="m11 121v9m1 21v9m7 61v9m0 1v9m5-9v9m3 31v9m2 61v9m1-39v9m0 61v9m1-49v9m0 51v9m1 31v9m1-69v9m0 31v9m2-29v9m1-19v9m2 121v9m1-69v9m0 61v9m1-89v9m0 101v9m1-89v9m0 51v9m4-9v9m1 71v9m0 21v9m5 101v9m2-79v9m0 61v9m0 21v9m1-129v9m0 21v9m0 91v9m3-39v9m1-19v9m1 51v9m3 101v9m1-9v9m1 1v9m1-99v9m0 1v9m0 11v9m1-9v9m2 71v9m4 1v9m0 1v9m0 11v9m1 1v9m1 101v9m1-79v9m0 61v9m0 1v9m1-89v9m0 1v9m1 1v9m0 1v9m0 1v9m1 1v9m0 71v9m0 21v9m1-89v9m0 61v9m1-89v9m1 51v9m1-19v9m0 1v9m0 101v9m1-109v9m0 1v9m3 31v9m4 151v9m1-49v9m1 101v9m2-89v9m0 101v9m1-79v9m0 41v9m5 21v9m0 21v9m3 51v9m0 1v9m1-19v9m0 1v9" transform="scale(1 .1) translate(.45 9)"/>
    <path stroke="#0eda88" d="m21 221v9m0 21v9m0 1v9m7 11v9m0 81v9m1-9v9m1 31v9m1-69v9m1 1v9m1 1v9m0 51v9m2-29v9m0 41v9m1-49v9m2 11v9m1 21v9m0 21v9m1-29v9m2 71v9m2-49v9m1 61v9m1-69v9m3 71v9m2 51v9m0 21v9m1 71v9m0 1v9m3-69v9m1-29v9m1 101v9m1-79v9m0 21v9m0 51v9m2-59v9m1 71v9m0 11v9m1 1v9m2-89v9m1 41v9m1 111v9m2-89v9m0 111v9m1-89v9m0 61v9m1-79v9m1 11v9m0 1v9m2 41v9m2 21v9m1 91v9m1-69v9m1 11v9m0 101v9m1-99v9m0 31v9m0 1v9m1-59v9m0 11v9m1 21v9m1 1v9m6 141v9m1 1v9m2 1v9m0 21v9m2 31v9m0 1v9m1 61v9m1-89v9m1 101v9m1-79v9m1-19v9m1 31v9m1 1v9m5 91v9" transform="scale(1 .1) translate(.45 9)"/>
    <path stroke="#14e066" d="m20 261v9m5-9v9m3 1v9m4 101v9m2-19v9m9 141v9m4 51v9m0 41v9m3 101v9m1-69v9m0 61v9m1-109v9m0 1v9m1 31v9m0 61v9m1 1v9m1-39v9m0 1v9m1-29v9m4 111v9m3-59v9m0 1v9m1 11v9m1 41v9m0 1v9m0 41v9m3 41v9m1-39v9m1 61v9m1-59v9m0 1v9m2 81v9m5-9v9m1 61v9m4 51v9m1-19v9m2 131v9m2-19v9m1 1v9m3 21v9m0 51v9m1-49v9m1 101v9m3-49v9m2 91v9" transform="scale(1 .1) translate(.45 9)"/>
    <path stroke="#1be744" d="m15 161v9m0 1v9m3 1v9m5 51v9m1 11v9m9 131v9m4 51v9m0 11v9m1-59v9m3 91v9m4-9v9m1 21v9m5 171v9m1 11v9m1-49v9m1-9v9m1 71v9m1 21v9m2-19v9m1 1v9m4-9v9m0 81v9m7 51v9m4 41v9m2 101v9m1-39v9m0 1v9m4 71v9m2 1v9m5 141v9m2-9v9m0 61v9m1-59v9m0 21v9m1-49v9m4 51v9m0 1v9m2 91v9m1-19v9m2 41v9" transform="scale(1 .1) translate(.45 9)"/>
    <path stroke="#2e2" d="m4 21v9m12 151v9m5 51v9m5 71v9m1-49v9m0 11v9m6 81v9m4 51v9m1 1v9m0 31v9m1-29v9m0 21v9m1-49v9m0 61v9m3-39v9m1 61v9m3-19v9m1 81v9m1-29v9m1-29v9m1 91v9m1 11v9m1-39v9m8 141v9m2-29v9m0 1v9m1-49v9m1 121v9m4 31v9m3 31v9m0 51v9m1-9v9m1 11v9m0 21v9m1-69v9m1 1v9m4 131v9m14 191v9m4 121v9m1-9v9m1 1v9m1-9v9" transform="scale(1 .1) translate(.45 9)"/>
    <path stroke="#4bee1b" d="m20 241v9m3 1v9m2 21v9m2 1v9m3 41v9m2 1v9m2 41v9m13 211v9m3 91v9m2-49v9m6 111v9m0 41v9m3-49v9m0 1v9m1-9v9m2 31v9m0 11v9m2 31v9m3 71v9m2 41v9m3 1v9m1 11v9m2 71v9m2-19v9m5 91v9m12 191v9m1 51v9m1-29v9m1 41v9" transform="scale(1 .1) translate(.45 9)"/>
    <path stroke="#74ee14" d="m11 101v9m15 171v9m18 321v9m1-59v9m3 31v9m3 121v9m4 41v9m6 61v9m8 151v9m2-9v9m1-29v9m1 51v9m11 171v9m6 131v9m3 31v9m1-9v9m4 111v9m1-69v9m0 41v9" transform="scale(1 .1) translate(.45 9)"/>
    <path stroke="#9cee0e" d="m27 321v9m18 221v9m16 281v9m2 51v9m0 1v9m8 101v9m5 141v9m5 41v9m7 161v9m9 101v9" transform="scale(1 .1) translate(.45 9)"/>
    <path stroke="#c5ee07" d="m1 11v9m35 461v9m2 21v9m17 291v9m1-59v9m5 61v9m2 41v9m19 381v9m7 91v9m5 81v9m2-9v9m0 1v9m2 31v9" transform="scale(1 .1) translate(.45 9)"/>
    <path stroke="#ee0" d="m18 231v9m4-29v9m6 121v9m22 351v9m12 171v9m1-29v9m1-39v9m1 71v9m13 221v9m5 81v9m9 151v9m2 31v9" transform="scale(1 .1) translate(.45 9)"/>
    <path stroke="#eed600" d="m14 171v9m4 21v9m47 711v9m12 211v9m7 91v9m11 211v9" transform="scale(1 .1) translate(.45 9)"/>
    <path stroke="#eebe00" d="m41 491v9m6 101v9m33 521v9m15 311v9m3 41v9m0 11v9" transform="scale(1 .1) translate(.45 9)"/>
    <path stroke="#eea700" d="m67 981v9m21 381v9m9 111v9" transform="scale(1 .1) translate(.45 9)"/>
    <path stroke="#ee8f00" d="m6 71v9m36 421v9m25 441v9m23 421v9m4 61v9m1 11v9m1 1v9m0 1v9m0 31v9" transform="scale(1 .1) translate(.45 9)"/>
    <path stroke="#e70" d="m41 521v9m53 911v9" transform="scale(1 .1) translate(.45 9)"/>
    <path stroke="#ee5f00" d="m28 301v9m29 481v9m25 391v9m8 191v9m1-9v9" transform="scale(1 .1) translate(.45 9)"/>
    <path stroke="#ee4700" d="m17 181v9m3 11v9m14 231v9m2-9v9m7 101v9m7 191v9m25 341v9m17 291v9m0 1v9m1 1v9" transform="scale(1 .1) translate(.45 9)"/>
    <path stroke="#ee3000" d="m13 121v9m70 1111v9m11 221v9m2 31v9" transform="scale(1 .1) translate(.45 9)"/>
    <path stroke="#ee1800" d="m4 51v9m22 271v9m14 181v9m15 261v9m9 51v9m2 11v9m17 381v9m10 161v9" transform="scale(1 .1) translate(.45 9)"/>
    <path stroke="#e00" d="m25 271v9m18 251v9m0 1v9m3 51v9m26 481v9" transform="scale(1 .1) translate(.45 9)"/>
    <path stroke="#e70000" d="m53 751v9m29 461v9m10 201v9m4 61v9" transform="scale(1 .1) translate(.45 9)"/>
    <path stroke="#e00000" d="m41 501v9m53 981v9" transform="scale(1 .1) translate(.45 9)"/>
    <path stroke="#d90000" d="m62 831v9" transform="scale(1 .1) translate(.45 9)"/>
    <path stroke="#d30000" d="m92 1421v9" transform="scale(1 .1) translate(.45 9)"/>
    <path stroke="#c00" d="m19 201v9" transform="scale(1 .1) translate(.45 9)"/>
    <path stroke="#c50000" d="m92 1451v9" transform="scale(1 .1) translate(.45 9)"/>
    <path stroke="#be0000" d="m90 1411v9" transform="scale(1 .1) translate(.45 9)"/>
    <path stroke="#b70000" d="m37 491v9m34 541v9m4 61v9" transform="scale(1 .1) translate(.45 9)"/>
    <path stroke="#b00000" d="m57 801v9m5 31v9" transform="scale(1 .1) translate(.45 9)"/>
    <path stroke="#a90000" d="m78 1111v9" transform="scale(1 .1) translate(.45 9)"/>
    <path stroke="#8e0000" d="m58 771v9m0 11v9m18 271v9" transform="scale(1 .1) translate(.45 9)"/>
    <path stroke="#870000" d="m54 691v9m10 171v9" transform="scale(1 .1) translate(.45 9)"/>
    <path stroke="#800000" d="m20 251v9m0 11v9m3-19v9m1-19v9m6 131v9m6 11v9m4 131v9m2 11v9m6 61v9m0 21v9m1-29v9m3 41v9m0 41v9m0 11v9m2 11v9m0 11v9m2-69v9m2 71v9m2-9v9m0 51v9m2-49v9m1 11v9m1 71v9m8 51v9m1 41v9m1-19v9m0 11v9m0 1v9m0 1v9m0 11v9m2-29v9m6 111v9" transform="scale(1 .1) translate(.45 9)"/>
    <path stroke="#300000" d="m1-9v9m0 1v9m1-9v9m0 1v9m1 1v9m0 1v9m1 1v9m1-9v9m0 1v9m1-9v9m0 1v9m1-9v9m0 1v9m1-9v9m0 1v9m0 1v9m1-9v9m1-9v9m0 1v9m0 1v9m1-9v9m1-9v9m0 1v9m0 1v9m1-9v9m1-9v9m0 1v9m0 1v9m1-9v9m1-9v9m0 1v9m0 1v9m0 11v9m1-29v9m0 11v9m1-29v9m0 11v9m0 11v9m1-29v9m0 11v9m1-9v9m0-29v9m0 20m0 1v9m0 1v9m1-9v9m1-9v9m0 1v9m0 1v9m0 1v9m0 1v9m1-9v9m1-9v9m0 1v9m0 1v9m1-9v9m1-29v9m0 11v9m0 1v9m0 1v9m1-9v9m1-29v9m0 11v9m0 1v9m0 1v9m0 11v9m1-29v9m0 11v9m1-29v9m0 11v9m0 1v9m0 1v9m1-9v9m0 11v9m1-29v9m0 11v9m0 1v9m0 1v9m0 11v9m1-29v9m1-29v9m0 11v9m0 1v9m0 1v9m0 11v9m0 11v9m1-49v9m0 11v9m1-29v9m0 11v9m0 1v9m0 1v9m0 11v9m1-29v9m1-29v9m0 11v9m0 1v9m0 1v9m1-9v9m1-9v9m0 1v9m0 1v9m0 11v9m1-29v9m1-29v9m0 11v9m0 1v9m0 1v9m0 1v9m0 1v9m2-49v9m0 11v9m0 1v9m0 1v9m0 1v9m0 1v9m0 11v9m1-29v9m1-29v9m0 11v9m0 1v9m0 1v9m0 11v9m0 11v9m1-49v9m0 11v9m1-49v9m0 11v9m0 11v9m0 1v9m0 1v9m0 11v9m1-29v9m1-29v9m0 11v9m0 1v9m0 1v9m0 1v9m0 1v9m0 1v9m0 1v9m0 11v9m0 11v9m1-49v9m0 11v9m1-49v9m0 11v9m0 11v9m0 1v9m0 1v9m1-9v9m1-29v9m0 11v9m0 1v9m0 1v9m0 1v9m0 1v9m1-9v9m1-49v9m0 31v9m0 1v9m0 1v9m0 1v9m0 1v9m1-9v9m1-9v9m1-9v9m1-9v9m0 1v9m0 11v9m0 1v9m0 11v9m2-69v9m0 41v9m0 1v9m0 11v9m0 11v9m1-29v9m1-9v9m0 1v9m0 1v9m0 1v9m0 1v9m1-9v9m1-49v9m0 11v9m0 11v9m0 1v9m0 1v9m0 1v9m0 1v9m1-9v9m1-49v9m0 11v9m0 11v9m0 1v9m0 1v9m0 11v9m1-29v9m1-29v9m0 11v9m0 1v9m0 1v9m0 1v9m0 1v9m0 11v9m1-29v9m1-9v9m0 1v9m0 1v9m0 1v9m0 1v9m1-9v9m2 11v9m1 1v9m0 1v9m0 1v9m0 1v9m0 11v9m1-29v9m0 11v9m1-29v9m0 11v9m0 1v9m0 1v9m0 11v9m1-29v9m1-29v9m0 11v9m0 1v9m0 1v9m0 1v9m0 1v9m0 11v9m1-29v9m0 11v9m1-9v9m0 1v9m0 1v9m1-9v9" transform="scale(1 .1) translate(.45 9)"/>
  </g>
  <rect height="713" width="477" stroke="#000" y="15.5" x="39.5" fill="none"/>
  <g>
    <rect y="16" x="530" height="11" width="25" fill="#300000"/>
    <rect y="27" x="530" height="11" width="25" fill="#800000"/>
    <rect y="38" x="530" height="11" width="25" fill="#870000"/>
    <rect y="49" x="530" height="11" width="25" fill="#8e0000"/>
    <rect y="60" x="530" height="12" width="25" fill="#950000"/>
    <rect y="72" x="530" height="11" width="25" fill="#9c0000"/>
    <rect y="83" x="530" height="11" width="25" fill="#a20000"/>
    <rect y="94" x="530" height="11" width="25" fill="#a90000"/>
    <rect y="105" x="530" height="11" width="25" fill="#b00000"/>
    <rect y="116" x="530" height="11" width="25" fill="#b70000"/>
    <rect y="127" x="530" height="11" width="25" fill="#be0000"/>
    <rect y="138" x="530" height="11" width="25" fill="#c50000"/>
    <rect y="149" x="530" height="11" width="25" fill="#c00"/>
    <rect y="160" x="530" height="12" width="25" fill="#d30000"/>
    <rect y="172" x="530" height="11" width="25" fill="#d90000"/>
    <rect y="183" x="530" height="11" width="25" fill="#e00000"/>
    <rect y="194" x="530" height="11" width="25" fill="#e70000"/>
    <rect y="205" x="530" height="11" width="25" fill="#e00"/>
    <rect y="216" x="530" height="11" width="25" fill="#ee1800"/>
    <rect y="227" x="530" height="11" width="25" fill="#ee3000"/>
    <rect y="238" x="530" height="11" width="25" fill="#ee4700"/>
    <rect y="249" x="530" height="11" width="25" fill="#ee5f00"/>
    <rect y="260" x="530" height="12" width="25" fill="#e70"/>
    <rect y="272" x="530" height="11" width="25" fill="#ee8f00"/>
    <rect y="283" x="530" height="11" width="25" fill="#eea700"/>
    <rect y="294" x="530" height="11" width="25" fill="#eebe00"/>
    <rect y="305" x="530" height="11" width="25" fill="#eed600"/>
    <rect y="316" x="530" height="11" width="25" fill="#ee0"/>
    <rect y="327" x="530" height="11" width="25" fill="#c5ee07"/>
    <rect y="338" x="530" height="11" width="25" fill="#9cee0e"/>
    <rect y="349" x="530" height="11" width="25" fill="#74ee14"/>
    <rect y="360" x="530" height="12" width="25" fill="#4bee1b"/>
    <rect y="372" x="530" height="11" width="25" fill="#2e2"/>
    <rect y="383" x="530" height="11" width="25" fill="#1be744"/>
    <rect y="394" x="530" height="11" width="25" fill="#14e066"/>
    <rect y="405" x="530" height="11" width="25" fill="#0eda88"/>
    <rect y="416" x="530" height="11" width="25" fill="#07d3aa"/>
    <rect y="427" x="530" height="11" width="25" fill="#0cc"/>
    <rect y="438" x="530" height="11" width="25" fill="#06b9d2"/>
    <rect y="449" x="530" height="11" width="25" fill="#0da6d9"/>
    <rect y="460" x="530" height="11" width="25" fill="#1393df"/>
    <rect y="471" x="530" height="12" width="25" fill="#1a80e6"/>
    <rect y="483" x="530" height="11" width="25" fill="#206cec"/>
    <rect y="494" x="530" height="11" width="25" fill="#2659f2"/>
    <rect y="505" x="530" height="11" width="25" fill="#2d46f9"/>
    <rect y="516" x="530" height="11" width="25" fill="#33f"/>
    <rect y="527" x="530" height="11" width="25" fill="#3e3eff"/>
    <rect y="538" x="530" height="11" width="25" fill="#4a4aff"/>
    <rect y="549" x="530" height="11" width="25" fill="#55f"/>
    <rect y="560" x="530" height="11" width="25" fill="#6060ff"/>
    <rect y="571" x="530" height="12" width="25" fill="#6c6cff"/>
    <rect y="583" x="530" height="11" width="25" fill="#77f"/>
    <rect y="594" x="530" height="11" width="25" fill="#8282ff"/>
    <rect y="605" x="530" height="11" width="25" fill="#8e8eff"/>
    <rect y="616" x="530" height="11" width="25" fill="#99f"/>
    <rect y="627" x="530" height="11" width="25" fill="#a4a4ff"/>
    <rect y="638" x="530" height="11" width="25" fill="#b0b0ff"/>
    <rect y="649" x="530" height="11" width="25" fill="#bbf"/>
    <rect y="660" x="530" height="11" width="25" fill="#c6c6ff"/>
    <rect y="671" x="530" height="12" width="25" fill="#d2d2ff"/>
    <rect y="683" x="530" height="11" width="25" fill="#ddf"/>
    <rect y="694" x="530" height="11" width="25" fill="#e8e8ff"/>
    <rect y="705" x="530" height="11" width="25" fill="#f4f4ff"/>
    <rect height="713" width="26" stroke="#000" y="15.5" x="529.5" fill="none"/>
    <line y2="716.5" x2="555.5" stroke="#000" y1="716.5" x1="529.5"/>
    <path stroke="#000" d="m555 705.5h5m-5-45h5m-5-44h5m-5-45h5m-5-44h5m-5-45h5m-5-44h5m-5-45h5m-5-33h5m-5-45h5m-5-44h5m-5-45h5m-5-44h5m-5-45h5m-5-44h5m-5-45h5m-29.5 668h25" fill="none"/>
  </g>
  <g font-size="19" font-family="Nimbus Roman No9 L, Times, serif">
    <text y="748" x="122" text-anchor="middle">20</text>
    <text y="748" x="202" text-anchor="middle">40</text>
    <text y="748" x="282" text-anchor="middle">60</text>
    <text y="748" x="362" text-anchor="middle">80</text>
    <text y="748" x="442" text-anchor="middle">100</text>
    <text y="748" x="40">Z</text>
    <text y="652" x="35" text-anchor="end">20</text>
    <text y="572" x="35" text-anchor="end">40</text>
    <text y="492" x="35" text-anchor="end">60</text>
    <text y="412" x="35" text-anchor="end">80</text>
    <text y="332" x="35" text-anchor="end">100</text>
    <text y="252" x="35" text-anchor="end">120</text>
    <text y="172" x="35" text-anchor="end">140</text>
    <text y="92" x="35" text-anchor="end">160</text>
    <text y="728" x="32" text-anchor="end">N</text>
    <text y="394.8" x="393.2">Z = N</text>
    <text y="710" x="565">10<tspan font-size="13" dy="-6">&#x2212;8</tspan><tspan dy="6"> s</tspan></text>
    <text y="665" x="565">10<tspan font-size="13" dy="-6">&#x2212;6</tspan><tspan dy="6"> s</tspan></text>
    <text y="621" x="565">10<tspan font-size="13" dy="-6">&#x2212;4</tspan><tspan dy="6"> s</tspan></text>
    <text y="576" x="565">10<tspan font-size="13" dy="-6">&#x2212;2</tspan><tspan dy="6"> s</tspan></text>
    <text y="532" x="565">1 s</text>
    <text y="487" x="565">100 s</text>
    <text y="443" x="565">10<tspan font-size="13" dy="-6">4</tspan><tspan dy="6"> s</tspan></text>
    <text y="398" x="565">10<tspan font-size="13" dy="-6">6</tspan><tspan dy="6"> s</tspan></text>
    <text y="365" x="565">1 yr</text>
    <text y="320" x="565">100 yr</text>
    <text y="276" x="565">10<tspan font-size="13" dy="-6">4</tspan><tspan dy="6"> yr</tspan></text>
    <text y="231" x="565">10<tspan font-size="13" dy="-6">6</tspan><tspan dy="6"> yr</tspan></text>
    <text y="187" x="565">10<tspan font-size="13" dy="-6">8</tspan><tspan dy="6"> yr</tspan></text>
    <text y="142" x="565">10<tspan font-size="13" dy="-6">10</tspan><tspan dy="6"> yr</tspan></text>
    <text y="98" x="565">10<tspan font-size="13" dy="-6">12</tspan><tspan dy="6"> yr</tspan></text>
    <text y="53" x="565">10<tspan font-size="13" dy="-6">14</tspan><tspan dy="6"> yr</tspan></text>
    <text y="728" x="560">unstable</text>
    <text y="28" x="560">stable</text>
  </g>
<metadata><rdf:RDF><cc:Work><dc:format>image/svg+xml</dc:format><dc:type rdf:resource="http://purl.org/dc/dcmitype/StillImage"/><cc:license rdf:resource="http://creativecommons.org/licenses/publicdomain/"/><dc:publisher><cc:Agent rdf:about="http://openclipart.org/"><dc:title>Openclipart</dc:title></cc:Agent></dc:publisher></cc:Work><cc:License rdf:about="http://creativecommons.org/licenses/publicdomain/"><cc:permits rdf:resource="http://creativecommons.org/ns#Reproduction"/><cc:permits rdf:resource="http://creativecommons.org/ns#Distribution"/><cc:permits rdf:resource="http://creativecommons.org/ns#DerivativeWorks"/></cc:License></rdf:RDF></metadata></svg>
