<?xml version="1.0" encoding="UTF-8" standalone="no"?>
<!DOCTYPE svg PUBLIC "-//W3C//DTD SVG 1.1//EN" "http://www.w3.org/Graphics/SVG/1.1/DTD/svg11.dtd">
<svg version="1.1" xml:space="preserve" xmlns="http://www.w3.org/2000/svg" xmlns:xlink="http://www.w3.org/1999/xlink" width="640" height="768"><path d="M81.5 728.5v-712M121.5 728.5v-712M161.5 728.5v-712M201.5 728.5v-712M241.5 728.5v-712M281.5 728.5v-712M321.5 728.5v-712M361.5 728.5v-712M401.5 728.5v-712M441.5 728.5v-712M481.5 728.5v-712M39.5 686.5h476M39.5 646.5h476M39.5 606.5h476M39.5 566.5h476M39.5 526.5h476M39.5 486.5h476M39.5 446.5h476M39.5 406.5h476M39.5 366.5h476M39.5 326.5h476M39.5 286.5h476M39.5 246.5h476M39.5 206.5h476M39.5 166.5h476M39.5 126.5h476M39.5 86.5h476M39.5 46.5h476" stroke="lightgray" stroke-width="1" fill="none" /><line x1="19.5" y1="748.5" x2="516.5" y2="251.5" stroke="black" stroke-width="0.707" /><g stroke="none" transform="translate(40.05,727.95) scale(4,-4)"><path stroke="#f4f4ff" stroke-width="0.9" fill="none" d="M1 21v9m0 1v9m0 1v9m0 1v9m1-39v9m0 11v9m0 21v9m1-79v9m0 1v9m1-9v9m0 11v9m0 41v9m1-79v9m0 11v9m0 61v9m1-99v9m1 11v9m1-9v9m1 11v9m0 1v9m1-19v9m1 1v9" transform="scale(1,0.1) translate(0.45,9)" /><path stroke="#e8e8ff" stroke-width="0.9" fill="none" d="M3 81v9m2 31v9m1 11v9m9-59v9m2 11v9m0 1v9m1-19v9m1 11v9m0 1v9m16 181v9m2 11v9" transform="scale(1,0.1) translate(0.45,9)" /><path stroke="#ddddff" stroke-width="0.9" fill="none" d="M7 161v9m1-9v9m0 1v9m1 1v9m1 41v9m1-169v9m0 171v9m2-189v9m1 201v9m6-159v9m3 41v9m6 51v9m31 721v9m12-179v9m15 461v9m2-9v9m2-9v9m1-9v9" transform="scale(1,0.1) translate(0.45,9)" /><path stroke="#d2d2ff" stroke-width="0.9" fill="none" d="M4 101v9m0 1v9m3 51v9m1 1v9m0 1v9m1 1v9m0 1v9m1 1v9m1 11v9m1-9v9m0 1v9m0 1v9m0 1v9m1-19v9m0 1v9m0 1v9m0 1v9m2-9v9m0 1v9m1 1v9m0 1v9m1-29v9m0 1v9m0 11v9m1-29v9m0 1v9m2 1v9m1-169v9m1 201v9m1-9v9m2-209v9m1 251v9m0 1v9m1-229v9m0 221v9m0 1v9m1-259v9m0 251v9m0 1v9m1-269v9m0 261v9m1 1v9m0 1v9m1 1v9m0 1v9m1-259v9m0 231v9m0 11v9m1-19v9m0 1v9m0 1v9m0 1v9m0 1v9m1-299v9m0 251v9m0 11v9m0 1v9m0 1v9m1-9v9m0 1v9m0 1v9m1 11v9m2 1v9m1-289v9m0 291v9m1-299v9m0 311v9m1 1v9m1-19v9m2 41v9m0 1v9m1-29v9m0 21v9m1-29v9m0 11v9m5 91v9m0 1v9m1-19v9m0 11v9m0 1v9m1-9v9m0 1v9m3 31v9m1-19v9m0 1v9m0 1v9m1-19v9m0 1v9m0 1v9m1-19v9m0 1v9m1-319v9m0 301v9m4-259v9m1 1v9m2 21v9m1-9v9m2 31v9m4 361v9m0 1v9m6 111v9m1-9v9m0 1v9m3 31v9m0 1v9m1-89v9m1-9v9m2-9v9m2-9v9" transform="scale(1,0.1) translate(0.45,9)" /><path stroke="#c6c6ff" stroke-width="0.9" fill="none" d="M14 291v9m14-109v9m2 51v9m22 261v9m33 751v9m2-9v9m4-9v9m1-9v9" transform="scale(1,0.1) translate(0.45,9)" /><path stroke="#bbbbff" stroke-width="0.9" fill="none" d="M14 231v9m21 81v9m2 11v9m1 1v9m6 61v9m1 1v9m1 1v9m1 1v9m4 51v9m18 221v9m8 121v9m9 401v9m2-9v9m1-9v9m1-9v9m2 1v9m1 11v9m9 131v9m8 101v9" transform="scale(1,0.1) translate(0.45,9)" /><path stroke="#b0b0ff" stroke-width="0.9" fill="none" d="M13 251v9m53 471v9m3 11v9m15 521v9m6 1v9m1-9v9" transform="scale(1,0.1) translate(0.45,9)" /><path stroke="#a4a4ff" stroke-width="0.9" fill="none" d="M55 571v9m20 251v9m12 451v9m1-9v9m1-9v9m3 1v9m12 181v9" transform="scale(1,0.1) translate(0.45,9)" /><path stroke="#9999ff" stroke-width="0.9" fill="none" d="M52 531v9m23 641v9m2-329v9m3 31v9m3 101v9m3 271v9m6-39v9m10 201v9m2 1v9m6 81v9" transform="scale(1,0.1) translate(0.45,9)" /><path stroke="#8e8eff" stroke-width="0.9" fill="none" d="M53 551v9m24 341v9m1-39v9m1 11v9m0 1v9m1 1v9m2 31v9m2 331v9m1-9v9m0 1v9m5-49v9m1-9v9m16 251v9m0 21v9m3 21v9m0 31v9m3 11v9" transform="scale(1,0.1) translate(0.45,9)" /><path stroke="#8282ff" stroke-width="0.9" fill="none" d="M55 561v9m8 91v9m2 21v9m10 141v9m3 31v9m2 31v9m4 101v9m2 31v9m0 221v9m3-49v9m3-19v9m0 51v9m8 91v9m0 151v9m8-29v9m4 81v9m0 41v9" transform="scale(1,0.1) translate(0.45,9)" /><path stroke="#7777ff" stroke-width="0.9" fill="none" d="M5 131v9m4 51v9m2 31v9m7 101v9m1 1v9m2 21v9m1 11v9m4-229v9m26 351v9m21 261v9m1 11v9m2 11v9m2 31v9m1 11v9m1 11v9m2 21v9m2 81v9m0 241v9m1-259v9m1 1v9m2 51v9m0 131v9m2 31v9m0 1v9m12 231v9m4-49v9m2 41v9m0 1v9m1-19v9m9 181v9" transform="scale(1,0.1) translate(0.45,9)" /><path stroke="#6c6cff" stroke-width="0.9" fill="none" d="M3 71v9m1 11v9m1-9v9m0 11v9m1 31v9m2-119v9m1 111v9m0 1v9m1 11v9m0 1v9m0 1v9m1-9v9m0 1v9m1 1v9m1 1v9m7 111v9m8-169v9m14 191v9m6 51v9m1 1v9m1 1v9m17 231v9m0 1v9m7 101v9m2 11v9m2 31v9m1 11v9m2 11v9m1 21v9m2 61v9m2 31v9m0 1v9m1 161v9m3-89v9m0 1v9m1 1v9m0 1v9m0 31v9m0 41v9m0 1v9m9 111v9m0 151v9m2-9v9m2-89v9m2 11v9m0 11v9m3 41v9m0 41v9m1-69v9m1 1v9m0 1v9m0 1v9m0 31v9m5 71v9" transform="scale(1,0.1) translate(0.45,9)" /><path stroke="#6060ff" stroke-width="0.9" fill="none" d="M4 71v9m1-19v9m0 1v9m0 1v9m1 41v9m1-99v9m0 91v9m0 1v9m3 11v9m0 1v9m1-29v9m0 21v9m0 1v9m1 1v9m1 11v9m1-169v9m0 181v9m0 1v9m1 1v9m1-199v9m0 1v9m1 211v9m1-209v9m0 201v9m1-9v9m0 1v9m1-209v9m0 191v9m0 1v9m1-9v9m0 1v9m0 1v9m1-219v9m0 191v9m0 1v9m0 11v9m1-9v9m0 1v9m0 1v9m1-249v9m0 1v9m0 211v9m0 1v9m1 11v9m1-249v9m0 1v9m2 1v9m2 21v9m2 21v9m1 21v9m5 31v9m1 321v9m0 1v9m2 21v9m13-179v9m3 41v9m6 71v9m9 151v9m1-9v9m2 11v9m1 11v9m1 1v9m1 21v9m1 11v9m1 1v9m0 1v9m1-9v9m2 41v9m0 11v9m2 41v9m1 181v9m1-159v9m0 181v9m0 1v9m1-189v9m0 1v9m0 151v9m0 1v9m1-149v9m0 121v9m1-99v9m0 31v9m1-39v9m0 1v9m1 1v9m6 141v9m6 131v9m0 11v9m3-29v9m2 31v9m0 1v9m2 41v9m1 11v9m4 71v9m0 11v9m1-29v9" transform="scale(1,0.1) translate(0.45,9)" /><path stroke="#5555ff" stroke-width="0.9" fill="none" d="M6 111v9m0 1v9m1 1v9m1 1v9m0 1v9m1-9v9m1 1v9m1 1v9m0 1v9m1-119v9m0 111v9m0 1v9m0 11v9m1-149v9m0 91v9m0 1v9m0 1v9m0 1v9m0 1v9m1-149v9m0 131v9m0 11v9m0 1v9m1-159v9m0 151v9m0 1v9m1 1v9m0 1v9m2-169v9m2 181v9m1 11v9m1-179v9m0 1v9m0 151v9m0 1v9m1-9v9m0 11v9m1-189v9m0 1v9m0 181v9m0 21v9m1-229v9m0 171v9m0 1v9m0 1v9m0 1v9m1-209v9m0 1v9m0 201v9m1-219v9m0 201v9m0 1v9m0 1v9m1-229v9m0 1v9m1 1v9m0 1v9m1-9v9m0 1v9m1 1v9m0 231v9m1-249v9m1 31v9m1-29v9m0 1v9m1 261v9m1-269v9m0 1v9m0 251v9m0 1v9m0 1v9m0 1v9m1-269v9m0 241v9m0 1v9m0 1v9m1-279v9m0 261v9m1-269v9m1 1v9m0 281v9m1-279v9m0 281v9m1 11v9m0 1v9m1-309v9m0 281v9m0 1v9m0 1v9m3 31v9m1 11v9m0 1v9m0 11v9m1-9v9m0 1v9m1 11v9m4-319v9m1 1v9m1 371v9m0 1v9m0 1v9m1 1v9m1 1v9m1 1v9m13-209v9m0 1v9m2 41v9m1 1v9m2 21v9m1 1v9m1 21v9m0 1v9m3 21v9m1 11v9m0 1v9m1 31v9m1 21v9m0 1v9m1 231v9m1-219v9m0 1v9m0 191v9m1-199v9m0 1v9m1 11v9m1 1v9m0 11v9m0 121v9m1-119v9m2 111v9m1-9v9m13 241v9m2 1v9m2 11v9m5 101v9m0 1v9m1 31v9m1-29v9" transform="scale(1,0.1) translate(0.45,9)" /><path stroke="#4a4aff" stroke-width="0.9" fill="none" d="M2 51v9m1-9v9m3-39v9m0 71v9m1 1v9m0 1v9m3-69v9m0 81v9m1-9v9m1-79v9m0 91v9m2-99v9m0 1v9m1 1v9m0 1v9m0 101v9m0 1v9m0 1v9m1-149v9m0 1v9m0 131v9m0 1v9m1-149v9m0 1v9m0 131v9m0 1v9m1-159v9m0 151v9m1-159v9m0 161v9m1-179v9m0 1v9m1 11v9m0 141v9m1-149v9m0 131v9m1-139v9m0 111v9m0 11v9m0 11v9m1-159v9m0 141v9m0 1v9m0 1v9m1-179v9m0 1v9m0 141v9m1-149v9m0 1v9m0 161v9m0 1v9m1-189v9m0 1v9m0 101v9m0 11v9m0 21v9m1-169v9m0 1v9m0 201v9m1-209v9m0 211v9m1-219v9m0 211v9m1-219v9m0 1v9m0 201v9m1-219v9m0 231v9m1-239v9m1 1v9m0 231v9m1 1v9m1-239v9m0 221v9m0 1v9m1-9v9m0 1v9m0 1v9m1-9v9m0 1v9m0 1v9m1 1v9m0 1v9m1 11v9m1-9v9m0 1v9m0 1v9m1-19v9m0 1v9m0 11v9m1-39v9m0 1v9m0 1v9m0 1v9m1 11v9m0 1v9m1-19v9m0 11v9m0 1v9m1-9v9m1-9v9m0 1v9m0 1v9m0 1v9m0 21v9m1-29v9m0 1v9m0 1v9m1 1v9m0 1v9m0 1v9m1 1v9m0 1v9m3 11v9m1 11v9m0 1v9m0 1v9m1-19v9m0 1v9m1 1v9m0 11v9m1 1v9m1-369v9m0 1v9m0 351v9m1-9v9m0 1v9m0 1v9m1-9v9m0 1v9m1 1v9m1 1v9m1-349v9m0 341v9m1-9v9m1-339v9m1 1v9m2 21v9m1 11v9m1 1v9m1 51v9m1 1v9m1 311v9m2-309v9m1 21v9m3 41v9m0 1v9m1 1v9m0 1v9m3 61v9m1 261v9m1-239v9m0 171v9m2-129v9m1 11v9m0 1v9m1 11v9m0 11v9m0 31v9m1-39v9m0 1v9m1 1v9m9 171v9m2 141v9m4-39v9m1-9v9m1 111v9m2 11v9m1-49v9m0 21v9m1-19v9m0 41v9m1-29v9m1 11v9" transform="scale(1,0.1) translate(0.45,9)" /><path stroke="#3e3eff" stroke-width="0.9" fill="none" d="M2 31v9m1 1v9m2-29v9m1 61v9m1 1v9m2 31v9m1-9v9m1-69v9m1 81v9m1-89v9m0 71v9m1 21v9m0 1v9m1 1v9m2 31v9m0 1v9m1-129v9m0 131v9m1-139v9m0 131v9m0 1v9m1-149v9m0 1v9m1 1v9m0 121v9m1-129v9m1-19v9m0 11v9m0 1v9m0 101v9m1-119v9m0 111v9m0 1v9m1-129v9m0 111v9m0 1v9m1 21v9m0 1v9m1-19v9m0 21v9m1 11v9m0 1v9m0 1v9m1-9v9m0 1v9m0 1v9m1-9v9m0 1v9m1 1v9m1 1v9m0 1v9m1-9v9m0 1v9m1 1v9m1 1v9m0 1v9m2 1v9m1 1v9m0 1v9m1 1v9m0 1v9m0 1v9m1 11v9m1-259v9m0 241v9m0 1v9m1 1v9m1-259v9m0 231v9m0 1v9m1 11v9m0 1v9m0 1v9m0 1v9m1-29v9m0 1v9m0 1v9m1-269v9m0 261v9m0 1v9m1-279v9m0 261v9m0 1v9m1 11v9m0 1v9m0 1v9m1-9v9m0 11v9m0 1v9m1 21v9m1-329v9m0 11v9m0 291v9m0 1v9m2-299v9m0 291v9m0 1v9m1-319v9m0 311v9m0 1v9m1-319v9m0 301v9m0 1v9m1-339v9m0 1v9m0 311v9m0 1v9m0 1v9m1-9v9m2-309v9m0 1v9m1-9v9m0 1v9m0 331v9m1-349v9m0 341v9m0 1v9m1-359v9m0 1v9m0 341v9m1-319v9m0 311v9m1-339v9m1 11v9m0 41v9m0 281v9m1-339v9m0 11v9m1-9v9m0 11v9m1-9v9m1 1v9m0 1v9m0 1v9m1-19v9m0 41v9m1-39v9m0 1v9m0 21v9m1-29v9m1-9v9m0 21v9m1 1v9m1 1v9m0 1v9m1 11v9m1 1v9m0 1v9m1 11v9m0 1v9m3 11v9m1 21v9m0 1v9m1 31v9m1 21v9m0 1v9m1-9v9m0 1v9m1 11v9m1 21v9m2 41v9m0 11v9m0 1v9m1 81v9m0 1v9m1-19v9m1 1v9m1-9v9m8 91v9m2 41v9m0 41v9m2-9v9m1-19v9m1 31v9m0 1v9m2 61v9m0 11v9m4 31v9m1 11v9m0 1v9" transform="scale(1,0.1) translate(0.45,9)" /><path stroke="#3333ff" stroke-width="0.9" fill="none" d="M6 81v9m2 41v9m1-9v9m1-69v9m1 61v9m1 11v9m1-69v9m1 1v9m0 71v9m1 11v9m1-89v9m0 1v9m0 91v9m0 1v9m1-109v9m0 91v9m1-99v9m0 111v9m1-119v9m0 111v9m2 11v9m1-9v9m0 1v9m4 41v9m0 1v9m1-19v9m0 21v9m1 11v9m0 1v9m1 1v9m0 1v9m1 1v9m0 1v9m1-9v9m0 1v9m0 1v9m1 1v9m1 1v9m1 11v9m1-199v9m0 191v9m1 1v9m0 1v9m1-9v9m1 1v9m1 1v9m0 1v9m1-19v9m0 11v9m0 1v9m0 1v9m0 1v9m1-59v9m0 21v9m0 11v9m1 11v9m1-229v9m1-9v9m0 1v9m0 211v9m0 1v9m1-239v9m0 1v9m0 211v9m0 1v9m1 21v9m1-249v9m0 241v9m1-259v9m0 1v9m0 251v9m0 1v9m1-279v9m0 1v9m0 261v9m0 21v9m1-309v9m0 1v9m0 311v9m0 1v9m1-309v9m0 291v9m1-289v9m0 281v9m0 1v9m1-289v9m0 41v9m0 221v9m1-289v9m0 1v9m0 271v9m0 1v9m1-289v9m0 261v9m0 1v9m0 1v9m1-299v9m0 1v9m0 281v9m1-299v9m0 1v9m0 1v9m0 271v9m0 1v9m1-299v9m0 291v9m0 1v9m1-329v9m0 21v9m0 11v9m0 11v9m0 251v9m1-289v9m1-19v9m0 1v9m0 1v9m0 1v9m0 281v9m0 1v9m1-319v9m0 1v9m0 301v9m0 1v9m1-319v9m0 11v9m0 41v9m0 241v9m1-319v9m0 11v9m0 291v9m0 11v9m1-319v9m0 1v9m0 281v9m0 1v9m1-299v9m0 291v9m0 1v9m1-299v9m1-9v9m0 1v9m0 291v9m1-289v9m0 21v9m1-39v9m0 1v9m0 21v9m1-29v9m1-19v9m0 31v9m1 1v9m0 1v9m0 271v9m1-289v9m0 1v9m1 1v9m0 1v9m1 1v9m2 41v9m1-9v9m0 1v9m0 1v9m1-9v9m0 1v9m1-19v9m0 11v9m3 311v9m1-219v9m0 201v9m1-199v9m1 21v9m1 11v9m0 1v9m0 51v9m2-19v9m1 81v9m3-9v9m4 41v9m1 11v9m1 41v9m0 121v9m1-149v9m0 1v9m1 21v9m0 1v9m0 31v9m1-49v9m1 1v9m0 61v9m1-89v9m0 1v9m0 1v9m0 21v9m0 1v9m1 1v9m1 11v9m3 21v9m0 11v9m0 1v9m1 1v9m1 11v9m2 61v9" transform="scale(1,0.1) translate(0.45,9)" /><path stroke="#2d46f9" stroke-width="0.9" fill="none" d="M7 81v9m0 1v9m1 21v9m1-19v9m0 1v9m3-39v9m1 11v9m0 41v9m1-49v9m0 51v9m1-59v9m0 61v9m1 21v9m1 1v9m1 21v9m1 1v9m1 21v9m1-19v9m2 1v9m1 11v9m1-9v9m1 21v9m2 41v9m1-139v9m0 131v9m0 1v9m1 11v9m1 1v9m1 11v9m0 1v9m1 1v9m1 11v9m1 1v9m1 1v9m1-9v9m0 1v9m1-189v9m0 1v9m1-9v9m0 31v9m0 131v9m0 1v9m1-189v9m0 1v9m0 181v9m1-189v9m0 1v9m0 161v9m0 1v9m0 11v9m1-219v9m0 1v9m0 201v9m0 1v9m1-209v9m0 191v9m1-189v9m1-9v9m0 191v9m1-209v9m0 1v9m0 221v9m1-229v9m0 171v9m0 31v9m0 1v9m1-229v9m0 231v9m1-239v9m0 231v9m0 21v9m1-269v9m0 1v9m1 21v9m0 1v9m1-9v9m1 11v9m0 1v9m0 1v9m0 231v9m2-249v9m0 1v9m1-9v9m0 1v9m0 251v9m1-259v9m0 1v9m0 241v9m1-259v9m0 1v9m0 241v9m0 1v9m1-269v9m0 11v9m0 221v9m0 11v9m0 1v9m1-269v9m0 1v9m0 251v9m0 1v9m1-269v9m0 1v9m0 251v9m1-279v9m0 1v9m0 1v9m0 251v9m0 1v9m1-269v9m0 261v9m0 1v9m1-279v9m0 1v9m0 261v9m1-269v9m0 21v9m0 231v9m1-269v9m0 1v9m0 261v9m1-269v9m0 1v9m0 1v9m0 251v9m0 1v9m1-289v9m0 1v9m1 1v9m0 1v9m0 11v9m1-29v9m1 21v9m1 1v9m1 11v9m1 1v9m0 1v9m1 1v9m0 1v9m0 11v9m1-29v9m0 1v9m0 1v9m0 271v9m0 1v9m1-309v9m0 1v9m0 1v9m0 1v9m0 1v9m0 1v9m0 211v9m0 1v9m1-249v9m1 11v9m0 1v9m1-9v9m0 11v9m1-39v9m0 11v9m1 1v9m0 1v9m1 21v9m1 31v9m0 1v9m1 1v9m0 1v9m1 1v9m0 1v9m0 161v9m1-159v9m0 261v9m1-249v9m0 1v9m1 21v9m10 161v9m1 21v9m1 11v9m2 71v9m0 1v9m1-39v9m0 11v9m2 31v9m2 11v9m0 1v9m1-9v9m1 31v9m0 1v9m0 31v9m1-29v9m1 11v9" transform="scale(1,0.1) translate(0.45,9)" /><path stroke="#2659f2" stroke-width="0.9" fill="none" d="M4 61v9m2-39v9m2 61v9m0 1v9m1-19v9m1-29v9m1 1v9m1 1v9m3 71v9m1 31v9m2 31v9m1 1v9m1 11v9m0 1v9m1-19v9m3 21v9m3 21v9m1 21v9m0 1v9m0 1v9m1 1v9m1 1v9m0 11v9m1 1v9m1-139v9m0 141v9m1-19v9m0 11v9m0 1v9m1-159v9m0 161v9m1-169v9m0 161v9m1-179v9m0 1v9m1 1v9m1 181v9m1-179v9m0 1v9m1 161v9m1-149v9m1-9v9m0 1v9m1 1v9m0 101v9m0 61v9m1-189v9m0 191v9m1-189v9m0 161v9m0 1v9m1-179v9m0 201v9m1-209v9m1 1v9m0 211v9m1-219v9m0 1v9m0 191v9m0 21v9m1-229v9m1 31v9m0 1v9m0 231v9m1-259v9m0 1v9m0 231v9m0 1v9m1-9v9m1-249v9m0 1v9m0 241v9m1-239v9m0 51v9m0 161v9m1-229v9m0 1v9m0 211v9m0 1v9m1-229v9m0 1v9m0 201v9m0 1v9m1-229v9m0 11v9m1 221v9m1-229v9m0 1v9m0 211v9m0 1v9m1-229v9m0 1v9m0 211v9m0 1v9m1-239v9m0 231v9m1-239v9m0 1v9m0 1v9m0 41v9m0 161v9m0 1v9m1-239v9m0 1v9m0 231v9m1-239v9m0 11v9m0 1v9m0 191v9m0 1v9m1-239v9m0 1v9m0 231v9m1 1v9m0 1v9m1-249v9m0 1v9m0 1v9m0 231v9m1 1v9m0 1v9m1-249v9m1 1v9m0 1v9m0 241v9m1-259v9m0 1v9m0 251v9m0 1v9m1-269v9m0 1v9m0 1v9m0 221v9m1-239v9m0 1v9m1 1v9m0 11v9m0 201v9m1-219v9m0 1v9m1 21v9m0 1v9m0 231v9m1-269v9m0 1v9m0 1v9m0 231v9m1-239v9m0 1v9m0 191v9m0 21v9m1-249v9m0 11v9m1-19v9m0 1v9m0 1v9m1-9v9m0 1v9m1 11v9m1 181v9m2 131v9m1-229v9m0 1v9m0 121v9m0 91v9m0 1v9m1-219v9m0 1v9m0 81v9m0 111v9m0 1v9m7-119v9m0 1v9m2 11v9m2 41v9m0 1v9m1 21v9m1 1v9m1 61v9m1-49v9m0 1v9m0 1v9m2-9v9m0 41v9m1 11v9m0 11v9m1-29v9m0 41v9m2-29v9m0 1v9m1 31v9m5 51v9m0 1v9" transform="scale(1,0.1) translate(0.45,9)" /><path stroke="#206cec" stroke-width="0.9" fill="none" d="M8 51v9m1 11v9m1 41v9m1 1v9m4 51v9m2 21v9m0 1v9m4-39v9m1 91v9m1-19v9m0 1v9m2 1v9m0 1v9m0 11v9m1 1v9m1-99v9m2 21v9m0 101v9m1-109v9m0 121v9m1-129v9m0 121v9m1-139v9m0 141v9m1-139v9m0 131v9m1-149v9m0 161v9m1-149v9m0 131v9m0 1v9m1 11v9m1-159v9m0 31v9m0 101v9m1 11v9m1-149v9m1-9v9m0 1v9m1 11v9m1 151v9m0 1v9m0 1v9m1-169v9m0 121v9m0 21v9m1-149v9m0 151v9m1-169v9m0 141v9m1 41v9m1-189v9m0 181v9m1-189v9m0 1v9m0 181v9m1-189v9m0 161v9m0 21v9m1-199v9m0 251v9m0 1v9m1-229v9m0 1v9m2 1v9m0 201v9m1-219v9m0 1v9m0 211v9m1-219v9m0 1v9m0 51v9m0 131v9m2-179v9m0 1v9m0 171v9m1-199v9m0 201v9m0 1v9m1-209v9m0 1v9m0 1v9m0 1v9m1-19v9m0 1v9m1 1v9m0 61v9m0 121v9m1-209v9m0 1v9m1 21v9m0 1v9m0 171v9m1-199v9m0 201v9m0 1v9m2-199v9m0 211v9m1-219v9m0 1v9m0 1v9m0 191v9m1-199v9m0 191v9m0 11v9m1-219v9m0 1v9m0 201v9m1-219v9m0 1v9m0 221v9m1-229v9m0 1v9m0 211v9m1-229v9m0 1v9m0 11v9m1-9v9m0 1v9m1-9v9m0 1v9m1 11v9m1 1v9m0 1v9m1 21v9m0 1v9m1-19v9m0 1v9m1 1v9m0 1v9m0 181v9m0 1v9m1-209v9m0 1v9m0 221v9m1-239v9m0 1v9m0 211v9m1-229v9m0 1v9m0 241v9m1-249v9m0 1v9m0 231v9m0 1v9m1-229v9m0 141v9m1-139v9m0 1v9m0 171v9m0 21v9m0 1v9m1-219v9m0 1v9m0 151v9m0 71v9m1-219v9m0 1v9m0 31v9m0 121v9m0 11v9m0 1v9m1-89v9m1-19v9m0 111v9m0 1v9m3-119v9m1-9v9m1-9v9m1 11v9m1-19v9m0 11v9m1 11v9m1 1v9m0 1v9m1 21v9m0 1v9m1 11v9m1 1v9m1 11v9m0 1v9m0 91v9m2-59v9m1-9v9m1 91v9m2-49v9m0 1v9m0 11v9m3 31v9m1 21v9m3 21v9" transform="scale(1,0.1) translate(0.45,9)" /><path stroke="#1a80e6" stroke-width="0.9" fill="none" d="M8 61v9m2 61v9m3 1v9m2-9v9m1 51v9m3 51v9m2 11v9m1 1v9m1-19v9m1 11v9m1-69v9m4 111v9m0 11v9m0 1v9m1-109v9m1 21v9m0 101v9m2-99v9m1 11v9m0 121v9m1-129v9m0 111v9m1-119v9m0 131v9m1-139v9m0 121v9m1-139v9m0 1v9m3 41v9m0 111v9m1-119v9m1 1v9m0 1v9m0 91v9m1-119v9m0 141v9m0 1v9m1-149v9m0 81v9m1-99v9m0 1v9m0 151v9m0 1v9m1-169v9m0 1v9m0 151v9m1 11v9m1-169v9m0 1v9m0 121v9m0 21v9m1-169v9m0 1v9m0 221v9m1-179v9m0 171v9m0 1v9m1-229v9m0 1v9m1 21v9m0 41v9m1-59v9m0 181v9m1-179v9m0 1v9m0 51v9m1-79v9m0 1v9m0 11v9m1 1v9m0 1v9m1-19v9m0 1v9m0 151v9m1-69v9m0 71v9m0 1v9m2-159v9m0 1v9m0 1v9m0 1v9m0 131v9m0 1v9m1-179v9m0 1v9m1 21v9m1-19v9m0 1v9m0 161v9m1 11v9m0 1v9m1-189v9m0 1v9m1 11v9m0 151v9m0 1v9m0 1v9m1-179v9m0 191v9m1-189v9m0 1v9m0 51v9m0 111v9m1-189v9m0 1v9m0 1v9m0 181v9m1-199v9m0 1v9m0 1v9m0 11v9m0 141v9m0 1v9m1-199v9m0 21v9m0 11v9m0 151v9m0 1v9m1-199v9m0 1v9m0 171v9m1-189v9m0 1v9m1 1v9m0 1v9m0 51v9m1-59v9m0 1v9m0 1v9m0 181v9m1-179v9m1-9v9m0 181v9m2-169v9m0 1v9m0 161v9m0 11v9m1-199v9m0 1v9m0 1v9m0 141v9m0 1v9m0 1v9m0 1v9m1-199v9m0 1v9m1 1v9m0 1v9m0 1v9m0 141v9m1-149v9m0 191v9m1-179v9m0 171v9m0 1v9m1-179v9m0 191v9m1-169v9m0 1v9m0 91v9m0 21v9m0 1v9m0 11v9m1-159v9m0 151v9m0 11v9m0 1v9m1-109v9m0 61v9m0 11v9m0 1v9m0 21v9m1-9v9m1-129v9m0 111v9m0 11v9m1-9v9m1-139v9m0 1v9m0 121v9m0 1v9m1-159v9m1 11v9m0 1v9m0 11v9m0 121v9m1-159v9m1-29v9m0 31v9m0 11v9m0 1v9m0 121v9m1-149v9m0 1v9m1 141v9m1-109v9m1 1v9m0 1v9m0 91v9m1-89v9m1 31v9m2 11v9m1 51v9m3-99v9m2 141v9m2 1v9m0 1v9" transform="scale(1,0.1) translate(0.45,9)" /><path stroke="#1393df" stroke-width="0.9" fill="none" d="M0 1v9m7 41v9m5 81v9m1 1v9m5 81v9m0 1v9m1-79v9m1 91v9m2-9v9m2 21v9m2-59v9m0 71v9m1-9v9m2-29v9m2 1v9m0 81v9m2-79v9m0 91v9m2-39v9m1-59v9m1 131v9m1 21v9m1-119v9m0 111v9m1-119v9m1 11v9m1-19v9m0 21v9m0 91v9m0 1v9m1-29v9m0 31v9m2-119v9m0 11v9m0 91v9m2-99v9m0 1v9m1-19v9m0 1v9m1 11v9m1 1v9m0 201v9m1-179v9m1-9v9m0 1v9m1 11v9m1-9v9m0 181v9m1-169v9m0 151v9m1-169v9m0 21v9m0 141v9m1-149v9m0 1v9m0 31v9m0 11v9m0 61v9m1-139v9m0 141v9m1-149v9m0 21v9m0 101v9m1-149v9m0 1v9m0 151v9m0 1v9m1-139v9m0 111v9m1-139v9m0 21v9m0 131v9m0 1v9m2 11v9m1-19v9m1-139v9m0 161v9m0 1v9m1-169v9m0 1v9m0 21v9m1-39v9m1 21v9m0 1v9m0 131v9m0 1v9m1-139v9m0 11v9m0 131v9m1-159v9m0 21v9m0 111v9m1-159v9m1 21v9m0 151v9m1-159v9m0 1v9m0 151v9m1-159v9m0 1v9m0 1v9m0 1v9m0 121v9m1-139v9m0 151v9m1-149v9m0 141v9m1-159v9m1 1v9m0 1v9m0 1v9m0 1v9m1-9v9m0 161v9m1-159v9m1-9v9m0 1v9m0 1v9m0 171v9m1-179v9m0 1v9m0 161v9m0 1v9m1-189v9m0 1v9m0 1v9m1 1v9m0 1v9m1 1v9m0 1v9m0 181v9m1-59v9m2 61v9m1-79v9m0 91v9m0 21v9m1-39v9m0 1v9m1-109v9m1 21v9m0 81v9m0 1v9m1-129v9m1 21v9m0 121v9m2-89v9m0 101v9m1-119v9m0 121v9m1-119v9m2 41v9m3 61v9m1 1v9m1 31v9m3 51v9m2 11v9" transform="scale(1,0.1) translate(0.45,9)" /><path stroke="#0da6d9" stroke-width="0.9" fill="none" d="M6 41v9m11 111v9m0 31v9m2 31v9m0 1v9m4-29v9m1 1v9m1 1v9m4 41v9m1 11v9m1 51v9m1-49v9m1 11v9m1-19v9m0 121v9m1-109v9m0 91v9m2-89v9m0 1v9m0 81v9m1-89v9m1 11v9m0 91v9m1-119v9m1 121v9m2 31v9m1-119v9m1 11v9m0 91v9m1-109v9m0 1v9m1 141v9m1 11v9m1-129v9m0 41v9m0 61v9m1-119v9m0 11v9m1 21v9m0 141v9m0 1v9m1 11v9m1-169v9m0 81v9m0 51v9m1-159v9m0 1v9m1 21v9m0 41v9m0 71v9m1 11v9m2-139v9m1 21v9m0 1v9m0 81v9m0 11v9m1-119v9m0 1v9m1 21v9m1-19v9m0 131v9m1 11v9m0 1v9m1-159v9m1 161v9m1-139v9m1 21v9m0 21v9m0 1v9m0 41v9m1-99v9m0 1v9m0 11v9m1 1v9m0 1v9m1-19v9m0 41v9m1-19v9m0 101v9m1-119v9m1 11v9m0 1v9m0 121v9m1-129v9m0 1v9m0 31v9m0 101v9m1-129v9m1-9v9m0 151v9m2-149v9m0 141v9m1-119v9m0 1v9m0 101v9m1-129v9m0 1v9m0 161v9m1-169v9m0 1v9m1 1v9m0 1v9m0 131v9m0 21v9m1-169v9m0 1v9m0 121v9m0 1v9m1-139v9m0 1v9m1 1v9m0 1v9m1 1v9m0 1v9m0 21v9m0 81v9m0 11v9m1-129v9m0 101v9m1 21v9m2-39v9m0 61v9m0 21v9m1-109v9m0 71v9m1 21v9m0 21v9m1-129v9m0 11v9m1-29v9m0 1v9m0 11v9m1 91v9m0 1v9m1-119v9m0 131v9m2-99v9m0 1v9m1 11v9m1 1v9m1 21v9m0 1v9m0 51v9m1 1v9m1-39v9m2 21v9m2 61v9m6 51v9" transform="scale(1,0.1) translate(0.45,9)" /><path stroke="#06b9d2" stroke-width="0.9" fill="none" d="M9 81v9m5 71v9m3 41v9m1 1v9m3 41v9m4 21v9m2 21v9m1 21v9m3-9v9m1-39v9m0 81v9m0 21v9m1-19v9m1 11v9m1-79v9m0 71v9m1-79v9m0 91v9m2-99v9m0 111v9m2-79v9m1 1v9m0 71v9m2-69v9m1 1v9m1 91v9m2-59v9m0 1v9m1-19v9m0 1v9m1 11v9m0 71v9m0 1v9m1 81v9m0 1v9m1-139v9m1-19v9m0 1v9m0 151v9m1-149v9m0 1v9m0 101v9m1-109v9m2 1v9m0 21v9m0 91v9m1-99v9m0 101v9m2-79v9m0 1v9m1 11v9m0 71v9m1-9v9m1-99v9m3 11v9m0 1v9m1 21v9m0 121v9m1-109v9m0 41v9m0 1v9m1-59v9m0 41v9m1-19v9m1-9v9m0 121v9m0 1v9m2 21v9m1-109v9m0 31v9m1-39v9m0 1v9m2 11v9m1 1v9m0 121v9m1-129v9m0 1v9m0 1v9m3 41v9m0 1v9m1 1v9m0 1v9m1 1v9m0 1v9m0 91v9m1-89v9m1 1v9m0 1v9m1 1v9m0 131v9m2 31v9m1-29v9m2 71v9m1-119v9m1 91v9m2-59v9m0 1v9m0 61v9m1-89v9m0 101v9m1 1v9m1 21v9m1-79v9m1 51v9m1-19v9m0 21v9m1-19v9m1 51v9m1-39v9m1 11v9m1 31v9m1-9v9m0 1v9m1 1v9" transform="scale(1,0.1) translate(0.45,9)" /><path stroke="#00cccc" stroke-width="0.9" fill="none" d="M16 211v9m5-9v9m1 1v9m4 21v9m3 51v9m1 81v9m1 1v9m3-39v9m1 51v9m1 61v9m1-89v9m0 1v9m2 1v9m0 61v9m3-59v9m1 21v9m1 91v9m2-69v9m0 91v9m1-9v9m0 1v9m1-79v9m0 91v9m1-99v9m0 1v9m1-19v9m1 51v9m0 1v9m0 101v9m2 31v9m2-109v9m2 21v9m0 1v9m0 71v9m1-109v9m0 1v9m1 41v9m0 51v9m1-89v9m0 1v9m5 41v9m0 1v9m1 11v9m0 31v9m1 11v9m0 61v9m1-79v9m0 91v9m1-69v9m0 61v9m2 31v9m1 31v9m1-129v9m0 21v9m0 71v9m2 31v9m2-89v9m0 101v9m2-69v9m0 1v9m1-19v9m1 31v9m0 1v9m0 1v9m1 81v9m2-79v9m0 21v9m1 1v9m0 1v9m0 1v9m4 81v9m0 31v9m2 31v9m3 51v9m2-69v9m1 21v9m0 1v9m0 51v9m1-49v9m1 11v9m0 51v9m1-69v9m0 21v9m1 11v9m2 21v9m0 1v9m1 31v9m1-9v9" transform="scale(1,0.1) translate(0.45,9)" /><path stroke="#07d3aa" stroke-width="0.9" fill="none" d="M11 121v9m1 21v9m7 61v9m0 1v9m5-9v9m3 31v9m2 61v9m1-39v9m0 61v9m1-49v9m0 51v9m1 31v9m1-69v9m0 31v9m2-29v9m1-19v9m2 121v9m1-69v9m0 61v9m1-89v9m0 101v9m1-89v9m0 51v9m4-9v9m1 71v9m0 21v9m5 101v9m2-79v9m0 61v9m0 21v9m1-129v9m0 21v9m0 91v9m3-39v9m1-19v9m1 51v9m3 101v9m1-9v9m1 1v9m1-99v9m0 1v9m0 11v9m1-9v9m2 71v9m4 1v9m0 1v9m0 11v9m1 1v9m1 101v9m1-79v9m0 61v9m0 1v9m1-89v9m0 1v9m1 1v9m0 1v9m0 1v9m1 1v9m0 71v9m0 21v9m1-89v9m0 61v9m1-89v9m1 51v9m1-19v9m0 1v9m0 101v9m1-109v9m0 1v9m3 31v9m4 151v9m1-49v9m1 101v9m2-89v9m0 101v9m1-79v9m0 41v9m5 21v9m0 21v9m3 51v9m0 1v9m1-19v9m0 1v9" transform="scale(1,0.1) translate(0.45,9)" /><path stroke="#0eda88" stroke-width="0.9" fill="none" d="M21 221v9m0 21v9m0 1v9m7 11v9m0 81v9m1-9v9m1 31v9m1-69v9m1 1v9m1 1v9m0 51v9m2-29v9m0 41v9m1-49v9m2 11v9m1 21v9m0 21v9m1-29v9m2 71v9m2-49v9m1 61v9m1-69v9m3 71v9m2 51v9m0 21v9m1 71v9m0 1v9m3-69v9m1-29v9m1 101v9m1-79v9m0 21v9m0 51v9m2-59v9m1 71v9m0 11v9m1 1v9m2-89v9m1 41v9m1 111v9m2-89v9m0 111v9m1-89v9m0 61v9m1-79v9m1 11v9m0 1v9m2 41v9m2 21v9m1 91v9m1-69v9m1 11v9m0 101v9m1-99v9m0 31v9m0 1v9m1-59v9m0 11v9m1 21v9m1 1v9m6 141v9m1 1v9m2 1v9m0 21v9m2 31v9m0 1v9m1 61v9m1-89v9m1 101v9m1-79v9m1-19v9m1 31v9m1 1v9m5 91v9" transform="scale(1,0.1) translate(0.45,9)" /><path stroke="#14e066" stroke-width="0.9" fill="none" d="M20 261v9m5-9v9m3 1v9m4 101v9m2-19v9m9 141v9m4 51v9m0 41v9m3 101v9m1-69v9m0 61v9m1-109v9m0 1v9m1 31v9m0 61v9m1 1v9m1-39v9m0 1v9m1-29v9m4 111v9m3-59v9m0 1v9m1 11v9m1 41v9m0 1v9m0 41v9m3 41v9m1-39v9m1 61v9m1-59v9m0 1v9m2 81v9m5-9v9m1 61v9m4 51v9m1-19v9m2 131v9m2-19v9m1 1v9m3 21v9m0 51v9m1-49v9m1 101v9m3-49v9m2 91v9" transform="scale(1,0.1) translate(0.45,9)" /><path stroke="#1be744" stroke-width="0.9" fill="none" d="M15 161v9m0 1v9m3 1v9m5 51v9m1 11v9m9 131v9m4 51v9m0 11v9m1-59v9m3 91v9m4-9v9m1 21v9m5 171v9m1 11v9m1-49v9m1-9v9m1 71v9m1 21v9m2-19v9m1 1v9m4-9v9m0 81v9m7 51v9m4 41v9m2 101v9m1-39v9m0 1v9m4 71v9m2 1v9m5 141v9m2-9v9m0 61v9m1-59v9m0 21v9m1-49v9m4 51v9m0 1v9m2 91v9m1-19v9m2 41v9" transform="scale(1,0.1) translate(0.45,9)" /><path stroke="#22ee22" stroke-width="0.9" fill="none" d="M4 21v9m12 151v9m5 51v9m5 71v9m1-49v9m0 11v9m6 81v9m4 51v9m1 1v9m0 31v9m1-29v9m0 21v9m1-49v9m0 61v9m3-39v9m1 61v9m3-19v9m1 81v9m1-29v9m1-29v9m1 91v9m1 11v9m1-39v9m8 141v9m2-29v9m0 1v9m1-49v9m1 121v9m4 31v9m3 31v9m0 51v9m1-9v9m1 11v9m0 21v9m1-69v9m1 1v9m4 131v9m14 191v9m4 121v9m1-9v9m1 1v9m1-9v9" transform="scale(1,0.1) translate(0.45,9)" /><path stroke="#4bee1b" stroke-width="0.9" fill="none" d="M20 241v9m3 1v9m2 21v9m2 1v9m3 41v9m2 1v9m2 41v9m13 211v9m3 91v9m2-49v9m6 111v9m0 41v9m3-49v9m0 1v9m1-9v9m2 31v9m0 11v9m2 31v9m3 71v9m2 41v9m3 1v9m1 11v9m2 71v9m2-19v9m5 91v9m12 191v9m1 51v9m1-29v9m1 41v9" transform="scale(1,0.1) translate(0.45,9)" /><path stroke="#74ee14" stroke-width="0.9" fill="none" d="M11 101v9m15 171v9m18 321v9m1-59v9m3 31v9m3 121v9m4 41v9m6 61v9m8 151v9m2-9v9m1-29v9m1 51v9m11 171v9m6 131v9m3 31v9m1-9v9m4 111v9m1-69v9m0 41v9" transform="scale(1,0.1) translate(0.45,9)" /><path stroke="#9cee0e" stroke-width="0.9" fill="none" d="M27 321v9m18 221v9m16 281v9m2 51v9m0 1v9m8 101v9m5 141v9m5 41v9m7 161v9m9 101v9" transform="scale(1,0.1) translate(0.45,9)" /><path stroke="#c5ee07" stroke-width="0.9" fill="none" d="M1 11v9m35 461v9m2 21v9m17 291v9m1-59v9m5 61v9m2 41v9m19 381v9m7 91v9m5 81v9m2-9v9m0 1v9m2 31v9" transform="scale(1,0.1) translate(0.45,9)" /><path stroke="#eeee00" stroke-width="0.9" fill="none" d="M18 231v9m4-29v9m6 121v9m22 351v9m12 171v9m1-29v9m1-39v9m1 71v9m13 221v9m5 81v9m9 151v9m2 31v9" transform="scale(1,0.1) translate(0.45,9)" /><path stroke="#eed600" stroke-width="0.9" fill="none" d="M14 171v9m4 21v9m47 711v9m12 211v9m7 91v9m11 211v9" transform="scale(1,0.1) translate(0.45,9)" /><path stroke="#eebe00" stroke-width="0.9" fill="none" d="M41 491v9m6 101v9m33 521v9m15 311v9m3 41v9m0 11v9" transform="scale(1,0.1) translate(0.45,9)" /><path stroke="#eea700" stroke-width="0.9" fill="none" d="M67 981v9m21 381v9m9 111v9" transform="scale(1,0.1) translate(0.45,9)" /><path stroke="#ee8f00" stroke-width="0.9" fill="none" d="M6 71v9m36 421v9m25 441v9m23 421v9m4 61v9m1 11v9m1 1v9m0 1v9m0 31v9" transform="scale(1,0.1) translate(0.45,9)" /><path stroke="#ee7700" stroke-width="0.9" fill="none" d="M41 521v9m53 911v9" transform="scale(1,0.1) translate(0.45,9)" /><path stroke="#ee5f00" stroke-width="0.9" fill="none" d="M28 301v9m29 481v9m25 391v9m8 191v9m1-9v9" transform="scale(1,0.1) translate(0.45,9)" /><path stroke="#ee4700" stroke-width="0.9" fill="none" d="M17 181v9m3 11v9m14 231v9m2-9v9m7 101v9m7 191v9m25 341v9m17 291v9m0 1v9m1 1v9" transform="scale(1,0.1) translate(0.45,9)" /><path stroke="#ee3000" stroke-width="0.9" fill="none" d="M13 121v9m70 1111v9m11 221v9m2 31v9" transform="scale(1,0.1) translate(0.45,9)" /><path stroke="#ee1800" stroke-width="0.9" fill="none" d="M4 51v9m22 271v9m14 181v9m15 261v9m9 51v9m2 11v9m17 381v9m10 161v9" transform="scale(1,0.1) translate(0.45,9)" /><path stroke="#ee0000" stroke-width="0.9" fill="none" d="M25 271v9m18 251v9m0 1v9m3 51v9m26 481v9" transform="scale(1,0.1) translate(0.45,9)" /><path stroke="#e70000" stroke-width="0.9" fill="none" d="M53 751v9m29 461v9m10 201v9m4 61v9" transform="scale(1,0.1) translate(0.45,9)" /><path stroke="#e00000" stroke-width="0.9" fill="none" d="M41 501v9m53 981v9" transform="scale(1,0.1) translate(0.45,9)" /><path stroke="#d90000" stroke-width="0.9" fill="none" d="M62 831v9" transform="scale(1,0.1) translate(0.45,9)" /><path stroke="#d30000" stroke-width="0.9" fill="none" d="M92 1421v9" transform="scale(1,0.1) translate(0.45,9)" /><path stroke="#cc0000" stroke-width="0.9" fill="none" d="M19 201v9" transform="scale(1,0.1) translate(0.45,9)" /><path stroke="#c50000" stroke-width="0.9" fill="none" d="M92 1451v9" transform="scale(1,0.1) translate(0.45,9)" /><path stroke="#be0000" stroke-width="0.9" fill="none" d="M90 1411v9" transform="scale(1,0.1) translate(0.45,9)" /><path stroke="#b70000" stroke-width="0.9" fill="none" d="M37 491v9m34 541v9m4 61v9" transform="scale(1,0.1) translate(0.45,9)" /><path stroke="#b00000" stroke-width="0.9" fill="none" d="M57 801v9m5 31v9" transform="scale(1,0.1) translate(0.45,9)" /><path stroke="#a90000" stroke-width="0.9" fill="none" d="M78 1111v9" transform="scale(1,0.1) translate(0.45,9)" /><path stroke="#8e0000" stroke-width="0.9" fill="none" d="M58 771v9m0 11v9m18 271v9" transform="scale(1,0.1) translate(0.45,9)" /><path stroke="#870000" stroke-width="0.9" fill="none" d="M54 691v9m10 171v9" transform="scale(1,0.1) translate(0.45,9)" /><path stroke="#800000" stroke-width="0.9" fill="none" d="M20 251v9m0 11v9m3-19v9m1-19v9m6 131v9m6 11v9m4 131v9m2 11v9m6 61v9m0 21v9m1-29v9m3 41v9m0 41v9m0 11v9m2 11v9m0 11v9m2-69v9m2 71v9m2-9v9m0 51v9m2-49v9m1 11v9m1 71v9m8 51v9m1 41v9m1-19v9m0 11v9m0 1v9m0 1v9m0 11v9m2-29v9m6 111v9" transform="scale(1,0.1) translate(0.45,9)" /><path stroke="#300000" stroke-width="0.9" fill="none" d="M1-9v9m0 1v9m1-9v9m0 1v9m1 1v9m0 1v9m1 1v9m1-9v9m0 1v9m1-9v9m0 1v9m1-9v9m0 1v9m1-9v9m0 1v9m0 1v9m1-9v9m1-9v9m0 1v9m0 1v9m1-9v9m1-9v9m0 1v9m0 1v9m1-9v9m1-9v9m0 1v9m0 1v9m1-9v9m1-9v9m0 1v9m0 1v9m0 11v9m1-29v9m0 11v9m1-29v9m0 11v9m0 11v9m1-29v9m0 11v9m1-9v9m0-29v9m0 20m0 1v9m0 1v9m1-9v9m1-9v9m0 1v9m0 1v9m0 1v9m0 1v9m1-9v9m1-9v9m0 1v9m0 1v9m1-9v9m1-29v9m0 11v9m0 1v9m0 1v9m1-9v9m1-29v9m0 11v9m0 1v9m0 1v9m0 11v9m1-29v9m0 11v9m1-29v9m0 11v9m0 1v9m0 1v9m1-9v9m0 11v9m1-29v9m0 11v9m0 1v9m0 1v9m0 11v9m1-29v9m1-29v9m0 11v9m0 1v9m0 1v9m0 11v9m0 11v9m1-49v9m0 11v9m1-29v9m0 11v9m0 1v9m0 1v9m0 11v9m1-29v9m1-29v9m0 11v9m0 1v9m0 1v9m1-9v9m1-9v9m0 1v9m0 1v9m0 11v9m1-29v9m1-29v9m0 11v9m0 1v9m0 1v9m0 1v9m0 1v9m2-49v9m0 11v9m0 1v9m0 1v9m0 1v9m0 1v9m0 11v9m1-29v9m1-29v9m0 11v9m0 1v9m0 1v9m0 11v9m0 11v9m1-49v9m0 11v9m1-49v9m0 11v9m0 11v9m0 1v9m0 1v9m0 11v9m1-29v9m1-29v9m0 11v9m0 1v9m0 1v9m0 1v9m0 1v9m0 1v9m0 1v9m0 11v9m0 11v9m1-49v9m0 11v9m1-49v9m0 11v9m0 11v9m0 1v9m0 1v9m1-9v9m1-29v9m0 11v9m0 1v9m0 1v9m0 1v9m0 1v9m1-9v9m1-49v9m0 31v9m0 1v9m0 1v9m0 1v9m0 1v9m1-9v9m1-9v9m1-9v9m1-9v9m0 1v9m0 11v9m0 1v9m0 11v9m2-69v9m0 41v9m0 1v9m0 11v9m0 11v9m1-29v9m1-9v9m0 1v9m0 1v9m0 1v9m0 1v9m1-9v9m1-49v9m0 11v9m0 11v9m0 1v9m0 1v9m0 1v9m0 1v9m1-9v9m1-49v9m0 11v9m0 11v9m0 1v9m0 1v9m0 11v9m1-29v9m1-29v9m0 11v9m0 1v9m0 1v9m0 1v9m0 1v9m0 11v9m1-29v9m1-9v9m0 1v9m0 1v9m0 1v9m0 1v9m1-9v9m2 11v9m1 1v9m0 1v9m0 1v9m0 1v9m0 11v9m1-29v9m0 11v9m1-29v9m0 11v9m0 1v9m0 1v9m0 11v9m1-29v9m1-29v9m0 11v9m0 1v9m0 1v9m0 1v9m0 1v9m0 11v9m1-29v9m0 11v9m1-9v9m0 1v9m0 1v9m1-9v9" transform="scale(1,0.1) translate(0.45,9)" /></g><rect x="39.5" y="15.5" width="477" height="713" stroke="black" stroke-width="1" fill="none" /><g stroke="none"><rect fill="#300000" x="530" y="16" width="25" height="11" /><rect fill="#800000" x="530" y="27" width="25" height="11" /><rect fill="#870000" x="530" y="38" width="25" height="11" /><rect fill="#8e0000" x="530" y="49" width="25" height="11" /><rect fill="#950000" x="530" y="60" width="25" height="12" /><rect fill="#9c0000" x="530" y="72" width="25" height="11" /><rect fill="#a20000" x="530" y="83" width="25" height="11" /><rect fill="#a90000" x="530" y="94" width="25" height="11" /><rect fill="#b00000" x="530" y="105" width="25" height="11" /><rect fill="#b70000" x="530" y="116" width="25" height="11" /><rect fill="#be0000" x="530" y="127" width="25" height="11" /><rect fill="#c50000" x="530" y="138" width="25" height="11" /><rect fill="#cc0000" x="530" y="149" width="25" height="11" /><rect fill="#d30000" x="530" y="160" width="25" height="12" /><rect fill="#d90000" x="530" y="172" width="25" height="11" /><rect fill="#e00000" x="530" y="183" width="25" height="11" /><rect fill="#e70000" x="530" y="194" width="25" height="11" /><rect fill="#ee0000" x="530" y="205" width="25" height="11" /><rect fill="#ee1800" x="530" y="216" width="25" height="11" /><rect fill="#ee3000" x="530" y="227" width="25" height="11" /><rect fill="#ee4700" x="530" y="238" width="25" height="11" /><rect fill="#ee5f00" x="530" y="249" width="25" height="11" /><rect fill="#ee7700" x="530" y="260" width="25" height="12" /><rect fill="#ee8f00" x="530" y="272" width="25" height="11" /><rect fill="#eea700" x="530" y="283" width="25" height="11" /><rect fill="#eebe00" x="530" y="294" width="25" height="11" /><rect fill="#eed600" x="530" y="305" width="25" height="11" /><rect fill="#eeee00" x="530" y="316" width="25" height="11" /><rect fill="#c5ee07" x="530" y="327" width="25" height="11" /><rect fill="#9cee0e" x="530" y="338" width="25" height="11" /><rect fill="#74ee14" x="530" y="349" width="25" height="11" /><rect fill="#4bee1b" x="530" y="360" width="25" height="12" /><rect fill="#22ee22" x="530" y="372" width="25" height="11" /><rect fill="#1be744" x="530" y="383" width="25" height="11" /><rect fill="#14e066" x="530" y="394" width="25" height="11" /><rect fill="#0eda88" x="530" y="405" width="25" height="11" /><rect fill="#07d3aa" x="530" y="416" width="25" height="11" /><rect fill="#00cccc" x="530" y="427" width="25" height="11" /><rect fill="#06b9d2" x="530" y="438" width="25" height="11" /><rect fill="#0da6d9" x="530" y="449" width="25" height="11" /><rect fill="#1393df" x="530" y="460" width="25" height="11" /><rect fill="#1a80e6" x="530" y="471" width="25" height="12" /><rect fill="#206cec" x="530" y="483" width="25" height="11" /><rect fill="#2659f2" x="530" y="494" width="25" height="11" /><rect fill="#2d46f9" x="530" y="505" width="25" height="11" /><rect fill="#3333ff" x="530" y="516" width="25" height="11" /><rect fill="#3e3eff" x="530" y="527" width="25" height="11" /><rect fill="#4a4aff" x="530" y="538" width="25" height="11" /><rect fill="#5555ff" x="530" y="549" width="25" height="11" /><rect fill="#6060ff" x="530" y="560" width="25" height="11" /><rect fill="#6c6cff" x="530" y="571" width="25" height="12" /><rect fill="#7777ff" x="530" y="583" width="25" height="11" /><rect fill="#8282ff" x="530" y="594" width="25" height="11" /><rect fill="#8e8eff" x="530" y="605" width="25" height="11" /><rect fill="#9999ff" x="530" y="616" width="25" height="11" /><rect fill="#a4a4ff" x="530" y="627" width="25" height="11" /><rect fill="#b0b0ff" x="530" y="638" width="25" height="11" /><rect fill="#bbbbff" x="530" y="649" width="25" height="11" /><rect fill="#c6c6ff" x="530" y="660" width="25" height="11" /><rect fill="#d2d2ff" x="530" y="671" width="25" height="12" /><rect fill="#ddddff" x="530" y="683" width="25" height="11" /><rect fill="#e8e8ff" x="530" y="694" width="25" height="11" /><rect fill="#f4f4ff" x="530" y="705" width="25" height="11" /><rect x="529.5" y="15.5" width="26" height="713" stroke="black" stroke-width="1" fill="none" /><line x1="529.5" y1="716.5" x2="555.5" y2="716.5" stroke="black" stroke-width="1" /><path stroke="black" stroke-width="1" fill="none" d="M555 705.5h5M555 660.5h5M555 616.5h5M555 571.5h5M555 527.5h5M555 482.5h5M555 438.5h5M555 393.5h5M555 360.5h5M555 315.5h5M555 271.5h5M555 226.5h5M555 182.5h5M555 137.5h5M555 93.5h5M555 48.5h5M530.5 716.5h25" /></g><g font-family="Nimbus Roman No9 L, Times, serif" font-size="19" stroke="none" fill="black"><text x="122" y="748" text-anchor="middle">20</text><text x="202" y="748" text-anchor="middle">40</text><text x="282" y="748" text-anchor="middle">60</text><text x="362" y="748" text-anchor="middle">80</text><text x="442" y="748" text-anchor="middle">100</text><text x="40" y="748">Z</text><text x="35" y="652" text-anchor="end">20</text><text x="35" y="572" text-anchor="end">40</text><text x="35" y="492" text-anchor="end">60</text><text x="35" y="412" text-anchor="end">80</text><text x="35" y="332" text-anchor="end">100</text><text x="35" y="252" text-anchor="end">120</text><text x="35" y="172" text-anchor="end">140</text><text x="35" y="92" text-anchor="end">160</text><text x="32" y="728" text-anchor="end">N</text><text x="393.2" y="394.8">Z = N</text><text x="565" y="710" text-anchor="start">10<tspan dy="-6" font-size="13">−8</tspan><tspan dy="6"> s</tspan></text><text x="565" y="665" text-anchor="start">10<tspan dy="-6" font-size="13">−6</tspan><tspan dy="6"> s</tspan></text><text x="565" y="621" text-anchor="start">10<tspan dy="-6" font-size="13">−4</tspan><tspan dy="6"> s</tspan></text><text x="565" y="576" text-anchor="start">10<tspan dy="-6" font-size="13">−2</tspan><tspan dy="6"> s</tspan></text><text x="565" y="532" text-anchor="start">1 s</text><text x="565" y="487" text-anchor="start">100 s</text><text x="565" y="443" text-anchor="start">10<tspan dy="-6" font-size="13">4</tspan><tspan dy="6"> s</tspan></text><text x="565" y="398" text-anchor="start">10<tspan dy="-6" font-size="13">6</tspan><tspan dy="6"> s</tspan></text><text x="565" y="365" text-anchor="start">1 yr</text><text x="565" y="320" text-anchor="start">100 yr</text><text x="565" y="276" text-anchor="start">10<tspan dy="-6" font-size="13">4</tspan><tspan dy="6"> yr</tspan></text><text x="565" y="231" text-anchor="start">10<tspan dy="-6" font-size="13">6</tspan><tspan dy="6"> yr</tspan></text><text x="565" y="187" text-anchor="start">10<tspan dy="-6" font-size="13">8</tspan><tspan dy="6"> yr</tspan></text><text x="565" y="142" text-anchor="start">10<tspan dy="-6" font-size="13">10</tspan><tspan dy="6"> yr</tspan></text><text x="565" y="98" text-anchor="start">10<tspan dy="-6" font-size="13">12</tspan><tspan dy="6"> yr</tspan></text><text x="565" y="53" text-anchor="start">10<tspan dy="-6" font-size="13">14</tspan><tspan dy="6"> yr</tspan></text><text x="560" y="728" text-anchor="start">unstable</text><text x="560" y="28" text-anchor="start">stable</text></g></svg>
