<?xml version="1.0"?>
<svg xmlns:rdf="http://www.w3.org/1999/02/22-rdf-syntax-ns#" xmlns="http://www.w3.org/2000/svg" xmlns:cc="http://creativecommons.org/ns#" xmlns:dc="http://purl.org/dc/elements/1.1/" id="svg2" xml:space="preserve" viewBox="0 0 614.29 733.85" version="1.1">
  <path id="path4" fill="none" d="m72.891 713.5v-712m40 712v-712m40 712v-712m40 712v-712m40 712v-712m40 712v-712m40 712v-712m40 712v-712m40 712v-712m40 712v-712m40 712v-712m-442 670h476m-476-40h476m-476-40h476m-476-40h476m-476-40h476m-476-40h476m-476-40h476m-476-40h476m-476-40h476m-476-40h476m-476-40h476m-476-40h476m-476-40h476m-476-40h476m-476-40h476m-476-40h476m-476-40h476" stroke="#d3d3d3"/>
  <line id="line6" stroke-width="0.707" y2="236.5" y1="733.5" stroke="#000" x2="507.89" x1="10.891"/>
  <g id="g8" stroke-width="0.9" fill="none" transform="matrix(4,0,0,-4,31.441,712.95)">
    <path id="path10" d="m1 21v9m0 1v9m0 1v9m0 1v9m1-39v9m0 11v9m0 21v9m1-79v9m0 1v9m1-9v9m0 11v9m0 41v9m1-79v9m0 11v9m0 61v9m1-99v9m1 11v9m1-9v9m1 11v9m0 1v9m1-19v9m1 1v9" transform="matrix(1 0 0 .1 .45 .9)" stroke="#f4f4ff"/>
    <path id="path12" d="m3 81v9m2 31v9m1 11v9m9-59v9m2 11v9m0 1v9m1-19v9m1 11v9m0 1v9m16 181v9m2 11v9" transform="matrix(1 0 0 .1 .45 .9)" stroke="#e8e8ff"/>
    <path id="path14" d="m7 161v9m1-9v9m0 1v9m1 1v9m1 41v9m1-169v9m0 171v9m2-189v9m1 201v9m6-159v9m3 41v9m6 51v9m31 721v9m12-179v9m15 461v9m2-9v9m2-9v9m1-9v9" transform="matrix(1 0 0 .1 .45 .9)" stroke="#ddf"/>
    <path id="path16" d="m4 101v9m0 1v9m3 51v9m1 1v9m0 1v9m1 1v9m0 1v9m1 1v9m1 11v9m1-9v9m0 1v9m0 1v9m0 1v9m1-19v9m0 1v9m0 1v9m0 1v9m2-9v9m0 1v9m1 1v9m0 1v9m1-29v9m0 1v9m0 11v9m1-29v9m0 1v9m2 1v9m1-169v9m1 201v9m1-9v9m2-209v9m1 251v9m0 1v9m1-229v9m0 221v9m0 1v9m1-259v9m0 251v9m0 1v9m1-269v9m0 261v9m1 1v9m0 1v9m1 1v9m0 1v9m1-259v9m0 231v9m0 11v9m1-19v9m0 1v9m0 1v9m0 1v9m0 1v9m1-299v9m0 251v9m0 11v9m0 1v9m0 1v9m1-9v9m0 1v9m0 1v9m1 11v9m2 1v9m1-289v9m0 291v9m1-299v9m0 311v9m1 1v9m1-19v9m2 41v9m0 1v9m1-29v9m0 21v9m1-29v9m0 11v9m5 91v9m0 1v9m1-19v9m0 11v9m0 1v9m1-9v9m0 1v9m3 31v9m1-19v9m0 1v9m0 1v9m1-19v9m0 1v9m0 1v9m1-19v9m0 1v9m1-319v9m0 301v9m4-259v9m1 1v9m2 21v9m1-9v9m2 31v9m4 361v9m0 1v9m6 111v9m1-9v9m0 1v9m3 31v9m0 1v9m1-89v9m1-9v9m2-9v9m2-9v9" transform="matrix(1 0 0 .1 .45 .9)" stroke="#d2d2ff"/>
    <path id="path18" d="m14 291v9m14-109v9m2 51v9m22 261v9m33 751v9m2-9v9m4-9v9m1-9v9" transform="matrix(1 0 0 .1 .45 .9)" stroke="#c6c6ff"/>
    <path id="path20" d="m14 231v9m21 81v9m2 11v9m1 1v9m6 61v9m1 1v9m1 1v9m1 1v9m4 51v9m18 221v9m8 121v9m9 401v9m2-9v9m1-9v9m1-9v9m2 1v9m1 11v9m9 131v9m8 101v9" transform="matrix(1 0 0 .1 .45 .9)" stroke="#bbf"/>
    <path id="path22" d="m13 251v9m53 471v9m3 11v9m15 521v9m6 1v9m1-9v9" transform="matrix(1 0 0 .1 .45 .9)" stroke="#b0b0ff"/>
    <path id="path24" d="m55 571v9m20 251v9m12 451v9m1-9v9m1-9v9m3 1v9m12 181v9" transform="matrix(1 0 0 .1 .45 .9)" stroke="#a4a4ff"/>
    <path id="path26" d="m52 531v9m23 641v9m2-329v9m3 31v9m3 101v9m3 271v9m6-39v9m10 201v9m2 1v9m6 81v9" transform="matrix(1 0 0 .1 .45 .9)" stroke="#99f"/>
    <path id="path28" d="m53 551v9m24 341v9m1-39v9m1 11v9m0 1v9m1 1v9m2 31v9m2 331v9m1-9v9m0 1v9m5-49v9m1-9v9m16 251v9m0 21v9m3 21v9m0 31v9m3 11v9" transform="matrix(1 0 0 .1 .45 .9)" stroke="#8e8eff"/>
    <path id="path30" d="m55 561v9m8 91v9m2 21v9m10 141v9m3 31v9m2 31v9m4 101v9m2 31v9m0 221v9m3-49v9m3-19v9m0 51v9m8 91v9m0 151v9m8-29v9m4 81v9m0 41v9" transform="matrix(1 0 0 .1 .45 .9)" stroke="#8282ff"/>
    <path id="path32" d="m5 131v9m4 51v9m2 31v9m7 101v9m1 1v9m2 21v9m1 11v9m4-229v9m26 351v9m21 261v9m1 11v9m2 11v9m2 31v9m1 11v9m1 11v9m2 21v9m2 81v9m0 241v9m1-259v9m1 1v9m2 51v9m0 131v9m2 31v9m0 1v9m12 231v9m4-49v9m2 41v9m0 1v9m1-19v9m9 181v9" transform="matrix(1 0 0 .1 .45 .9)" stroke="#77f"/>
    <path id="path34" d="m3 71v9m1 11v9m1-9v9m0 11v9m1 31v9m2-119v9m1 111v9m0 1v9m1 11v9m0 1v9m0 1v9m1-9v9m0 1v9m1 1v9m1 1v9m7 111v9m8-169v9m14 191v9m6 51v9m1 1v9m1 1v9m17 231v9m0 1v9m7 101v9m2 11v9m2 31v9m1 11v9m2 11v9m1 21v9m2 61v9m2 31v9m0 1v9m1 161v9m3-89v9m0 1v9m1 1v9m0 1v9m0 31v9m0 41v9m0 1v9m9 111v9m0 151v9m2-9v9m2-89v9m2 11v9m0 11v9m3 41v9m0 41v9m1-69v9m1 1v9m0 1v9m0 1v9m0 31v9m5 71v9" transform="matrix(1 0 0 .1 .45 .9)" stroke="#6c6cff"/>
    <path id="path36" d="m4 71v9m1-19v9m0 1v9m0 1v9m1 41v9m1-99v9m0 91v9m0 1v9m3 11v9m0 1v9m1-29v9m0 21v9m0 1v9m1 1v9m1 11v9m1-169v9m0 181v9m0 1v9m1 1v9m1-199v9m0 1v9m1 211v9m1-209v9m0 201v9m1-9v9m0 1v9m1-209v9m0 191v9m0 1v9m1-9v9m0 1v9m0 1v9m1-219v9m0 191v9m0 1v9m0 11v9m1-9v9m0 1v9m0 1v9m1-249v9m0 1v9m0 211v9m0 1v9m1 11v9m1-249v9m0 1v9m2 1v9m2 21v9m2 21v9m1 21v9m5 31v9m1 321v9m0 1v9m2 21v9m13-179v9m3 41v9m6 71v9m9 151v9m1-9v9m2 11v9m1 11v9m1 1v9m1 21v9m1 11v9m1 1v9m0 1v9m1-9v9m2 41v9m0 11v9m2 41v9m1 181v9m1-159v9m0 181v9m0 1v9m1-189v9m0 1v9m0 151v9m0 1v9m1-149v9m0 121v9m1-99v9m0 31v9m1-39v9m0 1v9m1 1v9m6 141v9m6 131v9m0 11v9m3-29v9m2 31v9m0 1v9m2 41v9m1 11v9m4 71v9m0 11v9m1-29v9" transform="matrix(1 0 0 .1 .45 .9)" stroke="#6060ff"/>
    <path id="path38" d="m6 111v9m0 1v9m1 1v9m1 1v9m0 1v9m1-9v9m1 1v9m1 1v9m0 1v9m1-119v9m0 111v9m0 1v9m0 11v9m1-149v9m0 91v9m0 1v9m0 1v9m0 1v9m0 1v9m1-149v9m0 131v9m0 11v9m0 1v9m1-159v9m0 151v9m0 1v9m1 1v9m0 1v9m2-169v9m2 181v9m1 11v9m1-179v9m0 1v9m0 151v9m0 1v9m1-9v9m0 11v9m1-189v9m0 1v9m0 181v9m0 21v9m1-229v9m0 171v9m0 1v9m0 1v9m0 1v9m1-209v9m0 1v9m0 201v9m1-219v9m0 201v9m0 1v9m0 1v9m1-229v9m0 1v9m1 1v9m0 1v9m1-9v9m0 1v9m1 1v9m0 231v9m1-249v9m1 31v9m1-29v9m0 1v9m1 261v9m1-269v9m0 1v9m0 251v9m0 1v9m0 1v9m0 1v9m1-269v9m0 241v9m0 1v9m0 1v9m1-279v9m0 261v9m1-269v9m1 1v9m0 281v9m1-279v9m0 281v9m1 11v9m0 1v9m1-309v9m0 281v9m0 1v9m0 1v9m3 31v9m1 11v9m0 1v9m0 11v9m1-9v9m0 1v9m1 11v9m4-319v9m1 1v9m1 371v9m0 1v9m0 1v9m1 1v9m1 1v9m1 1v9m13-209v9m0 1v9m2 41v9m1 1v9m2 21v9m1 1v9m1 21v9m0 1v9m3 21v9m1 11v9m0 1v9m1 31v9m1 21v9m0 1v9m1 231v9m1-219v9m0 1v9m0 191v9m1-199v9m0 1v9m1 11v9m1 1v9m0 11v9m0 121v9m1-119v9m2 111v9m1-9v9m13 241v9m2 1v9m2 11v9m5 101v9m0 1v9m1 31v9m1-29v9" transform="matrix(1 0 0 .1 .45 .9)" stroke="#55f"/>
    <path id="path40" d="m2 51v9m1-9v9m3-39v9m0 71v9m1 1v9m0 1v9m3-69v9m0 81v9m1-9v9m1-79v9m0 91v9m2-99v9m0 1v9m1 1v9m0 1v9m0 101v9m0 1v9m0 1v9m1-149v9m0 1v9m0 131v9m0 1v9m1-149v9m0 1v9m0 131v9m0 1v9m1-159v9m0 151v9m1-159v9m0 161v9m1-179v9m0 1v9m1 11v9m0 141v9m1-149v9m0 131v9m1-139v9m0 111v9m0 11v9m0 11v9m1-159v9m0 141v9m0 1v9m0 1v9m1-179v9m0 1v9m0 141v9m1-149v9m0 1v9m0 161v9m0 1v9m1-189v9m0 1v9m0 101v9m0 11v9m0 21v9m1-169v9m0 1v9m0 201v9m1-209v9m0 211v9m1-219v9m0 211v9m1-219v9m0 1v9m0 201v9m1-219v9m0 231v9m1-239v9m1 1v9m0 231v9m1 1v9m1-239v9m0 221v9m0 1v9m1-9v9m0 1v9m0 1v9m1-9v9m0 1v9m0 1v9m1 1v9m0 1v9m1 11v9m1-9v9m0 1v9m0 1v9m1-19v9m0 1v9m0 11v9m1-39v9m0 1v9m0 1v9m0 1v9m1 11v9m0 1v9m1-19v9m0 11v9m0 1v9m1-9v9m1-9v9m0 1v9m0 1v9m0 1v9m0 21v9m1-29v9m0 1v9m0 1v9m1 1v9m0 1v9m0 1v9m1 1v9m0 1v9m3 11v9m1 11v9m0 1v9m0 1v9m1-19v9m0 1v9m1 1v9m0 11v9m1 1v9m1-369v9m0 1v9m0 351v9m1-9v9m0 1v9m0 1v9m1-9v9m0 1v9m1 1v9m1 1v9m1-349v9m0 341v9m1-9v9m1-339v9m1 1v9m2 21v9m1 11v9m1 1v9m1 51v9m1 1v9m1 311v9m2-309v9m1 21v9m3 41v9m0 1v9m1 1v9m0 1v9m3 61v9m1 261v9m1-239v9m0 171v9m2-129v9m1 11v9m0 1v9m1 11v9m0 11v9m0 31v9m1-39v9m0 1v9m1 1v9m9 171v9m2 141v9m4-39v9m1-9v9m1 111v9m2 11v9m1-49v9m0 21v9m1-19v9m0 41v9m1-29v9m1 11v9" transform="matrix(1 0 0 .1 .45 .9)" stroke="#4a4aff"/>
    <path id="path42" d="m2 31v9m1 1v9m2-29v9m1 61v9m1 1v9m2 31v9m1-9v9m1-69v9m1 81v9m1-89v9m0 71v9m1 21v9m0 1v9m1 1v9m2 31v9m0 1v9m1-129v9m0 131v9m1-139v9m0 131v9m0 1v9m1-149v9m0 1v9m1 1v9m0 121v9m1-129v9m1-19v9m0 11v9m0 1v9m0 101v9m1-119v9m0 111v9m0 1v9m1-129v9m0 111v9m0 1v9m1 21v9m0 1v9m1-19v9m0 21v9m1 11v9m0 1v9m0 1v9m1-9v9m0 1v9m0 1v9m1-9v9m0 1v9m1 1v9m1 1v9m0 1v9m1-9v9m0 1v9m1 1v9m1 1v9m0 1v9m2 1v9m1 1v9m0 1v9m1 1v9m0 1v9m0 1v9m1 11v9m1-259v9m0 241v9m0 1v9m1 1v9m1-259v9m0 231v9m0 1v9m1 11v9m0 1v9m0 1v9m0 1v9m1-29v9m0 1v9m0 1v9m1-269v9m0 261v9m0 1v9m1-279v9m0 261v9m0 1v9m1 11v9m0 1v9m0 1v9m1-9v9m0 11v9m0 1v9m1 21v9m1-329v9m0 11v9m0 291v9m0 1v9m2-299v9m0 291v9m0 1v9m1-319v9m0 311v9m0 1v9m1-319v9m0 301v9m0 1v9m1-339v9m0 1v9m0 311v9m0 1v9m0 1v9m1-9v9m2-309v9m0 1v9m1-9v9m0 1v9m0 331v9m1-349v9m0 341v9m0 1v9m1-359v9m0 1v9m0 341v9m1-319v9m0 311v9m1-339v9m1 11v9m0 41v9m0 281v9m1-339v9m0 11v9m1-9v9m0 11v9m1-9v9m1 1v9m0 1v9m0 1v9m1-19v9m0 41v9m1-39v9m0 1v9m0 21v9m1-29v9m1-9v9m0 21v9m1 1v9m1 1v9m0 1v9m1 11v9m1 1v9m0 1v9m1 11v9m0 1v9m3 11v9m1 21v9m0 1v9m1 31v9m1 21v9m0 1v9m1-9v9m0 1v9m1 11v9m1 21v9m2 41v9m0 11v9m0 1v9m1 81v9m0 1v9m1-19v9m1 1v9m1-9v9m8 91v9m2 41v9m0 41v9m2-9v9m1-19v9m1 31v9m0 1v9m2 61v9m0 11v9m4 31v9m1 11v9m0 1v9" transform="matrix(1 0 0 .1 .45 .9)" stroke="#3e3eff"/>
    <path id="path44" d="m6 81v9m2 41v9m1-9v9m1-69v9m1 61v9m1 11v9m1-69v9m1 1v9m0 71v9m1 11v9m1-89v9m0 1v9m0 91v9m0 1v9m1-109v9m0 91v9m1-99v9m0 111v9m1-119v9m0 111v9m2 11v9m1-9v9m0 1v9m4 41v9m0 1v9m1-19v9m0 21v9m1 11v9m0 1v9m1 1v9m0 1v9m1 1v9m0 1v9m1-9v9m0 1v9m0 1v9m1 1v9m1 1v9m1 11v9m1-199v9m0 191v9m1 1v9m0 1v9m1-9v9m1 1v9m1 1v9m0 1v9m1-19v9m0 11v9m0 1v9m0 1v9m0 1v9m1-59v9m0 21v9m0 11v9m1 11v9m1-229v9m1-9v9m0 1v9m0 211v9m0 1v9m1-239v9m0 1v9m0 211v9m0 1v9m1 21v9m1-249v9m0 241v9m1-259v9m0 1v9m0 251v9m0 1v9m1-279v9m0 1v9m0 261v9m0 21v9m1-309v9m0 1v9m0 311v9m0 1v9m1-309v9m0 291v9m1-289v9m0 281v9m0 1v9m1-289v9m0 41v9m0 221v9m1-289v9m0 1v9m0 271v9m0 1v9m1-289v9m0 261v9m0 1v9m0 1v9m1-299v9m0 1v9m0 281v9m1-299v9m0 1v9m0 1v9m0 271v9m0 1v9m1-299v9m0 291v9m0 1v9m1-329v9m0 21v9m0 11v9m0 11v9m0 251v9m1-289v9m1-19v9m0 1v9m0 1v9m0 1v9m0 281v9m0 1v9m1-319v9m0 1v9m0 301v9m0 1v9m1-319v9m0 11v9m0 41v9m0 241v9m1-319v9m0 11v9m0 291v9m0 11v9m1-319v9m0 1v9m0 281v9m0 1v9m1-299v9m0 291v9m0 1v9m1-299v9m1-9v9m0 1v9m0 291v9m1-289v9m0 21v9m1-39v9m0 1v9m0 21v9m1-29v9m1-19v9m0 31v9m1 1v9m0 1v9m0 271v9m1-289v9m0 1v9m1 1v9m0 1v9m1 1v9m2 41v9m1-9v9m0 1v9m0 1v9m1-9v9m0 1v9m1-19v9m0 11v9m3 311v9m1-219v9m0 201v9m1-199v9m1 21v9m1 11v9m0 1v9m0 51v9m2-19v9m1 81v9m3-9v9m4 41v9m1 11v9m1 41v9m0 121v9m1-149v9m0 1v9m1 21v9m0 1v9m0 31v9m1-49v9m1 1v9m0 61v9m1-89v9m0 1v9m0 1v9m0 21v9m0 1v9m1 1v9m1 11v9m3 21v9m0 11v9m0 1v9m1 1v9m1 11v9m2 61v9" transform="matrix(1 0 0 .1 .45 .9)" stroke="#33f"/>
    <path id="path46" d="m7 81v9m0 1v9m1 21v9m1-19v9m0 1v9m3-39v9m1 11v9m0 41v9m1-49v9m0 51v9m1-59v9m0 61v9m1 21v9m1 1v9m1 21v9m1 1v9m1 21v9m1-19v9m2 1v9m1 11v9m1-9v9m1 21v9m2 41v9m1-139v9m0 131v9m0 1v9m1 11v9m1 1v9m1 11v9m0 1v9m1 1v9m1 11v9m1 1v9m1 1v9m1-9v9m0 1v9m1-189v9m0 1v9m1-9v9m0 31v9m0 131v9m0 1v9m1-189v9m0 1v9m0 181v9m1-189v9m0 1v9m0 161v9m0 1v9m0 11v9m1-219v9m0 1v9m0 201v9m0 1v9m1-209v9m0 191v9m1-189v9m1-9v9m0 191v9m1-209v9m0 1v9m0 221v9m1-229v9m0 171v9m0 31v9m0 1v9m1-229v9m0 231v9m1-239v9m0 231v9m0 21v9m1-269v9m0 1v9m1 21v9m0 1v9m1-9v9m1 11v9m0 1v9m0 1v9m0 231v9m2-249v9m0 1v9m1-9v9m0 1v9m0 251v9m1-259v9m0 1v9m0 241v9m1-259v9m0 1v9m0 241v9m0 1v9m1-269v9m0 11v9m0 221v9m0 11v9m0 1v9m1-269v9m0 1v9m0 251v9m0 1v9m1-269v9m0 1v9m0 251v9m1-279v9m0 1v9m0 1v9m0 251v9m0 1v9m1-269v9m0 261v9m0 1v9m1-279v9m0 1v9m0 261v9m1-269v9m0 21v9m0 231v9m1-269v9m0 1v9m0 261v9m1-269v9m0 1v9m0 1v9m0 251v9m0 1v9m1-289v9m0 1v9m1 1v9m0 1v9m0 11v9m1-29v9m1 21v9m1 1v9m1 11v9m1 1v9m0 1v9m1 1v9m0 1v9m0 11v9m1-29v9m0 1v9m0 1v9m0 271v9m0 1v9m1-309v9m0 1v9m0 1v9m0 1v9m0 1v9m0 1v9m0 211v9m0 1v9m1-249v9m1 11v9m0 1v9m1-9v9m0 11v9m1-39v9m0 11v9m1 1v9m0 1v9m1 21v9m1 31v9m0 1v9m1 1v9m0 1v9m1 1v9m0 1v9m0 161v9m1-159v9m0 261v9m1-249v9m0 1v9m1 21v9m10 161v9m1 21v9m1 11v9m2 71v9m0 1v9m1-39v9m0 11v9m2 31v9m2 11v9m0 1v9m1-9v9m1 31v9m0 1v9m0 31v9m1-29v9m1 11v9" transform="matrix(1 0 0 .1 .45 .9)" stroke="#2d46f9"/>
    <path id="path48" d="m4 61v9m2-39v9m2 61v9m0 1v9m1-19v9m1-29v9m1 1v9m1 1v9m3 71v9m1 31v9m2 31v9m1 1v9m1 11v9m0 1v9m1-19v9m3 21v9m3 21v9m1 21v9m0 1v9m0 1v9m1 1v9m1 1v9m0 11v9m1 1v9m1-139v9m0 141v9m1-19v9m0 11v9m0 1v9m1-159v9m0 161v9m1-169v9m0 161v9m1-179v9m0 1v9m1 1v9m1 181v9m1-179v9m0 1v9m1 161v9m1-149v9m1-9v9m0 1v9m1 1v9m0 101v9m0 61v9m1-189v9m0 191v9m1-189v9m0 161v9m0 1v9m1-179v9m0 201v9m1-209v9m1 1v9m0 211v9m1-219v9m0 1v9m0 191v9m0 21v9m1-229v9m1 31v9m0 1v9m0 231v9m1-259v9m0 1v9m0 231v9m0 1v9m1-9v9m1-249v9m0 1v9m0 241v9m1-239v9m0 51v9m0 161v9m1-229v9m0 1v9m0 211v9m0 1v9m1-229v9m0 1v9m0 201v9m0 1v9m1-229v9m0 11v9m1 221v9m1-229v9m0 1v9m0 211v9m0 1v9m1-229v9m0 1v9m0 211v9m0 1v9m1-239v9m0 231v9m1-239v9m0 1v9m0 1v9m0 41v9m0 161v9m0 1v9m1-239v9m0 1v9m0 231v9m1-239v9m0 11v9m0 1v9m0 191v9m0 1v9m1-239v9m0 1v9m0 231v9m1 1v9m0 1v9m1-249v9m0 1v9m0 1v9m0 231v9m1 1v9m0 1v9m1-249v9m1 1v9m0 1v9m0 241v9m1-259v9m0 1v9m0 251v9m0 1v9m1-269v9m0 1v9m0 1v9m0 221v9m1-239v9m0 1v9m1 1v9m0 11v9m0 201v9m1-219v9m0 1v9m1 21v9m0 1v9m0 231v9m1-269v9m0 1v9m0 1v9m0 231v9m1-239v9m0 1v9m0 191v9m0 21v9m1-249v9m0 11v9m1-19v9m0 1v9m0 1v9m1-9v9m0 1v9m1 11v9m1 181v9m2 131v9m1-229v9m0 1v9m0 121v9m0 91v9m0 1v9m1-219v9m0 1v9m0 81v9m0 111v9m0 1v9m7-119v9m0 1v9m2 11v9m2 41v9m0 1v9m1 21v9m1 1v9m1 61v9m1-49v9m0 1v9m0 1v9m2-9v9m0 41v9m1 11v9m0 11v9m1-29v9m0 41v9m2-29v9m0 1v9m1 31v9m5 51v9m0 1v9" transform="matrix(1 0 0 .1 .45 .9)" stroke="#2659f2"/>
    <path id="path50" d="m8 51v9m1 11v9m1 41v9m1 1v9m4 51v9m2 21v9m0 1v9m4-39v9m1 91v9m1-19v9m0 1v9m2 1v9m0 1v9m0 11v9m1 1v9m1-99v9m2 21v9m0 101v9m1-109v9m0 121v9m1-129v9m0 121v9m1-139v9m0 141v9m1-139v9m0 131v9m1-149v9m0 161v9m1-149v9m0 131v9m0 1v9m1 11v9m1-159v9m0 31v9m0 101v9m1 11v9m1-149v9m1-9v9m0 1v9m1 11v9m1 151v9m0 1v9m0 1v9m1-169v9m0 121v9m0 21v9m1-149v9m0 151v9m1-169v9m0 141v9m1 41v9m1-189v9m0 181v9m1-189v9m0 1v9m0 181v9m1-189v9m0 161v9m0 21v9m1-199v9m0 251v9m0 1v9m1-229v9m0 1v9m2 1v9m0 201v9m1-219v9m0 1v9m0 211v9m1-219v9m0 1v9m0 51v9m0 131v9m2-179v9m0 1v9m0 171v9m1-199v9m0 201v9m0 1v9m1-209v9m0 1v9m0 1v9m0 1v9m1-19v9m0 1v9m1 1v9m0 61v9m0 121v9m1-209v9m0 1v9m1 21v9m0 1v9m0 171v9m1-199v9m0 201v9m0 1v9m2-199v9m0 211v9m1-219v9m0 1v9m0 1v9m0 191v9m1-199v9m0 191v9m0 11v9m1-219v9m0 1v9m0 201v9m1-219v9m0 1v9m0 221v9m1-229v9m0 1v9m0 211v9m1-229v9m0 1v9m0 11v9m1-9v9m0 1v9m1-9v9m0 1v9m1 11v9m1 1v9m0 1v9m1 21v9m0 1v9m1-19v9m0 1v9m1 1v9m0 1v9m0 181v9m0 1v9m1-209v9m0 1v9m0 221v9m1-239v9m0 1v9m0 211v9m1-229v9m0 1v9m0 241v9m1-249v9m0 1v9m0 231v9m0 1v9m1-229v9m0 141v9m1-139v9m0 1v9m0 171v9m0 21v9m0 1v9m1-219v9m0 1v9m0 151v9m0 71v9m1-219v9m0 1v9m0 31v9m0 121v9m0 11v9m0 1v9m1-89v9m1-19v9m0 111v9m0 1v9m3-119v9m1-9v9m1-9v9m1 11v9m1-19v9m0 11v9m1 11v9m1 1v9m0 1v9m1 21v9m0 1v9m1 11v9m1 1v9m1 11v9m0 1v9m0 91v9m2-59v9m1-9v9m1 91v9m2-49v9m0 1v9m0 11v9m3 31v9m1 21v9m3 21v9" transform="matrix(1 0 0 .1 .45 .9)" stroke="#206cec"/>
    <path id="path52" d="m8 61v9m2 61v9m3 1v9m2-9v9m1 51v9m3 51v9m2 11v9m1 1v9m1-19v9m1 11v9m1-69v9m4 111v9m0 11v9m0 1v9m1-109v9m1 21v9m0 101v9m2-99v9m1 11v9m0 121v9m1-129v9m0 111v9m1-119v9m0 131v9m1-139v9m0 121v9m1-139v9m0 1v9m3 41v9m0 111v9m1-119v9m1 1v9m0 1v9m0 91v9m1-119v9m0 141v9m0 1v9m1-149v9m0 81v9m1-99v9m0 1v9m0 151v9m0 1v9m1-169v9m0 1v9m0 151v9m1 11v9m1-169v9m0 1v9m0 121v9m0 21v9m1-169v9m0 1v9m0 221v9m1-179v9m0 171v9m0 1v9m1-229v9m0 1v9m1 21v9m0 41v9m1-59v9m0 181v9m1-179v9m0 1v9m0 51v9m1-79v9m0 1v9m0 11v9m1 1v9m0 1v9m1-19v9m0 1v9m0 151v9m1-69v9m0 71v9m0 1v9m2-159v9m0 1v9m0 1v9m0 1v9m0 131v9m0 1v9m1-179v9m0 1v9m1 21v9m1-19v9m0 1v9m0 161v9m1 11v9m0 1v9m1-189v9m0 1v9m1 11v9m0 151v9m0 1v9m0 1v9m1-179v9m0 191v9m1-189v9m0 1v9m0 51v9m0 111v9m1-189v9m0 1v9m0 1v9m0 181v9m1-199v9m0 1v9m0 1v9m0 11v9m0 141v9m0 1v9m1-199v9m0 21v9m0 11v9m0 151v9m0 1v9m1-199v9m0 1v9m0 171v9m1-189v9m0 1v9m1 1v9m0 1v9m0 51v9m1-59v9m0 1v9m0 1v9m0 181v9m1-179v9m1-9v9m0 181v9m2-169v9m0 1v9m0 161v9m0 11v9m1-199v9m0 1v9m0 1v9m0 141v9m0 1v9m0 1v9m0 1v9m1-199v9m0 1v9m1 1v9m0 1v9m0 1v9m0 141v9m1-149v9m0 191v9m1-179v9m0 171v9m0 1v9m1-179v9m0 191v9m1-169v9m0 1v9m0 91v9m0 21v9m0 1v9m0 11v9m1-159v9m0 151v9m0 11v9m0 1v9m1-109v9m0 61v9m0 11v9m0 1v9m0 21v9m1-9v9m1-129v9m0 111v9m0 11v9m1-9v9m1-139v9m0 1v9m0 121v9m0 1v9m1-159v9m1 11v9m0 1v9m0 11v9m0 121v9m1-159v9m1-29v9m0 31v9m0 11v9m0 1v9m0 121v9m1-149v9m0 1v9m1 141v9m1-109v9m1 1v9m0 1v9m0 91v9m1-89v9m1 31v9m2 11v9m1 51v9m3-99v9m2 141v9m2 1v9m0 1v9" transform="matrix(1 0 0 .1 .45 .9)" stroke="#1a80e6"/>
    <path id="path54" d="m0 1v9m7 41v9m5 81v9m1 1v9m5 81v9m0 1v9m1-79v9m1 91v9m2-9v9m2 21v9m2-59v9m0 71v9m1-9v9m2-29v9m2 1v9m0 81v9m2-79v9m0 91v9m2-39v9m1-59v9m1 131v9m1 21v9m1-119v9m0 111v9m1-119v9m1 11v9m1-19v9m0 21v9m0 91v9m0 1v9m1-29v9m0 31v9m2-119v9m0 11v9m0 91v9m2-99v9m0 1v9m1-19v9m0 1v9m1 11v9m1 1v9m0 201v9m1-179v9m1-9v9m0 1v9m1 11v9m1-9v9m0 181v9m1-169v9m0 151v9m1-169v9m0 21v9m0 141v9m1-149v9m0 1v9m0 31v9m0 11v9m0 61v9m1-139v9m0 141v9m1-149v9m0 21v9m0 101v9m1-149v9m0 1v9m0 151v9m0 1v9m1-139v9m0 111v9m1-139v9m0 21v9m0 131v9m0 1v9m2 11v9m1-19v9m1-139v9m0 161v9m0 1v9m1-169v9m0 1v9m0 21v9m1-39v9m1 21v9m0 1v9m0 131v9m0 1v9m1-139v9m0 11v9m0 131v9m1-159v9m0 21v9m0 111v9m1-159v9m1 21v9m0 151v9m1-159v9m0 1v9m0 151v9m1-159v9m0 1v9m0 1v9m0 1v9m0 121v9m1-139v9m0 151v9m1-149v9m0 141v9m1-159v9m1 1v9m0 1v9m0 1v9m0 1v9m1-9v9m0 161v9m1-159v9m1-9v9m0 1v9m0 1v9m0 171v9m1-179v9m0 1v9m0 161v9m0 1v9m1-189v9m0 1v9m0 1v9m1 1v9m0 1v9m1 1v9m0 1v9m0 181v9m1-59v9m2 61v9m1-79v9m0 91v9m0 21v9m1-39v9m0 1v9m1-109v9m1 21v9m0 81v9m0 1v9m1-129v9m1 21v9m0 121v9m2-89v9m0 101v9m1-119v9m0 121v9m1-119v9m2 41v9m3 61v9m1 1v9m1 31v9m3 51v9m2 11v9" transform="matrix(1 0 0 .1 .45 .9)" stroke="#1393df"/>
    <path id="path56" d="m6 41v9m11 111v9m0 31v9m2 31v9m0 1v9m4-29v9m1 1v9m1 1v9m4 41v9m1 11v9m1 51v9m1-49v9m1 11v9m1-19v9m0 121v9m1-109v9m0 91v9m2-89v9m0 1v9m0 81v9m1-89v9m1 11v9m0 91v9m1-119v9m1 121v9m2 31v9m1-119v9m1 11v9m0 91v9m1-109v9m0 1v9m1 141v9m1 11v9m1-129v9m0 41v9m0 61v9m1-119v9m0 11v9m1 21v9m0 141v9m0 1v9m1 11v9m1-169v9m0 81v9m0 51v9m1-159v9m0 1v9m1 21v9m0 41v9m0 71v9m1 11v9m2-139v9m1 21v9m0 1v9m0 81v9m0 11v9m1-119v9m0 1v9m1 21v9m1-19v9m0 131v9m1 11v9m0 1v9m1-159v9m1 161v9m1-139v9m1 21v9m0 21v9m0 1v9m0 41v9m1-99v9m0 1v9m0 11v9m1 1v9m0 1v9m1-19v9m0 41v9m1-19v9m0 101v9m1-119v9m1 11v9m0 1v9m0 121v9m1-129v9m0 1v9m0 31v9m0 101v9m1-129v9m1-9v9m0 151v9m2-149v9m0 141v9m1-119v9m0 1v9m0 101v9m1-129v9m0 1v9m0 161v9m1-169v9m0 1v9m1 1v9m0 1v9m0 131v9m0 21v9m1-169v9m0 1v9m0 121v9m0 1v9m1-139v9m0 1v9m1 1v9m0 1v9m1 1v9m0 1v9m0 21v9m0 81v9m0 11v9m1-129v9m0 101v9m1 21v9m2-39v9m0 61v9m0 21v9m1-109v9m0 71v9m1 21v9m0 21v9m1-129v9m0 11v9m1-29v9m0 1v9m0 11v9m1 91v9m0 1v9m1-119v9m0 131v9m2-99v9m0 1v9m1 11v9m1 1v9m1 21v9m0 1v9m0 51v9m1 1v9m1-39v9m2 21v9m2 61v9m6 51v9" transform="matrix(1 0 0 .1 .45 .9)" stroke="#0da6d9"/>
    <path id="path58" d="m9 81v9m5 71v9m3 41v9m1 1v9m3 41v9m4 21v9m2 21v9m1 21v9m3-9v9m1-39v9m0 81v9m0 21v9m1-19v9m1 11v9m1-79v9m0 71v9m1-79v9m0 91v9m2-99v9m0 111v9m2-79v9m1 1v9m0 71v9m2-69v9m1 1v9m1 91v9m2-59v9m0 1v9m1-19v9m0 1v9m1 11v9m0 71v9m0 1v9m1 81v9m0 1v9m1-139v9m1-19v9m0 1v9m0 151v9m1-149v9m0 1v9m0 101v9m1-109v9m2 1v9m0 21v9m0 91v9m1-99v9m0 101v9m2-79v9m0 1v9m1 11v9m0 71v9m1-9v9m1-99v9m3 11v9m0 1v9m1 21v9m0 121v9m1-109v9m0 41v9m0 1v9m1-59v9m0 41v9m1-19v9m1-9v9m0 121v9m0 1v9m2 21v9m1-109v9m0 31v9m1-39v9m0 1v9m2 11v9m1 1v9m0 121v9m1-129v9m0 1v9m0 1v9m3 41v9m0 1v9m1 1v9m0 1v9m1 1v9m0 1v9m0 91v9m1-89v9m1 1v9m0 1v9m1 1v9m0 131v9m2 31v9m1-29v9m2 71v9m1-119v9m1 91v9m2-59v9m0 1v9m0 61v9m1-89v9m0 101v9m1 1v9m1 21v9m1-79v9m1 51v9m1-19v9m0 21v9m1-19v9m1 51v9m1-39v9m1 11v9m1 31v9m1-9v9m0 1v9m1 1v9" transform="matrix(1 0 0 .1 .45 .9)" stroke="#06b9d2"/>
    <path id="path60" d="m16 211v9m5-9v9m1 1v9m4 21v9m3 51v9m1 81v9m1 1v9m3-39v9m1 51v9m1 61v9m1-89v9m0 1v9m2 1v9m0 61v9m3-59v9m1 21v9m1 91v9m2-69v9m0 91v9m1-9v9m0 1v9m1-79v9m0 91v9m1-99v9m0 1v9m1-19v9m1 51v9m0 1v9m0 101v9m2 31v9m2-109v9m2 21v9m0 1v9m0 71v9m1-109v9m0 1v9m1 41v9m0 51v9m1-89v9m0 1v9m5 41v9m0 1v9m1 11v9m0 31v9m1 11v9m0 61v9m1-79v9m0 91v9m1-69v9m0 61v9m2 31v9m1 31v9m1-129v9m0 21v9m0 71v9m2 31v9m2-89v9m0 101v9m2-69v9m0 1v9m1-19v9m1 31v9m0 1v9m0 1v9m1 81v9m2-79v9m0 21v9m1 1v9m0 1v9m0 1v9m4 81v9m0 31v9m2 31v9m3 51v9m2-69v9m1 21v9m0 1v9m0 51v9m1-49v9m1 11v9m0 51v9m1-69v9m0 21v9m1 11v9m2 21v9m0 1v9m1 31v9m1-9v9" transform="matrix(1 0 0 .1 .45 .9)" stroke="#0cc"/>
    <path id="path62" d="m11 121v9m1 21v9m7 61v9m0 1v9m5-9v9m3 31v9m2 61v9m1-39v9m0 61v9m1-49v9m0 51v9m1 31v9m1-69v9m0 31v9m2-29v9m1-19v9m2 121v9m1-69v9m0 61v9m1-89v9m0 101v9m1-89v9m0 51v9m4-9v9m1 71v9m0 21v9m5 101v9m2-79v9m0 61v9m0 21v9m1-129v9m0 21v9m0 91v9m3-39v9m1-19v9m1 51v9m3 101v9m1-9v9m1 1v9m1-99v9m0 1v9m0 11v9m1-9v9m2 71v9m4 1v9m0 1v9m0 11v9m1 1v9m1 101v9m1-79v9m0 61v9m0 1v9m1-89v9m0 1v9m1 1v9m0 1v9m0 1v9m1 1v9m0 71v9m0 21v9m1-89v9m0 61v9m1-89v9m1 51v9m1-19v9m0 1v9m0 101v9m1-109v9m0 1v9m3 31v9m4 151v9m1-49v9m1 101v9m2-89v9m0 101v9m1-79v9m0 41v9m5 21v9m0 21v9m3 51v9m0 1v9m1-19v9m0 1v9" transform="matrix(1 0 0 .1 .45 .9)" stroke="#07d3aa"/>
    <path id="path64" d="m21 221v9m0 21v9m0 1v9m7 11v9m0 81v9m1-9v9m1 31v9m1-69v9m1 1v9m1 1v9m0 51v9m2-29v9m0 41v9m1-49v9m2 11v9m1 21v9m0 21v9m1-29v9m2 71v9m2-49v9m1 61v9m1-69v9m3 71v9m2 51v9m0 21v9m1 71v9m0 1v9m3-69v9m1-29v9m1 101v9m1-79v9m0 21v9m0 51v9m2-59v9m1 71v9m0 11v9m1 1v9m2-89v9m1 41v9m1 111v9m2-89v9m0 111v9m1-89v9m0 61v9m1-79v9m1 11v9m0 1v9m2 41v9m2 21v9m1 91v9m1-69v9m1 11v9m0 101v9m1-99v9m0 31v9m0 1v9m1-59v9m0 11v9m1 21v9m1 1v9m6 141v9m1 1v9m2 1v9m0 21v9m2 31v9m0 1v9m1 61v9m1-89v9m1 101v9m1-79v9m1-19v9m1 31v9m1 1v9m5 91v9" transform="matrix(1 0 0 .1 .45 .9)" stroke="#0eda88"/>
    <path id="path66" d="m20 261v9m5-9v9m3 1v9m4 101v9m2-19v9m9 141v9m4 51v9m0 41v9m3 101v9m1-69v9m0 61v9m1-109v9m0 1v9m1 31v9m0 61v9m1 1v9m1-39v9m0 1v9m1-29v9m4 111v9m3-59v9m0 1v9m1 11v9m1 41v9m0 1v9m0 41v9m3 41v9m1-39v9m1 61v9m1-59v9m0 1v9m2 81v9m5-9v9m1 61v9m4 51v9m1-19v9m2 131v9m2-19v9m1 1v9m3 21v9m0 51v9m1-49v9m1 101v9m3-49v9m2 91v9" transform="matrix(1 0 0 .1 .45 .9)" stroke="#14e066"/>
    <path id="path68" d="m15 161v9m0 1v9m3 1v9m5 51v9m1 11v9m9 131v9m4 51v9m0 11v9m1-59v9m3 91v9m4-9v9m1 21v9m5 171v9m1 11v9m1-49v9m1-9v9m1 71v9m1 21v9m2-19v9m1 1v9m4-9v9m0 81v9m7 51v9m4 41v9m2 101v9m1-39v9m0 1v9m4 71v9m2 1v9m5 141v9m2-9v9m0 61v9m1-59v9m0 21v9m1-49v9m4 51v9m0 1v9m2 91v9m1-19v9m2 41v9" transform="matrix(1 0 0 .1 .45 .9)" stroke="#1be744"/>
    <path id="path70" d="m4 21v9m12 151v9m5 51v9m5 71v9m1-49v9m0 11v9m6 81v9m4 51v9m1 1v9m0 31v9m1-29v9m0 21v9m1-49v9m0 61v9m3-39v9m1 61v9m3-19v9m1 81v9m1-29v9m1-29v9m1 91v9m1 11v9m1-39v9m8 141v9m2-29v9m0 1v9m1-49v9m1 121v9m4 31v9m3 31v9m0 51v9m1-9v9m1 11v9m0 21v9m1-69v9m1 1v9m4 131v9m14 191v9m4 121v9m1-9v9m1 1v9m1-9v9" transform="matrix(1 0 0 .1 .45 .9)" stroke="#2e2"/>
    <path id="path72" d="m20 241v9m3 1v9m2 21v9m2 1v9m3 41v9m2 1v9m2 41v9m13 211v9m3 91v9m2-49v9m6 111v9m0 41v9m3-49v9m0 1v9m1-9v9m2 31v9m0 11v9m2 31v9m3 71v9m2 41v9m3 1v9m1 11v9m2 71v9m2-19v9m5 91v9m12 191v9m1 51v9m1-29v9m1 41v9" transform="matrix(1 0 0 .1 .45 .9)" stroke="#4bee1b"/>
    <path id="path74" d="m11 101v9m15 171v9m18 321v9m1-59v9m3 31v9m3 121v9m4 41v9m6 61v9m8 151v9m2-9v9m1-29v9m1 51v9m11 171v9m6 131v9m3 31v9m1-9v9m4 111v9m1-69v9m0 41v9" transform="matrix(1 0 0 .1 .45 .9)" stroke="#74ee14"/>
    <path id="path76" d="m27 321v9m18 221v9m16 281v9m2 51v9m0 1v9m8 101v9m5 141v9m5 41v9m7 161v9m9 101v9" transform="matrix(1 0 0 .1 .45 .9)" stroke="#9cee0e"/>
    <path id="path78" d="m1 11v9m35 461v9m2 21v9m17 291v9m1-59v9m5 61v9m2 41v9m19 381v9m7 91v9m5 81v9m2-9v9m0 1v9m2 31v9" transform="matrix(1 0 0 .1 .45 .9)" stroke="#c5ee07"/>
    <path id="path80" d="m18 231v9m4-29v9m6 121v9m22 351v9m12 171v9m1-29v9m1-39v9m1 71v9m13 221v9m5 81v9m9 151v9m2 31v9" transform="matrix(1 0 0 .1 .45 .9)" stroke="#ee0"/>
    <path id="path82" d="m14 171v9m4 21v9m47 711v9m12 211v9m7 91v9m11 211v9" transform="matrix(1 0 0 .1 .45 .9)" stroke="#eed600"/>
    <path id="path84" d="m41 491v9m6 101v9m33 521v9m15 311v9m3 41v9m0 11v9" transform="matrix(1 0 0 .1 .45 .9)" stroke="#eebe00"/>
    <path id="path86" d="m67 981v9m21 381v9m9 111v9" transform="matrix(1 0 0 .1 .45 .9)" stroke="#eea700"/>
    <path id="path88" d="m6 71v9m36 421v9m25 441v9m23 421v9m4 61v9m1 11v9m1 1v9m0 1v9m0 31v9" transform="matrix(1 0 0 .1 .45 .9)" stroke="#ee8f00"/>
    <path id="path90" d="m41 521v9m53 911v9" transform="matrix(1 0 0 .1 .45 .9)" stroke="#e70"/>
    <path id="path92" d="m28 301v9m29 481v9m25 391v9m8 191v9m1-9v9" transform="matrix(1 0 0 .1 .45 .9)" stroke="#ee5f00"/>
    <path id="path94" d="m17 181v9m3 11v9m14 231v9m2-9v9m7 101v9m7 191v9m25 341v9m17 291v9m0 1v9m1 1v9" transform="matrix(1 0 0 .1 .45 .9)" stroke="#ee4700"/>
    <path id="path96" d="m13 121v9m70 1111v9m11 221v9m2 31v9" transform="matrix(1 0 0 .1 .45 .9)" stroke="#ee3000"/>
    <path id="path98" d="m4 51v9m22 271v9m14 181v9m15 261v9m9 51v9m2 11v9m17 381v9m10 161v9" transform="matrix(1 0 0 .1 .45 .9)" stroke="#ee1800"/>
    <path id="path100" d="m25 271v9m18 251v9m0 1v9m3 51v9m26 481v9" transform="matrix(1 0 0 .1 .45 .9)" stroke="#e00"/>
    <path id="path102" d="m53 751v9m29 461v9m10 201v9m4 61v9" transform="matrix(1 0 0 .1 .45 .9)" stroke="#e70000"/>
    <path id="path104" d="m41 501v9m53 981v9" transform="matrix(1 0 0 .1 .45 .9)" stroke="#e00000"/>
    <path id="path106" d="m62 831v9" transform="matrix(1 0 0 .1 .45 .9)" stroke="#d90000"/>
    <path id="path108" d="m92 1421v9" transform="matrix(1 0 0 .1 .45 .9)" stroke="#d30000"/>
    <path id="path110" d="m19 201v9" transform="matrix(1 0 0 .1 .45 .9)" stroke="#c00"/>
    <path id="path112" d="m92 1451v9" transform="matrix(1 0 0 .1 .45 .9)" stroke="#c50000"/>
    <path id="path114" d="m90 1411v9" transform="matrix(1 0 0 .1 .45 .9)" stroke="#be0000"/>
    <path id="path116" d="m37 491v9m34 541v9m4 61v9" transform="matrix(1 0 0 .1 .45 .9)" stroke="#b70000"/>
    <path id="path118" d="m57 801v9m5 31v9" transform="matrix(1 0 0 .1 .45 .9)" stroke="#b00000"/>
    <path id="path120" d="m78 1111v9" transform="matrix(1 0 0 .1 .45 .9)" stroke="#a90000"/>
    <path id="path122" d="m58 771v9m0 11v9m18 271v9" transform="matrix(1 0 0 .1 .45 .9)" stroke="#8e0000"/>
    <path id="path124" d="m54 691v9m10 171v9" transform="matrix(1 0 0 .1 .45 .9)" stroke="#870000"/>
    <path id="path126" d="m20 251v9m0 11v9m3-19v9m1-19v9m6 131v9m6 11v9m4 131v9m2 11v9m6 61v9m0 21v9m1-29v9m3 41v9m0 41v9m0 11v9m2 11v9m0 11v9m2-69v9m2 71v9m2-9v9m0 51v9m2-49v9m1 11v9m1 71v9m8 51v9m1 41v9m1-19v9m0 11v9m0 1v9m0 1v9m0 11v9m2-29v9m6 111v9" transform="matrix(1 0 0 .1 .45 .9)" stroke="#800000"/>
    <path id="path128" d="m1-9v9m0 1v9m1-9v9m0 1v9m1 1v9m0 1v9m1 1v9m1-9v9m0 1v9m1-9v9m0 1v9m1-9v9m0 1v9m1-9v9m0 1v9m0 1v9m1-9v9m1-9v9m0 1v9m0 1v9m1-9v9m1-9v9m0 1v9m0 1v9m1-9v9m1-9v9m0 1v9m0 1v9m1-9v9m1-9v9m0 1v9m0 1v9m0 11v9m1-29v9m0 11v9m1-29v9m0 11v9m0 11v9m1-29v9m0 11v9m1-9v9m0-29v9m0 20m0 1v9m0 1v9m1-9v9m1-9v9m0 1v9m0 1v9m0 1v9m0 1v9m1-9v9m1-9v9m0 1v9m0 1v9m1-9v9m1-29v9m0 11v9m0 1v9m0 1v9m1-9v9m1-29v9m0 11v9m0 1v9m0 1v9m0 11v9m1-29v9m0 11v9m1-29v9m0 11v9m0 1v9m0 1v9m1-9v9m0 11v9m1-29v9m0 11v9m0 1v9m0 1v9m0 11v9m1-29v9m1-29v9m0 11v9m0 1v9m0 1v9m0 11v9m0 11v9m1-49v9m0 11v9m1-29v9m0 11v9m0 1v9m0 1v9m0 11v9m1-29v9m1-29v9m0 11v9m0 1v9m0 1v9m1-9v9m1-9v9m0 1v9m0 1v9m0 11v9m1-29v9m1-29v9m0 11v9m0 1v9m0 1v9m0 1v9m0 1v9m2-49v9m0 11v9m0 1v9m0 1v9m0 1v9m0 1v9m0 11v9m1-29v9m1-29v9m0 11v9m0 1v9m0 1v9m0 11v9m0 11v9m1-49v9m0 11v9m1-49v9m0 11v9m0 11v9m0 1v9m0 1v9m0 11v9m1-29v9m1-29v9m0 11v9m0 1v9m0 1v9m0 1v9m0 1v9m0 1v9m0 1v9m0 11v9m0 11v9m1-49v9m0 11v9m1-49v9m0 11v9m0 11v9m0 1v9m0 1v9m1-9v9m1-29v9m0 11v9m0 1v9m0 1v9m0 1v9m0 1v9m1-9v9m1-49v9m0 31v9m0 1v9m0 1v9m0 1v9m0 1v9m1-9v9m1-9v9m1-9v9m1-9v9m0 1v9m0 11v9m0 1v9m0 11v9m2-69v9m0 41v9m0 1v9m0 11v9m0 11v9m1-29v9m1-9v9m0 1v9m0 1v9m0 1v9m0 1v9m1-9v9m1-49v9m0 11v9m0 11v9m0 1v9m0 1v9m0 1v9m0 1v9m1-9v9m1-49v9m0 11v9m0 11v9m0 1v9m0 1v9m0 11v9m1-29v9m1-29v9m0 11v9m0 1v9m0 1v9m0 1v9m0 1v9m0 11v9m1-29v9m1-9v9m0 1v9m0 1v9m0 1v9m0 1v9m1-9v9m2 11v9m1 1v9m0 1v9m0 1v9m0 1v9m0 11v9m1-29v9m0 11v9m1-29v9m0 11v9m0 1v9m0 1v9m0 11v9m1-29v9m1-29v9m0 11v9m0 1v9m0 1v9m0 1v9m0 1v9m0 11v9m1-29v9m0 11v9m1-9v9m0 1v9m0 1v9m1-9v9" transform="matrix(1 0 0 .1 .45 .9)" stroke="#300000"/>
  </g>
  <rect id="rect130" height="713" width="477" stroke="#000" y=".5" x="30.891" fill="none"/>
  <g id="g132" transform="translate(-8.609,-15)">
    <rect id="rect134" height="11" width="25" y="16" x="530" fill="#300000"/>
    <rect id="rect136" height="11" width="25" y="27" x="530" fill="#800000"/>
    <rect id="rect138" height="11" width="25" y="38" x="530" fill="#870000"/>
    <rect id="rect140" height="11" width="25" y="49" x="530" fill="#8e0000"/>
    <rect id="rect142" height="12" width="25" y="60" x="530" fill="#950000"/>
    <rect id="rect144" height="11" width="25" y="72" x="530" fill="#9c0000"/>
    <rect id="rect146" height="11" width="25" y="83" x="530" fill="#a20000"/>
    <rect id="rect148" height="11" width="25" y="94" x="530" fill="#a90000"/>
    <rect id="rect150" height="11" width="25" y="105" x="530" fill="#b00000"/>
    <rect id="rect152" height="11" width="25" y="116" x="530" fill="#b70000"/>
    <rect id="rect154" height="11" width="25" y="127" x="530" fill="#be0000"/>
    <rect id="rect156" height="11" width="25" y="138" x="530" fill="#c50000"/>
    <rect id="rect158" height="11" width="25" y="149" x="530" fill="#c00"/>
    <rect id="rect160" height="12" width="25" y="160" x="530" fill="#d30000"/>
    <rect id="rect162" height="11" width="25" y="172" x="530" fill="#d90000"/>
    <rect id="rect164" height="11" width="25" y="183" x="530" fill="#e00000"/>
    <rect id="rect166" height="11" width="25" y="194" x="530" fill="#e70000"/>
    <rect id="rect168" height="11" width="25" y="205" x="530" fill="#e00"/>
    <rect id="rect170" height="11" width="25" y="216" x="530" fill="#ee1800"/>
    <rect id="rect172" height="11" width="25" y="227" x="530" fill="#ee3000"/>
    <rect id="rect174" height="11" width="25" y="238" x="530" fill="#ee4700"/>
    <rect id="rect176" height="11" width="25" y="249" x="530" fill="#ee5f00"/>
    <rect id="rect178" height="12" width="25" y="260" x="530" fill="#e70"/>
    <rect id="rect180" height="11" width="25" y="272" x="530" fill="#ee8f00"/>
    <rect id="rect182" height="11" width="25" y="283" x="530" fill="#eea700"/>
    <rect id="rect184" height="11" width="25" y="294" x="530" fill="#eebe00"/>
    <rect id="rect186" height="11" width="25" y="305" x="530" fill="#eed600"/>
    <rect id="rect188" height="11" width="25" y="316" x="530" fill="#ee0"/>
    <rect id="rect190" height="11" width="25" y="327" x="530" fill="#c5ee07"/>
    <rect id="rect192" height="11" width="25" y="338" x="530" fill="#9cee0e"/>
    <rect id="rect194" height="11" width="25" y="349" x="530" fill="#74ee14"/>
    <rect id="rect196" height="12" width="25" y="360" x="530" fill="#4bee1b"/>
    <rect id="rect198" height="11" width="25" y="372" x="530" fill="#2e2"/>
    <rect id="rect200" height="11" width="25" y="383" x="530" fill="#1be744"/>
    <rect id="rect202" height="11" width="25" y="394" x="530" fill="#14e066"/>
    <rect id="rect204" height="11" width="25" y="405" x="530" fill="#0eda88"/>
    <rect id="rect206" height="11" width="25" y="416" x="530" fill="#07d3aa"/>
    <rect id="rect208" height="11" width="25" y="427" x="530" fill="#0cc"/>
    <rect id="rect210" height="11" width="25" y="438" x="530" fill="#06b9d2"/>
    <rect id="rect212" height="11" width="25" y="449" x="530" fill="#0da6d9"/>
    <rect id="rect214" height="11" width="25" y="460" x="530" fill="#1393df"/>
    <rect id="rect216" height="12" width="25" y="471" x="530" fill="#1a80e6"/>
    <rect id="rect218" height="11" width="25" y="483" x="530" fill="#206cec"/>
    <rect id="rect220" height="11" width="25" y="494" x="530" fill="#2659f2"/>
    <rect id="rect222" height="11" width="25" y="505" x="530" fill="#2d46f9"/>
    <rect id="rect224" height="11" width="25" y="516" x="530" fill="#33f"/>
    <rect id="rect226" height="11" width="25" y="527" x="530" fill="#3e3eff"/>
    <rect id="rect228" height="11" width="25" y="538" x="530" fill="#4a4aff"/>
    <rect id="rect230" height="11" width="25" y="549" x="530" fill="#55f"/>
    <rect id="rect232" height="11" width="25" y="560" x="530" fill="#6060ff"/>
    <rect id="rect234" height="12" width="25" y="571" x="530" fill="#6c6cff"/>
    <rect id="rect236" height="11" width="25" y="583" x="530" fill="#77f"/>
    <rect id="rect238" height="11" width="25" y="594" x="530" fill="#8282ff"/>
    <rect id="rect240" height="11" width="25" y="605" x="530" fill="#8e8eff"/>
    <rect id="rect242" height="11" width="25" y="616" x="530" fill="#99f"/>
    <rect id="rect244" height="11" width="25" y="627" x="530" fill="#a4a4ff"/>
    <rect id="rect246" height="11" width="25" y="638" x="530" fill="#b0b0ff"/>
    <rect id="rect248" height="11" width="25" y="649" x="530" fill="#bbf"/>
    <rect id="rect250" height="11" width="25" y="660" x="530" fill="#c6c6ff"/>
    <rect id="rect252" height="12" width="25" y="671" x="530" fill="#d2d2ff"/>
    <rect id="rect254" height="11" width="25" y="683" x="530" fill="#ddf"/>
    <rect id="rect256" height="11" width="25" y="694" x="530" fill="#e8e8ff"/>
    <rect id="rect258" height="11" width="25" y="705" x="530" fill="#f4f4ff"/>
    <rect id="rect260" height="713" width="26" stroke="#000" y="15.5" x="529.5" fill="none"/>
    <line id="line262" y2="716.5" y1="716.5" stroke="#000" x2="555.5" x1="529.5"/>
    <path id="path264" fill="none" d="m555 705.5h5m-5-45h5m-5-44h5m-5-45h5m-5-44h5m-5-45h5m-5-44h5m-5-45h5m-5-33h5m-5-45h5m-5-44h5m-5-45h5m-5-44h5m-5-45h5m-5-44h5m-5-45h5m-29.5 668h25" stroke="#000"/>
  </g>
  <g id="g266" font-size="19px" font-family="'Nimbus Roman No9 L, Times, serif'" transform="translate(-8.609,-15)">
    <text id="text268" y="748" x="122" style="text-anchor:middle">20</text>
    <text id="text270" y="748" x="202" style="text-anchor:middle">40</text>
    <text id="text272" y="748" x="282" style="text-anchor:middle">60</text>
    <text id="text274" y="748" x="362" style="text-anchor:middle">80</text>
    <text id="text276" y="748" x="442" style="text-anchor:middle">100</text>
    <text id="text278" y="748" x="40">Z</text>
    <text id="text280" y="652" x="35" style="text-anchor:end">20</text>
    <text id="text282" y="572" x="35" style="text-anchor:end">40</text>
    <text id="text284" y="492" x="35" style="text-anchor:end">60</text>
    <text id="text286" y="412" x="35" style="text-anchor:end">80</text>
    <text id="text288" y="332" x="35" style="text-anchor:end">100</text>
    <text id="text290" y="252" x="35" style="text-anchor:end">120</text>
    <text id="text292" y="172" x="35" style="text-anchor:end">140</text>
    <text id="text294" y="92" x="35" style="text-anchor:end">160</text>
    <text id="text296" y="728" x="32" style="text-anchor:end">N</text>
    <text id="text298" y="394.79999" x="393.20001">Z = N</text>
    <text id="text300" y="710" x="565">10<tspan id="tspan302" font-size="13px" dy="-6">&#x2212;8</tspan><tspan id="tspan304" dy="6"> s</tspan></text>
    <text id="text306" y="665" x="565">10<tspan id="tspan308" font-size="13px" dy="-6">&#x2212;6</tspan><tspan id="tspan310" dy="6"> s</tspan></text>
    <text id="text312" y="621" x="565">10<tspan id="tspan314" font-size="13px" dy="-6">&#x2212;4</tspan><tspan id="tspan316" dy="6"> s</tspan></text>
    <text id="text318" y="576" x="565">10<tspan id="tspan320" font-size="13px" dy="-6">&#x2212;2</tspan><tspan id="tspan322" dy="6"> s</tspan></text>
    <text id="text324" y="532" x="565">1 s</text>
    <text id="text326" y="487" x="565">100 s</text>
    <text id="text328" y="443" x="565">10<tspan id="tspan330" font-size="13px" dy="-6">4</tspan><tspan id="tspan332" dy="6"> s</tspan></text>
    <text id="text334" y="398" x="565">10<tspan id="tspan336" font-size="13px" dy="-6">6</tspan><tspan id="tspan338" dy="6"> s</tspan></text>
    <text id="text340" y="365" x="565">1 yr</text>
    <text id="text342" y="320" x="565">100 yr</text>
    <text id="text344" y="276" x="565">10<tspan id="tspan346" font-size="13px" dy="-6">4</tspan><tspan id="tspan348" dy="6"> yr</tspan></text>
    <text id="text350" y="231" x="565">10<tspan id="tspan352" font-size="13px" dy="-6">6</tspan><tspan id="tspan354" dy="6"> yr</tspan></text>
    <text id="text356" y="187" x="565">10<tspan id="tspan358" font-size="13px" dy="-6">8</tspan><tspan id="tspan360" dy="6"> yr</tspan></text>
    <text id="text362" y="142" x="565">10<tspan id="tspan364" font-size="13px" dy="-6">10</tspan><tspan id="tspan366" dy="6"> yr</tspan></text>
    <text id="text368" y="98" x="565">10<tspan id="tspan370" font-size="13px" dy="-6">12</tspan><tspan id="tspan372" dy="6"> yr</tspan></text>
    <text id="text374" y="53" x="565">10<tspan id="tspan376" font-size="13px" dy="-6">14</tspan><tspan id="tspan378" dy="6"> yr</tspan></text>
    <text id="text380" y="728" x="560">unstable</text>
    <text id="text382" y="28" x="560">stable</text>
  </g>
<metadata><rdf:RDF><cc:Work><dc:format>image/svg+xml</dc:format><dc:type rdf:resource="http://purl.org/dc/dcmitype/StillImage"/><cc:license rdf:resource="http://creativecommons.org/licenses/publicdomain/"/><dc:publisher><cc:Agent rdf:about="http://openclipart.org/"><dc:title>Openclipart</dc:title></cc:Agent></dc:publisher></cc:Work><cc:License rdf:about="http://creativecommons.org/licenses/publicdomain/"><cc:permits rdf:resource="http://creativecommons.org/ns#Reproduction"/><cc:permits rdf:resource="http://creativecommons.org/ns#Distribution"/><cc:permits rdf:resource="http://creativecommons.org/ns#DerivativeWorks"/></cc:License></rdf:RDF></metadata></svg>
