<?xml version="1.0"?>
<svg xmlns:rdf="http://www.w3.org/1999/02/22-rdf-syntax-ns#" xmlns="http://www.w3.org/2000/svg" xmlns:cc="http://creativecommons.org/ns#" xmlns:xlink="http://www.w3.org/1999/xlink" xmlns:dc="http://purl.org/dc/elements/1.1/" id="svg2985" height="599" width="596" version="1.1">
 <path id="path2995" d="m594.95 317.23-17.947 40.381-27.818 28.716-55.637 32.305-64.61 22.434-74.481 12.563-84.352 0.89736-76.276-8.9737-70.892-17.05-55.637-28.716-43.971-40.381-24.229-44.868" stroke="#fe0000" stroke-dasharray="12, 24" stroke-width="6" fill="none"/>
 <path id="path3765" d="m303.2 41.894 14.538 22.312 9.9166-9.488-28.044-16.862m3.5895 3.1408 50.08 42.075 46.257 52.805 27.859 39.462 16.159 25.849 17.758 39.018 12.155 32.423 11.27 37.675 7.0586 36.639 2.3889 36.056-1.823 35.019-3.299-22.72 10.32-5.8329-6.572 25.413" stroke="#fa0000" stroke-width="5.8466" fill="none"/>
 <text id="text3767" style="word-spacing:0px;letter-spacing:0px" xml:space="preserve" font-size="40px" line-height="125%" y="269.63226" x="293.4805" font-family="Sans" fill="#000000">
    <tspan id="tspan3769" y="269.63226" x="293.4805">10,000 km</tspan>
  </text>
 <metadata>
  <rdf:RDF>
   <cc:Work>
    <dc:format>image/svg+xml</dc:format>
    <dc:type rdf:resource="http://purl.org/dc/dcmitype/StillImage"/>
    <cc:license rdf:resource="http://creativecommons.org/licenses/publicdomain/"/>
    <dc:publisher>
     <cc:Agent rdf:about="http://openclipart.org/">
      <dc:title>Openclipart</dc:title>
     </cc:Agent>
    </dc:publisher>
   </cc:Work>
   <cc:License rdf:about="http://creativecommons.org/licenses/publicdomain/">
    <cc:permits rdf:resource="http://creativecommons.org/ns#Reproduction"/>
    <cc:permits rdf:resource="http://creativecommons.org/ns#Distribution"/>
    <cc:permits rdf:resource="http://creativecommons.org/ns#DerivativeWorks"/>
   </cc:License>
  </rdf:RDF>
 </metadata>
</svg>
