<?xml version="1.0" encoding="UTF-8" standalone="no"?>
<!-- Created with Inkscape (http://www.inkscape.org/) -->
<svg
   xmlns:svg="http://www.w3.org/2000/svg"
   xmlns="http://www.w3.org/2000/svg"
   version="1.0"
   width="440"
   height="182.63"
   viewBox="0 0 1411.5 541.762"
   id="svg2"
   xml:space="preserve"><defs
   id="defs102" />
	
		<g
   transform="matrix(0.919588,0,0,0.919589,56.7943,30.1958)"
   id="レイヤー_1">
			<g
   id="g7">
				<text
   transform="translate(422.501,246.293)"
   id="text9"><tspan
     x="0"
     y="0"
     style="font-size:100px;font-family:ArialMT"
     id="tspan11">O</tspan></text>

				<polygon
   points="265.498,318.793 256,331.792 237.5,327.797 180,207.797 183.999,207.294 193.5,213.798 265.498,318.793 "
   id="polygon13" />
				<polygon
   points="403.999,282.797 395,295.297 396.499,305.297 280,335.795 256,331.792 265.498,318.793 403.999,282.797 "
   id="polygon15" />
				<polygon
   points="525,324.292 533.5,331.792 533.999,335.795 410,313.295 395,295.297 403.999,282.797 525,324.292 "
   id="polygon17" />
				<polygon
   points="483.5,253.295 490.498,249.296 535.498,327.299 533.5,331.792 525,324.292 483.5,253.295 "
   id="polygon19" />
				<polygon
   points="322.5,247.797 322.5,243.798 324.501,238.798 414.501,215.297 416.499,223.295 322.5,247.797 "
   id="polygon21" />
				<polygon
   points="193.5,213.798 183.999,207.294 187.998,203.798 313.999,237.294 322.5,243.798 322.5,247.797 193.5,213.798 "
   id="polygon23" />
				<text
   transform="translate(71.999,102.2979)"
   id="text25"><tspan
     x="0"
     y="0"
     style="font-size:100px;font-family:ArialMT"
     id="tspan27">HO</tspan></text>

				<polygon
   points="180,114.794 187.998,114.794 187.998,203.798 183.999,207.294 180,207.797 180,114.794 "
   id="polygon29" />
				<text
   transform="translate(9.765625e-4,370.7974)"
   id="text31"><tspan
     x="0"
     y="0"
     style="font-size:100px;font-family:ArialMT"
     id="tspan33">HO</tspan></text>

				<polygon
   points="156,335.795 156,327.797 237.5,327.797 256,331.792 280,335.795 156,335.795 "
   id="polygon35" />
				<text
   transform="translate(427.998,458.7935)"
   id="text37"><tspan
     x="0"
     y="0"
     style="font-size:100px;font-family:ArialMT"
     id="tspan39">OH</tspan></text>

				<polygon
   points="447.5,377.797 440.498,381.792 396.499,305.297 395,295.297 410,313.295 447.5,377.797 "
   id="polygon41" />
				<polygon
   points="245,117.294 256,120.297 324.501,238.798 322.5,243.798 313.999,237.294 245,117.294 "
   id="polygon43" />
				<text
   transform="translate(336,85.7969)"
   id="text45"><tspan
     x="0"
     y="0"
     style="font-size:100px;font-family:ArialMT"
     id="tspan47">OH</tspan></text>

				<polygon
   points="330,68.295 333.999,75.297 256,120.297 245,117.294 330,68.295 "
   id="polygon49" />
				<text
   transform="translate(1050.498,296.2935)"
   id="text51"><tspan
     x="0"
     y="0"
     style="font-size:100px;font-family:ArialMT"
     id="tspan53">O</tspan></text>

				<polygon
   points="892.998,369.292 884.003,381.792 865.498,377.797 809.501,261.792 812.001,257.294 820.996,263.793 892.998,369.292 "
   id="polygon55" />
				<polygon
   points="1032.001,332.797 1022.998,345.297 1024.501,355.297 907.998,385.795 884.003,381.792 892.998,369.292 1032.001,332.797 "
   id="polygon57" />
				<polygon
   points="1152.998,374.799 1161.503,381.792 1162.001,386.293 1037.998,363.295 1022.998,345.297 1032.001,332.797 1152.998,374.799 "
   id="polygon59" />
				<polygon
   points="1111.503,303.295 1118.496,299.292 1163.496,377.299 1161.503,381.792 1152.998,374.799 1111.503,303.295 "
   id="polygon61" />
				<polygon
   points="950.498,297.797 950.498,293.793 952.5,289.292 1042.5,265.297 1044.501,273.295 950.498,297.797 "
   id="polygon63" />
				<polygon
   points="820.996,263.793 812.001,257.294 812.001,253.295 942.001,287.299 950.498,293.793 950.498,297.797 820.996,263.793 "
   id="polygon65" />
				<polygon
   points="872.998,167.797 884.003,170.297 952.5,289.292 950.498,293.793 942.001,287.299 872.998,167.797 "
   id="polygon67" />
				<text
   transform="translate(964.0015,136.293)"
   id="text69"><tspan
     x="0"
     y="0"
     style="font-size:100px;font-family:ArialMT"
     id="tspan71">OH</tspan></text>

				<polygon
   points="957.998,118.295 962.001,125.297 884.003,170.297 872.998,167.797 957.998,118.295 "
   id="polygon73" />
				<text
   transform="translate(1056,509.2905)"
   id="text75"><tspan
     x="0"
     y="0"
     style="font-size:100px;font-family:ArialMT"
     id="tspan77">OH</tspan></text>

				<polygon
   points="1075.498,427.797 1068.496,431.792 1024.501,355.297 1022.998,345.297 1037.998,363.295 1075.498,427.797 "
   id="polygon79" />
				<text
   transform="translate(1261.502,383.7935)"
   id="text81"><tspan
     x="0"
     y="0"
     style="font-size:100px;font-family:ArialMT"
     id="tspan83">OH</tspan></text>

				<polygon
   points="1253.496,353.295 1255.498,360.795 1162.001,386.293 1161.503,381.792 1163.496,377.299 1253.496,353.295 "
   id="polygon85" />
				<text
   transform="translate(627.998,420.7974)"
   id="text87"><tspan
     x="0"
     y="0"
     style="font-size:100px;font-family:ArialMT"
     id="tspan89">HO</tspan></text>

				<polygon
   points="784.003,385.795 784.003,377.797 865.498,377.797 884.003,381.792 907.998,385.795 784.003,385.795 "
   id="polygon91" />
				<polygon
   points="625.498,303.295 627.5,310.795 533.999,335.795 533.5,331.792 535.498,327.299 625.498,303.295 "
   id="polygon93" />
				<text
   transform="translate(633.5,333.2974)"
   id="text95"><tspan
     x="0"
     y="0"
     style="font-size:100px;font-family:ArialMT"
     id="tspan97">O</tspan></text>

				<polygon
   points="717.001,286.792 715,279.292 812.001,253.295 812.001,257.294 809.501,261.792 717.001,286.792 "
   id="polygon99" />
			</g>
		</g>
	</svg>