<?xml version="1.0"?>
<svg xmlns:rdf="http://www.w3.org/1999/02/22-rdf-syntax-ns#" xmlns="http://www.w3.org/2000/svg" xmlns:cc="http://creativecommons.org/ns#" xmlns:dc="http://purl.org/dc/elements/1.1/" id="svg2" xml:space="preserve" height="143.08" viewBox="0 0 1283.542 424.43793" width="400.11" version="1.0">
		<g id="&#x30EC;&#x30A4;&#x30E4;&#x30FC;_1" transform="matrix(.91959 0 0 .91959 -9.0262 -32.701)">
			<g id="g7">
				<text id="text9" transform="translate(422.5,246.29)"><tspan id="tspan11" font-size="100px" y="0" x="0" font-family="ArialMT">O</tspan></text>
				<polygon id="polygon13" points="180 207.8 184 207.29 193.5 213.8 265.5 318.79 256 331.79 237.5 327.8"/>
				<polygon id="polygon15" points="280 335.8 256 331.79 265.5 318.79 404 282.8 395 295.3 396.5 305.3"/>
				<polygon id="polygon17" points="410 313.3 395 295.3 404 282.8 525 324.29 533.5 331.79 534 335.8"/>
				<polygon id="polygon19" points="533.5 331.79 525 324.29 483.5 253.3 490.5 249.3 535.5 327.3"/>
				<polygon id="polygon21" points="414.5 215.3 416.5 223.3 322.5 247.8 322.5 243.8 324.5 238.8"/>
				<polygon id="polygon23" points="314 237.29 322.5 243.8 322.5 247.8 193.5 213.8 184 207.29 188 203.8"/>
				<text id="text25" transform="translate(71.999,102.3)"><tspan id="tspan27" font-size="100px" y="0" x="0" font-family="ArialMT">HO</tspan></text>
				<polygon id="polygon29" points="184 207.29 180 207.8 180 114.79 188 114.79 188 203.8"/>
				<text id="text31" transform="translate(9.7656e-4,370.8)"><tspan id="tspan33" font-size="100px" y="0" x="0" font-family="ArialMT">HO</tspan></text>
				<polygon id="polygon35" points="256 331.79 280 335.8 156 335.8 156 327.8 237.5 327.8"/>
				<text id="text37" transform="translate(428,458.79)"><tspan id="tspan39" font-size="100px" y="0" x="0" font-family="ArialMT">OH</tspan></text>
				<polygon id="polygon41" points="395 295.3 410 313.3 447.5 377.8 440.5 381.79 396.5 305.3"/>
				<polygon id="polygon43" points="322.5 243.8 314 237.29 245 117.29 256 120.3 324.5 238.8"/>
				<text id="text45" transform="translate(336,85.797)"><tspan id="tspan47" font-size="100px" y="0" x="0" font-family="ArialMT">OH</tspan></text>
				<polygon id="polygon49" points="245 117.29 330 68.295 334 75.297 256 120.3"/>
				<text id="text51" transform="translate(1050.5,296.29)"><tspan id="tspan53" font-size="100px" y="0" x="0" font-family="ArialMT">O</tspan></text>
				<polygon id="polygon55" points="809.5 261.79 812 257.29 821 263.79 893 369.29 884 381.79 865.5 377.8"/>
				<polygon id="polygon57" points="908 385.8 884 381.79 893 369.29 1032 332.8 1023 345.3 1024.5 355.3"/>
				<polygon id="polygon59" points="1038 363.3 1023 345.3 1032 332.8 1153 374.8 1161.5 381.79 1162 386.29"/>
				<polygon id="polygon61" points="1161.5 381.79 1153 374.8 1111.5 303.3 1118.5 299.29 1163.5 377.3"/>
				<polygon id="polygon63" points="1042.5 265.3 1044.5 273.3 950.5 297.8 950.5 293.79 952.5 289.29"/>
				<polygon id="polygon65" points="942 287.3 950.5 293.79 950.5 297.8 821 263.79 812 257.29 812 253.3"/>
				<polygon id="polygon67" points="950.5 293.79 942 287.3 873 167.8 884 170.3 952.5 289.29"/>
				<text id="text69" transform="translate(964,136.29)"><tspan id="tspan71" font-size="100px" y="0" x="0" font-family="ArialMT">OH</tspan></text>
				<polygon id="polygon73" points="873 167.8 958 118.3 962 125.3 884 170.3"/>
				<text id="text75" transform="translate(1056,509.29)"><tspan id="tspan77" font-size="100px" y="0" x="0" font-family="ArialMT">OH</tspan></text>
				<polygon id="polygon79" points="1023 345.3 1038 363.3 1075.5 427.8 1068.5 431.79 1024.5 355.3"/>
				<text id="text81" transform="translate(1261.5,383.79)"><tspan id="tspan83" font-size="100px" y="0" x="0" font-family="ArialMT">OH</tspan></text>
				<polygon id="polygon85" points="1161.5 381.79 1163.5 377.3 1253.5 353.3 1255.5 360.8 1162 386.29"/>
				<text id="text87" transform="translate(628,420.8)"><tspan id="tspan89" font-size="100px" y="0" x="0" font-family="ArialMT">HO</tspan></text>
				<polygon id="polygon91" points="884 381.79 908 385.8 784 385.8 784 377.8 865.5 377.8"/>
				<polygon id="polygon93" points="533.5 331.79 535.5 327.3 625.5 303.3 627.5 310.8 534 335.8"/>
				<text id="text95" transform="translate(633.5,333.3)"><tspan id="tspan97" font-size="100px" y="0" x="0" font-family="ArialMT">O</tspan></text>
				<polygon id="polygon99" points="812 257.29 809.5 261.79 717 286.79 715 279.29 812 253.3"/>
			</g>
		</g>
	<metadata><rdf:RDF><cc:Work><dc:format>image/svg+xml</dc:format><dc:type rdf:resource="http://purl.org/dc/dcmitype/StillImage"/><cc:license rdf:resource="http://creativecommons.org/licenses/publicdomain/"/><dc:publisher><cc:Agent rdf:about="http://openclipart.org/"><dc:title>Openclipart</dc:title></cc:Agent></dc:publisher></cc:Work><cc:License rdf:about="http://creativecommons.org/licenses/publicdomain/"><cc:permits rdf:resource="http://creativecommons.org/ns#Reproduction"/><cc:permits rdf:resource="http://creativecommons.org/ns#Distribution"/><cc:permits rdf:resource="http://creativecommons.org/ns#DerivativeWorks"/></cc:License></rdf:RDF></metadata></svg>
