<?xml version="1.0"?>
<svg xmlns:rdf="http://www.w3.org/1999/02/22-rdf-syntax-ns#" xmlns="http://www.w3.org/2000/svg" xmlns:cc="http://creativecommons.org/ns#" xmlns:dc="http://purl.org/dc/elements/1.1/" id="svg2" height="350" width="800" version="1.1">
 <rect id="rect2993" height="46.865" width="46.203" stroke="#000" y="28.513" x="7.1656" stroke-width="2" fill="none"/>
 <rect id="rect3769" height="93.233" width="46.203" stroke="#000" y="205.64" x="7" stroke-width="2" fill="none"/>
 <path id="path3771" d="m7.0828 252.5h46.286" stroke="#000" stroke-width="2" fill="none"/>
 <rect id="rect3773" height="185.48" width="186.19" stroke="#000" y="159.52" x="184.32" stroke-width="2" fill="none"/>
 <path id="path3775" d="m183.85 205.89h186.42" stroke="#000" stroke-width="2" fill="none"/>
 <path id="path3777" d="m184.55 252.26h185.72" stroke="#000" stroke-width="2" fill="none"/>
 <path id="path3779" d="m184.08 298.86h186.19" stroke="#000" stroke-width="2" fill="none"/>
 <path id="path3781" d="m230.69 159.28v185.01" stroke="#000" stroke-width="2" fill="none"/>
 <path id="path3783" d="m277.29 159.52v185.01" stroke="#000" stroke-width="2" fill="none"/>
 <path id="path3785" d="m323.9 159.52v185.01" stroke="#000" stroke-width="2" fill="none"/>
 <rect id="rect3787" height="92.273" width="185.01" stroke="#000" y="5.602" x="184.78" stroke-width="2" fill="none"/>
 <path id="path3789" d="m230.45 6.0704v91.57" stroke="#000" stroke-width="2" fill="none"/>
 <path id="path3791" d="m277.06 5.8362v91.805" stroke="#000" stroke-width="2" fill="none"/>
 <path id="path3793" d="m323.66 5.602v92.039" stroke="#000" stroke-width="2" fill="none"/>
 <path id="path3795" d="m184.08 51.973h185.25" stroke="#000" stroke-width="2" fill="none"/>
 <rect id="rect3797" height="93.678" width="185.95" stroke="#000" y="5.3678" x="609.15" stroke-width="2" fill="none"/>
 <rect id="rect3799" height="46.019" width="46.019" stroke="#000" y="28.67" x="563.01" stroke-width="2" fill="none"/>
 <path id="path3801" d="m608.91 51.973h186.19" stroke="#000" stroke-width="2" fill="none"/>
 <path id="path3803" d="m655.75 5.8362v92.741" stroke="#000" stroke-width="2" fill="none"/>
 <path id="path3805" d="m702.12 6.0704v92.507" stroke="#000" stroke-width="2" fill="none"/>
 <path id="path3807" d="m748.73 5.602v92.928" stroke="#000" stroke-width="2" fill="none"/>
 <rect id="rect3809" height="185.48" width="185.72" stroke="#000" y="159.52" x="609.15" stroke-width="2" fill="none"/>
 <path id="path3813" d="m794.86 205.89h-231.85" stroke="#000" stroke-width="2" fill="none"/>
 <path id="path3815" d="m794.4 298.86h-231.39" stroke="#000" stroke-width="2" fill="none"/>
 <path id="path3817" d="m564.06 205.77v92.273" stroke="#000" stroke-width="2" fill="none"/>
 <path id="path3819" d="m563.71 252.49h230.21" stroke="#000" stroke-width="2" fill="none"/>
 <path id="path3821" d="m655.75 159.75v184.31" stroke="#000" stroke-width="2" fill="none"/>
 <path id="path3823" d="m702.12 159.52v184.78" stroke="#000" stroke-width="2" fill="none"/>
 <path id="path3825" d="m748.96 159.99v184.55" stroke="#000" stroke-width="2" fill="none"/>
 <path id="path3829" d="m409.2 247.41h84.871v-11.178l30.885 15.732-30.802 15.732v-12.337h-85.036z" stroke="#000" stroke-width="1px"/>
 <path id="path3829-3" d="m409.2 47.627h84.871v-11.178l30.885 15.732-30.802 15.732v-12.337h-85.036z" stroke="#000" stroke-width="1px"/>
 <path id="path3996" d="m8.0122 297.76c-0.04333-0.11385-0.059621-10.118-0.036203-22.232l0.042579-22.025 22.066-0.042 22.066-0.042v22.274 22.274h-22.03c-17.472 0-22.046-0.0428-22.109-0.207z" stroke="#000" stroke-width=".331" fill="#0ff"/>
 <path id="path3998" d="m8.0058 229.08v-22.439h22.108 22.108v22.439 22.439h-22.108-22.108v-22.439z" stroke="#000" stroke-width=".027407" fill="#0ff"/>
 <path id="path4000" d="m8.1278 51.932v-22.439h22.108 22.108v22.439 22.439h-22.108-22.108v-22.439z" stroke="#000" stroke-width=".054814" fill="#0ff"/>
 <path id="path4002" d="m185.7 28.78 0.0597-22.19 21.839-0.059756 21.839-0.059756v22.25 22.25h-21.898-21.898l0.0597-22.19z" stroke="#000" stroke-width=".077519" fill="#f0f"/>
 <path id="path4004" d="m231.36 28.78 0.0597-22.19 22.307-0.059731 22.307-0.059731v22.25 22.25h-22.367-22.367l0.0597-22.19z" stroke="#000" stroke-width=".077519" fill="#f0f"/>
 <path id="path4006" d="m277.97 28.78 0.0597-22.19 22.307-0.059731 22.307-0.059731v22.25 22.25h-22.367-22.367l0.0597-22.19z" stroke="#000" stroke-width=".077519" fill="#f0f"/>
 <path id="path4008" d="m324.57 28.78 0.0597-22.19 22.073-0.059743 22.073-0.059743v22.25 22.25h-22.133-22.133l0.0597-22.19z" stroke="#000" stroke-width=".077519" fill="#f0f"/>
 <path id="path4010" d="m324.57 74.916 0.0598-21.956 22.073-0.05974 22.073-0.05974v22.016 22.016h-22.133-22.133l0.0598-21.956z" stroke="#000" stroke-width=".077519" fill="#f0f"/>
 <path id="path4012" d="m277.97 74.916 0.0598-21.956 22.307-0.05973 22.307-0.05973v22.016 22.016h-22.367-22.367l0.0597-21.956z" stroke="#000" stroke-width=".077519" fill="#f0f"/>
 <path id="path4014" d="m231.36 74.916 0.0598-21.956 22.307-0.05973 22.307-0.05973v22.016 22.016h-22.367-22.367l0.0598-21.956z" stroke="#000" stroke-width=".077519" fill="#f0f"/>
 <path id="path4016" d="m185.7 74.916 0.0598-21.956 21.839-0.05976 21.839-0.05976v22.016 22.016h-21.898-21.898l0.0597-21.956z" stroke="#000" stroke-width=".077519" fill="#f0f"/>
 <path id="path4018" d="m185.17 182.7v-22.131h22.249 22.249v22.131 22.131h-22.249-22.249v-22.131z" stroke="#000" stroke-width=".077519" fill="#f0f"/>
 <path id="path4020" d="m231.54 182.7v-22.131h22.366 22.366v22.131 22.131h-22.366-22.366v-22.131z" stroke="#000" stroke-width=".077519" fill="#f0f"/>
 <path id="path4022" d="m278.15 182.7v-22.131h22.366 22.366v22.131 22.131h-22.366-22.366v-22.131z" stroke="#000" stroke-width=".077519" fill="#f0f"/>
 <path id="path4024" d="m324.75 182.7v-22.131h22.366 22.366v22.131 22.131h-22.366-22.366v-22.131z" stroke="#000" stroke-width=".077519" fill="#f0f"/>
 <path id="path4026" d="m324.75 229.08v-22.131h22.366 22.366v22.131 22.131h-22.366-22.366v-22.131z" stroke="#000" stroke-width=".077519" fill="#f0f"/>
 <path id="path4028" d="m278.15 229.08v-22.131h22.366 22.366v22.131 22.131h-22.366-22.366v-22.131z" stroke="#000" stroke-width=".077519" fill="#f0f"/>
 <path id="path4030" d="m231.54 229.08v-22.131h22.366 22.366v22.131 22.131h-22.366-22.366v-22.131z" stroke="#000" stroke-width=".077519" fill="#f0f"/>
 <path id="path4032" d="m185.17 229.08v-22.131h22.249 22.249v22.131 22.131h-22.249-22.249v-22.131z" stroke="#000" stroke-width=".077519" fill="#f0f"/>
 <path id="path4034" d="m185.17 275.56v-22.249h22.249 22.249v22.249 22.249h-22.249-22.249v-22.249z" stroke="#000" stroke-width=".077519" fill="#f0f"/>
 <path id="path4036" d="m231.54 275.56v-22.249h22.366 22.366v22.249 22.249h-22.366-22.366v-22.249z" stroke="#000" stroke-width=".077519" fill="#f0f"/>
 <path id="path4038" d="m278.15 275.56v-22.249h22.366 22.366v22.249 22.249h-22.366-22.366v-22.249z" stroke="#000" stroke-width=".077519" fill="#f0f"/>
 <path id="path4040" d="m324.75 275.56v-22.249h22.366 22.366v22.249 22.249h-22.366-22.366v-22.249z" stroke="#000" stroke-width=".077519" fill="#f0f"/>
 <path id="path4042" d="m324.75 321.93v-22.014h22.366 22.366v22.014 22.014h-22.366-22.366v-22.014z" stroke="#000" stroke-width=".077519" fill="#f0f"/>
 <path id="path4044" d="m278.15 321.93v-22.014h22.366 22.366v22.014 22.014h-22.366-22.366v-22.014z" stroke="#000" stroke-width=".077519" fill="#f0f"/>
 <path id="path4046" d="m231.54 321.93v-22.014h22.366 22.366v22.014 22.014h-22.366-22.366v-22.014z" stroke="#000" stroke-width=".077519" fill="#f0f"/>
 <path id="path4048" d="m185.17 321.93v-22.014h22.249 22.249v22.014 22.014h-22.249-22.249v-22.014z" stroke="#000" stroke-width=".077519" fill="#f0f"/>
 <path id="path4050" d="m565.11 275.68v-22.131h21.546 21.546v22.131 22.131h-21.546-21.546v-22.131z" stroke="#000" stroke-width=".077519" fill="#ff0"/>
 <path id="path4052" d="m610.08 275.68v-22.131h22.366 22.366v22.131 22.131h-22.366-22.366v-22.131z" stroke="#000" stroke-width=".077519" fill="#ff0"/>
 <path id="path4054" d="m610.08 321.93v-22.014h22.366 22.366v22.014 22.014h-22.366-22.366v-22.014z" stroke="#000" stroke-width=".077519" fill="#ff0"/>
 <path id="path4056" d="m656.68 321.93v-22.014h22.249 22.249v22.014 22.014h-22.249-22.249v-22.014z" stroke="#000" stroke-width=".077519" fill="#ff0"/>
 <path id="path4058" d="m656.68 275.68v-22.131h22.249 22.249v22.131 22.131h-22.249-22.249v-22.131z" stroke="#000" stroke-width=".077519" fill="#ff0"/>
 <path id="path4060" d="m703.05 275.68v-22.131h22.483 22.483v22.131 22.131h-22.483-22.483v-22.131z" stroke="#000" stroke-width=".077519" fill="#ff0"/>
 <path id="path4062" d="m703.05 321.93v-22.014h22.483 22.483v22.014 22.014h-22.483-22.483v-22.014z" stroke="#000" stroke-width=".077519" fill="#ff0"/>
 <path id="path4064" d="m749.89 321.93v-22.014h22.014 22.014v22.014 22.014h-22.014-22.014v-22.014z" stroke="#000" stroke-width=".077519" fill="#ff0"/>
 <path id="path4066" d="m749.89 275.68v-22.131h22.014 22.014v22.131 22.131h-22.014-22.014v-22.131z" stroke="#000" stroke-width=".077519" fill="#ff0"/>
 <path id="path4068" d="m749.89 229.19v-22.249h22.014 22.014v22.249 22.249h-22.014-22.014v-22.249z" stroke="#000" stroke-width=".077519" fill="#ff0"/>
 <path id="path4074" d="m703.05 229.19v-22.249h22.483 22.483v22.249 22.249h-22.483-22.483v-22.249z" stroke="#000" stroke-width=".077519" fill="#ff0"/>
 <path id="path4076" d="m703.05 182.7v-22.131h22.483 22.483v22.131 22.131h-22.483-22.483v-22.131z" stroke="#000" stroke-width=".077519" fill="#ff0"/>
 <path id="path4078" d="m749.89 182.7v-22.131h22.014 22.014v22.131 22.131h-22.014-22.014v-22.131z" stroke="#000" stroke-width=".077519" fill="#ff0"/>
 <path id="path4080" d="m656.68 182.7v-22.131h22.249 22.249v22.131 22.131h-22.249-22.249v-22.131z" stroke="#000" stroke-width=".077519" fill="#ff0"/>
 <path id="path4082" d="m656.68 229.19v-22.249h22.249 22.249v22.249 22.249h-22.249-22.249v-22.249z" stroke="#000" stroke-width=".077519" fill="#ff0"/>
 <path id="path4084" d="m610.08 229.19v-22.249h22.366 22.366v22.249 22.249h-22.366-22.366v-22.249z" stroke="#000" stroke-width=".077519" fill="#ff0"/>
 <path id="path4086" d="m610.08 182.7v-22.131h22.366 22.366v22.131 22.131h-22.366-22.366v-22.131z" stroke="#000" stroke-width=".077519" fill="#ff0"/>
 <path id="path4088" d="m565.11 229.19v-22.249h21.546 21.546v22.249 22.249h-21.546-21.546v-22.249z" stroke="#000" stroke-width=".077519" fill="#ff0"/>
 <path id="path4090" d="m610.13 75.502 0.0597-22.541 22.307-0.05973 22.307-0.05973v22.601 22.601h-22.367-22.367l0.0597-22.541z" stroke="#000" stroke-width=".077519" fill="#ff0"/>
 <path id="path4092" d="m563.94 51.672v-22.014h22.014 22.014v22.014 22.014h-22.014-22.014v-22.014z" stroke="#000" stroke-width=".077519" fill="#ff0"/>
 <path id="path4094" d="m610.13 28.662 0.0597-22.307 22.307-0.059731 22.307-0.059731v22.367 22.367h-22.367-22.367l0.0597-22.307z" stroke="#000" stroke-width=".077519" fill="#ff0"/>
 <path id="path4096" d="m656.74 28.662 0.0597-22.307 22.19-0.059737 22.19-0.059737v22.367 22.367h-22.25-22.25l0.0597-22.307z" stroke="#000" stroke-width=".077519" fill="#ff0"/>
 <path id="path4098" d="m656.74 75.502 0.0597-22.541 22.19-0.05974 22.19-0.05974v22.601 22.601h-22.25-22.25l0.0597-22.541z" stroke="#000" stroke-width=".077519" fill="#ff0"/>
 <path id="path4100" d="m703.11 75.502 0.0597-22.541 22.307-0.05973 22.307-0.05973v22.601 22.601h-22.367-22.367l0.0597-22.541z" stroke="#000" stroke-width=".077519" fill="#ff0"/>
 <path id="path4102" d="m703.11 28.662 0.0597-22.307 22.307-0.059731 22.307-0.059731v22.367 22.367h-22.367-22.367l0.0597-22.307z" stroke="#000" stroke-width=".077519" fill="#ff0"/>
 <path id="path4104" d="m749.71 28.662 0.0597-22.307 22.19-0.059737 22.19-0.059737v22.367 22.367h-22.25-22.25l0.0597-22.307z" stroke="#000" stroke-width=".077519" fill="#ff0"/>
 <path id="path4106" d="m749.71 75.502 0.0597-22.541 22.19-0.05974 22.19-0.05974v22.601 22.601h-22.25-22.25l0.0597-22.541z" stroke="#000" stroke-width=".077519" fill="#ff0"/>
 <text id="text4108" style="word-spacing:0px;letter-spacing:0px;text-anchor:middle;text-align:center" xml:space="preserve" font-size="32px" line-height="125%" y="62.642246" x="29.742815" font-family="Sans" fill="#000000">
    <tspan id="tspan4110" x="29.742815" y="62.642246">A</tspan>
  </text>
 <text id="text4108-9" style="word-spacing:0px;letter-spacing:0px;text-anchor:middle;text-align:center" xml:space="preserve" font-size="32px" line-height="125%" y="240.60831" x="30.109734" font-family="Sans" fill="#000000">
    <tspan id="tspan4110-0" x="30.109734" y="240.60831">A</tspan>
  </text>
 <text id="text4108-3" style="word-spacing:0px;letter-spacing:0px;text-anchor:middle;text-align:center" xml:space="preserve" font-size="32px" line-height="125%" y="286.2764" x="30.109734" font-family="Sans" fill="#000000">
    <tspan id="tspan4110-7" x="30.109734" y="286.2764">A</tspan>
  </text>
 <text id="text4151" style="word-spacing:0px;letter-spacing:0px;text-anchor:middle;text-align:center" xml:space="preserve" font-size="32px" line-height="125%" y="333.81805" x="206.84113" font-family="Sans" fill="#000000">
    <tspan id="tspan4153" x="206.84113" y="333.81805">B</tspan>
  </text>
 <text id="text4151-3" style="word-spacing:0px;letter-spacing:0px;text-anchor:middle;text-align:center" xml:space="preserve" font-size="32px" line-height="125%" y="286.51062" x="206.84113" font-family="Sans" fill="#000000">
    <tspan id="tspan4153-2" x="206.84113" y="286.51062">B</tspan>
  </text>
 <text id="text4151-0" style="word-spacing:0px;letter-spacing:0px;text-anchor:middle;text-align:center" xml:space="preserve" font-size="32px" line-height="125%" y="240.60831" x="206.84113" font-family="Sans" fill="#000000">
    <tspan id="tspan4153-3" x="206.84113" y="240.60831">B</tspan>
  </text>
 <text id="text4151-4" style="word-spacing:0px;letter-spacing:0px;text-anchor:middle;text-align:center" xml:space="preserve" font-size="32px" line-height="125%" y="194.23761" x="206.84113" font-family="Sans" fill="#000000">
    <tspan id="tspan4153-8" x="206.84113" y="194.23761">B</tspan>
  </text>
 <text id="text4151-5" style="word-spacing:0px;letter-spacing:0px;text-anchor:middle;text-align:center" xml:space="preserve" font-size="32px" line-height="125%" y="194.23761" x="252.97763" font-family="Sans" fill="#000000">
    <tspan id="tspan4153-23" x="252.97763" y="194.23761">B</tspan>
  </text>
 <text id="text4151-1" style="word-spacing:0px;letter-spacing:0px;text-anchor:middle;text-align:center" xml:space="preserve" font-size="32px" line-height="125%" y="194.23761" x="299.69958" font-family="Sans" fill="#000000">
    <tspan id="tspan4153-1" x="299.69958" y="194.23761">B</tspan>
  </text>
 <text id="text4151-2" style="word-spacing:0px;letter-spacing:0px;text-anchor:middle;text-align:center" xml:space="preserve" font-size="32px" line-height="125%" y="194.23761" x="347.00708" font-family="Sans" fill="#000000">
    <tspan id="tspan4153-5" x="347.00708" y="194.23761">B</tspan>
  </text>
 <text id="text4151-53" style="word-spacing:0px;letter-spacing:0px;text-anchor:middle;text-align:center" xml:space="preserve" font-size="32px" line-height="125%" y="240.60831" x="347.00708" font-family="Sans" fill="#000000">
    <tspan id="tspan4153-18" x="347.00708" y="240.60831">B</tspan>
  </text>
 <text id="text4151-06" style="word-spacing:0px;letter-spacing:0px;text-anchor:middle;text-align:center" xml:space="preserve" font-size="32px" line-height="125%" y="240.60831" x="299.69958" font-family="Sans" fill="#000000">
    <tspan id="tspan4153-7" x="299.69958" y="240.60831">B</tspan>
  </text>
 <text id="text4151-13" style="word-spacing:0px;letter-spacing:0px;text-anchor:middle;text-align:center" xml:space="preserve" font-size="32px" line-height="125%" y="286.51062" x="299.69958" font-family="Sans" fill="#000000">
    <tspan id="tspan4153-9" x="299.69958" y="286.51062">B</tspan>
  </text>
 <text id="text4151-38" style="word-spacing:0px;letter-spacing:0px;text-anchor:middle;text-align:center" xml:space="preserve" font-size="32px" line-height="125%" y="286.51062" x="347.00708" font-family="Sans" fill="#000000">
    <tspan id="tspan4153-76" x="347.00708" y="286.51062">B</tspan>
  </text>
 <text id="text4151-9" style="word-spacing:0px;letter-spacing:0px;text-anchor:middle;text-align:center" xml:space="preserve" font-size="32px" line-height="125%" y="286.51062" x="252.97763" font-family="Sans" fill="#000000">
    <tspan id="tspan4153-56" x="252.97763" y="286.51062">B</tspan>
  </text>
 <text id="text4151-54" style="word-spacing:0px;letter-spacing:0px;text-anchor:middle;text-align:center" xml:space="preserve" font-size="32px" line-height="125%" y="240.60831" x="252.97763" font-family="Sans" fill="#000000">
    <tspan id="tspan4153-15" x="252.97763" y="240.60831">B</tspan>
  </text>
 <text id="text4151-08" style="word-spacing:0px;letter-spacing:0px;text-anchor:middle;text-align:center" xml:space="preserve" font-size="32px" line-height="125%" y="333.81805" x="252.97763" font-family="Sans" fill="#000000">
    <tspan id="tspan4153-72" x="252.97763" y="333.81805">B</tspan>
  </text>
 <text id="text4151-07" style="word-spacing:0px;letter-spacing:0px;text-anchor:middle;text-align:center" xml:space="preserve" font-size="32px" line-height="125%" y="333.81805" x="299.69958" font-family="Sans" fill="#000000">
    <tspan id="tspan4153-94" x="299.69958" y="333.81805">B</tspan>
  </text>
 <text id="text4151-49" style="word-spacing:0px;letter-spacing:0px;text-anchor:middle;text-align:center" xml:space="preserve" font-size="32px" line-height="125%" y="333.81805" x="347.00708" font-family="Sans" fill="#000000">
    <tspan id="tspan4153-565" x="347.00708" y="333.81805">B</tspan>
  </text>
 <text id="text4151-97" style="word-spacing:0px;letter-spacing:0px;text-anchor:middle;text-align:center" xml:space="preserve" font-size="32px" line-height="125%" y="85.688049" x="345.25061" font-family="Sans" fill="#000000">
    <tspan id="tspan4153-6" x="345.25061" y="85.688049">B</tspan>
  </text>
 <text id="text4151-55" style="word-spacing:0px;letter-spacing:0px;text-anchor:middle;text-align:center" xml:space="preserve" font-size="32px" line-height="125%" y="40.488335" x="345.25061" font-family="Sans" fill="#000000">
    <tspan id="tspan4153-13" x="345.25061" y="40.488335">B</tspan>
  </text>
 <text id="text4151-25" style="word-spacing:0px;letter-spacing:0px;text-anchor:middle;text-align:center" xml:space="preserve" font-size="32px" line-height="125%" y="40.488335" x="298.52863" font-family="Sans" fill="#000000">
    <tspan id="tspan4153-88" x="298.52863" y="40.488335">B</tspan>
  </text>
 <text id="text4151-255" style="word-spacing:0px;letter-spacing:0px;text-anchor:middle;text-align:center" xml:space="preserve" font-size="32px" line-height="125%" y="85.688049" x="298.52863" font-family="Sans" fill="#000000">
    <tspan id="tspan4153-35" x="298.52863" y="85.688049">B</tspan>
  </text>
 <text id="text4151-93" style="word-spacing:0px;letter-spacing:0px;text-anchor:middle;text-align:center" xml:space="preserve" font-size="32px" line-height="125%" y="85.688049" x="253.09473" font-family="Sans" fill="#000000">
    <tspan id="tspan4153-0" x="253.09473" y="85.688049">B</tspan>
  </text>
 <text id="text4151-98" style="word-spacing:0px;letter-spacing:0px;text-anchor:middle;text-align:center" xml:space="preserve" font-size="32px" line-height="125%" y="40.488335" x="253.09473" font-family="Sans" fill="#000000">
    <tspan id="tspan4153-29" x="253.09473" y="40.488335">B</tspan>
  </text>
 <text id="text4151-7" style="word-spacing:0px;letter-spacing:0px;text-anchor:middle;text-align:center" xml:space="preserve" font-size="32px" line-height="125%" y="40.488335" x="206.72403" font-family="Sans" fill="#000000">
    <tspan id="tspan4153-00" x="206.72403" y="40.488335">B</tspan>
  </text>
 <text id="text4151-10" style="word-spacing:0px;letter-spacing:0px;text-anchor:middle;text-align:center" xml:space="preserve" font-size="32px" line-height="125%" y="85.688049" x="206.72403" font-family="Sans" fill="#000000">
    <tspan id="tspan4153-4" x="206.72403" y="85.688049">B</tspan>
  </text>
 <text id="text4383" style="word-spacing:0px;letter-spacing:0px;text-anchor:middle;text-align:center" xml:space="preserve" font-size="32px" line-height="125%" y="62.853996" x="584.62964" font-family="Sans" fill="#000000">
    <tspan id="tspan4385" x="584.62964" y="62.853996">C</tspan>
  </text>
 <text id="text4383-9" style="word-spacing:0px;letter-spacing:0px;text-anchor:middle;text-align:center" xml:space="preserve" font-size="32px" line-height="125%" y="40.371239" x="632.0542" font-family="Sans" fill="#000000">
    <tspan id="tspan4385-4" x="632.0542" y="40.371239">C</tspan>
  </text>
 <text id="text4383-4" style="word-spacing:0px;letter-spacing:0px;text-anchor:middle;text-align:center" xml:space="preserve" font-size="32px" line-height="125%" y="40.371239" x="679.01038" font-family="Sans" fill="#000000">
    <tspan id="tspan4385-8" x="679.01038" y="40.371239">C</tspan>
  </text>
 <text id="text4383-7" style="word-spacing:0px;letter-spacing:0px;text-anchor:middle;text-align:center" xml:space="preserve" font-size="32px" line-height="125%" y="40.371239" x="725.26398" font-family="Sans" fill="#000000">
    <tspan id="tspan4385-6" x="725.26398" y="40.371239">C</tspan>
  </text>
 <text id="text4383-1" style="word-spacing:0px;letter-spacing:0px;text-anchor:middle;text-align:center" xml:space="preserve" font-size="32px" line-height="125%" y="40.371239" x="771.51758" font-family="Sans" fill="#000000">
    <tspan id="tspan4385-1" x="771.51758" y="40.371239">C</tspan>
  </text>
 <text id="text4383-2" style="word-spacing:0px;letter-spacing:0px;text-anchor:middle;text-align:center" xml:space="preserve" font-size="32px" line-height="125%" y="86.156433" x="771.51758" font-family="Sans" fill="#000000">
    <tspan id="tspan4385-49" x="771.51758" y="86.156433">C</tspan>
  </text>
 <text id="text4383-0" style="word-spacing:0px;letter-spacing:0px;text-anchor:middle;text-align:center" xml:space="preserve" font-size="32px" line-height="125%" y="86.156433" x="725.26398" font-family="Sans" fill="#000000">
    <tspan id="tspan4385-19" x="725.26398" y="86.156433">C</tspan>
  </text>
 <text id="text4383-40" style="word-spacing:0px;letter-spacing:0px;text-anchor:middle;text-align:center" xml:space="preserve" font-size="32px" line-height="125%" y="86.156433" x="679.01038" font-family="Sans" fill="#000000">
    <tspan id="tspan4385-0" x="679.01038" y="86.156433">C</tspan>
  </text>
 <text id="text4383-43" style="word-spacing:0px;letter-spacing:0px;text-anchor:middle;text-align:center" xml:space="preserve" font-size="32px" line-height="125%" y="86.156433" x="632.0542" font-family="Sans" fill="#000000">
    <tspan id="tspan4385-9" x="632.0542" y="86.156433">C</tspan>
  </text>
 <text id="text4383-28" style="word-spacing:0px;letter-spacing:0px;text-anchor:middle;text-align:center" xml:space="preserve" font-size="32px" line-height="125%" y="194.23761" x="771.28339" font-family="Sans" fill="#000000">
    <tspan id="tspan4385-42" x="771.28339" y="194.23761">C</tspan>
  </text>
 <text id="text4383-06" style="word-spacing:0px;letter-spacing:0px;text-anchor:middle;text-align:center" xml:space="preserve" font-size="32px" line-height="125%" y="194.23761" x="724.44434" font-family="Sans" fill="#000000">
    <tspan id="tspan4385-07" x="724.44434" y="194.23761">C</tspan>
  </text>
 <text id="text4383-5" style="word-spacing:0px;letter-spacing:0px;text-anchor:middle;text-align:center" xml:space="preserve" font-size="32px" line-height="125%" y="194.23761" x="678.54199" font-family="Sans" fill="#000000">
    <tspan id="tspan4385-2" x="678.54199" y="194.23761">C</tspan>
  </text>
 <text id="text4383-72" style="word-spacing:0px;letter-spacing:0px;text-anchor:middle;text-align:center" xml:space="preserve" font-size="32px" line-height="125%" y="194.23761" x="632.28845" font-family="Sans" fill="#000000">
    <tspan id="tspan4385-17" x="632.28845" y="194.23761">C</tspan>
  </text>
 <text id="text4383-53" style="word-spacing:0px;letter-spacing:0px;text-anchor:middle;text-align:center" xml:space="preserve" font-size="32px" line-height="125%" y="240.7254" x="632.28845" font-family="Sans" fill="#000000">
    <tspan id="tspan4385-077" x="632.28845" y="240.7254">C</tspan>
  </text>
 <text id="text4383-75" style="word-spacing:0px;letter-spacing:0px;text-anchor:middle;text-align:center" xml:space="preserve" font-size="32px" line-height="125%" y="240.7254" x="585.91772" font-family="Sans" fill="#000000">
    <tspan id="tspan4385-63" x="585.91772" y="240.7254">C</tspan>
  </text>
 <text id="text4383-29" style="word-spacing:0px;letter-spacing:0px;text-anchor:middle;text-align:center" xml:space="preserve" font-size="32px" line-height="125%" y="286.979" x="585.91772" font-family="Sans" fill="#000000">
    <tspan id="tspan4385-5" x="585.91772" y="286.979">C</tspan>
  </text>
 <text id="text4383-77" style="word-spacing:0px;letter-spacing:0px;text-anchor:middle;text-align:center" xml:space="preserve" font-size="32px" line-height="125%" y="286.979" x="632.28845" font-family="Sans" fill="#000000">
    <tspan id="tspan4385-87" x="632.28845" y="286.979">C</tspan>
  </text>
 <text id="text4383-3" style="word-spacing:0px;letter-spacing:0px;text-anchor:middle;text-align:center" xml:space="preserve" font-size="32px" line-height="125%" y="286.979" x="678.54199" font-family="Sans" fill="#000000">
    <tspan id="tspan4385-50" x="678.54199" y="286.979">C</tspan>
  </text>
 <text id="text4383-93" style="word-spacing:0px;letter-spacing:0px;text-anchor:middle;text-align:center" xml:space="preserve" font-size="32px" line-height="125%" y="240.7254" x="678.54199" font-family="Sans" fill="#000000">
    <tspan id="tspan4385-45" x="678.54199" y="240.7254">C</tspan>
  </text>
 <text id="text4383-45" style="word-spacing:0px;letter-spacing:0px;text-anchor:middle;text-align:center" xml:space="preserve" font-size="32px" line-height="125%" y="240.7254" x="724.44434" font-family="Sans" fill="#000000">
    <tspan id="tspan4385-24" x="724.44434" y="240.7254">C</tspan>
  </text>
 <text id="text4383-02" style="word-spacing:0px;letter-spacing:0px;text-anchor:middle;text-align:center" xml:space="preserve" font-size="32px" line-height="125%" y="240.7254" x="771.28339" font-family="Sans" fill="#000000">
    <tspan id="tspan4385-7" x="771.28339" y="240.7254">C</tspan>
  </text>
 <text id="text4383-91" style="word-spacing:0px;letter-spacing:0px;text-anchor:middle;text-align:center" xml:space="preserve" font-size="32px" line-height="125%" y="286.979" x="771.28339" font-family="Sans" fill="#000000">
    <tspan id="tspan4385-22" x="771.28339" y="286.979">C</tspan>
  </text>
 <text id="text4383-99" style="word-spacing:0px;letter-spacing:0px;text-anchor:middle;text-align:center" xml:space="preserve" font-size="32px" line-height="125%" y="286.979" x="724.44434" font-family="Sans" fill="#000000">
    <tspan id="tspan4385-90" x="724.44434" y="286.979">C</tspan>
  </text>
 <text id="text4383-286" style="word-spacing:0px;letter-spacing:0px;text-anchor:middle;text-align:center" xml:space="preserve" font-size="32px" line-height="125%" y="333.58386" x="771.28339" font-family="Sans" fill="#000000">
    <tspan id="tspan4385-28" x="771.28339" y="333.58386">C</tspan>
  </text>
 <text id="text4383-09" style="word-spacing:0px;letter-spacing:0px;text-anchor:middle;text-align:center" xml:space="preserve" font-size="32px" line-height="125%" y="333.58386" x="724.44434" font-family="Sans" fill="#000000">
    <tspan id="tspan4385-73" x="724.44434" y="333.58386">C</tspan>
  </text>
 <text id="text4383-6" style="word-spacing:0px;letter-spacing:0px;text-anchor:middle;text-align:center" xml:space="preserve" font-size="32px" line-height="125%" y="333.58386" x="678.54199" font-family="Sans" fill="#000000">
    <tspan id="tspan4385-94" x="678.54199" y="333.58386">C</tspan>
  </text>
 <text id="text4383-94" style="word-spacing:0px;letter-spacing:0px;text-anchor:middle;text-align:center" xml:space="preserve" font-size="32px" line-height="125%" y="333.58386" x="632.28845" font-family="Sans" fill="#000000">
    <tspan id="tspan4385-82" x="632.28845" y="333.58386">C</tspan>
  </text>
 <metadata>
  <rdf:RDF>
   <cc:Work>
    <dc:format>image/svg+xml</dc:format>
    <dc:type rdf:resource="http://purl.org/dc/dcmitype/StillImage"/>
    <cc:license rdf:resource="http://creativecommons.org/licenses/publicdomain/"/>
    <dc:publisher>
     <cc:Agent rdf:about="http://openclipart.org/">
      <dc:title>Openclipart</dc:title>
     </cc:Agent>
    </dc:publisher>
   </cc:Work>
   <cc:License rdf:about="http://creativecommons.org/licenses/publicdomain/">
    <cc:permits rdf:resource="http://creativecommons.org/ns#Reproduction"/>
    <cc:permits rdf:resource="http://creativecommons.org/ns#Distribution"/>
    <cc:permits rdf:resource="http://creativecommons.org/ns#DerivativeWorks"/>
   </cc:License>
  </rdf:RDF>
 </metadata>
</svg>
