<?xml version="1.0"?>
<svg xmlns:rdf="http://www.w3.org/1999/02/22-rdf-syntax-ns#" xmlns="http://www.w3.org/2000/svg" xmlns:cc="http://creativecommons.org/ns#" xmlns:dc="http://purl.org/dc/elements/1.1/" id="svg2" viewBox="0 0 791.83 341.63" version="1.1">
 <rect id="rect2993" height="46.865" width="46.203" stroke="#000" y="24.145" x="2.8915" stroke-width="2" fill="none"/>
 <rect id="rect3769" height="93.233" width="46.203" stroke="#000" y="201.27" x="2.7259" stroke-width="2" fill="none"/>
 <path id="path3771" d="m2.8087 248.13h46.286" stroke="#000" stroke-width="2" fill="none"/>
 <rect id="rect3773" height="185.48" width="186.19" stroke="#000" y="155.15" x="180.05" stroke-width="2" fill="none"/>
 <path id="path3775" d="m179.58 201.52h186.42" stroke="#000" stroke-width="2" fill="none"/>
 <path id="path3777" d="m180.28 247.89h185.72" stroke="#000" stroke-width="2" fill="none"/>
 <path id="path3779" d="m179.81 294.49h186.19" stroke="#000" stroke-width="2" fill="none"/>
 <path id="path3781" d="m226.42 154.91v185.01" stroke="#000" stroke-width="2" fill="none"/>
 <path id="path3783" d="m273.02 155.15v185.01" stroke="#000" stroke-width="2" fill="none"/>
 <path id="path3785" d="m319.63 155.15v185.01" stroke="#000" stroke-width="2" fill="none"/>
 <rect id="rect3787" height="92.273" width="185.01" stroke="#000" y="1.2342" x="180.51" stroke-width="2" fill="none"/>
 <path id="path3789" d="m226.18 1.7026v91.57" stroke="#000" stroke-width="2" fill="none"/>
 <path id="path3791" d="m272.79 1.4684v91.805" stroke="#000" stroke-width="2" fill="none"/>
 <path id="path3793" d="m319.39 1.2342v92.039" stroke="#000" stroke-width="2" fill="none"/>
 <path id="path3795" d="m179.81 47.605h185.25" stroke="#000" stroke-width="2" fill="none"/>
 <rect id="rect3797" height="93.678" width="185.95" stroke="#000" y="1" x="604.88" stroke-width="2" fill="none"/>
 <rect id="rect3799" height="46.019" width="46.019" stroke="#000" y="24.302" x="558.74" stroke-width="2" fill="none"/>
 <path id="path3801" d="m604.64 47.605h186.19" stroke="#000" stroke-width="2" fill="none"/>
 <path id="path3803" d="m651.48 1.4684v92.741" stroke="#000" stroke-width="2" fill="none"/>
 <path id="path3805" d="m697.85 1.7026v92.507" stroke="#000" stroke-width="2" fill="none"/>
 <path id="path3807" d="m744.46 1.2342v92.928" stroke="#000" stroke-width="2" fill="none"/>
 <rect id="rect3809" height="185.48" width="185.72" stroke="#000" y="155.15" x="604.88" stroke-width="2" fill="none"/>
 <path id="path3813" d="m790.59 201.52h-231.85" stroke="#000" stroke-width="2" fill="none"/>
 <path id="path3815" d="m790.13 294.49h-231.39" stroke="#000" stroke-width="2" fill="none"/>
 <path id="path3817" d="m559.79 201.4v92.273" stroke="#000" stroke-width="2" fill="none"/>
 <path id="path3819" d="m559.44 248.12h230.21" stroke="#000" stroke-width="2" fill="none"/>
 <path id="path3821" d="m651.48 155.38v184.31" stroke="#000" stroke-width="2" fill="none"/>
 <path id="path3823" d="m697.85 155.15v184.78" stroke="#000" stroke-width="2" fill="none"/>
 <path id="path3825" d="m744.69 155.62v184.55" stroke="#000" stroke-width="2" fill="none"/>
 <path id="path3829" stroke-width="1px" stroke="#000" d="m404.93 243.04h84.871v-11.178l30.885 15.732-30.802 15.732v-12.337h-85.036z"/>
 <path id="path3829-3" stroke-width="1px" stroke="#000" d="m404.93 43.259h84.871v-11.178l30.885 15.732-30.802 15.732v-12.337h-85.036z"/>
 <path id="path3996" d="m3.7381 293.39c-0.04333-0.11385-0.059621-10.118-0.036203-22.232l0.042579-22.025 22.066-0.042 22.066-0.042v44.548h-22.03c-17.472 0-22.046-0.0428-22.109-0.207z" stroke="#000" stroke-width=".331" fill="#0ff"/>
 <path id="path3998" d="m3.7317 224.71v-22.439h44.216v44.878h-44.216v-22.439z" stroke="#000" stroke-width=".027407" fill="#0ff"/>
 <path id="path4000" d="m3.8537 47.564v-22.439h44.216v44.878h-44.216v-22.439z" stroke="#000" stroke-width=".054814" fill="#0ff"/>
 <path id="path4002" d="m181.43 24.412 0.0597-22.19 21.839-0.059756 21.839-0.059756v44.5h-43.796l0.0597-22.19z" stroke="#000" stroke-width=".077519" fill="#f0f"/>
 <path id="path4004" d="m227.09 24.412 0.0597-22.19 22.307-0.059731 22.307-0.059731v44.5h-44.734l0.0597-22.19z" stroke="#000" stroke-width=".077519" fill="#f0f"/>
 <path id="path4006" d="m273.7 24.412 0.0597-22.19 22.307-0.059731 22.307-0.059731v44.5h-44.734l0.0597-22.19z" stroke="#000" stroke-width=".077519" fill="#f0f"/>
 <path id="path4008" d="m320.3 24.412 0.0597-22.19 22.073-0.059743 22.073-0.059743v44.5h-44.266l0.0597-22.19z" stroke="#000" stroke-width=".077519" fill="#f0f"/>
 <path id="path4010" d="m320.3 70.548 0.0598-21.956 22.073-0.05974 22.073-0.05974v44.032h-44.266l0.0598-21.956z" stroke="#000" stroke-width=".077519" fill="#f0f"/>
 <path id="path4012" d="m273.7 70.548 0.0598-21.956 22.307-0.05973 22.307-0.05973v44.032h-44.734l0.0597-21.956z" stroke="#000" stroke-width=".077519" fill="#f0f"/>
 <path id="path4014" d="m227.09 70.548 0.0598-21.956 22.307-0.05973 22.307-0.05973v44.032h-44.734l0.0598-21.956z" stroke="#000" stroke-width=".077519" fill="#f0f"/>
 <path id="path4016" d="m181.43 70.548 0.0598-21.956 21.839-0.05976 21.839-0.05976v44.032h-43.796l0.0597-21.956z" stroke="#000" stroke-width=".077519" fill="#f0f"/>
 <path id="path4018" d="m180.9 178.33v-22.131h44.498v44.262h-44.498v-22.131z" stroke="#000" stroke-width=".077519" fill="#f0f"/>
 <path id="path4020" d="m227.27 178.33v-22.131h44.732v44.262h-44.732v-22.131z" stroke="#000" stroke-width=".077519" fill="#f0f"/>
 <path id="path4022" d="m273.88 178.33v-22.131h44.732v44.262h-44.732v-22.131z" stroke="#000" stroke-width=".077519" fill="#f0f"/>
 <path id="path4024" d="m320.48 178.33v-22.131h44.732v44.262h-44.732v-22.131z" stroke="#000" stroke-width=".077519" fill="#f0f"/>
 <path id="path4026" d="m320.48 224.71v-22.131h44.732v44.262h-44.732v-22.131z" stroke="#000" stroke-width=".077519" fill="#f0f"/>
 <path id="path4028" d="m273.88 224.71v-22.131h44.732v44.262h-44.732v-22.131z" stroke="#000" stroke-width=".077519" fill="#f0f"/>
 <path id="path4030" d="m227.27 224.71v-22.131h44.732v44.262h-44.732v-22.131z" stroke="#000" stroke-width=".077519" fill="#f0f"/>
 <path id="path4032" d="m180.9 224.71v-22.131h44.498v44.262h-44.498v-22.131z" stroke="#000" stroke-width=".077519" fill="#f0f"/>
 <path id="path4034" d="m180.9 271.19v-22.249h44.498v44.498h-44.498v-22.249z" stroke="#000" stroke-width=".077519" fill="#f0f"/>
 <path id="path4036" d="m227.27 271.19v-22.249h44.732v44.498h-44.732v-22.249z" stroke="#000" stroke-width=".077519" fill="#f0f"/>
 <path id="path4038" d="m273.88 271.19v-22.249h44.732v44.498h-44.732v-22.249z" stroke="#000" stroke-width=".077519" fill="#f0f"/>
 <path id="path4040" d="m320.48 271.19v-22.249h44.732v44.498h-44.732v-22.249z" stroke="#000" stroke-width=".077519" fill="#f0f"/>
 <path id="path4042" d="m320.48 317.56v-22.014h44.732v44.028h-44.732v-22.014z" stroke="#000" stroke-width=".077519" fill="#f0f"/>
 <path id="path4044" d="m273.88 317.56v-22.014h44.732v44.028h-44.732v-22.014z" stroke="#000" stroke-width=".077519" fill="#f0f"/>
 <path id="path4046" d="m227.27 317.56v-22.014h44.732v44.028h-44.732v-22.014z" stroke="#000" stroke-width=".077519" fill="#f0f"/>
 <path id="path4048" d="m180.9 317.56v-22.014h44.498v44.028h-44.498v-22.014z" stroke="#000" stroke-width=".077519" fill="#f0f"/>
 <path id="path4050" d="m560.84 271.31v-22.131h43.092v44.262h-43.092v-22.131z" stroke="#000" stroke-width=".077519" fill="#ff0"/>
 <path id="path4052" d="m605.81 271.31v-22.131h44.732v44.262h-44.732v-22.131z" stroke="#000" stroke-width=".077519" fill="#ff0"/>
 <path id="path4054" d="m605.81 317.56v-22.014h44.732v44.028h-44.732v-22.014z" stroke="#000" stroke-width=".077519" fill="#ff0"/>
 <path id="path4056" d="m652.41 317.56v-22.014h44.498v44.028h-44.498v-22.014z" stroke="#000" stroke-width=".077519" fill="#ff0"/>
 <path id="path4058" d="m652.41 271.31v-22.131h44.498v44.262h-44.498v-22.131z" stroke="#000" stroke-width=".077519" fill="#ff0"/>
 <path id="path4060" d="m698.78 271.31v-22.131h44.966v44.262h-44.966v-22.131z" stroke="#000" stroke-width=".077519" fill="#ff0"/>
 <path id="path4062" d="m698.78 317.56v-22.014h44.966v44.028h-44.966v-22.014z" stroke="#000" stroke-width=".077519" fill="#ff0"/>
 <path id="path4064" d="m745.62 317.56v-22.014h44.028v44.028h-44.028v-22.014z" stroke="#000" stroke-width=".077519" fill="#ff0"/>
 <path id="path4066" d="m745.62 271.31v-22.131h44.028v44.262h-44.028v-22.131z" stroke="#000" stroke-width=".077519" fill="#ff0"/>
 <path id="path4068" d="m745.62 224.82v-22.249h44.028v44.498h-44.028v-22.249z" stroke="#000" stroke-width=".077519" fill="#ff0"/>
 <path id="path4074" d="m698.78 224.82v-22.249h44.966v44.498h-44.966v-22.249z" stroke="#000" stroke-width=".077519" fill="#ff0"/>
 <path id="path4076" d="m698.78 178.33v-22.131h44.966v44.262h-44.966v-22.131z" stroke="#000" stroke-width=".077519" fill="#ff0"/>
 <path id="path4078" d="m745.62 178.33v-22.131h44.028v44.262h-44.028v-22.131z" stroke="#000" stroke-width=".077519" fill="#ff0"/>
 <path id="path4080" d="m652.41 178.33v-22.131h44.498v44.262h-44.498v-22.131z" stroke="#000" stroke-width=".077519" fill="#ff0"/>
 <path id="path4082" d="m652.41 224.82v-22.249h44.498v44.498h-44.498v-22.249z" stroke="#000" stroke-width=".077519" fill="#ff0"/>
 <path id="path4084" d="m605.81 224.82v-22.249h44.732v44.498h-44.732v-22.249z" stroke="#000" stroke-width=".077519" fill="#ff0"/>
 <path id="path4086" d="m605.81 178.33v-22.131h44.732v44.262h-44.732v-22.131z" stroke="#000" stroke-width=".077519" fill="#ff0"/>
 <path id="path4088" d="m560.84 224.82v-22.249h43.092v44.498h-43.092v-22.249z" stroke="#000" stroke-width=".077519" fill="#ff0"/>
 <path id="path4090" d="m605.86 71.134 0.0597-22.541 22.307-0.05973 22.307-0.05973v45.202h-44.734l0.0597-22.541z" stroke="#000" stroke-width=".077519" fill="#ff0"/>
 <path id="path4092" d="m559.67 47.304v-22.014h44.028v44.028h-44.028v-22.014z" stroke="#000" stroke-width=".077519" fill="#ff0"/>
 <path id="path4094" d="m605.86 24.294 0.0597-22.307 22.307-0.059731 22.307-0.059731v44.734h-44.734l0.0597-22.307z" stroke="#000" stroke-width=".077519" fill="#ff0"/>
 <path id="path4096" d="m652.47 24.294 0.0597-22.307 22.19-0.059737 22.19-0.059737v44.734h-44.5l0.0597-22.307z" stroke="#000" stroke-width=".077519" fill="#ff0"/>
 <path id="path4098" d="m652.47 71.134 0.0597-22.541 22.19-0.05974 22.19-0.05974v45.202h-44.5l0.0597-22.541z" stroke="#000" stroke-width=".077519" fill="#ff0"/>
 <path id="path4100" d="m698.84 71.134 0.0597-22.541 22.307-0.05973 22.307-0.05973v45.202h-44.734l0.0597-22.541z" stroke="#000" stroke-width=".077519" fill="#ff0"/>
 <path id="path4102" d="m698.84 24.294 0.0597-22.307 22.307-0.059731 22.307-0.059731v44.734h-44.734l0.0597-22.307z" stroke="#000" stroke-width=".077519" fill="#ff0"/>
 <path id="path4104" d="m745.44 24.294 0.0597-22.307 22.19-0.059737 22.19-0.059737v44.734h-44.5l0.0597-22.307z" stroke="#000" stroke-width=".077519" fill="#ff0"/>
 <path id="path4106" d="m745.44 71.134 0.0597-22.541 22.19-0.05974 22.19-0.05974v45.202h-44.5l0.0597-22.541z" stroke="#000" stroke-width=".077519" fill="#ff0"/>
 <text id="text4108" style="word-spacing:0px;letter-spacing:0px;text-anchor:middle;text-align:center" xml:space="preserve" font-size="32px" line-height="125%" y="58.274445" x="25.46875" font-family="Sans" fill="#000000">     <tspan id="tspan4110" y="58.274445" x="25.46875">A</tspan>   </text>
 <text id="text4108-9" style="word-spacing:0px;letter-spacing:0px;text-anchor:middle;text-align:center" xml:space="preserve" font-size="32px" line-height="125%" y="236.24051" x="25.835669" font-family="Sans" fill="#000000">     <tspan id="tspan4110-0" y="236.24051" x="25.835669">A</tspan>   </text>
 <text id="text4108-3" style="word-spacing:0px;letter-spacing:0px;text-anchor:middle;text-align:center" xml:space="preserve" font-size="32px" line-height="125%" y="281.9086" x="25.835669" font-family="Sans" fill="#000000">     <tspan id="tspan4110-7" y="281.9086" x="25.835669">A</tspan>   </text>
 <text id="text4151" style="word-spacing:0px;letter-spacing:0px;text-anchor:middle;text-align:center" xml:space="preserve" font-size="32px" line-height="125%" y="329.45026" x="202.56706" font-family="Sans" fill="#000000">     <tspan id="tspan4153" y="329.45026" x="202.56706">B</tspan>   </text>
 <text id="text4151-3" style="word-spacing:0px;letter-spacing:0px;text-anchor:middle;text-align:center" xml:space="preserve" font-size="32px" line-height="125%" y="282.14282" x="202.56706" font-family="Sans" fill="#000000">     <tspan id="tspan4153-2" y="282.14282" x="202.56706">B</tspan>   </text>
 <text id="text4151-0" style="word-spacing:0px;letter-spacing:0px;text-anchor:middle;text-align:center" xml:space="preserve" font-size="32px" line-height="125%" y="236.24051" x="202.56706" font-family="Sans" fill="#000000">     <tspan id="tspan4153-3" y="236.24051" x="202.56706">B</tspan>   </text>
 <text id="text4151-4" style="word-spacing:0px;letter-spacing:0px;text-anchor:middle;text-align:center" xml:space="preserve" font-size="32px" line-height="125%" y="189.86981" x="202.56706" font-family="Sans" fill="#000000">     <tspan id="tspan4153-8" y="189.86981" x="202.56706">B</tspan>   </text>
 <text id="text4151-5" style="word-spacing:0px;letter-spacing:0px;text-anchor:middle;text-align:center" xml:space="preserve" font-size="32px" line-height="125%" y="189.86981" x="248.70357" font-family="Sans" fill="#000000">     <tspan id="tspan4153-23" y="189.86981" x="248.70357">B</tspan>   </text>
 <text id="text4151-1" style="word-spacing:0px;letter-spacing:0px;text-anchor:middle;text-align:center" xml:space="preserve" font-size="32px" line-height="125%" y="189.86981" x="295.42551" font-family="Sans" fill="#000000">     <tspan id="tspan4153-1" y="189.86981" x="295.42551">B</tspan>   </text>
 <text id="text4151-2" style="word-spacing:0px;letter-spacing:0px;text-anchor:middle;text-align:center" xml:space="preserve" font-size="32px" line-height="125%" y="189.86981" x="342.733" font-family="Sans" fill="#000000">     <tspan id="tspan4153-5" y="189.86981" x="342.733">B</tspan>   </text>
 <text id="text4151-53" style="word-spacing:0px;letter-spacing:0px;text-anchor:middle;text-align:center" xml:space="preserve" font-size="32px" line-height="125%" y="236.24051" x="342.733" font-family="Sans" fill="#000000">     <tspan id="tspan4153-18" y="236.24051" x="342.733">B</tspan>   </text>
 <text id="text4151-06" style="word-spacing:0px;letter-spacing:0px;text-anchor:middle;text-align:center" xml:space="preserve" font-size="32px" line-height="125%" y="236.24051" x="295.42551" font-family="Sans" fill="#000000">     <tspan id="tspan4153-7" y="236.24051" x="295.42551">B</tspan>   </text>
 <text id="text4151-13" style="word-spacing:0px;letter-spacing:0px;text-anchor:middle;text-align:center" xml:space="preserve" font-size="32px" line-height="125%" y="282.14282" x="295.42551" font-family="Sans" fill="#000000">     <tspan id="tspan4153-9" y="282.14282" x="295.42551">B</tspan>   </text>
 <text id="text4151-38" style="word-spacing:0px;letter-spacing:0px;text-anchor:middle;text-align:center" xml:space="preserve" font-size="32px" line-height="125%" y="282.14282" x="342.733" font-family="Sans" fill="#000000">     <tspan id="tspan4153-76" y="282.14282" x="342.733">B</tspan>   </text>
 <text id="text4151-9" style="word-spacing:0px;letter-spacing:0px;text-anchor:middle;text-align:center" xml:space="preserve" font-size="32px" line-height="125%" y="282.14282" x="248.70357" font-family="Sans" fill="#000000">     <tspan id="tspan4153-56" y="282.14282" x="248.70357">B</tspan>   </text>
 <text id="text4151-54" style="word-spacing:0px;letter-spacing:0px;text-anchor:middle;text-align:center" xml:space="preserve" font-size="32px" line-height="125%" y="236.24051" x="248.70357" font-family="Sans" fill="#000000">     <tspan id="tspan4153-15" y="236.24051" x="248.70357">B</tspan>   </text>
 <text id="text4151-08" style="word-spacing:0px;letter-spacing:0px;text-anchor:middle;text-align:center" xml:space="preserve" font-size="32px" line-height="125%" y="329.45026" x="248.70357" font-family="Sans" fill="#000000">     <tspan id="tspan4153-72" y="329.45026" x="248.70357">B</tspan>   </text>
 <text id="text4151-07" style="word-spacing:0px;letter-spacing:0px;text-anchor:middle;text-align:center" xml:space="preserve" font-size="32px" line-height="125%" y="329.45026" x="295.42551" font-family="Sans" fill="#000000">     <tspan id="tspan4153-94" y="329.45026" x="295.42551">B</tspan>   </text>
 <text id="text4151-49" style="word-spacing:0px;letter-spacing:0px;text-anchor:middle;text-align:center" xml:space="preserve" font-size="32px" line-height="125%" y="329.45026" x="342.733" font-family="Sans" fill="#000000">     <tspan id="tspan4153-565" y="329.45026" x="342.733">B</tspan>   </text>
 <text id="text4151-97" style="word-spacing:0px;letter-spacing:0px;text-anchor:middle;text-align:center" xml:space="preserve" font-size="32px" line-height="125%" y="81.320251" x="340.97653" font-family="Sans" fill="#000000">     <tspan id="tspan4153-6" y="81.320251" x="340.97653">B</tspan>   </text>
 <text id="text4151-55" style="word-spacing:0px;letter-spacing:0px;text-anchor:middle;text-align:center" xml:space="preserve" font-size="32px" line-height="125%" y="36.120533" x="340.97653" font-family="Sans" fill="#000000">     <tspan id="tspan4153-13" y="36.120533" x="340.97653">B</tspan>   </text>
 <text id="text4151-25" style="word-spacing:0px;letter-spacing:0px;text-anchor:middle;text-align:center" xml:space="preserve" font-size="32px" line-height="125%" y="36.120533" x="294.25455" font-family="Sans" fill="#000000">     <tspan id="tspan4153-88" y="36.120533" x="294.25455">B</tspan>   </text>
 <text id="text4151-255" style="word-spacing:0px;letter-spacing:0px;text-anchor:middle;text-align:center" xml:space="preserve" font-size="32px" line-height="125%" y="81.320251" x="294.25455" font-family="Sans" fill="#000000">     <tspan id="tspan4153-35" y="81.320251" x="294.25455">B</tspan>   </text>
 <text id="text4151-93" style="word-spacing:0px;letter-spacing:0px;text-anchor:middle;text-align:center" xml:space="preserve" font-size="32px" line-height="125%" y="81.320251" x="248.82066" font-family="Sans" fill="#000000">     <tspan id="tspan4153-0" y="81.320251" x="248.82066">B</tspan>   </text>
 <text id="text4151-98" style="word-spacing:0px;letter-spacing:0px;text-anchor:middle;text-align:center" xml:space="preserve" font-size="32px" line-height="125%" y="36.120533" x="248.82066" font-family="Sans" fill="#000000">     <tspan id="tspan4153-29" y="36.120533" x="248.82066">B</tspan>   </text>
 <text id="text4151-7" style="word-spacing:0px;letter-spacing:0px;text-anchor:middle;text-align:center" xml:space="preserve" font-size="32px" line-height="125%" y="36.120533" x="202.44997" font-family="Sans" fill="#000000">     <tspan id="tspan4153-00" y="36.120533" x="202.44997">B</tspan>   </text>
 <text id="text4151-10" style="word-spacing:0px;letter-spacing:0px;text-anchor:middle;text-align:center" xml:space="preserve" font-size="32px" line-height="125%" y="81.320251" x="202.44997" font-family="Sans" fill="#000000">     <tspan id="tspan4153-4" y="81.320251" x="202.44997">B</tspan>   </text>
 <text id="text4383" style="word-spacing:0px;letter-spacing:0px;text-anchor:middle;text-align:center" xml:space="preserve" font-size="32px" line-height="125%" y="58.486195" x="580.35559" font-family="Sans" fill="#000000">     <tspan id="tspan4385" y="58.486195" x="580.35559">C</tspan>   </text>
 <text id="text4383-9" style="word-spacing:0px;letter-spacing:0px;text-anchor:middle;text-align:center" xml:space="preserve" font-size="32px" line-height="125%" y="36.003437" x="627.78015" font-family="Sans" fill="#000000">     <tspan id="tspan4385-4" y="36.003437" x="627.78015">C</tspan>   </text>
 <text id="text4383-4" style="word-spacing:0px;letter-spacing:0px;text-anchor:middle;text-align:center" xml:space="preserve" font-size="32px" line-height="125%" y="36.003437" x="674.73633" font-family="Sans" fill="#000000">     <tspan id="tspan4385-8" y="36.003437" x="674.73633">C</tspan>   </text>
 <text id="text4383-7" style="word-spacing:0px;letter-spacing:0px;text-anchor:middle;text-align:center" xml:space="preserve" font-size="32px" line-height="125%" y="36.003437" x="720.98993" font-family="Sans" fill="#000000">     <tspan id="tspan4385-6" y="36.003437" x="720.98993">C</tspan>   </text>
 <text id="text4383-1" style="word-spacing:0px;letter-spacing:0px;text-anchor:middle;text-align:center" xml:space="preserve" font-size="32px" line-height="125%" y="36.003437" x="767.24353" font-family="Sans" fill="#000000">     <tspan id="tspan4385-1" y="36.003437" x="767.24353">C</tspan>   </text>
 <text id="text4383-2" style="word-spacing:0px;letter-spacing:0px;text-anchor:middle;text-align:center" xml:space="preserve" font-size="32px" line-height="125%" y="81.788635" x="767.24353" font-family="Sans" fill="#000000">     <tspan id="tspan4385-49" y="81.788635" x="767.24353">C</tspan>   </text>
 <text id="text4383-0" style="word-spacing:0px;letter-spacing:0px;text-anchor:middle;text-align:center" xml:space="preserve" font-size="32px" line-height="125%" y="81.788635" x="720.98993" font-family="Sans" fill="#000000">     <tspan id="tspan4385-19" y="81.788635" x="720.98993">C</tspan>   </text>
 <text id="text4383-40" style="word-spacing:0px;letter-spacing:0px;text-anchor:middle;text-align:center" xml:space="preserve" font-size="32px" line-height="125%" y="81.788635" x="674.73633" font-family="Sans" fill="#000000">     <tspan id="tspan4385-0" y="81.788635" x="674.73633">C</tspan>   </text>
 <text id="text4383-43" style="word-spacing:0px;letter-spacing:0px;text-anchor:middle;text-align:center" xml:space="preserve" font-size="32px" line-height="125%" y="81.788635" x="627.78015" font-family="Sans" fill="#000000">     <tspan id="tspan4385-9" y="81.788635" x="627.78015">C</tspan>   </text>
 <text id="text4383-28" style="word-spacing:0px;letter-spacing:0px;text-anchor:middle;text-align:center" xml:space="preserve" font-size="32px" line-height="125%" y="189.86981" x="767.00934" font-family="Sans" fill="#000000">     <tspan id="tspan4385-42" y="189.86981" x="767.00934">C</tspan>   </text>
 <text id="text4383-06" style="word-spacing:0px;letter-spacing:0px;text-anchor:middle;text-align:center" xml:space="preserve" font-size="32px" line-height="125%" y="189.86981" x="720.17029" font-family="Sans" fill="#000000">     <tspan id="tspan4385-07" y="189.86981" x="720.17029">C</tspan>   </text>
 <text id="text4383-5" style="word-spacing:0px;letter-spacing:0px;text-anchor:middle;text-align:center" xml:space="preserve" font-size="32px" line-height="125%" y="189.86981" x="674.26794" font-family="Sans" fill="#000000">     <tspan id="tspan4385-2" y="189.86981" x="674.26794">C</tspan>   </text>
 <text id="text4383-72" style="word-spacing:0px;letter-spacing:0px;text-anchor:middle;text-align:center" xml:space="preserve" font-size="32px" line-height="125%" y="189.86981" x="628.0144" font-family="Sans" fill="#000000">     <tspan id="tspan4385-17" y="189.86981" x="628.0144">C</tspan>   </text>
 <text id="text4383-53" style="word-spacing:0px;letter-spacing:0px;text-anchor:middle;text-align:center" xml:space="preserve" font-size="32px" line-height="125%" y="236.3576" x="628.0144" font-family="Sans" fill="#000000">     <tspan id="tspan4385-077" y="236.3576" x="628.0144">C</tspan>   </text>
 <text id="text4383-75" style="word-spacing:0px;letter-spacing:0px;text-anchor:middle;text-align:center" xml:space="preserve" font-size="32px" line-height="125%" y="236.3576" x="581.64368" font-family="Sans" fill="#000000">     <tspan id="tspan4385-63" y="236.3576" x="581.64368">C</tspan>   </text>
 <text id="text4383-29" style="word-spacing:0px;letter-spacing:0px;text-anchor:middle;text-align:center" xml:space="preserve" font-size="32px" line-height="125%" y="282.61121" x="581.64368" font-family="Sans" fill="#000000">     <tspan id="tspan4385-5" y="282.61121" x="581.64368">C</tspan>   </text>
 <text id="text4383-77" style="word-spacing:0px;letter-spacing:0px;text-anchor:middle;text-align:center" xml:space="preserve" font-size="32px" line-height="125%" y="282.61121" x="628.0144" font-family="Sans" fill="#000000">     <tspan id="tspan4385-87" y="282.61121" x="628.0144">C</tspan>   </text>
 <text id="text4383-3" style="word-spacing:0px;letter-spacing:0px;text-anchor:middle;text-align:center" xml:space="preserve" font-size="32px" line-height="125%" y="282.61121" x="674.26794" font-family="Sans" fill="#000000">     <tspan id="tspan4385-50" y="282.61121" x="674.26794">C</tspan>   </text>
 <text id="text4383-93" style="word-spacing:0px;letter-spacing:0px;text-anchor:middle;text-align:center" xml:space="preserve" font-size="32px" line-height="125%" y="236.3576" x="674.26794" font-family="Sans" fill="#000000">     <tspan id="tspan4385-45" y="236.3576" x="674.26794">C</tspan>   </text>
 <text id="text4383-45" style="word-spacing:0px;letter-spacing:0px;text-anchor:middle;text-align:center" xml:space="preserve" font-size="32px" line-height="125%" y="236.3576" x="720.17029" font-family="Sans" fill="#000000">     <tspan id="tspan4385-24" y="236.3576" x="720.17029">C</tspan>   </text>
 <text id="text4383-02" style="word-spacing:0px;letter-spacing:0px;text-anchor:middle;text-align:center" xml:space="preserve" font-size="32px" line-height="125%" y="236.3576" x="767.00934" font-family="Sans" fill="#000000">     <tspan id="tspan4385-7" y="236.3576" x="767.00934">C</tspan>   </text>
 <text id="text4383-91" style="word-spacing:0px;letter-spacing:0px;text-anchor:middle;text-align:center" xml:space="preserve" font-size="32px" line-height="125%" y="282.61121" x="767.00934" font-family="Sans" fill="#000000">     <tspan id="tspan4385-22" y="282.61121" x="767.00934">C</tspan>   </text>
 <text id="text4383-99" style="word-spacing:0px;letter-spacing:0px;text-anchor:middle;text-align:center" xml:space="preserve" font-size="32px" line-height="125%" y="282.61121" x="720.17029" font-family="Sans" fill="#000000">     <tspan id="tspan4385-90" y="282.61121" x="720.17029">C</tspan>   </text>
 <text id="text4383-286" style="word-spacing:0px;letter-spacing:0px;text-anchor:middle;text-align:center" xml:space="preserve" font-size="32px" line-height="125%" y="329.21606" x="767.00934" font-family="Sans" fill="#000000">     <tspan id="tspan4385-28" y="329.21606" x="767.00934">C</tspan>   </text>
 <text id="text4383-09" style="word-spacing:0px;letter-spacing:0px;text-anchor:middle;text-align:center" xml:space="preserve" font-size="32px" line-height="125%" y="329.21606" x="720.17029" font-family="Sans" fill="#000000">     <tspan id="tspan4385-73" y="329.21606" x="720.17029">C</tspan>   </text>
 <text id="text4383-6" style="word-spacing:0px;letter-spacing:0px;text-anchor:middle;text-align:center" xml:space="preserve" font-size="32px" line-height="125%" y="329.21606" x="674.26794" font-family="Sans" fill="#000000">     <tspan id="tspan4385-94" y="329.21606" x="674.26794">C</tspan>   </text>
 <text id="text4383-94" style="word-spacing:0px;letter-spacing:0px;text-anchor:middle;text-align:center" xml:space="preserve" font-size="32px" line-height="125%" y="329.21606" x="628.0144" font-family="Sans" fill="#000000">     <tspan id="tspan4385-82" y="329.21606" x="628.0144">C</tspan>   </text>
 <metadata>
  <rdf:RDF>
   <cc:Work>
    <dc:format>image/svg+xml</dc:format>
    <dc:type rdf:resource="http://purl.org/dc/dcmitype/StillImage"/>
    <cc:license rdf:resource="http://creativecommons.org/licenses/publicdomain/"/>
    <dc:publisher>
     <cc:Agent rdf:about="http://openclipart.org/">
      <dc:title>Openclipart</dc:title>
     </cc:Agent>
    </dc:publisher>
   </cc:Work>
   <cc:License rdf:about="http://creativecommons.org/licenses/publicdomain/">
    <cc:permits rdf:resource="http://creativecommons.org/ns#Reproduction"/>
    <cc:permits rdf:resource="http://creativecommons.org/ns#Distribution"/>
    <cc:permits rdf:resource="http://creativecommons.org/ns#DerivativeWorks"/>
   </cc:License>
  </rdf:RDF>
 </metadata>
</svg>
