<?xml version="1.0"?>
<svg xmlns:rdf="http://www.w3.org/1999/02/22-rdf-syntax-ns#" xmlns="http://www.w3.org/2000/svg" xmlns:cc="http://creativecommons.org/ns#" xmlns:dc="http://purl.org/dc/elements/1.1/" id="svg2" viewBox="0 0 531.31 370.71" version="1.1">
 <defs id="defs6">
  <marker id="Arrow1Lend" refY="0" refX="0" orient="auto" overflow="visible">
   <path id="path3637" d="m0 0 5-5-17.5 5 17.5 5-5-5z" fill-rule="evenodd" transform="matrix(-.8 0 0 -.8 -10 0)" stroke="#000" stroke-width="1pt"/>
  </marker>
 </defs>
 <path id="path2818" d="m146.09 188.47a3.403 3.403 0 1 1 -6.8059 0 3.403 3.403 0 1 1 6.8059 0z"/>
 <path id="path3592" d="m272.09 188.47a3.403 3.403 0 1 1 -6.8059 0 3.403 3.403 0 1 1 6.8059 0z"/>
 <path id="path3594" d="m392.09 188.47a3.403 3.403 0 1 1 -6.8059 0 3.403 3.403 0 1 1 6.8059 0z"/>
 <path id="path3596" d="m191.68 188.52a48.905 48.905 0 1 1 -97.808 0 48.905 48.905 0 1 1 97.808 0z" stroke="#000" stroke-dasharray="8.00014097, 8.00014097" stroke-width="2" fill="none"/>
 <path id="path3598" d="m284.3 188.36a141.65 141.65 0 1 1 -283.3 0 141.65 141.65 0 1 1 283.3 0z" stroke="#000" stroke-dasharray="7.99990447, 7.99990447" stroke-width="2" fill="none"/>
 <path id="path3600" d="m437.68 188.52a48.905 48.905 0 1 1 -97.808 0 48.905 48.905 0 1 1 97.808 0z" stroke="#000" stroke-dasharray="8.00014097, 8.00014097" stroke-width="2" fill="none"/>
 <path id="path3602" d="m530.3 188.36a141.65 141.65 0 1 1 -283.3 0 141.65 141.65 0 1 1 283.3 0z" stroke="#000" stroke-dasharray="7.99990447, 7.99990447" stroke-width="2" fill="none"/>
 <text id="text3604" xml:space="preserve" font-size="24px" y="178.87614" x="144.84964" font-family="Arial" fill="#000000">     <tspan id="tspan3606" y="178.87614" x="144.84964">+</tspan>   </text>
 <text id="text3608" xml:space="preserve" font-size="24px" y="178.87614" x="388.62469" font-family="Arial" fill="#000000">     <tspan id="tspan3610" y="178.87614" x="388.62469">+</tspan>   </text>
 <text id="text3612" xml:space="preserve" font-size="24px" y="180.87614" x="268.62469" font-family="Arial" fill="#000000">     <tspan id="tspan3614" y="180.87614" x="268.62469">-</tspan>   </text>
 <text id="text3616" xml:space="preserve" font-size="24px" y="17.390625" x="134.33142" font-family="Arial" fill="#000000">     <tspan id="tspan3618" y="17.390625" x="134.33142">shared electron</tspan>   </text>
 <text id="text3620" xml:space="preserve" font-size="24px" y="365.72916" x="245.70074" font-family="Arial" fill="#000000">     <tspan id="tspan3622" y="365.72916" x="245.70074">orbit overlap</tspan>   </text>
 <path id="path3624" d="m265.7 118.16c-11.874 20.722-18.656 44.718-18.656 70.312 0 25.595 6.7815 49.59 18.656 70.312 11.87-20.719 18.625-44.722 18.625-70.312 0-25.589-6.7555-49.594-18.625-70.312z" fill-opacity=".12549" stroke="#000" stroke-dasharray="8.00000017, 8.00000017" stroke-width="2"/>
 <path id="path3629" marker-end="url(#Arrow1Lend)" d="m188.78 24.816 74.86 155.92" stroke="#000" stroke-width="1px" fill="none"/>
 <path id="path4265" d="m281.59 341.6-15.47-116.32" stroke="#000" stroke-width="1px" fill="none"/>
 <metadata>
  <rdf:RDF>
   <cc:Work>
    <dc:format>image/svg+xml</dc:format>
    <dc:type rdf:resource="http://purl.org/dc/dcmitype/StillImage"/>
    <cc:license rdf:resource="http://creativecommons.org/licenses/publicdomain/"/>
    <dc:publisher>
     <cc:Agent rdf:about="http://openclipart.org/">
      <dc:title>Openclipart</dc:title>
     </cc:Agent>
    </dc:publisher>
   </cc:Work>
   <cc:License rdf:about="http://creativecommons.org/licenses/publicdomain/">
    <cc:permits rdf:resource="http://creativecommons.org/ns#Reproduction"/>
    <cc:permits rdf:resource="http://creativecommons.org/ns#Distribution"/>
    <cc:permits rdf:resource="http://creativecommons.org/ns#DerivativeWorks"/>
   </cc:License>
  </rdf:RDF>
 </metadata>
</svg>
