<?xml version="1.0"?>
<svg xmlns:rdf="http://www.w3.org/1999/02/22-rdf-syntax-ns#" xmlns="http://www.w3.org/2000/svg" xmlns:cc="http://web.resource.org/cc/" xmlns:dc="http://purl.org/dc/elements/1.1/" id="svg2" height="413" width="578" version="1.1">
 <defs id="defs6">
  <marker id="Arrow1Lend" refY="0" refX="0" overflow="visible" orient="auto">
   <path id="path3637" d="m0 0 5-5-17.5 5 17.5 5-5-5z" fill-rule="evenodd" transform="matrix(-.8 0 0 -.8 -10 0)" stroke="#000" stroke-width="1pt"/>
  </marker>
 </defs>
 <path id="path2818" d="m165.2 210.37a3.403 3.403 0 1 1 -6.8059 0 3.403 3.403 0 1 1 6.8059 0z"/>
 <path id="path3592" d="m165.2 210.37a3.403 3.403 0 1 1 -6.8059 0 3.403 3.403 0 1 1 6.8059 0z" transform="translate(126)"/>
 <path id="path3594" d="m165.2 210.37a3.403 3.403 0 1 1 -6.8059 0 3.403 3.403 0 1 1 6.8059 0z" transform="translate(246)"/>
 <path id="path3596" d="m165.2 210.37a3.403 3.403 0 1 1 -6.8059 0 3.403 3.403 0 1 1 6.8059 0z" transform="matrix(14.371 0 0 14.371 -2163.3 -2812.8)" stroke="#000" stroke-dasharray="0.55668645, 0.55668645" stroke-width=".13917" fill="none"/>
 <path id="path3598" d="m165.2 210.37a3.403 3.403 0 1 1 -6.8059 0 3.403 3.403 0 1 1 6.8059 0z" transform="matrix(41.626 0 0 41.626 -6573.2 -8546.6)" stroke="#000" stroke-dasharray="0.19218528, 0.19218528" stroke-width=".048046" fill="none"/>
 <path id="path3600" d="m165.2 210.37a3.403 3.403 0 1 1 -6.8059 0 3.403 3.403 0 1 1 6.8059 0z" transform="matrix(14.371 0 0 14.371 -1917.3 -2812.8)" stroke="#000" stroke-dasharray="0.55668645, 0.55668645" stroke-width=".13917" fill="none"/>
 <path id="path3602" d="m165.2 210.37a3.403 3.403 0 1 1 -6.8059 0 3.403 3.403 0 1 1 6.8059 0z" transform="matrix(41.626 0 0 41.626 -6327.2 -8546.6)" stroke="#000" stroke-dasharray="0.19218528, 0.19218528" stroke-width=".048046" fill="none"/>
 <text id="text3604" xml:space="preserve" font-size="24px" y="200.77957" x="163.96039" font-family="Arial" fill="#000000">
    <tspan id="tspan3606" y="200.77957" x="163.96039">+</tspan>
  </text>
 <text id="text3608" xml:space="preserve" font-size="24px" y="200.77957" x="407.73544" font-family="Arial" fill="#000000">
    <tspan id="tspan3610" y="200.77957" x="407.73544">+</tspan>
  </text>
 <text id="text3612" xml:space="preserve" font-size="24px" y="202.77957" x="287.73544" font-family="Arial" fill="#000000">
    <tspan id="tspan3614" y="202.77957" x="287.73544">-</tspan>
  </text>
 <text id="text3616" xml:space="preserve" font-size="24px" y="39.294048" x="153.44217" font-family="Arial" fill="#000000">
    <tspan id="tspan3618" y="39.294048" x="153.44217">shared electron</tspan>
  </text>
 <text id="text3620" xml:space="preserve" font-size="24px" y="387.63257" x="264.81149" font-family="Arial" fill="#000000">
    <tspan id="tspan3622" y="387.63257" x="264.81149">orbit overlap</tspan>
  </text>
 <path id="path3624" d="m284.81 140.06c-11.874 20.722-18.656 44.718-18.656 70.312 0 25.595 6.7815 49.59 18.656 70.312 11.87-20.719 18.625-44.722 18.625-70.312 0-25.589-6.7555-49.594-18.625-70.312z" fill-opacity=".12549" stroke="#000" stroke-dasharray="8.00000017, 8.00000017" stroke-width="2"/>
 <path id="path3629" marker-end="url(#Arrow1Lend)" d="m207.89 46.719 74.86 155.92" stroke="#000" stroke-width="1px" fill="none"/>
 <path id="path4265" d="m300.7 363.5-15.47-116.32" stroke="#000" stroke-width="1px" fill="none"/>
 <metadata>
  <rdf:RDF>
   <cc:Work>
    <dc:format>image/svg+xml</dc:format>
    <dc:type rdf:resource="http://purl.org/dc/dcmitype/StillImage"/>
    <cc:license rdf:resource="http://creativecommons.org/licenses/publicdomain/"/>
    <dc:publisher>
     <cc:Agent rdf:about="http://openclipart.org/">
      <dc:title>Openclipart</dc:title>
     </cc:Agent>
    </dc:publisher>
   </cc:Work>
   <cc:License rdf:about="http://creativecommons.org/licenses/publicdomain/">
    <cc:permits rdf:resource="http://creativecommons.org/ns#Reproduction"/>
    <cc:permits rdf:resource="http://creativecommons.org/ns#Distribution"/>
    <cc:permits rdf:resource="http://creativecommons.org/ns#DerivativeWorks"/>
   </cc:License>
  </rdf:RDF>
 </metadata>
</svg>
