<?xml version="1.0"?>
<svg xmlns:rdf="http://www.w3.org/1999/02/22-rdf-syntax-ns#" xmlns="http://www.w3.org/2000/svg" xmlns:cc="http://creativecommons.org/ns#" xmlns:dc="http://purl.org/dc/elements/1.1/" id="svg2" viewBox="0 0 1443.7 2321.9" version="1.0">
 <g id="layer1" opacity=".4" transform="translate(180.55 754.35)">
  <path id="path2180" fill="#ae6235" d="m634.5 1566.4c-4.1696-1.87-10.351-7.6095-13.429-12.468-1.2193-1.925-3.0244-6.425-4.0114-10-0.9869-3.575-3.0214-8.975-4.521-12-3.5099-7.0804-6.661-26.549-8.012-49.5-0.9061-15.394-1.3366-17.992-4.5574-27.5-1.9562-5.775-4.184-13.2-4.9506-16.5s-1.8318-7.8-2.3671-10-1.2901-8.275-1.6775-13.5c-0.5353-7.2205-1.5563-11.78-4.2552-19-1.953-5.225-3.8683-12.425-4.2563-16-0.4399-4.0538-2.0391-9.4606-4.2495-14.367-5.0183-11.139-5.4741-16.996-2.1506-27.633 4.7582-15.229 4.4181-37.487-1.1077-72.5-2.7896-17.675-10.639-61.249-13.601-75.5-4.1637-20.034-5.4114-24.591-15.789-57.658-8.8284-28.132-9.3894-34.027-12.927-135.84l-0.8686-25-5.2441-13.492c-2.8843-7.4205-6.8333-16.646-8.7757-20.5-5.5344-10.983-12.891-33.074-15.171-45.556-1.4558-7.9702-2.0841-15.587-2.0966-25.416-0.01-7.7195-0.4484-18.085-0.9748-23.035s-1.4443-16.875-2.0399-26.5-1.9443-23.575-2.9971-31c-2.4398-17.207-13.428-70.411-20.963-101.5-3.575-14.75-6.6987-30.676-8.1051-41.323-1.2585-9.5277-2.7638-17.952-3.3451-18.721-0.8688-1.1496-2.2662-0.6161-7.8548 2.9986-5.4784 3.5435-8.0018 4.5241-13 5.0521-3.6728 0.3879-7.338 0.2189-8.9877-0.4144-2.1091-0.8097-2.8742-0.7686-3.1503 0.1694-0.2005 0.6813-1.5581 10.239-3.0167 21.239-1.4587 11-4.1898 26.975-6.0692 35.5-4.7143 21.384-10.253 56.348-11.445 72.249-0.5463 7.2883-1.655 17.751-2.4638 23.251-1.526 10.378-3.6087 57.599-3.6166 82-0.007 21.57-1.3053 31.072-6.3533 46.5-2.4294 7.425-6.3078 18-8.6186 23.5s-5.5018 14.617-7.0912 20.26c-4.0877 14.513-4.05 17.4 1.1329 86.809 0.5779 7.738 1.0492 20.788 1.0475 29-0.004 20.89-1.6977 30.75-14.071 81.931-2.1276 8.8-4.6147 20.05-5.527 25s-2.5588 13.275-3.6588 18.5-2.3775 12.2-2.8388 15.5-1.7489 10.95-2.8612 17c-2.7387 14.897-5.1131 41.75-5.1131 57.829 0 10.815 0.4559 15.014 2.5078 23.103 3.7251 14.685 4.0669 21.613 1.4835 30.068-7.6762 25.122-9.0293 32.647-9.9805 55.5-0.7113 17.088-1.1471 20.551-3.5236 28-1.4916 4.675-3.7355 10.525-4.9864 13-3.2324 6.3952-4.6973 17.293-4.5438 33.805 0.0731 7.8675-0.3081 15.742-0.8472 17.5-0.5391 1.7575-2.1612 7.8784-3.6046 13.602-1.4435 5.7238-3.5429 12.207-4.6655 14.408-1.1226 2.2004-2.7011 6.2924-3.5079 9.0933s-3.0653 7.4535-5.0189 10.339c-3.0214 4.463-4.3081 5.4713-8.6139 6.75-10.538 3.1296-19.176 1.2832-23.277-4.9757-2.3087-3.5235-1.5285-14.441 1.4486-20.271 1.7102-3.3491 1.8661-4.25 0.7359-4.25-1.7079 0-7.9506 10.835-9.507 16.5-0.6044 2.2-1.4365 4.4997-1.8491 5.1105-1.2761 1.8887-7.0033 4.3895-10.053 4.3895-4.1355 0-9.5139-3.9231-10.654-7.7715-0.7565-2.5526-1.4949-3.2285-3.5275-3.2285-3.5077 0-6.9552-2.6109-8.579-6.4972-0.9492-2.2718-2.2021-3.4059-4.2052-3.8065-3.3727-0.6745-5.2315-4.0929-5.2315-9.6209 0-2.3533-0.6408-4.3598-1.6617-5.203-2.9779-2.4595-6.3383-11.58-6.3383-17.204 0-6.348 5.5101-31.156 7.7001-34.668 0.8573-1.375 2.598-3.625 3.868-5 1.2701-1.375 4.1196-6.1 6.3323-10.5s7.1789-11.825 11.036-16.5c7.4866-9.074 9.4403-11.794 15.8-22 2.7678-4.4416 4.3807-8.4546 5.0933-12.672 0.6991-4.1372 3.1827-10.401 7.5329-19 7.0514-13.938 7.6956-16.968 6.2348-29.328-0.7809-6.6081-0.4074-8.6251 5.9204-31.968 2.2399-8.2629 1.8463-15.866-2.4607-47.532-2.1693-15.95-4.8944-38.675-6.0557-50.5-1.1612-11.825-2.9723-29.15-4.0245-38.5s-2.3995-21.725-2.9939-27.5-2.699-21.975-4.6768-36c-3.2506-23.051-3.6061-27.757-3.7011-49-0.1018-22.768 0.1369-26.153 4.4795-63.5 1.3491-11.602 3.2466-23.141 7.0714-43 3.0073-15.614 3.0606-16.398 2.2128-32.5-0.4778-9.075-0.8688-29.775-0.8688-46 0-32.278 0.5366-28.28-6.6426-49.5-3.5336-10.444-7.7037-33.65-11.907-66.261-1.1157-8.6563-3.136-22.325-4.4895-30.375-1.3536-8.0498-2.461-16.164-2.461-18.031 0-1.8671-1.101-9.2309-2.4466-16.364-1.3457-7.1331-3.3728-19.719-4.5048-27.969-1.1319-8.25-2.7362-19.5-3.565-25-6.116-40.586-14.602-124.9-13.051-129.67 0.2387-0.7333 0.6811-16.183 0.9832-34.333 0.9563-57.464 4.1607-86.998 11.672-107.58 6.1626-16.886 8.1215-33.046 8.4149-69.42 0.1959-24.299 0.3317-25.281 8.6385-62.5 5.9522-26.669 7.2495-40.325 7.3146-77 0.0453-25.583-1.1892-42.945-4.5509-64-3.2047-20.072-3.7609-20.356-6.3257-3.2232-1.5291 10.214-10.424 47.019-17.212 71.223-2.3979 8.5494-2.6837 11.351-2.8569 28-0.1058 10.175-0.6962 20.525-1.3121 23-1.5918 6.3973-10.988 33.734-13.234 38.5-3.2623 6.9247-9.645 22.666-12.772 31.5-13.89 39.235-26.928 72.154-37.427 94.5-13.847 29.472-20.412 45.926-33.715 84.5-8.5101 24.677-14.678 42.137-16.075 45.5-0.45674 1.1-1.0648 4.025-1.3513 6.5-0.28648 2.475-1.0421 7.875-1.6792 12-0.68729 4.45-0.87421 10.55-0.45966 15 1.6517 17.731 1.9194 14.976-5.0036 51.5-4.191 22.111-4.2933 19.872 2.5592 56 1.0432 5.5 2.023 15.099 2.1774 21.332 0.28046 11.323 0.27846 11.334-2.5251 13.75-1.5604 1.3449-4.0804 2.4183-5.6774 2.4183-4.9135 0-6.5003-3.3555-8.9276-18.878-1.2-7.6739-3.055-17.006-4.1223-20.738s-2.6646-10.726-3.5497-15.542c-1.9463-10.59-3.6072-12.596-6.9553-8.3968-1.2659 1.5875-2.5452 4.2743-2.843 5.9706-0.29776 1.6962-0.82168 15.684-1.1643 31.084-0.86928 39.076-1.5338 46.034-4.6987 49.198-2.9687 2.9687-8.4863 3.3635-12.279 0.8784-2.8616-1.875-2.9835-3.5082-1.4235-19.077 0.79919-7.9758 0.6601-13.001-0.68712-24.826-1.396-12.253-1.4864-16.158-0.52121-22.5 1.3782-9.055 1.4958-15.174 0.29163-15.174-0.4747 0-1.127 2.8125-1.4496 6.25s-1.0738 10.525-1.6694 15.75c-0.59555 5.225-1.2613 21.343-1.4794 35.817-0.32409 21.507-0.67755 26.746-1.9336 28.663-2.8482 4.347-11.488 4.4696-15.351 0.2178-1.7804-1.9597-2.0902-4.3132-2.8563-21.698-1.0762-24.422-1.1206-40.81-0.13096-48.32 0.51078-3.8759 0.42729-5.6095-0.25-5.1909-0.5593 0.3456-1.0169 1.9253-1.0169 3.5104s-0.45 3.1601-1 3.5c-0.61758 0.3817-1 9.0211-1 22.591 0 23.348-0.69179 27.603-4.8496 29.828-3.6411 1.9487-7.9201 1.2581-11.385-1.8373l-3.2658-2.9178-0.61629-22.332c-0.33895-12.283-0.21705-25.707 0.2709-29.832 0.48794-4.125 1.8436-15.6 3.0126-25.5 2.2634-19.169 3.4455-38.5 2.3543-38.5-0.68416 0-10.742 8.6339-17.856 15.328-7.1518 6.7299-15.754 9.6946-27.964 9.6382-8.2157-0.0379-11.701-1.9423-11.701-6.3932 0-2.0605 0.7848-2.9402 3.75-4.2037 10.081-4.2954 12.25-5.4225 12.25-6.3663 0-0.5623 4.8055-5.8513 10.679-11.753 5.8735-5.902 12.656-13.435 15.073-16.741 7.7606-10.614 8.525-11.51 9.825-11.51 0.70282 0 2.2268-1.2063 3.3865-2.6807 1.1598-1.4744 4.0656-4.0619 6.4573-5.75 10.818-7.6355 26.523-21.796 29.18-26.311 4.6049-7.8243 6.3981-12.004 6.4179-14.96 0.01705-2.5453 1.469-8.5081 7.0124-28.798 1.0518-3.85 2.8263-10.349 3.9432-14.442 1.1169-4.0933 2.7133-11.376 3.5475-16.184 0.83421-4.808 3.0494-12.976 4.9226-18.151 5.4407-15.03 8.2835-28.861 16.079-78.223 5.3846-34.098 8.2752-50.727 10.951-63 1.3192-6.05 3.8142-19.1 5.5445-29 2.9529-16.895 8.5931-38.993 13.145-51.5 1.1008-3.025 3.7178-10.45 5.8155-16.5s5.161-13.925 6.8073-17.5c8.6033-18.682 12.032-32.808 15.172-62.5 1.1631-11 3.2207-29 4.5726-40 6.8368-55.631 6.9721-57.559 6.7019-95.5-0.39174-55.007 1.3154-75.017 9.3843-110 4.6467-20.146 9.6102-35.38 13.357-40.995 7.1631-10.736 16.923-18.216 31.11-23.844 7.7101-3.0584 11.108-4.7891 20.917-10.653 3.025-1.8085 9.9222-4.933 15.327-6.9434 23.225-8.6388 78.087-35.001 92.173-44.291 9.6526-6.3662 15.85-12.474 18.086-17.825 2.1692-5.1918 4.4187-21.184 4.929-35.043 0.4475-12.151 0.3597-12.862-2.3791-19.261-6.048-14.131-9.339-25.761-12.586-44.476-1.6647-9.5947-2.0549-10.668-3.8765-10.668-0.6648 0-2.9423-1.1779-5.0609-2.6176-5.1209-3.4797-10.522-15.108-14.004-30.151-2.9888-12.912-3.2052-17.843-1.1321-25.801 1.5607-5.9922 2.5981-7.759 6.3405-10.798 2.0005-1.6248 2.2235-2.4447 1.6338-6.0065-0.3755-2.2687-1.0789-4.8797-1.563-5.8023-0.4841-0.92255-1.3693-7.4476-1.9671-14.5s-1.565-13.816-2.1494-15.029c-0.7532-1.5642-0.7378-5.0578 0.053-12 0.7133-6.2623 0.7658-9.9136 0.1457-10.127-1.2435-0.42741-1.264-3.8668-0.0276-4.631 0.5183-0.32028 1.2163-2.7093 1.5513-5.309 0.3349-2.5997 1.0359-5.5081 1.5578-6.4631 0.5218-0.95504 0.9487-2.9303 0.9487-4.3894s1.4268-4.9527 3.1707-7.7636c1.7438-2.8108 4.6197-7.6544 6.3907-10.763 2.9507-5.1798 11.622-16.397 20.349-26.326 4.2573-4.8431 12.77-11.381 15.839-12.164 1.2375-0.31581 2.25-0.99515 2.25-1.5096 0-0.51448 0.5625-0.83079 1.25-0.70291s2.6638-0.10246 4.3918-0.51186c2.4199-0.57331 3.0296-1.1738 2.6532-2.6129-0.4106-1.5704 0.2821-1.9841 4.3416-2.5928 2.6566-0.39839 6.32-1.3468 8.1408-2.1076 1.8209-0.76079 3.7606-1.1052 4.3104-0.76536 0.5499 0.33984 1.6289 0.0958 2.3978-0.5423 0.7689-0.63811 3.5616-1.2279 6.2062-1.3106 2.6445-0.0827 5.1288-0.611 5.5206-1.174 0.4692-0.67421 2.3923-0.42692 5.6342 0.72449 5.7862 2.0551 8.8284 2.2232 9.3964 0.51925 0.3044-0.91332 1.047-0.81117 2.8922 0.39786 2.3459 1.5371 6.1748 1.5598 9.8648 0.0585 0.825-0.33565 2.85-0.72059 4.5-0.85542s4.5264-0.55916 6.3921-0.94296c2.3297-0.47928 3.1825-0.35886 2.7231 0.38449-0.4518 0.73096 1.2533 1.0731 5.2522 1.054 6.3467-0.0304 10.19 1.4815 13.855 5.4505 1.2223 1.3236 4.2558 2.9759 6.7411 3.6717 2.4852 0.69583 5.5351 2.2734 6.7775 3.5057s4.5089 3.3924 7.2589 4.8002c8.302 4.2501 15.975 12.39 30.828 32.704 1.8096 2.475 3.8661 6.075 4.57 8 0.7038 1.925 1.9376 4.7332 2.7418 6.2404 2.0081 3.7638 3.5903 12.619 4.0664 22.76 0.479 10.201 0.5097 8.8921-0.6454 27.5-1.1752 18.931-2.5659 29.338-4.7368 35.451l-1.7068 4.8056 2.6654 3.1676c2.8702 3.411 6.7175 14.431 6.7175 19.241 0 5.091-4.8764 24.967-8.2599 33.666-2.0332 5.2279-4.5127 9.6045-6.6568 11.75-3.4264 3.4288-4.0607 3.6838-9.5449 3.8365l-2.9616 0.0825-2.8478 14c-4.1909 20.603-4.4371 21.725-5.4853 25-0.9447 2.952-0.8367 16.496 0.2536 31.784 0.8373 11.74 4.0668 26.297 6.9107 31.15 3.5709 6.0932 11.902 13.348 21.153 18.419 38.74 21.239 75.479 39.287 97.939 48.113 17.826 7.005 20.926 8.5599 33.5 16.803 14.465 9.4824 25.846 18.892 30.47 25.191 8.8376 12.039 15.268 33.276 20.604 68.041 2.0645 13.452 2.2428 18.401 2.4675 68.5 0.2317 51.664 1.2084 74.735 4.3922 103.75 5.6725 51.692 8.7195 73.311 12.227 86.753 2.4682 9.4585 2.8965 10.624 9.9197 27 6.1916 14.436 18.513 51.002 21.904 65 1.1322 4.675 3.42 17.725 5.0838 29 1.6639 11.275 4.7868 31.3 6.9398 44.5 3.9243 24.059 7.0864 45.046 9.0401 60 2.036 15.583 4.1439 27.857 6.0766 35.381 2.2239 8.658 12.352 40.654 17.605 55.619 1.9308 5.5 4.9888 15.175 6.7956 21.5 5.873 20.559 8.1565 25.587 14.894 32.79 3.3443 3.5758 12.764 12.343 20.932 19.483 9.158 8.0048 15.867 14.709 17.5 17.488 3.1738 5.4003 9.7715 13.867 16.218 20.812 2.59 2.7903 5.6616 6.9403 6.8257 9.2222 3.0664 6.0107 7.3293 10.49 13.597 14.289 4.871 2.9522 5.5076 3.7154 5.5076 6.6036 0 4.9694-3.3551 6.7177-11.619 6.0543-10.164-0.8158-18.832-5.6187-30.131-16.694l-9.25-9.0673v6.1442c0 6.4714 0.4261 9.5384 4.5671 32.875 4.211 23.731 4.3919 25.648 4.4128 46.782 0.0233 23.45-0.6308 26.338-6.5209 28.8-3.3015 1.3794-3.9296 1.3548-7.286-0.286-4.9164-2.4035-5.7996-5.4834-7.15-24.935-1.6741-24.112-2.3149-28.342-5.6401-37.23-1.3106-3.5029-2.3829-7.8904-2.3829-9.75 0-1.8595-0.45-3.3809-1-3.3809-1.4881 0-1.2106 6.3986 0.5768 13.296 2.0019 7.7255 2.328 27.059 0.6732 39.914-0.6875 5.3408-1.25 15.513-1.25 22.604 0 12.211-0.1266 13.03-2.3914 15.474-3.126 3.3731-9.019 4.5233-12.51 2.4418-4.8091-2.8675-5.0934-4.5554-4.7546-28.23 0.3079-21.507-0.1677-31.824-2.3029-49.957-1.7358-14.742-3.1836-12.931-2.4217 3.0294 0.447 9.3647 0.2989 15.169-0.446 17.475-1.6961 5.2497-3.1402 19.893-3.4852 35.34-0.2973 13.317-0.4098 13.969-2.7374 15.853-3.2214 2.6086-10.595 1.8013-13.287-1.4547-1.7384-2.1027-1.806-4.4835-1.2682-44.673 0.5524-41.277 0.3512-45.113-2.3669-45.113-0.3995 0-0.7991 3.8905-0.8878 8.6455-0.0888 4.755-0.8999 11.392-1.8024 14.75-0.9025 3.3575-1.729 8.3545-1.8366 11.104-0.3279 8.3772-1.643 20.792-2.612 24.657-1.5489 6.1787-9.1228 7.0905-13.228 1.5923-2.7297-3.6561-3.2967-15.469-1.524-31.749 1.744-16.017 1.7474-35.952 0.007-42.748-0.7391-2.8863-1.6366-5.0668-1.9946-4.8458-0.3579 0.2211-0.7456-1.8037-0.8615-4.4996s-0.6692-6.6041-1.2295-8.685c-3.5076-13.026-4.9891-27.411-4.7766-46.377 0.2059-18.367 0.1031-19.558-2.0332-23.555-1.2375-2.3156-2.25-4.8884-2.25-5.7174 0-1.4677-7.0823-18.334-22.34-53.204-4.123-9.4222-9.9625-23.597-12.977-31.5-3.0142-7.9028-10.516-26.294-16.671-40.869-13.971-33.084-16.61-39.924-28.551-74-9.5817-27.343-12.397-34.574-18.298-47-3.4464-7.2569-13.132-33.779-15.156-41.5-0.8037-3.0664-1.3936-12.154-1.5254-23.5-0.1924-16.568-0.4917-19.492-2.866-28-5.5652-19.942-11.754-46.037-14.577-61.462-2.4296-13.276-6.0387-40.868-6.0387-46.167 0-0.75416-0.3964-1.3712-0.8808-1.3712-0.4845 0-1.6367 5.0625-2.5604 11.25s-3.1827 19.35-5.0199 29.25c-9.5161 51.277-10.362 79.919-3.3824 114.5 9.2609 45.884 10.654 56.607 11.885 91.5 0.5238 14.85 1.3931 28.8 1.9318 31 1.6366 13.555 8.476 25.817 10.523 40 0.1715 1.65 0.986 5.1375 1.8099 7.75 0.824 2.6125 1.262 4.75 0.9735 4.75s-0.0313 0.5944 0.5717 1.3209c0.6029 0.7265 1.067 2.639 1.0314 4.25-0.0357 1.611 0.4615 5.1791 1.1049 7.9291 4.6569 19.905 6.0409 27.514 7.003 38.5 1.2515 14.291 2.621 25.79 4.5258 38 0.7294 4.675 2.1073 15.685 3.0622 24.466 1.5244 14.018 1.5892 18.167 0.531 34-1.7689 26.467-6.7811 79.153-9.6593 101.53-1.3792 10.725-3.3804 32.1-4.447 47.5-2.2741 32.832-10.264 109.84-12.51 120.56-0.8563 4.0896-2.396 10.136-3.4214 13.436-5.7213 18.411-8.1319 55.6-6.1579 95 1.1152 22.257 2.0167 27.328 9.4217 53 4.5284 15.699 11.199 49.484 13.13 66.5 2.6949 23.751 1.9375 62.869-1.975 102-1.5165 15.167-3.1585 46.276-4.0116 76-0.2763 9.625-0.9568 23.8-1.5123 31.5-3.3987 47.111-3.8287 67.806-1.5431 74.284 0.783 2.2194 1.1971 4.2619 0.9201 4.5389-0.2771 0.277 0.2685 1.6822 1.2123 3.1226 3.5481 5.4151 5.5023 15.542 6.089 31.555l0.5678 15.5 4.6085 6c4.8384 6.2995 13.16 21.83 17.147 32 1.2936 3.3 2.9549 6.7104 3.6916 7.5787s1.3395 1.9965 1.3395 2.5071 2.0613 3.4002 4.5806 6.4213c6.2447 7.4885 18.239 25.331 20.568 30.596 1.0479 2.3691 2.9548 5.5649 4.2375 7.1019 6.1081 7.3189 8.597 16.117 8.5697 30.294-0.0181 9.3858-0.3087 11.084-2.7382 16-1.557 3.1509-3.7857 6.0173-5.2179 6.7112-2.737 1.3261-3.6985 4.1841-3.8817 11.539-0.1445 5.802-2.9351 9.2638-6.7049 8.3176-2.2707-0.5699-2.4134-0.3517-2.4134 3.6908 0 6.0579-2.1461 8.7416-6.9903 8.7416-3.4738 0-3.9097 0.2825-4.1933 2.7177-0.7394 6.3508-14.283 10.011-19.367 5.2344l-2.1798-2.0479-0.5872 2.9357c-1.1552 5.7761-16.196 9.9855-23.682 6.6279z"/>
 </g>
 <text id="text2307" font-size="40.598px" xml:space="preserve" line-height="125%" y="29.41769" x="452.39481" font-family="Arial" fill="#000000">     <tspan id="tspan2309" y="29.41769" x="452.39481">Main symptoms of</tspan>   </text>
 <text id="text2311" font-size="66.68px" xml:space="preserve" line-height="125%" y="98.016876" x="291.80634" font-family="Arial" fill="#000000">     <tspan id="tspan2313" y="98.016876" x="291.80634">Carbon dioxide toxicity</tspan>   </text>
 <text id="text2250" font-size="40.106px" xml:space="preserve" line-height="125%" y="183.98325" x="826.62335" font-family="Arial" fill="#000000">     <tspan id="tspan2252" font-size="40.106px" font-family="Arial" line-height="125%" y="183.98325" x="826.62335" font-weight="bold">Central</tspan>     <tspan id="tspan2347" font-size="40.106px" line-height="125%" y="234.11557" x="826.62335" font-family="Arial" fill="#00aa00">- Drowsiness</tspan>     <tspan id="tspan2234" font-size="40.106px" line-height="125%" y="284.24789" x="826.62335" font-family="Arial" fill="#0000ff">- Mild narcosis </tspan>     <tspan id="tspan2236" font-size="40.106px" line-height="125%" y="334.38022" x="826.62335" font-family="Arial" fill="#cc00ff">- Dizziness </tspan>     <tspan id="tspan2238" font-size="40.106px" line-height="125%" y="384.51254" x="826.62335" font-family="Arial" fill="#cc00ff">- Confusion  </tspan>     <tspan id="tspan2240" font-size="40.106px" line-height="125%" y="434.64487" x="826.62335" font-family="Arial" fill="#cc00ff">- Headache </tspan>     <tspan id="tspan2242" font-size="40.106px" line-height="125%" y="484.77719" x="826.62335" font-family="Arial">       <tspan id="tspan4319" fill="#ff0000">- Unconsciousness </tspan>     </tspan>     <tspan id="tspan2256" font-size="40.106px" line-height="125%" y="534.90948" x="826.62335" font-family="Arial"/>     <tspan id="tspan2258" y="585.04181" x="826.62335"/>   </text>
 <text id="text2280" font-size="40.106px" xml:space="preserve" line-height="125%" y="944.45123" x="51.843334" font-family="Arial" fill="#000000">     <tspan id="tspan2282" y="944.45123" x="51.843334" line-height="125%">       <tspan id="tspan2374" font-weight="bold">Muscular</tspan>     </tspan>     <tspan id="tspan2284" y="994.58356" x="51.843334" line-height="125%">       <tspan id="tspan4315" fill="#ff0000">- Tremor  </tspan>     </tspan>     <tspan id="tspan2286" y="1044.7159" x="51.843334" line-height="125%"/>     <tspan id="tspan2288" y="1094.8483" x="51.843334" line-height="125%"/>   </text>
 <text id="text2219" font-size="40.106px" xml:space="preserve" line-height="125%" y="609.98834" x="949.57312" font-family="Arial" fill="#000000">     <tspan id="tspan2221" font-size="40.106px" line-height="125%" y="609.98834" x="949.57312" font-family="Arial">       <tspan id="tspan2370" font-weight="bold">Skin</tspan>     </tspan>     <tspan id="tspan2310" font-size="40.106px" line-height="125%" y="660.12067" x="949.57312" font-family="Arial">       <tspan id="tspan4309" fill="#ff0000">- Sweating </tspan>     </tspan>     <tspan id="tspan2225" font-size="40.106px" line-height="125%" y="710.25299" x="949.57312" font-family="Arial"/>     <tspan id="tspan2227" y="760.38531" x="949.57312"/>   </text>
 <text id="text2263" font-size="40.106px" xml:space="preserve" line-height="125%" y="194.74619" x="297.16193" font-family="Arial" fill="#000000">     <tspan id="tspan2265" font-size="40.106px" font-family="Arial" line-height="125%" y="194.74619" x="297.16193" font-weight="bold">Visual</tspan>     <tspan id="tspan2402" font-size="40.106px" line-height="125%" y="244.87851" x="297.16193" font-family="Arial">       <tspan id="tspan4313" fill="#ff0000">- Dimmed </tspan>     </tspan>     <tspan id="tspan4346" font-size="40.106px" line-height="125%" y="295.01083" x="297.16193" font-family="Arial">       <tspan id="tspan4348" fill="#ff0000">  sight  </tspan>     </tspan>     <tspan id="tspan2269" font-size="40.106px" line-height="125%" y="345.14316" x="297.16193" font-family="Arial"/>     <tspan id="tspan2271" y="395.27548" x="297.16193"/>   </text>
 <text id="text2332" font-size="40.106px" xml:space="preserve" line-height="125%" y="390.3909" x="286.96136" font-family="Arial" fill="#000000">     <tspan id="tspan2334" font-size="40.106px" line-height="125%" y="390.3909" x="286.96136" font-family="Arial">       <tspan id="tspan2372" font-weight="bold">Auditory</tspan>     </tspan>     <tspan id="tspan2343" font-size="40.106px" line-height="125%" y="440.52322" x="286.96136" font-family="Arial" fill="#000000">       <tspan id="tspan4307" fill="#0000ff">- Reduced </tspan>     </tspan>     <tspan id="tspan4342" font-size="40.106px" line-height="125%" y="490.65555" x="286.96136" font-family="Arial" fill="#000000">       <tspan id="tspan4344" fill="#0000ff">  hearing  </tspan>     </tspan>     <tspan id="tspan2338" font-size="40.106px" line-height="125%" y="540.78784" x="286.96136" font-family="Arial"/>     <tspan id="tspan2340" y="590.92017" x="286.96136"/>   </text>
 <text id="text2248" font-size="40.106px" xml:space="preserve" line-height="125%" y="803.19354" x="974.88104" font-family="Arial" fill="#000000">     <tspan id="tspan2250" font-size="40.106px" font-family="Arial" line-height="125%" y="803.19354" x="974.88104" font-weight="bold">Heart</tspan>     <tspan id="tspan2253" font-size="40.106px" line-height="125%" y="853.32587" x="974.88104" font-family="Arial" fill="#0000ff">- Increased </tspan>     <tspan id="tspan4350" font-size="40.106px" line-height="125%" y="903.45819" x="974.88104" font-family="Arial" fill="#0000ff">  heart rate </tspan>     <tspan id="tspan4317" font-size="40.106px" line-height="125%" y="953.59052" x="974.88104" font-family="Arial" fill="#0000ff">  and blood </tspan>     <tspan id="tspan4352" font-size="40.106px" line-height="125%" y="1003.7228" x="974.88104" font-family="Arial" fill="#0000ff">  pressure</tspan>     <tspan id="tspan2270" font-size="40.106px" line-height="125%" y="1053.8552" x="974.88104" font-family="Arial"> </tspan>     <tspan id="tspan2255" font-size="40.106px" line-height="125%" y="1103.9875" x="974.88104" font-family="Arial"/>     <tspan id="tspan2257" y="1154.1199" x="974.88104"/>   </text>
 <text id="text2259" font-size="40.106px" xml:space="preserve" line-height="125%" y="690.89716" x="32.393505" font-family="Arial" fill="#000000">     <tspan id="tspan2261" font-size="40.106px" font-family="Arial" line-height="125%" y="690.89716" x="32.393505" font-weight="bold">Respiratory</tspan>     <tspan id="tspan2263" font-size="40.106px" line-height="125%" y="741.02948" x="32.393505" font-family="Arial" fill="#cc00ff">- Shortness </tspan>     <tspan id="tspan4340" font-size="40.106px" line-height="125%" y="791.1618" x="32.393505" font-family="Arial" fill="#cc00ff">  of breath  </tspan>     <tspan id="tspan2266" font-size="40.106px" line-height="125%" y="841.29413" x="32.393505" font-family="Arial"/>     <tspan id="tspan2268" y="891.42645" x="32.393505"/>   </text>
 <g id="g4374" transform="matrix(2.0053 0 0 2.0053 322.85 -24.599)">
  <rect id="rect2295" stroke-linejoin="round" height="173.46" width="115.46" stroke="#800000" y="92.019" x="-160.23" stroke-width="1.538" fill="none"/>
  <text id="text3266" font-size="20px" xml:space="preserve" line-height="125%" y="114.80371" x="-150.84668" font-family="Arial" fill="#000000">       <tspan id="tspan3270" font-size="20px" font-family="Arial" line-height="125%" y="114.80371" x="-150.84668" font-weight="bold">Volume % </tspan>       <tspan id="tspan4354" font-size="20px" font-family="Arial" line-height="125%" y="139.80371" x="-150.84668" font-weight="bold">in air </tspan>       <tspan id="tspan3272" font-size="20px" line-height="125%" y="164.80371" x="-150.84668" font-family="Arial"/>       <tspan id="tspan3274" y="189.80371" x="-150.84668"/>     </text>
  <text id="text3290" font-size="20px" xml:space="preserve" line-height="125%" y="177.2666" x="-120.8584" font-family="Arial" fill="#000000">       <tspan id="tspan3292" font-size="20px" line-height="125%" y="177.2666" x="-120.8584" font-family="Arial">- 1%</tspan>       <tspan id="tspan3324" font-size="20px" line-height="125%" y="202.2666" x="-120.8584" font-family="Arial">- 3%</tspan>       <tspan id="tspan3326" font-size="20px" line-height="125%" y="227.2666" x="-120.8584" font-family="Arial">- 5%</tspan>       <tspan id="tspan3328" font-size="20px" line-height="125%" y="252.2666" x="-120.8584" font-family="Arial">- 8%</tspan>       <tspan id="tspan3322" font-size="20px" line-height="125%" y="277.2666" x="-120.8584" font-family="Arial"> </tspan>       <tspan id="tspan3294" font-size="20px" line-height="125%" y="302.2666" x="-120.8584" font-family="Arial"/>       <tspan id="tspan3296" y="327.2666" x="-120.8584"/>     </text>
  <rect id="rect3330" fill-rule="evenodd" height="18" width="19" y="161.25" x="-149" fill="#00d400"/>
  <rect id="rect4301" fill-rule="evenodd" height="18" width="19" y="185.25" x="-148.5" fill="#00f"/>
  <rect id="rect4303" fill-rule="evenodd" height="18" width="19" y="212.25" x="-149.5" fill="#c0f"/>
  <rect id="rect4305" fill-rule="evenodd" height="18" width="19" y="236.25" x="-149.5" fill="#f00"/>
 </g>
 <path id="path65-1" opacity=".9" fill="#b62717" d="m572.42 2107.1c-1.9975 3.2151-7.7825 5.5451-10.972 7.3626-6.485 3.69-13.655 6.955-20.728 9.3125-12.762 4.255-26.257 4.7125-39.082 10.098-6.3725 2.675-13.078 5.65-18.722 9.6349-4.69 3.3076-15.272 11.263-12.442 18.025 1.4425 3.44 6.03 5.615 9.34 6.585 11.772 3.4575 22.502 4.675 34.78 3.915 6.055-0.375 12.232-1.5725 17.887-2.6125 2.86-0.525 6.5575-1.5825 7.855-4.3225-7.2675 2.3925-15.195 3.56-22.805 4.0125-4.9775 0.295-9.975-0.4675-14.97-0.285-3.8325 0.135-7.37 0.225-11.07-0.835-5.2425-1.5026-15.295-1.6525-16.505-8.215-2.0325-11.02 15.065-18.77 23.25-21.508 24.238-8.1026 50.207-11.725 71.99-25.02 0.4525-0.275 0.8625-0.6025 1.3125-0.885"/>
 <g id="g943" opacity="0.24" transform="matrix(2.3529 -.033136 .02686 2.9027 139.32 104.34)">
  <path id="path945" d="m217.52 230.5c4.289 2.431 8.9532 3.3792 13.638 5.0572 2.82 1.011 5.952 2.1908 8.919 2.8138 6.542 1.371 13.238 9.064 19.467 11.504 2.855 1.121 7.324 3.037 5.221 6.577-2.79 4.694-11.922 4.61-16.881 5.084-2.63 0.251-5.915-0.407-8.389 0.071 0.15-0.029 3.342 2.529 3.572 2.918 0.513 0.861 0.358 2.856 1.448 3.345 0.453 0.204 1.374-0.011 1.896 0.028 0.698 0.049 1.385 0.17 2.083 0.207 1.339 0.069 2.805-0.137 4.138-0.269 4.094-0.404 8.853-0.725 12.427-2.696 3.228-1.777 6.441-3.065 7.99-6.518 1.482-3.303-0.081-7.393-2.519-9.955-2.146-2.252-6.364-5.486-9.286-6.464-4.6303-2.6827-9.3974-4.3183-14.386-6.7082-4.1222-1.9972-9.8251-3.4638-13.696-5.3998-3.855-1.928-8.0573-3.094-11.571-5.462-3.666-2.472-7.1868-4.061-10.96-6.403-2.128 1.437-0.69 5.271 0.386 6.944 1.237 1.923 3.47 3.659 5.526 4.781 0.326 0.181 0.65 0.362 0.977 0.545z" stroke="#967348" stroke-width=".33490" fill="#f9e3b7"/>
  <path id="path947" fill="#ccb25c" d="m266.21 257c0.86-0.878 1.527-1.891 1.845-2.908 0.521-1.677 1.9839-4.5961 0.80089-5.9961-5.1012-3.8631-2.8308-2.621-5.9399-4.1002-2.3719-1.8961-8.3774-4.1713-11.296-6.022-3.7521-1.3527-7.2955-2.9243-13.418-5.4389 0 0-9.945-3.812-13.829-5.884-5.155-2.5158-9.1898-3.1676-10.56-4.3466-0.39099 1.4863 7.5796 7.3828 5.0809 6.5106-1.521-1.221-3.018-2.467-4.566-3.658-1.203-0.925-2.941-2.7-4.554-2.873-0.245 1.403 0.879 3.867 1.453 5.232 1.032 2.456 2.6312-2.4983 5.0862-1.2783 2.76 3.0979 6.1932 5.8218 10.704 7.8005 3.118 1.377 8.668 2.9332 12.065 3.5752 5.7482 0.93852 15.467 8.3441 22.948 12.606 1.824 0.957 3.8238 2.4593 3.8728 4.5473 0.05 2.125-2.456 3.42-3.847 4.749 1.467-0.377 2.987-1.323 4.154-2.515z"/>
  <path id="path949" fill="#dcc06d" d="m251.49 243.84c-1.299-0.736-4.064-1.792-5.604-1.579 2.789 1.767-4.1389-2.3643-4.6409-2.4633-4.223-0.838-7.6666-1.2301-11.467-2.9861-1.895-0.877-4.015-1.445-5.974-2.209-1.404-0.546-4.191-2.445-0.983-2.142-0.756-0.491-1.421-1.341-1.869-2.086 1.677-0.009 3.61 1.688 5.138 2.297 3.828 1.528 7.721 2.939 11.568 4.432 3.156 1.227 6.4964 4.5414 9.9244 4.7724 2.697 0.182 5.387 1.135 7.921 1.993 1.841 0.623 3.543 1.377 5.423 1.899 1.14 0.317 2.956 0.685 3.493 1.802-4.655 0.547-9.137-1.582-12.93-3.73z"/>
  <path id="path951" fill="#dcc06d" d="m253.02 266.66c-1.078 0.128-2.109 0.295-3.19 0.285-0.96-0.009-2.227 0.307-3.104-0.153-0.267-0.14-0.499-0.457-0.771-0.647-0.293-0.204-0.689-0.318-0.864-0.613 0.167 0.002 0.275-0.053 0.448-0.027-0.696-0.535-0.969-1.143-1.515-1.718 0.834 0.385 1.801 0.489 2.781 0.472-0.597 0.2-1.284 0.066-1.903 0.109 0.046 0.45 0.756 0.579 1.11 0.879-0.772 0.445 0.729 1.264 1.193 1.413 0.909 0.292 2.007 0.053 2.936-0.002 1.083-0.064 2.194-0.207 3.267-0.405 0.822-0.151 2.234-0.168 2.795-0.804-0.316-0.191-0.744-0.11-1.122-0.112 1.709 0.127 3.568-0.63 5.074-1.238-0.845 0.402-2.105 0.844-2.771 1.396 0.901 0.44 2.284 0.137 3.163-0.212 0.863-0.343 2.166-0.848 2.894-1.385-0.121 0.088-0.175 0.204-0.252 0.28 0.689 0.302 2.063-0.374 2.705-0.643 1.226-0.518 2.268-1.37 3.361-2.034-1.971 1.196-3.749 3.316-6.209 3.744-3.291 0.573-6.688 1.019-10.026 1.415z"/>
 </g>
 <g id="g3411" transform="translate(1287.4 -12.244)">
  <g id="g879" opacity="0.24" transform="matrix(2.4517 -.033136 .027988 2.9027 -1168.2 116.58)">
   <path id="path881" d="m147.83 288.63c-0.046-0.259-0.117-0.52-0.066-0.824 0.144-0.862 0.971-1.744 0.734-2.655-0.359-1.376-2.777-1.067-3.755-2.284-1.479-1.841 1.474-4.512 2.808-5.555 3.041-2.378 7.3745-7.3729 11.022-8.8299 8.3695-4.2222 8.1446-5.2412 12.481-6.0662 12.749-7.2355 10.726-7.2426 17.93-11.317 1.548-0.775 2.2064-2.7241 3.5634-3.6991 1.435-1.033 1.319-5.1273 0.17295-6.6083-2.2118 3.5048-10.748 6.8967-15.821 10.376-1.197 0.836-2.417 2.2094-3.9957 3.3909-2.046 0.75-3.4084 1.7679-6.6413 3.2822-4.3599 2.0423-9.4993 6.4403-14.168 8.2223-4.208 1.604-7.558 4.107-10.989 6.815-3.124 2.465-5.205 5.318-5.227 9.236-0.008 1.639 0.387 3.58 1.553 4.856 1.711 1.874 3.589 3.922 6.437 3.766 1.116-0.062 3.062-0.183 3.766-1.136 0.265-0.362 0.249-0.664 0.197-0.97z" stroke="#967348" stroke-width=".33490" fill="#f9e3b7"/>
   <path id="path883" fill="#dcc06d" d="m143.63 282.68c-1.83-3.189-3.343-4.57-1.162-8.18 2.2-3.64 6.403-5.31 9.991-7.393-0.078 0.029-0.108 0.083-0.09 0.161 2.543-0.189 5.479-1.904 8.098-2.517 4-0.935 9.5725-8.2571 13.3-9.9331 2.805-1.262 4.3704-4.1661 7.1184-5.8661 1.635-1.011 3.379-1.857 5.192-2.563 1.117-0.435 2.2006-1.453 2.7566-2.556-0.305-0.018-0.62-0.012-0.93-0.012 0.414-0.061 1.09-0.525 1.524-0.364 0.31 0.115 1.112 1.087 1.26 1.363 1.01 1.872-1.399 3.098-2.604 4.166-1.688 1.495-2.2596 2.694-4.2966 3.721-1.799 0.908-3.408 1.985-5.005 3.017 0.373-0.652 1.008-1.557 0.57-2.287-1.43 0.447-2.206 1.778-3.484 2.502-2.246 1.271-5.1422 4.7102-7.6402 5.4522-1.987 0.59-4.304 3.3282-6.444 3.1342-1.332-0.121-2.1198 2.4368-3.6178 2.6318-5.068 0.656-13.456 4.526-14.723 9.721-1.414 1.022-2.457 3.51-0.59 4.729"/>
   <path id="path885" fill="#ccb25c" d="m192.15 244.74c0.4-0.342 0.629-1.353 0.008-1.628 0.118-0.147 0.26-0.385 0.443-0.507-1.601 0.828-3.367 1.357-4.977 2.145 1.153-0.278 2.486-0.934 3.723-0.888-0.182 0.127-0.314 0.325-0.516 0.437 0.213-0.046 0.375 0.07 0.536 0.079-0.212 1.275-3.328 1.391-4.303 1.839-2.42 1.116-4.8649 4.4408-7.0619 5.9238 0.375-0.4 0.332-0.598 0.482-1.036-1.711 0.868-2.94 2.546-4.457 3.696-2.295 1.738-5.249 3.0624-8.072 3.5624-3.017 0.534-5.7486 3.9645-8.8976 3.9275 0.088 0.111 0.229 0.274 0.302 0.357-2.145 2.166-7.1581 7.8658-10.067 8.9428-0.603 0.223-2.241 1.186-2.806 0.768-0.747-0.553-0.043-1.39 0.41-1.814-1.047 0.982-2.879 1.468-4 2.562-1.556 1.517-3.453 3.938-2.652 6.079 0.693 1.851 2.87 4.114 5.075 4.397-1.53-0.196-1.547-2.62-1.232-3.5 0.557-1.559 2.167-2.843 3.5-3.833 2.149-1.598 4.6262-4.9608 6.9502-6.3178 3.764-2.199 8.2575-9.0256 12.567-9.7706 1.906-0.329 3.973-0.558 5.846-0.938 1.309-0.267 1.739-1.2794 2.875-1.8574 1.123 0.896 4.323-2.908 5.116-3.688 1.843-1.815 4.0739-4.9788 6.3799-6.1558 1.826-0.932 5.471-1.035 5.233-3.532-0.309 0.611-1.216 1.001-2.235 1.304"/>
   <path id="path887" fill="#dcc06d" d="m137.44 282.5c-1.683 4.021 4.147 6.008 6.756 6.941-0.272-0.25-0.606-0.677-0.933-0.835 1.033 0.328 3 0.014 3.062-1.252-2.087 0.045-3.814-1.479-5.743-1.975 1.223 0.95 2.929 1.284 4.147 2.306-0.485 0.207-1.086 0.252-1.607 0.206 0.054 0.166 0.072 0.346 0.11 0.488-2.59-0.073-5.578-2.225-5.988-4.627"/>
  </g>
  <g id="g889" opacity="0.24" transform="matrix(2.4517 -.033136 .027988 2.9027 -1168.2 116.58)">
   <path id="path891" d="m141.69 267.19c-0.585-1.18-0.513-2.49 0.649-3.863 3.099-3.66 9.201-5.542 13.728-7.109 2.196-0.76 4.528-1.181 6.663-2.031 2.258-0.9 4.5554-4.1949 6.8984-4.9239 8.2794-3.6289 19.106-11.729 22.216-15.184 1.4637-1.6261 1.4412-3.5791-1.3925-2.6246-2.5839 0.87041-6.9103 5.5348-14.892 9.7206-2.58 0.258-4.893 2.1595-7.419 2.9265-5.686 1.724-11.233 5.0551-16.777 7.1311-8.077 3.025-23.834 11.585-15.702 21.615 1.001 1.236 2.111 1.374 3.49 2.065 3.774 1.892 6.849 4.64 11.372 4.958 3.308 0.232 10.1-3.526 6.96-7.272-0.858-1.027-4.362-0.091-5.58-0.133-2.137-0.073-3.44-0.904-5.174-1.833-1.858-0.993-4.053-1.458-5.04-3.443z" stroke="#967348" stroke-width=".33490" fill="#f9e3b7"/>
   <path id="path893" fill="#ccb25c" d="m141.89 268.2c-1.354-1.63-3.518-3.272-3.877-5.364-0.396-2.298 1.375-4.118 3.261-5.345-0.328 0.662-0.083 1.159 0.775 1.085 0.022 0.099 0.044 0.198 0.066 0.296 1.242 0.265 2.782-0.741 3.863-1.212 1.621-0.705 3.458-1.217 4.949-2.087-0.002 0.1-0.106 0.13-0.123 0.265 1.228-0.237 2.207-0.833 3.421-1.126 1.243-0.301 2.537-0.345 3.73-0.824 2.328-0.931 15.854-11.281 15.232-13.278 3.186-1.05 6.896-1.855 10.222-2.543 1.403-0.289 6.23-0.813 6.151-2.472-2.048-0.119-4.743 1.229-6.524 0.741 2.235-0.865 5.13-1.635 7.545-2.019 1.739-0.276 1.223-0.321 1.521 0.888 0.415 1.682-0.671 2.735-2.502 3.582-3.982 1.838-8.793 3.11-13.01 4.33-5.577 1.614-11.165 9.4415-16.704 11.136-3.76 1.149-7.468 1.849-10.985 3.609-2.447 1.225-10.873 5.265-7.594 9.087"/>
   <path id="path895" fill="#dcc06d" d="m156.03 250.08c2.993-0.806 5.972-1.21 8.897-2.091 1.831-0.553 3.2868-2.5571 5.2318-3.1801 2.907-0.932 5.9518-2.4553 8.9378-3.1443 1.29-0.298 11.449-6.869 11.44-5.052-0.006 1.031-3.8656 3.456-4.7336 3.685-2.955 0.777-7.1882 3.2881-10.003 4.3661-2.926 1.121-5.3221 4.3832-8.2021 5.6352-4.947 2.15-9.736 3.903-15.029 5.159-1.978 0.469-3.971 1.241-5.801 2.081-0.994 0.456-5.204 2.517-5.85 0.936-0.879-2.166 13.142-7.864 15.112-8.395z"/>
   <path id="path897" fill="#dcc06d" d="m134.92 266.94c-0.639 1.843 0.343 4.501 2.144 5.475-0.013-0.22 0.025-0.427 0.03-0.633 1.422 2.216 4.285 3.411 6.776 4.634 2.727 1.34 5.115 2.578 8.214 2.696-0.077-0.114-0.18-0.205-0.253-0.333 0.401-0.135 0.834-0.455 1.224-0.583-5.84 0.578-12.785-3.633-15.82-7.976-0.021 0.146-0.009 0.306-0.025 0.454-1.472-0.186-2.763-2.863-2.097-4.092"/>
  </g>
  <g id="g899" opacity=".15" transform="matrix(2.4517 -.033136 .027988 2.9027 -1168.9 116.58)">
   <path id="path901" d="m254.67 292.86c-0.41 0.064-0.655 0.238-1.124-0.126-0.93-0.72-1.542-3.15-1.649-4.25-0.307-3.093 2.359-1.816 4.422-1.546 1.717 0.223 3.819-0.097 4.592-1.718 1.205-2.538-3.165-5.736-4.901-7.139-3-2.423-7.264-4.37-10.886-5.88-4.028-1.68-8.2602-11.48-12.58-12.369-1.45-0.298-3.453-0.52-4.788-1.148-1.117-0.526-1.886-1.581-2.774-2.319-2.455-2.039-4.729-4.5-7.659-6.022-1.536-0.798-3.612-0.896-4.952-1.892-1.418-1.052-2.393-3.882-1.22-5.346 1.6-1.999 4.176-0.354 5.953 0.449 3.73 1.688 7.229 4.276 10.502 6.636 1.184 0.853 2.093 1.927 3.511 2.47 2.03 0.779 4.7556 4.6685 6.9126 5.0295 4.959 0.828 8.9966 7.2307 13.636 9.0797 4.181 1.666 7.484 4.217 10.871 6.976 5.512 4.489 9.182 12.443 2.811 17.674-3.436 2.818-5.968 2.051-10.196 1.439-0.191-0.029-0.344-0.019-0.481 0.002z" stroke="#967348" stroke-width=".33490" fill="#f9e3b7"/>
   <path id="path903" fill="#dcc06d" d="m221.27 246.85c0.894 0.297 0.063 0.624-0.552 0.449-0.631-0.179-1.798-0.577-2.054-1.169 0.303-0.168 0.632-0.002 0.934 0.153-0.603-0.49-1.561-0.844-2.297-1.11-0.813-0.294-1.725-0.814-2.595-0.902 0.529 0.611 1.469 1.093 2.181 1.583-1.243-0.304-2.493-1.014-3.732-1.221-0.802-0.135-0.623 0.204-1.241 0.354 0.262 0.553 1.051 0.928 1.583 1.246-0.789 0.006-1.389-0.635-2.188-0.621 0.116 0.669 0.612 0.641 0.988 1.057 0.356 0.393 0.514 1.048 0.787 1.502-0.082-0.011-0.16-0.021-0.239-0.031 2.139 1.691 4.966 2.597 7.412 3.878 1.785 0.933 3.375 2.034 4.955 3.088-0.362-0.658-0.984-1.571-0.531-2.295 1.422 0.467 2.173 1.81 3.439 2.552 2.225 1.304 4.9824 10.522 7.4684 11.301 1.975 0.619 4.257 1.552 6.398 1.389 1.333-0.101 2.094-0.493 3.589-0.276 4.761 0.689 8.024 2.206 11.916 4.713 3.775 2.429 8.09 5.384 7.163 10.368-0.37 1.979-2.352 4.336-4.794 3.898 1.905-0.684 1.419-3.469 0.764-4.792-1.013-2.05-2.799-3.658-4.805-4.887-2-1.228-3.444-3.083-5.514-4.275-2.081-1.2-4.625-1.247-6.765-2.231-1.553-0.714-3.43-3.018-4.647-3.267"/>
   <path id="path905" fill="#ccb25c" d="m260.61 274.11c1.146 0.864 2.099 1.89 2.442 3.553 0.586 2.853 1.936 7.231-1.873 8.747 2.425-2.422-1.103-6.659-3.092-8.292-2.671-2.192-5.978-3.511-8.939-5.301-3.726-2.252-8.135-3.492-12.431-4.299-1.9-0.357-3.8992-6.2049-5.7652-6.6139-1.305-0.286-1.719-0.956-2.845-1.549-1.139 0.881-4.2368-6.0563-5.0178-6.8473-1.813-1.841-3.996-3.291-6.283-4.501-1.811-0.958-5.452-1.114-5.17-3.607 0.642 1.333 4.121 1.669 5.449 2.307 2.399 1.15 4.796 2.763 6.97 4.28-0.369-0.407-0.322-0.603-0.464-1.043 1.695 0.893 2.8588 5.6743 4.3568 6.8463 2.263 1.771 5.1322 8.3789 7.9492 8.9209 3.007 0.578 5.694 1.369 8.845 1.377-0.092 0.11-0.234 0.272-0.31 0.353 2.109 2.197 7.053 2.79 9.943 3.91 0.599 0.232 2.22 1.218 2.791 0.808 0.758-0.542 0.069-1.388-0.376-1.819 1.158 1.118 2.598 1.852 3.82 2.77z"/>
   <path id="path907" fill="#dcc06d" d="m263.07 290.74c-1.313 0.922-2.448 2.153-4.257 1.979-1.717-0.166-2.777-0.907-3.628-2.208-0.128-0.194-1.602-2.902-1.166-2.973 0.748-0.122 1.426 0.313 2.038 0.468-0.375-0.24-0.847-0.265-1.277-0.298-0.02 0.994 0.971 1.543 1.858 1.958-0.295-0.057-0.608 0.036-0.886 0.017 0.355 2.744 5.764 2.149 7.318 1.057z"/>
  </g>
  <g id="g909" opacity=".15" transform="matrix(2.4517 -.033136 .027988 2.9027 -1168.9 116.58)">
   <path id="path911" d="m262.52 268.11c0.211-1.348-0.075-2.736-1.058-3.934-3.035-3.705-9.104-5.675-13.604-7.309-2.184-0.791-5.2711-3.7904-7.3911-4.6714-2.242-0.933-3.4051-2.7611-5.7361-3.5231-21.272-8.3041-28.064-19.23-7.075-9.2702 2.574 0.295 5.8522 2.6085 8.3652 3.4105 5.656 1.807 11.118 6.9821 16.625 9.1401 5.848 2.291 12.129 5.404 15.659 10.478 0.962 1.383 1.998 2.517 2.08 4.203 0.211 4.511-0.939 8.071-4.78 11.037-1.369 1.055-2.849 2.161-4.494 2.821-1.4 0.563-3.058 1.104-4.577 1.264-0.637 0.067-1.168 0.173-1.736-0.114-0.285-0.146 0.195-0.645-0.008-0.82-0.424-0.363-1.106-0.467-1.576-0.814-0.845-0.625-1.812-2.591-1.549-3.597 0.267-1.023 0.284-0.699 1.354-1.024 4-1.221 8.818-2.904 9.501-7.277z" stroke="#967348" stroke-width=".33490" fill="#f9e3b7"/>
   <path id="path913" fill="#ccb25c" d="m262.63 258.36c-0.87707-1.0792-2.423-1.9938-3.4506-2.5856-5.9231-2.6719-7.3826-3.8106-10.667-5.6399-2.312-0.965-6.2651-3.6906-17.469-9.118-3.167-1.099-6.863-1.958-10.176-2.694-1.399-0.309-6.217-0.904-6.108-2.561 2.05-0.09 4.721 1.299 6.512 0.836-2.221-0.897-5.102-1.709-7.512-2.127-1.734-0.302-1.218-0.339-1.536 0.866-0.443 1.675 0.625 2.744 2.44 3.617 3.95 1.897 8.6528 4.5594 12.849 5.8414 5.549 1.697 12.432 7.5274 17.941 9.3004 3.1327 3.7888 6.6994 3.4934 10.184 5.3054 4.589 2.385 10.78 5.4483 6.551 10.971 2.995-3.912 5.688-8.483 0.441-12.012z"/>
   <path id="path917" fill="#dcc06d" d="m268.82 267.91c0.606 1.853-0.421 4.496-2.24 5.443 0.02-0.22-0.015-0.428-0.015-0.634 0.007 2.326-5.829 2.769-5.577 5.467 0.585 0.129 1.13-0.033 1.546-0.437-1.252 1.102-3.282 1.953-5.001 2.041 0.597-0.967 2.459-1.167 2.623-2.444-1.104-0.233-1.967 0.512-3.021 0.664 1.382-0.201 3.939-2.271 5.078-3.07 1.558-1.091 3.143-2.271 4.238-3.783 0.015 0.146 0.003 0.305 0.015 0.452 1.474-0.163 2.812-2.822 2.165-4.06"/>
  </g>
  <g id="g919" opacity="0.24" transform="matrix(2.4517 -.033136 .027988 2.9027 -1168.2 116.58)">
   <path id="path921" d="m161.09 239.11c-4.08 1.015-8.253 5.6826-12.189 7.2266-2.385 0.935-5.825 2.745-6.927 5.011-1.291 2.657 2.034 4.612 3.991 5.889 3.15 2.058 8.155 3.06 12.001 3.277 2.107 0.119 8.372-1.555 9.252 1.038 1.298 3.821-5.537 4.894-8.079 5.105-3.23 0.267-6.555-0.436-9.718-0.938-4.291-0.683-8.447-2.373-11.463-5.335-4.805-4.718-3.835-13.391 2.101-16.806 7.029-4.045 15.563-9.3129 23.22-11.878 8.596-2.878 17.794-8.8686 25.759-13.049 1.359-0.714 2.6708 0.11676 4.2978 0.12176 0.195 0 0.502 2.523 0.515 2.741 0.071 1.245-0.132 1.824-0.863 2.768-7.3066 4.9209-10.337 6.0731-16.532 8.7548-2.058 0.929-4.2725 2.1124-6.4255 2.8714-1.606 0.568-3.3566 1.0621-4.9666 1.5611-1.311 0.406-2.6423 1.3099-3.9733 1.6409z" stroke="#967348" stroke-width=".33490" fill="#f9e3b7"/>
   <path id="path923" fill="#ccb25c" d="m141.53 254.05c0.004 0.006 0.009 0.015 0.013 0.022 0.586 1.06 1.829 1.666 2.619 2.574-3.214-1.499-5.653-4.33-5.562-7.765 0.101-3.809 4.173-4.688 7.095-6.274-0.291 0.186-0.329 0.397-0.496 0.566 1.232 0.983 3.9429-2.1346 5.2599-2.5006 2.712-0.755 5.544-1.64 7.863-3.194-0.22 0.011-0.45 0.001-0.669 0.03 1.427-0.784 2.9578-2.2231 4.5888-2.0921-0.775-0.063 0.543 1.336 0.717 1.418 0.908 0.442 2.771 0.063 3.706-0.125 2.568-0.516 4.691-1.722 7.032-2.757 1.674-0.739 3.205-1.728 4.864-2.458 2.563-1.129 5.2975-6.1642 7.5795-7.7522 1.072-0.748 4.53-5.19 5.779-4.876 1.75 0.439-0.613 4.103-1.2 4.843-1.687 2.122-5.021 2.916-7.465 4.061-4.759 2.231-9.4706 6.3306-14.692 7.5466-4.276 0.995-8.6797 4.8516-12.989 5.8436-4.496 1.035-17.913 6.2056-14.044 12.89z"/>
   <path id="path927" fill="#dcc06d" d="m144 261.56c-0.007 0.074-3.708-1.774-3.984-1.976 2.486 2.611 6.214 3.776 9.768 4.529 2.061 0.436 4.135 0.87 6.251 0.997 1.99 0.119 3.825-0.481 5.741-0.498-2.12 0.018-5.861 0.602-7.674-0.576 0.606-0.504 1.652-0.176 2.292-0.63-3.823-0.006-9.107 0.344-12.035-2.517-0.088 0.217-0.322 0.28-0.359 0.671z"/>
  </g>
  <g id="g929" opacity="0.24" transform="matrix(2.4517 -.033136 .027988 2.9027 -1168.2 116.58)">
   <g id="g931">
    <path id="path933" d="m143.82 247.63c-5.25-3.391-10.139-8.737-5.6-13.802 1.607-1.792 4.108-2.819 6.405-3.637 2.792-0.995 5.279-2.363 7.978-3.584 6.032-2.731 12.348-6.1091 18.506-8.5811 2.375-0.954 4.7533-2.4429 7.1853-3.2639 3.032-1.023 6.1369-3.5978 9.0609-4.8738 2.433-1.062 4.339-2.642 7.168-2.262 0.376 2.058 0.65858 3.4081 0.0906 5.4571-0.819 2.953-5.1286 3.6349-7.5756 4.5409-1.045 0.388-2.087 0.663-3.157 1.001-6.375 2.021-12.54 7.1378-18.734 9.5998-3.568 1.419-7.2738 3.8211-10.691 5.5471-2.355 1.19-6.407 1.63-7.766 4.044-1.509 2.683 2.142 4.979 4.315 6.005 2.466 1.164 5.246 2.631 7.95 3.229 2.54 0.561 5.228-0.024 7.67-0.602 1.651-0.392 3.718-0.657 4.148 1.301 0.219 1-0.86 2.892-1.488 3.724-0.621 0.823-1.398 1.025-2.466 1.212-1.55 0.272-3.175 0.339-4.758 0.272-2.617-0.112-4.965-0.285-7.483-1.019-3.884-1.13-7.338-2.098-10.758-4.308z" stroke="#967348" stroke-width=".33490" fill="#f9e3b7"/>
    <path id="path935" fill="#ccb25c" d="m156.19 232.4c-2.063 1.009-13.852 4.125-9.854 7.798-0.993-1.706-3.833-2.718-4.309-4.487-0.714-2.658 3.098-4.377 5.016-5.435-2.157 1.395 0.54 1.95 1.874 1.663 1.602-0.347 8.19-2.069 7.566-3.974 0.948-0.256 1.852-0.915 2.83-0.857-0.063 0.153-0.136 0.158-0.169 0.33 1.075 0.651 3.563-0.538 4.657-0.846 3.783-1.063 7.371-5.9038 10.866-7.5948 2.521-1.22 5.131-2.236 7.695-3.351 0.95266-2.6208 1.512-0.329 1.797-1.074 1.07 0.03 6.169-2.01 3.858-3.25 1.632-0.883 3.311-2.091 4.984-2.968 1.436 1.171 1.459 4.583 0.388 6.015-1.048 1.401-4.17 1.734-5.814 2.308-7.558 2.639-15.014 7.7529-22.591 10.374-3.13 1.084-5.8786 3.9259-8.7936 5.3489z"/>
    <path id="path937" fill="#dcc06d" d="m158.48 227.26c-1.347 1.336 1.416 0.693 1.99 0.483 2.071-0.76 4.148-1.597 6.161-2.473 2.899-1.262 6.061-2.835 9.118-3.717-0.104 0.222-0.066 0.462-0.137 0.664 1.575-0.163 14.192-3.939 12.766-6.405 0.616-0.719 1.536-1.415 1.892-2.127-0.542 0.079-1.101 0.335-1.667 0.481 0.359-0.144 0.713-0.401 1.058-0.571-3.012 0.101-6.473 2.365-9.235 3.42-4.11 1.569-8.562 2.59-12.579 4.326-3.398 1.468-6.667 2.897-10.078 4.255-2.667 1.061-5.706 1.918-8.066 3.455 0.796-0.24 1.862-0.624 2.625-0.2-0.581 0.916-3.482 2.297-0.577 2.523 1.634 0.125 2.785-1.037 3.752-2.052 0.859-0.903 2.161-1.251 2.977-2.062z"/>
   </g>
   <path id="path939" fill="#dcc06d" d="m147.14 246.87c-0.45-0.29-0.896-0.594-1.343-0.912 0.831 0.592 1.593 1.614 2.535 2.271 1.984 1.387 4.15 1.981 6.406 2.794 2.795 1.006 5.718 0.779 8.641 0.837 2.15 0.043 4.715-0.121 4.615-2.94-0.021-0.588-0.561-0.936-0.456-1.559-0.067 0.29-0.162 0.311-0.273 0.532 0.032 0.054 0.148 0.16 0.149 0.233-0.766 0.576-2.153 1.257-3.184 1.343 0.966 0.06 2.228-0.476 3.006 0.096-0.97 0.77-2.794 1.448-4.027 1.726-3.145 0.707-6.657-0.262-9.602-1.274-2.382-0.82-4.452-1.845-6.467-3.147z"/>
   <path id="path941" fill="#dcc06d" d="m169.77 250.85c0.748 0.03 0.996-0.557 0.977-1.193-0.517 0.652-2.292 0.81-3.24 1.152 1.047 0.061 2.013 0.183 3.039 0.041"/>
  </g>
  <g id="g953" opacity="0.24" transform="matrix(2.4517 -.033136 .027988 2.9027 -1168.2 116.58)">
   <g id="g955">
    <path id="path957" d="m264.12 249.12c4.613-3.414 7.573-8.68 4.474-13.926-1.149-1.944-3.178-2.831-5.359-3.607-2.792-0.995-5.2692-3.1333-7.9702-4.3553-6.031-2.73-12.295-8.422-18.45-10.894-2.375-0.954-4.747-1.893-7.179-2.714-3.937-1.33-7.832-3.279-11.782-4.438-1.173-0.346-4.905-2.241-5.936-1.183-0.729 0.748 0.244 2.935 0.122 3.865-0.137 1.033-0.67791 0.71975 0.0491 1.6218 0.871 1.084 3.201 1.7288 4.444 2.1498 2.516 0.852 4.9705 2.0254 7.5405 2.8394 6.375 2.02 12.501 6.1461 18.695 8.6091 3.567 1.418 7.2386 4.4812 10.656 6.2072 1.201 0.606 2.538 0.933 3.805 1.397 2.394 0.876 5.2166 4.0502 4.6676 6.8602-0.349 1.794-2.192 2.856-3.871 3.518-3.736 1.475-8.473 1.958-12.509 1.572-3.071-0.293-6.11-0.625-9.189-0.822-1.103-0.072-1.649-0.195-2.24 0.875-0.501 0.909-0.466 2.158 0.101 3.035 1.928 2.977 6.676 3.065 9.952 3.213 3.688 0.167 7.402 0.216 11.066-0.287 3.221-0.439 6.363-1.649 8.913-3.536z" stroke="#967348" stroke-width=".33490" fill="#f9e3b7"/>
    <path id="path959" fill="#ccb25c" d="m264.86 236.55c-0.521-2.005-2.266-3.796-3.98-4.846-3.0856-1.9466-10.356-5.0935-13.112-5.9379-3.783-1.064-6.0806-4.7338-9.5746-6.4248-5.7526-2.0442-14.248-7.5384-18.236-9.2175-0.787 0.421-4.6142-1.6403-5.6182-1.9013-2.353-0.608-2.509 1.914-2.509 3.484 0.002 3.696 5.7636 2.4046 8.5736 3.3856 7.559 2.64 14.913 11.83 22.49 14.45 3.133 1.084 5.867 2.825 8.782 4.249 3.044 1.486 12.226 3.107 10.443 7.895-0.276 0.739-1.003 1.509-1.734 1.888 1.828-0.944 3.813-2.593 4.43-4.521 0.817-2.555-0.885-4.897-3.023-6.351"/>
   </g>
  </g>
  <g id="g965" opacity="0.24" transform="matrix(2.4517 -.033136 .027988 2.9027 -1168.2 116.58)">
   <path id="path967" d="m162.66 238.97c-0.52381-0.0663-1.0403-0.14554-1.5495-0.2358-3.6458-0.64589-7.4876-1.3739-10.903-2.6357-3.4922-1.2908-6.769-3.2975-9.9075-5.1412-3.1625-1.8586-5.7622-4.939-4.9103-8.4406 0.60518-2.4907 4.1902-3.8308 6.5017-4.8107 2.5701-1.0907 5.3028-1.7433 7.8982-2.6809 4.7257-1.7066 9.8406-4.8471 14.439-6.7828 4.2186-1.7768 8.367-3.6527 12.777-5.1794 2.0602-0.71294 4.0895-2.3514 6.1276-3.1124 2.7137-1.0116 5.2851-1.6653 7.8016-3.058 1.3279-0.73532 4.9125-2.8495 5.4293-0.29319 1.1134 5.5116-5.6216 6.9741-10.171 8.5808-2.8865 1.0195-5.213 3.3198-7.8375 4.6265-2.8936 1.4405-6.495 1.6706-9.5722 2.7281-5.3604 1.8432-10.673 5.6097-16.098 7.3779-2.1597 0.70489-8.9075 1.524-10.08 3.4804-1.436 2.3983 6.1378 4.4636 7.9612 5.5796 3.5472 2.1708 7.436 2.6549 11.527 3.464 2.5301 0.49931 5.3411 1.1528 8.0542 1.1192 1.3964-0.0173 6.1171-1.2508 7.1591 0.11471 1.4582 1.9118-3.4091 5.1653-5.1918 5.5063-3.0481 0.58043-6.4026 0.17969-9.4554-0.2069z" stroke="#967348" stroke-width=".34277" fill="#f9e3b7"/>
   <path id="path969" fill="#dcc06d" d="m147.7 226.54c-1.468-1.688-3.413-2.929-3.675-5.185-0.24-2.063 1.857-3.785 4.043-3.898-0.228 0.15-0.454 0.536-0.732 0.719 0.475 0.873 2.29 0.559 3.073 0.144 1.622-0.862 2.499-2.168 4.689-2.91 2.744-0.929 5.431-1.864 8.133-2.901 2.128-0.816 4.279-1.984 6.543-2.383 3.489-0.614 7.8987-5.1616 11.112-7.0956 3.775-2.272 8.31-3.31 11.933-5.843 0.336 2.889-3.511 5.539-5.987 6.571-2.449 1.02-4.424 1.918-6.758 3.348-2.212 1.356-5.3442 3.0807-8.0722 3.3937 0.451-0.37 0.2992 0.0733 0.4912-0.28968-5.314 0.041-10.087 4.7246-15.07 6.8086-2.679 1.121-5.289 2.382-7.981 3.442-1.226 0.481-3.1 0.868-3.995 1.778 0.26 0.986 0.597 3.195 1.671 3.585"/>
   <path id="path971" fill="#ccb25c" d="m145.44 221.9c-2.439 1.878-1.008 4.35 1.252 5.69-2.839-1.684-9.411-5.662-4.544-8.739 2.207-1.395 6.036-3 8.615-3.181-0.814 0.326-3.787 1.244-4.068 2.02-0.558 1.54 4.367 0.227 5.061 0.124 2.755-0.412 5.3364-3.3482 7.9984-4.0982 2.857-0.805 5.765-1.913 8.5-3.035 4.085-1.677 8.102-3.384 12.005-5.319 2.819-1.399 7.272-1.827 7.728-5.202-0.268 0.071-0.674 0.025-0.925 0.128 1.249-1.895 3.791-2.453 5.804-3.485-0.115 1.375 0.253 2.7-0.349 4.053-0.688 1.549-2.176 1.863-3.726 2.483-3.833 1.537-7.499 3.41-11.229 5.026-3.646 1.581-7.221 3.35-11.042 4.6-6.941 2.273-15.228 4.4292-21.08 8.9352z"/>
   <path id="path973" fill="#dcc06d" d="m158.35 235.48c3.373 1.229 5.839 1.82 8.778 2.325 1.416 0.243 3.088 0.71 4.562 0.508-0.14-0.276-0.125-0.631-0.292-0.876 0.231-0.223 0.573-0.61 0.872-0.992-1.15 0.531-2.013 0.562-3.255 0.681 0.321 0.222 0.988 0.538 1.324 0.639-2.224 0.629-4.658-0.281-6.761-0.983-2.003-0.669-3.81-1.103-5.735-2.038 0.063 0.177 0.05 0.369 0.092 0.541-0.817-0.14-1.474-0.63-2.238-0.898 0.714 0.381 1.483 0.7 2.268 0.915"/>
  </g>
  <g id="g975" opacity="0.24" transform="matrix(2.5322 -.033136 .028907 2.9027 -1185.3 116.58)">
   <path id="path977" d="m242.04 240.07c2.884-0.188 5.748-0.774 8.563-1.366 3.199-0.673 6.23-1.688 9.104-3.107 2.754-1.358 5.883-3.338 6.967-6.215 0.817-2.167 0.843-5.344-0.149-7.455-0.813-1.735-2.363-3.039-4.174-3.876-3.647-1.685-7.762-2.979-11.603-4.231-3.199-1.043-6.4508-4.1318-9.6558-5.1878-8.259-2.721-15.709-6.1626-23.375-10.163-1.677-0.875-6.375-4.612-7.026-1.493-0.36 1.729 0.171 4.7 1.854 5.77 0.888 0.563 2.397 0.795 3.402 1.309 1.098 0.562 2.147 1.204 3.237 1.779 3.709 1.957 7.6845 3.8676 11.664 5.3866 2.981 1.14 6.093 1.848 9.003 3.196 3.734 1.731 8.2008 4.2778 12.162 5.6928 2.184 0.781 6.9342 1.693 8.7392 3.098 1.772 1.379-0.0136 4.0595-1.2106 5.5525-1.426 1.774-4.7816 3.1075-6.9456 4.0005-3.802 1.569-8.063 1.741-12.141 2.147-1.068 0.106-2.116 0.218-3.19 0.217-0.802 0-1.397-0.222-2.148-0.337-3.997-0.61-3.688 5.561 0.002 5.548 2.057-0.006 4.128-0.137 6.194-0.225 0.243-0.012 0.485-0.025 0.727-0.041z" stroke="#967348" stroke-width=".33490" fill="#f9e3b7"/>
   <path id="path979" fill="#dcc06d" d="m261.23 226.83c1.333-1.489 2.8708-2.937 2.6098-5.157-0.307-2.623-4.146-3.841-6.417-4.521-4.053-1.214-7.711-3.37-11.818-4.48-2.849-0.771-5.6296-3.9052-8.5336-4.4562-3.6733-1.9876-7.8202-2.7353-11.003-4.7143-3.739-2.322-8.2862-0.7775-11.867-3.3585-0.382 2.883 3.4348 4.3719 5.8938 5.4389 2.431 1.054 4.393 1.979 6.703 3.441 2.19 1.385 5.2996 3.2629 8.0226 3.6129-0.445-0.377-0.298-0.703-0.483-1.069 1.809 0.039 3.0799 1.2502 4.5449 2.1532 1.152 0.709 2.4871 0.76653 3.7591 1.2335 2.456 0.902 5.0216 3.1942 7.5076 3.9912 0 0-0.16777 0.0696-0.24677-0.0264 2.061-0.831 5.2237 0.67465 6.8767 1.5416 1.259 0.66 4.098 1.007 4.309 2.428 0.121 0.831 1.6402 2.921 0.7332 3.235"/>
   <path id="path983" fill="#dcc06d" d="m248.05 236.67c-2.915 1.016-5.769 1.724-8.816 2.203-1.418 0.224-3.099 0.668-4.568 0.447 0.145-0.274 0.135-0.63 0.307-0.872-0.228-0.226-0.563-0.618-0.857-1.003 1.144 0.546 2.005 0.588 3.244 0.724-0.324 0.218-0.993 0.526-1.331 0.622 2.212 0.659 4.66-0.218 6.773-0.891 2.017-0.642 3.827-1.05 5.771-1.96-0.067 0.176-0.058 0.369-0.104 0.539 0.819-0.128 1.486-0.61 2.255-0.868-0.721 0.372-1.495 0.681-2.284 0.885"/>
  </g>
  <g id="g985" opacity="0.24" transform="matrix(2.5274 -.033136 .028853 2.9027 -1183.1 116.58)">
   <g id="g987">
    <path id="path989" d="m180.94 220.47c-1.055-0.354-2.413-0.323-3.398-0.362-2.226-0.086-4.649-0.261-6.846-0.531-1.873-0.23-3.688-1.124-5.576-1.484-3.92-0.748-7.997-1.766-11.622-3.357-1.71-0.751-5.8755-1.7551-5.9625-3.7771-0.08-1.875 4.8146-3.5777 6.3756-4.2077 10.021-4.046 19.902-7.4573 30.386-10.387 3.151-0.879 7.853-1.255 10.329-3.492 0.963-0.869 2.619-6.518 0.512-6.306-2.098 0.212-4.331 0.865-6.446 1.404-4.281 1.092-8.299 3.059-12.538 4.38-4.492 1.399-8.971 2.842-13.352 4.516-2.086 0.798-4.14 1.552-6.173 2.46-3.205 1.432-6.345 2.387-9.357 4.115-2.727 1.565-5.401 1.936-7.306 4.636-2.563 3.633 0.667 7.008 3.858 9.159 2.732 1.84 5.791 3.223 8.954 4.308 5.598 1.92 10.55 4.262 16.569 4.69 3.406 0.242 7.257 0.996 10.492-0.363 1.706-0.716 3.57-2.739 2.377-4.513-0.291-0.433-0.745-0.709-1.276-0.888z" stroke="#967348" stroke-width=".33490" fill="#f9e3b7"/>
    <path id="path991" fill="#dcc06d" d="m150.8 213.31c-2.359-0.743-7.126-3.86-5.571-6.571 0.779-1.36 2.947-2.159 4.356-2.771 0.966-0.42 1.989-0.963 2.957-1.256 0.741-0.225 2.004-0.169 2.309-0.819-0.436 0.019-0.685-0.053-1.078 0.122 3.093-1.111 6.254-2.716 9.418-3.903 4.525-1.697 9.37-2.837 13.76-4.759 0.006 1.92 5.582 0.756 5.837-0.407 1.042 0.377 2.338-0.072 3.386 0.558-0.563 0.295-1.387 0.62-1.668 1.127 0.137 0.079 0.278 0.151 0.358 0.209-1.673 1.018-3.916 1.297-5.792 1.839-2.949 0.849-5.958 1.563-8.771 2.69-4.358 1.747-8.979 3.109-13.349 4.863-2.731 1.095-13.03 5.916-6.541 9.258"/>
    <path id="path993" fill="#ccb25c" d="m148.28 212.05c-1.771-1.26-5.474-4.087-3.281-6.373-0.058 0.936 0.404 1.697 1.005 2.426 0.072-0.123 0.289-0.244 0.382-0.509 0.054 0.132 0.456 0.479 0.54 0.683 0.752-0.273 7.429-3.556 6.267-4.269 2.297-1.354 5.665-2.327 8.252-3.228 2.62-0.913 5.467-2.292 8.123-2.855 3.618-0.768 12.301-0.109 13.154-4.979-0.335 0.034-0.738-0.099-1.087-0.015 0.827-0.575 1.954-0.744 2.645-1.407-1.148-0.104-2.54 0.267-3.607 0.652 2.021-1.138 4.649-2.038 6.912-2.704 2.07-0.609 4.71-1.566 6.9-1.534-0.273 0.225-0.323 0.519-0.691 0.731 0.119 0.053 0.25 0.277 0.542 0.349-0.184 0.789-1.083 1.327-1.301 1.932-0.279 0.775 0.38 1.165-0.22 1.975-0.523 0.705-2.032 0.708-2.762 0.918-0.874 0.249-1.565 0.732-2.471 0.996-3.872 1.129-7.913 1.89-11.625 3.308-3.9 1.491-7.818 2.76-11.569 4.56-2.024 0.972-4.218 1.641-6.29 2.542-2.876 1.253-12.736 3.461-8.132 7.993-0.819-0.805-1.932-1.565-2.847-2.266"/>
   </g>
   <path id="path995" fill="#dcc06d" d="m175.96 224.21c1.204 0.316 3.592 0.797 4.631 0.041-0.259-0.008-0.483-0.128-0.696-0.175 0.528-0.189 0.885-0.636 1.026-1.133-0.75 0.239-1.56 0.315-2.222 0.598 0.03 0.136 0.105 0.167 0.146 0.317-2.494 1.248-8.199-1.979-10.406-2.838 0.139 0.161 0.221 0.49 0.336 0.662-2.987 0.179-2.87 0.07-4.003-0.192-1.146-0.266-2.849-0.422-3.861-0.824 3.31 0.874 6.193 2.106 9.636 2.294 2.364 0.128 4.651 0.913 6.96 1.25"/>
  </g>
  <g id="g997" opacity="0.24" transform="matrix(2.5083 -.033136 .028634 2.9027 -1180.2 116.58)">
   <g id="g999">
    <path id="path1001" d="m225.42 221.77c-0.354-2.635 3.329-2.347 5.613-2.441 3.406-0.14 6.853-0.146 10.193-0.865 3.651-0.787 7.4293-1.2651 10.847-2.7091 1.724-0.726 6.5913-2.4901 6.7103-4.5111 0.111-1.874-5.4366-2.7048-6.9876-3.3568-9.954-4.182-19.775-8.696-30.211-11.769-3.138-0.924-7.832-1.363-10.274-3.634-0.947-0.882-2.512-6.552-0.41-6.311 2.095 0.239 4.317 0.923 6.424 1.491 4.263 1.149 8.25 3.172 12.466 4.551 4.468 1.459 8.924 2.963 13.276 4.699 2.076 0.825 4.117 1.607 6.135 2.543 3.183 1.476 6.304 2.473 9.288 4.243 2.705 1.604 5.373 2.01 7.232 4.735 2.504 3.669-0.78 7-4.006 9.105-7.941 5.186-17.072 6.642-26.551 7.257-2.83 0.184-8.053 1.372-9.429-1.933-0.171-0.412-0.273-0.774-0.316-1.094z" stroke="#967348" stroke-width=".33490" fill="#f9e3b7"/>
    <path id="path1003" fill="#dcc06d" d="m257.14 213.32c2.371-0.711 4.8601-3.5692 3.3501-6.3002-0.758-1.369-2.912-2.199-4.312-2.83-0.962-0.433-1.7554-1.7028-2.7164-2.0088-1.9649-0.12161-3.1919-1.2762-1.4406-0.00019-3.076-1.155-6.2028-3.5192-9.3458-4.7482-4.498-1.758-9.3282-2.6915-13.685-4.6725-5.4291-1.2833-3.325-0.61751-5.8194-1.5889-1.047 0.363-2.3536 1.4386-3.4116 2.0546 0.557 0.303 1.375 0.639 1.648 1.15-0.136 0.076-0.279 0.147-0.363 0.204 1.657 1.04 3.897 1.35 5.766 1.916 2.932 0.891 5.932 1.646 8.725 2.811 4.33 1.807 8.926 3.231 13.271 5.045 2.712 1.132 15.261 5.8992 8.7179 9.1532"/>
    <path id="path1005" fill="#ccb25c" d="m259.95 212.44c1.791-1.237 2.932-4.153 0.77598-6.468 0.042 0.936-0.431 1.691-1.042 2.411-0.071-0.123-0.286-0.247-0.376-0.513-0.056 0.131-0.463 0.473-0.551 0.676-0.746-0.284-7.368-3.658-6.197-4.354-2.273-1.385-5.629-2.404-8.199-3.34-2.605-0.949-5.43-2.367-8.074-2.967-3.606-0.818-12.3-0.278-13.075-5.159 0.335 0.038 0.74-0.088 1.088 0-0.819-0.586-1.941-0.771-2.621-1.443 1.147-0.089 2.534 0.301 3.595 0.701-2.002-1.166-4.615-2.102-6.867-2.798-2.06-0.638-4.686-1.63-6.876-1.627 0.271 0.229 0.315 0.522 0.681 0.74-0.122 0.051-0.254 0.275-0.548 0.341 0.17 0.793 1.063 1.342 1.271 1.951 0.267 0.779-0.401 1.16 0.187 1.978 0.512 0.712 2.02 0.736 2.745 0.953 0.873 0.263 1.555 0.756 2.455 1.032 3.856 1.182 7.8773 2.4938 11.567 3.9618 3.875 1.545 7.7735 2.6466 11.496 4.4986 2.01 1 5.4545 2.3185 7.5105 3.2495 2.856 1.292 14.026 2.877 9.3507 7.346 0.831-0.794 1.955-1.54 2.883-2.226"/>
   </g>
  </g>
  <g id="g1009" opacity="0.24" transform="matrix(2.5217 -.033136 .028787 2.9027 -1183.2 116.58)">
   <g id="g1011">
    <path id="path1013" d="m227.73 176.94c-3.65-0.841-7.701-3.25-11.591-2.555-1.711 0.306-4.057 2.445-3.673 4.22 0.28 1.286 1.967 1.761 3.191 1.972 6.038 1.04 11.794 1.711 17.376 4.167 4.525 1.991 9.32 3.552 13.737 5.738 1.58 0.781 2.975 1.881 4.55 2.686 1.949 0.998 5.9676 2.3624 4.3186 4.5804-2.941 3.958-10.447 3.9146-14.99 4.7896-3.03 0.583-6.07 1.132-9.122 1.613-1.499 0.237-6.799-0.551-7.71 0.744-0.399 0.572 0.149 2.039 0.16 2.691 0.015 0.754-0.721 1.917-0.633 2.458 0.215 1.295 4.512 0.592 5.604 0.57 3.702-0.068 7.462-0.994 11.12-1.469 4.266-0.555 8.56-2.189 12.618-3.566 4.523-1.535 12.019-5.503 9.296-10.924-1.247-2.482-3.736-3.825-5.726-5.722-3.15-3.01-8.22-4.526-12.315-6.271-2.912-1.237-5.811-2.516-8.86-3.438-2.421-0.733-4.875-1.713-7.351-2.284z" stroke="#967348" stroke-width=".33490" fill="#f9e3b7"/>
    <path id="path1015" fill="#dcc06d" d="m253.68 193.97c-2.87-2.042-6.5949-3.818-9.8489-5.291-1.377-0.624-2.829-1.079-4.229-1.659-2.111-0.875-4.093-1.838-6.296-2.542-3.27-1.045-6.633-1.933-9.95-2.862-1.907-0.534-3.786-1.054-5.735-1.435-0.842-0.164-2.455-0.082-3.137-0.484-1.062-0.625-0.823-1.743-0.382-2.695 1.201-2.587 4.9694-1.6717 7.1194-1.2257 3.171 0.658 6.1379 1.7397 9.2159 2.7877 2.367 0.808 4.682 1.3352 7.053 2.1532 1.86 0.642 6.1857 1.8402 7.1997 3.4352-2.039-0.31-3.9511-0.0245-5.9421 1.0935 1.794 0.135 3.686 1.135 5.386 1.65 0.629 0.191 1.724 0.663 2.403 0.503-0.018 0.003 1.3277-1.7114 0.91772-1.9134 1.963 0.974 3.9083 3.4514 5.9933 4.2654 1.476 0.576 3.234 1.113 4.026 2.499 1.482 2.601 0.39635 5.2568-1.6716 6.4378 1.009-0.242 1.47-1.454 1.479-2.336 0.015-1.319-2.5654-1.6448-3.6014-2.3818z"/>
    <path id="path1017" fill="#ccb25c" d="m255.12 189.88c-0.015-0.011-0.028-0.021-0.044-0.031-2.761-1.982-5.433-3.758-8.784-4.828-2.198-0.702-4.45-1.284-6.561-2.195 0.412 0.234 0.689 0.447 0.689 0.888-2.771 1.209-6.544-0.707-9.075-1.733-1.227-0.497-2.556-0.969-3.73-1.559-0.991-0.497-1.771-1.516-2.982-1.38-0.65 1.837-5.415 0.69-4.738-1.137 0.271-0.735 1.655-0.573 2.331-0.742-1.09 0.263-2.92-1.533-4.197-1.545-2.195-0.017-3.852 2.023-1.772 3.576 2.298 1.716 5.942 1.851 8.711 2.506 3.804 0.902 7.416 2.285 10.828 4.081 4.063 2.139 8.186 2.91 12.739 2.384 1.871-0.217 3.403 0.483 4.41 2.06 0.843 1.328 0.31 4.048-1.593 2.194 0.569 0.555 1.831 0.475 2.434 1.059 1.894 1.836 3.4612 4.1114 1.4172 5.4974 1.464-0.954 1.4238-2.0864 2.3198-3.5354 1.615-2.618-0.305-4.052-2.403-5.56z"/>
   </g>
   <path id="path1021" fill="#dcc06d" d="m251.86 204.72c1.488-0.355 3.12-1.064 4.091-2.146-0.07-0.137-0.134-0.236-0.198-0.357 1.443-1.081 3.277-1.508 4.56-2.804-2.378 2.997-4.835 3.563-8.452 5.127"/>
  </g>
  <g id="g1023" opacity="0.24" transform="matrix(2.734 -.033136 .03121 2.9027 -1222.5 116.58)">
   <g id="g1025">
    <path id="path1027" d="m172.77 209.72c-1.192-0.375-2.335-0.742-3.385-1.026-4.46-1.206-8.839-2.791-13-4.707-2.874-1.323-7.189-3-9.465-5.063-2.383-2.16-2.323-6.621 0.302-8.404 5.9-4.008 13.017-7.062 19.81-9.531 5.672-2.063 11.466-3.955 17.359-5.405 3.121-0.768 11.568-2.125 9.645 3.216-1.39 3.857-5.04 2.559-8.381 3.106-2.945 0.483-5.718 1.831-8.56 2.731-3.419 1.082-6.543 2.362-9.816 3.838-2.854 1.288-10.765 3.0387-12.679 5.4977-2.315 2.974 5.0089 4.3844 7.4329 5.3754 4.386 1.798 7.8773 2.5619 12.601 3.5039 5.263 1.051 10.903-0.225 10.056 6.786-0.522 4.289-9.603 0.814-11.92 0.082z" stroke="#967348" stroke-width=".33490" fill="#f9e3b7"/>
    <path id="path1029" fill="#dcc06d" d="m164.06 188.78c-1.318 0.578-2.573 1.227-3.697 2.005-2.261 1.562-6.577 5.477-1.804 6.844-2.947-0.844-7.969-2.749-7.103-6.359 0.639-2.662 6.084-7.62 9.289-5.944-0.27 0.371-0.266 0.838-0.419 1.132 4.828 0.078 10.456-2.834 14.753-4.713 0.702-0.307 8.715-3.513 5.324-3.742 3.029-1.002 6.169-1.825 9.197-2.427 3.914-0.777 2.686 3.487 0.636 4.798-2.227 1.424-5.392 1.25-7.955 1.639-3.662 0.553-5.909 1.904-9.192 3.316-2.838 1.221-6.091 2.16-9.029 3.451z"/>
    <path id="path1031" fill="#ccb25c" d="m156.51 196.23c-4.458-1.483-6.157-5.337-2.077-8.278-0.497 1.199-0.698 3.632 0.916 4.058 1.207 0.318 3.704-1.609 4.97-2.102-1.122 1.033-5.781 5.326-3.809 6.59"/>
    <path id="path1033" fill="#ccb25c" d="m175.38 183.63c0.982-0.337 1.638-0.969 1.704-1.838-2.25-0.123-4.103 0.385-6.271 0.724 0.494-0.269 0.702-0.687 1.053-0.978-1.889-0.245-6.208 1.24-7.715 2.316 5.267-3.071 11.065-4.319 16.818-6.058 3.739-1.131 6.941-2.142 10.921-1.904 0.092 1.51 0.021 2.841-0.587 4.204-5.008-0.017-9.759 2.253-14.47 3.264"/>
   </g>
   <path id="path1035" fill="#dcc06d" d="m175.96 209.64c2.374 0.386 4.519 0.909 6.942 0.764-0.059-0.944 0.714-2.107 0.317-3.177-0.468-1.266-1.406-0.854-2.041-2.047 0.125-0.053-0.798 0.461-0.839 0.489 0.983 0.583 1.256 1.886 0.297 2.508 0.296-0.054 0.897 0.167 1.372 0.167 1.363 2.205-3.962 0.818-5.176 0.759-2.326-0.113-4.565-0.081-6.592-1.301 1.706 0.733 4.681 1.923 6.592 1.837"/>
  </g>
  <g id="g1037" opacity="0.24" transform="matrix(2.7246 -.033136 .031103 2.9027 -1220.5 116.58)">
   <path id="path1039" d="m182.35 196.14c1.241-0.469 0.418-0.985 0.195-2.115-0.362-1.842 2.762-3.477 1.704-4.814-0.996-1.258-5.113-1.311-6.589-1.475-3.777-0.419-6.927-0.992-10.405-2.325-1.919-0.736-3.829-1.408-5.813-1.961-0.999-0.279-2.795-0.345-2.908-1.433-0.292-2.813 5.13-4.851 7.208-5.723 6.528-2.743 12.668-4.674 19.892-5.36 2.366-0.225 8.897-0.311 9.303-3.22 0.101-0.723 0.12-2.288-0.426-2.873-0.704-0.759-1.543-0.514-2.479-0.389-3.378 0.454-6.732 1.146-10.005 1.953-3.839 0.947-7.834 1.192-11.646 2.281-4.661 1.331-9.682 2.783-13.891 5.102-3.36 1.851-7.105 5.165-6.875 9.085 0.174 2.943 3.1 4.832 5.581 6.253 1.65 0.946 3.486 1.418 5.286 2.042 2.432 0.841 4.67 2.093 7.211 2.641 2.056 0.442 4.367 1.138 6.486 1.305 2.178 0.175 6.097 1.809 8.171 1.026z" stroke="#967348" stroke-width=".33490" fill="#f9e3b7"/>
   <path id="path1041" fill="#ccb25c" d="m162.6 176.47c-1.44 0.979-3.079 2.143-3.94 3.627-0.653 1.124-0.638 3.557 1.18 3.896-3.492-1.028-5.418-5.109-3.053-7.875 2.071-2.424 5.719-2.97 7.947-4.69 0.832 1.137 6.011-1.252 7.124-1.755 2.455-1.113 5.033-1.407 7.798-1.828 4.486-0.683 8.902-1.454 13.278-2.11-0.821 0.699 0.15 2.165-0.826 3.097 0.066 0.07 0.147 0.118 0.245 0.14-1.277 0.004-3.131 0.792-4.381 1.068-1.2 0.266-2.417 0.359-3.635 0.5 0.702-0.275 1.508-0.599 1.664-1.362-1.716-1.275-6.396 0.461-7.466 1.947 1.321-0.175 2.627-0.647 3.951-0.74-1.379 0.706-3.274 0.957-4.771 1.36-2.083 0.561-4.283 0.947-6.388 1.469-3.058 0.758-6.152 1.505-8.727 3.256z"/>
   <path id="path1043" fill="#dcc06d" d="m150.83 179.86c1.036-1.079 1.29-2.507 2.678-3.541 1.161-0.863 2.569-1.631 3.863-2.33 2.934-1.587 6.149-2.896 9.482-3.561-0.101 0.082-0.19 0.086-0.328 0.155 1.943-0.333 3.834-0.995 5.792-1.24 0.347 1.133-2.969 1.857-3.96 2.101-1.459 0.358-2.435 0.497-3.86 1.139-2.324 1.047-4.938 1.299-6.912 2.945-1.335 1.113-3.341 3.398-2.371 5.186-1.197-2.204-2.165-3.165-4.384-0.854z"/>
   <path id="path1045" fill="#dcc06d" d="m179.45 192.74c0.649 0.215 1.366 0.569 1.728 1.032-0.163 0.065-0.334 0.144-0.499 0.214 1.231 1.228 0.031 1.942-1.377 1.421 4.286 1.487 1.531-1.605 2.791-2.999-0.191 0.003-0.458-0.067-0.646-0.063 0.807-0.454 1.757-1.235 1.701-2.096-1.659 0.825-1.751 3.461-4.471 2.311"/>
   <path id="path1047" fill="#dcc06d" d="m153.31 186.13c0.988 1.35 2.155 1.906 3.804 2.302-0.284-0.311-0.461-0.618-0.829-0.886 0.082 0.023 0.321 0.073 0.311 0.071-1.519-0.58-3.657-1.032-4.564-2.363 0.458 0.976 1.73 1.464 2.632 1.949"/>
  </g>
  <g id="g1049" opacity="0.24" transform="matrix(2.6551 -.033136 .03031 2.9027 -1212.3 116.58)">
   <path id="path1051" d="m217.12 164.09c-0.213-0.043-0.424-0.088-0.637-0.133-2.743-0.568-5.257 1.697-4.311 4.462 0.883 2.571 5.387 1.481 7.571 1.992 3.728 0.874 7.352 2.118 11.142 2.763 3.165 0.538 6.131 1.38 9.091 2.58 2.085 0.845 4.138 1.926 5.929 3.216 1.508 1.086 5.6327 2.8352 4.2837 4.7712-1.049 1.507-5.4947 2.5658-7.2177 3.1818-3.483 1.243-7.191 1.742-10.796 2.531-2.15 0.47-4.197 0.902-6.386 1.248-0.973 0.153-2.797 0.307-3.396 1.168-0.639 0.915 0.117 1.326 0.356 2.249 0.411 1.597-0.88 3.984 1.857 3.984 3.432-0.001 7.435-1.178 10.723-2.034 3.096-0.806 6.097-1.979 9.164-2.789 2.388-0.631 4.454-1.127 6.656-2.329 1.138-0.622 2.337-1.302 3.278-2.151 3.612-3.27 3.173-7.628 0.305-11.201-2.503-3.116-6.508-4.84-10.144-6.57-2.713-1.29-5.799-2.739-8.875-2.965-2.855-0.209-5.652-0.822-8.434-1.568-3.303-0.888-6.766-1.692-10.159-2.406z" stroke="#967348" stroke-width=".33490" fill="#f9e3b7"/>
   <path id="path1053" fill="#ccb25c" d="m238.58 169.72c4.012 0.742 8.265 2.493 11.223 4.476 1.436 0.962 3.406 2.823 3.95 4.387 0.888 2.554-2.13 5.043-4.529 5.685 0.716-1.835 1.618-2.564 0.102-4.1-1.474-1.491-3.1822-1.812-5.0892-2.816-4.786-2.518-9.9453-3.6648-15.188-4.8898-2.152-0.502-4.4394-1.1731-6.6594-1.8131-2.651-0.767-5.0391-0.98453-7.6901-1.2005-0.019-0.144 0.13648 0.0844 0.14448-0.0576-0.665-0.368-0.86542-2.0679-0.74442-2.7549 0.239-1.344 1.506-1.233 2.662-1.61-0.29-0.107-0.559-0.279-0.853-0.375 1.61 0.474 3.434 0.874 5.134 1.095-1.103-0.011-3.873-0.379-2.467 1.252 1.326 1.537 3.528 1.458 5.36 1.987 2.047 0.589 3.962 1.403 6.091 1.903 1.279 0.3 4.406 1.591 5.616 1.351 2.354-0.464-0.691-1.991-0.997-2.894 1.243-0.012 2.576 0.123 3.935 0.375z"/>
   <path id="path1055" fill="#dcc06d" d="m221.08 166.28c-0.595 0-3.175-0.295-3.073 0.711 0.096 0.94 3.146 1.491 3.852 1.667 2.107 0.527 3.969 1.303 5.998 2.053 2.466 0.912 5.255 2.204 7.951 2.503 0.94 0.104 2.081 0.434 2.322-0.672 0.282-1.291-1.519-1.583-2.286-2.163 2.286-0.165 5.181 0.837 7.1 1.373-0.912-1.585-5.08-2.098-6.993-2.567-3.063-0.75-6.291-1.447-9.382-1.809 0.398 1.382-4.33 0.042-4.893-0.885 0.235-0.018 0.512-0.073 0.744-0.072-0.84-0.321-2.188-0.668-3.218-0.635 0.079 0.013 0.365 0.1 0.448 0.13-0.177 0.123-0.079 0.222 0.077 0.366"/>
   <path id="path1057" fill="#dcc06d" d="m224.37 193.28c-0.243 0.268-0.514 3.288-0.156 3.719 0.845 1.003 4.101 0.225 4.786-0.464-1.644-0.027-3.484 1.057-3.689-0.747-0.215-1.878 1.821-0.496 3.11-1.395-1.136-0.208-2.163 0.368-3.262 0.28 0.062-0.113 0.153-0.187 0.203-0.319-0.32-0.139-0.476-0.399-0.958-0.388-0.091-0.116-0.12-0.345-0.198-0.461 0.102-0.137 0.246-0.135 0.358-0.224"/>
   <path id="path1059" fill="#dcc06d" d="m253.41 182.02c-1.646 1.349-3.365 3.172-5.558 3.771 1.659-0.988 2.954-2.442 2.055-4.263 0.512 0.576 0.846 1.4 0.424 2.064 2.101 0.215 4.311-3.579 3.27-4.816 0.288 1.186 0.911 2.951-0.578 3.601"/>
  </g>
  <g id="g1061" opacity="0.24" transform="matrix(2.6026 -.033136 .02971 2.9027 -1198.2 116.58)">
   <g id="g1063">
    <g id="g1065">
     <path id="path1067" d="m194.72 160.45c1.19-0.378 2.04-0.979 2.279-1.929 1.189-4.733-12.893-3.431-15.258-3.069-5.947 0.911-11.753 2.6-17.296 4.772-3.986 1.563-10.928 4.672-9.313 9.726 1.576 4.927 11.25 6.079 15.691 7.191 2.419 0.605 4.97 1.705 7.483 1.854 1.375 0.082 3.842 0.616 4.668-0.514 0.546-0.747 0.911-1.592 1.522-2.299 0.412-0.474 1.42-0.976 1.48-1.634 0.141-1.577-2.255-1.564-3.367-1.716-3.717-0.507-7.423-1.673-10.972-2.48-1.354-0.308-7.0766-0.51371-7.5956-1.9107-0.745-1.997 4.4096-2.9143 5.8836-3.5273 3.908-1.628 8.085-2.484 12.173-3.613 2.229-0.616 9 0.3 12.622-0.851z" stroke="#967348" stroke-width=".33490" fill="#f9e3b7"/>
     <path id="path1069" fill="#ccb25c" d="m172.58 162.96c-1.265 0.351-2.524 0.801-3.792 1.415-3.042 1.475-5.382 4.021-1.026 5.669-2.215-0.838-5.115-0.956-6.711-2.805-4.276-4.948 8.466-8.024 11.617-8.874 1.491-0.403 9.123-1.207 9.273-2.259-3.775 1.159-7.937 2.429-10.604 5.298 1.333 0.468 2.539 0.556 3.864 0.223 2.725-0.682 5.716-1.126 8.468-1.917 1.063-0.305 6.946-2.082 6.25-3.231 1.052-0.006 2.262-0.18 3.251-0.375-0.184 1.696-1.347 3.294-1.761 4.968-1.736-1.371-6.977-0.212-9.047 0.154-3.461 0.614-6.639 0.864-9.782 1.734z"/>
    </g>
    <path id="path1071" fill="#dcc06d" d="m171.9 161.99c2.415 0.808 6.844-0.844 9.302-1.302 1.153-0.214 5.549-0.576 5.92-1.604 1.454-0.61 3.407-0.87 3.996-2.447-2.072-1.292-4.392-0.601-6.781-0.731 0.402 0.023 0.645 0.234 0.96 0.353-0.695 1.343-3.81 2.066-5.283 1.805-2.27-0.401-0.291-0.798 0.735-1.411-2.2 0.718-4.551 0.906-6.679 1.802-1.87 0.791-2.793 2.559-4.671 3.394 0.532 0.591 2.722 0.635 3.663 0.498"/>
    <path id="path1073" fill="#dcc06d" d="m176.74 177.55c1.004 0.548 3.594 1.102 4.241-0.143-0.112-0.065-0.296-0.139-0.354-0.175 0.68-0.134 1.299-0.412 2.039-0.407-0.075 0.026-0.106 0.076-0.094 0.152 0.394-0.033 1.075-0.283 1.335-0.674 0.579-0.872 0.28-0.467-0.39-0.903-0.625-0.405-2.098-0.261-2.856-0.545 1.298 0.415 2.81 0.146 4.162 0.219-1.361 1.729-2.326 4.085-5.029 3.917-1.313-0.083-2.124-0.822-3.248-1.311-0.906-0.395-1.832-0.456-2.642-0.858 1.254 0.198 2.653 0.664 3.803 1.086"/>
    <path id="path1075" fill="#dcc06d" d="m156.22 167.36c-0.352 0.837-0.39 3.092 1.142 2.579-0.659 0.841 0.095 2.026 0.77 2.721-1.044-1.363-3.09-3.801-1.912-5.479"/>
    <path id="path1077" fill="#dcc06d" d="m160.09 167.53c-1.527-1.092-1.618-3.396 0.126-4.408-0.29 0.391-0.46 0.816-0.528 1.298 0.03-0.067 0.085-0.096 0.164-0.087-0.722 2.429 2.617 4.418 4.718 5.083-1.652-0.826-4.474-0.883-5.254-2.779"/>
   </g>
   <path id="path1079" d="m164.54 168.78c-2.102-0.482-4.548-1.906-3.915-4.112 0.684-2.382 3.88-2.881 5.85-4.113" stroke="#967348" stroke-width=".19150" fill="none"/>
  </g>
  <g id="g1081" opacity="0.24" transform="matrix(2.6278 -.033136 .029998 2.9027 -1209.1 116.58)">
   <g id="g1083">
    <path id="path1085" d="m235.15 173.35c-2.284 0.427-4.577 0.759-6.846 1.209-1.707 0.338-4.42-0.207-5.826 0.878-3.551 2.744 3.65 3.848 2.488 6.186 1.07 0.138 1.494-0.354 2.352-0.458 1.455-0.177 2.741 0.02 4.157-0.327 5.417-1.33 12.065-0.976 16.517-4.687 2.933-2.445 4.571-7.067 2.407-10.283-3.149-4.688-10.213-6.81-15.767-7.858-5.488-1.037-11.373-2.042-17-2.096-1.597-0.016-2.572-0.323-2.384 1.188 0.158 1.271 1.188 2.994 1.817 4.153 0.793 1.455 2.265 1.885 3.897 2.186 3.199 0.585 6.454-0.012 9.67 0.041 3.427 0.056 10.746 0.596 12.175 4.158 1.255 3.125-2.994 4.463-5.498 5.2-0.709 0.208-1.428 0.373-2.159 0.51z" stroke="#967348" stroke-width=".33490" fill="#f9e3b7"/>
    <path id="path1087" fill="#ccb25c" d="m246.91 167.56c0.457-2.455-1.636-5.067-3.774-6.314-2.586-1.508-5.935-1.474-8.856-1.936-1.604-0.255-3.037-0.446-4.684-0.537-1.117-0.063-3.107 0.059-4.055-0.461 1.655 0.306 3.875 2.133 1.195 2.606-1.907 0.336-4.176-0.155-5.049-1.792-0.367-0.685 0.16-0.958-0.621-1.573-0.644-0.506-0.906-0.151-1.61-0.252-1.683-0.24-3.385-0.407-4.933-1.018-0.205 1.342-2.086 3.789-1.005 4.951 1.003 1.081 3.477 0.494 4.867 0.564 1.481 0.076 2.995 0.268 4.483 0.411 4.311 0.417 8.766-0.03 12.912 0.98 2.441 0.594 5.411 1.013 7.062 2.99 1.843 2.206 0.252 3.733-1.376 5.468 0.812 1.14 4.949-2.737 5.17-3.224 0.131-0.282 0.221-0.572 0.274-0.863z"/>
    <path id="path1089" fill="#dcc06d" d="m229.01 162.22c1.154-0.475 1.301-1.285 0.017-1.797 0.501-0.125 1.005-0.26 1.462-0.393-0.434-0.309-0.9-0.521-1.432-0.684 2.606-0.362 5.55 0.721 8.03 1.006-2.978-1.608-7.759-2.099-11.164-2.65-2.672-0.434-5.206-0.389-7.677-1.23 0.063 0.094 0.096 0.195 0.094 0.306-0.619 0.046-1.272 0.015-1.893 0.057 0.359 1.375 2.159 1.609 3.103 2.384 1.224 1.001 2.396 1.833 3.98 2.301 1.355 0.399 4.164 1.241 5.48 0.7z"/>
    <path id="path1091" fill="#dcc06d" d="m240.44 164.49c2.143 1.448 4.658 3.244 2.671 5.722-1.971 2.458-4.732 3.086-7.497 3.893 2.463 0.128 5.482-1.561 7.729-2.464 4.029-1.615 4.462-3.947 2.547-7.266 0.746 1.293 1.118 3.04 0.465 4.431-0.717 1.521-2.438 1.868-3.763 2.807 2.158-2.446 1.99-4.84-1.115-6.386 0.117 0.259 0.312 0.214 0.512 0.336"/>
    <path id="path1093" fill="#dcc06d" d="m225.53 177.9c0.567 0.049 1.12 0.127 1.675 0.168-3.357 1.576 2.81 1.906 4.26 1.065-0.159 0.078-0.33 0.178-0.493 0.242 0.851 1.38 3.855 0.313 5.195 0.177 2.037-0.206 6.759-0.331 8.254-1.679-5.21 1.421-10.428 2.661-15.749 2.351-2.277-0.131-5.481-1.236-6.213-3.545 0.67-0.047 1.363-0.027 2.046-0.035-0.666-0.006-1.128 0.278-1.073 0.867 1.041 0.481 2.113 0.389 3.261 0.389"/>
   </g>
   <path id="path1095" d="m241.02 160.74c2.578 0.819 5.302 3.243 5.876 5.745 0.481 2.104-1.402 3.229-3.167 4.268" stroke="#967348" stroke-width=".19150" fill="none"/>
  </g>
  <g id="g1097" opacity="0.24" transform="matrix(2.4517 -.033136 .027988 2.9027 -1168.2 116.58)" stroke="#967348" stroke-width=".33490" fill="#e1e2e3">
   <path id="path1099" d="m193.8 182.14c1.934-0.521 1.829-3.034 2.065-4.592 0.299-1.992-2.435-3.047-4.176-3.218-1.026-0.101-2.012-0.42-3.035-0.535-0.42-0.047-2.113-0.437-2.404-0.354-1.405 0.404-0.959 1.923-1.761 2.864-0.756 0.889-2.218 1.223-2.449 2.444 2.195 0.943 5.076 0.784 7.127 2.106 1.398 0.901 2.766 1.786 4.633 1.285z"/>
   <path id="path1101" d="m216.43 175.86c-1.184 0.191-2.267 0.497-2.886 0.876-1.881 1.153-2.579 5.156-0.452 6.468 1.597 0.984 2.976-0.341 4.354-0.804 1.985-0.667 4.295-0.031 6.34-0.563 2.321-0.604 0.041-2.357-0.836-3.107-0.392-0.333-1.087-0.697-1.253-1.194-0.132-0.391 0.336-0.904 0.2-1.261-0.296-0.769-0.217-0.921-1.35-1.033-1.421-0.139-2.739 0.396-4.117 0.618z"/>
   <path id="path1103" d="m238.08 252.43c-0.135-1.169-2.075-2.385-2.653-3.451-1.047-1.929-0.098-2.354 1.535-3.286-0.889-0.618-2.224-0.798-3.266-1.206-1.998-0.781-3.943-1.84-5.459-3.287-0.747-0.71-2.287-2.558-1.172-3.509 1.013 0.402 8.333 4.505 8.27 1.722-0.021-0.927-3.318-4.7-0.668-4.71-0.49 0.002-1.922-0.898-2.423-1.109-0.633-0.267-0.985-0.488-1.528-0.858-1.032-0.703-2.087-1.389-3.098-2.12-0.99-0.716-2.882-1.929-2.852-3.254 0.039-1.832 3.16-1.401 4.46-1.952 1.69-0.715 0.056-1.752-0.621-2.764-0.553-0.832-0.146-1.272-0.134-2.145 0.021-1.791-1.255-1.526-2.689-1.622-1.575-0.105-3.135-0.479-4.718-0.698-2.342-0.324-4.219-1.243-6.382-1.961-1.792-0.595-6.296-1.096-4.918 2.003 0.495 1.114 1.907 1.597 2.762 2.442 1.353 1.337 2.794 2.807 4.018 4.236 1.267 1.48 0.484 2.842 0.602 4.424 0.043 0.553 1.454 3.195 0.638 3.496-1.374 0.5-4.034-3.276-4.699-4.104-1.491-1.855-3.651-4.8-6.558-3.417-2.603 1.236 0.335 4.012 1.422 5.133 0.616 0.635 0.533 0.823 0.921 1.475 0.926 1.555 2.418 2.95 3.489 4.505 1.367 1.99 2.647 4.224 3.688 6.352 0.527 1.078 0.811 2.413 1.54 3.361 1.45 0.336-0.179 1.038-0.251 1.28-0.269 0.902 0.092 1.78 0.393 2.69 0.666 2.019 1.945 3.75 3.394 5.356 1.548 1.72 2.749 3.598 4.397 5.238 1.913 1.9 4.592 3.797 5.475 6.297 1.03 2.92 2.511 5.708 4.341 8.271 1.711 2.396 3.929 3.981 5.88 6.066 3.167 3.385 6.324 7.042 10.054 9.947 0.882 0.686 2.259 1.89 3.462 1.751 0.032-1.092-1.061-2.309-1.325-3.366-0.131-0.521-0.276-1.027-0.151-1.574 0.08-0.339 0.915-1.049 0.894-1.331-0.112-1.692-5.41-3.504-4.048-5.664 0.165-0.261 5.177 1.647 6.371 0.69 1.401-1.123-0.422-1.903-0.996-3.068-0.604-1.228-0.468-2.4-0.591-3.655-5.882 0.867-10.641-2.843-14.629-6.369 0.949-1.003 9.513 1.19 5.452-1.822-1.048-0.778-2.273-1.729-2.944-2.823-0.223-0.365-0.687-0.931-0.549-1.392 0.029-0.102 0.658-0.922 0.712-0.743-0.326-1.093-1.83-0.811-2.837-1.035-3.041-0.679-4.345-2.468-6.695-4.013-2.308-1.518-4.432-3.233-5.351-5.799-0.425-1.188-0.691-2.191 0.962-1.686 1.521 0.47 7.64 4.615 9.073 3.058z"/>
   <path id="path1105" d="m147.48 285.14c-0.725 0.739 0.781 1.613-0.25 2.864-0.655 0.795-2.108 1.112-2.603 2.003-1.022 1.844 8.145-0.636 8.845-0.96 2.627-1.216 4.817-3.803 6.971-5.609 4.429-3.713 8.635-8.028 12.234-12.438 2.683-3.29 4.896-6.973 7.303-10.447 1.142-1.646 2.193-3.424 3.781-4.76 0.917-0.771 2.143-1.184 3.05-1.949 1.021-0.862 2.281-7.671-0.081-7.351-0.167-1.191 1.326-3.077 2.007-4.002 2.346-3.193 4.766-6.484 7.846-9.115 0.861-0.737 1.577-1.52 2.36-2.265 1.288-1.23 2.33-1.84 2.48-3.683 0.091-1.105-0.125-2.428-1.646-2.366-1.506 0.062-2.963 1.816-4.25 2.533-0.98 0.547-5.919 3.718-6.805 2.164-1.413-2.478 4.555-5.989 6.12-6.817 1.182-0.626 2.306-1.182 3.337-2.012 1.249-1.005 2.372-3.135 1.82-4.674-1.138-3.183-4.143-0.438-5.773 0.588-1.43 0.899-3.256 1.374-4.864 1.874-1.725 0.535-3.541 0.878-5.299 1.106-1.04 0.134-2.813-0.051-3.666 0.606-1.087 0.837 0.153 2.26-0.381 3.507-0.351 0.823-2.719 1.667-2.461 2.598 0.292 1.051 3.715-0.191 4.386-0.307 2.363-0.41 1.979 1.302 0.9 2.366-0.114 0.113-0.237 0.219-0.364 0.313-1.727 1.286-3.824 2.036-5.821 2.881-0.531 0.226-1.919 0.669-2.256 1.073-0.384 0.46-0.147 1.427-0.266 1.983-0.13 0.604-0.406 1.165-0.693 1.719-0.248 0.48-1.67 1.981-0.641 2.338 0.627 0.216 1.524-0.261 2.146-0.468 1.269-0.425 7.737-3.651 6.58 0.018-0.7 2.216-3.371 3.863-5.167 5.288-1.736 1.379-4.336 1.59-6.494 1.975-2.59 0.463-0.815 1.716-0.575 3.346 0.128 0.869-1.736 2.347-1.226 2.957 0.334 0.398 2.17-0.086 2.639-0.1 0.881-0.027 3.1-0.292 3.799 0.336 0.031 0.027 0.058 0.056 0.082 0.084 0.498 0.607-0.329 1.629-0.749 2.292-1.138 1.791-3.205 3.328-5.276 4.11-2.094 0.792-5.137 1.107-5.622 3.599-0.07 0.359-0.502 3.154-0.121 3.316 1.367 0.583 6.27-1.054 6.57 0.203 0.47 1.962-4.9 4.017-6.333 4.668-2.428 1.104-7.116 1.354-7.615 4.104-0.232 1.282-0.804 2.662-1.586 3.752-0.385 0.538-2.289 1.766-2.246 2.369 0.113 1.573 3.95-0.894 4.392 0.099 0.36 0.813-3.028 2.353-3.463 2.582-1.602 0.849-3.754 0.38-5.055 1.709z"/>
   <path id="path1107" d="m195.53 196.94c1.806-1.719 0.641-5.144-1.528-6.132-1.157-0.527-2.405-0.235-3.649-0.303-1.6-0.087-3.143-0.543-4.714-0.802-1.348-0.222-3.304 2.49-3.474 3.576-0.151 0.962 0.631 2.085 0.803 3.013 2.352-0.143 4.75 0.014 7.082 0.305 1.523 0.19 3.596 1.526 5.057 0.662 0.157-0.093 0.298-0.199 0.423-0.319z"/>
   <path id="path1109" d="m217.11 198.13c1.677 0.043 3.402 0.306 4.934-0.201 2.452-0.815 2.047-5.339-0.572-5.535-2.316-0.173-6.132-1.218-8.294-0.296-2.099 0.894-3.594 3.545-2.201 5.495 1.12 1.566 2.512 0.949 4.18 0.652 0.635-0.114 1.29-0.132 1.953-0.115z"/>
   <path id="path1111" d="m184.44 208.74c-0.327 0.834-0.925 1.611-1.278 2.553 1.302 0.899 4.155 0.286 5.714 0.225 2.854-0.111 11.441-0.645 8.722-5.25-0.743-1.259-2.568-1.772-4.013-1.41-3.194 0.802-5.587-0.278-8.711-0.483-2.363-0.155-0.747 1.255-0.374 2.313 0.275 0.778 0.182 1.431-0.06 2.052z"/>
   <path id="path1113" d="m220.4 204.7c-1.101 0.012-2.2-0.022-3.396-0.141-2.728-0.267-5.027 0.22-5.709 2.989-0.363 1.474 0.333 3.417 2.313 3.448 1.446 0.022 2.662-0.803 4.141-0.713 1.583 0.096 3.067 0.537 4.679 0.157 2.34-0.554 2.797-3.398 1.446-4.939-0.991-1.129-2.064-0.817-3.474-0.801z"/>
  </g>
  <g id="g1609" opacity="0.24" transform="matrix(2.5826 -.033136 .029482 2.9027 -1196.4 118.06)">
   <path id="path1611" d="m216 167c-0.007 0.016-0.015 0.03-0.021 0.044-1.103 2.168-1.307 3.711 1.297 2.855 2.506-0.826 4.871-1.754 7.473-2.234 1.08-0.2 4.93-0.042 5.279-1.204-0.852-2.092-1.245-5.704-4.52-5.271-0.787 0.104-1.329 0.96-2.082 1.273-1.024 0.423-1.569 0.31-2.547 0.108-0.816-0.169-2.247 0.687-2.949 1.184-0.996 0.702-1.408 2.197-1.93 3.245z" stroke="#967348" stroke-width=".2358" fill="#e1e2e3"/>
   <path id="path1613" d="m191.23 166.88c0.16 1.17 0.424 2.385 0.229 3.455-1.268-0.433-2.015-1.404-3.411-1.774-1.367-0.361-2.682-0.519-4.064-0.671-2.941-0.324-7.951-0.072-6.039-4.54 1.205-2.814 5.114-1.579 7.456-1.399 1.283 0.098 2.658 0.171 3.938 0.393 2.063 0.356 1.791 1.229 1.784 3.223 0 0.423 0.045 0.865 0.107 1.313z" stroke="#967348" stroke-width=".2358" fill="#e1e2e3"/>
   <path id="path1615" d="m212.16 150.15c0.442-0.953-1.198-0.876-1.433-1.368-0.228-0.477 0.747-2.088 0.922-2.59 0.992-0.069 1.755-0.447 2.248 0.49 0.379 0.725 1.107 1.663 1.192 2.475 0.176 1.738-2.487 0.042-2.929 0.993z" stroke="#967348" stroke-width=".2358" fill="#e1e2e3"/>
   <g id="g1617">
    <path id="path1619" d="m219.98 143.32c-0.94958 0.95095-3.4393 1.6825-4.9508 1.5132-0.82008-0.0908-1.6919-0.56871-2.5431-0.27556-0.30515 0.10533-0.98992 0.66685-1.0175 0.9788-0.0493 0.51991 0.49178 0.32208 0.73789 0.79363 0.41887 0.79394-0.77565 1.7094 0.19344 2.4855 0.95668 0.7641 2.7146 0.13493 3.6494-0.34004 1.1015-0.56061 1.9542-1.1948 3.2982-1.2758 1.1004-0.0646 2.0818 0.23455 3.1763 0.29894 2.7852 0.16209 5.7748 1.8637 7.6066 3.4237 0.79322 0.67475 0.74183 1.3356 1.1397 2.1405 0.55578 1.1222 0.99452 1.9532 1.1784 3.1836 0.2858 1.8877-0.9942 5.033-4.0261 5.0813-0.0744 0.84186 0.11827 1.6713 0.13535 2.5014 0.83597 0.0208 1.1073-0.25959 1.093 0.42039-0.01 0.44399-0.78301 0.81831-0.71783 1.1435 0.0965 0.47023 2.5974 1.6187 3.18 1.668 0.84476 0.0688 1.2901-0.33219 2.0221-0.7826 1.7221-1.0613 3.562-2.0393 5.2049-3.1167 1.1085-0.7276 0.80195-1.5863 0.87704-2.6272 0.1286-1.8338 1.6654-3.7545 1.2276-5.6145-0.36021-1.5108-2.5935-2.9007-4.0194-3.8889-2.0801-1.4406-4.1354-2.8791-6.1698-4.3656-0.70499-0.51655-1.248-1.0478-1.758-1.7059-0.38219-0.49185-0.60993-1.4884-1.2662-1.8018-0.70452-0.33855-1.9813-0.10933-2.8026-0.22013-1.211-0.16365-0.86251-0.23489-1.4926-0.95128-0.65244-0.74245-2.7009-1.0239-3.4736-0.0326-0.32654 0.4233-0.0383 0.91694-0.48228 1.366z" stroke="#967348" stroke-width=".35785" fill="#f9e3b7"/>
    <path id="path1621" d="m186.98 143.32c0.91973 0.95672 3.3313 1.6982 4.7897 1.534 0.79315-0.0885 1.632-0.56298 2.4547-0.26544 0.29892 0.10655 0.9621 0.6718 0.99027 0.98286 0.0489 0.5191-0.47243 0.31913-0.70914 0.7897-0.40208 0.79227 0.75652 1.7124-0.17609 2.4837-0.91949 0.7613-2.6223 0.12411-3.5266-0.35357-1.0682-0.56401-1.894-1.2026-3.1953-1.288-1.0623-0.07-2.0079 0.22727-3.0664 0.2863-2.6891 0.15-5.5708 1.8407-7.3344 3.3934-0.76317 0.67059-0.71033 1.3327-1.0909 2.135-0.53278 1.121-0.9515 1.9493-1.1244 3.179-0.26583 1.8875 0.98854 5.037 3.9147 5.0974 0.0772 0.84116-0.10501 1.6698-0.11869 2.4998-0.80764 0.0175-1.0711-0.264-1.0529 0.41605 0.0118 0.44402 0.76052 0.82242 0.69792 1.1473-0.0922 0.46985-2.5043 1.6094-3.0634 1.6543-0.81709 0.0665-1.2481-0.33533-1.9576-0.78966-1.6703-1.0691-3.4539-2.0545-5.0454-3.1385-1.0734-0.73101-0.78253-1.5885-0.85893-2.6306-0.13311-1.8333-1.6297-3.7611-1.2121-5.6194 0.34075-1.5084 2.4895-2.8904 3.8649-3.8719 2.0029-1.4323 3.9818-2.8626 5.9392-4.342 0.68109-0.51275 1.2008-1.0428 1.6916-1.6979 0.36571-0.49132 0.58334-1.4859 1.2135-1.7968 0.68268-0.33474 1.9138-0.10144 2.7057-0.20897 1.1705-0.15883 0.83583-0.23245 1.4388-0.94434 0.628-0.74085 2.6048-1.0142 3.3561-0.0187 0.31636 0.42259 0.0415 0.91709 0.47498 1.3669z" stroke="#967348" stroke-width=".35175" fill="#f9e3b7"/>
    <path id="path1623" fill="#dcc06d" d="m181.6 149.3c-3.069 2.302-5.27 4.995-4.633 9.104-3.174-2.829-0.38-7.542 2.223-9.6 0.697-0.553 1.621-0.604 2.324-1.068 1.175-0.774 0.3-1.012 1.011-1.971-0.461-0.194-0.901-0.397-1.35-0.621 1.688-0.663 3.644-0.863 5.475-0.487 1.323 0.271 2.638 0.996 3.833 1.603 1.216 0.617 1.268 0.526 1.25 1.956-1.606-0.365-2.782-1.722-4.537-1.602-1.869 0.129-4.116 1.575-5.596 2.686z"/>
    <path id="path1625" fill="#dcc06d" d="m219.92 146.78c-0.667 0.042-4.485 2.622-4.454 1.075 0.018-0.791 2.51-1.833 3.168-1.916 0.994-0.122 2.335 0.311 2.745-1.099 0.563 0.483 1.51 0.455 1.646-0.211 0.742 0.326 1.508 0.254 2.252 0.506 1.533 0.521 2.988 1.608 4.168 2.695 1.092 1.003 2.429 2.179 3.037 3.571 1.22 2.796-1.427 8.264-3.741 10.034 3.363-3.683 1.476-9.772-2.209-12.498-1.733-1.278-4.508-2.289-6.612-2.157z"/>
    <path id="path1627" fill="#dcc06d" d="m171.28 158.77c0.372 0.726 0.856 1.374 1.19 2.119-0.756 0.068-0.768 0.736-0.689 1.407-0.588-0.86-0.491-2.687-0.501-3.704"/>
    <path id="path1629" fill="#dcc06d" d="m233.14 161.28c0.837-0.477 1.895-0.463 1.819 0.701 0.175-0.267 0.438-0.416 0.549-0.867 0.019 0.036 0.102 0.192 0.14 0.288 0.175-0.987 0.39-2.092 0.365-3.107-0.919 1.172-1.578 2.09-2.873 2.807"/>
   </g>
   <path id="path1631" d="m195.06 150.16c-0.443-0.954 1.199-0.876 1.433-1.368 0.227-0.477-0.748-2.089-0.922-2.589-0.991-0.069-1.755-0.448-2.247 0.488-0.38 0.725-1.108 1.664-1.192 2.477-0.178 1.736 2.486 0.04 2.928 0.992z" stroke="#967348" stroke-width=".2358" fill="#e1e2e3"/>
  </g>
  <g id="Manubrium" opacity="0.24" transform="matrix(2.5826 -.033136 .029482 2.9027 -1195 118.06)">
   <path id="path1635" d="m198.28 156.46c-0.878-0.534-1.495-0.886-2.503-0.336-1.831 0.997-2.875 3.3-4.267 4.8-2.2 2.373 0.162 4.869-1.685 7.455-1.48 2.072 1.408 4.104 2.761 5.792 0.932 1.165 1.412 3.727 3.318 3.517 1.073-0.117 1.875-0.897 3.022-1.032 1.326-0.156 2.667-0.065 3.996-0.144 3.121-0.186 9.11 2.885 10.73-1.109 0.572-1.408 1.395-2.658 2.283-3.937 1.09-1.568 0.65-2.295 0.752-4.123 0.064-1.135 0.151-3.473 1.402-3.958-0.499-2.655-3.055-6.365-5.366-7.792-1.494-0.919-2.434 0.104-3.763 0.679-1.452 0.627-3.206 1.26-4.795 1.436-2.032 0.224-3.815-0.012-5.546-1.041-0.118-0.072-0.23-0.141-0.339-0.207z" stroke="#967348" stroke-width=".32180" fill="#f7daa1"/>
   <path id="path1637" fill="#f9e3b7" d="m192.65 159.85c0.53 2.259 3.574-0.936 3.371-2.629-0.504 0.484-3.495 3.081-4.003 2.805"/>
   <path id="path1639" fill="#f9e3b7" d="m217.08 160.28c-0.437-0.158-1.077-0.762-1.521-1.007-0.474-0.261-0.876-0.41-1.303-0.789-0.842-0.747-1.512-1.754-2.101-2.707-0.676 1.397 0.749 3.07 1.668 3.979 0.484 0.479 1.218 1.138 1.928 1.229 0.079 0.01 1.521-0.166 1.222-0.422-0.11-0.095-0.241-0.293-0.38-0.382 0.146 0.023 0.33 0.041 0.487 0.099z"/>
   <path id="path1641" fill="#f9e3b7" d="m205.25 175.76c0.779 0.245 1.988 0.414 2.649-0.123 0.962 2.395 6.75-2.63 4.929-4.566 0.721-1.321 1.787-2.596 2.225-4.044-0.058 1.704-0.348 3.799-0.708 5.482-1.606 0.521-1.544 2.966-3.059 3.57-0.979 0.392-3.364-0.31-4.605-0.32"/>
  </g>
  <g id="ClavicleRight" opacity="0.24" transform="matrix(2.5687 -.24425 .29938 2.6169 -1231.1 208.91)">
   <path id="path1645" d="m191.56 151.23c-4.785-3.439-11.39-4.418-17.149-5.164-4.262-0.551-8.437-0.904-12.705-1.377-1.953-0.218-3.856-0.764-5.818-0.916-2.649-0.205-5.323-0.01-7.976-0.111-1.48-0.056-2.98-0.399-4.447-0.401-1.489-0.002-2.939 0.39-4.451 0.292-2.269-0.146-4.004 0.11-6.191-0.684-1.886-0.686-3.535-1.234-5.349 0.018-1.352 0.932-2.799 2.692-2.506 4.443 0.233 1.393 1.5 2.274 2.002 3.544 0.949 0.189 2.182-0.098 3.175-0.146 1.635-0.083 3.286 0.104 4.915-0.113 1.487-0.196 2.528-0.721 4.056-0.598 1.147 0.093 2.271 0.175 3.429 0.17 2.174-0.01 4.296 0.329 6.432 0.759 6.814 1.375 13.819 1.487 20.722 1.193 5.673-0.241 11.112 0.249 15.706 3.923 2.934 2.348 4.196 6.235 8.384 3.453 4.186-2.782 0.78-6.123-2.229-8.285z" stroke="#967348" stroke-width=".32180" fill="#f3d48c"/>
   <path id="path1647" fill="#dcc06d" d="m127.65 147.87c1.498 0.01 2.94 0.16 4.439 0.179 1.087 0.013 1.113 0.321 1.805 0.586 2.198 0.836 6.154 1.091 8.364 0.085-0.254-0.047-0.536-0.162-0.83-0.174 1.101-0.326 3.164-0.62 4.414-0.133-1.048 0.613 1.239 1.246 1.825 1.379 2.375 0.541 5.095 0.804 7.536 0.948 1.578 0.093 3.214 0.008 4.792-0.01 1.382-0.015 2.762-0.253 4.141-0.186 0.869 0.042 1.607 0.386 2.442-0.005-0.203 0.101-0.358 0.265-0.471 0.34 6.671 0.625 15.735-2.406 20.528 3.754-0.399-0.125-0.818-0.196-1.161-0.522 1.27 1.505 2.249 2.571 3.967 3.611-2.401-1.5-4.671-3.64-7.253-4.81-2.214-1.003-4.568-1.126-6.978-1.292-5.793-0.396-11.686 0.523-17.393-0.183-4.393-0.544-9.018-1.86-13.41-2.142-3.629-0.231-7.595-0.089-11.177 0.323-1.917 0.22-5.133 1.207-6.617-0.506-0.876-1.014-0.954-2.569-0.216-3.592 0.146 1.065 1.542 1.716 1.609 2.349"/>
  </g>
  <g id="ClavicleLeft" opacity="0.24" transform="matrix(2.5736 .20523 -.25283 2.7143 -1154.7 102.54)">
   <path id="path1651" d="m220.69 159.82c0.774-0.387 1.533-0.836 2.268-1.219 3.097-1.617 7.017-2.421 10.436-3.09 1.993-0.39 3.898-1.153 5.914-1.287 2.396-0.161 4.79 0.292 7.188 0.167 2.621-0.139 5.26-0.264 7.825-0.795 4.019-0.832 7.911-2.226 11.972-2.858 4.225-0.657 6.996 0.321 11.104 0.755 2.446 0.258 4.437-2.01 5.626-3.913 2.183-3.481-2.817-2.971-5.417-3.4-9.396-1.555-18.419-0.059-27.62 2.104-1.294 0.305-2.731 0.809-4.007 1.014-3.021 0.485-6.173 0.567-9.233 0.921-2.718 0.313-5.251 0.687-7.904 1.264-1.341 0.291-4.938 1.79-5.887 0.696-3.197 2.068-11.442 0.96-11.142 6.724 0.051 0.973 2.455 2.417 3.447 3.093 1.834 1.254 3.675 0.699 5.43-0.176z" stroke="#967348" stroke-width=".32180" fill="#f3d48c"/>
   <path id="path1653" fill="#dcc06d" d="m215.62 157.88c0.674 1.586 3.084 0.985 4.278 0.676-0.072-0.053-0.2-0.105-0.324-0.179 0.463-0.602 1.873-0.778 2.603-0.828-0.064 0.089-0.098 0.19-0.1 0.299 2.115 0.144 4.921-1.585 7.004-2.119 1.751-0.448 7.002-0.288 7.996-1.525-5.851-1.186-11.788 2.372-17.52 2.78-1.932 0.138-3.404 1.562-5.117 0.157 0.316 0.508 0.786 0.898 1.359 1.094"/>
   <path id="path1655" fill="#dcc06d" d="m245.3 153.05c2.254-0.439 4.684-0.506 6.855-1.282 1.07-0.383 3.888-1.165 4.453-1.909 0.842 0.46 3.243-0.345 4.345-0.524 2.634-0.43 5.314-0.726 7.972-0.894 2.354-0.148 4.748 0.656 7.058 0.483-0.083 0.028-0.117 0.091-0.104 0.188 0.88 0.417 2.26 0.797 3.181 0.183 0.515-0.342 1.271-0.676 0.18-1.084 0.111 0.016 1.155 0.313 1.617 0.4-0.969 1.893-3.076 1.769-4.995 1.453-3.652-0.598-7.38-1.352-11.076-0.769-3.146 0.498-6.159 1.823-9.151 2.85-1.752 0.602-3.658 0.994-5.508 1.093-1.838 0.099-4.38-0.549-6.077 0.17"/>
  </g>
  <path id="Sternum" opacity="0.24" d="m-669.37 809.3c0.2664 2.5774 0.8659 4.8979 2.8372 6.2167 6.8891 4.6261 9.3014-5.2983 10.157-11.06 0.9159-6.1981 4.6298-19.205 2.0798-25.112-0.9602-2.2317-3.3446-2.265-3.8638-5.5794-0.3424-2.1758 0.1171-4.7421 1.3443-6.4881 1.5965-2.2674 3.2039-1.1675 5.3512-1.3344 2.8621-0.2225 2.5717-1.1042 2.3951-3.7379-0.129-2.0159-0.3146-4.5218-0.01-6.4998 0.3025-2.0041 1.6438-3.4554 2.364-5.2761 0.9444-2.3868-0.8275-3.4005-1.58-5.2691-0.7843-1.9466-0.7429-4.7399 0.5472-6.3908 1.2188-1.5659 3.6157-0.80119 4.2021-2.3212 0.2843-0.74393-0.208-3.1878-0.066-4.2231 0.2222-1.5153 0.5621-2.8957 0.9035-4.3748 0.1906-0.81532 0.9478-2.5552 0.8982-3.3704-0.101-1.5518-1.2599-1.9782-2.0528-2.987-0.8479-1.0865-1.3854-2.3831-1.6945-3.8248-0.7433-3.5118-0.3616-7.6362 2.1736-10.038 0.4196-0.40021 1.5279-0.88474 1.781-1.3873 0.7113-1.4316-0.7322-3.6891-0.9347-5.3122-0.493-4.0376 2.2297-10.871-0.549-13.875-2.4549-2.6509-3.7424-8.8788-2.4772-12.477 0.9138-2.5984 1.3566-3.5098 3.1747-5.5623 1.6191-1.8264 0.4623-7.13 0.3603-9.5411-0.1223-2.887-1.0253-5.5839-0.3523-8.4927 0.2053-0.89966 4.2078-7.8602 4.5044-7.1412-1.9355-4.6607-4.7526-5.3416-4.6653-11.242 0.049-3.2752 2.3313-6.4601 0.7328-9.7433-3.1575-6.4739-16.92-7.3134-22.275-7.1576-8.0872 0.23731-15.236 2.3438-21.33 7.5661-0.7477 0.64535-0.3875 8.1364-0.5784 9.6832-0.415 3.3874-0.5475 6.8698-3.9517 8.1502-0.6157 2.4494 0.9832 2.7046 1.6967 4.5534 1.5095 3.9142 2.3719 7.9616 2.7508 12.201 0.242 2.7257-1.029 6.7744-0.2347 9.1911 0.8795 2.6741 2.8793 3.2493 2.894 6.7299 0.014 3.1931-1.55 7.3471-3.1561 9.934-0.7625 1.2232-1.4094 0.59289-1.093 2.5048 0.1622 0.96171 0.8796 1.9134 1.2988 2.7528 1.2261 2.4664 1.6312 4.4643 1.6369 7.3121 0 1.7505-0.1011 3.2643-0.5801 4.9339-0.2345 0.81876-1.3177 2.7603-0.9604 3.6005 0.7544 1.7989 3.4243 1.4714 4.4974 3.1066 1.5085 2.2973 0.9173 6.404 0.468 8.9557-0.4568 2.578-2.8118 5.4357-2.8695 7.8895-0.02 0.816 0.799 1.6154 1.0882 2.3694 0.9023 2.3747 1.3267 5.2462 0.8877 7.7978-0.4706 2.7494-0.3515 2.5214 1.6038 4.3107 0.936 0.85601 1.6943 2.2775 2.1797 3.534 0.9949 2.5913 1.5654 5.8615 0.8961 8.6222-0.31 1.2698-1.4578 2.4427-1.5385 3.6544-0.089 1.3626 0.8351 3.3858 1.0484 4.8027 0.3626 2.3932 0.9652 4.7544 1.7012 7.0296 2.4791-1.0595 3.3247-2.2344 4.8923 0.53818 1.0521 1.8648 0.8177 5.2353 0.1976 7.2522-0.6924 2.2645-3.0038 3.8212-3.554 5.8575-0.3634 1.343 0.1978 3.2024 0.4953 4.5137 1.8279 8.0557 3.4587 16.036 4.3273 24.255z" stroke="#967348" stroke-width=".88113" fill="#f9e3b7"/>
  <g id="g3868" transform="matrix(1 0 0 .90476 -1096.4 503.48)">
   <path id="path1115" opacity="0.24" d="m408.98 74.819c2.2519 11.763 16.288 15.735 26.048 15.414 7.0595-0.22847 20.702-3.0402 21.177-13.186 0.1536-3.2429-0.1521-12.342-0.6616-15.498-1.5363-9.5046-9.3171-9.9013-15.414-9.6993-8.5442 0.28481-18.238-4.5639-26.583-1.0926-6.4635 2.6907-4.6586 13.318-4.8678 20.059-0.044 1.4253 0.064 2.7585 0.3002 4.0033z" stroke="#967348" stroke-width=".92088" fill="#f4e9d7"/>
   <path id="path1607" opacity="0.24" fill="#dcc06d" d="m452.3 60.687c-0.3841 0.0824-0.4699 0.30505-0.7831 0.50844 2.6004-0.0593 1.2023 10.263 0.6728 12.225-0.3383-1.6797-0.4422-3.4302-0.3605-5.2154-0.3655 0.41589-1.0569 0.78186-1.338 1.1163-0.036-0.25619-0.072-0.51236-0.1078-0.76853-1.8791 0.4117-3.2835 2.1771-5.116 2.601-2.4176 0.56367-7.1366 0.28407-9.3707-0.83295 0.03-0.34054 0.2552-0.33089 0.3012-0.67166-5.2631-0.46442-11.287 0.90126-15.828-3.3339 1.9461 1.8142 7.2192 1.1169 9.4985 0.96905 7.8731-0.51912 17.019 3.1566 22.431-6.5974z"/>
   <g id="g1117" opacity="0.14" transform="matrix(2.5826 -.033095 .029482 2.8991 172.13 -432.16)">
    <path id="path1119" d="m100.24 168.46c-1.653-0.067-11.576-1.645-8.276 2.493 0.697 0.875 1.953 1.218 2.991 1.447 2.369 0.524 4.875 0.361 7.277 0.234 1.536-0.083 4.332-0.833 3.914-2.874-0.428-2.08-4.247-1.233-5.906-1.3z" stroke="#967348" stroke-width=".2358" fill="#e1e2e3"/>
    <path id="path1121" d="m107.97 163.51c0.058-0.328 0.104-0.663 0.134-1.008 0.177-1.931-0.563-2.281-2.316-3.003-2.289-0.942-4.73-0.973-7.161-0.691-1.467 0.169-2.848 0.872-4.327 0.937-1.134 0.049-2.104-0.426-3.132 0.216-2.983 1.862 0.002 5.797-1.422 8.146 0.101-0.142 2.716 1.929 2.955 2.079 1.561 0.982 3.259 1.101 5.07 1.284 2.387 0.242 4.626-0.268 6.964-0.642 2.107-0.336 2.576-1.229 2.64-3.519 0.04-1.369 0.379-2.54 0.595-3.799z" stroke="#967348" stroke-width=".31990" fill="#f4e9d7"/>
    <path id="path1123" fill="#dcc06d" d="m91.879 168.28c0.592 0.591 1.349 1.44 2.132 1.586-0.358-0.449-0.63-1.097-0.514-1.711-0.583 1.646-1.283-0.518-1.26-1.251-0.121 0.604-0.044 1.72-0.537 1.555"/>
    <path id="path1125" fill="#dcc06d" d="m101.18 170.43c0.755 0.081 4.563-0.254 3.916-1.537 0.143 0.247 0.454 0.385 0.604 0.615 0.155-0.082 0.765-0.522 0.816-0.589 0.045-0.664 0.047-1.379-0.008-2.047-0.228 0.138-0.44 0.059-0.648 0.133-0.047-0.423-0.28-0.709-0.2-1.16-0.461 0.852-0.026 2.025-0.224 2.961-0.704-0.399-0.427-1.367-0.689-2.077-0.16 0.971 0.085 2.148-0.695 2.82-0.382 0.326-1.952 0.596-2.487 0.496-0.023-0.253-0.177-0.432-0.209-0.625-0.038 0.339-0.243 0.501-0.343 0.765-0.668-0.116-2.805 0.123-3.394 0.393 1.294-0.388 2.914-0.148 4.277-0.148"/>
   </g>
  </g>
 </g>
 <path id="path4394" d="m427.13 180.44h72.191l70.185 106.28" stroke="#000" stroke-width="3.0079" fill="none"/>
 <path id="path4396" d="m457.21 378.97h48.127l20.053-42.111" stroke="#000" stroke-width="3.0079" fill="none"/>
 <path id="path4398" d="m266.7 681.77h238.63" stroke="#000" stroke-width="3.0079" fill="none"/>
 <path id="path4400" d="m236.62 932.43h56.148l72.19-44.116" stroke="#000" stroke-width="3.0079" fill="none"/>
 <path id="path4402" d="m966.55 792.06h-252.67l-46.923-39.388" stroke="#000" stroke-width="3.0079" fill="none"/>
 <path id="path4404" d="m942.49 595.54h-92.243" stroke="#000" stroke-width="3.0079" fill="none"/>
 <path id="path4406" d="m816.15 172.42h-157.21" stroke="#000" stroke-width="3.0079" fill="none"/>
 <metadata>
  <rdf:RDF>
   <cc:Work>
    <dc:format>image/svg+xml</dc:format>
    <dc:type rdf:resource="http://purl.org/dc/dcmitype/StillImage"/>
    <cc:license rdf:resource="http://creativecommons.org/licenses/publicdomain/"/>
    <dc:publisher>
     <cc:Agent rdf:about="http://openclipart.org/">
      <dc:title>Openclipart</dc:title>
     </cc:Agent>
    </dc:publisher>
   </cc:Work>
   <cc:License rdf:about="http://creativecommons.org/licenses/publicdomain/">
    <cc:permits rdf:resource="http://creativecommons.org/ns#Reproduction"/>
    <cc:permits rdf:resource="http://creativecommons.org/ns#Distribution"/>
    <cc:permits rdf:resource="http://creativecommons.org/ns#DerivativeWorks"/>
   </cc:License>
  </rdf:RDF>
 </metadata>
</svg>
