<?xml version="1.0"?>
<svg xmlns:rdf="http://www.w3.org/1999/02/22-rdf-syntax-ns#" xmlns="http://www.w3.org/2000/svg" xmlns:cc="http://creativecommons.org/ns#" xmlns:dc="http://purl.org/dc/elements/1.1/" id="svg2" height="463" width="700" version="1.0">
 <g id="layer3">
  <path id="path2258" d="m108.86 349h474" stroke="#ccc" stroke-width="1px" fill="none"/>
  <path id="path3241" d="m108.86 316h474" fill-rule="evenodd" stroke="#999" stroke-width="1px" fill="#999"/>
  <path id="path3245" d="m108.36 282h474" stroke="#ccc" stroke-width="1px" fill="none"/>
  <path id="path3247" d="m109.36 249h474" stroke="#999" stroke-width="1px" fill="none"/>
  <path id="path3249" d="m109.36 216h474" stroke="#ccc" stroke-width="1px" fill="none"/>
  <path id="path3251" d="m109.36 183h474" stroke="#999" stroke-width="1px" fill="none"/>
  <path id="path3253" d="m109.36 149h474" stroke="#ccc" stroke-width="1px" fill="none"/>
  <path id="path3255" d="m109.36 116h474" stroke="#999" stroke-width="1px" fill="none"/>
  <path id="path3265" d="m487.86 381v-298" stroke="#999" stroke-width="1px" fill="none"/>
  <path id="path3267" d="m392.86 381v-298" stroke="#999" stroke-width="1px" fill="none"/>
  <path id="path3269" d="m298.86 381v-298" stroke="#999" stroke-width="1px" fill="none"/>
  <path id="path3271" d="m203.86 381.66v-298.63" stroke="#999" stroke-width="1.001px" fill="none"/>
  <path id="path3257" d="m109.36 83h474" stroke="#ccc" stroke-width="1px" fill="none"/>
  <path id="path3263" d="m582.86 381v-298.5" stroke="#999" stroke-width="1.0008px" fill="none"/>
  <path id="path3273" d="m563.86 381v-298" fill-rule="evenodd" stroke="#ccc" stroke-width="1px" fill="#ccc"/>
  <path id="path3275" d="m544.86 381v-298" fill-rule="evenodd" stroke="#ccc" stroke-width="1px" fill="#ccc"/>
  <path id="path3277" d="m525.86 381v-298" fill-rule="evenodd" stroke="#ccc" stroke-width="1px" fill="#ccc"/>
  <path id="path3279" d="m506.86 381v-298" fill-rule="evenodd" stroke="#ccc" stroke-width="1px" fill="#ccc"/>
  <path id="path3281" d="m468.86 381v-298" fill-rule="evenodd" stroke="#ccc" stroke-width="1px" fill="#ccc"/>
  <path id="path3283" d="m449.86 381v-298" fill-rule="evenodd" stroke="#ccc" stroke-width="1px" fill="#ccc"/>
  <path id="path3285" d="m430.86 381v-298" fill-rule="evenodd" stroke="#ccc" stroke-width="1px" fill="#ccc"/>
  <path id="path3287" d="m411.86 381v-298" fill-rule="evenodd" stroke="#ccc" stroke-width="1px" fill="#ccc"/>
  <path id="path3289" d="m373.86 381v-298" fill-rule="evenodd" stroke="#ccc" stroke-width="1px" fill="#ccc"/>
  <path id="path3291" d="m354.86 381v-298" fill-rule="evenodd" stroke="#ccc" stroke-width="1px" fill="#ccc"/>
  <path id="path3293" d="m336.86 381v-298" fill-rule="evenodd" stroke="#ccc" stroke-width="1px" fill="#ccc"/>
  <path id="path3295" d="m279.86 381v-298" fill-rule="evenodd" stroke="#ccc" stroke-width="1px" fill="#ccc"/>
  <path id="path3297" d="m317.86 381v-298" fill-rule="evenodd" stroke="#ccc" stroke-width="1px" fill="#ccc"/>
  <path id="path3299" d="m260.86 381v-298" fill-rule="evenodd" stroke="#ccc" stroke-width="1px" fill="#ccc"/>
  <path id="path3301" d="m241.86 381v-298" fill-rule="evenodd" stroke="#ccc" stroke-width="1px" fill="#ccc"/>
  <path id="path3303" d="m222.86 381v-298" fill-rule="evenodd" stroke="#ccc" stroke-width="1px" fill="#ccc"/>
  <path id="path3305" d="m184.86 381v-298" fill-rule="evenodd" stroke="#ccc" stroke-width="1px" fill="#ccc"/>
  <path id="path3307" d="m165.86 381v-298" fill-rule="evenodd" stroke="#ccc" stroke-width="1px" fill="#ccc"/>
  <path id="path3309" d="m146.86 381v-298" fill-rule="evenodd" stroke="#ccc" stroke-width="1px" fill="#ccc"/>
  <path id="path3311" d="m127.86 381v-298" fill-rule="evenodd" stroke="#ccc" stroke-width="1px" fill="#ccc"/>
 </g>
 <g id="layer4" fill="none">
  <path id="path3317" d="m116.43 381.21c33.08-27.62 54.99-110.75 86.43-110.71 34.65-1.03 70.42 111.68 160.29 110.19" stroke="#fc0" stroke-linecap="round" stroke-width="3"/>
  <path id="path3321" d="m108.42 381.96c26.56-2.09 39.63-156.6 67.27-156.98 14.09 0.28 22.91 34.76 40.95 75.46 19.33 43.58 34.9 77.94 77.68 80.23" stroke="#0ff" stroke-linecap="round" stroke-width="3"/>
  <path id="path3319" d="m111.07 382.29c87.51-7.42 136.06-50.13 206.27-50.63 68.27 0.26 162.86 40.6 264.4 45.63" stroke="#00f" stroke-linecap="round" stroke-width="3"/>
  <path id="path3314" d="m581.88 380.99s-344.6-0.31-363.13-0.49c-38.17-1.87-40.46-82.47-49.89-142.68-10.67-69.87-13.78-139.93-23.28-140.01-15.5 0.181-21.74 283.9-37.01 284.12" stroke="#609" stroke-linecap="round" stroke-width="3"/>
  <path id="path3338" d="m582.86 381.55v-299.05" stroke="#999" stroke-width="1.0008px"/>
 </g>
 <g id="layer5" stroke="#fff" stroke-width="2" fill="none">
  <path id="path3332" d="m105.86 383h19"/>
  <path id="path3334" d="m105.63 380.86l2.93 0.26"/>
 </g>
 <g id="layer2" stroke="#000" fill="none">
  <path id="path2237" d="m102.86 382h480v6" stroke-width="1px"/>
  <path id="path2239" d="m487.86 388v-6" stroke-width="1px"/>
  <path id="path2241" d="m392.86 388v-6" stroke-width="1px"/>
  <path id="path2243" d="m298.86 388v-6" stroke-width="1px"/>
  <path id="path2245" d="m203.86 388v-6" stroke-width="1px"/>
  <path id="path2247" d="m108.86 388.4v-305.9" stroke-width="1.0008px"/>
  <path id="path2249" d="m102.86 116h6" stroke-width="1px"/>
  <path id="path2251" d="m102.86 183h6" stroke-width="1px"/>
  <path id="path2253" d="m102.86 249h6" stroke-width="1px"/>
  <path id="path2255" d="m102.86 316h6" stroke-width="1px"/>
 </g>
 <g id="layer6">
  <text id="text3342" font-weight="bold" xml:space="preserve" font-size="20px" y="44.435299" x="18.82061" font-family="DejaVu Sans Condensed" fill="#000000">
      <tspan id="tspan3344" x="18.82061" y="44.435299">Maxwell-Boltzmann Molecular Speed Distribution for Noble Gases</tspan>
    </text>
  <rect id="rect3346" stroke-linejoin="round" height="101.27" width="88.506" stroke="#000" stroke-linecap="round" y="181.17" x="605.45" stroke-width="2" fill="none"/>
  <path id="path3348" d="m610.61 195.06h23.73" fill-rule="evenodd" stroke="#00f" stroke-width="3" fill="#00f"/>
  <path id="path3350" d="m610.61 220.06h23.73" fill-rule="evenodd" stroke="#fc0" stroke-width="3" fill="#fc0"/>
  <path id="path3352" d="m610.61 244.96h23.73" fill-rule="evenodd" stroke="#0ff" stroke-width="3" fill="#0ff"/>
  <path id="path3354" d="m610.61 269.96h23.73" fill-rule="evenodd" stroke="#909" stroke-width="3" fill="#909"/>
  <text id="text3356" font-weight="bold" xml:space="preserve" font-size="14px" y="196.32001" x="653.05402" font-family="DejaVu Sans Condensed" fill="#000000">
      <tspan id="tspan3358" x="653.05402" y="196.32001">4</tspan>
    </text>
  <text id="text3360" font-weight="bold" xml:space="preserve" font-size="20px" y="203.39101" x="663.73608" font-family="DejaVu Sans Condensed" fill="#000000">
      <tspan id="tspan3362" x="663.73608" y="203.39101">He</tspan>
    </text>
  <text id="text3364" font-weight="bold" xml:space="preserve" font-size="14px" y="219.68401" x="645.55798" font-family="DejaVu Sans Condensed" fill="#000000">
      <tspan id="tspan3366" x="645.55798" y="219.68401">20</tspan>
    </text>
  <text id="text3368" font-weight="bold" xml:space="preserve" font-size="20px" y="227.76601" x="664.19507" font-family="DejaVu Sans Condensed" fill="#000000">
      <tspan id="tspan3370" x="664.19507" y="227.76601">Ne</tspan>
    </text>
  <text id="text3372" font-weight="bold" xml:space="preserve" font-size="14px" y="245.42799" x="647.07397" font-family="DejaVu Sans Condensed" fill="#000000">
      <tspan id="tspan3374" x="647.07397" y="245.42799">40</tspan>
    </text>
  <text id="text3376" font-weight="bold" xml:space="preserve" font-size="20px" y="252.31599" x="664.06708" font-family="DejaVu Sans Condensed" fill="#000000">
      <tspan id="tspan3378" x="664.06708" y="252.31599">Ar</tspan>
    </text>
  <text id="text3380" font-weight="bold" xml:space="preserve" font-size="14px" y="268.67401" x="637.09802" font-family="DejaVu Sans Condensed" fill="#000000">
      <tspan id="tspan3382" x="637.09802" y="268.67401">132</tspan>
    </text>
  <text id="text3384" font-weight="bold" xml:space="preserve" font-size="20px" y="277.76599" x="664.06812" font-family="DejaVu Sans Condensed" fill="#000000">
      <tspan id="tspan3386" x="664.06812" y="277.76599">Xe</tspan>
    </text>
  <text id="text3388" font-weight="bold" xml:space="preserve" transform="rotate(-90)" font-size="20px" y="29.8694" x="-348.67001" font-family="DejaVu Sans Condensed" fill="#000000">
      <tspan id="tspan3390" x="-348.67001" y="29.8694">Probability density (s/m)</tspan>
    </text>
  <text id="text3392" font-weight="bold" xml:space="preserve" font-size="20px" y="446.83801" x="284.28299" font-family="DejaVu Sans Condensed" fill="#000000">
      <tspan id="tspan3394" x="284.28299" y="446.83801">Speed (m/s)</tspan>
    </text>
  <text id="text2239" font-weight="bold" xml:space="preserve" font-size="20px" y="404.53699" x="103.466" font-family="DejaVu Sans Condensed" fill="#000000">
      <tspan id="tspan2241" x="103.466" y="404.53699">0</tspan>
    </text>
  <text id="text2243" font-weight="bold" xml:space="preserve" font-size="20px" y="404.53699" x="187.166" font-family="DejaVu Sans Condensed" fill="#000000">
      <tspan id="tspan2245" y="404.53699" x="187.166">500</tspan>
    </text>
  <text id="text2247" font-weight="bold" xml:space="preserve" font-size="20px" y="404.53699" x="276.26599" font-family="DejaVu Sans Condensed" fill="#000000">
      <tspan id="tspan2249" x="276.26599" y="404.53699">1000</tspan>
    </text>
  <text id="text2251" font-weight="bold" xml:space="preserve" font-size="20px" y="404.53699" x="370.16599" font-family="DejaVu Sans Condensed" fill="#000000">
      <tspan id="tspan2253" y="404.53699" x="370.16599">1500</tspan>
    </text>
  <text id="text2255" font-weight="bold" xml:space="preserve" font-size="20px" y="404.53699" x="465.866" font-family="DejaVu Sans Condensed" fill="#000000">
      <tspan id="tspan2257" x="465.866" y="404.53699">2000</tspan>
    </text>
  <text id="text2259" font-weight="bold" xml:space="preserve" font-size="20px" y="404.53699" x="560.86603" font-family="DejaVu Sans Condensed" fill="#000000">
      <tspan id="tspan2261" y="404.53699" x="560.86603">2500</tspan>
    </text>
  <text id="text2474" font-weight="bold" xml:space="preserve" font-size="18px" y="121.571" x="48.5714" font-family="DejaVu Sans Condensed" fill="#000000">
      <tspan id="tspan2476" x="48.5714" y="121.571">0.004</tspan>
    </text>
  <text id="text2478" font-weight="bold" xml:space="preserve" font-size="18px" y="188.714" x="45.714298" font-family="DejaVu Sans Condensed" fill="#000000">
      <tspan id="tspan2480" x="45.714298" y="188.714">0.003</tspan>
    </text>
  <text id="text2482" font-weight="bold" xml:space="preserve" font-size="18px" y="254.429" x="44.285702" font-family="DejaVu Sans Condensed" fill="#000000">
      <tspan id="tspan2484" x="44.285702" y="254.429">0.002</tspan>
    </text>
  <text id="text2486" font-weight="bold" xml:space="preserve" font-size="18px" y="321.57101" x="44.285702" font-family="DejaVu Sans Condensed" fill="#000000">
      <tspan id="tspan2488" x="44.285702" y="321.57101">0.001</tspan>
    </text>
 </g>
 <metadata>
  <rdf:RDF>
   <cc:Work>
    <dc:format>image/svg+xml</dc:format>
    <dc:type rdf:resource="http://purl.org/dc/dcmitype/StillImage"/>
    <cc:license rdf:resource="http://creativecommons.org/licenses/publicdomain/"/>
    <dc:publisher>
     <cc:Agent rdf:about="http://openclipart.org/">
      <dc:title>Openclipart</dc:title>
     </cc:Agent>
    </dc:publisher>
   </cc:Work>
   <cc:License rdf:about="http://creativecommons.org/licenses/publicdomain/">
    <cc:permits rdf:resource="http://creativecommons.org/ns#Reproduction"/>
    <cc:permits rdf:resource="http://creativecommons.org/ns#Distribution"/>
    <cc:permits rdf:resource="http://creativecommons.org/ns#DerivativeWorks"/>
   </cc:License>
  </rdf:RDF>
 </metadata>
</svg>
