<?xml version="1.0"?>
<svg xmlns:rdf="http://www.w3.org/1999/02/22-rdf-syntax-ns#" xmlns="http://www.w3.org/2000/svg" xmlns:cc="http://web.resource.org/cc/" xmlns:dc="http://purl.org/dc/elements/1.1/" id="svg2" xml:space="preserve" height="755.22" width="1809" version="1.0" viewBox="0 0 1809.042 755.22">
		<g id="&#x30EC;&#x30A4;&#x30E4;&#x30FC;_1" transform="translate(50 43.202)">
			<polygon id="polygon7" points="257 264.8 253 262.3 253 257.8 378 185.8 378 194.8"/>
			<polygon id="polygon9" points="257 403.8 253 406.3 249 403.8 249 264.8 253 262.3 257 264.8"/>
			<rect id="rect11" y="277.3" width="7.5" x="223.5" height="114"/> 
			<polygon id="polygon13" points="378 473.8 378 482.8 253 410.8 253 406.3 257 403.8"/>
			<polygon id="polygon15" points="498.5 403.8 502.5 406.3 502.5 410.8 378 482.8 378 473.8"/>
			<polygon id="polygon17" points="498.5 264.8 502.5 262.3 506.5 264.8 506.5 403.8 502.5 406.3 498.5 403.8"/>
			<rect id="rect19" y="277.3" width="7.998" x="472.5" height="114"/> 
			<polygon id="polygon21" points="378 194.8 378 185.8 502.5 257.8 502.5 262.3 498.5 264.8"/>
			<polygon id="polygon23" points="128.5 194.8 128.5 185.8 253 257.8 253 262.3 249 264.8"/>
			<polygon id="polygon25" points="7.5 264.8 0 259.8 128.5 185.8 128.5 194.8"/>
				<rect id="rect27" transform="matrix(.4962 .8682 -.8682 .4962 255.81 56.756)" height="114.24" width="8.059" y="191.68" x="74.969"/> 
			<polygon id="polygon29" points="7.5 403.8 0 408.8 0 259.8 7.5 264.8"/>
			<polygon id="polygon31" points="128.5 473.8 128.5 482.8 0 408.8 7.5 403.8"/>
				<rect id="rect33" transform="matrix(.4959 -.8684 .8684 .4959 -324.71 280.2)" height="114.24" width="8.063" y="362.68" x="74.967"/> 
			<polygon id="polygon35" points="249 403.8 253 406.3 253 410.8 128.5 482.8 128.5 473.8"/>
			<text id="text37" transform="translate(339.5 85.797)"><tspan id="tspan39" font-size="100px" y="0" x="0" font-family="ArialMT">O</tspan></text>
			<rect id="rect41" y="102.3" width="7.998" x="361" height="95.498"/> 
			<rect id="rect43" y="102.3" width="7.5" x="387" height="95.498"/> 
			<text id="text45" transform="translate(339.5 660.8)"><tspan id="tspan47" font-size="100px" y="0" x="0" font-family="ArialMT">O</tspan></text>
			<rect id="rect49" y="470.8" width="7.5" x="387" height="101.49"/> 
			<rect id="rect51" y="470.8" width="7.998" x="361" height="101.49"/> 
			<polygon id="polygon53" points="629 474.8 627 477.8 625 481.3 502.5 410.8 502.5 406.3 506.5 403.8"/>
			<polygon id="polygon55" points="627.5 185.8 627.5 194.8 506.5 264.8 502.5 262.3 502.5 257.8"/>
			<polygon id="polygon57" points="751.5 257.3 751.5 266.8 627.5 194.8 627.5 185.8"/>
			<polygon id="polygon59" points="872 187.8 876 190.3 876 194.8 751.5 266.8 751.5 257.3"/>
				<rect id="rect61" transform="matrix(-.4959 -.8684 .8684 -.4959 1020.9 1000.2)" height="113.8" width="8.063" y="146.9" x="796.72"/> 
			<polygon id="polygon63" points="872 46.301 876 46.301 880 46.301 880 187.8 876 190.3 872 187.8"/>
			<polygon id="polygon65" points="1e3 257.3 1e3 266.8 876 194.8 876 190.3 880 187.8"/>
			<polygon id="polygon67" points="1125 185.3 1125 194.8 1e3 266.8 1e3 257.3"/>
			<polygon id="polygon69" points="1249 257.3 1249 266.3 1125 194.8 1125 185.3"/>
			<polygon id="polygon71" points="1370 187.3 1374 189.8 1374 194.3 1249 266.3 1249 257.3"/>
				<rect id="rect73" transform="matrix(-.4967 -.8679 .8679 -.4967 1767 1431.3)" height="114.24" width="8.062" y="146.18" x="1294.5"/> 
			<polygon id="polygon75" points="1498 256.8 1498 266.3 1374 194.3 1374 189.8 1378 187.3"/>
			<polygon id="polygon77" points="1370 46.301 1374 46.301 1378 46.301 1378 187.3 1374 189.8 1370 187.3"/>
			<text id="text79" transform="translate(1587 228.8)"><tspan id="tspan81" font-size="100px" y="0" x="0" font-family="ArialMT">H</tspan></text>
			<polygon id="polygon83" points="1569 215.8 1573 222.8 1498 266.3 1498 256.8"/>
			<path id="path85" d="m1090.8 10.798h-20.3v325h20.3m426.9 0h20.3v-325l-20.3-0.002" stroke="#000" stroke-width="8" fill="none"/>
			<text id="text87" font-size="75px" transform="translate(1554 348.54)"><tspan id="tspan89" font-style="italic" y="0" x="0" font-family="Arial-ItalicMT">n</tspan><tspan id="tspan91" y="0" x="41.710999" font-family="ArialMT"> &#x2212; 1</tspan></text>
		</g>
	<metadata><rdf:RDF><cc:Work><dc:format>image/svg+xml</dc:format><dc:type rdf:resource="http://purl.org/dc/dcmitype/StillImage"/><cc:license rdf:resource="http://creativecommons.org/licenses/publicdomain/"/><dc:publisher><cc:Agent rdf:about="http://openclipart.org/"><dc:title>Openclipart</dc:title></cc:Agent></dc:publisher></cc:Work><cc:License rdf:about="http://creativecommons.org/licenses/publicdomain/"><cc:permits rdf:resource="http://creativecommons.org/ns#Reproduction"/><cc:permits rdf:resource="http://creativecommons.org/ns#Distribution"/><cc:permits rdf:resource="http://creativecommons.org/ns#DerivativeWorks"/></cc:License></rdf:RDF></metadata></svg>
