<?xml version="1.0" encoding="UTF-8" standalone="no"?>
<!-- Created with Inkscape (http://www.inkscape.org/) -->
<svg
   xmlns:svg="http://www.w3.org/2000/svg"
   xmlns="http://www.w3.org/2000/svg"
   version="1.0"
   width="1809.042"
   height="755.21997"
   viewBox="0 0 1809.042 755.22"
   id="svg2"
   xml:space="preserve"><defs
   id="defs94" />
	
		<g
   transform="translate(49.99997,43.20189)"
   id="レイヤー_1">
			<polygon
   points="256.997,264.802 252.998,262.302 252.998,257.8 377.998,185.798 377.998,194.802 256.997,264.802 "
   id="polygon7" />
			<polygon
   points="256.997,403.801 252.998,406.301 248.999,403.801 248.999,264.802 252.998,262.302 256.997,264.802 256.997,403.801 "
   id="polygon9" />
			<rect
   width="7.5"
   height="113.999"
   x="223.50101"
   y="277.302"
   id="rect11" /> 
			<polygon
   points="377.998,473.801 377.998,482.795 252.998,410.803 252.998,406.301 256.997,403.801 377.998,473.801 "
   id="polygon13" />
			<polygon
   points="498.501,403.801 502.5,406.301 502.5,410.803 377.998,482.795 377.998,473.801 498.501,403.801 "
   id="polygon15" />
			<polygon
   points="498.501,264.802 502.5,262.302 506.499,264.802 506.499,403.801 502.5,406.301 498.501,403.801 498.501,264.802 "
   id="polygon17" />
			<rect
   width="7.9980001"
   height="113.999"
   x="472.5"
   y="277.302"
   id="rect19" /> 
			<polygon
   points="377.998,194.802 377.998,185.798 502.5,257.8 502.5,262.302 498.501,264.802 377.998,194.802 "
   id="polygon21" />
			<polygon
   points="128.501,194.802 128.501,185.798 252.998,257.8 252.998,262.302 248.999,264.802 128.501,194.802 "
   id="polygon23" />
			<polygon
   points="7.5,264.802 0,259.802 128.501,185.798 128.501,194.802 7.5,264.802 "
   id="polygon25" />
			
				<rect
   width="8.059"
   height="114.237"
   x="74.969002"
   y="191.67999"
   transform="matrix(0.4962,0.8682,-0.8682,0.4962,255.808,56.7564)"
   id="rect27" /> 
			<polygon
   points="7.5,403.801 0,408.801 0,259.802 7.5,264.802 7.5,403.801 "
   id="polygon29" />
			<polygon
   points="128.501,473.801 128.501,482.795 0,408.801 7.5,403.801 128.501,473.801 "
   id="polygon31" />
			
				<rect
   width="8.0629997"
   height="114.237"
   x="74.967003"
   y="362.67899"
   transform="matrix(0.4959,-0.8684,0.8684,0.4959,-324.7131,280.2009)"
   id="rect33" /> 
			<polygon
   points="248.999,403.801 252.998,406.301 252.998,410.803 128.501,482.795 128.501,473.801 248.999,403.801 "
   id="polygon35" />
			<text
   transform="translate(339.5015,85.7969)"
   id="text37"><tspan
     x="0"
     y="0"
     style="font-size:100px;font-family:ArialMT"
     id="tspan39">O</tspan></text>

			<rect
   width="7.9980001"
   height="95.498001"
   x="361.00101"
   y="102.302"
   id="rect41" /> 
			<rect
   width="7.5"
   height="95.498001"
   x="386.99701"
   y="102.302"
   id="rect43" /> 
			<text
   transform="translate(339.5015,660.7974)"
   id="text45"><tspan
     x="0"
     y="0"
     style="font-size:100px;font-family:ArialMT"
     id="tspan47">O</tspan></text>

			<rect
   width="7.5"
   height="101.494"
   x="386.99701"
   y="470.80301"
   id="rect49" /> 
			<rect
   width="7.9980001"
   height="101.494"
   x="361.00101"
   y="470.80301"
   id="rect51" /> 
			<polygon
   points="628.999,474.797 626.997,477.795 625,481.301 502.5,410.803 502.5,406.301 506.499,403.801 628.999,474.797 "
   id="polygon53" />
			<polygon
   points="627.5,185.798 627.5,194.802 506.499,264.802 502.5,262.302 502.5,257.8 627.5,185.798 "
   id="polygon55" />
			<polygon
   points="751.499,257.302 751.499,266.799 627.5,194.802 627.5,185.798 751.499,257.302 "
   id="polygon57" />
			<polygon
   points="871.997,187.8 876.001,190.3 876.001,194.802 751.499,266.799 751.499,257.302 871.997,187.8 "
   id="polygon59" />
			
				<rect
   width="8.0629997"
   height="113.799"
   x="796.71802"
   y="146.899"
   transform="matrix(-0.4959,-0.8684,0.8684,-0.4959,1020.906,1000.206)"
   id="rect61" /> 
			<polygon
   points="871.997,46.301 876.001,46.301 879.995,46.301 879.995,187.8 876.001,190.3 871.997,187.8 871.997,46.301 "
   id="polygon63" />
			<polygon
   points="1000,257.302 1000,266.799 876.001,194.802 876.001,190.3 879.995,187.8 1000,257.302 "
   id="polygon65" />
			<polygon
   points="1125,185.3 1125,194.802 1000,266.799 1000,257.302 1125,185.3 "
   id="polygon67" />
			<polygon
   points="1249.004,257.302 1249.004,266.301 1125,194.802 1125,185.3 1249.004,257.302 "
   id="polygon69" />
			<polygon
   points="1370,187.302 1374.004,189.802 1374.004,194.299 1249.004,266.301 1249.004,257.302 1370,187.302 "
   id="polygon71" />
			
				<rect
   width="8.0620003"
   height="114.241"
   x="1294.465"
   y="146.17999"
   transform="matrix(-0.4967,-0.8679,0.8679,-0.4967,1766.954,1431.295)"
   id="rect73" /> 
			<polygon
   points="1498.008,256.799 1498.008,266.301 1374.004,194.299 1374.004,189.802 1378.008,187.302 1498.008,256.799 "
   id="polygon75" />
			<polygon
   points="1370,46.301 1374.004,46.301 1378.008,46.301 1378.008,187.302 1374.004,189.802 1370,187.302 1370,46.301 "
   id="polygon77" />
			<text
   transform="translate(1587.001,228.7988)"
   id="text79"><tspan
     x="0"
     y="0"
     style="font-size:100px;font-family:ArialMT"
     id="tspan81">H</tspan></text>

			<polygon
   points="1569.004,215.798 1573.008,222.8 1498.008,266.301 1498.008,256.799 1569.004,215.798 "
   id="polygon83" />
			<path
   d="M 1090.82,10.798 L 1070.507,10.798 L 1070.507,335.803 L 1090.82,335.803 M 1517.695,335.803 L 1538.008,335.803 L 1538.008,10.798 L 1517.695,10.798"
   style="fill:none;stroke:black;stroke-width:8"
   id="path85" />
			<text
   transform="translate(1553.988,348.5376)"
   id="text87"><tspan
     x="0"
     y="0"
     style="font-size:75px;font-style:italic;font-family:Arial-ItalicMT"
     id="tspan89">n</tspan><tspan
     x="41.710999"
     y="0"
     style="font-size:75px;font-family:ArialMT"
     id="tspan91"> − 1</tspan></text>

		</g>
	</svg>