<?xml version="1.0"?>
<svg xmlns:rdf="http://www.w3.org/1999/02/22-rdf-syntax-ns#" xmlns="http://www.w3.org/2000/svg" xmlns:cc="http://creativecommons.org/ns#" xmlns:dc="http://purl.org/dc/elements/1.1/" id="svg9371" viewBox="0 0 726.92 1009.4" version="1.1">
 <g id="layer1" transform="translate(-10.826 -25.702)">
  <path id="path3387" fill="#3c68ae" d="m417.8 119.76 9.3275-4.8756 27.486-3.2507 38.778-2.4387 155.11-5.6885-53.502-3.6571h-126.15l-29.45-5.6886-21.599 25.599z"/>
  <path id="path3389" fill="#995795" d="m215.02 258.16 0.54778-1.0582 48.104-11.378 4.4165-3.2507-2.4538-20.724-0.98183-14.629-12.27-2.844-18.653 0.40634-18.466-2.0314-0.24386 55.508z"/>
  <path id="path3391" fill="#cf6372" d="m189.61 55.964h136.4l19.143 0.40645 9.8162 4.8764-34.85 6.0951-22.087 5.283 57.919 4.469 130.08 6.5016-15.709 6.5014-30.922 4.0636-21.599 25.599-12.271 6.095-16.688 0.40621-19.634 8.9395-15.707 10.566 26.014 5.2823-79.517 4.8762-5.3995 4.4703 12.762 4.4692 2.4537 6.095-37.303 3.2507-14.235 5.2829 7.3625 6.908 39.269 4.8756-71.173 3.657-18.948 7.8541-0.40445 55.508-5.3418 10.319 23.221 22.622-11.78 23.568-9.3254 4.0637 12.894 29.818-34.756 29.836 0.31821-322.56z"/>
  <path id="path3393" fill="#3c68ae" d="m188.57 380.21 53.014-8.5158 34.359-2.8442 234.13-4.0637-82.952-6.095-191.43-3.657-10.307-3.2507-1.3406-3.0951-35.474 31.521z"/>
  <path id="path3395" fill="#d2a752" d="m189.85 500.74 79.224-5.1184 60.374-5.2811 57.92-8.1272-108.48-6.908-9.8174-4.4699-3.4358-7.3134 4.4178-7.3143-18.652-4.8766 5.3985-6.908 61.356-6.0949-1.963-4.8754 58.901-5.2832 5.3996-7.7207-35.833-4.4692-42.703-6.5013-66.755-9.3466-45.201-2.4135-0.15542 103.02z"/>
  <path id="path3397" fill="#3c68ae" d="m188.35 517.82 24.769-2.2793-24.727-3.7007-0.0417 5.98z"/>
  <path id="path3399" fill="#3c68ae" d="m188.77 642.43 21.894-19.209 134.98-5.283-140.87-11.379-16.07-3.8871 0.0667 39.758z"/>
  <path id="path3401" fill="#66b070" d="m188.7 602.67-15.835-3.8329-19.634-17.066 2.4549-39.416 5.8896-8.9402 2.4549-6.0941-3.9267-6.9087 28.242-2.5962 0.0417-5.98-16.013-2.3953-3.9267-7.3142 21.401-1.3832 0.15542-103.02-7.3211-0.43078 1.964-6.095-5.3998-4.0636-3.4356-4.8754 13.242-2.0495 0.55427-324.24h-52.599l0.0157 823.25h19.642l29.451-11.785-9.3263-8.94-11.289-6.094 18.162-18.286-6.8725-6.9089 9.8172-7.7198-12.271-136.94-0.98199-8.1274-12.762-5.6886 17.18-0.40723 8.3445-23.567 2.6484-2.3265-0.0667-39.758z"/>
  <g id="text3405" fill="#66b070" transform="matrix(1.0991 0 0 .90986 4.0953 -3.4346)">
   <path id="path9013" d="m184.6 826.2h3.8103c2.7304 0 4.4828-1.9357 4.4828-4.9514 0-2.9749-1.6912-4.605-4.7884-4.605h-6.5611v14.854h3.06v-5.2978m0-2.547v-4.4624h2.8527c1.6301 0 2.384 0.71317 2.384 2.2414 0 1.5078-0.75392 2.221-2.384 2.221h-2.85"/>
   <path id="path9015" d="m194.87 820.5v11.003h2.8527v-5.848c0-1.6708 0.83542-2.5063 2.5063-2.5063 0.30565 0 0.50941 0.0204 0.89655 0.0815v-2.8934c-0.163-0.0204-0.26489-0.0204-0.34639-0.0204-1.3041 0-2.4451 0.8558-3.0564 2.3433v-2.1599h-2.8527"/>
   <path id="path9017" d="m212.19 826.9c0.0204-0.24451 0.0204-0.34639 0.0204-0.48903 0-1.1003-0.16301-2.1191-0.4279-2.8934-0.73354-1.9969-2.5063-3.1991-4.7273-3.1991-3.1583 0-5.094 2.2821-5.094 5.9702 0 3.5251 1.9154 5.685 5.0329 5.685 2.4655 0 4.4624-1.406 5.094-3.5658h-2.8119c-0.34639 0.87617-1.1411 1.3856-2.1802 1.3856-0.81504 0-1.4671-0.3464-1.8746-0.95768-0.26489-0.40753-0.36677-0.89656-0.40753-1.9357h7.3762m-7.3354-1.895c0.18338-1.6708 0.89655-2.5063 2.1599-2.5063 0.71316 0 1.3652 0.3464 1.7727 0.91693 0.26488 0.40752 0.38714 0.83542 0.44827 1.5893h-4.3809"/>
   <path id="path9019" d="m218.92 824.53h-5.5423v2.7508h5.54v-2.75"/>
   <path id="path9021" d="m223.85 820.5h-2.8527v11.003h2.85v-11m0-3.8511h-2.8527v2.547h2.8527v-2.547"/>
   <path id="path9023" d="m226.58 820.5v11.003h2.8527v-6.6019c0-1.3041 0.91693-2.1599 2.3025-2.1599 1.2226 0 1.8338 0.67241 1.8338 1.9765v6.7853h2.8527v-7.3762c0-2.4248-1.3448-3.8103-3.6881-3.8103-1.4875 0-2.4859 0.55016-3.3009 1.7727v-1.5893h-2.85"/>
   <path id="path9025" d="m246 831.5h2.8527v-14.85h-2.85v5.2774c-0.71317-1.1003-1.6708-1.6097-3.036-1.6097-2.6285 0-4.6254 2.5266-4.6254 5.848 0 1.4875 0.44828 2.9953 1.1818 4.0549 0.75392 1.0596 2.0987 1.7524 3.4436 1.7524 1.3652 0 2.3229-0.50941 3.036-1.5894v1.1207m-2.4044-8.8025c1.4467 0 2.4044 1.406 2.4044 3.5047 0 1.9969-0.97806 3.3824-2.4044 3.3824s-2.4044-1.406-2.4044-3.4232c0-2.0376 0.97806-3.464 2.4044-3.464"/>
   <path id="path9027" d="m261.22 831.5v-11.003h-2.8527v6.8871c0 1.3041-0.91693 2.1599-2.3025 2.1599-1.2226 0-1.8338-0.65204-1.8338-1.9765v-7.0705h-2.8527v7.6614c0 2.4248 1.3448 3.8104 3.6881 3.8104 1.4875 0 2.4859-0.55016 3.3009-1.7727v1.3041h2.8527"/>
   <path id="path9029" d="m272.94 824.04c-0.0408-2.3229-1.8339-3.7288-4.7884-3.7288-2.7915 0-4.5235 1.406-4.5235 3.6677 0 0.73354 0.22414 1.3652 0.61129 1.7931 0.38714 0.38715 0.73354 0.57054 1.7931 0.91693l3.4028 1.0596c0.71316 0.22414 0.95768 0.44828 0.95768 0.89655 0 0.67241-0.79468 1.0799-2.1191 1.0799-0.73355 0-1.3245-0.14264-1.6912-0.38715-0.30564-0.22414-0.4279-0.44828-0.55015-1.0392h-2.7915c0.0815 2.4044 1.8542 3.6677 5.1959 3.6677 1.5282 0 2.6897-0.32602 3.5047-0.97806 0.81505-0.65204 1.3041-1.6708 1.3041-2.7508 0-1.4263-0.71317-2.3433-2.1599-2.7712l-3.6066-1.0392c-0.79467-0.24452-0.99844-0.40753-0.99844-0.8558 0-0.61129 0.65204-1.0188 1.6505-1.0188 1.3652 0 2.0376 0.48903 2.058 1.4875h2.7508"/>
   <path id="path9031" d="m280.11 820.72h-1.5893v-2.9546h-2.8527v2.9546h-1.406v1.895h1.406v6.7649c0 1.732 0.91693 2.5878 2.7915 2.5878 0.63166 0 1.1411-0.0611 1.6505-0.22414v-1.9969c-0.28526 0.0408-0.44827 0.0611-0.65204 0.0611-0.75391 0-0.9373-0.22414-0.9373-1.2022v-5.9906h1.5893v-1.895"/>
   <path id="path9033" d="m282.04 820.5v11.003h2.8527v-5.848c0-1.6708 0.83542-2.5063 2.5063-2.5063 0.30565 0 0.50941 0.0204 0.89655 0.0815v-2.8934c-0.16301-0.0204-0.26489-0.0204-0.34639-0.0204-1.3041 0-2.4451 0.8558-3.0564 2.3433v-2.1599h-2.8527"/>
   <path id="path9035" d="m292.9 820.5h-2.8527v11.003h2.85v-11m0-3.8511h-2.8527v2.547h2.85v-2.547"/>
   <path id="path9037" d="m305.03 831.15c-0.5094-0.46865-0.65203-0.7743-0.65203-1.3448v-6.1128c0-2.2414-1.5282-3.3824-4.5031-3.3824s-4.5235 1.2633-4.7069 3.8103h2.7508c0.14263-1.1411 0.61128-1.5078 2.0172-1.5078 1.1003 0 1.6505 0.36677 1.6505 1.1003 0 0.36677-0.18338 0.69279-0.48902 0.8558-0.38715 0.20376-0.38715 0.20376-1.7931 0.4279l-1.1411 0.20376c-2.1802 0.36677-3.2398 1.4875-3.2398 3.464 0 0.9373 0.26489 1.7116 0.77429 2.2618 0.63166 0.65204 1.5894 1.0392 2.5674 1.0392 1.2226 0 2.3433-0.52979 3.3417-1.569 0 0.57053 0.0611 0.7743 0.32602 1.1003h3.0972v-0.34639m-3.4436-4.0752c0 1.6505-0.81504 2.5878-2.2618 2.5878-0.95768 0-1.5486-0.50941-1.5486-1.3244 0-0.8558 0.44828-1.2633 1.6301-1.5078l0.97806-0.18338c0.75392-0.14264 0.87618-0.18339 1.2022-0.3464v0.7743"/>
   <path id="path9039" d="m309.9 816.65h-2.8527v14.854h2.85v-14.85"/>
  </g>
  <g id="text3413" fill="#3c68ae" transform="matrix(1.0991 0 0 .90986 4.0953 -3.4346)">
   <path id="path8982" d="m333.9 675.7h4.3401v-2.547h-11.9v2.547h4.5031v12.307h3.0564v-12.31"/>
   <path id="path8984" d="m349.19 687.66c-0.5094-0.46865-0.65203-0.7743-0.65203-1.3448v-6.1128c0-2.2414-1.5282-3.3824-4.5031-3.3824s-4.5235 1.2633-4.7069 3.8103h2.7508c0.14263-1.1411 0.61128-1.5078 2.0172-1.5078 1.1003 0 1.6505 0.36677 1.6505 1.1003 0 0.36677-0.18338 0.69279-0.48902 0.8558-0.38715 0.20376-0.38715 0.20376-1.7931 0.4279l-1.1411 0.20376c-2.1802 0.36677-3.2398 1.4875-3.2398 3.464 0 0.9373 0.26489 1.7116 0.77429 2.2618 0.63166 0.65204 1.5894 1.0392 2.5674 1.0392 1.2226 0 2.3433-0.52978 3.3417-1.569 0 0.57053 0.0611 0.77429 0.32602 1.1003h3.0972v-0.34639m-3.4436-4.0752c0 1.6505-0.81504 2.5878-2.2618 2.5878-0.95768 0-1.5486-0.50941-1.5486-1.3244 0-0.8558 0.44828-1.2633 1.6301-1.5078l0.97806-0.18338c0.75392-0.14264 0.87618-0.18339 1.2022-0.3464v0.7743"/>
   <path id="path8986" d="m351.08 677v11.003h2.8527v-6.6019c0-1.3448 0.73354-2.1599 1.9561-2.1599 0.95768 0 1.5486 0.55016 1.5486 1.4263v7.3354h2.8527v-6.6019c0-1.3448 0.73354-2.1599 1.9561-2.1599 0.95768 0 1.5486 0.55016 1.5486 1.4263v7.3354h2.8527v-7.7837c0-2.1395-1.3041-3.4028-3.5047-3.4028-1.3856 0-2.3636 0.48903-3.2194 1.6301-0.52978-1.0392-1.6301-1.6301-2.9953-1.6301-1.2633 0-2.0784 0.4279-3.0157 1.5486v-1.3652h-2.8323"/>
   <path id="path8988" d="m369.16 673.15v14.854h2.8527v-1.1207c0.69279 1.0799 1.6505 1.5893 3.036 1.5893 2.6285 0 4.6254-2.5063 4.6254-5.8276 0-1.4875-0.44827-2.9953-1.1818-4.0548-0.75392-1.0799-2.0988-1.7727-3.4436-1.7727-1.3652 0-2.3433 0.50941-3.036 1.6097v-5.2774h-2.85m5.257 6.0517c1.406 0 2.4044 1.4263 2.4044 3.464 0 1.9969-0.99843 3.4232-2.4044 3.4232-1.4467 0-2.4044-1.3856-2.4044-3.4843 0-1.9969 0.97806-3.4028 2.4044-3.4028"/>
   <path id="path8990" d="m386.55 676.82c-3.3621 0-5.4201 2.221-5.4201 5.8276 0 3.627 2.058 5.8276 5.4404 5.8276 3.3417 0 5.4404-2.221 5.4404-5.7461 0-3.7288-2.0172-5.9091-5.4608-5.9091m0.0204 2.3025c1.569 0 2.5878 1.406 2.5878 3.5658 0 2.058-1.0596 3.4843-2.5878 3.4843-1.5486 0-2.5878-1.4263-2.5878-3.5251 0-2.0987 1.0392-3.5251 2.5878-3.5251"/>
   <path id="path8992" d="m394.16 677v11.003h2.8527v-5.848c0-1.6708 0.83543-2.5063 2.5063-2.5063 0.30564 0 0.5094 0.0204 0.89655 0.0815v-2.8934c-0.16301-0.0204-0.26489-0.0204-0.34639-0.0204-1.3041 0-2.4451 0.8558-3.0564 2.3433v-2.1599h-2.8527"/>
   <path id="path8994" d="m411.47 687.66c-0.5094-0.46865-0.65204-0.7743-0.65204-1.3448v-6.1128c0-2.2414-1.5282-3.3824-4.5031-3.3824s-4.5235 1.2633-4.7069 3.8103h2.7508c0.14264-1.1411 0.61129-1.5078 2.0172-1.5078 1.1003 0 1.6505 0.36677 1.6505 1.1003 0 0.36677-0.18338 0.69279-0.48903 0.8558-0.38714 0.20376-0.38715 0.20376-1.7931 0.4279l-1.1411 0.20376c-2.1802 0.36677-3.2398 1.4875-3.2398 3.464 0 0.9373 0.26489 1.7116 0.77429 2.2618 0.63166 0.65204 1.5893 1.0392 2.5674 1.0392 1.2226 0 2.3433-0.52978 3.3417-1.569 0 0.57053 0.0611 0.77429 0.32602 1.1003h3.0972v-0.34639m-3.4436-4.0752c0 1.6505-0.81505 2.5878-2.2618 2.5878-0.95768 0-1.5486-0.50941-1.5486-1.3244 0-0.8558 0.44828-1.2633 1.6301-1.5078l0.97806-0.18338c0.75391-0.14264 0.87617-0.18339 1.2022-0.3464v0.7743"/>
   <path id="path8996" d="m421.92 673.15c-2.3433 3.5251-3.3213 6.337-3.3213 9.4545 0 3.1379 0.97806 5.9498 3.3213 9.4749h2.0376c-2.1599-4.1975-2.8527-6.4796-2.8527-9.4749 0-2.9749 0.69279-5.2978 2.8527-9.4545h-2.04"/>
   <path id="path8998" d="m429.44 678.04v9.9639h2.8527v-14.447h-1.895c-0.44827 1.7116-1.9357 2.5878-4.4216 2.5878v1.895h3.464"/>
   <path id="path9000" d="m444.27 680.14c0.48903-0.26489 0.71316-0.40752 0.9373-0.61128 0.59091-0.55016 0.9373-1.4263 0.9373-2.3636 0-2.2618-1.9561-3.9122-4.6254-3.9122-2.6896 0-4.6458 1.6505-4.6458 3.9326 0 1.3856 0.57054 2.2618 1.8746 2.9545-1.6708 0.89655-2.3636 1.9969-2.3636 3.7085 0 2.7304 2.0987 4.6254 5.1348 4.6254 3.0157 0 5.1144-1.895 5.1144-4.6254 0-1.7116-0.69279-2.8119-2.3636-3.7085m-2.7304-4.5846c1.2633 0 2.1395 0.77429 2.1395 1.895 0 1.1003-0.89655 1.895-2.1395 1.895-1.2633 0-2.1599-0.79467-2.1599-1.9154 0-1.1003 0.87618-1.8746 2.1599-1.8746m-0.0408 5.7257c1.406 0 2.2821 0.9373 2.2821 2.4451 0 1.3856-0.89655 2.3025-2.2821 2.3025s-2.2618-0.91692-2.2618-2.3432c0-1.4671 0.89655-2.4044 2.2618-2.4044"/>
   <path id="path9002" d="m452.13 678.04v9.9639h2.8527v-14.447h-1.895c-0.44828 1.7116-1.9357 2.5878-4.4216 2.5878v1.895h3.464"/>
   <path id="path9004" d="m468.58 673.56h-7.7226l-1.2837 8.0486h2.5674c0.30564-0.71317 0.95768-1.1003 1.8338-1.1003 1.4467 0 2.3229 1.0392 2.3229 2.7915 0 1.6912-0.89655 2.7304-2.3229 2.7304-1.2429 0-1.9357-0.63166-1.9969-1.7931h-2.8119c0.0408 2.5266 1.9561 4.2382 4.768 4.2382 3.0972 0 5.2163-2.1191 5.2163-5.2367 0-2.9545-1.8339-4.9922-4.5031-4.9922-0.95767 0-1.6708 0.24452-2.5063 0.87618l0.46865-3.0157h5.9702v-2.547"/>
   <path id="path9006" d="m485.82 685.01 0.97806 2.9953h3.1379l-5.1348-14.854h-3.3824l-5.2774 14.854h3.1176l0.99843-2.9953h5.5627m-0.83542-2.547h-3.8715l1.9357-5.8072 1.9357 5.8072"/>
   <path id="path9008" d="m491.91 688h5.8072c2.2618 0 3.6881-0.52978 4.6865-1.732 1.1818-1.3856 1.8135-3.4028 1.8135-5.7053 0-2.2821-0.63166-4.2994-1.8135-5.7053-0.99843-1.2022-2.4044-1.7116-4.6865-1.7116h-5.81v14.854m3.0564-2.547v-9.7602h2.7508c2.3025 0 3.4436 1.6097 3.4436 4.8903 0 3.2602-1.1411 4.8699-3.4436 4.8699h-2.7508"/>
   <path id="path9010" d="m507.55 692.08c2.3432-3.5251 3.3213-6.337 3.3213-9.4545 0-3.1379-0.97806-5.9498-3.3213-9.4749h-2.0376c2.1599 4.1975 2.8527 6.4796 2.8527 9.4749 0 2.9749-0.69279 5.2978-2.8527 9.4545h2.0376"/>
  </g>
  <g id="text3423" fill="#d2a752" transform="matrix(1.0991 0 0 .90986 4.0953 -3.4346)">
   <path id="path8917" d="m330.33 509.72h-5.9498v2.547h3.3824c-0.0815 0.83542-0.28527 1.3448-0.73354 1.8746-0.73354 0.89655-1.8542 1.4263-3.036 1.4263-2.4655 0-4.2382-2.1599-4.2382-5.2163 0-3.199 1.569-5.1348 4.1567-5.1348 1.0596 0 1.9561 0.30564 2.6285 0.89655 0.4279 0.36677 0.65204 0.71316 0.91693 1.4875h2.873c-0.36677-3.0564-2.8527-4.9922-6.4389-4.9922-4.279 0-7.1928 3.1583-7.1928 7.7837 0 4.5031 2.9342 7.7837 6.9483 7.7837 1.9969 0 3.3417-0.71316 4.4828-2.384l0.36677 1.9561h1.8339v-8.0282"/>
   <path id="path8919" d="m337.83 506.52c-3.3621 0-5.42 2.221-5.42 5.8276 0 3.627 2.058 5.8276 5.4404 5.8276 3.3417 0 5.4404-2.221 5.4404-5.7461 0-3.7288-2.0172-5.9091-5.4608-5.9091m0.0204 2.3025c1.569 0 2.5878 1.406 2.5878 3.5658 0 2.058-1.0596 3.4843-2.5878 3.4843-1.5486 0-2.5878-1.4263-2.5878-3.5251 0-2.0987 1.0392-3.5251 2.5878-3.5251"/>
   <path id="path8921" d="m348.36 502.85h-2.8527v14.854h2.85v-14.85"/>
   <path id="path8923" d="m358.06 517.71h2.8527v-14.85h-2.85v5.2774c-0.71316-1.1003-1.6708-1.6097-3.036-1.6097-2.6285 0-4.6254 2.5266-4.6254 5.848 0 1.4875 0.44827 2.9953 1.1818 4.0548 0.75391 1.0596 2.0987 1.7524 3.4436 1.7524 1.3652 0 2.3229-0.5094 3.036-1.5893v1.1207m-2.4044-8.8025c1.4467 0 2.4044 1.406 2.4044 3.5047 0 1.9969-0.97805 3.3824-2.4044 3.3824-1.4263 0-2.4044-1.406-2.4044-3.4232 0-2.0376 0.97806-3.464 2.4044-3.464"/>
   <path id="path8925" d="m372.61 511.82h3.5047c1.3244 0 1.895 0.52978 1.895 1.7727 0 0.12226 0 0.32602-0.0204 0.59091-0.0204 0.38714-0.0204 0.75392-0.0204 0.97805 0 1.3856 0.0815 1.8339 0.46865 2.547h3.2806v-0.55015c-0.46865-0.26489-0.65204-0.57054-0.65204-1.2226-0.0815-4.3809-0.16301-4.5846-2.058-5.3997 1.6708-0.65203 2.5063-1.8542 2.5063-3.6677 0-1.1818-0.40753-2.2618-1.1207-2.9953-0.67241-0.69279-1.6097-1.0188-2.873-1.0188h-7.9671v14.854h3.0564v-5.8887m0-2.547v-3.8715h3.6881c0.87618 0 1.243 0.0815 1.6097 0.38715 0.36677 0.30564 0.55015 0.81505 0.55015 1.5078 0 0.71316-0.20376 1.2837-0.55015 1.5893-0.32602 0.28526-0.73354 0.38714-1.6097 0.38714h-3.6881"/>
   <path id="path8927" d="m393.66 517.71v-11.003h-2.8527v6.8871c0 1.3041-0.91693 2.1599-2.3025 2.1599-1.2226 0-1.8338-0.65204-1.8338-1.9765v-7.0705h-2.8527v7.6614c0 2.4248 1.3448 3.8103 3.6881 3.8103 1.4875 0 2.4859-0.55015 3.3009-1.7727v1.3041h2.8527"/>
   <path id="path8929" d="m405.37 510.25c-0.0408-2.3229-1.8339-3.7288-4.7884-3.7288-2.7915 0-4.5235 1.406-4.5235 3.6677 0 0.73354 0.22414 1.3652 0.61129 1.7931 0.38714 0.38715 0.73354 0.57053 1.7931 0.91693l3.4028 1.0596c0.71316 0.22414 0.95768 0.44828 0.95768 0.89655 0 0.67241-0.79467 1.0799-2.1191 1.0799-0.73354 0-1.3244-0.14264-1.6912-0.38715-0.30565-0.22414-0.4279-0.44828-0.55016-1.0392h-2.7915c0.0815 2.4044 1.8542 3.6677 5.1959 3.6677 1.5282 0 2.6896-0.32602 3.5047-0.97805 0.81504-0.65204 1.3041-1.6708 1.3041-2.7508 0-1.4263-0.71317-2.3433-2.1599-2.7712l-3.6066-1.0392c-0.79467-0.24452-0.99843-0.40753-0.99843-0.8558 0-0.61129 0.65203-1.0188 1.6505-1.0188 1.3652 0 2.0376 0.48903 2.058 1.4875h2.7508"/>
   <path id="path8931" d="m407.78 502.85v14.854h2.8527v-6.6019c0-1.2633 0.91692-2.1599 2.2006-2.1599 0.61128 0 1.1003 0.22414 1.4263 0.67242 0.24451 0.36677 0.32602 0.65204 0.32602 1.3652v6.7241h2.8527v-7.3762c0-1.3652-0.36677-2.3433-1.1207-2.9749-0.63166-0.52978-1.5486-0.83542-2.4655-0.83542-1.406 0-2.4248 0.57054-3.2194 1.7727v-5.4404h-2.8527"/>
   <path id="path8933" d="m428.66 502.85c-2.3433 3.5251-3.3213 6.337-3.3213 9.4545 0 3.1379 0.97805 5.9498 3.3213 9.4749h2.0376c-2.1599-4.1975-2.8527-6.4796-2.8527-9.4749 0-2.9749 0.6928-5.2978 2.8527-9.4545h-2.04"/>
   <path id="path8935" d="m441.95 510.82c-0.20376-2.6896-1.9969-4.2994-4.7476-4.2994-3.2806 0-5.1959 2.1599-5.1959 5.9091 0 3.627 1.895 5.7461 5.1552 5.7461 2.6693 0 4.5235-1.6505 4.7884-4.279h-2.7304c-0.36677 1.4263-0.93731 1.9765-2.0376 1.9765-1.4467 0-2.3229-1.3041-2.3229-3.4436 0-1.0392 0.20376-2.0172 0.55016-2.6693 0.32601-0.61128 0.95768-0.9373 1.7727-0.9373 1.1614 0 1.7116 0.55016 2.0376 1.9969h2.7304"/>
   <path id="path8937" d="m446.86 506.7h-2.8527v11.003h2.85v-11m0-3.8511h-2.8527v2.547h2.8527v-2.547"/>
   <path id="path8939" d="m449.59 506.7v11.003h2.8527v-5.848c0-1.6708 0.83543-2.5063 2.5063-2.5063 0.30564 0 0.5094 0.0204 0.89655 0.0815v-2.8934c-0.16301-0.0204-0.26489-0.0204-0.34639-0.0204-1.3041 0-2.4451 0.8558-3.0564 2.3433v-2.1599h-2.8527"/>
  </g>
  <g id="text3427" fill="#d2a752" transform="matrix(1.0991 0 0 .90986 4.0953 -3.4346)">
   <path id="path8942" d="m466.47 510.82c-0.20376-2.6896-1.9969-4.2994-4.7476-4.2994-3.2806 0-5.1959 2.1599-5.1959 5.9091 0 3.627 1.895 5.7461 5.1552 5.7461 2.6693 0 4.5235-1.6505 4.7884-4.279h-2.7304c-0.36677 1.4263-0.9373 1.9765-2.0376 1.9765-1.4467 0-2.3229-1.3041-2.3229-3.4436 0-1.0392 0.20376-2.0172 0.55015-2.6693 0.32602-0.61128 0.95768-0.9373 1.7727-0.9373 1.1614 0 1.7116 0.55016 2.0376 1.9969h2.7304"/>
   <path id="path8944" d="m477.84 517.36c-0.5094-0.46865-0.65203-0.7743-0.65203-1.3448v-6.1128c0-2.2414-1.5282-3.3824-4.5031-3.3824s-4.5235 1.2633-4.7069 3.8103h2.7508c0.14264-1.1411 0.61129-1.5078 2.0172-1.5078 1.1003 0 1.6505 0.36677 1.6505 1.1003 0 0.36677-0.18338 0.69279-0.48903 0.8558-0.38714 0.20376-0.38714 0.20376-1.7931 0.4279l-1.1411 0.20376c-2.1802 0.36677-3.2398 1.4875-3.2398 3.464 0 0.9373 0.26489 1.7116 0.77429 2.2618 0.63166 0.65204 1.5893 1.0392 2.5674 1.0392 1.2226 0 2.3433-0.52978 3.3417-1.569 0 0.57053 0.0611 0.77429 0.32602 1.1003h3.0972v-0.34639m-3.4436-4.0752c0 1.6505-0.81505 2.5878-2.2618 2.5878-0.95768 0-1.5486-0.50941-1.5486-1.3244 0-0.8558 0.44828-1.2633 1.6301-1.5078l0.97806-0.18338c0.75392-0.14264 0.87617-0.18339 1.2022-0.3464v0.7743"/>
   <path id="path8946" d="m489 507.74v9.9639h2.8527v-14.447h-1.895c-0.44827 1.7116-1.9357 2.5878-4.4216 2.5878v1.895h3.464"/>
   <path id="path8948" d="m503.82 509.84c0.48903-0.26489 0.71317-0.40753 0.9373-0.61129 0.59091-0.55016 0.93731-1.4263 0.93731-2.3636 0-2.2618-1.9561-3.9122-4.6254-3.9122-2.6896 0-4.6458 1.6505-4.6458 3.9326 0 1.3856 0.57053 2.2618 1.8746 2.9546-1.6708 0.89655-2.3636 1.9969-2.3636 3.7085 0 2.7304 2.0987 4.6254 5.1348 4.6254 3.0157 0 5.1144-1.895 5.1144-4.6254 0-1.7116-0.69279-2.8119-2.3636-3.7085m-2.7304-4.5846c1.2633 0 2.1395 0.7743 2.1395 1.895 0 1.1003-0.89655 1.895-2.1395 1.895-1.2633 0-2.1599-0.79468-2.1599-1.9154 0-1.1003 0.87618-1.8746 2.1599-1.8746m-0.0408 5.7257c1.406 0 2.2821 0.9373 2.2821 2.4451 0 1.3856-0.89655 2.3025-2.2821 2.3025s-2.2618-0.91692-2.2618-2.3432c0-1.4671 0.89655-2.4044 2.2618-2.4044"/>
   <path id="path8950" d="m516.77 503.26h-7.7226l-1.2837 8.0486h2.5674c0.30564-0.71317 0.95768-1.1003 1.8338-1.1003 1.4467 0 2.3229 1.0392 2.3229 2.7915 0 1.6912-0.89656 2.7304-2.3229 2.7304-1.2429 0-1.9357-0.63166-1.9969-1.7931h-2.8119c0.0408 2.5266 1.9561 4.2382 4.768 4.2382 3.0972 0 5.2163-2.1191 5.2163-5.2367 0-2.9545-1.8339-4.9922-4.5031-4.9922-0.95768 0-1.6708 0.24452-2.5063 0.87618l0.46865-3.0157h5.9702v-2.547"/>
   <path id="path8952" d="m523.7 502.95c-1.5486 0-2.873 0.65204-3.7492 1.8542-0.83542 1.1207-1.2226 2.9749-1.2226 5.7665 0 2.547 0.34639 4.3605 1.0188 5.4608 0.8558 1.3652 2.2618 2.1395 3.953 2.1395 1.569 0 2.8527-0.63166 3.7492-1.8542 0.81505-1.1003 1.2226-2.9749 1.2226-5.6646 0-2.6489-0.32602-4.442-1.0188-5.5627-0.8558-1.3856-2.2618-2.1395-3.953-2.1395m0 2.3025c0.73354 0 1.3244 0.40752 1.6708 1.1614 0.28527 0.61129 0.44828 2.2006 0.44828 4.1771 0 1.6097-0.16301 3.2398-0.36677 3.8103-0.32602 0.8558-0.93731 1.3244-1.7524 1.3244-0.75392 0-1.3244-0.38714-1.6708-1.1207-0.28526-0.61129-0.44827-2.1395-0.44827-4.0549 0-1.6912 0.16301-3.3417 0.36677-3.9326 0.32602-0.87617 0.9373-1.3652 1.7524-1.3652"/>
   <path id="path8954" d="m535.54 510.74h-5.5423v2.7508h5.54v-2.75"/>
   <path id="path8956" d="m544.59 509.84c0.48902-0.26489 0.71316-0.40753 0.9373-0.61129 0.59091-0.55016 0.9373-1.4263 0.9373-2.3636 0-2.2618-1.9561-3.9122-4.6254-3.9122-2.6896 0-4.6458 1.6505-4.6458 3.9326 0 1.3856 0.57053 2.2618 1.8746 2.9546-1.6708 0.89655-2.3636 1.9969-2.3636 3.7085 0 2.7304 2.0988 4.6254 5.1348 4.6254 3.0157 0 5.1144-1.895 5.1144-4.6254 0-1.7116-0.69279-2.8119-2.3636-3.7085m-2.7304-4.5846c1.2633 0 2.1395 0.7743 2.1395 1.895 0 1.1003-0.89656 1.895-2.1395 1.895-1.2633 0-2.1599-0.79468-2.1599-1.9154 0-1.1003 0.87617-1.8746 2.1599-1.8746m-0.0408 5.7257c1.406 0 2.2821 0.9373 2.2821 2.4451 0 1.3856-0.89655 2.3025-2.2821 2.3025s-2.2618-0.91692-2.2618-2.3432c0-1.4671 0.89656-2.4044 2.2618-2.4044"/>
   <path id="path8958" d="m558.22 512.14h-1.5078v-8.884h-3.3621l-5.2774 8.8432v2.4044h5.7868v3.199h2.8527v-3.199h1.51v-2.36m-4.3605 0h-3.7696l3.7696-6.174v6.174"/>
   <path id="path8960" d="m574.79 514.71 0.97805 2.9953h3.1379l-5.1348-14.854h-3.3824l-5.2774 14.854h3.1176l0.99844-2.9953h5.5627m-0.83542-2.547h-3.8715l1.9357-5.8072 1.9357 5.8072"/>
   <path id="path8962" d="m580.86 517.71h5.8072c2.2618 0 3.6881-0.52978 4.6865-1.732 1.1818-1.3856 1.8135-3.4028 1.8135-5.7053 0-2.2821-0.63166-4.2994-1.8135-5.7053-0.99843-1.2022-2.4044-1.7116-4.6865-1.7116h-5.81v14.854m3.0564-2.547v-9.7602h2.7508c2.3025 0 3.4436 1.6097 3.4436 4.8903 0 3.2602-1.1411 4.8699-3.4436 4.8699h-2.7508"/>
   <path id="path8964" d="m596.49 521.78c2.3433-3.5251 3.3213-6.337 3.3213-9.4545 0-3.1379-0.97806-5.9498-3.3213-9.4749h-2.0376c2.1599 4.1975 2.8527 6.4796 2.8527 9.4749 0 2.9749-0.69279 5.2978-2.8527 9.4545h2.0376"/>
  </g>
  <g id="text3431" fill="#3c68ae" transform="matrix(1.0991 0 0 .90986 4.0953 -3.4346)">
   <path id="path8884" d="m463.04 429.87 1.5282-1.5893 4.8699 6.5611h3.6473l-6.5611-8.4561 5.9295-6.3981h-3.6066l-5.8072 6.5204v-6.5204h-3.0564v14.854h3.0564v-4.9718"/>
   <path id="path8886" d="m474.48 423.84v11.003h2.8527v-5.848c0-1.6708 0.83542-2.5063 2.5063-2.5063 0.30565 0 0.50941 0.0204 0.89656 0.0815v-2.8934c-0.16301-0.0204-0.26489-0.0204-0.3464-0.0204-1.3041 0-2.4451 0.8558-3.0564 2.3433v-2.1599h-2.8527"/>
   <path id="path8888" d="m491.79 434.5c-0.5094-0.46865-0.65203-0.77429-0.65203-1.3448v-6.1128c0-2.2414-1.5282-3.3824-4.5031-3.3824s-4.5235 1.2633-4.7069 3.8104h2.7508c0.14264-1.1411 0.61129-1.5078 2.0172-1.5078 1.1003 0 1.6505 0.36677 1.6505 1.1003 0 0.36677-0.18338 0.69279-0.48903 0.8558-0.38714 0.20376-0.38714 0.20376-1.7931 0.4279l-1.1411 0.20376c-2.1802 0.36677-3.2398 1.4875-3.2398 3.464 0 0.9373 0.26489 1.7116 0.77429 2.2618 0.63166 0.65204 1.5893 1.0392 2.5674 1.0392 1.2226 0 2.3433-0.52979 3.3417-1.569 0 0.57053 0.0611 0.7743 0.32602 1.1003h3.0972v-0.34639m-3.4436-4.0752c0 1.6505-0.81505 2.5878-2.2618 2.5878-0.95768 0-1.5486-0.5094-1.5486-1.3244 0-0.8558 0.44828-1.2633 1.6301-1.5078l0.97806-0.18338c0.75392-0.14263 0.87617-0.18339 1.2022-0.3464v0.7743"/>
   <path id="path8890" d="m496.51 428.12v-8.1301h-2.8527v14.854h2.8527v-3.6066l1.1411-1.2429 2.6285 4.8495h3.3417l-4.0141-6.8464 3.7492-4.1567h-3.2398l-3.6066 4.279"/>
   <path id="path8892" d="m514.48 434.5c-0.50941-0.46865-0.65204-0.77429-0.65204-1.3448v-6.1128c0-2.2414-1.5282-3.3824-4.5031-3.3824s-4.5235 1.2633-4.7069 3.8104h2.7508c0.14263-1.1411 0.61128-1.5078 2.0172-1.5078 1.1003 0 1.6505 0.36677 1.6505 1.1003 0 0.36677-0.18339 0.69279-0.48903 0.8558-0.38715 0.20376-0.38715 0.20376-1.7931 0.4279l-1.1411 0.20376c-2.1802 0.36677-3.2398 1.4875-3.2398 3.464 0 0.9373 0.26489 1.7116 0.7743 2.2618 0.63166 0.65204 1.5893 1.0392 2.5674 1.0392 1.2226 0 2.3433-0.52979 3.3417-1.569 0 0.57053 0.0611 0.7743 0.32602 1.1003h3.0972v-0.34639m-3.4436-4.0752c0 1.6505-0.81505 2.5878-2.2618 2.5878-0.95767 0-1.5486-0.5094-1.5486-1.3244 0-0.8558 0.44827-1.2633 1.6301-1.5078l0.97805-0.18338c0.75392-0.14263 0.87618-0.18339 1.2022-0.3464v0.7743"/>
   <path id="path8894" d="m521.28 424.06h-1.5893v-2.9546h-2.8527v2.9546h-1.406v1.895h1.406v6.7649c0 1.732 0.91693 2.5878 2.7915 2.5878 0.63166 0 1.1411-0.0611 1.6505-0.22414v-1.9969c-0.28526 0.0408-0.44827 0.0611-0.65204 0.0611-0.75391 0-0.9373-0.22414-0.9373-1.2022v-5.9906h1.5893v-1.895"/>
   <path id="path8896" d="m532.63 434.5c-0.50941-0.46865-0.65204-0.77429-0.65204-1.3448v-6.1128c0-2.2414-1.5282-3.3824-4.5031-3.3824s-4.5235 1.2633-4.7069 3.8104h2.7508c0.14263-1.1411 0.61128-1.5078 2.0172-1.5078 1.1003 0 1.6505 0.36677 1.6505 1.1003 0 0.36677-0.18339 0.69279-0.48903 0.8558-0.38715 0.20376-0.38715 0.20376-1.7931 0.4279l-1.1411 0.20376c-2.1802 0.36677-3.2398 1.4875-3.2398 3.464 0 0.9373 0.26489 1.7116 0.7743 2.2618 0.63166 0.65204 1.5893 1.0392 2.5674 1.0392 1.2226 0 2.3433-0.52979 3.3417-1.569 0 0.57053 0.0611 0.7743 0.32602 1.1003h3.0972v-0.34639m-3.4436-4.0752c0 1.6505-0.81505 2.5878-2.2618 2.5878-0.95768 0-1.5486-0.5094-1.5486-1.3244 0-0.8558 0.44828-1.2633 1.6301-1.5078l0.97805-0.18338c0.75392-0.14263 0.87618-0.18339 1.2022-0.3464v0.7743"/>
   <path id="path8898" d="m544.31 434.84v-11.003h-2.8527v6.8871c0 1.3041-0.91693 2.1599-2.3025 2.1599-1.2226 0-1.8339-0.65204-1.8339-1.9765v-7.0705h-2.8527v7.6614c0 2.4248 1.3448 3.8104 3.6881 3.8104 1.4875 0 2.4859-0.55016 3.3009-1.7727v1.3041h2.8527"/>
   <path id="path8900" d="m555.54 419.99c-2.3432 3.5251-3.3213 6.337-3.3213 9.4545 0 3.1379 0.97806 5.9498 3.3213 9.4749h2.0376c-2.1599-4.1975-2.8527-6.4796-2.8527-9.4749 0-2.9749 0.69279-5.2978 2.8527-9.4545h-2.04"/>
   <path id="path8902" d="m563.05 424.88v9.9639h2.8527v-14.447h-1.895c-0.44828 1.7116-1.9357 2.5878-4.4216 2.5878v1.895h3.464"/>
   <path id="path8904" d="m577.88 426.98c0.48902-0.26489 0.71316-0.40753 0.9373-0.61129 0.59091-0.55015 0.9373-1.4263 0.9373-2.3636 0-2.2618-1.9561-3.9122-4.6254-3.9122-2.6896 0-4.6458 1.6505-4.6458 3.9326 0 1.3856 0.57053 2.2618 1.8746 2.9546-1.6708 0.89655-2.3636 1.9969-2.3636 3.7085 0 2.7304 2.0988 4.6254 5.1348 4.6254 3.0157 0 5.1144-1.895 5.1144-4.6254 0-1.7116-0.69279-2.8119-2.3636-3.7085m-2.7304-4.5846c1.2633 0 2.1395 0.7743 2.1395 1.895 0 1.1003-0.89656 1.895-2.1395 1.895-1.2633 0-2.1599-0.79467-2.1599-1.9154 0-1.1003 0.87617-1.8746 2.1599-1.8746m-0.0408 5.7257c1.406 0 2.2821 0.93731 2.2821 2.4451 0 1.3856-0.89656 2.3025-2.2821 2.3025-1.3856 0-2.2618-0.91693-2.2618-2.3433 0-1.4671 0.89656-2.4044 2.2618-2.4044"/>
   <path id="path8906" d="m589.22 426.98c0.48902-0.26489 0.71316-0.40753 0.9373-0.61129 0.59091-0.55015 0.9373-1.4263 0.9373-2.3636 0-2.2618-1.9561-3.9122-4.6254-3.9122-2.6896 0-4.6458 1.6505-4.6458 3.9326 0 1.3856 0.57053 2.2618 1.8746 2.9546-1.6708 0.89655-2.3636 1.9969-2.3636 3.7085 0 2.7304 2.0988 4.6254 5.1348 4.6254 3.0157 0 5.1144-1.895 5.1144-4.6254 0-1.7116-0.69279-2.8119-2.3636-3.7085m-2.7304-4.5846c1.2633 0 2.1395 0.7743 2.1395 1.895 0 1.1003-0.89655 1.895-2.1395 1.895-1.2633 0-2.1599-0.79467-2.1599-1.9154 0-1.1003 0.87617-1.8746 2.1599-1.8746m-0.0408 5.7257c1.406 0 2.2821 0.93731 2.2821 2.4451 0 1.3856-0.89655 2.3025-2.2821 2.3025s-2.2618-0.91693-2.2618-2.3433c0-1.4671 0.89655-2.4044 2.2618-2.4044"/>
   <path id="path8908" d="m596.65 428.38c0.99843 0 1.1818 0.0204 1.6708 0.14264 0.95768 0.26489 1.569 1.1003 1.569 2.1599 0 1.2633-0.89656 2.1802-2.1395 2.1802-1.3448 0-2.0784-0.7743-2.1599-2.2618h-2.7712c0.0204 2.8934 1.9154 4.7069 4.8699 4.7069 3.0768 0 5.0533-1.8135 5.0533-4.6254 0-1.6912-0.73354-2.7915-2.3636-3.5862 1.3448-0.83542 1.895-1.7524 1.895-3.0768 0-2.4044-1.7931-3.9326-4.5846-3.9326-1.6505 0-3.036 0.57053-3.8511 1.6301-0.57053 0.71316-0.83542 1.6912-0.83542 2.9749v0.24451h2.6489c0.0204-0.77429 0.0815-1.1614 0.22413-1.5282 0.26489-0.63166 0.91693-1.0188 1.7524-1.0188 1.1411 0 1.7931 0.69279 1.7931 1.895 0 1.4467-0.83543 2.1802-2.5266 2.1802h-0.24451v1.9154"/>
   <path id="path8910" d="m619.43 431.85 0.97805 2.9953h3.1379l-5.1348-14.854h-3.3824l-5.2774 14.854h3.1176l0.99843-2.9953h5.5627m-0.83542-2.547h-3.8715l1.9357-5.8072 1.9357 5.8072"/>
   <path id="path8912" d="m625.52 434.84h5.8072c2.2618 0 3.6881-0.52978 4.6865-1.732 1.1818-1.3856 1.8135-3.4028 1.8135-5.7053 0-2.2821-0.63166-4.2994-1.8135-5.7053-0.99843-1.2022-2.4044-1.7116-4.6865-1.7116h-5.81v14.854m3.0564-2.547v-9.7602h2.7508c2.3025 0 3.4436 1.6097 3.4436 4.8903 0 3.2602-1.1411 4.8699-3.4436 4.8699h-2.7508"/>
   <path id="path8914" d="m641.16 438.92c2.3432-3.5251 3.3213-6.337 3.3213-9.4545 0-3.1379-0.97806-5.9498-3.3213-9.4749h-2.0376c2.1599 4.1975 2.8527 6.4796 2.8527 9.4749 0 2.9749-0.69279 5.2978-2.8527 9.4545h2.0376"/>
  </g>
  <g id="text3437" fill="#995795" transform="matrix(1.0991 0 0 .90986 4.0953 -3.4346)">
   <path id="path8817" d="m273.77 262.62 4.116-14.854h-3.2398l-2.221 11.146-2.4044-11.146h-3.0157l-2.3025 11.125-2.3025-11.125h-3.2398l4.1975 14.854h2.7508l2.4248-11.594 2.4859 11.594h2.7508"/>
   <path id="path8819" d="m292.99 262.62 4.116-14.854h-3.2398l-2.221 11.146-2.4044-11.146h-3.0157l-2.3025 11.125-2.3025-11.125h-3.2398l4.1975 14.854h2.7508l2.4248-11.594 2.4859 11.594h2.7508"/>
   <path id="path8821" d="m301.68 247.77h-3.0564v14.854h3.06v-14.85"/>
   <path id="path8823" d="m307.33 247.77h-3.0564v14.854h3.06v-14.85"/>
   <path id="path8825" d="m315.51 251.62v11.003h2.8527v-6.6019c0-1.3448 0.73355-2.1599 1.9561-2.1599 0.95768 0 1.5486 0.55016 1.5486 1.4263v7.3354h2.8527v-6.6019c0-1.3448 0.73355-2.1599 1.9561-2.1599 0.95767 0 1.5486 0.55016 1.5486 1.4263v7.3354h2.8527v-7.7837c0-2.1395-1.3041-3.4028-3.5047-3.4028-1.3856 0-2.3636 0.48902-3.2194 1.6301-0.52978-1.0392-1.6301-1.6301-2.9953-1.6301-1.2633 0-2.0784 0.4279-3.0157 1.5486v-1.3652h-2.8323"/>
   <path id="path8827" d="m343.07 262.27c-0.50941-0.46865-0.65204-0.77429-0.65204-1.3448v-6.1128c0-2.2414-1.5282-3.3824-4.5031-3.3824s-4.5235 1.2633-4.7069 3.8103h2.7508c0.14263-1.1411 0.61128-1.5078 2.0172-1.5078 1.1003 0 1.6505 0.36677 1.6505 1.1003 0 0.36677-0.18339 0.69279-0.48903 0.8558-0.38715 0.20376-0.38715 0.20376-1.7931 0.4279l-1.1411 0.20376c-2.1802 0.36677-3.2398 1.4875-3.2398 3.464 0 0.9373 0.26489 1.7116 0.7743 2.2618 0.63166 0.65204 1.5893 1.0392 2.5674 1.0392 1.2226 0 2.3433-0.52978 3.3417-1.569 0 0.57054 0.0611 0.7743 0.32602 1.1003h3.0972v-0.3464m-3.4436-4.0752c0 1.6505-0.81505 2.5878-2.2618 2.5878-0.95768 0-1.5486-0.5094-1.5486-1.3244 0-0.8558 0.44828-1.2633 1.6301-1.5078l0.97805-0.18339c0.75392-0.14263 0.87618-0.18338 1.2022-0.34639v0.77429"/>
   <path id="path8829" d="m345.02 251.62v11.003h2.8527v-6.6019c0-1.3041 0.91693-2.1599 2.3025-2.1599 1.2226 0 1.8339 0.67241 1.8339 1.9765v6.7853h2.8527v-7.3762c0-2.4248-1.3448-3.8103-3.6881-3.8103-1.4875 0-2.4859 0.55015-3.3009 1.7727v-1.5893h-2.8527"/>
   <path id="path8831" d="m367.22 262.62v-11.003h-2.8527v6.8871c0 1.3041-0.91693 2.1599-2.3025 2.1599-1.2226 0-1.8338-0.65204-1.8338-1.9765v-7.0705h-2.8527v7.6614c0 2.4248 1.3448 3.8103 3.6881 3.8103 1.4875 0 2.4859-0.55016 3.3009-1.7727v1.3041h2.8527"/>
   <path id="path8833" d="m375.03 251.84h-1.6912v-1.0799c0-0.57053 0.24451-0.8558 0.77429-0.8558 0.24452 0 0.57054 0.0204 0.81505 0.0611v-2.1395c-0.52978-0.0408-1.243-0.0611-1.6301-0.0611-1.895 0-2.8119 0.89655-2.8119 2.7508v1.3244h-1.5486v1.895h1.5486v8.884h2.8527v-8.884h1.6912v-1.895"/>
   <path id="path8835" d="m386.13 262.27c-0.5094-0.46865-0.65204-0.77429-0.65204-1.3448v-6.1128c0-2.2414-1.5282-3.3824-4.5031-3.3824s-4.5235 1.2633-4.7069 3.8103h2.7508c0.14263-1.1411 0.61129-1.5078 2.0172-1.5078 1.1003 0 1.6505 0.36677 1.6505 1.1003 0 0.36677-0.18339 0.69279-0.48903 0.8558-0.38715 0.20376-0.38715 0.20376-1.7931 0.4279l-1.1411 0.20376c-2.1802 0.36677-3.2398 1.4875-3.2398 3.464 0 0.9373 0.2649 1.7116 0.7743 2.2618 0.63166 0.65204 1.5893 1.0392 2.5674 1.0392 1.2226 0 2.3433-0.52978 3.3417-1.569 0 0.57054 0.0611 0.7743 0.32602 1.1003h3.0972v-0.3464m-3.4436-4.0752c0 1.6505-0.81505 2.5878-2.2618 2.5878-0.95767 0-1.5486-0.5094-1.5486-1.3244 0-0.8558 0.44827-1.2633 1.6301-1.5078l0.97806-0.18339c0.75391-0.14263 0.87617-0.18338 1.2022-0.34639v0.77429"/>
   <path id="path8837" d="m397.44 255.73c-0.20376-2.6896-1.9969-4.2994-4.7476-4.2994-3.2806 0-5.1959 2.1599-5.1959 5.9091 0 3.627 1.895 5.7461 5.1552 5.7461 2.6693 0 4.5235-1.6505 4.7884-4.279h-2.7304c-0.36677 1.4263-0.93731 1.9765-2.0376 1.9765-1.4467 0-2.3229-1.3041-2.3229-3.4436 0-1.0392 0.20376-2.0172 0.55016-2.6693 0.32602-0.61128 0.95768-0.9373 1.7727-0.9373 1.1614 0 1.7116 0.55016 2.0376 1.9969h2.7304"/>
   <path id="path8839" d="m404.28 251.84h-1.5893v-2.9545h-2.8527v2.9545h-1.406v1.895h1.406v6.7649c0 1.732 0.91693 2.5878 2.7915 2.5878 0.63166 0 1.1411-0.0611 1.6505-0.22414v-1.9969c-0.28527 0.0408-0.44828 0.0611-0.65204 0.0611-0.75391 0-0.9373-0.22414-0.9373-1.2022v-5.9906h1.5893v-1.895"/>
   <path id="path8841" d="m415.97 262.62v-11.003h-2.8527v6.8871c0 1.3041-0.91692 2.1599-2.3025 2.1599-1.2226 0-1.8339-0.65204-1.8339-1.9765v-7.0705h-2.8527v7.6614c0 2.4248 1.3448 3.8103 3.6881 3.8103 1.4874 0 2.4859-0.55016 3.3009-1.7727v1.3041h2.8527"/>
   <path id="path8843" d="m418.69 251.62v11.003h2.8527v-5.848c0-1.6708 0.83543-2.5063 2.5063-2.5063 0.30564 0 0.50941 0.0204 0.89655 0.0815v-2.8934c-0.16301-0.0204-0.26489-0.0204-0.34639-0.0204-1.3041 0-2.4451 0.8558-3.0564 2.3432v-2.1599h-2.8527"/>
   <path id="path8845" d="m429.54 251.62h-2.8527v11.003h2.85v-11m0-3.8511h-2.8527v2.547h2.8527v-2.547"/>
   <path id="path8847" d="m432.26 251.62v11.003h2.8527v-6.6019c0-1.3041 0.91693-2.1599 2.3025-2.1599 1.2226 0 1.8338 0.67241 1.8338 1.9765v6.7853h2.8527v-7.3762c0-2.4248-1.3448-3.8103-3.6881-3.8103-1.4875 0-2.4859 0.55015-3.3009 1.7727v-1.5893h-2.85"/>
   <path id="path8849" d="m451.74 251.62v1.6912c-0.85579-1.3041-1.7931-1.8746-3.0564-1.8746-2.6082 0-4.5643 2.547-4.5643 5.9498 0 3.4232 1.7931 5.7053 4.5031 5.7053 1.2837 0 2.058-0.38715 3.1176-1.5893v1.4875c0 1.3244-0.99843 2.2414-2.4248 2.2414-1.0799 0-1.7931-0.44827-2.0172-1.2837h-2.9545c0.0204 0.85579 0.34639 1.4467 1.0799 2.058 0.87618 0.71316 2.0988 1.0596 3.79 1.0596 3.3213 0 5.2367-1.4875 5.2367-4.0752v-11.37h-2.71m-2.4451 2.2006c1.4263 0 2.4859 1.4875 2.4859 3.5251 0 1.9969-1.0392 3.3621-2.5266 3.3621-1.3448 0-2.2821-1.3652-2.2821-3.3621 0-2.0784 0.93731-3.5251 2.3229-3.5251"/>
   <path id="path8851" d="m465.68 247.77c-2.3433 3.5251-3.3213 6.337-3.3213 9.4545 0 3.1379 0.97805 5.9498 3.3213 9.4749h2.0376c-2.1599-4.1975-2.8527-6.4796-2.8527-9.4749 0-2.9749 0.69279-5.2978 2.8527-9.4545h-2.04"/>
   <path id="path8853" d="m478.98 255.73c-0.20376-2.6896-1.9969-4.2994-4.7476-4.2994-3.2806 0-5.1959 2.1599-5.1959 5.9091 0 3.627 1.895 5.7461 5.1552 5.7461 2.6693 0 4.5235-1.6505 4.7884-4.279h-2.7304c-0.36677 1.4263-0.93731 1.9765-2.0376 1.9765-1.4467 0-2.3229-1.3041-2.3229-3.4436 0-1.0392 0.20376-2.0172 0.55016-2.6693 0.32601-0.61128 0.95768-0.9373 1.7727-0.9373 1.1614 0 1.7116 0.55016 2.0376 1.9969h2.7304"/>
   <path id="path8855" d="m483.9 251.62h-2.8527v11.003h2.85v-11m0-3.8511h-2.8527v2.547h2.85v-2.547"/>
   <path id="path8857" d="m486.62 251.62v11.003h2.8527v-5.848c0-1.6708 0.83542-2.5063 2.5063-2.5063 0.30564 0 0.50941 0.0204 0.89655 0.0815v-2.8934c-0.16301-0.0204-0.26489-0.0204-0.34639-0.0204-1.3041 0-2.4451 0.8558-3.0564 2.3432v-2.1599h-2.8527"/>
   <path id="path8859" d="m503.89 255.73c-0.20376-2.6896-1.9969-4.2994-4.7476-4.2994-3.2806 0-5.1959 2.1599-5.1959 5.9091 0 3.627 1.895 5.7461 5.1552 5.7461 2.6693 0 4.5235-1.6505 4.7884-4.279h-2.7304c-0.36677 1.4263-0.9373 1.9765-2.0376 1.9765-1.4467 0-2.3229-1.3041-2.3229-3.4436 0-1.0392 0.20376-2.0172 0.55015-2.6693 0.32602-0.61128 0.95768-0.9373 1.7727-0.9373 1.1614 0 1.7116 0.55016 2.0376 1.9969h2.7304"/>
   <path id="path8861" d="m515.28 262.27c-0.5094-0.46865-0.65204-0.77429-0.65204-1.3448v-6.1128c0-2.2414-1.5282-3.3824-4.5031-3.3824s-4.5235 1.2633-4.7069 3.8103h2.7508c0.14263-1.1411 0.61129-1.5078 2.0172-1.5078 1.1003 0 1.6505 0.36677 1.6505 1.1003 0 0.36677-0.18339 0.69279-0.48903 0.8558-0.38715 0.20376-0.38715 0.20376-1.7931 0.4279l-1.1411 0.20376c-2.1802 0.36677-3.2398 1.4875-3.2398 3.464 0 0.9373 0.26489 1.7116 0.7743 2.2618 0.63166 0.65204 1.5893 1.0392 2.5674 1.0392 1.2226 0 2.3433-0.52978 3.3417-1.569 0 0.57054 0.0611 0.7743 0.32602 1.1003h3.0972v-0.3464m-3.4436-4.0752c0 1.6505-0.81505 2.5878-2.2618 2.5878-0.95767 0-1.5486-0.5094-1.5486-1.3244 0-0.8558 0.44827-1.2633 1.6301-1.5078l0.97805-0.18339c0.75392-0.14263 0.87618-0.18338 1.2022-0.34639v0.77429"/>
   <path id="path8863" d="m526.44 252.66v9.9639h2.8527v-14.447h-1.895c-0.44827 1.7116-1.9357 2.5878-4.4216 2.5878v1.895h3.4639"/>
   <path id="path8865" d="m533.71 259.26c0.0611 2.221 1.9357 3.8511 4.4216 3.8511 1.8542 0 3.2602-0.77429 4.116-2.2414 0.75392-1.2837 1.2022-3.464 1.2022-5.7868 0-2.0987-0.34639-3.7696-0.99843-4.8495-0.91692-1.5486-2.3433-2.3636-4.0752-2.3636-2.8934 0-4.8699 2.0784-4.8699 5.094 0 2.9749 1.7524 5.0125 4.3197 5.0125 0.73354 0 1.4263-0.20376 1.8746-0.52978 0.26489-0.18338 0.4279-0.36677 0.89655-0.89655 0 2.7508-0.77429 4.116-2.384 4.116-0.99843 0-1.6912-0.55016-1.7524-1.406h-2.7508m4.5846-9.0674c1.3856 0 2.2414 1.0799 2.2414 2.7712 0 1.5893-0.89655 2.6489-2.2006 2.6489-1.3041 0-2.1191-1.0392-2.1191-2.6896 0-1.6708 0.81505-2.7304 2.0784-2.7304"/>
   <path id="path8867" d="m554.91 257.06h-1.5078v-8.884h-3.3621l-5.2774 8.8432v2.4044h5.7868v3.1991h2.8527v-3.1991h1.51v-2.36m-4.3605 0h-3.7696l3.7696-6.174v6.174"/>
   <path id="path8869" d="m561.18 247.87c-1.5486 0-2.873 0.65204-3.7492 1.8542-0.83542 1.1207-1.2226 2.9749-1.2226 5.7664 0 2.547 0.34639 4.3605 1.0188 5.4608 0.8558 1.3652 2.2618 2.1395 3.953 2.1395 1.569 0 2.8527-0.63166 3.7492-1.8542 0.81504-1.1003 1.2226-2.9749 1.2226-5.6646 0-2.6489-0.32601-4.442-1.0188-5.5627-0.8558-1.3856-2.2618-2.1395-3.953-2.1395m0 2.3025c0.73354 0 1.3244 0.40753 1.6708 1.1614 0.28526 0.61129 0.44827 2.2006 0.44827 4.1771 0 1.6097-0.16301 3.2398-0.36677 3.8103-0.32602 0.8558-0.9373 1.3244-1.7524 1.3244-0.75392 0-1.3244-0.38715-1.6708-1.1207-0.28527-0.61128-0.44828-2.1395-0.44828-4.0549 0-1.6912 0.16301-3.3417 0.36677-3.9326 0.32602-0.87618 0.93731-1.3652 1.7524-1.3652"/>
   <path id="path8871" d="m573.03 255.65h-5.5423v2.7508h5.54v-2.75"/>
   <path id="path8873" d="m584.4 257.06h-1.5078v-8.884h-3.3621l-5.2774 8.8432v2.4044h5.7868v3.1991h2.8527v-3.1991h1.51v-2.36m-4.3605 0h-3.7696l3.7696-6.174v6.174"/>
   <path id="path8875" d="m595.07 248.17h-7.7226l-1.2837 8.0486h2.5674c0.30564-0.71316 0.95768-1.1003 1.8338-1.1003 1.4467 0 2.3229 1.0392 2.3229 2.7915 0 1.6912-0.89655 2.7304-2.3229 2.7304-1.2429 0-1.9357-0.63166-1.9969-1.7931h-2.8119c0.0408 2.5266 1.9561 4.2382 4.768 4.2382 3.0972 0 5.2163-2.1191 5.2163-5.2367 0-2.9545-1.8339-4.9922-4.5031-4.9922-0.95768 0-1.6708 0.24451-2.5063 0.87617l0.46865-3.0157h5.9702v-2.547"/>
   <path id="path8877" d="m612.31 259.62 0.97805 2.9953h3.1379l-5.1348-14.854h-3.3824l-5.2774 14.854h3.1176l0.99843-2.9953h5.5627m-0.83542-2.547h-3.8715l1.9357-5.8072 1.9357 5.8072"/>
   <path id="path8879" d="m618.4 262.62h5.8072c2.2618 0 3.6881-0.52979 4.6865-1.732 1.1818-1.3856 1.8135-3.4028 1.8135-5.7053 0-2.2821-0.63166-4.2994-1.8135-5.7053-0.99843-1.2022-2.4044-1.7116-4.6865-1.7116h-5.81v14.854m3.0564-2.547v-9.7602h2.7508c2.3025 0 3.4436 1.6097 3.4436 4.8903 0 3.2602-1.1411 4.8699-3.4436 4.8699h-2.7508"/>
   <path id="path8881" d="m634.04 266.7c2.3432-3.5251 3.3213-6.337 3.3213-9.4545 0-3.1379-0.97806-5.9498-3.3213-9.4749h-2.0376c2.1599 4.1975 2.8527 6.4796 2.8527 9.4749 0 2.9749-0.69279 5.2978-2.8527 9.4545h2.0376"/>
  </g>
  <g id="text3441" fill="#cf6372" transform="matrix(1.0991 0 0 .90986 4.0953 -3.4346)">
   <path id="path8774" d="m294.37 193.14h-3.0564v14.854h3.06v-14.85"/>
   <path id="path8776" d="m296.97 196.99v11.003h2.8527v-6.6019c0-1.3041 0.91693-2.1599 2.3025-2.1599 1.2226 0 1.8339 0.67241 1.8339 1.9765v6.7853h2.8527v-7.3762c0-2.4248-1.3448-3.8103-3.6881-3.8103-1.4874 0-2.4859 0.55016-3.3009 1.7727v-1.5893h-2.8527"/>
   <path id="path8778" d="m316.39 207.99h2.8527v-14.85h-2.85v5.2774c-0.71317-1.1003-1.6708-1.6097-3.036-1.6097-2.6285 0-4.6254 2.5266-4.6254 5.848 0 1.4875 0.44828 2.9953 1.1818 4.0549 0.75392 1.0596 2.0988 1.7524 3.4436 1.7524 1.3652 0 2.3229-0.50941 3.036-1.5893v1.1207m-2.4044-8.8025c1.4467 0 2.4044 1.406 2.4044 3.5047 0 1.9969-0.97806 3.3824-2.4044 3.3824s-2.4044-1.406-2.4044-3.4232c0-2.0376 0.97805-3.464 2.4044-3.464"/>
   <path id="path8780" d="m331.62 207.99v-11.003h-2.8527v6.8871c0 1.3041-0.91693 2.1599-2.3025 2.1599-1.2226 0-1.8339-0.65204-1.8339-1.9765v-7.0705h-2.8527v7.6614c0 2.4248 1.3448 3.8104 3.6881 3.8104 1.4875 0 2.4859-0.55016 3.3009-1.7727v1.3041h2.8527"/>
   <path id="path8782" d="m343.34 200.53c-0.0408-2.3229-1.8338-3.7288-4.7884-3.7288-2.7915 0-4.5235 1.406-4.5235 3.6677 0 0.73354 0.22414 1.3652 0.61128 1.7931 0.38715 0.38715 0.73355 0.57054 1.7931 0.91693l3.4028 1.0596c0.71317 0.22414 0.95768 0.44828 0.95768 0.89655 0 0.67241-0.79467 1.0799-2.1191 1.0799-0.73354 0-1.3244-0.14264-1.6912-0.38715-0.30564-0.22414-0.4279-0.44828-0.55015-1.0392h-2.7915c0.0815 2.4044 1.8542 3.6677 5.1959 3.6677 1.5282 0 2.6897-0.32602 3.5047-0.97806 0.81505-0.65204 1.3041-1.6708 1.3041-2.7508 0-1.4263-0.71317-2.3433-2.1599-2.7712l-3.6066-1.0392c-0.79467-0.24452-0.99843-0.40753-0.99843-0.8558 0-0.61129 0.65204-1.0188 1.6505-1.0188 1.3652 0 2.0376 0.48903 2.058 1.4875h2.7508"/>
   <path id="path8784" d="m350.53 197.21h-1.5893v-2.9546h-2.8527v2.9546h-1.406v1.895h1.406v6.7649c0 1.732 0.91693 2.5878 2.7915 2.5878 0.63166 0 1.1411-0.0611 1.6505-0.22414v-1.9969c-0.28526 0.0408-0.44827 0.0611-0.65203 0.0611-0.75392 0-0.93731-0.22414-0.93731-1.2022v-5.9906h1.5893v-1.895"/>
   <path id="path8786" d="m352.48 196.99v11.003h2.8527v-5.848c0-1.6708 0.83542-2.5063 2.5063-2.5063 0.30565 0 0.50941 0.0204 0.89656 0.0815v-2.8934c-0.16301-0.0204-0.26489-0.0204-0.3464-0.0204-1.3041 0-2.4451 0.8558-3.0564 2.3433v-2.1599h-2.8527"/>
   <path id="path8788" d="m363.34 196.99h-2.8527v11.003h2.85v-11m0-3.8511h-2.8527v2.547h2.8527v-2.547"/>
   <path id="path8790" d="m375.45 207.64c-0.50941-0.46865-0.65204-0.7743-0.65204-1.3448v-6.1128c0-2.2414-1.5282-3.3824-4.5031-3.3824s-4.5235 1.2633-4.7069 3.8103h2.7508c0.14263-1.1411 0.61128-1.5078 2.0172-1.5078 1.1003 0 1.6505 0.36677 1.6505 1.1003 0 0.36677-0.18339 0.69279-0.48903 0.8558-0.38715 0.20376-0.38715 0.20376-1.7931 0.4279l-1.1411 0.20376c-2.1802 0.36677-3.2398 1.4875-3.2398 3.464 0 0.9373 0.26489 1.7116 0.7743 2.2618 0.63166 0.65204 1.5893 1.0392 2.5674 1.0392 1.2226 0 2.3433-0.52979 3.3417-1.569 0 0.57053 0.0611 0.7743 0.32602 1.1003h3.0972v-0.34639m-3.4436-4.0752c0 1.6505-0.81505 2.5878-2.2618 2.5878-0.95768 0-1.5486-0.50941-1.5486-1.3244 0-0.8558 0.44828-1.2633 1.6301-1.5078l0.97805-0.18338c0.75392-0.14263 0.87618-0.18339 1.2022-0.3464v0.7743"/>
   <path id="path8792" d="m380.33 193.14h-2.8527v14.854h2.85v-14.85"/>
   <path id="path8794" d="m385.98 196.99h-2.8527v11.003h2.85v-11m0-3.8511h-2.8527v2.547h2.8527v-2.547"/>
   <path id="path8796" d="m396.77 196.99h-8.558v2.3025h5.0737l-5.4404 6.3981v2.3025h9.1081v-2.3025h-5.5831l5.3997-6.3981v-2.3"/>
   <path id="path8798" d="m408.28 207.64c-0.5094-0.46865-0.65204-0.7743-0.65204-1.3448v-6.1128c0-2.2414-1.5282-3.3824-4.5031-3.3824s-4.5235 1.2633-4.7069 3.8103h2.7508c0.14263-1.1411 0.61129-1.5078 2.0172-1.5078 1.1003 0 1.6505 0.36677 1.6505 1.1003 0 0.36677-0.18339 0.69279-0.48903 0.8558-0.38715 0.20376-0.38715 0.20376-1.7931 0.4279l-1.1411 0.20376c-2.1802 0.36677-3.2398 1.4875-3.2398 3.464 0 0.9373 0.2649 1.7116 0.7743 2.2618 0.63166 0.65204 1.5893 1.0392 2.5674 1.0392 1.2226 0 2.3433-0.52979 3.3417-1.569 0 0.57053 0.0611 0.7743 0.32602 1.1003h3.0972v-0.34639m-3.4436-4.0752c0 1.6505-0.81505 2.5878-2.2618 2.5878-0.95767 0-1.5486-0.50941-1.5486-1.3244 0-0.8558 0.44827-1.2633 1.6301-1.5078l0.97806-0.18338c0.75391-0.14263 0.87617-0.18339 1.2022-0.3464v0.7743"/>
   <path id="path8800" d="m415.08 197.21h-1.5893v-2.9546h-2.8527v2.9546h-1.406v1.895h1.406v6.7649c0 1.732 0.91693 2.5878 2.7915 2.5878 0.63166 0 1.1411-0.0611 1.6505-0.22414v-1.9969c-0.28527 0.0408-0.44828 0.0611-0.65204 0.0611-0.75392 0-0.9373-0.22414-0.9373-1.2022v-5.9906h1.5893v-1.895"/>
   <path id="path8802" d="m419.97 196.99h-2.8527v11.003h2.85v-11m0-3.8511h-2.8527v2.547h2.8527v-2.547"/>
   <path id="path8804" d="m427.54 196.8c-3.3621 0-5.4201 2.221-5.4201 5.8276 0 3.627 2.058 5.8276 5.4404 5.8276 3.3417 0 5.4404-2.221 5.4404-5.7461 0-3.7288-2.0172-5.9091-5.4608-5.9091m0.0204 2.3025c1.569 0 2.5878 1.406 2.5878 3.5658 0 2.058-1.0596 3.4843-2.5878 3.4843-1.5486 0-2.5878-1.4263-2.5878-3.5251 0-2.0987 1.0392-3.5251 2.5878-3.5251"/>
   <path id="path8806" d="m435.14 196.99v11.003h2.8527v-6.6019c0-1.3041 0.91693-2.1599 2.3025-2.1599 1.2226 0 1.8338 0.67241 1.8338 1.9765v6.7853h2.8527v-7.3762c0-2.4248-1.3448-3.8103-3.6881-3.8103-1.4875 0-2.4859 0.55016-3.3009 1.7727v-1.5893h-2.85"/>
   <path id="path8808" d="m456.1 193.14c-2.3433 3.5251-3.3213 6.337-3.3213 9.4545 0 3.1379 0.97806 5.9498 3.3213 9.4749h2.0376c-2.1599-4.1975-2.8527-6.4796-2.8527-9.4749 0-2.9749 0.69279-5.2978 2.8527-9.4545h-2.04"/>
   <path id="path8810" d="m469.41 201.1c-0.20376-2.6896-1.9969-4.2994-4.7476-4.2994-3.2806 0-5.1959 2.1599-5.1959 5.9091 0 3.627 1.895 5.7461 5.1552 5.7461 2.6693 0 4.5235-1.6505 4.7884-4.279h-2.7304c-0.36677 1.4263-0.93731 1.9765-2.0376 1.9765-1.4467 0-2.3229-1.3041-2.3229-3.4436 0-1.0392 0.20376-2.0172 0.55016-2.6693 0.32601-0.61128 0.95768-0.9373 1.7727-0.9373 1.1614 0 1.7116 0.55016 2.0376 1.9969h2.7304"/>
   <path id="path8812" d="m474.33 196.99h-2.8527v11.003h2.85v-11m0-3.8511h-2.8527v2.547h2.8527v-2.547"/>
   <path id="path8814" d="m477.05 196.99v11.003h2.8527v-5.848c0-1.6708 0.83542-2.5063 2.5063-2.5063 0.30565 0 0.50941 0.0204 0.89656 0.0815v-2.8934c-0.16301-0.0204-0.26489-0.0204-0.3464-0.0204-1.3041 0-2.4451 0.8558-3.0564 2.3433v-2.1599h-2.8527"/>
  </g>
  <g id="text3445" fill="#cf6372" transform="matrix(1.0991 0 0 .90986 4.0953 -3.4346)">
   <path id="path8743" d="m493.88 201.1c-0.20376-2.6896-1.9969-4.2994-4.7476-4.2994-3.2806 0-5.1959 2.1599-5.1959 5.9091 0 3.627 1.895 5.7461 5.1552 5.7461 2.6693 0 4.5235-1.6505 4.7884-4.279h-2.7304c-0.36677 1.4263-0.9373 1.9765-2.0376 1.9765-1.4467 0-2.3229-1.3041-2.3229-3.4436 0-1.0392 0.20377-2.0172 0.55016-2.6693 0.32602-0.61128 0.95768-0.9373 1.7727-0.9373 1.1614 0 1.7116 0.55016 2.0376 1.9969h2.7304"/>
   <path id="path8745" d="m505.26 207.64c-0.50941-0.46865-0.65204-0.7743-0.65204-1.3448v-6.1128c0-2.2414-1.5282-3.3824-4.5031-3.3824s-4.5235 1.2633-4.7069 3.8103h2.7508c0.14263-1.1411 0.61128-1.5078 2.0172-1.5078 1.1003 0 1.6505 0.36677 1.6505 1.1003 0 0.36677-0.18339 0.69279-0.48903 0.8558-0.38715 0.20376-0.38715 0.20376-1.7931 0.4279l-1.1411 0.20376c-2.1802 0.36677-3.2398 1.4875-3.2398 3.464 0 0.9373 0.26489 1.7116 0.7743 2.2618 0.63166 0.65204 1.5893 1.0392 2.5674 1.0392 1.2226 0 2.3433-0.52979 3.3417-1.569 0 0.57053 0.0611 0.7743 0.32602 1.1003h3.0972v-0.34639m-3.4436-4.0752c0 1.6505-0.81505 2.5878-2.2618 2.5878-0.95768 0-1.5486-0.50941-1.5486-1.3244 0-0.8558 0.44827-1.2633 1.6301-1.5078l0.97805-0.18338c0.75392-0.14263 0.87618-0.18339 1.2022-0.3464v0.7743"/>
   <path id="path8747" d="m516.43 198.03v9.9639h2.8527v-14.447h-1.895c-0.44827 1.7116-1.9357 2.5878-4.4216 2.5878v1.895h3.4639"/>
   <path id="path8749" d="m531.26 200.13c0.48903-0.26489 0.71317-0.40753 0.93731-0.61129 0.5909-0.55015 0.9373-1.4263 0.9373-2.3636 0-2.2618-1.9561-3.9122-4.6254-3.9122-2.6896 0-4.6458 1.6505-4.6458 3.9326 0 1.3856 0.57053 2.2618 1.8746 2.9546-1.6708 0.89655-2.3636 1.9969-2.3636 3.7085 0 2.7304 2.0988 4.6254 5.1348 4.6254 3.0157 0 5.1144-1.895 5.1144-4.6254 0-1.7116-0.69279-2.8119-2.3636-3.7085m-2.7304-4.5846c1.2633 0 2.1395 0.7743 2.1395 1.895 0 1.1003-0.89655 1.895-2.1395 1.895-1.2633 0-2.1599-0.79467-2.1599-1.9154 0-1.1003 0.87617-1.8746 2.1599-1.8746m-0.0408 5.7257c1.406 0 2.2821 0.93731 2.2821 2.4451 0 1.3856-0.89656 2.3025-2.2821 2.3025-1.3856 0-2.2618-0.91693-2.2618-2.3433 0-1.4671 0.89655-2.4044 2.2618-2.4044"/>
   <path id="path8751" d="m542.6 200.13c0.48903-0.26489 0.71317-0.40753 0.9373-0.61129 0.59091-0.55015 0.93731-1.4263 0.93731-2.3636 0-2.2618-1.9561-3.9122-4.6254-3.9122-2.6896 0-4.6458 1.6505-4.6458 3.9326 0 1.3856 0.57053 2.2618 1.8746 2.9546-1.6708 0.89655-2.3636 1.9969-2.3636 3.7085 0 2.7304 2.0988 4.6254 5.1348 4.6254 3.0157 0 5.1144-1.895 5.1144-4.6254 0-1.7116-0.6928-2.8119-2.3636-3.7085m-2.7304-4.5846c1.2633 0 2.1395 0.7743 2.1395 1.895 0 1.1003-0.89655 1.895-2.1395 1.895-1.2633 0-2.1599-0.79467-2.1599-1.9154 0-1.1003 0.87618-1.8746 2.1599-1.8746m-0.0408 5.7257c1.406 0 2.2821 0.93731 2.2821 2.4451 0 1.3856-0.89655 2.3025-2.2821 2.3025s-2.2618-0.91693-2.2618-2.3433c0-1.4671 0.89655-2.4044 2.2618-2.4044"/>
   <path id="path8753" d="m551.17 193.24c-1.5486 0-2.873 0.65203-3.7492 1.8542-0.83542 1.1207-1.2226 2.9749-1.2226 5.7664 0 2.547 0.34639 4.3605 1.0188 5.4608 0.85579 1.3652 2.2618 2.1395 3.953 2.1395 1.569 0 2.8527-0.63167 3.7492-1.8542 0.81505-1.1003 1.2226-2.9749 1.2226-5.6646 0-2.6489-0.32602-4.442-1.0188-5.5627-0.8558-1.3856-2.2618-2.1395-3.953-2.1395m0 2.3025c0.73354 0 1.3244 0.40753 1.6708 1.1614 0.28526 0.61129 0.44827 2.2006 0.44827 4.1771 0 1.6097-0.16301 3.2398-0.36677 3.8104-0.32602 0.85579-0.9373 1.3244-1.7524 1.3244-0.75392 0-1.3244-0.38715-1.6708-1.1207-0.28527-0.61129-0.44828-2.1395-0.44828-4.0549 0-1.6912 0.16301-3.3417 0.36677-3.9326 0.32602-0.87617 0.93731-1.3652 1.7524-1.3652"/>
   <path id="path8755" d="m563.02 201.02h-5.5423v2.7508h5.54v-2.75"/>
   <path id="path8757" d="m567.79 196.99h-2.8527v15.445h2.8527v-5.7461c0.69279 1.2226 1.6708 1.7931 3.0564 1.7931 2.6489 0 4.605-2.4859 4.605-5.8276 0-1.5486-0.44827-3.0972-1.1818-4.116-0.73355-1.0392-2.0988-1.732-3.4232-1.732-1.3856 0-2.3636 0.59091-3.0564 1.8135v-1.6301m2.4044 2.2006c1.4467 0 2.4044 1.406 2.4044 3.5047 0 1.9969-0.99843 3.4028-2.4044 3.4028-1.4263 0-2.4044-1.3856-2.4044-3.4436s0.97805-3.464 2.4044-3.464"/>
   <path id="path8759" d="m577.5 196.99v11.003h2.8527v-5.848c0-1.6708 0.83542-2.5063 2.5063-2.5063 0.30564 0 0.5094 0.0204 0.89655 0.0815v-2.8934c-0.16301-0.0204-0.26489-0.0204-0.3464-0.0204-1.3041 0-2.4451 0.8558-3.0564 2.3433v-2.1599h-2.8527"/>
   <path id="path8761" d="m594.81 203.39c0.0204-0.24451 0.0204-0.34639 0.0204-0.48903 0-1.1003-0.16301-2.1191-0.4279-2.8934-0.73354-1.9969-2.5063-3.1991-4.7273-3.1991-3.1583 0-5.094 2.2821-5.094 5.9702 0 3.5251 1.9154 5.685 5.0329 5.685 2.4655 0 4.4624-1.406 5.094-3.5658h-2.8119c-0.34639 0.87617-1.1411 1.3856-2.1802 1.3856-0.81504 0-1.4671-0.3464-1.8746-0.95768-0.26489-0.40753-0.36677-0.89655-0.40752-1.9357h7.3762m-7.3354-1.895c0.18338-1.6708 0.89655-2.5063 2.1599-2.5063 0.71317 0 1.3652 0.3464 1.7727 0.91693 0.26489 0.40752 0.38714 0.83542 0.44827 1.5893h-4.3809"/>
   <path id="path8763" d="m605.76 200.53c-0.0408-2.3229-1.8339-3.7288-4.7884-3.7288-2.7915 0-4.5235 1.406-4.5235 3.6677 0 0.73354 0.22413 1.3652 0.61128 1.7931 0.38715 0.38715 0.73354 0.57054 1.7931 0.91693l3.4028 1.0596c0.71317 0.22414 0.95768 0.44828 0.95768 0.89655 0 0.67241-0.79467 1.0799-2.1191 1.0799-0.73354 0-1.3244-0.14264-1.6912-0.38715-0.30564-0.22414-0.4279-0.44828-0.55016-1.0392h-2.7915c0.0815 2.4044 1.8542 3.6677 5.1959 3.6677 1.5282 0 2.6896-0.32602 3.5047-0.97806 0.81504-0.65204 1.3041-1.6708 1.3041-2.7508 0-1.4263-0.71316-2.3433-2.1599-2.7712l-3.6066-1.0392c-0.79467-0.24452-0.99843-0.40753-0.99843-0.8558 0-0.61129 0.65204-1.0188 1.6505-1.0188 1.3652 0 2.0376 0.48903 2.058 1.4875h2.7508"/>
   <path id="path8765" d="m617.49 203.39c0.0204-0.24451 0.0204-0.34639 0.0204-0.48903 0-1.1003-0.16301-2.1191-0.4279-2.8934-0.73354-1.9969-2.5063-3.1991-4.7273-3.1991-3.1583 0-5.094 2.2821-5.094 5.9702 0 3.5251 1.9154 5.685 5.0329 5.685 2.4655 0 4.4624-1.406 5.094-3.5658h-2.8119c-0.34639 0.87617-1.1411 1.3856-2.1802 1.3856-0.81504 0-1.4671-0.3464-1.8746-0.95768-0.26489-0.40753-0.36678-0.89655-0.40753-1.9357h7.3762m-7.3354-1.895c0.18339-1.6708 0.89656-2.5063 2.1599-2.5063 0.71316 0 1.3652 0.3464 1.7727 0.91693 0.26489 0.40752 0.38715 0.83542 0.44828 1.5893h-4.3809"/>
   <path id="path8767" d="m619.44 196.99v11.003h2.8527v-6.6019c0-1.3041 0.91693-2.1599 2.3025-2.1599 1.2226 0 1.8339 0.67241 1.8339 1.9765v6.7853h2.8527v-7.3762c0-2.4248-1.3448-3.8103-3.6881-3.8103-1.4875 0-2.4859 0.55016-3.3009 1.7727v-1.5893h-2.8527"/>
   <path id="path8769" d="m636.75 197.21h-1.5893v-2.9546h-2.8527v2.9546h-1.406v1.895h1.406v6.7649c0 1.732 0.91693 2.5878 2.7915 2.5878 0.63166 0 1.1411-0.0611 1.6505-0.22414v-1.9969c-0.28527 0.0408-0.44828 0.0611-0.65204 0.0611-0.75391 0-0.9373-0.22414-0.9373-1.2022v-5.9906h1.5893v-1.895"/>
   <path id="path8771" d="m639.91 212.07c2.3433-3.5251 3.3213-6.337 3.3213-9.4545 0-3.1379-0.97805-5.9498-3.3213-9.4749h-2.0376c2.1599 4.1975 2.8527 6.4796 2.8527 9.4749 0 2.9749-0.69279 5.2978-2.8527 9.4545h2.0376"/>
  </g>
  <g id="text3449" fill="#3c68ae" transform="matrix(1.0991 0 0 .90986 4.0953 -3.4346)">
   <path id="path8706" d="m426.2 144.8 2.6693 11.574h3.0564l2.6285-11.574v11.574h3.0564v-14.85h-4.605l-2.6082 11.818-2.6896-11.818h-4.5643v14.854h3.0564v-11.57"/>
   <path id="path8708" d="m444.9 145.59h-1.5893v-2.9545h-2.8527v2.9545h-1.406v1.895h1.406v6.7649c0 1.732 0.91693 2.5878 2.7915 2.5878 0.63166 0 1.1411-0.0611 1.6505-0.22413v-1.9969c-0.28526 0.0408-0.44827 0.0611-0.65203 0.0611-0.75392 0-0.93731-0.22414-0.93731-1.2022v-5.9906h1.5893v-1.895"/>
   <path id="path8710" d="m463.59 146.04c0-1.3652-0.30565-2.2618-1.0392-3.0768-0.99843-1.1003-2.6489-1.6912-4.7884-1.6912-3.5658 0-5.6238 1.6708-5.6238 4.5643 0 2.3025 1.1614 3.4232 4.1771 3.9937l2.0784 0.40753c2.0376 0.38714 2.7915 0.95768 2.7915 2.1599 0 1.2429-1.1411 1.9969-2.9953 1.9969-2.0784 0-3.2398-0.87617-3.3417-2.4655h-2.9749c0.18338 3.1787 2.3636 4.9106 6.1536 4.9106 3.8307 0 6.0925-1.7931 6.0925-4.8088 0-2.3433-1.1818-3.5658-3.9326-4.0956l-2.3229-0.44827c-2.1802-0.4279-2.8119-0.8558-2.8119-1.9357 0-1.1207 0.99843-1.8338 2.5674-1.8338 1.9357 0 3.0157 0.81505 3.1176 2.3229h2.8527"/>
   <path id="path8712" d="m470.94 145.59h-1.5893v-2.9545h-2.8527v2.9545h-1.406v1.895h1.406v6.7649c0 1.732 0.91693 2.5878 2.7915 2.5878 0.63166 0 1.1411-0.0611 1.6505-0.22413v-1.9969c-0.28526 0.0408-0.44827 0.0611-0.65203 0.0611-0.75392 0-0.93731-0.22414-0.93731-1.2022v-5.9906h1.5893v-1.895"/>
   <path id="path8714" d="m487.59 149.63v6.7445h3.0564v-14.854h-3.0768v5.5627h-5.8683v-5.5627h-3.0564v14.854h3.0564v-6.74h5.8887"/>
   <path id="path8716" d="m502.65 151.77c0.0204-0.24451 0.0204-0.3464 0.0204-0.48903 0-1.1003-0.16301-2.1191-0.4279-2.8934-0.73354-1.9969-2.5063-3.1991-4.7273-3.1991-3.1583 0-5.094 2.2821-5.094 5.9702 0 3.5251 1.9154 5.685 5.0329 5.685 2.4655 0 4.4624-1.406 5.094-3.5658h-2.8119c-0.3464 0.87617-1.1411 1.3856-2.1802 1.3856-0.81505 0-1.4671-0.34639-1.8746-0.95768-0.26489-0.40752-0.36677-0.89655-0.40752-1.9357h7.3762m-7.3354-1.895c0.18338-1.6708 0.89655-2.5063 2.1599-2.5063 0.71317 0 1.3652 0.34639 1.7727 0.91693 0.26489 0.40752 0.38714 0.83542 0.44827 1.5893h-4.3809"/>
   <path id="path8718" d="m507.52 141.52h-2.8527v14.854h2.85v-14.85"/>
   <path id="path8720" d="m519.64 151.77c0.0204-0.24451 0.0204-0.3464 0.0204-0.48903 0-1.1003-0.16301-2.1191-0.4279-2.8934-0.73354-1.9969-2.5063-3.1991-4.7273-3.1991-3.1583 0-5.094 2.2821-5.094 5.9702 0 3.5251 1.9154 5.685 5.0329 5.685 2.4655 0 4.4624-1.406 5.094-3.5658h-2.8119c-0.3464 0.87617-1.1411 1.3856-2.1802 1.3856-0.81505 0-1.4671-0.34639-1.8746-0.95768-0.26489-0.40752-0.36677-0.89655-0.40752-1.9357h7.3762m-7.3354-1.895c0.18339-1.6708 0.89655-2.5063 2.1599-2.5063 0.71316 0 1.3652 0.34639 1.7727 0.91693 0.26489 0.40752 0.38715 0.83542 0.44828 1.5893h-4.3809"/>
   <path id="path8722" d="m521.58 145.37v11.003h2.8527v-6.6019c0-1.3041 0.91692-2.1599 2.3025-2.1599 1.2226 0 1.8339 0.67242 1.8339 1.9765v6.7853h2.8527v-7.3762c0-2.4248-1.3448-3.8103-3.6881-3.8103-1.4875 0-2.4859 0.55016-3.3009 1.7727v-1.5893h-2.8527"/>
   <path id="path8724" d="m543.04 148.91c-0.0408-2.3229-1.8338-3.7288-4.7884-3.7288-2.7915 0-4.5235 1.406-4.5235 3.6677 0 0.73354 0.22414 1.3652 0.61128 1.7931 0.38715 0.38715 0.73355 0.57053 1.7931 0.91693l3.4028 1.0596c0.71317 0.22414 0.95768 0.44827 0.95768 0.89655 0 0.67241-0.79467 1.0799-2.1191 1.0799-0.73354 0-1.3244-0.14264-1.6912-0.38715-0.30564-0.22414-0.4279-0.44828-0.55015-1.0392h-2.7915c0.0815 2.4044 1.8542 3.6677 5.1959 3.6677 1.5282 0 2.6897-0.32602 3.5047-0.97805 0.81505-0.65204 1.3041-1.6708 1.3041-2.7508 0-1.4263-0.71317-2.3433-2.1599-2.7712l-3.6066-1.0392c-0.79467-0.24451-0.99843-0.40752-0.99843-0.85579 0-0.61129 0.65204-1.0188 1.6505-1.0188 1.3652 0 2.0376 0.48903 2.058 1.4875h2.7508"/>
   <path id="path8726" d="m553.88 141.52c-2.3433 3.5251-3.3213 6.337-3.3213 9.4545 0 3.1379 0.97806 5.9498 3.3213 9.4749h2.0376c-2.1599-4.1975-2.8527-6.4796-2.8527-9.4749 0-2.9749 0.69279-5.2978 2.8527-9.4545h-2.04"/>
   <path id="path8728" d="m561.37 146.41v9.9639h2.8527v-14.447h-1.895c-0.44827 1.7116-1.9357 2.5878-4.4216 2.5878v1.895h3.464"/>
   <path id="path8730" d="m568.63 153.01c0.0611 2.221 1.9357 3.8511 4.4216 3.8511 1.8542 0 3.2602-0.7743 4.116-2.2414 0.75392-1.2837 1.2022-3.464 1.2022-5.7868 0-2.0987-0.3464-3.7696-0.99844-4.8495-0.91692-1.5486-2.3433-2.3636-4.0752-2.3636-2.8934 0-4.8699 2.0784-4.8699 5.094 0 2.9749 1.7524 5.0125 4.3198 5.0125 0.73354 0 1.4263-0.20376 1.8746-0.52978 0.26489-0.18339 0.4279-0.36677 0.89655-0.89655 0 2.7508-0.77429 4.116-2.384 4.116-0.99843 0-1.6912-0.55016-1.7524-1.406h-2.7508m4.5846-9.0674c1.3856 0 2.2414 1.0799 2.2414 2.7712 0 1.5893-0.89655 2.6489-2.2006 2.6489-1.3041 0-2.1191-1.0392-2.1191-2.6896 0-1.6708 0.81505-2.7304 2.0784-2.7304"/>
   <path id="path8732" d="m587.52 148.51c0.48903-0.26489 0.71316-0.40752 0.9373-0.61128 0.59091-0.55016 0.93731-1.4263 0.93731-2.3636 0-2.2618-1.9561-3.9122-4.6254-3.9122-2.6896 0-4.6458 1.6505-4.6458 3.9326 0 1.3856 0.57054 2.2618 1.8746 2.9545-1.6708 0.89655-2.3636 1.9969-2.3636 3.7085 0 2.7304 2.0987 4.6254 5.1348 4.6254 3.0157 0 5.1144-1.895 5.1144-4.6254 0-1.7116-0.69279-2.8119-2.3636-3.7085m-2.7304-4.5846c1.2633 0 2.1395 0.77429 2.1395 1.895 0 1.1003-0.89655 1.895-2.1395 1.895-1.2633 0-2.1599-0.79467-2.1599-1.9154 0-1.1003 0.87618-1.8746 2.1599-1.8746m-0.0408 5.7257c1.406 0 2.2821 0.9373 2.2821 2.4451 0 1.3856-0.89655 2.3025-2.2821 2.3025s-2.2618-0.91692-2.2618-2.3432c0-1.4671 0.89655-2.4044 2.2618-2.4044"/>
   <path id="path8734" d="m596.07 141.62c-1.5486 0-2.873 0.65204-3.7492 1.8542-0.83542 1.1207-1.2226 2.9749-1.2226 5.7665 0 2.547 0.3464 4.3605 1.0188 5.4608 0.8558 1.3652 2.2618 2.1395 3.953 2.1395 1.569 0 2.8527-0.63166 3.7492-1.8542 0.81504-1.1003 1.2226-2.9749 1.2226-5.6646 0-2.6489-0.32602-4.442-1.0188-5.5627-0.8558-1.3856-2.2618-2.1395-3.953-2.1395m0 2.3025c0.73354 0 1.3244 0.40752 1.6708 1.1614 0.28526 0.61128 0.44827 2.2006 0.44827 4.1771 0 1.6097-0.16301 3.2398-0.36677 3.8103-0.32601 0.8558-0.9373 1.3244-1.7524 1.3244-0.75391 0-1.3244-0.38714-1.6708-1.1207-0.28527-0.61129-0.44828-2.1395-0.44828-4.0549 0-1.6912 0.16301-3.3417 0.36677-3.9326 0.32602-0.87617 0.93731-1.3652 1.7524-1.3652"/>
   <path id="path8736" d="m617.71 153.38 0.97806 2.9953h3.1379l-5.1348-14.854h-3.3824l-5.2774 14.854h3.1176l0.99843-2.9953h5.5627m-0.83542-2.547h-3.8715l1.9357-5.8072 1.9357 5.8072"/>
   <path id="path8738" d="m623.79 156.37h5.8072c2.2618 0 3.6881-0.52978 4.6865-1.732 1.1818-1.3856 1.8135-3.4028 1.8135-5.7053 0-2.2821-0.63166-4.2994-1.8135-5.7053-0.99843-1.2022-2.4044-1.7116-4.6865-1.7116h-5.81v14.854m3.0564-2.547v-9.7602h2.7508c2.3025 0 3.4436 1.6097 3.4436 4.8903 0 3.2602-1.1411 4.8699-3.4436 4.8699h-2.7508"/>
   <path id="path8740" d="m639.41 160.45c2.3433-3.5251 3.3213-6.337 3.3213-9.4545 0-3.1379-0.97806-5.9498-3.3213-9.4749h-2.0376c2.1599 4.1975 2.8527 6.4796 2.8527 9.4749 0 2.9749-0.69279 5.2978-2.8527 9.4545h2.0376"/>
  </g>
  <path id="path3455" d="m721.79 933.57h-585.19v-897.39h585.19v897.39zm-585.2-10.175v10.106m73.154-10.106v10.106m73.153-10.106v10.106m73.153-10.106v10.106m73.154-10.106v10.106m73.154-10.106v10.106m73.154-10.106v10.106m73.152-10.106v10.106m73.154-10.106v10.106m-585.16-897.28v10.106m73.15-10.106v10.106m73.16-10.106v10.106m73.15-10.106v10.106m73.15-10.106v10.106m73.16-10.106v10.106m73.15-10.106v10.106m73.152-10.106v10.106m73.154-10.106v10.106m-585.04 887.2h12.208m-12.208-149.57h12.208m-12.208-149.56h12.208m-12.208-149.57h12.208m-12.208-149.56h12.208m-12.208-149.56h12.208m-12.21-149.56h12.208m560.56 897.39h12.21m-12.21-149.57h12.21m-12.21-149.56h12.21m-12.21-149.57h12.21m-12.21-149.56h12.21m-12.21-149.56h12.21m-12.21-149.56h12.208" stroke="#000" stroke-miterlimit="1" stroke-width="1.0188" fill="none"/>
  <g id="g9295" transform="translate(4.0953,-3.4346)">
   <g id="text3459" transform="scale(1.0991 .90986)">
    <path id="path9139" d="m60.772 49.767h-10.64c0.25674-1.6545 1.1696-2.71 3.6514-4.1648l2.8526-1.5404c2.8241-1.5404 4.2789-3.6228 4.2789-6.1046 0-1.683-0.68463-3.252-1.8827-4.336s-2.6815-1.5975-4.5927-1.5975c-2.5674 0-4.4786 0.91284-5.5911 2.6244-0.71315 1.084-1.0269 2.3391-1.084 4.393h2.5103c0.08558-1.3693 0.25674-2.1965 0.59905-2.8526 0.6561-1.2266 1.9683-1.9683 3.4802-1.9683 2.2821 0 3.9937 1.626 3.9937 3.794 0 1.5975-0.94136 2.9667-2.7385 3.9937l-2.6244 1.4834c-4.2219 2.3962-5.4485 4.3075-5.6767 8.7575h13.464v-2.481"/>
    <path id="path9141" d="m70.043 32.024c-1.8827 0-3.5943 0.82726-4.6498 2.225-1.3122 1.7686-1.9683 4.4786-1.9683 8.2155 0 6.8178 2.2821 10.441 6.6181 10.441 4.2789 0 6.6181-3.6228 6.6181-10.269 0-3.9366-0.62758-6.561-1.9683-8.3867-1.0555-1.4263-2.7385-2.225-4.6498-2.225m0 2.225c2.71 0 4.0507 2.7385 4.0507 8.1585 0 5.7338-1.3122 8.4152-4.1078 8.4152-2.6529 0-3.9937-2.7956-3.9937-8.3296 0-5.5341 1.3407-8.2441 4.0507-8.2441"/>
    <path id="path9143" d="m85.904 32.024c-1.8827 0-3.5943 0.82726-4.6498 2.225-1.3122 1.7686-1.9683 4.4786-1.9683 8.2155 0 6.8178 2.2821 10.441 6.6181 10.441 4.2789 0 6.6181-3.6228 6.6181-10.269 0-3.9366-0.62758-6.561-1.9683-8.3867-1.0555-1.4263-2.7385-2.225-4.6498-2.225m0 2.225c2.71 0 4.0507 2.7385 4.0507 8.1585 0 5.7338-1.3122 8.4152-4.1078 8.4152-2.6529 0-3.9937-2.7956-3.9937-8.3296 0-5.5341 1.3407-8.2441 4.0507-8.2441"/>
    <path id="path9145" d="m101.76 32.024c-1.8827 0-3.5943 0.82726-4.6498 2.225-1.3122 1.7686-1.9683 4.4786-1.9683 8.2155 0 6.8178 2.2821 10.441 6.6181 10.441 4.2789 0 6.6181-3.6228 6.6181-10.269 0-3.9366-0.62757-6.561-1.9683-8.3867-1.0555-1.4263-2.7385-2.225-4.6498-2.225m0 2.225c2.71 0 4.0507 2.7385 4.0507 8.1585 0 5.7338-1.3122 8.4152-4.1078 8.4152-2.6529 0-3.9937-2.7956-3.9937-8.3296 0-5.5341 1.3407-8.2441 4.0507-8.2441"/>
   </g>
   <g id="text3463" transform="scale(1.0991 .90986)">
    <path id="path9148" d="m51.787 202.17v14.406h2.5103v-20.225h-1.6545c-0.88431 3.1094-1.4548 3.5372-5.3344 4.0222v1.7971h4.4786"/>
    <path id="path9150" d="m61.771 211.96c0.48494 3.309 2.6529 5.2774 5.7338 5.2774 2.225 0 4.2504-1.084 5.42-2.8812 1.2837-1.9683 1.8542-4.4501 1.8542-8.13 0-3.3946-0.51347-5.5626-1.7116-7.3598-1.1125-1.626-2.8811-2.5103-5.1062-2.5103-3.851 0-6.6181 2.8526-6.6181 6.8178 0 3.7654 2.5674 6.4184 6.2187 6.4184 1.9113 0 3.309-0.68463 4.6212-2.2536-0.02853 4.935-1.626 7.6736-4.5071 7.6736-1.7686 0-2.9952-1.1125-3.3946-3.0523h-2.51m6.1617-13.407c2.3391 0 4.1078 1.9398 4.1078 4.5642 0 2.4818-1.7401 4.2504-4.1933 4.2504-2.4247 0-3.9366-1.683-3.9366-4.393 0-2.5674 1.7116-4.4216 4.0222-4.4216"/>
    <path id="path9152" d="m89.698 196.35h-10.441l-1.5119 11.011h2.3106c1.1696-1.3978 2.1395-1.8827 3.7084-1.8827 2.71 0 4.4216 1.8542 4.4216 4.8494 0 2.9097-1.683 4.6783-4.4216 4.6783-2.1965 0-3.5372-1.1125-4.1363-3.3946h-2.5103c0.34231 1.6545 0.62758 2.4532 1.2266 3.1949 1.141 1.5404 3.1949 2.4247 5.477 2.4247 4.0792 0 6.9319-2.9667 6.9319-7.2456 0-3.9937-2.6529-6.7322-6.5325-6.7322-1.4263 0-2.5674 0.37084-3.7369 1.2266l0.79873-5.6482h8.4152v-2.4818"/>
    <path id="path9154" d="m99.825 196.35c-1.8827 0-3.5943 0.82727-4.6498 2.225-1.3122 1.7686-1.9683 4.4786-1.9683 8.2155 0 6.8178 2.2821 10.441 6.6181 10.441 4.2789 0 6.6181-3.6228 6.6181-10.269 0-3.9366-0.62758-6.561-1.9683-8.3867-1.0555-1.4263-2.7385-2.225-4.6498-2.225m0 2.225c2.71 0 4.0507 2.7385 4.0507 8.1585 0 5.7338-1.3122 8.4152-4.1078 8.4152-2.6529 0-3.9937-2.7956-3.9937-8.3296 0-5.5341 1.3407-8.2441 4.0507-8.2441"/>
   </g>
   <g id="text3467" transform="scale(1.0991 .90986)">
    <path id="path9157" d="m51.787 366.51v14.406h2.5103v-20.225h-1.6545c-0.88431 3.1094-1.4548 3.5372-5.3344 4.0222v1.7972h4.4786"/>
    <path id="path9159" d="m61.771 376.29c0.48494 3.309 2.6529 5.2773 5.7338 5.2773 2.225 0 4.2504-1.084 5.42-2.8811 1.2837-1.9683 1.8542-4.4501 1.8542-8.13 0-3.3946-0.51347-5.5626-1.7116-7.3598-1.1125-1.626-2.8811-2.5103-5.1062-2.5103-3.851 0-6.6181 2.8526-6.6181 6.8178 0 3.7654 2.5674 6.4184 6.2187 6.4184 1.9113 0 3.309-0.68463 4.6212-2.2536-0.02853 4.935-1.626 7.6735-4.5071 7.6735-1.7686 0-2.9952-1.1125-3.3946-3.0523h-2.51m6.1617-13.407c2.3391 0 4.1078 1.9398 4.1078 4.5642 0 2.4818-1.7401 4.2504-4.1933 4.2504-2.4247 0-3.9366-1.683-3.9366-4.393 0-2.5674 1.7116-4.4216 4.0222-4.4216"/>
    <path id="path9161" d="m83.964 360.69c-1.8827 0-3.5943 0.82726-4.6498 2.225-1.3122 1.7686-1.9683 4.4786-1.9683 8.2155 0 6.8178 2.2821 10.441 6.6181 10.441 4.2789 0 6.6181-3.6228 6.6181-10.269 0-3.9366-0.62758-6.561-1.9683-8.3867-1.0555-1.4263-2.7385-2.225-4.6498-2.225m0 2.225c2.71 0 4.0507 2.7385 4.0507 8.1585 0 5.7338-1.3122 8.4152-4.1078 8.4152-2.6529 0-3.9937-2.7956-3.9937-8.3296 0-5.5341 1.3407-8.2441 4.0507-8.2441"/>
    <path id="path9163" d="m99.825 360.69c-1.8827 0-3.5943 0.82726-4.6498 2.225-1.3122 1.7686-1.9683 4.4786-1.9683 8.2155 0 6.8178 2.2821 10.441 6.6181 10.441 4.2789 0 6.6181-3.6228 6.6181-10.269 0-3.9366-0.62758-6.561-1.9683-8.3867-1.0555-1.4263-2.7385-2.225-4.6498-2.225m0 2.225c2.71 0 4.0507 2.7385 4.0507 8.1585 0 5.7338-1.3122 8.4152-4.1078 8.4152-2.6529 0-3.9937-2.7956-3.9937-8.3296 0-5.5341 1.3407-8.2441 4.0507-8.2441"/>
   </g>
   <g id="text3471" transform="scale(1.0991 .90986)">
    <path id="path9166" d="m51.787 530.84v14.406h2.5103v-20.225h-1.6545c-0.88431 3.1094-1.4548 3.5372-5.3344 4.0222v1.7972h4.4786"/>
    <path id="path9168" d="m71.413 534.6c2.0824-1.2552 2.767-2.2821 2.767-4.1934 0-3.1664-2.4818-5.3914-6.0761-5.3914-3.5658 0-6.0761 2.225-6.0761 5.3914 0 1.8827 0.68463 2.9097 2.7385 4.1934-2.3106 1.1125-3.4517 2.7956-3.4517 5.0206 0 3.7084 2.7956 6.2758 6.7892 6.2758 3.9937 0 6.7892-2.5674 6.7892-6.2472 0-2.2536-1.141-3.9366-3.4802-5.0491m-3.309-7.3598c2.1395 0 3.5087 1.2552 3.5087 3.2235 0 1.8827-1.3978 3.1379-3.5087 3.1379s-3.5087-1.2552-3.5087-3.1664c0-1.9398 1.3978-3.1949 3.5087-3.1949m0 8.4723c2.5103 0 4.2219 1.5975 4.2219 3.9651 0 2.3962-1.7116 3.9937-4.2789 3.9937-2.4532 0-4.1648-1.626-4.1648-3.9937s1.7116-3.9651 4.2219-3.9651"/>
    <path id="path9170" d="m89.698 525.02h-10.441l-1.5119 11.011h2.3106c1.1696-1.3978 2.1395-1.8827 3.7084-1.8827 2.71 0 4.4216 1.8542 4.4216 4.8494 0 2.9097-1.683 4.6783-4.4216 4.6783-2.1965 0-3.5372-1.1125-4.1363-3.3946h-2.5103c0.34231 1.6545 0.62758 2.4532 1.2266 3.1949 1.141 1.5404 3.1949 2.4247 5.477 2.4247 4.0792 0 6.9319-2.9667 6.9319-7.2456 0-3.9937-2.6529-6.7322-6.5325-6.7322-1.4263 0-2.5674 0.37084-3.7369 1.2266l0.79873-5.6482h8.4152v-2.4818"/>
    <path id="path9172" d="m99.825 525.02c-1.8827 0-3.5943 0.82727-4.6498 2.225-1.3122 1.7686-1.9683 4.4786-1.9683 8.2155 0 6.8178 2.2821 10.441 6.6181 10.441 4.2789 0 6.6181-3.6228 6.6181-10.269 0-3.9366-0.62758-6.561-1.9683-8.3867-1.0555-1.4263-2.7385-2.225-4.6498-2.225m0 2.225c2.71 0 4.0507 2.7385 4.0507 8.1585 0 5.7338-1.3122 8.4152-4.1078 8.4152-2.6529 0-3.9937-2.7956-3.9937-8.3296 0-5.5341 1.3407-8.2441 4.0507-8.2441"/>
   </g>
   <g id="text3475" transform="scale(1.0991 .90986)">
    <path id="path9175" d="m51.787 695.17v14.406h2.5103v-20.225h-1.6545c-0.88431 3.1094-1.4548 3.5372-5.3344 4.0222v1.7972h4.4786"/>
    <path id="path9177" d="m71.413 698.93c2.0824-1.2552 2.767-2.2821 2.767-4.1934 0-3.1664-2.4818-5.3914-6.0761-5.3914-3.5658 0-6.0761 2.225-6.0761 5.3914 0 1.8827 0.68463 2.9097 2.7385 4.1934-2.3106 1.1125-3.4517 2.7956-3.4517 5.0206 0 3.7084 2.7956 6.2758 6.7892 6.2758 3.9937 0 6.7892-2.5674 6.7892-6.2472 0-2.2536-1.141-3.9366-3.4802-5.0491m-3.309-7.3598c2.1395 0 3.5087 1.2552 3.5087 3.2235 0 1.8827-1.3978 3.1379-3.5087 3.1379s-3.5087-1.2552-3.5087-3.1664c0-1.9398 1.3978-3.1949 3.5087-3.1949m0 8.4723c2.5103 0 4.2219 1.5975 4.2219 3.9651 0 2.3962-1.7116 3.9937-4.2789 3.9937-2.4532 0-4.1648-1.626-4.1648-3.9937s1.7116-3.9651 4.2219-3.9651"/>
    <path id="path9179" d="m83.964 689.35c-1.8827 0-3.5943 0.82726-4.6498 2.225-1.3122 1.7686-1.9683 4.4786-1.9683 8.2155 0 6.8178 2.2821 10.441 6.6181 10.441 4.2789 0 6.6181-3.6228 6.6181-10.269 0-3.9366-0.62758-6.561-1.9683-8.3867-1.0555-1.4263-2.7385-2.225-4.6498-2.225m0 2.225c2.71 0 4.0507 2.7385 4.0507 8.1585 0 5.7338-1.3122 8.4152-4.1078 8.4152-2.6529 0-3.9937-2.7956-3.9937-8.3296 0-5.5341 1.3407-8.2441 4.0507-8.2441"/>
    <path id="path9181" d="m99.825 689.35c-1.8827 0-3.5943 0.82726-4.6498 2.225-1.3122 1.7686-1.9683 4.4786-1.9683 8.2155 0 6.8178 2.2821 10.441 6.6181 10.441 4.2789 0 6.6181-3.6228 6.6181-10.269 0-3.9366-0.62758-6.561-1.9683-8.3867-1.0555-1.4263-2.7385-2.225-4.6498-2.225m0 2.225c2.71 0 4.0507 2.7385 4.0507 8.1585 0 5.7338-1.3122 8.4152-4.1078 8.4152-2.6529 0-3.9937-2.7956-3.9937-8.3296 0-5.5341 1.3407-8.2441 4.0507-8.2441"/>
   </g>
   <g id="text3479" transform="scale(1.0991 .90986)">
    <path id="path9184" d="m51.787 859.5v14.406h2.5103v-20.225h-1.6545c-0.88431 3.1094-1.4548 3.5372-5.3344 4.0222v1.7972h4.4786"/>
    <path id="path9186" d="m75.111 853.68h-13.521v2.4818h10.926c-4.8209 6.8748-6.7892 11.097-8.3011 17.743h2.6815c1.1125-6.4754 3.6514-12.038 8.2155-18.114v-2.1109"/>
    <path id="path9188" d="m89.735 853.68h-10.441l-1.5119 11.011h2.3106c1.1696-1.3978 2.1395-1.8827 3.7084-1.8827 2.71 0 4.4216 1.8542 4.4216 4.8494 0 2.9097-1.683 4.6783-4.4216 4.6783-2.1965 0-3.5372-1.1125-4.1363-3.3946h-2.5103c0.34231 1.6545 0.62758 2.4532 1.2266 3.1949 1.141 1.5404 3.1949 2.4247 5.477 2.4247 4.0792 0 6.9319-2.9667 6.9319-7.2456 0-3.9937-2.6529-6.7322-6.5325-6.7322-1.4263 0-2.5674 0.37084-3.7369 1.2266l0.79873-5.6482h8.4152v-2.4818"/>
    <path id="path9190" d="m99.88 853.68c-1.8827 0-3.5943 0.82726-4.6498 2.225-1.3122 1.7686-1.9683 4.4786-1.9683 8.2155 0 6.8178 2.2821 10.441 6.6181 10.441 4.2789 0 6.6181-3.6228 6.6181-10.269 0-3.9366-0.62758-6.561-1.9683-8.3867-1.0555-1.4263-2.7385-2.225-4.6498-2.225m0 2.225c2.71 0 4.0507 2.7385 4.0507 8.1585 0 5.7338-1.3122 8.4152-4.1078 8.4152-2.6529 0-3.9937-2.7956-3.9937-8.3296 0-5.5341 1.3407-8.2441 4.0507-8.2441"/>
   </g>
   <g id="text3483" transform="scale(1.0991 .90986)">
    <path id="path9193" d="m51.787 1026.3v14.406h2.5103v-20.225h-1.6545c-0.88431 3.1093-1.4548 3.5372-5.3344 4.0222v1.7971h4.4786"/>
    <path id="path9195" d="m75.111 1020.5h-13.521v2.4818h10.926c-4.8209 6.8748-6.7892 11.097-8.3011 17.743h2.6815c1.1125-6.4754 3.6514-12.038 8.2155-18.114v-2.1109"/>
    <path id="path9197" d="m84.001 1020.5c-1.8827 0-3.5943 0.8272-4.6498 2.225-1.3122 1.7686-1.9683 4.4786-1.9683 8.2156 0 6.8177 2.2821 10.44 6.6181 10.44 4.2789 0 6.6181-3.6228 6.6181-10.269 0-3.9366-0.62758-6.561-1.9683-8.3867-1.0555-1.4263-2.7385-2.225-4.6498-2.225m0 2.225c2.71 0 4.0507 2.7385 4.0507 8.1585 0 5.7338-1.3122 8.4152-4.1078 8.4152-2.6529 0-3.9937-2.7955-3.9937-8.3296s1.3407-8.2441 4.0507-8.2441"/>
    <path id="path9199" d="m99.88 1020.5c-1.8827 0-3.5943 0.8272-4.6498 2.225-1.3122 1.7686-1.9683 4.4786-1.9683 8.2156 0 6.8177 2.2821 10.44 6.6181 10.44 4.2789 0 6.6181-3.6228 6.6181-10.269 0-3.9366-0.62758-6.561-1.9683-8.3867-1.0555-1.4263-2.7385-2.225-4.6498-2.225m0 2.225c2.71 0 4.0507 2.7385 4.0507 8.1585 0 5.7338-1.3122 8.4152-4.1078 8.4152-2.6529 0-3.9937-2.7955-3.9937-8.3296s1.3407-8.2441 4.0507-8.2441"/>
   </g>
  </g>
  <g id="text3517" transform="matrix(0 -.90986 1.0991 0 4.0953 -3.4346)">
   <path id="path9122" d="m-610.62 20.567 8.9328-14.442h-3.6188l-6.7811 11.573-6.9767-11.573h-3.7492l9.161 14.442v9.324h3.0319v-9.324"/>
   <path id="path9124" d="m-595.52 19.067h12.943v-2.673h-12.94v-7.5964h13.432v-2.6733h-16.464v23.766h17.051v-2.673h-14.019v-8.1503"/>
   <path id="path9126" d="m-564.29 22.751 2.4451 7.1397h3.3905l-8.346-23.766h-3.9122l-8.4764 23.766h3.2275l2.5103-7.1397h9.161m-0.84764-2.5429h-7.5635l3.9122-10.824 3.6514 10.824"/>
   <path id="path9128" d="m-551.93 19.654h7.8243c2.7059 0 3.9122 1.3041 3.9122 4.2382l-0.0326 2.1191c0 1.4671 0.26081 2.9015 0.68463 3.8796h3.684v-0.74983c-1.141-0.78243-1.3692-1.6301-1.4345-4.7924-0.0326-3.9122-0.65203-5.0858-3.2275-6.1943 2.6733-1.3041 3.7492-2.9667 3.7492-5.6726 0-4.1078-2.5755-6.3573-7.2375-6.3573h-10.954v23.766h3.0319v-10.237m0-2.6733v-8.1829h7.3353c1.6953 0 2.6733 0.26081 3.4231 0.91284 0.81504 0.68463 1.2388 1.7605 1.2388 3.1949 0 2.8037-1.4345 4.0752-4.662 4.0752h-7.3353"/>
   <path id="path9130" d="m-517.7 6.1244c-3.2601 4.2708-5.314 10.204-5.314 15.323 0 5.151 2.0539 11.084 5.314 15.355h1.7931c-2.8689-4.662-4.4664-10.139-4.4664-15.355 0-5.1836 1.5975-10.693 4.4664-15.323h-1.79"/>
   <path id="path9132" d="m-499.09 22.751 2.4451 7.1397h3.3905l-8.346-23.766h-3.9122l-8.4764 23.766h3.2275l2.5103-7.1397h9.161m-0.84764-2.5429h-7.5635l3.9122-10.824 3.6514 10.824"/>
   <path id="path9134" d="m-489.89 29.891h9.161c5.9986 0 9.6826-4.499 9.6826-11.899 0-7.3679-3.6514-11.867-9.6826-11.867h-9.161v23.766m3.0319-2.6733v-18.42h5.6074c4.6946 0 7.1723 3.1623 7.1723 9.2262 0 5.9986-2.4777 9.1936-7.1723 9.1936h-5.6074"/>
   <path id="path9136" d="m-466.22 36.802c3.2601-4.2708 5.314-10.204 5.314-15.323 0-5.151-2.0539-11.084-5.314-15.355h-1.7931c2.8689 4.662 4.4664 10.139 4.4664 15.355 0 5.1836-1.5975 10.693-4.4664 15.323h1.7931"/>
  </g>
  <path id="path3535" fill="#cbcbcb" d="m675.68 899.45h-216.1v-67.667h216.1v67.667z"/>
  <path id="path3537" fill="#fff" d="m669.23 894.12h-216.1v-67.667h216.1v67.667z"/>
  <path id="path3539" d="m669.23 894.12h-216.1v-67.667h216.1v67.667z" stroke="#000" stroke-width="2.0376" fill="none"/>
  <path id="path3541" d="m496.82 875.3-4.3389 3.59-4.3388-3.59 4.3388-3.5919 4.3389 3.5919zm1.7954-23.391h-12.269v-10.158h12.269v10.158z" stroke="#000" stroke-width="2.0376" fill="none"/>
  <g id="g3543" transform="matrix(4.1855,0,0,-3.465,-322.89,1866.8)">
   <text id="text3545" transform="matrix(1,0,0,-1,201.53,292.09)">
    <tspan id="tspan3547" font-size="6.4204px" y="0" x="0 3.5697646 7.1395292 10.709294 14.279058 16.06394 19.27416 22.843925 24.981932" font-family="Helvetica" fill="#000000">1998 core</tspan>
   </text>
   <text id="text3549" transform="matrix(1,0,0,-1,201.53,284.33)">
    <tspan id="tspan3551" font-size="6.4204px" y="0" x="0 3.5697646 7.1395292 10.709294 14.279058 16.06394 19.27416 22.843925 24.981932" font-family="Helvetica" fill="#000000">1991 core</tspan>
   </text>
   <g id="g3553" fill="none" stroke="#000" transform="matrix(.53503 0 0 .53503 9.2805 185.68)">
    <path id="path3555" d="m187.8 185.65h8.9863l13.151 6.3565-4.1645 4.8222-5.0411 3.2871 8.1099 9.8633-3.0688 3.7266 4.3837 4.164-5.4794 73.863-0.43849 4.3838-5.6988 3.0684 7.6714 0.21966 3.7261 12.712 10.959 11.616 60.274 2.8496-62.905 6.1377-14.247 4.1641-8.7671 9.2051 1.0962 21.261 2.6299 4.8223 1.0962 3.2871-1.7534 3.7265 23.671 2.6298-18.192 3.2882-1.7534 3.9452 44.932 3.5069 26.959 2.8486 25.863 4.3838-48.439 3.7261-4.3838 2.411-1.5342 3.9448 1.9727 3.9453-8.3286 2.6304 2.4106 3.7261 27.398 3.2876-0.87653 2.6298 26.301 2.8497 2.4111 4.1645-16 2.4107-19.068 3.5068-29.808 5.0415-23.453 1.5342 0.877 3.2876-2.4112 2.1919-1.5341 2.6298 29.37 5.6988 15.342 1.5342 104.55 2.1919-37.041 3.2876-85.481 1.9726-4.6025 1.7534-6.356 17.753 4.1641 2.1919 5.2602 12.712-10.082 12.274 2.6299 6.1366 21.48 6.1372 1.9721 1.7534-1.0957 11.178-0.43842 7.8908-5.479 1.5341-8.3291-0.21918-7.6714 1.0957 7.6714 4.1647 31.781 1.9725-17.535 2.6299-3.2876 3.7261 6.3565 2.8496 16.657 1.7534-1.0957 3.2876-5.6987 2.4106 2.4111 2.4112 35.507 2.6302-11.616 2.8492 7.0137 5.6992 8.7671 4.8219 7.4517 0.21911 5.4795 3.2876 4.165 2.6299 12.273 1.7534 17.316 1.3154 69.261 3.0684-23.891 1.9726h-56.329l-13.15 3.0684 13.808 2.1919 7.0147 3.5068-58.083 3.5069-25.863 2.4106 9.8627 2.8496 15.562 3.2877-4.3833 2.6303-8.5479 0.21924h-84.611"/>
    <path id="path3557" d="m210.78 209.65-1.9375-1.9365-1.9375 1.9365 1.9375 1.9375 1.9375-1.9375zm-8.5478-9.4238-1.9375-1.9366-1.9375 1.9366 1.9375 1.9375 1.9375-1.9375zm5.4785-4.1651-1.9366-1.9365-1.9375 1.9365 1.9375 1.9375 1.9366-1.9375zm3.7265-3.7256-1.9375-1.9365-1.9375 1.9365 1.9375 1.9375 1.9375-1.9375zm-12.713-7.2334-1.9365-1.9365-1.9375 1.9365 1.9375 1.9375 1.9365-1.9375zm9.2061 28.274-1.9375-1.9366-1.9375 1.9366 1.9375 1.9375 1.9375-1.9375zm3.2881 3.7265-1.9375-1.9365-1.9375 1.9365 1.9375 1.9375 1.9375-1.9375zm-4.1641 73.863-1.9375-1.9365-1.9375 1.9365 1.9375 1.9375 1.9375-1.9375zm-6.5762 8.1094-1.9365-1.9365-1.9375 1.9365 1.9375 1.9375 1.9365-1.9375zm5.918-1.9727-1.9375-1.9365-1.9375 1.9365 1.9375 1.9375 1.9375-1.9375zm2.1914 3.0684-1.9365-1.9365-1.9375 1.9365 1.9375 1.9375 1.9365-1.9375zm13.37 22.356-1.9365-1.9365-1.9375 1.9365 1.9375 1.9375 1.9365-1.9375zm1.3155 1.0957-1.9375-1.9365-1.9375 1.9365 1.9375 1.9375 1.9375-1.9375zm59.397 3.2881-1.9375-1.9365-1.9375 1.9365 1.9375 1.9375 1.9375-1.9375zm-76.932 9.6436-1.9375-1.9365-1.9375 1.9365 1.9375 1.9375 1.9375-1.9375zm-7.8906 30.904-1.9375-1.9365-1.9375 1.9365 1.9375 1.9375 1.9375-1.9375zm1.9726 4.3838-1.9375-1.9366-1.9375 1.9366 1.9375 1.9375 1.9375-1.9375zm2.1914 3.2871-1.9365-1.9365-1.9375 1.9365 1.9375 1.9375 1.9365-1.9375zm-1.9726 3.9452-1.9366-1.9365-1.9375 1.9365 1.9375 1.9375 1.9366-1.9375zm23.672 3.2882-1.9375-1.9365-1.9375 1.9365 1.9375 1.9375 1.9375-1.9375zm-17.973 3.2871-1.9375-1.9365-1.9375 1.9365 1.9375 1.9375 1.9375-1.9375zm-2.4111 3.9452-1.9375-1.9365-1.9375 1.9365 1.9375 1.9375 1.9375-1.9375zm45.37 3.0684-1.9375-1.9366-1.9375 1.9366 1.9375 1.9375 1.9375-1.9375zm26.739 3.7265-1.9365-1.9365-1.9375 1.9365 1.9375 1.9375 1.9365-1.9375zm24.986 3.5069-1.9366-1.9366-1.9375 1.9366 1.9375 1.9375 1.9366-1.9375zm-46.904 3.5068-1.9366-1.9365-1.9375 1.9365 1.9375 1.9375 1.9366-1.9375zm-4.6026 2.8496-1.9365-1.9375-1.9375 1.9375 1.9375 1.9375 1.9365-1.9375zm-2.4111 3.5068-1.9365-1.9375-1.9375 1.9375 1.9375 1.9375 1.9365-1.9375zm1.7539 3.7256-1.9375-1.9365-1.9375 1.9365 1.9375 1.9375 1.9375-1.9375zm-7.6709 2.6309-1.9375-1.9375-1.9375 1.9375 1.9375 1.9375 1.9375-1.9375zm1.5342 3.5068-1.9375-1.9375-1.9375 1.9375 1.9375 1.9375 1.9375-1.9375zm28.712 3.5069-1.9365-1.9375-1.9375 1.9375 1.9375 1.9375 1.9365-1.9375zm-0.65723 2.8486-1.9375-1.9365-1.9375 1.9365 1.9375 1.9375 1.9375-1.9375zm25.644 3.9453-1.9375-1.9365-1.9375 1.9365 1.9375 1.9375 1.9375-1.9375zm2.1914 3.2881-1.9365-1.9375-1.9375 1.9375 1.9375 1.9375 1.9365-1.9375zm-16.219 2.6299-1.9375-1.9375-1.9375 1.9375 1.9375 1.9375 1.9375-1.9375zm-18.631 3.0683-1.9365-1.9365-1.9375 1.9365 1.9375 1.9375 1.9365-1.9375zm-28.055 4.6026-1.9365-1.9366-1.9375 1.9366 1.9375 1.9375 1.9365-1.9375zm-24.767 2.1923-1.9375-1.9375-1.9375 1.9375 1.9375 1.9375 1.9375-1.9375zm0.65728 3.2872-1.9375-1.9366-1.9375 1.9366 1.9375 1.9375 1.9375-1.9375zm0 1.5341-1.9375-1.9365-1.9375 1.9365 1.9375 1.9375 1.9375-1.9375zm-4.3838 3.2881-1.9366-1.9375-1.9375 1.9375 1.9375 1.9375 1.9366-1.9375zm3.2881 0-1.9375-1.9375-1.9375 1.9375 1.9375 1.9375 1.9375-1.9375zm41.644 7.0137-1.9365-1.9365-1.9375 1.9365 1.9375 1.9375 1.9365-1.9375zm-17.753 7.6709-1.9375-1.9365-1.9375 1.9365 1.9375 1.9375 1.9375-1.9375zm-4.8223 1.9727-1.9365-1.9366-1.9375 1.9366 1.9375 1.9375 1.9365-1.9375zm-5.2598 17.754-1.9375-1.9375-1.9375 1.9375 1.9375 1.9375 1.9375-1.9375zm3.5069 1.0957-1.9375-1.9375-1.9375 1.9375 1.9375 1.9375 1.9375-1.9375zm4.6025 13.589-1.9365-1.9365-1.9375 1.9365 1.9375 1.9375 1.9365-1.9375zm-9.2051 12.274-1.9375-1.9375-1.9375 1.9375 1.9375 1.9376 1.9375-1.9376zm1.9727 5.4796-1.9375-1.9376-1.9375 1.9376 1.9375 1.9374 1.9375-1.9374zm22.137 6.794-1.9365-1.9364-1.9375 1.9364 1.9375 1.9375 1.9365-1.9375zm0.43852 12.493-1.9365-1.9365-1.9375 1.9365 1.9375 1.9375 1.9365-1.9375zm0 7.2334-1.9365-1.9374-1.9375 1.9374 1.9375 1.9375 1.9365-1.9375zm-7.4512 1.753-1.9375-1.9366-1.9375 1.9366 1.9375 1.9375 1.9375-1.9375zm1.5342 1.3154-1.9375-1.9365-1.9375 1.9365 1.9375 1.9375 1.9375-1.9375zm79.121-83.945-1.9356-1.9365-1.9375 1.9365 1.9375 1.9375 1.9356-1.9375zm36.164-2.6299-1.9356-1.9365-1.9375 1.9365 1.9375 1.9375 1.9356-1.9375z"/>
    <path id="path3559" d="m274.16 626.41h-5.4794v5.4795h5.48v-5.48zm10.302 1.7535h-5.4795v5.4794h5.4795v-5.4794zm4.1641-3.7261h-5.4795v5.4794h5.4795v-5.4794zm-15.781-2.192h-5.4795v5.4795h5.4795v-5.4795zm-10.301-4.3838h-5.4795v5.4795h5.4795v-5.4795zm26.082-2.1914h-5.4795v5.4795h5.4795v-5.4795zm57.644-3.0688h-5.4795v5.4794h5.4795v-5.4794zm-6.5752-3.5068h-5.4795v5.4795h5.4795v-5.4795zm-1.0957-4.8218h-5.4795v5.4796h5.4795v-5.4796zm-12.274 2.192h-5.4795v5.4795h5.4795v-5.4795zm22.795-7.8906h-5.4795v5.4795h5.4795v-5.4795zm-28.493-2.1919h-5.4795v5.4795h5.4795v-5.4795zm-3.9454-3.5068h-5.4796v5.4796h5.4796v-5.4796zm-2.8486-3.5069h-5.4795v5.4796h5.4795v-5.4796zm-2.8496 1.3156h-5.4795v5.4795h5.4795v-5.4795zm-2.8496-1.7535h-5.4795v5.4795h5.4795v-5.4795zm-5.041 0.43798h-5.4795v5.4796h5.4795v-5.4796zm-0.65771-1.3149h-5.4795v5.4795h5.4795v-5.4795zm-1.7535-0.21917h-5.4795v5.4794h5.4795v-5.4794zm-7.2329-2.63h-5.4795v5.4796h5.4795v-5.4796zm1.0962-2.1919h-5.4795v5.4795h5.4795v-5.4795zm-1.0962 0h-5.4795v5.4795h5.4795v-5.4795zm-6.1367-3.9452h-5.4795v5.4796h5.4795v-5.4796zm10.74-3.0684h-5.4795v5.4795h5.4795v-5.4795zm-34.85-2.1919h-5.4794v5.4795h5.4794v-5.4795zm-2.4111-3.2876h-5.4795v5.4795h5.4795v-5.4795zm6.1372-2.4111h-5.4795v5.4795h5.4795v-5.4795zm0.65772-2.6299h-5.4795v5.4795h5.4795v-5.4795zm-2.1919-10.959h-5.4794v5.4795h5.4794v-5.4795zm-20.384 8.1094h-5.4795v5.4795h5.4795v-5.4795zm0-2.6299h-5.4795v5.4795h5.4795v-5.4795zm2.4111-2.6304h-5.4795v5.4796h5.4795v-5.4796zm-21.699-6.1366h-5.4795v5.4795h5.4795v-5.4795zm-5.4795-8.1098h-5.4795v5.4794h5.4795v-5.4794zm6.1367 2.6303h-5.4795v5.4795h5.4795v-5.4795zm8.3291 2.6299h-5.4795v5.4795h5.4795v-5.4795zm160.44 55.233h-5.4795v5.4795h5.4795v-5.4795zm24.109-2.6299h-5.4795v5.4795h5.4795v-5.4795z"/>
   </g>
  </g>
  <g id="text7106" fill="#3c68ae" transform="matrix(1.0991 0 0 .90986 4.0953 -3.4346)">
   <path id="path8967" d="m218.46 564.79v10.066c0 1.7931-0.91692 2.6489-2.8323 2.6489s-2.8323-0.8558-2.8323-2.6489v-10.07h-3.0564v10.066c0 1.6708 0.44828 2.8527 1.4467 3.7492 1.0799 0.97806 2.6489 1.5078 4.442 1.5078s3.3621-0.52978 4.442-1.5078c0.99843-0.89655 1.4467-2.0784 1.4467-3.7492v-10.07h-3.06"/>
   <path id="path8969" d="m224.2 568.64v11.003h2.8527v-6.6019c0-1.3041 0.91693-2.1599 2.3025-2.1599 1.2226 0 1.8339 0.67241 1.8339 1.9765v6.7853h2.8527v-7.3762c0-2.4248-1.3448-3.8103-3.6881-3.8103-1.4875 0-2.4859 0.55016-3.3009 1.7727v-1.5893h-2.8527"/>
   <path id="path8971" d="m239.43 572.92v-8.1301h-2.8527v14.854h2.8527v-3.6066l1.1411-1.243 2.6285 4.8495h3.3417l-4.0141-6.8464 3.7492-4.1567h-3.2398l-3.6066 4.279"/>
   <path id="path8973" d="m248 568.64v11.003h2.8527v-6.6019c0-1.3041 0.91693-2.1599 2.3025-2.1599 1.2226 0 1.8338 0.67241 1.8338 1.9765v6.7853h2.8527v-7.3762c0-2.4248-1.3448-3.8103-3.6881-3.8103-1.4875 0-2.4859 0.55016-3.3009 1.7727v-1.5893h-2.85"/>
   <path id="path8975" d="m265.31 568.46c-3.3621 0-5.42 2.221-5.42 5.8276 0 3.627 2.058 5.8276 5.4404 5.8276 3.3417 0 5.4404-2.221 5.4404-5.7461 0-3.7288-2.0172-5.9091-5.4608-5.9091m0.0204 2.3025c1.569 0 2.5878 1.406 2.5878 3.5658 0 2.058-1.0596 3.4843-2.5878 3.4843-1.5486 0-2.5878-1.4263-2.5878-3.5251 0-2.0987 1.0392-3.5251 2.5878-3.5251"/>
   <path id="path8977" d="m284.12 579.65 3.1176-11.003h-2.9546l-1.6708 7.7022-1.6505-7.7022h-2.8527l-1.6708 7.7022-1.7524-7.7022h-2.9545l3.0972 11.003h2.9342l1.7524-7.7633 1.6505 7.7633h2.9546"/>
   <path id="path8979" d="m288.75 568.64v11.003h2.8527v-6.6019c0-1.3041 0.91692-2.1599 2.3025-2.1599 1.2226 0 1.8339 0.67241 1.8339 1.9765v6.7853h2.8527v-7.3762c0-2.4248-1.3448-3.8103-3.6881-3.8103-1.4874 0-2.4859 0.55016-3.3009 1.7727v-1.5893h-2.8527"/>
  </g>
  <path id="path9042" d="m273.63 951.03v13.107h2.759v-18.402h-1.8184c-0.97192 2.829-1.599 3.2184-5.8629 3.6595v1.6352h4.9223"/>
  <path id="path9044" d="m291.58 945.74c-2.0692 0-3.9504 0.75264-5.1104 2.0244-1.4422 1.6092-2.1633 4.0749-2.1633 7.4749 0 6.2032 2.5082 9.4995 7.2737 9.4995 4.7029 0 7.2738-3.2962 7.2738-9.3437 0-3.5817-0.68976-5.9696-2.1633-7.6307-1.16-1.2977-3.0098-2.0244-5.1104-2.0244m0 2.0244c2.9785 0 4.452 2.4916 4.452 7.4231 0 5.2168-1.4422 7.6566-4.5147 7.6566-2.9158 0-4.3893-2.5436-4.3893-7.5788s1.4736-7.501 4.452-7.501"/>
  <path id="path9047" d="m346.78 951.03v13.107h2.759v-18.402h-1.8184c-0.97192 2.829-1.599 3.2184-5.8629 3.6595v1.6352h4.9223"/>
  <path id="path9049" d="m371.03 945.74h-11.475l-1.6617 10.019h2.5395c1.2854-1.2718 2.3514-1.7131 4.0758-1.7131 2.9785 0 4.8596 1.6871 4.8596 4.4124 0 2.6474-1.8498 4.2566-4.8596 4.2566-2.4141 0-3.8877-1.0122-4.5461-3.0886h-2.759c0.37623 1.5054 0.68976 2.2321 1.3482 2.9069 1.2541 1.4016 3.5115 2.2061 6.0196 2.2061 4.4834 0 7.6186-2.6993 7.6186-6.5925 0-3.6337-2.9158-6.1253-7.1797-6.1253-1.5676 0-2.8217 0.33737-4.1072 1.116l0.87786-5.1391h9.2489v-2.258"/>
  <path id="path9052" d="m427.67 961.88h-11.694c0.28216-1.5054 1.2854-2.4657 4.0131-3.7894l3.1352-1.4015c3.1039-1.4016 4.7028-3.2962 4.7028-5.5543 0-1.5313-0.75246-2.9589-2.0692-3.9452-1.3168-0.98629-2.9471-1.4534-5.0477-1.4534-2.8217 0-4.9223 0.83052-6.1451 2.3878-0.7838 0.98629-1.1287 2.1282-1.1914 3.997h2.759c0.0941-1.2459 0.28216-1.9985 0.6584-2.5955 0.7211-1.116 2.1633-1.7909 3.825-1.7909 2.5082 0 4.3893 1.4794 4.3893 3.452 0 1.4534-1.0346 2.6993-3.0098 3.6336l-2.8844 1.3497c-4.6402 2.1802-5.9883 3.9191-6.2391 7.9681h14.798v-2.2581"/>
  <path id="path9054" d="m437.88 945.74c-2.0692 0-3.9504 0.75264-5.1104 2.0244-1.4422 1.6092-2.1633 4.0749-2.1633 7.4749 0 6.2032 2.5082 9.4995 7.2737 9.4995 4.7029 0 7.2738-3.2962 7.2738-9.3437 0-3.5817-0.68975-5.9696-2.1633-7.6307-1.16-1.2977-3.0098-2.0244-5.1104-2.0244m0 2.0244c2.9785 0 4.452 2.4916 4.452 7.4231 0 5.2168-1.4422 7.6566-4.5147 7.6566-2.9158 0-4.3893-2.5436-4.3893-7.5788s1.4736-7.501 4.452-7.501"/>
  <path id="path9057" d="m500.82 961.88h-11.694c0.28217-1.5054 1.2854-2.4657 4.0131-3.7894l3.1352-1.4015c3.1039-1.4016 4.7029-3.2962 4.7029-5.5543 0-1.5313-0.75246-2.9589-2.0693-3.9452-1.3168-0.98629-2.9471-1.4534-5.0477-1.4534-2.8217 0-4.9223 0.83052-6.1451 2.3878-0.78381 0.98629-1.1287 2.1282-1.1914 3.997h2.759c0.0941-1.2459 0.28217-1.9985 0.6584-2.5955 0.7211-1.116 2.1633-1.7909 3.825-1.7909 2.5082 0 4.3893 1.4794 4.3893 3.452 0 1.4534-1.0346 2.6993-3.0098 3.6336l-2.8844 1.3497c-4.6401 2.1802-5.9883 3.9191-6.2391 7.9681h14.798v-2.2581"/>
  <path id="path9059" d="m517.33 945.74h-11.475l-1.6617 10.019h2.5395c1.2854-1.2718 2.3514-1.7131 4.0758-1.7131 2.9785 0 4.8596 1.6871 4.8596 4.4124 0 2.6474-1.8498 4.2566-4.8596 4.2566-2.4141 0-3.8877-1.0122-4.5461-3.0886h-2.759c0.37622 1.5054 0.68976 2.2321 1.3482 2.9069 1.2541 1.4016 3.5114 2.2061 6.0196 2.2061 4.4834 0 7.6186-2.6993 7.6186-6.5925 0-3.6337-2.9158-6.1253-7.1797-6.1253-1.5676 0-2.8217 0.33737-4.1072 1.116l0.87786-5.1391h9.2489v-2.258"/>
  <path id="path9062" d="m565.03 955.7h0.34488l1.16-0.0264c3.0412 0 4.6088 1.142 4.6088 3.3482 0 2.31-1.7244 3.6856-4.6088 3.6856-3.0098 0-4.4834-1.2459-4.6715-3.9192h-2.759c0.12541 1.4794 0.43893 2.4398 0.97193 3.2703 1.1287 1.765 3.3233 2.6734 6.3645 2.6734 4.5774 0 7.5246-2.2581 7.5246-5.736 0-2.3359-1.0973-3.6336-3.7623-4.3863 2.0692-0.67484 3.1039-1.9726 3.1039-3.8153 0-3.1665-2.5395-5.0612-6.7721-5.0612-4.4834 0-6.8662 2.0244-6.9602 5.9436h2.759c0.0313-1.1161 0.15676-1.739 0.50164-2.31 0.62704-1.0122 2.0066-1.6351 3.7309-1.6351 2.4455 0 3.919 1.1939 3.919 3.1405 0 1.2977-0.56435 2.0764-1.7871 2.4917-0.75245 0.25949-1.7244 0.3633-3.6682 0.38923v1.9466"/>
  <path id="path9064" d="m584.17 945.74c-2.0693 0-3.9504 0.75264-5.1104 2.0244-1.4422 1.6092-2.1633 4.0749-2.1633 7.4749 0 6.2032 2.5082 9.4995 7.2738 9.4995 4.7028 0 7.2737-3.2962 7.2737-9.3437 0-3.5817-0.68975-5.9696-2.1633-7.6307-1.16-1.2977-3.0098-2.0244-5.1104-2.0244m0 2.0244c2.9785 0 4.452 2.4916 4.452 7.4231 0 5.2168-1.4422 7.6566-4.5147 7.6566-2.9158 0-4.3893-2.5436-4.3893-7.5788s1.4736-7.501 4.452-7.501"/>
  <path id="path9067" d="m638.18 955.7h0.34488l1.16-0.0264c3.0412 0 4.6088 1.142 4.6088 3.3482 0 2.31-1.7244 3.6856-4.6088 3.6856-3.0098 0-4.4834-1.2459-4.6715-3.9192h-2.759c0.12542 1.4794 0.43894 2.4398 0.97192 3.2703 1.1287 1.765 3.3234 2.6734 6.3645 2.6734 4.5774 0 7.5246-2.2581 7.5246-5.736 0-2.3359-1.0973-3.6336-3.7623-4.3863 2.0692-0.67484 3.1039-1.9726 3.1039-3.8153 0-3.1665-2.5395-5.0612-6.7721-5.0612-4.4834 0-6.8662 2.0244-6.9602 5.9436h2.759c0.0313-1.1161 0.15676-1.739 0.50163-2.31 0.62705-1.0122 2.0066-1.6351 3.7309-1.6351 2.4455 0 3.919 1.1939 3.919 3.1405 0 1.2977-0.56435 2.0764-1.7871 2.4917-0.75245 0.25949-1.7244 0.3633-3.6682 0.38923v1.9466"/>
  <path id="path9069" d="m663.63 945.74h-11.475l-1.6617 10.019h2.5395c1.2854-1.2718 2.3514-1.7131 4.0758-1.7131 2.9785 0 4.8596 1.6871 4.8596 4.4124 0 2.6474-1.8498 4.2566-4.8596 4.2566-2.4141 0-3.8877-1.0122-4.5461-3.0886h-2.759c0.37623 1.5054 0.68976 2.2321 1.3482 2.9069 1.2541 1.4016 3.5115 2.2061 6.0196 2.2061 4.4834 0 7.6186-2.6993 7.6186-6.5925 0-3.6337-2.9158-6.1253-7.1797-6.1253-1.5676 0-2.8217 0.33737-4.1072 1.116l0.87786-5.1391h9.2489v-2.258"/>
  <path id="path9072" d="m714.65 959.73v4.4123h2.759v-4.41h3.292v-2.0505h-3.292v-11.939h-2.0379l-10.095 11.576v2.4139h9.3744m0-2.0505h-6.9602l6.9602-8.046v8.046"/>
  <path id="path9074" d="m730.47 945.74c-2.0693 0-3.9504 0.75264-5.1104 2.0244-1.4422 1.6092-2.1633 4.0749-2.1633 7.4749 0 6.2032 2.5082 9.4995 7.2738 9.4995 4.7028 0 7.2737-3.2962 7.2737-9.3437 0-3.5817-0.68976-5.9696-2.1633-7.6307-1.16-1.2977-3.0098-2.0244-5.1104-2.0244m0 2.0244c2.9785 0 4.452 2.4916 4.452 7.4231 0 5.2168-1.4422 7.6566-4.5147 7.6566-2.9158 0-4.3893-2.5436-4.3893-7.5788s1.4736-7.501 4.452-7.501"/>
  <path id="path9077" d="m137.72 945.74c-2.0692 0-3.9504 0.7526-5.1104 2.0244-1.4422 1.6092-2.1633 4.0749-2.1633 7.475 0 6.2032 2.5082 9.4994 7.2737 9.4994 4.7028 0 7.2738-3.2962 7.2738-9.3437 0-3.5817-0.68976-5.9695-2.1633-7.6307-1.16-1.2977-3.0098-2.0244-5.1104-2.0244m0 2.0244c2.9785 0 4.452 2.4917 4.452 7.4231 0 5.2169-1.4422 7.6567-4.5147 7.6567-2.9158 0-4.3893-2.5436-4.3893-7.5788s1.4736-7.501 4.452-7.501"/>
  <path id="path9080" d="m215.37 945.74h-11.475l-1.6617 10.018h2.5395c1.2854-1.2718 2.3514-1.713 4.0758-1.713 2.9785 0 4.8596 1.687 4.8596 4.4123 0 2.6474-1.8498 4.2566-4.8596 4.2566-2.4141 0-3.8877-1.0122-4.5461-3.0886h-2.759c0.37623 1.5054 0.68976 2.2321 1.3482 2.9069 1.2541 1.4016 3.5115 2.2061 6.0196 2.2061 4.4834 0 7.6186-2.6992 7.6186-6.5924 0-3.6337-2.9158-6.1254-7.1797-6.1254-1.5676 0-2.8217 0.3374-4.1072 1.1161l0.87786-5.1391h9.2489v-2.258"/>
  <g id="g9332" transform="translate(8.2766,16.909)">
   <g id="text3521" transform="scale(1.0991 .90986)">
    <path id="path9115" d="m214.79 1090.9h7.7917v-2.6733h-18.648v2.6733h7.8243v21.093h3.0319v-21.1"/>
    <path id="path9117" d="m235.86 1087.9c-6.8137 0-11.443 5.0207-11.443 12.454 0 7.4331 4.6294 12.454 11.476 12.454 2.8689 0 5.4444-0.8803 7.3679-2.5103 2.5755-2.1843 4.1078-5.8683 4.1078-9.7478 0-7.6613-4.5316-12.649-11.508-12.649m0 2.6734c5.151 0 8.4764 3.9121 8.4764 9.9108 0 5.7378-3.4232 9.65-8.4438 9.65-5.0532 0-8.4438-3.9122-8.4438-9.7804 0-5.8683 3.3905-9.7804 8.4112-9.7804"/>
    <path id="path9119" d="m260.06 1090.9h7.7917v-2.6733h-18.648v2.6733h7.8243v21.093h3.0319v-21.1"/>
   </g>
   <g id="text3525" transform="scale(1.0991 .90986)">
    <path id="path9098" d="m282.84 1104.9 2.4451 7.1397h3.3905l-8.3459-23.766h-3.9122l-8.4764 23.766h3.2275l2.5103-7.1397h9.161m-0.84763-2.543h-7.5635l3.9122-10.824 3.6514 10.824"/>
    <path id="path9100" d="m294.81 1088.3h-3.0319v23.766h14.768v-2.6734h-11.736v-21.093"/>
    <path id="path9102" d="m331.61 1112 6.6833-19.92v19.9h2.8689v-23.766h-4.2056l-6.9115 20.702-7.0419-20.702h-4.2056v23.8h2.8689v-19.92l6.7485 19.92h3.1949"/>
    <path id="path9104" d="m349.51 1101.2h12.943v-2.6733h-12.94v-7.5961h13.432v-2.6733h-16.464v23.766h17.051v-2.6734h-14.02v-8.1503"/>
    <path id="path9106" d="m371.38 1101.8h7.8243c2.7059 0 3.9122 1.3041 3.9122 4.2382l-0.0326 2.1191c0 1.4671 0.26081 2.9015 0.68462 3.8796h3.684v-0.7499c-1.141-0.7824-1.3693-1.6301-1.4345-4.7924-0.0326-3.9121-0.65203-5.0858-3.2275-6.1942 2.6733-1.3041 3.7492-2.9668 3.7492-5.6727 0-4.1077-2.5755-6.3572-7.2375-6.3572h-10.954v23.766h3.0319v-10.237m0-2.6733v-8.1829h7.3353c1.6953 0 2.6733 0.2608 3.4232 0.9128 0.81503 0.6846 1.2388 1.7605 1.2388 3.1949 0 2.8038-1.4345 4.0752-4.662 4.0752h-7.3353"/>
    <path id="path9108" d="m410.46 1095.6c-0.94544-5.2162-3.9448-7.7592-9.161-7.7592-3.1949 0-5.7704 1.0107-7.5309 2.9668-2.1517 2.3473-3.3253 5.7378-3.3253 9.5848 0 3.9121 1.2062 7.2701 3.4557 9.5848 1.8257 1.8908 4.173 2.7711 7.2701 2.7711 5.803 0 9.0632-3.1298 9.7804-9.4218h-3.1297c-0.26081 1.6301-0.58682 2.7385-1.0758 3.6839-0.97804 1.9561-2.9993 3.0646-5.5422 3.0646-4.7272 0-7.7265-3.7818-7.7265-9.7152 0-6.0965 2.8689-9.8456 7.4657-9.8456 1.9235 0 3.7166 0.5868 4.6946 1.4996 0.88024 0.8151 1.3693 1.8257 1.7279 3.5862h3.0971"/>
    <path id="path9110" d="m430.44 1088.3v16.692c0 3.1949-2.3147 5.151-6.129 5.151-1.7605 0-3.1949-0.4238-4.336-1.2389-1.1736-0.9128-1.7279-2.1191-1.7279-3.9121v-16.7h-3.0319v16.692c0 4.825 3.4558 7.8243 9.0958 7.8243 5.5748 0 9.161-3.0645 9.161-7.8243v-16.7h-3.0319"/>
    <path id="path9112" d="m442.06 1101.8h7.8243c2.7059 0 3.9122 1.3041 3.9122 4.2382l-0.0326 2.1191c0 1.4671 0.26082 2.9015 0.68463 3.8796h3.684v-0.7499c-1.141-0.7824-1.3693-1.6301-1.4345-4.7924-0.0326-3.9121-0.65203-5.0858-3.2275-6.1942 2.6733-1.3041 3.7492-2.9668 3.7492-5.6727 0-4.1077-2.5755-6.3572-7.2375-6.3572h-10.954v23.766h3.0319v-10.237m0-2.6733v-8.1829h7.3353c1.6953 0 2.6733 0.2608 3.4232 0.9128 0.81503 0.6846 1.2388 1.7605 1.2388 3.1949 0 2.8038-1.4345 4.0752-4.662 4.0752h-7.3353"/>
   </g>
   <g id="text3529" transform="scale(1.0991 .90986)">
    <path id="path9083" d="m470.36 1102.7 8.9328-14.442h-3.6188l-6.7811 11.573-6.9767-11.573h-3.7492l9.161 14.442v9.324h3.0319v-9.324"/>
    <path id="path9085" d="m496.26 1088.3c-3.2601 4.2707-5.314 10.204-5.314 15.323 0 5.151 2.0539 11.084 5.314 15.355h1.7931c-2.8689-4.6619-4.4664-10.139-4.4664-15.355 0-5.1836 1.5975-10.693 4.4664-15.323h-1.79"/>
    <path id="path9087" d="m501.73 1094.9v17.083h2.7385v-9.4218c0-3.4884 1.8257-5.7705 4.6294-5.7705 2.1517 0 3.521 1.3041 3.521 3.358v11.834h2.7059v-12.91c0-2.8363-2.1191-4.662-5.4118-4.662-2.5429 0-4.173 0.9781-5.6726 3.358v-2.869h-2.5103"/>
    <path id="path9089" d="m531.03 1094.9v2.4777c-1.3692-2.0212-3.0319-2.9667-5.2162-2.9667-4.336 0-7.2701 3.7818-7.2701 9.324 0 2.8037 0.74984 5.0858 2.1517 6.7159 1.2714 1.4344 3.0971 2.2821 4.8902 2.2821 2.1517 0 3.6514-0.9129 5.1836-3.0645v0.8802c0 2.3147-0.29341 3.7165-0.97804 4.662-0.71723 1.0106-2.1191 1.5975-3.7818 1.5975-1.2388 0-2.3473-0.3261-3.0971-0.9129-0.61942-0.489-0.88023-0.9454-1.0432-1.9561h-2.7711c0.29341 3.2276 2.8037 5.151 6.8137 5.151 2.5429 0 4.7272-0.815 5.8356-2.1842 1.304-1.5649 1.7931-3.7166 1.7931-7.7266v-14.279h-2.5103m-4.9228 2.0213c2.9341 0 4.662 2.4777 4.662 6.7485 0 4.0752-1.7605 6.5529-4.6294 6.5529-2.9667 0-4.7598-2.5103-4.7598-6.6507 0-4.1078 1.8257-6.6507 4.7272-6.6507"/>
    <path id="path9091" d="m543.21 1088.3-7.7265 24.418h1.7931l7.7265-24.418h-1.79"/>
    <path id="path9093" d="m550.43 1088.3h-3.0319v23.766h14.768v-2.6734h-11.736v-21.093"/>
    <path id="path9095" d="m565.97 1118.9c3.2601-4.2707 5.314-10.204 5.314-15.323 0-5.151-2.0539-11.084-5.314-15.355h-1.7931c2.8689 4.662 4.4664 10.139 4.4664 15.355 0 5.1836-1.5975 10.693-4.4664 15.323h1.7931"/>
   </g>
  </g>
 </g>
 <metadata>
  <rdf:RDF>
   <cc:Work>
    <dc:format>image/svg+xml</dc:format>
    <dc:type rdf:resource="http://purl.org/dc/dcmitype/StillImage"/>
    <cc:license rdf:resource="http://creativecommons.org/licenses/publicdomain/"/>
    <dc:publisher>
     <cc:Agent rdf:about="http://openclipart.org/">
      <dc:title>Openclipart</dc:title>
     </cc:Agent>
    </dc:publisher>
   </cc:Work>
   <cc:License rdf:about="http://creativecommons.org/licenses/publicdomain/">
    <cc:permits rdf:resource="http://creativecommons.org/ns#Reproduction"/>
    <cc:permits rdf:resource="http://creativecommons.org/ns#Distribution"/>
    <cc:permits rdf:resource="http://creativecommons.org/ns#DerivativeWorks"/>
   </cc:License>
  </rdf:RDF>
 </metadata>
</svg>
