<?xml version="1.0" encoding="UTF-8" standalone="no"?>
<svg xmlns:svg="http://www.w3.org/2000/svg" xmlns="http://www.w3.org/2000/svg" version="1.0" width="1666.5" height="2099.5" viewBox="0 0 1666.5 2099.5" xml:space="preserve">
<g transform="translate(50,50)">
<polygon points="275,376 270.5,376.5 268.5,372 304.5,290.5 312,293.5 275,376" />
<polygon points="171.5,365 172.5,357.5 268.5,372 270.5,376.5 268,380 171.5,365" />
<polygon points="93,218.5 102,222.5 122,315.5 114,317 93,218.5" />
<polygon points="223,143.5 221.5,153.5 102,222.5 93,218.5 223,143.5" />
<polygon points="221.5,153.5 223,143.5 297,210.5 292,216.5 221.5,153.5" />
<polygon points="484.5,497 486.5,501 484.5,505 345,505 342.5,501 345,497 484.5,497" />
<polygon points="563.5,625.5 554,625.5 484.5,505 486.5,501 491.5,501 563.5,625.5" />
<polygon points="491.5,750.5 486.5,750.5 484.5,746.5 554,625.5 563.5,625.5 491.5,750.5" />
<polygon points="345,754.5 342.5,750.5 345,746.5 484.5,746.5 486.5,750.5 484.5,754.5 345,754.5" />
<polygon points="266,625.5 275.5,625.5 345,746.5 342.5,750.5 338,750.5 266,625.5" />
<polygon points="275.5,625.5 266,625.5 338,501 342.5,501 345,505 275.5,625.5" />
<polygon points="634,998 630.5,1000 627,1002 555,877 558.5,875 562,873 634,998" />
<polygon points="849,1120.5 844.5,1128.5 705,1128.5 702.5,1124.5 705,1120.5 849,1120.5" />
<polygon points="921,1245.5 918.5,1249.5 914,1249.5 844.5,1128.5 849,1120.5 921,1245.5" />
<polygon points="892,1247.5 885.5,1251.5 828.5,1152.5 835,1148.5 892,1247.5" />
<polygon points="849,1378 844.5,1370 914,1249.5 918.5,1249.5 921,1253.5 849,1378" />
<polygon points="705,1378 702.5,1374 705,1370 844.5,1370 849,1378 705,1378" />
<polygon points="626,1249.5 635.5,1249.5 705,1370 702.5,1374 698,1374 626,1249.5" />
<polygon points="635.5,1249.5 626,1249.5 698,1124.5 702.5,1124.5 705,1128.5 635.5,1249.5" />
<polygon points="664,1251.5 657,1247.5 714,1148.5 721,1152.5 664,1251.5" />
<polygon points="562,1625.5 558.5,1623.5 555,1621.5 627,1496.5 630.5,1498.5 634,1500.5 562,1625.5" />
<polygon points="491.5,1748 482,1748 555,1621.5 558.5,1623.5 562,1625.5 491.5,1748" />
<polygon points="563.5,1873 554,1873 482,1748 491.5,1748 563.5,1873" />
<polygon points="490,1999.5 486.5,1997.5 483,1995.5 554,1873 563.5,1873 490,1999.5" />
<polygon points="634,1500.5 630.5,1498.5 627,1496.5 698,1374 702.5,1374 705,1378 634,1500.5" />
<polygon points="1206.5,1245.5 1206.5,1249.5 1206.5,1253.5 1062.5,1253.5 1062.5,1249.5 1062.5,1245.5 1206.5,1245.5" />
<polygon points="1348.5,1245.5 1353,1253.5 1206.5,1253.5 1206.5,1249.5 1206.5,1245.5 1348.5,1245.5" />
<polygon points="1420.5,1120.5 1425,1128.5 1353,1253.5 1348.5,1245.5 1420.5,1120.5" />
<polygon points="1566.5,1120.5 1566.5,1124.5 1566.5,1128.5 1425,1128.5 1420.5,1120.5 1566.5,1120.5" />
<polygon points="1062.5,1245.5 1062.5,1249.5 1062.5,1253.5 921,1253.5 918.5,1249.5 921,1245.5 1062.5,1245.5" />
<polygon points="705,1120.5 702.5,1124.5 698,1124.5 627,1002 630.5,1000 634,998 705,1120.5" />
<polygon points="562,873 558.5,875 555,877 484.5,754.5 486.5,750.5 491.5,750.5 562,873" />
<polygon points="202,1002 198.5,1000 195,998 267,873 270.5,875 274,877 202,1002" />
<polygon points="132,1123 126.5,1124.5 125,1119 195,998 198.5,1000 202,1002 132,1123" />
<polygon points="253.5,1193 251.5,1196.5 249.5,1200 128,1130 126.5,1124.5 132,1123 253.5,1193" />
<polygon points="58,1251.5 54.5,1249.5 51,1247.5 121,1126 126.5,1124.5 128,1130 58,1251.5" />
<polygon points="0,1056 2,1052.5 4,1049 125,1119 126.5,1124.5 121,1126 0,1056" />
<polygon points="274,877 270.5,875 267,873 338,750.5 342.5,750.5 345,754.5 274,877" />
<polygon points="627,249.5 630.5,251.5 634,253.5 562,378.5 558.5,376.5 555,374.5 627,249.5" />
<polygon points="697,128.5 702.5,127 704,132.5 634,253.5 630.5,251.5 627,249.5 697,128.5" />
<polygon points="576,58.5 578,55 580,51.5 701,121.5 702.5,127 697,128.5 576,58.5" />
<polygon points="771,0 774.5,2 778,4 708,125.5 702.5,127 701,121.5 771,0" />
<polygon points="829.5,195.5 827.5,199 825.5,202.5 704,132.5 702.5,127 708,125.5 829.5,195.5" />
<polygon points="555,374.5 558.5,376.5 562,378.5 491.5,501 486.5,501 484.5,497 555,374.5" />
<polygon points="345,497 342.5,501 338,501 268,380 270.5,376.5 275,376 345,497" />
<rect width="8" height="113.8" x="496.4" y="519.3" transform="matrix(-0.8514,0.5245,-0.5245,-0.8514,1228.6311,804.2813)" />
<rect width="114" height="8" x="357.5" y="720.5" />
<rect width="8" height="113.8" x="324.9" y="519.3" transform="matrix(-0.8679,-0.4967,0.4967,-0.8679,328.2108,1239.7189)" />
<rect width="8" height="144.3" x="613" y="852.4" transform="matrix(-0.8682,0.4962,-0.4962,-0.8682,1611.3496,1421.0653)" />
<rect width="8" height="144.3" x="568.4" y="878.3" transform="matrix(-0.8514,0.5245,-0.5245,-0.8514,1558.2236,1459.3892)" />
<rect width="114" height="8" x="717.5" y="1344" />
<rect width="8" height="144.3" x="612.9" y="1501.8" transform="matrix(-0.8686,-0.4956,0.4956,-0.8686,372.8091,3246.8057)" />
<rect width="8" height="144.3" x="568.4" y="1476" transform="matrix(-0.8514,-0.5246,0.5246,-0.8514,247.7387,3166.3682)" />
<rect width="144" height="8" x="1062.5" y="1219.5" />
<rect width="144" height="8" x="1062.5" y="1271" />
<rect width="8" height="144.3" x="253" y="878.4" transform="matrix(-0.8681,-0.4964,0.4964,-0.8681,8.2139,1903.1564)" />
<rect width="8" height="144.3" x="208.4" y="852.5" transform="matrix(-0.8517,-0.524,0.524,-0.8517,-91.2924,1823.4082)" />
<rect width="8" height="144.3" x="568.1" y="228.7" transform="matrix(0.8516,0.5241,-0.5241,0.8516,242.5788,-255.2167)" />
<rect width="8" height="144.3" x="613" y="254.9" transform="matrix(0.8682,0.4962,-0.4962,0.8682,243.6066,-263.0853)" />
<path d="M 294.9,249.1 C 294.9,237.2 298.1,227.9 304.5,221.2 C 310.9,214.5 319.1,211.1 329.2,211.1 C 335.8,211.1 341.7,212.7 347,215.8 C 352.3,219 356.3,223.4 359.1,229 C 361.9,234.7 363.3,241.1 363.3,248.2 C 363.3,255.5 361.8,262 358.9,267.7 C 356,273.4 351.8,277.8 346.5,280.7 C 341.1,283.6 335.3,285.1 329.1,285.1 C 322.4,285.1 316.4,283.5 311.1,280.2 C 305.8,276.9 301.8,272.5 299.1,266.9 C 296.2,261.4 294.9,255.4 294.9,249.1 z M 304.6,249.3 C 304.6,257.9 306.9,264.7 311.6,269.7 C 316.2,274.7 322,277.2 329,277.2 C 336.1,277.2 342,274.7 346.6,269.7 C 351.2,264.7 353.5,257.6 353.5,248.3 C 353.5,242.5 352.5,237.4 350.5,233 C 348.5,228.7 345.7,225.3 341.9,222.9 C 338.1,220.5 333.9,219.3 329.1,219.3 C 322.4,219.3 316.6,221.6 311.8,226.2 C 307,230.8 304.6,238.5 304.6,249.3 z" />
<path d="M 93.4,365.6 C 93.4,353.7 96.6,344.4 103,337.7 C 109.4,331 117.6,327.6 127.7,327.6 C 134.3,327.6 140.2,329.2 145.5,332.3 C 150.8,335.5 154.8,339.9 157.6,345.5 C 160.4,351.2 161.8,357.6 161.8,364.7 C 161.8,372 160.3,378.5 157.4,384.2 C 154.5,389.9 150.3,394.3 145,397.2 C 139.6,400.1 133.8,401.6 127.6,401.6 C 120.9,401.6 114.9,400 109.6,396.7 C 104.3,393.4 100.3,389 97.6,383.4 C 94.7,377.9 93.4,371.9 93.4,365.6 z M 103.1,365.8 C 103.1,374.4 105.4,381.2 110.1,386.2 C 114.7,391.2 120.5,393.7 127.5,393.7 C 134.6,393.7 140.5,391.2 145.1,386.2 C 149.7,381.2 152,374.1 152,364.8 C 152,359 151,353.9 149,349.5 C 147,345.2 144.2,341.8 140.4,339.4 C 136.6,337 132.4,335.8 127.6,335.8 C 120.9,335.8 115.1,338.1 110.3,342.7 C 105.5,347.3 103.1,355 103.1,365.8 z" />
</g>
</svg>

