<?xml version="1.0"?>
<svg xmlns:rdf="http://www.w3.org/1999/02/22-rdf-syntax-ns#" xmlns="http://www.w3.org/2000/svg" xmlns:cc="http://creativecommons.org/ns#" xmlns:dc="http://purl.org/dc/elements/1.1/" id="svg2" xml:space="preserve" version="1.0" viewBox="0 0 1566.5 1999.5">
<g id="g4">
<polygon id="polygon6" points="304.5 290.5 312 293.5 275 376 270.5 376.5 268.5 372"/>
<polygon id="polygon8" points="270.5 376.5 268 380 171.5 365 172.5 357.5 268.5 372"/>
<polygon id="polygon10" points="114 317 93 218.5 102 222.5 122 315.5"/>
<polygon id="polygon12" points="93 218.5 223 143.5 221.5 153.5 102 222.5"/>
<polygon id="polygon14" points="292 216.5 221.5 153.5 223 143.5 297 210.5"/>
<polygon id="polygon16" points="345 505 342.5 501 345 497 484.5 497 486.5 501 484.5 505"/>
<polygon id="polygon18" points="486.5 501 491.5 501 563.5 625.5 554 625.5 484.5 505"/>
<polygon id="polygon20" points="554 625.5 563.5 625.5 491.5 750.5 486.5 750.5 484.5 746.5"/>
<polygon id="polygon22" points="484.5 746.5 486.5 750.5 484.5 754.5 345 754.5 342.5 750.5 345 746.5"/>
<polygon id="polygon24" points="342.5 750.5 338 750.5 266 625.5 275.5 625.5 345 746.5"/>
<polygon id="polygon26" points="342.5 501 345 505 275.5 625.5 266 625.5 338 501"/>
<polygon id="polygon28" points="555 877 558.5 875 562 873 634 998 630.5 1e3 627 1002"/>
<polygon id="polygon30" points="702.5 1124.5 705 1120.5 849 1120.5 844.5 1128.5 705 1128.5"/>
<polygon id="polygon32" points="844.5 1128.5 849 1120.5 921 1245.5 918.5 1249.5 914 1249.5"/>
<polygon id="polygon34" points="835 1148.5 892 1247.5 885.5 1251.5 828.5 1152.5"/>
<polygon id="polygon36" points="918.5 1249.5 921 1253.5 849 1378 844.5 1370 914 1249.5"/>
<polygon id="polygon38" points="844.5 1370 849 1378 705 1378 702.5 1374 705 1370"/>
<polygon id="polygon40" points="702.5 1374 698 1374 626 1249.5 635.5 1249.5 705 1370"/>
<polygon id="polygon42" points="702.5 1124.5 705 1128.5 635.5 1249.5 626 1249.5 698 1124.5"/>
<polygon id="polygon44" points="721 1152.5 664 1251.5 657 1247.5 714 1148.5"/>
<polygon id="polygon46" points="627 1496.5 630.5 1498.5 634 1500.5 562 1625.5 558.5 1623.5 555 1621.5"/>
<polygon id="polygon48" points="558.5 1623.5 562 1625.5 491.5 1748 482 1748 555 1621.5"/>
<polygon id="polygon50" points="491.5 1748 563.5 1873 554 1873 482 1748"/>
<polygon id="polygon52" points="554 1873 563.5 1873 490 1999.5 486.5 1997.5 483 1995.5"/>
<polygon id="polygon54" points="698 1374 702.5 1374 705 1378 634 1500.5 630.5 1498.5 627 1496.5"/>
<polygon id="polygon56" points="1062.5 1253.5 1062.5 1249.5 1062.5 1245.5 1206.5 1245.5 1206.5 1249.5 1206.5 1253.5"/>
<polygon id="polygon58" points="1206.5 1249.5 1206.5 1245.5 1348.5 1245.5 1353 1253.5 1206.5 1253.5"/>
<polygon id="polygon60" points="1348.5 1245.5 1420.5 1120.5 1425 1128.5 1353 1253.5"/>
<polygon id="polygon62" points="1425 1128.5 1420.5 1120.5 1566.5 1120.5 1566.5 1124.5 1566.5 1128.5"/>
<polygon id="polygon64" points="921 1253.5 918.5 1249.5 921 1245.5 1062.5 1245.5 1062.5 1249.5 1062.5 1253.5"/>
<polygon id="polygon66" points="627 1002 630.5 1e3 634 998 705 1120.5 702.5 1124.5 698 1124.5"/>
<polygon id="polygon68" points="484.5 754.5 486.5 750.5 491.5 750.5 562 873 558.5 875 555 877"/>
<polygon id="polygon70" points="267 873 270.5 875 274 877 202 1002 198.5 1e3 195 998"/>
<polygon id="polygon72" points="195 998 198.5 1e3 202 1002 132 1123 126.5 1124.5 125 1119"/>
<polygon id="polygon74" points="128 1130 126.5 1124.5 132 1123 253.5 1193 251.5 1196.5 249.5 1200"/>
<polygon id="polygon76" points="121 1126 126.5 1124.5 128 1130 58 1251.5 54.5 1249.5 51 1247.5"/>
<polygon id="polygon78" points="125 1119 126.5 1124.5 121 1126 0 1056 2 1052.5 4 1049"/>
<polygon id="polygon80" points="338 750.5 342.5 750.5 345 754.5 274 877 270.5 875 267 873"/>
<polygon id="polygon82" points="562 378.5 558.5 376.5 555 374.5 627 249.5 630.5 251.5 634 253.5"/>
<polygon id="polygon84" points="634 253.5 630.5 251.5 627 249.5 697 128.5 702.5 127 704 132.5"/>
<polygon id="polygon86" points="701 121.5 702.5 127 697 128.5 576 58.5 578 55 580 51.5"/>
<polygon id="polygon88" points="708 125.5 702.5 127 701 121.5 771 0 774.5 2 778 4"/>
<polygon id="polygon90" points="704 132.5 702.5 127 708 125.5 829.5 195.5 827.5 199 825.5 202.5"/>
<polygon id="polygon92" points="491.5 501 486.5 501 484.5 497 555 374.5 558.5 376.5 562 378.5"/>
<polygon id="polygon94" points="268 380 270.5 376.5 275 376 345 497 342.5 501 338 501"/>
<rect id="rect96" transform="matrix(-.8514 .5245 -.5245 -.8514 1228.6 804.28)" height="113.8" width="8" y="519.3" x="496.4"/>
<rect id="rect98" y="720.5" width="114" height="8" x="357.5"/>
<rect id="rect100" transform="matrix(-.8679 -.4967 .4967 -.8679 328.21 1239.7)" height="113.8" width="8" y="519.3" x="324.9"/>
<rect id="rect102" transform="matrix(-.8682 .4962 -.4962 -.8682 1611.3 1421.1)" height="144.3" width="8" y="852.4" x="613"/>
<rect id="rect104" transform="matrix(-.8514 .5245 -.5245 -.8514 1558.2 1459.4)" height="144.3" width="8" y="878.3" x="568.4"/>
<rect id="rect106" y="1344" width="114" height="8" x="717.5"/>
<rect id="rect108" transform="matrix(-.8686 -.4956 .4956 -.8686 372.81 3246.8)" height="144.3" width="8" y="1501.8" x="612.9"/>
<rect id="rect110" transform="matrix(-.8514 -.5246 .5246 -.8514 247.74 3166.4)" height="144.3" width="8" y="1476" x="568.4"/>
<rect id="rect112" y="1219.5" width="144" height="8" x="1062.5"/>
<rect id="rect114" y="1271" width="144" height="8" x="1062.5"/>
<rect id="rect116" transform="matrix(-.8681 -.4964 .4964 -.8681 8.2139 1903.2)" height="144.3" width="8" y="878.4" x="253"/>
<rect id="rect118" transform="matrix(-.8517 -.524 .524 -.8517 -91.292 1823.4)" height="144.3" width="8" y="852.5" x="208.4"/>
<rect id="rect120" transform="matrix(.8516 .5241 -.5241 .8516 242.58 -255.22)" height="144.3" width="8" y="228.7" x="568.1"/>
<rect id="rect122" transform="matrix(.8682 .4962 -.4962 .8682 243.61 -263.09)" height="144.3" width="8" y="254.9" x="613"/>
<path id="path124" d="m294.9 249.1c0-11.9 3.2-21.2 9.6-27.9s14.6-10.1 24.7-10.1c6.6 0 12.5 1.6 17.8 4.7 5.3 3.2 9.3 7.6 12.1 13.2 2.8 5.7 4.2 12.1 4.2 19.2 0 7.3-1.5 13.8-4.4 19.5s-7.1 10.1-12.4 13c-5.4 2.9-11.2 4.4-17.4 4.4-6.7 0-12.7-1.6-18-4.9s-9.3-7.7-12-13.3c-2.9-5.5-4.2-11.5-4.2-17.8zm9.7 0.2c0 8.6 2.3 15.4 7 20.4 4.6 5 10.4 7.5 17.4 7.5 7.1 0 13-2.5 17.6-7.5s6.9-12.1 6.9-21.4c0-5.8-1-10.9-3-15.3-2-4.3-4.8-7.7-8.6-10.1s-8-3.6-12.8-3.6c-6.7 0-12.5 2.3-17.3 6.9s-7.2 12.3-7.2 23.1z"/>
<path id="path126" d="m93.4 365.6c0-11.9 3.2-21.2 9.6-27.9s14.6-10.1 24.7-10.1c6.6 0 12.5 1.6 17.8 4.7 5.3 3.2 9.3 7.6 12.1 13.2 2.8 5.7 4.2 12.1 4.2 19.2 0 7.3-1.5 13.8-4.4 19.5s-7.1 10.1-12.4 13c-5.4 2.9-11.2 4.4-17.4 4.4-6.7 0-12.7-1.6-18-4.9s-9.3-7.7-12-13.3c-2.9-5.5-4.2-11.5-4.2-17.8zm9.7 0.2c0 8.6 2.3 15.4 7 20.4 4.6 5 10.4 7.5 17.4 7.5 7.1 0 13-2.5 17.6-7.5s6.9-12.1 6.9-21.4c0-5.8-1-10.9-3-15.3-2-4.3-4.8-7.7-8.6-10.1s-8-3.6-12.8-3.6c-6.7 0-12.5 2.3-17.3 6.9s-7.2 12.3-7.2 23.1z"/>
</g>
<metadata><rdf:RDF><cc:Work><dc:format>image/svg+xml</dc:format><dc:type rdf:resource="http://purl.org/dc/dcmitype/StillImage"/><cc:license rdf:resource="http://creativecommons.org/licenses/publicdomain/"/><dc:publisher><cc:Agent rdf:about="http://openclipart.org/"><dc:title>Openclipart</dc:title></cc:Agent></dc:publisher></cc:Work><cc:License rdf:about="http://creativecommons.org/licenses/publicdomain/"><cc:permits rdf:resource="http://creativecommons.org/ns#Reproduction"/><cc:permits rdf:resource="http://creativecommons.org/ns#Distribution"/><cc:permits rdf:resource="http://creativecommons.org/ns#DerivativeWorks"/></cc:License></rdf:RDF></metadata></svg>
