<?xml version="1.0"?>
<svg xmlns:rdf="http://www.w3.org/1999/02/22-rdf-syntax-ns#" xmlns="http://www.w3.org/2000/svg" xmlns:cc="http://creativecommons.org/ns#" xmlns:dc="http://purl.org/dc/elements/1.1/" id="svg2" height="303.91" width="1353" version="1.0">
 <title id="title4">http://pl.wikipedia.org</title>
 <g id="g6" transform="translate(0 -.5)">
  <g id="g10">
   <g id="g12">
    <line id="line14" y2="260.5" x2="585.5" stroke="#000" y1="260.5" x1=".5"/>
    <polygon id="polygon16" points="600.5 260.5 585.5 265.5 585.5 260.5 585.5 255.5"/>
   </g>
  </g>
  <g id="g18">
   <g id="g20">
    <line id="line22" y2="15.5" x2="40.5" stroke="#000" y1="300.5" x1="40.5"/>
    <polygon id="polygon24" points="40.5 0.5 45.5 15.5 40.5 15.5 35.5 15.5"/>
   </g>
  </g>
  <line id="line28" stroke-width="1.5" y2="268.5" x2="240.5" stroke="#000" y1="260.5" x1="240.5"/>
  <line id="line30" stroke-width="1.5" y2="268.5" x2="315.17" stroke="#000" y1="260.5" x1="315.17"/>
  <line id="line32" stroke-width="1.5" y2="60.5" x2="45.5" stroke="#000" y1="60.5" x1="35.5"/>
  <path id="text34" d="m242.76 289.5h-2.11v-13.44c-0.51 0.48-1.17 0.97-2 1.45-0.82 0.49-1.56 0.85-2.22 1.09v-2.04c1.18-0.55 2.21-1.22 3.1-2.01 0.88-0.79 1.51-1.56 1.87-2.3h1.36v17.25z"/>
  <path id="text36" d="m318.03 287.61l0.3 1.87c-0.59 0.12-1.12 0.18-1.59 0.18-0.77 0-1.36-0.12-1.78-0.36s-0.72-0.56-0.89-0.95c-0.17-0.4-0.26-1.23-0.26-2.49v-7.16h-1.55v-1.65h1.55v-3.08l2.1-1.26v4.34h2.12v1.65h-2.12v7.27c0 0.6 0.04 0.99 0.11 1.16s0.19 0.31 0.36 0.41 0.41 0.16 0.72 0.16c0.24 0 0.55-0.03 0.93-0.09z"/>
  <path id="text38" d="m31.082 72.5h-2.109v-13.441c-0.508 0.484-1.174 0.968-1.998 1.453-0.825 0.484-1.565 0.847-2.221 1.09v-2.04c1.18-0.554 2.211-1.226 3.094-2.015 0.882-0.789 1.507-1.555 1.875-2.297h1.359v17.25z"/>
  <path id="text40" d="m23.137 281.03c0-2.03 0.209-3.67 0.627-4.91s1.039-2.19 1.863-2.86 1.861-1.01 3.111-1.01c0.922 0 1.731 0.19 2.426 0.56s1.27 0.9 1.723 1.6 0.808 1.55 1.066 2.56c0.258 1 0.387 2.35 0.387 4.06 0 2.01-0.207 3.64-0.621 4.88s-1.033 2.19-1.858 2.87c-0.824 0.68-1.865 1.01-3.123 1.01-1.656 0-2.957-0.59-3.902-1.78-1.133-1.43-1.699-3.76-1.699-6.98zm2.168 0c0 2.82 0.33 4.69 0.99 5.63 0.66 0.93 1.475 1.4 2.443 1.4 0.969 0 1.783-0.47 2.444-1.41 0.66-0.94 0.99-2.81 0.99-5.62 0-2.83-0.33-4.71-0.99-5.64-0.661-0.93-1.483-1.39-2.467-1.39-0.969 0-1.742 0.41-2.32 1.23-0.727 1.04-1.09 2.98-1.09 5.8z"/>
  <path id="text44" fill="#bc1e47" d="m285.06 83.417v-10.805h-1.86v-1.64h1.86v-1.325c0-0.835 0.07-1.457 0.22-1.863 0.21-0.547 0.56-0.99 1.07-1.33 0.52-0.34 1.23-0.51 2.15-0.51 0.6 0 1.25 0.071 1.97 0.211l-0.31 1.84c-0.44-0.078-0.85-0.117-1.25-0.117-0.64 0-1.09 0.137-1.35 0.41-0.27 0.274-0.4 0.785-0.4 1.535v1.149h2.42v1.64h-2.42v10.805h-2.1zm10.18 5.051c-1.16-1.469-2.15-3.188-2.95-5.157-0.8-1.968-1.21-4.007-1.21-6.117 0-1.859 0.3-3.64 0.91-5.343 0.7-1.977 1.78-3.946 3.25-5.907h1.51c-0.94 1.625-1.57 2.785-1.87 3.481-0.48 1.078-0.85 2.203-1.13 3.375-0.33 1.461-0.5 2.929-0.5 4.406 0 3.758 1.17 7.512 3.5 11.262h-1.51zm2.58-5.051l4.55-6.469-4.21-5.976h2.64l1.91 2.918c0.36 0.554 0.65 1.019 0.87 1.394 0.34-0.515 0.66-0.972 0.94-1.371l2.1-2.941h2.52l-4.3 5.859 4.63 6.586h-2.59l-2.55-3.867-0.68-1.043-3.27 4.91h-2.56zm14.79 5.051h-1.51c2.33-3.75 3.5-7.504 3.5-11.262 0-1.469-0.17-2.926-0.5-4.371-0.27-1.172-0.64-2.297-1.11-3.375-0.31-0.703-0.94-1.875-1.89-3.516h1.51c1.47 1.961 2.55 3.93 3.26 5.907 0.6 1.703 0.9 3.484 0.9 5.343 0 2.11-0.4 4.149-1.21 6.117-0.81 1.969-1.79 3.688-2.95 5.157zm24.39-15.153h-11.35v-1.968h11.35v1.968zm0 5.215h-11.35v-1.969h11.35v1.969z"/>
  <path id="text2424" fill="#bc1e47" d="m354.44 66.465h3.87v-13.347l-4.21 0.844v-2.157l4.19-0.843h2.37v15.503h3.86v1.993h-10.08v-1.993z"/>
  <path id="text2428" fill="#bc1e47" d="m364.93 83.926l-4.75 6.387 4.99 6.738h-2.54l-3.82-5.156-3.82 5.156h-2.54l5.09-6.867-4.66-6.258h2.54l3.48 4.676 3.48-4.676h2.55z"/>
  <path id="path2432" d="m346.58 75.89h22.26" fill-rule="evenodd" stroke="#f00" stroke-width=".82228px" fill="#bc1e47"/>
  <path id="text2434" d="m594.82 239.47l-3.96 5.32 4.16 5.61h-2.12l-3.18-4.29-3.18 4.29h-2.12l4.25-5.72-3.89-5.21h2.12l2.9 3.89 2.9-3.89h2.12z"/>
  <path id="line2448" d="m469.88 261.28v8h1.5v-8h-1.5z"/>
  <text id="text2452" xml:space="preserve" font-size="20px" y="285.60101" x="460.20935" font-family="Bitstream Vera Sans" fill="#000000">
      <tspan id="tspan2454" x="460.20935" y="285.60101">tu</tspan>
    </text>
  <path id="path2456" d="m312.28 260.11l0.84-146.09 43.38 21.18 50.64 16.69 39.84 10.35 15.99 4.1 7.56 1.04-0.06 92.52-158.19 0.21z" stroke="#0ff" stroke-dasharray="3.72503339" stroke-width=".74501" fill="#0081cd"/>
  <g id="g2582" transform="translate(752.53 3.4078)">
   <g id="g2584">
    <line id="line2586" y2="260.5" x2="585.5" stroke="#000" y1="260.5" x1=".5"/>
    <polygon id="polygon2588" points="600.5 260.5 585.5 265.5 585.5 260.5 585.5 255.5"/>
   </g>
  </g>
  <g id="g2590" transform="translate(752.53 3.4078)">
   <g id="g2592">
    <line id="line2594" y2="15.5" x2="40.5" stroke="#000" y1="300.5" x1="40.5"/>
    <polygon id="polygon2596" points="40.5 0.5 45.5 15.5 40.5 15.5 35.5 15.5"/>
   </g>
  </g>
  <line id="line2598" stroke-width="1.5" y2="271.91" x2="993.03" stroke="#000" y1="263.91" x1="993.03"/>
  <line id="line2600" stroke-width="1.5" y2="271.91" x2="1067.7" stroke="#000" y1="263.91" x1="1067.7"/>
  <line id="line2602" stroke-width="1.5" y2="63.908" x2="798.03" stroke="#000" y1="63.908" x1="788.03"/>
  <path id="path2604" d="m995.3 292.91h-2.11v-13.44c-0.51 0.48-1.18 0.97-2 1.45-0.83 0.48-1.57 0.85-2.22 1.09v-2.04c1.18-0.55 2.21-1.23 3.09-2.02 0.88-0.78 1.51-1.55 1.88-2.29h1.36v17.25z"/>
  <path id="path2606" d="m1070.6 291.02l0.3 1.86c-0.6 0.13-1.2 0.19-1.6 0.19-0.8 0-1.4-0.12-1.8-0.36s-0.7-0.56-0.9-0.96c-0.2-0.39-0.3-1.22-0.3-2.49v-7.16h-1.5v-1.64h1.5v-3.08l2.1-1.27v4.35h2.2v1.64h-2.2v7.28c0 0.6 0.1 0.99 0.2 1.16 0 0.17 0.1 0.31 0.3 0.41s0.4 0.15 0.7 0.15 0.6-0.02 1-0.08z"/>
  <path id="path2608" d="m783.62 75.908h-2.11v-13.442c-0.51 0.485-1.18 0.969-2 1.454-0.83 0.484-1.57 0.847-2.22 1.089v-2.039c1.18-0.554 2.21-1.226 3.09-2.015s1.51-1.555 1.88-2.297h1.36v17.25z"/>
  <path id="path2610" d="m775.67 284.44c0-2.04 0.21-3.67 0.63-4.91s1.04-2.19 1.86-2.86c0.82-0.68 1.86-1.01 3.11-1.01 0.92 0 1.73 0.18 2.43 0.55 0.69 0.38 1.27 0.91 1.72 1.61s0.81 1.55 1.07 2.55c0.25 1.01 0.38 2.36 0.38 4.07 0 2.01-0.2 3.64-0.62 4.88-0.41 1.23-1.03 2.19-1.86 2.87-0.82 0.67-1.86 1.01-3.12 1.01-1.65 0-2.96-0.59-3.9-1.78-1.13-1.43-1.7-3.76-1.7-6.98zm2.17 0c0 2.82 0.33 4.69 0.99 5.63 0.66 0.93 1.47 1.4 2.44 1.4s1.79-0.47 2.45-1.41 0.99-2.81 0.99-5.62c0-2.83-0.33-4.71-0.99-5.64s-1.49-1.4-2.47-1.4c-0.97 0-1.74 0.41-2.32 1.23-0.73 1.05-1.09 2.98-1.09 5.81z"/>
  <path id="path2612" fill="#bc1e47" d="m1037.6 86.825v-10.805h-1.9v-1.641h1.9v-1.324c0-0.836 0.1-1.457 0.2-1.863 0.2-0.547 0.6-0.99 1.1-1.33s1.2-0.51 2.1-0.51c0.6 0 1.3 0.07 2 0.211l-0.3 1.84c-0.4-0.078-0.9-0.117-1.3-0.117-0.6 0-1 0.136-1.3 0.41-0.3 0.273-0.4 0.785-0.4 1.535v1.148h2.4v1.641h-2.4v10.805h-2.1zm10.2 5.051c-1.2-1.469-2.2-3.188-3-5.157-0.8-1.968-1.2-4.007-1.2-6.117 0-1.859 0.3-3.64 0.9-5.344 0.7-1.976 1.8-3.945 3.3-5.906h1.5c-1 1.625-1.6 2.785-1.9 3.481-0.5 1.078-0.8 2.203-1.1 3.375-0.3 1.461-0.5 2.929-0.5 4.406 0 3.758 1.2 7.512 3.5 11.262h-1.5zm2.6-5.051l4.5-6.469-4.2-5.977h2.6l1.9 2.918c0.4 0.555 0.7 1.02 0.9 1.395 0.4-0.516 0.7-0.973 1-1.371l2.1-2.942h2.5l-4.3 5.86 4.6 6.586h-2.6l-2.5-3.867-0.7-1.043-3.3 4.91h-2.5zm14.7 5.051h-1.5c2.4-3.75 3.5-7.504 3.5-11.262 0-1.469-0.1-2.926-0.5-4.371-0.2-1.172-0.6-2.297-1.1-3.375-0.3-0.703-0.9-1.875-1.9-3.516h1.5c1.5 1.961 2.6 3.93 3.3 5.906 0.6 1.704 0.9 3.485 0.9 5.344 0 2.11-0.4 4.149-1.2 6.117-0.8 1.969-1.8 3.688-3 5.157zm24.4-15.153h-11.3v-1.969h11.3v1.969zm0 5.215h-11.3v-1.969h11.3v1.969z"/>
  <path id="path2614" fill="#bc1e47" d="m1107 69.873h3.8v-13.347l-4.2 0.843v-2.156l4.2-0.844h2.4v15.504h3.9v1.992h-10.1v-1.992z"/>
  <path id="path2616" fill="#bc1e47" d="m1117.5 87.334l-4.8 6.387 5 6.739h-2.5l-3.9-5.157-3.8 5.157h-2.5l5.1-6.868-4.7-6.258h2.6l3.4 4.676 3.5-4.676h2.6z"/>
  <path id="path2618" d="m1099.1 79.298h22.3" fill-rule="evenodd" stroke="#f00" stroke-width=".82228px" fill="#bc1e47"/>
  <path id="path2620" d="m1347.4 242.87l-4 5.33 4.2 5.61h-2.2l-3.1-4.3-3.2 4.3h-2.1l4.2-5.72-3.9-5.22h2.1l2.9 3.9 2.9-3.9h2.2z"/>
  <path id="line2624" d="m1222.4 264.69v8h1.5v-8h-1.5z"/>
  <text id="text2626" xml:space="preserve" font-size="20px" y="289.00885" x="1212.7429" font-family="Bitstream Vera Sans" fill="#000000">
      <tspan id="tspan2628" x="1212.7429" y="289.00885">tu</tspan>
    </text>
  <path id="path2630" d="m993.23 263.45l-0.76-198.59 29.83 27.829 35.7 22.861 28.1 14.18 11.2 5.6 5.4 1.43-0.1 126.69h-109.37z" stroke="#0ff" stroke-dasharray="3.6593686" stroke-width=".73187" fill="#0081cd"/>
  <path id="path2638" d="m795.94-19736l11.39 17012 11.39 1373.8 11.38 508.45 11.39 264.89 11.39 162.54 11.39 109.89 11.38 79.27 11.39 59.87 11.39 46.82 11.39 37.623 11.38 30.888 11.39 25.814 11.39 21.896 11.39 18.806 11.39 16.328 11.38 14.31 11.39 12.643 11.37 11.251 11.4 10.078 11.4 9.08 11.4 8.221 11.4 7.482 11.4 6.83 11.3 6.27 11.4 5.77 11.4 5.33 11.4 4.94 11.4 4.59 11.4 4.27 11.4 3.99 11.4 3.74 11.3 3.5 11.4 3.29 11.4 3.1 11.4 2.92 11.4 2.76 11.4 2.61 11.4 2.48 11.4 2.34 11.3 2.24 11.4 2.12 11.4 2.02 11.4 1.93 11.4 1.84 11.4 1.76 11.4 1.69 11.4 1.61 11.4 1.54 11.3 1.49" stroke="#bc1e47" stroke-width="5" fill="none"/>
  <path id="line2640" d="m1101.9 265.53v8h1.5v-8h-1.5z"/>
  <text id="text2642" xml:space="preserve" font-size="20px" y="289.85709" x="1097.6366" font-family="Bitstream Vera Sans" fill="#000000">
      <tspan id="tspan2644" x="1097.6366" y="289.85709">u</tspan>
    </text>
  <text id="text3490" xml:space="preserve" font-size="28.124px" y="199.0916" x="1013.2204" font-family="Bitstream Vera Sans" line-height="125%" fill="#000000">
      <tspan id="tspan3492" x="1013.2204" y="199.0916">ln(u)</tspan>
    </text>
  <path id="path3511" d="m348.83 261.76v8h1.5v-8h-1.5z"/>
  <text id="text3513" xml:space="preserve" font-size="20px" y="286.08575" x="344.59027" font-family="Bitstream Vera Sans" fill="#000000">
      <tspan id="tspan3515" x="344.59027" y="286.08575">u</tspan>
    </text>
  <path id="polygon8" d="m240.5 260.5v-200l1.09 1.088 1.1 1.076 1.09 1.064 1.1 1.053 8.48-1.294 7.01 2.978 20.31 5.302 18.33 4.188 59.63 14.02 79.44 12.305 52.84 9.19 28.1 3.02 1.48 146.01h-280z" transform="matrix(.26397 0 0 1.0024 176.77 -.38969)" stroke="#000" stroke-dasharray="5" fill="#fec200"/>
  <text id="text2458" xml:space="preserve" font-size="33.97px" y="218.09781" x="288.90054" font-family="Bitstream Vera Sans" line-height="125%" fill="#000000">
      <tspan id="tspan2460" x="288.90054" y="218.09781">ln(tu)</tspan>
    </text>
  <path id="path26" d="m42.5-19740l11.388 17013 11.388 1373 11.387 508.4 11.388 264.9 11.388 162.53 11.391 109.89 11.38 79.27 11.39 59.87 11.39 46.83 11.39 37.618 11.38 30.888 11.39 25.814 11.39 21.896 11.39 18.806 11.39 16.328 11.38 14.31 11.39 12.642 11.39 11.252 11.39 10.078 11.39 9.08 11.38 8.221 11.39 7.477 11.39 6.84 11.39 6.27 11.38 5.77 11.39 5.33 11.39 4.94 11.39 4.58 11.38 4.28 11.39 3.99 11.39 3.73 11.39 3.5 11.39 3.29 11.38 3.1 11.39 2.92 11.39 2.76 11.39 2.62 11.39 2.47 11.38 2.35 11.39 2.23 11.39 2.12 11.39 2.03 11.38 1.92 11.39 1.85 11.39 1.76 11.39 1.68 11.38 1.61 11.39 1.55 11.39 1.48" stroke="#bc1e47" stroke-width="5" fill="none"/>
  <text id="text3495" xml:space="preserve" font-size="30.462px" y="157.2462" x="243.56546" font-family="Bitstream Vera Sans" line-height="125%" fill="#000000">
      <tspan id="tspan3497" x="243.56546" y="157.2462">ln(t)</tspan>
    </text>
 </g>
 <metadata>
  <rdf:RDF>
   <cc:Work>
    <dc:format>image/svg+xml</dc:format>
    <dc:type rdf:resource="http://purl.org/dc/dcmitype/StillImage"/>
    <cc:license rdf:resource="http://creativecommons.org/licenses/publicdomain/"/>
    <dc:publisher>
     <cc:Agent rdf:about="http://openclipart.org/">
      <dc:title>Openclipart</dc:title>
     </cc:Agent>
    </dc:publisher>
   </cc:Work>
   <cc:License rdf:about="http://creativecommons.org/licenses/publicdomain/">
    <cc:permits rdf:resource="http://creativecommons.org/ns#Reproduction"/>
    <cc:permits rdf:resource="http://creativecommons.org/ns#Distribution"/>
    <cc:permits rdf:resource="http://creativecommons.org/ns#DerivativeWorks"/>
   </cc:License>
  </rdf:RDF>
 </metadata>
</svg>
