<?xml version="1.0"?>
<svg xmlns:rdf="http://www.w3.org/1999/02/22-rdf-syntax-ns#" xmlns="http://www.w3.org/2000/svg" xmlns:cc="http://creativecommons.org/ns#" xmlns:dc="http://purl.org/dc/elements/1.1/" id="svg2" height="1029" width="1627.5" version="1.0">
 <g id="layer1" transform="translate(2385.3 736.68)">
  <path id="path2879" d="m-1538.7 266.38c-8.3-14.28-15.1-26.38-15.1-26.9 0-0.51 6.6-12.57 14.8-26.8l14.7-25.86 25.5-0.61c14-0.33 27.7-0.67 30.5-0.75l5-0.14 19.2-21.42 19.2-21.42-3.9-17.83c-2.1-9.81-3.7-18-3.5-18.2 0.2-0.21 1-0.15 1.7 0.14 0.9 0.32 2.8 7.14 5.1 17.87 2 9.55 4 17.48 4.4 17.62s12.4 5.42 26.6 11.73l25.9 11.46 21.5-12.53c12.9-7.51 22.2-12.29 23.1-11.94s1.1 0.94 0.6 1.46c-0.5 0.48-10.4 6.36-21.9 13.06-11.6 6.7-21.2 12.33-21.4 12.52-0.4 0.44-5.1 45.15-5.1 48.98 0 2.6 2 4.77 15.1 16.38 10.4 9.31 14.7 13.7 14 14.43-0.8 0.72-1.6 0.57-2.9-0.51-0.9-0.86-7.4-6.57-14.2-12.69-11.3-10.03-12.6-10.92-13.1-8.91-0.3 1.22-1.5 2.47-2.7 2.76-1.8 0.46-0.1 2.33 11.8 12.94 7.7 6.81 14 12.75 14 13.19 0 2.81-3.5 0.4-16.8-11.47l-14.9-13.39-24.9 5.41c-13.7 2.97-25.3 5.79-25.7 6.27-0.5 0.47-7.3 12.05-15.1 25.72l-14.2 24.87-31.1 0.26-31.1 0.27-15.1-25.97zm89.6-2.22l14.3-25.1-14.3-24.62-14.3-24.62-29.5-0.23-29.4-0.23-14.3 25.09-14.2 25.09 9.1 15.64c5 8.6 11.6 19.8 14.6 24.89l5.4 9.25 29.2-0.03 29.2-0.04 14.2-25.09zm-80.2-2.89c-6.3-10.97-11.5-20.37-11.5-20.89 0-3.93 3.4 0.61 13.5 18.18 6.5 11.14 11.9 20.55 12.1 20.9 0.2 0.36-0.3 0.9-1.1 1.2-1 0.39-4.7-5.2-13-19.39zm60 18.89c-0.5-1.21 19.7-38.42 22.3-41.05 0.4-0.39 1.2-0.38 1.9 0.03 0.8 0.5-2.4 6.93-10.4 20.7-6.3 10.99-11.9 20.39-12.4 20.9-0.5 0.55-1.1 0.32-1.4-0.58zm-47.5-81.84c0-2 0.4-2.03 23.7-1.77 20.3 0.23 23.8 0.49 23.8 1.77s-3.5 1.54-23.8 1.77c-23.3 0.26-23.7 0.23-23.7-1.77zm112.5 32.97c15.3-3.32 28-6.13 28.1-6.25 0.8-0.79 5.8-56.93 5.2-57.35-2.3-1.37-50.4-22.37-51.4-22.37-1.3 0-38.7 41.82-38.3 42.89 0.4 0.94 28.3 49.08 28.5 49.1 0.1 0 12.6-2.71 27.9-6.02zm4-64.89c-12.2-5.35-20-9.35-20-10.19 0-0.77 0.5-1.28 1.2-1.13 1.1 0.22 38.2 16.19 39.1 16.85 0.2 0.13 0.2 0.92 0 1.76-0.3 1.19-4.7-0.38-20.3-7.29zm255.2 115.67c-3-5.09-9.6-16.45-14.7-25.25s-9.6-16.3-9.9-16.67c-0.4-0.36-11.9-3.01-25.8-5.89l-25.1-5.24-14.7 13.4c-8 7.37-15.3 13.54-16.1 13.72-3.7 0.84-0.2-3.32 12.6-14.76 13-11.67 14.9-14.06 11.4-14.06-0.8 0-1.4-0.94-1.4-2.08 0-1.15-0.4-1.94-0.9-1.75-0.5 0.18-7.1 5.84-14.5 12.58s-14 12.25-14.5 12.25c-3.1 0-0.5-2.91 13.5-15.55l15.5-13.95-0.5-4c-0.3-2.2-1.5-13.75-2.8-25.66l-2.2-21.66-23.3-13.3c-12.8-7.31-23.3-13.62-23.3-14.03 0-2.4 4-0.56 24.5 11.15 12.5 7.15 23.1 13 23.6 13 0.7 0 45.7-19.79 46.7-20.52 0.1-0.12 2.1-8.94 4.3-19.6 2.3-10.66 4.3-19.58 4.5-19.81 0.2-0.24 0.9 0.04 1.5 0.62 0.7 0.75 0 6.12-2.6 18.21-1.9 9.43-3.5 17.41-3.5 17.73s0.7 0.3 1.6-0.05 2.4 0.08 3.4 0.94c2.2 1.97 1.9 2.83 6.1-17.39 2.9-14.43 4.6-18.77 6.3-17 0.2 0.2-1.4 8.7-3.5 18.87-2.2 10.17-3.9 19.08-3.7 19.79 0.1 0.72 7.7 9.58 16.8 19.68l16.5 18.37 30.5 0.33 30.4 0.33 15.2 26c8.4 14.3 15.3 26.34 15.3 26.75s-6.7 12.68-15.1 27.25l-15.1 26.5h-30.8-30.8l-5.4-9.25zm79.2-18.47c7.8-13.6 14.3-25.01 14.4-25.35 0.1-0.35-6.4-11.99-14.3-25.88l-14.5-25.24-14.9 0.59c-8.2 0.33-21.3 0.6-29.2 0.6h-14.2l-14.2 24.97-14.2 24.97 13.7 23.78c7.6 13.08 14.2 24.34 14.8 25.03 0.7 0.95 7.8 1.25 29.7 1.25h28.8l14.1-24.72zm-66.9 15.22c0-1.29 3.3-1.5 24-1.5 20.6 0 24 0.21 24 1.5s-3.4 1.5-24 1.5c-20.7 0-24-0.21-24-1.5zm-23.8-40.39c-1-0.56 1.9-6.34 10.4-21.19 6.4-11.23 11.8-20.62 12-20.85 0.2-0.24 0.9 0.04 1.5 0.63 0.7 0.75-2.4 7.02-10.6 21.43-6.4 11.2-11.8 20.46-11.9 20.56-0.1 0.11-0.8-0.15-1.4-0.58zm82.1-19.36c-11.8-20.37-12.5-21.76-10.7-22.42 1.1-0.39 24.4 38.51 24.4 40.66 0 3.79-4-1.49-13.7-18.24zm-80.7-7.66l14.1-24.84-18.9-20.87c-10.4-11.49-19.2-21.01-19.7-21.16-0.8-0.29-50.1 21.49-51.5 22.82-0.9 0.81 3.9 50.26 5.3 54.96 0.7 2.38 2 2.77 27.1 8.14 14.6 3.11 27.1 5.68 28 5.72 0.9 0.05 6.7-9.11 15.6-24.77zm-181.6 68.71c-7.4-3.75-10.1-12.8-6.6-21.31 4.2-9.95 21-9.95 25.1 0 6 14.21-5.9 27.78-18.5 21.31zm12.2-4.56c4.5-3.88 4.6-13.51 0.2-17.85-5.3-5.35-14.5-1.94-16 5.93-0.7 4.06 0.9 9.73 3.4 11.95 3.2 2.91 9 2.89 12.4-0.03zm47.5 5.33c-4.8-1.72-6.2-2.9-8.1-7.02-3.5-7.29-0.7-17.91 5.5-21.14 2.3-1.15 4.8-1.5 8.7-1.18 4.6 0.39 6 0.97 8.3 3.58 7.8 8.76 4.5 23.26-6.1 26.19-4.2 1.19-3.7 1.22-8.3-0.43zm11.3-6.16c2.1-2.07 2.5-3.39 2.5-8.35 0-7.8-2.7-11.06-9.2-11.06-6.6 0-9.3 3.14-9.3 10.52 0 6.79 1.1 9.2 5.3 11.04 3.9 1.75 7.4 1.05 10.7-2.15zm-470.2-72.24c-5.9-2.02-11-4.01-11.4-4.42s32.6-0.75 73.4-0.75c65.3 0 74.2 0.18 74.2 1.5s-7.6 1.5-62.1 1.5c-54.8 0-62.1 0.18-61.5 1.5 0.3 0.82 0.8 2.17 1.2 3 0.9 2.25-1.8 1.8-13.8-2.33zm54.9-9.92c-40.7-0.17-62.7-0.62-62.7-1.26s21.6-0.99 62-0.99c43.2 0 62-0.32 62-1.07 0-0.58-0.5-1.97-1.1-3.08s-0.9-2.22-0.6-2.47c0.7-0.7 25.7 7.81 25.7 8.76 0 0.47-5.1 0.75-11.3 0.62-6.2-0.14-39.5-0.37-74-0.51zm412.9-27.75c-11-6.31-20.2-11.71-20.5-12s-0.1-0.98 0.5-1.52c1.3-1.27 41.4 21.61 41.4 23.61 0 0.77-0.4 1.4-0.8 1.39s-9.7-5.18-20.6-11.48zm-45.6-36.5c0-14.9 0-15 2.2-14.98 1.8 0.01 3.8 2.4 9.3 10.68l7 10.66 0.3-10.74c0.2-10.46 0.3-10.74 2.5-10.44 2.1 0.31 2.2 0.61 2.2 14.82 0 13.93-0.1 14.51-2.1 14.8-1.7 0.23-3.6-1.94-9.5-10.93l-7.4-11.23-0.3 11.18c-0.3 10.35-0.4 11.18-2.3 11.18-1.8 0-1.9-0.75-1.9-15zm-129-29.753c-7.5-3.833-10.2-13.231-6.1-21.59 3.5-7.3 12.8-9.965 19.8-5.699 9.8 6.008 8.7 23.239-1.8 27.44-5.1 2.052-7.6 2.012-11.9-0.151zm10.8-3.673c5-2.565 6.7-10.621 3.7-16.595-3-5.793-10.3-6.867-14.8-2.175-2.3 2.381-2.7 3.675-2.7 8.577 0 5.046 0.3 6.139 2.9 8.695 3.2 3.251 6.6 3.715 10.9 1.498zm-47.6-10.325c0.3-13.991 0.4-14.75 2.3-14.75 1.7 0 2 0.767 2.3 5.75l0.3 5.75h6.9 6.9l0.3-5.75c0.2-4.983 0.5-5.75 2.3-5.75 1.9 0 2 0.759 2.2 14.75l0.3 14.75h-2.5c-2.4 0-2.5-0.215-2.5-6.5v-6.5h-7-7v6.5c0 6.285-0.1 6.5-2.6 6.5h-2.5l0.3-14.75zm305.2 12.908c-9.9-4.633-10.6-21.415-1.1-27.199 6.8-4.193 16.2-1.597 19.6 5.45 6.8 14.046-5.1 28.022-18.5 21.749zm12.6-5.081c2.6-2.522 3-3.678 3-8.423 0-7.396-3.3-11.654-9.1-11.654-5.6 0-9 3.273-9.7 9.266-0.6 5.747 1.1 10.31 4.7 12.234 4.2 2.301 7.9 1.83 11.1-1.423zm-914.3-27.506c-4.8-1.722-6.2-2.904-8.1-7.018-3.5-7.297-0.7-17.916 5.5-21.143 2.3-1.148 4.8-1.496 8.7-1.174 4.6 0.381 6 0.969 8.3 3.571 7.8 8.762 4.5 23.267-6.1 26.194-4.2 1.188-3.7 1.217-8.3-0.43zm11.3-6.155c2.1-2.073 2.5-3.391 2.5-8.358 0-7.8-2.7-11.058-9.2-11.058-6.6 0-9.3 3.144-9.3 10.52 0 6.794 1.1 9.203 5.3 11.045 3.9 1.745 7.4 1.043 10.7-2.149zm322.4 4.742c-9.9-4.633-10.6-21.415-1.1-27.199 6.8-4.193 16.2-1.597 19.6 5.45 6.8 14.046-5.1 28.02-18.5 21.749zm12.6-5.081c2.6-2.522 3-3.678 3-8.423 0-7.396-3.3-11.654-9.1-11.654-5.6 0-9 3.273-9.7 9.266-0.6 5.747 1.1 10.31 4.7 12.234 4.2 2.301 7.9 1.83 11.1-1.423zm366.1-33.827c-3.8-6.463-10.7-18.39-15.4-26.505l-8.6-14.754 15.3-26.746 15.3-26.745 30.1-0.265 30.1-0.264 17.1-19.015 17.1-19.015-4.1-18.97c-4.6-21.54-4.5-20.97-2.6-20.97 1.4 0 2.1 2.63 6.6 24.5 1.3 6.05 2.5 11.18 2.6 11.39 0.2 0.22 1-0.16 1.8-0.83 0.8-0.68 2.4-0.93 3.5-0.58 1.1 0.36 2.1 0.29 2-0.16 0-0.45-1.7-8.7-3.9-18.32-2.1-9.63-3.7-17.67-3.5-17.87 0.2-0.21 1-0.14 1.7 0.14 0.9 0.33 2.8 7.27 5.2 18.88 2.2 10.09 4.4 18.85 5 19.47 1.5 1.57 44.5 20.388 46.5 20.339 0.9-0.022 11-5.603 22.6-12.399 13.7-8.08 21.3-12.03 22-11.4 1.3 1.31 0.4 1.95-23.1 15.582l-20.1 11.652-2.2 24.053c-1.3 13.228-2.5 24.734-2.7 25.568-0.3 0.966 5 6.35 14.6 14.857 8.2 7.338 15 13.717 15 14.176 0 2.6416-3 0.5979-15.6-10.575-12.2-10.916-14-12.169-14.6-10.418-0.5 1.095-1.7 2.325-2.8 2.734-1.7 0.639 0 2.492 12 13.152 7.7 6.8242 14 12.753 14 13.174 0 2.783-3.6 0.3323-16.9-11.601l-15-13.493-25.2 5.415c-14.5 3.107-25.6 5.979-26.1 6.739-0.4 0.728-7.2 12.461-14.9 26.074l-14.2 24.75h-30.8-30.9l-6.9-11.75zm80.8-15.972c7.8-13.597 14.3-25.005 14.4-25.351s-6.4-11.989-14.3-25.874l-14.5-25.246-14.9 0.597c-8.2 0.328-21.3 0.596-29.2 0.596h-14.2l-14.2 24.994-14.3 24.994 13.8 23.756c7.6 13.066 14.2 24.318 14.8 25.006 0.7 0.949 7.8 1.25 29.7 1.25h28.8l14.1-24.722zm-73.5 6.9999c-3.2-5.378-8.6-14.686-12.1-20.685-4.5-7.572-6.1-11.225-5.4-11.95 0.7-0.655 1.4-0.69 1.9-0.093 1.5 1.632 23.2 39.571 23.2 40.475 0 0.471-0.5 1.121-1 1.444s-3.5-3.812-6.6-9.191zm53.4 8.18c-0.9-0.897 22.5-41.434 23.9-41.447 0.7-0.006 1.3 0.551 1.2 1.239 0 1.812-22.3 40.029-23.5 40.443-0.6 0.192-1.3 0.086-1.6-0.235zm-46.8-81.976c0-1.322 3-1.484 23.6-1.25 17.9 0.202 23.8 0.575 24.1 1.518 0.3 0.977-4.8 1.25-23.6 1.25-20.9 0-24.1-0.203-24.1-1.518zm125.5 30.374l15.1-3.22 2.8-28.366c1.5-15.602 2.6-28.595 2.3-28.875-0.7-0.702-52-23.424-52.3-23.134-0.1 0.13-8.4 9.46-18.4 20.724-10.1 11.267-18.5 21.018-18.7 21.668-0.3 0.65 5.9 12.18 13.7 25.622l14.2 24.44 13.1-2.82c7.3-1.55 19.9-4.268 28.2-6.039zm249.18 59.408c-1.29-2.07-7.82-13.214-14.52-24.764s-12.56-21.549-12.96-22.219c-0.7-1.096-45.9-11.281-50.1-11.281-0.9 0-8.4 6.075-16.6 13.5-8.2 7.4249-15.2 13.5-15.6 13.5-3-0.00009-0.2-3.4084 12.1-14.497 7.7-6.971 14-13.086 14-13.589s-0.7-0.914-1.5-0.914c-0.9 0-1.5-0.338-1.5-0.75-0.1-0.413-0.5-1.392-1-2.176-0.8-1.38-3.6 0.901-25.8 21.328-2.3 2.105-3.5 2.68-4.3 1.9362-0.7-0.7437 3.6-5.2632 14.4-15.222 14.8-13.49 15.5-14.319 15.1-17.391-0.3-1.774-1.6-12.974-2.9-24.89s-2.6-22.075-2.9-22.576c-0.3-0.502-10.7-6.727-23.1-13.838-19.6-11.28-25.4-15.42-21.5-15.42 0.6 0 11.2 5.85 23.6 13 12.4 7.149 22.8 12.999 23 12.999 0.9 0 45.8-20.169 46.5-20.879 0.4-0.34 2.5-9.09 4.7-19.43 2.2-10.35 4.2-19.1 4.6-19.44 0.3-0.34 1-0.2 1.5 0.32 0.6 0.57-0.5 7.84-2.8 18.75-3.7 17.24-3.7 17.81-1.8 17.29 1.2-0.29 2.8 0.13 3.7 0.95 1.8 1.6 1.7 2.1 7.6-26.83 1-4.98 2.2-8.6 2.8-8.39 1.66 0.57 1.05 5.89-2.7 23.37l-3.4 16.21 17.02 18.788 17.02 18.791 30.46 0.5 30.45 0.5 15.37 26.399 15.37 26.4-15.28 26.6-15.27 26.601-30.71 0.264-30.72 0.265-2.33-3.765zm75.79-23.844c7.7-13.476 14.11-25.046 14.25-25.711s-6.19-12.234-14.06-25.709l-14.31-24.5-28.97-0.265-28.97-0.265-14.31 25.053c-9.61 16.814-14.1 25.616-13.67 26.765 0.36 0.942 6.81 12.383 14.35 25.426l13.69 23.715 29-0.003 29-0.003 14-24.503zm-66.5 15.08c0-1.292 3.33-1.5 24-1.5s24 0.208 24 1.5-3.33 1.5-24 1.5-24-0.208-24-1.5zm-25-41.398c0-2.106 22.87-40.602 24.12-40.602 0.76 0 1.25 0.606 1.1 1.347-0.66 3.134-22.69 40.153-23.9 40.153-0.72 0-1.32-0.404-1.32-0.898zm82.92-18.744c-6.28-10.834-11.56-20.297-11.74-21.028-0.18-0.732 0.28-1.33 1.02-1.33 1.22 0 23.24 36.606 23.99 39.875 0.17 0.756-0.18 1.556-0.77 1.778-0.6 0.222-6.23-8.461-12.5-19.295zm-80.99-7.009c7.77-13.558 14.01-25.029 13.85-25.491-0.15-0.463-8.75-10.225-19.11-21.695l-18.84-20.852-26.2 11.77c-21 9.478-26.1 12.123-25.9 13.593 3.3 32.999 5.7 54.899 5.9 55.164 0.2 0.257 52.3 11.579 55.5 12.066 0.4 0.053 7.02-10.997 14.8-24.555zm-1095.9 73.323c-0.5-1.28-3.2-9.718-6.1-18.75-2.9-9.0321-5.5-16.746-5.9-17.142-0.3-0.3957-11.4-4.268-24.7-8.606l-24.2-7.886-25.8 14.881c-15.5 8.9808-26.4 14.648-27.3 14.293-0.8-0.3233-12.9-7.1564-26.8-15.185l-25.3-14.597 0.3-31.07 0.3-31.071 26.2-15.188 26.3-15.2 26 15 25.9 14.994 23.8-7.657c13.1-4.212 24.3-8.187 24.9-8.827 0.7-0.64 3.8-9.15 6.9-18.91 3.8-11.84 6.1-17.75 7.1-17.75 0.7 0 1.4 0.28 1.4 0.63 0 0.6-9.7 31.27-10.7 33.97-0.3 0.87 0.2 1.07 1.7 0.67 1.5-0.39 2.7 0.01 3.6 1.22 1.6 2.19 1.4 2.72 8.1-18.58 2.8-8.73 5.3-14.91 6-14.91 1.9 0 1.7 1.21-4.5 20.5l-5.8 18.005 15 20.747 15 20.747h19.8c16.9 0 19.8 0.217 19.8 1.5 0 1.281-2.9 1.508-19.8 1.554l-19.7 0.054-14.8 20.444c-8.1 11.245-14.7 21.247-14.7 22.228 0 0.9801 2.7 9.8183 5.9 19.64 3.3 9.822 5.8 18.245 5.5 18.719-1.4 2.3-2.8-0.465-8.1-16.889-3.1-9.7626-5.9-17.974-6.1-18.248-0.2-0.2746-1 0.2663-1.6 1.2016-0.8 1.0891-2.1 1.498-3.4 1.1372-2.2-0.5565-2.2-0.5055-0.7 4.2979 0.8 2.6737 3.4 10.791 5.9 18.038 2.4 7.248 4.1 13.436 3.8 13.75-1.1 1.155-2.3 0.516-3.2-1.755zm-87.5-40.582l24-13.87 0.2-29.36 0.3-29.36-2.8-1.571c-1.5-0.864-12.7-7.328-24.9-14.368l-22.3-12.79-25 14.364-25 14.365v29.16 29.16l24.2 14.059c13.4 7.7319 24.9 14.063 25.8 14.069 0.8 0.0064 12.3-6.23 25.5-13.858zm-26 4.022c-0.7-1.2181-1-1.0475 22.4-14.458 16.8-9.661 20.1-11.077 20.1-8.731 0 0.749-36.5 22.19-40.2 23.583-0.9 0.3468-1.9 0.1694-2.3-0.394zm-41.8-23.758c-0.4-0.378-0.7-11.187-0.7-24.021 0-22.736 0-23.333 2-23.333s2 0.507 1.7 23.667c-0.2 22.388-0.7 26.039-3 23.687zm61.8-57.964c-11-6.366-20.1-11.659-20.2-11.759s0.1-0.76 0.6-1.45c0.5-0.91 6.3 1.97 21.1 10.532 18.4 10.628 21.9 13.178 19.3 13.994-0.5 0.141-9.8-4.952-20.8-11.317zm105 58.501c8.8-12.135 16.3-22.587 16.6-23.227 0.7-1.26-32.3-47.263-33.8-47.023-0.4 0.08-12.9 4.037-27.6 8.791l-26.7 8.645v28.402c0 15.622 0.4 28.65 0.9 28.953 1.2 0.758 52.3 17.437 53.6 17.484 0.5 0.0202 8.2-9.891 17-22.025zm349.7 61.273c-0.9-0.581 0.2-5.285 4.7-19.051 5.8-18.044 5.8-18.272 3.4-17.672-1.6 0.4179-2.6 0.1312-3-0.9165-0.3-0.8385-0.9-1.5246-1.2-1.5246-0.4 0-3.4 8.1-6.6 18-3.7 11.374-6.4 18-7.2 18-0.7 0-1.3-0.389-1.3-0.864s2.7-9.347 6.1-19.716c5.2-16.155 5.9-19.144 4.8-20.886-1.4-2.376-26.8-37.622-28-38.898-0.4-0.475-8.2 3.438-17.3 8.695-10.6 6.102-16.8 9.163-17.3 8.463-0.8-1.436 0.7-2.499 16.4-11.484 7.3-4.159 13.5-7.895 13.8-8.303 0.2-0.408-6.4-4.684-14.8-9.503s-15.4-8.936-15.7-9.15c-0.2-0.213 0.1-0.871 0.7-1.463 0.7-0.767 5.5 1.529 16.7 8.017 8.6 5 16.1 9.092 16.6 9.092 0.8 0 28.6-37.76 29.5-40.289 0.3-0.766-2.1-9.66-5.4-19.77-4.4-13.23-5.7-18.58-4.9-19.1 0.7-0.4 1.4-0.56 1.6-0.35s3 8.32 6.1 18.02c5 15.46 5.9 17.43 7.1 15.98 0.8-0.94 2.3-1.47 3.5-1.24l2.2 0.42-2.3-7.58c-1.3-4.18-3.9-12.2-5.8-17.83-3.1-9.14-3.4-12.45-0.8-10.87 0.4 0.27 3.5 8.84 6.7 19.03l5.9 18.53 24.7 8.027 24.7 8.026 26.1-15.033 26.1-15.03 26.7 15.42 26.8 15.413 0.2 30.479c0.2 23.612 0 30.712-1 31.517-2 1.693-51.9 30.23-52.8 30.23-0.4-0.0001-12.1-6.5251-25.9-14.5-13.8-7.975-25.8-14.493-26.8-14.485-0.9 0.009-12.3 3.496-25.2 7.75l-23.4 7.7349-6.1 18.5c-3.4 10.175-6.4 19.048-6.6 19.718-0.2 0.691-1 0.884-1.7 0.446zm140.4-42.472l24.9-14.307 0.2-29.521 0.3-29.52-24.5-14.172c-13.5-7.791-25-14.171-25.6-14.171-0.5 0-12 6.39-25.4 14.209l-24.6 14.21 0.3 29.484 0.3 29.483 24.5 14.224c13.4 7.8227 24.5 14.261 24.6 14.306 0.1 0.0456 11.4-6.3555 25-14.225zm-25.1 3.3762c-0.5-0.8876 4.6-4.0782 28.6-17.882 11.7-6.702 12.9-7.219 13.5-5.561 0.4 0.999-38.7 24.375-40.7 24.375-0.4-0.0001-1.1-0.4194-1.4-0.9318zm-42.5-47.068c0-20.667 0.2-24 1.5-24s1.5 3.333 1.5 24-0.2 24-1.5 24-1.5-3.333-1.5-24zm63-34.5c-10.8-6.272-20-11.589-20.5-11.829-0.7-0.27-0.6-0.86 0.1-1.63 0.9-0.94 5.8 1.47 21.7 10.62 18.7 10.718 22 13.16 19.1 13.978-0.5 0.145-9.7-4.868-20.4-11.139zm-105.3 73.433c12-3.886 23.9-7.75 26.5-8.585l4.8-1.519-0.3-29.129-0.2-29.128-27-8.807c-14.8-4.844-27.2-8.464-27.5-8.034-1.1 1.26-31.6 43.662-32.4 45.002-0.8 1.281 31.8 47.267 33.5 47.267 0.5-0.0001 10.7-3.18 22.6-7.067zm522.7 41.152c-3.6-1.563-7.3-6.86-8-11.632-1.9-12.651 8.8-21.534 20-16.588 3.7 1.621 5 2.9447 6.6 6.3418 3.3 7.3745 2.1 14.665-3.4 19.71-2.9 2.641-11.3 3.846-15.2 2.168zm13-6.162c4.8-5.682 2.9-16.309-3.4-18.896-3.5-1.4449-6.8-0.8463-10.1 1.8115-1.8 1.4687-2.4 3.125-2.7 7.8105-0.4 5.328-0.2 6.279 2.3 9.149 2.2 2.693 3.3 3.202 7 3.202 3.6 0 4.7-0.515 6.9-3.077zm44 5.191c-4-2.437-6.4-7.67-6.4-13.867 0-14.97 18.3-20.566 26-7.9428 2.4 3.84 2.6 11.271 0.5 16.206-2.8 6.865-13.3 9.77-20.1 5.604zm14-4.502c4.5-4.497 4.2-13.887-0.5-18.218-3-2.6894-9.2-2.4439-12.3 0.4877-4.7 4.3859-4.3 15.146 0.7 18.615 3.3 2.358 9.3 1.922 12.1-0.885zm-748.4-44.612v-15h2.5c2.4 0 2.5 0.267 2.5 6v6h6.9 7l0.3-5.75c0.2-5.094 0.5-5.787 2.5-6.07 2.3-0.319 2.3-0.308 2.3 14.82s0 15.139-2.3 14.819c-2-0.29-2.3-0.936-2.5-7.069l-0.3-6.75h-7-6.9v7c0 6.8-0.1 7-2.5 7h-2.5v-15zm36.1 13.287c-4-1.953-7.1-7.874-7.1-13.569-0.1-11.588 10.3-18.629 20.3-13.779 5.3 2.554 8 7.332 8 14.061 0 11.689-10.8 18.434-21.2 13.287zm13.6-4.701c2.5-2.159 2.8-3.063 2.8-8.582 0-5.748-0.3-6.374-3.4-9.195-2.9-2.555-4-2.937-7-2.451-5.6 0.886-8.1 4.505-8.1 11.552 0 4.768 0.4 6.268 2.4 8.444 3.3 3.559 9.3 3.664 13.3 0.232zm-150.7-14.237c0-0.908 2.5-4.075 5.5-7.038 4.5-4.324 5.5-5.923 5.3-8.1-0.3-2.139-0.9-2.779-3.2-3.035-2.1-0.248-2.9 0.158-3.3 1.75-0.6 2.096-4.3 2.993-4.3 1.028 0-2.03 4.9-5.954 7.5-5.954 3.1 0 7.5 4.095 7.5 7.014 0 1.163-2.3 4.541-5.2 7.546l-5.1 5.44h5.1c3.9 0 5.2 0.361 5.2 1.5 0 1.2-1.5 1.5-7.5 1.5-6.3 0-7.5-0.263-7.5-1.651zm-58-23.349c0-14.894 0-15 2.2-14.982 1.8 0.013 3.8 2.399 9.3 10.681l7 10.664 0.3-10.747c0.2-10.452 0.3-10.738 2.5-10.431 2.1 0.309 2.2 0.606 2.2 14.815 0 13.928-0.1 14.512-2.1 14.797-1.7 0.239-3.6-1.937-9.5-10.927l-7.4-11.224-0.3 11.177c-0.3 10.352-0.4 11.177-2.3 11.177-1.8 0-1.9-0.75-1.9-15zm30 0c0-15.128 0-15.139 2.2-14.82 2 0.283 2.3 0.976 2.6 6.07l0.3 5.75h6.9 7v-6.07c0-5.722 0.1-6.051 2.2-5.75 2.2 0.315 2.3 0.544 2.3 14.82s-0.1 14.505-2.3 14.819c-2.1 0.306-2.2 0.01-2.2-6.75v-7.069h-7-6.9l-0.3 6.75c-0.3 6.133-0.5 6.779-2.6 7.069-2.2 0.32-2.2 0.309-2.2-14.819zm83 4.5c0-3.349-0.2-3.5-3.6-3.5-4.5 0-4.2-2.361 0.4-2.813 2.9-0.286 3.2-0.623 3.2-3.75 0-2.389 0.4-3.437 1.5-3.437 1 0 1.5 1.055 1.5 3.5 0 3.333 0.1 3.5 3.5 3.5 2.4 0 3.5 0.452 3.5 1.5s-1.1 1.5-3.5 1.5c-3.4 0-3.5 0.167-3.5 3.5 0 2.444-0.5 3.5-1.5 3.5-1.1 0-1.5-1.056-1.5-3.5zm448.8-4.7c0.6-0.66 1.2-1.56 1.2-2s-14.4-0.8-32-0.8c-27.8 0-32-0.198-32-1.5s4.2-1.5 32-1.5c17.6 0 32-0.255 32-0.566s-0.5-1.436-1.1-2.5c-0.7-1.462-0.7-1.934 0.3-1.934 2.6 0 17.7 5.517 17.8 6.5 0.1 1.02-13.9 5.415-17.5 5.47-1.5 0.023-1.7-0.237-0.7-1.17zm-402.8-30.8v-14.999h2.5c2.4 0 2.5 0.27 2.5 5.999v6h6.9 7l0.3-5.75c0.2-5.094 0.5-5.789 2.5-6.069 2.3-0.32 2.3-0.31 2.3 14.819 0 15.128 0 15.139-2.3 14.819-2-0.29-2.3-0.936-2.5-7.069l-0.3-6.75h-7-6.9v7c0 6.8-0.1 7-2.5 7h-2.5v-15zm36.1 13.287c-4-1.953-7.1-7.874-7.1-13.569-0.1-11.588 10.3-18.627 20.3-13.779 5.3 2.554 8 7.332 8 14.061 0 11.689-10.8 18.434-21.2 13.287zm13.6-4.701c2.5-2.159 2.8-3.063 2.8-8.582 0-5.748-0.3-6.374-3.4-9.195-2.9-2.555-4-2.937-7-2.451-5.6 0.886-8.1 4.505-8.1 11.552 0 4.768 0.4 6.268 2.4 8.444 3.3 3.559 9.3 3.664 13.3 0.232zm697.8-13.731c-10.5-6.017-19.7-11.344-20.5-11.834-1.1-0.65-1.2-1.2-0.4-2.01s6.3 1.9 20.5 10.039c21.3 12.245 21.7 12.534 20.3 13.848-0.6 0.543-8.4-3.423-19.9-10.043zm-46.8-22.484c-0.4-0.39-0.7-7.15-0.7-15.04v-14.33h2.5c2 0 3.7 1.95 10 11.24l7.5 11.25v-11.25c0-10.62 0.1-11.24 2-11.24 2 0 2 0.51 1.7 14.74-0.3 19.26-0.9 19.47-11.1 4.13l-7.6-11.25-0.2 10.93c-0.3 8.92-0.6 10.98-1.9 11.22-0.8 0.16-1.8-0.02-2.2-0.4zm-931.8-33.64c-8.8-5.84-9.2-19.88-0.8-26.02 3.9-2.85 10.6-3.26 14.9-0.91 10 5.51 10 22.38-0.1 27.45-4.7 2.4-9.9 2.21-14-0.52zm12.1-2.76c2.7-1.44 5-6.21 5-10.47 0-10.23-9.4-15.25-16.1-8.58-2.5 2.54-2.9 3.66-2.9 8.58 0 4.91 0.4 6.03 2.9 8.58 3.1 3.09 7.5 3.84 11.1 1.89zm324.4 2.19c-9.9-4.64-10.6-21.42-1.1-27.2 6.8-4.2 16.2-1.6 19.6 5.45 6.8 14.04-5.1 28.02-18.5 21.75zm12.6-5.08c2.6-2.53 3-3.68 3-8.43 0-7.39-3.3-11.65-9.1-11.65-5.6 0-9 3.27-9.7 9.27-0.6 5.74 1.1 10.3 4.7 12.23 4.2 2.3 7.9 1.83 11.1-1.42zm455.6-4.11c-10.3-3.11-13.5-17.54-5.7-26.19 2.4-2.71 3.6-3.18 8.7-3.51 4.5-0.3 6.6 0.05 9 1.56 8.5 5.37 8.4 21.39-0.2 26.32-3.9 2.21-8.3 2.89-11.8 1.82zm7.8-4.39c4.4-1.82 5.6-4.17 5.6-11.06 0-7.38-2.8-10.52-9.3-10.52-6 0-8.9 3.11-9.5 10.24-0.4 4.34 0 5.75 1.8 8.09 2 2.52 5 4.42 7.3 4.61 0.4 0.03 2.3-0.58 4.1-1.36zm261 3.35c-6.8-1.97-11.2-9.66-10-17.19 1.3-8.43 6.1-12.74 14.1-12.74 6.02 0 10 2.4 12.49 7.54 6.08 12.55-3.98 26.1-16.59 22.39zm7.45-4.04c6.37-2.22 8.4-13.03 3.53-18.81-2.15-2.57-3.31-3.08-6.88-3.08-3.6 0-4.8 0.51-6.9 3.08-4.7 5.55-3.1 15.93 2.8 18.52 3.8 1.64 3.6 1.63 7.45 0.29zm-667.85-38.75c-4.9-2.62-7.5-7.38-7.4-13.77 0.2-9.65 6.5-15.94 15.2-15.04 7.8 0.8 13.2 7.02 13.2 15.17 0 11.62-11.2 18.88-21 13.64zm13-5.06c2.6-2.55 3-3.67 3-8.58 0-4.92-0.4-6.04-3-8.58-4.7-4.73-11.5-3.77-14.5 2.06-2.9 5.53-1.2 14.37 3.2 16.94 3.5 2.02 8.3 1.24 11.3-1.84zm547-0.83c-7.5-3.84-10.2-13.23-6.1-21.59 3.5-7.3 12.8-9.97 19.8-5.7 9.8 6.01 8.7 23.24-1.8 27.44-5.1 2.05-7.6 2.01-11.9-0.15zm10.8-3.68c5-2.56 6.7-10.62 3.7-16.59-3-5.79-10.3-6.87-14.8-2.18-2.3 2.39-2.7 3.68-2.7 8.58 0 5.05 0.3 6.14 2.9 8.7 3.2 3.25 6.6 3.71 10.9 1.49zm-1118.4-6.46c-4-2.43-6.4-7.67-6.4-13.86 0-14.97 18.3-20.57 26-7.95 2.4 3.84 2.6 11.27 0.5 16.21-2.8 6.86-13.3 9.77-20.1 5.6zm14-4.5c4.5-4.5 4.2-13.89-0.5-18.22-3-2.69-9.2-2.44-12.3 0.49-4.7 4.39-4.3 15.15 0.7 18.62 3.3 2.35 9.3 1.92 12.1-0.89zm521.4-31.82l-6.3-19.21-24.5-7.9-24.5-7.89-25.5 14.69c-14 8.07-25.8 14.76-26.1 14.85s-12.6-6.74-27.3-15.18l-26.6-15.36v-30.64-30.65l25.1-14.5c13.8-7.98 25.9-14.89 26.9-15.38 1.4-0.67 7.3 2.29 26.2 13.21 13.4 7.75 25.2 14.4 26.2 14.77 1.1 0.42 11.3-2.39 26-7.14l24.3-7.83 5.8-18.07c3.1-9.93 6.1-18.45 6.5-18.92 0.4-0.48 1.2-0.6 1.8-0.27 0.5 0.36-1.3 7.46-4.4 17.37-3 9.22-5.4 17.13-5.4 17.58s0.8 0.54 1.9 0.21c1.3-0.41 2.4 0.07 3.3 1.41 1.3 1.86 1.9 0.55 7.2-15.91 4.5-14.23 6-17.81 7.2-17.35 0.8 0.32 1.3 1.08 1.1 1.7-0.3 0.61-3 9.11-6.1 18.88l-5.7 17.77 14.8 20.43 14.8 20.43 20 0.31c16.9 0.25 20 0.53 20 1.8s-3.1 1.58-20 2l-19.9 0.5-14.9 20.4-14.9 20.41 6.1 18.72c3.3 10.3 6.1 19.23 6.1 19.85 0 0.61-0.6 1.12-1.4 1.12s-3.4-6.64-7.1-18.06c-5.5-17.37-5.8-17.99-7.6-16.38-1 0.93-2.5 1.42-3.4 1.09-0.8-0.32-1.5-0.17-1.5 0.33 0 0.51 2.4 8.54 5.5 17.84 3 9.3 5.5 17.2 5.5 17.55 0 0.34-0.7 0.63-1.5 0.63-1 0-3.4-5.95-7.7-19.21zm-82.2-23.14l24.9-14.35 0.2-29.01 0.3-29.01-24.8-14.3c-13.6-7.87-25.2-14.3-25.7-14.3-0.6 0-12.2 6.47-25.8 14.37l-24.8 14.37 0.3 28.89 0.3 28.9 24.5 14.3c13.4 7.87 24.8 14.35 25.1 14.4 0.4 0.05 11.9-6.37 25.5-14.26zm-25.2 4.25c-0.4-0.59-0.3-1.45 0.2-1.9 1.6-1.49 39.3-23 40.3-23 3.7 0-1 3.65-14.6 11.5-8.6 4.95-17.8 10.23-20.5 11.74-3.1 1.79-5 2.37-5.4 1.66zm-42.4-47.9c0-20.67 0.2-24 1.5-24s1.5 3.33 1.5 24-0.2 24-1.5 24-1.5-3.33-1.5-24zm62.3-33.9c-17.9-10.24-23.1-14.1-19.2-14.1 1.4 0 37.6 20.63 39.8 22.64 0.9 0.84 1.1 1.67 0.5 2.21-0.5 0.5-9.3-3.93-21.1-10.75zm105.2 57.41c9.1-12.59 16.3-23.4 16.1-24.04-0.8-1.96-32.7-45.47-33.4-45.47-0.4 0-12.7 3.91-27.4 8.68l-26.8 8.68v28.79 28.79l27.2 8.88c15 4.89 27.4 8.82 27.5 8.73 0.1-0.08 7.7-10.45 16.8-23.04zm541.8 37.18l-6.3-19.29-23.9-7.7c-13.1-4.24-24.4-7.7-25-7.7s-12.4 6.52-26.2 14.5c-13.8 7.97-25.5 14.5-26 14.5-0.4 0-12.4-6.72-26.6-14.93l-25.8-14.92v-31.25-31.25l25.5-14.79c14-8.14 26-14.81 26.7-14.83s12.8 6.56 26.8 14.61l25.4 14.63 24.6-7.88 24.5-7.89 6-18.75c4.2-13 6.5-18.75 7.5-18.75 0.8 0 1.5 0.34 1.4 0.75 0 0.41-2.4 8.4-5.5 17.75-3 9.35-5.4 17.14-5.4 17.32 0 0.17 0.9 0.02 2-0.34 1.4-0.45 2.5-0.09 3.4 1.08 0.7 0.96 1.5 1.34 1.8 0.84s2.9-8.33 5.8-17.4c2.8-9.08 5.4-16.7 5.6-16.93 0.2-0.24 0.9 0.04 1.5 0.62 0.7 0.74-0.7 6.39-4.7 18.93-3.1 9.83-5.7 18.19-5.8 18.57s6.6 9.94 14.7 21.25l14.9 20.56h19.9c17 0 19.9 0.22 19.9 1.5s-2.9 1.51-19.8 1.55l-19.7 0.05-15.2 20.98-15.1 20.97 6.3 19.48c3.7 11.62 5.9 19.73 5.3 20.09-1.7 1.02-2.4-0.62-7.3-15.94-6.6-21.1-6.4-20.58-8-18.34-1 1.31-2 1.64-3.6 1.13-1.7-0.53-2.1-0.36-1.7 0.74 1.6 4.1 10.8 33.68 10.8 34.65 0 0.63-0.6 1.14-1.3 1.13-0.7 0-3.8-7.88-7.4-19.3zm-82.6-23.07l24.8-14.38v-29.36-29.35l-24.8-14.31-24.8-14.31-24.9 14.3-25 14.29 0.2 29.39 0.3 29.39 24.5 14.3c13.4 7.86 24.6 14.33 24.7 14.36s11.3-6.41 25-14.32zm-25.2 3.44c-0.3-0.52 2.5-2.71 6.2-4.87 39.2-22.71 34.9-20.49 35.6-18.74 0.4 1.01-5.3 4.79-19.5 12.98-11 6.36-20.4 11.57-20.9 11.57-0.4 0-1.1-0.43-1.4-0.94zm-42.5-47.06c0-20.67 0.2-24 1.5-24s1.5 3.33 1.5 24-0.2 24-1.5 24-1.5-3.33-1.5-24zm62.1-34.44c-10.6-6.21-19.3-11.58-19.3-11.95 0-0.36 0.2-1.09 0.3-1.61 0.4-1.16 41.4 22.38 41.2 23.62-0.5 2.13-4 0.56-22.2-10.06zm106 57.36l16.7-23.04-16.5-22.69c-9-12.48-17-22.83-17.8-23s-13.4 3.6-28 8.39l-26.5 8.7v28.67 28.67l26.2 8.59c14.5 4.73 26.9 8.63 27.8 8.67 0.8 0.05 8.6-9.84 18.1-22.96zm-1124 34.6l-6.3-19.47-24.6-7.96-24.6-7.95-25.9 14.97-26 14.97-15.1-8.73c-8.3-4.8-20.3-11.7-26.6-15.33l-11.5-6.62v-30.83-30.83l26.6-15.39 26.6-15.39 25.9 14.98 26 14.97 24.6-7.97 24.6-7.96 6.1-18.95c4.9-15.26 6.4-18.84 7.6-18.36 0.9 0.32 1.4 1.13 1.1 1.8-0.8 2.26-10.6 32.66-10.6 33.1 0 0.23 0.9 0.43 2.1 0.43s2.7 0.76 3.4 1.68c1 1.42 2.1-1.05 6.9-16 3.9-12.32 6.1-17.68 7.1-17.68 0.8 0 1.5 0.29 1.5 0.64s-2.7 8.95-6.1 19.11c-3.6 11.27-5.6 18.92-5.1 19.61 0.5 0.63 7.3 10.03 15.1 20.89l14.3 19.75h19.9c17 0 19.9 0.22 19.9 1.5s-2.9 1.5-19.9 1.5h-19.9l-15.1 20.91-15.2 20.92 6.1 18.45c3.3 10.14 6 18.96 6 19.58 0 0.63-0.6 1.14-1.4 1.14s-3.4-6.65-7.1-18.06c-5.2-16.38-5.9-17.88-7.1-16.09-0.9 1.27-2.1 1.78-3.4 1.44-1.1-0.29-2-0.27-2 0.05 0 0.31 2.5 8.25 5.5 17.63 5.1 15.64 5.7 19.03 3.6 19.03-0.4 0-3.6-8.76-7-19.48zm-81.9-23.74l24.8-14.22v-29.03l-0.1-29.03-24-13.85c-13.1-7.61-24.7-14.01-25.7-14.22-0.9-0.22-12.7 6.01-26.2 13.86l-24.5 14.24v28.98 28.98l24.5 14.23c13.4 7.82 24.9 14.24 25.5 14.25 0.5 0.02 12.1-6.37 25.7-14.19zm-25.7 4.22c-0.4-0.62-0.6-1.28-0.4-1.47 0.7-0.69 39.1-22.68 40.5-23.24 1.1-0.41 1.5-0.06 1.2 1.14-0.2 1.01-8.1 6.23-19.3 12.74-22 12.74-21.1 12.31-22 10.83zm-42.1-24.27c-0.2-0.7-0.3-11.58-0.2-24.17 0.2-17.23 0.6-23 1.5-23.31 1-0.33 1.3 4.94 1.3 24.17 0 16.22-0.4 24.58-1.1 24.58-0.5 0-1.2-0.57-1.5-1.27zm62.1-57.34c-11-6.37-20.2-11.77-20.5-12-0.2-0.23 0.1-0.89 0.6-1.45 1.3-1.3 41.4 21.61 41.4 23.66 0 0.77-0.4 1.39-0.8 1.38s-9.7-5.22-20.7-11.59zm104.6 58.13c9-12.37 16.5-23.05 16.6-23.75 0.2-1-29.4-42.86-32.5-45.93-0.4-0.42-12.9 3.18-27.7 8l-27 8.75v28.92 28.93l26.5 8.69c14.5 4.78 26.8 8.73 27.1 8.78 0.4 0.05 8.1-10.03 17-22.39zm1230.9 8.79c0-0.93 2.48-3.98 5.5-6.77 6.14-5.67 7.37-9.81 3.31-11.1-1.69-0.54-2.72-0.04-4.47 2.16-1.69 2.11-2.57 2.57-3.4 1.74-1.58-1.59 0.49-5.17 3.69-6.39 4.83-1.84 10.37 1.55 10.37 6.33 0 1.01-2.31 4.29-5.14 7.28l-5.15 5.44h5.15c3.9 0 5.14 0.36 5.14 1.5 0 1.2-1.5 1.5-7.5 1.5-6.37 0-7.5-0.25-7.5-1.69zm-617.77-17.06c0.3-13.92 0.4-14.75 2.2-14.75 1.4 0 4.3 3.26 9.5 10.86l7.6 10.86 0.3-11.18c0.2-9.94 0.4-11.14 2-10.85 1.5 0.3 1.7 2.07 1.9 15.07l0.3 14.74h-2.4c-1.9 0-3.7-2.09-9.5-10.75l-7.1-10.75v10.75 10.75h-2.6-2.5l0.3-14.75zm755.96 13.07c-6.5-3.2-9.29-14.62-5.44-22.32 4.32-8.64 18.45-9.32 22.7-1.09 1.41 2.72 1.37 2.9-0.73 3.45-1.23 0.33-2.39 0.1-2.59-0.51-1.54-4.5-8.59-6.32-12.88-3.31-2.61 1.82-4.56 8.26-3.68 12.17 1.26 5.7 1.63 6.34 4.45 7.8 4.42 2.29 6.95 1.81 10.55-2.01 3.18-3.38 6.43-4.62 6.43-2.45 0 2.62-3.22 6.82-6.36 8.31-4.33 2.06-8.22 2.05-12.45-0.04zm60.83-0.02c-10.35-5.36-10.93-22.12-0.96-27.47 6.85-3.68 15.63-1.27 19.11 5.23 2.46 4.58 2.4 12.49-0.13 16.63-3.94 6.47-11.7 8.88-18.02 5.61zm11.82-4.82c5.22-4.39 5.14-15.28-0.14-18.98-2.77-1.94-8.65-1.92-11.45 0.04-2.72 1.9-4.55 8.34-3.68 12.98 0.8 4.27 5.48 8.48 9.43 8.48 1.58 0 4.18-1.12 5.84-2.52zm-108.62-9.23l0.28-14.75 9.35 0.02c8.99 0.01 9.45 0.12 11.75 2.8 1.32 1.54 2.4 3.64 2.4 4.69 0 3.32-2.27 7.02-4.67 7.62-2.85 0.72-2.85 0.7-0.08 3.7 1.24 1.33 3.29 4.28 4.56 6.55l2.32 4.12h-2.53c-1.96 0-3.42-1.31-6.51-5.88-4.23-6.22-5.51-7.12-10.17-7.12h-2.92v6.5c0 5.86-0.2 6.5-2.03 6.5-1.95 0-2.01-0.51-1.75-14.75zm17.58-3.45c1.84-1.84 1.43-5.61-0.73-6.77-1.07-0.57-4.44-1.03-7.5-1.03h-5.57v4.5 4.5h6.3c3.57 0 6.82-0.52 7.5-1.2zm42.42 3.45c0.27-13.99 0.38-14.75 2.28-14.75 1.73 0 2.04 0.77 2.3 5.75l0.3 5.75h6.9 6.9l0.3-5.75c0.26-4.98 0.57-5.75 2.3-5.75 1.9 0 2.01 0.76 2.28 14.75l0.27 14.75h-2.52c-2.45 0-2.53-0.22-2.53-6.5v-6.5h-7-7v6.5c0 6.28-0.08 6.5-2.53 6.5h-2.52l0.27-14.75zm-1198 7.44c-6.7-2.27-12.2-4.49-12.2-4.92s27.7-0.67 61.6-0.53c48.3 0.2 61.8 0.53 62.1 1.51 0.4 0.99-10 1.25-49.6 1.25h-50.1l1 2.56c1.2 3.08 1.2 4.47 0.2 4.35-0.4-0.04-6.2-1.94-13-4.22zm977.8-12.69c0-14.21 0.1-15 1.9-15 1.4 0 4.2 3.25 9.3 10.73l7.3 10.73 0.3-10.8c0.2-10.5 0.3-10.78 2.5-10.48 2.1 0.31 2.2 0.61 2.2 14.82 0 14.17-0.1 14.51-2.2 14.81-1.8 0.26-3.5-1.67-9.8-10.99l-7.5-11.31v11.25c0 10.57-0.1 11.24-2 11.24s-2-0.67-2-15zm30 0c0-15.13 0-15.14 2.2-14.82 2 0.28 2.3 0.98 2.6 6.07l0.27 5.75h6.95 6.95v-6.07c0-5.72 0.13-6.05 2.25-5.75 2.22 0.31 2.25 0.54 2.25 14.82 0 14.27-0.03 14.5-2.25 14.82-2.15 0.3-2.25 0.01-2.25-6.75v-7.07h-6.95-6.96l-0.26 6.75c-0.3 6.13-0.5 6.78-2.6 7.07-2.2 0.32-2.2 0.31-2.2-14.82zm86.61 13.31c-0.35-0.36-0.64-2.14-0.64-3.98 0-3.14-0.2-3.33-3.5-3.33-1.92 0-3.5-0.45-3.5-1s1.58-1 3.5-1c3.33 0 3.5-0.17 3.5-3.5 0-2.45 0.45-3.5 1.5-3.5s1.5 1.05 1.5 3.5c0 3.33 0.17 3.5 3.5 3.5 1.93 0 3.5 0.45 3.5 1s-1.57 1-3.5 1c-3.32 0-3.5 0.17-3.5 3.44 0 3.37-1.08 5.14-2.36 3.87zm-442.11-4.31l1.5-3h-46.5c-30.4 0-46.5-0.35-46.5-1s16.1-1 46.5-1c25.5 0 46.5-0.25 46.5-0.55s-0.7-1.88-1.6-3.5c-0.8-1.62-1.2-2.95-0.9-2.95 0.9 0 24.9 7.19 25.4 7.61 0.9 0.88-1.3 1.7-12.1 4.46-14.4 3.67-14.3 3.67-12.3-0.07zm-780.8-3.63c-0.4-0.39-0.7-7.15-0.7-15.04v-14.33l2.7 0.02c2.4 0.01 3.7 1.43 9.8 10.68l7 10.66 0.3-10.68c0.2-9.86 0.4-10.68 2.2-10.68 1.9 0 2 0.75 2 15 0 19.36-0.7 19.6-11.1 3.82l-7.4-11.18-0.5 10.92c-0.4 8.8-0.8 10.97-2.1 11.21-0.8 0.17-1.8-0.02-2.2-0.4zm120.9-3.04c-0.3-0.36-0.6-1.04-0.6-1.49s22.5-0.94 50-1.08l49.9-0.26-1.3-2.68c-0.8-1.47-1.2-2.89-1-3.15 0.6-0.59 24.5 7.25 25.8 8.46 0.6 0.49-25.5 0.87-60.6 0.87-33.8 0-61.8-0.3-62.2-0.67zm613.4-9.9c0-1.71 2.8-5.47 7.2-9.57 3.7-3.47 4.9-5.23 4.6-7-0.5-3.23-5.2-3.85-7-0.92-1.5 2.4-3.8 2.74-3.8 0.56 0-4.53 7.4-7.01 11.7-3.94 3.9 2.69 3 7.1-2.4 12.65l-4.8 4.79h4.8c4 0 4.7 0.28 4.7 2 0 1.82-0.7 2-7.5 2-4.2 0-7.5-0.26-7.5-0.57zm-153.9-1.33c-0.9-0.58 0.7-4.21 6.4-13.95 6.7-11.47 9.5-14.75 9.5-11.01 0 0.75-13.3 24.36-14.4 25.55-0.1 0.11-0.8-0.15-1.5-0.59zm-9.6-6.01c-0.3-0.5 3.5-7.81 8.4-16.25l8.9-15.34 20.1-0.27c17.3-0.23 20.1-0.06 20.1 1.23 0 1.27-2.9 1.54-19.2 1.77l-19.1 0.27-8.6 14.75c-4.7 8.11-8.9 14.75-9.3 14.75s-1-0.41-1.3-0.91zm135.9-3.39c-0.3-0.72-0.4-7.35-0.2-14.75 0.3-13.09 0.3-13.46 2.5-13.77 2.1-0.3 2.3 0.03 2.3 5.75v6.07h7.5 7.5v-6c0-5.33 0.2-6 2-6 1.9 0 2 0.67 2 15s-0.1 15-2 15c-1.8 0-2-0.67-2-7v-7h-7.5-7.5v7c0 6.37-0.2 7-2.1 7-1.1 0-2.2-0.59-2.5-1.3zm52.9-0.66c-9.6-5.85-8.8-22.2 1.3-27.1 13.2-6.39 25.4 8.22 18.4 21.96-3.4 6.69-13.1 9.21-19.7 5.14zm14.2-4.69c3.5-3.78 3.6-12.98 0.1-17.02-3.4-3.91-9.5-3.93-13.4-0.04-2.4 2.4-2.7 3.54-2.7 8.82 0 5.4 0.3 6.32 2.8 8.48 4 3.43 9.9 3.32 13.2-0.24zm-815.5 3.15c0-1.28 2.6-1.5 17.5-1.5s17.5 0.22 17.5 1.5-2.6 1.5-17.5 1.5-17.5-0.22-17.5-1.5zm65-9.93c0-0.32 4.1-7.78 9.1-16.57l9.1-16h19.9c17 0 19.9 0.22 19.9 1.5s-2.8 1.5-18.9 1.5h-18.9l-8.5 14.75c-4.7 8.11-9.2 14.89-10.1 15.07s-1.6 0.07-1.6-0.25zm612.6-0.24c-0.3-0.36-0.6-7.11-0.6-15v-14.33h9.5c8.8 0 9.8 0.19 12 2.45 4 4 3.2 9.6-1.8 12.16l-2.9 1.54 1.9 2.18c2.5 2.79 7.3 9.9 7.3 10.9 0 0.42-1.1 0.77-2.3 0.77-1.7 0-3.4-1.64-6.6-6.5-4.2-6.38-4.3-6.5-8.7-6.5h-4.4v6.5c0 4.75-0.4 6.5-1.4 6.5-0.7 0-1.6-0.3-2-0.67zm17.9-21.33v-3.5l-7.3-0.29-7.2-0.3v4.09 4.09l7.2-0.3 7.3-0.29v-3.5zm-565.5-9v-15h9.5c8.8 0 9.8 0.19 12 2.45 1.6 1.55 2.5 3.6 2.5 5.55 0 3.15-3.7 8-6.2 8-0.7 0-0.3 0.93 0.9 2.25 2.1 2.31 7.3 10.3 7.3 11.23 0 0.28-1.1 0.52-2.4 0.52-1.7 0-3.2-1.23-5.1-4.25-4.8-7.34-6.5-8.75-10.7-8.75h-3.8v6.5c0 5.83-0.2 6.5-2 6.5-1.9 0-2-0.67-2-15zm17-3.04c2.2-1.15 2.6-4.92 0.8-6.76-0.7-0.68-4-1.2-7.5-1.2h-6.3v4.5 4.5h5.5c3.1 0 6.5-0.47 7.5-1.04zm372.6-19.99c-10.3-3.11-13.5-17.54-5.7-26.19 2.4-2.71 3.6-3.18 8.7-3.51 4.5-0.3 6.6 0.05 9 1.56 8.5 5.37 8.4 21.39-0.2 26.32-3.9 2.21-8.3 2.89-11.8 1.82zm7.8-4.39c4.4-1.82 5.6-4.17 5.6-11.06 0-7.38-2.8-10.52-9.3-10.52-6 0-8.9 3.11-9.5 10.24-0.4 4.34 0 5.75 1.8 8.09 2 2.52 5 4.42 7.3 4.61 0.4 0.03 2.3-0.58 4.1-1.36zm548.7-3.29c-4-1.96-7.1-7.88-7.1-13.57-0.1-11.59 10.3-18.63 20.3-13.78 5.3 2.55 8 7.33 8 14.06 0 11.69-10.8 18.43-21.2 13.29zm13.6-4.7c2.5-2.16 2.8-3.07 2.8-8.59 0-5.74-0.3-6.37-3.4-9.19-2.9-2.56-4-2.94-7-2.45-5.6 0.88-8.1 4.5-8.1 11.55 0 4.77 0.4 6.27 2.4 8.44 3.3 3.56 9.3 3.67 13.3 0.24zm-1118.7-4.29c-10.4-5.36-10.9-22.12-1-27.47 6.9-3.68 15.7-1.27 19.1 5.23 2.5 4.58 2.4 12.49-0.1 16.63-3.9 6.47-11.7 8.88-18 5.61zm11.8-4.82c5.2-4.39 5.1-15.28-0.1-18.98-2.8-1.94-8.7-1.92-11.5 0.04-2.7 1.9-4.5 8.34-3.7 12.98 0.8 4.27 5.5 8.48 9.5 8.48 1.6 0 4.1-1.12 5.8-2.52zm897.3-35.19c-4-1.96-7.1-7.88-7.1-13.57-0.1-11.59 10.3-18.63 20.3-13.78 5.3 2.55 8 7.33 8 14.06 0 11.69-10.8 18.43-21.2 13.29zm13.6-4.7c2.5-2.16 2.8-3.07 2.8-8.59 0-5.74-0.3-6.37-3.4-9.19-2.9-2.56-4-2.94-7-2.45-5.6 0.88-8.1 4.5-8.1 11.55 0 4.77 0.4 6.27 2.4 8.44 3.3 3.56 9.3 3.67 13.3 0.24zm-904.3-25.51c-3.6-1.56-7.3-6.86-8-11.63-1.9-12.65 8.8-21.53 20-16.59 3.7 1.62 5 2.95 6.6 6.35 3.3 7.37 2.1 14.66-3.4 19.71-2.9 2.64-11.3 3.84-15.2 2.16zm13-6.16c4.8-5.68 2.9-16.31-3.4-18.89-3.5-1.45-6.8-0.85-10.1 1.81-1.8 1.47-2.4 3.12-2.7 7.81-0.4 5.33-0.2 6.28 2.3 9.15 2.2 2.69 3.3 3.2 7 3.2 3.6 0 4.7-0.52 6.9-3.08zm872 2.68c-0.3-0.76-3.1-9.43-6.2-19.25l-5.7-17.85-24.7-8.2-24.7-8.19-26 14.99-26 14.99-26.6-15.29-26.5-15.3v-31-31l26.6-15.28 26.5-15.27 26 15 25.9 14.99 23.8-7.64c13-4.2 24.2-8.13 24.8-8.72 0.7-0.59 3.8-9.07 6.9-18.83 3.8-11.84 6.1-17.75 7.1-17.75 0.7 0 1.4 0.27 1.4 0.6 0 0.54-9.7 31.31-10.7 34.02-0.3 0.71 0.5 0.95 2 0.66 1.3-0.26 2.7 0.02 3.1 0.62 0.4 0.61 1 1.1 1.5 1.1 0.4 0 3.2-7.65 6.2-17 3.2-10.04 5.9-17 6.6-17 1.9 0 1.7 0.98-4.2 19.54-3.1 9.48-5.5 17.76-5.5 18.42 0 0.65 6.6 10.36 14.7 21.57l14.8 20.39 19.7 0.04c16.9 0.03 19.8 0.26 19.8 1.54s-2.9 1.5-19.8 1.54l-19.7 0.03-14.8 20.4c-8.1 11.21-14.7 20.94-14.7 21.62 0 1.01 9.9 33.03 11.6 37.36 0.3 0.71-0.2 1.55-1 1.87-1.2 0.47-2.7-2.99-7.2-17.12-3.1-9.73-5.8-17.88-6-18.09-0.2-0.22-1.1 0.17-1.9 0.86-0.8 0.7-2.4 1.03-3.5 0.74s-2-0.44-2-0.34 2.6 8.37 5.8 18.37c3.3 10.01 5.7 18.44 5.4 18.73-1 0.96-2.3 0.55-2.8-0.87zm-87.9-41.73l24.5-14.14v-29.22-29.21l-24.6-14.2c-13.6-7.81-25.2-14.07-25.8-13.9-0.7 0.16-12.1 6.58-25.4 14.27l-24.2 13.96v29.07 29.06l24.2 14.14c13.4 7.77 24.9 14.17 25.6 14.22 0.7 0.04 12.3-6.28 25.7-14.05zm-25.5 3.82c0-2.17 39.9-25.13 41.3-23.76 0.6 0.57 0.8 1.23 0.6 1.46-0.8 0.74-38.8 22.63-40.4 23.24-1 0.36-1.5 0.01-1.5-0.94zm-42-47.19c0-19.29 0.2-24.58 1.2-24.25 1 0.32 1.3 6.07 1.3 24.25s-0.3 23.93-1.3 24.25-1.2-4.96-1.2-24.25zm62-33.99c-10.8-6.26-19.7-12.08-19.9-12.94-0.1-0.86 0-1.57 0.4-1.57s9.9 5.29 21.1 11.75c18.4 10.61 21.8 13.09 18.8 13.87-0.5 0.14-9.7-4.86-20.4-11.11zm105 57.47c9-12.63 16.4-23.37 16.3-23.87-0.2-0.63-29.6-41.79-32.8-45.89-0.1-0.15-12.6 3.74-27.6 8.63l-27.4 8.9v28.77 28.77l26.5 8.75c14.5 4.81 26.9 8.78 27.5 8.82 0.5 0.05 8.4-10.25 17.5-22.88zm-552 39.37c0-0.91 2.5-4.08 5.5-7.04 4.5-4.32 5.5-5.92 5.3-8.1-0.3-2.14-0.9-2.78-3.2-3.03-2.1-0.25-2.9 0.15-3.3 1.75-0.6 2.09-4.3 2.99-4.3 1.02 0-2.03 4.9-5.95 7.5-5.95 3.1 0 7.5 4.09 7.5 7.01 0 1.17-2.3 4.54-5.2 7.55l-5.1 5.44h5.1c3.9 0 5.2 0.36 5.2 1.5 0 1.2-1.5 1.5-7.5 1.5-6.3 0-7.5-0.26-7.5-1.65zm-351.5-8.6c-0.3-0.69-3-9.13-6.1-18.75-3.1-9.63-6.1-17.99-6.8-18.58-0.6-0.6-11.8-4.56-24.9-8.8l-23.8-7.72-26.1 15.08-26.1 15.09-26.6-15.38-26.6-15.38-0.3-30.91-0.2-30.9 26.4-15.25c14.5-8.39 26.8-15.25 27.3-15.25s12.2 6.52 26 14.5c13.8 7.97 25.9 14.48 26.9 14.45s12.4-3.53 25.3-7.77l23.5-7.73 5.9-18.72c3.8-11.86 6.5-18.73 7.3-18.73 2 0 1.7 1.48-2.7 14.55-2.2 6.57-4.6 14.13-5.4 16.8l-1.5 4.85 2.4-0.6c1.8-0.43 2.8-0.1 3.4 1.13 0.6 0.97 1.2 1.53 1.4 1.26 0.3-0.27 2.8-7.92 5.7-16.99 5.4-16.96 6.2-18.67 7.9-17.6 0.6 0.38-1.3 7.43-4.9 18.33-3.3 9.74-5.9 18.43-5.9 19.3 0 1.24 25.4 37.51 29 41.3 0.4 0.46 7.4-3.04 15.5-7.78 8.2-4.75 15.5-8.39 16.2-8.1 0.8 0.3 1.2 0.9 0.9 1.34s-6.8 4.38-14.5 8.76c-7.7 4.37-14.1 8.23-14.1 8.58s6.5 4.39 14.5 8.97c7.9 4.58 14.5 8.91 14.5 9.62 0 0.7-0.5 1.28-1 1.28s-7.8-4-16.2-8.88-15.4-8.82-15.4-8.75c-2.6 2.91-29.4 40.92-29.4 41.69 0 0.92 10 33.2 11.8 37.79 0.3 0.88-0.2 1.23-1.3 1-1.3-0.26-3.2-4.73-7.2-17.35-3.1-9.35-5.7-17.18-5.9-17.39-0.2-0.22-1.1 0.17-1.9 0.86-0.8 0.7-2.4 1.02-3.6 0.73-1.5-0.41-1.9-0.15-1.5 1.13 6.1 18.22 11.2 35.19 10.8 35.62-1 0.94-2.3 0.6-2.7-0.7zm-88.3-41.98l24.8-14.23-0.3-29.39-0.2-29.39-25-14.36c-22.5-12.95-25.1-14.24-27-13.07-1.1 0.71-12.5 7.32-25.3 14.68l-23.3 13.39 0.3 29.03 0.3 29.04 24.5 14.22c13.4 7.81 24.9 14.23 25.5 14.26 0.5 0.03 12.1-6.35 25.7-14.18zm-25.8 4.12c-0.8-1.33-2.5-0.24 21.4-14 13.3-7.68 19.6-10.82 20.4-10.11 0.7 0.71 0.3 1.5-1.4 2.55-3.4 2.18-39 22.67-39.4 22.67-0.2 0-0.6-0.5-1-1.11zm-42.4-47.89c0-20.67 0.2-24 1.5-24s1.5 3.33 1.5 24-0.2 24-1.5 24-1.5-3.33-1.5-24zm64.9-32.6c-24.1-13.85-23.4-13.37-22.1-14.65 1.5-1.51 42.2 21.89 41.5 23.85-0.3 0.77-0.6 1.4-0.7 1.4s-8.5-4.77-18.7-10.6zm101.1 59.4c7.9-11.07 15.5-21.58 16.8-23.36l2.3-3.23-16.2-22.36c-8.9-12.29-16.6-22.77-17-23.28-0.6-0.56-11.8 2.6-28.4 7.97l-27.6 8.91 0.3 28.9 0.3 28.9 27 8.82c14.8 4.86 27.2 8.84 27.5 8.84 0.2 0.01 7-9.04 15-20.11zm284 44.2c0-14.21 0.1-15 1.9-15 1.4 0 4.2 3.25 9.3 10.73l7.3 10.73 0.3-10.8c0.2-10.5 0.3-10.78 2.5-10.48 2.1 0.31 2.2 0.61 2.2 14.82 0 14.17-0.1 14.51-2.2 14.81-1.8 0.26-3.5-1.67-9.8-10.99l-7.5-11.31v11.25c0 10.57-0.1 11.24-2 11.24s-2-0.67-2-15zm30 0c0-15.13 0-15.14 2.2-14.82 2 0.28 2.3 0.98 2.6 6.07l0.3 5.75h6.9 7v-6.07c0-5.72 0.1-6.05 2.2-5.75 2.2 0.31 2.3 0.54 2.3 14.82 0 14.27-0.1 14.5-2.3 14.82-2.1 0.3-2.2 0.01-2.2-6.75v-7.07h-7-6.9l-0.3 6.75c-0.3 6.13-0.5 6.78-2.6 7.07-2.2 0.32-2.2 0.31-2.2-14.82zm-19.3-39.7l-0.2-19.69-13.5-7.85c-7.5-4.31-14.1-8.17-14.7-8.57-0.7-0.39-0.9-1.26-0.5-1.92 0.5-0.85 5.2 1.31 15.6 7.26 8.1 4.66 15 8.47 15.3 8.47 0.2 0 10.3-5.71 22.3-12.69l22-12.7v-19.8c0-19.14 0-19.81 2-19.81 1.9 0 2 0.67 2 18.25v18.25l3.5 0.07 3.5 0.08v-18.33c0-15.5 0.2-18.32 1.4-18.32 1.3 0 1.6 3.11 1.8 19.74l0.3 19.74 12.5 7.21c6.8 3.97 12.6 7.91 12.8 8.76s0 1.55-0.4 1.55-7.8-4.06-16.4-9.02l-15.7-9.01-24.9 14.4-24.9 14.4-0.3 19.62c-0.2 16.39-0.5 19.61-1.7 19.61s-1.5-3.23-1.8-19.7zm665.3 0.77c0-14.97 0-15.07 2.2-15.03 1.7 0.02 3.9 2.47 9.3 10.45l7 10.42 0.3-10.45c0.2-10.38 0.3-10.46 2.7-10.46h2.5v14.44c0 8.63-0.4 14.69-1 15.06-2.3 1.42-4.9-1.07-11.5-11.2l-7-10.67-0.5 10.92c-0.5 9.38-0.8 10.97-2.3 11.26-1.6 0.31-1.7-0.92-1.7-14.74zm125 13.18c-4-2-8-8.88-8-13.75 0-4.84 4-11.74 8-13.81 4.1-2.14 10.6-1.79 14.5 0.77 4 2.59 6.8 9.84 6.1 15.44-0.4 2.53-1.5 5.72-2.5 7.1-2.3 3.18-7.8 6-11.6 6-1.7 0-4.6-0.79-6.5-1.75zm13-5.17c2.6-2.55 3-3.67 3-8.58 0-4.92-0.4-6.04-3-8.58-2.1-2.16-3.8-2.92-6.5-2.92s-4.4 0.76-6.6 2.92c-2.5 2.54-2.9 3.66-2.9 8.58 0 4.91 0.4 6.03 2.9 8.58 2.2 2.16 3.9 2.92 6.6 2.92s4.4-0.76 6.5-2.92zm13-8.08c0-14.33 0.1-15 2-15 1.7 0 2 0.67 2 6v6h7.5 7.5v-6c0-5.33 0.2-6 2-6 1.9 0 2 0.67 2 15.07 0 13.82-0.2 15.05-1.8 14.74-1.4-0.27-1.8-1.59-2-7.07l-0.3-6.74h-7.5-7.4v7c0 6.33-0.2 7-2 7-1.9 0-2-0.67-2-15zm-1045 12.3c-10.4-5.36-10.9-22.12-1-27.47 6.9-3.68 15.7-1.27 19.1 5.23 2.5 4.58 2.4 12.49-0.1 16.63-3.9 6.47-11.7 8.88-18 5.61zm11.8-4.82c5.2-4.39 5.1-15.28-0.1-18.98-2.8-1.94-8.7-1.92-11.5 0.04-2.7 1.9-4.5 8.34-3.7 12.98 0.8 4.27 5.5 8.48 9.5 8.48 1.6 0 4.1-1.12 5.8-2.52zm13.4-9.23c0.3-13.99 0.4-14.75 2.3-14.75 1.7 0 2 0.77 2.3 5.75l0.3 5.75h6.9 6.9l0.3-5.75c0.2-4.98 0.5-5.75 2.3-5.75 1.9 0 2 0.76 2.2 14.75l0.3 14.75h-2.5c-2.4 0-2.5-0.22-2.5-6.5v-6.5h-7-7v6.5c0 6.28-0.1 6.5-2.6 6.5h-2.5l0.3-14.75zm1220.8 7.18c0-0.72 0.45-1.59 1-1.93 3.54-2.19-2.78-2.5-51-2.5-45.55 0-52-0.19-52-1.5 0-1.32 6.46-1.5 52.11-1.5 41.29 0 52-0.26 51.59-1.25-2.39-5.86-3.02-5.76 11.15-1.7 14.64 4.19 13.96 3.91 12.15 4.92-0.82 0.46-6.79 2.17-13.25 3.81-8.87 2.24-11.75 2.65-11.75 1.65zm-668.97-4.07c0-0.27 0.4-1.36 1-2.43 1-1.9-0.1-1.93-74-1.93-66 0-75-0.18-75-1.5s8.9-1.5 74.6-1.5h74.6l-0.7-2.58c-0.5-2.23-0.3-2.5 1.4-1.96 11.8 3.77 18.3 6.3 17.4 6.85-1.6 0.99-19.3 5.62-19.3 5.05zm-248.3-7.79c-4.8-1.72-6.2-2.9-8.1-7.02-3.5-7.29-0.7-17.91 5.5-21.14 2.3-1.15 4.8-1.5 8.7-1.18 4.6 0.39 6 0.97 8.3 3.58 7.8 8.76 4.5 23.26-6.1 26.19-4.2 1.19-3.7 1.22-8.3-0.43zm11.3-6.16c2.1-2.07 2.5-3.39 2.5-8.35 0-7.8-2.7-11.06-9.2-11.06-6.6 0-9.3 3.14-9.3 10.52 0 6.79 1.1 9.2 5.3 11.04 3.9 1.75 7.4 1.05 10.7-2.15zm12.4 5.29c-0.3-0.72-0.4-7.35-0.2-14.75 0.3-13.09 0.3-13.46 2.5-13.77 2.1-0.3 2.3 0.03 2.3 5.75v6.07h7.5 7.5v-6c0-5.33 0.2-6 2-6 1.9 0 2 0.67 2 15s-0.1 15-2 15c-1.8 0-2-0.67-2-7v-7h-7.5-7.5v7c0 6.37-0.2 7-2.1 7-1.1 0-2.2-0.59-2.5-1.3zm499.6-4.2c0-1.28 2.6-1.5 17.5-1.5s17.5 0.22 17.5 1.5-2.6 1.5-17.5 1.5-17.5-0.22-17.5-1.5zm-336-5.19c0-0.93 2.4-3.98 5.5-6.77 6.1-5.67 7.3-9.81 3.3-11.1-1.7-0.54-2.7-0.04-4.5 2.16-1.7 2.11-2.6 2.57-3.4 1.74-1.6-1.59 0.5-5.17 3.7-6.39 4.8-1.84 10.4 1.55 10.4 6.33 0 1.01-2.3 4.29-5.2 7.28l-5.1 5.44h5.1c3.9 0 5.2 0.36 5.2 1.5 0 1.2-1.5 1.5-7.5 1.5-6.4 0-7.5-0.25-7.5-1.69zm715.97 0c0-0.93 2.48-3.98 5.5-6.77 6.14-5.67 7.37-9.81 3.31-11.1-1.69-0.54-2.72-0.04-4.47 2.16-1.69 2.11-2.57 2.57-3.4 1.74-1.58-1.59 0.49-5.17 3.69-6.39 4.83-1.84 10.37 1.55 10.37 6.33 0 1.01-2.31 4.29-5.14 7.28l-5.15 5.44h5.15c3.9 0 5.14 0.36 5.14 1.5 0 1.2-1.5 1.5-7.5 1.5-6.37 0-7.5-0.25-7.5-1.69zm-1118-3.81c0-3.33-0.2-3.5-3.5-3.5-2.5 0-3.5-0.45-3.5-1.5s1-1.5 3.5-1.5c3.3 0 3.5-0.17 3.5-3.5 0-2.45 0.4-3.5 1.5-3.5 1 0 1.5 1.05 1.5 3.5 0 3.33 0.1 3.5 3.5 3.5 2.4 0 3.5 0.45 3.5 1.5s-1.1 1.5-3.5 1.5c-3.4 0-3.5 0.17-3.5 3.5 0 2.44-0.5 3.5-1.5 3.5-1.1 0-1.5-1.06-1.5-3.5zm897.7-2.14c-1.3-2.12-5.5-9.36-9.3-16.08l-6.9-12.23h-29-29l-8.9 15.47c-4.8 8.52-9.2 15.48-9.7 15.48-2.3 0-1.1-2.85 7.1-17.07 7.9-13.76 8.7-15.64 7.6-17.43-1-1.51-11.7-20-14.3-24.65-0.2-0.35 0.3-0.89 1.1-1.19 1-0.39 3.7 3.36 9.2 12.89l7.7 13.45 26.1-0.01 26.1-0.02 9.4-16.48c5.3-9.07 9.8-16.49 10.2-16.49 2.4 0 1 3.44-7 17.17-7.7 13.16-8.7 15.37-7 15.65 1 0.17 2.4 1.16 3.2 2.2 1.2 1.7 2.1 0.42 10.2-13.57 4.8-8.5 9.4-15.45 10.1-15.45 0.8 0 1.4 0.41 1.4 0.91s-4.1 7.89-9 16.43c-5 8.53-9 16.06-9 16.73s3.2 6.8 7.1 13.62c5.1 8.78 6.9 12.72 6.1 13.47-0.7 0.76-1.8-0.06-3.5-2.8zm-468-2.79c-4.8-1.72-6.2-2.9-8.1-7.02-3.5-7.29-0.7-17.91 5.5-21.14 2.3-1.15 4.8-1.5 8.7-1.18 4.6 0.39 6 0.97 8.3 3.58 7.8 8.76 4.5 23.26-6.1 26.19-4.2 1.19-3.7 1.22-8.3-0.43zm11.3-6.16c2.1-2.07 2.5-3.39 2.5-8.35 0-7.8-2.7-11.06-9.2-11.06-6.6 0-9.3 3.14-9.3 10.52 0 6.79 1.1 9.2 5.3 11.04 3.9 1.75 7.4 1.05 10.7-2.15zm624.51 6.1c-4.86-1.74-7.16-4.61-8.44-10.56-1.3-5.98 0.23-11.93 4-15.54 2.34-2.25 4.04-2.87 8.86-3.21 5.57-0.41 6.16-0.24 9 2.6 1.67 1.68 3.04 3.75 3.04 4.62 0 2.47-3.59 1.86-5.41-0.92-2.31-3.53-9.24-3.57-12.53-0.06-2.97 3.16-3.78 9.91-1.76 14.73 2.81 6.74 11.85 7.31 15.13 0.96 1.14-2.2 2.04-2.82 3.55-2.43 2.49 0.66 2.5 1.01 0.07 4.99-3.24 5.31-9.09 7.13-15.51 4.82zm31.07 0.46c-10.29-3.11-13.43-17.54-5.71-26.19 2.43-2.71 3.59-3.18 8.7-3.51 4.58-0.3 6.59 0.05 8.98 1.56 8.55 5.37 8.43 21.39-0.19 26.32-3.86 2.21-8.26 2.89-11.78 1.82zm7.84-4.39c4.38-1.82 5.55-4.17 5.55-11.06 0-7.38-2.77-10.52-9.28-10.52-6.02 0-8.9 3.11-9.48 10.24-0.36 4.34-0.04 5.75 1.8 8.09 1.99 2.52 4.98 4.42 7.24 4.61 0.43 0.03 2.31-0.58 4.17-1.36zm-755.42 2.37c0-1.23 3-4.96 7.5-9.36 7.7-7.52 9.2-10.91 6-13.54-2.2-1.87-6.9-0.88-8 1.7-1.2 2.76-4.5 3.02-4.5 0.36 0-5.51 9.2-9.14 14.5-5.69 3.2 2.07 4.7 5.85 3.8 9.37-0.4 1.46-3.6 5.48-7.2 8.93l-6.6 6.27 7.2 0.01c6.6 0 7.3 0.18 7.3 2 0 1.87-0.7 2-10 2-9.4 0-10-0.12-10-2.05zm25-12.95c0-15.13 0-15.14 2.2-14.82 2 0.28 2.3 0.98 2.6 6.07l0.3 5.75h6.9 7v-6.07c0-5.72 0.1-6.05 2.2-5.75 2.2 0.31 2.3 0.54 2.3 14.82 0 14.27-0.1 14.5-2.3 14.82-2.1 0.3-2.2 0.01-2.2-6.75v-7.07h-7-6.9l-0.3 6.75c-0.3 6.13-0.5 6.78-2.6 7.07-2.2 0.32-2.2 0.31-2.2-14.82zm-39 4c0-1.78 0.6-2 6-2 5.3 0 6 0.22 6 2s-0.7 2-6 2c-5.4 0-6-0.22-6-2zm706.97 0c0-1.78 0.67-2 6-2s6 0.22 6 2-0.67 2-6 2-6-0.22-6-2zm-990.77-14.75l0.3-14.75 9.3 0.02c9 0.01 9.5 0.12 11.8 2.8 1.3 1.54 2.4 3.64 2.4 4.69 0 3.32-2.3 7.02-4.7 7.62-2.9 0.72-2.9 0.7-0.1 3.7 1.3 1.33 3.3 4.28 4.6 6.55l2.3 4.12h-2.5c-2 0-3.4-1.31-6.5-5.88-4.3-6.22-5.6-7.12-10.2-7.12h-2.9v6.5c0 5.86-0.2 6.5-2.1 6.5s-2-0.51-1.7-14.75zm17.6-3.45c1.8-1.84 1.4-5.61-0.8-6.77-1-0.57-4.4-1.03-7.5-1.03h-5.5v4.5 4.5h6.3c3.5 0 6.8-0.52 7.5-1.2zm-183.8 6.37c-6.5-3.5-9.1-13.99-5.4-21.82 1.9-3.93 7.6-7.35 12.4-7.35 4.7 0 10.5 3.42 12.3 7.35 2.2 4.6 2.1 12.33-0.2 16.59-2.1 4.08-7.3 7.06-12.1 7.06-2 0-5.1-0.82-7-1.83zm12.5-3.75c5.4-3.6 5.6-14.41 0.3-18.9-3.8-3.22-7.9-3.21-11.7 0.02-5.3 4.43-5.2 14.49 0.2 18.69 2.7 2.17 8 2.26 11.2 0.19zm14.2 4.95c-0.4-0.39-0.7-7.15-0.7-15.04v-14.33h2.5c2.4 0 2.5 0.27 2.5 6v6h7 7v-6c0-5.75 0.1-6 2.5-6h2.5l-0.3 14.75c-0.2 13.99-0.3 14.75-2.2 14.75-1.8 0-2.1-0.77-2.3-6.75l-0.3-6.75h-6.9-6.9l-0.3 6.74c-0.3 5.13-0.7 6.81-1.9 7.03-0.8 0.17-1.8-0.02-2.2-0.4zm995.7-42.44c-6.8-1.97-11.2-9.66-10-17.19 1.3-8.43 6.1-12.74 14.1-12.74 6 0 10 2.4 12.5 7.54 6.1 12.55-4 26.1-16.6 22.39zm7.5-4.04c6.3-2.22 8.3-13.03 3.5-18.81-2.2-2.57-3.3-3.08-6.9-3.08s-4.8 0.51-6.9 3.08c-4.7 5.55-3.1 15.93 2.8 18.52 3.8 1.64 3.6 1.63 7.5 0.29zm-135.9-10.89v-15h9c8.7 0 9.2 0.12 12 2.92 1.7 1.61 3 3.61 3 4.44 0 3.43-2.2 6.81-5.3 8.14-1.8 0.78-2.7 1.44-2.1 1.46 1 0.04 2.1 1.5 7.8 10.29l1.8 2.75h-2.9c-2.3 0-3.3-0.75-4.8-3.65-3.5-6.4-6.9-9.35-10.9-9.35h-3.6v6.5c0 5.83-0.2 6.5-2 6.5-1.9 0-2-0.67-2-15zm17-3.04c2.2-1.15 2.6-4.92 0.8-6.76-0.7-0.68-4-1.2-7.5-1.2h-6.3v4.5 4.5h5.5c3.1 0 6.5-0.47 7.5-1.04zm-87 15.29c-7.5-3.84-10.2-13.23-6.1-21.59 3.5-7.3 12.8-9.97 19.8-5.7 9.8 6.01 8.7 23.24-1.8 27.44-5.1 2.05-7.6 2.01-11.9-0.15zm10.8-3.68c5-2.56 6.7-10.62 3.7-16.59-3-5.79-10.3-6.87-14.8-2.18-2.3 2.39-2.7 3.68-2.7 8.58 0 5.05 0.3 6.14 2.9 8.7 3.2 3.25 6.6 3.71 10.9 1.49zm-558.8-1.32c-4-2-8-8.88-8-13.75 0-4.84 4-11.74 8-13.81 4.1-2.14 10.6-1.79 14.5 0.77 4 2.59 6.8 9.84 6.1 15.44-0.4 2.53-1.5 5.72-2.5 7.1-2.3 3.18-7.8 6-11.6 6-1.7 0-4.6-0.79-6.5-1.75zm13-5.17c2.6-2.55 3-3.67 3-8.58 0-4.92-0.4-6.04-3-8.58-2.1-2.16-3.8-2.92-6.5-2.92s-4.4 0.76-6.6 2.92c-2.5 2.54-2.9 3.66-2.9 8.58 0 4.91 0.4 6.03 2.9 8.58 2.2 2.16 3.9 2.92 6.6 2.92s4.4-0.76 6.5-2.92zm-354.6-20.15c-6.8-1.97-11.2-9.66-10-17.19 1.3-8.43 6.1-12.74 14.1-12.74 6 0 10 2.4 12.5 7.54 6.1 12.55-4 26.1-16.6 22.39zm7.5-4.04c6.3-2.22 8.3-13.03 3.5-18.81-2.2-2.57-3.3-3.08-6.9-3.08s-4.8 0.51-6.9 3.08c-4.7 5.55-3.1 15.93 2.8 18.52 3.8 1.64 3.6 1.63 7.5 0.29z"/>
 </g>
 <metadata>
  <rdf:RDF>
   <cc:Work>
    <dc:format>image/svg+xml</dc:format>
    <dc:type rdf:resource="http://purl.org/dc/dcmitype/StillImage"/>
    <cc:license rdf:resource="http://creativecommons.org/licenses/publicdomain/"/>
    <dc:publisher>
     <cc:Agent rdf:about="http://openclipart.org/">
      <dc:title>Openclipart</dc:title>
     </cc:Agent>
    </dc:publisher>
   </cc:Work>
   <cc:License rdf:about="http://creativecommons.org/licenses/publicdomain/">
    <cc:permits rdf:resource="http://creativecommons.org/ns#Reproduction"/>
    <cc:permits rdf:resource="http://creativecommons.org/ns#Distribution"/>
    <cc:permits rdf:resource="http://creativecommons.org/ns#DerivativeWorks"/>
   </cc:License>
  </rdf:RDF>
 </metadata>
</svg>
