<?xml version="1.0"?>
<svg xmlns:rdf="http://www.w3.org/1999/02/22-rdf-syntax-ns#" xmlns="http://www.w3.org/2000/svg" xmlns:cc="http://web.resource.org/cc/" xmlns:xlink="http://www.w3.org/1999/xlink" xmlns:dc="http://purl.org/dc/elements/1.1/" height="213pt" width="203pt" viewBox="0 0 203 213">
 <g fill="#161413" transform="translate(85.146 176.95)" fill-rule="evenodd">
  <path d="m12.352 0h-1.907v12.916l-8.2556-12.916h-2.1894v15.798h1.9072v-12.807l8.1698 12.807h2.275v-15.798z"/>
 </g>
 <g fill="#161413" transform="translate(85.299 194.95)" fill-rule="evenodd">
  <path d="m10.142 8.604v7.194h2.014v-15.798h-2.014v6.826h-8.1273v-6.826h-2.0147v15.798h2.0371v-7.194h8.1049z"/>
 </g>
 <g fill="#161413" transform="translate(69.396 108.45)" fill-rule="evenodd">
  <path d="m12.352 0h-1.907v12.916l-8.2556-12.916h-2.1894v15.798h1.9072v-12.807l8.1698 12.807h2.275v-15.798z"/>
 </g>
 <g fill="#161413" transform="translate(101.8 170.15)">
  <path d="m17.05 0l0.55 0.4v0.75l-17.05 8.25-0.55-1.2 17.05-8.2z"/>
 </g>
 <g fill="#161413" transform="translate(118.85 140.15)">
  <path d="m6.8 0.15l0.7-0.15 0.5 0.6-6.7 29.5-0.75 0.3-0.55-0.4 6.8-29.85z"/>
 </g>
 <g fill="#161413" transform="translate(113.9 141.4)">
  <path d="m5.7 0l1.3 0.3-5.75 25.15-1.25-0.3 5.7-25.15z"/>
 </g>
 <g fill="#161413" transform="translate(106.55 115.7)">
  <path d="m0 0.7s0.3-0.65 0.3-0.65l0.75-0.05 19 23.75-0.25 0.7-0.7 0.15-19.1-23.9z"/>
 </g>
 <g fill="#161413" transform="translate(85.2 115.1)">
  <path d="m0 1.35v-1.3s21.25-0.05 21.25-0.05l0.4 0.65s-0.3 0.65-0.3 0.65l-21.35 0.05z"/>
 </g>
 <g fill="#161413" transform="translate(85.2 120.75)">
  <path d="m0 1.3v-1.3h18.95v1.3h-18.95z"/>
 </g>
 <g fill="#161413" transform="translate(56 126.3)">
  <path d="m0.9004 14.05l-0.7002-0.15s-0.2002-0.75-0.2002-0.75l10.45-13.15 1 0.85-10.55 13.2z"/>
 </g>
 <g fill="#161413" transform="translate(55.65 140.2)">
  <path d="m8.0996 30l-0.5498 0.45-0.75-0.25-6.7998-29.65s0.5498-0.55 0.5498-0.55l0.7002 0.15 6.8496 29.85z"/>
 </g>
 <g fill="#161413" transform="translate(50.85 144.5)">
  <path d="m6.75 24.1l-1.25 0.25-5.5-24.05 1.25-0.3 5.5 24.1z"/>
 </g>
 <g fill="#161413" transform="translate(63.2 170.2)">
  <path d="m17.55 8.15l-0.55 1.15-16.9-8.1c-0.0004 0-0.1-0.75-0.1-0.75l0.5498-0.45 17 8.15z"/>
 </g>
 <g fill="#161413" transform="translate(26.2 130.3)">
  <path d="m0.3496 1.5l-0.3496-1.5s29.8 9.15 29.8 9.15l0.2 0.75-0.55 0.55-29.1-8.95z"/>
 </g>
 <g fill="#161413" transform="translate(2.7998 130.3)">
  <path d="m1.4502 22.2l-1.4502-0.45 23.4-21.75 0.35 1.5-22.3 20.7z"/>
 </g>
 <g fill="#161413" transform="translate(9.2998 136.9)">
  <path d="m0.9004 17.75s-0.9004-0.95-0.9004-0.95l18.101-16.8s0.899 0.95 0.899 0.95l-18.1 16.8z"/>
 </g>
 <g fill="#161413" transform="translate(2.7998 152.05)">
  <path d="m8.25 30.15l-1.0996 1-7.1504-31.15 1.4502 0.45 6.7998 29.7z"/>
 </g>
 <g fill="#161413" transform="translate(9.9502 182.2)">
  <path d="m30.2 8.95l0.35 1.45s-30.55-9.4-30.55-9.4l1.0996-1 29.1 8.95z"/>
 </g>
 <g fill="#161413" transform="translate(15.05 177.65)">
  <path d="m24.05 7.3l-0.4 1.25-23.65-7.3 0.4004-1.25 23.65 7.3z"/>
 </g>
 <g fill="#161413" transform="translate(40.15 170.4)">
  <path d="m22.3 0l0.75 0.25 0.099 0.75-22.799 21.2c-0.0004 0-0.35-1.45-0.35-1.45l22.3-20.75z"/>
 </g>
 <g fill="#161413" transform="translate(140.04 178.94)" fill-rule="evenodd">
  <path d="m11.875 4.898c-0.021-3.099-2.145-4.898-5.785-4.898-3.468 0-5.613 1.778-5.613 4.638 0 1.929 1.018 3.142 3.098 3.684l3.923 1.04c1.993 0.52 2.903 1.322 2.903 2.557 0 0.845-0.455 1.712-1.127 2.189-0.627 0.433-1.625 0.672-2.903 0.672-1.712 0-2.882-0.412-3.64-1.323-0.585-0.693-0.845-1.452-0.824-2.426h-1.907c0.022 1.452 0.304 2.405 0.932 3.272 1.084 1.474 2.904 2.253 5.309 2.253 1.885 0 3.424-0.433 4.443-1.213 1.061-0.846 1.733-2.254 1.733-3.619 0-1.95-1.214-3.381-3.358-3.966l-3.966-1.061c-1.907-0.521-2.601-1.127-2.601-2.341 0-1.604 1.408-2.665 3.532-2.665 2.514 0 3.922 1.148 3.945 3.207h1.906z"/>
 </g>
 <g fill="#161413" transform="translate(119.4 170.25)">
  <path d="m18.15 10.4l-0.65 1.1-17.5-10.45v-0.75l0.75-0.3 17.4 10.4z"/>
 </g>
 <g fill="#161413" transform="translate(153.65 165.8)">
  <path d="m15.25 0l0.8 0.2 0.2 0.7-15.35 13.45s-0.9-1-0.9-1l15.25-13.35z"/>
 </g>
 <g fill="#161413" transform="translate(157 136.65)">
  <path d="m0 1.35l0.8-1.35 12.35 28.8s-0.45 0.55-0.45 0.55l-0.8-0.2-11.9-27.8z"/>
 </g>
 <g fill="#161413" transform="translate(153.25 143.05)">
  <path d="m0 0.5l1.2-0.5 9.1 21.15-1.2 0.5-9.1-21.15z"/>
 </g>
 <g fill="#161413" transform="translate(126.35 136.65)">
  <path d="m0.5 4.1l-0.5-0.6 0.25-0.7 31.2-2.8-0.8 1.35-30.15 2.75z"/>
 </g>
 <g fill="#161413" transform="translate(169.7 165.45)">
  <path d="m30.55 6.85l-0.25 1.25s-30.1-6.85-30.1-6.85l-0.2-0.7s0.45-0.55 0.45-0.55 30.1 6.85 30.1 6.85z"/>
 </g>
 <g fill="#161413" transform="translate(114.15 80.452)" fill-rule="evenodd">
  <path d="m12.353 0h-1.907v12.916l-8.256-12.916h-2.19v15.798h1.908v-12.807c0 0.0003 8.17 12.807 8.17 12.807h2.275v-15.798z"/>
 </g>
 <g fill="#161413" transform="translate(106.45 99.85)">
  <path d="m7.35 0l1.15 0.5504-7.35 15.3-0.75 0.05-0.4-0.65 7.35-15.25z"/>
 </g>
 <g fill="#161413" transform="translate(141.15 24.202)" fill-rule="evenodd">
  <path d="m12.353 0h-1.907v12.916l-8.256-12.916h-2.19v15.798h1.908v-12.807c0 0.0003 8.17 12.807 8.17 12.807h2.275v-15.798z"/>
 </g>
 <g fill="#161413" transform="translate(129.85 84.7)">
  <path d="m21.2 0l0.85 1.2002-21.95 2.3994-0.1-1.2998 21.2-2.2998z"/>
 </g>
 <g fill="#161413" transform="translate(151.05 57.1)">
  <path d="m13.2 0.1006l1.5-0.1006-13.85 28.801-0.85-1.2 13.2-27.5z"/>
 </g>
 <g fill="#161413" transform="translate(154.7 42.55)">
  <path d="m0 0.75l1.1-0.75 9.95 14.55-1.5 0.1-9.55-13.9z"/>
 </g>
 <g fill="#161413" transform="translate(115.85 30.75)">
  <path d="m0.85 3.5996l-0.85-1.1992 21.85-2.4004 0.15 1.2998s-21.15 2.2998-21.15 2.2998z"/>
 </g>
 <g fill="#161413" transform="translate(102 33.15)">
  <path d="m1.5 28.649l-1.5 0.151 13.85-28.8 0.85 1.1992s-13.2 27.45-13.2 27.45z"/>
 </g>
 <g fill="#161413" transform="translate(102 61.8)">
  <path d="m11.75 15l-1.1 0.75-10.65-15.6c0 0.0004 1.5-0.15 1.5-0.15l10.25 15z"/>
 </g>
 <g fill="#161413" transform="translate(152.15 3)">
  <path d="m8.15 0l1.2 0.5498-8.15 16.95-1.2-0.55 8.15-16.95z"/>
 </g>
 <metadata>
  <rdf:RDF>
   <cc:Work>
    <dc:format>image/svg+xml</dc:format>
    <dc:type rdf:resource="http://purl.org/dc/dcmitype/StillImage"/>
    <cc:license rdf:resource="http://creativecommons.org/licenses/publicdomain/"/>
    <dc:publisher>
     <cc:Agent rdf:about="http://openclipart.org/">
      <dc:title>Openclipart</dc:title>
     </cc:Agent>
    </dc:publisher>
   </cc:Work>
   <cc:License rdf:about="http://creativecommons.org/licenses/publicdomain/">
    <cc:permits rdf:resource="http://creativecommons.org/ns#Reproduction"/>
    <cc:permits rdf:resource="http://creativecommons.org/ns#Distribution"/>
    <cc:permits rdf:resource="http://creativecommons.org/ns#DerivativeWorks"/>
   </cc:License>
  </rdf:RDF>
 </metadata>
</svg>
