<?xml version="1.0"?>
<svg xmlns:rdf="http://www.w3.org/1999/02/22-rdf-syntax-ns#" xmlns="http://www.w3.org/2000/svg" xmlns:cc="http://creativecommons.org/ns#" xmlns:dc="http://purl.org/dc/elements/1.1/" id="svg2" height="259.69" width="246.81" version="1.1" viewBox="0 0 197.4502 207.74819">
 <g id="g4" fill-rule="evenodd" fill="#161413" transform="translate(82.346 173.95)">
  <path id="path6" d="m12.352 0h-1.907v12.916l-8.2556-12.916h-2.1894v15.798h1.9072v-12.807l8.1698 12.807h2.275v-15.798z"/>
 </g>
 <g id="g8" fill-rule="evenodd" fill="#161413" transform="translate(82.499 191.95)">
  <path id="path10" d="m10.142 8.604v7.194h2.014v-15.798h-2.014v6.826h-8.1273v-6.826h-2.0147v15.798h2.0371v-7.194h8.1049z"/>
 </g>
 <g id="g12" fill-rule="evenodd" fill="#161413" transform="translate(66.596 105.45)">
  <path id="path14" d="m12.352 0h-1.907v12.916l-8.2556-12.916h-2.1894v15.798h1.9072v-12.807l8.1698 12.807h2.275v-15.798z"/>
 </g>
 <g id="g16" fill="#161413" transform="translate(99 167.15)">
  <path id="path18" d="m17.05 0 0.55 0.4v0.75l-17.05 8.25-0.55-1.2 17.05-8.2z"/>
 </g>
 <g id="g20" fill="#161413" transform="translate(116.05 137.15)">
  <path id="path22" d="m6.8 0.15 0.7-0.15 0.5 0.6-6.7 29.5-0.75 0.3-0.55-0.4 6.8-29.85z"/>
 </g>
 <g id="g24" fill="#161413" transform="translate(111.1 138.4)">
  <path id="path26" d="m5.7 0 1.3 0.3-5.75 25.15-1.25-0.3 5.7-25.15z"/>
 </g>
 <g id="g28" fill="#161413" transform="translate(103.75 112.7)">
  <path id="path30" d="m0 0.7s0.3-0.65 0.3-0.65l0.75-0.05 19 23.75-0.25 0.7-0.7 0.15-19.1-23.9z"/>
 </g>
 <g id="g32" fill="#161413" transform="translate(82.4 112.1)">
  <path id="path34" d="m0 1.35v-1.3s21.25-0.05 21.25-0.05l0.4 0.65s-0.3 0.65-0.3 0.65l-21.35 0.05z"/>
 </g>
 <g id="g36" fill="#161413" transform="translate(82.4 117.75)">
  <path id="path38" d="m0 1.3v-1.3h18.95v1.3h-18.95z"/>
 </g>
 <g id="g40" fill="#161413" transform="translate(53.2 123.3)">
  <path id="path42" d="m0.9004 14.05-0.7002-0.15s-0.2002-0.75-0.2002-0.75l10.45-13.15 1 0.85-10.55 13.2z"/>
 </g>
 <g id="g44" fill="#161413" transform="translate(52.85 137.2)">
  <path id="path46" d="m8.0996 30-0.5498 0.45-0.75-0.25-6.7998-29.65s0.5498-0.55 0.5498-0.55l0.7002 0.15 6.8496 29.85z"/>
 </g>
 <g id="g48" fill="#161413" transform="translate(48.05 141.5)">
  <path id="path50" d="m6.75 24.1-1.25 0.25-5.5-24.05 1.25-0.3 5.5 24.1z"/>
 </g>
 <g id="g52" fill="#161413" transform="translate(60.4 167.2)">
  <path id="path54" d="m17.55 8.15-0.55 1.15-16.9-8.1c-0.0004 0-0.1-0.75-0.1-0.75l0.5498-0.45 17 8.15z"/>
 </g>
 <g id="g56" fill="#161413" transform="translate(23.4 127.3)">
  <path id="path58" d="m0.3496 1.5-0.3496-1.5s29.8 9.15 29.8 9.15l0.2 0.75-0.55 0.55-29.1-8.95z"/>
 </g>
 <g id="g60" fill="#161413" transform="translate(0 127.3)">
  <path id="path62" d="m1.4502 22.2-1.4502-0.45 23.4-21.75 0.35 1.5-22.3 20.7z"/>
 </g>
 <g id="g64" fill="#161413" transform="translate(6.5 133.9)">
  <path id="path66" d="m0.9004 17.75s-0.9004-0.95-0.9004-0.95l18.101-16.8s0.899 0.95 0.899 0.95l-18.1 16.8z"/>
 </g>
 <g id="g68" fill="#161413" transform="translate(0 149.05)">
  <path id="path70" d="m8.25 30.15-1.0996 1l-7.1504-31.15 1.4502 0.45 6.7998 29.7z"/>
 </g>
 <g id="g72" fill="#161413" transform="translate(7.1504 179.2)">
  <path id="path74" d="m30.2 8.95 0.35 1.45s-30.55-9.4-30.55-9.4l1.0996-1 29.1 8.95z"/>
 </g>
 <g id="g76" fill="#161413" transform="translate(12.25 174.65)">
  <path id="path78" d="m24.05 7.3-0.4 1.25-23.65-7.3 0.4004-1.25l23.65 7.3z"/>
 </g>
 <g id="g80" fill="#161413" transform="translate(37.35 167.4)">
  <path id="path82" d="m22.3 0 0.75 0.25 0.099 0.75-22.799 21.2c-0.0004 0-0.35-1.45-0.35-1.45l22.3-20.75z"/>
 </g>
 <g id="g84" fill-rule="evenodd" fill="#161413" transform="translate(137.24 175.94)">
  <path id="path86" d="m11.875 4.898c-0.021-3.099-2.145-4.898-5.785-4.898-3.468 0-5.613 1.778-5.613 4.638 0 1.929 1.018 3.142 3.098 3.684l3.923 1.04c1.993 0.52 2.903 1.322 2.903 2.557 0 0.845-0.455 1.712-1.127 2.189-0.627 0.433-1.625 0.672-2.903 0.672-1.712 0-2.882-0.412-3.64-1.323-0.585-0.693-0.845-1.452-0.824-2.426h-1.907c0.022 1.452 0.304 2.405 0.932 3.272 1.084 1.474 2.904 2.253 5.309 2.253 1.885 0 3.424-0.433 4.443-1.213 1.061-0.846 1.733-2.254 1.733-3.619 0-1.95-1.214-3.381-3.358-3.966l-3.966-1.061c-1.907-0.521-2.601-1.127-2.601-2.341 0-1.604 1.408-2.665 3.532-2.665 2.514 0 3.922 1.148 3.945 3.207h1.906z"/>
 </g>
 <g id="g88" fill="#161413" transform="translate(116.6 167.25)">
  <path id="path90" d="m18.15 10.4-0.65 1.1-17.5-10.45v-0.75l0.75-0.3 17.4 10.4z"/>
 </g>
 <g id="g92" fill="#161413" transform="translate(150.85 162.8)">
  <path id="path94" d="m15.25 0 0.8 0.2 0.2 0.7l-15.35 13.45s-0.9-1-0.9-1l15.25-13.35z"/>
 </g>
 <g id="g96" fill="#161413" transform="translate(154.2 133.65)">
  <path id="path98" d="m0 1.35 0.8-1.35 12.35 28.8s-0.45 0.55-0.45 0.55l-0.8-0.2-11.9-27.8z"/>
 </g>
 <g id="g100" fill="#161413" transform="translate(150.45 140.05)">
  <path id="path102" d="m0 0.5 1.2-0.5 9.1 21.15-1.2 0.5-9.1-21.15z"/>
 </g>
 <g id="g104" fill="#161413" transform="translate(123.55 133.65)">
  <path id="path106" d="m0.5 4.1-0.5-0.6 0.25-0.7 31.2-2.8-0.8 1.35-30.15 2.75z"/>
 </g>
 <g id="g108" fill="#161413" transform="translate(166.9 162.45)">
  <path id="path110" d="m30.55 6.85-0.25 1.25s-30.1-6.85-30.1-6.85l-0.2-0.7s0.45-0.55 0.45-0.55 30.1 6.85 30.1 6.85z"/>
 </g>
 <g id="g112" fill-rule="evenodd" fill="#161413" transform="translate(111.35 77.452)">
  <path id="path114" d="m12.353 0h-1.907v12.916l-8.256-12.916h-2.19v15.798h1.908v-12.807c0 0.0003 8.17 12.807 8.17 12.807h2.275v-15.798z"/>
 </g>
 <g id="g116" fill="#161413" transform="translate(103.65 96.85)">
  <path id="path118" d="m7.35 0 1.15 0.5504-7.35 15.3-0.75 0.05-0.4-0.65 7.35-15.25z"/>
 </g>
 <g id="g120" fill-rule="evenodd" fill="#161413" transform="translate(138.35 21.202)">
  <path id="path122" d="m12.353 0h-1.907v12.916l-8.256-12.916h-2.19v15.798h1.908v-12.807c0 0.0003 8.17 12.807 8.17 12.807h2.275v-15.798z"/>
 </g>
 <g id="g124" fill="#161413" transform="translate(127.05 81.7)">
  <path id="path126" d="m21.2 0 0.85 1.2002-21.95 2.3994-0.1-1.2998 21.2-2.2998z"/>
 </g>
 <g id="g128" fill="#161413" transform="translate(148.25 54.1)">
  <path id="path130" d="m13.2 0.1006 1.5-0.1006-13.85 28.801-0.85-1.2 13.2-27.5z"/>
 </g>
 <g id="g132" fill="#161413" transform="translate(151.9 39.55)">
  <path id="path134" d="m0 0.75 1.1-0.75 9.95 14.55-1.5 0.1-9.55-13.9z"/>
 </g>
 <g id="g136" fill="#161413" transform="translate(113.05 27.75)">
  <path id="path138" d="m0.85 3.5996-0.85-1.1992 21.85-2.4004 0.15 1.2998s-21.15 2.2998-21.15 2.2998z"/>
 </g>
 <g id="g140" fill="#161413" transform="translate(99.2 30.15)">
  <path id="path142" d="m1.5 28.649-1.5 0.151 13.85-28.8 0.85 1.1992s-13.2 27.45-13.2 27.45z"/>
 </g>
 <g id="g144" fill="#161413" transform="translate(99.2 58.8)">
  <path id="path146" d="m11.75 15-1.1 0.75-10.65-15.6c0 0.0004 1.5-0.15 1.5-0.15l10.25 15z"/>
 </g>
 <g id="g148" fill="#161413" transform="translate(149.35 .0002)">
  <path id="path150" d="m8.15 0 1.2 0.5498-8.15 16.95-1.2-0.55 8.15-16.95z"/>
 </g>
 <metadata>
  <rdf:RDF>
   <cc:Work>
    <dc:format>image/svg+xml</dc:format>
    <dc:type rdf:resource="http://purl.org/dc/dcmitype/StillImage"/>
    <cc:license rdf:resource="http://creativecommons.org/licenses/publicdomain/"/>
    <dc:publisher>
     <cc:Agent rdf:about="http://openclipart.org/">
      <dc:title>Openclipart</dc:title>
     </cc:Agent>
    </dc:publisher>
   </cc:Work>
   <cc:License rdf:about="http://creativecommons.org/licenses/publicdomain/">
    <cc:permits rdf:resource="http://creativecommons.org/ns#Reproduction"/>
    <cc:permits rdf:resource="http://creativecommons.org/ns#Distribution"/>
    <cc:permits rdf:resource="http://creativecommons.org/ns#DerivativeWorks"/>
   </cc:License>
  </rdf:RDF>
 </metadata>
</svg>
