<?xml version="1.0"?>
<svg xmlns:rdf="http://www.w3.org/1999/02/22-rdf-syntax-ns#" xmlns="http://www.w3.org/2000/svg" xmlns:cc="http://web.resource.org/cc/" xmlns:dc="http://purl.org/dc/elements/1.1/" height="328px" width="243px">
 <desc>Created with Chemtool 1.6.9</desc>
 <line stroke-width="2" y2="88" x2="76" stroke="#000" stroke-linecap="round" y1="120" x1="21"/>
 <line stroke-width="2" y2="120" x2="131" stroke="#000" stroke-linecap="round" y1="88" x1="76"/>
 <line stroke-width="2" y2="184" x2="131" stroke="#000" stroke-linecap="round" y1="120" x1="131"/>
 <line stroke-width="2" y2="216" x2="76" stroke="#000" stroke-linecap="round" y1="184" x1="131"/>
 <line stroke-width="2" y2="184" x2="21" stroke="#000" stroke-linecap="round" y1="216" x1="76"/>
 <line stroke-width="2" y2="120" x2="21" stroke="#000" stroke-linecap="round" y1="184" x1="21"/>
 <circle r="39" stroke-linecap="round" stroke="#000" cy="152" cx="76" stroke-width="2" fill="none"/>
 <line stroke-width="2" y2="36" x2="76" stroke="#000" stroke-linecap="round" y1="88" x1="76"/>
 <line stroke-width="2" y2="110" x2="145" stroke="#00f" stroke-linecap="round" y1="85" x1="181"/>
 <polygon stroke-linecap="round" stroke="#00f" points="137 116 148 115 143 106" fill="#00f"/>
 <line stroke-width="2" y2="191" x2="144" stroke="#00f" stroke-linecap="round" y1="213" x1="181"/>
 <polygon stroke-linecap="round" stroke="#00f" points="136 186 142 195 147 186" fill="#00f"/>
 <line stroke-width="2" y2="233" x2="76" stroke="#00f" stroke-linecap="round" y1="274" x1="76"/>
 <polygon stroke-linecap="round" stroke="#00f" points="76 223 70 233 81 233" fill="#00f"/>
 <text font-size="18pt" y="32" x="68" font-family="FreeSans" fill="#0000ff">
  <tspan>R</tspan>
 </text>
 <text font-size="18pt" y="86" x="183" font-family="FreeSans" fill="#0000ff">
  <tspan>ortho</tspan>
 </text>
 <text font-size="18pt" y="225" x="186" font-family="FreeSans" fill="#0000ff">
  <tspan>meta</tspan>
 </text>
 <text font-size="18pt" y="296" x="71" font-family="FreeSans" fill="#0000ff">
  <tspan>para</tspan>
 </text>
 <metadata>
  <rdf:RDF>
   <cc:Work>
    <dc:format>image/svg+xml</dc:format>
    <dc:type rdf:resource="http://purl.org/dc/dcmitype/StillImage"/>
    <cc:license rdf:resource="http://creativecommons.org/licenses/publicdomain/"/>
    <dc:publisher>
     <cc:Agent rdf:about="http://openclipart.org/">
      <dc:title>Openclipart</dc:title>
     </cc:Agent>
    </dc:publisher>
   </cc:Work>
   <cc:License rdf:about="http://creativecommons.org/licenses/publicdomain/">
    <cc:permits rdf:resource="http://creativecommons.org/ns#Reproduction"/>
    <cc:permits rdf:resource="http://creativecommons.org/ns#Distribution"/>
    <cc:permits rdf:resource="http://creativecommons.org/ns#DerivativeWorks"/>
   </cc:License>
  </rdf:RDF>
 </metadata>
</svg>
