<?xml version="1.0" encoding="UTF-8" standalone="no"?>
<!-- Created with Inkscape (http://www.inkscape.org/) -->

<svg
   xmlns:svg="http://www.w3.org/2000/svg"
   xmlns="http://www.w3.org/2000/svg"
   version="1.1"
   width="400"
   height="294"
   viewBox="0 0 320 235.2"
   id="svg2">
  <defs
     id="defs158" />
  <g
     transform="matrix(1.7966119,0,0,1.7966119,-110.10466,-23.839064)"
     id="g3747">
    <g
       transform="translate(64.4922,75.5039)"
       id="g4"
       style="fill:#000000;fill-rule:evenodd;stroke:none">
      <path
         d="m 11.2314,9.5283 c 0,0 0,7.9678 0,7.9678 0,0 2.2325,0 2.2325,0 0,0 0,-17.4961 0,-17.4961 0,0 -2.2325,0 -2.2325,0 0,0 0,7.5606 0,7.5606 0,0 -9,0 -9,0 0,0 0,-7.5606 0,-7.5606 C 2.2314,0 0,0 0,0 c 0,0 0,17.4961 0,17.4961 0,0 2.2558,0 2.2558,0 0,0 0,-7.9678 0,-7.9678 0,0 8.9756,0 8.9756,0 z"
         id="path6" />
    </g>
    <g
       transform="translate(111.902,75.4658)"
       id="g8"
       style="fill:#000000;fill-rule:evenodd;stroke:none">
      <path
         d="M 14.736,5.7119 C 14.04,1.8721 11.832,0 7.992,0 5.64,0 3.744,0.7442 2.448,2.1846 0.864,3.9121 0,6.4082 0,9.2403 c 0,2.8798 0.888,5.3515 2.544,7.0556 1.344,1.3926 3.072,2.0401 5.352,2.0401 4.272,0 6.672,-2.3038 7.2,-6.9356 0,0 -2.304,0 -2.304,0 C 12.6,12.6006 12.36,13.416 12,14.1123 c -0.72,1.4395 -2.208,2.2559 -4.08,2.2559 -3.48,0 -5.688,-2.7842 -5.688,-7.1524 0,-4.4873 2.112,-7.248 5.496,-7.248 1.416,0 2.736,0.4326 3.456,1.1045 0.648,0.5996 1.008,1.3437 1.272,2.6396 0,0 2.28,0 2.28,0 z"
         id="path10" />
    </g>
    <g
       transform="translate(80.0996,83.4502)"
       id="g12"
       style="fill:#000000;fill-rule:nonzero;stroke:none">
      <path
         d="m 29.6504,0 c 0,0 0,1.7002 0,1.7002 0,0 -29.6504,0 -29.6504,0 C 0,1.7002 0,0 0,0 0,0 29.6504,0 29.6504,0 z"
         id="path14" />
    </g>
    <g
       transform="translate(112.742,27.0039)"
       id="g16"
       style="fill:#000000;fill-rule:evenodd;stroke:none">
      <path
         d="m 11.232,9.5283 c 0,0 0,7.9678 0,7.9678 0,0 2.232,0 2.232,0 0,0 0,-17.4961 0,-17.4961 0,0 -2.232,0 -2.232,0 0,0 0,7.5606 0,7.5606 0,0 -9,0 -9,0 0,0 0,-7.5606 0,-7.5606 C 2.232,0 0,0 0,0 c 0,0 0,17.4961 0,17.4961 0,0 2.256,0 2.256,0 0,0 0,-7.9678 0,-7.9678 0,0 8.976,0 8.976,0 z"
         id="path18" />
    </g>
    <g
       transform="translate(118.65,46.6504)"
       id="g20"
       style="fill:#000000;fill-rule:nonzero;stroke:none">
      <path
         d="m 0,0 c 0,0 1.7,0 1.7,0 0,0 0,26.75 0,26.75 0,0 -1.7,0 -1.7,0 C 0,26.75 0,0 0,0 z"
         id="path22" />
    </g>
    <g
       transform="translate(112.742,123.754)"
       id="g24"
       style="fill:#000000;fill-rule:evenodd;stroke:none">
      <path
         d="m 11.232,9.528 c 0,0 0,7.968 0,7.968 0,0 2.232,0 2.232,0 0,0 0,-17.496 0,-17.496 0,0 -2.232,0 -2.232,0 0,0 0,7.56 0,7.56 0,0 -9,0 -9,0 0,0 0,-7.56 0,-7.56 C 2.232,0 0,0 0,0 c 0,0 0,17.496 0,17.496 0,0 2.256,0 2.256,0 0,0 0,-7.968 0,-7.968 0,0 8.976,0 8.976,0 z"
         id="path26" />
    </g>
    <g
       transform="translate(118.65,95.75)"
       id="g28"
       style="fill:#000000;fill-rule:nonzero;stroke:none">
      <path
         d="m 1.7,26.1 c 0,0 -1.7,0 -1.7,0 C 0,26.1 0,0 0,0 c 0,0 1.7,0 1.7,0 0,0 0,26.1 0,26.1 z"
         id="path30" />
    </g>
    <g
       transform="translate(160.402,75.4658)"
       id="g32"
       style="fill:#000000;fill-rule:evenodd;stroke:none">
      <path
         d="M 14.736,5.7119 C 14.04,1.8721 11.832,0 7.992,0 5.64,0 3.744,0.7442 2.448,2.1846 0.864,3.9121 0,6.4082 0,9.2403 c 0,2.8798 0.888,5.3515 2.544,7.0556 1.344,1.3926 3.072,2.0401 5.352,2.0401 4.272,0 6.672,-2.3038 7.2,-6.9356 0,0 -2.304,0 -2.304,0 C 12.6,12.6006 12.36,13.416 12,14.1123 c -0.72,1.4395 -2.208,2.2559 -4.08,2.2559 -3.48,0 -5.688,-2.7842 -5.688,-7.1524 0,-4.4873 2.112,-7.248 5.496,-7.248 1.416,0 2.736,0.4326 3.456,1.1045 0.648,0.5996 1.008,1.3437 1.272,2.6396 0,0 2.28,0 2.28,0 z"
         id="path34" />
    </g>
    <g
       transform="translate(129.6,83.4502)"
       id="g36"
       style="fill:#000000;fill-rule:nonzero;stroke:none">
      <path
         d="m 28.65,0 c 0,0 0,1.7002 0,1.7002 0,0 -28.65,0 -28.65,0 C 0,1.7002 0,0 0,0 0,0 28.65,0 28.65,0 z"
         id="path38" />
    </g>
    <g
       transform="translate(161.242,27.0039)"
       id="g40"
       style="fill:#000000;fill-rule:evenodd;stroke:none">
      <path
         d="m 11.232,9.5283 c 0,0 0,7.9678 0,7.9678 0,0 2.232,0 2.232,0 0,0 0,-17.4961 0,-17.4961 0,0 -2.232,0 -2.232,0 0,0 0,7.5606 0,7.5606 0,0 -9,0 -9,0 0,0 0,-7.5606 0,-7.5606 C 2.232,0 0,0 0,0 c 0,0 0,17.4961 0,17.4961 0,0 2.256,0 2.256,0 0,0 0,-7.9678 0,-7.9678 0,0 8.976,0 8.976,0 z"
         id="path42" />
    </g>
    <g
       transform="translate(167.1,46.7002)"
       id="g44"
       style="fill:#000000;fill-rule:nonzero;stroke:none">
      <path
         d="m 0,0 c 0,0 1.7,0 1.7,0 0,0 0,26.7002 0,26.7002 0,0 -1.7,0 -1.7,0 C 0,26.7002 0,0 0,0 z"
         id="path46" />
    </g>
    <g
       transform="translate(209.742,75.5039)"
       id="g48"
       style="fill:#000000;fill-rule:evenodd;stroke:none">
      <path
         d="m 11.232,9.5283 c 0,0 0,7.9678 0,7.9678 0,0 2.232,0 2.232,0 0,0 0,-17.4961 0,-17.4961 0,0 -2.232,0 -2.232,0 0,0 0,7.5606 0,7.5606 0,0 -9,0 -9,0 0,0 0,-7.5606 0,-7.5606 C 2.232,0 0,0 0,0 c 0,0 0,17.4961 0,17.4961 0,0 2.256,0 2.256,0 0,0 0,-7.9678 0,-7.9678 0,0 8.976,0 8.976,0 z"
         id="path50" />
    </g>
    <g
       transform="translate(177.95,83.4502)"
       id="g52"
       style="fill:#000000;fill-rule:nonzero;stroke:none">
      <path
         d="m 29.45,0 c 0,0 0,1.7002 0,1.7002 0,0 -29.45,0 -29.45,0 C 0,1.7002 0,0 0,0 0,0 29.45,0 29.45,0 z"
         id="path54" />
    </g>
    <g
       transform="translate(161.242,123.754)"
       id="g56"
       style="fill:#000000;fill-rule:evenodd;stroke:none">
      <path
         d="m 11.232,9.528 c 0,0 0,7.968 0,7.968 0,0 2.232,0 2.232,0 0,0 0,-17.496 0,-17.496 0,0 -2.232,0 -2.232,0 0,0 0,7.56 0,7.56 0,0 -9,0 -9,0 0,0 0,-7.56 0,-7.56 C 2.232,0 0,0 0,0 c 0,0 0,17.496 0,17.496 0,0 2.256,0 2.256,0 0,0 0,-7.968 0,-7.968 0,0 8.976,0 8.976,0 z"
         id="path58" />
    </g>
    <g
       transform="translate(167.1,95.7002)"
       id="g60"
       style="fill:#000000;fill-rule:nonzero;stroke:none">
      <path
         d="m 1.7,26.1498 c 0,0 -1.7,0 -1.7,0 C 0,26.1498 0,0 0,0 c 0,0 1.7,0 1.7,0 0,0 0,26.1498 0,26.1498 z"
         id="path62" />
    </g>
    <g
       transform="translate(126.028,18.221718)"
       id="g96"
       style="fill:#0000ff;fill-rule:evenodd;stroke:none">
      <path
         d="m 3.328,3.3437 c 0,0 -3.328,0 -3.328,0 0,0 0,1.4083 0,1.4083 0,0 3.328,0 3.328,0 0,0 0,3.3437 0,3.3437 0,0 1.408,0 1.408,0 0,0 0,-3.3437 0,-3.3437 0,0 3.328,0 3.328,0 0,0 0,-1.4083 0,-1.4083 0,0 -3.328,0 -3.328,0 0,0 0,-3.3437 0,-3.3437 0,0 -1.408,0 -1.408,0 0,0 0,3.3437 0,3.3437 z"
         id="path98" />
    </g>
    <g
       transform="translate(134.82,15.9336)"
       id="g100"
       style="fill:#0000ff;fill-rule:evenodd;stroke:none">
      <path
         d="m 1.488,9.2803 c 0,0.7998 -0.288,1.0244 -1.488,1.1357 0,0 0,0.4004 0,0.4004 0,0 5.6,0 5.6,0 0,0 0,-0.4004 0,-0.4004 -1.216,-0.0801 -1.52,-0.3037 -1.52,-1.1357 0,0 0,-7.7442 0,-7.7442 C 4.08,0.7041 4.416,0.4482 5.6,0.4004 5.6,0.4004 5.6,0 5.6,0 5.6,0 0,0 0,0 c 0,0 0,0.4004 0,0.4004 1.152,0.0801 1.488,0.3203 1.488,1.1357 0,0 0,7.7442 0,7.7442 z"
         id="path102" />
    </g>
    <g
       transform="translate(174.028,115.72142)"
       id="g104"
       style="fill:#0000ff;fill-rule:evenodd;stroke:none">
      <path
         d="m 3.328,3.344 c 0,0 -3.328,0 -3.328,0 0,0 0,1.408 0,1.408 0,0 3.328,0 3.328,0 0,0 0,3.344 0,3.344 0,0 1.408,0 1.408,0 0,0 0,-3.344 0,-3.344 0,0 3.328,0 3.328,0 0,0 0,-1.408 0,-1.408 0,0 -3.328,0 -3.328,0 0,0 0,-3.344 0,-3.344 0,0 -1.408,0 -1.408,0 0,0 0,3.344 0,3.344 z"
         id="path106" />
    </g>
    <g
       transform="translate(182.82,113.434)"
       id="g108"
       style="fill:#0000ff;fill-rule:evenodd;stroke:none">
      <path
         d="m 1.488,9.28 c 0,0.8 -0.288,1.024 -1.488,1.136 0,0 0,0.4 0,0.4 0,0 5.6,0 5.6,0 0,0 0,-0.4 0,-0.4 -1.216,-0.08 -1.52,-0.304 -1.52,-1.136 0,0 0,-7.744 0,-7.744 C 4.08,0.704 4.416,0.448 5.6,0.4 5.6,0.4 5.6,0 5.6,0 5.6,0 0,0 0,0 c 0,0 0,0.4 0,0.4 1.152,0.08 1.488,0.32 1.488,1.136 0,0 0,7.744 0,7.744 z"
         id="path110" />
    </g>
    <g
       transform="translate(125.778,115.72142)"
       id="g112"
       style="fill:#0000ff;fill-rule:evenodd;stroke:none">
      <path
         d="m 3.328,3.344 c 0,0 -3.328,0 -3.328,0 0,0 0,1.408 0,1.408 0,0 3.328,0 3.328,0 0,0 0,3.344 0,3.344 0,0 1.408,0 1.408,0 0,0 0,-3.344 0,-3.344 0,0 3.328,0 3.328,0 0,0 0,-1.408 0,-1.408 0,0 -3.328,0 -3.328,0 0,0 0,-3.344 0,-3.344 0,0 -1.408,0 -1.408,0 0,0 0,3.344 0,3.344 z"
         id="path114" />
    </g>
    <g
       transform="translate(134.57,113.434)"
       id="g116"
       style="fill:#0000ff;fill-rule:evenodd;stroke:none">
      <path
         d="m 1.488,9.28 c 0,0.8 -0.288,1.024 -1.488,1.136 0,0 0,0.4 0,0.4 0,0 5.6,0 5.6,0 0,0 0,-0.4 0,-0.4 -1.216,-0.08 -1.52,-0.304 -1.52,-1.136 0,0 0,-7.744 0,-7.744 C 4.08,0.704 4.416,0.448 5.6,0.4 5.6,0.4 5.6,0 5.6,0 5.6,0 0,0 0,0 c 0,0 0,0.4 0,0.4 1.152,0.08 1.488,0.32 1.488,1.136 0,0 0,7.744 0,7.744 z"
         id="path118" />
    </g>
    <g
       transform="translate(174.528,18.221718)"
       id="g120"
       style="fill:#0000ff;fill-rule:evenodd;stroke:none">
      <path
         d="m 3.328,3.3437 c 0,0 -3.328,0 -3.328,0 0,0 0,1.4083 0,1.4083 0,0 3.328,0 3.328,0 0,0 0,3.3437 0,3.3437 0,0 1.408,0 1.408,0 0,0 0,-3.3437 0,-3.3437 0,0 3.328,0 3.328,0 0,0 0,-1.4083 0,-1.4083 0,0 -3.328,0 -3.328,0 0,0 0,-3.3437 0,-3.3437 0,0 -1.408,0 -1.408,0 0,0 0,3.3437 0,3.3437 z"
         id="path122" />
    </g>
    <g
       transform="translate(183.32,15.9336)"
       id="g124"
       style="fill:#0000ff;fill-rule:evenodd;stroke:none">
      <path
         d="m 1.488,9.2803 c 0,0.7998 -0.288,1.0244 -1.488,1.1357 0,0 0,0.4004 0,0.4004 0,0 5.6,0 5.6,0 0,0 0,-0.4004 0,-0.4004 -1.216,-0.0801 -1.52,-0.3037 -1.52,-1.1357 0,0 0,-7.7442 0,-7.7442 C 4.08,0.7041 4.416,0.4482 5.6,0.4004 5.6,0.4004 5.6,0 5.6,0 5.6,0 0,0 0,0 c 0,0 0,0.4004 0,0.4004 1.152,0.0801 1.488,0.3203 1.488,1.1357 0,0 0,7.7442 0,7.7442 z"
         id="path126" />
    </g>
    <g
       transform="translate(222.278,68.471718)"
       id="g128"
       style="fill:#0000ff;fill-rule:evenodd;stroke:none">
      <path
         d="m 3.328,3.3437 c 0,0 -3.328,0 -3.328,0 0,0 0,1.4083 0,1.4083 0,0 3.328,0 3.328,0 0,0 0,3.3437 0,3.3437 0,0 1.408,0 1.408,0 0,0 0,-3.3437 0,-3.3437 0,0 3.328,0 3.328,0 0,0 0,-1.4083 0,-1.4083 0,0 -3.328,0 -3.328,0 0,0 0,-3.3437 0,-3.3437 0,0 -1.408,0 -1.408,0 0,0 0,3.3437 0,3.3437 z"
         id="path130" />
    </g>
    <g
       transform="translate(231.07,66.1836)"
       id="g132"
       style="fill:#0000ff;fill-rule:evenodd;stroke:none">
      <path
         d="m 1.488,9.2803 c 0,0.7998 -0.288,1.0244 -1.488,1.1357 0,0 0,0.4004 0,0.4004 0,0 5.6,0 5.6,0 0,0 0,-0.4004 0,-0.4004 -1.216,-0.0801 -1.52,-0.3037 -1.52,-1.1357 0,0 0,-7.7442 0,-7.7442 C 4.08,0.7041 4.416,0.4482 5.6,0.4004 5.6,0.4004 5.6,0 5.6,0 5.6,0 0,0 0,0 c 0,0 0,0.4004 0,0.4004 1.152,0.0801 1.488,0.3203 1.488,1.1357 0,0 0,7.7442 0,7.7442 z"
         id="path134" />
    </g>
    <g
       transform="translate(77.0283,68.471718)"
       id="g136"
       style="fill:#0000ff;fill-rule:evenodd;stroke:none">
      <path
         d="m 3.3281,3.3437 c 0,0 -3.3281,0 -3.3281,0 0,0 0,1.4083 0,1.4083 0,0 3.3281,0 3.3281,0 0,0 0,3.3437 0,3.3437 0,0 1.4073,0 1.4073,0 0,0 0,-3.3437 0,-3.3437 0,0 3.3281,0 3.3281,0 0,0 0,-1.4083 0,-1.4083 0,0 -3.3281,0 -3.3281,0 0,0 0,-3.3437 0,-3.3437 0,0 -1.4073,0 -1.4073,0 0,0 0,3.3437 0,3.3437 z"
         id="path138" />
    </g>
    <g
       transform="translate(85.8203,66.1836)"
       id="g140"
       style="fill:#0000ff;fill-rule:evenodd;stroke:none">
      <path
         d="m 1.4873,9.2803 c 0,0.7998 -0.2881,1.0244 -1.4873,1.1357 0,0 0,0.4004 0,0.4004 0,0 5.5996,0 5.5996,0 0,0 0,-0.4004 0,-0.4004 -1.2158,-0.0801 -1.5195,-0.3037 -1.5195,-1.1357 0,0 0,-7.7442 0,-7.7442 0,-0.832 0.3359,-1.0879 1.5195,-1.1357 0,0 0,-0.4004 0,-0.4004 C 5.5996,0 0,0 0,0 c 0,0 0,0.4004 0,0.4004 1.1514,0.0801 1.4873,0.3203 1.4873,1.1357 0,0 0,7.7442 0,7.7442 z"
         id="path142" />
    </g>
    <path
       d="m 149.875,68.53125 c -19.75,0 -35.8125,16.00025 -35.8125,35.75 0,19.74975 16.0625,35.75 35.8125,35.75 12.71797,0 23.91035,-6.66727 30.25,-16.71875 6.33563,10.09583 17.583,16.8125 30.375,16.8125 19.6875,0 35.75,-16.00025 35.75,-35.75 0,-19.74975 -16.0625,-35.75 -35.75,-35.75 -12.76143,0 -23.96862,6.694603 -30.3125,16.75 C 173.85876,75.270272 162.63336,68.53125 149.875,68.53125 z"
       transform="scale(0.8,0.8)"
       id="path146"
       style="fill:none;stroke:#ff0000;stroke-width:0.7792446;stroke-linecap:butt;stroke-linejoin:miter;stroke-miterlimit:4;stroke-dasharray:2.33773373, 2.33773373;stroke-dashoffset:0" />
    <path
       d="m 144.35515,68.358863 c 0,0 0,30.409381 0,30.409381"
       id="path154"
       style="fill:none;stroke:#ff0000;stroke-width:0.62339568;stroke-linecap:butt;stroke-linejoin:miter;stroke-miterlimit:4;stroke-dasharray:1.87018698, 1.87018698;stroke-dashoffset:0" />
    <g
       transform="translate(122.5,72.265227)"
       id="g64"
       style="fill:#0000ff;fill-rule:evenodd;stroke:none">
      <path
         d="m 0,0 c 0,0 0,1.4404 0,1.4404 0,0 8,0 8,0 C 8,1.4404 8,0 8,0 8,0 0,0 0,0 z"
         id="path66" />
    </g>
    <g
       transform="translate(130.82,66.4336)"
       id="g68"
       style="fill:#0000ff;fill-rule:evenodd;stroke:none">
      <path
         d="m 1.488,9.2803 c 0,0.7998 -0.288,1.0244 -1.488,1.1357 0,0 0,0.4004 0,0.4004 0,0 5.6,0 5.6,0 0,0 0,-0.4004 0,-0.4004 -1.216,-0.0801 -1.52,-0.3037 -1.52,-1.1357 0,0 0,-7.7442 0,-7.7442 C 4.08,0.7041 4.416,0.4482 5.6,0.4004 5.6,0.4004 5.6,0 5.6,0 5.6,0 0,0 0,0 c 0,0 0,0.4004 0,0.4004 1.152,0.0801 1.488,0.3203 1.488,1.1357 0,0 0,7.7442 0,7.7442 z"
         id="path70" />
    </g>
    <g
       transform="translate(136.82,66.4336)"
       id="g72"
       style="fill:#0000ff;fill-rule:evenodd;stroke:none">
      <path
         d="m 1.488,9.2803 c 0,0.7998 -0.288,1.0244 -1.488,1.1357 0,0 0,0.4004 0,0.4004 0,0 5.6,0 5.6,0 0,0 0,-0.4004 0,-0.4004 -1.216,-0.0801 -1.52,-0.3037 -1.52,-1.1357 0,0 0,-7.7442 0,-7.7442 C 4.08,0.7041 4.416,0.4482 5.6,0.4004 5.6,0.4004 5.6,0 5.6,0 5.6,0 0,0 0,0 c 0,0 0,0.4004 0,0.4004 1.152,0.0801 1.488,0.3203 1.488,1.1357 0,0 0,7.7442 0,7.7442 z"
         id="path74" />
    </g>
    <g
       transform="translate(143.07,66.4336)"
       id="g76"
       style="fill:#0000ff;fill-rule:evenodd;stroke:none">
      <path
         d="m 1.488,9.2803 c 0,0.7998 -0.288,1.0244 -1.488,1.1357 0,0 0,0.4004 0,0.4004 0,0 5.6,0 5.6,0 0,0 0,-0.4004 0,-0.4004 -1.216,-0.0801 -1.52,-0.3037 -1.52,-1.1357 0,0 0,-7.7442 0,-7.7442 C 4.08,0.7041 4.416,0.4482 5.6,0.4004 5.6,0.4004 5.6,0 5.6,0 5.6,0 0,0 0,0 c 0,0 0,0.4004 0,0.4004 1.152,0.0801 1.488,0.3203 1.488,1.1357 0,0 0,7.7442 0,7.7442 z"
         id="path78" />
    </g>
    <g
       transform="translate(171.5,72.265227)"
       id="g80"
       style="fill:#0000ff;fill-rule:evenodd;stroke:none">
      <path
         d="m 0,0 c 0,0 0,1.4404 0,1.4404 0,0 8,0 8,0 C 8,1.4404 8,0 8,0 8,0 0,0 0,0 z"
         id="path82" />
    </g>
    <g
       transform="translate(179.82,66.4336)"
       id="g84"
       style="fill:#0000ff;fill-rule:evenodd;stroke:none">
      <path
         d="m 1.488,9.2803 c 0,0.7998 -0.288,1.0244 -1.488,1.1357 0,0 0,0.4004 0,0.4004 0,0 5.6,0 5.6,0 0,0 0,-0.4004 0,-0.4004 -1.216,-0.0801 -1.52,-0.3037 -1.52,-1.1357 0,0 0,-7.7442 0,-7.7442 C 4.08,0.7041 4.416,0.4482 5.6,0.4004 5.6,0.4004 5.6,0 5.6,0 5.6,0 0,0 0,0 c 0,0 0,0.4004 0,0.4004 1.152,0.0801 1.488,0.3203 1.488,1.1357 0,0 0,7.7442 0,7.7442 z"
         id="path86" />
    </g>
    <g
       transform="translate(185.82,66.4336)"
       id="g88"
       style="fill:#0000ff;fill-rule:evenodd;stroke:none">
      <path
         d="m 1.488,9.2803 c 0,0.7998 -0.288,1.0244 -1.488,1.1357 0,0 0,0.4004 0,0.4004 0,0 5.6,0 5.6,0 0,0 0,-0.4004 0,-0.4004 -1.216,-0.0801 -1.52,-0.3037 -1.52,-1.1357 0,0 0,-7.7442 0,-7.7442 C 4.08,0.7041 4.416,0.4482 5.6,0.4004 5.6,0.4004 5.6,0 5.6,0 5.6,0 0,0 0,0 c 0,0 0,0.4004 0,0.4004 1.152,0.0801 1.488,0.3203 1.488,1.1357 0,0 0,7.7442 0,7.7442 z"
         id="path90" />
    </g>
    <g
       transform="translate(192.07,66.4336)"
       id="g92"
       style="fill:#0000ff;fill-rule:evenodd;stroke:none">
      <path
         d="m 1.488,9.2803 c 0,0.7998 -0.288,1.0244 -1.488,1.1357 0,0 0,0.4004 0,0.4004 0,0 5.6,0 5.6,0 0,0 0,-0.4004 0,-0.4004 -1.216,-0.0801 -1.52,-0.3037 -1.52,-1.1357 0,0 0,-7.7442 0,-7.7442 C 4.08,0.7041 4.416,0.4482 5.6,0.4004 5.6,0.4004 5.6,0 5.6,0 5.6,0 0,0 0,0 c 0,0 0,0.4004 0,0.4004 1.152,0.0801 1.488,0.3203 1.488,1.1357 0,0 0,7.7442 0,7.7442 z"
         id="path94" />
    </g>
  </g>
</svg>
