<?xml version="1.0"?>
<svg xmlns:rdf="http://www.w3.org/1999/02/22-rdf-syntax-ns#" xmlns="http://www.w3.org/2000/svg" xmlns:cc="http://web.resource.org/cc/" xmlns:dc="http://purl.org/dc/elements/1.1/" id="svg2" height="1122" width="987" version="1.0">
 <g id="layer1">
  <text id="text3020" xml:space="preserve" font-size="5.1429px" y="284.1705" x="-3162.2031" font-family="Bitstream Vera Sans" fill="#000000">
      <tspan id="tspan3022" y="284.1705" x="-3162.2031"/>
    </text>
  <text id="text8195" xml:space="preserve" font-size="5.1429px" y="51.521732" x="-3156.3879" font-family="Bitstream Vera Sans" fill="#000000">
      <tspan id="tspan8197" y="51.521732" x="-3156.3879"/>
    </text>
  <text id="text9752" xml:space="preserve" font-size="12px" y="829.52649" x="-1858.2543" font-family="Bitstream Vera Sans" fill="#000000">
      <tspan id="tspan9754" y="829.52649" x="-1858.2543"/>
    </text>
  <path id="path10263" d="m856.97 516.18c0 13.6 11.59 24.64 25.86 24.64s25.86-11.04 25.86-24.64c0-13.61-11.59-24.65-25.86-24.65s-25.86 11.04-25.86 24.65zm39.27 21.07v55.98m-26.82-55.98v62.75" stroke="#000" stroke-width="2.1429" fill="#6ebec1"/>
  <path id="path10265" d="m908.69 685.56c0-13.61-11.59-24.65-25.86-24.65s-25.86 11.04-25.86 24.65c0 13.6 11.59 24.64 25.86 24.64s25.86-11.04 25.86-24.64zm-39.27-21.08v-55.97m26.82 55.97v-62.74" stroke="#000" stroke-width="2.1429" fill="#6ebec1"/>
  <path id="path2917" d="m488.7 516.18c0 13.6-11.58 24.64-25.86 24.64-14.27 0-25.86-11.04-25.86-24.64 0-13.61 11.59-24.65 25.86-24.65 14.28 0 25.86 11.04 25.86 24.65zm-39.27 21.07v55.98m26.82-55.98v62.75" stroke="#000" stroke-width="2.1429" fill="#6ebec1"/>
  <path id="path2919" d="m436.98 685.56c0-13.61 11.59-24.65 25.86-24.65 14.28 0 25.86 11.04 25.86 24.65 0 13.6-11.58 24.64-25.86 24.64-14.27 0-25.86-11.04-25.86-24.64zm39.27-21.08v-55.97m-26.82 55.97v-62.74" stroke="#000" stroke-width="2.1429" fill="#6ebec1"/>
  <rect id="rect7854" height="625.85" stroke="#000" stroke-width="4" fill="#99fecc" style="color:#000000" fill-rule="evenodd" ry="64" width="393.78" y="269.11" x="470.99"/>
  <path id="path10259" d="m908.4 516.18c0 13.6 11.58 24.64 25.86 24.64 14.27 0 25.86-11.04 25.86-24.64 0-13.61-11.59-24.65-25.86-24.65-14.28 0-25.86 11.04-25.86 24.65zm39.27 21.07v55.98m-26.82-55.98v62.75" stroke="#000" stroke-width="2.1429" fill="#6ebec1"/>
  <path id="path10261" d="m960.12 685.56c0-13.61-11.59-24.65-25.86-24.65-14.28 0-25.86 11.04-25.86 24.65 0 13.6 11.58 24.64 25.86 24.64 14.27 0 25.86-11.04 25.86-24.64zm-39.27-21.08v-55.97m26.82 55.97v-62.74" stroke="#000" stroke-width="2.1429" fill="#6ebec1"/>
  <path id="path10279" d="m985.93 540.82h-0.15c-14.27 0-25.86-11.04-25.86-24.64 0-13.61 11.59-24.65 25.86-24.65h0.15m-13.56 45.72v62.75" stroke="#000" stroke-width="2.1429" fill="#6ebec1"/>
  <path id="path10281" d="m985.93 710.2h-0.15c-14.27 0-25.86-11.04-25.86-24.64 0-13.61 11.59-24.65 25.86-24.65h0.15m-13.56 3.57v-55.97" stroke="#000" stroke-width="2.1429" fill="#6ebec1"/>
  <path id="text9882" d="m843.79 969.39v-12.17h-12.08v-5.09h12.08v-12.07h5.14v12.07h12.08v5.09h-12.08v12.17h-5.14z"/>
  <text id="text9886" xml:space="preserve" font-size="99px" y="1015.4229" x="721.52826" font-family="Arial" fill="#000000">
      <tspan id="tspan9888" y="1015.4229" x="721.52826" font-size="72px">4 H</tspan>
    </text>
  <path id="path2283" d="m78.602 516.18c0 13.6-11.586 24.64-25.86 24.64-14.275 0-25.86-11.04-25.86-24.64 0-13.61 11.585-24.65 25.86-24.65 14.274 0 25.86 11.04 25.86 24.65zm-39.271 21.07v55.98m26.821-55.98v62.75" stroke="#000" stroke-width="2.1429" fill="#6ebec1"/>
  <path id="path9151" d="m26.882 685.56c0-13.61 11.585-24.65 25.859-24.65 14.275 0 25.861 11.04 25.861 24.65 0 13.6-11.586 24.64-25.861 24.64-14.274 0-25.859-11.04-25.859-24.64zm39.27-21.08v-55.97m-26.821 55.97v-62.74" stroke="#000" stroke-width="2.1429" fill="#6ebec1"/>
  <path id="path9153" d="m130.03 516.18c0 13.6-11.59 24.64-25.86 24.64-14.275 0-25.86-11.04-25.86-24.64 0-13.61 11.585-24.65 25.86-24.65 14.27 0 25.86 11.04 25.86 24.65zm-39.271 21.07v55.98m26.821-55.98v62.75" stroke="#000" stroke-width="2.1429" fill="#6ebec1"/>
  <path id="path9155" d="m78.31 685.56c0-13.61 11.585-24.65 25.86-24.65 14.27 0 25.86 11.04 25.86 24.65 0 13.6-11.59 24.64-25.86 24.64-14.275 0-25.86-11.04-25.86-24.64zm39.27-21.08v-55.97m-26.821 55.97v-62.74" stroke="#000" stroke-width="2.1429" fill="#6ebec1"/>
  <path id="path9157" d="m180.85 516.18c0 13.6-11.59 24.64-25.86 24.64-14.28 0-25.86-11.04-25.86-24.64 0-13.61 11.58-24.65 25.86-24.65 14.27 0 25.86 11.04 25.86 24.65zm-39.27 21.07v55.98m26.82-55.98v62.75" stroke="#000" stroke-width="2.1429" fill="#6ebec1"/>
  <path id="path9159" d="m129.13 685.56c0-13.61 11.58-24.65 25.86-24.65 14.27 0 25.86 11.04 25.86 24.65 0 13.6-11.59 24.64-25.86 24.64-14.28 0-25.86-11.04-25.86-24.64zm39.27-21.08v-55.97m-26.82 55.97v-62.74" stroke="#000" stroke-width="2.1429" fill="#6ebec1"/>
  <path id="path9179" d="m1.0714 540.82h0.1473c14.274 0 25.861-11.04 25.861-24.64 0-13.61-11.587-24.65-25.861-24.65h-0.1476m13.56 45.72v62.75" stroke="#000" stroke-width="2.1429" fill="#6ebec1"/>
  <path id="path9181" d="m1.0714 710.2h0.1473c14.275 0 25.861-11.04 25.861-24.64 0-13.61-11.586-24.65-25.861-24.65h-0.1476m13.56 3.57v-55.97" stroke="#000" stroke-width="2.1429" fill="#6ebec1"/>
  <path id="path2897" d="m232.53 516.18c0 13.6-11.59 24.64-25.86 24.64s-25.86-11.04-25.86-24.64c0-13.61 11.59-24.65 25.86-24.65s25.86 11.04 25.86 24.65zm-39.27 21.07v55.98m26.82-55.98v62.75" stroke="#000" stroke-width="2.1429" fill="#6ebec1"/>
  <path id="path2899" d="m180.81 685.56c0-13.61 11.59-24.65 25.86-24.65s25.86 11.04 25.86 24.65c0 13.6-11.59 24.64-25.86 24.64s-25.86-11.04-25.86-24.64zm39.27-21.08v-55.97m-26.82 55.97v-62.74" stroke="#000" stroke-width="2.1429" fill="#6ebec1"/>
  <path id="path2901" d="m283.96 516.18c0 13.6-11.59 24.64-25.86 24.64-14.28 0-25.86-11.04-25.86-24.64 0-13.61 11.58-24.65 25.86-24.65 14.27 0 25.86 11.04 25.86 24.65zm-39.27 21.07v55.98m26.82-55.98v62.75" stroke="#000" stroke-width="2.1429" fill="#6ebec1"/>
  <path id="path2903" d="m232.24 685.56c0-13.61 11.58-24.65 25.86-24.65 14.27 0 25.86 11.04 25.86 24.65 0 13.6-11.59 24.64-25.86 24.64-14.28 0-25.86-11.04-25.86-24.64zm39.27-21.08v-55.97m-26.82 55.97v-62.74" stroke="#000" stroke-width="2.1429" fill="#6ebec1"/>
  <path id="path2905" d="m334.78 516.18c0 13.6-11.59 24.64-25.86 24.64-14.28 0-25.86-11.04-25.86-24.64 0-13.61 11.58-24.65 25.86-24.65 14.27 0 25.86 11.04 25.86 24.65zm-39.28 21.07v55.98m26.83-55.98v62.75" stroke="#000" stroke-width="2.1429" fill="#6ebec1"/>
  <path id="path2907" d="m283.06 685.56c0-13.61 11.58-24.65 25.85-24.65 14.28 0 25.87 11.04 25.87 24.65 0 13.6-11.59 24.64-25.87 24.64-14.27 0-25.85-11.04-25.85-24.64zm39.27-21.08v-55.97m-26.83 55.97v-62.74" stroke="#000" stroke-width="2.1429" fill="#6ebec1"/>
  <path id="path2909" d="m386.46 516.18c0 13.6-11.59 24.64-25.86 24.64-14.28 0-25.86-11.04-25.86-24.64 0-13.61 11.58-24.65 25.86-24.65 14.27 0 25.86 11.04 25.86 24.65zm-39.27 21.07v55.98m26.82-55.98v62.75" stroke="#000" stroke-width="2.1429" fill="#6ebec1"/>
  <path id="path2911" d="m334.74 685.56c0-13.61 11.58-24.65 25.86-24.65 14.27 0 25.86 11.04 25.86 24.65 0 13.6-11.59 24.64-25.86 24.64-14.28 0-25.86-11.04-25.86-24.64zm39.27-21.08v-55.97m-26.82 55.97v-62.74" stroke="#000" stroke-width="2.1429" fill="#6ebec1"/>
  <path id="path2913" d="m437.89 516.18c0 13.6-11.59 24.64-25.86 24.64-14.28 0-25.86-11.04-25.86-24.64 0-13.61 11.58-24.65 25.86-24.65 14.27 0 25.86 11.04 25.86 24.65zm-39.27 21.07v55.98m26.82-55.98v62.75" stroke="#000" stroke-width="2.1429" fill="#6ebec1"/>
  <path id="path2915" d="m386.17 685.56c0-13.61 11.58-24.65 25.86-24.65 14.27 0 25.86 11.04 25.86 24.65 0 13.6-11.59 24.64-25.86 24.64-14.28 0-25.86-11.04-25.86-24.64zm39.27-21.08v-55.97m-26.82 55.97v-62.74" stroke="#000" stroke-width="2.1429" fill="#6ebec1"/>
  <path id="path2958" d="m843.79 97.399v-12.17h-12.08v-5.086h12.08v-12.079h5.14v12.079h12.08v5.086h-12.08v12.17h-5.14z"/>
  <text id="text2960" xml:space="preserve" font-size="99px" y="143.43188" x="721.52826" font-family="Arial" fill="#000000">
      <tspan id="tspan2962" y="143.43188" x="721.52826" font-size="72px">4 H</tspan>
    </text>
  <path id="path2966" d="m175.56 793.45v-12.17h-12.08v-5.09h12.08v-12.08h5.15v12.08h12.07v5.09h-12.07v12.17h-5.15z"/>
  <text id="text2968" xml:space="preserve" font-size="99px" y="839.47864" x="53.301556" font-family="Arial" fill="#000000">
      <tspan id="tspan2970" y="839.47864" x="53.301556" font-size="72px">4 H</tspan>
    </text>
  <path id="rect6860" style="color:#000000" d="m671.11 545.4v24.1h-176v-24.1h176z" fill-rule="evenodd" stroke="#000" fill="#fe9900"/>
  <path id="path4920" style="color:#000000" d="m583.11 605.48c-26.85 0-48.64-21.79-48.64-48.64s21.79-48.64 48.64-48.64 48.64 21.79 48.64 48.64-21.79 48.64-48.64 48.64z" fill-rule="evenodd" stroke="#000" stroke-width=".99278" fill="#fe9900"/>
  <text id="text2972" xml:space="preserve" font-size="45px" y="576.55676" x="549.28497" font-family="Arial" fill="#000000">
      <tspan id="tspan2974" y="576.55676" x="549.28497" font-size="56px">Fe</tspan>
    </text>
  <path id="path2984" style="color:#000000" d="m671.11 705.76v24.1h-176v-24.1h176z" fill-rule="evenodd" stroke="#000" fill="#fe9900"/>
  <path id="path2986" style="color:#000000" d="m583.11 765.84c-26.85 0-48.64-21.79-48.64-48.64s21.79-48.64 48.64-48.64 48.64 21.79 48.64 48.64-21.79 48.64-48.64 48.64z" fill-rule="evenodd" stroke="#000" stroke-width=".99278" fill="#fe9900"/>
  <text id="text2988" xml:space="preserve" font-size="45px" y="736.91388" x="549.28497" font-family="Arial" fill="#000000">
      <tspan id="tspan2990" y="736.91388" x="549.28497" font-size="56px">Fe</tspan>
    </text>
  <path id="path2992" d="m542.08 829.57l40.94-48.64" stroke="#000" stroke-width="3.472" fill="none"/>
  <path id="path2994" d="m535 837.05l18.74-7.04-10.2-2.58-3.78-9.82-4.76 19.44z" fill-rule="evenodd" stroke="#000" stroke-width=".35330px"/>
  <path id="path3002" style="color:#000000" d="m592.74 643.2l-9.78 18.42-9.78-18.42 9.78 4.99 9.78-4.99z" fill-rule="evenodd"/>
  <path id="path5915" d="m582.96 613.08v38.13" stroke="#000" stroke-width="3.5" fill="none"/>
  <path id="path6893" style="color:#000000" d="m592.74 482.94l-9.78 18.41-9.78-18.41 9.78 4.98 9.78-4.98z" fill-rule="evenodd"/>
  <path id="path6895" d="m582.96 452.81v38.14" stroke="#000" stroke-width="3.5" fill="none"/>
  <path id="path6940" style="color:#000000" d="m392.69 377.1l-18.41-9.79 18.41-9.78-4.99 9.78 4.99 9.79z" fill-rule="evenodd"/>
  <path id="path6942" d="m517.75 306.46c-1.25-16.32-5.77-36.4-12.89-61.52m-117.25 122.25s98.63 11.9 120.76-17.75c8-10.72 10.8-24.42 9.38-42.98l30.4 60.65" stroke="#000" stroke-width="3.5" fill="none"/>
  <path id="path6901" style="color:#000000" d="m787.77 203.35l-13.19-24.83-13.2 24.83 13.2-6.72 13.19 6.72z" fill-rule="evenodd"/>
  <path id="path6903" d="m774.58 949.05v-766.64" stroke="#000" stroke-width="3.5" fill="none"/>
  <path id="path6923" d="m350.91 853.92v4.06h-22.71c-0.03-1.02 0.13-1.99 0.49-2.93 0.58-1.55 1.5-3.07 2.78-4.57 1.27-1.5 3.11-3.24 5.52-5.21 3.73-3.06 6.26-5.48 7.57-7.27s1.97-3.48 1.97-5.08c0-1.67-0.6-3.08-1.8-4.23-1.19-1.15-2.75-1.72-4.67-1.72-2.03 0-3.66 0.61-4.88 1.83s-1.83 2.9-1.85 5.06l-4.33-0.45c0.29-3.23 1.41-5.69 3.35-7.39 1.93-1.69 4.54-2.54 7.8-2.54 3.3 0 5.91 0.91 7.83 2.74s2.88 4.09 2.88 6.8c0 1.37-0.28 2.72-0.84 4.05s-1.5 2.73-2.8 4.2c-1.31 1.47-3.47 3.48-6.51 6.04-2.53 2.13-4.15 3.57-4.87 4.33s-1.31 1.52-1.78 2.28h16.85z"/>
  <text id="text6925" xml:space="preserve" font-size="99px" y="839.47729" x="212.87054" font-family="Arial" fill="#000000">
      <tspan id="tspan6927" y="839.47729" x="212.87054" font-size="72px">+ O</tspan>
    </text>
  <path id="path7917" style="color:#000000" d="m552.05 353.2l-0.6 20.84-16.93-12.17 10.98 0.13 6.55-8.8z" fill-rule="evenodd"/>
  <path id="path7929" style="color:#000000" d="m583.11 446.28c-22.6 0-40.94-18.34-40.94-40.94 0-22.59 18.34-40.93 40.94-40.93s40.94 18.34 40.94 40.93c0 22.6-18.34 40.94-40.94 40.94z" fill-rule="evenodd" stroke="#000" stroke-width=".83562" fill="#bbe0e3"/>
  <text id="text7925" xml:space="preserve" font-size="45px" y="425.06628" x="547.91779" font-family="Arial" fill="#000000">
      <tspan id="tspan7927" y="425.06628" x="547.91779" font-size="56px">Cu</tspan>
    </text>
  <path id="path7938" style="color:#000000" d="m630.53 854.06c-22.6 0-40.94-18.35-40.94-40.94 0-22.6 18.34-40.94 40.94-40.94s40.94 18.34 40.94 40.94c0 22.59-18.34 40.94-40.94 40.94z" fill-rule="evenodd" stroke="#000" stroke-width=".83562" fill="#bbe0e3"/>
  <text id="text7940" xml:space="preserve" font-size="45px" y="832.83777" x="595.33643" font-family="Arial" fill="#000000">
      <tspan id="tspan7942" y="832.83777" x="595.33643" font-size="56px">Cu</tspan>
    </text>
  <path id="text9838" d="m601.41 1069.9v4h-22.71c-0.03-1 0.14-2 0.49-2.9 0.58-1.5 1.51-3.1 2.78-4.6 1.28-1.5 3.12-3.2 5.52-5.2 3.74-3 6.26-5.5 7.57-7.2 1.31-1.8 1.97-3.5 1.97-5.1 0-1.7-0.6-3.1-1.79-4.2-1.2-1.2-2.76-1.8-4.68-1.8-2.03 0-3.65 0.6-4.87 1.9-1.22 1.2-1.84 2.9-1.85 5l-4.34-0.4c0.3-3.3 1.41-5.7 3.35-7.4s4.54-2.6 7.81-2.6c3.29 0 5.9 0.9 7.82 2.8 1.93 1.8 2.89 4.1 2.89 6.8 0 1.3-0.28 2.7-0.85 4-0.56 1.4-1.49 2.8-2.8 4.2-1.3 1.5-3.47 3.5-6.5 6.1-2.53 2.1-4.16 3.5-4.88 4.3s-1.31 1.5-1.78 2.3h16.85z"/>
  <text id="text8399" xml:space="preserve" font-size="99px" y="1055.4357" x="465.34326" font-family="Arial" fill="#000000">
      <tspan id="tspan8401" y="1055.4357" x="465.34326" font-size="72px">2 H</tspan>
    </text>
  <text id="text8411" xml:space="preserve" font-size="99px" y="1055.4357" x="604.0932" font-family="Arial" fill="#000000">
      <tspan id="tspan8413" y="1055.4357" x="604.0932" font-size="72px">O</tspan>
    </text>
  <path id="path8423" d="m369.08 802.69s112.99-13.51 152.88 30.6c24.66 27.26 30.62 67.4 37.86 136.8" stroke="#000" stroke-width="3.5" fill="none"/>
  <path id="path9395" d="m560.8 980.9l7.15-18.69-8.69 5.92-9.86-3.69 11.4 16.46z" fill-rule="evenodd" stroke="#000" stroke-width=".35330px"/>
  <path id="path11191" style="color:#000000" d="m559.09 157.41c0 44.42-43.05 80.43-96.16 80.43s-96.17-36.01-96.17-80.43 43.06-80.436 96.17-80.436 96.16 36.016 96.16 80.436z" fill-rule="evenodd" stroke="#000" stroke-width="1.5" fill="#fefe00"/>
  <path id="path11225" style="color:#000000" d="m368.16 357.28c0 44.42-43.06 80.43-96.17 80.43s-96.16-36.01-96.16-80.43c0-44.43 43.05-80.44 96.16-80.44s96.17 36.01 96.17 80.44z" fill-rule="evenodd" stroke="#000" stroke-width="1.5" fill="#fefe00"/>
  <text id="text11227" style="text-anchor:middle;text-align:center" xml:space="preserve" font-size="56px" line-height="120.00000477%" y="340.66898" x="270.85693" font-family="Arial" fill="#000000">
      <tspan id="tspan11229" style="text-anchor:middle;text-align:center" line-height="120.00000477%" y="340.66898" x="270.85693">Cyt c</tspan>
      <tspan id="tspan11231" style="text-anchor:middle;text-align:center" line-height="120.00000477%" y="407.86899" x="270.85693">(ox)</tspan>
    </text>
  <text id="text11233" style="text-anchor:middle;text-align:center" xml:space="preserve" font-size="56px" line-height="120.00000477%" y="138.2998" x="461.79147" font-family="Arial" fill="#000000">
      <tspan id="tspan11235" style="text-anchor:middle;text-align:center" line-height="120.00000477%" y="138.2998" x="461.79147">Cyt c</tspan>
      <tspan id="tspan11237" style="text-anchor:middle;text-align:center" line-height="120.00000477%" y="205.49983" x="461.79147">(red)</tspan>
    </text>
  <text id="text10202" xml:space="preserve" font-size="45px" y="333.18768" x="540.10712" font-family="Arial" fill="#000000">
      <tspan id="tspan10204" font-size="56px" y="333.18768" x="540.10712" font-weight="bold">4 e</tspan>
    </text>
  <path id="text10206" d="m619.77 298.83v-4.62h25.03v4.62h-25.03z"/>
  <text id="text10212" xml:space="preserve" font-size="56px" y="167.88086" x="245.86174" font-family="Arial" fill="#000000">
      <tspan id="tspan10214" y="167.88086" x="245.86174" font-size="72px">4</tspan>
    </text>
  <text id="text10217" xml:space="preserve" font-size="56px" y="375.70721" x="57.46846" font-family="Arial" fill="#000000">
      <tspan id="tspan10219" y="375.70721" x="57.46846" font-size="72px">4</tspan>
    </text>
  <path id="text10221" d="m311.57 153.5l11.07-11.07-11.04-11.04 4.29-4.29 11.04 11.04 11.01-11.01 4.21 4.26-10.96 11 11.04 11.04-4.29 4.29-11.04-11.04-11.08 11.08-4.25-4.26z"/>
  <path id="text10226" d="m123.18 361.33l11.07-11.08-11.04-11.03 4.29-4.29 11.04 11.04 11-11.01 4.22 4.26-10.97 11 11.04 11.04-4.29 4.29-11.04-11.04-11.07 11.07-4.25-4.25z"/>
 </g>
 <metadata>
  <rdf:RDF>
   <cc:Work>
    <dc:format>image/svg+xml</dc:format>
    <dc:type rdf:resource="http://purl.org/dc/dcmitype/StillImage"/>
    <cc:license rdf:resource="http://creativecommons.org/licenses/publicdomain/"/>
    <dc:publisher>
     <cc:Agent rdf:about="http://openclipart.org/">
      <dc:title>Openclipart</dc:title>
     </cc:Agent>
    </dc:publisher>
   </cc:Work>
   <cc:License rdf:about="http://creativecommons.org/licenses/publicdomain/">
    <cc:permits rdf:resource="http://creativecommons.org/ns#Reproduction"/>
    <cc:permits rdf:resource="http://creativecommons.org/ns#Distribution"/>
    <cc:permits rdf:resource="http://creativecommons.org/ns#DerivativeWorks"/>
   </cc:License>
  </rdf:RDF>
 </metadata>
</svg>
