<?xml version="1.0"?>
<svg xmlns:rdf="http://www.w3.org/1999/02/22-rdf-syntax-ns#" xmlns="http://www.w3.org/2000/svg" xmlns:cc="http://creativecommons.org/ns#" xmlns:dc="http://purl.org/dc/elements/1.1/" id="svg2" viewBox="0 0 1874.6 917.12" version="1.0">
 <text id="text3020" xml:space="preserve" font-size="12px" y="851.37054" x="578.14508" font-family="Bitstream Vera Sans" fill="#000000">     <tspan id="tspan3022" y="851.37054" x="578.14508"/>   </text>
 <path id="path4523" d="m1.0112 513.95h0.13901c13.471 0 24.406-10.42 24.406-23.25 0-12.84-10.935-23.26-24.406-23.26h-0.1389m12.797 42.89v67.3" stroke-opacity=".65098" fill-opacity=".65132" stroke="#000" stroke-width="2.0223" fill="#6ebec1"/>
 <path id="path4547" d="m1.0112 640.43h0.13901c13.471 0 24.406 10.42 24.406 23.26s-10.935 23.26-24.406 23.26h-0.1389m12.797-43.15v-60.69" stroke-opacity=".65098" fill-opacity=".65132" stroke="#000" stroke-width="2.0223" fill="#6ebec1"/>
 <path id="path4521" d="m74.178 490.7c0 12.84-10.933 23.26-24.404 23.26-13.472 0-24.405-10.42-24.405-23.26s10.933-23.26 24.405-23.26c13.471 0 24.404 10.42 24.404 23.26zm-37.061 19.89v60.68m25.312-60.68v67.07" stroke-opacity=".65098" fill-opacity=".65132" stroke="#000" stroke-width="2.0223" fill="#6ebec1"/>
 <path id="path4537" d="m25.369 663.69c0-12.84 10.933-23.26 24.404-23.26 13.472 0 24.405 10.42 24.405 23.26s-10.933 23.26-24.405 23.26c-13.471 0-24.404-10.42-24.404-23.26zm37.06-19.89v-60.69m-25.312 60.69v-67.08" stroke-opacity=".65098" fill-opacity=".65132" stroke="#000" stroke-width="2.0223" fill="#6ebec1"/>
 <path id="path4557" d="m122.99 490.7c0 12.84-10.94 23.26-24.407 23.26-13.471 0-24.405-10.42-24.405-23.26s10.934-23.26 24.405-23.26c13.467 0 24.407 10.42 24.407 23.26zm-37.063 19.89v60.68m25.313-60.68v67.07" stroke-opacity=".65098" fill-opacity=".65132" stroke="#000" stroke-width="2.0223" fill="#6ebec1"/>
 <path id="path4559" d="m74.181 663.69c0-12.84 10.934-23.26 24.405-23.26 13.467 0 24.407 10.42 24.407 23.26s-10.94 23.26-24.407 23.26c-13.471 0-24.405-10.42-24.405-23.26zm37.062-19.89v-60.69m-25.313 60.69v-67.08" stroke-opacity=".65098" fill-opacity=".65132" stroke="#000" stroke-width="2.0223" fill="#6ebec1"/>
 <path id="path4573" d="m171.8 490.7c0 12.84-10.93 23.26-24.4 23.26-13.48 0-24.41-10.42-24.41-23.26s10.93-23.26 24.41-23.26c13.47 0 24.4 10.42 24.4 23.26zm-37.06 19.89v60.68m25.31-60.68v67.07" stroke-opacity=".65098" fill-opacity=".65132" stroke="#000" stroke-width="2.0223" fill="#6ebec1"/>
 <path id="path4575" d="m122.99 663.69c0-12.84 10.93-23.26 24.41-23.26 13.47 0 24.4 10.42 24.4 23.26s-10.93 23.26-24.4 23.26c-13.48 0-24.41-10.42-24.41-23.26zm37.06-19.89v-60.69m-25.31 60.69v-67.08" stroke-opacity=".65098" fill-opacity=".65132" stroke="#000" stroke-width="2.0223" fill="#6ebec1"/>
 <path id="path4579" d="m220.61 490.7c0 12.84-10.93 23.26-24.4 23.26s-24.41-10.42-24.41-23.26 10.94-23.26 24.41-23.26 24.4 10.42 24.4 23.26zm-37.06 19.89v60.68m25.31-60.68v67.07" stroke-opacity=".65098" fill-opacity=".65132" stroke="#000" stroke-width="2.0223" fill="#6ebec1"/>
 <path id="path4581" d="m171.8 663.69c0-12.84 10.94-23.26 24.41-23.26s24.4 10.42 24.4 23.26-10.93 23.26-24.4 23.26-24.41-10.42-24.41-23.26zm37.06-19.89v-60.69m-25.31 60.69v-67.08" stroke-opacity=".65098" fill-opacity=".65132" stroke="#000" stroke-width="2.0223" fill="#6ebec1"/>
 <path id="path4659" d="m269.42 490.7c0 12.84-10.93 23.26-24.4 23.26s-24.4-10.42-24.4-23.26 10.93-23.26 24.4-23.26 24.4 10.42 24.4 23.26zm-37.06 19.89v60.68m25.32-60.68v67.07" stroke-opacity=".65098" fill-opacity=".65132" stroke="#000" stroke-width="2.0223" fill="#6ebec1"/>
 <path id="path4661" d="m220.62 663.69c0-12.84 10.93-23.26 24.4-23.26s24.4 10.42 24.4 23.26-10.93 23.26-24.4 23.26-24.4-10.42-24.4-23.26zm37.06-19.89v-60.69m-25.32 60.69v-67.08" stroke-opacity=".65098" fill-opacity=".65132" stroke="#000" stroke-width="2.0223" fill="#6ebec1"/>
 <path id="path4665" d="m318.24 490.7c0 12.84-10.94 23.26-24.41 23.26s-24.4-10.42-24.4-23.26 10.93-23.26 24.4-23.26 24.41 10.42 24.41 23.26zm-37.06 19.89v60.68m25.31-60.68v67.07" stroke-opacity=".65098" fill-opacity=".65132" stroke="#000" stroke-width="2.0223" fill="#6ebec1"/>
 <path id="path4667" d="m269.43 663.69c0-12.84 10.93-23.26 24.4-23.26s24.41 10.42 24.41 23.26-10.94 23.26-24.41 23.26-24.4-10.42-24.4-23.26zm37.06-19.89v-60.69m-25.31 60.69v-67.08" stroke-opacity=".65098" fill-opacity=".65132" stroke="#000" stroke-width="2.0223" fill="#6ebec1"/>
 <path id="path4701" d="m1002 490.7c0 12.84-10.98 23.26-24.45 23.26s-24.4-10.42-24.4-23.26 10.93-23.26 24.4-23.26 24.45 10.42 24.45 23.26zm-37.1 19.89v60.68m25.31-60.68v67.07" stroke-opacity=".65098" fill-opacity=".65132" stroke="#000" stroke-width="2.0223" fill="#6ebec1"/>
 <path id="path4703" d="m953.18 663.69c0-12.84 10.93-23.26 24.4-23.26s24.45 10.42 24.45 23.26-10.98 23.26-24.45 23.26-24.4-10.42-24.4-23.26zm37.06-19.89v-60.69m-25.31 60.69v-67.08" stroke-opacity=".65098" fill-opacity=".65132" stroke="#000" stroke-width="2.0223" fill="#6ebec1"/>
 <path id="path4707" d="m1050.8 490.7c0 12.84-11 23.26-24.4 23.26-13.5 0-24.4-10.42-24.4-23.26s10.9-23.26 24.4-23.26c13.4 0 24.4 10.42 24.4 23.26zm-37.1 19.89v60.68m25.3-60.68v67.07" stroke-opacity=".65098" fill-opacity=".65132" stroke="#000" stroke-width="2.0223" fill="#6ebec1"/>
 <path id="path4709" d="m1002 663.69c0-12.84 10.9-23.26 24.4-23.26 13.4 0 24.4 10.42 24.4 23.26s-11 23.26-24.4 23.26c-13.5 0-24.4-10.42-24.4-23.26zm37-19.89v-60.69m-25.3 60.69v-67.08" stroke-opacity=".65098" fill-opacity=".65132" stroke="#000" stroke-width="2.0223" fill="#6ebec1"/>
 <path id="path4715" d="m1099.6 490.7c0 12.84-11 23.26-24.4 23.26-13.5 0-24.4-10.42-24.4-23.26s10.9-23.26 24.4-23.26c13.4 0 24.4 10.42 24.4 23.26zm-37.1 19.89v60.68m25.3-60.68v67.07" stroke-opacity=".65098" fill-opacity=".65132" stroke="#000" stroke-width="2.0223" fill="#6ebec1"/>
 <path id="path4717" d="m1050.8 663.69c0-12.84 10.9-23.26 24.4-23.26 13.4 0 24.4 10.42 24.4 23.26s-11 23.26-24.4 23.26c-13.5 0-24.4-10.42-24.4-23.26zm37-19.89v-60.69m-25.3 60.69v-67.08" stroke-opacity=".65098" fill-opacity=".65132" stroke="#000" stroke-width="2.0223" fill="#6ebec1"/>
 <path id="path4721" d="m1148.4 490.7c0 12.84-10.9 23.26-24.4 23.26s-24.4-10.42-24.4-23.26 10.9-23.26 24.4-23.26 24.4 10.42 24.4 23.26zm-37.1 19.89v60.68m25.3-60.68v67.07" stroke-opacity=".65098" fill-opacity=".65132" stroke="#000" stroke-width="2.0223" fill="#6ebec1"/>
 <path id="path4723" d="m1099.6 663.69c0-12.84 10.9-23.26 24.4-23.26s24.4 10.42 24.4 23.26-10.9 23.26-24.4 23.26-24.4-10.42-24.4-23.26zm37-19.89v-60.69m-25.3 60.69v-67.08" stroke-opacity=".65098" fill-opacity=".65132" stroke="#000" stroke-width="2.0223" fill="#6ebec1"/>
 <path id="path4797" d="m1605 490.7c0 12.84-10.9 23.26-24.4 23.26s-24.4-10.42-24.4-23.26 10.9-23.26 24.4-23.26 24.4 10.42 24.4 23.26zm-37.1 19.89v60.68m25.4-60.68v67.07" stroke-opacity=".65098" fill-opacity=".65098" stroke="#000" stroke-width="2.0223" fill="#6ebec1"/>
 <path id="path4799" d="m1556.2 663.69c0-12.84 10.9-23.26 24.4-23.26s24.4 10.42 24.4 23.26-10.9 23.26-24.4 23.26-24.4-10.42-24.4-23.26zm37.1-19.89v-60.69m-25.4 60.69v-67.08" stroke-opacity=".65098" fill-opacity=".65098" stroke="#000" stroke-width="2.0223" fill="#6ebec1"/>
 <path id="path4803" d="m1653.8 490.7c0 12.84-10.9 23.26-24.4 23.26s-24.4-10.42-24.4-23.26 10.9-23.26 24.4-23.26 24.4 10.42 24.4 23.26zm-37 19.89v60.68m25.3-60.68v67.07" stroke-opacity=".65098" fill-opacity=".65098" stroke="#000" stroke-width="2.0223" fill="#6ebec1"/>
 <path id="path4805" d="m1605 663.69c0-12.84 10.9-23.26 24.4-23.26s24.4 10.42 24.4 23.26-10.9 23.26-24.4 23.26-24.4-10.42-24.4-23.26zm37.1-19.89v-60.69m-25.3 60.69v-67.08" stroke-opacity=".65098" fill-opacity=".65098" stroke="#000" stroke-width="2.0223" fill="#6ebec1"/>
 <path id="path4811" d="m1702.6 490.7c0 12.84-10.9 23.26-24.4 23.26-13.4 0-24.4-10.42-24.4-23.26s11-23.26 24.4-23.26c13.5 0 24.4 10.42 24.4 23.26zm-37 19.89v60.68m25.3-60.68v67.07" stroke-opacity=".65098" fill-opacity=".65098" stroke="#000" stroke-width="2.0223" fill="#6ebec1"/>
 <path id="path4813" d="m1653.8 663.69c0-12.84 11-23.26 24.4-23.26 13.5 0 24.4 10.42 24.4 23.26s-10.9 23.26-24.4 23.26c-13.4 0-24.4-10.42-24.4-23.26zm37.1-19.89v-60.69m-25.3 60.69v-67.08" stroke-opacity=".65098" fill-opacity=".65098" stroke="#000" stroke-width="2.0223" fill="#6ebec1"/>
 <path id="path4817" d="m1751.4 490.7c0 12.84-10.9 23.26-24.4 23.26-13.4 0-24.4-10.42-24.4-23.26s11-23.26 24.4-23.26c13.5 0 24.4 10.42 24.4 23.26zm-37 19.89v60.68m25.3-60.68v67.07" stroke-opacity=".65098" fill-opacity=".65098" stroke="#000" stroke-width="2.0223" fill="#6ebec1"/>
 <path id="path4819" d="m1702.6 663.69c0-12.84 11-23.26 24.4-23.26 13.5 0 24.4 10.42 24.4 23.26s-10.9 23.26-24.4 23.26c-13.4 0-24.4-10.42-24.4-23.26zm37.1-19.89v-60.69m-25.3 60.69v-67.08" stroke-opacity=".65098" fill-opacity=".65098" stroke="#000" stroke-width="2.0223" fill="#6ebec1"/>
 <path id="path4825" d="m1800.3 490.7c0 12.84-11 23.26-24.4 23.26-13.5 0-24.5-10.42-24.5-23.26s11-23.26 24.5-23.26c13.4 0 24.4 10.42 24.4 23.26zm-37.1 19.89v60.68m25.3-60.68v67.07" stroke-opacity=".65098" fill-opacity=".65098" stroke="#000" stroke-width="2.0223" fill="#6ebec1"/>
 <path id="path4827" d="m1751.4 663.69c0-12.84 11-23.26 24.5-23.26 13.4 0 24.4 10.42 24.4 23.26s-11 23.26-24.4 23.26c-13.5 0-24.5-10.42-24.5-23.26zm37.1-19.89v-60.69m-25.3 60.69v-67.08" stroke-opacity=".65098" fill-opacity=".65098" stroke="#000" stroke-width="2.0223" fill="#6ebec1"/>
 <path id="path4831" d="m1849.1 490.7c0 12.84-11 23.26-24.4 23.26-13.5 0-24.4-10.42-24.4-23.26s10.9-23.26 24.4-23.26c13.4 0 24.4 10.42 24.4 23.26zm-37.1 19.89v60.68m25.3-60.68v67.07" stroke-opacity=".65098" fill-opacity=".65098" stroke="#000" stroke-width="2.0223" fill="#6ebec1"/>
 <path id="path4833" d="m1800.3 663.69c0-12.84 10.9-23.26 24.4-23.26 13.4 0 24.4 10.42 24.4 23.26s-11 23.26-24.4 23.26c-13.5 0-24.4-10.42-24.4-23.26zm37-19.89v-60.69m-25.3 60.69v-67.08" stroke-opacity=".65098" fill-opacity=".65098" stroke="#000" stroke-width="2.0223" fill="#6ebec1"/>
 <path id="path4841" d="m1873.6 513.95h-0.1c-13.5 0-24.4-10.42-24.4-23.25 0-12.84 10.9-23.26 24.4-23.26h0.1m-12.8 36.52v67.3" stroke-opacity=".65098" fill-opacity=".65098" stroke="#000" stroke-width="2.0223" fill="#6ebec1"/>
 <path id="path4843" d="m1873.6 640.43h-0.1c-13.5 0-24.4 10.42-24.4 23.26s10.9 23.26 24.4 23.26h0.1m-12.8-43.29v-66.94" stroke-opacity=".65098" fill-opacity=".65098" stroke="#000" stroke-width="2.0223" fill="#6ebec1"/>
 <path id="path8794" style="color:#000000" d="m1029.2 338.18c0 44.42-43.06 80.43-96.18 80.43-53.11 0-96.16-36.01-96.16-80.43 0-44.43 43.05-80.44 96.16-80.44 53.12 0 96.18 36.01 96.18 80.44z" fill-rule="evenodd" stroke="#000" stroke-width="1.5" fill="#fefe00"/>
 <rect id="rect5870" style="color:#000000" fill-rule="evenodd" rx="75" ry="75" height="502.97" width="458.07" stroke="#000" y="294.05" x="301.32" stroke-width="3" fill="#99fecc"/>
 <path id="path4673" d="m806.83 490.7c0 12.84-10.94 23.26-24.41 23.26s-24.4-10.42-24.4-23.26 10.93-23.26 24.4-23.26 24.41 10.42 24.41 23.26zm-37.06 19.89v60.68m25.31-60.68v67.07" stroke-opacity=".65098" fill-opacity=".65132" stroke="#000" stroke-width="2.0223" fill="#6ebec1"/>
 <path id="path4675" d="m758.02 663.69c0-12.84 10.93-23.26 24.4-23.26s24.41 10.42 24.41 23.26-10.94 23.26-24.41 23.26-24.4-10.42-24.4-23.26zm37.06-19.89v-60.69m-25.31 60.69v-67.08" stroke-opacity=".65098" fill-opacity=".65132" stroke="#000" stroke-width="2.0223" fill="#6ebec1"/>
 <path id="path4679" d="m855.64 490.7c0 12.84-10.93 23.26-24.41 23.26-13.47 0-24.4-10.42-24.4-23.26s10.93-23.26 24.4-23.26c13.48 0 24.41 10.42 24.41 23.26zm-37.06 19.89v60.68m25.31-60.68v67.07" stroke-opacity=".65098" fill-opacity=".65132" stroke="#000" stroke-width="2.0223" fill="#6ebec1"/>
 <path id="path4681" d="m806.83 663.69c0-12.84 10.93-23.26 24.4-23.26 13.48 0 24.41 10.42 24.41 23.26s-10.93 23.26-24.41 23.26c-13.47 0-24.4-10.42-24.4-23.26zm37.06-19.89v-60.69m-25.31 60.69v-67.08" stroke-opacity=".65098" fill-opacity=".65132" stroke="#000" stroke-width="2.0223" fill="#6ebec1"/>
 <path id="path4687" d="m904.41 490.7c0 12.84-10.94 23.26-24.41 23.26s-24.4-10.42-24.4-23.26 10.93-23.26 24.4-23.26 24.41 10.42 24.41 23.26zm-37.06 19.89v60.68m25.31-60.68v67.07" stroke-opacity=".65098" fill-opacity=".65132" stroke="#000" stroke-width="2.0223" fill="#6ebec1"/>
 <path id="path4689" d="m855.6 663.69c0-12.84 10.93-23.26 24.4-23.26s24.41 10.42 24.41 23.26-10.94 23.26-24.41 23.26-24.4-10.42-24.4-23.26zm37.06-19.89v-60.69m-25.31 60.69v-67.08" stroke-opacity=".65098" fill-opacity=".65132" stroke="#000" stroke-width="2.0223" fill="#6ebec1"/>
 <path id="path4693" d="m953.22 490.7c0 12.84-10.93 23.26-24.41 23.26-13.47 0-24.4-10.42-24.4-23.26s10.93-23.26 24.4-23.26c13.48 0 24.41 10.42 24.41 23.26zm-37.06 19.89v60.68m25.31-60.68v67.07" stroke-opacity=".65098" fill-opacity=".65132" stroke="#000" stroke-width="2.0223" fill="#6ebec1"/>
 <path id="path4695" d="m904.41 663.69c0-12.84 10.93-23.26 24.4-23.26 13.48 0 24.41 10.42 24.41 23.26s-10.93 23.26-24.41 23.26c-13.47 0-24.4-10.42-24.4-23.26zm37.06-19.89v-60.69m-25.31 60.69v-67.08" stroke-opacity=".65098" fill-opacity=".65132" stroke="#000" stroke-width="2.0223" fill="#6ebec1"/>
 <path id="path7814" style="color:#000000" d="m869.06 121.63c0 44.42-43.05 80.43-96.17 80.43-53.11 0-96.16-36.01-96.16-80.43 0-44.43 43.05-80.438 96.16-80.438 53.12 0 96.17 36.008 96.17 80.438z" fill-rule="evenodd" stroke="#000" stroke-width="1.5" fill="#fefe00"/>
 <text id="text8787" style="text-anchor:middle;text-align:center" xml:space="preserve" font-size="56px" line-height="120.00000477%" y="105.01692" x="771.763" font-family="Arial" fill="#000000">     <tspan id="tspan8789" y="105.01692" x="771.763" style="text-anchor:middle;text-align:center" line-height="120.00000477%">Cyt c</tspan>     <tspan id="tspan8791" y="172.21692" x="771.763" style="text-anchor:middle;text-align:center" line-height="120.00000477%">(ox)</tspan>   </text>
 <text id="text8796" style="text-anchor:middle;text-align:center" xml:space="preserve" font-size="56px" line-height="120.00000477%" y="319.06836" x="931.92273" font-family="Arial" fill="#000000">     <tspan id="tspan8798" y="319.06836" x="931.92273" style="text-anchor:middle;text-align:center" line-height="120.00000477%">Cyt c</tspan>     <tspan id="tspan8800" y="386.26837" x="931.92273" style="text-anchor:middle;text-align:center" line-height="120.00000477%">(red)</tspan>   </text>
 <text id="text8802" xml:space="preserve" font-size="64px" y="464.6875" x="413.3089" font-family="Arial" fill="#000000">     <tspan id="tspan8804" y="464.6875" x="413.3089" font-size="81px">Q</tspan>   </text>
 <text id="text8807" xml:space="preserve" font-size="64px" y="729.9375" x="413.3089" font-family="Arial" fill="#000000">     <tspan id="tspan8809" y="729.9375" x="413.3089" font-size="81px">Q</tspan>   </text>
 <path id="path19716" style="color:#000000" d="m434.31 188.26c-6.86 12.01-13.86 24.13-20.88 36.13 6.1 0.2 10.98-3.77 16.63-5.13v170.47c4.58 2.28 11.84 1.09 12.12-5.06-0.22-55.07-0.14-110.51-0.06-165.44 4.11 0.7 9.55 6.14 13.44 2.56 1.16-4.78-4.66-8.67-5.99-13.06-4.53-7.82-9.04-15.65-13.51-23.5-0.59 1.01-1.17 2.02-1.75 3.03z" fill-opacity=".65882" fill-rule="evenodd" fill="#fff"/>
 <path id="path5294" style="color:#000000" fill-rule="evenodd" d="m450.41 218.12-14.35-5.13-14.35 5.13 14.35-24.86 14.35 24.86z"/>
 <path id="path19712" style="color:#000000" d="m730.27 276.17c2.22 3.53 7.64 6.02 8.75 9.81-28.85 11.71-57.43 25.01-86.17 37.35-56.2 24.64-112.42 49.24-168.61 73.9 0.32 5.07 4.45 11.73 10.25 9.1 33.47-15.67 67.81-29.85 101.6-44.95 49.31-21.55 98.86-43.44 148.03-64.77 0.96 4.1-1.74 10.97 2.94 13.28 4.96-0.76 6.18-7.73 9.71-10.73 5.34-7.26 10.68-14.52 16-21.8-15.38-1.81-30.79-3.44-46.18-5.16 1.23 1.32 2.46 2.65 3.68 3.97z" fill-opacity=".65882" fill-rule="evenodd" fill="#fff"/>
 <path id="path5300" fill-rule="evenodd" d="m434.06 208.7v177.5h4v-177.5h-4z"/>
 <path id="path6277" style="color:#000000" fill-rule="evenodd" d="m748.46 303.68-1.07-15.2-10.45-11.09 28.52 3.17-17 23.12z"/>
 <path id="path6279" fill-rule="evenodd" d="m750.52 284.92-261.28 114.5 1.63 3.66 261.28-114.5-1.63-3.66z"/>
 <path id="path24706" d="m500.81 446.73c-1.99 3.32-3.69 8.91 1.09 10.78 41.67 14.23 83.78 32.99 114.41 65.47 14.37 15.64 23.42 38.34 16.68 59.35-8.78 29.11-32.99 49.84-56.21 67.59-13.61 10.09-28.14 19.34-42.88 27.69-0.91-3.92 1.83-10.66-2.78-12.82-4.98 0.7-6.23 7.73-9.81 10.65-5.44 7.21-10.85 14.45-16.32 21.64 14.92 1.87 29.85 3.67 44.78 5.46-2.1-5.89-8.05-8.68-11.28-13.62 37.53-22.08 76-46.76 98.6-85 11.6-20.34 13.99-46.8 2.47-67.81-16.55-32.09-48.94-51.98-80-68.1-18.7-9.36-38.17-17.13-58.19-23.25-0.19 0.66-0.38 1.32-0.56 1.97z" fill-opacity=".65882" fill-rule="evenodd" fill="#fff"/>
 <path id="path6282" d="m503.49 451.67s294.15 88.74 22.62 237.23" stroke="#000" stroke-width="4" fill="none"/>
 <path id="path7253" style="color:#000000" fill-rule="evenodd" d="m529.64 671.01 0.89 15.21 10.34 11.2-28.49-3.48 17.26-22.93z"/>
 <path id="path15748" style="color:#000000" d="m358.06 439.64c2.32 3.64 8.06 5.32 9.21 9.44-27.51 12.72-54.5 27.29-81.81 40.75-26.24 13.24-52.49 26.48-78.75 39.68 0.41 5.07 4.76 11.72 10.56 8.66 28.65-15.62 58.45-29.63 87.53-44.64 22.71-11.45 45.42-22.91 68.13-34.36 1.18 3.99-1.21 11.7 3.97 13.25 4.86-1.65 5.9-8.6 9.38-12.06 4.78-7.26 9.54-14.54 14.24-21.85-15.46-0.86-30.93-1.74-46.4-2.62 1.31 1.25 2.62 2.5 3.94 3.75zm-147.75 182.47c-2.31 3.26-4.16 8.89 0.68 11 54.61 20.76 109.79 41.75 164.35 62.68-2.05 3.62-9 6.65-7.22 11.6 3.99 2.98 9.82-1.22 14.41-0.86 8.91-1.45 17.82-2.86 26.74-4.24-9.52-11.67-19-23.39-28.5-35.09-2.33 5.59-0.47 11.66-1.12 17.34-56.21-21.43-112.42-42.86-168.63-64.31-0.23 0.63-0.47 1.25-0.71 1.88z" fill-opacity=".65882" fill-rule="evenodd" fill="#fff"/>
 <path id="path7260" style="color:#000000" fill-rule="evenodd" d="m377.67 466.15-1.88-15.13-11.04-10.5 28.65 1.62-15.73 24.01z"/>
 <path id="path7262" fill-rule="evenodd" d="m378.71 447.29-166.97 84.19 1.78 3.6 167-84.19-1.81-3.6z"/>
 <path id="path7266" style="color:#000000" fill-rule="evenodd" d="m383.68 677.14-0.32 15.24-9.91 11.58 28.34-4.55-18.11-22.27z"/>
 <path id="path7268" fill-rule="evenodd" d="m213.34 625.42-1.41 3.72 174.72 66.62 1.44-3.72-174.75-66.62z"/>
 <rect id="rect7433" style="color:#000000" fill-rule="evenodd" fill-opacity=".65789" height="75.66" width="118.19" y="494.71" x="78.475" fill="#fff"/>
 <text id="text7311" xml:space="preserve" font-size="64px" y="546.93799" x="86.049622" font-family="Arial" fill="#000000">     <tspan id="tspan7313" y="546.93799" x="86.049622" font-size="56px">QH</tspan>   </text>
 <text id="text7315" xml:space="preserve" font-size="99px" y="558.9375" x="168.5589" font-family="Arial" fill="#000000">     <tspan id="tspan7317" y="558.9375" x="168.5589" font-size="36px">2</tspan>   </text>
 <rect id="rect8416" style="color:#000000" fill-rule="evenodd" fill-opacity=".65789" height="63.422" width="53.099" y="592.38" x="147.54" fill="#fff"/>
 <text id="text7420" xml:space="preserve" font-size="64px" y="642.92975" x="152.13666" font-family="Arial" fill="#000000">     <tspan id="tspan7422" y="642.92975" x="152.13666" font-size="56px">Q</tspan>   </text>
 <text id="text9399" xml:space="preserve" font-size="64px" y="411.93799" x="594.04962" font-family="Arial" fill="#000000">     <tspan id="tspan9401" y="411.93799" x="594.04962" font-size="64px">1 e</tspan>   </text>
 <path id="text9403" d="m684.21 376.45v-3.39h26.7v3.39h-26.7z"/>
 <text id="text9416" xml:space="preserve" font-size="64px" y="698.93799" x="594.04962" font-family="Arial" fill="#000000">     <tspan id="tspan9418" y="698.93799" x="594.04962" font-size="64px">1 e</tspan>   </text>
 <path id="path9420" d="m684.21 663.45v-3.39h26.7v3.39h-26.7z"/>
 <text id="text9428" xml:space="preserve" font-size="64px" y="172.1875" x="392.3089" font-family="Arial" fill="#000000">     <tspan id="tspan9430" y="172.1875" x="392.3089" font-size="56px">2 H</tspan>   </text>
 <path id="text9432" d="m489.33 143.18v-7.85h-7.8v-3.28h7.8v-7.79h3.32v7.79h7.79v3.28h-7.79v7.85h-3.32z"/>
 <path id="path9447" d="m776.32 213.75c-7.78 25.97-20.19 91.72 49.61 77.4" stroke="#000" stroke-width="4" fill="none"/>
 <path id="path10419" style="color:#000000" fill-rule="evenodd" d="m819.44 306.31 4.16-14.66-6.09-13.98 25.77 12.65-23.84 15.99z"/>
 <path id="path11191" style="color:#000000" d="m1861.1 338.18c0 44.42-43.1 80.43-96.2 80.43s-96.1-36.01-96.1-80.43c0-44.43 43-80.44 96.1-80.44s96.2 36.01 96.2 80.44z" fill-rule="evenodd" stroke="#000" stroke-width="1.5" fill="#fefe00"/>
 <rect id="rect11195" style="color:#000000" fill-rule="evenodd" rx="75" ry="75" height="502.97" width="458.07" stroke="#000" y="294.05" x="1133.2" stroke-width="3" fill="#99fecc"/>
 <path id="path11225" style="color:#000000" d="m1700.9 121.63c0 44.42-43 80.43-96.1 80.43s-96.2-36.01-96.2-80.43c0-44.43 43.1-80.438 96.2-80.438s96.1 36.008 96.1 80.438z" fill-rule="evenodd" stroke="#000" stroke-width="1.5" fill="#fefe00"/>
 <text id="text11227" style="text-anchor:middle;text-align:center" xml:space="preserve" font-size="56px" line-height="120.00000477%" y="105.01692" x="1603.6741" font-family="Arial" fill="#000000">     <tspan id="tspan11229" y="105.01692" x="1603.6741" style="text-anchor:middle;text-align:center" line-height="120.00000477%">Cyt c</tspan>     <tspan id="tspan11231" y="172.21692" x="1603.6741" style="text-anchor:middle;text-align:center" line-height="120.00000477%">(ox)</tspan>   </text>
 <text id="text11233" style="text-anchor:middle;text-align:center" xml:space="preserve" font-size="56px" line-height="120.00000477%" y="319.06836" x="1763.8337" font-family="Arial" fill="#000000">     <tspan id="tspan11235" y="319.06836" x="1763.8337" style="text-anchor:middle;text-align:center" line-height="120.00000477%">Cyt c</tspan>     <tspan id="tspan11237" y="386.26837" x="1763.8337" style="text-anchor:middle;text-align:center" line-height="120.00000477%">(red)</tspan>   </text>
 <text id="text11239" xml:space="preserve" font-size="64px" y="464.6875" x="1245.22" font-family="Arial" fill="#000000">     <tspan id="tspan11241" y="464.6875" x="1245.22" font-size="81px">Q</tspan>   </text>
 <text id="text11243" xml:space="preserve" font-size="64px" y="729.9375" x="1245.22" font-family="Arial" fill="#000000">     <tspan id="tspan11245" y="729.9375" x="1245.22" font-size="81px">Q</tspan>   </text>
 <path id="path19714" style="color:#000000" d="m1266.2 188.26c-6.9 12.01-13.9 24.13-20.9 36.13 6.1 0.2 11-3.77 16.6-5.13v170.47c4.6 2.28 11.9 1.09 12.2-5.06-0.3-55.07-0.2-110.51-0.1-165.44 4.1 0.7 9.5 6.14 13.4 2.56 1.2-4.78-4.6-8.67-6-13.06-4.5-7.82-9-15.65-13.5-23.5-0.6 1.01-1.1 2.02-1.7 3.03z" fill-opacity=".65882" fill-rule="evenodd" fill="#fff"/>
 <path id="path18711" style="color:#000000" d="m1562.2 276.17c2.2 3.53 7.6 6.02 8.7 9.81-28.9 11.72-57.4 25.01-86.2 37.35-56.1 24.63-112.3 49.18-168.4 73.87-0.1 5.35 4.5 11.71 10.4 8.97 39.1-18.11 79.2-34.83 118.7-52.42 43.5-19 87.2-38.36 130.6-57.14 1 4.1-1.7 10.97 2.9 13.28 5-0.76 6.2-7.73 9.7-10.73 5.4-7.26 10.7-14.52 16.1-21.8-15.4-1.81-30.8-3.44-46.2-5.16 1.2 1.32 2.4 2.65 3.7 3.97z" fill-opacity=".65882" fill-rule="evenodd" fill="#fff"/>
 <path id="path11255" style="color:#000000" fill-rule="evenodd" d="m1580.3 303.68-1-15.2-10.5-11.09 28.5 3.17-17 23.12z"/>
 <path id="path11257" fill-rule="evenodd" d="m1582.4 284.92-261.2 114.5 1.5 3.66 261.3-114.5-1.6-3.66z"/>
 <path id="path23715" d="m1332.7 446.73c-2 3.32-3.7 8.91 1.1 10.78 41.7 14.23 83.8 32.99 114.4 65.47 14.4 15.64 23.4 38.34 16.7 59.35-8.8 29.11-29.8 53.39-53 71.14-13.7 10.09-27.1 18.99-41.9 27.33-0.8-3.94 1.8-10.64-2.7-12.81-5 0.75-6.3 7.72-9.8 10.65-5.4 7.23-10.9 14.43-16.3 21.63 14.9 1.88 29.8 3.67 44.7 5.47-2.1-5.89-8-8.69-11.3-13.62 37.6-22.08 71.8-49.96 94.4-88.2 11.6-20.34 14-46.8 2.4-67.81-16.5-32.09-48.9-51.98-80-68.1-18.7-9.36-38.1-17.13-58.2-23.25-0.1 0.66-0.3 1.32-0.5 1.97z" fill-opacity=".65882" fill-rule="evenodd" fill="#fff"/>
 <path id="path11259" fill-rule="evenodd" d="m1335.9 449.76-1.1 3.82s73.3 22.28 112.3 62.4c19.5 20.06 30.3 44.11 20 72.53-10.3 28.43-34.9 63.39-102.6 100.4l1.9 3.54c68.1-37.24 93.6-72.62 104.5-102.59 10.9-29.98-0.9-55.97-21-76.66-40.2-41.37-114-63.44-114-63.44z"/>
 <path id="path11262" style="color:#000000" fill-rule="evenodd" d="m1366.5 674.56 0.9 15.21 10.3 11.2-28.5-3.48 17.3-22.93z"/>
 <path id="path17706" style="color:#000000" d="m1189.9 439.67c2.4 3.57 8.1 5.33 9.3 9.41-25.9 11.89-51.2 25.62-76.9 38.24-27.9 14.06-55.8 28.14-83.6 42.19-0.4 7.56 8 11.96 13.7 6.82 50.6-26.15 101.6-51.37 152.4-77.16 1.2 3.99-1.2 11.7 4 13.25 4.8-1.65 5.9-8.6 9.4-12.06 4.7-7.26 9.5-14.54 14.2-21.85-15.5-0.86-31-1.74-46.5-2.62 1.4 1.26 2.7 2.52 4 3.78zm-116.2 174.62c-12.9 2.08-25.8 4.16-38.7 6.16 9.6 11.68 19 23.39 28.5 35.09 2.4-5.58 0.5-11.65 1.2-17.34 56 21.38 112.1 42.81 168.2 64.16 3.5-3.65 5-10.94-0.6-13.41-54.5-20.09-108.9-41.42-163.3-62 2.1-3.55 9-6.64 7.2-11.59-0.5-0.8-1.6-1.16-2.5-1.07z" fill-opacity=".65882" fill-rule="evenodd" fill="#fff"/>
 <path id="path11266" style="color:#000000" fill-rule="evenodd" d="m1209.5 466.15-1.8-15.13-11.1-10.5 28.7 1.62-15.8 24.01z"/>
 <path id="path11268" fill-rule="evenodd" d="m1210.6 447.29-167 84.19 1.8 3.6 167-84.19-1.8-3.6z"/>
 <rect id="rect11278" style="color:#000000" fill-rule="evenodd" fill-opacity=".65789" height="75.66" width="118.19" y="494.71" x="910.38" fill="#fff"/>
 <text id="text11282" xml:space="preserve" font-size="64px" y="546.93799" x="917.96075" font-family="Arial" fill="#000000">     <tspan id="tspan11284" y="546.93799" x="917.96075" font-size="56px">QH</tspan>   </text>
 <text id="text11286" xml:space="preserve" font-size="99px" y="558.9375" x="1000.47" font-family="Arial" fill="#000000">     <tspan id="tspan11288" y="558.9375" x="1000.47" font-size="36px">2</tspan>   </text>
 <text id="text11298" xml:space="preserve" font-size="64px" y="411.93799" x="1425.9608" font-family="Arial" fill="#000000">     <tspan id="tspan11300" y="411.93799" x="1425.9608" font-size="64px">1 e</tspan>   </text>
 <path id="path11302" d="m1516.1 376.45v-3.39h26.7v3.39h-26.7z"/>
 <text id="text11306" xml:space="preserve" font-size="64px" y="698.93799" x="1425.9608" font-family="Arial" fill="#000000">     <tspan id="tspan11308" y="698.93799" x="1425.9608" font-size="64px">1 e</tspan>   </text>
 <path id="path11310" d="m1516.1 663.45v-3.39h26.7v3.39h-26.7z"/>
 <path id="path11312" d="m1305.5 685.96v-8.11h8.1v8.11h-8.1z"/>
 <path id="path11249" style="color:#000000" fill-rule="evenodd" d="m1282.3 218.12-14.4-5.13-14.3 5.13 14.3-24.86 14.4 24.86z"/>
 <path id="path11251" fill-rule="evenodd" d="m1265.9 208.7v177.5h4v-177.5h-4z"/>
 <text id="text11316" xml:space="preserve" font-size="64px" y="172.1875" x="1224.22" font-family="Arial" fill="#000000">     <tspan id="tspan11318" y="172.1875" x="1224.22" font-size="56px">2 H</tspan>   </text>
 <path id="path11320" d="m1321.2 143.18v-7.85h-7.8v-3.28h7.8v-7.79h3.3v7.79h7.8v3.28h-7.8v7.85h-3.3z"/>
 <path id="path11322" d="m1608.2 213.75c-7.8 25.97-20.2 91.72 49.6 77.4" stroke="#000" stroke-width="4" fill="none"/>
 <path id="path11324" style="color:#000000" fill-rule="evenodd" d="m1651.3 306.31 4.2-14.66-6.1-13.98 25.8 12.65-23.9 15.99z"/>
 <path id="path11463" style="color:#000000" fill-rule="evenodd" d="m1060.6 645.6 0.4-15.24 9.9-11.58-28.4 4.55 18.1 22.27z"/>
 <path id="path11465" fill-rule="evenodd" d="m1057.7 626.95-1.5 3.75 174.8 66.63 1.4-3.75-174.7-66.63z"/>
 <rect id="rect11470" style="color:#000000" fill-rule="evenodd" fill-opacity=".65789" height="75.66" width="118.19" y="573.76" x="910.38" fill="#fff"/>
 <text id="text11474" xml:space="preserve" font-size="64px" y="625.98859" x="917.96075" font-family="Arial" fill="#000000">     <tspan id="tspan11476" y="625.98859" x="917.96075" font-size="56px">QH</tspan>   </text>
 <text id="text11478" xml:space="preserve" font-size="99px" y="637.9881" x="1000.47" font-family="Arial" fill="#000000">     <tspan id="tspan11480" y="637.9881" x="1000.47" font-size="36px">2</tspan>   </text>
 <path id="path20731" style="color:#000000" d="m1294.5 746.89c-6.9 12.01-13.9 24.12-20.9 36.12 6.1 0.2 11-3.76 16.6-5.12v92.22c4.6 2.28 11.9 1.09 12.1-5.07-0.1-28.99-0.2-58.34 0-87.18 4.1 0.7 9.5 6.13 13.4 2.56 1.2-4.78-4.6-8.68-6-13.07-4.5-7.81-9-15.64-13.5-23.49-0.6 1.01-1.2 2.02-1.7 3.03z" fill-opacity=".65882" fill-rule="evenodd" fill="#fff"/>
 <path id="path11636" style="color:#000000" fill-rule="evenodd" d="m1310.6 776.73-14.4-5.13-14.3 5.13 14.3-24.86 14.4 24.86z"/>
 <path id="path11638" d="m1296.2 767.3v99.28" stroke="#000" stroke-width="4" fill="none"/>
 <text id="text11642" xml:space="preserve" font-size="64px" y="917.12451" x="1252.5043" font-family="Arial" fill="#000000">     <tspan id="tspan11644" y="917.12451" x="1252.5043" font-size="56px">2 H</tspan>   </text>
 <path id="path11646" d="m1349.5 888.12v-7.85h-7.8v-3.29h7.8v-7.79h3.3v7.79h7.8v3.29h-7.8v7.85h-3.3z"/>
 <text id="text11658" xml:space="preserve" font-size="64px" y="44.6875" x="426.3089" font-family="Arial" fill="#000000">     <tspan id="tspan11660" y="44.6875" x="426.3089" font-weight="bold">Step 1</tspan>   </text>
 <text id="text11662" xml:space="preserve" font-size="64px" y="44.6875" x="1258.8088" font-family="Arial" fill="#000000">     <tspan id="tspan11664" y="44.6875" x="1258.8088" font-weight="bold">Step 2</tspan>   </text>
 <path id="path3771" d="m1318.8 683.6v-3.4h26.7v3.4h-26.7z"/>
 <metadata>
  <rdf:RDF>
   <cc:Work>
    <dc:format>image/svg+xml</dc:format>
    <dc:type rdf:resource="http://purl.org/dc/dcmitype/StillImage"/>
    <cc:license rdf:resource="http://creativecommons.org/licenses/publicdomain/"/>
    <dc:publisher>
     <cc:Agent rdf:about="http://openclipart.org/">
      <dc:title>Openclipart</dc:title>
     </cc:Agent>
    </dc:publisher>
   </cc:Work>
   <cc:License rdf:about="http://creativecommons.org/licenses/publicdomain/">
    <cc:permits rdf:resource="http://creativecommons.org/ns#Reproduction"/>
    <cc:permits rdf:resource="http://creativecommons.org/ns#Distribution"/>
    <cc:permits rdf:resource="http://creativecommons.org/ns#DerivativeWorks"/>
   </cc:License>
  </rdf:RDF>
 </metadata>
</svg>
