<?xml version="1.0"?>
<svg xmlns:rdf="http://www.w3.org/1999/02/22-rdf-syntax-ns#" xmlns="http://www.w3.org/2000/svg" xmlns:cc="http://creativecommons.org/ns#" xmlns:dc="http://purl.org/dc/elements/1.1/" id="svg2" height="281.42" viewBox="0 0 309.33499 225.13555" width="386.67" version="1.1">
 <g id="g3747" transform="matrix(1.7966 0 0 1.7966 -115.87 -28.627)">
  <g id="g4" fill-rule="evenodd" transform="translate(64.492,75.504)">
   <path id="path6" d="m11.231 9.5283v7.9678h2.2325v-17.496h-2.233v7.5606h-9v-7.5605c0.0004-0.0001-2.231-0.0001-2.231-0.0001v17.496h2.2558v-7.9678h8.9756z"/>
  </g>
  <g id="g8" fill-rule="evenodd" transform="translate(111.9,75.466)">
   <path id="path10" d="m14.736 5.7119c-0.696-3.8398-2.904-5.7119-6.744-5.7119-2.352 0-4.248 0.7442-5.544 2.1846-1.584 1.7275-2.448 4.2236-2.448 7.0557 0 2.8798 0.888 5.3515 2.544 7.0556 1.344 1.3926 3.072 2.0401 5.352 2.0401 4.272 0 6.672-2.3038 7.2-6.9356h-2.304c-0.192 1.201-0.432 2.016-0.792 2.712-0.72 1.4395-2.208 2.2559-4.08 2.2559-3.48 0-5.688-2.7842-5.688-7.1524 0-4.4873 2.112-7.248 5.496-7.248 1.416 0 2.736 0.4326 3.456 1.1045 0.648 0.5996 1.008 1.3437 1.272 2.6396h2.28z"/>
  </g>
  <g id="g12" transform="translate(80.1,83.45)">
   <path id="path14" d="m29.65 0v1.7002h-29.65v-1.7002h29.65z"/>
  </g>
  <g id="g16" fill-rule="evenodd" transform="translate(112.74,27.004)">
   <path id="path18" d="m11.232 9.5283v7.9678h2.232v-17.496h-2.232v7.5606h-9v-7.5605c0-0.0001-2.232-0.0001-2.232-0.0001v17.496h2.256v-7.9678h8.976z"/>
  </g>
  <g id="g20" transform="translate(118.65,46.65)">
   <path id="path22" d="m0 0h1.7v26.75h-1.7v-26.75z"/>
  </g>
  <g id="g24" fill-rule="evenodd" transform="translate(112.74,123.75)">
   <path id="path26" d="m11.232 9.528v7.968h2.232v-17.496h-2.232v7.56h-9v-7.56h-2.232v17.496h2.256v-7.968h8.976z"/>
  </g>
  <g id="g28" transform="translate(118.65,95.75)">
   <path id="path30" d="m1.7 26.1h-1.7v-26.1h1.7v26.1z"/>
  </g>
  <g id="g32" fill-rule="evenodd" transform="translate(160.4,75.466)">
   <path id="path34" d="m14.736 5.7119c-0.696-3.8398-2.904-5.7119-6.744-5.7119-2.352 0-4.248 0.7442-5.544 2.1846-1.584 1.7275-2.448 4.2236-2.448 7.0557 0 2.8798 0.888 5.3515 2.544 7.0556 1.344 1.3926 3.072 2.0401 5.352 2.0401 4.272 0 6.672-2.3038 7.2-6.9356h-2.304c-0.192 1.201-0.432 2.016-0.792 2.712-0.72 1.4395-2.208 2.2559-4.08 2.2559-3.48 0-5.688-2.7842-5.688-7.1524 0-4.4873 2.112-7.248 5.496-7.248 1.416 0 2.736 0.4326 3.456 1.1045 0.648 0.5996 1.008 1.3437 1.272 2.6396h2.28z"/>
  </g>
  <g id="g36" transform="translate(129.6,83.45)">
   <path id="path38" d="m28.65 0v1.7002h-28.65v-1.7002h28.65z"/>
  </g>
  <g id="g40" fill-rule="evenodd" transform="translate(161.24,27.004)">
   <path id="path42" d="m11.232 9.5283v7.9678h2.232v-17.496h-2.232v7.5606h-9v-7.5605c0-0.0001-2.232-0.0001-2.232-0.0001v17.496h2.256v-7.9678h8.976z"/>
  </g>
  <g id="g44" transform="translate(167.1,46.7)">
   <path id="path46" d="m0 0h1.7v26.7h-1.7v-26.7z"/>
  </g>
  <g id="g48" fill-rule="evenodd" transform="translate(209.74,75.504)">
   <path id="path50" d="m11.232 9.5283v7.9678h2.232v-17.496h-2.232v7.5606h-9v-7.5605c0-0.0001-2.232-0.0001-2.232-0.0001v17.496h2.256v-7.9678h8.976z"/>
  </g>
  <g id="g52" transform="translate(177.95,83.45)">
   <path id="path54" d="m29.45 0v1.7002h-29.45v-1.7002h29.45z"/>
  </g>
  <g id="g56" fill-rule="evenodd" transform="translate(161.24,123.75)">
   <path id="path58" d="m11.232 9.528v7.968h2.232v-17.496h-2.232v7.56h-9v-7.56h-2.232v17.496h2.256v-7.968h8.976z"/>
  </g>
  <g id="g60" transform="translate(167.1,95.7)">
   <path id="path62" d="m1.7 26.15h-1.7v-26.15h1.7v26.15z"/>
  </g>
  <g id="g96" fill-rule="evenodd" fill="#00f" transform="translate(126.03,18.222)">
   <path id="path98" d="m3.328 3.3437h-3.328v1.4083h3.328v3.3437h1.408v-3.3437h3.328v-1.4083h-3.328v-3.3437h-1.408v3.3437z"/>
  </g>
  <g id="g100" fill-rule="evenodd" fill="#00f" transform="translate(134.82,15.934)">
   <path id="path102" d="m1.488 9.2803c0 0.7997-0.288 1.0247-1.488 1.1357v0.4004h5.6v-0.4c-1.216-0.08-1.52-0.304-1.52-1.1357v-7.7442c0-0.832 0.336-1.0879 1.52-1.1357v-0.4004h-5.6v0.4004c1.152 0.0801 1.488 0.3203 1.488 1.1357v7.7442z"/>
  </g>
  <g id="g104" fill-rule="evenodd" fill="#00f" transform="translate(174.03,115.72)">
   <path id="path106" d="m3.328 3.344h-3.328v1.408h3.328v3.344h1.408v-3.344h3.328v-1.408h-3.328v-3.344h-1.408v3.344z"/>
  </g>
  <g id="g108" fill-rule="evenodd" fill="#00f" transform="translate(182.82,113.43)">
   <path id="path110" d="m1.488 9.28c0 0.8-0.288 1.024-1.488 1.136v0.4h5.6v-0.4c-1.216-0.08-1.52-0.304-1.52-1.136v-7.744c0-0.832 0.336-1.088 1.52-1.136v-0.4h-5.6v0.4c1.152 0.08 1.488 0.32 1.488 1.136v7.744z"/>
  </g>
  <g id="g112" fill-rule="evenodd" fill="#00f" transform="translate(125.78,115.72)">
   <path id="path114" d="m3.328 3.344h-3.328v1.408h3.328v3.344h1.408v-3.344h3.328v-1.408h-3.328v-3.344h-1.408v3.344z"/>
  </g>
  <g id="g116" fill-rule="evenodd" fill="#00f" transform="translate(134.57,113.43)">
   <path id="path118" d="m1.488 9.28c0 0.8-0.288 1.024-1.488 1.136v0.4h5.6v-0.4c-1.216-0.08-1.52-0.304-1.52-1.136v-7.744c0-0.832 0.336-1.088 1.52-1.136v-0.4h-5.6v0.4c1.152 0.08 1.488 0.32 1.488 1.136v7.744z"/>
  </g>
  <g id="g120" fill-rule="evenodd" fill="#00f" transform="translate(174.53,18.222)">
   <path id="path122" d="m3.328 3.3437h-3.328v1.4083h3.328v3.3437h1.408v-3.3437h3.328v-1.4083h-3.328v-3.3437h-1.408v3.3437z"/>
  </g>
  <g id="g124" fill-rule="evenodd" fill="#00f" transform="translate(183.32,15.934)">
   <path id="path126" d="m1.488 9.2803c0 0.7997-0.288 1.0247-1.488 1.1357v0.4004h5.6v-0.4c-1.216-0.08-1.52-0.304-1.52-1.1357v-7.7442c0-0.832 0.336-1.0879 1.52-1.1357v-0.4004h-5.6v0.4004c1.152 0.0801 1.488 0.3203 1.488 1.1357v7.7442z"/>
  </g>
  <g id="g128" fill-rule="evenodd" fill="#00f" transform="translate(222.28,68.472)">
   <path id="path130" d="m3.328 3.3437h-3.328v1.4083h3.328v3.3437h1.408v-3.3437h3.328v-1.4083h-3.328v-3.3437h-1.408v3.3437z"/>
  </g>
  <g id="g132" fill-rule="evenodd" fill="#00f" transform="translate(231.07,66.184)">
   <path id="path134" d="m1.488 9.2803c0 0.7997-0.288 1.0247-1.488 1.1357v0.4004h5.6v-0.4c-1.216-0.08-1.52-0.304-1.52-1.1357v-7.7442c0-0.832 0.336-1.0879 1.52-1.1357v-0.4004h-5.6v0.4004c1.152 0.0801 1.488 0.3203 1.488 1.1357v7.7442z"/>
  </g>
  <g id="g136" fill-rule="evenodd" fill="#00f" transform="translate(77.028,68.472)">
   <path id="path138" d="m3.3281 3.3437h-3.3281v1.4083h3.3281v3.3437h1.4073v-3.3437h3.3281v-1.4083h-3.3281v-3.3437h-1.4073v3.3437z"/>
  </g>
  <g id="g140" fill-rule="evenodd" fill="#00f" transform="translate(85.82,66.184)">
   <path id="path142" d="m1.4873 9.2803c0 0.7998-0.2881 1.0244-1.4873 1.1357v0.4004h5.5996v-0.4c-1.2158-0.08-1.5195-0.304-1.5195-1.1357v-7.7442c0-0.832 0.3359-1.0879 1.5195-1.1357v-0.4004h-5.5996v0.4004c1.1514 0.0801 1.4873 0.3203 1.4873 1.1357v7.7442z"/>
  </g>
  <path id="path146" d="m149.88 68.531c-19.75 0-35.812 16-35.812 35.75s16.062 35.75 35.812 35.75c12.718 0 23.91-6.6673 30.25-16.719 6.3356 10.096 17.583 16.812 30.375 16.812 19.688 0 35.75-16 35.75-35.75s-16.062-35.75-35.75-35.75c-12.761 0-23.969 6.6946-30.312 16.75-6.33-10.104-17.56-16.843-30.31-16.843z" transform="scale(.8)" stroke="#f00" stroke-dasharray="2.33773373, 2.33773373" stroke-width=".77924" fill="none"/>
  <path id="path154" d="m144.36 68.359v30.409" stroke="#f00" stroke-dasharray="1.87018698, 1.87018698" stroke-width=".62340" fill="none"/>
  <g id="g64" fill-rule="evenodd" fill="#00f" transform="translate(122.5,72.265)">
   <path id="path66" d="m0 0v1.4404h8v-1.4404h-8z"/>
  </g>
  <g id="g68" fill-rule="evenodd" fill="#00f" transform="translate(130.82,66.434)">
   <path id="path70" d="m1.488 9.2803c0 0.7997-0.288 1.0247-1.488 1.1357v0.4004h5.6v-0.4c-1.216-0.08-1.52-0.304-1.52-1.1357v-7.7442c0-0.832 0.336-1.0879 1.52-1.1357v-0.4004h-5.6v0.4004c1.152 0.0801 1.488 0.3203 1.488 1.1357v7.7442z"/>
  </g>
  <g id="g72" fill-rule="evenodd" fill="#00f" transform="translate(136.82,66.434)">
   <path id="path74" d="m1.488 9.2803c0 0.7997-0.288 1.0247-1.488 1.1357v0.4004h5.6v-0.4c-1.216-0.08-1.52-0.304-1.52-1.1357v-7.7442c0-0.832 0.336-1.0879 1.52-1.1357v-0.4004h-5.6v0.4004c1.152 0.0801 1.488 0.3203 1.488 1.1357v7.7442z"/>
  </g>
  <g id="g76" fill-rule="evenodd" fill="#00f" transform="translate(143.07,66.434)">
   <path id="path78" d="m1.488 9.2803c0 0.7997-0.288 1.0247-1.488 1.1357v0.4004h5.6v-0.4c-1.216-0.08-1.52-0.304-1.52-1.1357v-7.7442c0-0.832 0.336-1.0879 1.52-1.1357v-0.4004h-5.6v0.4004c1.152 0.0801 1.488 0.3203 1.488 1.1357v7.7442z"/>
  </g>
  <g id="g80" fill-rule="evenodd" fill="#00f" transform="translate(171.5,72.265)">
   <path id="path82" d="m0 0v1.4404h8v-1.4404h-8z"/>
  </g>
  <g id="g84" fill-rule="evenodd" fill="#00f" transform="translate(179.82,66.434)">
   <path id="path86" d="m1.488 9.2803c0 0.7997-0.288 1.0247-1.488 1.1357v0.4004h5.6v-0.4c-1.216-0.08-1.52-0.304-1.52-1.1357v-7.7442c0-0.832 0.336-1.0879 1.52-1.1357v-0.4004h-5.6v0.4004c1.152 0.0801 1.488 0.3203 1.488 1.1357v7.7442z"/>
  </g>
  <g id="g88" fill-rule="evenodd" fill="#00f" transform="translate(185.82,66.434)">
   <path id="path90" d="m1.488 9.2803c0 0.7997-0.288 1.0247-1.488 1.1357v0.4004h5.6v-0.4c-1.216-0.08-1.52-0.304-1.52-1.1357v-7.7442c0-0.832 0.336-1.0879 1.52-1.1357v-0.4004h-5.6v0.4004c1.152 0.0801 1.488 0.3203 1.488 1.1357v7.7442z"/>
  </g>
  <g id="g92" fill-rule="evenodd" fill="#00f" transform="translate(192.07,66.434)">
   <path id="path94" d="m1.488 9.2803c0 0.7997-0.288 1.0247-1.488 1.1357v0.4004h5.6v-0.4c-1.216-0.08-1.52-0.304-1.52-1.1357v-7.7442c0-0.832 0.336-1.0879 1.52-1.1357v-0.4004h-5.6v0.4004c1.152 0.0801 1.488 0.3203 1.488 1.1357v7.7442z"/>
  </g>
 </g>
 <metadata>
  <rdf:RDF>
   <cc:Work>
    <dc:format>image/svg+xml</dc:format>
    <dc:type rdf:resource="http://purl.org/dc/dcmitype/StillImage"/>
    <cc:license rdf:resource="http://creativecommons.org/licenses/publicdomain/"/>
    <dc:publisher>
     <cc:Agent rdf:about="http://openclipart.org/">
      <dc:title>Openclipart</dc:title>
     </cc:Agent>
    </dc:publisher>
   </cc:Work>
   <cc:License rdf:about="http://creativecommons.org/licenses/publicdomain/">
    <cc:permits rdf:resource="http://creativecommons.org/ns#Reproduction"/>
    <cc:permits rdf:resource="http://creativecommons.org/ns#Distribution"/>
    <cc:permits rdf:resource="http://creativecommons.org/ns#DerivativeWorks"/>
   </cc:License>
  </rdf:RDF>
 </metadata>
</svg>
