<?xml version="1.0" encoding="UTF-8" standalone="no"?>
<!-- Created with Inkscape (http://www.inkscape.org/) -->
<svg
   xmlns:svg="http://www.w3.org/2000/svg"
   xmlns="http://www.w3.org/2000/svg"
   version="1.0"
   width="3020"
   height="2568"
   id="svg2">
  <defs
     id="defs4" />
  <g
     transform="translate(1137.5,709.34375)"
     id="layer1">
    <text
       x="-2124.9736"
       y="35.126942"
       style="font-size:12px;font-style:normal;font-weight:normal;fill:#000000;fill-opacity:1;stroke:none;stroke-width:1px;stroke-linecap:butt;stroke-linejoin:miter;stroke-opacity:1;font-family:Bitstream Vera Sans"
       id="text3020"
       xml:space="preserve"><tspan
         x="-2124.9736"
         y="35.126942"
         id="tspan3022" /></text>
    <path
       d="M -354.11028,-275.93349 C -354.11028,-244.18874 -381.14239,-218.42508 -414.44949,-218.42508 C -447.75769,-218.42508 -474.78979,-244.18874 -474.78979,-275.93349 C -474.78979,-307.67782 -447.75769,-333.44158 -414.44949,-333.44158 C -381.14239,-333.44158 -354.11028,-307.67782 -354.11028,-275.93349 z M -445.74169,-226.76092 L -445.74169,-96.147713 M -383.15839,-226.76092 L -383.15839,-80.347233"
       style="fill:#6ebec1;fill-opacity:1;stroke:#000000;stroke-width:5;stroke-miterlimit:4;stroke-dasharray:none;stroke-opacity:1"
       id="path9170" />
    <path
       d="M -474.78979,119.28753 C -474.78979,87.542784 -447.75769,61.779124 -414.45059,61.779124 C -381.14239,61.779124 -354.11028,87.542784 -354.11028,119.28753 C -354.11028,151.03186 -381.14239,176.79563 -414.45059,176.79563 C -447.75769,176.79563 -474.78979,151.03186 -474.78979,119.28753 z M -383.15839,70.114964 L -383.15839,-60.498243 M -445.74169,70.114964 L -445.74169,-76.298723"
       style="fill:#6ebec1;fill-opacity:1;stroke:#000000;stroke-width:5;stroke-miterlimit:4;stroke-dasharray:none;stroke-opacity:1"
       id="path9172" />
    <path
       d="M -233.90213,-275.93349 C -233.90213,-244.18874 -260.93424,-218.42508 -294.24134,-218.42508 C -327.54954,-218.42508 -354.58164,-244.18874 -354.58164,-275.93349 C -354.58164,-307.67782 -327.54954,-333.44158 -294.24134,-333.44158 C -260.93424,-333.44158 -233.90213,-307.67782 -233.90213,-275.93349 z M -325.53354,-226.76092 L -325.53354,-96.147713 M -262.95024,-226.76092 L -262.95024,-80.347233"
       style="fill:#6ebec1;fill-opacity:1;stroke:#000000;stroke-width:5;stroke-miterlimit:4;stroke-dasharray:none;stroke-opacity:1"
       id="path9174" />
    <path
       d="M -354.58164,119.28753 C -354.58164,87.542784 -327.54954,61.779124 -294.24244,61.779124 C -260.93424,61.779124 -233.90213,87.542784 -233.90213,119.28753 C -233.90213,151.03186 -260.93424,176.79563 -294.24244,176.79563 C -327.54954,176.79563 -354.58164,151.03186 -354.58164,119.28753 z M -262.95024,70.114964 L -262.95024,-60.498243 M -325.53354,70.114964 L -325.53354,-76.298723"
       style="fill:#6ebec1;fill-opacity:1;stroke:#000000;stroke-width:5;stroke-miterlimit:4;stroke-dasharray:none;stroke-opacity:1"
       id="path9176" />
    <path
       d="M -954.09653,-275.93349 C -954.09653,-244.18874 -981.12864,-218.42508 -1014.4357,-218.42508 C -1047.7439,-218.42508 -1074.776,-244.18874 -1074.776,-275.93349 C -1074.776,-307.67782 -1047.7439,-333.44158 -1014.4357,-333.44158 C -981.12864,-333.44158 -954.09653,-307.67782 -954.09653,-275.93349 z M -1045.7279,-226.76092 L -1045.7279,-96.147713 M -983.14464,-226.76092 L -983.14464,-80.347233"
       style="fill:#6ebec1;fill-opacity:1;stroke:#000000;stroke-width:5;stroke-miterlimit:4;stroke-dasharray:none;stroke-opacity:1"
       id="path2283" />
    <path
       d="M -1074.776,119.28753 C -1074.776,87.542784 -1047.7439,61.779124 -1014.4368,61.779124 C -981.12864,61.779124 -954.09653,87.542784 -954.09653,119.28753 C -954.09653,151.03186 -981.12864,176.79563 -1014.4368,176.79563 C -1047.7439,176.79563 -1074.776,151.03186 -1074.776,119.28753 z M -983.14464,70.114964 L -983.14464,-60.498243 M -1045.7279,70.114964 L -1045.7279,-76.298723"
       style="fill:#6ebec1;fill-opacity:1;stroke:#000000;stroke-width:5;stroke-miterlimit:4;stroke-dasharray:none;stroke-opacity:1"
       id="path9151" />
    <path
       d="M -834.09653,-275.93349 C -834.09653,-244.18874 -861.12864,-218.42508 -894.43574,-218.42508 C -927.74394,-218.42508 -954.77604,-244.18874 -954.77604,-275.93349 C -954.77604,-307.67782 -927.74394,-333.44158 -894.43574,-333.44158 C -861.12864,-333.44158 -834.09653,-307.67782 -834.09653,-275.93349 z M -925.72794,-226.76092 L -925.72794,-96.147713 M -863.14464,-226.76092 L -863.14464,-80.347233"
       style="fill:#6ebec1;fill-opacity:1;stroke:#000000;stroke-width:5;stroke-miterlimit:4;stroke-dasharray:none;stroke-opacity:1"
       id="path9153" />
    <path
       d="M -954.77604,119.28753 C -954.77604,87.542784 -927.74394,61.779124 -894.43684,61.779124 C -861.12864,61.779124 -834.09653,87.542784 -834.09653,119.28753 C -834.09653,151.03186 -861.12864,176.79563 -894.43684,176.79563 C -927.74394,176.79563 -954.77604,151.03186 -954.77604,119.28753 z M -863.14464,70.114964 L -863.14464,-60.498243 M -925.72794,70.114964 L -925.72794,-76.298723"
       style="fill:#6ebec1;fill-opacity:1;stroke:#000000;stroke-width:5;stroke-miterlimit:4;stroke-dasharray:none;stroke-opacity:1"
       id="path9155" />
    <path
       d="M -715.5251,-275.93349 C -715.5251,-244.18874 -742.55721,-218.42508 -775.86431,-218.42508 C -809.17251,-218.42508 -836.20461,-244.18874 -836.20461,-275.93349 C -836.20461,-307.67782 -809.17251,-333.44158 -775.86431,-333.44158 C -742.55721,-333.44158 -715.5251,-307.67782 -715.5251,-275.93349 z M -807.15651,-226.76092 L -807.15651,-96.147713 M -744.57321,-226.76092 L -744.57321,-80.347233"
       style="fill:#6ebec1;fill-opacity:1;stroke:#000000;stroke-width:5;stroke-miterlimit:4;stroke-dasharray:none;stroke-opacity:1"
       id="path9157" />
    <path
       d="M -836.20461,119.28753 C -836.20461,87.542784 -809.17251,61.779124 -775.86541,61.779124 C -742.55721,61.779124 -715.5251,87.542784 -715.5251,119.28753 C -715.5251,151.03186 -742.55721,176.79563 -775.86541,176.79563 C -809.17251,176.79563 -836.20461,151.03186 -836.20461,119.28753 z M -744.57321,70.114964 L -744.57321,-60.498243 M -807.15651,70.114964 L -807.15651,-76.298723"
       style="fill:#6ebec1;fill-opacity:1;stroke:#000000;stroke-width:5;stroke-miterlimit:4;stroke-dasharray:none;stroke-opacity:1"
       id="path9159" />
    <path
       d="M -594.98939,-275.93349 C -594.98939,-244.18874 -622.0215,-218.42508 -655.3286,-218.42508 C -688.6368,-218.42508 -715.6689,-244.18874 -715.6689,-275.93349 C -715.6689,-307.67782 -688.6368,-333.44158 -655.3286,-333.44158 C -622.0215,-333.44158 -594.98939,-307.67782 -594.98939,-275.93349 z M -686.6208,-226.76092 L -686.6208,-96.147713 M -624.0375,-226.76092 L -624.0375,-80.347233"
       style="fill:#6ebec1;fill-opacity:1;stroke:#000000;stroke-width:5;stroke-miterlimit:4;stroke-dasharray:none;stroke-opacity:1"
       id="path9161" />
    <path
       d="M -715.6689,119.28753 C -715.6689,87.542784 -688.6368,61.779124 -655.3297,61.779124 C -622.0215,61.779124 -594.98939,87.542784 -594.98939,119.28753 C -594.98939,151.03186 -622.0215,176.79563 -655.3297,176.79563 C -688.6368,176.79563 -715.6689,151.03186 -715.6689,119.28753 z M -624.0375,70.114964 L -624.0375,-60.498243 M -686.6208,70.114964 L -686.6208,-76.298723"
       style="fill:#6ebec1;fill-opacity:1;stroke:#000000;stroke-width:5;stroke-miterlimit:4;stroke-dasharray:none;stroke-opacity:1"
       id="path9163" />
    <path
       d="M -474.31843,-275.93349 C -474.31843,-244.18874 -501.35054,-218.42508 -534.65764,-218.42508 C -567.96584,-218.42508 -594.99794,-244.18874 -594.99794,-275.93349 C -594.99794,-307.67782 -567.96584,-333.44158 -534.65764,-333.44158 C -501.35054,-333.44158 -474.31843,-307.67782 -474.31843,-275.93349 z M -565.94984,-226.76092 L -565.94984,-96.147713 M -503.36654,-226.76092 L -503.36654,-80.347233"
       style="fill:#6ebec1;fill-opacity:1;stroke:#000000;stroke-width:5;stroke-miterlimit:4;stroke-dasharray:none;stroke-opacity:1"
       id="path9165" />
    <path
       d="M -594.99794,119.28753 C -594.99794,87.542784 -567.96584,61.779124 -534.65874,61.779124 C -501.35054,61.779124 -474.31843,87.542784 -474.31843,119.28753 C -474.31843,151.03186 -501.35054,176.79563 -534.65874,176.79563 C -567.96584,176.79563 -594.99794,151.03186 -594.99794,119.28753 z M -503.36654,70.114964 L -503.36654,-60.498243 M -565.94984,70.114964 L -565.94984,-76.298723"
       style="fill:#6ebec1;fill-opacity:1;stroke:#000000;stroke-width:5;stroke-miterlimit:4;stroke-dasharray:none;stroke-opacity:1"
       id="path9167" />
    <path
       d="M -1135,-218.43823 C -1134.8845,-218.43761 -1134.7719,-218.43823 -1134.6563,-218.43823 C -1101.3492,-218.43823 -1074.3125,-244.19347 -1074.3125,-275.93823 C -1074.3125,-307.68256 -1101.3491,-333.43822 -1134.6563,-333.43823 C -1134.7719,-333.43823 -1134.8845,-333.43885 -1135,-333.43823 M -1103.3606,-226.76092 L -1103.3606,-80.347233"
       style="fill:#6ebec1;fill-opacity:1;stroke:#000000;stroke-width:5;stroke-miterlimit:4;stroke-opacity:1"
       id="path9179" />
    <path
       d="M -1135,176.78052 C -1134.8845,176.78114 -1134.7719,176.78052 -1134.6563,176.78052 C -1101.3481,176.78052 -1074.3125,151.02485 -1074.3125,119.28052 C -1074.3125,87.535767 -1101.348,61.780517 -1134.6563,61.780517 C -1134.7719,61.780517 -1134.8845,61.779897 -1135,61.780517 M -1103.3606,70.114964 L -1103.3606,-60.498243"
       style="fill:#6ebec1;fill-opacity:1;stroke:#000000;stroke-width:5;stroke-miterlimit:4;stroke-opacity:1"
       id="path9181" />
    <path
       d="M 979.90213,-275.93349 C 979.90213,-244.18874 1006.9342,-218.42508 1040.2413,-218.42508 C 1073.5495,-218.42508 1100.5816,-244.18874 1100.5816,-275.93349 C 1100.5816,-307.67782 1073.5495,-333.44158 1040.2413,-333.44158 C 1006.9342,-333.44158 979.90213,-307.67782 979.90213,-275.93349 z M 1071.5335,-226.76092 L 1071.5335,-96.147713 M 1008.9502,-226.76092 L 1008.9502,-80.347233"
       style="fill:#6ebec1;fill-opacity:1;stroke:#000000;stroke-width:5;stroke-miterlimit:4;stroke-dasharray:none;stroke-opacity:1"
       id="path10253" />
    <path
       d="M 1100.5816,119.28753 C 1100.5816,87.542784 1073.5495,61.779124 1040.2424,61.779124 C 1006.9342,61.779124 979.90213,87.542784 979.90213,119.28753 C 979.90213,151.03186 1006.9342,176.79563 1040.2424,176.79563 C 1073.5495,176.79563 1100.5816,151.03186 1100.5816,119.28753 z M 1008.9502,70.114964 L 1008.9502,-60.498243 M 1071.5335,70.114964 L 1071.5335,-76.298723"
       style="fill:#6ebec1;fill-opacity:1;stroke:#000000;stroke-width:5;stroke-miterlimit:4;stroke-dasharray:none;stroke-opacity:1"
       id="path10255" />
    <path
       d="M 1099.1103,-275.93349 C 1099.1103,-244.18874 1126.1424,-218.42508 1159.4495,-218.42508 C 1192.7577,-218.42508 1219.7898,-244.18874 1219.7898,-275.93349 C 1219.7898,-307.67782 1192.7577,-333.44158 1159.4495,-333.44158 C 1126.1424,-333.44158 1099.1103,-307.67782 1099.1103,-275.93349 z M 1190.7417,-226.76092 L 1190.7417,-96.147713 M 1128.1584,-226.76092 L 1128.1584,-80.347233"
       style="fill:#6ebec1;fill-opacity:1;stroke:#000000;stroke-width:5;stroke-miterlimit:4;stroke-dasharray:none;stroke-opacity:1"
       id="path10249" />
    <path
       d="M 1219.7898,119.28753 C 1219.7898,87.542784 1192.7577,61.779124 1159.4506,61.779124 C 1126.1424,61.779124 1099.1103,87.542784 1099.1103,119.28753 C 1099.1103,151.03186 1126.1424,176.79563 1159.4506,176.79563 C 1192.7577,176.79563 1219.7898,151.03186 1219.7898,119.28753 z M 1128.1584,70.114964 L 1128.1584,-60.498243 M 1190.7417,70.114964 L 1190.7417,-76.298723"
       style="fill:#6ebec1;fill-opacity:1;stroke:#000000;stroke-width:5;stroke-miterlimit:4;stroke-dasharray:none;stroke-opacity:1"
       id="path10251" />
    <path
       d="M 1699.0965,-275.93349 C 1699.0965,-244.18874 1726.1286,-218.42508 1759.4357,-218.42508 C 1792.7439,-218.42508 1819.776,-244.18874 1819.776,-275.93349 C 1819.776,-307.67782 1792.7439,-333.44158 1759.4357,-333.44158 C 1726.1286,-333.44158 1699.0965,-307.67782 1699.0965,-275.93349 z M 1790.7279,-226.76092 L 1790.7279,-96.147713 M 1728.1446,-226.76092 L 1728.1446,-80.347233"
       style="fill:#6ebec1;fill-opacity:1;stroke:#000000;stroke-width:5;stroke-miterlimit:4;stroke-dasharray:none;stroke-opacity:1"
       id="path10259" />
    <path
       d="M 1819.776,119.28753 C 1819.776,87.542784 1792.7439,61.779124 1759.4368,61.779124 C 1726.1286,61.779124 1699.0965,87.542784 1699.0965,119.28753 C 1699.0965,151.03186 1726.1286,176.79563 1759.4368,176.79563 C 1792.7439,176.79563 1819.776,151.03186 1819.776,119.28753 z M 1728.1446,70.114964 L 1728.1446,-60.498243 M 1790.7279,70.114964 L 1790.7279,-76.298723"
       style="fill:#6ebec1;fill-opacity:1;stroke:#000000;stroke-width:5;stroke-miterlimit:4;stroke-dasharray:none;stroke-opacity:1"
       id="path10261" />
    <path
       d="M 1579.0965,-275.93349 C 1579.0965,-244.18874 1606.1286,-218.42508 1639.4357,-218.42508 C 1672.7439,-218.42508 1699.776,-244.18874 1699.776,-275.93349 C 1699.776,-307.67782 1672.7439,-333.44158 1639.4357,-333.44158 C 1606.1286,-333.44158 1579.0965,-307.67782 1579.0965,-275.93349 z M 1670.7279,-226.76092 L 1670.7279,-96.147713 M 1608.1446,-226.76092 L 1608.1446,-80.347233"
       style="fill:#6ebec1;fill-opacity:1;stroke:#000000;stroke-width:5;stroke-miterlimit:4;stroke-dasharray:none;stroke-opacity:1"
       id="path10263" />
    <path
       d="M 1699.776,119.28753 C 1699.776,87.542784 1672.7439,61.779124 1639.4368,61.779124 C 1606.1286,61.779124 1579.0965,87.542784 1579.0965,119.28753 C 1579.0965,151.03186 1606.1286,176.79563 1639.4368,176.79563 C 1672.7439,176.79563 1699.776,151.03186 1699.776,119.28753 z M 1608.1446,70.114964 L 1608.1446,-60.498243 M 1670.7279,70.114964 L 1670.7279,-76.298723"
       style="fill:#6ebec1;fill-opacity:1;stroke:#000000;stroke-width:5;stroke-miterlimit:4;stroke-dasharray:none;stroke-opacity:1"
       id="path10265" />
    <path
       d="M 1460.5251,-275.93349 C 1460.5251,-244.18874 1487.5572,-218.42508 1520.8643,-218.42508 C 1554.1725,-218.42508 1581.2046,-244.18874 1581.2046,-275.93349 C 1581.2046,-307.67782 1554.1725,-333.44158 1520.8643,-333.44158 C 1487.5572,-333.44158 1460.5251,-307.67782 1460.5251,-275.93349 z M 1552.1565,-226.76092 L 1552.1565,-96.147713 M 1489.5732,-226.76092 L 1489.5732,-80.347233"
       style="fill:#6ebec1;fill-opacity:1;stroke:#000000;stroke-width:5;stroke-miterlimit:4;stroke-dasharray:none;stroke-opacity:1"
       id="path10267" />
    <path
       d="M 1581.2046,119.28753 C 1581.2046,87.542784 1554.1725,61.779124 1520.8654,61.779124 C 1487.5572,61.779124 1460.5251,87.542784 1460.5251,119.28753 C 1460.5251,151.03186 1487.5572,176.79563 1520.8654,176.79563 C 1554.1725,176.79563 1581.2046,151.03186 1581.2046,119.28753 z M 1489.5732,70.114964 L 1489.5732,-60.498243 M 1552.1565,70.114964 L 1552.1565,-76.298723"
       style="fill:#6ebec1;fill-opacity:1;stroke:#000000;stroke-width:5;stroke-miterlimit:4;stroke-dasharray:none;stroke-opacity:1"
       id="path10269" />
    <path
       d="M 1339.9894,-275.93349 C 1339.9894,-244.18874 1367.0215,-218.42508 1400.3286,-218.42508 C 1433.6368,-218.42508 1460.6689,-244.18874 1460.6689,-275.93349 C 1460.6689,-307.67782 1433.6368,-333.44158 1400.3286,-333.44158 C 1367.0215,-333.44158 1339.9894,-307.67782 1339.9894,-275.93349 z M 1431.6208,-226.76092 L 1431.6208,-96.147713 M 1369.0375,-226.76092 L 1369.0375,-80.347233"
       style="fill:#6ebec1;fill-opacity:1;stroke:#000000;stroke-width:5;stroke-miterlimit:4;stroke-dasharray:none;stroke-opacity:1"
       id="path10271" />
    <path
       d="M 1460.6689,119.28753 C 1460.6689,87.542784 1433.6368,61.779124 1400.3297,61.779124 C 1367.0215,61.779124 1339.9894,87.542784 1339.9894,119.28753 C 1339.9894,151.03186 1367.0215,176.79563 1400.3297,176.79563 C 1433.6368,176.79563 1460.6689,151.03186 1460.6689,119.28753 z M 1369.0375,70.114964 L 1369.0375,-60.498243 M 1431.6208,70.114964 L 1431.6208,-76.298723"
       style="fill:#6ebec1;fill-opacity:1;stroke:#000000;stroke-width:5;stroke-miterlimit:4;stroke-dasharray:none;stroke-opacity:1"
       id="path10273" />
    <path
       d="M 1219.3184,-275.93349 C 1219.3184,-244.18874 1246.3505,-218.42508 1279.6576,-218.42508 C 1312.9658,-218.42508 1339.9979,-244.18874 1339.9979,-275.93349 C 1339.9979,-307.67782 1312.9658,-333.44158 1279.6576,-333.44158 C 1246.3505,-333.44158 1219.3184,-307.67782 1219.3184,-275.93349 z M 1310.9498,-226.76092 L 1310.9498,-96.147713 M 1248.3665,-226.76092 L 1248.3665,-80.347233"
       style="fill:#6ebec1;fill-opacity:1;stroke:#000000;stroke-width:5;stroke-miterlimit:4;stroke-dasharray:none;stroke-opacity:1"
       id="path10275" />
    <path
       d="M 1339.9979,119.28753 C 1339.9979,87.542784 1312.9658,61.779124 1279.6587,61.779124 C 1246.3505,61.779124 1219.3184,87.542784 1219.3184,119.28753 C 1219.3184,151.03186 1246.3505,176.79563 1279.6587,176.79563 C 1312.9658,176.79563 1339.9979,151.03186 1339.9979,119.28753 z M 1248.3665,70.114964 L 1248.3665,-60.498243 M 1310.9498,70.114964 L 1310.9498,-76.298723"
       style="fill:#6ebec1;fill-opacity:1;stroke:#000000;stroke-width:5;stroke-miterlimit:4;stroke-dasharray:none;stroke-opacity:1"
       id="path10277" />
    <path
       d="M 1880,-218.43823 C 1879.8845,-218.43761 1879.7719,-218.43823 1879.6563,-218.43823 C 1846.3492,-218.43823 1819.3125,-244.19347 1819.3125,-275.93823 C 1819.3125,-307.68256 1846.3491,-333.43822 1879.6563,-333.43823 C 1879.7719,-333.43823 1879.8845,-333.43885 1880,-333.43823 M 1848.3606,-226.76092 L 1848.3606,-80.347233"
       style="fill:#6ebec1;fill-opacity:1;stroke:#000000;stroke-width:5;stroke-miterlimit:4;stroke-opacity:1"
       id="path10279" />
    <path
       d="M 1880,176.78052 C 1879.8845,176.78114 1879.7719,176.78052 1879.6563,176.78052 C 1846.3481,176.78052 1819.3125,151.02485 1819.3125,119.28052 C 1819.3125,87.535767 1846.348,61.780517 1879.6563,61.780517 C 1879.7719,61.780517 1879.8845,61.779897 1880,61.780517 M 1848.3606,70.114964 L 1848.3606,-60.498243"
       style="fill:#6ebec1;fill-opacity:1;stroke:#000000;stroke-width:5;stroke-miterlimit:4;stroke-opacity:1"
       id="path10281" />
    <path
       d="M 432.78125,-451.37573 C -87.675881,-451.37573 -510.06249,-278.57127 -510.0625,-65.656983 C -510.0625,-16.487076 -487.52902,30.523582 -446.46875,73.780517 C -543.19924,209.56589 -633.00646,389.70878 -699.75,595.12427 C -860.5801,1090.1084 -826.77475,1545.2363 -624.28125,1611.0305 C -421.78773,1676.8246 -126.92385,1328.5146 33.90625,833.53052 C 95.718008,643.2935 128.77817,458.93441 134.5625,300.31177 C 228.30838,313.10276 328.56872,320.03052 432.78125,320.03052 C 953.23838,320.03052 1375.6563,147.25732 1375.6563,-65.656983 C 1375.6563,-278.57127 953.23836,-451.37572 432.78125,-451.37573 z "
       style="color:#000000;fill:#99fecc;fill-opacity:1;fill-rule:evenodd;stroke:#000000;stroke-width:10.00000095;stroke-linecap:square;stroke-linejoin:miter;marker:none;marker-start:none;marker-mid:none;marker-end:none;stroke-miterlimit:4;stroke-dashoffset:0;stroke-opacity:1;visibility:visible;display:inline;overflow:visible;enable-background:accumulate"
       id="path3346" />
    <path
       d="M -267.03571,-113.34837 C -267.03571,-89.296943 -286.55571,-69.776943 -310.60714,-69.776943 C -334.65857,-69.776943 -354.17857,-89.296943 -354.17857,-113.34837 C -354.17857,-137.3998 -334.65857,-156.9198 -310.60714,-156.9198 C -286.55571,-156.9198 -267.03571,-137.3998 -267.03571,-113.34837 z "
       style="color:#000000;fill:#fb990c;fill-opacity:1;fill-rule:evenodd;stroke:none;stroke-width:6;stroke-linecap:square;stroke-linejoin:miter;marker:none;marker-start:none;marker-mid:none;marker-end:none;stroke-miterlimit:4;stroke-dashoffset:0;stroke-opacity:1;visibility:visible;display:inline;overflow:visible;enable-background:accumulate"
       id="path3205" />
    <path
       d="M -279.53571,-52.276933 C -279.53571,-26.648373 -298.25571,-5.8483702 -321.32142,-5.8483702 C -344.38714,-5.8483702 -363.10714,-26.648373 -363.10714,-52.276933 C -363.10714,-77.905503 -344.38714,-98.705503 -321.32142,-98.705503 C -298.25571,-98.705503 -279.53571,-77.905503 -279.53571,-52.276933 z "
       style="color:#000000;fill:#fb990c;fill-opacity:1;fill-rule:evenodd;stroke:none;stroke-width:6;stroke-linecap:square;stroke-linejoin:miter;marker:none;marker-start:none;marker-mid:none;marker-end:none;stroke-miterlimit:4;stroke-dashoffset:0;stroke-opacity:1;visibility:visible;display:inline;overflow:visible;enable-background:accumulate"
       id="path3207" />
    <path
       d="M -217.57145,-108.88408 C -217.57145,-80.101223 -238.69144,-56.741223 -264.7143,-56.741223 C -290.73716,-56.741223 -311.85716,-80.101223 -311.85716,-108.88408 C -311.85716,-137.66694 -290.73716,-161.02694 -264.7143,-161.02694 C -238.69144,-161.02694 -217.57145,-137.66694 -217.57145,-108.88408 z "
       style="color:#000000;fill:#f93769;fill-opacity:1;fill-rule:evenodd;stroke:none;stroke-width:6;stroke-linecap:square;stroke-linejoin:miter;marker:none;marker-start:none;marker-mid:none;marker-end:none;stroke-miterlimit:4;stroke-dashoffset:0;stroke-opacity:1;visibility:visible;display:inline;overflow:visible;enable-background:accumulate"
       id="path3239" />
    <path
       d="M -147.21429,-51.741223 C -147.21429,-25.718371 -165.77429,-4.5983722 -188.64286,-4.5983722 C -211.51143,-4.5983722 -230.07143,-25.718371 -230.07143,-51.741223 C -230.07143,-77.764083 -211.51143,-98.884083 -188.64286,-98.884083 C -165.77429,-98.884083 -147.21429,-77.764083 -147.21429,-51.741223 z "
       style="color:#000000;fill:#fb990c;fill-opacity:1;fill-rule:evenodd;stroke:none;stroke-width:6;stroke-linecap:square;stroke-linejoin:miter;marker:none;marker-start:none;marker-mid:none;marker-end:none;stroke-miterlimit:4;stroke-dashoffset:0;stroke-opacity:1;visibility:visible;display:inline;overflow:visible;enable-background:accumulate"
       id="path3194" />
    <path
       d="M -208.64286,-52.098373 C -208.64286,-26.075513 -229.76285,-4.9555132 -255.78571,-4.9555132 C -281.80857,-4.9555132 -302.92857,-26.075513 -302.92857,-52.098373 C -302.92857,-78.121233 -281.80857,-99.241233 -255.78571,-99.241233 C -229.76285,-99.241233 -208.64286,-78.121233 -208.64286,-52.098373 z "
       style="color:#000000;fill:#f93769;fill-opacity:1;fill-rule:evenodd;stroke:none;stroke-width:6;stroke-linecap:square;stroke-linejoin:miter;marker:none;marker-start:none;marker-mid:none;marker-end:none;stroke-miterlimit:4;stroke-dashoffset:0;stroke-opacity:1;visibility:visible;display:inline;overflow:visible;enable-background:accumulate"
       id="path3241" />
    <path
       d="M -170.07142,-117.81265 C -170.07142,-93.761223 -189.59142,-74.241223 -213.64285,-74.241223 C -237.69428,-74.241223 -257.21428,-93.761223 -257.21428,-117.81265 C -257.21428,-141.86408 -237.69428,-161.38408 -213.64285,-161.38408 C -189.59142,-161.38408 -170.07142,-141.86408 -170.07142,-117.81265 z "
       style="color:#000000;fill:#fb990c;fill-opacity:1;fill-rule:evenodd;stroke:none;stroke-width:6;stroke-linecap:square;stroke-linejoin:miter;marker:none;marker-start:none;marker-mid:none;marker-end:none;stroke-miterlimit:4;stroke-dashoffset:0;stroke-opacity:1;visibility:visible;display:inline;overflow:visible;enable-background:accumulate"
       id="path2221" />
    <path
       d="M -511.14286,1236.1159 L -511.14286,1236.1159 L -280.07143,442.90163 C -280.07143,442.90163 -144.35714,130.04449 271.35714,44.330199 C 592.23007,-21.829165 1021.033,-78.196753 1242.8445,-83.448823"
       style="fill:none;fill-rule:evenodd;stroke:#000000;stroke-width:12;stroke-linecap:butt;stroke-linejoin:miter;stroke-miterlimit:4;stroke-dasharray:none;stroke-opacity:1"
       id="path10285" />
    <path
       d="M -89.08929,146.11591 C -89.08929,170.16734 -108.60929,189.68734 -132.66072,189.68734 C -156.71215,189.68734 -176.23215,170.16734 -176.23215,146.11591 C -176.23215,122.06448 -156.71215,102.54448 -132.66072,102.54448 C -108.60929,102.54448 -89.08929,122.06448 -89.08929,146.11591 z "
       style="color:#000000;fill:#fb990c;fill-opacity:1;fill-rule:evenodd;stroke:none;stroke-width:6;stroke-linecap:square;stroke-linejoin:miter;marker:none;marker-start:none;marker-mid:none;marker-end:none;stroke-miterlimit:4;stroke-dashoffset:0;stroke-opacity:1;visibility:visible;display:inline;overflow:visible;enable-background:accumulate"
       id="path3263" />
    <path
       d="M -101.58929,207.18735 C -101.58929,232.81591 -120.30929,253.61591 -143.375,253.61591 C -166.44072,253.61591 -185.16072,232.81591 -185.16072,207.18735 C -185.16072,181.55878 -166.44072,160.75878 -143.375,160.75878 C -120.30929,160.75878 -101.58929,181.55878 -101.58929,207.18735 z "
       style="color:#000000;fill:#fb990c;fill-opacity:1;fill-rule:evenodd;stroke:none;stroke-width:6;stroke-linecap:square;stroke-linejoin:miter;marker:none;marker-start:none;marker-mid:none;marker-end:none;stroke-miterlimit:4;stroke-dashoffset:0;stroke-opacity:1;visibility:visible;display:inline;overflow:visible;enable-background:accumulate"
       id="path3265" />
    <path
       d="M -39.625031,150.58019 C -39.625031,179.36306 -60.74502,202.72306 -86.767881,202.72306 C -112.79074,202.72306 -133.91074,179.36306 -133.91074,150.58019 C -133.91074,121.79733 -112.79074,98.437333 -86.767881,98.437333 C -60.74502,98.437333 -39.625031,121.79733 -39.625031,150.58019 z "
       style="color:#000000;fill:#f93769;fill-opacity:1;fill-rule:evenodd;stroke:none;stroke-width:6;stroke-linecap:square;stroke-linejoin:miter;marker:none;marker-start:none;marker-mid:none;marker-end:none;stroke-miterlimit:4;stroke-dashoffset:0;stroke-opacity:1;visibility:visible;display:inline;overflow:visible;enable-background:accumulate"
       id="path3267" />
    <path
       d="M 30.732129,207.72305 C 30.732129,233.74591 12.172128,254.86591 -10.696443,254.86591 C -33.565015,254.86591 -52.125015,233.74591 -52.125015,207.72305 C -52.125015,181.7002 -33.565015,160.58019 -10.696443,160.58019 C 12.172128,160.58019 30.732129,181.7002 30.732129,207.72305 z "
       style="color:#000000;fill:#fb990c;fill-opacity:1;fill-rule:evenodd;stroke:none;stroke-width:6;stroke-linecap:square;stroke-linejoin:miter;marker:none;marker-start:none;marker-mid:none;marker-end:none;stroke-miterlimit:4;stroke-dashoffset:0;stroke-opacity:1;visibility:visible;display:inline;overflow:visible;enable-background:accumulate"
       id="path3269" />
    <path
       d="M -30.696441,207.36591 C -30.696441,233.38877 -51.81643,254.50877 -77.839291,254.50877 C -103.86215,254.50877 -124.98215,233.38877 -124.98215,207.36591 C -124.98215,181.34305 -103.86215,160.22305 -77.839291,160.22305 C -51.81643,160.22305 -30.696441,181.34305 -30.696441,207.36591 z "
       style="color:#000000;fill:#f93769;fill-opacity:1;fill-rule:evenodd;stroke:none;stroke-width:6;stroke-linecap:square;stroke-linejoin:miter;marker:none;marker-start:none;marker-mid:none;marker-end:none;stroke-miterlimit:4;stroke-dashoffset:0;stroke-opacity:1;visibility:visible;display:inline;overflow:visible;enable-background:accumulate"
       id="path3271" />
    <path
       d="M 7.8750001,141.65163 C 7.8750001,165.70306 -11.645,185.22306 -35.696428,185.22306 C -59.747856,185.22306 -79.267856,165.70306 -79.267856,141.65163 C -79.267856,117.6002 -59.747856,98.0802 -35.696428,98.0802 C -11.645,98.0802 7.8750001,117.6002 7.8750001,141.65163 z "
       style="color:#000000;fill:#fb990c;fill-opacity:1;fill-rule:evenodd;stroke:none;stroke-width:6;stroke-linecap:square;stroke-linejoin:miter;marker:none;marker-start:none;marker-mid:none;marker-end:none;stroke-miterlimit:4;stroke-dashoffset:0;stroke-opacity:1;visibility:visible;display:inline;overflow:visible;enable-background:accumulate"
       id="path3273" />
    <path
       d="M -264.08928,387.54448 C -264.08928,411.59591 -283.60928,431.11591 -307.66071,431.11591 C -331.71214,431.11591 -351.23214,411.59591 -351.23214,387.54448 C -351.23214,363.49305 -331.71214,343.97305 -307.66071,343.97305 C -283.60928,343.97305 -264.08928,363.49305 -264.08928,387.54448 z "
       style="color:#000000;fill:#fb990c;fill-opacity:1;fill-rule:evenodd;stroke:none;stroke-width:6;stroke-linecap:square;stroke-linejoin:miter;marker:none;marker-start:none;marker-mid:none;marker-end:none;stroke-miterlimit:4;stroke-dashoffset:0;stroke-opacity:1;visibility:visible;display:inline;overflow:visible;enable-background:accumulate"
       id="path3277" />
    <path
       d="M -276.58928,448.61592 C -276.58928,474.24448 -295.30928,495.04448 -318.37499,495.04448 C -341.44071,495.04448 -360.16071,474.24448 -360.16071,448.61592 C -360.16071,422.98735 -341.44071,402.18735 -318.37499,402.18735 C -295.30928,402.18735 -276.58928,422.98735 -276.58928,448.61592 z "
       style="color:#000000;fill:#fb990c;fill-opacity:1;fill-rule:evenodd;stroke:none;stroke-width:6;stroke-linecap:square;stroke-linejoin:miter;marker:none;marker-start:none;marker-mid:none;marker-end:none;stroke-miterlimit:4;stroke-dashoffset:0;stroke-opacity:1;visibility:visible;display:inline;overflow:visible;enable-background:accumulate"
       id="path3279" />
    <path
       d="M -214.62502,392.00877 C -214.62502,420.79163 -235.74501,444.15163 -261.76787,444.15163 C -287.79073,444.15163 -308.91073,420.79163 -308.91073,392.00877 C -308.91073,363.22591 -287.79073,339.86591 -261.76787,339.86591 C -235.74501,339.86591 -214.62502,363.22591 -214.62502,392.00877 z "
       style="color:#000000;fill:#f93769;fill-opacity:1;fill-rule:evenodd;stroke:none;stroke-width:6;stroke-linecap:square;stroke-linejoin:miter;marker:none;marker-start:none;marker-mid:none;marker-end:none;stroke-miterlimit:4;stroke-dashoffset:0;stroke-opacity:1;visibility:visible;display:inline;overflow:visible;enable-background:accumulate"
       id="path3281" />
    <path
       d="M -144.26786,449.15162 C -144.26786,475.17448 -162.82786,496.29448 -185.69643,496.29448 C -208.565,496.29448 -227.125,475.17448 -227.125,449.15162 C -227.125,423.12877 -208.565,402.00877 -185.69643,402.00877 C -162.82786,402.00877 -144.26786,423.12877 -144.26786,449.15162 z "
       style="color:#000000;fill:#fb990c;fill-opacity:1;fill-rule:evenodd;stroke:none;stroke-width:6;stroke-linecap:square;stroke-linejoin:miter;marker:none;marker-start:none;marker-mid:none;marker-end:none;stroke-miterlimit:4;stroke-dashoffset:0;stroke-opacity:1;visibility:visible;display:inline;overflow:visible;enable-background:accumulate"
       id="path3283" />
    <path
       d="M -205.69643,448.79448 C -205.69643,474.81734 -226.81642,495.93734 -252.83928,495.93734 C -278.86214,495.93734 -299.98214,474.81734 -299.98214,448.79448 C -299.98214,422.77162 -278.86214,401.65162 -252.83928,401.65162 C -226.81642,401.65162 -205.69643,422.77162 -205.69643,448.79448 z "
       style="color:#000000;fill:#f93769;fill-opacity:1;fill-rule:evenodd;stroke:none;stroke-width:6;stroke-linecap:square;stroke-linejoin:miter;marker:none;marker-start:none;marker-mid:none;marker-end:none;stroke-miterlimit:4;stroke-dashoffset:0;stroke-opacity:1;visibility:visible;display:inline;overflow:visible;enable-background:accumulate"
       id="path3285" />
    <path
       d="M -167.12499,383.0802 C -167.12499,407.13163 -186.64499,426.65163 -210.69642,426.65163 C -234.74785,426.65163 -254.26785,407.13163 -254.26785,383.0802 C -254.26785,359.02877 -234.74785,339.50877 -210.69642,339.50877 C -186.64499,339.50877 -167.12499,359.02877 -167.12499,383.0802 z "
       style="color:#000000;fill:#fb990c;fill-opacity:1;fill-rule:evenodd;stroke:none;stroke-width:6;stroke-linecap:square;stroke-linejoin:miter;marker:none;marker-start:none;marker-mid:none;marker-end:none;stroke-miterlimit:4;stroke-dashoffset:0;stroke-opacity:1;visibility:visible;display:inline;overflow:visible;enable-background:accumulate"
       id="path3287" />
    <path
       d="M -401.23214,828.97306 C -401.23214,853.02449 -420.75214,872.54449 -444.80357,872.54449 C -468.855,872.54449 -488.375,853.02449 -488.375,828.97306 C -488.375,804.92163 -468.855,785.40163 -444.80357,785.40163 C -420.75214,785.40163 -401.23214,804.92163 -401.23214,828.97306 z "
       style="color:#000000;fill:#fb990c;fill-opacity:1;fill-rule:evenodd;stroke:none;stroke-width:6;stroke-linecap:square;stroke-linejoin:miter;marker:none;marker-start:none;marker-mid:none;marker-end:none;stroke-miterlimit:4;stroke-dashoffset:0;stroke-opacity:1;visibility:visible;display:inline;overflow:visible;enable-background:accumulate"
       id="path3291" />
    <path
       d="M -413.73214,890.0445 C -413.73214,915.67306 -432.45214,936.47306 -455.51785,936.47306 C -478.58357,936.47306 -497.30357,915.67306 -497.30357,890.0445 C -497.30357,864.41593 -478.58357,843.61593 -455.51785,843.61593 C -432.45214,843.61593 -413.73214,864.41593 -413.73214,890.0445 z "
       style="color:#000000;fill:#fb990c;fill-opacity:1;fill-rule:evenodd;stroke:none;stroke-width:6;stroke-linecap:square;stroke-linejoin:miter;marker:none;marker-start:none;marker-mid:none;marker-end:none;stroke-miterlimit:4;stroke-dashoffset:0;stroke-opacity:1;visibility:visible;display:inline;overflow:visible;enable-background:accumulate"
       id="path3293" />
    <path
       d="M -351.76788,833.43735 C -351.76788,862.22021 -372.88787,885.58021 -398.91073,885.58021 C -424.93359,885.58021 -446.05359,862.22021 -446.05359,833.43735 C -446.05359,804.65449 -424.93359,781.29449 -398.91073,781.29449 C -372.88787,781.29449 -351.76788,804.65449 -351.76788,833.43735 z "
       style="color:#000000;fill:#f93769;fill-opacity:1;fill-rule:evenodd;stroke:none;stroke-width:6;stroke-linecap:square;stroke-linejoin:miter;marker:none;marker-start:none;marker-mid:none;marker-end:none;stroke-miterlimit:4;stroke-dashoffset:0;stroke-opacity:1;visibility:visible;display:inline;overflow:visible;enable-background:accumulate"
       id="path3295" />
    <path
       d="M -281.41072,890.58022 C -281.41072,916.60308 -299.97072,937.72308 -322.83929,937.72308 C -345.70787,937.72308 -364.26787,916.60308 -364.26787,890.58022 C -364.26787,864.55737 -345.70787,843.43737 -322.83929,843.43737 C -299.97072,843.43737 -281.41072,864.55737 -281.41072,890.58022 z "
       style="color:#000000;fill:#fb990c;fill-opacity:1;fill-rule:evenodd;stroke:none;stroke-width:6;stroke-linecap:square;stroke-linejoin:miter;marker:none;marker-start:none;marker-mid:none;marker-end:none;stroke-miterlimit:4;stroke-dashoffset:0;stroke-opacity:1;visibility:visible;display:inline;overflow:visible;enable-background:accumulate"
       id="path3297" />
    <path
       d="M -342.83929,890.22301 C -342.83929,916.24587 -363.95928,937.36587 -389.98214,937.36587 C -416.005,937.36587 -437.125,916.24587 -437.125,890.22301 C -437.125,864.20015 -416.005,843.08015 -389.98214,843.08015 C -363.95928,843.08015 -342.83929,864.20015 -342.83929,890.22301 z "
       style="color:#000000;fill:#f93769;fill-opacity:1;fill-rule:evenodd;stroke:none;stroke-width:6;stroke-linecap:square;stroke-linejoin:miter;marker:none;marker-start:none;marker-mid:none;marker-end:none;stroke-miterlimit:4;stroke-dashoffset:0;stroke-opacity:1;visibility:visible;display:inline;overflow:visible;enable-background:accumulate"
       id="path3299" />
    <path
       d="M -304.26785,824.50878 C -304.26785,848.56021 -323.78785,868.08021 -347.83928,868.08021 C -371.89071,868.08021 -391.41071,848.56021 -391.41071,824.50878 C -391.41071,800.45735 -371.89071,780.93735 -347.83928,780.93735 C -323.78785,780.93735 -304.26785,800.45735 -304.26785,824.50878 z "
       style="color:#000000;fill:#fb990c;fill-opacity:1;fill-rule:evenodd;stroke:none;stroke-width:6;stroke-linecap:square;stroke-linejoin:miter;marker:none;marker-start:none;marker-mid:none;marker-end:none;stroke-miterlimit:4;stroke-dashoffset:0;stroke-opacity:1;visibility:visible;display:inline;overflow:visible;enable-background:accumulate"
       id="path3301" />
    <path
       d="M 255.19643,-8.8840932 C 255.19643,15.167337 235.67643,34.687337 211.625,34.687337 C 187.57357,34.687337 168.05357,15.167337 168.05357,-8.8840932 C 168.05357,-32.935523 187.57357,-52.455523 211.625,-52.455523 C 235.67643,-52.455523 255.19643,-32.935523 255.19643,-8.8840932 z "
       style="color:#000000;fill:#fb990c;fill-opacity:1;fill-rule:evenodd;stroke:none;stroke-width:6;stroke-linecap:square;stroke-linejoin:miter;marker:none;marker-start:none;marker-mid:none;marker-end:none;stroke-miterlimit:4;stroke-dashoffset:0;stroke-opacity:1;visibility:visible;display:inline;overflow:visible;enable-background:accumulate"
       id="path3305" />
    <path
       d="M 242.69643,52.187347 C 242.69643,77.815907 223.97643,98.61591 200.91072,98.61591 C 177.845,98.61591 159.125,77.815907 159.125,52.187347 C 159.125,26.558777 177.845,5.7587768 200.91072,5.7587768 C 223.97643,5.7587768 242.69643,26.558777 242.69643,52.187347 z "
       style="color:#000000;fill:#fb990c;fill-opacity:1;fill-rule:evenodd;stroke:none;stroke-width:6;stroke-linecap:square;stroke-linejoin:miter;marker:none;marker-start:none;marker-mid:none;marker-end:none;stroke-miterlimit:4;stroke-dashoffset:0;stroke-opacity:1;visibility:visible;display:inline;overflow:visible;enable-background:accumulate"
       id="path3307" />
    <path
       d="M 304.66069,-4.4198072 C 304.66069,24.363054 283.5407,47.723054 257.51784,47.723054 C 231.49498,47.723054 210.37498,24.363054 210.37498,-4.4198072 C 210.37498,-33.202667 231.49498,-56.562663 257.51784,-56.562663 C 283.5407,-56.562663 304.66069,-33.202667 304.66069,-4.4198072 z "
       style="color:#000000;fill:#f93769;fill-opacity:1;fill-rule:evenodd;stroke:none;stroke-width:6;stroke-linecap:square;stroke-linejoin:miter;marker:none;marker-start:none;marker-mid:none;marker-end:none;stroke-miterlimit:4;stroke-dashoffset:0;stroke-opacity:1;visibility:visible;display:inline;overflow:visible;enable-background:accumulate"
       id="path3309" />
    <path
       d="M 375.01785,52.723049 C 375.01785,78.745906 356.45785,99.865905 333.58928,99.865905 C 310.7207,99.865905 292.1607,78.745906 292.1607,52.723049 C 292.1607,26.700193 310.7207,5.5801928 333.58928,5.5801928 C 356.45785,5.5801928 375.01785,26.700193 375.01785,52.723049 z "
       style="color:#000000;fill:#fb990c;fill-opacity:1;fill-rule:evenodd;stroke:none;stroke-width:6;stroke-linecap:square;stroke-linejoin:miter;marker:none;marker-start:none;marker-mid:none;marker-end:none;stroke-miterlimit:4;stroke-dashoffset:0;stroke-opacity:1;visibility:visible;display:inline;overflow:visible;enable-background:accumulate"
       id="path3311" />
    <path
       d="M 313.58928,52.365909 C 313.58928,78.388769 292.46929,99.508769 266.44643,99.508769 C 240.42357,99.508769 219.30357,78.388769 219.30357,52.365909 C 219.30357,26.343049 240.42357,5.2230488 266.44643,5.2230488 C 292.46929,5.2230488 313.58928,26.343049 313.58928,52.365909 z "
       style="color:#000000;fill:#f93769;fill-opacity:1;fill-rule:evenodd;stroke:none;stroke-width:6;stroke-linecap:square;stroke-linejoin:miter;marker:none;marker-start:none;marker-mid:none;marker-end:none;stroke-miterlimit:4;stroke-dashoffset:0;stroke-opacity:1;visibility:visible;display:inline;overflow:visible;enable-background:accumulate"
       id="path3313" />
    <path
       d="M 352.16072,-13.348372 C 352.16072,10.703056 332.64072,30.223056 308.58929,30.223056 C 284.53786,30.223056 265.01786,10.703056 265.01786,-13.348372 C 265.01786,-37.3998 284.53786,-56.919803 308.58929,-56.919803 C 332.64072,-56.919803 352.16072,-37.3998 352.16072,-13.348372 z "
       style="color:#000000;fill:#fb990c;fill-opacity:1;fill-rule:evenodd;stroke:none;stroke-width:6;stroke-linecap:square;stroke-linejoin:miter;marker:none;marker-start:none;marker-mid:none;marker-end:none;stroke-miterlimit:4;stroke-dashoffset:0;stroke-opacity:1;visibility:visible;display:inline;overflow:visible;enable-background:accumulate"
       id="path3315" />
    <path
       d="M 592.33929,-48.884093 C 592.33929,-24.832661 572.81929,-5.3126612 548.76786,-5.3126612 C 524.71643,-5.3126612 505.19643,-24.832661 505.19643,-48.884093 C 505.19643,-72.935523 524.71643,-92.455523 548.76786,-92.455523 C 572.81929,-92.455523 592.33929,-72.935523 592.33929,-48.884093 z "
       style="color:#000000;fill:#fb990c;fill-opacity:1;fill-rule:evenodd;stroke:none;stroke-width:6;stroke-linecap:square;stroke-linejoin:miter;marker:none;marker-start:none;marker-mid:none;marker-end:none;stroke-miterlimit:4;stroke-dashoffset:0;stroke-opacity:1;visibility:visible;display:inline;overflow:visible;enable-background:accumulate"
       id="path3319" />
    <path
       d="M 579.83929,12.187349 C 579.83929,37.815909 561.11929,58.615912 538.05358,58.615912 C 514.98786,58.615912 496.26786,37.815909 496.26786,12.187349 C 496.26786,-13.441221 514.98786,-34.241221 538.05358,-34.241221 C 561.11929,-34.241221 579.83929,-13.441221 579.83929,12.187349 z "
       style="color:#000000;fill:#fb990c;fill-opacity:1;fill-rule:evenodd;stroke:none;stroke-width:6;stroke-linecap:square;stroke-linejoin:miter;marker:none;marker-start:none;marker-mid:none;marker-end:none;stroke-miterlimit:4;stroke-dashoffset:0;stroke-opacity:1;visibility:visible;display:inline;overflow:visible;enable-background:accumulate"
       id="path3321" />
    <path
       d="M 641.80355,-44.419803 C 641.80355,-15.636944 620.68356,7.7230558 594.6607,7.7230558 C 568.63784,7.7230558 547.51784,-15.636944 547.51784,-44.419803 C 547.51784,-73.202663 568.63784,-96.562663 594.6607,-96.562663 C 620.68356,-96.562663 641.80355,-73.202663 641.80355,-44.419803 z "
       style="color:#000000;fill:#f93769;fill-opacity:1;fill-rule:evenodd;stroke:none;stroke-width:6;stroke-linecap:square;stroke-linejoin:miter;marker:none;marker-start:none;marker-mid:none;marker-end:none;stroke-miterlimit:4;stroke-dashoffset:0;stroke-opacity:1;visibility:visible;display:inline;overflow:visible;enable-background:accumulate"
       id="path3323" />
    <path
       d="M 712.16071,12.723049 C 712.16071,38.745906 693.60071,59.865905 670.73214,59.865905 C 647.86356,59.865905 629.30356,38.745906 629.30356,12.723049 C 629.30356,-13.299807 647.86356,-34.419807 670.73214,-34.419807 C 693.60071,-34.419807 712.16071,-13.299807 712.16071,12.723049 z "
       style="color:#000000;fill:#fb990c;fill-opacity:1;fill-rule:evenodd;stroke:none;stroke-width:6;stroke-linecap:square;stroke-linejoin:miter;marker:none;marker-start:none;marker-mid:none;marker-end:none;stroke-miterlimit:4;stroke-dashoffset:0;stroke-opacity:1;visibility:visible;display:inline;overflow:visible;enable-background:accumulate"
       id="path3325" />
    <path
       d="M 650.73214,12.365909 C 650.73214,38.388769 629.61215,59.508769 603.58929,59.508769 C 577.56643,59.508769 556.44643,38.388769 556.44643,12.365909 C 556.44643,-13.656951 577.56643,-34.776951 603.58929,-34.776951 C 629.61215,-34.776951 650.73214,-13.656951 650.73214,12.365909 z "
       style="color:#000000;fill:#f93769;fill-opacity:1;fill-rule:evenodd;stroke:none;stroke-width:6;stroke-linecap:square;stroke-linejoin:miter;marker:none;marker-start:none;marker-mid:none;marker-end:none;stroke-miterlimit:4;stroke-dashoffset:0;stroke-opacity:1;visibility:visible;display:inline;overflow:visible;enable-background:accumulate"
       id="path3327" />
    <path
       d="M 689.30358,-53.348373 C 689.30358,-29.296944 669.78358,-9.7769442 645.73215,-9.7769442 C 621.68072,-9.7769442 602.16072,-29.296944 602.16072,-53.348373 C 602.16072,-77.399803 621.68072,-96.919803 645.73215,-96.919803 C 669.78358,-96.919803 689.30358,-77.399803 689.30358,-53.348373 z "
       style="color:#000000;fill:#fb990c;fill-opacity:1;fill-rule:evenodd;stroke:none;stroke-width:6;stroke-linecap:square;stroke-linejoin:miter;marker:none;marker-start:none;marker-mid:none;marker-end:none;stroke-miterlimit:4;stroke-dashoffset:0;stroke-opacity:1;visibility:visible;display:inline;overflow:visible;enable-background:accumulate"
       id="path3329" />
    <path
       d="M 964.48219,-101.74123 C 964.48219,-77.689803 944.96219,-58.169803 920.91076,-58.169803 C 896.85933,-58.169803 877.33933,-77.689803 877.33933,-101.74123 C 877.33933,-125.79266 896.85933,-145.31266 920.91076,-145.31266 C 944.96219,-145.31266 964.48219,-125.79266 964.48219,-101.74123 z "
       style="color:#000000;fill:#fb990c;fill-opacity:1;fill-rule:evenodd;stroke:none;stroke-width:6;stroke-linecap:square;stroke-linejoin:miter;marker:none;marker-start:none;marker-mid:none;marker-end:none;stroke-miterlimit:4;stroke-dashoffset:0;stroke-opacity:1;visibility:visible;display:inline;overflow:visible;enable-background:accumulate"
       id="path3333" />
    <path
       d="M 951.98219,-40.669793 C 951.98219,-15.041234 933.26219,5.7587688 910.19648,5.7587688 C 887.13076,5.7587688 868.41076,-15.041234 868.41076,-40.669793 C 868.41076,-66.298363 887.13076,-87.098363 910.19648,-87.098363 C 933.26219,-87.098363 951.98219,-66.298363 951.98219,-40.669793 z "
       style="color:#000000;fill:#fb990c;fill-opacity:1;fill-rule:evenodd;stroke:none;stroke-width:6;stroke-linecap:square;stroke-linejoin:miter;marker:none;marker-start:none;marker-mid:none;marker-end:none;stroke-miterlimit:4;stroke-dashoffset:0;stroke-opacity:1;visibility:visible;display:inline;overflow:visible;enable-background:accumulate"
       id="path3335" />
    <path
       d="M 1013.9464,-97.276943 C 1013.9464,-68.494083 992.82642,-45.134083 966.80356,-45.134083 C 940.7807,-45.134083 919.6607,-68.494083 919.6607,-97.276943 C 919.6607,-126.0598 940.7807,-149.4198 966.80356,-149.4198 C 992.82642,-149.4198 1013.9464,-126.0598 1013.9464,-97.276943 z "
       style="color:#000000;fill:#f93769;fill-opacity:1;fill-rule:evenodd;stroke:none;stroke-width:6;stroke-linecap:square;stroke-linejoin:miter;marker:none;marker-start:none;marker-mid:none;marker-end:none;stroke-miterlimit:4;stroke-dashoffset:0;stroke-opacity:1;visibility:visible;display:inline;overflow:visible;enable-background:accumulate"
       id="path3337" />
    <path
       d="M 1084.3036,-40.134093 C 1084.3036,-14.111234 1065.7436,7.0087648 1042.875,7.0087648 C 1020.0064,7.0087648 1001.4464,-14.111234 1001.4464,-40.134093 C 1001.4464,-66.156943 1020.0064,-87.276943 1042.875,-87.276943 C 1065.7436,-87.276943 1084.3036,-66.156943 1084.3036,-40.134093 z "
       style="color:#000000;fill:#fb990c;fill-opacity:1;fill-rule:evenodd;stroke:none;stroke-width:6;stroke-linecap:square;stroke-linejoin:miter;marker:none;marker-start:none;marker-mid:none;marker-end:none;stroke-miterlimit:4;stroke-dashoffset:0;stroke-opacity:1;visibility:visible;display:inline;overflow:visible;enable-background:accumulate"
       id="path3339" />
    <path
       d="M 1022.875,-40.491233 C 1022.875,-14.468374 1001.755,6.6516258 975.73216,6.6516258 C 949.7093,6.6516258 928.5893,-14.468374 928.5893,-40.491233 C 928.5893,-66.514093 949.7093,-87.634093 975.73216,-87.634093 C 1001.755,-87.634093 1022.875,-66.514093 1022.875,-40.491233 z "
       style="color:#000000;fill:#f93769;fill-opacity:1;fill-rule:evenodd;stroke:none;stroke-width:6;stroke-linecap:square;stroke-linejoin:miter;marker:none;marker-start:none;marker-mid:none;marker-end:none;stroke-miterlimit:4;stroke-dashoffset:0;stroke-opacity:1;visibility:visible;display:inline;overflow:visible;enable-background:accumulate"
       id="path3341" />
    <path
       d="M 1061.4465,-106.20551 C 1061.4465,-82.154083 1041.9265,-62.634083 1017.8751,-62.634083 C 993.82365,-62.634083 974.30365,-82.154083 974.30365,-106.20551 C 974.30365,-130.25694 993.82365,-149.77694 1017.8751,-149.77694 C 1041.9265,-149.77694 1061.4465,-130.25694 1061.4465,-106.20551 z "
       style="color:#000000;fill:#fb990c;fill-opacity:1;fill-rule:evenodd;stroke:none;stroke-width:6;stroke-linecap:square;stroke-linejoin:miter;marker:none;marker-start:none;marker-mid:none;marker-end:none;stroke-miterlimit:4;stroke-dashoffset:0;stroke-opacity:1;visibility:visible;display:inline;overflow:visible;enable-background:accumulate"
       id="path3343" />
    <path
       d="M -329.35712,636.11591 C -329.35712,662.53305 -348.71712,683.97305 -372.5714,683.97305 C -396.42568,683.97305 -415.78568,662.53305 -415.78568,636.11591 C -415.78568,609.69877 -396.42568,588.25877 -372.5714,588.25877 C -348.71712,588.25877 -329.35712,609.69877 -329.35712,636.11591 z "
       style="color:#000000;fill:#fb990d;fill-opacity:1;fill-rule:evenodd;stroke:none;stroke-width:10;stroke-linecap:square;stroke-linejoin:miter;marker:none;marker-start:none;marker-mid:none;marker-end:none;stroke-miterlimit:4;stroke-dashoffset:0;stroke-opacity:1;visibility:visible;display:inline;overflow:visible;enable-background:accumulate"
       id="path6265" />
    <path
       d="M -199.35712,636.11591 C -199.35712,662.53305 -218.71712,683.97305 -242.5714,683.97305 C -266.42568,683.97305 -285.78568,662.53305 -285.78568,636.11591 C -285.78568,609.69877 -266.42568,588.25877 -242.5714,588.25877 C -218.71712,588.25877 -199.35712,609.69877 -199.35712,636.11591 z "
       style="color:#000000;fill:#fb990d;fill-opacity:1;fill-rule:evenodd;stroke:none;stroke-width:10;stroke-linecap:square;stroke-linejoin:miter;marker:none;marker-start:none;marker-mid:none;marker-end:none;stroke-miterlimit:4;stroke-dashoffset:0;stroke-opacity:1;visibility:visible;display:inline;overflow:visible;enable-background:accumulate"
       id="path6267" />
    <path
       d="M -259.71427,636.11591 C -259.71427,662.53305 -281.15427,683.97305 -307.57142,683.97305 C -333.98855,683.97305 -355.42855,662.53305 -355.42855,636.11591 C -355.42855,609.69877 -333.98855,588.25877 -307.57142,588.25877 C -281.15427,588.25877 -259.71427,609.69877 -259.71427,636.11591 z "
       style="color:#000000;fill:#f93769;fill-opacity:1;fill-rule:evenodd;stroke:none;stroke-width:10;stroke-linecap:square;stroke-linejoin:miter;marker:none;marker-start:none;marker-mid:none;marker-end:none;stroke-miterlimit:4;stroke-dashoffset:0;stroke-opacity:1;visibility:visible;display:inline;overflow:visible;enable-background:accumulate"
       id="path6263" />
    <path
       d="M -474.71429,1076.473 C -474.71429,1102.8902 -494.07429,1124.3302 -517.92857,1124.3302 C -541.78285,1124.3302 -561.14285,1102.8902 -561.14285,1076.473 C -561.14285,1050.0559 -541.78285,1028.6159 -517.92857,1028.6159 C -494.07429,1028.6159 -474.71429,1050.0559 -474.71429,1076.473 z "
       style="color:#000000;fill:#fb990d;fill-opacity:1;fill-rule:evenodd;stroke:none;stroke-width:10;stroke-linecap:square;stroke-linejoin:miter;marker:none;marker-start:none;marker-mid:none;marker-end:none;stroke-miterlimit:4;stroke-dashoffset:0;stroke-opacity:1;visibility:visible;display:inline;overflow:visible;enable-background:accumulate"
       id="path6288" />
    <path
       d="M -344.71429,1076.473 C -344.71429,1102.8902 -364.07429,1124.3302 -387.92857,1124.3302 C -411.78285,1124.3302 -431.14285,1102.8902 -431.14285,1076.473 C -431.14285,1050.0559 -411.78285,1028.6159 -387.92857,1028.6159 C -364.07429,1028.6159 -344.71429,1050.0559 -344.71429,1076.473 z "
       style="color:#000000;fill:#fb990d;fill-opacity:1;fill-rule:evenodd;stroke:none;stroke-width:10;stroke-linecap:square;stroke-linejoin:miter;marker:none;marker-start:none;marker-mid:none;marker-end:none;stroke-miterlimit:4;stroke-dashoffset:0;stroke-opacity:1;visibility:visible;display:inline;overflow:visible;enable-background:accumulate"
       id="path6290" />
    <path
       d="M -405.07145,1076.473 C -405.07145,1102.8902 -426.51145,1124.3302 -452.92859,1124.3302 C -479.34573,1124.3302 -500.78573,1102.8902 -500.78573,1076.473 C -500.78573,1050.0559 -479.34573,1028.6159 -452.92859,1028.6159 C -426.51145,1028.6159 -405.07145,1050.0559 -405.07145,1076.473 z "
       style="color:#000000;fill:#f93769;fill-opacity:1;fill-rule:evenodd;stroke:none;stroke-width:10;stroke-linecap:square;stroke-linejoin:miter;marker:none;marker-start:none;marker-mid:none;marker-end:none;stroke-miterlimit:4;stroke-dashoffset:0;stroke-opacity:1;visibility:visible;display:inline;overflow:visible;enable-background:accumulate"
       id="path6292" />
    <path
       d="M 127.51161,85.879742 L 81.56545,145.48067 L 83.537032,105.9539 L 52.381257,81.549582 L 127.51161,85.879742 z "
       style="fill:#000000;fill-rule:evenodd;stroke:#000000;stroke-width:1px;stroke-linecap:butt;stroke-linejoin:miter;stroke-opacity:1"
       id="path11261" />
    <path
       d="M 817.88497,-43.790723 L 758.07854,1.8876148 L 770.21322,-35.782029 L 746.43536,-67.418493 L 817.88497,-43.790723 z "
       style="fill:#000000;fill-rule:evenodd;stroke:#000000;stroke-width:0.99999994px;stroke-linecap:butt;stroke-linejoin:miter;stroke-opacity:1"
       id="path11273" />
    <path
       d="M -352.80776,693.50707 L -337.72938,767.23606 L -366.35636,739.90934 L -405.1899,747.53883 L -352.80776,693.50707 z "
       style="fill:#000000;fill-rule:evenodd;stroke:#000000;stroke-width:0.99999994px;stroke-linecap:butt;stroke-linejoin:miter;stroke-opacity:1"
       id="path11277" />
    <path
       d="M -449.16525,1190.2116 L -539.39001,1163.8393 L -479.12762,1125.1942 L -449.16525,1190.2116 z "
       style="color:#000000;fill:#000000;fill-opacity:1;fill-rule:evenodd;stroke:none;stroke-width:12;stroke-linecap:square;stroke-linejoin:miter;marker:none;marker-start:none;marker-mid:none;marker-end:none;stroke-miterlimit:4;stroke-dashoffset:0;stroke-opacity:1;visibility:visible;display:inline;overflow:visible;enable-background:accumulate"
       id="path11290" />
    <text
       x="82.785713"
       y="-232.09836"
       style="font-size:144px;font-style:normal;font-weight:normal;text-align:center;text-anchor:middle;fill:#000000;fill-opacity:1;stroke:none;stroke-width:1px;stroke-linecap:butt;stroke-linejoin:miter;stroke-opacity:1;font-family:Arial"
       id="text11295"
       xml:space="preserve"><tspan
         x="82.785713"
         y="-232.09836"
         style="font-size:120px;font-weight:bold;text-align:center;text-anchor:middle"
         id="tspan11297">Fe-S</tspan><tspan
         x="82.785713"
         y="-82.098358"
         dy="-10.714287"
         style="font-size:120px;font-weight:bold;text-align:center;text-anchor:middle"
         id="tspan11299">centers</tspan></text>
    <text
       x="-635.87579"
       y="1365.8582"
       style="font-size:120px;font-style:normal;font-weight:normal;fill:#000000;fill-opacity:1;stroke:none;stroke-width:1px;stroke-linecap:butt;stroke-linejoin:miter;stroke-opacity:1;font-family:Arial"
       id="text11303"
       xml:space="preserve"><tspan
         x="-635.87579"
         y="1365.8582"
         style="font-weight:bold"
         id="tspan11305">FMN</tspan></text>
    <text
       x="-1067.2109"
       y="1796.6882"
       style="font-size:120px;font-style:normal;font-weight:normal;fill:#000000;fill-opacity:1;stroke:none;stroke-width:1px;stroke-linecap:butt;stroke-linejoin:miter;stroke-opacity:1;font-family:Arial"
       id="text11309"
       xml:space="preserve"><tspan
         x="-1067.2109"
         y="1796.6882"
         style="font-size:150px;font-weight:bold"
         id="tspan11311">NADH</tspan></text>
    <path
       d="M -328.76828,1796.6882 L -328.76828,1689.3152 L -307.67453,1689.3152 L -263.72922,1761.0193 L -263.72922,1689.3152 L -243.58762,1689.3152 L -243.58762,1796.6882 L -265.34055,1796.6882 L -308.62668,1726.6687 L -308.62668,1796.6882 L -328.76828,1796.6882 z M -123.7634,1796.6882 L -147.34738,1796.6882 L -156.72238,1772.2986 L -199.6423,1772.2986 L -208.50461,1796.6882 L -231.50266,1796.6882 L -189.68137,1689.3152 L -166.75656,1689.3152 L -123.7634,1796.6882 z M -163.68039,1754.2077 L -178.47531,1714.364 L -192.97726,1754.2077 L -163.68039,1754.2077 z M -112.26437,1689.3152 L -72.64035,1689.3152 C -63.704863,1689.3153 -56.893346,1689.9989 -52.20578,1691.3659 C -45.907029,1693.2215 -40.511527,1696.5174 -36.019257,1701.2536 C -31.527161,1705.9901 -28.109195,1711.7884 -25.76535,1718.6487 C -23.4217,1725.5091 -22.249826,1733.9686 -22.249725,1744.0271 C -22.249826,1752.865 -23.348458,1760.4822 -25.545624,1766.8786 C -28.231266,1774.6912 -32.06427,1781.0144 -37.044647,1785.8484 C -40.804495,1789.5105 -45.882615,1792.3669 -52.279022,1794.4177 C -57.064245,1795.9314 -63.460722,1796.6882 -71.468475,1796.6882 L -112.26437,1796.6882 L -112.26437,1689.3152 z M -90.584686,1707.4792 L -90.584686,1778.5974 L -74.398163,1778.5974 C -68.34353,1778.5974 -63.973417,1778.2556 -61.287811,1777.572 C -57.772252,1776.6931 -54.854774,1775.2039 -52.53537,1773.1042 C -50.216107,1771.0046 -48.324019,1767.5501 -46.8591,1762.7405 C -45.394334,1757.9309 -44.661913,1751.3758 -44.661835,1743.0749 C -44.661913,1734.7742 -45.394334,1728.4022 -46.8591,1723.9587 C -48.324019,1719.5154 -50.374798,1716.0486 -53.011444,1713.5583 C -55.64823,1711.0682 -58.992954,1709.3836 -63.045624,1708.5046 C -66.073025,1707.8211 -72.005636,1707.4793 -80.843475,1707.4792 L -90.584686,1707.4792 z M 144.44949,1781.2341 L 144.44949,1753.3288 L 116.32449,1753.3288 L 116.32449,1734.0661 L 144.44949,1734.0661 L 144.44949,1706.1609 L 163.19949,1706.1609 L 163.19949,1734.0661 L 191.39774,1734.0661 L 191.39774,1753.3288 L 163.19949,1753.3288 L 163.19949,1781.2341 L 144.44949,1781.2341 z M 250.28445,1796.6882 L 250.28445,1689.3152 L 271.96414,1689.3152 L 271.96414,1731.5759 L 314.44461,1731.5759 L 314.44461,1689.3152 L 336.1243,1689.3152 L 336.1243,1796.6882 L 314.44461,1796.6882 L 314.44461,1749.74 L 271.96414,1749.74 L 271.96414,1796.6882 L 250.28445,1796.6882 z "
       style="font-size:120px;font-style:normal;font-weight:normal;fill:#000000;fill-opacity:1;stroke:none;stroke-width:1px;stroke-linecap:butt;stroke-linejoin:miter;stroke-opacity:1;font-family:Arial"
       id="text11318" />
    <path
       d="M 36.58707,1695.1789 L 36.58707,1672.8547 L 14.08707,1672.8547 L 14.08707,1657.4446 L 36.58707,1657.4446 L 36.58707,1635.1203 L 51.58707,1635.1203 L 51.58707,1657.4446 L 74.145664,1657.4446 L 74.145664,1672.8547 L 51.58707,1672.8547 L 51.58707,1695.1789 L 36.58707,1695.1789 z "
       style="font-size:120px;font-style:normal;font-weight:normal;fill:#000000;fill-opacity:1;stroke:none;stroke-width:1px;stroke-linecap:butt;stroke-linejoin:miter;stroke-opacity:1;font-family:Arial"
       id="text11322" />
    <path
       d="M 395.19122,1695.1789 L 395.19122,1672.8547 L 372.69122,1672.8547 L 372.69122,1657.4446 L 395.19122,1657.4446 L 395.19122,1635.1203 L 410.19122,1635.1203 L 410.19122,1657.4446 L 432.74982,1657.4446 L 432.74982,1672.8547 L 410.19122,1672.8547 L 410.19122,1695.1789 L 395.19122,1695.1789 z "
       style="font-size:120px;font-style:normal;font-weight:normal;fill:#000000;fill-opacity:1;stroke:none;stroke-width:1px;stroke-linecap:butt;stroke-linejoin:miter;stroke-opacity:1;font-family:Arial"
       id="text11326" />
    <path
       d="M 475.59578,752.66734 L 475.59578,645.29434 L 497.27547,645.29434 L 497.27547,687.55504 L 539.75594,687.55504 L 539.75594,645.29434 L 561.43563,645.29434 L 561.43563,752.66734 L 539.75594,752.66734 L 539.75594,705.71914 L 497.27547,705.71914 L 497.27547,752.66734 L 475.59578,752.66734 z M 620.50255,651.15804 L 620.50255,628.83384 L 598.00255,628.83384 L 598.00255,613.42374 L 620.50255,613.42374 L 620.50255,591.09944 L 635.50255,591.09944 L 635.50255,613.42374 L 658.06115,613.42374 L 658.06115,628.83384 L 635.50255,628.83384 L 635.50255,651.15804 L 620.50255,651.15804 z M 386.24031,752.66732 L 386.24031,731.06087 L 342.29499,731.06087 L 342.29499,713.04329 L 388.87702,644.85482 L 406.16218,644.85482 L 406.16218,712.97005 L 419.49226,712.97005 L 419.49226,731.06087 L 406.16218,731.06087 L 406.16218,752.66732 L 386.24031,752.66732 z M 386.24031,712.97005 L 386.24031,676.27571 L 361.55769,712.97005 L 386.24031,712.97005 z "
       style="font-size:120px;font-style:normal;font-weight:normal;fill:#000000;fill-opacity:1;stroke:none;stroke-width:1px;stroke-linecap:butt;stroke-linejoin:miter;stroke-opacity:1;font-family:Arial"
       id="path11334" />
    <path
       d="M 1303.2785,752.66734 L 1303.2785,645.29434 L 1324.9582,645.29434 L 1324.9582,687.55504 L 1367.4387,687.55504 L 1367.4387,645.29434 L 1389.1183,645.29434 L 1389.1183,752.66734 L 1367.4387,752.66734 L 1367.4387,705.71914 L 1324.9582,705.71914 L 1324.9582,752.66734 L 1303.2785,752.66734 z M 1448.1853,651.15804 L 1448.1853,628.83384 L 1425.6853,628.83384 L 1425.6853,613.42374 L 1448.1853,613.42374 L 1448.1853,591.09944 L 1463.1853,591.09944 L 1463.1853,613.42374 L 1485.7439,613.42374 L 1485.7439,628.83384 L 1463.1853,628.83384 L 1463.1853,651.15804 L 1448.1853,651.15804 z M 1243.0734,733.55111 L 1243.0734,752.66732 L 1170.9299,752.66732 C 1171.7111,745.44076 1174.0549,738.59262 1177.9611,732.12288 C 1181.8674,725.65318 1189.5822,717.07165 1201.1057,706.37826 C 1210.383,697.73573 1216.0714,691.87636 1218.1711,688.80013 C 1221.0031,684.55215 1222.4191,680.35294 1222.4191,676.20247 C 1222.4191,671.61271 1221.1862,668.08488 1218.7204,665.61898 C 1216.2545,663.15325 1212.8488,661.92034 1208.5031,661.92025 C 1204.2062,661.92034 1200.7882,663.21428 1198.2492,665.80208 C 1195.7101,668.39006 1194.2453,672.68693 1193.8547,678.69271 L 1173.3469,676.64193 C 1174.5676,665.31389 1178.4006,657.18401 1184.8459,652.25228 C 1191.2912,647.32074 1199.3478,644.85493 1209.0158,644.85482 C 1219.6115,644.85493 1227.9367,647.71137 1233.9914,653.42415 C 1240.046,659.13714 1243.0734,666.24162 1243.0734,674.73763 C 1243.0734,679.57169 1242.2067,684.17373 1240.4733,688.54378 C 1238.7399,692.91396 1235.9933,697.49159 1232.2336,702.27669 C 1229.7433,705.45057 1225.2511,710.01599 1218.757,715.97298 C 1212.2628,721.93004 1208.1491,725.88512 1206.4157,727.83822 C 1204.6823,729.79136 1203.2785,731.69566 1202.2043,733.55111 L 1243.0734,733.55111 z "
       style="font-size:150px;font-style:normal;font-weight:normal;fill:#000000;fill-opacity:1;stroke:none;stroke-width:1px;stroke-linecap:butt;stroke-linejoin:miter;stroke-opacity:1;font-family:Arial"
       id="path11376" />
    <path
       d="M -740.07143,1645.7588 C -740.07143,1645.7588 -554.35714,1167.1873 -337.21429,1624.3302"
       style="color:#000000;fill:none;fill-opacity:1;fill-rule:evenodd;stroke:#000000;stroke-width:12;stroke-linecap:butt;stroke-linejoin:miter;marker:none;marker-start:none;marker-mid:none;marker-end:none;stroke-miterlimit:4;stroke-dasharray:none;stroke-dashoffset:0;stroke-opacity:1;visibility:visible;display:inline;overflow:visible;enable-background:accumulate"
       id="path11384" />
    <path
       d="M -324.41932,1647.9578 L -372.38967,1617.846 L -342.64323,1616.4547 L -326.62539,1591.3313 L -324.41932,1647.9578 z "
       style="fill:#000000;fill-rule:evenodd;stroke:#000000;stroke-width:1px;stroke-linecap:butt;stroke-linejoin:miter;stroke-opacity:1"
       id="path11386" />
    <path
       d="M 447.75,-647.37573 L 400.09375,-588.03198 L 441.75,-588.03198 L 441.75,608.24927 L 453.75,608.24927 L 453.75,-588.03198 L 495.4375,-588.03198 L 447.75,-647.37573 z "
       style="color:#000000;fill:#000000;fill-opacity:1;fill-rule:evenodd;stroke:none;stroke-width:12;stroke-linecap:butt;stroke-linejoin:miter;marker:none;marker-start:none;marker-mid:none;marker-end:none;stroke-miterlimit:4;stroke-dashoffset:0;stroke-opacity:1;visibility:visible;display:inline;overflow:visible;enable-background:accumulate"
       id="path11393" />
    <path
       d="M 1284.8929,-23.26859 L 1237.2366,36.07516 L 1278.8929,36.07516 L 1278.8929,608.24927 L 1290.8929,608.24927 L 1290.8929,36.07516 L 1332.5804,36.07516 L 1284.8929,-23.26859 z "
       style="color:#000000;fill:#000000;fill-opacity:1;fill-rule:evenodd;stroke:none;stroke-width:12;stroke-linecap:butt;stroke-linejoin:miter;marker:none;marker-start:none;marker-mid:none;marker-end:none;stroke-miterlimit:4;stroke-dashoffset:0;stroke-opacity:1;visibility:visible;display:inline;overflow:visible;enable-background:accumulate"
       id="path13348" />
    <path
       d="M 1218.2891,-34.552043 L 1213.9888,-128.4536 L 1274.3754,-83.973173 L 1218.2891,-34.552043 z "
       style="color:#000000;fill:#000000;fill-opacity:1;fill-rule:evenodd;stroke:none;stroke-width:12;stroke-linecap:square;stroke-linejoin:miter;marker:none;marker-start:none;marker-mid:none;marker-end:none;stroke-miterlimit:4;stroke-dashoffset:0;stroke-opacity:1;visibility:visible;display:inline;overflow:visible;enable-background:accumulate"
       id="path13351" />
    <text
       x="-275.11472"
       y="791.09912"
       style="font-size:120px;font-style:normal;font-weight:normal;fill:#000000;fill-opacity:1;stroke:none;stroke-width:1px;stroke-linecap:butt;stroke-linejoin:miter;stroke-opacity:1;font-family:Arial"
       id="text13358"
       xml:space="preserve"><tspan
         x="-275.11472"
         y="791.09912"
         style="font-weight:bold"
         id="tspan13360">2 e</tspan></text>
    <path
       d="M -104.20627,715.79212 L -104.20627,706.5636 L -54.152557,706.5636 L -54.152557,715.79212 L -104.20627,715.79212 z "
       style="font-size:150px;font-style:normal;font-weight:normal;fill:#000000;fill-opacity:1;stroke:none;stroke-width:1px;stroke-linecap:butt;stroke-linejoin:miter;stroke-opacity:1;font-family:Arial"
       id="text13362" />
    <path
       d="M 1582.2188,-229.18823 C 1557.04,-230.62176 1531.3232,-213.31862 1526.375,-188.06323 C 1520.3959,-164.14265 1523.9812,-134.89178 1544,-118.46948 C 1560.9568,-104.95983 1585.2039,-102.84697 1605.2813,-109.96948 C 1613.8304,-104.07801 1622.712,-97.997933 1633.125,-96.094483 C 1637.6661,-104.53467 1642.0179,-113.09533 1646.4375,-121.62573 C 1641.011,-124.24102 1633.7667,-125.5882 1629.625,-129.40698 C 1643.4756,-150.86303 1642.9995,-179.90386 1631.9688,-202.50073 C 1622.0666,-219.83517 1602.0609,-229.99945 1582.2188,-229.18823 z M 1583.1563,-198.68823 C 1596.3985,-198.75246 1605.9828,-185.39595 1605.3438,-172.75073 C 1606.1108,-164.41779 1605.4769,-155.74629 1601.625,-148.21948 C 1594.8863,-152.63013 1587.4487,-155.81781 1579.75,-158.12573 C 1576.5314,-151.91768 1573.5867,-144.59562 1570.0938,-139.12573 C 1557.5384,-146.85125 1557.2706,-163.64531 1558.7188,-176.65698 C 1559.9534,-187.83166 1568.6406,-198.82363 1580.5313,-198.56323 C 1581.4045,-198.65062 1582.2792,-198.67764 1583.1563,-198.68823 z M 1583.0625,-48.875733 C 1559.0959,-50.357683 1534.5033,-35.405308 1527.4688,-12.063233 C 1520.3813,12.095331 1522.5858,41.904063 1541.6563,59.936767 C 1558.618,75.090661 1584.1871,77.871639 1605.2813,70.405517 C 1613.8548,76.20449 1622.6183,82.425497 1633.125,84.155517 C 1637.2513,76.756568 1640.9621,69.140535 1644.9375,61.655517 C 1644.2101,68.643293 1644.1097,75.00411 1652.9375,72.436767 C 1661.4896,72.436767 1670.0417,72.436767 1678.5938,72.436767 C 1678.5938,56.780517 1678.5937,41.124267 1678.5938,25.468017 C 1688.7604,25.468017 1698.9271,25.468017 1709.0938,25.468017 C 1709.0937,41.124267 1709.0938,56.780517 1709.0938,72.436767 C 1720.3125,72.436767 1731.5313,72.436767 1742.75,72.436767 C 1742.75,32.6451 1742.75,-7.1465662 1742.75,-46.938233 C 1731.5313,-46.938233 1720.3125,-46.938233 1709.0938,-46.938233 C 1709.0938,-32.8549 1709.0938,-18.771566 1709.0938,-4.6882332 C 1698.9271,-4.6882332 1688.7604,-4.6882332 1678.5938,-4.6882332 C 1678.5937,-18.771566 1678.5938,-32.8549 1678.5938,-46.938233 C 1667.375,-46.938233 1656.1563,-46.938233 1644.9375,-46.938233 C 1644.9375,-11.9174 1644.9375,23.103434 1644.9375,58.124267 C 1640.0751,55.742632 1633.0308,54.496906 1629.6563,50.905517 C 1643.4959,29.439549 1642.9912,0.31389579 1631.9375,-22.188233 C 1622.248,-39.266093 1602.5099,-49.315593 1583.0625,-48.875733 z M 1583.125,-18.344483 C 1596.4237,-18.378114 1605.9993,-5.0830722 1605.3438,7.5930168 C 1606.1184,15.921392 1605.4813,24.577159 1601.6563,32.124267 C 1594.9129,27.724555 1587.4233,24.571459 1579.75,22.249267 C 1576.334,28.348647 1573.8751,36.028357 1569.9375,41.186767 C 1557.4286,33.096293 1557.1298,16.206553 1558.875,2.9055168 C 1560.2301,-8.4745702 1569.7925,-19.11318 1581.9063,-18.281983 C 1582.3151,-18.210061 1582.7179,-18.355812 1583.125,-18.344483 z M 1774.2188,23.655517 C 1760.167,24.559367 1747.4624,37.202501 1748.3438,51.530517 C 1749.0201,56.394061 1754.4653,58.497568 1758.7188,57.124267 C 1763.6595,58.157774 1771.6962,60.432907 1773.7813,53.874267 C 1773.2792,50.627279 1775.2221,45.482057 1779.2813,47.186767 C 1783.9347,51.1026 1778.4288,56.618875 1775.5938,59.718017 C 1764.3422,70.926699 1749.6646,81.678543 1747.0313,98.530517 C 1746.0375,102.8633 1748.0218,107.00391 1752.6563,107.53052 C 1759.9676,108.32683 1767.3344,106.69882 1774.6875,107.56177 C 1785.75,107.56177 1796.8125,107.56177 1807.875,107.56177 C 1804.0049,99.922845 1810.9986,89.379811 1803.125,83.405517 C 1798.1854,82.243605 1791.4505,83.093466 1787.7188,82.593017 C 1798.5874,73.031265 1809.7475,59.359322 1806.2813,43.811767 C 1803.3218,30.573782 1789.3578,22.292956 1776.25,23.561767 C 1775.5705,23.53062 1774.8952,23.604514 1774.2188,23.655517 z "
       style="font-size:120px;font-style:normal;font-weight:normal;fill:#ffffff;fill-opacity:1;stroke:none;stroke-width:1px;stroke-linecap:butt;stroke-linejoin:miter;stroke-opacity:1;font-family:Arial"
       id="text2324" />
    <text
       x="1523.3514"
       y="-114.84042"
       style="font-size:120px;font-style:normal;font-weight:normal;fill:#000000;fill-opacity:1;stroke:none;stroke-width:1px;stroke-linecap:butt;stroke-linejoin:miter;stroke-opacity:1;font-family:Arial"
       id="text2286"
       xml:space="preserve"><tspan
         x="1523.3514"
         y="-114.84042"
         style="font-size:150px;font-weight:bold"
         id="tspan2288">Q</tspan><tspan
         x="1523.3514"
         y="72.659576"
         dy="-7.1428576"
         style="font-size:150px;font-weight:bold"
         id="tspan2290">QH</tspan></text>
    <text
       x="1750.2061"
       y="100.64212"
       style="font-size:150px;font-style:normal;font-weight:normal;fill:#000000;fill-opacity:1;stroke:none;stroke-width:1px;stroke-linecap:butt;stroke-linejoin:miter;stroke-opacity:1;font-family:Arial"
       id="text2292"
       xml:space="preserve"><tspan
         x="1750.2061"
         y="100.64212"
         style="font-size:100px;font-weight:bold"
         id="tspan2294">2</tspan></text>
    <path
       d="M 1501.0878,-183.60371 C 1443.2772,-173.19494 1384.4191,-160.98962 1332.5253,-132.54121 C 1315.8118,-122.90174 1298.4418,-108.06598 1297.0253,-87.509963 C 1296.1148,-67.710323 1310.2524,-51.392623 1325.5374,-40.619893 C 1357.2954,-16.863961 1395.6151,-4.0992812 1432.651,9.1936388 C 1439.7137,11.551869 1446.7932,13.86989 1453.9003,16.08378 C 1446.1039,24.48096 1438.4191,32.75024 1430.3691,40.86503 C 1459.8089,34.66727 1489.1319,27.92567 1518.5878,21.80253 C 1496.8649,1.0128588 1474.8679,-19.524661 1453.1191,-40.197463 C 1455.4568,-29.217021 1457.8268,-18.243461 1460.1503,-7.2599712 C 1416.732,-21.601941 1371.876,-36.099721 1334.9941,-63.916213 C 1327.7339,-69.858993 1318.5923,-78.783743 1321.5253,-89.134963 C 1326.9506,-103.16325 1341.7641,-109.89266 1354.0878,-116.82246 C 1396.274,-137.99426 1442.9547,-147.69063 1488.8336,-157.17485 C 1495.9619,-158.51845 1503.1088,-159.76095 1510.2753,-160.88496 C 1505.6787,-167.58609 1512.1522,-178.3053 1503.9941,-183.10371 C 1503.0681,-183.55727 1502.0994,-183.7025 1501.0878,-183.60371 z M 1486.4628,9.4900288 C 1487.8554,10.990659 1491.9673,15.04088 1491.7128,14.08378 C 1489.3259,13.91019 1485.5832,16.24666 1484.4628,15.49003 C 1485.1473,13.6706 1485.5156,10.528679 1486.4628,9.4900288 z "
       style="color:#000000;fill:#ffffff;fill-opacity:1;fill-rule:evenodd;stroke:none;stroke-width:12;stroke-linecap:butt;stroke-linejoin:miter;marker:none;stroke-miterlimit:4;stroke-dashoffset:0;stroke-opacity:1;visibility:visible;display:inline;overflow:visible;enable-background:accumulate"
       id="path2416" />
    <path
       d="M 1502.1121,-171.59399 C 1502.1121,-171.59399 1083.4038,-105.93407 1479.3836,11.243621"
       style="color:#000000;fill:none;fill-opacity:1;fill-rule:evenodd;stroke:#000000;stroke-width:12;stroke-linecap:butt;stroke-linejoin:miter;marker:none;marker-start:none;marker-mid:none;marker-end:none;stroke-miterlimit:4;stroke-dasharray:none;stroke-dashoffset:0;stroke-opacity:1;visibility:visible;display:inline;overflow:visible;enable-background:accumulate"
       id="path2297" />
    <path
       d="M 1505.4474,17.957499 L 1450.1159,30.052605 L 1470.3773,8.2292048 L 1464.2194,-20.922725 L 1505.4474,17.957499 z "
       style="fill:#000000;fill-rule:evenodd;stroke:#000000;stroke-width:1px;stroke-linecap:butt;stroke-linejoin:miter;stroke-opacity:1"
       id="path2318" />
  </g>
</svg>
