<?xml version="1.0"?>
<svg xmlns:rdf="http://www.w3.org/1999/02/22-rdf-syntax-ns#" xmlns="http://www.w3.org/2000/svg" xmlns:cc="http://creativecommons.org/ns#" xmlns:dc="http://purl.org/dc/elements/1.1/" id="svg2" viewBox="0 0 4124.8 2444.1" version="1.0">
 <g id="layer1" transform="translate(2125 647.38)">
  <text id="text3020" xml:space="preserve" font-size="12px" y="35.126942" x="-2124.9736" font-family="Bitstream Vera Sans" fill="#000000">       <tspan id="tspan3022" y="35.126942" x="-2124.9736"/>     </text>
  <path id="path9170" d="m-354.11-275.93c0 31.74-27.03 57.5-60.34 57.5s-60.34-25.76-60.34-57.5c0-31.75 27.03-57.51 60.34-57.51s60.34 25.76 60.34 57.51zm-91.63 49.17v130.61m62.58-130.61v146.41" stroke="#000" stroke-width="5" fill="#6ebec1"/>
  <path id="path9172" d="m-474.79 119.29c0-31.747 27.03-57.511 60.34-57.511s60.34 25.764 60.34 57.511c0 31.74-27.03 57.51-60.34 57.51s-60.34-25.77-60.34-57.51zm91.63-49.175v-130.61m-62.58 130.61v-146.41" stroke="#000" stroke-width="5" fill="#6ebec1"/>
  <path id="path9174" d="m-233.9-275.93c0 31.74-27.03 57.5-60.34 57.5s-60.34-25.76-60.34-57.5c0-31.75 27.03-57.51 60.34-57.51s60.34 25.76 60.34 57.51zm-91.63 49.17v130.61m62.58-130.61v146.41" stroke="#000" stroke-width="5" fill="#6ebec1"/>
  <path id="path9176" d="m-354.58 119.29c0-31.747 27.03-57.511 60.34-57.511s60.34 25.764 60.34 57.511c0 31.74-27.03 57.51-60.34 57.51s-60.34-25.77-60.34-57.51zm91.63-49.175v-130.61m-62.58 130.61v-146.41" stroke="#000" stroke-width="5" fill="#6ebec1"/>
  <path id="path2283" d="m-954.1-275.93c0 31.74-27.03 57.5-60.3 57.5-33.3 0-60.4-25.76-60.4-57.5 0-31.75 27.1-57.51 60.4-57.51 33.27 0 60.3 25.76 60.3 57.51zm-91.6 49.17v130.61m62.56-130.61v146.41" stroke="#000" stroke-width="5" fill="#6ebec1"/>
  <path id="path9151" d="m-1074.8 119.29c0-31.747 27.1-57.511 60.4-57.511 33.27 0 60.3 25.764 60.3 57.511 0 31.74-27.03 57.51-60.3 57.51-33.3 0-60.4-25.77-60.4-57.51zm91.66-49.175v-130.61m-62.56 130.61v-146.41" stroke="#000" stroke-width="5" fill="#6ebec1"/>
  <path id="path9153" d="m-834.1-275.93c0 31.74-27.03 57.5-60.34 57.5-33.3 0-60.34-25.76-60.34-57.5 0-31.75 27.04-57.51 60.34-57.51 33.31 0 60.34 25.76 60.34 57.51zm-91.63 49.17v130.61m62.59-130.61v146.41" stroke="#000" stroke-width="5" fill="#6ebec1"/>
  <path id="path9155" d="m-954.78 119.29c0-31.747 27.04-57.511 60.34-57.511 33.31 0 60.34 25.764 60.34 57.511 0 31.74-27.03 57.51-60.34 57.51-33.3 0-60.34-25.77-60.34-57.51zm91.64-49.175v-130.61m-62.59 130.61v-146.41" stroke="#000" stroke-width="5" fill="#6ebec1"/>
  <path id="path9157" d="m-715.53-275.93c0 31.74-27.03 57.5-60.33 57.5-33.31 0-60.34-25.76-60.34-57.5 0-31.75 27.03-57.51 60.34-57.51 33.3 0 60.33 25.76 60.33 57.51zm-91.63 49.17v130.61m62.59-130.61v146.41" stroke="#000" stroke-width="5" fill="#6ebec1"/>
  <path id="path9159" d="m-836.2 119.29c0-31.747 27.03-57.511 60.33-57.511 33.31 0 60.34 25.764 60.34 57.511 0 31.74-27.03 57.51-60.34 57.51-33.3 0-60.33-25.77-60.33-57.51zm91.63-49.175v-130.61m-62.59 130.61v-146.41" stroke="#000" stroke-width="5" fill="#6ebec1"/>
  <path id="path9161" d="m-594.99-275.93c0 31.74-27.03 57.5-60.34 57.5s-60.34-25.76-60.34-57.5c0-31.75 27.03-57.51 60.34-57.51s60.34 25.76 60.34 57.51zm-91.63 49.17v130.61m62.58-130.61v146.41" stroke="#000" stroke-width="5" fill="#6ebec1"/>
  <path id="path9163" d="m-715.67 119.29c0-31.747 27.03-57.511 60.34-57.511s60.34 25.764 60.34 57.511c0 31.74-27.03 57.51-60.34 57.51s-60.34-25.77-60.34-57.51zm91.63-49.175v-130.61m-62.58 130.61v-146.41" stroke="#000" stroke-width="5" fill="#6ebec1"/>
  <path id="path9165" d="m-474.32-275.93c0 31.74-27.03 57.5-60.34 57.5s-60.34-25.76-60.34-57.5c0-31.75 27.03-57.51 60.34-57.51s60.34 25.76 60.34 57.51zm-91.63 49.17v130.61m62.58-130.61v146.41" stroke="#000" stroke-width="5" fill="#6ebec1"/>
  <path id="path9167" d="m-595 119.29c0-31.747 27.03-57.511 60.34-57.511s60.34 25.764 60.34 57.511c0 31.74-27.03 57.51-60.34 57.51s-60.34-25.77-60.34-57.51zm91.63-49.175v-130.61m-62.58 130.61v-146.41" stroke="#000" stroke-width="5" fill="#6ebec1"/>
  <path id="path9179" d="m-1135-218.44h0.3c33.4 0 60.4-25.75 60.4-57.5 0-31.74-27-57.5-60.4-57.5h-0.3m31.6 106.68v146.41" stroke="#000" stroke-width="5" fill="#6ebec1"/>
  <path id="path9181" d="m-1135 176.78h0.3c33.4 0 60.4-25.76 60.4-57.5 0-31.744-27-57.499-60.4-57.499-0.1 0-0.2-0.001-0.3 0m31.6 8.334v-130.61" stroke="#000" stroke-width="5" fill="#6ebec1"/>
  <path id="path10253" d="m979.9-275.93c0 31.74 27 57.5 60.3 57.5s60.4-25.76 60.4-57.5c0-31.75-27.1-57.51-60.4-57.51s-60.3 25.76-60.3 57.51zm91.6 49.17v130.61m-62.5-130.61v146.41" stroke="#000" stroke-width="5" fill="#6ebec1"/>
  <path id="path10255" d="m1100.6 119.29c0-31.747-27.1-57.511-60.4-57.511s-60.3 25.764-60.3 57.511c0 31.74 27 57.51 60.3 57.51s60.4-25.77 60.4-57.51zm-91.6-49.175v-130.61m62.5 130.61v-146.41" stroke="#000" stroke-width="5" fill="#6ebec1"/>
  <path id="path10249" d="m1099.1-275.93c0 31.74 27 57.5 60.3 57.5 33.4 0 60.4-25.76 60.4-57.5 0-31.75-27-57.51-60.4-57.51-33.3 0-60.3 25.76-60.3 57.51zm91.6 49.17v130.61m-62.5-130.61v146.41" stroke="#000" stroke-width="5" fill="#6ebec1"/>
  <path id="path10251" d="m1219.8 119.29c0-31.747-27-57.511-60.3-57.511-33.4 0-60.4 25.764-60.4 57.511 0 31.74 27 57.51 60.4 57.51 33.3 0 60.3-25.77 60.3-57.51zm-91.6-49.175v-130.61m62.5 130.61v-146.41" stroke="#000" stroke-width="5" fill="#6ebec1"/>
  <path id="path10259" d="m1699.1-275.93c0 31.74 27 57.5 60.3 57.5s60.4-25.76 60.4-57.5c0-31.75-27.1-57.51-60.4-57.51s-60.3 25.76-60.3 57.51zm91.6 49.17v130.61m-62.6-130.61v146.41" stroke="#000" stroke-width="5" fill="#6ebec1"/>
  <path id="path10261" d="m1819.8 119.29c0-31.747-27.1-57.511-60.4-57.511s-60.3 25.764-60.3 57.511c0 31.74 27 57.51 60.3 57.51s60.4-25.77 60.4-57.51zm-91.7-49.175v-130.61m62.6 130.61v-146.41" stroke="#000" stroke-width="5" fill="#6ebec1"/>
  <path id="path10263" d="m1579.1-275.93c0 31.74 27 57.5 60.3 57.5s60.4-25.76 60.4-57.5c0-31.75-27.1-57.51-60.4-57.51s-60.3 25.76-60.3 57.51zm91.6 49.17v130.61m-62.6-130.61v146.41" stroke="#000" stroke-width="5" fill="#6ebec1"/>
  <path id="path10265" d="m1699.8 119.29c0-31.747-27.1-57.511-60.4-57.511s-60.3 25.764-60.3 57.511c0 31.74 27 57.51 60.3 57.51s60.4-25.77 60.4-57.51zm-91.7-49.175v-130.61m62.6 130.61v-146.41" stroke="#000" stroke-width="5" fill="#6ebec1"/>
  <path id="path10267" d="m1460.5-275.93c0 31.74 27.1 57.5 60.4 57.5s60.3-25.76 60.3-57.5c0-31.75-27-57.51-60.3-57.51s-60.4 25.76-60.4 57.51zm91.7 49.17v130.61m-62.6-130.61v146.41" stroke="#000" stroke-width="5" fill="#6ebec1"/>
  <path id="path10269" d="m1581.2 119.29c0-31.747-27-57.511-60.3-57.511s-60.4 25.764-60.4 57.511c0 31.74 27.1 57.51 60.4 57.51s60.3-25.77 60.3-57.51zm-91.6-49.175v-130.61m62.6 130.61v-146.41" stroke="#000" stroke-width="5" fill="#6ebec1"/>
  <path id="path10271" d="m1340-275.93c0 31.74 27 57.5 60.3 57.5s60.4-25.76 60.4-57.5c0-31.75-27.1-57.51-60.4-57.51s-60.3 25.76-60.3 57.51zm91.6 49.17v130.61m-62.6-130.61v146.41" stroke="#000" stroke-width="5" fill="#6ebec1"/>
  <path id="path10273" d="m1460.7 119.29c0-31.747-27.1-57.511-60.4-57.511s-60.3 25.764-60.3 57.511c0 31.74 27 57.51 60.3 57.51s60.4-25.77 60.4-57.51zm-91.7-49.175v-130.61m62.6 130.61v-146.41" stroke="#000" stroke-width="5" fill="#6ebec1"/>
  <path id="path10275" d="m1219.3-275.93c0 31.74 27.1 57.5 60.4 57.5s60.3-25.76 60.3-57.5c0-31.75-27-57.51-60.3-57.51s-60.4 25.76-60.4 57.51zm91.6 49.17v130.61m-62.5-130.61v146.41" stroke="#000" stroke-width="5" fill="#6ebec1"/>
  <path id="path10277" d="m1340 119.29c0-31.747-27-57.511-60.3-57.511s-60.4 25.764-60.4 57.511c0 31.74 27.1 57.51 60.4 57.51s60.3-25.77 60.3-57.51zm-91.6-49.175v-130.61m62.5 130.61v-146.41" stroke="#000" stroke-width="5" fill="#6ebec1"/>
  <path id="path10279" d="m1880-218.44h-0.3c-33.4 0-60.4-25.75-60.4-57.5 0-31.74 27-57.5 60.4-57.5h0.3m-31.6 106.68v146.41" stroke="#000" stroke-width="5" fill="#6ebec1"/>
  <path id="path10281" d="m1880 176.78h-0.3c-33.4 0-60.4-25.76-60.4-57.5 0-31.744 27-57.499 60.4-57.499 0.1 0 0.2-0.001 0.3 0m-31.6 8.334v-130.61" stroke="#000" stroke-width="5" fill="#6ebec1"/>
  <path id="path3346" style="color:#000000" d="m432.78-451.38c-520.46 0-942.84 172.81-942.84 385.72 0 49.173 22.53 96.184 63.59 139.44-96.73 135.79-186.54 315.93-253.28 521.34-160.83 494.98-127.02 950.08 75.47 1015.9 202.49 65.8 497.36-282.5 658.19-777.47 61.808-190.24 94.87-374.6 100.65-533.22 93.75 12.79 194.01 19.72 298.22 19.72 520.46 0 942.92-172.77 942.92-385.69 0-212.91-422.46-385.72-942.92-385.72z" fill-rule="evenodd" stroke="#000" stroke-linecap="square" stroke-width="10" fill="#99fecc"/>
  <path id="path3205" style="color:#000000" fill-rule="evenodd" fill="#fb990c" d="m-267.04-113.35c0 24.053-19.52 43.573-43.57 43.573s-43.57-19.52-43.57-43.573c0-24.05 19.52-43.57 43.57-43.57s43.57 19.52 43.57 43.57z"/>
  <path id="path3207" style="color:#000000" fill-rule="evenodd" fill="#fb990c" d="m-279.54-52.277c0 25.629-18.72 46.429-41.78 46.429-23.07-0.0004-41.79-20.8-41.79-46.429s18.72-46.429 41.79-46.429c23.06 0 41.78 20.8 41.78 46.429z"/>
  <path id="path3239" style="color:#000000" fill-rule="evenodd" fill="#f93769" d="m-217.57-108.88c0 28.779-21.12 52.139-47.14 52.139-26.03 0-47.15-23.36-47.15-52.139 0-28.79 21.12-52.15 47.15-52.15 26.02 0 47.14 23.36 47.14 52.15z"/>
  <path id="path3194" style="color:#000000" fill-rule="evenodd" fill="#fb990c" d="m-147.21-51.741c0 26.023-18.56 47.143-41.43 47.143-22.87-0.0004-41.43-21.12-41.43-47.143s18.56-47.143 41.43-47.143 41.43 21.12 41.43 47.143z"/>
  <path id="path3241" style="color:#000000" fill-rule="evenodd" fill="#f93769" d="m-208.64-52.098c0 26.022-21.12 47.142-47.15 47.142-26.02 0.0005-47.14-21.12-47.14-47.142 0-26.023 21.12-47.143 47.14-47.143 26.03 0 47.15 21.12 47.15 47.143z"/>
  <path id="path2221" style="color:#000000" fill-rule="evenodd" fill="#fb990c" d="m-170.07-117.81c0 24.049-19.52 43.569-43.57 43.569s-43.57-19.52-43.57-43.569c0-24.05 19.52-43.57 43.57-43.57s43.57 19.52 43.57 43.57z"/>
  <path id="path10285" d="m-511.14 1236.1 231.07-793.2s135.71-312.86 551.43-398.57c320.87-66.159 749.64-122.53 971.44-127.78" stroke="#000" stroke-width="12" fill="none"/>
  <path id="path3263" style="color:#000000" fill-rule="evenodd" fill="#fb990c" d="m-89.089 146.12c0 24.05-19.521 43.57-43.571 43.57s-43.57-19.52-43.57-43.57c0-24.06 19.52-43.58 43.57-43.58s43.571 19.52 43.571 43.58z"/>
  <path id="path3265" style="color:#000000" fill-rule="evenodd" fill="#fb990c" d="m-101.59 207.19c0 25.63-18.72 46.43-41.79 46.43-23.06 0-41.78-20.8-41.78-46.43s18.72-46.43 41.78-46.43c23.07 0 41.79 20.8 41.79 46.43z"/>
  <path id="path3267" style="color:#000000" fill-rule="evenodd" fill="#f93769" d="m-39.625 150.58c0 28.78-21.12 52.14-47.143 52.14-26.022 0-47.142-23.36-47.142-52.14s21.12-52.143 47.142-52.143c26.023 0 47.143 23.363 47.143 52.143z"/>
  <path id="path3269" style="color:#000000" fill-rule="evenodd" fill="#fb990c" d="m30.732 207.72c0 26.03-18.56 47.15-41.428 47.15-22.869 0-41.429-21.12-41.429-47.15 0-26.02 18.56-47.14 41.429-47.14 22.868 0 41.428 21.12 41.428 47.14z"/>
  <path id="path3271" style="color:#000000" fill-rule="evenodd" fill="#f93769" d="m-30.696 207.37c0 26.02-21.12 47.14-47.143 47.14-26.021 0-47.141-21.12-47.141-47.14 0-26.03 21.12-47.15 47.141-47.15 26.023 0 47.143 21.12 47.143 47.15z"/>
  <path id="path3273" style="color:#000000" fill-rule="evenodd" fill="#fb990c" d="m7.875 141.65c0 24.05-19.52 43.57-43.571 43.57-24.052 0-43.572-19.52-43.572-43.57s19.52-43.57 43.572-43.57c24.051 0 43.571 19.52 43.571 43.57z"/>
  <path id="path3277" style="color:#000000" fill-rule="evenodd" fill="#fb990c" d="m-264.09 387.54c0 24.06-19.52 43.58-43.57 43.58s-43.57-19.52-43.57-43.58c0-24.05 19.52-43.57 43.57-43.57s43.57 19.52 43.57 43.57z"/>
  <path id="path3279" style="color:#000000" fill-rule="evenodd" fill="#fb990c" d="m-276.59 448.62c0 25.62-18.72 46.42-41.78 46.42-23.07 0-41.79-20.8-41.79-46.42 0-25.63 18.72-46.43 41.79-46.43 23.06 0 41.78 20.8 41.78 46.43z"/>
  <path id="path3281" style="color:#000000" fill-rule="evenodd" fill="#f93769" d="m-214.63 392.01c0 28.78-21.12 52.14-47.14 52.14s-47.14-23.36-47.14-52.14 21.12-52.14 47.14-52.14 47.14 23.36 47.14 52.14z"/>
  <path id="path3283" style="color:#000000" fill-rule="evenodd" fill="#fb990c" d="m-144.27 449.15c0 26.02-18.56 47.14-41.43 47.14-22.86 0-41.42-21.12-41.42-47.14s18.56-47.14 41.42-47.14c22.87 0 41.43 21.12 41.43 47.14z"/>
  <path id="path3285" style="color:#000000" fill-rule="evenodd" fill="#f93769" d="m-205.7 448.79c0 26.03-21.12 47.15-47.14 47.15s-47.14-21.12-47.14-47.15c0-26.02 21.12-47.14 47.14-47.14s47.14 21.12 47.14 47.14z"/>
  <path id="path3287" style="color:#000000" fill-rule="evenodd" fill="#fb990c" d="m-167.12 383.08c0 24.05-19.52 43.57-43.58 43.57-24.05 0-43.57-19.52-43.57-43.57s19.52-43.57 43.57-43.57c24.06 0 43.58 19.52 43.58 43.57z"/>
  <path id="path3291" style="color:#000000" fill-rule="evenodd" fill="#fb990c" d="m-401.23 828.97c0 24.05-19.52 43.57-43.57 43.57-24.06 0-43.58-19.52-43.58-43.57s19.52-43.57 43.58-43.57c24.05 0 43.57 19.52 43.57 43.57z"/>
  <path id="path3293" style="color:#000000" fill-rule="evenodd" fill="#fb990c" d="m-413.73 890.04c0 25.63-18.72 46.43-41.79 46.43-23.06 0-41.78-20.8-41.78-46.43 0-25.62 18.72-46.42 41.78-46.42 23.07 0 41.79 20.8 41.79 46.42z"/>
  <path id="path3295" style="color:#000000" fill-rule="evenodd" fill="#f93769" d="m-351.77 833.44c0 28.78-21.12 52.14-47.14 52.14s-47.14-23.36-47.14-52.14c0-28.79 21.12-52.15 47.14-52.15s47.14 23.36 47.14 52.15z"/>
  <path id="path3297" style="color:#000000" fill-rule="evenodd" fill="#fb990c" d="m-281.41 890.58c0 26.02-18.56 47.14-41.43 47.14s-41.43-21.12-41.43-47.14 18.56-47.14 41.43-47.14 41.43 21.12 41.43 47.14z"/>
  <path id="path3299" style="color:#000000" fill-rule="evenodd" fill="#f93769" d="m-342.84 890.22c0 26.03-21.12 47.15-47.14 47.15s-47.14-21.12-47.14-47.15c0-26.02 21.12-47.14 47.14-47.14s47.14 21.12 47.14 47.14z"/>
  <path id="path3301" style="color:#000000" fill-rule="evenodd" fill="#fb990c" d="m-304.27 824.51c0 24.05-19.52 43.57-43.57 43.57s-43.57-19.52-43.57-43.57 19.52-43.57 43.57-43.57 43.57 19.52 43.57 43.57z"/>
  <path id="path3305" style="color:#000000" fill-rule="evenodd" fill="#fb990c" d="m255.2-8.8841c0 24.051-19.52 43.571-43.58 43.571-24.05 0-43.57-19.52-43.57-43.571 0-24.052 19.52-43.572 43.57-43.572 24.06 0 43.58 19.52 43.58 43.572z"/>
  <path id="path3307" style="color:#000000" fill-rule="evenodd" fill="#fb990c" d="m242.7 52.187c0 25.629-18.72 46.429-41.79 46.429s-41.79-20.8-41.79-46.429c0-25.628 18.72-46.428 41.79-46.428 23.07-0.0002 41.79 20.8 41.79 46.428z"/>
  <path id="path3309" style="color:#000000" fill-rule="evenodd" fill="#f93769" d="m304.66-4.4198c0 28.783-21.12 52.143-47.14 52.143-26.03 0-47.15-23.36-47.15-52.143s21.12-52.143 47.15-52.143c26.02 0 47.14 23.36 47.14 52.143z"/>
  <path id="path3311" style="color:#000000" fill-rule="evenodd" fill="#fb990c" d="m375.02 52.723c0 26.023-18.56 47.143-41.43 47.143s-41.43-21.12-41.43-47.143 18.56-47.143 41.43-47.143c22.87 0.0002 41.43 21.12 41.43 47.143z"/>
  <path id="path3313" style="color:#000000" fill-rule="evenodd" fill="#f93769" d="m313.59 52.366c0 26.023-21.12 47.143-47.14 47.143-26.03 0-47.15-21.12-47.15-47.143s21.12-47.143 47.15-47.143c26.02 0 47.14 21.12 47.14 47.143z"/>
  <path id="path3315" style="color:#000000" fill-rule="evenodd" fill="#fb990c" d="m352.16-13.348c0 24.051-19.52 43.571-43.57 43.571s-43.57-19.52-43.57-43.571c0-24.052 19.52-43.572 43.57-43.572s43.57 19.52 43.57 43.572z"/>
  <path id="path3319" style="color:#000000" fill-rule="evenodd" fill="#fb990c" d="m592.34-48.884c0 24.051-19.52 43.571-43.57 43.571-24.05 0.0003-43.57-19.52-43.57-43.571 0-24.052 19.52-43.572 43.57-43.572s43.57 19.52 43.57 43.572z"/>
  <path id="path3321" style="color:#000000" fill-rule="evenodd" fill="#fb990c" d="m579.84 12.187c0 25.629-18.72 46.429-41.79 46.429-23.06 0-41.78-20.8-41.78-46.429 0-25.628 18.72-46.428 41.78-46.428 23.07 0 41.79 20.8 41.79 46.428z"/>
  <path id="path3323" style="color:#000000" fill-rule="evenodd" fill="#f93769" d="m641.8-44.42c0 28.783-21.12 52.143-47.14 52.143-26.02 0.0001-47.14-23.36-47.14-52.143s21.12-52.143 47.14-52.143 47.14 23.36 47.14 52.143z"/>
  <path id="path3325" style="color:#000000" fill-rule="evenodd" fill="#fb990c" d="m712.16 12.723c0 26.023-18.56 47.143-41.43 47.143s-41.43-21.12-41.43-47.143 18.56-47.143 41.43-47.143 41.43 21.12 41.43 47.143z"/>
  <path id="path3327" style="color:#000000" fill-rule="evenodd" fill="#f93769" d="m650.73 12.366c0 26.023-21.12 47.143-47.14 47.143s-47.14-21.12-47.14-47.143 21.12-47.143 47.14-47.143 47.14 21.12 47.14 47.143z"/>
  <path id="path3329" style="color:#000000" fill-rule="evenodd" fill="#fb990c" d="m689.3-53.348c0 24.051-19.52 43.571-43.57 43.571-24.05 0.0001-43.57-19.52-43.57-43.571 0-24.052 19.52-43.572 43.57-43.572s43.57 19.52 43.57 43.572z"/>
  <path id="path3333" style="color:#000000" fill-rule="evenodd" fill="#fb990c" d="m964.48-101.74c0 24.05-19.52 43.57-43.57 43.57s-43.57-19.52-43.57-43.57 19.52-43.57 43.57-43.57 43.57 19.52 43.57 43.57z"/>
  <path id="path3335" style="color:#000000" fill-rule="evenodd" fill="#fb990c" d="m951.98-40.67c0 25.629-18.72 46.429-41.78 46.429-23.07-0.0002-41.79-20.8-41.79-46.429 0-25.628 18.72-46.428 41.79-46.428 23.06 0 41.78 20.8 41.78 46.428z"/>
  <path id="path3337" style="color:#000000" fill-rule="evenodd" fill="#f93769" d="m1013.9-97.277c0 28.783-21.07 52.143-47.1 52.143-26.02 0-47.14-23.36-47.14-52.143s21.12-52.143 47.14-52.143c26.03 0 47.1 23.36 47.1 52.143z"/>
  <path id="path3339" style="color:#000000" fill-rule="evenodd" fill="#fb990c" d="m1084.3-40.134c0 26.023-18.6 47.143-41.4 47.143-22.9-0.0002-41.5-21.12-41.5-47.143s18.6-47.143 41.5-47.143c22.8 0 41.4 21.12 41.4 47.143z"/>
  <path id="path3341" style="color:#000000" fill-rule="evenodd" fill="#f93769" d="m1022.9-40.491c0 26.023-21.1 47.143-47.17 47.143-26.02-0.0004-47.14-21.12-47.14-47.143s21.12-47.143 47.14-47.143c26.07 0 47.17 21.12 47.17 47.143z"/>
  <path id="path3343" style="color:#000000" fill-rule="evenodd" fill="#fb990c" d="m1061.4-106.21c0 24.056-19.5 43.576-43.5 43.576-24.08 0-43.6-19.52-43.6-43.576 0-24.05 19.52-43.57 43.6-43.57 24 0 43.5 19.52 43.5 43.57z"/>
  <path id="path6265" style="color:#000000" fill-rule="evenodd" fill="#fb990d" d="m-329.36 636.12c0 26.41-19.36 47.85-43.21 47.85-23.86 0-43.22-21.44-43.22-47.85 0-26.42 19.36-47.86 43.22-47.86 23.85 0 43.21 21.44 43.21 47.86z"/>
  <path id="path6267" style="color:#000000" fill-rule="evenodd" fill="#fb990d" d="m-199.36 636.12c0 26.41-19.36 47.85-43.21 47.85-23.86 0-43.22-21.44-43.22-47.85 0-26.42 19.36-47.86 43.22-47.86 23.85 0 43.21 21.44 43.21 47.86z"/>
  <path id="path6263" style="color:#000000" fill-rule="evenodd" fill="#f93769" d="m-259.71 636.12c0 26.41-21.44 47.85-47.86 47.85s-47.86-21.44-47.86-47.85c0-26.42 21.44-47.86 47.86-47.86s47.86 21.44 47.86 47.86z"/>
  <path id="path6288" style="color:#000000" fill-rule="evenodd" fill="#fb990d" d="m-474.71 1076.5c0 26.4-19.36 47.8-43.22 47.8-23.85 0-43.21-21.4-43.21-47.8s19.36-47.9 43.21-47.9c23.86 0 43.22 21.5 43.22 47.9z"/>
  <path id="path6290" style="color:#000000" fill-rule="evenodd" fill="#fb990d" d="m-344.71 1076.5c0 26.4-19.36 47.8-43.22 47.8-23.85 0-43.21-21.4-43.21-47.8s19.36-47.9 43.21-47.9c23.86 0 43.22 21.5 43.22 47.9z"/>
  <path id="path6292" style="color:#000000" fill-rule="evenodd" fill="#f93769" d="m-405.07 1076.5c0 26.4-21.44 47.8-47.86 47.8s-47.86-21.4-47.86-47.8 21.44-47.9 47.86-47.9 47.86 21.5 47.86 47.9z"/>
  <path id="path11261" d="m127.51 85.88-45.945 59.6 1.972-39.53-31.156-24.4 75.129 4.33z" fill-rule="evenodd" stroke="#000" stroke-width="1px"/>
  <path id="path11273" d="m817.88-43.791-59.8 45.679 12.13-37.67-23.77-31.636 71.44 23.627z" fill-rule="evenodd" stroke="#000" stroke-width="1px"/>
  <path id="path11277" d="m-352.81 693.51 15.08 73.73-28.63-27.33-38.83 7.63 52.38-54.03z" fill-rule="evenodd" stroke="#000" stroke-width="1px"/>
  <path id="path11290" style="color:#000000" fill-rule="evenodd" d="m-449.17 1190.2-90.22-26.4 60.26-38.6 29.96 65z"/>
  <text id="text11295" style="text-anchor:middle;text-align:center" font-family="Arial" xml:space="preserve" font-size="120px" y="-232.09836" x="82.785713" font-weight="bold" fill="#000000">       <tspan id="tspan11297" y="-232.09836" x="82.785713" style="text-anchor:middle;text-align:center">Fe-S</tspan>       <tspan id="tspan11299" y="-82.098358" x="82.785713" style="text-anchor:middle;text-align:center" dy="-10.714287">centers</tspan>     </text>
  <text id="text11303" xml:space="preserve" font-size="120px" y="1365.8582" x="-635.87579" font-family="Arial" fill="#000000">       <tspan id="tspan11305" y="1365.8582" x="-635.87579" font-weight="bold">FMN</tspan>     </text>
  <text id="text11309" xml:space="preserve" font-size="120px" y="1796.6882" x="-1067.2109" font-family="Arial" fill="#000000">       <tspan id="tspan11311" font-size="150px" y="1796.6882" x="-1067.2109" font-weight="bold">NADH</tspan>     </text>
  <path id="text11318" d="m-328.77 1796.7v-107.4h21.1l43.94 71.7v-71.7h20.14v107.4h-21.75l-43.29-70v70h-20.14zm205.01 0h-23.59l-9.37-24.4h-42.92l-8.86 24.4h-23l41.82-107.4h22.92l43 107.4zm-39.92-42.5-14.8-39.8-14.5 39.8h29.3zm51.42-64.9h39.62c8.935 0 15.747 0.7 20.434 2.1 6.299 1.8 11.694 5.1 16.187 9.9 4.492 4.7 7.91 10.5 10.254 17.3 2.343 6.9 3.515 15.4 3.515 25.4 0 8.9-1.098 16.5-3.296 22.9-2.685 7.8-6.518 14.1-11.499 18.9-3.759 3.7-8.838 6.6-15.234 8.6-4.785 1.5-11.182 2.3-19.189 2.3h-40.792v-107.4zm21.675 18.2v71.1h16.187c6.054 0 10.425-0.3 13.11-1 3.516-0.9 6.433-2.4 8.753-4.5 2.319-2.1 4.211-5.5 5.676-10.4 1.465-4.8 2.197-11.3 2.197-19.6s-0.732-14.7-2.197-19.1c-1.465-4.5-3.516-8-6.152-10.4-2.637-2.5-5.982-4.2-10.035-5.1-3.027-0.7-8.96-1-17.797-1h-9.742zm235.04 73.7v-27.9h-28.13v-19.2h28.13v-27.9h18.75v27.9h28.2v19.2h-28.2v27.9h-18.75zm105.83 15.5v-107.4h21.68v42.3h42.48v-42.3h21.68v107.4h-21.68v-47h-42.48v47h-21.68z"/>
  <path id="text11322" d="m36.587 1695.2v-22.3h-22.5v-15.5h22.5v-22.3h15v22.3h22.559v15.5h-22.559v22.3h-15z"/>
  <path id="text11326" d="m395.19 1695.2v-22.3h-22.5v-15.5h22.5v-22.3h15v22.3h22.56v15.5h-22.56v22.3h-15z"/>
  <path id="path11334" d="m475.6 752.67v-107.38h21.68v42.27h42.48v-42.27h21.68v107.38h-21.68v-46.95h-42.48v46.95h-21.68zm144.9-101.51v-22.33h-22.5v-15.41h22.5v-22.32h15v22.32h22.56v15.41h-22.56v22.33h-15zm-234.26 101.51v-21.61h-43.95v-18.02l46.59-68.19h17.28v68.12h13.33v18.09h-13.33v21.61h-19.92zm0-39.7v-36.69l-24.68 36.69h24.68z"/>
  <path id="path11376" d="m1303.3 752.67v-107.38h21.7v42.27h42.4v-42.27h21.7v107.38h-21.7v-46.95h-42.4v46.95h-21.7zm144.9-101.51v-22.33h-22.5v-15.41h22.5v-22.32h15v22.32h22.5v15.41h-22.5v22.33h-15zm-205.1 82.39v19.12h-72.2c0.8-7.23 3.2-14.08 7.1-20.55s11.6-15.05 23.1-25.74c9.3-8.64 15-14.5 17.1-17.58 2.8-4.25 4.2-8.45 4.2-12.6 0-4.59-1.2-8.12-3.7-10.58-2.4-2.47-5.9-3.7-10.2-3.7s-7.7 1.29-10.3 3.88c-2.5 2.59-4 6.89-4.3 12.89l-20.6-2.05c1.3-11.33 5.1-19.46 11.5-24.39 6.5-4.93 14.5-7.4 24.2-7.4 10.6 0 18.9 2.86 25 8.57 6 5.72 9.1 12.82 9.1 21.32 0 4.83-0.9 9.43-2.6 13.8-1.8 4.37-4.5 8.95-8.3 13.74-2.5 3.17-6.9 7.74-13.4 13.69-6.5 5.96-10.7 9.92-12.4 11.87s-3.1 3.86-4.2 5.71h40.9z"/>
  <path id="path11384" style="color:#000000" d="m-740.07 1645.8s185.71-478.6 402.86-21.5" stroke="#000" stroke-width="12" fill="none"/>
  <path id="path11386" d="m-324.42 1648-47.97-30.2 29.75-1.3 16.01-25.2 2.21 56.7z" fill-rule="evenodd" stroke="#000" stroke-width="1px"/>
  <path id="path11393" style="color:#000000" fill-rule="evenodd" d="m447.75-647.38-47.66 59.35h41.66v1196.3l12-0.02v-1196.3l41.69 0.02-47.69-59.35z"/>
  <path id="path13348" style="color:#000000" fill-rule="evenodd" d="m1284.9-23.269-47.7 59.344h41.7v572.18l12-0.01v-572.18l41.7 0.005-47.7-59.344z"/>
  <path id="path13351" style="color:#000000" fill-rule="evenodd" d="m1218.3-34.552-4.3-93.898 60.4 44.477-56.1 49.421z"/>
  <text id="text13358" xml:space="preserve" font-size="120px" y="791.09912" x="-275.11472" font-family="Arial" fill="#000000">       <tspan id="tspan13360" y="791.09912" x="-275.11472" font-weight="bold">2 e</tspan>     </text>
  <path id="text13362" d="m-104.21 715.79v-9.23h50.057v9.23h-50.057z"/>
  <path id="text2324" fill="#fff" d="m1582.2-229.19c-25.2-1.43-50.9 15.87-55.8 41.13-6 23.92-2.4 53.17 17.6 69.59 17 13.51 41.2 15.62 61.3 8.5 8.5 5.89 17.4 11.972 27.8 13.876 4.6-8.436 8.9-17.006 13.3-25.536-5.4-2.61-12.6-3.96-16.8-7.78 13.9-21.45 13.4-50.49 2.4-73.09-9.9-17.34-29.9-27.5-49.8-26.69zm1 30.5c13.2-0.06 22.8 13.29 22.1 25.94 0.8 8.33 0.2 17-3.7 24.53-6.7-4.41-14.2-7.6-21.8-9.91-3.3 6.21-6.2 13.53-9.7 19-12.6-7.72-12.8-24.52-11.4-37.53 1.3-11.17 9.9-22.16 21.8-21.9 0.9-0.09 1.8-0.12 2.7-0.13zm-0.1 149.81c-24-1.482-48.6 13.471-55.6 36.813-7.1 24.158-4.9 53.967 14.2 72 16.9 15.154 42.5 17.935 63.6 10.469 8.6 5.798 17.3 12.019 27.8 13.75 4.2-7.399 7.9-15.015 11.8-22.5-0.7 6.987-0.8 13.348 8 10.781h25.7v-46.966h30.5v46.969h33.7v-119.38c-11.3 0.005-22.5 0.005-33.7 0.005v42.25c-10.2-0.0002-20.3-0.0002-30.5-0.0002v-42.25h-33.7v105.06c-4.8-2.379-11.9-3.625-15.2-7.216 13.8-21.466 13.3-50.592 2.2-73.094-9.7-17.078-29.4-27.128-48.8-26.688zm0 30.532c13.3-0.034 22.9 13.261 22.2 25.937 0.8 8.328 0.2 16.984-3.6 24.531-6.8-4.399-14.3-7.553-21.9-9.875-3.5 6.1-5.9 13.779-9.9 18.938-12.5-8.091-12.8-24.98-11-38.282 1.3-11.38 10.9-22.018 23-21.187 0.4 0.072 0.8-0.074 1.2-0.062zm191.1 42c-14 0.903-26.7 13.547-25.9 27.875 0.7 4.863 6.2 6.967 10.4 5.593 5 1.034 13 3.309 15.1-3.25-0.5-3.247 1.4-8.392 5.5-6.687 4.6 3.916-0.9 9.432-3.7 12.531-11.3 11.209-25.9 21.961-28.6 38.813-1 4.329 1 8.469 5.7 8.999 7.3 0.8 14.6-0.83 22 0.03h33.2c-3.9-7.637 3.1-18.18-4.8-24.154-4.9-1.162-11.6-0.313-15.4-0.813 10.9-9.562 22-23.234 18.6-38.781-3-13.238-16.9-21.519-30.1-20.25-0.6-0.031-1.3 0.043-2 0.094z"/>
  <text id="text2286" font-size="150px" font-family="Arial" xml:space="preserve" y="-114.84042" x="1523.3514" font-weight="bold" fill="#000000">       <tspan id="tspan2288" y="-114.84042" x="1523.3514">Q</tspan>       <tspan id="tspan2290" y="72.659576" x="1523.3514" dy="-7.1428576">QH</tspan>     </text>
  <text id="text2292" xml:space="preserve" font-size="150px" y="100.64212" x="1750.2061" font-family="Arial" fill="#000000">       <tspan id="tspan2294" font-size="100px" y="100.64212" x="1750.2061" font-weight="bold">2</tspan>     </text>
  <path id="path2416" style="color:#000000" fill-rule="evenodd" fill="#fff" d="m1501.1-183.6c-57.8 10.41-116.7 22.61-168.6 51.06-16.7 9.64-34.1 24.47-35.5 45.03-0.9 19.8 13.3 36.117 28.5 46.89 31.8 23.756 70.1 36.521 107.2 49.814 7 2.358 14.1 4.676 21.2 6.89-7.8 8.397-15.5 16.666-23.5 24.781 29.4-6.198 58.7-12.939 88.2-19.062-21.7-20.79-43.7-41.328-65.5-62 2.4 10.98 4.7 21.954 7.1 32.937-43.5-14.342-88.3-28.84-125.2-56.656-7.3-5.943-16.4-14.868-13.5-25.219 5.5-14.025 20.3-20.755 32.6-27.685 42.2-21.17 88.9-30.87 134.7-40.35 7.2-1.35 14.3-2.59 21.5-3.71-4.6-6.71 1.9-17.43-6.3-22.22-0.9-0.46-1.9-0.6-2.9-0.5zm-14.6 193.09c1.4 1.501 5.5 5.551 5.2 4.594-2.4-0.174-6.1 2.163-7.2 1.406 0.6-1.819 1-4.961 2-6z"/>
  <path id="path2297" style="color:#000000" d="m1502.1-171.59s-418.7 65.66-22.7 182.83" stroke="#000" stroke-width="12" fill="none"/>
  <path id="path2318" d="m1505.4 17.957-55.3 12.096 20.3-21.824-6.2-29.152 41.2 38.88z" fill-rule="evenodd" stroke="#000" stroke-width="1px"/>
 </g>
 <metadata>
  <rdf:RDF>
   <cc:Work>
    <dc:format>image/svg+xml</dc:format>
    <dc:type rdf:resource="http://purl.org/dc/dcmitype/StillImage"/>
    <cc:license rdf:resource="http://creativecommons.org/licenses/publicdomain/"/>
    <dc:publisher>
     <cc:Agent rdf:about="http://openclipart.org/">
      <dc:title>Openclipart</dc:title>
     </cc:Agent>
    </dc:publisher>
   </cc:Work>
   <cc:License rdf:about="http://creativecommons.org/licenses/publicdomain/">
    <cc:permits rdf:resource="http://creativecommons.org/ns#Reproduction"/>
    <cc:permits rdf:resource="http://creativecommons.org/ns#Distribution"/>
    <cc:permits rdf:resource="http://creativecommons.org/ns#DerivativeWorks"/>
   </cc:License>
  </rdf:RDF>
 </metadata>
</svg>
