<?xml version="1.0"?>
<svg xmlns:rdf="http://www.w3.org/1999/02/22-rdf-syntax-ns#" xmlns="http://www.w3.org/2000/svg" xmlns:cc="http://web.resource.org/cc/" xmlns:dc="http://purl.org/dc/elements/1.1/" id="svg2" height="981" width="1872" version="1.0">
 <text id="text3020" xml:space="preserve" font-size="12px" y="884.26141" x="576.81207" font-family="Bitstream Vera Sans" fill="#000000">
    <tspan id="tspan3022" y="884.26141" x="576.81207"/>
  </text>
 <path id="path4523" d="m-0.32188 546.84h0.13901c13.471 0 24.406-10.42 24.406-23.25 0-12.84-10.935-23.26-24.406-23.26h-0.13888m12.797 42.89v67.3" stroke-opacity=".65098" fill-opacity=".65132" stroke="#000" stroke-width="2.0223" fill="#6ebec1"/>
 <path id="path4547" d="m-0.32188 673.32h0.13901c13.471 0 24.406 10.42 24.406 23.26s-10.935 23.26-24.406 23.26h-0.13888m12.797-43.15v-60.69" stroke-opacity=".65098" fill-opacity=".65132" stroke="#000" stroke-width="2.0223" fill="#6ebec1"/>
 <path id="path4521" d="m72.845 523.59c0 12.84-10.933 23.26-24.404 23.26-13.472 0-24.405-10.42-24.405-23.26s10.933-23.26 24.405-23.26c13.471 0 24.404 10.42 24.404 23.26zm-37.061 19.89v60.68m25.312-60.68v67.07" stroke-opacity=".65098" fill-opacity=".65132" stroke="#000" stroke-width="2.0223" fill="#6ebec1"/>
 <path id="path4537" d="m24.036 696.58c0-12.84 10.933-23.26 24.404-23.26 13.472 0 24.405 10.42 24.405 23.26s-10.933 23.26-24.405 23.26c-13.471 0-24.404-10.42-24.404-23.26zm37.06-19.89v-60.69m-25.312 60.69v-67.08" stroke-opacity=".65098" fill-opacity=".65132" stroke="#000" stroke-width="2.0223" fill="#6ebec1"/>
 <path id="path4557" d="m121.66 523.59c0 12.84-10.94 23.26-24.407 23.26-13.471 0-24.405-10.42-24.405-23.26s10.934-23.26 24.405-23.26c13.467 0 24.407 10.42 24.407 23.26zm-37.063 19.89v60.68m25.313-60.68v67.07" stroke-opacity=".65098" fill-opacity=".65132" stroke="#000" stroke-width="2.0223" fill="#6ebec1"/>
 <path id="path4559" d="m72.848 696.58c0-12.84 10.934-23.26 24.405-23.26 13.467 0 24.407 10.42 24.407 23.26s-10.94 23.26-24.407 23.26c-13.471 0-24.405-10.42-24.405-23.26zm37.062-19.89v-60.69m-25.313 60.69v-67.08" stroke-opacity=".65098" fill-opacity=".65132" stroke="#000" stroke-width="2.0223" fill="#6ebec1"/>
 <path id="path4573" d="m170.47 523.59c0 12.84-10.93 23.26-24.4 23.26-13.48 0-24.41-10.42-24.41-23.26s10.93-23.26 24.41-23.26c13.47 0 24.4 10.42 24.4 23.26zm-37.06 19.89v60.68m25.31-60.68v67.07" stroke-opacity=".65098" fill-opacity=".65132" stroke="#000" stroke-width="2.0223" fill="#6ebec1"/>
 <path id="path4575" d="m121.66 696.58c0-12.84 10.93-23.26 24.41-23.26 13.47 0 24.4 10.42 24.4 23.26s-10.93 23.26-24.4 23.26c-13.48 0-24.41-10.42-24.41-23.26zm37.06-19.89v-60.69m-25.31 60.69v-67.08" stroke-opacity=".65098" fill-opacity=".65132" stroke="#000" stroke-width="2.0223" fill="#6ebec1"/>
 <path id="path4579" d="m219.28 523.59c0 12.84-10.93 23.26-24.4 23.26s-24.41-10.42-24.41-23.26 10.94-23.26 24.41-23.26 24.4 10.42 24.4 23.26zm-37.06 19.89v60.68m25.31-60.68v67.07" stroke-opacity=".65098" fill-opacity=".65132" stroke="#000" stroke-width="2.0223" fill="#6ebec1"/>
 <path id="path4581" d="m170.47 696.58c0-12.84 10.94-23.26 24.41-23.26s24.4 10.42 24.4 23.26-10.93 23.26-24.4 23.26-24.41-10.42-24.41-23.26zm37.06-19.89v-60.69m-25.31 60.69v-67.08" stroke-opacity=".65098" fill-opacity=".65132" stroke="#000" stroke-width="2.0223" fill="#6ebec1"/>
 <path id="path4659" d="m268.09 523.59c0 12.84-10.93 23.26-24.4 23.26s-24.4-10.42-24.4-23.26 10.93-23.26 24.4-23.26 24.4 10.42 24.4 23.26zm-37.06 19.89v60.68m25.32-60.68v67.07" stroke-opacity=".65098" fill-opacity=".65132" stroke="#000" stroke-width="2.0223" fill="#6ebec1"/>
 <path id="path4661" d="m219.29 696.58c0-12.84 10.93-23.26 24.4-23.26s24.4 10.42 24.4 23.26-10.93 23.26-24.4 23.26-24.4-10.42-24.4-23.26zm37.06-19.89v-60.69m-25.32 60.69v-67.08" stroke-opacity=".65098" fill-opacity=".65132" stroke="#000" stroke-width="2.0223" fill="#6ebec1"/>
 <path id="path4665" d="m316.91 523.59c0 12.84-10.94 23.26-24.41 23.26s-24.4-10.42-24.4-23.26 10.93-23.26 24.4-23.26 24.41 10.42 24.41 23.26zm-37.06 19.89v60.68m25.31-60.68v67.07" stroke-opacity=".65098" fill-opacity=".65132" stroke="#000" stroke-width="2.0223" fill="#6ebec1"/>
 <path id="path4667" d="m268.1 696.58c0-12.84 10.93-23.26 24.4-23.26s24.41 10.42 24.41 23.26-10.94 23.26-24.41 23.26-24.4-10.42-24.4-23.26zm37.06-19.89v-60.69m-25.31 60.69v-67.08" stroke-opacity=".65098" fill-opacity=".65132" stroke="#000" stroke-width="2.0223" fill="#6ebec1"/>
 <path id="path4701" d="m1000.7 523.59c0 12.84-10.98 23.26-24.45 23.26s-24.4-10.42-24.4-23.26 10.93-23.26 24.4-23.26 24.45 10.42 24.45 23.26zm-37.1 19.89v60.68m25.31-60.68v67.07" stroke-opacity=".65098" fill-opacity=".65132" stroke="#000" stroke-width="2.0223" fill="#6ebec1"/>
 <path id="path4703" d="m951.85 696.58c0-12.84 10.93-23.26 24.4-23.26s24.45 10.42 24.45 23.26-10.98 23.26-24.45 23.26-24.4-10.42-24.4-23.26zm37.06-19.89v-60.69m-25.31 60.69v-67.08" stroke-opacity=".65098" fill-opacity=".65132" stroke="#000" stroke-width="2.0223" fill="#6ebec1"/>
 <path id="path4707" d="m1049.5 523.59c0 12.84-11 23.26-24.4 23.26-13.5 0-24.4-10.42-24.4-23.26s10.9-23.26 24.4-23.26c13.4 0 24.4 10.42 24.4 23.26zm-37.1 19.89v60.68m25.3-60.68v67.07" stroke-opacity=".65098" fill-opacity=".65132" stroke="#000" stroke-width="2.0223" fill="#6ebec1"/>
 <path id="path4709" d="m1000.7 696.58c0-12.84 10.9-23.26 24.4-23.26 13.4 0 24.4 10.42 24.4 23.26s-11 23.26-24.4 23.26c-13.5 0-24.4-10.42-24.4-23.26zm37-19.89v-60.69m-25.3 60.69v-67.08" stroke-opacity=".65098" fill-opacity=".65132" stroke="#000" stroke-width="2.0223" fill="#6ebec1"/>
 <path id="path4715" d="m1098.3 523.59c0 12.84-11 23.26-24.4 23.26-13.5 0-24.4-10.42-24.4-23.26s10.9-23.26 24.4-23.26c13.4 0 24.4 10.42 24.4 23.26zm-37.1 19.89v60.68m25.3-60.68v67.07" stroke-opacity=".65098" fill-opacity=".65132" stroke="#000" stroke-width="2.0223" fill="#6ebec1"/>
 <path id="path4717" d="m1049.5 696.58c0-12.84 10.9-23.26 24.4-23.26 13.4 0 24.4 10.42 24.4 23.26s-11 23.26-24.4 23.26c-13.5 0-24.4-10.42-24.4-23.26zm37-19.89v-60.69m-25.3 60.69v-67.08" stroke-opacity=".65098" fill-opacity=".65132" stroke="#000" stroke-width="2.0223" fill="#6ebec1"/>
 <path id="path4721" d="m1147.1 523.59c0 12.84-10.9 23.26-24.4 23.26s-24.4-10.42-24.4-23.26 10.9-23.26 24.4-23.26 24.4 10.42 24.4 23.26zm-37.1 19.89v60.68m25.3-60.68v67.07" stroke-opacity=".65098" fill-opacity=".65132" stroke="#000" stroke-width="2.0223" fill="#6ebec1"/>
 <path id="path4723" d="m1098.3 696.58c0-12.84 10.9-23.26 24.4-23.26s24.4 10.42 24.4 23.26-10.9 23.26-24.4 23.26-24.4-10.42-24.4-23.26zm37-19.89v-60.69m-25.3 60.69v-67.08" stroke-opacity=".65098" fill-opacity=".65132" stroke="#000" stroke-width="2.0223" fill="#6ebec1"/>
 <path id="path4797" d="m1603.7 523.59c0 12.84-10.9 23.26-24.4 23.26s-24.4-10.42-24.4-23.26 10.9-23.26 24.4-23.26 24.4 10.42 24.4 23.26zm-37.1 19.89v60.68m25.4-60.68v67.07" stroke-opacity=".65098" fill-opacity=".65098" stroke="#000" stroke-width="2.0223" fill="#6ebec1"/>
 <path id="path4799" d="m1554.9 696.58c0-12.84 10.9-23.26 24.4-23.26s24.4 10.42 24.4 23.26-10.9 23.26-24.4 23.26-24.4-10.42-24.4-23.26zm37.1-19.89v-60.69m-25.4 60.69v-67.08" stroke-opacity=".65098" fill-opacity=".65098" stroke="#000" stroke-width="2.0223" fill="#6ebec1"/>
 <path id="path4803" d="m1652.5 523.59c0 12.84-10.9 23.26-24.4 23.26s-24.4-10.42-24.4-23.26 10.9-23.26 24.4-23.26 24.4 10.42 24.4 23.26zm-37 19.89v60.68m25.3-60.68v67.07" stroke-opacity=".65098" fill-opacity=".65098" stroke="#000" stroke-width="2.0223" fill="#6ebec1"/>
 <path id="path4805" d="m1603.7 696.58c0-12.84 10.9-23.26 24.4-23.26s24.4 10.42 24.4 23.26-10.9 23.26-24.4 23.26-24.4-10.42-24.4-23.26zm37.1-19.89v-60.69m-25.3 60.69v-67.08" stroke-opacity=".65098" fill-opacity=".65098" stroke="#000" stroke-width="2.0223" fill="#6ebec1"/>
 <path id="path4811" d="m1701.3 523.59c0 12.84-10.9 23.26-24.4 23.26-13.4 0-24.4-10.42-24.4-23.26s11-23.26 24.4-23.26c13.5 0 24.4 10.42 24.4 23.26zm-37 19.89v60.68m25.3-60.68v67.07" stroke-opacity=".65098" fill-opacity=".65098" stroke="#000" stroke-width="2.0223" fill="#6ebec1"/>
 <path id="path4813" d="m1652.5 696.58c0-12.84 11-23.26 24.4-23.26 13.5 0 24.4 10.42 24.4 23.26s-10.9 23.26-24.4 23.26c-13.4 0-24.4-10.42-24.4-23.26zm37.1-19.89v-60.69m-25.3 60.69v-67.08" stroke-opacity=".65098" fill-opacity=".65098" stroke="#000" stroke-width="2.0223" fill="#6ebec1"/>
 <path id="path4817" d="m1750.1 523.59c0 12.84-10.9 23.26-24.4 23.26-13.4 0-24.4-10.42-24.4-23.26s11-23.26 24.4-23.26c13.5 0 24.4 10.42 24.4 23.26zm-37 19.89v60.68m25.3-60.68v67.07" stroke-opacity=".65098" fill-opacity=".65098" stroke="#000" stroke-width="2.0223" fill="#6ebec1"/>
 <path id="path4819" d="m1701.3 696.58c0-12.84 11-23.26 24.4-23.26 13.5 0 24.4 10.42 24.4 23.26s-10.9 23.26-24.4 23.26c-13.4 0-24.4-10.42-24.4-23.26zm37.1-19.89v-60.69m-25.3 60.69v-67.08" stroke-opacity=".65098" fill-opacity=".65098" stroke="#000" stroke-width="2.0223" fill="#6ebec1"/>
 <path id="path4825" d="m1799 523.59c0 12.84-11 23.26-24.4 23.26-13.5 0-24.5-10.42-24.5-23.26s11-23.26 24.5-23.26c13.4 0 24.4 10.42 24.4 23.26zm-37.1 19.89v60.68m25.3-60.68v67.07" stroke-opacity=".65098" fill-opacity=".65098" stroke="#000" stroke-width="2.0223" fill="#6ebec1"/>
 <path id="path4827" d="m1750.1 696.58c0-12.84 11-23.26 24.5-23.26 13.4 0 24.4 10.42 24.4 23.26s-11 23.26-24.4 23.26c-13.5 0-24.5-10.42-24.5-23.26zm37.1-19.89v-60.69m-25.3 60.69v-67.08" stroke-opacity=".65098" fill-opacity=".65098" stroke="#000" stroke-width="2.0223" fill="#6ebec1"/>
 <path id="path4831" d="m1847.8 523.59c0 12.84-11 23.26-24.4 23.26-13.5 0-24.4-10.42-24.4-23.26s10.9-23.26 24.4-23.26c13.4 0 24.4 10.42 24.4 23.26zm-37.1 19.89v60.68m25.3-60.68v67.07" stroke-opacity=".65098" fill-opacity=".65098" stroke="#000" stroke-width="2.0223" fill="#6ebec1"/>
 <path id="path4833" d="m1799 696.58c0-12.84 10.9-23.26 24.4-23.26 13.4 0 24.4 10.42 24.4 23.26s-11 23.26-24.4 23.26c-13.5 0-24.4-10.42-24.4-23.26zm37-19.89v-60.69m-25.3 60.69v-67.08" stroke-opacity=".65098" fill-opacity=".65098" stroke="#000" stroke-width="2.0223" fill="#6ebec1"/>
 <path id="path4841" d="m1872.3 546.84h-0.1c-13.5 0-24.4-10.42-24.4-23.25 0-12.84 10.9-23.26 24.4-23.26h0.1m-12.8 36.52v67.3" stroke-opacity=".65098" fill-opacity=".65098" stroke="#000" stroke-width="2.0223" fill="#6ebec1"/>
 <path id="path4843" d="m1872.3 673.32h-0.1c-13.5 0-24.4 10.42-24.4 23.26s10.9 23.26 24.4 23.26h0.1m-12.8-43.29v-66.94" stroke-opacity=".65098" fill-opacity=".65098" stroke="#000" stroke-width="2.0223" fill="#6ebec1"/>
 <path id="path8794" style="color:#000000" d="m1027.9 371.07c0 44.42-43.06 80.43-96.18 80.43-53.11 0-96.16-36.01-96.16-80.43 0-44.43 43.05-80.44 96.16-80.44 53.12 0 96.18 36.01 96.18 80.44z" fill-rule="evenodd" stroke="#000" stroke-width="1.5" fill="#fefe00"/>
 <rect id="rect5870" height="502.97" stroke="#000" stroke-width="3" fill="#99fecc" style="color:#000000" fill-rule="evenodd" rx="75" ry="75" width="458.07" y="326.94" x="299.99"/>
 <path id="path4673" d="m805.5 523.59c0 12.84-10.94 23.26-24.41 23.26s-24.4-10.42-24.4-23.26 10.93-23.26 24.4-23.26 24.41 10.42 24.41 23.26zm-37.06 19.89v60.68m25.31-60.68v67.07" stroke-opacity=".65098" fill-opacity=".65132" stroke="#000" stroke-width="2.0223" fill="#6ebec1"/>
 <path id="path4675" d="m756.69 696.58c0-12.84 10.93-23.26 24.4-23.26s24.41 10.42 24.41 23.26-10.94 23.26-24.41 23.26-24.4-10.42-24.4-23.26zm37.06-19.89v-60.69m-25.31 60.69v-67.08" stroke-opacity=".65098" fill-opacity=".65132" stroke="#000" stroke-width="2.0223" fill="#6ebec1"/>
 <path id="path4679" d="m854.31 523.59c0 12.84-10.93 23.26-24.41 23.26-13.47 0-24.4-10.42-24.4-23.26s10.93-23.26 24.4-23.26c13.48 0 24.41 10.42 24.41 23.26zm-37.06 19.89v60.68m25.31-60.68v67.07" stroke-opacity=".65098" fill-opacity=".65132" stroke="#000" stroke-width="2.0223" fill="#6ebec1"/>
 <path id="path4681" d="m805.5 696.58c0-12.84 10.93-23.26 24.4-23.26 13.48 0 24.41 10.42 24.41 23.26s-10.93 23.26-24.41 23.26c-13.47 0-24.4-10.42-24.4-23.26zm37.06-19.89v-60.69m-25.31 60.69v-67.08" stroke-opacity=".65098" fill-opacity=".65132" stroke="#000" stroke-width="2.0223" fill="#6ebec1"/>
 <path id="path4687" d="m903.08 523.59c0 12.84-10.94 23.26-24.41 23.26s-24.4-10.42-24.4-23.26 10.93-23.26 24.4-23.26 24.41 10.42 24.41 23.26zm-37.06 19.89v60.68m25.31-60.68v67.07" stroke-opacity=".65098" fill-opacity=".65132" stroke="#000" stroke-width="2.0223" fill="#6ebec1"/>
 <path id="path4689" d="m854.27 696.58c0-12.84 10.93-23.26 24.4-23.26s24.41 10.42 24.41 23.26-10.94 23.26-24.41 23.26-24.4-10.42-24.4-23.26zm37.06-19.89v-60.69m-25.31 60.69v-67.08" stroke-opacity=".65098" fill-opacity=".65132" stroke="#000" stroke-width="2.0223" fill="#6ebec1"/>
 <path id="path4693" d="m951.89 523.59c0 12.84-10.93 23.26-24.41 23.26-13.47 0-24.4-10.42-24.4-23.26s10.93-23.26 24.4-23.26c13.48 0 24.41 10.42 24.41 23.26zm-37.06 19.89v60.68m25.31-60.68v67.07" stroke-opacity=".65098" fill-opacity=".65132" stroke="#000" stroke-width="2.0223" fill="#6ebec1"/>
 <path id="path4695" d="m903.08 696.58c0-12.84 10.93-23.26 24.4-23.26 13.48 0 24.41 10.42 24.41 23.26s-10.93 23.26-24.41 23.26c-13.47 0-24.4-10.42-24.4-23.26zm37.06-19.89v-60.69m-25.31 60.69v-67.08" stroke-opacity=".65098" fill-opacity=".65132" stroke="#000" stroke-width="2.0223" fill="#6ebec1"/>
 <path id="path7814" style="color:#000000" d="m867.73 154.52c0 44.42-43.05 80.43-96.17 80.43-53.11 0-96.16-36.01-96.16-80.43 0-44.43 43.05-80.438 96.16-80.438 53.12 0 96.17 36.008 96.17 80.438z" fill-rule="evenodd" stroke="#000" stroke-width="1.5" fill="#fefe00"/>
 <text id="text8787" style="text-anchor:middle;text-align:center" xml:space="preserve" font-size="56px" line-height="120.00000477%" y="137.90779" x="770.42999" font-family="Arial" fill="#000000">
    <tspan id="tspan8789" style="text-anchor:middle;text-align:center" line-height="120.00000477%" y="137.90779" x="770.42999">Cyt c</tspan>
    <tspan id="tspan8791" style="text-anchor:middle;text-align:center" line-height="120.00000477%" y="205.10779" x="770.42999">(ox)</tspan>
  </text>
 <text id="text8796" style="text-anchor:middle;text-align:center" xml:space="preserve" font-size="56px" line-height="120.00000477%" y="351.95923" x="930.58972" font-family="Arial" fill="#000000">
    <tspan id="tspan8798" style="text-anchor:middle;text-align:center" line-height="120.00000477%" y="351.95923" x="930.58972">Cyt c</tspan>
    <tspan id="tspan8800" style="text-anchor:middle;text-align:center" line-height="120.00000477%" y="419.15924" x="930.58972">(red)</tspan>
  </text>
 <text id="text8802" xml:space="preserve" font-size="64px" y="497.57837" x="411.97586" font-family="Arial" fill="#000000">
    <tspan id="tspan8804" y="497.57837" x="411.97586" font-size="81px">Q</tspan>
  </text>
 <text id="text8807" xml:space="preserve" font-size="64px" y="762.82837" x="411.97586" font-family="Arial" fill="#000000">
    <tspan id="tspan8809" y="762.82837" x="411.97586" font-size="81px">Q</tspan>
  </text>
 <path id="path19716" style="color:#000000" d="m432.98 221.15c-6.86 12.01-13.86 24.13-20.88 36.13 6.1 0.2 10.98-3.77 16.63-5.13v170.47c4.58 2.28 11.84 1.09 12.12-5.06-0.22-55.07-0.14-110.51-0.06-165.44 4.11 0.7 9.55 6.14 13.44 2.56 1.16-4.78-4.66-8.67-5.99-13.06-4.53-7.82-9.04-15.65-13.51-23.5-0.59 1.01-1.17 2.02-1.75 3.03z" fill-rule="evenodd" fill-opacity=".65882" fill="#fff"/>
 <path id="path5294" style="color:#000000" d="m449.08 251.01l-14.35-5.13-14.35 5.13 14.35-24.86 14.35 24.86z" fill-rule="evenodd"/>
 <path id="path19712" style="color:#000000" d="m728.94 309.06c2.22 3.53 7.64 6.02 8.75 9.81-28.85 11.71-57.43 25.01-86.17 37.35-56.2 24.64-112.42 49.24-168.61 73.9 0.32 5.07 4.45 11.73 10.25 9.1 33.47-15.67 67.81-29.85 101.6-44.95 49.31-21.55 98.86-43.44 148.03-64.77 0.96 4.1-1.74 10.97 2.94 13.28 4.96-0.76 6.18-7.73 9.71-10.73 5.34-7.26 10.68-14.52 16-21.8-15.38-1.81-30.79-3.44-46.18-5.16 1.23 1.32 2.46 2.65 3.68 3.97z" fill-rule="evenodd" fill-opacity=".65882" fill="#fff"/>
 <path id="path5300" d="m432.73 241.59v177.5h4v-177.5h-4z" fill-rule="evenodd"/>
 <path id="path6277" style="color:#000000" d="m747.13 336.57l-1.07-15.2-10.45-11.09 28.52 3.17-17 23.12z" fill-rule="evenodd"/>
 <path id="path6279" d="m749.19 317.81l-261.28 114.5 1.63 3.66 261.28-114.5-1.63-3.66z" fill-rule="evenodd"/>
 <path id="path24706" d="m499.48 479.62c-1.99 3.32-3.69 8.91 1.09 10.78 41.67 14.23 83.78 32.99 114.41 65.47 14.37 15.64 23.42 38.34 16.68 59.35-8.78 29.11-32.99 49.84-56.21 67.59-13.61 10.09-28.14 19.34-42.88 27.69-0.91-3.92 1.83-10.66-2.78-12.82-4.98 0.7-6.23 7.73-9.81 10.65-5.44 7.21-10.85 14.45-16.32 21.64 14.92 1.87 29.85 3.67 44.78 5.46-2.1-5.89-8.05-8.68-11.28-13.62 37.53-22.08 76-46.76 98.6-85 11.6-20.34 13.99-46.8 2.47-67.81-16.55-32.09-48.94-51.98-80-68.1-18.7-9.36-38.17-17.13-58.19-23.25-0.19 0.66-0.38 1.32-0.56 1.97z" fill-opacity=".65882" fill-rule="evenodd" fill="#fff"/>
 <path id="path6282" d="m502.16 484.56s294.15 88.74 22.62 237.23" stroke="#000" stroke-width="4" fill="none"/>
 <path id="path7253" style="color:#000000" d="m528.31 703.9l0.89 15.21 10.34 11.2-28.49-3.48 17.26-22.93z" fill-rule="evenodd"/>
 <path id="path15748" style="color:#000000" d="m356.73 472.53c2.32 3.64 8.06 5.32 9.21 9.44-27.51 12.72-54.5 27.29-81.81 40.75-26.24 13.24-52.49 26.48-78.75 39.68 0.41 5.07 4.76 11.72 10.56 8.66 28.65-15.62 58.45-29.63 87.53-44.64 22.71-11.45 45.42-22.91 68.13-34.36 1.18 3.99-1.21 11.7 3.97 13.25 4.86-1.65 5.9-8.6 9.38-12.06 4.78-7.26 9.54-14.54 14.24-21.85-15.46-0.86-30.93-1.74-46.4-2.62 1.31 1.25 2.62 2.5 3.94 3.75zm-147.75 182.47c-2.31 3.26-4.16 8.89 0.68 11 54.61 20.76 109.79 41.75 164.35 62.68-2.05 3.62-9 6.65-7.22 11.6 3.99 2.98 9.82-1.22 14.41-0.86 8.91-1.45 17.82-2.86 26.74-4.24-9.52-11.67-19-23.39-28.5-35.09-2.33 5.59-0.47 11.66-1.12 17.34-56.21-21.43-112.42-42.86-168.63-64.31-0.23 0.63-0.47 1.25-0.71 1.88z" fill-rule="evenodd" fill-opacity=".65882" fill="#fff"/>
 <path id="path7260" style="color:#000000" d="m376.34 499.04l-1.88-15.13-11.04-10.5 28.65 1.62-15.73 24.01z" fill-rule="evenodd"/>
 <path id="path7262" d="m377.38 480.18l-166.97 84.19 1.78 3.6 167-84.19-1.81-3.6z" fill-rule="evenodd"/>
 <path id="path7266" style="color:#000000" d="m382.35 710.03l-0.32 15.24-9.91 11.58 28.34-4.55-18.11-22.27z" fill-rule="evenodd"/>
 <path id="path7268" d="m212.01 658.31l-1.41 3.72 174.72 66.62 1.44-3.72-174.75-66.62z" fill-rule="evenodd"/>
 <rect id="rect7433" style="color:#000000" fill-rule="evenodd" fill-opacity=".65789" height="75.66" width="118.19" y="527.6" x="77.142" fill="#fff"/>
 <text id="text7311" xml:space="preserve" font-size="64px" y="579.82886" x="84.716591" font-family="Arial" fill="#000000">
    <tspan id="tspan7313" y="579.82886" x="84.716591" font-size="56px">QH</tspan>
  </text>
 <text id="text7315" xml:space="preserve" font-size="99px" y="591.82837" x="167.22588" font-family="Arial" fill="#000000">
    <tspan id="tspan7317" y="591.82837" x="167.22588" font-size="36px">2</tspan>
  </text>
 <rect id="rect8416" style="color:#000000" fill-rule="evenodd" fill-opacity=".65789" height="63.422" width="53.099" y="625.27" x="146.21" fill="#fff"/>
 <text id="text7420" xml:space="preserve" font-size="64px" y="675.82062" x="150.80363" font-family="Arial" fill="#000000">
    <tspan id="tspan7422" y="675.82062" x="150.80363" font-size="56px">Q</tspan>
  </text>
 <text id="text9399" xml:space="preserve" font-size="64px" y="444.82886" x="592.71661" font-family="Arial" fill="#000000">
    <tspan id="tspan9401" y="444.82886" x="592.71661" font-size="64px">1 e</tspan>
  </text>
 <path id="text9403" d="m682.88 409.34v-3.39h26.7v3.39h-26.7z"/>
 <text id="text9416" xml:space="preserve" font-size="64px" y="731.82886" x="592.71661" font-family="Arial" fill="#000000">
    <tspan id="tspan9418" y="731.82886" x="592.71661" font-size="64px">1 e</tspan>
  </text>
 <path id="path9420" d="m682.88 696.34v-3.39h26.7v3.39h-26.7z"/>
 <text id="text9428" xml:space="preserve" font-size="64px" y="205.07837" x="390.97586" font-family="Arial" fill="#000000">
    <tspan id="tspan9430" y="205.07837" x="390.97586" font-size="56px">2 H</tspan>
  </text>
 <path id="text9432" d="m488 176.07v-7.85h-7.8v-3.28h7.8v-7.79h3.32v7.79h7.79v3.28h-7.79v7.85h-3.32z"/>
 <path id="path9447" d="m774.99 246.64c-7.78 25.97-20.19 91.72 49.61 77.4" stroke="#000" stroke-width="4" fill="none"/>
 <path id="path10419" style="color:#000000" d="m818.11 339.2l4.16-14.66-6.09-13.98 25.77 12.65-23.84 15.99z" fill-rule="evenodd"/>
 <path id="path11191" style="color:#000000" d="m1859.8 371.07c0 44.42-43.1 80.43-96.2 80.43s-96.1-36.01-96.1-80.43c0-44.43 43-80.44 96.1-80.44s96.2 36.01 96.2 80.44z" fill-rule="evenodd" stroke="#000" stroke-width="1.5" fill="#fefe00"/>
 <rect id="rect11195" height="502.97" stroke="#000" stroke-width="3" fill="#99fecc" style="color:#000000" fill-rule="evenodd" rx="75" ry="75" width="458.07" y="326.94" x="1131.9"/>
 <path id="path11225" style="color:#000000" d="m1699.6 154.52c0 44.42-43 80.43-96.1 80.43s-96.2-36.01-96.2-80.43c0-44.43 43.1-80.438 96.2-80.438s96.1 36.008 96.1 80.438z" fill-rule="evenodd" stroke="#000" stroke-width="1.5" fill="#fefe00"/>
 <text id="text11227" style="text-anchor:middle;text-align:center" xml:space="preserve" font-size="56px" line-height="120.00000477%" y="137.90779" x="1602.3411" font-family="Arial" fill="#000000">
    <tspan id="tspan11229" style="text-anchor:middle;text-align:center" line-height="120.00000477%" y="137.90779" x="1602.3411">Cyt c</tspan>
    <tspan id="tspan11231" style="text-anchor:middle;text-align:center" line-height="120.00000477%" y="205.10779" x="1602.3411">(ox)</tspan>
  </text>
 <text id="text11233" style="text-anchor:middle;text-align:center" xml:space="preserve" font-size="56px" line-height="120.00000477%" y="351.95923" x="1762.5007" font-family="Arial" fill="#000000">
    <tspan id="tspan11235" style="text-anchor:middle;text-align:center" line-height="120.00000477%" y="351.95923" x="1762.5007">Cyt c</tspan>
    <tspan id="tspan11237" style="text-anchor:middle;text-align:center" line-height="120.00000477%" y="419.15924" x="1762.5007">(red)</tspan>
  </text>
 <text id="text11239" xml:space="preserve" font-size="64px" y="497.57837" x="1243.887" font-family="Arial" fill="#000000">
    <tspan id="tspan11241" y="497.57837" x="1243.887" font-size="81px">Q</tspan>
  </text>
 <text id="text11243" xml:space="preserve" font-size="64px" y="762.82837" x="1243.887" font-family="Arial" fill="#000000">
    <tspan id="tspan11245" y="762.82837" x="1243.887" font-size="81px">Q</tspan>
  </text>
 <path id="path19714" style="color:#000000" d="m1264.9 221.15c-6.9 12.01-13.9 24.13-20.9 36.13 6.1 0.2 11-3.77 16.6-5.13v170.47c4.6 2.28 11.9 1.09 12.2-5.06-0.3-55.07-0.2-110.51-0.1-165.44 4.1 0.7 9.5 6.14 13.4 2.56 1.2-4.78-4.6-8.67-6-13.06-4.5-7.82-9-15.65-13.5-23.5-0.6 1.01-1.1 2.02-1.7 3.03z" fill-rule="evenodd" fill-opacity=".65882" fill="#fff"/>
 <path id="path18711" style="color:#000000" d="m1560.9 309.06c2.2 3.53 7.6 6.02 8.7 9.81-28.9 11.72-57.4 25.01-86.2 37.35-56.1 24.63-112.3 49.18-168.4 73.87-0.1 5.35 4.5 11.71 10.4 8.97 39.1-18.11 79.2-34.83 118.7-52.42 43.5-19 87.2-38.36 130.6-57.14 1 4.1-1.7 10.97 2.9 13.28 5-0.76 6.2-7.73 9.7-10.73 5.4-7.26 10.7-14.52 16.1-21.8-15.4-1.81-30.8-3.44-46.2-5.16 1.2 1.32 2.4 2.65 3.7 3.97z" fill-rule="evenodd" fill-opacity=".65882" fill="#fff"/>
 <path id="path11255" style="color:#000000" d="m1579 336.57l-1-15.2-10.5-11.09 28.5 3.17-17 23.12z" fill-rule="evenodd"/>
 <path id="path11257" d="m1581.1 317.81l-261.2 114.5 1.5 3.66 261.3-114.5-1.6-3.66z" fill-rule="evenodd"/>
 <path id="path23715" d="m1331.4 479.62c-2 3.32-3.7 8.91 1.1 10.78 41.7 14.23 83.8 32.99 114.4 65.47 14.4 15.64 23.4 38.34 16.7 59.35-8.8 29.11-29.8 53.39-53 71.14-13.7 10.09-27.1 18.99-41.9 27.33-0.8-3.94 1.8-10.64-2.7-12.81-5 0.75-6.3 7.72-9.8 10.65-5.4 7.23-10.9 14.43-16.3 21.63 14.9 1.88 29.8 3.67 44.7 5.47-2.1-5.89-8-8.69-11.3-13.62 37.6-22.08 71.8-49.96 94.4-88.2 11.6-20.34 14-46.8 2.4-67.81-16.5-32.09-48.9-51.98-80-68.1-18.7-9.36-38.1-17.13-58.2-23.25-0.1 0.66-0.3 1.32-0.5 1.97z" fill-opacity=".65882" fill-rule="evenodd" fill="#fff"/>
 <path id="path11259" d="m1334.6 482.65l-1.1 3.82s73.3 22.28 112.3 62.4c19.5 20.06 30.3 44.11 20 72.53-10.3 28.43-34.9 63.39-102.6 100.4l1.9 3.54c68.1-37.24 93.6-72.62 104.5-102.59 10.9-29.98-0.9-55.97-21-76.66-40.2-41.37-114-63.44-114-63.44z" fill-rule="evenodd"/>
 <path id="path11262" style="color:#000000" d="m1365.2 707.45l0.9 15.21 10.3 11.2-28.5-3.48 17.3-22.93z" fill-rule="evenodd"/>
 <path id="path17706" style="color:#000000" d="m1188.6 472.56c2.4 3.57 8.1 5.33 9.3 9.41-25.9 11.89-51.2 25.62-76.9 38.24-27.9 14.06-55.8 28.14-83.6 42.19-0.4 7.56 8 11.96 13.7 6.82 50.6-26.15 101.6-51.37 152.4-77.16 1.2 3.99-1.2 11.7 4 13.25 4.8-1.65 5.9-8.6 9.4-12.06 4.7-7.26 9.5-14.54 14.2-21.85-15.5-0.86-31-1.74-46.5-2.62 1.4 1.26 2.7 2.52 4 3.78zm-116.2 174.62c-12.9 2.08-25.8 4.16-38.7 6.16 9.6 11.68 19 23.39 28.5 35.09 2.4-5.58 0.5-11.65 1.2-17.34 56 21.38 112.1 42.81 168.2 64.16 3.5-3.65 5-10.94-0.6-13.41-54.5-20.09-108.9-41.42-163.3-62 2.1-3.55 9-6.64 7.2-11.59-0.5-0.8-1.6-1.16-2.5-1.07z" fill-rule="evenodd" fill-opacity=".65882" fill="#fff"/>
 <path id="path11266" style="color:#000000" d="m1208.2 499.04l-1.8-15.13-11.1-10.5 28.7 1.62-15.8 24.01z" fill-rule="evenodd"/>
 <path id="path11268" d="m1209.3 480.18l-167 84.19 1.8 3.6 167-84.19-1.8-3.6z" fill-rule="evenodd"/>
 <rect id="rect11278" style="color:#000000" fill-rule="evenodd" fill-opacity=".65789" height="75.66" width="118.19" y="527.6" x="909.05" fill="#fff"/>
 <text id="text11282" xml:space="preserve" font-size="64px" y="579.82886" x="916.62775" font-family="Arial" fill="#000000">
    <tspan id="tspan11284" y="579.82886" x="916.62775" font-size="56px">QH</tspan>
  </text>
 <text id="text11286" xml:space="preserve" font-size="99px" y="591.82837" x="999.13702" font-family="Arial" fill="#000000">
    <tspan id="tspan11288" y="591.82837" x="999.13702" font-size="36px">2</tspan>
  </text>
 <text id="text11298" xml:space="preserve" font-size="64px" y="444.82886" x="1424.6278" font-family="Arial" fill="#000000">
    <tspan id="tspan11300" y="444.82886" x="1424.6278" font-size="64px">1 e</tspan>
  </text>
 <path id="path11302" d="m1514.8 409.34v-3.39h26.7v3.39h-26.7z"/>
 <text id="text11306" xml:space="preserve" font-size="64px" y="731.82886" x="1424.6278" font-family="Arial" fill="#000000">
    <tspan id="tspan11308" y="731.82886" x="1424.6278" font-size="64px">1 e</tspan>
  </text>
 <path id="path11310" d="m1514.8 696.34v-3.39h26.7v3.39h-26.7z"/>
 <path id="path11312" d="m1304.2 718.85v-8.11h8.1v8.11h-8.1z"/>
 <path id="path11249" style="color:#000000" d="m1281 251.01l-14.4-5.13-14.3 5.13 14.3-24.86 14.4 24.86z" fill-rule="evenodd"/>
 <path id="path11251" d="m1264.6 241.59v177.5h4v-177.5h-4z" fill-rule="evenodd"/>
 <text id="text11316" xml:space="preserve" font-size="64px" y="205.07837" x="1222.887" font-family="Arial" fill="#000000">
    <tspan id="tspan11318" y="205.07837" x="1222.887" font-size="56px">2 H</tspan>
  </text>
 <path id="path11320" d="m1319.9 176.07v-7.85h-7.8v-3.28h7.8v-7.79h3.3v7.79h7.8v3.28h-7.8v7.85h-3.3z"/>
 <path id="path11322" d="m1606.9 246.64c-7.8 25.97-20.2 91.72 49.6 77.4" stroke="#000" stroke-width="4" fill="none"/>
 <path id="path11324" style="color:#000000" d="m1650 339.2l4.2-14.66-6.1-13.98 25.8 12.65-23.9 15.99z" fill-rule="evenodd"/>
 <path id="path11463" style="color:#000000" d="m1059.3 678.49l0.4-15.24 9.9-11.58-28.4 4.55 18.1 22.27z" fill-rule="evenodd"/>
 <path id="path11465" d="m1056.4 659.84l-1.5 3.75 174.8 66.63 1.4-3.75-174.7-66.63z" fill-rule="evenodd"/>
 <rect id="rect11470" style="color:#000000" fill-rule="evenodd" fill-opacity=".65789" height="75.66" width="118.19" y="606.65" x="909.05" fill="#fff"/>
 <text id="text11474" xml:space="preserve" font-size="64px" y="658.87946" x="916.62775" font-family="Arial" fill="#000000">
    <tspan id="tspan11476" y="658.87946" x="916.62775" font-size="56px">QH</tspan>
  </text>
 <text id="text11478" xml:space="preserve" font-size="99px" y="670.87897" x="999.13702" font-family="Arial" fill="#000000">
    <tspan id="tspan11480" y="670.87897" x="999.13702" font-size="36px">2</tspan>
  </text>
 <path id="path20731" style="color:#000000" d="m1293.2 779.78c-6.9 12.01-13.9 24.12-20.9 36.12 6.1 0.2 11-3.76 16.6-5.12v92.22c4.6 2.28 11.9 1.09 12.1-5.07-0.1-28.99-0.2-58.34 0-87.18 4.1 0.7 9.5 6.13 13.4 2.56 1.2-4.78-4.6-8.68-6-13.07-4.5-7.81-9-15.64-13.5-23.49-0.6 1.01-1.2 2.02-1.7 3.03z" fill-rule="evenodd" fill-opacity=".65882" fill="#fff"/>
 <path id="path11636" style="color:#000000" d="m1309.3 809.62l-14.4-5.13-14.3 5.13 14.3-24.86 14.4 24.86z" fill-rule="evenodd"/>
 <path id="path11638" d="m1294.9 800.19v99.28" stroke="#000" stroke-width="4" fill="none"/>
 <text id="text11642" xml:space="preserve" font-size="64px" y="950.01538" x="1251.1713" font-family="Arial" fill="#000000">
    <tspan id="tspan11644" y="950.01538" x="1251.1713" font-size="56px">2 H</tspan>
  </text>
 <path id="path11646" d="m1348.2 921.01v-7.85h-7.8v-3.29h7.8v-7.79h3.3v7.79h7.8v3.29h-7.8v7.85h-3.3z"/>
 <text id="text11658" xml:space="preserve" font-size="64px" y="77.578369" x="424.97586" font-family="Arial" fill="#000000">
    <tspan id="tspan11660" y="77.578369" x="424.97586" font-weight="bold">Step 1</tspan>
  </text>
 <text id="text11662" xml:space="preserve" font-size="64px" y="77.578369" x="1257.4758" font-family="Arial" fill="#000000">
    <tspan id="tspan11664" y="77.578369" x="1257.4758" font-weight="bold">Step 2</tspan>
  </text>
 <path id="path3771" d="m1317.5 716.49v-3.4h26.7v3.4h-26.7z"/>
 <metadata>
  <rdf:RDF>
   <cc:Work>
    <dc:format>image/svg+xml</dc:format>
    <dc:type rdf:resource="http://purl.org/dc/dcmitype/StillImage"/>
    <cc:license rdf:resource="http://creativecommons.org/licenses/publicdomain/"/>
    <dc:publisher>
     <cc:Agent rdf:about="http://openclipart.org/">
      <dc:title>Openclipart</dc:title>
     </cc:Agent>
    </dc:publisher>
   </cc:Work>
   <cc:License rdf:about="http://creativecommons.org/licenses/publicdomain/">
    <cc:permits rdf:resource="http://creativecommons.org/ns#Reproduction"/>
    <cc:permits rdf:resource="http://creativecommons.org/ns#Distribution"/>
    <cc:permits rdf:resource="http://creativecommons.org/ns#DerivativeWorks"/>
   </cc:License>
  </rdf:RDF>
 </metadata>
</svg>
