<?xml version="1.0"?>
<svg xmlns:rdf="http://www.w3.org/1999/02/22-rdf-syntax-ns#" xmlns="http://www.w3.org/2000/svg" xmlns:cc="http://web.resource.org/cc/" xmlns:xlink="http://www.w3.org/1999/xlink" xmlns:dc="http://purl.org/dc/elements/1.1/" id="svg2264" height="820.09" width="1000.4" version="1.0">
 <defs id="defs2266">
  <linearGradient id="linearGradient5381">
   <stop id="stop5383" stop-color="#f0f" offset="0"/>
   <stop id="stop5385" stop-color="#f0f" stop-opacity="0" offset="1"/>
  </linearGradient>
  <linearGradient id="linearGradient4274">
   <stop id="stop4276" stop-color="#f55" offset="0"/>
   <stop id="stop4278" stop-color="#f55" stop-opacity="0" offset="1"/>
  </linearGradient>
  <linearGradient id="linearGradient4141">
   <stop id="stop4143" stop-color="#b3b3b3" offset="0"/>
   <stop id="stop4145" stop-color="#b3b3b3" stop-opacity="0" offset="1"/>
  </linearGradient>
  <filter id="filter4185" height="1.2189" width="1.1775" y="-.10944" x="-.088755">
   <feGaussianBlur id="feGaussianBlur4187" stdDeviation="2.1952671"/>
  </filter>
  <linearGradient id="linearGradient5399">
   <stop id="stop5401" stop-color="#cef8fb" offset="0"/>
   <stop id="stop5403" stop-color="#cef8fb" stop-opacity="0" offset="1"/>
  </linearGradient>
  <linearGradient id="linearGradient4133">
   <stop id="stop4135" stop-color="#fff" offset="0"/>
   <stop id="stop4137" stop-color="#fff" stop-opacity="0" offset="1"/>
  </linearGradient>
  <filter id="filter4077" height="1.3007" width="1.2193" y="-.15037" x="-.10966">
   <feGaussianBlur id="feGaussianBlur4079" stdDeviation="10.149889"/>
  </filter>
  <filter id="filter6727" height="1.4422" width="1.4555" y="-.22112" x="-.22776">
   <feGaussianBlur id="feGaussianBlur6729" stdDeviation="18.979675"/>
  </filter>
  <filter id="filter7962" height="1.8746" width="1.8062" y="-.43729" x="-.40312">
   <feGaussianBlur id="feGaussianBlur7964" stdDeviation="10.75"/>
  </filter>
  <linearGradient id="linearGradient8921" y2="543.66" gradientUnits="userSpaceOnUse" x2="176.99" gradientTransform="matrix(-1.0358 -.0033988 .0046990 -.7492 695.03 699.06)" y1="398.94" x1="176.99">
   <stop id="stop4736" stop-color="#3db726" offset="0"/>
   <stop id="stop4738" stop-color="#3db726" stop-opacity="0" offset="1"/>
  </linearGradient>
  <linearGradient id="linearGradient8923" y2="543.66" gradientUnits="userSpaceOnUse" x2="176.99" gradientTransform="matrix(-1.0358 -.0033988 .0046990 -.7492 695.03 699.06)" y1="456.29" x1="176.99">
   <stop id="stop4752" stop-color="#277223" offset="0"/>
   <stop id="stop4754" stop-color="#277223" stop-opacity="0" offset="1"/>
  </linearGradient>
  <linearGradient id="linearGradient8925" y2="335.59" xlink:href="#linearGradient4133" gradientUnits="userSpaceOnUse" x2="520" gradientTransform="matrix(.62895 0 0 .20965 158.61 -37.14)" y1="283.59" x1="520"/>
  <linearGradient id="linearGradient8927" y2="335.59" xlink:href="#linearGradient4133" gradientUnits="userSpaceOnUse" x2="520" gradientTransform="matrix(.62895 0 0 .20965 160.6 -53.089)" y1="283.59" x1="520"/>
  <linearGradient id="linearGradient8929" y2="337.21" xlink:href="#linearGradient4133" gradientUnits="userSpaceOnUse" x2="398.94" y1="309.64" x1="398.94"/>
  <linearGradient id="linearGradient8931" y2="343.99" xlink:href="#linearGradient4274" gradientUnits="userSpaceOnUse" x2="398.94" y1="301.92" x1="398.94"/>
  <linearGradient id="linearGradient8933" y2="335.59" xlink:href="#linearGradient4133" gradientUnits="userSpaceOnUse" x2="520" gradientTransform="matrix(.62895 0 0 .20965 -128.66 341.86)" y1="283.59" x1="520"/>
  <linearGradient id="linearGradient8935" y2="335.59" xlink:href="#linearGradient4133" gradientUnits="userSpaceOnUse" x2="520" gradientTransform="matrix(.22255 0 0 .20965 -393.91 193.57)" y1="283.59" x1="520"/>
  <linearGradient id="linearGradient8937" y2="335.59" xlink:href="#linearGradient4133" gradientUnits="userSpaceOnUse" x2="520" gradientTransform="matrix(.22255 0 0 .20965 -19.021 224.28)" y1="283.59" x1="520"/>
  <linearGradient id="linearGradient8939" y2="335.59" xlink:href="#linearGradient4133" gradientUnits="userSpaceOnUse" x2="520" gradientTransform="matrix(.22255 0 0 .20965 -370.88 -109.95)" y1="283.59" x1="520"/>
  <linearGradient id="linearGradient8941" y2="338.39" xlink:href="#linearGradient4133" gradientUnits="userSpaceOnUse" x2="398.94" y1="301.92" x1="398.94"/>
  <linearGradient id="linearGradient8943" y2="340.67" xlink:href="#linearGradient5399" gradientUnits="userSpaceOnUse" x2="398.94" y1="301.92" x1="398.94"/>
  <linearGradient id="linearGradient8945" y2="335.59" xlink:href="#linearGradient4133" gradientUnits="userSpaceOnUse" x2="520" gradientTransform="matrix(.62895 0 0 .20965 -161.03 561.04)" y1="283.59" x1="520"/>
  <linearGradient id="linearGradient8947" y2="335.59" xlink:href="#linearGradient4133" gradientUnits="userSpaceOnUse" x2="520" gradientTransform="matrix(.22255 0 0 .20965 -709.95 139.57)" y1="283.59" x1="520"/>
  <linearGradient id="linearGradient8953" y2="335.59" xlink:href="#linearGradient4133" gradientUnits="userSpaceOnUse" x2="520" gradientTransform="matrix(.62895 0 0 .20965 -1.3684 172.67)" y1="283.59" x1="520"/>
  <linearGradient id="linearGradient8957" y2="336.28" xlink:href="#linearGradient4141" gradientUnits="userSpaceOnUse" x2="398.94" y1="310.1" x1="398.94"/>
  <linearGradient id="linearGradient8965" y2="335.97" xlink:href="#linearGradient5381" gradientUnits="userSpaceOnUse" x2="398.94" y1="301.92" x1="398.94"/>
  <linearGradient id="linearGradient8973" y2="335.59" xlink:href="#linearGradient4133" gradientUnits="userSpaceOnUse" x2="520" gradientTransform="matrix(.62895 0 0 .20965 119.97 481.04)" y1="283.59" x1="520"/>
  <linearGradient id="linearGradient8975" y2="335.59" xlink:href="#linearGradient4133" gradientUnits="userSpaceOnUse" x2="520" gradientTransform="matrix(.22255 0 0 .20965 -629.95 420.57)" y1="283.59" x1="520"/>
  <linearGradient id="linearGradient8981" y2="335.59" xlink:href="#linearGradient4133" gradientUnits="userSpaceOnUse" x2="520" gradientTransform="matrix(.22255 0 0 .20965 -241.7 375.34)" y1="283.59" x1="520"/>
  <linearGradient id="linearGradient9021" y2="335.59" xlink:href="#linearGradient4133" gradientUnits="userSpaceOnUse" x2="520" gradientTransform="matrix(.22255 0 0 .20965 -59.863 631.69)" y1="283.59" x1="520"/>
  <linearGradient id="linearGradient9047" y2="335.59" xlink:href="#linearGradient4133" gradientUnits="userSpaceOnUse" x2="520" gradientTransform="matrix(.62895 0 0 .20965 -107.03 172.04)" y1="283.59" x1="520"/>
  <linearGradient id="linearGradient9049" y2="335.59" xlink:href="#linearGradient4133" gradientUnits="userSpaceOnUse" x2="520" gradientTransform="matrix(.22255 0 0 .20965 -320.95 193.57)" y1="283.59" x1="520"/>
  <linearGradient id="linearGradient9103" y2="335.59" xlink:href="#linearGradient4133" gradientUnits="userSpaceOnUse" x2="520" gradientTransform="matrix(.62895 0 0 .20965 343.97 172.04)" y1="283.59" x1="520"/>
  <linearGradient id="linearGradient9105" y2="335.59" xlink:href="#linearGradient4133" gradientUnits="userSpaceOnUse" x2="520" gradientTransform="matrix(.22255 0 0 .20965 -320.95 644.57)" y1="283.59" x1="520"/>
 </defs>
 <g id="layer1">
  <g id="g8597" transform="translate(-44,-8)">
   <g id="g7974" fill-rule="evenodd" fill="#fa5959" transform="translate(4)">
    <path id="path3082" opacity=".47967" d="m387.13 89.164c-37.43 195.27 103.94 209.57 205.63 225.86 25.53-2.22 24.55-30.02 12-43l-154.33-196.03c-10.12-3.475-50.47-19.719-63.3 13.174z" transform="matrix(1.0348 0 0 1.0117 -21.395 -41.762)" filter="url(#filter4077)"/>
    <path id="path4081" opacity=".47967" d="m327.93 77.133c-37.44 195.27 191.06 296.23 292.76 312.52 25.53-2.22 24.55-30.02 12-43l-222.34-294.25c-0.32-15.182-28.83-56.875-82.42 24.733z" transform="matrix(.63419 0 0 .61241 177.63 23.334)" filter="url(#filter4077)"/>
   </g>
   <path id="path11808" stroke-linejoin="round" d="m524.33 376.25l0.72-113.92-21.61-0.02-0.32 113.92-13.64-0.04 24.03 34.05 24.46-34.23-13.64 0.24z" fill-rule="evenodd" stroke="url(#linearGradient8923)" stroke-linecap="round" stroke-width="1.5857" fill="url(#linearGradient8921)"/>
   <g id="g8235" transform="translate(4)">
    <path id="path6793" opacity=".63008" d="m437 624.59c0 16.28-14.34 29.5-32 29.5s-32-13.22-32-29.5 14.34-29.5 32-29.5 32 13.22 32 29.5z" fill-rule="evenodd" transform="matrix(1.1186 0 0 1.1186 -99.254 -105.6)" filter="url(#filter7962)" fill="#87ef84"/>
    <g id="g6765" fill-rule="evenodd" transform="translate(-53,388)">
     <rect id="rect6767" transform="matrix(.79146 .61122 .61122 -.79146 0 0)" ry=".65823" height="5.6605" width="81.763" y="28.92" x="444.79" fill="#4d4d4d"/>
     <rect id="rect6769" transform="matrix(.79146 .61122 .61122 -.79146 0 0)" ry=".21941" height="1.8868" width="81.763" y="29.549" x="444.79" fill="url(#linearGradient8925)"/>
     <rect id="rect6771" transform="matrix(.79146 .61122 .61122 -.79146 0 0)" ry=".65823" height="5.6605" width="81.763" y="12.971" x="446.77" fill="#4d4d4d"/>
     <rect id="rect6773" transform="matrix(.79146 .61122 .61122 -.79146 0 0)" ry=".21941" height="1.8868" width="81.763" y="13.6" x="446.77" fill="url(#linearGradient8927)"/>
    </g>
    <g id="g6775" transform="translate(-53,388)">
     <path id="path6777" d="m375.44 321.44a48.369 54.128 0 1 1 -96.74 0 48.369 54.128 0 1 1 96.74 0z" fill-rule="evenodd" transform="matrix(.70382 0 0 .62895 197.52 97.045)" fill="#d40000"/>
     <path id="path6779" d="m428.62 325.99a29.681 24.072 0 1 1 -59.36 0 29.681 24.072 0 1 1 59.36 0z" fill-rule="evenodd" transform="matrix(.73145 0 0 .62895 135.84 78.064)" fill="url(#linearGradient8929)"/>
     <path id="path6781" d="m428.62 325.99a29.681 24.072 0 1 1 -59.36 0 29.681 24.072 0 1 1 59.36 0z" fill-rule="evenodd" transform="matrix(.76324 0 0 -.62895 123.14 519)" filter="url(#filter4185)" fill="url(#linearGradient8931)"/>
     <path id="path6783" fill="#333" d="m427.72 308.42c-2.71 0-4.81-1.02-6.29-3.05-1.49-2.04-2.23-4.5-2.23-7.39 0-2.94 0.75-5.39 2.26-7.35 1.5-1.97 3.64-2.95 6.42-2.95 2.82 0 4.94 1.05 6.37 3.14 1.43 2.1 2.14 4.5 2.14 7.21 0 2.91-0.74 5.38-2.21 7.38-1.48 2.01-3.63 3.01-6.46 3.01zm0.14-16.9c-2.48 0-3.72 2.18-3.72 6.52 0 4.35 1.24 6.53 3.72 6.53 2.39 0 3.59-2.17 3.59-6.51 0-4.36-1.2-6.54-3.59-6.54z"/>
    </g>
    <g id="g6022" fill-rule="evenodd" transform="translate(-54,389)">
     <rect id="rect6024" transform="rotate(-37.678)" ry=".65823" height="5.6605" width="81.763" y="407.92" x="157.51" fill="#4d4d4d"/>
     <rect id="rect6026" transform="rotate(-37.678)" ry=".21941" height="1.8868" width="81.763" y="408.54" x="157.51" fill="url(#linearGradient8933)"/>
    </g>
    <g id="g5960" fill-rule="evenodd" transform="translate(-54,389)">
     <rect id="rect5962" transform="rotate(-90)" ry=".65823" height="5.6605" width="28.932" y="259.63" x="-292.64" fill="#4d4d4d"/>
     <rect id="rect5964" transform="rotate(-90)" ry=".21941" height="1.8868" width="28.932" y="260.26" x="-292.64" fill="url(#linearGradient8935)"/>
    </g>
    <g id="g5966" fill-rule="evenodd" transform="translate(-54,389)">
     <rect id="rect5968" transform="matrix(-.68494 .72860 .72860 .68494 0 0)" ry=".65823" height="5.6605" width="28.932" y="290.34" x="82.24" fill="#4d4d4d"/>
     <rect id="rect5970" transform="matrix(-.68494 .72860 .72860 .68494 0 0)" ry=".21941" height="1.8868" width="28.932" y="290.97" x="82.24" fill="url(#linearGradient8937)"/>
    </g>
    <g id="g6731" transform="translate(10,-10)">
     <g id="g5972" fill-rule="evenodd" transform="translate(-64,399)">
      <rect id="rect5974" ry=".65823" transform="rotate(226.77)" height="5.6605" width="28.932" y="-43.888" x="-269.62" fill="#4d4d4d"/>
      <rect id="rect5976" ry=".21941" transform="rotate(226.77)" height="1.8868" width="28.932" y="-43.259" x="-269.62" fill="url(#linearGradient8939)"/>
     </g>
     <path id="path5978" d="m375.44 321.44a48.369 54.128 0 1 1 -96.74 0 48.369 54.128 0 1 1 96.74 0z" fill-rule="evenodd" transform="matrix(.39769 0 0 .35538 -64.158 480.91)" fill="#b6e1ff"/>
     <g id="g5980" transform="translate(-64,399)">
      <path id="path5982" d="m428.62 325.99a29.681 24.072 0 1 1 -59.36 0 29.681 24.072 0 1 1 59.36 0z" fill-rule="evenodd" transform="matrix(.41330 0 0 .35538 -35.008 71.184)" fill="url(#linearGradient8941)"/>
      <path id="path5984" d="m428.62 325.99a29.681 24.072 0 1 1 -59.36 0 29.681 24.072 0 1 1 59.36 0z" fill-rule="evenodd" transform="matrix(.43829 0 0 -.35538 -45.492 320.33)" filter="url(#filter4185)" fill="url(#linearGradient8943)"/>
      <path id="path5986" d="m137.62 185.2v20.12h-4.63v-8.3h-6.29v8.3h-4.63v-20.12h4.63v7.84h6.29v-7.84h4.63z"/>
     </g>
    </g>
    <path id="rect5988" d="m125.8 627.1h80.45c0.36 0 0.65 0.3 0.65 0.66v4.35c0 0.36-0.29 0.65-0.65 0.65h-80.45c-0.37 0-0.66-0.29-0.66-0.65v-4.35c0-0.36 0.29-0.66 0.66-0.66z" fill-rule="evenodd" fill="#4d4d4d"/>
    <path id="rect5990" d="m125.36 627.73h81.32c0.13 0 0.22 0.1 0.22 0.22v1.45c0 0.12-0.09 0.22-0.22 0.22h-81.32c-0.12 0-0.22-0.1-0.22-0.22v-1.45c0-0.12 0.1-0.22 0.22-0.22z" fill-rule="evenodd" fill="url(#linearGradient8945)"/>
    <path id="rect5992" d="m-608.03 205.63h27.62c0.36 0 0.66 0.3 0.66 0.66v4.34c0 0.37-0.3 0.66-0.66 0.66h-27.62c-0.36 0-0.66-0.29-0.66-0.66v-4.34c0-0.36 0.3-0.66 0.66-0.66z" fill-rule="evenodd" transform="rotate(-90)" fill="#4d4d4d"/>
    <path id="rect5994" d="m-608.47 206.26h28.5c0.12 0 0.22 0.1 0.22 0.22v1.45c0 0.12-0.1 0.22-0.22 0.22h-28.5c-0.12 0-0.22-0.1-0.22-0.22v-1.45c0-0.12 0.1-0.22 0.22-0.22z" fill-rule="evenodd" transform="rotate(-90)" fill="url(#linearGradient8947)"/>
    <g id="g5996" transform="translate(-54,389)">
     <path id="path5998" d="m375.44 321.44a48.369 54.128 0 1 1 -96.74 0 48.369 54.128 0 1 1 96.74 0z" fill-rule="evenodd" transform="matrix(.39769 0 0 .35538 132.55 63.041)" fill="#b6e1ff"/>
     <path id="path6000" d="m428.62 325.99a29.681 24.072 0 1 1 -59.36 0 29.681 24.072 0 1 1 59.36 0z" fill-rule="evenodd" transform="matrix(.41330 0 0 .35538 97.701 52.316)" fill="url(#linearGradient8941)"/>
     <path id="path6002" d="m428.62 325.99a29.681 24.072 0 1 1 -59.36 0 29.681 24.072 0 1 1 59.36 0z" fill-rule="evenodd" transform="matrix(.43829 0 0 -.35538 87.217 301.46)" filter="url(#filter4185)" fill="url(#linearGradient8943)"/>
     <path id="path6004" d="m270.33 166.33v20.13h-4.63v-8.3h-6.3v8.3h-4.62v-20.13h4.62v7.85h6.3v-7.85h4.63z"/>
    </g>
    <g id="g6028" fill-rule="evenodd" transform="translate(-54,389)">
     <rect id="rect6030" ry=".65823" height="5.6605" width="81.763" y="238.73" x="284.8" fill="#4d4d4d"/>
     <rect id="rect6032" ry=".21941" height="1.8868" width="81.763" y="239.36" x="284.8" fill="url(#linearGradient8953)"/>
    </g>
    <g id="g6034" transform="translate(-54,389)">
     <path id="path6036" d="m375.44 321.44a48.369 54.128 0 1 1 -96.74 0 48.369 54.128 0 1 1 96.74 0z" fill-rule="evenodd" transform="matrix(.48277 0 0 .43142 104.41 102.67)" fill="#808080"/>
     <path id="path6038" d="m428.62 325.99a29.681 24.072 0 1 1 -59.36 0 29.681 24.072 0 1 1 59.36 0z" fill-rule="evenodd" transform="matrix(.46538 0 0 .43142 76.38 89.654)" fill="url(#linearGradient8929)"/>
     <path id="path6040" d="m428.62 325.99a29.681 24.072 0 1 1 -59.36 0 29.681 24.072 0 1 1 59.36 0z" fill-rule="evenodd" transform="matrix(.46538 0 0 -.43142 76.582 392.11)" filter="url(#filter4185)" fill="url(#linearGradient8957)"/>
     <path id="path6042" fill="#333" d="m270.74 244.07c-0.19 2.06-1 3.72-2.43 4.98-1.43 1.27-3.27 1.9-5.53 1.9-2.45 0-4.45-0.81-5.99-2.43-1.55-1.62-2.32-3.79-2.32-6.51s0.79-4.92 2.37-6.61 3.68-2.54 6.32-2.54c2.12 0 3.88 0.64 5.27 1.91s2.16 2.87 2.31 4.78l-4.78 0.28c-0.16-2.09-1.06-3.13-2.72-3.13-2.02 0-3.04 1.66-3.04 4.98 0 2.22 0.28 3.62 0.85 4.22 0.57 0.59 1.26 0.89 2.07 0.89 1.59 0 2.53-1 2.84-3.01l4.78 0.29z"/>
    </g>
    <g id="g6044" transform="translate(-54,389)">
     <path id="path6046" d="m375.44 321.44a48.369 54.128 0 1 1 -96.74 0 48.369 54.128 0 1 1 96.74 0z" fill-rule="evenodd" transform="matrix(.48277 0 0 .43142 200.01 103.93)" fill="#808080"/>
     <path id="path6048" d="m428.62 325.99a29.681 24.072 0 1 1 -59.36 0 29.681 24.072 0 1 1 59.36 0z" fill-rule="evenodd" transform="matrix(.46538 0 0 .43142 171.98 90.912)" fill="url(#linearGradient8929)"/>
     <path id="path6050" d="m428.62 325.99a29.681 24.072 0 1 1 -59.36 0 29.681 24.072 0 1 1 59.36 0z" fill-rule="evenodd" transform="matrix(.46538 0 0 -.43142 172.18 393.37)" filter="url(#filter4185)" fill="url(#linearGradient8957)"/>
     <path id="path6052" fill="#333" d="m366.34 245.33c-0.19 2.05-1 3.71-2.43 4.98s-3.27 1.9-5.53 1.9c-2.45 0-4.45-0.81-5.99-2.43-1.54-1.63-2.32-3.79-2.32-6.51s0.79-4.92 2.37-6.61c1.58-1.7 3.68-2.54 6.32-2.54 2.12 0 3.88 0.64 5.27 1.91s2.16 2.86 2.31 4.78l-4.78 0.27c-0.16-2.08-1.06-3.13-2.71-3.13-2.03 0-3.05 1.67-3.05 4.99 0 2.21 0.28 3.62 0.85 4.21 0.57 0.6 1.26 0.9 2.07 0.9 1.59 0 2.53-1 2.84-3.01l4.78 0.29z"/>
    </g>
    <g id="g6064" transform="translate(-54,389)">
     <path id="path6066" d="m375.44 321.44a48.369 54.128 0 1 1 -96.74 0 48.369 54.128 0 1 1 96.74 0z" fill-rule="evenodd" transform="matrix(.59923 0 0 .53549 -19.879 68.623)" fill="#800080"/>
     <path id="path6068" d="m428.62 325.99a29.681 24.072 0 1 1 -59.36 0 29.681 24.072 0 1 1 59.36 0z" fill-rule="evenodd" transform="matrix(.62275 0 0 .53549 -72.391 52.462)" fill="url(#linearGradient8941)"/>
     <path id="path6070" d="m428.62 325.99a29.681 24.072 0 1 1 -59.36 0 29.681 24.072 0 1 1 59.36 0z" fill-rule="evenodd" transform="matrix(.63063 0 0 -.53549 -75.545 427.87)" filter="url(#filter4185)" fill="url(#linearGradient8965)"/>
     <path id="path6072" fill="#fff" d="m184.07 230.12v20.13h-4.02l-7.89-13.6c0.01 0.35 0.02 0.57 0.03 0.68 0.04 0.35 0.06 0.64 0.06 0.87v12.05h-3.67v-20.13h5.09l6.85 11.87c-0.06-0.59-0.09-1.04-0.09-1.34v-10.53h3.64z"/>
    </g>
    <g id="g6094" transform="translate(-54,389)">
     <path id="path6096" d="m375.44 321.44a48.369 54.128 0 1 1 -96.74 0 48.369 54.128 0 1 1 96.74 0z" fill-rule="evenodd" transform="matrix(.39769 0 0 .35538 -.15755 172.48)" fill="#b6e1ff"/>
     <path id="path6098" d="m428.62 325.99a29.681 24.072 0 1 1 -59.36 0 29.681 24.072 0 1 1 59.36 0z" fill-rule="evenodd" transform="matrix(.41330 0 0 .35538 -35.008 161.75)" fill="url(#linearGradient8941)"/>
     <path id="path6100" d="m428.62 325.99a29.681 24.072 0 1 1 -59.36 0 29.681 24.072 0 1 1 59.36 0z" fill-rule="evenodd" transform="matrix(.43829 0 0 -.35538 -45.492 410.9)" filter="url(#filter4185)" fill="url(#linearGradient8943)"/>
     <path id="path6102" d="m137.62 275.77v20.12h-4.63v-8.3h-6.29v8.3h-4.63v-20.12h4.63v7.84h6.29v-7.84h4.63z"/>
    </g>
    <g id="g6104" transform="translate(-54,389)">
     <rect id="rect6106" stroke-linejoin="round" fill-rule="evenodd" ry=".21941" height="67.927" width="64.153" stroke="#000" stroke-linecap="round" y="293.45" x="231.34" stroke-width="2.6342" fill="#f2f2f2"/>
     <path id="path6108" d="m262.14 326.55c1.59 0 2.72-0.29 3.41-0.88s1.03-1.56 1.03-2.91c0-1.34-0.34-2.29-1.03-2.87s-1.82-0.86-3.41-0.86h-3.18v7.52h3.18zm-3.18 5.23v11.11h-7.57v-29.35h11.56c3.86 0 6.7 0.65 8.5 1.95 1.8 1.29 2.7 3.35 2.7 6.15 0 1.94-0.47 3.53-1.4 4.78-0.94 1.24-2.35 2.16-4.24 2.75 1.03 0.23 1.96 0.77 2.78 1.6s1.65 2.09 2.49 3.78l4.11 8.34h-8.06l-3.58-7.3c-0.72-1.46-1.45-2.47-2.19-3-0.74-0.54-1.73-0.81-2.96-0.81h-2.14z"/>
    </g>
    <g id="g6112" fill-rule="evenodd" transform="translate(227,309)">
     <rect id="rect6114" ry=".65823" transform="rotate(-90)" height="5.6605" width="28.932" y="259.63" x="-292.64" fill="#4d4d4d"/>
     <rect id="rect6116" ry=".21941" transform="rotate(-90)" height="1.8868" width="28.932" y="260.26" x="-292.64" fill="url(#linearGradient8935)"/>
    </g>
    <path id="rect6140" d="m406.8 547.1h80.45c0.36 0 0.65 0.3 0.65 0.66v4.35c0 0.36-0.29 0.65-0.65 0.65h-80.45c-0.37 0-0.66-0.29-0.66-0.65v-4.35c0-0.36 0.29-0.66 0.66-0.66z" fill-rule="evenodd" fill="#4d4d4d"/>
    <path id="rect6142" d="m406.36 547.73h81.32c0.13 0 0.22 0.1 0.22 0.22v1.45c0 0.12-0.09 0.22-0.22 0.22h-81.32c-0.12 0-0.22-0.1-0.22-0.22v-1.45c0-0.12 0.1-0.22 0.22-0.22z" fill-rule="evenodd" fill="url(#linearGradient8973)"/>
    <path id="rect6144" d="m-528.03 486.63h27.62c0.36 0 0.66 0.3 0.66 0.66v4.34c0 0.37-0.3 0.66-0.66 0.66h-27.62c-0.36 0-0.66-0.29-0.66-0.66v-4.34c0-0.36 0.3-0.66 0.66-0.66z" fill-rule="evenodd" transform="rotate(-90)" fill="#4d4d4d"/>
    <path id="rect6146" d="m-528.47 487.26h28.5c0.12 0 0.22 0.1 0.22 0.22v1.45c0 0.12-0.1 0.22-0.22 0.22h-28.5c-0.12 0-0.22-0.1-0.22-0.22v-1.45c0-0.12 0.1-0.22 0.22-0.22z" fill-rule="evenodd" transform="rotate(-90)" fill="url(#linearGradient8975)"/>
    <g id="g6148" transform="translate(227,309)">
     <path id="path6150" d="m375.44 321.44a48.369 54.128 0 1 1 -96.74 0 48.369 54.128 0 1 1 96.74 0z" fill-rule="evenodd" transform="matrix(.39769 0 0 .35538 132.55 63.041)" fill="#b6e1ff"/>
     <path id="path6152" d="m428.62 325.99a29.681 24.072 0 1 1 -59.36 0 29.681 24.072 0 1 1 59.36 0z" fill-rule="evenodd" transform="matrix(.41330 0 0 .35538 97.701 52.316)" fill="url(#linearGradient8941)"/>
     <path id="path6154" d="m428.62 325.99a29.681 24.072 0 1 1 -59.36 0 29.681 24.072 0 1 1 59.36 0z" fill-rule="evenodd" transform="matrix(.43829 0 0 -.35538 87.217 301.46)" filter="url(#filter4185)" fill="url(#linearGradient8943)"/>
     <path id="path6156" d="m270.33 166.33v20.13h-4.63v-8.3h-6.3v8.3h-4.62v-20.13h4.62v7.85h6.3v-7.85h4.63z"/>
    </g>
    <g id="g6158" fill-rule="evenodd" transform="translate(227,309)">
     <rect id="rect6160" ry=".65823" transform="rotate(-90)" height="5.6605" width="28.932" y="441.4" x="-140.44" fill="#4d4d4d"/>
     <rect id="rect6162" ry=".21941" transform="rotate(-90)" height="1.8868" width="28.932" y="442.03" x="-140.44" fill="url(#linearGradient8981)"/>
    </g>
    <g id="g6164" fill-rule="evenodd" transform="translate(227,309)">
     <rect id="rect6166" ry=".65823" transform="matrix(.79146 .61122 .61122 -.79146 0 0)" height="5.6605" width="81.763" y="28.92" x="444.79" fill="#4d4d4d"/>
     <rect id="rect6168" ry=".21941" transform="matrix(.79146 .61122 .61122 -.79146 0 0)" height="1.8868" width="81.763" y="29.549" x="444.79" fill="url(#linearGradient8925)"/>
     <rect id="rect6170" ry=".65823" transform="matrix(.79146 .61122 .61122 -.79146 0 0)" height="5.6605" width="81.763" y="12.971" x="446.77" fill="#4d4d4d"/>
     <rect id="rect6172" ry=".21941" transform="matrix(.79146 .61122 .61122 -.79146 0 0)" height="1.8868" width="81.763" y="13.6" x="446.77" fill="url(#linearGradient8927)"/>
    </g>
    <g id="g6174" fill-rule="evenodd" transform="translate(227,309)">
     <rect id="rect6176" ry=".65823" transform="rotate(-37.678)" height="5.6605" width="81.763" y="407.92" x="157.51" fill="#4d4d4d"/>
     <rect id="rect6178" ry=".21941" transform="rotate(-37.678)" height="1.8868" width="81.763" y="408.54" x="157.51" fill="url(#linearGradient8933)"/>
    </g>
    <g id="g6180" fill-rule="evenodd" transform="translate(227,309)">
     <rect id="rect6182" ry=".65823" height="5.6605" width="81.763" y="238.73" x="284.8" fill="#4d4d4d"/>
     <rect id="rect6184" ry=".21941" height="1.8868" width="81.763" y="239.36" x="284.8" fill="url(#linearGradient8953)"/>
    </g>
    <g id="g6186" transform="translate(227,309)">
     <path id="path6188" d="m375.44 321.44a48.369 54.128 0 1 1 -96.74 0 48.369 54.128 0 1 1 96.74 0z" fill-rule="evenodd" transform="matrix(.48277 0 0 .43142 104.41 102.67)" fill="#808080"/>
     <path id="path6190" d="m428.62 325.99a29.681 24.072 0 1 1 -59.36 0 29.681 24.072 0 1 1 59.36 0z" fill-rule="evenodd" transform="matrix(.46538 0 0 .43142 76.38 89.654)" fill="url(#linearGradient8929)"/>
     <path id="path6192" d="m428.62 325.99a29.681 24.072 0 1 1 -59.36 0 29.681 24.072 0 1 1 59.36 0z" fill-rule="evenodd" transform="matrix(.46538 0 0 -.43142 76.582 392.11)" filter="url(#filter4185)" fill="url(#linearGradient8957)"/>
     <path id="path6194" fill="#333" d="m270.74 244.07c-0.19 2.06-1 3.72-2.43 4.98-1.43 1.27-3.27 1.9-5.53 1.9-2.45 0-4.45-0.81-5.99-2.43-1.55-1.62-2.32-3.79-2.32-6.51s0.79-4.92 2.37-6.61 3.68-2.54 6.32-2.54c2.12 0 3.88 0.64 5.27 1.91s2.16 2.87 2.31 4.78l-4.78 0.28c-0.16-2.09-1.06-3.13-2.72-3.13-2.02 0-3.04 1.66-3.04 4.98 0 2.22 0.28 3.62 0.85 4.22 0.57 0.59 1.26 0.89 2.07 0.89 1.59 0 2.53-1 2.84-3.01l4.78 0.29z"/>
    </g>
    <g id="g6196" transform="translate(227,309)">
     <path id="path6198" d="m375.44 321.44a48.369 54.128 0 1 1 -96.74 0 48.369 54.128 0 1 1 96.74 0z" fill-rule="evenodd" transform="matrix(.48277 0 0 .43142 200.01 103.93)" fill="#808080"/>
     <path id="path6200" d="m428.62 325.99a29.681 24.072 0 1 1 -59.36 0 29.681 24.072 0 1 1 59.36 0z" fill-rule="evenodd" transform="matrix(.46538 0 0 .43142 171.98 90.912)" fill="url(#linearGradient8929)"/>
     <path id="path6202" d="m428.62 325.99a29.681 24.072 0 1 1 -59.36 0 29.681 24.072 0 1 1 59.36 0z" fill-rule="evenodd" transform="matrix(.46538 0 0 -.43142 172.18 393.37)" filter="url(#filter4185)" fill="url(#linearGradient8957)"/>
     <path id="path6204" fill="#333" d="m366.34 245.33c-0.19 2.05-1 3.71-2.43 4.98s-3.27 1.9-5.53 1.9c-2.45 0-4.45-0.81-5.99-2.43-1.54-1.63-2.32-3.79-2.32-6.51s0.79-4.92 2.37-6.61c1.58-1.7 3.68-2.54 6.32-2.54 2.12 0 3.88 0.64 5.27 1.91s2.16 2.86 2.31 4.78l-4.78 0.27c-0.16-2.08-1.06-3.13-2.71-3.13-2.03 0-3.05 1.67-3.05 4.99 0 2.21 0.28 3.62 0.85 4.21 0.57 0.6 1.26 0.9 2.07 0.9 1.59 0 2.53-1 2.84-3.01l4.78 0.29z"/>
    </g>
    <g id="g6206" transform="translate(227,309)">
     <path id="path6208" d="m375.44 321.44a48.369 54.128 0 1 1 -96.74 0 48.369 54.128 0 1 1 96.74 0z" fill-rule="evenodd" transform="matrix(.70382 0 0 .62895 213.24 -30.002)" fill="#d40000"/>
     <path id="path6210" d="m428.62 325.99a29.681 24.072 0 1 1 -59.36 0 29.681 24.072 0 1 1 59.36 0z" fill-rule="evenodd" transform="matrix(.73145 0 0 .62895 151.57 -48.984)" fill="url(#linearGradient8929)"/>
     <path id="path6212" d="m428.62 325.99a29.681 24.072 0 1 1 -59.36 0 29.681 24.072 0 1 1 59.36 0z" fill-rule="evenodd" transform="matrix(.76324 0 0 -.62895 138.87 391.95)" filter="url(#filter4185)" fill="url(#linearGradient8931)"/>
     <path id="path6214" fill="#333" d="m443.45 181.37c-2.72 0-4.81-1.02-6.3-3.05-1.48-2.04-2.22-4.5-2.22-7.39 0-2.93 0.75-5.39 2.25-7.35 1.5-1.97 3.65-2.95 6.43-2.95 2.81 0 4.93 1.05 6.36 3.15s2.14 4.5 2.14 7.2c0 2.92-0.73 5.38-2.21 7.38-1.47 2.01-3.62 3.01-6.45 3.01zm0.13-16.89c-2.48 0-3.72 2.17-3.72 6.51 0 4.36 1.24 6.53 3.72 6.53 2.4 0 3.6-2.17 3.6-6.51 0-4.36-1.2-6.53-3.6-6.53z"/>
    </g>
    <g id="g6216" transform="translate(227,309)">
     <path id="path6218" d="m375.44 321.44a48.369 54.128 0 1 1 -96.74 0 48.369 54.128 0 1 1 96.74 0z" fill-rule="evenodd" transform="matrix(.59923 0 0 .53549 -19.879 68.623)" fill="#800080"/>
     <path id="path6220" d="m428.62 325.99a29.681 24.072 0 1 1 -59.36 0 29.681 24.072 0 1 1 59.36 0z" fill-rule="evenodd" transform="matrix(.62275 0 0 .53549 -72.391 52.462)" fill="url(#linearGradient8941)"/>
     <path id="path6222" d="m428.62 325.99a29.681 24.072 0 1 1 -59.36 0 29.681 24.072 0 1 1 59.36 0z" fill-rule="evenodd" transform="matrix(.63063 0 0 -.53549 -75.545 427.87)" filter="url(#filter4185)" fill="url(#linearGradient8965)"/>
     <path id="path6224" fill="#fff" d="m184.07 230.12v20.13h-4.02l-7.89-13.6c0.01 0.35 0.02 0.57 0.03 0.68 0.04 0.35 0.06 0.64 0.06 0.87v12.05h-3.67v-20.13h5.09l6.85 11.87c-0.06-0.59-0.09-1.04-0.09-1.34v-10.53h3.64z"/>
    </g>
    <g id="g6226" transform="translate(227,309)">
     <path id="path6228" d="m375.44 321.44a48.369 54.128 0 1 1 -96.74 0 48.369 54.128 0 1 1 96.74 0z" fill-rule="evenodd" transform="matrix(.39769 0 0 .35538 314.32 -17.465)" fill="#b6e1ff"/>
     <path id="path6230" d="m428.62 325.99a29.681 24.072 0 1 1 -59.36 0 29.681 24.072 0 1 1 59.36 0z" fill-rule="evenodd" transform="matrix(.41330 0 0 .35538 279.47 -28.19)" fill="url(#linearGradient8941)"/>
     <path id="path6232" d="m428.62 325.99a29.681 24.072 0 1 1 -59.36 0 29.681 24.072 0 1 1 59.36 0z" fill-rule="evenodd" transform="matrix(.43829 0 0 -.35538 268.98 220.95)" filter="url(#filter4185)" fill="url(#linearGradient8943)"/>
     <path id="path6234" d="m452.09 85.828v20.122h-4.62v-8.3h-6.3v8.3h-4.63v-20.122h4.63v7.842h6.3v-7.842h4.62z"/>
    </g>
    <g id="g6236" transform="translate(227,309)">
     <path id="path6238" d="m375.44 321.44a48.369 54.128 0 1 1 -96.74 0 48.369 54.128 0 1 1 96.74 0z" fill-rule="evenodd" transform="matrix(.70382 0 0 .62895 197.52 97.045)" fill="#d40000"/>
     <path id="path6240" d="m428.62 325.99a29.681 24.072 0 1 1 -59.36 0 29.681 24.072 0 1 1 59.36 0z" fill-rule="evenodd" transform="matrix(.73145 0 0 .62895 135.84 78.064)" fill="url(#linearGradient8929)"/>
     <path id="path6242" d="m428.62 325.99a29.681 24.072 0 1 1 -59.36 0 29.681 24.072 0 1 1 59.36 0z" fill-rule="evenodd" transform="matrix(.76324 0 0 -.62895 123.14 519)" filter="url(#filter4185)" fill="url(#linearGradient8931)"/>
     <path id="path6244" fill="#333" d="m427.72 308.42c-2.71 0-4.81-1.02-6.29-3.05-1.49-2.04-2.23-4.5-2.23-7.39 0-2.94 0.75-5.39 2.26-7.35 1.5-1.97 3.64-2.95 6.42-2.95 2.82 0 4.94 1.05 6.37 3.14 1.43 2.1 2.14 4.5 2.14 7.21 0 2.91-0.74 5.38-2.21 7.38-1.48 2.01-3.63 3.01-6.46 3.01zm0.14-16.9c-2.48 0-3.72 2.18-3.72 6.52 0 4.35 1.24 6.53 3.72 6.53 2.39 0 3.59-2.17 3.59-6.51 0-4.36-1.2-6.54-3.59-6.54z"/>
    </g>
    <g id="g6256" transform="translate(-224,309)">
     <rect id="rect6258" stroke-linejoin="round" fill-rule="evenodd" ry=".21941" height="67.927" width="64.153" stroke="#000" stroke-linecap="round" y="293.45" x="682.34" stroke-width="2.6342" fill="#ffe6d5"/>
     <path id="path6260" d="m713.14 326.55c1.59 0 2.72-0.29 3.41-0.88s1.03-1.56 1.03-2.91c0-1.34-0.34-2.29-1.03-2.87s-1.82-0.86-3.41-0.86h-3.18v7.52h3.18zm-3.18 5.23v11.11h-7.57v-29.35h11.56c3.86 0 6.7 0.65 8.5 1.95 1.8 1.29 2.7 3.35 2.7 6.15 0 1.94-0.47 3.53-1.4 4.78-0.94 1.24-2.35 2.16-4.24 2.75 1.03 0.23 1.96 0.77 2.78 1.6s1.65 2.09 2.49 3.78l4.11 8.34h-8.06l-3.58-7.3c-0.72-1.46-1.45-2.47-2.19-3-0.74-0.54-1.73-0.81-2.96-0.81h-2.14z"/>
    </g>
    <g id="g6741" transform="translate(296,-97)">
     <g id="g6743" fill-rule="evenodd" transform="translate(-64,399)">
      <rect id="rect6745" transform="rotate(226.77)" ry=".65823" height="5.6605" width="28.932" y="-43.888" x="-269.62" fill="#4d4d4d"/>
      <rect id="rect6747" transform="rotate(226.77)" ry=".21941" height="1.8868" width="28.932" y="-43.259" x="-269.62" fill="url(#linearGradient8939)"/>
     </g>
     <path id="path6749" d="m375.44 321.44a48.369 54.128 0 1 1 -96.74 0 48.369 54.128 0 1 1 96.74 0z" fill-rule="evenodd" transform="matrix(.39769 0 0 .35538 -64.158 480.91)" fill="#b6e1ff"/>
     <g id="g6751" transform="translate(-64,399)">
      <path id="path6753" d="m428.62 325.99a29.681 24.072 0 1 1 -59.36 0 29.681 24.072 0 1 1 59.36 0z" fill-rule="evenodd" transform="matrix(.41330 0 0 .35538 -35.008 71.184)" fill="url(#linearGradient8941)"/>
      <path id="path6755" d="m428.62 325.99a29.681 24.072 0 1 1 -59.36 0 29.681 24.072 0 1 1 59.36 0z" fill-rule="evenodd" transform="matrix(.43829 0 0 -.35538 -45.492 320.33)" filter="url(#filter4185)" fill="url(#linearGradient8943)"/>
      <path id="path6757" d="m137.62 185.2v20.12h-4.63v-8.3h-6.29v8.3h-4.63v-20.12h4.63v7.84h6.29v-7.84h4.63z"/>
     </g>
    </g>
   </g>
   <g id="g8208" transform="translate(4)">
    <path id="path6661" opacity=".26016" d="m767 475.09c0 56.86-44.8 103-100 103s-100-46.14-100-103 44.8-103 100-103 100 46.14 100 103z" fill-rule="evenodd" transform="translate(233,134)" filter="url(#filter6727)" fill="#ff2a2a"/>
    <g id="g6607" transform="translate(408,121)">
     <rect id="rect6538" transform="matrix(-.68494 .72860 .72860 .68494 0 0)" fill-rule="evenodd" ry=".65823" height="5.6605" width="28.932" y="697.75" x="41.398" fill="#4d4d4d"/>
     <rect id="rect6540" transform="matrix(-.68494 .72860 .72860 .68494 0 0)" fill-rule="evenodd" ry=".21941" height="1.8868" width="28.932" y="698.38" x="41.398" fill="url(#linearGradient9021)"/>
     <g id="g6542" fill-rule="evenodd" transform="translate(324.82 249.3)">
      <rect id="rect6544" ry=".65823" transform="rotate(226.77)" height="5.6605" width="28.932" y="-43.888" x="-269.62" fill="#4d4d4d"/>
      <rect id="rect6546" ry=".21941" transform="rotate(226.77)" height="1.8868" width="28.932" y="-43.259" x="-269.62" fill="url(#linearGradient8939)"/>
     </g>
     <g id="g6600" transform="translate(359.82 73.296)">
      <path id="path6548" d="m375.44 321.44a48.369 54.128 0 1 1 -96.74 0 48.369 54.128 0 1 1 96.74 0z" fill-rule="evenodd" transform="matrix(.39769 0 0 .35538 -35.158 257.91)" fill="#b6e1ff"/>
      <g id="g6550" transform="translate(-35,176)">
       <path id="path6552" d="m428.62 325.99a29.681 24.072 0 1 1 -59.36 0 29.681 24.072 0 1 1 59.36 0z" fill-rule="evenodd" transform="matrix(.41330 0 0 .35538 -35.008 71.184)" fill="url(#linearGradient8941)"/>
       <path id="path6554" d="m428.62 325.99a29.681 24.072 0 1 1 -59.36 0 29.681 24.072 0 1 1 59.36 0z" fill-rule="evenodd" transform="matrix(.43829 0 0 -.35538 -45.492 320.33)" filter="url(#filter4185)" fill="url(#linearGradient8943)"/>
       <path id="path6556" d="m137.62 185.2v20.12h-4.63v-8.3h-6.29v8.3h-4.63v-20.12h4.63v7.84h6.29v-7.84h4.63z"/>
      </g>
     </g>
     <g id="g6593" transform="translate(359.82 73.296)">
      <path id="path6560" d="m375.44 321.44a48.369 54.128 0 1 1 -96.74 0 48.369 54.128 0 1 1 96.74 0z" fill-rule="evenodd" transform="matrix(.39769 0 0 .35538 -35.158 348.48)" fill="#b6e1ff"/>
      <g id="g6588">
       <path id="path6562" d="m428.62 325.99a29.681 24.072 0 1 1 -59.36 0 29.681 24.072 0 1 1 59.36 0z" fill-rule="evenodd" transform="matrix(.41330 0 0 .35538 -70.008 337.75)" fill="url(#linearGradient8941)"/>
       <path id="path6564" d="m428.62 325.99a29.681 24.072 0 1 1 -59.36 0 29.681 24.072 0 1 1 59.36 0z" fill-rule="evenodd" transform="matrix(.43829 0 0 -.35538 -80.492 586.9)" filter="url(#filter4185)" fill="url(#linearGradient8943)"/>
       <path id="path6566" d="m102.62 451.77v20.12h-4.63v-8.3h-6.294v8.3h-4.629v-20.12h4.629v7.84h6.294v-7.84h4.63z"/>
      </g>
     </g>
     <g id="g6054" transform="translate(64.817 319.3)">
      <path id="path6056" d="m375.44 321.44a48.369 54.128 0 1 1 -96.74 0 48.369 54.128 0 1 1 96.74 0z" fill-rule="evenodd" transform="matrix(.70382 0 0 .62895 213.24 -30.002)" fill="#d40000"/>
      <path id="path6058" d="m428.62 325.99a29.681 24.072 0 1 1 -59.36 0 29.681 24.072 0 1 1 59.36 0z" fill-rule="evenodd" transform="matrix(.73145 0 0 .62895 151.57 -48.984)" fill="url(#linearGradient8929)"/>
      <path id="path6060" d="m428.62 325.99a29.681 24.072 0 1 1 -59.36 0 29.681 24.072 0 1 1 59.36 0z" fill-rule="evenodd" transform="matrix(.76324 0 0 -.62895 138.87 391.95)" filter="url(#filter4185)" fill="url(#linearGradient8931)"/>
      <path id="path6062" fill="#333" d="m443.45 181.37c-2.72 0-4.81-1.02-6.3-3.05-1.48-2.04-2.22-4.5-2.22-7.39 0-2.93 0.75-5.39 2.25-7.35 1.5-1.97 3.65-2.95 6.43-2.95 2.81 0 4.93 1.05 6.36 3.15s2.14 4.5 2.14 7.2c0 2.92-0.73 5.38-2.21 7.38-1.47 2.01-3.62 3.01-6.45 3.01zm0.13-16.89c-2.48 0-3.72 2.17-3.72 6.51 0 4.36 1.24 6.53 3.72 6.53 2.4 0 3.6-2.17 3.6-6.51 0-4.36-1.2-6.53-3.6-6.53z"/>
     </g>
    </g>
    <path id="flowRoot7978" d="m853.83 745.82h5.05l3.53 14.83 3.5-14.83h5.07l3.5 14.83 3.53-14.83h5l-4.81 20.41h-6.07l-3.71-15.52-3.66 15.52h-6.07l-4.86-20.41zm39.28 13.52c-1.02 0-1.79 0.17-2.3 0.52-0.52 0.35-0.77 0.86-0.77 1.53 0 0.62 0.2 1.11 0.62 1.46 0.41 0.35 0.99 0.52 1.73 0.52 0.92 0 1.69-0.33 2.32-0.99s0.95-1.48 0.95-2.48v-0.56h-2.55zm7.48-1.84v8.73h-4.93v-2.27c-0.66 0.93-1.4 1.61-2.22 2.03-0.82 0.43-1.82 0.64-2.99 0.64-1.59 0-2.88-0.46-3.87-1.39-0.98-0.92-1.48-2.13-1.48-3.6 0-1.8 0.62-3.11 1.85-3.95 1.24-0.84 3.18-1.26 5.82-1.26h2.89v-0.38c0-0.78-0.31-1.35-0.92-1.71s-1.56-0.54-2.86-0.54c-1.05 0-2.02 0.11-2.92 0.32-0.91 0.21-1.74 0.52-2.52 0.94v-3.73c1.05-0.26 2.1-0.45 3.16-0.58s2.11-0.2 3.17-0.2c2.76 0 4.76 0.54 5.98 1.63 1.23 1.09 1.84 2.86 1.84 5.32zm9.93-10.93v4.35h5.04v3.5h-5.04v6.49c0 0.71 0.14 1.2 0.42 1.45s0.84 0.37 1.68 0.37h2.52v3.5h-4.2c-1.93 0-3.3-0.4-4.11-1.21-0.8-0.8-1.21-2.17-1.21-4.11v-6.49h-2.43v-3.5h2.43v-4.35h4.9zm23.34 11.96v1.4h-11.45c0.12 1.15 0.54 2.01 1.25 2.58 0.71 0.58 1.7 0.86 2.98 0.86 1.03 0 2.08-0.15 3.16-0.45 1.08-0.31 2.19-0.77 3.33-1.39v3.77c-1.16 0.44-2.31 0.77-3.47 0.99-1.16 0.23-2.32 0.34-3.47 0.34-2.78 0-4.93-0.71-6.46-2.11-1.54-1.41-2.31-3.39-2.31-5.93 0-2.5 0.76-4.46 2.26-5.89 1.51-1.43 3.59-2.15 6.23-2.15 2.41 0 4.33 0.72 5.78 2.17 1.44 1.45 2.17 3.39 2.17 5.81zm-5.04-1.62c0-0.93-0.27-1.68-0.81-2.25s-1.25-0.86-2.13-0.86c-0.94 0-1.71 0.27-2.31 0.8-0.59 0.54-0.96 1.31-1.1 2.31h6.35zm20.1-1.82c-0.43-0.2-0.85-0.35-1.28-0.44-0.42-0.1-0.85-0.15-1.27-0.15-1.26 0-2.23 0.4-2.91 1.21s-1.02 1.96-1.02 3.47v7.05h-4.89v-15.31h4.89v2.52c0.63-1.01 1.35-1.74 2.17-2.2 0.81-0.46 1.79-0.69 2.93-0.69 0.17 0 0.34 0.01 0.53 0.02 0.2 0.01 0.47 0.04 0.84 0.09l0.01 4.43z"/>
   </g>
   <path id="flowRoot7987" d="m309.83 800.8v12.45h1.89c2.15 0 3.79-0.53 4.93-1.6 1.13-1.06 1.7-2.61 1.7-4.64s-0.56-3.57-1.69-4.63c-1.13-1.05-2.78-1.58-4.94-1.58h-1.89zm-5.26-3.98h5.55c3.1 0 5.41 0.22 6.93 0.66 1.51 0.45 2.81 1.19 3.9 2.25 0.96 0.92 1.67 1.98 2.13 3.19 0.47 1.2 0.7 2.56 0.7 4.09 0 1.54-0.23 2.91-0.7 4.12-0.46 1.21-1.17 2.27-2.13 3.19-1.09 1.06-2.41 1.81-3.94 2.25s-3.83 0.66-6.89 0.66h-5.55v-20.41zm23.02 5.1h4.9v15.31h-4.9v-15.31zm0-5.96h4.9v3.99h-4.9v-3.99zm14.52 19.06v8.04h-4.89v-21.14h4.89v2.24c0.68-0.89 1.43-1.55 2.25-1.97 0.82-0.43 1.76-0.64 2.83-0.64 1.88 0 3.43 0.75 4.64 2.25 1.22 1.5 1.82 3.43 1.82 5.79s-0.6 4.29-1.82 5.79c-1.21 1.5-2.76 2.25-4.64 2.25-1.07 0-2.01-0.21-2.83-0.64-0.82-0.42-1.57-1.08-2.25-1.97zm3.26-9.91c-1.05 0-1.86 0.38-2.42 1.15s-0.84 1.88-0.84 3.33 0.28 2.56 0.84 3.33 1.37 1.15 2.42 1.15 1.85-0.38 2.4-1.14c0.55-0.77 0.82-1.88 0.82-3.34s-0.27-2.57-0.82-3.34c-0.55-0.76-1.35-1.14-2.4-1.14zm27.2 4.42v1.4h-11.44c0.12 1.15 0.53 2.01 1.25 2.58 0.71 0.58 1.7 0.86 2.98 0.86 1.03 0 2.08-0.15 3.16-0.45 1.08-0.31 2.19-0.77 3.33-1.39v3.77c-1.16 0.44-2.32 0.77-3.47 0.99-1.16 0.23-2.32 0.34-3.48 0.34-2.77 0-4.92-0.71-6.46-2.11-1.53-1.41-2.3-3.39-2.3-5.93 0-2.5 0.75-4.46 2.26-5.89s3.59-2.15 6.23-2.15c2.41 0 4.33 0.72 5.78 2.17 1.44 1.45 2.16 3.39 2.16 5.81zm-5.03-1.62c0-0.93-0.27-1.68-0.81-2.25s-1.25-0.86-2.13-0.86c-0.94 0-1.71 0.27-2.31 0.8-0.59 0.54-0.96 1.31-1.1 2.31h6.35zm13.62 7.11v8.04h-4.89v-21.14h4.89v2.24c0.67-0.89 1.42-1.55 2.24-1.97 0.82-0.43 1.77-0.64 2.83-0.64 1.89 0 3.44 0.75 4.65 2.25s1.82 3.43 1.82 5.79-0.61 4.29-1.82 5.79-2.76 2.25-4.65 2.25c-1.06 0-2.01-0.21-2.83-0.64-0.82-0.42-1.57-1.08-2.24-1.97zm3.25-9.91c-1.04 0-1.85 0.38-2.41 1.15s-0.84 1.88-0.84 3.33 0.28 2.56 0.84 3.33 1.37 1.15 2.41 1.15c1.05 0 1.85-0.38 2.4-1.14 0.55-0.77 0.83-1.88 0.83-3.34s-0.28-2.57-0.83-3.34c-0.55-0.76-1.35-1.14-2.4-1.14zm17.27-7.54v4.35h5.05v3.5h-5.05v6.49c0 0.71 0.14 1.2 0.43 1.45 0.28 0.25 0.84 0.37 1.68 0.37h2.51v3.5h-4.19c-1.94 0-3.31-0.4-4.11-1.21-0.81-0.8-1.21-2.17-1.21-4.11v-6.49h-2.44v-3.5h2.44v-4.35h4.89zm8.05 4.35h4.9v15.31h-4.9v-15.31zm0-5.96h4.9v3.99h-4.9v-3.99zm20.05 8.2v-8.2h4.92v21.27h-4.92v-2.21c-0.68 0.9-1.42 1.56-2.23 1.98s-1.75 0.63-2.82 0.63c-1.88 0-3.43-0.75-4.65-2.25-1.21-1.5-1.81-3.43-1.81-5.79s0.6-4.29 1.81-5.79c1.22-1.5 2.77-2.25 4.65-2.25 1.06 0 2 0.21 2.81 0.64 0.82 0.42 1.56 1.08 2.24 1.97zm-3.23 9.91c1.05 0 1.85-0.38 2.4-1.14 0.55-0.77 0.83-1.88 0.83-3.34s-0.28-2.57-0.83-3.34c-0.55-0.76-1.35-1.14-2.4-1.14-1.04 0-1.83 0.38-2.38 1.14-0.56 0.77-0.83 1.88-0.83 3.34s0.27 2.57 0.83 3.34c0.55 0.76 1.34 1.14 2.38 1.14zm28.16-4.54v1.4h-11.44c0.12 1.15 0.53 2.01 1.25 2.58 0.71 0.58 1.7 0.86 2.98 0.86 1.03 0 2.08-0.15 3.16-0.45 1.08-0.31 2.19-0.77 3.33-1.39v3.77c-1.16 0.44-2.31 0.77-3.47 0.99-1.16 0.23-2.32 0.34-3.48 0.34-2.77 0-4.92-0.71-6.46-2.11-1.53-1.41-2.3-3.39-2.3-5.93 0-2.5 0.76-4.46 2.26-5.89 1.51-1.43 3.59-2.15 6.23-2.15 2.41 0 4.33 0.72 5.78 2.17 1.44 1.45 2.16 3.39 2.16 5.81zm-5.03-1.62c0-0.93-0.27-1.68-0.81-2.25s-1.25-0.86-2.13-0.86c-0.94 0-1.71 0.27-2.31 0.8-0.59 0.54-0.96 1.31-1.1 2.31h6.35z"/>
   <path id="flowRoot7996" d="m59.57 463.82h8.737c2.597 0 4.591 0.58 5.981 1.73s2.085 2.8 2.085 4.93c0 2.14-0.695 3.79-2.085 4.94s-3.384 1.73-5.981 1.73h-3.473v7.08h-5.264v-20.41zm5.264 3.81v5.71h2.912c1.021 0 1.809-0.25 2.365-0.75s0.834-1.2 0.834-2.11-0.278-1.62-0.834-2.11-1.344-0.74-2.365-0.74h-2.912zm30.311 8.9v1.4h-11.444c0.119 1.15 0.533 2.01 1.244 2.58 0.711 0.58 1.705 0.86 2.981 0.86 1.03 0 2.085-0.15 3.165-0.45 1.08-0.31 2.19-0.77 3.329-1.39v3.77c-1.158 0.44-2.315 0.77-3.473 0.99-1.157 0.23-2.315 0.34-3.472 0.34-2.771 0-4.925-0.71-6.46-2.11-1.536-1.41-2.304-3.39-2.304-5.93 0-2.5 0.754-4.46 2.263-5.89 1.508-1.43 3.584-2.15 6.227-2.15 2.406 0 4.332 0.72 5.777 2.17 1.444 1.45 2.167 3.39 2.167 5.81zm-5.032-1.62c0-0.93-0.271-1.68-0.813-2.25-0.543-0.57-1.251-0.86-2.126-0.86-0.948 0-1.718 0.27-2.311 0.8-0.592 0.54-0.961 1.31-1.107 2.31h6.357zm13.617 7.11v8.04h-4.894v-21.14h4.894v2.24c0.67-0.89 1.42-1.55 2.24-1.97 0.82-0.43 1.77-0.64 2.83-0.64 1.89 0 3.44 0.75 4.65 2.25s1.82 3.43 1.82 5.79-0.61 4.29-1.82 5.79-2.76 2.25-4.65 2.25c-1.06 0-2.01-0.21-2.83-0.64-0.82-0.42-1.57-1.08-2.24-1.97zm3.25-9.91c-1.04 0-1.85 0.38-2.41 1.15s-0.84 1.88-0.84 3.33 0.28 2.56 0.84 3.33 1.37 1.15 2.41 1.15c1.05 0 1.85-0.38 2.4-1.14 0.56-0.77 0.83-1.88 0.83-3.34s-0.27-2.57-0.83-3.34c-0.55-0.76-1.35-1.14-2.4-1.14zm17.27-7.54v4.35h5.05v3.5h-5.05v6.49c0 0.71 0.14 1.2 0.43 1.45 0.28 0.25 0.84 0.37 1.68 0.37h2.51v3.5h-4.19c-1.94 0-3.31-0.4-4.11-1.21-0.81-0.8-1.21-2.17-1.21-4.11v-6.49h-2.44v-3.5h2.44v-4.35h4.89zm8.05 4.35h4.9v15.31h-4.9v-15.31zm0-5.96h4.9v3.99h-4.9v-3.99zm20.05 8.2v-8.2h4.92v21.27h-4.92v-2.21c-0.68 0.9-1.42 1.56-2.23 1.98s-1.75 0.63-2.82 0.63c-1.88 0-3.43-0.75-4.65-2.25-1.21-1.5-1.81-3.43-1.81-5.79s0.6-4.29 1.81-5.79c1.22-1.5 2.77-2.25 4.65-2.25 1.06 0 2 0.21 2.81 0.64 0.82 0.42 1.56 1.08 2.24 1.97zm-3.23 9.91c1.05 0 1.85-0.38 2.4-1.14 0.55-0.77 0.83-1.88 0.83-3.34s-0.28-2.57-0.83-3.34c-0.55-0.76-1.35-1.14-2.4-1.14-1.04 0-1.83 0.38-2.38 1.14-0.56 0.77-0.83 1.88-0.83 3.34s0.27 2.57 0.83 3.34c0.55 0.76 1.34 1.14 2.38 1.14zm28.17-4.54v1.4h-11.45c0.12 1.15 0.53 2.01 1.25 2.58 0.71 0.58 1.7 0.86 2.98 0.86 1.03 0 2.08-0.15 3.16-0.45 1.08-0.31 2.19-0.77 3.33-1.39v3.77c-1.16 0.44-2.31 0.77-3.47 0.99-1.16 0.23-2.32 0.34-3.47 0.34-2.78 0-4.93-0.71-6.46-2.11-1.54-1.41-2.31-3.39-2.31-5.93 0-2.5 0.76-4.46 2.26-5.89 1.51-1.43 3.59-2.15 6.23-2.15 2.41 0 4.33 0.72 5.78 2.17 1.44 1.45 2.17 3.39 2.17 5.81zm-5.04-1.62c0-0.93-0.27-1.68-0.81-2.25s-1.25-0.86-2.13-0.86c-0.94 0-1.71 0.27-2.31 0.8-0.59 0.54-0.96 1.31-1.1 2.31h6.35zm26.61 6.16c1.05 0 1.85-0.38 2.4-1.14 0.55-0.77 0.83-1.88 0.83-3.34s-0.28-2.57-0.83-3.34c-0.55-0.76-1.35-1.14-2.4-1.14s-1.85 0.38-2.41 1.15-0.84 1.88-0.84 3.33 0.28 2.56 0.84 3.33 1.36 1.15 2.41 1.15zm-3.25-9.91c0.67-0.89 1.42-1.55 2.24-1.97 0.82-0.43 1.76-0.64 2.83-0.64 1.88 0 3.43 0.75 4.65 2.25 1.21 1.5 1.81 3.43 1.81 5.79s-0.6 4.29-1.81 5.79c-1.22 1.5-2.77 2.25-4.65 2.25-1.07 0-2.01-0.21-2.83-0.64-0.82-0.42-1.57-1.08-2.24-1.97v2.21h-4.9v-21.27h4.9v8.2zm22.46 0.89c-1.09 0-1.91 0.39-2.48 1.17s-0.86 1.9-0.86 3.37 0.29 2.59 0.86 3.37 1.39 1.17 2.48 1.17c1.06 0 1.88-0.39 2.45-1.17 0.56-0.78 0.84-1.9 0.84-3.37s-0.28-2.59-0.84-3.37c-0.57-0.78-1.39-1.17-2.45-1.17zm0-3.5c2.63 0 4.69 0.71 6.17 2.13 1.48 1.43 2.22 3.39 2.22 5.91s-0.74 4.48-2.22 5.91c-1.48 1.42-3.54 2.13-6.17 2.13-2.64 0-4.71-0.71-6.2-2.13-1.49-1.43-2.24-3.39-2.24-5.91s0.75-4.48 2.24-5.91c1.49-1.42 3.56-2.13 6.2-2.13zm27.36 6.36v9.32h-4.93v-1.52-5.61c0-1.33-0.03-2.24-0.08-2.74-0.06-0.5-0.17-0.87-0.31-1.11-0.19-0.32-0.45-0.56-0.78-0.74s-0.7-0.27-1.12-0.27c-1.02 0-1.83 0.4-2.41 1.18-0.58 0.79-0.87 1.88-0.87 3.28v7.53h-4.9v-15.31h4.9v2.24c0.73-0.89 1.52-1.55 2.35-1.97 0.83-0.43 1.74-0.64 2.75-0.64 1.76 0 3.11 0.54 4.02 1.63 0.92 1.08 1.38 2.66 1.38 4.73zm14.98-3.75v-8.2h4.92v21.27h-4.92v-2.21c-0.67 0.9-1.42 1.56-2.23 1.98s-1.75 0.63-2.81 0.63c-1.89 0-3.44-0.75-4.65-2.25-1.22-1.5-1.82-3.43-1.82-5.79s0.6-4.29 1.82-5.79c1.21-1.5 2.76-2.25 4.65-2.25 1.05 0 1.99 0.21 2.8 0.64 0.82 0.42 1.57 1.08 2.24 1.97zm-3.23 9.91c1.05 0 1.85-0.38 2.4-1.14 0.55-0.77 0.83-1.88 0.83-3.34s-0.28-2.57-0.83-3.34c-0.55-0.76-1.35-1.14-2.4-1.14-1.04 0-1.83 0.38-2.38 1.14-0.55 0.77-0.83 1.88-0.83 3.34s0.28 2.57 0.83 3.34c0.55 0.76 1.34 1.14 2.38 1.14z"/>
   <path id="path8007" d="m338.3 571.98l-66.01-81.34-5.05 4.41 66.1 81.26-3.2 2.77 16.12 7.1-4.85-17.07-3.11 2.87z" fill-rule="evenodd" fill="#051705"/>
   <g id="g8050" transform="translate(4)">
    <g id="g2710" transform="translate(-19,-36)">
     <g id="g2698" fill-rule="evenodd">
      <rect id="rect5650" transform="rotate(-90)" ry=".65823" height="5.6605" width="28.932" y="259.63" x="-292.64" fill="#4d4d4d"/>
      <rect id="rect5652" transform="rotate(-90)" ry=".21941" height="1.8868" width="28.932" y="260.26" x="-292.64" fill="url(#linearGradient8935)"/>
     </g>
     <g id="g2706" fill-rule="evenodd">
      <rect id="rect5613" transform="matrix(-.68494 .72860 .72860 .68494 0 0)" ry=".65823" height="5.6605" width="28.932" y="290.34" x="82.24" fill="#4d4d4d"/>
      <rect id="rect5615" transform="matrix(-.68494 .72860 .72860 .68494 0 0)" ry=".21941" height="1.8868" width="28.932" y="290.97" x="82.24" fill="url(#linearGradient8937)"/>
     </g>
     <g id="g2702" fill-rule="evenodd">
      <rect id="rect5553" transform="rotate(226.77)" ry=".65823" height="5.6605" width="28.932" y="-43.888" x="-269.62" fill="#4d4d4d"/>
      <rect id="rect5555" transform="rotate(226.77)" ry=".21941" height="1.8868" width="28.932" y="-43.259" x="-269.62" fill="url(#linearGradient8939)"/>
     </g>
     <path id="path5535" d="m375.44 321.44a48.369 54.128 0 1 1 -96.74 0 48.369 54.128 0 1 1 96.74 0z" fill-rule="evenodd" transform="matrix(.39769 0 0 .35538 -.15755 81.909)" fill="#b6e1ff"/>
     <g id="g2603">
      <path id="path5537" d="m428.62 325.99a29.681 24.072 0 1 1 -59.36 0 29.681 24.072 0 1 1 59.36 0z" fill-rule="evenodd" transform="matrix(.41330 0 0 .35538 -35.008 71.184)" fill="url(#linearGradient8941)"/>
      <path id="path5539" d="m428.62 325.99a29.681 24.072 0 1 1 -59.36 0 29.681 24.072 0 1 1 59.36 0z" fill-rule="evenodd" transform="matrix(.43829 0 0 -.35538 -45.492 320.33)" filter="url(#filter4185)" fill="url(#linearGradient8943)"/>
      <path id="path5541" d="m137.62 185.2v20.12h-4.63v-8.3h-6.29v8.3h-4.63v-20.12h4.63v7.84h6.29v-7.84h4.63z"/>
     </g>
     <rect id="rect5513" fill-rule="evenodd" ry=".65823" height="5.6605" width="81.763" y="238.1" x="179.14" fill="#4d4d4d"/>
     <rect id="rect5515" fill-rule="evenodd" ry=".21941" height="1.8868" width="81.763" y="238.73" x="179.14" fill="url(#linearGradient9047)"/>
     <rect id="rect5489" ry=".65823" fill-rule="evenodd" transform="rotate(-90)" height="5.6605" width="28.932" y="259.63" x="-219.69" fill="#4d4d4d"/>
     <rect id="rect5491" ry=".21941" fill-rule="evenodd" transform="rotate(-90)" height="1.8868" width="28.932" y="260.26" x="-219.69" fill="url(#linearGradient9049)"/>
     <g id="g2614">
      <path id="path5497" d="m375.44 321.44a48.369 54.128 0 1 1 -96.74 0 48.369 54.128 0 1 1 96.74 0z" fill-rule="evenodd" transform="matrix(.39769 0 0 .35538 132.55 63.041)" fill="#b6e1ff"/>
      <path id="path5499" d="m428.62 325.99a29.681 24.072 0 1 1 -59.36 0 29.681 24.072 0 1 1 59.36 0z" fill-rule="evenodd" transform="matrix(.41330 0 0 .35538 97.701 52.316)" fill="url(#linearGradient8941)"/>
      <path id="path5501" d="m428.62 325.99a29.681 24.072 0 1 1 -59.36 0 29.681 24.072 0 1 1 59.36 0z" fill-rule="evenodd" transform="matrix(.43829 0 0 -.35538 87.217 301.46)" filter="url(#filter4185)" fill="url(#linearGradient8943)"/>
      <path id="path5503" d="m270.33 166.33v20.13h-4.63v-8.3h-6.3v8.3h-4.62v-20.13h4.62v7.85h6.3v-7.85h4.63z"/>
     </g>
     <g id="g2694" fill-rule="evenodd">
      <rect id="rect5449" transform="rotate(-90)" ry=".65823" height="5.6605" width="28.932" y="441.4" x="-140.44" fill="#4d4d4d"/>
      <rect id="rect5451" transform="rotate(-90)" ry=".21941" height="1.8868" width="28.932" y="442.03" x="-140.44" fill="url(#linearGradient8981)"/>
     </g>
     <g id="g2684" fill-rule="evenodd">
      <rect id="rect5471" transform="matrix(.79146 .61122 .61122 -.79146 0 0)" ry=".65823" height="5.6605" width="81.763" y="28.92" x="444.79" fill="#4d4d4d"/>
      <rect id="rect5473" transform="matrix(.79146 .61122 .61122 -.79146 0 0)" ry=".21941" height="1.8868" width="81.763" y="29.549" x="444.79" fill="url(#linearGradient8925)"/>
      <rect id="rect5441" transform="matrix(.79146 .61122 .61122 -.79146 0 0)" ry=".65823" height="5.6605" width="81.763" y="12.971" x="446.77" fill="#4d4d4d"/>
      <rect id="rect5443" transform="matrix(.79146 .61122 .61122 -.79146 0 0)" ry=".21941" height="1.8868" width="81.763" y="13.6" x="446.77" fill="url(#linearGradient8927)"/>
     </g>
     <g id="g2680" fill-rule="evenodd">
      <rect id="rect4372" transform="rotate(-37.678)" ry=".65823" height="5.6605" width="81.763" y="407.92" x="157.51" fill="#4d4d4d"/>
      <rect id="rect4374" transform="rotate(-37.678)" ry=".21941" height="1.8868" width="81.763" y="408.54" x="157.51" fill="url(#linearGradient8933)"/>
     </g>
     <g id="g2664" fill-rule="evenodd">
      <rect id="rect4195" ry=".65823" height="5.6605" width="81.763" y="238.73" x="284.8" fill="#4d4d4d"/>
      <rect id="rect4205" ry=".21941" height="1.8868" width="81.763" y="239.36" x="284.8" fill="url(#linearGradient8953)"/>
     </g>
     <g id="g2632">
      <path id="path2161" d="m375.44 321.44a48.369 54.128 0 1 1 -96.74 0 48.369 54.128 0 1 1 96.74 0z" fill-rule="evenodd" transform="matrix(.48277 0 0 .43142 104.41 102.67)" fill="#808080"/>
      <path id="path3134" d="m428.62 325.99a29.681 24.072 0 1 1 -59.36 0 29.681 24.072 0 1 1 59.36 0z" fill-rule="evenodd" transform="matrix(.46538 0 0 .43142 76.38 89.654)" fill="url(#linearGradient8929)"/>
      <path id="path4113" d="m428.62 325.99a29.681 24.072 0 1 1 -59.36 0 29.681 24.072 0 1 1 59.36 0z" fill-rule="evenodd" transform="matrix(.46538 0 0 -.43142 76.582 392.11)" filter="url(#filter4185)" fill="url(#linearGradient8957)"/>
      <path id="flowRoot4282" fill="#333" d="m270.74 244.07c-0.19 2.06-1 3.72-2.43 4.98-1.43 1.27-3.27 1.9-5.53 1.9-2.45 0-4.45-0.81-5.99-2.43-1.55-1.62-2.32-3.79-2.32-6.51s0.79-4.92 2.37-6.61 3.68-2.54 6.32-2.54c2.12 0 3.88 0.64 5.27 1.91s2.16 2.87 2.31 4.78l-4.78 0.28c-0.16-2.09-1.06-3.13-2.72-3.13-2.02 0-3.04 1.66-3.04 4.98 0 2.22 0.28 3.62 0.85 4.22 0.57 0.59 1.26 0.89 2.07 0.89 1.59 0 2.53-1 2.84-3.01l4.78 0.29z"/>
     </g>
     <g id="g2626">
      <path id="path4317" d="m375.44 321.44a48.369 54.128 0 1 1 -96.74 0 48.369 54.128 0 1 1 96.74 0z" fill-rule="evenodd" transform="matrix(.48277 0 0 .43142 200.01 103.93)" fill="#808080"/>
      <path id="path4319" d="m428.62 325.99a29.681 24.072 0 1 1 -59.36 0 29.681 24.072 0 1 1 59.36 0z" fill-rule="evenodd" transform="matrix(.46538 0 0 .43142 171.98 90.912)" fill="url(#linearGradient8929)"/>
      <path id="path4321" d="m428.62 325.99a29.681 24.072 0 1 1 -59.36 0 29.681 24.072 0 1 1 59.36 0z" fill-rule="evenodd" transform="matrix(.46538 0 0 -.43142 172.18 393.37)" filter="url(#filter4185)" fill="url(#linearGradient8957)"/>
      <path id="flowRoot4323" fill="#333" d="m366.34 245.33c-0.19 2.05-1 3.71-2.43 4.98s-3.27 1.9-5.53 1.9c-2.45 0-4.45-0.81-5.99-2.43-1.54-1.63-2.32-3.79-2.32-6.51s0.79-4.92 2.37-6.61c1.58-1.7 3.68-2.54 6.32-2.54 2.12 0 3.88 0.64 5.27 1.91s2.16 2.86 2.31 4.78l-4.78 0.27c-0.16-2.08-1.06-3.13-2.71-3.13-2.03 0-3.05 1.67-3.05 4.99 0 2.21 0.28 3.62 0.85 4.21 0.57 0.6 1.26 0.9 2.07 0.9 1.59 0 2.53-1 2.84-3.01l4.78 0.29z"/>
     </g>
     <g id="g2648">
      <path id="path4253" d="m375.44 321.44a48.369 54.128 0 1 1 -96.74 0 48.369 54.128 0 1 1 96.74 0z" fill-rule="evenodd" transform="matrix(.70382 0 0 .62895 213.24 -30.002)" fill="#d40000"/>
      <path id="path4255" d="m428.62 325.99a29.681 24.072 0 1 1 -59.36 0 29.681 24.072 0 1 1 59.36 0z" fill-rule="evenodd" transform="matrix(.73145 0 0 .62895 151.57 -48.984)" fill="url(#linearGradient8929)"/>
      <path id="path4257" d="m428.62 325.99a29.681 24.072 0 1 1 -59.36 0 29.681 24.072 0 1 1 59.36 0z" fill-rule="evenodd" transform="matrix(.76324 0 0 -.62895 138.87 391.95)" filter="url(#filter4185)" fill="url(#linearGradient8931)"/>
      <path id="flowRoot4344" fill="#333" d="m443.45 181.37c-2.72 0-4.81-1.02-6.3-3.05-1.48-2.04-2.22-4.5-2.22-7.39 0-2.93 0.75-5.39 2.25-7.35 1.5-1.97 3.65-2.95 6.43-2.95 2.81 0 4.93 1.05 6.36 3.15s2.14 4.5 2.14 7.2c0 2.92-0.73 5.38-2.21 7.38-1.47 2.01-3.62 3.01-6.45 3.01zm0.13-16.89c-2.48 0-3.72 2.17-3.72 6.51 0 4.36 1.24 6.53 3.72 6.53 2.4 0 3.6-2.17 3.6-6.51 0-4.36-1.2-6.53-3.6-6.53z"/>
     </g>
     <g id="g2597">
      <path id="path4388" d="m375.44 321.44a48.369 54.128 0 1 1 -96.74 0 48.369 54.128 0 1 1 96.74 0z" fill-rule="evenodd" transform="matrix(.59923 0 0 .53549 -19.879 68.623)" fill="#800080"/>
      <path id="path4390" d="m428.62 325.99a29.681 24.072 0 1 1 -59.36 0 29.681 24.072 0 1 1 59.36 0z" fill-rule="evenodd" transform="matrix(.62275 0 0 .53549 -72.391 52.462)" fill="url(#linearGradient8941)"/>
      <path id="path4392" d="m428.62 325.99a29.681 24.072 0 1 1 -59.36 0 29.681 24.072 0 1 1 59.36 0z" fill-rule="evenodd" transform="matrix(.63063 0 0 -.53549 -75.545 427.87)" filter="url(#filter4185)" fill="url(#linearGradient8965)"/>
      <path id="flowRoot4295" fill="#fff" d="m184.07 230.12v20.13h-4.02l-7.89-13.6c0.01 0.35 0.02 0.57 0.03 0.68 0.04 0.35 0.06 0.64 0.06 0.87v12.05h-3.67v-20.13h5.09l6.85 11.87c-0.06-0.59-0.09-1.04-0.09-1.34v-10.53h3.64z"/>
     </g>
     <g id="g2620">
      <path id="path5389" d="m375.44 321.44a48.369 54.128 0 1 1 -96.74 0 48.369 54.128 0 1 1 96.74 0z" fill-rule="evenodd" transform="matrix(.39769 0 0 .35538 314.32 -17.465)" fill="#b6e1ff"/>
      <path id="path5391" d="m428.62 325.99a29.681 24.072 0 1 1 -59.36 0 29.681 24.072 0 1 1 59.36 0z" fill-rule="evenodd" transform="matrix(.41330 0 0 .35538 279.47 -28.19)" fill="url(#linearGradient8941)"/>
      <path id="path5393" d="m428.62 325.99a29.681 24.072 0 1 1 -59.36 0 29.681 24.072 0 1 1 59.36 0z" fill-rule="evenodd" transform="matrix(.43829 0 0 -.35538 268.98 220.95)" filter="url(#filter4185)" fill="url(#linearGradient8943)"/>
      <path id="flowRoot5416" d="m452.09 85.828v20.122h-4.62v-8.3h-6.3v8.3h-4.63v-20.122h4.63v7.842h6.3v-7.842h4.62z"/>
     </g>
     <g id="g2642">
      <path id="path5457" d="m375.44 321.44a48.369 54.128 0 1 1 -96.74 0 48.369 54.128 0 1 1 96.74 0z" fill-rule="evenodd" transform="matrix(.70382 0 0 .62895 197.52 97.045)" fill="#d40000"/>
      <path id="path5459" d="m428.62 325.99a29.681 24.072 0 1 1 -59.36 0 29.681 24.072 0 1 1 59.36 0z" fill-rule="evenodd" transform="matrix(.73145 0 0 .62895 135.84 78.064)" fill="url(#linearGradient8929)"/>
      <path id="path5461" d="m428.62 325.99a29.681 24.072 0 1 1 -59.36 0 29.681 24.072 0 1 1 59.36 0z" fill-rule="evenodd" transform="matrix(.76324 0 0 -.62895 123.14 519)" filter="url(#filter4185)" fill="url(#linearGradient8931)"/>
      <path id="path5463" fill="#333" d="m427.72 308.42c-2.71 0-4.81-1.02-6.29-3.05-1.49-2.04-2.23-4.5-2.23-7.39 0-2.94 0.75-5.39 2.26-7.35 1.5-1.97 3.64-2.95 6.42-2.95 2.82 0 4.94 1.05 6.37 3.14 1.43 2.1 2.14 4.5 2.14 7.21 0 2.91-0.74 5.38-2.21 7.38-1.48 2.01-3.63 3.01-6.46 3.01zm0.14-16.9c-2.48 0-3.72 2.18-3.72 6.52 0 4.35 1.24 6.53 3.72 6.53 2.39 0 3.59-2.17 3.59-6.51 0-4.36-1.2-6.54-3.59-6.54z"/>
     </g>
     <g id="g2608">
      <path id="path5623" d="m375.44 321.44a48.369 54.128 0 1 1 -96.74 0 48.369 54.128 0 1 1 96.74 0z" fill-rule="evenodd" transform="matrix(.39769 0 0 .35538 -.15755 172.48)" fill="#b6e1ff"/>
      <path id="path5625" d="m428.62 325.99a29.681 24.072 0 1 1 -59.36 0 29.681 24.072 0 1 1 59.36 0z" fill-rule="evenodd" transform="matrix(.41330 0 0 .35538 -35.008 161.75)" fill="url(#linearGradient8941)"/>
      <path id="path5627" d="m428.62 325.99a29.681 24.072 0 1 1 -59.36 0 29.681 24.072 0 1 1 59.36 0z" fill-rule="evenodd" transform="matrix(.43829 0 0 -.35538 -45.492 410.9)" filter="url(#filter4185)" fill="url(#linearGradient8943)"/>
      <path id="path5629" d="m137.62 275.77v20.12h-4.63v-8.3h-6.29v8.3h-4.63v-20.12h4.63v7.84h6.29v-7.84h4.63z"/>
     </g>
     <g id="g2638">
      <rect id="rect5646" stroke-linejoin="round" fill-rule="evenodd" ry=".21941" height="67.927" width="64.153" stroke="#000" stroke-linecap="round" y="293.45" x="231.34" stroke-width="2.6342" fill="#f2f2f2"/>
      <path id="flowRoot5637" d="m262.14 326.55c1.59 0 2.72-0.29 3.41-0.88s1.03-1.56 1.03-2.91c0-1.34-0.34-2.29-1.03-2.87s-1.82-0.86-3.41-0.86h-3.18v7.52h3.18zm-3.18 5.23v11.11h-7.57v-29.35h11.56c3.86 0 6.7 0.65 8.5 1.95 1.8 1.29 2.7 3.35 2.7 6.15 0 1.94-0.47 3.53-1.4 4.78-0.94 1.24-2.35 2.16-4.24 2.75 1.03 0.23 1.96 0.77 2.78 1.6s1.65 2.09 2.49 3.78l4.11 8.34h-8.06l-3.58-7.3c-0.72-1.46-1.45-2.47-2.19-3-0.74-0.54-1.73-0.81-2.96-0.81h-2.14z"/>
     </g>
    </g>
    <path id="flowRoot8015" transform="translate(48,10)" d="m88.957 44.513h-8.23l-1.299 3.719h-5.291l7.56-20.412h6.276l7.56 20.412h-5.291l-1.285-3.719zm-6.918-3.787h5.592l-2.789-8.121-2.803 8.121zm30.161-5.264c0.62-0.947 1.36-1.67 2.21-2.167 0.85-0.496 1.79-0.745 2.81-0.745 1.76 0 3.1 0.543 4.02 1.627 0.92 1.085 1.38 2.662 1.38 4.731v9.324h-4.92v-7.984c0-0.119 0.01-0.242 0.02-0.37v-0.546c0-1.085-0.16-1.871-0.48-2.359-0.31-0.487-0.83-0.731-1.54-0.731-0.93 0-1.65 0.383-2.15 1.148-0.51 0.766-0.77 1.873-0.79 3.322v7.52h-4.92v-7.984c0-1.696-0.15-2.787-0.44-3.275-0.29-0.487-0.81-0.731-1.56-0.731-0.94 0-1.66 0.385-2.17 1.155s-0.77 1.871-0.77 3.302v7.533h-4.92v-15.313h4.92v2.243c0.6-0.866 1.29-1.518 2.07-1.955 0.78-0.438 1.64-0.657 2.58-0.657 1.06 0 1.99 0.256 2.8 0.766s1.43 1.226 1.85 2.146zm15.01-2.543h4.9v15.313h-4.9v-15.313zm0-5.96h4.9v3.992h-4.9v-3.992zm25.02 11.949v9.324h-4.92v-1.518-5.619c0-1.321-0.03-2.233-0.09-2.734s-0.16-0.871-0.31-1.108c-0.19-0.319-0.45-0.567-0.78-0.745-0.33-0.177-0.7-0.266-1.12-0.266-1.02 0-1.82 0.394-2.4 1.182-0.59 0.789-0.88 1.88-0.88 3.275v7.533h-4.89v-15.313h4.89v2.243c0.74-0.894 1.52-1.552 2.35-1.976s1.75-0.636 2.75-0.636c1.77 0 3.11 0.543 4.03 1.627 0.91 1.085 1.37 2.662 1.37 4.731zm11.85-2.858c-1.08 0-1.91 0.39-2.48 1.169-0.57 0.78-0.85 1.903-0.85 3.37 0 1.468 0.28 2.591 0.85 3.371 0.57 0.779 1.4 1.168 2.48 1.168 1.07 0 1.89-0.389 2.45-1.168 0.57-0.78 0.85-1.903 0.85-3.371 0-1.467-0.28-2.59-0.85-3.37-0.56-0.779-1.38-1.169-2.45-1.169zm0-3.5c2.64 0 4.7 0.711 6.18 2.133s2.22 3.391 2.22 5.906c0 2.516-0.74 4.485-2.22 5.907s-3.54 2.132-6.18 2.132-4.71-0.71-6.2-2.132-2.23-3.391-2.23-5.907c0-2.515 0.74-4.484 2.23-5.906s3.56-2.133 6.2-2.133zm28.56 8.791c-1.02 0-1.78 0.174-2.3 0.52-0.51 0.346-0.77 0.857-0.77 1.531 0 0.62 0.21 1.105 0.62 1.456 0.42 0.351 0.99 0.527 1.73 0.527 0.92 0 1.7-0.331 2.32-0.992 0.63-0.66 0.95-1.488 0.95-2.481v-0.561h-2.55zm7.48-1.845v8.736h-4.93v-2.27c-0.66 0.93-1.4 1.607-2.22 2.031s-1.82 0.635-2.99 0.635c-1.59 0-2.87-0.462-3.86-1.387s-1.49-2.126-1.49-3.603c0-1.795 0.62-3.112 1.86-3.951 1.23-0.838 3.17-1.258 5.81-1.258h2.89v-0.383c0-0.774-0.31-1.342-0.92-1.702s-1.56-0.54-2.86-0.54c-1.04 0-2.02 0.105-2.92 0.315-0.9 0.209-1.74 0.524-2.52 0.943v-3.732c1.05-0.256 2.1-0.449 3.16-0.581 1.06-0.133 2.12-0.199 3.17-0.199 2.76 0 4.76 0.545 5.98 1.634 1.23 1.089 1.84 2.86 1.84 5.312zm16.96-6.098v3.992c-0.67-0.456-1.34-0.793-2.01-1.012-0.67-0.218-1.36-0.328-2.08-0.328-1.37 0-2.43 0.399-3.19 1.197-0.77 0.797-1.15 1.911-1.15 3.342s0.38 2.546 1.15 3.343c0.76 0.798 1.82 1.196 3.19 1.196 0.76 0 1.49-0.113 2.18-0.341s1.32-0.565 1.91-1.012v4.006c-0.77 0.282-1.55 0.494-2.33 0.636-0.79 0.141-1.58 0.211-2.38 0.211-2.76 0-4.92-0.708-6.48-2.126-1.56-1.417-2.34-3.388-2.34-5.913 0-2.524 0.78-4.495 2.34-5.913 1.56-1.417 3.72-2.126 6.48-2.126 0.81 0 1.6 0.071 2.38 0.212 0.77 0.142 1.55 0.353 2.33 0.636zm4.25-0.479h4.89v15.313h-4.89v-15.313zm0-5.96h4.89v3.992h-4.89v-3.992zm20.04 8.203v-8.203h4.92v21.273h-4.92v-2.215c-0.67 0.902-1.42 1.563-2.23 1.983-0.81 0.419-1.75 0.628-2.81 0.628-1.89 0-3.44-0.749-4.65-2.249-1.21-1.499-1.82-3.429-1.82-5.79 0-2.36 0.61-4.29 1.82-5.79 1.21-1.499 2.76-2.249 4.65-2.249 1.05 0 1.99 0.212 2.81 0.636 0.81 0.424 1.56 1.082 2.23 1.976zm-3.23 9.912c1.05 0 1.85-0.383 2.4-1.149 0.56-0.765 0.83-1.877 0.83-3.336 0-1.458-0.27-2.57-0.83-3.336-0.55-0.765-1.35-1.148-2.4-1.148-1.03 0-1.83 0.383-2.38 1.148-0.55 0.766-0.83 1.878-0.83 3.336 0 1.459 0.28 2.571 0.83 3.336 0.55 0.766 1.35 1.149 2.38 1.149zm30.82 6.849h-4.06c-1.39-2.251-2.42-4.391-3.09-6.419-0.66-2.028-1-4.04-1-6.036s0.34-4.017 1.01-6.063 1.69-4.186 3.08-6.419h4.06c-1.17 2.16-2.04 4.272-2.62 6.337-0.59 2.064-0.88 4.104-0.88 6.118s0.29 4.056 0.87 6.125 1.46 4.188 2.63 6.357zm5.52-7.328h4.65v-13.193l-4.77 0.984v-3.582l4.75-0.984h5v16.775h4.65v3.637h-14.28v-3.637zm18.43 7.328c1.17-2.169 2.05-4.288 2.63-6.357s0.87-4.111 0.87-6.125-0.29-4.054-0.87-6.118c-0.58-2.065-1.46-4.177-2.63-6.337h4.06c1.39 2.233 2.42 4.373 3.09 6.419s1 4.067 1 6.063-0.33 4.008-1 6.036c-0.66 2.028-1.69 4.168-3.09 6.419h-4.06z"/>
   </g>
   <g id="g8129" transform="translate(4)">
    <g id="g4111" transform="translate(0,-36)">
     <g id="g2789" fill-rule="evenodd" transform="translate(451)">
      <rect id="rect2791" ry=".65823" transform="rotate(-90)" height="5.6605" width="28.932" y="259.63" x="-292.64" fill="#4d4d4d"/>
      <rect id="rect2793" ry=".21941" transform="rotate(-90)" height="1.8868" width="28.932" y="260.26" x="-292.64" fill="url(#linearGradient8935)"/>
     </g>
     <g id="g2795" fill-rule="evenodd" transform="translate(451)">
      <rect id="rect2797" ry=".65823" transform="matrix(-.68494 .72860 .72860 .68494 0 0)" height="5.6605" width="28.932" y="290.34" x="82.24" fill="#4d4d4d"/>
      <rect id="rect2799" ry=".21941" transform="matrix(-.68494 .72860 .72860 .68494 0 0)" height="1.8868" width="28.932" y="290.97" x="82.24" fill="url(#linearGradient8937)"/>
     </g>
     <g id="g2801" fill-rule="evenodd" transform="translate(451)">
      <rect id="rect2803" ry=".65823" transform="rotate(226.77)" height="5.6605" width="28.932" y="-43.888" x="-269.62" fill="#4d4d4d"/>
      <rect id="rect2805" ry=".21941" transform="rotate(226.77)" height="1.8868" width="28.932" y="-43.259" x="-269.62" fill="url(#linearGradient8939)"/>
     </g>
     <path id="path2807" d="m375.44 321.44a48.369 54.128 0 1 1 -96.74 0 48.369 54.128 0 1 1 96.74 0z" fill-rule="evenodd" transform="matrix(.39769 0 0 .35538 450.84 81.909)" fill="#b6e1ff"/>
     <g id="g2809" transform="translate(451)">
      <path id="path2811" d="m428.62 325.99a29.681 24.072 0 1 1 -59.36 0 29.681 24.072 0 1 1 59.36 0z" fill-rule="evenodd" transform="matrix(.41330 0 0 .35538 -35.008 71.184)" fill="url(#linearGradient8941)"/>
      <path id="path2813" d="m428.62 325.99a29.681 24.072 0 1 1 -59.36 0 29.681 24.072 0 1 1 59.36 0z" fill-rule="evenodd" transform="matrix(.43829 0 0 -.35538 -45.492 320.33)" filter="url(#filter4185)" fill="url(#linearGradient8943)"/>
      <path id="path2815" d="m137.62 185.2v20.12h-4.63v-8.3h-6.29v8.3h-4.63v-20.12h4.63v7.84h6.29v-7.84h4.63z"/>
     </g>
     <rect id="rect2817" fill-rule="evenodd" ry=".65823" height="5.6605" width="81.763" y="238.1" x="630.14" fill="#4d4d4d"/>
     <rect id="rect2819" fill-rule="evenodd" ry=".21941" height="1.8868" width="81.763" y="238.73" x="630.14" fill="url(#linearGradient9103)"/>
     <rect id="rect2821" transform="rotate(-90)" fill-rule="evenodd" ry=".65823" height="5.6605" width="28.932" y="710.63" x="-219.69" fill="#4d4d4d"/>
     <rect id="rect2823" transform="rotate(-90)" fill-rule="evenodd" ry=".21941" height="1.8868" width="28.932" y="711.26" x="-219.69" fill="url(#linearGradient9105)"/>
     <g id="g2825" transform="translate(451)">
      <path id="path2827" d="m375.44 321.44a48.369 54.128 0 1 1 -96.74 0 48.369 54.128 0 1 1 96.74 0z" fill-rule="evenodd" transform="matrix(.39769 0 0 .35538 132.55 63.041)" fill="#b6e1ff"/>
      <path id="path2829" d="m428.62 325.99a29.681 24.072 0 1 1 -59.36 0 29.681 24.072 0 1 1 59.36 0z" fill-rule="evenodd" transform="matrix(.41330 0 0 .35538 97.701 52.316)" fill="url(#linearGradient8941)"/>
      <path id="path2831" d="m428.62 325.99a29.681 24.072 0 1 1 -59.36 0 29.681 24.072 0 1 1 59.36 0z" fill-rule="evenodd" transform="matrix(.43829 0 0 -.35538 87.217 301.46)" filter="url(#filter4185)" fill="url(#linearGradient8943)"/>
      <path id="path2833" d="m270.33 166.33v20.13h-4.63v-8.3h-6.3v8.3h-4.62v-20.13h4.62v7.85h6.3v-7.85h4.63z"/>
     </g>
     <g id="g2835" fill-rule="evenodd" transform="translate(451)">
      <rect id="rect2837" ry=".65823" transform="rotate(-90)" height="5.6605" width="28.932" y="441.4" x="-140.44" fill="#4d4d4d"/>
      <rect id="rect2839" ry=".21941" transform="rotate(-90)" height="1.8868" width="28.932" y="442.03" x="-140.44" fill="url(#linearGradient8981)"/>
     </g>
     <g id="g2841" fill-rule="evenodd" transform="translate(451)">
      <rect id="rect2843" ry=".65823" transform="matrix(.79146 .61122 .61122 -.79146 0 0)" height="5.6605" width="81.763" y="28.92" x="444.79" fill="#4d4d4d"/>
      <rect id="rect2845" ry=".21941" transform="matrix(.79146 .61122 .61122 -.79146 0 0)" height="1.8868" width="81.763" y="29.549" x="444.79" fill="url(#linearGradient8925)"/>
      <rect id="rect2847" ry=".65823" transform="matrix(.79146 .61122 .61122 -.79146 0 0)" height="5.6605" width="81.763" y="12.971" x="446.77" fill="#4d4d4d"/>
      <rect id="rect2849" ry=".21941" transform="matrix(.79146 .61122 .61122 -.79146 0 0)" height="1.8868" width="81.763" y="13.6" x="446.77" fill="url(#linearGradient8927)"/>
     </g>
     <g id="g2851" fill-rule="evenodd" transform="translate(451)">
      <rect id="rect2853" ry=".65823" transform="rotate(-37.678)" height="5.6605" width="81.763" y="407.92" x="157.51" fill="#4d4d4d"/>
      <rect id="rect2855" ry=".21941" transform="rotate(-37.678)" height="1.8868" width="81.763" y="408.54" x="157.51" fill="url(#linearGradient8933)"/>
     </g>
     <g id="g2857" fill-rule="evenodd" transform="translate(451)">
      <rect id="rect2859" ry=".65823" height="5.6605" width="81.763" y="238.73" x="284.8" fill="#4d4d4d"/>
      <rect id="rect2861" ry=".21941" height="1.8868" width="81.763" y="239.36" x="284.8" fill="url(#linearGradient8953)"/>
     </g>
     <g id="g2863" transform="translate(451)">
      <path id="path2865" d="m375.44 321.44a48.369 54.128 0 1 1 -96.74 0 48.369 54.128 0 1 1 96.74 0z" fill-rule="evenodd" transform="matrix(.48277 0 0 .43142 104.41 102.67)" fill="#808080"/>
      <path id="path2867" d="m428.62 325.99a29.681 24.072 0 1 1 -59.36 0 29.681 24.072 0 1 1 59.36 0z" fill-rule="evenodd" transform="matrix(.46538 0 0 .43142 76.38 89.654)" fill="url(#linearGradient8929)"/>
      <path id="path2869" d="m428.62 325.99a29.681 24.072 0 1 1 -59.36 0 29.681 24.072 0 1 1 59.36 0z" fill-rule="evenodd" transform="matrix(.46538 0 0 -.43142 76.582 392.11)" filter="url(#filter4185)" fill="url(#linearGradient8957)"/>
      <path id="path2871" fill="#333" d="m270.74 244.07c-0.19 2.06-1 3.72-2.43 4.98-1.43 1.27-3.27 1.9-5.53 1.9-2.45 0-4.45-0.81-5.99-2.43-1.55-1.62-2.32-3.79-2.32-6.51s0.79-4.92 2.37-6.61 3.68-2.54 6.32-2.54c2.12 0 3.88 0.64 5.27 1.91s2.16 2.87 2.31 4.78l-4.78 0.28c-0.16-2.09-1.06-3.13-2.72-3.13-2.02 0-3.04 1.66-3.04 4.98 0 2.22 0.28 3.62 0.85 4.22 0.57 0.59 1.26 0.89 2.07 0.89 1.59 0 2.53-1 2.84-3.01l4.78 0.29z"/>
     </g>
     <g id="g2873" transform="translate(451)">
      <path id="path2875" d="m375.44 321.44a48.369 54.128 0 1 1 -96.74 0 48.369 54.128 0 1 1 96.74 0z" fill-rule="evenodd" transform="matrix(.48277 0 0 .43142 200.01 103.93)" fill="#808080"/>
      <path id="path2877" d="m428.62 325.99a29.681 24.072 0 1 1 -59.36 0 29.681 24.072 0 1 1 59.36 0z" fill-rule="evenodd" transform="matrix(.46538 0 0 .43142 171.98 90.912)" fill="url(#linearGradient8929)"/>
      <path id="path2879" d="m428.62 325.99a29.681 24.072 0 1 1 -59.36 0 29.681 24.072 0 1 1 59.36 0z" fill-rule="evenodd" transform="matrix(.46538 0 0 -.43142 172.18 393.37)" filter="url(#filter4185)" fill="url(#linearGradient8957)"/>
      <path id="path2881" fill="#333" d="m366.34 245.33c-0.19 2.05-1 3.71-2.43 4.98s-3.27 1.9-5.53 1.9c-2.45 0-4.45-0.81-5.99-2.43-1.54-1.63-2.32-3.79-2.32-6.51s0.79-4.92 2.37-6.61c1.58-1.7 3.68-2.54 6.32-2.54 2.12 0 3.88 0.64 5.27 1.91s2.16 2.86 2.31 4.78l-4.78 0.27c-0.16-2.08-1.06-3.13-2.71-3.13-2.03 0-3.05 1.67-3.05 4.99 0 2.21 0.28 3.62 0.85 4.21 0.57 0.6 1.26 0.9 2.07 0.9 1.59 0 2.53-1 2.84-3.01l4.78 0.29z"/>
     </g>
     <g id="g2883" transform="translate(451)">
      <path id="path2885" d="m375.44 321.44a48.369 54.128 0 1 1 -96.74 0 48.369 54.128 0 1 1 96.74 0z" fill-rule="evenodd" transform="matrix(.70382 0 0 .62895 213.24 -30.002)" fill="#d40000"/>
      <path id="path2887" d="m428.62 325.99a29.681 24.072 0 1 1 -59.36 0 29.681 24.072 0 1 1 59.36 0z" fill-rule="evenodd" transform="matrix(.73145 0 0 .62895 151.57 -48.984)" fill="url(#linearGradient8929)"/>
      <path id="path2889" d="m428.62 325.99a29.681 24.072 0 1 1 -59.36 0 29.681 24.072 0 1 1 59.36 0z" fill-rule="evenodd" transform="matrix(.76324 0 0 -.62895 138.87 391.95)" filter="url(#filter4185)" fill="url(#linearGradient8931)"/>
      <path id="path2891" fill="#333" d="m443.45 181.37c-2.72 0-4.81-1.02-6.3-3.05-1.48-2.04-2.22-4.5-2.22-7.39 0-2.93 0.75-5.39 2.25-7.35 1.5-1.97 3.65-2.95 6.43-2.95 2.81 0 4.93 1.05 6.36 3.15s2.14 4.5 2.14 7.2c0 2.92-0.73 5.38-2.21 7.38-1.47 2.01-3.62 3.01-6.45 3.01zm0.13-16.89c-2.48 0-3.72 2.17-3.72 6.51 0 4.36 1.24 6.53 3.72 6.53 2.4 0 3.6-2.17 3.6-6.51 0-4.36-1.2-6.53-3.6-6.53z"/>
     </g>
     <g id="g2893" transform="translate(451)">
      <path id="path2895" d="m375.44 321.44a48.369 54.128 0 1 1 -96.74 0 48.369 54.128 0 1 1 96.74 0z" fill-rule="evenodd" transform="matrix(.59923 0 0 .53549 -19.879 68.623)" fill="#800080"/>
      <path id="path2897" d="m428.62 325.99a29.681 24.072 0 1 1 -59.36 0 29.681 24.072 0 1 1 59.36 0z" fill-rule="evenodd" transform="matrix(.62275 0 0 .53549 -72.391 52.462)" fill="url(#linearGradient8941)"/>
      <path id="path2899" d="m428.62 325.99a29.681 24.072 0 1 1 -59.36 0 29.681 24.072 0 1 1 59.36 0z" fill-rule="evenodd" transform="matrix(.63063 0 0 -.53549 -75.545 427.87)" filter="url(#filter4185)" fill="url(#linearGradient8965)"/>
      <path id="path2901" fill="#fff" d="m184.07 230.12v20.13h-4.02l-7.89-13.6c0.01 0.35 0.02 0.57 0.03 0.68 0.04 0.35 0.06 0.64 0.06 0.87v12.05h-3.67v-20.13h5.09l6.85 11.87c-0.06-0.59-0.09-1.04-0.09-1.34v-10.53h3.64z"/>
     </g>
     <g id="g2903" transform="translate(451)">
      <path id="path2905" d="m375.44 321.44a48.369 54.128 0 1 1 -96.74 0 48.369 54.128 0 1 1 96.74 0z" fill-rule="evenodd" transform="matrix(.39769 0 0 .35538 314.32 -17.465)" fill="#b6e1ff"/>
      <path id="path2907" d="m428.62 325.99a29.681 24.072 0 1 1 -59.36 0 29.681 24.072 0 1 1 59.36 0z" fill-rule="evenodd" transform="matrix(.41330 0 0 .35538 279.47 -28.19)" fill="url(#linearGradient8941)"/>
      <path id="path2909" d="m428.62 325.99a29.681 24.072 0 1 1 -59.36 0 29.681 24.072 0 1 1 59.36 0z" fill-rule="evenodd" transform="matrix(.43829 0 0 -.35538 268.98 220.95)" filter="url(#filter4185)" fill="url(#linearGradient8943)"/>
      <path id="path2911" d="m452.09 85.828v20.122h-4.62v-8.3h-6.3v8.3h-4.63v-20.122h4.63v7.842h6.3v-7.842h4.62z"/>
     </g>
     <g id="g2913" transform="translate(451)">
      <path id="path2915" d="m375.44 321.44a48.369 54.128 0 1 1 -96.74 0 48.369 54.128 0 1 1 96.74 0z" fill-rule="evenodd" transform="matrix(.70382 0 0 .62895 197.52 97.045)" fill="#d40000"/>
      <path id="path2917" d="m428.62 325.99a29.681 24.072 0 1 1 -59.36 0 29.681 24.072 0 1 1 59.36 0z" fill-rule="evenodd" transform="matrix(.73145 0 0 .62895 135.84 78.064)" fill="url(#linearGradient8929)"/>
      <path id="path2919" d="m428.62 325.99a29.681 24.072 0 1 1 -59.36 0 29.681 24.072 0 1 1 59.36 0z" fill-rule="evenodd" transform="matrix(.76324 0 0 -.62895 123.14 519)" filter="url(#filter4185)" fill="url(#linearGradient8931)"/>
      <path id="path2921" fill="#333" d="m427.72 308.42c-2.71 0-4.81-1.02-6.29-3.05-1.49-2.04-2.23-4.5-2.23-7.39 0-2.94 0.75-5.39 2.26-7.35 1.5-1.97 3.64-2.95 6.42-2.95 2.82 0 4.94 1.05 6.37 3.14 1.43 2.1 2.14 4.5 2.14 7.21 0 2.91-0.74 5.38-2.21 7.38-1.48 2.01-3.63 3.01-6.46 3.01zm0.14-16.9c-2.48 0-3.72 2.18-3.72 6.52 0 4.35 1.24 6.53 3.72 6.53 2.39 0 3.59-2.17 3.59-6.51 0-4.36-1.2-6.54-3.59-6.54z"/>
     </g>
     <g id="g2923" transform="translate(451)">
      <path id="path2925" d="m375.44 321.44a48.369 54.128 0 1 1 -96.74 0 48.369 54.128 0 1 1 96.74 0z" fill-rule="evenodd" transform="matrix(.39769 0 0 .35538 -.15755 172.48)" fill="#b6e1ff"/>
      <path id="path2927" d="m428.62 325.99a29.681 24.072 0 1 1 -59.36 0 29.681 24.072 0 1 1 59.36 0z" fill-rule="evenodd" transform="matrix(.41330 0 0 .35538 -35.008 161.75)" fill="url(#linearGradient8941)"/>
      <path id="path2929" d="m428.62 325.99a29.681 24.072 0 1 1 -59.36 0 29.681 24.072 0 1 1 59.36 0z" fill-rule="evenodd" transform="matrix(.43829 0 0 -.35538 -45.492 410.9)" filter="url(#filter4185)" fill="url(#linearGradient8943)"/>
      <path id="path2931" d="m137.62 275.77v20.12h-4.63v-8.3h-6.29v8.3h-4.63v-20.12h4.63v7.84h6.29v-7.84h4.63z"/>
     </g>
     <g id="g3076">
      <rect id="rect2935" stroke-linejoin="round" fill-rule="evenodd" ry=".21941" height="67.927" width="64.153" stroke="#000" stroke-linecap="round" y="293.45" x="682.34" stroke-width="2.6342" fill="#ffe6d5"/>
      <path id="path2937" d="m713.14 326.55c1.59 0 2.72-0.29 3.41-0.88s1.03-1.56 1.03-2.91c0-1.34-0.34-2.29-1.03-2.87s-1.82-0.86-3.41-0.86h-3.18v7.52h3.18zm-3.18 5.23v11.11h-7.57v-29.35h11.56c3.86 0 6.7 0.65 8.5 1.95 1.8 1.29 2.7 3.35 2.7 6.15 0 1.94-0.47 3.53-1.4 4.78-0.94 1.24-2.35 2.16-4.24 2.75 1.03 0.23 1.96 0.77 2.78 1.6s1.65 2.09 2.49 3.78l4.11 8.34h-8.06l-3.58-7.3c-0.72-1.46-1.45-2.47-2.19-3-0.74-0.54-1.73-0.81-2.96-0.81h-2.14z"/>
     </g>
    </g>
    <path id="flowRoot8023" transform="translate(524,6)" d="m88.957 44.513h-8.23l-1.299 3.719h-5.291l7.56-20.412h6.276l7.56 20.412h-5.291l-1.285-3.719zm-6.918-3.787h5.592l-2.789-8.121-2.803 8.121zm30.161-5.264c0.62-0.947 1.36-1.67 2.21-2.167 0.85-0.496 1.79-0.745 2.81-0.745 1.76 0 3.1 0.543 4.02 1.627 0.92 1.085 1.38 2.662 1.38 4.731v9.324h-4.92v-7.984c0-0.119 0.01-0.242 0.02-0.37v-0.546c0-1.085-0.16-1.871-0.48-2.359-0.31-0.487-0.83-0.731-1.54-0.731-0.93 0-1.65 0.383-2.15 1.148-0.51 0.766-0.77 1.873-0.79 3.322v7.52h-4.92v-7.984c0-1.696-0.15-2.787-0.44-3.275-0.29-0.487-0.81-0.731-1.56-0.731-0.94 0-1.66 0.385-2.17 1.155s-0.77 1.871-0.77 3.302v7.533h-4.92v-15.313h4.92v2.243c0.6-0.866 1.29-1.518 2.07-1.955 0.78-0.438 1.64-0.657 2.58-0.657 1.06 0 1.99 0.256 2.8 0.766s1.43 1.226 1.85 2.146zm15.01-2.543h4.9v15.313h-4.9v-15.313zm0-5.96h4.9v3.992h-4.9v-3.992zm25.02 11.949v9.324h-4.92v-1.518-5.619c0-1.321-0.03-2.233-0.09-2.734s-0.16-0.871-0.31-1.108c-0.19-0.319-0.45-0.567-0.78-0.745-0.33-0.177-0.7-0.266-1.12-0.266-1.02 0-1.82 0.394-2.4 1.182-0.59 0.789-0.88 1.88-0.88 3.275v7.533h-4.89v-15.313h4.89v2.243c0.74-0.894 1.52-1.552 2.35-1.976s1.75-0.636 2.75-0.636c1.77 0 3.11 0.543 4.03 1.627 0.91 1.085 1.37 2.662 1.37 4.731zm11.85-2.858c-1.08 0-1.91 0.39-2.48 1.169-0.57 0.78-0.85 1.903-0.85 3.37 0 1.468 0.28 2.591 0.85 3.371 0.57 0.779 1.4 1.168 2.48 1.168 1.07 0 1.89-0.389 2.45-1.168 0.57-0.78 0.85-1.903 0.85-3.371 0-1.467-0.28-2.59-0.85-3.37-0.56-0.779-1.38-1.169-2.45-1.169zm0-3.5c2.64 0 4.7 0.711 6.18 2.133s2.22 3.391 2.22 5.906c0 2.516-0.74 4.485-2.22 5.907s-3.54 2.132-6.18 2.132-4.71-0.71-6.2-2.132-2.23-3.391-2.23-5.907c0-2.515 0.74-4.484 2.23-5.906s3.56-2.133 6.2-2.133zm28.56 8.791c-1.02 0-1.78 0.174-2.3 0.52-0.51 0.346-0.77 0.857-0.77 1.531 0 0.62 0.21 1.105 0.62 1.456 0.42 0.351 0.99 0.527 1.73 0.527 0.92 0 1.7-0.331 2.32-0.992 0.63-0.66 0.95-1.488 0.95-2.481v-0.561h-2.55zm7.48-1.845v8.736h-4.93v-2.27c-0.66 0.93-1.4 1.607-2.22 2.031s-1.82 0.635-2.99 0.635c-1.59 0-2.87-0.462-3.86-1.387s-1.49-2.126-1.49-3.603c0-1.795 0.62-3.112 1.86-3.951 1.23-0.838 3.17-1.258 5.81-1.258h2.89v-0.383c0-0.774-0.31-1.342-0.92-1.702s-1.56-0.54-2.86-0.54c-1.04 0-2.02 0.105-2.92 0.315-0.9 0.209-1.74 0.524-2.52 0.943v-3.732c1.05-0.256 2.1-0.449 3.16-0.581 1.06-0.133 2.12-0.199 3.17-0.199 2.76 0 4.76 0.545 5.98 1.634 1.23 1.089 1.84 2.86 1.84 5.312zm16.96-6.098v3.992c-0.67-0.456-1.34-0.793-2.01-1.012-0.67-0.218-1.36-0.328-2.08-0.328-1.37 0-2.43 0.399-3.19 1.197-0.77 0.797-1.15 1.911-1.15 3.342s0.38 2.546 1.15 3.343c0.76 0.798 1.82 1.196 3.19 1.196 0.76 0 1.49-0.113 2.18-0.341s1.32-0.565 1.91-1.012v4.006c-0.77 0.282-1.55 0.494-2.33 0.636-0.79 0.141-1.58 0.211-2.38 0.211-2.76 0-4.92-0.708-6.48-2.126-1.56-1.417-2.34-3.388-2.34-5.913 0-2.524 0.78-4.495 2.34-5.913 1.56-1.417 3.72-2.126 6.48-2.126 0.81 0 1.6 0.071 2.38 0.212 0.77 0.142 1.55 0.353 2.33 0.636zm4.25-0.479h4.89v15.313h-4.89v-15.313zm0-5.96h4.89v3.992h-4.89v-3.992zm20.04 8.203v-8.203h4.92v21.273h-4.92v-2.215c-0.67 0.902-1.42 1.563-2.23 1.983-0.81 0.419-1.75 0.628-2.81 0.628-1.89 0-3.44-0.749-4.65-2.249-1.21-1.499-1.82-3.429-1.82-5.79 0-2.36 0.61-4.29 1.82-5.79 1.21-1.499 2.76-2.249 4.65-2.249 1.05 0 1.99 0.212 2.81 0.636 0.81 0.424 1.56 1.082 2.23 1.976zm-3.23 9.912c1.05 0 1.85-0.383 2.4-1.149 0.56-0.765 0.83-1.877 0.83-3.336 0-1.458-0.27-2.57-0.83-3.336-0.55-0.765-1.35-1.148-2.4-1.148-1.03 0-1.83 0.383-2.38 1.148-0.55 0.766-0.83 1.878-0.83 3.336 0 1.459 0.28 2.571 0.83 3.336 0.55 0.766 1.35 1.149 2.38 1.149zm30.82 6.849h-4.06c-1.39-2.251-2.42-4.391-3.09-6.419-0.66-2.028-1-4.04-1-6.036s0.34-4.017 1.01-6.063 1.69-4.186 3.08-6.419h4.06c-1.17 2.16-2.04 4.272-2.62 6.337-0.59 2.064-0.88 4.104-0.88 6.118s0.29 4.056 0.87 6.125 1.46 4.188 2.63 6.357zm10.31-7.56h8.98v3.869h-14.83v-3.869l7.45-6.576c0.66-0.602 1.16-1.19 1.48-1.764 0.31-0.574 0.47-1.171 0.47-1.791 0-0.957-0.32-1.727-0.96-2.311-0.64-0.583-1.5-0.875-2.56-0.875-0.82 0-1.72 0.176-2.7 0.527-0.97 0.351-2.02 0.873-3.13 1.565v-4.484c1.19-0.392 2.36-0.691 3.52-0.896 1.15-0.205 2.29-0.307 3.4-0.307 2.44 0 4.34 0.537 5.69 1.613 1.36 1.076 2.04 2.575 2.04 4.498 0 1.112-0.29 2.149-0.87 3.11-0.57 0.962-1.78 2.249-3.62 3.863l-4.36 3.828zm13.64 7.56c1.17-2.169 2.05-4.288 2.63-6.357s0.87-4.111 0.87-6.125-0.29-4.054-0.87-6.118c-0.58-2.065-1.46-4.177-2.63-6.337h4.06c1.39 2.233 2.42 4.373 3.09 6.419s1 4.067 1 6.063-0.33 4.008-1 6.036c-0.66 2.028-1.69 4.168-3.09 6.419h-4.06z"/>
   </g>
  </g>
 </g>
 <metadata>
  <rdf:RDF>
   <cc:Work>
    <dc:format>image/svg+xml</dc:format>
    <dc:type rdf:resource="http://purl.org/dc/dcmitype/StillImage"/>
    <cc:license rdf:resource="http://creativecommons.org/licenses/publicdomain/"/>
    <dc:publisher>
     <cc:Agent rdf:about="http://openclipart.org/">
      <dc:title>Openclipart</dc:title>
     </cc:Agent>
    </dc:publisher>
   </cc:Work>
   <cc:License rdf:about="http://creativecommons.org/licenses/publicdomain/">
    <cc:permits rdf:resource="http://creativecommons.org/ns#Reproduction"/>
    <cc:permits rdf:resource="http://creativecommons.org/ns#Distribution"/>
    <cc:permits rdf:resource="http://creativecommons.org/ns#DerivativeWorks"/>
   </cc:License>
  </rdf:RDF>
 </metadata>
</svg>
