<?xml version="1.0" encoding="UTF-8" standalone="no"?>
<!-- Created with Inkscape (http://www.inkscape.org/) -->
<svg
   xmlns:dc="http://purl.org/dc/elements/1.1/"
   xmlns:cc="http://creativecommons.org/ns#"
   xmlns:rdf="http://www.w3.org/1999/02/22-rdf-syntax-ns#"
   xmlns:svg="http://www.w3.org/2000/svg"
   xmlns="http://www.w3.org/2000/svg"
   xmlns:sodipodi="http://sodipodi.sourceforge.net/DTD/sodipodi-0.dtd"
   xmlns:inkscape="http://www.inkscape.org/namespaces/inkscape"
   version="1.0"
   width="1600"
   height="755"
   viewBox="70 0 1670 755"
   id="svg2"
   xml:space="preserve"
   sodipodi:version="0.32"
   inkscape:version="0.46"
   sodipodi:docname="Phylloquinone.svg"
   inkscape:output_extension="org.inkscape.output.svg.inkscape"><metadata
   id="metadata49"><rdf:RDF><cc:Work
       rdf:about=""><dc:format>image/svg+xml</dc:format><dc:type
         rdf:resource="http://purl.org/dc/dcmitype/StillImage" /></cc:Work></rdf:RDF></metadata><sodipodi:namedview
   inkscape:window-height="723"
   inkscape:window-width="645"
   inkscape:pageshadow="2"
   inkscape:pageopacity="0.0"
   guidetolerance="10.0"
   gridtolerance="10.0"
   objecttolerance="10.0"
   borderopacity="1.0"
   bordercolor="#666666"
   pagecolor="#ffffff"
   id="base"
   showgrid="false"
   inkscape:zoom="0.30789777"
   inkscape:cx="979.20365"
   inkscape:cy="278.00042"
   inkscape:window-x="0"
   inkscape:window-y="298"
   inkscape:current-layer="svg2" /><defs
   id="defs94" />
	
		<g
   id="g2487"
   transform="translate(84.443615,0)"><polygon
     transform="translate(49.99997,43.20189)"
     points="256.997,264.802 252.998,262.302 252.998,257.8 377.998,185.798 377.998,194.802 256.997,264.802 "
     id="polygon7" /><polygon
     transform="translate(49.99997,43.20189)"
     points="256.997,403.801 252.998,406.301 248.999,403.801 248.999,264.802 252.998,262.302 256.997,264.802 256.997,403.801 "
     id="polygon9" /><rect
     width="7.5"
     height="113.999"
     x="273.50098"
     y="320.50391"
     id="rect11" /><polygon
     transform="translate(49.99997,43.20189)"
     points="377.998,473.801 377.998,482.795 252.998,410.803 252.998,406.301 256.997,403.801 377.998,473.801 "
     id="polygon13" /><polygon
     transform="translate(49.99997,43.20189)"
     points="498.501,403.801 502.5,406.301 502.5,410.803 377.998,482.795 377.998,473.801 498.501,403.801 "
     id="polygon15" /><polygon
     transform="translate(49.99997,43.20189)"
     points="498.501,264.802 502.5,262.302 506.499,264.802 506.499,403.801 502.5,406.301 498.501,403.801 498.501,264.802 "
     id="polygon17" /><rect
     width="7.9980001"
     height="113.999"
     x="522.5"
     y="320.50391"
     id="rect19" /><polygon
     transform="translate(49.99997,43.20189)"
     points="377.998,194.802 377.998,185.798 502.5,257.8 502.5,262.302 498.501,264.802 377.998,194.802 "
     id="polygon21" /><polygon
     transform="translate(49.99997,43.20189)"
     points="128.501,194.802 128.501,185.798 252.998,257.8 252.998,262.302 248.999,264.802 128.501,194.802 "
     id="polygon23" /><polygon
     transform="translate(49.99997,43.20189)"
     points="7.5,264.802 0,259.802 128.501,185.798 128.501,194.802 7.5,264.802 "
     id="polygon25" /><rect
     width="8.0589418"
     height="114.23618"
     x="313.49588"
     y="-24.226101"
     transform="matrix(0.4962036,0.8682062,-0.8682062,0.4962036,0,0)"
     id="rect27" /><polygon
     transform="translate(49.99997,43.20189)"
     points="7.5,403.801 0,408.801 0,259.802 7.5,264.802 7.5,403.801 "
     id="polygon29" /><polygon
     transform="translate(49.99997,43.20189)"
     points="128.501,473.801 128.501,482.795 0,408.801 7.5,403.801 128.501,473.801 "
     id="polygon31" /><rect
     width="8.0631428"
     height="114.23902"
     x="-342.09753"
     y="284.50134"
     transform="matrix(0.4958912,-0.8683846,0.8683846,0.4958912,0,0)"
     id="rect33" /><polygon
     transform="translate(49.99997,43.20189)"
     points="248.999,403.801 252.998,406.301 252.998,410.803 128.501,482.795 128.501,473.801 248.999,403.801 "
     id="polygon35" /><text
     y="128.99879"
     x="389.50146"
     id="text37"><tspan
       x="389.50146"
       y="128.99879"
       style="font-size:100px;font-family:ArialMT"
       id="tspan39">O</tspan></text>
<rect
     width="7.9980001"
     height="95.498001"
     x="411.00098"
     y="145.50389"
     id="rect41" /><rect
     width="7.5"
     height="95.498001"
     x="436.99698"
     y="145.50389"
     id="rect43" /><text
     y="703.99927"
     x="389.50146"
     id="text45"><tspan
       x="389.50146"
       y="703.99927"
       style="font-size:100px;font-family:ArialMT"
       id="tspan47">O</tspan></text>
<rect
     width="7.5"
     height="101.494"
     x="436.99698"
     y="514.00488"
     id="rect49" /><rect
     width="7.9980001"
     height="101.494"
     x="411.00098"
     y="514.00488"
     id="rect51" /><polygon
     transform="translate(49.99997,43.20189)"
     points="628.999,474.797 626.997,477.795 625,481.301 502.5,410.803 502.5,406.301 506.499,403.801 628.999,474.797 "
     id="polygon53" /><polygon
     transform="translate(49.99997,43.20189)"
     points="627.5,185.798 627.5,194.802 506.499,264.802 502.5,262.302 502.5,257.8 627.5,185.798 "
     id="polygon55" /><polygon
     transform="translate(49.99997,43.20189)"
     points="751.499,257.302 751.499,266.799 627.5,194.802 627.5,185.798 751.499,257.302 "
     id="polygon57" /><polygon
     transform="translate(49.99997,43.20189)"
     points="871.997,187.8 876.001,190.3 876.001,194.802 751.499,266.799 751.499,257.302 871.997,187.8 "
     id="polygon59" /><rect
     width="8.0631428"
     height="113.80102"
     x="-640.40021"
     y="559.44312"
     transform="matrix(-0.4958912,-0.8683846,0.8683846,-0.4958912,0,0)"
     id="rect61" /><polygon
     transform="translate(49.99997,43.20189)"
     points="871.997,46.301 876.001,46.301 879.995,46.301 879.995,187.8 876.001,190.3 871.997,187.8 871.997,46.301 "
     id="polygon63" /><polygon
     transform="translate(49.99997,43.20189)"
     points="1000,257.302 1000,266.799 876.001,194.802 876.001,190.3 879.995,187.8 1000,257.302 "
     id="polygon65" /><polygon
     transform="translate(49.99997,43.20189)"
     points="1125,185.3 1125,194.802 1000,266.799 1000,257.302 1125,185.3 "
     id="polygon67" /><polygon
     transform="translate(49.99997,43.20189)"
     points="1249.004,257.302 1249.004,266.301 1125,194.802 1125,185.3 1249.004,257.302 "
     id="polygon69" /><polygon
     transform="translate(49.99997,43.20189)"
     points="1370,187.302 1374.004,189.802 1374.004,194.299 1249.004,266.301 1249.004,257.302 1370,187.302 "
     id="polygon71" /><polygon
     transform="translate(49.99997,43.20189)"
     points="1498.008,256.799 1498.008,266.301 1374.004,194.299 1374.004,189.802 1378.008,187.302 1498.008,256.799 "
     id="polygon75" /><polygon
     transform="translate(49.99997,43.20189)"
     points="1370,46.301 1374.004,46.301 1378.008,46.301 1378.008,187.302 1374.004,189.802 1370,187.302 1370,46.301 "
     id="polygon77" /><path
     d="M 1009.6515,54.172971 L 987.51899,54.172971 L 987.51899,378.83181 L 1009.6515,378.83181 M 1474.7631,378.83181 L 1496.8956,378.83181 L 1496.8956,54.172971 L 1474.7631,54.172971"
     style="fill:none;stroke:#000000;stroke-width:8.34616184"
     id="path85" /><text
     style="font-size:12px"
     y="391.7395"
     x="1529.288"
     id="text87"><tspan
       x="1529.288"
       y="391.7395"
       style="font-size:75px;font-style:italic;font-family:Arial-ItalicMT"
       id="tspan89">3</tspan></text>
</g>
	</svg>
