<?xml version="1.0"?>
<svg xmlns:rdf="http://www.w3.org/1999/02/22-rdf-syntax-ns#" xmlns="http://www.w3.org/2000/svg" xmlns:cc="http://creativecommons.org/ns#" xmlns:dc="http://purl.org/dc/elements/1.1/" id="svg2" xml:space="preserve" height="627.94" viewBox="70 0 1522.1713 627.94287" width="1458.4" version="1.0">
		<g id="g2487" transform="translate(20 -66.516)"><polygon id="polygon7" points="378 185.8 378 194.8 257 264.8 253 262.3 253 257.8" transform="translate(50,43.202)"/><polygon id="polygon9" points="249 264.8 253 262.3 257 264.8 257 403.8 253 406.3 249 403.8" transform="translate(50,43.202)"/><rect id="rect11" y="320.5" width="7.5" height="114" x="273.5"/><polygon id="polygon13" points="253 406.3 257 403.8 378 473.8 378 482.8 253 410.8" transform="translate(50,43.202)"/><polygon id="polygon15" points="378 482.8 378 473.8 498.5 403.8 502.5 406.3 502.5 410.8" transform="translate(50,43.202)"/><polygon id="polygon17" points="506.5 403.8 502.5 406.3 498.5 403.8 498.5 264.8 502.5 262.3 506.5 264.8" transform="translate(50,43.202)"/><rect id="rect19" y="320.5" width="7.998" height="114" x="522.5"/><polygon id="polygon21" points="502.5 262.3 498.5 264.8 378 194.8 378 185.8 502.5 257.8" transform="translate(50,43.202)"/><polygon id="polygon23" points="253 262.3 249 264.8 128.5 194.8 128.5 185.8 253 257.8" transform="translate(50,43.202)"/><polygon id="polygon25" points="128.5 194.8 7.5 264.8 0 259.8 128.5 185.8" transform="translate(50,43.202)"/><rect id="rect27" transform="rotate(60.251)" height="114.24" width="8.0589" y="-24.226" x="313.5"/><polygon id="polygon29" points="7.5 264.8 7.5 403.8 0 408.8 0 259.8" transform="translate(50,43.202)"/><polygon id="polygon31" points="7.5 403.8 128.5 473.8 128.5 482.8 0 408.8" transform="translate(50,43.202)"/><rect id="rect33" transform="matrix(.49589 -.86838 .86838 .49589 0 0)" height="114.24" width="8.0631" y="284.5" x="-342.1"/><polygon id="polygon35" points="128.5 482.8 128.5 473.8 249 403.8 253 406.3 253 410.8" transform="translate(50,43.202)"/><text id="text37" y="128.99879" x="389.50146"><tspan id="tspan39" font-size="100px" y="128.99879" x="389.50146" font-family="ArialMT">O</tspan></text>
<rect id="rect41" y="145.5" width="7.998" height="95.498" x="411"/><rect id="rect43" y="145.5" width="7.5" height="95.498" x="437"/><text id="text45" y="703.99927" x="389.50146"><tspan id="tspan47" font-size="100px" y="703.99927" x="389.50146" font-family="ArialMT">O</tspan></text>
<rect id="rect49" y="514" width="7.5" height="101.49" x="437"/><rect id="rect51" y="514" width="7.998" height="101.49" x="411"/><polygon id="polygon53" points="502.5 410.8 502.5 406.3 506.5 403.8 629 474.8 627 477.8 625 481.3" transform="translate(50,43.202)"/><polygon id="polygon55" points="502.5 262.3 502.5 257.8 627.5 185.8 627.5 194.8 506.5 264.8" transform="translate(50,43.202)"/><polygon id="polygon57" points="627.5 185.8 751.5 257.3 751.5 266.8 627.5 194.8" transform="translate(50,43.202)"/><polygon id="polygon59" points="751.5 266.8 751.5 257.3 872 187.8 876 190.3 876 194.8" transform="translate(50,43.202)"/><rect id="rect61" transform="matrix(-.49589 -.86838 .86838 -.49589 0 0)" height="113.8" width="8.0631" y="559.44" x="-640.4"/><polygon id="polygon63" points="880 187.8 876 190.3 872 187.8 872 46.301 876 46.301 880 46.301" transform="translate(50,43.202)"/><polygon id="polygon65" points="876 190.3 880 187.8 1e3 257.3 1e3 266.8 876 194.8" transform="translate(50,43.202)"/><polygon id="polygon67" points="1e3 257.3 1125 185.3 1125 194.8 1e3 266.8" transform="translate(50,43.202)"/><polygon id="polygon69" points="1125 185.3 1249 257.3 1249 266.3 1125 194.8" transform="translate(50,43.202)"/><polygon id="polygon71" points="1249 266.3 1249 257.3 1370 187.3 1374 189.8 1374 194.3" transform="translate(50,43.202)"/><polygon id="polygon75" points="1374 189.8 1378 187.3 1498 256.8 1498 266.3 1374 194.3" transform="translate(50,43.202)"/><polygon id="polygon77" points="1378 187.3 1374 189.8 1370 187.3 1370 46.301 1374 46.301 1378 46.301" transform="translate(50,43.202)"/><path id="path85" d="m1009.7 54.173h-22.18v324.66h22.18m465.1 0h22.1v-324.66l-22.1 0.003" stroke="#000" stroke-width="8.3462" fill="none"/><text id="text87" y="391.7395" x="1529.288" font-size="12px"><tspan id="tspan89" font-size="75px" font-style="italic" y="391.7395" x="1529.288" font-family="Arial-ItalicMT">3</tspan></text>
</g>
	<metadata><rdf:RDF><cc:Work><dc:format>image/svg+xml</dc:format><dc:type rdf:resource="http://purl.org/dc/dcmitype/StillImage"/><cc:license rdf:resource="http://creativecommons.org/licenses/publicdomain/"/><dc:publisher><cc:Agent rdf:about="http://openclipart.org/"><dc:title>Openclipart</dc:title></cc:Agent></dc:publisher></cc:Work><cc:License rdf:about="http://creativecommons.org/licenses/publicdomain/"><cc:permits rdf:resource="http://creativecommons.org/ns#Reproduction"/><cc:permits rdf:resource="http://creativecommons.org/ns#Distribution"/><cc:permits rdf:resource="http://creativecommons.org/ns#DerivativeWorks"/></cc:License></rdf:RDF></metadata></svg>
