<?xml version="1.0"?>
<svg xmlns:cc="http://web.resource.org/cc/" xmlns:rdf="http://www.w3.org/1999/02/22-rdf-syntax-ns#" xmlns="http://www.w3.org/2000/svg" xmlns:dc="http://purl.org/dc/elements/1.1/" xmlns:xlink="http://www.w3.org/1999/xlink" font-size="12" text-rendering="auto" color-rendering="auto" shape-rendering="auto" stroke="black" stroke-linecap="square" fill="black" font-family="'Dialog'" width="1242" stroke-miterlimit="10" image-rendering="auto" height="1356" color-interpolation="auto">
 <defs id="defs1">
  <clipPath id="clipPath1" clipPathUnits="userSpaceOnUse">
   <path d="m0 0h1242v1356h-1242v-1356z"/>
  </clipPath>
  <clipPath id="clipPath2" clipPathUnits="userSpaceOnUse">
   <path d="m1148.6 157c11.6 0 21 24.51 21 54.75v80.3c0 30.24-9.4 54.75-21 54.75h-19.6c-11.6 0-21-24.51-21-54.75v-80.3c0-30.24 9.4-54.75 21-54.75zm-873 167c11.6 0 21 24.51 21 54.75v80.3c0 30.24-9.4 54.75-21 54.75h-19.6c-11.6 0-21-24.51-21-54.75v-80.3c0-30.24 9.4-54.75 21-54.75zm-117.1 432.87zm51.5 6.58zm659.92-102.45c23.41 0 42.38 24.51 42.38 54.75v80.3c0 30.24-18.97 54.75-42.38 54.75h-39.54c-23.41 0-42.38-24.51-42.38-54.75v-80.3c0-30.24 18.97-54.75 42.38-54.75zm-583.8-1c21.75 0 39.38 24.51 39.38 54.75v80.3c0 30.24-17.63 54.75-39.38 54.75h-36.74c-13.94 0-26.18-10.06-33.18-25.25v29.05c0 23.2-10.41 42-23.25 42h-21.7c-12.84 0-23.25-18.8-23.25-42v-21.33c-7.19 10.78-17.47 17.53-28.88 17.53h-36.745c-21.746 0-39.375-24.51-39.375-54.75v-80.3c0-30.24 17.629-54.75 39.375-54.75h36.745c21.75 0 39.38 24.51 39.38 54.75v42.12c3.66-4.34 8.04-6.87 12.75-6.87h21.7c6.74 0 12.8 5.18 17.05 13.45v-48.7c0-30.24 17.63-54.75 39.38-54.75zm292.8 505c23.41 0 42.38 24.5 42.38 54.8v80.3c0 30.2-18.97 54.7-42.38 54.7h-39.54c-23.41 0-42.38-24.5-42.38-54.7v-80.3c0-30.3 18.97-54.8 42.38-54.8zm-578.92-1165v1356h1242v-1356z"/>
  </clipPath>
  <clipPath id="clipPath3" clipPathUnits="userSpaceOnUse">
   <path d="m1028.1 543.53h5.7v14.21h-5.7v-14.21z"/>
  </clipPath>
 </defs>
 <g stroke="#eee" fill-opacity="0" stroke-opacity="0" fill="#eee">
  <rect y="0" width="1242" stroke="none" height="1356" x="0"/>
 </g>
 <g font-size="145" font-family="sans-serif" text-rendering="optimizeLegibility" shape-rendering="geometricPrecision">
  <text y="303" x="1108" xml:space="preserve" stroke="none" clip-path="url(#clipPath1)">*
      </text>
  <text y="807" x="788" xml:space="preserve" stroke="none" clip-path="url(#clipPath1)">O
      </text>
  <text y="806" x="43" xml:space="preserve" stroke="none" clip-path="url(#clipPath1)">H
      </text>
  <text font-size="111" clip-path="url(#clipPath1)" xml:space="preserve" stroke="none" y="862" x="148">3
      </text>
  <text y="806" x="210" xml:space="preserve" stroke="none" clip-path="url(#clipPath1)">C
      </text>
  <text y="1311" x="497" xml:space="preserve" stroke="none" clip-path="url(#clipPath1)">O
      </text>
  <text y="470" x="235" xml:space="preserve" stroke="none" clip-path="url(#clipPath1)">*
      </text>
  <line stroke-width="19.636" y2="415.91" clip-path="url(#clipPath2)" y1="295.77" x2="844.96" x1="1053.3" fill="none"/>
  <line stroke-width="19.636" y2="247.72" clip-path="url(#clipPath2)" y1="415.91" x2="554.08" x1="844.96" fill="none"/>
  <line stroke-width="19.636" y2="656.45" clip-path="url(#clipPath2)" y1="415.91" x2="844.81" x1="844.96" fill="none"/>
  <line stroke-width="19.636" y2="919.72" clip-path="url(#clipPath2)" y1="799.58" x2="553.65" x1="762.05" fill="none"/>
  <line stroke-width="19.636" y2="799.32" clip-path="url(#clipPath2)" y1="919.72" x2="345.42" x1="553.65" fill="none"/>
  <line stroke-width="19.636" y2="1160.3" clip-path="url(#clipPath2)" y1="919.74" x2="583.74" x1="583.89" fill="none"/>
  <line stroke-width="19.636" y2="1160.2" clip-path="url(#clipPath2)" y1="919.7" x2="523.26" x1="523.41" fill="none"/>
  <line stroke-width="19.636" y2="367.86" clip-path="url(#clipPath2)" y1="247.72" x2="345.69" x1="554.08" fill="none"/>
  <line stroke-width="13.636" y2="39.648" clip-path="url(#clipPath2)" y1="652.46" x2="1001.4" x1="1001" fill="none"/>
  <line stroke-width="13.636" y2="652.42" clip-path="url(#clipPath2)" y1="652.46" x2="939.69" x1="1001" fill="none"/>
  <line stroke-width="13.636" y2="39.609" clip-path="url(#clipPath2)" y1="39.648" x2="940.08" x1="1001.4" fill="none"/>
  <line stroke-width="13.636" y2="652.11" clip-path="url(#clipPath2)" y1="39.292" x2="437.18" x1="437.57" fill="none"/>
  <line stroke-width="13.636" y2="39.331" clip-path="url(#clipPath2)" y1="39.292" x2="498.85" x1="437.57" fill="none"/>
  <line stroke-width="13.636" y2="652.14" clip-path="url(#clipPath2)" y1="652.11" x2="498.47" x1="437.18" fill="none"/>
 </g>
 <g font-size="10" font-family="sans-serif" text-rendering="optimizeLegibility" transform="matrix(13.44 0 -1.6791e-12 13.44 -12790 -6762)" shape-rendering="geometricPrecision">
  <text y="554.5685424804688" x="1028.142822265625" xml:space="preserve" stroke="none" clip-path="url(#clipPath3)">n
      </text>
 </g>
 <metadata>
  <rdf:RDF>
   <cc:Work>
    <dc:format>image/svg+xml</dc:format>
    <dc:type rdf:resource="http://purl.org/dc/dcmitype/StillImage"/>
    <cc:license rdf:resource="http://creativecommons.org/licenses/publicdomain/"/>
    <dc:publisher>
     <cc:Agent rdf:about="http://openclipart.org/">
      <dc:title>Openclipart</dc:title>
     </cc:Agent>
    </dc:publisher>
   </cc:Work>
   <cc:License rdf:about="http://creativecommons.org/licenses/publicdomain/">
    <cc:permits rdf:resource="http://creativecommons.org/ns#Reproduction"/>
    <cc:permits rdf:resource="http://creativecommons.org/ns#Distribution"/>
    <cc:permits rdf:resource="http://creativecommons.org/ns#DerivativeWorks"/>
   </cc:License>
  </rdf:RDF>
 </metadata>
</svg>
