<?xml version="1.0"?>
<svg xmlns:rdf="http://www.w3.org/1999/02/22-rdf-syntax-ns#" xmlns="http://www.w3.org/2000/svg" xmlns:cc="http://creativecommons.org/ns#" xmlns:dc="http://purl.org/dc/elements/1.1/" id="svg2" viewBox="0 0 700 701.94" version="1.0">
 <path id="path1394" d="m290.84 667.21-58.98-34.69-11.15 5.59c-6.12 3.08-34.5 17.48-63.05 32.01-30.92 15.73-52.24 26.28-52.73 26.08-1.43-0.56-99.146-100.31-99.185-101.24-0.02-0.5 14.254-28.65 31.72-62.56 17.467-33.91 31.748-61.92 31.737-62.24-0.011-0.33-15.586-27.07-34.611-59.44s-34.591-58.96-34.591-59.09 15.571-27.95 34.603-61.83c19.031-33.88 34.606-61.85 34.611-62.16s-14.355-27.46-31.91-60.34c-22.926-42.94-31.796-60.03-31.485-60.67 0.602-1.24 98.091-100.32 99.111-100.72 0.48-0.187 26.57 12.772 63.85 31.722l63.04 32.042 1.65-1.01c0.91-0.555 27.58-16.232 59.27-34.837l57.62-33.827 1.63 0.952c19.69 11.44 119.77 68.406 120.19 68.409 0.32 0.003 27.95-14.348 61.4-31.892 37.41-19.622 61.14-31.77 61.66-31.567 1.02 0.395 97.31 98.718 98.34 100.42 0.67 1.1-1.78 5.96-30.82 61.24l-31.55 60.06 1.55 2.73c17.14 30.28 67.42 121.32 67.24 121.75-0.13 0.32-15.66 27.01-34.5 59.3l-34.26 58.71 8.03 15.77c4.41 8.67 18.61 36.5 31.54 61.84 12.94 25.34 23.56 46.41 23.6 46.81 0.05 0.4-10.94 11.96-24.4 25.68-13.46 13.73-35.6 36.36-49.2 50.3-13.59 13.95-25.09 25.51-25.54 25.69-0.49 0.19-26.16-12.55-63.87-31.72-56.62-28.78-63.16-31.98-64.14-31.34-3.89 2.5-116.71 68.83-117.03 68.8-0.22-0.02-26.95-15.65-59.39-34.73zm118.51-5.08 56.81-33.5 8.88-49.9c4.89-27.45 9.11-50.81 9.39-51.91 0.75-2.94 3.97-3.49 4.56-0.79 0.14 0.64-3.86 24.04-8.88 51.99l-9.12 50.83 61.4 31.21 61.4 31.21 12.05-12.18c6.62-6.7 28.14-28.63 47.81-48.74l35.77-36.56-30.86-60.48c-16.96-33.26-30.87-60.51-30.89-60.54-0.03-0.04-22.8 3.45-50.6 7.73-27.81 4.29-51.1 7.69-51.75 7.54-2.35-0.52-2.18-3.81 0.23-4.42 0.75-0.19 23.96-3.8 51.57-8.04 27.6-4.23 50.29-7.8 50.41-7.94 0.73-0.84 67.38-115.6 67.39-116.04 0-0.43-66.67-120.63-67.38-121.46-0.11-0.13-22.83-3.35-50.48-7.15-27.66-3.8-50.88-7.06-51.61-7.24-2.34-0.59-2.42-3.89-0.11-4.4 0.64-0.14 23.92 2.89 51.73 6.73 27.8 3.85 50.57 6.96 50.6 6.92 1.64-2.62 61.14-116.84 61.02-117.15-0.25-0.63-94.51-96.834-94.88-96.834-0.21 0-118.2 61.666-119.02 62.201-0.03 0.025 3.45 22.553 7.74 50.063 4.3 27.5 7.7 50.53 7.55 51.17-0.51 2.31-3.81 2.24-4.4-0.09-0.18-0.72-3.8-23.7-8.05-51.06s-7.84-49.831-7.97-49.938c-0.96-0.789-118.87-67.92-119.29-67.921-0.3-0.001-26.59 15.305-58.42 34.013l-57.88 34.014-9.03 49.642c-4.96 27.3-9.19 50.28-9.39 51.07-0.62 2.47-3.91 2.69-4.43 0.3-0.15-0.66 3.84-23.7 8.86-51.2l9.13-50.017-61.19-31.113c-33.66-17.112-61.36-31.117-61.56-31.123-0.41-0.012-95.218 96.103-95.489 96.803-0.117 0.3 61.207 116.01 62.099 117.17 0.027 0.03 22.92-3.2 50.88-7.19 27.95-3.99 51.35-7.14 51.99-7 2.35 0.51 2.22 3.81-0.17 4.41-0.77 0.2-24.11 3.57-51.87 7.51-27.76 3.93-50.567 7.26-50.683 7.4-0.731 0.85-67.944 121.03-67.934 121.47s67.199 115.22 67.925 116.04c0.119 0.13 22.952 3.83 50.732 8.22s51.11 8.13 51.84 8.32c2.37 0.59 2.51 3.89 0.18 4.41-0.65 0.14-24.06-3.37-52.01-7.81-27.96-4.44-50.852-8.05-50.876-8.01-1.105 1.6-62.231 121.18-62.11 121.49 0.274 0.72 95.076 96.84 95.496 96.83 0.2-0.01 27.9-14.01 61.56-31.12l61.19-31.12-8.85-50.83c-4.87-27.95-8.75-51.35-8.61-51.99 0.53-2.39 3.82-2.21 4.44 0.25 0.2 0.8 4.31 24.16 9.12 51.91l8.76 50.46 58.15 34.17c52.04 30.57 58.26 34.09 59.24 33.48 0.6-0.37 26.65-15.75 57.89-34.17zm-58.57 12.8c-0.96-0.53-24.97-14.53-53.36-31.13-32.88-19.22-51.7-30.53-51.88-31.17-0.69-2.44 1.06-3.49 3.61-2.18 5.84 3 104.11 60.83 104.89 61.73 1.17 1.35 1.18 1.76 0.1 2.84-1.07 1.07-1.22 1.07-3.36-0.09zm-240.97-7.07c-1.11-0.37-74.646-75.61-75.136-76.87-0.796-2.05 0.923-3.66 2.822-2.64 1.376 0.73 74.164 75.01 74.944 76.48 0.81 1.51 0.8 1.56-0.22 2.58-0.88 0.89-1.04 0.92-2.41 0.45zm477.85-0.87c-1.34-0.7-23.23-11.87-48.65-24.83-25.41-12.95-46.24-23.57-46.28-23.59-0.03-0.03-0.23-0.57-0.42-1.21-0.44-1.43 1.05-3.12 2.33-2.65 3.32 1.24 96.21 49.02 96.97 49.88 1.17 1.33 1.18 1.74 0.09 2.82-1.09 1.1-1.14 1.09-4.04-0.42zm75.03-75.19c-0.72-0.2-12.87-23.78-41.18-79.9-4.66-9.24-8.15-16.78-7.98-17.24 0.46-1.2 1.88-1.56 3.06-0.78 0.85 0.58 49.33 95.05 49.35 96.2 0.01 0.51-1.62 2.09-2.07 2.02-0.2-0.04-0.73-0.17-1.18-0.3zm-474.59-102.66v-24.73h6.89l12.73 19.1 12.72 19.1 0.15-19.1 0.14-19.1h6.51v49.47h-6.9l-12.72-19.11-12.73-19.1-0.14 19.1-0.14 19.11h-6.51v-24.74zm236.48 0v-24.73h6.52v20.11h26.09v-20.11h6.53v49.47h-6.53v-23.38h-26.09v23.38h-6.52v-24.74zm49.47 0v-24.73h6.89l12.73 19.1 12.72 19.1 0.15-19.1 0.14-19.1h6.51v49.47h-6.9l-12.72-19.11-12.73-19.1-0.14 19.1-0.14 19.11h-6.51v-24.74zm-344.2 16.05c-24.12-3.82-44.469-7.09-45.226-7.28-2.235-0.56-2.543-3.73-0.428-4.4 0.506-0.16 21.214 2.89 46.004 6.78 24.8 3.88 45.26 7.06 45.48 7.06 0.66 0 2.09 1.68 2.09 2.45 0 1.15-1.59 2.45-2.9 2.38-0.65-0.03-20.91-3.18-45.02-6.99zm-103.46-149.84c-0.48-0.48-0.735-1.31-0.567-1.84s14.182-25.68 31.141-55.88c20.109-35.82 31.189-55.02 31.839-55.21 2.63-0.75 3.47 1.08 1.9 4.16-4.01 7.88-60.586 107.92-61.467 108.69-1.338 1.17-1.74 1.19-2.846 0.08zm645 0.5c-0.45-0.13-14.03-23.86-30.18-52.72-34.24-61.23-32.46-57.95-32.04-59.04 0.44-1.17 1.75-1.59 2.93-0.96 0.98 0.53 62.55 109.76 62.55 110.98 0 0.54-1.61 2.13-2.08 2.05-0.2-0.04-0.74-0.17-1.18-0.31zm-483.29-149.4v-24.73h6.89l12.73 19.1 12.72 19.1 0.15-19.1 0.14-19.1h6.51v49.47h-6.9l-12.72-19.11-12.73-19.1-0.14 19.1-0.14 19.11h-6.51v-24.74zm49.47 0v-24.73h6.52v20.11h26.09v-20.11h6.53v49.47h-6.53v-23.38h-26.09v23.38h-6.52v-24.74zm236.48 0v-24.73h6.89l12.73 19.1 12.72 19.1 0.15-19.1 0.14-19.1h6.51v49.47h-6.9l-12.72-19.11-12.73-19.1-0.14 19.1-0.14 19.11h-6.51v-24.74zm36.19-31.02c-0.47-0.47-0.86-1.04-0.86-1.26 0-0.21-3.18-20.43-7.07-44.91-3.89-24.49-6.93-44.941-6.77-45.453 0.59-1.861 3.71-1.9 4.29-0.052 0.28 0.868 14.45 89.565 14.45 90.415 0 0.68-1.67 2.11-2.45 2.11-0.41 0-1.12-0.38-1.59-0.85zm-475.16-62c-0.557-0.55-0.741-1.28-0.51-2.01 0.457-1.44 74.065-76.757 75.425-77.184 2.18-0.678 3.53 1.013 2.44 3.05-0.79 1.469-73.571 75.754-74.948 76.484-1.303 0.7-1.382 0.69-2.407-0.34zm627.6 0.47c-1.12-0.37-74.11-75.064-74.6-76.327-0.79-2.048 0.92-3.661 2.82-2.648 1.37 0.735 73.62 74.485 74.4 75.945 0.81 1.51 0.81 1.56-0.22 2.58-0.88 0.89-1.04 0.92-2.4 0.45zm-416.68-22.21c-0.55-0.56-0.74-1.3-0.51-2.04 0.2-0.64 0.39-1.18 0.42-1.2 0.04-0.02 23.56-13.827 52.26-30.682 28.71-16.855 52.83-30.97 53.62-31.367 2.37-1.196 4.36 0.371 3.21 2.525-0.58 1.088-106.43 63.594-107.75 63.624-0.21 0.01-0.77-0.38-1.25-0.86z"/>
 <metadata>
  <rdf:RDF>
   <cc:Work>
    <dc:format>image/svg+xml</dc:format>
    <dc:type rdf:resource="http://purl.org/dc/dcmitype/StillImage"/>
    <cc:license rdf:resource="http://creativecommons.org/licenses/publicdomain/"/>
    <dc:publisher>
     <cc:Agent rdf:about="http://openclipart.org/">
      <dc:title>Openclipart</dc:title>
     </cc:Agent>
    </dc:publisher>
   </cc:Work>
   <cc:License rdf:about="http://creativecommons.org/licenses/publicdomain/">
    <cc:permits rdf:resource="http://creativecommons.org/ns#Reproduction"/>
    <cc:permits rdf:resource="http://creativecommons.org/ns#Distribution"/>
    <cc:permits rdf:resource="http://creativecommons.org/ns#DerivativeWorks"/>
   </cc:License>
  </rdf:RDF>
 </metadata>
</svg>
