<?xml version="1.0"?>
<svg xmlns:rdf="http://www.w3.org/1999/02/22-rdf-syntax-ns#" xmlns="http://www.w3.org/2000/svg" xmlns:cc="http://creativecommons.org/ns#" xmlns:dc="http://purl.org/dc/elements/1.1/" id="svg2" viewBox="0 0 1972.1 2313.4" version="1.0">
 <g id="g3350" transform="translate(-1462.7 -572.69)">
  <g id="g3453" transform="translate(3322,3.5355)">
   <g id="g4176" transform="translate(-1641,491.5)">
    <g id="layer1" opacity=".3" transform="translate(373.07,823.5)">
     <path id="path2180" fill="#ae6235" d="m634.5 1566.4c-4.1696-1.87-10.351-7.6095-13.429-12.468-1.2193-1.925-3.0244-6.425-4.0114-10-0.9869-3.575-3.0214-8.975-4.521-12-3.5099-7.0804-6.661-26.549-8.012-49.5-0.9061-15.394-1.3366-17.992-4.5574-27.5-1.9562-5.775-4.184-13.2-4.9506-16.5s-1.8318-7.8-2.3671-10-1.2901-8.275-1.6775-13.5c-0.5353-7.2205-1.5563-11.78-4.2552-19-1.953-5.225-3.8683-12.425-4.2563-16-0.4399-4.0538-2.0391-9.4606-4.2495-14.367-5.0183-11.139-5.4741-16.996-2.1506-27.633 4.7582-15.229 4.4181-37.487-1.1077-72.5-2.7896-17.675-10.639-61.249-13.601-75.5-4.1637-20.034-5.4114-24.591-15.789-57.658-8.8284-28.132-9.3894-34.027-12.927-135.84l-0.8686-25-5.2441-13.492c-2.8843-7.4205-6.8333-16.646-8.7757-20.5-5.5344-10.983-12.891-33.074-15.171-45.556-1.4558-7.9702-2.0841-15.587-2.0966-25.416-0.01-7.7195-0.4484-18.085-0.9748-23.035s-1.4443-16.875-2.0399-26.5-1.9443-23.575-2.9971-31c-2.4398-17.207-13.428-70.411-20.963-101.5-3.575-14.75-6.6987-30.676-8.1051-41.323-1.2585-9.5277-2.7638-17.952-3.3451-18.721-0.8688-1.1496-2.2662-0.6161-7.8548 2.9986-5.4784 3.5435-8.0018 4.5241-13 5.0521-3.6728 0.3879-7.338 0.2189-8.9877-0.4144-2.1091-0.8097-2.8742-0.7686-3.1503 0.1694-0.2005 0.6813-1.5581 10.239-3.0167 21.239-1.4587 11-4.1898 26.975-6.0692 35.5-4.7143 21.384-10.253 56.348-11.445 72.249-0.5463 7.2883-1.655 17.751-2.4638 23.251-1.526 10.378-3.6087 57.599-3.6166 82-0.007 21.57-1.3053 31.072-6.3533 46.5-2.4294 7.425-6.3078 18-8.6186 23.5s-5.5018 14.617-7.0912 20.26c-4.0877 14.513-4.05 17.4 1.1329 86.809 0.5779 7.738 1.0492 20.788 1.0475 29-0.004 20.89-1.6977 30.75-14.071 81.931-2.1276 8.8-4.6147 20.05-5.527 25s-2.5588 13.275-3.6588 18.5-2.3775 12.2-2.8388 15.5-1.7489 10.95-2.8612 17c-2.7387 14.897-5.1131 41.75-5.1131 57.829 0 10.815 0.4559 15.014 2.5078 23.103 3.7251 14.685 4.0669 21.613 1.4835 30.068-7.6762 25.122-9.0293 32.647-9.9805 55.5-0.7113 17.088-1.1471 20.551-3.5236 28-1.4916 4.675-3.7355 10.525-4.9864 13-3.2324 6.3952-4.6973 17.293-4.5438 33.805 0.0731 7.8675-0.3081 15.742-0.8472 17.5-0.5391 1.7575-2.1612 7.8784-3.6046 13.602-1.4435 5.7238-3.5429 12.207-4.6655 14.408-1.1226 2.2004-2.7011 6.2924-3.5079 9.0933s-3.0653 7.4535-5.0189 10.339c-3.0214 4.463-4.3081 5.4713-8.6139 6.75-10.538 3.1296-19.176 1.2832-23.277-4.9757-2.3087-3.5235-1.5285-14.441 1.4486-20.271 1.7102-3.3491 1.8661-4.25 0.7359-4.25-1.7079 0-7.9506 10.835-9.507 16.5-0.6044 2.2-1.4365 4.4997-1.8491 5.1105-1.2761 1.8887-7.0033 4.3895-10.053 4.3895-4.1355 0-9.5139-3.9231-10.654-7.7715-0.7565-2.5526-1.4949-3.2285-3.5275-3.2285-3.5077 0-6.9552-2.6109-8.579-6.4972-0.9492-2.2718-2.2021-3.4059-4.2052-3.8065-3.3727-0.6745-5.2315-4.0929-5.2315-9.6209 0-2.3533-0.6408-4.3598-1.6617-5.203-2.9779-2.4595-6.3383-11.58-6.3383-17.204 0-6.348 5.5101-31.156 7.7001-34.668 0.8573-1.375 2.598-3.625 3.868-5 1.2701-1.375 4.1196-6.1 6.3323-10.5s7.1789-11.825 11.036-16.5c7.4866-9.074 9.4403-11.794 15.8-22 2.7678-4.4416 4.3807-8.4546 5.0933-12.672 0.6991-4.1372 3.1827-10.401 7.5329-19 7.0514-13.938 7.6956-16.968 6.2348-29.328-0.7809-6.6081-0.4074-8.6251 5.9204-31.968 2.2399-8.2629 1.8463-15.866-2.4607-47.532-2.1693-15.95-4.8944-38.675-6.0557-50.5-1.1612-11.825-2.9723-29.15-4.0245-38.5s-2.3995-21.725-2.9939-27.5-2.699-21.975-4.6768-36c-3.2506-23.051-3.6061-27.757-3.7011-49-0.1018-22.768 0.1369-26.153 4.4795-63.5 1.3491-11.602 3.2466-23.141 7.0714-43 3.0073-15.614 3.0606-16.398 2.2128-32.5-0.4778-9.075-0.8688-29.775-0.8688-46 0-32.278 0.5366-28.28-6.6426-49.5-3.5336-10.444-7.7037-33.65-11.907-66.261-1.1157-8.6563-3.136-22.325-4.4895-30.375-1.3536-8.0498-2.461-16.164-2.461-18.031 0-1.8671-1.101-9.2309-2.4466-16.364-1.3457-7.1331-3.3728-19.719-4.5048-27.969-1.1319-8.25-2.7362-19.5-3.565-25-6.116-40.586-14.602-124.9-13.051-129.67 0.2387-0.7333 0.6811-16.183 0.9832-34.333 0.9563-57.464 4.1607-86.998 11.672-107.58 6.1626-16.886 8.1215-33.046 8.4149-69.42 0.1959-24.299 0.3317-25.281 8.6385-62.5 5.9522-26.669 7.2495-40.325 7.3146-77 0.0453-25.583-1.1892-42.945-4.5509-64-3.2047-20.072-3.7609-20.356-6.3257-3.2232-1.5291 10.214-10.424 47.019-17.212 71.223-2.3979 8.5494-2.6837 11.351-2.8569 28-0.1058 10.175-0.6962 20.525-1.3121 23-1.5918 6.3973-10.988 33.734-13.234 38.5-3.2623 6.9247-9.645 22.666-12.772 31.5-13.89 39.235-26.928 72.154-37.427 94.5-13.847 29.472-20.412 45.926-33.715 84.5-8.5101 24.677-14.678 42.137-16.075 45.5-0.45674 1.1-1.0648 4.025-1.3513 6.5-0.28648 2.475-1.0421 7.875-1.6792 12-0.68729 4.45-0.87421 10.55-0.45966 15 1.6517 17.731 1.9194 14.976-5.0036 51.5-4.191 22.111-4.2933 19.872 2.5592 56 1.0432 5.5 2.023 15.099 2.1774 21.332 0.28046 11.323 0.27846 11.334-2.5251 13.75-1.5604 1.3449-4.0804 2.4183-5.6774 2.4183-4.9135 0-6.5003-3.3555-8.9276-18.878-1.2-7.6739-3.055-17.006-4.1223-20.738s-2.6646-10.726-3.5497-15.542c-1.9463-10.59-3.6072-12.596-6.9553-8.3968-1.2659 1.5875-2.5452 4.2743-2.843 5.9706-0.29776 1.6962-0.82168 15.684-1.1643 31.084-0.86928 39.076-1.5338 46.034-4.6987 49.198-2.9687 2.9687-8.4863 3.3635-12.279 0.8784-2.8616-1.875-2.9835-3.5082-1.4235-19.077 0.79919-7.9758 0.6601-13.001-0.68712-24.826-1.396-12.253-1.4864-16.158-0.52121-22.5 1.3782-9.055 1.4958-15.174 0.29163-15.174-0.4747 0-1.127 2.8125-1.4496 6.25s-1.0738 10.525-1.6694 15.75c-0.59555 5.225-1.2613 21.343-1.4794 35.817-0.32409 21.507-0.67755 26.746-1.9336 28.663-2.8482 4.347-11.488 4.4696-15.351 0.2178-1.7804-1.9597-2.0902-4.3132-2.8563-21.698-1.0762-24.422-1.1206-40.81-0.13096-48.32 0.51078-3.8759 0.42729-5.6095-0.25-5.1909-0.5593 0.3456-1.0169 1.9253-1.0169 3.5104s-0.45 3.1601-1 3.5c-0.61758 0.3817-1 9.0211-1 22.591 0 23.348-0.69179 27.603-4.8496 29.828-3.6411 1.9487-7.9201 1.2581-11.385-1.8373l-3.2658-2.9178-0.61629-22.332c-0.33895-12.283-0.21705-25.707 0.2709-29.832 0.48794-4.125 1.8436-15.6 3.0126-25.5 2.2634-19.169 3.4455-38.5 2.3543-38.5-0.68416 0-10.742 8.6339-17.856 15.328-7.1518 6.7299-15.754 9.6946-27.964 9.6382-8.2157-0.0379-11.701-1.9423-11.701-6.3932 0-2.0605 0.7848-2.9402 3.75-4.2037 10.081-4.2954 12.25-5.4225 12.25-6.3663 0-0.5623 4.8055-5.8513 10.679-11.753 5.8735-5.902 12.656-13.435 15.073-16.741 7.7606-10.614 8.525-11.51 9.825-11.51 0.70282 0 2.2268-1.2063 3.3865-2.6807 1.1598-1.4744 4.0656-4.0619 6.4573-5.75 10.818-7.6355 26.523-21.796 29.18-26.311 4.6049-7.8243 6.3981-12.004 6.4179-14.96 0.01705-2.5453 1.469-8.5081 7.0124-28.798 1.0518-3.85 2.8263-10.349 3.9432-14.442 1.1169-4.0933 2.7133-11.376 3.5475-16.184 0.83421-4.808 3.0494-12.976 4.9226-18.151 5.4407-15.03 8.2835-28.861 16.079-78.223 5.3846-34.098 8.2752-50.727 10.951-63 1.3192-6.05 3.8142-19.1 5.5445-29 2.9529-16.895 8.5931-38.993 13.145-51.5 1.1008-3.025 3.7178-10.45 5.8155-16.5s5.161-13.925 6.8073-17.5c8.6033-18.682 12.032-32.808 15.172-62.5 1.1631-11 3.2207-29 4.5726-40 6.8368-55.631 6.9721-57.559 6.7019-95.5-0.39174-55.007 1.3154-75.017 9.3843-110 4.6467-20.146 9.6102-35.38 13.357-40.995 7.1631-10.736 16.923-18.216 31.11-23.844 7.7101-3.0584 11.108-4.7891 20.917-10.653 3.025-1.8085 9.9222-4.933 15.327-6.9434 23.225-8.6388 78.087-35.001 92.173-44.291 9.6526-6.3662 15.85-12.474 18.086-17.825 2.1692-5.1918 4.4187-21.184 4.929-35.043 0.4475-12.151 0.3597-12.862-2.3791-19.261-6.048-14.131-9.339-25.761-12.586-44.476-1.6647-9.5947-2.0549-10.668-3.8765-10.668-0.6648 0-2.9423-1.1779-5.0609-2.6176-5.1209-3.4797-10.522-15.108-14.004-30.151-2.9888-12.912-3.2052-17.843-1.1321-25.801 1.5607-5.9922 2.5981-7.759 6.3405-10.798 2.0005-1.6248 2.2235-2.4447 1.6338-6.0065-0.3755-2.2687-1.0789-4.8797-1.563-5.8023-0.4841-0.92255-1.3693-7.4476-1.9671-14.5s-1.565-13.816-2.1494-15.029c-0.7532-1.5642-0.7378-5.0578 0.053-12 0.7133-6.2623 0.7658-9.9136 0.1457-10.127-1.2435-0.42741-1.264-3.8668-0.0276-4.631 0.5183-0.32028 1.2163-2.7093 1.5513-5.309 0.3349-2.5997 1.0359-5.5081 1.5578-6.4631 0.5218-0.95504 0.9487-2.9303 0.9487-4.3894s1.4268-4.9527 3.1707-7.7636c1.7438-2.8108 4.6197-7.6544 6.3907-10.763 2.9507-5.1798 11.622-16.397 20.349-26.326 4.2573-4.8431 12.77-11.381 15.839-12.164 1.2375-0.31581 2.25-0.99515 2.25-1.5096 0-0.51448 0.5625-0.83079 1.25-0.70291s2.6638-0.10246 4.3918-0.51186c2.4199-0.57331 3.0296-1.1738 2.6532-2.6129-0.4106-1.5704 0.2821-1.9841 4.3416-2.5928 2.6566-0.39839 6.32-1.3468 8.1408-2.1076 1.8209-0.76079 3.7606-1.1052 4.3104-0.76536 0.5499 0.33984 1.6289 0.0958 2.3978-0.5423 0.7689-0.63811 3.5616-1.2279 6.2062-1.3106 2.6445-0.0827 5.1288-0.611 5.5206-1.174 0.4692-0.67421 2.3923-0.42692 5.6342 0.72449 5.7862 2.0551 8.8284 2.2232 9.3964 0.51925 0.3044-0.91332 1.047-0.81117 2.8922 0.39786 2.3459 1.5371 6.1748 1.5598 9.8648 0.0585 0.825-0.33565 2.85-0.72059 4.5-0.85542s4.5264-0.55916 6.3921-0.94296c2.3297-0.47928 3.1825-0.35886 2.7231 0.38449-0.4518 0.73096 1.2533 1.0731 5.2522 1.054 6.3467-0.0304 10.19 1.4815 13.855 5.4505 1.2223 1.3236 4.2558 2.9759 6.7411 3.6717 2.4852 0.69583 5.5351 2.2734 6.7775 3.5057s4.5089 3.3924 7.2589 4.8002c8.302 4.2501 15.975 12.39 30.828 32.704 1.8096 2.475 3.8661 6.075 4.57 8 0.7038 1.925 1.9376 4.7332 2.7418 6.2404 2.0081 3.7638 3.5903 12.619 4.0664 22.76 0.479 10.201 0.5097 8.8921-0.6454 27.5-1.1752 18.931-2.5659 29.338-4.7368 35.451l-1.7068 4.8056 2.6654 3.1676c2.8702 3.411 6.7175 14.431 6.7175 19.241 0 5.091-4.8764 24.967-8.2599 33.666-2.0332 5.2279-4.5127 9.6045-6.6568 11.75-3.4264 3.4288-4.0607 3.6838-9.5449 3.8365l-2.9616 0.0825-2.8478 14c-4.1909 20.603-4.4371 21.725-5.4853 25-0.9447 2.952-0.8367 16.496 0.2536 31.784 0.8373 11.74 4.0668 26.297 6.9107 31.15 3.5709 6.0932 11.902 13.348 21.153 18.419 38.74 21.239 75.479 39.287 97.939 48.113 17.826 7.005 20.926 8.5599 33.5 16.803 14.465 9.4824 25.846 18.892 30.47 25.191 8.8376 12.039 15.268 33.276 20.604 68.041 2.0645 13.452 2.2428 18.401 2.4675 68.5 0.2317 51.664 1.2084 74.735 4.3922 103.75 5.6725 51.692 8.7195 73.311 12.227 86.753 2.4682 9.4585 2.8965 10.624 9.9197 27 6.1916 14.436 18.513 51.002 21.904 65 1.1322 4.675 3.42 17.725 5.0838 29 1.6639 11.275 4.7868 31.3 6.9398 44.5 3.9243 24.059 7.0864 45.046 9.0401 60 2.036 15.583 4.1439 27.857 6.0766 35.381 2.2239 8.658 12.352 40.654 17.605 55.619 1.9308 5.5 4.9888 15.175 6.7956 21.5 5.873 20.559 8.1565 25.587 14.894 32.79 3.3443 3.5758 12.764 12.343 20.932 19.483 9.158 8.0048 15.867 14.709 17.5 17.488 3.1738 5.4003 9.7715 13.867 16.218 20.812 2.59 2.7903 5.6616 6.9403 6.8257 9.2222 3.0664 6.0107 7.3293 10.49 13.597 14.289 4.871 2.9522 5.5076 3.7154 5.5076 6.6036 0 4.9694-3.3551 6.7177-11.619 6.0543-10.164-0.8158-18.832-5.6187-30.131-16.694l-9.25-9.0673v6.1442c0 6.4714 0.4261 9.5384 4.5671 32.875 4.211 23.731 4.3919 25.648 4.4128 46.782 0.0233 23.45-0.6308 26.338-6.5209 28.8-3.3015 1.3794-3.9296 1.3548-7.286-0.286-4.9164-2.4035-5.7996-5.4834-7.15-24.935-1.6741-24.112-2.3149-28.342-5.6401-37.23-1.3106-3.5029-2.3829-7.8904-2.3829-9.75 0-1.8595-0.45-3.3809-1-3.3809-1.4881 0-1.2106 6.3986 0.5768 13.296 2.0019 7.7255 2.328 27.059 0.6732 39.914-0.6875 5.3408-1.25 15.513-1.25 22.604 0 12.211-0.1266 13.03-2.3914 15.474-3.126 3.3731-9.019 4.5233-12.51 2.4418-4.8091-2.8675-5.0934-4.5554-4.7546-28.23 0.3079-21.507-0.1677-31.824-2.3029-49.957-1.7358-14.742-3.1836-12.931-2.4217 3.0294 0.447 9.3647 0.2989 15.169-0.446 17.475-1.6961 5.2497-3.1402 19.893-3.4852 35.34-0.2973 13.317-0.4098 13.969-2.7374 15.853-3.2214 2.6086-10.595 1.8013-13.287-1.4547-1.7384-2.1027-1.806-4.4835-1.2682-44.673 0.5524-41.277 0.3512-45.113-2.3669-45.113-0.3995 0-0.7991 3.8905-0.8878 8.6455-0.0888 4.755-0.8999 11.392-1.8024 14.75-0.9025 3.3575-1.729 8.3545-1.8366 11.104-0.3279 8.3772-1.643 20.792-2.612 24.657-1.5489 6.1787-9.1228 7.0905-13.228 1.5923-2.7297-3.6561-3.2967-15.469-1.524-31.749 1.744-16.017 1.7474-35.952 0.007-42.748-0.7391-2.8863-1.6366-5.0668-1.9946-4.8458-0.3579 0.2211-0.7456-1.8037-0.8615-4.4996s-0.6692-6.6041-1.2295-8.685c-3.5076-13.026-4.9891-27.411-4.7766-46.377 0.2059-18.367 0.1031-19.558-2.0332-23.555-1.2375-2.3156-2.25-4.8884-2.25-5.7174 0-1.4677-7.0823-18.334-22.34-53.204-4.123-9.4222-9.9625-23.597-12.977-31.5-3.0142-7.9028-10.516-26.294-16.671-40.869-13.971-33.084-16.61-39.924-28.551-74-9.5817-27.343-12.397-34.574-18.298-47-3.4464-7.2569-13.132-33.779-15.156-41.5-0.8037-3.0664-1.3936-12.154-1.5254-23.5-0.1924-16.568-0.4917-19.492-2.866-28-5.5652-19.942-11.754-46.037-14.577-61.462-2.4296-13.276-6.0387-40.868-6.0387-46.167 0-0.75416-0.3964-1.3712-0.8808-1.3712-0.4845 0-1.6367 5.0625-2.5604 11.25s-3.1827 19.35-5.0199 29.25c-9.5161 51.277-10.362 79.919-3.3824 114.5 9.2609 45.884 10.654 56.607 11.885 91.5 0.5238 14.85 1.3931 28.8 1.9318 31 1.6366 13.555 8.476 25.817 10.523 40 0.1715 1.65 0.986 5.1375 1.8099 7.75 0.824 2.6125 1.262 4.75 0.9735 4.75s-0.0313 0.5944 0.5717 1.3209c0.6029 0.7265 1.067 2.639 1.0314 4.25-0.0357 1.611 0.4615 5.1791 1.1049 7.9291 4.6569 19.905 6.0409 27.514 7.003 38.5 1.2515 14.291 2.621 25.79 4.5258 38 0.7294 4.675 2.1073 15.685 3.0622 24.466 1.5244 14.018 1.5892 18.167 0.531 34-1.7689 26.467-6.7811 79.153-9.6593 101.53-1.3792 10.725-3.3804 32.1-4.447 47.5-2.2741 32.832-10.264 109.84-12.51 120.56-0.8563 4.0896-2.396 10.136-3.4214 13.436-5.7213 18.411-8.1319 55.6-6.1579 95 1.1152 22.257 2.0167 27.328 9.4217 53 4.5284 15.699 11.199 49.484 13.13 66.5 2.6949 23.751 1.9375 62.869-1.975 102-1.5165 15.167-3.1585 46.276-4.0116 76-0.2763 9.625-0.9568 23.8-1.5123 31.5-3.3987 47.111-3.8287 67.806-1.5431 74.284 0.783 2.2194 1.1971 4.2619 0.9201 4.5389-0.2771 0.277 0.2685 1.6822 1.2123 3.1226 3.5481 5.4151 5.5023 15.542 6.089 31.555l0.5678 15.5 4.6085 6c4.8384 6.2995 13.16 21.83 17.147 32 1.2936 3.3 2.9549 6.7104 3.6916 7.5787s1.3395 1.9965 1.3395 2.5071 2.0613 3.4002 4.5806 6.4213c6.2447 7.4885 18.239 25.331 20.568 30.596 1.0479 2.3691 2.9548 5.5649 4.2375 7.1019 6.1081 7.3189 8.597 16.117 8.5697 30.294-0.0181 9.3858-0.3087 11.084-2.7382 16-1.557 3.1509-3.7857 6.0173-5.2179 6.7112-2.737 1.3261-3.6985 4.1841-3.8817 11.539-0.1445 5.802-2.9351 9.2638-6.7049 8.3176-2.2707-0.5699-2.4134-0.3517-2.4134 3.6908 0 6.0579-2.1461 8.7416-6.9903 8.7416-3.4738 0-3.9097 0.2825-4.1933 2.7177-0.7394 6.3508-14.283 10.011-19.367 5.2344l-2.1798-2.0479-0.5872 2.9357c-1.1552 5.7761-16.196 9.9855-23.682 6.6279z"/>
    </g>
    <path id="path131" opacity="0.252" d="m894.89 1046.7c-0.41 0.1925-0.815 0.3825-1.2275 0.5825 0.39-0.1025 0.805-0.3125 1.2275-0.5825z" stroke="#3ac6dd" stroke-width="0.79" fill="#0060b6"/>
    <path id="path1637" opacity=".9" fill="#b62717" d="m849.43 1302.7c-0.47 0.8-7.59 8.5575-3.2375 7.87 1.45-0.23 3.7-3.8325 4.5-5 0.84-1.2275 6.18-10.612 3.62-11.755-0.9675-0.4325-4.205 7.725-4.8825 8.885z"/>
   </g>
   <rect id="rect4424" stroke-linejoin="bevel" fill-rule="evenodd" height="260.02" width="1344" stroke="#0d0" y="1686.4" x="-1476.3" stroke-width="1.6252" fill="#d7ffd7"/>
   <path id="path2484" d="m68.744 686.37-768.31 0.0787 5.2147 190.9-33.027 73.427 3.4765 61.189 168.61 89.586 39.906 92.32 16.168 242.34 38.765 150.89 12.168 67.387 515.29 2 1.7383-970.12z" fill-rule="evenodd" stroke="#0d0" stroke-width="1.8829px" fill="#d7ffd7"/>
   <path id="path2476" d="m-1858.3 718.44 883.98 0.0962-3.9999 173.51 37.999 73.731-3.9999 61.443-174 81.924-23.999 223.24-12 120.84-39.999 149.51-5.9998 71.683h-653.98l-3.9999-955.98z" fill-rule="evenodd" stroke="#d80000" stroke-width="2.0239px" fill="#ffcaca"/>
   <text id="text2307" font-size="36.292px" xml:space="preserve" line-height="125%" y="595.44769" x="-1079.2394" font-family="Arial" fill="#000000">         <tspan id="tspan2309" y="595.44769" x="-1079.2394">Potential long-term effects of</tspan>       </text>
   <text id="text2311" font-size="75.942px" xml:space="preserve" line-height="125%" y="668.54633" x="-989.23724" font-family="Arial" fill="#000000">         <tspan id="tspan2313" y="668.54633" x="-989.23724">Ethanol</tspan>       </text>
   <text id="text3408" font-size="32px" xml:space="preserve" line-height="125%" y="990.20837" x="-492.71338" font-family="Arial" fill="#000000">         <tspan id="tspan3416" y="990.20837" x="-492.71338" font-weight="bold">Brain:</tspan>         <tspan id="tspan2412" y="1030.2084" x="-492.71338" fill="#008000"> - Reduce the number of silent infarcts</tspan>       </text>
   <rect id="rect2243" stroke-linejoin="bevel" fill-rule="evenodd" height="90.173" width="372.17" stroke="#000" y="610.35" x="-1642.4" stroke-width="1.4272" fill="#fff"/>
   <text id="text2245" font-size="32px" xml:space="preserve" line-height="125%" y="681.89368" x="-1632.6274" font-family="Arial" fill="#008000">         <tspan id="tspan2253" y="681.89368" x="-1632.6274">Green - generally "good"</tspan>       </text>
   <text id="text2262" font-size="32px" xml:space="preserve" line-height="125%" y="644.71399" x="-1631.5649" font-family="Arial" fill="#800000">         <tspan id="tspan2264" y="644.71399" x="-1631.5649">Red - generally "bad"</tspan>       </text>
   <text id="text2266" font-size="36px" font-family="Arial" xml:space="preserve" line-height="125%" y="729.89368" x="-678.62744" font-weight="bold" fill="#000000">         <tspan id="tspan2274" font-size="36px" font-family="Arial" line-height="125%" y="729.89368" x="-678.62744" font-weight="bold">Small to moderate consumption</tspan>       </text>
   <text id="text2283" font-size="36px" font-family="Arial" xml:space="preserve" line-height="125%" y="776.72961" x="-1583.4556" font-weight="bold" fill="#000000">         <tspan id="tspan2285" font-size="36px" font-family="Arial" line-height="125%" y="776.72961" x="-1583.4556" font-weight="bold">Large consumption</tspan>       </text>
   <text id="text2289" font-size="32px" xml:space="preserve" line-height="125%" y="836.37897" x="-1841.7544" font-family="Arial" fill="#000000">         <tspan id="tspan2291" y="836.37897" x="-1841.7544" font-weight="bold">Brain:</tspan>         <tspan id="tspan2301" y="876.37897" x="-1841.7544" fill="#800000"> - Impaired development </tspan>         <tspan id="tspan2304" y="916.37897" x="-1841.7544" fill="#800000"/>         <tspan id="tspan2306" y="956.37897" x="-1841.7544" fill="#800000"> - Wernicke-Korsakoff </tspan>         <tspan id="tspan2478" y="996.37897" x="-1841.7544" fill="#800000">   syndrome</tspan>         <tspan id="tspan2308" y="1036.3789" x="-1841.7544" fill="#800000">  * Vision changes</tspan>         <tspan id="tspan2310" y="1076.3789" x="-1841.7544" fill="#800000">  * Ataxia </tspan>         <tspan id="tspan2312" y="1116.3789" x="-1841.7544" fill="#800000">  * Impaired memory</tspan>         <tspan id="tspan2314" y="1156.3789" x="-1841.7544" fill="#800000"/>         <tspan id="tspan2316" y="1196.3789" x="-1841.7544" fill="#800000"> - Psychological</tspan>         <tspan id="tspan2318" y="1236.3789" x="-1841.7544" fill="#800000">  * Cravings </tspan>         <tspan id="tspan2320" y="1276.3789" x="-1841.7544" fill="#800000">  * Irritability</tspan>         <tspan id="tspan2322" y="1316.3789" x="-1841.7544" fill="#800000">  * Antisociality</tspan>         <tspan id="tspan2324" y="1356.3789" x="-1841.7544" fill="#800000">  * Depression</tspan>         <tspan id="tspan2326" y="1396.3789" x="-1841.7544" fill="#800000">  * Anxiety</tspan>         <tspan id="tspan2328" y="1436.3789" x="-1841.7544" fill="#800000">  * Panic</tspan>         <tspan id="tspan2330" y="1476.3789" x="-1841.7544" fill="#800000">  * Psychosis</tspan>         <tspan id="tspan2332" y="1516.3789" x="-1841.7544" fill="#800000">  * Hallucinations </tspan>         <tspan id="tspan2334" y="1556.3789" x="-1841.7544" fill="#800000">  * Delusions</tspan>         <tspan id="tspan2336" y="1596.3789" x="-1841.7544" fill="#800000">  * Sleep disorders</tspan>       </text>
   <text id="text2344" font-size="32px" xml:space="preserve" line-height="125%" y="1121.8937" x="-1491.9712" font-family="Arial" fill="#000000">         <tspan id="tspan2346" y="1121.8937" x="-1491.9712" font-weight="bold">Heart:</tspan>         <tspan id="tspan2350" y="1161.8937" x="-1491.9712" fill="#800000"> - Alcoholic cardio-</tspan>         <tspan id="tspan2480" y="1201.8937" x="-1491.9712" fill="#800000">   myopathy</tspan>       </text>
   <text id="text2356" font-size="32px" xml:space="preserve" line-height="125%" y="1032.5187" x="-1481.9556" font-family="Arial" fill="#000000">         <tspan id="tspan2358" y="1032.5187" x="-1481.9556" font-weight="bold">Blood:</tspan>         <tspan id="tspan2360" y="1072.5187" x="-1481.9556" fill="#800000"> - Anemia</tspan>       </text>
   <text id="text2362" font-size="32px" xml:space="preserve" line-height="125%" y="1392.5187" x="-1501.9556" font-family="Arial" fill="#000000">         <tspan id="tspan2364" y="1392.5187" x="-1501.9556" font-weight="bold">Stomach:</tspan>         <tspan id="tspan2366" y="1432.5187" x="-1501.9556" fill="#800000"> - Chronic gastritis</tspan>       </text>
   <text id="text2368" font-size="32px" xml:space="preserve" line-height="125%" y="1254.714" x="-1494.6978" font-family="Arial" fill="#000000">         <tspan id="tspan2370" y="1254.714" x="-1494.6978" font-weight="bold">Liver:</tspan>         <tspan id="tspan2372" y="1294.714" x="-1494.6978" fill="#800000"> - Cirrhosis</tspan>         <tspan id="tspan2374" y="1334.714" x="-1494.6978" fill="#800000"> - Hepatitis</tspan>       </text>
   <text id="text2376" font-size="32px" xml:space="preserve" line-height="125%" y="1492.7139" x="-1500.6978" font-family="Arial" fill="#000000">         <tspan id="tspan2378" y="1492.7139" x="-1500.6978" font-weight="bold">Pancreas:</tspan>         <tspan id="tspan2380" y="1532.7139" x="-1500.6978" fill="#800000"> - Pancreatitis</tspan>       </text>
   <text id="text2382" font-size="32px" xml:space="preserve" line-height="125%" y="935.69836" x="-1484.1587" font-family="Arial" fill="#000000">         <tspan id="tspan2384" y="935.69836" x="-1484.1587" font-weight="bold">Mouth, trachea and esophagus:</tspan>         <tspan id="tspan2386" y="975.69836" x="-1484.1587" fill="#800000"> - Cancer</tspan>       </text>
   <text id="text2388" font-size="32px" xml:space="preserve" line-height="125%" y="1581.6982" x="-1521.5728" font-family="Arial" fill="#000000">         <tspan id="tspan2390" y="1581.6982" x="-1521.5728" font-weight="bold">Peripheral tissues:</tspan>         <tspan id="tspan2392" y="1621.6982" x="-1521.5728" fill="#800000"> - Increased risk of </tspan>         <tspan id="tspan2482" y="1661.6982" x="-1521.5728" fill="#800000">diabetes type 2</tspan>       </text>
   <text id="text2398" font-size="32px" xml:space="preserve" line-height="125%" y="819.89368" x="-609.45557" font-family="Arial" fill="#000000">         <tspan id="tspan2400" y="819.89368" x="-609.45557" font-weight="bold"><tspan id="tspan2402" font-size="32px" font-family="Arial" line-height="125%" font-weight="bold">Systemic</tspan>:</tspan>         <tspan id="tspan2404" y="859.89368" x="-609.45557" fill="#008000"> - Increases insulin sensitivity</tspan>         <tspan id="tspan2406" y="899.89368" x="-609.45557" fill="#008000"> - Lower risk of diabetes</tspan>       </text>
   <text id="text2414" font-size="32px" xml:space="preserve" line-height="125%" y="1177.6985" x="-474.15869" font-family="Arial" fill="#000000">         <tspan id="tspan2416" y="1177.6985" x="-474.15869" font-weight="bold">Blood:</tspan>         <tspan id="tspan2418" y="1217.6985" x="-474.15869" fill="#008000"> - Increases HDL</tspan>         <tspan id="tspan2420" y="1257.6985" x="-474.15869" fill="#008000"> - Decreases thrombosis</tspan>         <tspan id="tspan2422" y="1297.6985" x="-474.15869" fill="#008000"> - Reduces fibrinogen </tspan>         <tspan id="tspan2424" y="1337.6985" x="-474.15869" fill="#008000"> - Increases fibrinolysis </tspan>         <tspan id="tspan2426" y="1377.6985" x="-474.15869" fill="#008000"> - Reduces artery spasm from stress</tspan>         <tspan id="tspan2428" y="1417.6985" x="-474.15869" fill="#008000"> - Increases coronary blood flow </tspan>       </text>
   <text id="text2432" font-size="32px" xml:space="preserve" line-height="125%" y="1505.8936" x="-441.45557" font-family="Arial" fill="#000000">         <tspan id="tspan2434" y="1505.8936" x="-441.45557" font-weight="bold">Skeletal:</tspan>         <tspan id="tspan2440" y="1545.8936" x="-441.45557" fill="#008000"> - Higher bone mineral density</tspan>       </text>
   <text id="text2444" font-size="36px" font-family="Arial" xml:space="preserve" line-height="125%" y="1729.7667" x="-1464.5981" font-weight="bold" fill="#000000">         <tspan id="tspan2446" y="1729.7667" x="-1464.5981" line-height="125%">Effects linked with both </tspan>         <tspan id="tspan2454" y="1774.7667" x="-1464.5981" line-height="125%">small and large consumption </tspan>       </text>
   <text id="text2448" font-size="32px" xml:space="preserve" line-height="125%" y="1802.714" x="-765.76807" font-family="Arial" fill="#000000">         <tspan id="tspan2450" y="1802.714" x="-765.76807" font-weight="bold">Gallbladder:</tspan>         <tspan id="tspan2452" y="1842.714" x="-765.76807" fill="#008000"> - Reduced the risk of developing gallstones</tspan>       </text>
   <text id="text2456" font-size="32px" xml:space="preserve" line-height="125%" y="1878.714" x="-911.354" font-family="Arial" fill="#000000">         <tspan id="tspan2458" y="1878.714" x="-911.354" font-weight="bold">Kidney:</tspan>         <tspan id="tspan2460" y="1918.714" x="-911.354" fill="#008000"> - Reduced risk of developing kidney stones</tspan>       </text>
   <text id="text2462" font-size="32px" xml:space="preserve" line-height="125%" y="1716.5187" x="-680.44775" font-family="Arial" fill="#000000">         <tspan id="tspan2464" y="1716.5187" x="-680.44775" font-weight="bold">Joints:</tspan>         <tspan id="tspan2466" y="1756.5187" x="-680.44775" fill="#008000"> - Reduced risk of rheumatoid arthritis</tspan>       </text>
   <path id="path4438" d="m-1736.3 824.43h847" stroke="#000" stroke-width="2px" fill="none"/>
   <path id="path9285" d="m-996.31 928.43 166 112" stroke="#000" stroke-width="2px" fill="none"/>
   <path id="path9287" d="m-838.31 954.43h-120" stroke="#000" stroke-width="2px" fill="none"/>
   <path id="path9289" d="m-1366.3 1024.4h384l142.5 145.5" stroke="#000" stroke-width="2px" fill="none"/>
   <path id="path9291" d="m-1386.3 1110.4h386l184 174" stroke="#000" stroke-width="2px" fill="none"/>
   <path id="path9293" d="m-1402.3 1248.4h216l246 146" stroke="#000" stroke-width="2px" fill="none"/>
   <path id="path9295" d="m-1344.3 1386.4h156l56 34h416" stroke="#000" stroke-width="2px" fill="none"/>
   <path id="path9297" d="m-1336.3 1484.4h478l66 62" stroke="#000" stroke-width="2px" fill="none"/>
   <path id="path9299" d="m-766.31 820.43 158 158.59h106" stroke="#000" stroke-width="2px" fill="none"/>
   <path id="path9301" d="m-807.06 1166.4h322.75" stroke="#000" stroke-width="2px" fill="none"/>
   <path id="path9305" d="m-450.31 1492.4h-106" stroke="#000" stroke-width="2px" fill="none"/>
   <path id="path9307" d="m-680.31 1702.4h-30l135-163.5" stroke="#000" stroke-width="2px" fill="none"/>
   <path id="path9309" d="m-774.31 1792.4h-26l-72.5-247.5" stroke="#000" stroke-width="2px" fill="none"/>
   <path id="path9313" d="m-918.31 1866.4h-18v-294" stroke="#000" stroke-width="2px" fill="none"/>
   <path id="path9539" d="m-1590.3 786.43h346" stroke="#000" stroke-width="4" fill="none"/>
   <path id="path10510" d="m-682.09 736.43h557.55" stroke="#000" stroke-width="4" fill="none"/>
   <path id="path11481" d="m-1467.6 1736.4h410.61" stroke="#000" stroke-width="3.4327" fill="none"/>
   <path id="path11483" d="m-1467.2 1784.4h503.83" stroke="#000" stroke-width="3.8024" fill="none"/>
  </g>
 </g>
 <metadata>
  <rdf:RDF>
   <cc:Work>
    <dc:format>image/svg+xml</dc:format>
    <dc:type rdf:resource="http://purl.org/dc/dcmitype/StillImage"/>
    <cc:license rdf:resource="http://creativecommons.org/licenses/publicdomain/"/>
    <dc:publisher>
     <cc:Agent rdf:about="http://openclipart.org/">
      <dc:title>Openclipart</dc:title>
     </cc:Agent>
    </dc:publisher>
   </cc:Work>
   <cc:License rdf:about="http://creativecommons.org/licenses/publicdomain/">
    <cc:permits rdf:resource="http://creativecommons.org/ns#Reproduction"/>
    <cc:permits rdf:resource="http://creativecommons.org/ns#Distribution"/>
    <cc:permits rdf:resource="http://creativecommons.org/ns#DerivativeWorks"/>
   </cc:License>
  </rdf:RDF>
 </metadata>
</svg>
