<?xml version="1.0"?>
<svg xmlns:rdf="http://www.w3.org/1999/02/22-rdf-syntax-ns#" xmlns="http://www.w3.org/2000/svg" xmlns:cc="http://web.resource.org/cc/" xmlns:dc="http://purl.org/dc/elements/1.1/" id="svg5423" height="350" width="535" version="1.0">
 <g id="layer1" transform="translate(-42.543 -32.75)">
  <g id="g2084" transform="translate(3.9321 2.764)">
   <path id="path5439" d="m69.5 36.75c-0.016 0.003-2.5 0.944-2.5 317.59v1.25h1.25 498.69v-2.5h-497.44v-276.68-34.754-4.344-0.562z"/>
   <path id="path2090" d="m68.257 46.688l5 5-5-17.5-5 17.5 5-5z" fill-rule="evenodd" stroke="#000" stroke-width=".4pt"/>
   <path id="path2092" d="m556.93 354.33l-5 5 17.5-5-17.5-5 5 5z" fill-rule="evenodd" stroke="#000" stroke-width=".4pt"/>
  </g>
  <path id="path5443" fill="#888a85" d="m73.557 214.11v2.5h1.25 496.06 1.25v-2.5h-1.25-496.06-1.253z"/>
  <path id="path5445" fill="#888a85" d="m192.84 220.36h2.5v-5h-2.5v5zm0 7.5h2.5v-5h-2.5v5zm0 7.5h2.5v-5h-2.5v5zm0 7.5h2.5v-5h-2.5v5zm0 7.5h2.5v-5h-2.5v5zm0 7.5h2.5v-5h-2.5v5zm0 7.5h2.5v-5h-2.5v5zm0 7.5h2.5v-5h-2.5v5zm0 7.5h2.5v-5h-2.5v5zm0 7.5h2.5v-5h-2.5v5zm0 7.5h2.5v-5h-2.5v5zm0 7.5h2.5v-5h-2.5v5zm0 7.5h2.5v-5h-2.5v5zm0 7.5h2.5v-5h-2.5v5zm0 7.5h2.5v-5h-2.5v5zm0 7.5h2.5v-5h-2.5v5zm0 7.5h2.5v-5h-2.5v5zm0 7.5h2.5v-5h-2.5v5zm0 7.5h2.5v-5h-2.5v5z"/>
  <path id="path5447" fill="#888a85" d="m442.31 220.36h2.5v-5h-2.5v5zm0 7.5h2.5v-5h-2.5v5zm0 7.5h2.5v-5h-2.5v5zm0 7.5h2.5v-5h-2.5v5zm0 7.5h2.5v-5h-2.5v5zm0 7.5h2.5v-5h-2.5v5zm0 7.5h2.5v-5h-2.5v5zm0 7.5h2.5v-5h-2.5v5zm0 7.5h2.5v-5h-2.5v5zm0 7.5h2.5v-5h-2.5v5zm0 7.5h2.5v-5h-2.5v5zm0 7.5h2.5v-5h-2.5v5zm0 7.5h2.5v-5h-2.5v5zm0 7.5h2.5v-5h-2.5v5zm0 7.5h2.5v-5h-2.5v5zm0 7.5h2.5v-5h-2.5v5zm0 7.5h2.5v-5h-2.5v5zm0 7.5h2.5v-5h-2.5v5zm0 7.5h2.5v-5h-2.5v5z"/>
  <path id="path5441" d="m72.213 110.33v2.5h0.032 0.406 0.906 5.625 63.968c9.24 0 16 3.12 21.34 8.68 5.35 5.57 9.24 13.66 12.38 23.47 6.28 19.62 9.45 46.02 15.78 72.53s15.86 53.19 35.06 73.25c19.2 20.07 48.09 33.41 92.63 33.41s72.93-13.36 91.56-33.44c18.63-20.07 27.44-46.71 33.31-73.22 5.87-26.5 8.83-52.93 15.44-72.53 3.31-9.8 7.53-17.86 13.38-23.43 5.84-5.58 13.28-8.72 23.46-8.72h72.13 1.25v-2.5h-1.25-72.13c-10.7 0-18.94 3.42-25.21 9.4-6.28 5.99-10.63 14.46-14 24.47-6.76 20.03-9.67 46.42-15.5 72.75s-14.55 52.54-32.69 72.1c-18.14 19.55-45.71 32.62-89.75 32.62s-72.09-13.09-90.81-32.66c-18.72-19.56-28.15-45.73-34.44-72.06s-9.41-52.74-15.81-72.75c-3.2-10-7.24-18.44-13-24.44-5.77-5.99-13.32-9.43-23.13-9.43h-63.968-5.625-0.906-0.406-0.032z"/>
  <path id="text5455" d="m93.632 83.123l2.567 13.43 7.761-13.43h-1.97l0.24-1.253h5.14l-0.25 1.253h-1.7l-9.397 16.243h-2.016l-3.058-16.243h-1.746l0.246-1.253h6.375l-0.246 1.253h-1.946m19.348 19.977c-1.9-0.85-3.33-2.2-4.3-4.039-0.97-1.852-1.45-4.164-1.45-6.938 0-2.781 0.48-5.093 1.45-6.937 0.97-1.852 2.4-3.203 4.3-4.055v1.149c-1.2 0.828-2.07 1.996-2.59 3.504-0.52 1.5-0.79 3.613-0.79 6.339 0 2.719 0.27 4.832 0.79 6.34 0.52 1.5 1.39 2.667 2.59 3.497v1.14m3.26-3.734h-1.47l5.5-5.977-2.77-5.227h-1.53l0.23-1.253h3.17l2.59 4.851 4.46-4.851h1.47l-5.39 5.859 2.84 5.355h1.63l-0.23 1.243h-3.27l-2.65-4.969-4.58 4.969m13.66 3.734v-1.14c1.2-0.83 2.07-1.997 2.59-3.497 0.53-1.508 0.8-3.621 0.8-6.34 0-2.726-0.27-4.839-0.8-6.339-0.52-1.508-1.39-2.676-2.59-3.504v-1.149c1.91 0.852 3.35 2.203 4.31 4.055 0.97 1.844 1.46 4.156 1.46 6.937 0 2.774-0.49 5.086-1.46 6.938-0.96 1.839-2.4 3.189-4.31 4.039"/>
  <path id="text5469" d="m48.7 223.35l0.234-1.24h2.226l2.918-15h-2.226l0.246-1.26h14.086l-0.75 3.89h-1.441l0.468-2.45h-8.039l-1.137 5.86h5.731l0.422-2.19h1.441l-1.125 5.81h-1.441l0.422-2.19h-5.731l-1.418 7.33h8.227l0.469-2.45h1.441l-0.75 3.89h-14.273"/>
  <path id="text5479" d="m184.19 377.45h-1.46l5.49-5.98-2.76-5.22h-1.54l0.24-1.26h3.16l2.59 4.85 4.46-4.85h1.47l-5.39 5.86 2.85 5.36h1.63l-0.24 1.24h-3.27l-2.65-4.97-4.58 4.97m14.24 0v-0.83h2.03v-9.7l-2.35 1.52v-1.02l2.84-1.85h1.08v11.05h2.03v0.83h-5.63"/>
  <path id="text5489" d="m433.43 377.45h-1.47l5.5-5.98-2.77-5.22h-1.53l0.23-1.26h3.17l2.59 4.85 4.46-4.85h1.47l-5.39 5.86 2.84 5.36h1.63l-0.23 1.24h-3.27l-2.65-4.97-4.58 4.97m14.01-8.88h-0.87v-2.08c0.55-0.3 1.11-0.52 1.67-0.68 0.57-0.16 1.13-0.24 1.67-0.24 1.21 0 2.17 0.3 2.87 0.89 0.71 0.59 1.06 1.39 1.06 2.4 0 1.14-0.8 2.5-2.39 4.09-0.13 0.12-0.22 0.21-0.28 0.27l-2.95 2.95h4.87v-1.44h0.91v2.72h-7.52v-0.85l3.54-3.53c0.78-0.78 1.34-1.5 1.67-2.15 0.33-0.66 0.5-1.35 0.5-2.06 0-0.79-0.21-1.4-0.62-1.85-0.4-0.44-0.97-0.66-1.68-0.66-0.75 0-1.32 0.18-1.73 0.55s-0.65 0.93-0.72 1.67"/>
  <path id="text5515" d="m50.905 36.768l2.567 13.43 7.757-13.43h-1.968l0.246-1.254h5.133l-0.247 1.254h-1.699l-9.398 16.242h-2.016l-3.058-16.242h-1.746l0.246-1.254h6.375l-0.246 1.254h-1.946"/>
  <path id="text5525" d="m559.39 379.99h-1.46l5.49-5.98-2.76-5.23h-1.54l0.24-1.25h3.16l2.59 4.85 4.47-4.85h1.46l-5.39 5.86 2.85 5.35h1.63l-0.24 1.25h-3.27l-2.65-4.97-4.58 4.97"/>
 </g>
 <metadata>
  <rdf:RDF>
   <cc:Work>
    <dc:format>image/svg+xml</dc:format>
    <dc:type rdf:resource="http://purl.org/dc/dcmitype/StillImage"/>
    <cc:license rdf:resource="http://creativecommons.org/licenses/publicdomain/"/>
    <dc:publisher>
     <cc:Agent rdf:about="http://openclipart.org/">
      <dc:title>Openclipart</dc:title>
     </cc:Agent>
    </dc:publisher>
   </cc:Work>
   <cc:License rdf:about="http://creativecommons.org/licenses/publicdomain/">
    <cc:permits rdf:resource="http://creativecommons.org/ns#Reproduction"/>
    <cc:permits rdf:resource="http://creativecommons.org/ns#Distribution"/>
    <cc:permits rdf:resource="http://creativecommons.org/ns#DerivativeWorks"/>
   </cc:License>
  </rdf:RDF>
 </metadata>
</svg>
