<?xml version="1.0"?>
<svg xmlns:rdf="http://www.w3.org/1999/02/22-rdf-syntax-ns#" xmlns="http://www.w3.org/2000/svg" xmlns:cc="http://creativecommons.org/ns#" xmlns:dc="http://purl.org/dc/elements/1.1/" id="svg2" height="1494" width="1855" version="1.1">
 <path id="path2991" d="m490.84 329.85a28.621 28.621 0 1 1 -57.241 0 28.621 28.621 0 1 1 57.241 0z" stroke="#000" stroke-width="10" fill="none"/>
 <path id="path3765" d="m582.43 330.57a119.49 119.49 0 1 1 -238.98 0 119.49 119.49 0 1 1 238.98 0z" stroke="#000" stroke-width="10" fill="none"/>
 <path id="path3767" d="m674.02 330.57a208.93 208.93 0 1 1 -417.86 0 208.93 208.93 0 1 1 417.86 0z" stroke="#000" stroke-width="10" fill="none"/>
 <path id="path3769" d="m758.45 332a296.22 296.22 0 1 1 -592.45 0 296.22 296.22 0 1 1 592.45 0z" stroke="#000" stroke-width="10" fill="none"/>
 <path id="path3783" d="m491.02 328.06 258.54-59.46" stroke="#000" stroke-width="3" fill="none"/>
 <path id="path3785" d="m738.68 434.55-249.43-92.34" stroke="#000" stroke-width="3" fill="none"/>
 <path id="path3787" d="m481.16 353.09 184.67 193.52" stroke="#000" stroke-width="3" fill="none"/>
 <path id="path3789" d="m565.14 608.85-86.26-255.51" stroke="#000" stroke-width="3" fill="none"/>
 <path id="path3791" d="m449.79 356.38-76.15 256.77" stroke="#000" stroke-width="3" fill="none"/>
 <path id="path3793" d="m438.66 346.26-188.47 191.75" stroke="#000" stroke-width="3" fill="none"/>
 <path id="path3795" d="m435.37 340.44-260.31 61.22" stroke="#000" stroke-width="3" fill="none"/>
 <path id="path3797" d="m434.36 322.48-251.21-92.08" stroke="#000" stroke-width="3" fill="none"/>
 <path id="path3799" d="m440.68 308.31-181.64-190.49" stroke="#000" stroke-width="3" fill="none"/>
 <path id="path3801" d="m378.2 50.786 83.228 250.19" stroke="#000" stroke-width="3" fill="none"/>
 <path id="path3803" d="m543.13 49.015-76.9 252.46" stroke="#000" stroke-width="3" fill="none"/>
 <path id="path3805" d="m662.28 115.8-184.67 188.97" stroke="#000" stroke-width="3" fill="none"/>
 <path id="path2991-1" d="m490.84 329.85a28.621 28.621 0 1 1 -57.241 0 28.621 28.621 0 1 1 57.241 0z" transform="translate(547.65 770.42)" stroke="#000" stroke-width="10" fill="none"/>
 <path id="path3765-5" d="m582.43 330.57a119.49 119.49 0 1 1 -238.98 0 119.49 119.49 0 1 1 238.98 0z" transform="translate(547.65 770.42)" stroke="#000" stroke-width="10" fill="none"/>
 <path id="path3767-1" d="m674.02 330.57a208.93 208.93 0 1 1 -417.86 0 208.93 208.93 0 1 1 417.86 0z" transform="translate(547.65 770.42)" stroke="#000" stroke-width="10" fill="none"/>
 <path id="path3769-6" d="m758.45 332a296.22 296.22 0 1 1 -592.45 0 296.22 296.22 0 1 1 592.45 0z" transform="translate(547.65 770.42)" stroke="#000" stroke-width="10" fill="none"/>
 <path id="path3783-3" d="m1038.7 1098.5 258.54-59.468" stroke="#000" stroke-width="3" fill="none"/>
 <path id="path3785-0" d="m1286.3 1205-249.4-92.4" stroke="#000" stroke-width="3" fill="none"/>
 <path id="path3787-8" d="m1028.8 1123.5 184.67 193.52" stroke="#000" stroke-width="3" fill="none"/>
 <path id="path3789-2" d="m1112.8 1379.3-86.264-255.5" stroke="#000" stroke-width="3" fill="none"/>
 <path id="path3791-5" d="m997.44 1126.8-76.145 256.77" stroke="#000" stroke-width="3" fill="none"/>
 <path id="path3793-6" d="m986.31 1116.7-188.47 191.7" stroke="#000" stroke-width="3" fill="none"/>
 <path id="path3795-4" d="m983.02 1110.9-260.31 61.22" stroke="#000" stroke-width="3" fill="none"/>
 <path id="path3797-2" d="m982.01 1092.9-251.2-92.1" stroke="#000" stroke-width="3" fill="none"/>
 <path id="path3799-4" d="m988.33 1078.7-181.63-190.46" stroke="#000" stroke-width="3" fill="none"/>
 <path id="path3801-5" d="m925.85 821.21 83.228 250.19" stroke="#000" stroke-width="3" fill="none"/>
 <path id="path3803-2" d="m1090.8 819.44-76.904 252.47" stroke="#000" stroke-width="3" fill="none"/>
 <path id="path3805-1" d="m1209.9 886.22-184.6 188.98" stroke="#000" stroke-width="3" fill="none"/>
 <path id="path2991-4" d="m490.84 329.85a28.621 28.621 0 1 1 -57.241 0 28.621 28.621 0 1 1 57.241 0z" transform="translate(1065.7 12.488)" stroke="#000" stroke-width="10" fill="none"/>
 <path id="path3765-7" d="m582.43 330.57a119.49 119.49 0 1 1 -238.98 0 119.49 119.49 0 1 1 238.98 0z" transform="translate(1065.7 12.488)" stroke="#000" stroke-width="10" fill="none"/>
 <path id="path3767-2" d="m674.02 330.57a208.93 208.93 0 1 1 -417.86 0 208.93 208.93 0 1 1 417.86 0z" transform="translate(1065.7 12.488)" stroke="#000" stroke-width="10" fill="none"/>
 <path id="path3769-1" d="m758.45 332a296.22 296.22 0 1 1 -592.45 0 296.22 296.22 0 1 1 592.45 0z" transform="translate(1065.7 12.488)" stroke="#000" stroke-width="10" fill="none"/>
 <path id="path3783-4" d="m1556.8 340.55 258.54-59.469" stroke="#000" stroke-width="3" fill="none"/>
 <path id="path3785-6" d="m1804.4 447.04-249.4-92.34" stroke="#000" stroke-width="3" fill="none"/>
 <path id="path3787-2" d="m1546.9 365.58 184.67 193.52" stroke="#000" stroke-width="3" fill="none"/>
 <path id="path3789-7" d="m1630.9 621.33-86.3-255.5" stroke="#000" stroke-width="3" fill="none"/>
 <path id="path3791-1" d="m1515.5 368.87-76.1 256.76" stroke="#000" stroke-width="3" fill="none"/>
 <path id="path3793-1" d="m1504.4 358.75-188.5 191.75" stroke="#000" stroke-width="3" fill="none"/>
 <path id="path3795-2" d="m1501.1 352.93-260.31 61.22" stroke="#000" stroke-width="3" fill="none"/>
 <path id="path3797-5" d="m1500.1 334.97-251.2-92.08" stroke="#000" stroke-width="3" fill="none"/>
 <path id="path3799-8" d="m1506.4 320.8-181.6-190.49" stroke="#000" stroke-width="3" fill="none"/>
 <path id="path3801-58" d="m1443.9 63.274 83.228 250.19" stroke="#000" stroke-width="3" fill="none"/>
 <path id="path3803-4" d="m1608.9 61.503-76.9 252.47" stroke="#000" stroke-width="3" fill="none"/>
 <path id="path3805-6" d="m1728 128.29-184.6 188.97" stroke="#000" stroke-width="3" fill="none"/>
 <path id="path3913" d="m671.9 431.76a14.925 14.925 0 1 1 -29.851 0 14.925 14.925 0 1 1 29.851 0z" stroke="#000" stroke-width="3" fill="#ff0"/>
 <path id="path3913-5" d="m671.9 431.76a14.925 14.925 0 1 1 -29.851 0 14.925 14.925 0 1 1 29.851 0z" transform="translate(-50.848 -50.595)" stroke="#000" stroke-width="3" fill="#ff0"/>
 <path id="path3913-7" d="m671.9 431.76a14.925 14.925 0 1 1 -29.851 0 14.925 14.925 0 1 1 29.851 0z" transform="translate(-100.68 -99.925)" stroke="#000" stroke-width="3" fill="#ff0"/>
 <path id="path3913-3" d="m671.9 431.76a14.925 14.925 0 1 1 -29.851 0 14.925 14.925 0 1 1 29.851 0z" transform="translate(-149 -150.01)" stroke="#000" stroke-width="3" fill="#ff0"/>
 <path id="path3913-9" d="m671.9 431.76a14.925 14.925 0 1 1 -29.851 0 14.925 14.925 0 1 1 29.851 0z" transform="translate(-201.37 -199.6)" stroke="#000" stroke-width="3" fill="#ff0"/>
 <path id="path3913-91" d="m671.9 431.76a14.925 14.925 0 1 1 -29.851 0 14.925 14.925 0 1 1 29.851 0z" transform="translate(-250.95 -248.42)" stroke="#000" stroke-width="3" fill="#ff0"/>
 <path id="path3913-34" d="m671.9 431.76a14.925 14.925 0 1 1 -29.851 0 14.925 14.925 0 1 1 29.851 0z" transform="translate(-299.01 -299.01)" stroke="#000" stroke-width="3" fill="#ff0"/>
 <path id="path3913-1" d="m671.9 431.76a14.925 14.925 0 1 1 -29.851 0 14.925 14.925 0 1 1 29.851 0z" transform="translate(199.34 806.99)" stroke="#000" stroke-width="3" fill="#ff0"/>
 <path id="path3913-35" d="m671.9 431.76a14.925 14.925 0 1 1 -29.851 0 14.925 14.925 0 1 1 29.851 0z" transform="translate(208.45 843.92)" stroke="#000" stroke-width="3" fill="#ff0"/>
 <path id="path3913-94" d="m671.9 431.76a14.925 14.925 0 1 1 -29.851 0 14.925 14.925 0 1 1 29.851 0z" transform="translate(193.52 873.52)" stroke="#000" stroke-width="3" fill="#ff0"/>
 <path id="path3913-56" d="m671.9 431.76a14.925 14.925 0 1 1 -29.851 0 14.925 14.925 0 1 1 29.851 0z" transform="translate(172.53 863.4)" stroke="#000" stroke-width="3" fill="#ff0"/>
 <path id="path3913-6" d="m671.9 431.76a14.925 14.925 0 1 1 -29.851 0 14.925 14.925 0 1 1 29.851 0z" transform="translate(150.52 837.6)" stroke="#000" stroke-width="3" fill="#ff0"/>
 <path id="path3913-0" d="m671.9 431.76a14.925 14.925 0 1 1 -29.851 0 14.925 14.925 0 1 1 29.851 0z" transform="translate(163.67 812.8)" stroke="#000" stroke-width="3" fill="#ff0"/>
 <path id="path3913-560" d="m671.9 431.76a14.925 14.925 0 1 1 -29.851 0 14.925 14.925 0 1 1 29.851 0z" transform="translate(891.48 -82.469)" stroke="#000" stroke-width="3" fill="#ff0"/>
 <path id="path3913-00" d="m671.9 431.76a14.925 14.925 0 1 1 -29.851 0 14.925 14.925 0 1 1 29.851 0z" transform="translate(883.89 -121.93)" stroke="#000" stroke-width="3" fill="#ff0"/>
 <path id="path3913-03" d="m671.9 431.76a14.925 14.925 0 1 1 -29.851 0 14.925 14.925 0 1 1 29.851 0z" transform="translate(875.04 -50.848)" stroke="#000" stroke-width="3" fill="#ff0"/>
 <path id="path3913-11" d="m671.9 431.76a14.925 14.925 0 1 1 -29.851 0 14.925 14.925 0 1 1 29.851 0z" transform="translate(857.83 -64.002)" stroke="#000" stroke-width="3" fill="#ff0"/>
 <path id="path3913-60" d="m671.9 431.76a14.925 14.925 0 1 1 -29.851 0 14.925 14.925 0 1 1 29.851 0z" transform="translate(835.32 -88.288)" stroke="#000" stroke-width="3" fill="#ff0"/>
 <path id="path3913-36" d="m671.9 431.76a14.925 14.925 0 1 1 -29.851 0 14.925 14.925 0 1 1 29.851 0z" transform="translate(846.96 -113.08)" stroke="#000" stroke-width="3" fill="#ff0"/>
 <text id="text4066" style="word-spacing:0px;letter-spacing:0px;text-anchor:middle;text-align:center" xml:space="preserve" font-size="144px" line-height="125%" y="125.91906" x="1144.2191" font-family="Sans" fill="#000000">
    <tspan id="tspan4068" x="1144.2191" y="125.91906">(b)</tspan>
  </text>
 <text id="text4070" style="word-spacing:0px;letter-spacing:0px;text-anchor:middle;text-align:center" xml:space="preserve" font-size="144px" line-height="125%" y="123.0421" x="98.13884" font-family="Sans" fill="#000000">
    <tspan id="tspan4072" x="98.13884" y="123.0421">(a)</tspan>
  </text>
 <text id="text4074" style="word-spacing:0px;letter-spacing:0px;text-anchor:middle;text-align:center" xml:space="preserve" font-size="144px" line-height="125%" y="904.93378" x="622.16595" font-family="Sans" fill="#000000">
    <tspan id="tspan4076" x="622.16595" y="904.93378">(c)</tspan>
  </text>
 <metadata>
  <rdf:RDF>
   <cc:Work>
    <dc:format>image/svg+xml</dc:format>
    <dc:type rdf:resource="http://purl.org/dc/dcmitype/StillImage"/>
    <cc:license rdf:resource="http://creativecommons.org/licenses/publicdomain/"/>
    <dc:publisher>
     <cc:Agent rdf:about="http://openclipart.org/">
      <dc:title>Openclipart</dc:title>
     </cc:Agent>
    </dc:publisher>
   </cc:Work>
   <cc:License rdf:about="http://creativecommons.org/licenses/publicdomain/">
    <cc:permits rdf:resource="http://creativecommons.org/ns#Reproduction"/>
    <cc:permits rdf:resource="http://creativecommons.org/ns#Distribution"/>
    <cc:permits rdf:resource="http://creativecommons.org/ns#DerivativeWorks"/>
   </cc:License>
  </rdf:RDF>
 </metadata>
</svg>
