<?xml version="1.0"?>
<svg xmlns:rdf="http://www.w3.org/1999/02/22-rdf-syntax-ns#" xmlns="http://www.w3.org/2000/svg" xmlns:cc="http://creativecommons.org/ns#" xmlns:dc="http://purl.org/dc/elements/1.1/" id="svg2" height="399.36" viewBox="0 0 683.49402 399.35901" width="683.49" version="1.0">
 <g id="g4" font-size="60pt" stroke-linecap="round" transform="translate(-42.506,-39.661)">
  <g id="g6" stroke-width="5" stroke="#000">
   <line id="line8" x2="591.3" y1="188.9" x1="525.2" y2="303.2"/>
   <line id="line10" x2="393" y1="303.5" x1="326.9" y2="188.9"/>
   <line id="line12" x2="230" y1="74.4" x1="326.8" y2="74.4"/>
   <line id="line14" x2="490" y1="417.8" x1="393" y2="417.8"/>
   <line id="line16" x2="326.8" y1="188.9" x1="393" y2="74.4"/>
   <line id="line18" x2="393" y1="303.5" x1="326.9" y2="417.8"/>
   <line id="line20" x2="410.7" y1="302.8" x1="361.2" y2="388.5"/>
   <line id="line22" x2="723.5" y1="303.2" x1="591.3" y2="303.2"/>
   <line id="line24" x2="525.2" y1="188.9" x1="393" y2="188.9"/>
   <line id="line26" x2="508.7" y1="218.9" x1="409.5" y2="218.9"/>
   <line id="line28" x2="549.9" y1="303.2" x1="591.3" y2="375"/>
   <line id="line30" x2="529.1" y1="297.2" x1="560.1" y2="351"/>
   <line id="line32" x2="194.7" y1="303.5" x1="326.9" y2="303.5"/>
   <line id="line34" x2="153.4" y1="303.5" x1="194.7" y2="375"/>
   <line id="line36" x2="573.6" y1="188.9" x1="525.2" y2="105"/>
  </g>
  <path id="text38" d="m42.506 438.1v-53.69h7.104v22.05h27.906v-22.05h7.104v53.69h-7.104v-25.31h-27.906v25.31h-7.104zm51.819-26.15c0-8.91 2.392-15.88 7.175-20.93 4.79-5.04 10.96-7.56 18.53-7.56 4.96 0 9.43 1.19 13.41 3.55 3.98 2.37 7.01 5.67 9.1 9.91 2.08 4.24 3.13 9.04 3.13 14.41 0 5.44-1.1 10.31-3.3 14.61s-5.31 7.55-9.34 9.76-8.37 3.32-13.03 3.32c-5.06 0-9.57-1.23-13.55-3.67s-6.998-5.77-9.049-9.99c-2.051-4.23-3.076-8.7-3.076-13.41zm7.325 0.11c0 6.47 1.74 11.57 5.22 15.29s7.84 5.59 13.09 5.59c5.35 0 9.75-1.88 13.2-5.64 3.46-3.76 5.18-9.1 5.18-16.01 0-4.37-0.74-8.18-2.21-11.44-1.48-3.26-3.64-5.79-6.48-7.58-2.85-1.8-6.04-2.69-9.58-2.69-5.03 0-9.36 1.72-12.98 5.18-3.63 3.45-5.44 9.22-5.44 17.3z"/>
  <path id="text40" d="m107.51 94.4v-53.687h7.1v22.046h27.91v-22.046h7.1v53.687h-7.1v-25.305h-27.91v25.305h-7.1zm51.81-26.147c0-8.912 2.4-15.888 7.18-20.929 4.79-5.042 10.96-7.563 18.53-7.563 4.96 0 9.43 1.184 13.41 3.553 3.98 2.368 7.01 5.67 9.1 9.906 2.08 4.235 3.13 9.039 3.13 14.41 0 5.444-1.1 10.315-3.3 14.612s-5.31 7.55-9.34 9.759c-4.03 2.21-8.37 3.315-13.03 3.315-5.06 0-9.57-1.221-13.55-3.663-3.98-2.441-7-5.773-9.05-9.997s-3.08-8.692-3.08-13.403zm7.33 0.109c0 6.47 1.74 11.567 5.22 15.29s7.84 5.584 13.09 5.584c5.35 0 9.75-1.879 13.2-5.639 3.46-3.76 5.18-9.094 5.18-16.004 0-4.37-0.74-8.184-2.21-11.444-1.48-3.259-3.64-5.786-6.48-7.58-2.85-1.795-6.04-2.692-9.58-2.692-5.03 0-9.36 1.727-12.98 5.182-3.63 3.455-5.44 9.222-5.44 17.303z"/>
  <path id="text42" d="m565.13 68.153c0-8.912 2.39-15.888 7.17-20.929 4.79-5.042 10.97-7.563 18.53-7.563 4.96 0 9.43 1.184 13.41 3.553 3.98 2.368 7.01 5.67 9.1 9.906 2.08 4.235 3.13 9.039 3.13 14.41 0 5.444-1.1 10.315-3.3 14.612-2.19 4.297-5.31 7.55-9.34 9.759-4.02 2.21-8.37 3.315-13.03 3.315-5.06 0-9.57-1.221-13.55-3.663-3.98-2.441-7-5.773-9.05-9.997s-3.07-8.692-3.07-13.403zm7.32 0.109c0 6.47 1.74 11.567 5.22 15.29s7.84 5.584 13.09 5.584c5.35 0 9.75-1.879 13.2-5.639 3.46-3.76 5.18-9.094 5.18-16.004 0-4.37-0.73-8.184-2.21-11.444-1.48-3.259-3.64-5.786-6.48-7.58-2.85-1.795-6.04-2.692-9.58-2.692-5.03 0-9.36 1.727-12.98 5.182-3.63 3.455-5.44 9.222-5.44 17.303zm53.36 26.038v-53.687h7.1v22.046h27.91v-22.046h7.1v53.687h-7.1v-25.305h-27.91v25.305h-7.1z"/>
  <path id="text44" d="m502.21 437.8v-53.69h7.29l28.2 42.15v-42.15h6.81v53.69h-7.29l-28.2-42.19v42.19h-6.81z"/>
 </g>
 <metadata>
  <rdf:RDF>
   <cc:Work>
    <dc:format>image/svg+xml</dc:format>
    <dc:type rdf:resource="http://purl.org/dc/dcmitype/StillImage"/>
    <cc:license rdf:resource="http://creativecommons.org/licenses/publicdomain/"/>
    <dc:publisher>
     <cc:Agent rdf:about="http://openclipart.org/">
      <dc:title>Openclipart</dc:title>
     </cc:Agent>
    </dc:publisher>
   </cc:Work>
   <cc:License rdf:about="http://creativecommons.org/licenses/publicdomain/">
    <cc:permits rdf:resource="http://creativecommons.org/ns#Reproduction"/>
    <cc:permits rdf:resource="http://creativecommons.org/ns#Distribution"/>
    <cc:permits rdf:resource="http://creativecommons.org/ns#DerivativeWorks"/>
   </cc:License>
  </rdf:RDF>
 </metadata>
</svg>
