<?xml version="1.0"?>
<svg xmlns:rdf="http://www.w3.org/1999/02/22-rdf-syntax-ns#" xmlns="http://www.w3.org/2000/svg" xmlns:cc="http://web.resource.org/cc/" xmlns:dc="http://purl.org/dc/elements/1.1/" id="svg5433" height="220" width="275" version="1.0">
 <g id="layer1" transform="translate(-86.083 -424.9)">
  <path id="rect2825" fill="#babdb6" d="m267.73 445.32h88.38c0.06 0 0.1 0.05 0.1 0.1v176.97c0 0.05-0.04 0.1-0.1 0.1h-88.38c-0.05 0-0.1-0.05-0.1-0.1v-176.97c0-0.05 0.05-0.1 0.1-0.1z"/>
  <path id="rect2823" fill="#babdb6" d="m90.566 445.32h88.384c0.05 0 0.1 0.05 0.1 0.1v176.97c0 0.05-0.05 0.1-0.1 0.1h-88.384c-0.056 0-0.101-0.05-0.101-0.1v-176.97c0-0.05 0.045-0.1 0.101-0.1z"/>
  <path id="path2817" d="m90.477 621.5v2h265.75v-2h-265.75z"/>
  <path id="path2833" d="m98.465 622.49l4.005-4-14.005 4 14.005 4-4.005-4z" fill-rule="evenodd" stroke="#000" stroke-width=".8pt"/>
  <path id="path2835" d="m348.21 622.49l-4 4 14-4-14-4 4 4z" fill-rule="evenodd" stroke="#000" stroke-width=".8pt"/>
  <path id="path2819" d="m177.88 445.07v177.25h2.35v-155.1-19.37-2.44-0.28-0.06h-2.35z"/>
  <path id="path2851" d="m179.05 454.41l4.66 4.66-4.66-16.33-4.67 16.33 4.67-4.66z" fill-rule="evenodd" stroke="#000" stroke-width=".93336pt"/>
  <path id="path2821" d="m266.48 445.07v177.25h2.31v-177.25h-2.31z"/>
  <path id="path2843" d="m267.63 454.41l4.67 4.66-4.67-16.33-4.67 16.33 4.67-4.66z" fill-rule="evenodd" stroke="#000" stroke-width=".93336pt"/>
  <path id="text2831" d="m179.68 641.52c0.99 0 1.74-0.54 2.23-1.64 0.5-1.09 0.75-2.74 0.75-4.95s-0.25-3.87-0.75-4.96c-0.49-1.09-1.24-1.64-2.23-1.64-1 0-1.74 0.55-2.24 1.64-0.49 1.09-0.74 2.75-0.74 4.96s0.25 3.86 0.74 4.95c0.5 1.1 1.24 1.64 2.24 1.64m0 0.97c-1.58 0-2.82-0.66-3.71-1.99s-1.33-3.19-1.33-5.57c0-2.39 0.44-4.25 1.33-5.58 0.89-1.32 2.13-1.99 3.71-1.99 1.59 0 2.82 0.67 3.71 1.99 0.88 1.33 1.33 3.19 1.33 5.58 0 2.38-0.45 4.24-1.33 5.57-0.89 1.33-2.12 1.99-3.71 1.99"/>
  <path id="text2835" d="m261.25 642.21l0.19-1.04h1.86l2.43-12.5h-1.85l0.2-1.04h5.69l-0.2 1.04h-1.86l-2.39 12.33h6.66l0.47-2.44h1.2l-0.7 3.65h-11.7"/>
  <path id="text2839" d="m205.89 602.45l2.14 11.19 6.46-11.19h-1.64l0.21-1.04h4.27l-0.2 1.04h-1.42l-7.83 13.54h-1.68l-2.55-13.54h-1.45l0.2-1.04h5.31l-0.2 1.04h-1.62m11.86 4.49h12.52v1.57h-12.52v-1.57m0 3.99h12.52v1.56h-12.52v-1.56m17.8 2.73c0.28 1.1 0.92 1.64 1.92 1.64s1.85-0.54 2.55-1.64c0.71-1.09 1.28-2.74 1.71-4.95s0.5-3.87 0.21-4.96c-0.28-1.09-0.91-1.64-1.91-1.64s-1.85 0.55-2.56 1.64c-0.7 1.09-1.27 2.75-1.7 4.96s-0.5 3.86-0.22 4.95m1.73 2.61c-1.59 0-2.69-0.67-3.33-1.99-0.62-1.33-0.7-3.19-0.24-5.57 0.46-2.39 1.27-4.25 2.41-5.58 1.16-1.32 2.52-1.99 4.1-1.99 1.59 0 2.7 0.67 3.32 1.99 0.63 1.33 0.71 3.19 0.25 5.58-0.46 2.38-1.27 4.24-2.41 5.57-1.15 1.32-2.52 1.99-4.1 1.99"/>
  <path id="text2843" d="m116.09 527.66l2.14 11.19 6.46-11.19h-1.64l0.21-1.04h4.28l-0.21 1.04h-1.42l-7.83 13.54h-1.68l-2.55-13.54h-1.45l0.2-1.04h5.32l-0.21 1.04h-1.62m11.87 4.49h12.51v1.57h-12.51v-1.57m0 3.99h12.51v1.56h-12.51v-1.56m23.57-0.4c0.32 0.58 0.7 1.01 1.13 1.31 0.44 0.28 0.93 0.43 1.48 0.43 0.65 0 1.19-0.22 1.61-0.66 0.41-0.44 0.62-1 0.62-1.69 0-0.66-0.19-1.2-0.57-1.64-0.39-0.43-0.87-0.65-1.45-0.65-0.53 0-1 0.22-1.43 0.65s-0.89 1.18-1.39 2.25m-1.19-1.05c-0.32-0.57-0.7-1-1.13-1.29-0.43-0.28-0.93-0.43-1.48-0.43-0.66 0-1.19 0.22-1.61 0.66-0.42 0.43-0.63 0.98-0.63 1.67 0 0.66 0.2 1.2 0.58 1.64s0.87 0.65 1.45 0.65c0.52 0 1-0.21 1.42-0.64 0.43-0.43 0.9-1.18 1.4-2.26m0.69 1.79c-0.46 0.89-0.95 1.53-1.45 1.94-0.51 0.41-1.07 0.62-1.68 0.62-0.88 0-1.63-0.37-2.24-1.1-0.61-0.72-0.91-1.63-0.91-2.7 0-1.14 0.27-2.06 0.81-2.76 0.55-0.71 1.26-1.06 2.13-1.06 0.62 0 1.17 0.2 1.66 0.61 0.49 0.39 0.98 1.05 1.47 1.97 0.44-0.9 0.92-1.56 1.43-1.98 0.52-0.43 1.09-0.65 1.72-0.65 0.87 0 1.61 0.37 2.22 1.11 0.62 0.73 0.93 1.64 0.93 2.72 0 1.13-0.28 2.05-0.83 2.75-0.54 0.7-1.24 1.05-2.11 1.05-0.62 0-1.17-0.19-1.65-0.57s-0.98-1.03-1.5-1.95"/>
  <path id="text2847" d="m293.26 527.66l2.13 11.19 6.47-11.19h-1.64l0.2-1.04h4.28l-0.2 1.04h-1.42l-7.83 13.54h-1.68l-2.55-13.54h-1.46l0.21-1.04h5.31l-0.2 1.04h-1.62m11.86 4.49h12.52v1.57h-12.52v-1.57m0 3.99h12.52v1.56h-12.52v-1.56m23.57-0.4c0.33 0.58 0.71 1.01 1.14 1.31 0.43 0.28 0.93 0.43 1.47 0.43 0.66 0 1.2-0.22 1.61-0.66 0.42-0.44 0.63-1 0.63-1.69 0-0.66-0.19-1.2-0.58-1.64-0.38-0.43-0.86-0.65-1.44-0.65-0.53 0-1.01 0.22-1.44 0.65-0.42 0.43-0.88 1.18-1.39 2.25m-1.19-1.05c-0.32-0.57-0.69-1-1.13-1.29-0.43-0.28-0.92-0.43-1.47-0.43-0.66 0-1.2 0.22-1.62 0.66-0.41 0.43-0.62 0.98-0.62 1.67 0 0.66 0.19 1.2 0.58 1.64 0.38 0.44 0.86 0.65 1.44 0.65 0.53 0 1-0.21 1.43-0.64s0.89-1.18 1.39-2.26m0.7 1.79c-0.47 0.89-0.95 1.53-1.46 1.94-0.5 0.41-1.06 0.62-1.68 0.62-0.88 0-1.62-0.37-2.23-1.1-0.61-0.72-0.91-1.63-0.91-2.7 0-1.14 0.27-2.06 0.81-2.76 0.54-0.71 1.25-1.06 2.13-1.06 0.62 0 1.17 0.2 1.66 0.61 0.49 0.39 0.97 1.05 1.46 1.97 0.44-0.9 0.92-1.56 1.44-1.98 0.51-0.43 1.08-0.65 1.72-0.65 0.86 0 1.6 0.37 2.21 1.11 0.62 0.73 0.93 1.64 0.93 2.72 0 1.13-0.27 2.05-0.82 2.75-0.54 0.7-1.25 1.05-2.12 1.05-0.62 0-1.17-0.19-1.65-0.57-0.47-0.38-0.97-1.03-1.49-1.95"/>
  <path id="text1915" d="m160.38 428.36l2.14 11.19 6.46-11.19h-1.64l0.21-1.05h4.28l-0.21 1.05h-1.41l-7.84 13.53h-1.68l-2.55-13.53h-1.45l0.2-1.05h5.32l-0.21 1.05h-1.62m11.87 4.49h12.52v1.56h-12.52v-1.56m0 3.98h12.52v1.56h-12.52v-1.56m23.57-0.4c0.33 0.58 0.7 1.02 1.13 1.31 0.44 0.29 0.93 0.43 1.48 0.43 0.66 0 1.19-0.22 1.61-0.65 0.42-0.45 0.62-1.01 0.62-1.69 0-0.66-0.19-1.21-0.57-1.64-0.39-0.44-0.87-0.66-1.45-0.66-0.52 0-1 0.22-1.43 0.66-0.43 0.43-0.89 1.17-1.39 2.24m-1.19-1.04c-0.32-0.58-0.7-1.01-1.13-1.29-0.43-0.29-0.92-0.43-1.48-0.43-0.66 0-1.19 0.22-1.61 0.65s-0.62 0.99-0.62 1.67c0 0.66 0.19 1.21 0.57 1.64 0.39 0.44 0.87 0.66 1.45 0.66 0.52 0 1-0.22 1.42-0.65 0.43-0.43 0.9-1.18 1.4-2.25m0.69 1.78c-0.46 0.89-0.94 1.54-1.45 1.95-0.5 0.41-1.06 0.61-1.68 0.61-0.88 0-1.63-0.36-2.24-1.09-0.6-0.73-0.91-1.63-0.91-2.71 0-1.14 0.27-2.06 0.81-2.76 0.55-0.7 1.26-1.05 2.13-1.05 0.62 0 1.17 0.2 1.66 0.6s0.98 1.06 1.47 1.97c0.44-0.89 0.92-1.56 1.43-1.98 0.52-0.43 1.09-0.64 1.72-0.64 0.87 0 1.61 0.36 2.22 1.1 0.62 0.74 0.93 1.64 0.93 2.72 0 1.14-0.28 2.06-0.82 2.76s-1.25 1.04-2.12 1.04c-0.62 0-1.17-0.19-1.65-0.56-0.48-0.39-0.98-1.04-1.5-1.96"/>
  <path id="text1919" d="m248.96 428.36l2.14 11.19 6.47-11.19h-1.64l0.2-1.05h4.28l-0.21 1.05h-1.41l-7.83 13.53h-1.68l-2.55-13.53h-1.46l0.21-1.05h5.31l-0.21 1.05h-1.62m11.87 4.49h12.52v1.56h-12.52v-1.56m0 3.98h12.52v1.56h-12.52v-1.56m23.57-0.4c0.33 0.58 0.71 1.02 1.14 1.31s0.92 0.43 1.47 0.43c0.66 0 1.2-0.22 1.61-0.65 0.42-0.45 0.63-1.01 0.63-1.69 0-0.66-0.2-1.21-0.58-1.64-0.38-0.44-0.87-0.66-1.44-0.66-0.53 0-1.01 0.22-1.44 0.66-0.42 0.43-0.89 1.17-1.39 2.24m-1.19-1.04c-0.32-0.58-0.69-1.01-1.13-1.29-0.43-0.29-0.92-0.43-1.48-0.43-0.65 0-1.19 0.22-1.61 0.65-0.41 0.43-0.62 0.99-0.62 1.67 0 0.66 0.19 1.21 0.57 1.64 0.39 0.44 0.87 0.66 1.45 0.66 0.53 0 1-0.22 1.43-0.65s0.89-1.18 1.39-2.25m0.7 1.78c-0.47 0.89-0.95 1.54-1.46 1.95-0.5 0.41-1.06 0.61-1.68 0.61-0.88 0-1.62-0.36-2.24-1.09-0.6-0.73-0.9-1.63-0.9-2.71 0-1.14 0.27-2.06 0.81-2.76s1.25-1.05 2.13-1.05c0.61 0 1.17 0.2 1.66 0.6 0.48 0.4 0.97 1.06 1.46 1.97 0.44-0.89 0.92-1.56 1.44-1.98 0.51-0.43 1.08-0.64 1.71-0.64 0.87 0 1.61 0.36 2.22 1.1 0.62 0.74 0.93 1.64 0.93 2.72 0 1.14-0.27 2.06-0.82 2.76-0.54 0.7-1.25 1.04-2.12 1.04-0.62 0-1.17-0.19-1.65-0.56-0.48-0.39-0.97-1.04-1.49-1.96"/>
  <path id="text2808" d="m349.49 640.11h-1.22l4.58-4.98-2.3-4.36h-1.28l0.19-1.04h2.64l2.16 4.04 3.72-4.04h1.22l-4.49 4.88 2.37 4.46h1.36l-0.2 1.04h-2.72l-2.21-4.14-3.82 4.14"/>
 </g>
 <metadata>
  <rdf:RDF>
   <cc:Work>
    <dc:format>image/svg+xml</dc:format>
    <dc:type rdf:resource="http://purl.org/dc/dcmitype/StillImage"/>
    <cc:license rdf:resource="http://creativecommons.org/licenses/publicdomain/"/>
    <dc:publisher>
     <cc:Agent rdf:about="http://openclipart.org/">
      <dc:title>Openclipart</dc:title>
     </cc:Agent>
    </dc:publisher>
   </cc:Work>
   <cc:License rdf:about="http://creativecommons.org/licenses/publicdomain/">
    <cc:permits rdf:resource="http://creativecommons.org/ns#Reproduction"/>
    <cc:permits rdf:resource="http://creativecommons.org/ns#Distribution"/>
    <cc:permits rdf:resource="http://creativecommons.org/ns#DerivativeWorks"/>
   </cc:License>
  </rdf:RDF>
 </metadata>
</svg>
