<?xml version="1.0"?>
<svg xmlns:rdf="http://www.w3.org/1999/02/22-rdf-syntax-ns#" xmlns="http://www.w3.org/2000/svg" xmlns:cc="http://web.resource.org/cc/" xmlns:dc="http://purl.org/dc/elements/1.1/" id="svg2" height="620" width="700" version="1.0">
 <g id="layer1" transform="translate(-449.65 -489.74)">
  <path id="path8484" d="m687.42 881.13l2.05 2.66h173.79l-0.3-2.28-175.54-0.38z" fill-rule="evenodd"/>
  <path id="path7505" d="m685.9 880.18h-2.44l0.13-314.16 2.31-0.14v314.3z" fill-rule="evenodd"/>
  <path id="path7501" d="m860.16 875.04l2.33 2.71 0.05-311.05-2.57 0.15 0.19 308.19z" fill-rule="evenodd"/>
  <path id="path7511" d="m954.41 725.55l3.47 0.03-95.09-159-2.16 1.42 93.78 157.55z" fill-rule="evenodd"/>
  <path id="path7509" d="m541.16 857.04l1.4 2.17 550.34-317.74-1.4-2.15-550.34 317.72z" fill-rule="evenodd"/>
  <path id="path7499" d="m773.44 1073.1l2.57-0.1 0.18-508.9-2.84-0.28 0.09 509.28z" fill-rule="evenodd"/>
  <path id="path7513" d="m857.55 882.16l3.15 0.25-173.99-316.79-2.15 1.42 172.99 315.12z" fill-rule="evenodd"/>
  <path id="path4590" d="m480.49 725.21l0.12 2.58h635.49l-0.2-2.58h-635.41z" fill-rule="evenodd"/>
  <path id="path7503" d="m1038.8 726.27l2.4 0.35 0.1-161.85-2.6 0.15 0.1 161.35z" fill-rule="evenodd"/>
  <path id="path7507" d="m500.03 725.7l2.62 0.16 0.07-161.8-2.57 0.15-0.12 161.49z" fill-rule="evenodd"/>
  <path id="path2269" d="m493.94 562.38l280.94 477.12 275.92-477.08-556.86-0.04zm539.56 8.97l-258.62 452.45-264.32-452.46 522.94 0.01z" fill-rule="evenodd"/>
  <path id="path3448" d="m1067.4 528.62c1.5-2.81 4.3-8.04 6.3-11.61 1.9-3.57 3.8-6.55 4.1-6.63 0.5-0.1 2.8 3.72 6.8 11.28 3.4 6.29 6.1 11.57 6.1 11.75s-5.8 0.33-13 0.33h-13l2.7-5.12zm15.5-3.74c-4.6-8.87-5.9-11.11-6.2-11.1-0.1 0.01-2.3 3.94-4.8 8.74l-4.6 8.72h9.5 9.5l-3.4-6.36z" stroke="#000" stroke-width=".5"/>
  <path id="path3450" d="m618.99 940.08c0-2.83 0.81-3.85 1.09-1.38l0.16 1.37 8.89 0.13 8.89 0.14 0.3-1.51c0.5-2.48 1.25-1.71 1.08 1.11l-0.15 2.62-10.13 0.14-10.13 0.14v-2.76zm3.5-9c0-1.51 0.23-2.74 0.5-2.74 0.28 0 0.5 0.33 0.5 0.74 0 0.63 0.97 0.75 5.76 0.75 4.78 0 5.75-0.12 5.75-0.75 0-0.41 0.22-0.74 0.5-0.74 0.27 0 0.5 1.23 0.5 2.74s-0.23 2.75-0.5 2.75c-0.28 0-0.5-0.34-0.5-0.75 0-0.62-0.97-0.75-5.75-0.75-4.79 0-5.76 0.13-5.76 0.75 0 0.41-0.22 0.75-0.5 0.75-0.27 0-0.5-1.24-0.5-2.75zm-3.32-6.36c0.17-0.62 0.31-1.86 0.31-2.75l0.01-1.62h9.69 9.69l0.26 2.62c0.15 1.44 0.19 2.7 0.1 2.79-0.44 0.48-1.23-0.62-1.23-1.7v-1.22h-8.69-8.69l-0.31 1.5c-0.16 0.83-0.55 1.5-0.87 1.5-0.34 0-0.45-0.44-0.27-1.12z" stroke="#000" stroke-width=".5"/>
  <path id="path3642" d="m5001.9 581.77a67.437 67.437 0 1 1 -134.9 0 67.437 67.437 0 1 1 134.9 0z" transform="matrix(.55033 0 0 .54921 -2118.7 406.92)" fill="#ff81b3"/>
  <path id="path3720" d="m5001.9 581.77a67.437 67.437 0 1 1 -134.9 0 67.437 67.437 0 1 1 134.9 0z" transform="matrix(.55033 0 0 .54921 -2211.8 251.75)" stroke-width="0" fill="#fd81b3"/>
  <path id="path3476" d="m769.93 1071.7c9.76 0 9.91-0.5 9.76 0l-4.76 15.3-5-15.3z" fill-rule="evenodd" stroke="#000" stroke-width=".5px"/>
  <path id="path3478" d="m1092 546.19c-4.9-8.46-5.4-8.35-4.9-8.46l15.7-3.52-10.8 11.98z" fill-rule="evenodd" stroke="#000" stroke-width=".5px"/>
  <path id="path3482" d="m740.75 1098.4c-0.01-0.4-0.79-5.7-1.27-8.5-0.4-2.4 0.8-2.1 1.97 0.4 2.79 6.1 8.58 8.7 12.85 5.8 1.87-1.3 2.83-3.8 2.27-6-0.44-1.8-3.37-4.5-6.79-6.5-8.41-4.7-10.61-8.6-8.08-14.2 1.85-4 6.15-5.4 12.09-3.9 3.37 0.9 3.6 0.9 4.19 0.1 1.2-1.6 1.65-0.9 1.99 3.5 0.19 2.4 0.46 4.8 0.6 5.3 0.49 1.7-1.24 0.8-1.82-0.9-1.36-4.1-5.54-7.1-9.44-6.6-4 0.4-5.68 3.7-3.62 7.1 0.9 1.5 2.49 2.6 8.74 6.3 7.24 4.2 9.3 10.1 5.18 14.8-3.14 3.5-6.98 4.4-13.46 2.8-3.29-0.8-3.53-0.8-3.98 0-0.47 0.8-1.42 1.2-1.42 0.5z" stroke="#000" stroke-width=".5"/>
  <path id="path3484" d="m1114.6 588.32c-1.4-0.42-4.6-0.8-7-0.86-5.4-0.11-8.3-1.28-11.9-4.85-5.6-5.63-7.3-13.76-4.1-20.29 3.7-7.63 13.8-11.2 21.3-7.52 10 4.89 13.6 18.87 6.9 26.46l-2 2.27 2.9 0.81c4.4 1.23 7.6 0.98 12.2-0.93 0.5-0.21 0.9-0.14 0.9 0.18 0 0.78-7.8 4.38-10.9 5.02-3.4 0.71-5.3 0.64-8.3-0.29zm-0.2-4.79c5.1-2.88 5.9-8.86 2.2-16.71-2.8-5.79-7.2-9.92-11.6-10.89-3.5-0.75-8.5 2.04-10 5.57-1.9 4.48 0.2 11.93 5.1 18 4.4 5.37 9.4 6.79 14.3 4.03z" stroke="#000" stroke-width=".5"/>
  <path id="path3486" d="m1071.1 776.64c0-0.24 0.9-0.58 2-0.75 1.2-0.2 2.2-0.69 2.5-1.28 0.7-1.3 0.7-26.76 0-28.06-0.3-0.59-1.3-1.09-2.5-1.28-4.1-0.66-1.8-1.19 5.2-1.19s9.3 0.51 5.5 1.21c-0.9 0.18-1.9 0.76-2.2 1.28-0.7 1.26-0.7 26.75 0 28.02 0.3 0.52 1.3 1.09 2.2 1.27 3.8 0.7 1.5 1.22-5.5 1.22-3.9 0-7.2-0.2-7.2-0.44z" stroke="#000" stroke-width=".5"/>
  <path id="path3488" d="m1113.3 731.32c0-9.77-0.4-9.92 0-9.77l15.4 4.77-15.4 5z" fill-rule="evenodd" stroke="#000" stroke-width=".5px"/>
  <path id="path3492" d="m842.48 1009.9c0-0.7 1.3-0.8 8.75-0.8 7.44 0 8.75 0.1 8.75 0.8 0 0.6-1.31 0.7-8.75 0.7-7.45 0-8.75-0.1-8.75-0.7z" stroke="#000" stroke-width=".5"/>
  <path id="path3494" d="m886 939.98c0-2.83 0.8-3.85 1.09-1.38l0.16 1.37 8.88 0.14 8.89 0.14 0.3-1.52c0.49-2.48 1.24-1.71 1.08 1.12l-0.15 2.62-10.13 0.14-10.12 0.13v-2.76zm3.5-9.01c0-1.51 0.22-2.75 0.5-2.75 0.27 0 0.5 0.34 0.5 0.75 0 0.63 0.97 0.75 5.75 0.75 4.77 0 5.75-0.12 5.75-0.75 0-0.41 0.22-0.75 0.5-0.75 0.27 0 0.5 1.24 0.5 2.75 0 1.52-0.23 2.75-0.5 2.75-0.28 0-0.5-0.33-0.5-0.75 0-0.62-0.98-0.75-5.75-0.75-4.78 0-5.75 0.13-5.75 0.75 0 0.42-0.23 0.75-0.5 0.75-0.28 0-0.5-1.23-0.5-2.75zm-3.32-6.37c0.17-0.62 0.3-1.86 0.31-2.75l0.01-1.63h9.68 9.69l0.26 2.63c0.14 1.44 0.18 2.7 0.09 2.8-0.43 0.47-1.22-0.63-1.22-1.71v-1.22h-8.69-8.69l-0.3 1.5c-0.16 0.83-0.56 1.5-0.87 1.5-0.35 0-0.45-0.44-0.27-1.12z" stroke="#000" stroke-width=".5"/>
  <path id="path3498" d="m914.34 931.51c-0.18-0.18-0.19-1.23-0.02-2.32l0.32-1.99-2.28 1.34c-1.54 0.9-2.39 1.15-2.62 0.78-0.46-0.74-0.05-1.09 2.39-2.04l2.06-0.81-1.97-0.63c-2.36-0.75-2.96-1.23-2.49-1.99 0.24-0.39 1.05-0.15 2.6 0.75l2.24 1.32-0.16-2.17c-0.13-1.66 0.01-2.17 0.57-2.17 0.57 0 0.71 0.52 0.59 2.16l-0.16 2.15 2.03-1.28c2.38-1.5 2.55-1.53 2.55-0.49 0 0.46-0.85 1.13-2.06 1.6l-2.07 0.81 2.07 0.88c1.15 0.49 2.06 1.22 2.06 1.65 0 1.02-0.17 0.99-2.55-0.51l-2.03-1.28 0.16 2.12c0.14 1.96-0.42 2.93-1.23 2.12z" stroke="#000" stroke-width=".5"/>
  <path id="path3500" d="m648.84 930.79c-0.18-0.18-0.19-1.23-0.02-2.32l0.32-1.99-2.28 1.34c-1.54 0.9-2.39 1.15-2.62 0.78-0.46-0.74-0.05-1.09 2.39-2.04l2.06-0.81-1.98-0.63c-2.35-0.76-2.95-1.23-2.48-1.99 0.24-0.39 1.05-0.16 2.59 0.75l2.25 1.32-0.16-2.17c-0.13-1.66 0.01-2.17 0.57-2.17 0.57 0 0.71 0.51 0.59 2.16l-0.16 2.15 2.03-1.28c2.38-1.5 2.55-1.53 2.55-0.49 0 0.46-0.86 1.13-2.06 1.6l-2.07 0.81 2.07 0.88c1.14 0.49 2.06 1.22 2.06 1.65 0 1.02-0.17 0.99-2.55-0.51l-2.03-1.28 0.15 2.11c0.15 1.97-0.41 2.94-1.22 2.13z" stroke="#000" stroke-width=".5"/>
  <path id="path3502" d="m989.14 770.83c0-0.23 0.81-1.18 1.79-2.13 0.99-0.95 2.92-3.01 4.3-4.59l2.5-2.87-4.08-5.56c-2.24-3.05-4.2-5.87-4.35-6.25-0.22-0.59 1.41-0.7 9.98-0.7h10.22l0.3 1.62c0.8 4.7 0.9 5.88 0.5 5.88-0.2 0-0.8-1.07-1.3-2.38-1.2-3.47-2-3.82-9.54-4.04l-6.44-0.19 2.89 3.93c1.59 2.16 3.31 4.47 3.83 5.14l0.96 1.22-2.42 2.53c-1.32 1.4-3.41 3.62-4.64 4.95l-2.25 2.42 7.34-0.17c6.97-0.15 7.37-0.22 8.67-1.38 0.7-0.67 1.5-2.08 1.8-3.13 0.8-2.45 1.6-2.47 1.3-0.03-0.2 1.03-0.5 2.83-0.6 4l-0.3 2.13h-10.25c-5.62 0-10.21-0.18-10.21-0.4z" stroke="#000" stroke-width=".5"/>
  <path id="path3504" d="m806.37 770.83c0-0.23 0.81-1.18 1.8-2.13 0.98-0.95 2.92-3.01 4.29-4.59l2.5-2.87-4.08-5.56c-2.24-3.05-4.2-5.87-4.35-6.25-0.22-0.59 1.41-0.7 9.98-0.7h10.25l0.27 1.62c0.79 4.7 0.89 5.88 0.5 5.88-0.23 0-0.81-1.07-1.27-2.38-1.24-3.47-2.07-3.82-9.57-4.04l-6.44-0.19 2.89 3.93c1.59 2.16 3.31 4.47 3.83 5.14l0.94 1.22-2.4 2.53c-1.32 1.4-3.41 3.62-4.64 4.95l-2.25 2.42 7.34-0.17c6.97-0.15 7.4-0.22 8.63-1.38 0.71-0.67 1.55-2.08 1.87-3.13 0.73-2.45 1.58-2.47 1.23-0.03-0.15 1.03-0.42 2.83-0.59 4l-0.32 2.13h-10.2c-5.62 0-10.21-0.18-10.21-0.4z" stroke="#000" stroke-width=".5"/>
  <path id="path3506" d="m510.39 770.83c0-0.23 0.81-1.18 1.8-2.13s2.92-3.01 4.29-4.59l2.51-2.87-4.09-5.56c-2.24-3.05-4.2-5.87-4.34-6.25-0.23-0.59 1.4-0.7 9.98-0.7h10.24l0.28 1.62c0.78 4.7 0.88 5.88 0.5 5.88-0.24 0-0.81-1.07-1.28-2.38-1.24-3.47-2.07-3.82-9.57-4.04l-6.43-0.19 2.89 3.93c1.58 2.16 3.31 4.47 3.82 5.14l0.94 1.22-2.4 2.53c-1.31 1.4-3.4 3.62-4.64 4.95l-2.25 2.42 7.34-0.17c6.98-0.15 7.4-0.22 8.63-1.38 0.72-0.67 1.56-2.08 1.87-3.13 0.74-2.45 1.58-2.47 1.23-0.03-0.15 1.03-0.42 2.83-0.59 4l-0.31 2.13h-10.21c-5.61 0-10.21-0.18-10.21-0.4z" stroke="#000" stroke-width=".5"/>
  <path id="path3510" d="m648.6 528.65c1.51-2.82 4.3-8.05 6.22-11.62 1.91-3.58 3.8-6.57 4.18-6.65 0.47-0.1 2.77 3.73 6.8 11.3 3.34 6.29 6.08 11.59 6.08 11.77s-5.85 0.33-13.01 0.33h-13.01l2.74-5.13zm15.5-3.75c-4.68-8.88-5.93-11.12-6.22-11.11-0.14 0-2.3 3.94-4.81 8.75l-4.55 8.74h9.46 9.47l-3.35-6.38z" stroke="#000" stroke-width=".5"/>
  <path id="path3512" d="m470.62 528.65c1.51-2.82 4.31-8.05 6.22-11.62 1.92-3.58 3.8-6.57 4.19-6.65 0.47-0.1 2.77 3.73 6.79 11.3 3.35 6.29 6.08 11.59 6.08 11.77s-5.85 0.33-13.01 0.33h-13l2.73-5.13zm15.5-3.75c-4.67-8.88-5.93-11.12-6.22-11.11-0.13 0-2.3 3.94-4.8 8.75l-4.56 8.74h9.47 9.47l-3.36-6.38z" stroke="#000" stroke-width=".5"/>
  <path id="path3514" d="m657.31 926.57c0-0.64 1.31-0.75 8.75-0.75 7.45 0 8.75 0.11 8.75 0.75 0 0.63-1.3 0.75-8.75 0.75-7.44 0-8.75-0.12-8.75-0.75z" stroke="#000" stroke-width=".5"/>
  <path id="path3516" d="m539.83 757.61c-0.19-0.18-0.19-1.23-0.02-2.32l0.32-1.99-2.28 1.34c-1.54 0.9-2.4 1.15-2.63 0.78-0.45-0.74-0.05-1.09 2.4-2.05l2.05-0.8-1.97-0.63c-2.36-0.76-2.95-1.23-2.48-1.99 0.24-0.39 1.04-0.16 2.59 0.75l2.25 1.32-0.17-2.17c-0.12-1.66 0.02-2.17 0.58-2.17s0.7 0.51 0.58 2.15l-0.15 2.16 2.03-1.28c2.38-1.5 2.55-1.54 2.55-0.49 0 0.46-0.86 1.13-2.07 1.6l-2.06 0.81 2.06 0.88c1.15 0.49 2.07 1.22 2.07 1.65 0 1.02-0.18 0.98-2.55-0.51l-2.03-1.29 0.15 2.12c0.14 1.96-0.42 2.94-1.22 2.13z" stroke="#000" stroke-width=".5"/>
  <path id="path3518" d="m835.21 758.81c-0.19-0.19-0.2-1.23-0.02-2.33l0.32-1.98-2.29 1.33c-1.54 0.91-2.39 1.16-2.62 0.79-0.46-0.74-0.05-1.09 2.4-2.05l2.05-0.8-1.97-0.63c-2.36-0.76-2.95-1.23-2.49-1.99 0.24-0.39 1.05-0.16 2.6 0.75l2.24 1.31-0.16-2.16c-0.12-1.66 0.01-2.17 0.58-2.17 0.56 0 0.7 0.51 0.58 2.15l-0.15 2.16 2.03-1.28c2.38-1.5 2.55-1.54 2.55-0.49 0 0.46-0.86 1.12-2.07 1.6l-2.07 0.81 2.07 0.88c1.15 0.49 2.07 1.22 2.07 1.65 0 1.02-0.18 0.98-2.55-0.52l-2.03-1.28 0.15 2.12c0.14 1.96-0.42 2.93-1.22 2.13z" stroke="#000" stroke-width=".5"/>
  <path id="path3520" d="m1018 758.81c-0.2-0.19-0.2-1.23 0-2.33l0.3-1.98-2.3 1.33c-1.5 0.91-2.4 1.16-2.6 0.79-0.5-0.74-0.1-1.09 2.4-2.05l2-0.8-2-0.63c-2.3-0.76-2.9-1.23-2.4-1.99 0.2-0.39 1-0.16 2.6 0.75l2.2 1.31-0.2-2.16c-0.1-1.66 0.1-2.17 0.6-2.17 0.6 0 0.7 0.51 0.6 2.15l-0.2 2.16 2.1-1.28c2.4-1.5 2.5-1.54 2.5-0.49 0 0.46-0.8 1.12-2 1.6l-2.1 0.81 2.1 0.88c1.1 0.49 2 1.22 2 1.65 0 1.02-0.2 0.98-2.5-0.52l-2.1-1.28 0.2 2.12c0.1 1.96-0.4 2.93-1.2 2.13z" stroke="#000" stroke-width=".5"/>
  <path id="path3522" d="m546.5 753.39c0-0.64 1.31-0.75 8.75-0.75 7.45 0 8.75 0.11 8.75 0.75 0 0.63-1.3 0.75-8.75 0.75-7.44 0-8.75-0.12-8.75-0.75z" stroke="#000" stroke-width=".5"/>
  <path id="path3524" d="m491.92 515.49c0-0.64 1.31-0.75 8.75-0.75s8.75 0.11 8.75 0.75c0 0.63-1.31 0.75-8.75 0.75s-8.75-0.12-8.75-0.75z" stroke="#000" stroke-width=".5"/>
  <path id="path3526" d="m922.85 931.08c-1.11-0.94-1.67-2.52-1.67-4.74 0-3.44 1.51-5.57 3.93-5.57 2.43 0 3.94 2.13 3.94 5.57 0 2.22-0.56 3.8-1.67 4.74-1.36 1.14-3.17 1.14-4.53 0zm3.9-0.46c0.9-0.91 1.07-1.86 0.94-5.12-0.1-2.5-0.2-2.9-0.89-3.45-0.99-0.8-2.38-0.8-3.37 0-0.69 0.55-0.79 0.95-0.89 3.45-0.07 1.55-0.02 3.19 0.09 3.65 0.3 1.21 1.37 2.11 2.48 2.11 0.55 0 1.28-0.29 1.64-0.64z" stroke="#000" stroke-width=".5"/>
  <path id="path3528" d="m844.97 759.68c-1.12-0.94-1.67-2.52-1.67-4.73 0-3.45 1.5-5.58 3.93-5.58s3.93 2.13 3.93 5.58c0 2.21-0.56 3.79-1.67 4.73-1.36 1.14-3.17 1.14-4.52 0zm3.89-0.46c0.9-0.9 1.08-1.86 0.95-5.12-0.11-2.49-0.21-2.89-0.89-3.45-0.99-0.8-2.39-0.8-3.38 0-0.68 0.56-0.78 0.96-0.89 3.45-0.06 1.56-0.02 3.2 0.09 3.65 0.31 1.21 1.37 2.12 2.49 2.12 0.54 0 1.27-0.29 1.63-0.65z" stroke="#000" stroke-width=".5"/>
  <path id="path3530" d="m674.18 519.31c-1.12-0.94-1.68-2.52-1.68-4.74 0-3.44 1.51-5.58 3.94-5.58s3.93 2.14 3.93 5.58c0 2.22-0.56 3.8-1.67 4.74-1.36 1.14-3.17 1.14-4.52 0zm3.89-0.47c0.9-0.9 1.08-1.86 0.94-5.11-0.1-2.5-0.2-2.9-0.89-3.45-0.99-0.8-2.38-0.8-3.37 0-0.68 0.55-0.79 0.95-0.89 3.45-0.06 1.55-0.02 3.19 0.09 3.64 0.31 1.22 1.37 2.12 2.49 2.12 0.54 0 1.27-0.29 1.63-0.65z" stroke="#000" stroke-width=".5"/>
  <path id="path3532" d="m1032.3 756.8v-3.28h-3.3c-1.9 0-3.3-0.15-3.3-0.36 0-0.22 1.4-0.37 3.3-0.37h3.3v-3.46c0-2.83 0.1-3.46 0.5-3.46 0.5 0 0.6 0.63 0.6 3.46v3.46h3.1c1.8 0 3.1 0.15 3.1 0.37 0 0.21-1.3 0.36-3.1 0.36h-3.1v3.28c0 2.68-0.1 3.28-0.6 3.28-0.4 0-0.5-0.6-0.5-3.28z" stroke="#000" stroke-width=".5"/>
  <path id="path3534" d="m1095.1 518.01v-3.28h-3.2c-2 0-3.3-0.15-3.3-0.36 0-0.22 1.3-0.37 3.3-0.37h3.2v-3.46c0-2.84 0.1-3.46 0.6-3.46 0.4 0 0.5 0.62 0.5 3.46v3.46h3.1c1.9 0 3.1 0.15 3.1 0.37 0 0.21-1.2 0.36-3.1 0.36h-3.1v3.28c0 2.67-0.1 3.28-0.5 3.28-0.5 0-0.6-0.61-0.6-3.28z" stroke="#000" stroke-width=".5"/>
  <path id="path3536" d="m1112.9 518.01v-3.28h-3.2c-2 0-3.3-0.15-3.3-0.36 0-0.22 1.3-0.37 3.3-0.37h3.2v-3.46c0-2.84 0.1-3.46 0.6-3.46 0.4 0 0.5 0.62 0.5 3.46v3.46h3.1c1.9 0 3.1 0.15 3.1 0.37 0 0.21-1.2 0.36-3.1 0.36h-3.1v3.28c0 2.67-0.1 3.28-0.5 3.28-0.5 0-0.6-0.61-0.6-3.28z" stroke="#000" stroke-width=".5"/>
  <path id="path3538" d="m516.97 721.42c-0.48-0.58-0.5-0.91-0.06-1.35 0.43-0.43 0.94-0.3 2.05 0.52 1.91 1.41 2.79 1.39 4.3-0.13 2.39-2.39 0.73-6.77-2.57-6.77h-1.35l1.69-1.14c2.82-1.9 3.18-4.57 0.83-6.06-1.17-0.73-3.46 0.19-4.23 1.71-0.59 1.18-0.63 1.18-0.64 0.16-0.01-1.43 2.71-3.67 4.47-3.67 1.93 0 4.03 1.76 4.03 3.38 0 0.72-0.46 1.8-1.03 2.4l-1.03 1.09 1.53 1.53c2.63 2.62 1.72 6.44-1.99 8.36-1.89 0.98-5.18 0.96-6-0.03zm11.03 0.4c0-0.21 1.22-4.09 2.7-8.63 1.85-5.68 2.94-8.3 3.49-8.41 0.44-0.09 0.8-0.01 0.8 0.17s-1.25 4.14-2.78 8.79c-1.89 5.74-3.01 8.45-3.5 8.45-0.4 0-0.72-0.17-0.71-0.37zm10.65-3.57c4.71-4.88 5.99-8.41 3.84-10.56-1.56-1.55-3.7-1.29-5.21 0.63-1.39 1.76-1.72 1.16-0.58-1.06 1.46-2.81 5.07-3.36 7.33-1.11 2.52 2.53 1.96 4.77-2.54 9.99l-3.05 3.55h3.36c2.44 0 3.61-0.23 4.29-0.84 0.89-0.81 0.9-0.78 0.2 0.88l-0.72 1.71-5.14 0.14-5.14 0.15 3.36-3.48zm-30.66-2.31c0-0.58 0.66-0.75 3-0.75 2.33 0 3 0.17 3 0.75s-0.67 0.75-3 0.75c-2.34 0-3-0.17-3-0.75z" stroke="#000" stroke-width=".5"/>
  <path id="path3540" d="m597.45 684.62l1.38-0.5v-6.62c0-3.65-0.15-6.77-0.32-6.94-0.17-0.18-0.74-0.09-1.25 0.18-0.51 0.28-0.93 0.31-0.93 0.08s1-0.91 2.23-1.5l2.24-1.09 0.14 8.09 0.14 8.09 1.25 0.35c0.76 0.21-0.22 0.35-2.5 0.36-3.09 0-3.51-0.08-2.38-0.5zm-11.62-5.17c0-0.58 0.66-0.75 3-0.75 2.33 0 3 0.17 3 0.75 0 0.59-0.67 0.75-3 0.75-2.34 0-3-0.16-3-0.75z" stroke="#000" stroke-width=".5"/>
  <path id="path3542" d="m622.34 806.08l0.94-1.13-3.31-5.73c-1.82-3.16-3.51-5.79-3.75-5.86-0.23-0.06-0.68 0.29-0.99 0.79-0.3 0.49-0.65 0.73-0.76 0.54-0.12-0.2 0.41-1.29 1.18-2.43l1.4-2.06 4.16 6.94 4.16 6.94 1.26-0.33c0.76-0.19-0.01 0.42-1.99 1.56-2.66 1.55-3.07 1.69-2.3 0.77zm-12.65 1.33c-0.29-0.5 0.2-0.98 2.22-2.15 2.02-1.16 2.68-1.35 2.98-0.85 0.29 0.51-0.21 0.98-2.23 2.15s-2.68 1.36-2.97 0.85z" stroke="#000" stroke-width=".5"/>
  <path id="path3544" d="m709.86 721.41c0-0.21 1.22-4.09 2.7-8.63 1.85-5.68 2.94-8.3 3.49-8.41 0.44-0.09 0.8-0.01 0.8 0.17 0 0.19-1.25 4.14-2.78 8.79-1.89 5.74-3.01 8.45-3.5 8.45-0.4 0-0.72-0.17-0.71-0.37zm-8.39-0.71l1.38-0.5v-6.63c0-3.64-0.14-6.76-0.32-6.94-0.17-0.17-0.73-0.09-1.25 0.19-0.51 0.27-0.93 0.31-0.93 0.08s1.01-0.91 2.24-1.5l2.24-1.09 0.13 8.09 0.14 8.09 1.25 0.35c0.76 0.21-0.22 0.35-2.5 0.35-3.08 0.01-3.51-0.08-2.38-0.49zm19.04-2.86c4.71-4.88 5.99-8.4 3.84-10.56-1.55-1.55-3.69-1.29-5.21 0.63-1.39 1.76-1.72 1.16-0.58-1.05 1.46-2.82 5.07-3.37 7.33-1.12 2.53 2.53 1.96 4.78-2.53 9.99l-3.06 3.55h3.36c2.45 0 3.61-0.23 4.29-0.84 0.9-0.81 0.9-0.78 0.21 0.88l-0.72 1.71-5.15 0.15-5.14 0.14 3.36-3.48zm-30.66-2.31c0-0.58 0.67-0.75 3-0.75s3 0.17 3 0.75c0 0.59-0.67 0.75-3 0.75s-3-0.16-3-0.75z" stroke="#000" stroke-width=".5"/>
  <path id="path3546" d="m759.44 781.49l1.37-0.51v-6.62c0-3.65-0.14-6.77-0.31-6.94-0.18-0.18-0.74-0.09-1.25 0.18-0.52 0.28-0.94 0.31-0.94 0.08s1.01-0.9 2.24-1.5l2.24-1.09 0.13 8.09 0.14 8.09 1.25 0.35c0.76 0.21-0.22 0.35-2.5 0.36-3.08 0.01-3.5-0.08-2.37-0.49z" stroke="#000" stroke-width=".5"/>
  <path id="path3548" d="m948.41 687.39l1.38-0.5v-6.63c0-3.64-0.14-6.76-0.32-6.94-0.17-0.17-0.73-0.09-1.25 0.19-0.51 0.27-0.93 0.31-0.93 0.08s1.01-0.91 2.24-1.51l2.23-1.08 0.14 8.09 0.14 8.09 1.25 0.35c0.76 0.21-0.22 0.35-2.5 0.35-3.08 0.01-3.51-0.08-2.38-0.49z" stroke="#000" stroke-width=".5"/>
  <path id="path3550" d="m875.8 721.01c0-0.2 1.22-4.08 2.7-8.62 1.85-5.69 2.94-8.3 3.49-8.41 0.44-0.09 0.8-0.02 0.8 0.17 0 0.18-1.25 4.13-2.78 8.78-1.89 5.74-3.01 8.46-3.5 8.46-0.4 0-0.72-0.17-0.71-0.38zm-8.39-0.7l1.38-0.51v-6.62c0-3.64-0.14-6.77-0.32-6.94-0.17-0.18-0.73-0.09-1.25 0.18-0.51 0.28-0.93 0.31-0.93 0.08 0-0.22 1-0.9 2.24-1.5l2.23-1.09 0.14 8.09 0.14 8.09 1.25 0.35c0.76 0.21-0.22 0.35-2.5 0.36-3.09 0.01-3.51-0.08-2.38-0.49zm19.04-2.86c4.71-4.89 5.99-8.41 3.84-10.56-1.56-1.55-3.7-1.3-5.21 0.62-1.39 1.77-1.72 1.16-0.58-1.05 1.46-2.82 5.07-3.36 7.33-1.11 2.52 2.53 1.96 4.77-2.53 9.99l-3.06 3.55h3.36c2.44 0 3.61-0.23 4.29-0.84 0.89-0.81 0.9-0.79 0.2 0.87l-0.71 1.72-5.15 0.14-5.14 0.14 3.36-3.47z" stroke="#000" stroke-width=".5"/>
  <path id="path3552" d="m760.11 901.74c4.71-4.88 5.99-8.4 3.84-10.56-1.55-1.55-3.7-1.29-5.21 0.63-1.39 1.76-1.72 1.16-0.58-1.05 1.46-2.82 5.07-3.37 7.33-1.11 2.53 2.52 1.96 4.77-2.53 9.99l-3.06 3.54h3.36c2.45 0 3.61-0.22 4.29-0.83 0.9-0.82 0.9-0.79 0.21 0.87l-0.72 1.71-5.15 0.15-5.14 0.14 3.36-3.48z" stroke="#000" stroke-width=".5"/>
  <path id="path3554" d="m719.59 1043.6c-0.58-0.5-0.59-0.9-0.07-1.3s1.13-0.3 2.47 0.5c2.28 1.4 3.34 1.4 5.15-0.1 2.88-2.4 0.88-6.8-3.09-6.8h-1.61l2.03-1.1c3.38-1.9 3.82-4.6 0.99-6.1-1.4-0.7-4.15 0.2-5.07 1.7-0.72 1.2-0.76 1.2-0.77 0.2-0.01-1.5 3.26-3.7 5.36-3.7 2.32 0 4.84 1.8 4.84 3.4 0 0.7-0.56 1.8-1.23 2.4l-1.24 1.1 1.84 1.5c3.15 2.6 2.06 6.5-2.4 8.4-2.26 0.9-6.21 0.9-7.2-0.1z" stroke="#000" stroke-width=".5"/>
  <path id="path3556" d="m1046.4 720.63c-0.5-0.58-0.5-0.91-0.1-1.35 0.5-0.43 1-0.3 2.1 0.52 1.9 1.41 2.8 1.39 4.3-0.13 2.4-2.39 0.7-6.77-2.6-6.77h-1.3l1.7-1.14c2.8-1.9 3.1-4.57 0.8-6.06-1.2-0.73-3.5 0.19-4.2 1.71-0.6 1.17-0.7 1.18-0.7 0.16 0-1.44 2.7-3.67 4.5-3.67 1.9 0 4 1.76 4 3.38 0 0.72-0.5 1.8-1 2.4l-1 1.09 1.5 1.53c2.6 2.62 1.7 6.44-2 8.36-1.9 0.97-5.2 0.96-6-0.03zm11 0.4c0-0.21 1.2-4.09 2.7-8.63 1.9-5.68 3-8.3 3.5-8.41 0.5-0.09 0.8-0.01 0.8 0.17s-1.2 4.14-2.8 8.79c-1.9 5.74-3 8.45-3.5 8.45-0.4 0-0.7-0.17-0.7-0.37zm10.7-3.57c4.7-4.88 6-8.41 3.8-10.56-1.5-1.55-3.7-1.3-5.2 0.63-1.4 1.76-1.7 1.16-0.6-1.06 1.5-2.81 5.1-3.36 7.3-1.11 2.6 2.53 2 4.77-2.5 9.99l-3 3.55h3.3c2.5 0 3.6-0.23 4.3-0.84 0.9-0.81 0.9-0.78 0.2 0.88l-0.7 1.71-5.1 0.14-5.2 0.15 3.4-3.48z" stroke="#000" stroke-width=".5"/>
  <path id="path3592" d="m793.18 687.29c-2.01-0.94-3.45-3.04-4.33-6.31-1.35-5.07 0.02-8.8 3.6-9.76 3.57-0.96 6.63 1.59 7.99 6.66 0.87 3.26 0.67 5.81-0.6 7.63-1.54 2.21-4.21 2.93-6.66 1.78zm5.55-2.21c0.97-1.69 0.86-3.17-0.62-7.91-1.14-3.63-1.45-4.18-2.68-4.73-1.77-0.79-3.82-0.24-4.96 1.33-0.79 1.09-0.78 1.72 0.05 5.44 0.52 2.31 1.23 4.71 1.57 5.33 0.93 1.66 2.85 2.58 4.5 2.13 0.79-0.21 1.76-0.93 2.14-1.59z" stroke="#000" stroke-width=".5"/>
  <path id="path3594" d="m911.54 641.07l0.94-1.12-3.31-5.74c-1.82-3.15-3.51-5.79-3.75-5.85-0.23-0.07-0.68 0.29-0.99 0.78-0.3 0.5-0.65 0.74-0.76 0.54-0.12-0.2 0.41-1.29 1.18-2.42l1.4-2.06 4.16 6.94 4.16 6.93 1.26-0.32c0.77-0.2-0.01 0.41-1.99 1.56-2.66 1.55-3.07 1.68-2.3 0.76z" stroke="#000" stroke-width=".5"/>
  <path id="path3596" d="m1018.8 531.97c1.7-6.58 1-10.27-1.9-11.06-2.1-0.57-3.9 0.72-4.2 3.14-0.3 2.23-0.9 1.87-1-0.62-0.2-3.17 2.7-5.45 5.8-4.62 3.4 0.92 4 3.15 2.8 9.91l-0.9 4.6 2.9-1.68c2.1-1.22 3-2 3.3-2.87 0.4-1.15 0.4-1.13 0.6 0.66l0.2 1.84-4.3 2.7-4.4 2.69 1.1-4.69z" stroke="#000" stroke-width=".5"/>
  <path id="path3634" d="m5001.9 581.77a67.437 67.437 0 1 1 -134.9 0 67.437 67.437 0 1 1 134.9 0z" transform="matrix(.55033 0 0 .54921 -1854 252.58)" stroke-width="0" fill="#ff81b3"/>
  <path id="path3632" d="m5001.9 581.77a67.437 67.437 0 1 1 -134.9 0 67.437 67.437 0 1 1 134.9 0z" transform="matrix(.55033 0 0 .54921 -2030 252.12)" stroke-width="0" fill="#fd81b3"/>
  <path id="path3636" d="m5001.9 581.77a67.437 67.437 0 1 1 -134.9 0 67.437 67.437 0 1 1 134.9 0z" transform="matrix(.55033 0 0 .54921 -1675.6 251.61)" fill="#ff81b3"/>
  <path id="path3630" d="m1092 546.13c-4.9-8.44-5.4-8.33-4.9-8.44l15.6-3.52-10.7 11.96z" fill-rule="evenodd" stroke="#000" stroke-width=".5px"/>
  <path id="path3652" d="m1113.3 730.99c0-9.75-0.5-9.9 0-9.75l15.3 4.77-15.3 4.98z" fill-rule="evenodd" stroke="#000" stroke-width=".5px"/>
  <path id="path3670" d="m648.31 528.62c1.51-2.81 4.31-8.04 6.22-11.61 1.92-3.57 3.8-6.55 4.19-6.63 0.47-0.1 2.77 3.72 6.8 11.28 3.35 6.29 6.08 11.57 6.08 11.75s-5.85 0.33-13.01 0.33h-13.02l2.74-5.12zm15.51-3.74c-4.68-8.87-5.94-11.11-6.22-11.1-0.14 0.01-2.31 3.94-4.81 8.74l-4.56 8.72h9.47 9.48l-3.36-6.36z" stroke="#000" stroke-width=".5"/>
  <path id="path3690" d="m673.9 519.29c-1.11-0.93-1.67-2.51-1.67-4.73 0-3.44 1.51-5.57 3.94-5.57s3.93 2.13 3.93 5.57c0 2.22-0.56 3.8-1.67 4.73-1.36 1.14-3.17 1.14-4.53 0zm3.9-0.46c0.9-0.9 1.08-1.86 0.94-5.11-0.1-2.49-0.2-2.89-0.89-3.45-0.99-0.79-2.38-0.79-3.37 0-0.69 0.56-0.79 0.96-0.89 3.45-0.07 1.55-0.03 3.19 0.09 3.64 0.3 1.21 1.37 2.12 2.49 2.12 0.54 0 1.27-0.29 1.63-0.65z" stroke="#000" stroke-width=".5"/>
  <path id="path3694" d="m913.55 518v-3.28h-3.28c-1.95 0-3.29-0.15-3.29-0.36 0-0.22 1.34-0.37 3.29-0.37h3.28v-3.45c0-2.84 0.1-3.46 0.54-3.46 0.45 0 0.55 0.62 0.55 3.46v3.45h3.1c1.83 0 3.1 0.15 3.1 0.37 0 0.21-1.27 0.36-3.1 0.36h-3.1v3.28c0 2.67-0.1 3.27-0.55 3.27-0.44 0-0.54-0.6-0.54-3.27z" stroke="#000" stroke-width=".5"/>
  <path id="path3702" d="m597.13 684.37l1.38-0.5v-6.62c0-3.64-0.14-6.75-0.32-6.93-0.17-0.17-0.73-0.09-1.25 0.19-0.51 0.27-0.93 0.31-0.93 0.08s1-0.91 2.24-1.51l2.23-1.08 0.14 8.08 0.14 8.08 1.25 0.34c0.76 0.21-0.22 0.35-2.5 0.36-3.09 0.01-3.51-0.08-2.38-0.49zm-11.63-5.16c0-0.58 0.67-0.75 3-0.75 2.34 0 3 0.17 3 0.75s-0.66 0.75-3 0.75c-2.33 0-3-0.17-3-0.75z" stroke="#000" stroke-width=".5"/>
  <path id="path3704" d="m622.04 805.65l0.94-1.12-3.32-5.73c-1.82-3.16-3.51-5.79-3.74-5.85-0.24-0.06-0.69 0.29-0.99 0.78-0.31 0.5-0.66 0.74-0.77 0.54-0.12-0.2 0.42-1.28 1.18-2.42l1.4-2.05 4.16 6.92 4.17 6.93 1.26-0.32c0.76-0.2-0.01 0.41-1.99 1.56-2.67 1.54-3.08 1.68-2.3 0.76zm-12.66 1.33c-0.29-0.5 0.2-0.98 2.22-2.15 2.02-1.16 2.68-1.35 2.98-0.85 0.29 0.51-0.21 0.99-2.23 2.15-2.02 1.17-2.68 1.35-2.97 0.85z" stroke="#000" stroke-width=".5"/>
  <path id="path3712" d="m875.64 720.71c0.01-0.21 1.22-4.09 2.71-8.62 1.85-5.67 2.94-8.28 3.49-8.4 0.44-0.09 0.8-0.01 0.8 0.17 0 0.19-1.25 4.14-2.78 8.78-1.89 5.73-3.01 8.44-3.5 8.44-0.4 0-0.72-0.17-0.72-0.37zm-8.39-0.71l1.38-0.5v-6.62c0-3.63-0.14-6.75-0.32-6.93-0.17-0.17-0.73-0.09-1.25 0.19-0.51 0.27-0.93 0.31-0.93 0.08s1.01-0.91 2.24-1.5l2.24-1.09 0.13 8.08 0.14 8.08 1.25 0.34c0.76 0.22-0.21 0.36-2.5 0.36-3.08 0.01-3.51-0.08-2.38-0.49zm19.05-2.86c4.72-4.87 6-8.39 3.84-10.54-1.55-1.55-3.69-1.29-5.21 0.63-1.39 1.76-1.72 1.15-0.58-1.06 1.46-2.81 5.08-3.36 7.33-1.1 2.53 2.52 1.96 4.76-2.53 9.97l-3.06 3.54h3.37c2.44 0 3.61-0.22 4.28-0.83 0.9-0.82 0.91-0.79 0.21 0.87l-0.72 1.71-5.14 0.14-5.15 0.15 3.36-3.48z" stroke="#000" stroke-width=".5"/>
  <path id="path3722" d="m509.09 568.24c-1.61-0.89-2.51-2.66-2.54-4.94-0.05-6.22 7.1-12.23 10.5-8.84 1.15 1.14 1.07 1.26 2.22-3.32 1.01-4.02 0.99-4.18-0.48-4.18-1.77 0-1.55-0.81 0.32-1.18 1.89-0.38 3.94-0.41 3.94-0.06 0 0.15-1.16 4.86-2.56 10.48-1.41 5.61-2.43 10.55-2.27 10.97s0.63 0.76 1.05 0.76c0.79 0 2.28-2.41 2.28-3.72 0-0.42 0.22-0.77 0.5-0.77 0.62 0 0.64 1.06 0.04 2.64-1.11 2.91-3.81 3.76-5.38 1.69l-0.88-1.16-1.71 1.16c-1.94 1.31-3.28 1.43-5.03 0.47zm5.11-1.79c1.43-1.25 1.83-2.1 2.56-5.51 0.81-3.72 0.81-4.12 0.07-5.26-2.38-3.61-6.94 1.15-7.65 7.98-0.44 4.28 1.86 5.56 5.02 2.79z" stroke="#000" stroke-width=".5"/>
  <path id="path3724" d="m487.01 568.38c-1.61-0.89-2.51-2.65-2.53-4.94-0.06-6.21 7.09-12.23 10.5-8.83 1.14 1.14 1.06 1.25 2.21-3.33 1.01-4.01 1-4.17-0.47-4.17-1.77 0-1.56-0.81 0.31-1.19 1.9-0.38 3.94-0.4 3.94-0.05 0 0.14-1.15 4.85-2.56 10.47s-2.43 10.56-2.27 10.98 0.63 0.76 1.05 0.76c0.8 0 2.28-2.42 2.28-3.72 0-0.43 0.22-0.78 0.5-0.78 0.62 0 0.64 1.07 0.04 2.64-1.11 2.92-3.81 3.77-5.38 1.69l-0.88-1.16-1.71 1.16c-1.93 1.31-3.28 1.44-5.03 0.47zm5.11-1.79c1.43-1.25 1.83-2.1 2.56-5.51 0.81-3.71 0.81-4.12 0.07-5.25-2.38-3.62-6.94 1.14-7.64 7.98-0.45 4.27 1.85 5.55 5.01 2.78z" stroke="#000" stroke-width=".5"/>
  <path id="path3728" d="m601.75 724.59c-1.61-0.89-2.52-2.65-2.54-4.93-0.06-6.22 7.09-12.24 10.5-8.84 1.14 1.14 1.07 1.26 2.22-3.33 1.01-4.01 0.99-4.17-0.48-4.17-1.77 0-1.55-0.81 0.31-1.18 1.9-0.38 3.94-0.41 3.94-0.06 0 0.14-1.15 4.86-2.56 10.47-1.41 5.62-2.43 10.56-2.26 10.98 0.16 0.42 0.63 0.76 1.04 0.76 0.8 0 2.28-2.42 2.28-3.72 0-0.42 0.23-0.77 0.5-0.77 0.63 0 0.64 1.06 0.04 2.63-1.11 2.92-3.81 3.77-5.37 1.7l-0.88-1.16-1.72 1.16c-1.93 1.31-3.27 1.43-5.02 0.46zm5.1-1.78c1.44-1.26 1.83-2.11 2.57-5.51 0.8-3.72 0.81-4.12 0.06-5.26-2.37-3.62-6.93 1.14-7.64 7.98-0.44 4.28 1.86 5.56 5.01 2.79z" stroke="#000" stroke-width=".5"/>
  <path id="path3730" d="m579.74 724.56c-1.61-0.89-2.52-2.65-2.54-4.93-0.06-6.22 7.1-12.24 10.5-8.84 1.14 1.14 1.07 1.25 2.22-3.33 1.01-4.01 0.99-4.17-0.48-4.17-1.77 0-1.55-0.81 0.31-1.18 1.9-0.38 3.94-0.41 3.94-0.06 0 0.14-1.15 4.86-2.56 10.47-1.4 5.62-2.42 10.56-2.26 10.98s0.63 0.76 1.04 0.76c0.8 0 2.28-2.42 2.28-3.72 0-0.42 0.23-0.77 0.5-0.77 0.63 0 0.65 1.06 0.05 2.63-1.12 2.92-3.81 3.77-5.38 1.7l-0.88-1.17-1.72 1.17c-1.93 1.31-3.27 1.43-5.02 0.46zm5.11-1.78c1.43-1.26 1.82-2.11 2.56-5.51 0.81-3.72 0.81-4.12 0.07-5.26-2.38-3.62-6.94 1.14-7.65 7.98-0.44 4.28 1.86 5.55 5.02 2.79z" stroke="#000" stroke-width=".5"/>
  <path id="path3644" d="m5001.9 581.77a67.437 67.437 0 1 1 -134.9 0 67.437 67.437 0 1 1 134.9 0z" transform="matrix(.55033 0 0 .54921 -2031.2 562.77)" fill="#ff81b3"/>
  <path id="path3732" d="m689.39 880.47c-1.61-0.89-2.52-2.66-2.54-4.94-0.06-6.21 7.09-12.23 10.5-8.83 1.14 1.14 1.06 1.25 2.22-3.33 1-4.01 0.99-4.17-0.48-4.17-1.77 0-1.56-0.82 0.31-1.19 1.9-0.38 3.94-0.41 3.94-0.05 0 0.14-1.15 4.85-2.56 10.47-1.41 5.61-2.43 10.55-2.27 10.97s0.63 0.77 1.05 0.77c0.8 0 2.28-2.42 2.28-3.72 0-0.43 0.22-0.78 0.5-0.78 0.62 0 0.64 1.07 0.04 2.64-1.11 2.92-3.81 3.77-5.38 1.69l-0.87-1.16-1.72 1.16c-1.93 1.31-3.28 1.43-5.02 0.47zm5.1-1.79c1.43-1.25 1.83-2.1 2.57-5.51 0.8-3.71 0.81-4.12 0.06-5.25-2.38-3.62-6.94 1.14-7.64 7.97-0.45 4.28 1.85 5.56 5.01 2.79z" stroke="#000" stroke-width=".5"/>
  <path id="path3640" d="m5001.9 581.77a67.437 67.437 0 1 1 -134.9 0 67.437 67.437 0 1 1 134.9 0z" transform="matrix(.55033 0 0 .54921 -1942.4 406.36)" fill="#ff81b3"/>
  <path id="path3734" d="m778.18 724.37c-1.61-0.89-2.52-2.65-2.54-4.93-0.06-6.22 7.09-12.24 10.5-8.84 1.14 1.14 1.06 1.25 2.22-3.33 1-4.01 0.99-4.17-0.48-4.17-1.77 0-1.56-0.81 0.31-1.19 1.9-0.37 3.94-0.4 3.94-0.05 0 0.14-1.15 4.85-2.56 10.47s-2.43 10.56-2.27 10.98 0.63 0.76 1.05 0.76c0.8 0 2.28-2.42 2.28-3.72 0-0.43 0.22-0.77 0.5-0.77 0.62 0 0.64 1.06 0.04 2.63-1.11 2.92-3.81 3.77-5.38 1.7l-0.87-1.17-1.72 1.17c-1.93 1.3-3.28 1.43-5.02 0.46zm5.1-1.78c1.43-1.26 1.83-2.11 2.57-5.51 0.8-3.72 0.81-4.12 0.06-5.26-2.38-3.62-6.94 1.14-7.64 7.98-0.44 4.28 1.85 5.55 5.01 2.79z" stroke="#000" stroke-width=".5"/>
  <path id="path3736" d="m667.83 567.87c-1.61-0.89-2.52-2.66-2.54-4.94-0.06-6.22 7.1-12.23 10.5-8.84 1.14 1.14 1.07 1.26 2.22-3.32 1.01-4.02 0.99-4.18-0.48-4.18-1.77 0-1.55-0.81 0.32-1.18 1.89-0.38 3.94-0.41 3.94-0.06 0 0.15-1.16 4.86-2.56 10.48-1.41 5.61-2.43 10.55-2.27 10.97s0.63 0.76 1.04 0.76c0.8 0 2.28-2.41 2.28-3.72 0-0.42 0.23-0.77 0.5-0.77 0.63 0 0.65 1.06 0.05 2.64-1.11 2.91-3.81 3.76-5.38 1.69l-0.88-1.16-1.71 1.16c-1.94 1.31-3.28 1.43-5.03 0.47zm5.11-1.79c1.43-1.25 1.82-2.1 2.56-5.51 0.81-3.72 0.81-4.12 0.07-5.26-2.38-3.61-6.94 1.15-7.65 7.98-0.44 4.28 1.86 5.56 5.02 2.79z" stroke="#000" stroke-width=".5"/>
  <path id="path3738" d="m854.4 593.26c-1.61-0.89-2.52-2.65-2.54-4.93-0.06-6.22 7.1-12.24 10.5-8.84 1.14 1.14 1.07 1.26 2.22-3.33 1.01-4.01 0.99-4.17-0.48-4.17-1.77 0-1.55-0.81 0.31-1.18 1.9-0.38 3.94-0.41 3.94-0.06 0 0.14-1.15 4.86-2.56 10.47-1.4 5.62-2.42 10.56-2.26 10.98s0.63 0.76 1.04 0.76c0.8 0 2.28-2.42 2.28-3.72 0-0.42 0.23-0.77 0.5-0.77 0.63 0 0.65 1.06 0.05 2.63-1.12 2.92-3.81 3.77-5.38 1.7l-0.88-1.16-1.71 1.16c-1.94 1.31-3.28 1.43-5.03 0.46zm5.11-1.78c1.43-1.26 1.82-2.1 2.56-5.51 0.81-3.72 0.81-4.12 0.07-5.26-2.38-3.62-6.94 1.14-7.65 7.98-0.44 4.28 1.86 5.56 5.02 2.79z" stroke="#000" stroke-width=".5"/>
  <path id="path3740" d="m1021.2 567.28c-1.6-1.58-1.6-3.49 0-8.01 1.5-4.21 1.6-5.25 0.3-5.25-1.1 0-2.4 1.35-3.1 3.41-0.3 0.87-0.7 1.59-1 1.59-0.6 0-0.5-0.89 0.4-2.82 1.4-3.03 4.2-4.1 5.8-2.26 1.1 1.17 1.1 2.13-0.1 5.99-1.7 5.16-1.2 7.57 1.3 7.57 2.2 0 3.4-1.98 4.9-7.85 1.3-5.38 1.9-6.45 3.2-5.66 0.5 0.29 0.3 1.58-0.6 5.41-0.7 2.77-1.3 5.73-1.3 6.57 0 2.63 2.1 1.7 2.9-1.27 0.2-0.76 0.7-1.47 1-1.59 0.8-0.26 0.4 1.37-0.9 3.64-1 1.9-3 2.23-4.5 0.76l-1.1-1.05-1.3 1.02c-1.8 1.42-4.4 1.33-5.9-0.2z" stroke="#000" stroke-width=".5"/>
  <path id="path3742" d="m1045.4 567.07c-1.6-1.58-1.6-3.49 0-8.01 1.5-4.21 1.6-5.25 0.4-5.25s-2.5 1.36-3.2 3.41c-0.3 0.87-0.7 1.59-1 1.59-0.6 0-0.5-0.89 0.4-2.82 1.4-3.03 4.2-4.09 5.8-2.26 1.1 1.17 1.1 2.13-0.1 6-1.7 5.15-1.2 7.57 1.3 7.57 2.2 0 3.4-1.99 4.9-7.86 1.3-5.37 1.9-6.45 3.2-5.66 0.5 0.29 0.3 1.58-0.6 5.41-0.7 2.77-1.3 5.73-1.3 6.57 0 2.63 2.1 1.71 2.9-1.27 0.2-0.76 0.7-1.47 1-1.59 0.8-0.26 0.4 1.38-0.9 3.65-1 1.89-3 2.23-4.5 0.76l-1.1-1.05-1.3 1.01c-1.8 1.43-4.4 1.34-5.9-0.2z" stroke="#000" stroke-width=".5"/>
  <path id="path3744" d="m1035.9 589.38c-1.5-1.58-1.5-3.49 0.1-8.01 1.5-4.21 1.5-5.25 0.3-5.25s-2.4 1.36-3.1 3.41c-0.3 0.87-0.8 1.59-1 1.59-0.7 0-0.6-0.89 0.3-2.82 1.5-3.03 4.2-4.09 5.9-2.26 1.1 1.17 1 2.13-0.2 6-1.6 5.15-1.2 7.56 1.3 7.56 2.2 0 3.5-1.98 4.9-7.85 1.4-5.38 2-6.45 3.3-5.66 0.4 0.29 0.3 1.58-0.7 5.41-0.7 2.77-1.3 5.73-1.3 6.57 0 2.63 2.2 1.7 3-1.27 0.2-0.76 0.6-1.47 1-1.59 0.8-0.26 0.4 1.38-0.9 3.65-1.1 1.89-3.1 2.23-4.6 0.75l-1-1.04-1.3 1.01c-1.8 1.43-4.4 1.33-6-0.2z" stroke="#000" stroke-width=".5"/>
  <path id="path3746" d="m690.99 567.29c-1.58-1.58-1.57-3.49 0.03-8.01 1.49-4.21 1.56-5.24 0.32-5.24-1.16 0-2.4 1.35-3.12 3.4-0.31 0.87-0.76 1.59-1.01 1.59-0.66 0-0.55-0.89 0.37-2.81 1.44-3.04 4.19-4.1 5.86-2.27 1.06 1.17 1.03 2.13-0.18 6-1.62 5.16-1.21 7.57 1.28 7.57 2.24 0 3.49-1.99 4.94-7.86 1.34-5.37 1.96-6.45 3.24-5.66 0.46 0.29 0.3 1.58-0.67 5.42-0.71 2.77-1.28 5.72-1.28 6.56 0 2.63 2.14 1.71 2.94-1.27 0.2-0.76 0.66-1.47 1.02-1.59 0.78-0.26 0.37 1.38-0.91 3.65-1.07 1.89-3.07 2.23-4.54 0.76l-1.05-1.05-1.3 1.02c-1.81 1.42-4.4 1.33-5.94-0.21z" stroke="#000" stroke-width=".5"/>
  <path id="path3748" d="m678.78 593.57c-1.61-0.89-2.52-2.65-2.54-4.93-0.06-6.22 7.09-12.24 10.5-8.84 1.14 1.14 1.07 1.25 2.22-3.33 1.01-4.01 0.99-4.17-0.48-4.17-1.77 0-1.55-0.81 0.31-1.19 1.9-0.37 3.94-0.4 3.94-0.05 0 0.14-1.15 4.85-2.56 10.47s-2.43 10.56-2.26 10.98c0.16 0.42 0.63 0.76 1.04 0.76 0.8 0 2.28-2.42 2.28-3.72 0-0.43 0.23-0.77 0.5-0.77 0.63 0 0.64 1.06 0.04 2.63-1.11 2.92-3.81 3.77-5.37 1.7l-0.88-1.17-1.72 1.17c-1.93 1.3-3.27 1.43-5.02 0.46zm5.1-1.78c1.44-1.26 1.83-2.11 2.57-5.51 0.8-3.72 0.81-4.12 0.06-5.26-2.37-3.62-6.93 1.14-7.64 7.98-0.44 4.28 1.86 5.55 5.01 2.79z" stroke="#000" stroke-width=".5"/>
  <path id="path3750" d="m757.47 723.8c-1.57-1.58-1.57-3.49 0.04-8.01 1.49-4.21 1.55-5.25 0.31-5.25-1.16 0-2.4 1.36-3.12 3.41-0.3 0.87-0.76 1.59-1 1.59-0.67 0-0.56-0.89 0.36-2.82 1.44-3.03 4.2-4.09 5.86-2.26 1.07 1.17 1.04 2.13-0.18 5.99-1.62 5.16-1.21 7.57 1.29 7.57 2.23 0 3.48-1.98 4.94-7.85 1.34-5.38 1.95-6.45 3.23-5.66 0.47 0.29 0.31 1.58-0.67 5.41-0.7 2.77-1.28 5.73-1.28 6.57 0 2.63 2.14 1.7 2.94-1.27 0.2-0.76 0.66-1.47 1.02-1.59 0.78-0.26 0.38 1.38-0.91 3.65-1.07 1.89-3.06 2.23-4.54 0.75l-1.05-1.04-1.3 1.01c-1.81 1.42-4.4 1.33-5.94-0.2z" stroke="#000" stroke-width=".5"/>
  <path id="path3646" d="m5001.9 581.77a67.437 67.437 0 1 1 -134.9 0 67.437 67.437 0 1 1 134.9 0z" transform="matrix(.55033 0 0 .54921 -1853.1 563.37)" stroke-width="0" fill="#ff81b3"/>
  <path id="path3752" d="m869.34 879.93c-1.58-1.57-1.57-3.49 0.03-8.01 1.49-4.2 1.55-5.24 0.32-5.24-1.17 0-2.41 1.35-3.12 3.4-0.31 0.88-0.76 1.59-1.01 1.59-0.67 0-0.55-0.88 0.37-2.81 1.44-3.03 4.19-4.1 5.86-2.26 1.06 1.17 1.03 2.12-0.18 5.99-1.62 5.16-1.21 7.57 1.28 7.57 2.24 0 3.48-1.98 4.94-7.85 1.34-5.38 1.95-6.45 3.24-5.66 0.46 0.29 0.3 1.58-0.67 5.41-0.71 2.77-1.28 5.73-1.28 6.57 0 2.63 2.14 1.7 2.94-1.27 0.2-0.76 0.66-1.47 1.01-1.59 0.79-0.26 0.38 1.37-0.9 3.64-1.08 1.9-3.07 2.23-4.54 0.76l-1.05-1.05-1.3 1.02c-1.81 1.42-4.4 1.33-5.94-0.21z" stroke="#000" stroke-width=".5"/>
  <path id="path3638" d="m5001.9 581.77a67.437 67.437 0 1 1 -134.9 0 67.437 67.437 0 1 1 134.9 0z" transform="matrix(.55033 0 0 .54921 -1762 406.73)" fill="#ff81b3"/>
  <path id="path3754" d="m933.88 723.71c-1.58-1.58-1.57-3.49 0.03-8.02 1.49-4.2 1.55-5.24 0.32-5.24-1.17 0-2.41 1.35-3.13 3.4-0.3 0.88-0.75 1.59-1 1.59-0.67 0-0.55-0.88 0.36-2.81 1.44-3.03 4.2-4.1 5.86-2.26 1.07 1.17 1.04 2.12-0.18 5.99-1.62 5.16-1.21 7.57 1.29 7.57 2.23 0 3.48-1.98 4.94-7.85 1.34-5.38 1.95-6.45 3.23-5.66 0.47 0.29 0.31 1.58-0.67 5.41-0.7 2.77-1.28 5.73-1.28 6.57 0 2.63 2.15 1.7 2.94-1.27 0.21-0.76 0.66-1.47 1.02-1.59 0.79-0.26 0.38 1.37-0.91 3.64-1.07 1.9-3.06 2.23-4.54 0.76l-1.05-1.05-1.3 1.02c-1.81 1.42-4.39 1.33-5.93-0.2z" stroke="#000" stroke-width=".5"/>
  <path id="path3756" d="m958 723.98c-1.58-1.58-1.57-3.49 0.03-8.01 1.49-4.21 1.55-5.25 0.32-5.25-1.17 0-2.41 1.35-3.12 3.41-0.31 0.87-0.76 1.59-1.01 1.59-0.67 0-0.55-0.89 0.36-2.82 1.44-3.03 4.2-4.1 5.86-2.26 1.07 1.17 1.04 2.13-0.18 5.99-1.62 5.16-1.21 7.57 1.29 7.57 2.23 0 3.48-1.98 4.94-7.85 1.34-5.38 1.95-6.45 3.24-5.66 0.46 0.29 0.3 1.58-0.68 5.41-0.7 2.77-1.27 5.73-1.27 6.57 0 2.63 2.14 1.7 2.93-1.27 0.21-0.76 0.66-1.47 1.02-1.59 0.79-0.26 0.38 1.37-0.9 3.64-1.08 1.9-3.07 2.23-4.55 0.76l-1.05-1.05-1.29 1.02c-1.81 1.42-4.4 1.33-5.94-0.2z" stroke="#000" stroke-width=".5"/>
  <path id="path3758" d="m845.5 567.54c-1.58-1.57-1.57-3.49 0.03-8.01 1.49-4.21 1.55-5.24 0.32-5.24-1.17 0-2.41 1.35-3.12 3.4-0.31 0.88-0.76 1.59-1.01 1.59-0.67 0-0.55-0.88 0.36-2.81 1.45-3.03 4.2-4.1 5.86-2.27 1.07 1.18 1.04 2.13-0.17 6-1.63 5.16-1.22 7.57 1.28 7.57 2.23 0 3.48-1.99 4.94-7.85 1.34-5.38 1.95-6.45 3.24-5.66 0.46 0.28 0.3 1.58-0.67 5.41-0.71 2.77-1.28 5.72-1.28 6.57 0 2.63 2.14 1.7 2.93-1.28 0.21-0.75 0.67-1.47 1.02-1.59 0.79-0.26 0.38 1.38-0.9 3.65-1.08 1.9-3.07 2.23-4.54 0.76l-1.06-1.05-1.29 1.02c-1.81 1.42-4.4 1.33-5.94-0.21z" stroke="#000" stroke-width=".5"/>
  <path id="path3480" d="m5001.9 581.77a67.437 67.437 0 1 1 -134.9 0 67.437 67.437 0 1 1 134.9 0z" transform="matrix(.55 0 0 .55 -1941.1 709.46)" fill="#ff81b3"/>
  <path id="path3766" d="m758.44 1025.9c-1.75-0.9-2-3.9-0.38-4.4 2.02-0.7 2.78 1.1 1.01 2.4-0.98 0.7-0.97 0.7 0.27 1.2 2.87 1.4 6.95 0.2 7.53-2.1 0.42-1.7-0.52-2.7-2.88-3.1-4.32-0.7-5.7-3.7-3.03-6.7 1.07-1.2 1.92-1.6 3.63-1.8 3.17-0.3 4.73 0.6 4.73 2.9 0 1.4-0.2 1.7-1.12 1.9-1.28 0.1-1.59-1.3-0.51-2.4 0.84-0.8-0.3-1.5-2.49-1.5-1.96-0.1-3.76 1.5-3.54 3.1 0.12 0.8 0.75 1.2 2.66 1.8 4.54 1.2 5.97 3.9 3.67 6.8-2.04 2.6-6.65 3.5-9.55 1.9z" stroke="#000" stroke-width=".5"/>
  <path id="path3768" d="m769.18 1053.4c-1.76-0.9-2.01-3.9-0.38-4.5 2.02-0.6 2.77 1.2 1 2.4-0.98 0.7-0.97 0.7 0.28 1.3 2.86 1.3 6.95 0.1 7.52-2.2 0.43-1.7-0.51-2.6-2.88-3-4.32-0.7-5.69-3.8-3.03-6.7 1.07-1.2 1.92-1.6 3.63-1.8 3.18-0.3 4.74 0.6 4.74 2.8 0 1.4-0.21 1.8-1.13 1.9-1.27 0.2-1.58-1.2-0.5-2.3 0.84-0.9-0.31-1.6-2.5-1.6-1.95 0-3.76 1.6-3.53 3.1 0.12 0.9 0.74 1.3 2.65 1.8 4.54 1.3 5.97 3.9 3.67 6.8-2.04 2.6-6.64 3.6-9.54 2z" stroke="#000" stroke-width=".5"/>
  <path id="path3770" d="m776.86 1025.6c-1.75-1-2.01-4-0.38-4.5 2.02-0.6 2.77 1.2 1.01 2.4-0.98 0.7-0.98 0.7 0.27 1.3 2.86 1.3 6.95 0.1 7.53-2.2 0.42-1.7-0.52-2.7-2.88-3.1-4.33-0.7-5.7-3.7-3.03-6.7 1.06-1.2 1.91-1.6 3.62-1.8 3.18-0.3 4.74 0.7 4.74 2.9 0 1.4-0.2 1.7-1.12 1.9-1.28 0.1-1.59-1.3-0.51-2.4 0.84-0.8-0.31-1.5-2.5-1.5-1.95 0-3.75 1.6-3.53 3.1 0.12 0.8 0.75 1.2 2.66 1.8 4.53 1.2 5.96 3.9 3.67 6.8-2.05 2.6-6.65 3.5-9.55 2z" stroke="#000" stroke-width=".5"/>
  <path id="path3772" d="m670.16 880.27c-1.75-0.95-2-3.94-0.38-4.45 2.02-0.64 2.78 1.15 1.01 2.38-0.98 0.69-0.97 0.71 0.28 1.28 2.86 1.3 6.94 0.12 7.52-2.18 0.43-1.68-0.51-2.68-2.88-3.05-4.32-0.69-5.69-3.74-3.03-6.71 1.07-1.19 1.92-1.61 3.63-1.78 3.17-0.31 4.74 0.62 4.74 2.83 0 1.42-0.21 1.76-1.13 1.89-1.27 0.18-1.58-1.25-0.5-2.32 0.83-0.84-0.31-1.56-2.5-1.57-1.95-0.01-3.76 1.58-3.53 3.12 0.11 0.83 0.74 1.25 2.65 1.77 4.54 1.26 5.97 3.91 3.67 6.82-2.04 2.59-6.64 3.54-9.55 1.97z" stroke="#000" stroke-width=".5"/>
  <path id="path3774" d="m677.78 904.49c-1.75-0.95-2-3.94-0.38-4.46 2.02-0.64 2.78 1.15 1.01 2.39-0.98 0.68-0.97 0.71 0.28 1.28 2.86 1.3 6.94 0.11 7.52-2.19 0.43-1.68-0.51-2.67-2.88-3.05-4.32-0.69-5.69-3.73-3.03-6.71 1.07-1.19 1.92-1.61 3.63-1.77 3.17-0.32 4.74 0.61 4.74 2.83 0 1.41-0.21 1.76-1.13 1.89-1.27 0.18-1.58-1.25-0.5-2.33 0.83-0.84-0.31-1.56-2.5-1.57-1.95-0.01-3.76 1.59-3.53 3.13 0.11 0.82 0.74 1.24 2.65 1.77 4.54 1.25 5.97 3.91 3.67 6.82-2.04 2.59-6.64 3.54-9.55 1.97z" stroke="#000" stroke-width=".5"/>
  <path id="path3776" d="m858.18 904.41c-1.75-0.95-2.01-3.94-0.38-4.46 2.02-0.64 2.78 1.15 1.01 2.39-0.98 0.68-0.98 0.71 0.27 1.28 2.87 1.3 6.95 0.11 7.53-2.19 0.42-1.68-0.52-2.67-2.88-3.05-4.32-0.69-5.7-3.73-3.03-6.71 1.06-1.19 1.92-1.61 3.63-1.78 3.17-0.31 4.73 0.62 4.73 2.83 0 1.42-0.2 1.77-1.12 1.9-1.28 0.18-1.59-1.25-0.51-2.33 0.84-0.84-0.31-1.56-2.5-1.57-1.95-0.01-3.75 1.59-3.53 3.13 0.12 0.82 0.75 1.24 2.66 1.77 4.54 1.25 5.96 3.91 3.67 6.82-2.04 2.59-6.65 3.54-9.55 1.97z" stroke="#000" stroke-width=".5"/>
  <path id="path3778" d="m848.72 880.36c-1.75-0.94-2.01-3.94-0.38-4.45 2.02-0.64 2.78 1.15 1.01 2.39-0.98 0.68-0.98 0.7 0.27 1.27 2.87 1.3 6.95 0.12 7.53-2.18 0.42-1.68-0.52-2.67-2.88-3.05-4.32-0.69-5.7-3.73-3.03-6.71 1.06-1.19 1.92-1.61 3.63-1.78 3.17-0.31 4.73 0.62 4.73 2.83 0 1.42-0.2 1.76-1.12 1.89-1.28 0.18-1.59-1.25-0.51-2.32 0.84-0.84-0.31-1.56-2.49-1.57-1.96-0.01-3.76 1.59-3.54 3.13 0.12 0.82 0.75 1.24 2.66 1.77 4.54 1.25 5.96 3.9 3.67 6.82-2.04 2.59-6.65 3.54-9.55 1.96z" stroke="#000" stroke-width=".5"/>
  <path id="path3780" d="m768 743.34c-1.76-0.95-2.01-3.94-0.38-4.46 2.02-0.64 2.77 1.15 1 2.39-0.98 0.68-0.97 0.71 0.28 1.27 2.86 1.31 6.95 0.12 7.52-2.18 0.43-1.68-0.51-2.67-2.88-3.05-4.32-0.69-5.69-3.73-3.03-6.71 1.07-1.19 1.92-1.61 3.63-1.78 3.18-0.31 4.74 0.62 4.74 2.83 0 1.42-0.21 1.77-1.13 1.9-1.27 0.18-1.58-1.25-0.5-2.33 0.84-0.84-0.31-1.56-2.5-1.57-1.95-0.01-3.76 1.59-3.53 3.13 0.12 0.82 0.74 1.24 2.65 1.77 4.54 1.25 5.97 3.91 3.67 6.82-2.04 2.59-6.64 3.54-9.54 1.97z" stroke="#000" stroke-width=".5"/>
  <path id="path3782" d="m946.77 743.78c-1.75-0.95-2.01-3.94-0.38-4.46 2.02-0.64 2.78 1.15 1.01 2.39-0.98 0.68-0.98 0.71 0.27 1.28 2.87 1.3 6.95 0.11 7.53-2.19 0.42-1.68-0.52-2.67-2.88-3.05-4.32-0.69-5.7-3.73-3.03-6.71 1.06-1.19 1.92-1.61 3.63-1.77 3.17-0.32 4.73 0.61 4.73 2.83 0 1.41-0.2 1.76-1.12 1.89-1.28 0.18-1.59-1.25-0.51-2.33 0.84-0.84-0.31-1.56-2.5-1.57-1.95-0.01-3.75 1.59-3.53 3.13 0.12 0.82 0.75 1.24 2.66 1.77 4.54 1.25 5.96 3.91 3.67 6.82-2.04 2.59-6.65 3.54-9.55 1.97z" stroke="#000" stroke-width=".5"/>
  <path id="path3784" d="m592.36 743.85c-1.76-0.95-2.01-3.94-0.38-4.46 2.02-0.64 2.77 1.16 1 2.39-0.98 0.69-0.97 0.71 0.28 1.28 2.86 1.3 6.95 0.11 7.52-2.19 0.43-1.68-0.51-2.67-2.88-3.05-4.32-0.69-5.69-3.73-3.03-6.71 1.07-1.19 1.92-1.6 3.63-1.77 3.18-0.32 4.74 0.62 4.74 2.83 0 1.41-0.21 1.76-1.13 1.89-1.27 0.18-1.58-1.25-0.5-2.33 0.84-0.84-0.31-1.56-2.5-1.57-1.95-0.01-3.76 1.59-3.53 3.13 0.12 0.83 0.74 1.24 2.65 1.77 4.54 1.25 5.97 3.91 3.67 6.82-2.04 2.59-6.64 3.54-9.54 1.97z" stroke="#000" stroke-width=".5"/>
  <path id="path3786" d="m869.21 567.45c-1.58-1.57-1.57-3.49 0.03-8.01 1.49-4.21 1.56-5.24 0.32-5.24-1.16 0-2.4 1.35-3.12 3.4-0.31 0.87-0.76 1.59-1.01 1.59-0.66 0-0.55-0.89 0.37-2.81 1.44-3.04 4.2-4.1 5.86-2.27 1.06 1.18 1.03 2.13-0.18 6-1.62 5.16-1.21 7.57 1.28 7.57 2.24 0 3.49-1.99 4.95-7.86 1.33-5.37 1.95-6.45 3.23-5.65 0.46 0.28 0.3 1.57-0.67 5.41-0.7 2.77-1.28 5.72-1.28 6.57 0 2.63 2.14 1.7 2.94-1.28 0.2-0.75 0.66-1.47 1.02-1.59 0.78-0.26 0.37 1.38-0.91 3.65-1.07 1.9-3.07 2.23-4.54 0.76l-1.05-1.05-1.3 1.02c-1.81 1.42-4.4 1.33-5.94-0.21z" stroke="#000" stroke-width=".5"/>
  <path id="path3790" d="m888.51 528.62c1.5-2.81 4.3-8.04 6.22-11.61 1.91-3.57 3.8-6.55 4.19-6.63 0.47-0.1 2.77 3.72 6.79 11.28 3.35 6.29 6.09 11.57 6.09 11.75s-5.86 0.33-13.02 0.33h-13.01l2.74-5.12zm15.51-3.74c-4.68-8.87-5.94-11.11-6.23-11.1-0.14 0.01-2.3 3.94-4.81 8.74l-4.56 8.72h9.48 9.47l-3.35-6.36z" stroke="#000" stroke-width=".5"/>
  <path id="path2330" d="m495.39 593.57c-1.61-0.89-2.52-2.65-2.54-4.93-0.06-6.22 7.1-12.24 10.5-8.84 1.14 1.14 1.07 1.25 2.22-3.33 1.01-4.01 0.99-4.17-0.48-4.17-1.77 0-1.55-0.81 0.31-1.19 1.9-0.37 3.94-0.4 3.94-0.05 0 0.14-1.15 4.85-2.56 10.47s-2.43 10.56-2.26 10.98c0.16 0.42 0.63 0.76 1.04 0.76 0.8 0 2.28-2.42 2.28-3.72 0-0.43 0.23-0.77 0.5-0.77 0.63 0 0.64 1.06 0.04 2.63-1.11 2.92-3.8 3.77-5.37 1.7l-0.88-1.17-1.72 1.17c-1.93 1.3-3.27 1.43-5.02 0.46zm5.11-1.78c1.43-1.26 1.82-2.11 2.56-5.51 0.8-3.72 0.81-4.12 0.06-5.26-2.37-3.62-6.93 1.14-7.64 7.98-0.44 4.28 1.86 5.55 5.02 2.79z" stroke="#000" stroke-width=".5"/>
  <path id="path2564" d="m818.06 1028.2c-0.4-2.1-0.43-2.8-0.11-2.8 0.23 0 0.51 0.6 0.63 1.3 0.3 1.9 0.83 2.2 3.28 2.1l2.08-0.1-0.44-1.3c-0.25-0.7-1.32-2.7-2.39-4.5-3.36-5.6-3.78-8.3-1.75-11.6 3.97-6.4 14.99-6 18.31 0.7 1.62 3.2 1.01 6.1-2.48 11.5-1.68 2.6-2.52 4.3-2.52 5 0 0.4 3.8 0.5 4.38 0.1 0.22-0.1 0.58-0.9 0.8-1.7 0.4-1.5 1.29-2.2 0.95-0.7-0.1 0.4-0.37 1.7-0.61 2.8l-0.43 1.9h-3.11-3.12l0.22-1.8c0.12-1 0.93-3.9 1.8-6.3 1.87-5.3 2.23-8 1.41-10.5-1.29-3.9-5.52-5.9-9.15-4.4-3.12 1.3-4.81 4.4-4.49 8.3 0.09 1.1 0.83 4 1.63 6.4 0.81 2.4 1.55 5.3 1.65 6.4l0.19 1.9h-3.1-3.1l-0.53-2.7z"/>
  <text id="text4271" xml:space="preserve" font-size="24px" y="781.86218" x="1088.3171" font-family="Times New Roman" fill="#000000">
      <tspan id="tspan4273" x="1088.3171" y="781.86218">3</tspan>
    </text>
  <path id="path2266" d="m759.57 590.41c-1.7-1.43-2.55-3.84-2.55-7.22 0-5.25 2.3-8.5 6-8.5s5.99 3.25 5.99 8.5c0 3.38-0.85 5.79-2.55 7.22-2.06 1.74-4.82 1.74-6.89 0zm5.93-0.71c1.38-1.37 1.65-2.83 1.44-7.8-0.15-3.8-0.31-4.41-1.35-5.26-1.51-1.22-3.63-1.22-5.14 0-1.05 0.85-1.2 1.46-1.36 5.26-0.1 2.37-0.03 4.87 0.14 5.56 0.46 1.85 2.08 3.23 3.79 3.23 0.82 0 1.94-0.44 2.48-0.99z" stroke="#000" stroke-width="0.5"/>
 </g>
 <metadata>
  <rdf:RDF>
   <cc:Work>
    <dc:format>image/svg+xml</dc:format>
    <dc:type rdf:resource="http://purl.org/dc/dcmitype/StillImage"/>
    <cc:license rdf:resource="http://creativecommons.org/licenses/publicdomain/"/>
    <dc:publisher>
     <cc:Agent rdf:about="http://openclipart.org/">
      <dc:title>Openclipart</dc:title>
     </cc:Agent>
    </dc:publisher>
   </cc:Work>
   <cc:License rdf:about="http://creativecommons.org/licenses/publicdomain/">
    <cc:permits rdf:resource="http://creativecommons.org/ns#Reproduction"/>
    <cc:permits rdf:resource="http://creativecommons.org/ns#Distribution"/>
    <cc:permits rdf:resource="http://creativecommons.org/ns#DerivativeWorks"/>
   </cc:License>
  </rdf:RDF>
 </metadata>
</svg>
