<?xml version="1.0"?>
<svg xmlns:rdf="http://www.w3.org/1999/02/22-rdf-syntax-ns#" xmlns="http://www.w3.org/2000/svg" xmlns:cc="http://web.resource.org/cc/" xmlns:xlink="http://www.w3.org/1999/xlink" xmlns:dc="http://purl.org/dc/elements/1.1/" id="svg2" height="1132.4" width="598.99" version="1.0">
 <defs id="defs4">
  <linearGradient id="linearGradient3214">
   <stop id="stop3216" stop-color="#fdff00" offset="0"/>
   <stop id="stop3222" stop-color="#ffe700" offset=".51389"/>
   <stop id="stop3224" stop-color="#f00" offset="1"/>
   <stop id="stop3218" stop-color="#fff" offset="1"/>
  </linearGradient>
  <filter id="filter13003">
   <feGaussianBlur id="feGaussianBlur13005" stdDeviation="0.74656709"/>
  </filter>
  <linearGradient id="linearGradient2470" y2="244.46" gradientUnits="userSpaceOnUse" x2="378.4" gradientTransform="matrix(1.8341 0 0 1.8341 -191.72 731.57)" y1="244.46" x1="141.39">
   <stop id="stop3257" stop-color="#fdff00" offset="0"/>
   <stop id="stop3259" stop-color="#ffe700" offset=".51389"/>
   <stop id="stop3261" stop-color="#ff0f0f" offset=".81771"/>
   <stop id="stop3265" stop-color="#fff" offset=".81771"/>
   <stop id="stop3263" stop-color="#fff" offset="1"/>
  </linearGradient>
  <linearGradient id="linearGradient2474" y2="244.46" xlink:href="#linearGradient3214" gradientUnits="userSpaceOnUse" x2="378.4" gradientTransform="matrix(1.8341 0 0 1.8341 -191.72 437.54)" y1="244.46" x1="141.39"/>
  <linearGradient id="linearGradient2478" y2="244.46" xlink:href="#linearGradient3214" gradientUnits="userSpaceOnUse" x2="378.4" gradientTransform="matrix(1.8341 0 0 1.8341 -191.72 143.52)" y1="244.46" x1="141.39"/>
  <linearGradient id="linearGradient2482" y2="244.46" xlink:href="#linearGradient3214" gradientUnits="userSpaceOnUse" x2="378.4" gradientTransform="matrix(1.8341 0 0 1.8341 -191.72 -150.51)" y1="244.46" x1="141.39"/>
 </defs>
 <g id="layer1" fill-rule="evenodd" transform="translate(-66.676 -156.78)">
  <path id="path2416" d="m375.76 303.06v-116.97c15.78-18.71 59.31-18.22 91.11-17.85l0.03 152.45c-31.08 0.42-68.63 2.02-91.14-17.63z" stroke-opacity="0" transform="matrix(1.8341 0 0 1.8341 -191.72 -150.51)" filter="url(#filter13003)" fill="#ff0700"/>
  <path id="path2385" d="m501.37 405.27c-40.17-7.03-62.63-21.74-174.05-78.34-10.77-4.79-21.06-6.76-38.17 0-22.18 10.44-5.57 45.96-35.98 45.02-13.36 0.04-160.95 0.34-171.24-1.17-15.831 0.78-13.566-30.21-12.946-72.92-0.62-42.72-2.885-73.71 12.946-72.92 10.29-1.52 157.88-1.22 171.24-1.18 30.41-0.94 13.8 34.59 35.98 45.02 17.11 6.77 27.4 4.79 38.17 0 111.42-56.59 133.88-71.31 174.05-78.34" stroke="#000" stroke-width="3.6681" fill="url(#linearGradient2482)"/>
  <path id="path2445" d="m375.76 303.06v-116.97l91.11-0.4 0.03 117.55-91.14-0.18z" stroke-opacity="0" transform="matrix(1.8341 0 0 1.8341 -191.72 143.52)" filter="url(#filter13003)" fill="#ff0700"/>
  <path id="path2447" d="m501.37 699.3c-40.17-7.03-62.63-21.75-174.05-78.34-10.77-4.8-21.06-6.77-38.17 0-22.18 10.43-5.57 45.96-35.98 45.02-13.36 0.04-160.95 0.33-171.24-1.18-15.831 0.79-13.566-30.21-12.946-72.92-0.62-42.71-2.885-73.7 12.946-72.92 10.29-1.51 157.88-1.21 171.24-1.18 30.41-0.94 13.8 34.59 35.98 45.02 17.11 6.77 27.4 4.8 38.17 0 111.42-56.59 133.88-71.31 174.05-78.34" stroke="#000" stroke-width="3.6681" fill="url(#linearGradient2478)"/>
  <path id="path2453" d="m376.81 303.03v-117.13c7.46 17.08 58.89 16.62 90.06 16.14l0.03 84.85c-29.72 0.01-81.66-2.47-90.09 16.14z" stroke-opacity="0" transform="matrix(1.8341 0 0 1.8341 -191.72 437.54)" filter="url(#filter13003)" fill="#ff0700"/>
  <path id="path2463" d="m501.37 1287.4c-40.17-7.1-62.63-21.8-174.05-78.4-10.77-4.8-21.06-6.8-38.17 0-22.18 10.4-5.57 46-35.98 45-13.36 0.1-160.95 0.4-171.24-1.1-15.831 0.7-13.566-30.3-12.946-73-0.62-42.7-2.885-73.7 12.946-72.9 10.29-1.5 157.88-1.2 171.24-1.2 30.41-0.9 13.8 34.6 35.98 45.1 17.11 6.7 27.4 4.7 38.17 0 111.42-56.6 133.88-71.4 174.05-78.4" stroke="#000" stroke-width="3.6681" fill="url(#linearGradient2470)"/>
  <path id="path2461" d="m374.13 307.17l-0.05-124.8c6.37 36.96 64.36 32.21 92.79 28.06l0.03 68.07c-28.16-3.46-85.71-9.37-92.77 28.67z" stroke-opacity="0" transform="matrix(2.6436 0 0 1.2935 -568.41 863.72)" filter="url(#filter13003)" fill="#ff0700"/>
  <path id="path2455" d="m501.37 993.33c-40.17-7.03-62.63-21.75-174.05-78.35-10.77-4.79-21.06-6.76-38.17 0-22.18 10.44-5.57 45.96-35.98 45.02-13.36 0.04-160.95 0.34-171.24-1.17-15.831 0.78-13.566-30.21-12.946-72.92-0.62-42.72-2.885-73.71 12.946-72.92 10.29-1.52 157.88-1.22 171.24-1.18 30.41-0.94 13.8 34.59 35.98 45.02 17.11 6.77 27.4 4.79 38.17 0 111.42-56.59 133.88-71.31 174.05-78.34" stroke="#000" stroke-width="3.6681" fill="url(#linearGradient2474)"/>
 </g>
 <metadata>
  <rdf:RDF>
   <cc:Work>
    <dc:format>image/svg+xml</dc:format>
    <dc:type rdf:resource="http://purl.org/dc/dcmitype/StillImage"/>
    <cc:license rdf:resource="http://creativecommons.org/licenses/publicdomain/"/>
    <dc:publisher>
     <cc:Agent rdf:about="http://openclipart.org/">
      <dc:title>Openclipart</dc:title>
     </cc:Agent>
    </dc:publisher>
   </cc:Work>
   <cc:License rdf:about="http://creativecommons.org/licenses/publicdomain/">
    <cc:permits rdf:resource="http://creativecommons.org/ns#Reproduction"/>
    <cc:permits rdf:resource="http://creativecommons.org/ns#Distribution"/>
    <cc:permits rdf:resource="http://creativecommons.org/ns#DerivativeWorks"/>
   </cc:License>
  </rdf:RDF>
 </metadata>
</svg>
