<?xml version="1.0"?>
<svg xmlns:rdf="http://www.w3.org/1999/02/22-rdf-syntax-ns#" xmlns="http://www.w3.org/2000/svg" xmlns:cc="http://creativecommons.org/ns#" xmlns:dc="http://purl.org/dc/elements/1.1/" id="svg2" viewBox="0 0 1115.2 890.83" version="1.0">
 <g id="layer1" transform="translate(148.27 -31.498)">
  <g id="g6675">
   <g id="g6518" transform="translate(177.26,51.753)">
    <path id="path4790" fill="#323232" d="m-251.09 357.94c-3.78-0.43-8.05-1.25-9.5-1.82-1.44-0.56-4.65-1.54-7.12-2.17-2.48-0.63-6.3-2.36-8.5-3.84-2.2-1.49-4.84-3.02-5.85-3.41-1.89-0.72-3.54-1.91-11.82-8.49-8.01-6.36-17.58-18.85-22.78-29.7-5.33-11.14-5.83-12.79-7.2-23.5-1.94-15.26-2.05-17.4-1.04-20.91 0.57-1.98 1.53-7.19 2.13-11.59 1.97-14.36 13.95-34.35 26.75-44.63 7.62-6.12 13.53-10.29 17.19-12.13 11.82-5.93 12.39-6.71 13.42-18.09 1.69-18.7 0.15-51.38-2.57-54.4-2.33-2.59-3.12-6.92-1.82-10.04 1.33-3.21 7.45-6.69 14.44-8.21 5.81-1.27 21.56-1.54 30.74-0.53 5.73 0.63 7.21 1.25 11.25 4.7 5.33 4.56 5.89 7.35 2.72 13.54-3.61 7.08-5.59 42.08-3.11 55.29 2.51 13.43 1.28 11.87 14.55 18.39 11.19 5.5 12.72 6.62 22.75 16.65 5.92 5.91 11.44 12.26 12.27 14.1 0.83 1.85 1.92 4.03 2.42 4.86 1.62 2.65 4.86 10.32 7.2 17 1.89 5.43 2.33 9.1 2.65 22.32 0.34 14.19 0.16 16.56-1.84 23-1.96 6.33-5.54 14.4-11.19 25.24-2.21 4.25-12.32 15.05-17.74 18.94-2.29 1.65-6.35 4.66-9.01 6.7-14.06 10.76-35.94 15.46-59.39 12.73z"/>
    <path id="path4788" fill="#f5f5f5" d="m-215.71 351.12c9.03-3.42 18.96-5.89 25.69-13.33 8.66-5.79 15.63-14.02 21.76-22.4 7.35-11.48 11.25-25.11 12.35-38.61 0.06-8.66-0.16-17.62-3.68-25.67-2.78-12.76-10.06-24.4-19.42-33.45-5.67-6.21-12.36-11.29-19.59-15.31-7.89-2.51-18.13-6.57-18.75-16.24 0.18-6.43-1.62-12.88-9.39-8.95-10.3 2.42-21.16 1.59-31.12-1.8-6.97 3.78-0.46 16.94-9.54 20.73-11.24 3.63-19.75 12.52-29.49 18.85-7 8.67-14.21 17.6-17.9 28.21-6.52 14.2-6 30.51-4.04 45.67 3.68 13.23 8.85 26.64 19.13 36.17 6.45 6.99 13.42 13.59 21.49 18.62 7.9 4.82 17.32 6.59 26 9.73 11.81 0.38 24 1.11 35.53-1.91l0.97-0.31z"/>
    <path id="path4786" fill="#323232" d="m-220.71 329.52c0-1.32 11.42-7.51 13.86-7.51 1.68 0 13.79-12.39 15.64-16 3-5.86 6.7-10.2 7.78-9.12 1.14 1.14-1.8 6.37-7.47 13.25-2.1 2.56-3.81 5.13-3.81 5.72s-1.02 1.61-2.25 2.27c-1.24 0.66-2.7 1.8-3.25 2.54-1.2 1.59-6.04 4.46-13.28 7.86-6.12 2.87-7.22 3.02-7.22 0.99z"/>
    <path id="path4784" fill="#323232" d="m-295.16 292.09c-2.43-3.92-4.5-25.54-2.63-27.41 0.59-0.59 1.08-2.56 1.08-4.37 0-1.82 0.44-3.3 0.98-3.3 0.63 0 0.78 3.25 0.41 8.75-0.51 7.76-0.1 12.06 2.25 23.38 0.55 2.62-0.97 4.76-2.09 2.95z"/>
    <path id="path4782" fill="#323232" d="m-181.11 280.42c-1.21-3.15-0.68-5.58 1.15-5.23 2.26 0.43 3.12 6.82 0.92 6.82-0.8 0-1.73-0.72-2.07-1.59z"/>
    <path id="path4780" fill="#cbcbcb" d="m-222.97 169.69c0.76-0.76 1.82-4.94 2.35-9.29 1.76-14.39 2.9-30.56 2.46-31.75-13.2 3.37-28.84 4.97-41.54 0.84-0.96 1.16-1.09 5.36-0.53 17.92 0.59 13.43 1.06 16.96 2.6 19.5 7.93 9.09 24.72 6.55 34.66 2.78z"/>
    <path id="path4768" fill="#c9c9c9" d="m-227.33 125.2c5-0.88 9.08-2.29 12.34-6.72 3.05-4.14-4.71-6.25-7.32-8.19-2.82-2.1-29.22-1.68-33.73 0.65-1.78 0.92-8.59 5.47-8.59 6.29 0 1.36 7.08 7.96 13.92 9.31 6.73 1.33 18.81-0.53 23.38-1.34z"/>
    <path id="path4766" fill="#c9c9c9" d="m-248.38 115.44c-0.33-0.86-0.12-2.05 0.47-2.63 1.55-1.56 4.2-0.19 4.2 2.16 0 2.47-3.76 2.84-4.67 0.47z"/>
   </g>
   <g id="g6644" transform="translate(-263.76,-126.29)">
    <path id="path5166" fill="#323232" d="m1038.3 1048.1c-25.3-1.8-51.17-7.6-72.26-22.3-31.17-17.3-53.39-48.17-64.99-81.47-8.49-29.23-7.87-60.4-0.32-89.76-0.07-20.46-3.4-41.34 0.18-61.09-8.19-17.26-10.29-38.43-22.98-53.04-8.91-19.83 25.47-19.67 36.58-28.95 13.93-7.99 36.02-15.07 36.94 8.34 6.24 18.09 10.33 39.37 32.6 41.19 22.85 7.35 33.45-17.61 32.05-35.5-5.4-13.92-1.7-29.83-2.8-44.59-0.5-10.71 1-22.21-0.8-32.44-9-6.95-2.2-21.73 8.7-17.48 20.2 0.03 40.4 0.05 60.6 0.07 12.5 11.34 0.4 31.08 3.6 46.04-0.7 15.23 0.9 31.08-0.7 46-10 10.54 3.5 23.14 4.2 35.53 13.7 13.94 39.9 3.7 45.4-11.36 8.8-17.05 24.1-30.78 34.7-47.08 4.8-17.28 21.7-18.67 32.2-4.62 9.6 8.67 41.9 21.41 24.3 35.01-16.8 8.21-23.9 29.6-36.8 42.97-13.8 9.57-18.8 21.71-26.8 35.66 17.9 27.14 31.1 58.78 29.4 91.91 1.9 48.44-25.5 94.82-65.1 121.56-21 14.2-45.2 24.7-71 24.8-5.6 0.1-11.4 2-16.9 0.6z"/>
    <path id="path5164" fill="#f5f5f5" d="m1058.7 1043.1c16.6-3.5 34.2-5.2 48.6-15.1 19-8.4 33.9-23.6 47.8-38.62 29.1-35.28 40.2-85.38 25.6-129.12-4.1-16.36-12.7-31.05-22.2-44.81-6.1-12.68 16.4-25.24-2.8-33.28-10.8-6.73-24.4-26.16-37.6-13.36-11.4 8.84-30.8-0.24-36.4-12.3 1-18.38-16.2-24.38-31.7-21.8-12.1 0.52-33.1-3.6-32.8 14.6-1.6 15.78-23.46 22.64-36.6 16.25-15.5-12.94-24.51 8.81-24.98 21.89-0.91 18.75 10.27 35.09 16.16 52.22 12.15 25.77 21.52 52.6 32.82 78.76 11.9 29.3 23.4 58.61 36.2 87.57 9.4 13.9-10.1 33.8-23.3 21.5-10.1-10.4-12.5-25.6-18.66-38.18-6.38-13.99-12.18-28.75-18-43.11-8.62-19.27-16.43-38.89-24.55-58.34-4.99-12.26-10.46-24.34-15-36.77-9.03-13.89-9.48-33.86-24-44.22-19.6-6.45-13.41 21.94-10.28 32.86 2.33 17.61-8.48 33.6-7.5 51.22-1.95 25.99 4.51 52.11 16.33 75.09 12.26 23.21 31.72 42.35 53.71 56.55 15.85 8.8 32.75 16.2 51.05 18.3 12.5 3.2 25.2 4.1 38.1 2.2z"/>
    <path id="path5162" fill="#e7e7e7" d="m1034.5 1022c3-3.7 3.2-6.7 0.8-13.8-1.2-3.7-2.5-7.1-3-7.7-0.4-0.54-1.3-2.79-2-4.99s-1.8-4.9-2.5-6c-0.6-1.1-1.5-3.35-1.9-5s-1.7-5.03-2.8-7.5c-4.5-9.77-5.7-12.7-7.3-17.74-0.9-2.88-2.1-5.5-2.6-5.81-0.5-0.32-0.9-1.25-0.9-2.08 0-0.82-1.1-3.83-2.4-6.69-5.7-12.59-6.6-14.72-6.6-15.74 0-0.59-1.2-3.63-2.6-6.76-4.55-9.93-5.41-11.97-5.41-12.73 0-0.4-0.88-2.59-1.96-4.85-1.07-2.26-3.59-8.6-5.6-14.1-2-5.5-3.99-10.45-4.42-11s-1.11-2.13-1.51-3.5c-0.68-2.38-2.45-6.53-6.57-15.5-5.11-11.13-6.94-15.48-6.94-16.49 0-0.62-0.97-3.01-2.15-5.32-5.03-9.85-5.85-11.66-5.85-12.83 0-0.68-0.87-3.06-1.94-5.3-7.04-14.81-7.19-15.37-7.26-28.56-0.06-11.03 0.24-13.37 2.53-19.83 1.43-4.03 3.5-8.79 4.6-10.58l2.01-3.24-3.39-9.43c-3.22-8.94-5.04-13.61-7.97-20.42-0.7-1.65-1.86-4.47-2.56-6.25-0.69-1.79-1.36-3.25-1.48-3.25-1.02 0-12.81 4.25-15.11 5.45-1.61 0.84-3.61 1.54-4.43 1.55-0.83 0-2.85 0.9-4.5 2-1.65 1.09-3.55 1.98-4.22 1.99-1.45 0.01-26.39 10.87-27.66 12.05-0.86 0.8 5.16 20.09 7.79 24.96 0.75 1.37 1.67 4.07 2.06 6 0.38 1.92 1.5 5.3 2.49 7.5 0.98 2.2 2.81 6.92 4.06 10.5 1.26 3.57 2.57 6.83 2.92 7.23 0.34 0.4 3.02 1.19 5.94 1.74 8.97 1.7 15.58 8.96 20.98 23.03 1.8 4.67 4.09 10.3 5.1 12.5 1 2.2 2.16 5.12 2.57 6.5 0.41 1.37 1.58 4.06 2.61 5.98 1.02 1.92 1.86 4.1 1.86 4.85 0 0.74 0.64 2.55 1.43 4.01 2.83 5.25 6.39 13.73 7.49 17.86 0.62 2.32 1.52 4.45 1.99 4.74 0.48 0.3 1.17 1.78 1.53 3.3 0.37 1.51 1.6 4.78 2.74 7.26 4.38 9.56 5.65 12.58 6.33 15 0.38 1.37 1.25 3.4 1.94 4.5 0.68 1.1 1.82 3.8 2.52 6 0.71 2.2 1.87 5.12 2.58 6.5 2.34 4.52 5.23 11.43 6.48 15.5 0.67 2.2 1.81 5.12 2.53 6.5 2.89 5.54 6.25 13.68 6.89 16.68 0.37 1.75 1.27 3.67 2.01 4.28 0.73 0.61 1.61 2.62 1.96 4.47 0.34 1.85 1.29 3.91 2.1 4.59 0.81 0.67 1.48 1.87 1.48 2.66s1.11 3.9 2.51 6.91c1.4 3 2.5 5.76 2.5 6.12s0.9 2.71 2.1 5.22c5.3 11.26 5.9 12.76 5.9 13.46 0 0.4 1.3 3.6 2.9 7.1 3.5 7.6 6.6 9.7 13 9.1 3.1-0.3 5.1-1.1 6.3-2.6z"/>
    <path id="path5156" fill="#cbcbcb" d="m1185.6 768.76c3.1-6.94 27.5-32.5 28.3-40.48-0.8-2.31-9.7-9.27-12-9.27-0.9 0-1.6-0.44-1.6-0.97 0-2.89-19.4-18.24-22.5-17.81-2 0.28-5.8 4.71-20.8 23.97-13.9 17.82-15.7 20.24-15.7 21.37 9.4 15.8 20.6 23.35 37.6 30.41 0.5 0.01 3.6-3.24 6.7-7.22z"/>
    <path id="path5134" fill="#323232" d="m1074.2 727.87c1.2-1.25 2-2.74 1.8-3.32-0.5-1.55-7.5-1.86-10.9-0.48-2.4 1-3.2 0.93-4.7-0.43-2.3-2.12-5.8-2.09-7 0.05-0.8 1.57-1 1.57-2.6 0-2.3-2.3-9.1-2.26-10.4 0.07-0.8 1.32-1.3 1.44-1.9 0.5-1.1-1.62-15.7-2.92-16.6-1.47-0.3 0.57 0.5 2.35 1.8 3.94l2.4 2.9 23 0.26c22.8 0.26 23 0.24 25.1-2.02z"/>
    <path id="path5130" fill="#cbcbcb" d="m1054.6 719.39c18.3-0.06 24-1.8 25.2-3.03 1.3-1.27 1.5-6.34 1.5-32.68 0-17.14-0.4-31.67-0.8-32.28-2-3.03-5.5-3.39-32.5-3.39-23.8 0-27.6 0.2-28.8 1.58-1 1.23-1.3 8.7-1.4 33.71v32.13l8.3 4.94c11.4-1.4 15.1-0.99 28.5-0.98z"/>
   </g>
   <g id="g6536" transform="translate(-326.01,-14.378)">
    <path id="path4896" fill="#323232" d="m665.29 423.38c-22.9-4.43-45.08-14.86-60.4-32.88-10.56-11.74-18.65-26.36-22.28-41.76-6.99-31.31 0.23-67.12 24.34-89.42 9.84-15.53 31.82-17.35 39.5-34.03 4.11-27.43 0.29-55.49 3.31-83.02 6.55-13.4-0.18-28.65 0.6-42.953 1.28-14.382-5.21-28.135-3.78-42.147 9.13-14.205 28.83-12.518 42.93-8.312 13.24 0.556 26 15.557 15.33 28.946-3.41 17.925-2.09 36.366-4.21 54.456 1.93 6.26 8.02 10.84 6.25 17.99 0.54 25.5 0.2 51.05 2.09 76.49 3.42 15.12 21.71 16.71 31.03 26.97 20.78 17.15 34.32 42.58 35.69 69.61 1.38 25.21-6.03 51.39-24.12 69.63-19.95 23-52.04 34.85-82.21 31.24l-2.13-0.36-1.94-0.45z"/>
    <path id="path4894" fill="#f5f5f5" d="m698.29 418.52c19.22-4.37 37.1-14.8 50.38-29.23 9.55-11.67 17.01-24.94 20.54-39.7 4.59-20.34 2.16-42.48-7.93-60.89-7.28-15-19.01-27.95-32.63-37.41-9.86-4.66-20.96-9.63-24.15-21.14-2.62-28.01-0.54-56.32-3.21-84.35-4.38-13.1-20.27-4.03-30.18-6.86-8.45-4.52-18.91-1.36-17.11 10.16-1.35 26.1 0.13 52.35-2.23 78.37-3.79 12.6-17.46 16.19-27.14 22.72-9.94 5.25-15.92 15-23.22 23.16-8.57 11.42-13.39 25.43-16.33 39.24-3.76 26.98 5.35 55.17 24.13 74.87 10.04 9.7 20.73 20.64 34.71 23.97 9.31 4.94 20.31 7.33 30.76 8.74 7.87 0.3 15.93 0.31 23.61-1.65z"/>
    <path id="path4892" fill="#323232" d="m714.97 394.3c-0.29-0.47 2.86-3.52 7-6.78s8.72-7.18 10.17-8.72c3.09-3.27 4.15-3.51 4.15-0.91 0 1.03-1.92 3.56-4.25 5.62-2.34 2.06-5.96 5.26-8.04 7.12s-4.18 3.38-4.67 3.38c-0.48 0-1.55 0.25-2.36 0.56-0.82 0.32-1.72 0.19-2-0.27z"/>
    <path id="path4890" fill="#323232" d="m733.29 368.2c0-1.05 1.86-5.29 5.25-11.98 1.51-2.98 2.75-6.3 2.75-7.38s0.55-2.95 1.23-4.15c0.69-1.2 1.7-4.88 2.25-8.18 0.56-3.3 1.47-6 2.02-6 1.34 0 1.89 5.31 0.7 6.81-0.52 0.65-1.25 3.6-1.62 6.54-0.92 7.23-3.12 13.59-6.88 19.9-2.72 4.56-5.7 6.89-5.7 4.44z"/>
    <path id="path4888" fill="#323232" d="m609.07 364.26c-1.54-3.64-4.3-6.63-5.34-10.5-3.53-10.75-5.31-22.09-5.41-33.4-0.19-5.41 1.76-10.52 3.09-15.67 2.31-4.45 2.65 2.95 1.88 4.82-0.81 3.83-1.76 7.65-1.65 11.6-0.02 6.59-0.14 13.3 1.3 19.76 2.42 4.06 2.4 9.19 5.38 12.97 1.38 3.5 2.27 7.17 4.74 10.06 1.15 4.27-3.12 3.52-3.99 0.36z"/>
    <path id="path4886" fill="#323232" d="m744.29 362.03c0-1.17 0.92-4.01 2.06-6.32 1.13-2.31 2.87-8.03 3.85-12.7 0.98-4.68 2.19-8.28 2.68-8 1.26 0.69 1 9.86-0.37 13.5-0.62 1.65-1.96 5.69-2.97 8.99-1.2 3.89-2.44 6.11-3.55 6.32-1.17 0.23-1.7-0.33-1.7-1.79z"/>
    <path id="path4884" fill="#323232" d="m732.79 329.21v-15.79l-4.38-8.66c-4.06-8.06-4.73-11.75-2.1-11.75 0.59 0 1.69 1.46 2.44 3.25 0.75 1.78 1.69 3.57 2.09 3.98 0.41 0.4 1.62 3.1 2.69 6 1.46 3.94 2.08 8.85 2.46 19.5 0.54 14.87 0.09 19.27-1.97 19.26-0.93 0-1.23-3.95-1.23-15.79z"/>
    <path id="path4882" fill="#323232" d="m657.79 179.08c-0.76-10.65-0.46-12.07 2.55-12.07 1.81 0 1.95 0.77 1.95 11 0 10.12-0.15 11-1.9 11-1.68 0-1.97-1.11-2.6-9.93z"/>
    <path id="path4880" fill="#323232" d="m693.29 165.31c0-3.45-0.59-6.7-1.43-7.89-1.71-2.45-0.6-4.76 2.05-4.25 1.66 0.32 1.88 1.34 1.88 8.77 0 5.83-0.39 8.53-1.25 8.82-0.91 0.3-1.25-1.2-1.25-5.45z"/>
    <path id="path4878" fill="#cbcbcb" d="m691.67 133.5c1.95 0.89-4.44 1.54-1.31 0.6 5.87-1.76 6.53-4.15 7.48-27.09 1-24.187 0.99-24.642-0.41-26.329-19.52 5.469-32.42-1.413-39.64-2.019-2.99-0.156-3.01-0.136-3.28 5.843-0.31 6.975 1.98 40.665 3 45.795 10.26 6.71 26.71 3.09 34.16 3.2z"/>
    <path id="path6534" d="m698.75 63.461a22.5 11.581 0 1 1 -45 0 22.5 11.581 0 1 1 45 0z" transform="matrix(1.0588,0,0,1.0286,-38.456,-1.4823)" fill="#cbcbcb"/>
   </g>
   <g id="g6559" transform="translate(1034.9,-539.2)">
    <path id="path4964" fill="#323232" d="m-259.96 948.99c-11.5-1.94-21.77-6.6-31.83-12.28-16.91-9.22-29.38-25.09-38.55-41.7-10.32-21.09-11.5-46.17-5.84-68.7 4.77-15.84 13.75-29.84 25.03-41.81 8.52-7.81 18.09-15.88 29.21-19.71 9.63-8.11 12.45-23.27 11.51-35.52-1.27-13.8-1.75-27.71-3.91-41.41-8.66-12.75 9.56-21.14 20.12-20.91 12.59-0.78 30.27-1.11 36.23 12.55-4.21 19.71-4.75 40.16-4.41 60.26 4.71 6.02 4.25 25.63 15.05 13.52 11.98-4.99 15.55-17.4 22.32-27.33 6.04-10.43 13.04-20.29 18.12-31.18 9.86-8.47 25.81-0.03 35.07 6.3 10.68 6.99 20.83 23.19 5.89 31.66-10.56 14.88-23.94 27.84-32.97 43.74-4.79 10.37-7.3 19.86 1.72 28.77 13.61 23.07 15.76 51.83 8.93 77.44-5.26 16.68-15.42 31.59-28.84 42.85-9.38 8.07-18.72 15.2-30.42 19.25-16.56 6.27-35.07 4.99-52.43 4.21z"/>
    <path id="path4962" fill="#f5f5f5" d="m-221.03 943.89c11.63-3.32 23.39-7.21 32.79-15.17 11.37-9.61 22.3-20.36 29.93-33.25 4.56-8.95 5.68-19.15 8.84-28.6 1.3-15.54 0.15-31.53-4.42-46.47-4.59-6.97-7.32-14.74-11.56-21.9-8.67-6.74 5.33-20.22-3.56-24.06-11.42-3.88-19.57-13.43-29-20.43-7.58 1.3-15.76 16.81-22.97 8.55 0.22-10.44-4.68-20.51-16.34-14.74-10.08 0.8-20.2 0.42-30.3 0.48-2.27 7.43-2.17 15.93-10.51 19.67-11.59 5.9-22.88 12.98-31.66 22.79-12.38 11.76-19.82 27.75-23.61 44.21-6.28 26.75 2.49 55.49 19.44 76.57 6.62 9.22 16.51 15.54 25.81 21.79 8.42 5.29 17.9 7.96 27.34 10.88 12.96 2.54 26.77 1.42 39.78-0.32z"/>
    <path id="path4960" fill="#323232" d="m-182.08 916.76c0.41-0.69 3.41-4.24 6.66-7.89s6.42-7.5 7.06-8.57c3.82-6.44 7.24-11.29 7.96-11.29 1.18 0-0.16 4.04-2.4 7.2-1.05 1.49-1.91 3-1.91 3.36 0 0.82-9.15 12.08-12.76 15.68-2.78 2.79-6.02 3.84-4.61 1.51z"/>
    <path id="path4958" fill="#323232" d="m-216.05 914.34c-1.88-1.89-0.44-3.33 3.34-3.33 2.75 0 4 0.43 4 1.39 0 2.15-5.64 3.64-7.34 1.94z"/>
    <path id="path4956" fill="#323232" d="m-193.71 899.01c0-0.91 0.72-1.83 5.54-7.09 0.8-0.87 1.46-1.93 1.46-2.35 0-0.43 1.12-2.11 2.5-3.75 1.37-1.63 2.5-3.74 2.5-4.69 0-1.79 1.81-4.12 3.2-4.12 1.56 0 0.77 4.03-1.18 5.97-1.08 1.09-2.26 3.12-2.61 4.53-0.36 1.4-1.49 3-2.53 3.56-1.04 0.55-1.88 1.47-1.88 2.05 0 1.08-5.42 6.89-6.43 6.89-0.31 0-0.57-0.45-0.57-1z"/>
    <path id="path4954" fill="#323232" d="m-177.07 872.24c-0.84-1.36 0.98-6.23 2.33-6.23 1.46 0 1.27 3.28-0.32 5.46-0.86 1.16-1.59 1.45-2.01 0.77z"/>
    <path id="path4952" fill="#323232" d="m-173.71 850.51c0-3.67 0.43-6.5 1-6.5 0.56 0 1 2.83 1 6.5 0 3.66-0.44 6.5-1 6.5-0.57 0-1-2.84-1-6.5z"/>
    <path id="path4950" fill="#323232" d="m-312.1 821.19c-0.77-1.24 7.86-14.1 11.8-17.6 5.33-4.73 9.29-7.58 10.49-7.58 1.96 0 1.15 2.89-1.15 4.13-3.06 1.63-13.75 11.91-13.75 13.21 0 1.43-5.08 8.66-6.08 8.66-0.44 0-1.03-0.37-1.31-0.82z"/>
    <path id="path4948" fill="#cbcbcb" d="m-128.3 724.91c-18.4-4.44-22.5-9.12-32.37-16.33-2.89-4.68-5.43-4.62-8.06 0.18-6.6 14.08-19.11 26.08-23.98 40.89 3.63 6.53 20.87 19.34 28.62 20.29 13.48-7.66 28.16-32.59 35.79-45.03z"/>
    <path id="path4936" fill="#cbcbcb" d="m-233.21 741.92c1.81-0.88 3.28-2.57 3.81-4.42 0.47-1.65 1.24-4.34 1.7-5.99 1.5-5.3 2.4-40.3 1.09-41.88-1-1.2-2.38-0.17-6.68 0.57-6.67 1.15-22.83-0.02-28.79-0.35l-6.13-0.34 0.19 8c0.21 8.71 2.1 35.04 2.9 40.23 0.43 2.83 1.08 3.42 5.2 4.74 5.83 1.87 22.35 1.52 26.71-0.56z"/>
    <path id="path6554" fill="#cbcbcb" d="m-223.42 678.75a24.085 7.2007 0 1 1 -48.17 0 24.085 7.2007 0 1 1 48.17 0z"/>
    <path id="path6556" d="m-109.23 685.95a24.08 11.419 0 1 1 -48.16 0 24.08 11.419 0 1 1 48.16 0z" transform="matrix(.84536 .38229 0 .76533 -30.297 233.28)" fill="#cbcbcb"/>
   </g>
   <g id="g6602" transform="translate(-195.48,-48.519)">
    <path id="path5050" fill="#323232" d="m134.79 969.97c-13.39-1.65-26.12-6.74-36.524-15.36-16.28-11.07-27.999-29.21-31.165-48.66-1.121-23.14 1.362-46.38-0.241-69.47-4.973-14.44-0.122-29.78-1.845-44.63-0.906-12.48-0.212-25.4-4.608-37.25-1.366-12.84 15.333-15.26 24.961-14.96 10.491-0.06 22.462-0.9 30.562 6.95 6.72 4.92 0.59-11.07 0.43-14.67-3.1-12.8 12.19-16.52 21.87-16.81 14.7-0.32 30.78-1.92 44.24 5.14 7.74 8.56 0.54 21.47 0.51 31.7-2 16.22-4.5 32.43-5.42 48.75 3.82 4.19 1.05 20.8 7.86 17.76 7.95-7.91 8.74-18 6.8-28.49-0.64-12.98-3.19-25.84-3.48-38.8 2.22-11.93 18.31-9.1 27.55-10.93 10.02 0.63 26.43-0.33 29.01 12.17-4.08 16.42-4.43 33.71-5.04 50.63 1.43 11.68 0.95 23.51-5.25 33.84-7.05 19.72-6.01 40.77-7.84 61.29-0.95 14.77-5.45 29.46-15.11 40.88-6.03 10.17-16.14 17.03-26.17 22.9-15.71 7.64-33.81 10.44-51.1 8.02z"/>
    <path id="path5048" fill="#f5f5f5" d="m168.74 963.49c12.01-3.95 23.71-9.83 32.28-19.33 6.54-5.88 11.48-13.16 14.76-21.31 5.59-12.32 8.06-25.81 7.87-39.31 0.22-18.79 2.02-37.83 9.16-55.39 1.81-5.37 1.94-11.04 1.98-16.65-10.36 1.55-20.96 1.35-31.34 0.2-9.52-5.98-11.01 9.75-16.78 13.99-10.94 2.83-10-9.74-11.38-16.67-3.68-8.38-14.55-1.36-21.56-3.23-8.43-0.09-16.95-0.45-25.19-2.1-5.89 4.54-2.71 20.1-13.69 17.95-4.63-2.1-5.32-7.75-7.26-11.95-12.198 0.03-24.399 0.06-36.6 0.09-1.946 4.89-3.456 10.18-0.791 15.19 3.091 21.45 2.002 43.24 0.708 64.79-0.279 10.52 0.665 21.31 5.461 30.83 4.336 10.96 13.118 19.51 21.108 27.92 8.374 8.18 20.034 11.75 30.934 15.27 13.12 3.71 27.32 4.08 40.33-0.29z"/>
    <path id="path5046" fill="#323232" d="m155.49 952.81c-2.98-2.98 0.11-5.74 8.69-7.79 2.97-0.71 6.57-1.9 8-2.64 3.33-1.74 4.11-1.72 4.11 0.11 0 0.81-1.24 1.74-2.75 2.06-1.52 0.31-3.43 1-4.25 1.52-0.83 0.52-2.52 1.38-3.75 1.91-1.24 0.54-2.25 1.84-2.25 2.89 0 3-5.41 4.33-7.8 1.94z"/>
    <path id="path5044" fill="#323232" d="m185.29 939.54c0-0.81 0.91-1.95 2.03-2.55 1.11-0.6 4.55-3.53 7.63-6.52 4.8-4.65 5.42-5.65 4.32-6.99-1.08-1.3-0.96-2.01 0.7-4.27 1.1-1.49 2.76-4.17 3.69-5.95 0.92-1.79 2.12-3.25 2.65-3.25 1.29 0 1.26 3.7-0.03 4.5-1.96 1.21-4.79 8.3-3.73 9.36 1.29 1.29-3.57 7.53-10.18 13.07-5.13 4.29-7.08 5.01-7.08 2.6z"/>
    <path id="path5042" fill="#323232" d="m89.957 926.76c-3.631-4.46-7.11-11.65-6.116-12.64 0.636-0.64 3.958 3.21 5.515 6.39 0.54 1.1 2.094 3.52 3.455 5.39 4.702 6.46 2.297 7.18-2.854 0.86z"/>
    <path id="path5040" fill="#323232" d="m207.29 907.56c0-0.24 0.45-0.72 1-1.05 0.55-0.34 1-0.15 1 0.44 0 0.58-0.45 1.06-1 1.06s-1-0.2-1-0.45z"/>
    <path id="path5038" fill="#323232" d="m219.29 849.01c0-2.75 0.45-5 1-5s1 2.25 1 5-0.45 5-1 5-1-2.25-1-5z"/>
    <path id="path5036" fill="#323232" d="m220.29 841.06c0-0.51 0.45-1.22 1-1.55 0.55-0.34 1 0.08 1 0.94 0 0.85-0.45 1.56-1 1.56s-1-0.43-1-0.95z"/>
    <path id="path5034" fill="#323232" d="m227.29 825.56c0-1.5 1.79-3.09 2.59-2.3 0.69 0.7-0.69 3.75-1.7 3.75-0.49 0-0.89-0.65-0.89-1.45z"/>
    <path id="path5032" fill="#323232" d="m132.95 813.34c-0.36-0.37-0.66-1.49-0.66-2.5 0-1.53 0.81-1.83 5-1.83 4.66 0 5 0.16 5 2.5 0 2.28-0.38 2.5-4.34 2.5-2.38 0-4.63-0.3-5-0.67z"/>
    <path id="path5030" fill="#fff" d="m119.19 812.86c0.6-1.74 1.1-4.11 1.1-5.27s0.8-3.68 1.78-5.6c1.91-3.73 1.81-8.17-0.77-32.98-1.25-12.01-1.59-13.39-3.07-12.47-2.82 1.74-4.56 9.78-6.65 30.7l-1.57 15.74 3.34 6.51c1.84 3.58 3.66 6.52 4.04 6.52 0.39 0 1.19-1.42 1.8-3.15z"/>
    <path id="path5028" fill="#cbcbcb" d="m232.8 804c2.12-2.57 2.09-6.1 2.51-9.24 0.56-7.37 1.24-14.73 1.75-22.1-0.04-1.88 0.25-4.17-1.21-5.6-1.88-1.1-3.92 0.5-5.85 0.67-6.11 1.22-9.14 0.81-15.34 1.33-2.15 0.19-7.2 0.53-8.9-0.63-2.56-1.1-5.43-1.99-8.24-1.55-2.16 0.51-2.16 3.2-2.02 4.96 0.92 7.75 1.48 15.55 2.29 23.31 0.43 2.87 0.58 5.86 1.67 8.56 3.03 2.51 7.11 3.06 10.88 3.59 6.29 0.63 12.81 0.59 18.89-1.32 1.28-0.45 2.58-1.02 3.57-1.98z"/>
    <path id="path5022" fill="#cbcbcb" d="m97.92 805.16c9.35-3.19 8.01-4.75 8.81-23.97 0.56-13.59 0.5-14.23-1.23-13.3-13.928 4.17-23.919 1.74-32.928-1.14-2.7-0.66-4.553 1.22-3.244 3.29 0.51 0.81 0.934 7.83 0.942 15.6 0.014 12.49 0.242 14.42 1.951 16.5 7.184 3.22 16.302 6.04 25.699 3.02z"/>
    <path id="path5008" fill="#cbcbcb" d="m169.02 799.34c1.94-0.81 3.42-2.25 3.7-3.59 1.42-6.82 4.36-33.64 4.72-43.06 0.29-7.81-0.6-8.99-6.15-8.08-10.67 5.76-24.22 3.54-39.05 0.03-8.13-2.14-8.46-1.55-7.05 12.52 0.62 6.24 1.58 16.97 2.12 23.85 0.54 6.87 1.22 13.53 1.51 14.79 6.1 4.46 26.52 7.52 40.2 3.54z"/>
    <path id="path4966" fill="#323232" d="m180.09 729.81c1.86-1.87 1.42-4.54-1.03-6.25-3.32-2.33-3.77-1.97-3.77 2.95 0 3.66 0.33 4.5 1.8 4.5 0.99 0 2.34-0.54 3-1.2z"/>
    <path id="path6596" d="m75.505 758.88a21.124 7.1912 0 1 1 -42.247 0 21.124 7.1912 0 1 1 42.247 0z" transform="matrix(1.0426,0,0,1.1875,31.843,-146.78)" fill="#cbcbcb"/>
    <path id="path6598" fill="#cbcbcb" d="m178.43 730.12a27.42 11.687 0 1 1 -54.84 0 27.42 11.687 0 1 1 54.84 0z"/>
    <path id="path6600" fill="#cbcbcb" d="m238.65 754.61a22.247 7.8651 0 1 1 -44.49 0 22.247 7.8651 0 1 1 44.49 0z"/>
   </g>
   <g id="g6662" transform="translate(-219.08,-57.083)">
    <path id="path5112" fill="#323232" d="m548.79 978.96c-18.59-2.84-36.72-10.4-50.34-23.61-8.9-7.46-15.59-17.92-19.8-28.83-6.2-17.29-7.06-36.75-2.55-54.53 4.76-10.34 2.05-22.05-2.73-31.81-3.29-11.54-4.4-23.63-9.97-34.48-3.95-10.78-10.04-20.69-13.84-31.43 1.26-15.2 20.68-19.49 33-22.7 13.06-4.18 25.73 3.66 23.86 18.17 3.33 13.23 3.73 27.14 8.47 40.02 5.85 4.41 6.01 21.77 13.36 18.9-1.02-12.34 1.49-24.31 2.43-36.22-2.42-18.91-3.01-38.17-8.24-56.59-0.2-13.98 15.6-15.79 26.3-15.69 15.28-0.06 34.01-1.17 44.81 11.73-2.65 27.68-8.27 55.68-3.66 83.42 2.88 3.85-3.85 19.2 4.53 14.07 1.3-11.98 10.98-19.59 15.24-30.18 4.1-13.19 7.13-26.71 10.68-40 8.25-10.72 22.53-3.58 32.72-0.22 11.03 4.68 27.15 16.45 17.87 29.75-7.96 12.11-15.82 24.47-22.09 37.51-2.06 11.55-6.78 22.23-10.64 33.2 0.27 12.47 5.8 25.03 4.47 38.01 0.35 12.14-2.45 24.29-7.49 35.12-6.05 11.26-13.83 21.81-24.22 29.54-17.41 13.49-40.45 18.91-62.17 16.85z"/>
    <path id="path5110" fill="#f5f5f5" d="m571.79 973.92c16.18-3.64 32.26-10.32 43.75-22.66 15.46-15.56 24.3-37.98 22.57-59.91-0.13-10.18-5.87-19.3-5.12-29.49-0.19-9.69 6.1-17.71 8.31-26.84 6.3-11.08-10.74-6.3-15.67-10.92-7.19-0.64-13.52-13.53-19.85-7.77-5.42 5.78-4.32 15.45-11.07 20.07-10.87 4.17-10.05-9.68-9.88-16.56 0.06-5.8 0.6-17.99-7.58-10.88-11.86 0.86-23.86 0.8-35.73 0.02-8.83-8.07-10.24 7.21-7.92 13.36 3.37 7.8-3.71 17.22-12.02 12.59-4.93-4.45-5.49-12.49-8.4-18.5-7.64-1.58-15.35 6.85-23.67 7.18-7.38 0.28-17.96 2.18-11.86 11.75 2.09 8.93 7.36 17.16 5.61 26.75-0.62 8.79-5.13 16.8-5.24 25.71-1.5 14.23 1.01 28.79 7.27 41.6 3.67 6.56 7.86 13.17 13.26 18.69 7.17 8.25 15.97 15 26.15 19.1 14.47 7.19 31.2 9.08 47.09 6.71z"/>
    <path id="path5108" fill="#323232" d="m594.29 948.52c0-0.82 1.72-2.58 3.83-3.91 5.72-3.61 14.78-14.14 18.09-21.02 5.27-10.97 6.12-13.84 6.75-22.76 0.47-6.67 0.97-8.82 2.05-8.82 2.97 0-0.17 26.21-3.65 30.4-0.59 0.72-1.64 2.92-2.33 4.89-3.34 9.58-24.74 27.94-24.74 21.22z"/>
    <path id="path5106" fill="#323232" d="m520.54 944.78c-1.24-0.59-2.25-1.91-2.25-2.93 0-2.13 1.22-2.32 4.31-0.7 5.64 2.97 3.69 6.41-2.06 3.63z"/>
    <path id="path5104" fill="#323232" d="m498.97 912.26c-2.33-7.9-3.24-15.25-1.88-15.25 1.58 0 2.01 1.02 3.8 9.13 0.89 4.05 1.85 8.38 2.13 9.62 0.33 1.51 0.03 2.25-0.93 2.25-0.87 0-2.08-2.23-3.12-5.75z"/>
    <path id="path5102" fill="#cbcbcb" d="m645.5 819.3c1.53-1.47 2.79-3.06 2.79-3.53 3.58-7.18 7.01-14.71 11.9-21.15 0.72-0.87 1.09-2.19 0.81-2.92-10.88-3.21-23.11-5.54-33.17-13.29-6.28-3.05-7-2.42-8.97 7.88-1.09 8.46-6.15 16.03-5.56 24.74 6.64 6.84 23.65 14.96 32.2 8.27z"/>
    <path id="path5092" fill="#cbcbcb" d="m504.58 812.06c1.57-1.27 1.72-2.59 1.21-11-0.73-12.16-2.92-25.87-4.37-27.32-7.17 5.74-21.45 8.73-30.9 9.81-3.96 0.39-7.64 1.24-8.17 1.88 0.33 6.56 4.41 13.24 6.62 19.57 2.99 8.87 5.75 13.16 7.91 12.33 7.56 3.13 20.39 0.14 27.7-5.27z"/>
    <path id="path5082" fill="#cbcbcb" d="m572.99 804.87c8.19-1.56 8.99-3.54 10.86-26.75 0.85-10.51 1.41-21.25 1.24-23.86-0.28-4.33-0.54-4.78-3-5.07-1.49-0.17-3.66 0.2-4.83 0.83-3.03 1.62-23.79 2.29-29.1 0.94-10.67-2.73-14.92-3.31-16.04-2.19-0.8 0.8-0.8 4.16 0 12.42 2.29 23.57 4.2 36.97 5.66 39.81 4.48 5.75 28.83 5.02 35.21 3.87z"/>
    <path id="path6624" fill="#cbcbcb" d="m586.14 735.85a27.532 9.7842 0 1 1 -55.06 0 27.532 9.7842 0 1 1 55.06 0z"/>
    <path id="path6626" d="m503.77 754.06a24.575 11.605 0 1 1 -49.15 0 24.575 11.605 0 1 1 49.15 0z" transform="matrix(.93519 -.18181 0 .98175 30.377 113.85)" fill="#cbcbcb"/>
    <path id="path6628" d="m675.34 741.09a26.17 13.199 0 1 1 -52.34 0 26.17 13.199 0 1 1 52.34 0z" transform="matrix(.84348 .31188 0 .86219 99.334 -70.521)" fill="#cbcbcb"/>
   </g>
  </g>
 </g>
 <metadata>
  <rdf:RDF>
   <cc:Work>
    <dc:format>image/svg+xml</dc:format>
    <dc:type rdf:resource="http://purl.org/dc/dcmitype/StillImage"/>
    <cc:license rdf:resource="http://creativecommons.org/licenses/publicdomain/"/>
    <dc:publisher>
     <cc:Agent rdf:about="http://openclipart.org/">
      <dc:title>Openclipart</dc:title>
     </cc:Agent>
    </dc:publisher>
   </cc:Work>
   <cc:License rdf:about="http://creativecommons.org/licenses/publicdomain/">
    <cc:permits rdf:resource="http://creativecommons.org/ns#Reproduction"/>
    <cc:permits rdf:resource="http://creativecommons.org/ns#Distribution"/>
    <cc:permits rdf:resource="http://creativecommons.org/ns#DerivativeWorks"/>
   </cc:License>
  </rdf:RDF>
 </metadata>
</svg>
