<?xml version="1.0" encoding="UTF-8" standalone="no"?>
<!-- Created with Inkscape (http://www.inkscape.org/) -->
<svg
   xmlns:dc="http://purl.org/dc/elements/1.1/"
   xmlns:cc="http://creativecommons.org/ns#"
   xmlns:rdf="http://www.w3.org/1999/02/22-rdf-syntax-ns#"
   xmlns:svg="http://www.w3.org/2000/svg"
   xmlns="http://www.w3.org/2000/svg"
   xmlns:sodipodi="http://sodipodi.sourceforge.net/DTD/sodipodi-0.dtd"
   xmlns:inkscape="http://www.inkscape.org/namespaces/inkscape"
   width="1361.7122"
   height="1084.1801"
   id="svg2"
   sodipodi:version="0.32"
   inkscape:version="0.46"
   sodipodi:docname="rundkolben.svg"
   inkscape:output_extension="org.inkscape.output.svg.inkscape"
   version="1.0">
  <defs
     id="defs4">
    <inkscape:perspective
       sodipodi:type="inkscape:persp3d"
       inkscape:vp_x="0 : 526.18109 : 1"
       inkscape:vp_y="0 : 1000 : 0"
       inkscape:vp_z="744.09448 : 526.18109 : 1"
       inkscape:persp3d-origin="372.04724 : 350.78739 : 1"
       id="perspective10" />
    <inkscape:perspective
       id="perspective4720"
       inkscape:persp3d-origin="372.04724 : 350.78739 : 1"
       inkscape:vp_z="744.09448 : 526.18109 : 1"
       inkscape:vp_y="0 : 1000 : 0"
       inkscape:vp_x="0 : 526.18109 : 1"
       sodipodi:type="inkscape:persp3d" />
  </defs>
  <sodipodi:namedview
     id="base"
     pagecolor="#ffffff"
     bordercolor="#666666"
     borderopacity="1.0"
     gridtolerance="10000"
     guidetolerance="10"
     objecttolerance="10"
     inkscape:pageopacity="0.0"
     inkscape:pageshadow="2"
     inkscape:zoom="0.6205423"
     inkscape:cx="679.24459"
     inkscape:cy="542.09003"
     inkscape:document-units="px"
     inkscape:current-layer="layer1"
     showgrid="false"
     inkscape:window-width="1280"
     inkscape:window-height="1000"
     inkscape:window-x="0"
     inkscape:window-y="0" />
  <metadata
     id="metadata7">
    <rdf:RDF>
      <cc:Work
         rdf:about="">
        <dc:format>image/svg+xml</dc:format>
        <dc:type
           rdf:resource="http://purl.org/dc/dcmitype/StillImage" />
      </cc:Work>
    </rdf:RDF>
  </metadata>
  <g
     inkscape:label="Layer 1"
     inkscape:groupmode="layer"
     id="layer1"
     transform="translate(325.52714,32.962532)">
    <g
       id="g6675">
      <g
         transform="translate(177.2643,51.752689)"
         id="g6518">
        <path
           style="fill:#323232"
           d="M -251.08617,357.94443 C -254.86571,357.50567 -259.14071,356.68586 -260.58617,356.12263 C -262.03164,355.5594 -265.23929,354.58141 -267.71429,353.94932 C -270.18929,353.31723 -274.01429,351.58743 -276.21429,350.10531 C -278.41429,348.62319 -281.04702,347.09107 -282.06481,346.70059 C -283.94858,345.97789 -285.60317,344.78939 -293.8813,338.21276 C -301.88889,331.85107 -311.46284,319.364 -316.65848,308.50502 C -321.98707,297.3682 -322.49182,295.72044 -323.8571,285.00502 C -325.80038,269.75325 -325.90708,267.60935 -324.89776,264.09514 C -324.33065,262.12058 -323.3723,256.90502 -322.7681,252.50502 C -320.79649,238.14713 -308.81643,218.16065 -296.01766,207.87697 C -288.3987,201.75521 -282.49272,197.58803 -278.82846,195.74849 C -267.01196,189.81635 -266.4366,189.04098 -265.40726,177.66179 C -263.71536,158.95802 -265.25879,126.27608 -267.97641,123.26053 C -270.30787,120.67345 -271.0964,116.34172 -269.80389,113.22133 C -268.47461,110.01216 -262.35276,106.53159 -255.35542,105.00665 C -249.55462,103.74248 -233.80342,103.47323 -224.61787,104.48124 C -218.88989,105.10982 -217.40878,105.72881 -213.36787,109.18288 C -208.04067,113.73642 -207.47973,116.52731 -210.64616,122.72423 C -214.26279,129.80221 -216.23725,164.8015 -213.76478,178.00502 C -211.24922,191.43864 -212.47928,189.88348 -199.21429,196.40108 C -188.02124,201.90065 -186.49087,203.02007 -176.45639,213.04787 C -170.53954,218.96077 -165.02033,225.30755 -164.19147,227.15181 C -163.36261,228.99608 -162.27301,231.18002 -161.77013,232.00502 C -160.15295,234.65809 -156.90655,242.32654 -154.57326,249.00502 C -152.67613,254.4351 -152.23926,258.10924 -151.91918,271.32627 C -151.57542,285.52056 -151.76495,287.88573 -153.76222,294.32627 C -155.72487,300.65515 -159.30178,308.72828 -164.94545,319.56689 C -167.16062,323.82112 -177.27358,334.61699 -182.68561,338.50502 C -184.98236,340.15502 -189.03854,343.17148 -191.69934,345.20827 C -205.76455,355.97489 -227.63975,360.66627 -251.08617,357.94443 z"
           id="path4790" />
        <path
           id="path4788"
           d="M -215.71429,351.11926 C -206.67982,347.69862 -196.74651,345.23136 -190.01971,337.79405 C -181.35924,332.00057 -174.38672,323.77482 -168.2625,315.39152 C -160.91413,303.90577 -157.0077,290.28422 -155.90924,276.78103 C -155.84948,268.11659 -156.07201,259.15848 -159.59121,251.11335 C -162.36536,238.34549 -169.6494,226.70922 -179.01331,217.65946 C -184.67938,211.45164 -191.36558,206.36762 -198.595,202.35307 C -206.49218,199.84463 -216.72634,195.77979 -217.34718,186.11262 C -217.17143,179.67693 -218.96909,173.23241 -226.7373,177.16492 C -237.04197,179.57608 -247.89596,178.75479 -257.86036,175.35625 C -264.82592,179.14215 -258.32142,192.30058 -267.40312,196.08546 C -278.6403,199.71778 -287.15256,208.60668 -296.89487,214.94108 C -303.88796,223.61235 -311.10435,232.53624 -314.7887,243.15088 C -321.31428,257.34645 -320.79322,273.66162 -318.82812,288.8238 C -315.15496,302.04549 -309.97936,315.45536 -299.69552,324.99062 C -293.24548,331.97998 -286.2785,338.57554 -278.21429,343.60541 C -270.31125,348.42802 -260.88552,350.20186 -252.21429,353.34217 C -240.40317,353.71756 -228.21454,354.45497 -216.67707,351.43183 L -215.71429,351.11927 L -215.71429,351.11926 z"
           style="fill:#f5f5f5;fill-opacity:1" />
        <path
           style="fill:#323232"
           d="M -220.71429,329.52452 C -220.71429,328.20089 -209.29135,322.00502 -206.85107,322.00502 C -205.1702,322.00502 -193.05895,309.61582 -191.21004,306.00502 C -188.21289,300.15179 -184.50994,295.80937 -183.43362,296.88569 C -182.28775,298.03156 -185.22978,303.25812 -190.89662,310.1438 C -192.99634,312.69513 -194.71429,315.2668 -194.71429,315.85862 C -194.71429,316.45044 -195.72679,317.47399 -196.96429,318.13318 C -198.20179,318.79237 -199.66429,319.93316 -200.21429,320.66827 C -201.40566,322.26062 -206.25409,325.13034 -213.4928,328.52767 C -219.61362,331.40033 -220.71429,331.55227 -220.71429,329.52452 z"
           id="path4786" />
        <path
           style="fill:#323232"
           d="M -295.16291,292.08815 C -297.58518,288.16884 -299.66089,266.55162 -297.79421,264.68494 C -297.20025,264.09098 -296.71429,262.12002 -296.71429,260.30502 C -296.71429,258.49002 -296.2692,257.00502 -295.72519,257.00502 C -295.10408,257.00502 -294.95263,260.26038 -295.31811,265.75502 C -295.83468,273.52113 -295.42093,277.82259 -293.06908,289.1366 C -292.52465,291.75566 -294.0444,293.89795 -295.16291,292.08815 z"
           id="path4784" />
        <path
           style="fill:#323232"
           d="M -181.1073,280.42323 C -182.31563,277.27438 -181.78503,274.84497 -179.96429,275.18989 C -177.69821,275.61916 -176.83583,282.00502 -179.04394,282.00502 C -179.84495,282.00502 -180.77346,281.29322 -181.1073,280.42323 z"
           id="path4782" />
        <path
           style="fill:#cbcbcb;fill-opacity:1"
           d="M -222.96989,169.68919 C -222.20577,168.92507 -221.14642,164.74603 -220.61579,160.40245 C -218.85709,146.00628 -217.71651,129.8385 -218.15705,128.65033 C -231.3562,132.01667 -247.0048,133.61587 -259.70303,129.49146 C -260.66337,130.64859 -260.78763,134.84529 -260.23352,147.40727 C -259.64093,160.84134 -259.1689,164.37271 -257.62679,166.9085 C -249.69871,176.00289 -232.90668,173.46105 -222.96989,169.68919 z"
           id="path4780"
           sodipodi:nodetypes="csccscc" />
        <path
           style="fill:#c9c9c9;fill-opacity:1"
           d="M -227.33432,125.2042 C -222.33188,124.31995 -218.2536,122.91057 -214.98913,118.4764 C -211.94193,114.33734 -219.70445,112.22503 -222.31151,110.2875 C -225.13375,108.19007 -251.53021,108.60832 -256.04351,110.94223 C -257.81651,111.85909 -264.63281,116.40993 -264.63281,117.22971 C -264.63281,118.58586 -257.54937,125.19089 -250.71429,126.54073 C -243.97776,127.87111 -231.90381,126.01191 -227.33432,125.2042 z"
           id="path4768"
           sodipodi:nodetypes="czssszz" />
        <path
           style="fill:#c9c9c9;fill-opacity:1"
           d="M -248.37846,115.4378 C -248.70923,114.57583 -248.50035,113.39108 -247.91429,112.80502 C -246.35884,111.24957 -243.71429,112.61504 -243.71429,114.97364 C -243.71429,117.43985 -247.46689,117.8133 -248.37846,115.4378 z"
           id="path4766" />
      </g>
      <g
         transform="translate(-263.761,-126.29157)"
         id="g6644">
        <path
           style="fill:#323232"
           d="M 1038.2856,1048.0518 C 1012.9901,1046.3474 987.12521,1040.4698 966.04161,1025.755 C 934.86975,1008.4913 912.65025,977.62814 901.05194,944.33457 C 892.55616,915.09719 893.18158,883.93152 900.72674,854.5742 C 900.66134,834.10642 897.33058,813.23213 900.91351,793.47753 C 892.72285,776.21529 890.61973,755.05255 877.92731,740.43503 C 869.01789,720.6075 903.39893,720.76685 914.50879,711.49298 C 928.44422,703.49854 950.53383,696.41842 951.453,719.8269 C 957.68775,737.92296 961.7786,759.20076 984.04754,761.02342 C 1006.9219,768.3748 1017.4947,743.41346 1016.1483,725.51825 C 1010.6583,711.59774 1014.4032,695.68661 1013.2857,680.9312 C 1012.7846,670.21707 1014.2858,658.71774 1012.5395,648.4919 C 1003.5039,641.54044 1010.2757,626.76209 1021.2131,631.01411 C 1041.4039,631.03503 1061.5948,631.05599 1081.7856,631.07697 C 1094.3126,642.4196 1082.1943,662.15627 1085.4152,677.12293 C 1084.6858,692.34604 1086.2506,708.19953 1084.6715,723.1249 C 1074.6931,733.665 1088.2384,746.26102 1088.9213,758.64852 C 1102.6435,772.59263 1128.7862,762.34879 1134.2857,747.29106 C 1143.1142,730.23975 1158.3766,716.50966 1168.9994,700.20836 C 1173.8019,682.92575 1190.6672,681.53947 1201.1702,695.59211 C 1210.787,704.26417 1243.1289,716.99527 1225.4658,730.59646 C 1208.6657,738.80837 1201.6493,760.20302 1188.6535,773.56788 C 1174.8955,783.14325 1169.8857,795.28496 1161.8708,809.23029 C 1179.8042,836.37199 1193.0264,868.00972 1191.3151,901.14268 C 1193.2179,949.58476 1165.7802,995.95506 1126.1901,1022.663 C 1105.2112,1036.9229 1080.9632,1047.4035 1055.1596,1047.4805 C 1049.5674,1047.5651 1043.7891,1049.5037 1038.2856,1048.0518 z"
           id="path5166" />
        <path
           style="fill:#f5f5f5;fill-opacity:1"
           d="M 1058.7147,1043.0509 C 1075.3383,1039.5713 1092.8828,1037.8593 1107.2857,1028.0062 C 1126.2606,1019.5568 1141.1632,1004.4374 1155.1006,989.38039 C 1184.206,954.10094 1195.2894,904.00129 1180.7166,860.25763 C 1176.5768,843.90194 1167.9696,829.2088 1158.4933,815.4503 C 1152.3831,802.7712 1174.8954,790.2063 1155.7026,782.16672 C 1144.8627,775.44038 1131.2874,756.01157 1118.0967,768.80906 C 1106.6972,777.65415 1087.266,768.57141 1081.6772,756.50916 C 1082.7247,738.12677 1065.4788,732.13101 1050.0498,734.70696 C 1037.8858,735.22553 1016.8749,731.10663 1017.1661,749.3123 C 1015.6012,765.09149 993.73823,771.94678 980.60124,765.55914 C 965.10059,752.61617 956.08905,774.3699 955.61968,787.44927 C 954.7132,806.20194 965.88532,822.53542 971.77641,839.66989 C 983.93453,865.44215 993.30012,892.27016 1004.5508,918.4262 C 1016.5123,947.72879 1028.0429,977.04246 1040.8259,1006.005 C 1050.1612,1019.9341 1030.6933,1039.7633 1017.4589,1027.4626 C 1007.4249,1017.1336 1005.0435,1001.9331 998.83691,989.32412 C 992.46482,975.3294 986.66352,960.56881 980.8372,946.21128 C 972.21602,926.94474 964.41103,907.3199 956.28571,887.867 C 951.29899,875.61385 945.82785,863.53292 941.28571,851.09783 C 932.26305,837.20829 931.80808,817.23954 917.29046,806.8785 C 897.69292,800.43135 903.8775,828.82487 907.00922,839.74226 C 909.34003,857.35485 898.52851,873.3361 899.51235,890.95794 C 897.55785,916.94626 904.01894,943.0681 915.84051,966.0505 C 928.10394,989.26037 947.56242,1008.4176 969.54814,1022.5954 C 985.40142,1031.4386 1002.3227,1038.7538 1020.5508,1040.9492 C 1033.1251,1044.1348 1045.8203,1044.9878 1058.7147,1043.0509 z"
           id="path5164" />
        <path
           style="fill:#e7e7e7;fill-opacity:1"
           d="M 1034.5089,1021.9777 C 1037.4856,1018.3017 1037.6663,1015.3072 1035.3394,1008.2189 C 1034.1343,1004.5479 1032.7878,1001.0855 1032.3473,1000.5247 C 1031.9068,999.96382 1030.9875,997.70502 1030.3046,995.50502 C 1029.6216,993.30502 1028.5091,990.60502 1027.8324,989.50502 C 1027.1557,988.40502 1026.2795,986.15502 1025.8852,984.50502 C 1025.4909,982.85502 1024.2403,979.48002 1023.106,977.00502 C 1018.6324,967.24363 1017.4242,964.30626 1015.8103,959.26678 C 1014.8877,956.38575 1013.7172,953.77169 1013.2092,953.45777 C 1012.7013,953.14384 1012.2857,952.21068 1012.2857,951.38408 C 1012.2857,950.55748 1011.2222,947.54654 1009.9225,944.69309 C 1004.1841,932.09567 1003.2857,929.96505 1003.2857,928.95399 C 1003.2857,928.36394 1002.1167,925.32154 1000.6879,922.19309 C 996.15001,912.25731 995.28571,910.22064 995.28571,909.46342 C 995.28571,909.05679 994.40631,906.87479 993.33151,904.61455 C 992.25671,902.35431 989.73671,896.00502 987.73161,890.50502 C 985.72641,885.00502 983.73591,880.05502 983.30821,879.50502 C 982.88041,878.95502 982.20381,877.38002 981.80451,876.00502 C 981.11501,873.63082 979.35301,869.47649 975.23051,860.50502 C 970.12011,849.3837 968.28571,845.02809 968.28571,844.01506 C 968.28571,843.40247 967.32101,841.0121 966.14181,838.70314 C 961.10841,828.8467 960.28571,827.04428 960.28571,825.87263 C 960.28571,825.19274 959.41511,822.80689 958.35111,820.57074 C 951.30601,805.76482 951.16161,805.19691 951.08801,792.00502 C 951.02641,780.98269 951.32551,778.63888 953.61791,772.17815 C 955.04771,768.14837 957.12071,763.39001 958.22451,761.60402 L 960.23141,758.35676 L 956.83781,748.93089 C 953.61721,739.98583 951.79641,735.31629 948.87321,728.50502 C 948.16511,726.85502 947.01361,724.04252 946.31441,722.25502 C 945.61521,720.46752 944.94701,719.00502 944.82951,719.00502 C 943.81061,719.00502 932.01751,723.26448 929.72141,724.4618 C 928.10681,725.3038 926.11071,725.99844 925.28571,726.00545 C 924.46071,726.01246 922.43571,726.91227 920.78571,728.00502 C 919.13571,729.09777 917.23681,729.99481 916.56591,729.99843 C 915.12291,730.00623 890.18211,740.87098 888.91161,742.04525 C 888.04631,742.8451 894.06711,762.13532 896.70201,767.00502 C 897.44601,768.38002 898.37101,771.08002 898.75751,773.00502 C 899.14401,774.93002 900.26371,778.30502 901.24571,780.50502 C 902.22771,782.70502 904.05831,787.43002 905.31381,791.00502 C 906.56921,794.58002 907.87981,797.83583 908.22621,798.24016 C 908.57261,798.64448 911.24621,799.42858 914.16751,799.9826 C 923.13921,801.68405 929.74881,808.93531 935.15281,823.00502 C 936.94841,827.68002 939.24121,833.30502 940.24801,835.50502 C 941.25471,837.70502 942.41311,840.63002 942.82201,842.00502 C 943.23101,843.38002 944.40261,846.07336 945.42571,847.99021 C 946.44871,849.90707 947.28571,852.08763 947.28571,852.83592 C 947.28571,853.5842 947.93021,855.39087 948.71791,856.85073 C 951.54881,862.09706 955.11091,870.58395 956.21491,874.7128 C 956.83371,877.02708 957.72801,879.16032 958.20211,879.45335 C 958.67621,879.74637 959.36541,881.22787 959.73361,882.74557 C 960.10181,884.26327 961.33111,887.53002 962.46541,890.00502 C 966.85061,899.57334 968.12481,902.59202 968.79731,905.00502 C 969.18041,906.38002 970.05391,908.40502 970.73821,909.50502 C 971.42251,910.60502 972.55871,913.30502 973.26301,915.50502 C 973.96741,917.70502 975.12581,920.63002 975.83731,922.00502 C 978.18031,926.53253 981.06661,933.43883 982.31531,937.50502 C 982.99091,939.70502 984.13011,942.63002 984.84691,944.00502 C 987.73571,949.54649 991.09731,957.68548 991.73661,960.68592 C 992.10931,962.43542 993.01331,964.36395 993.74541,964.97155 C 994.47751,965.57915 995.36051,967.59003 995.70761,969.44017 C 996.05461,971.2903 997.00171,973.35437 997.81221,974.02698 C 998.62261,974.69959 999.28571,975.89864 999.28571,976.69154 C 999.28571,977.48444 1000.4107,980.59268 1001.7857,983.59873 C 1003.1607,986.60479 1004.2857,989.35888 1004.2857,989.71893 C 1004.2857,990.07898 1005.2402,992.42815 1006.4067,994.9393 C 1011.6571,1006.2414 1012.2857,1007.6815 1012.2857,1008.409 C 1012.2857,1008.8339 1013.6077,1012.0378 1015.2236,1015.5288 C 1018.738,1023.1218 1021.7547,1025.2279 1028.2462,1024.6206 C 1031.3073,1024.3342 1033.2722,1023.5049 1034.5089,1021.9777 z"
           id="path5162" />
        <path
           style="fill:#cbcbcb;fill-opacity:1"
           d="M 1185.6454,768.75502 C 1188.7429,761.82077 1213.138,736.26098 1213.8718,728.27623 C 1213.1397,725.96981 1204.1663,719.00502 1201.9267,719.00502 C 1201.0242,719.00502 1200.2857,718.57054 1200.2857,718.0395 C 1200.2857,715.15227 1180.935,699.7953 1177.8462,700.23127 C 1175.8386,700.51464 1171.9849,704.93923 1156.9715,724.19826 C 1143.076,742.02316 1141.3057,744.43644 1141.2954,745.56793 C 1150.6759,761.36535 1161.8628,768.92179 1178.8506,775.97796 C 1179.4363,775.99284 1182.494,772.74252 1185.6454,768.75502 z"
           id="path5156"
           sodipodi:nodetypes="ccssssccc" />
        <path
           style="fill:#323232"
           d="M 1074.1935,727.87361 C 1075.3608,726.62066 1076.1618,725.12516 1075.9735,724.55027 C 1075.466,723.00095 1068.4607,722.6899 1065.1315,724.06888 C 1062.7073,725.07303 1061.9405,725.00255 1060.4314,723.63691 C 1058.0972,721.52443 1054.6405,721.54853 1053.4446,723.68562 C 1052.5636,725.25976 1052.3976,725.25976 1050.8234,723.68562 C 1048.5248,721.38696 1041.7228,721.43205 1040.3537,723.75502 C 1039.573,725.07958 1039.1217,725.20201 1038.4972,724.2586 C 1037.4228,722.63558 1022.8162,721.33762 1021.9213,722.78564 C 1021.5644,723.36316 1022.3687,725.13865 1023.7087,726.73116 L 1026.1451,729.62665 L 1049.1081,729.88917 C 1071.8782,730.14949 1072.089,730.13255 1074.1935,727.87361 z"
           id="path5134" />
        <path
           style="fill:#cbcbcb;fill-opacity:1"
           d="M 1054.6488,719.38699 C 1072.9237,719.32769 1078.5617,717.58618 1079.7921,716.35577 C 1081.0537,715.09415 1081.2833,710.01958 1081.2704,683.68359 C 1081.262,666.53538 1080.9245,652.00989 1080.5204,651.40472 C 1078.4945,648.37067 1074.994,648.00502 1047.9739,648.00502 C 1024.1519,648.00502 1020.3571,648.21406 1019.2159,649.58916 C 1018.1925,650.82225 1017.8884,658.29368 1017.8434,683.30408 L 1017.7857,715.43485 L 1026.1482,720.36924 C 1037.5181,718.96693 1041.1552,719.38358 1054.6488,719.38699 z"
           id="path5130"
           sodipodi:nodetypes="cssssscccc" />
      </g>
      <g
         transform="translate(-326.00834,-14.378133)"
         id="g6536">
        <path
           style="fill:#323232"
           d="M 665.28571,423.37573 C 642.38853,418.95352 620.21442,408.52 604.88722,390.49799 C 594.33101,378.75924 586.24282,364.14258 582.60585,348.73944 C 575.62158,317.42988 582.84198,281.61775 606.94619,259.32178 C 616.78962,243.79259 638.76866,241.97098 646.45417,225.29157 C 650.56373,197.85812 646.74148,169.80341 649.76101,142.26949 C 656.31074,128.87387 649.58212,113.62017 650.36115,99.316935 C 651.63976,84.934999 645.14534,71.181679 646.58054,57.169555 C 655.71072,42.965142 675.40812,44.651716 689.50856,48.8576 C 702.75448,49.414453 715.5124,64.415011 704.8439,77.803849 C 701.42741,95.729415 702.75384,114.17375 700.62801,132.26018 C 702.55612,138.51843 708.65467,143.10225 706.88425,150.25276 C 707.42303,175.75148 707.08375,201.30334 708.97241,226.74433 C 712.39437,241.85797 730.67708,243.45124 739.99967,253.70643 C 760.77952,270.85975 774.32038,296.28649 775.68554,323.31532 C 777.06718,348.53095 769.66157,374.70935 751.56998,392.95493 C 731.62232,415.94967 699.52533,427.80453 669.36173,424.19403 L 667.23383,423.82565 L 665.28571,423.37574 L 665.28571,423.37573 z"
           id="path4896"
           sodipodi:nodetypes="cccccccccccccccccccc" />
        <path
           style="fill:#f5f5f5;fill-opacity:1"
           d="M 698.28571,418.52277 C 717.50882,414.14714 735.39192,403.72302 748.67419,389.29282 C 758.21931,377.62019 765.67542,364.34613 769.21231,349.58661 C 773.80198,329.2545 771.36863,307.10951 761.28367,288.70074 C 753.99719,273.69887 742.26579,260.75245 728.65308,251.29126 C 718.78638,246.62851 707.69388,241.65995 704.4988,230.14843 C 701.88053,202.14117 703.96028,173.82536 701.29261,145.80051 C 696.91105,132.70476 681.01611,141.77407 671.10679,138.9372 C 662.65932,134.42388 652.19704,137.58036 653.99795,149.09911 C 652.64757,175.19709 654.12606,201.44873 651.76726,227.47044 C 647.97601,240.06832 634.30964,243.65638 624.62983,250.19181 C 614.69365,255.43792 608.70746,265.18634 601.40841,273.34508 C 592.83897,284.7715 588.02387,298.78253 585.0775,312.59374 C 581.32456,339.57086 590.43432,367.76362 609.21332,387.46212 C 619.25035,397.16439 629.93852,408.10309 643.92037,411.43089 C 653.23067,416.36557 664.22838,418.75751 674.67889,420.17314 C 682.54828,420.46776 690.60713,420.47938 698.28571,418.52277 z"
           id="path4894" />
        <path
           style="fill:#323232"
           d="M 714.96551,394.29591 C 714.67811,393.83092 717.83101,390.78348 721.97201,387.52383 C 726.11301,384.26418 730.68871,380.33896 732.14011,378.80111 C 735.23171,375.52562 736.28571,375.29363 736.28571,377.88866 C 736.28571,378.92466 734.37321,381.45498 732.03571,383.5116 C 729.69821,385.56821 726.08301,388.77057 724.00191,390.62796 C 721.92081,392.48534 719.82011,394.00502 719.33371,394.00502 C 718.84731,394.00502 717.78301,394.2607 716.96861,394.57319 C 716.15431,394.88569 715.25291,394.76091 714.96551,394.29591 z"
           id="path4892" />
        <path
           style="fill:#323232"
           d="M 733.28571,368.20438 C 733.28571,367.15138 735.14521,362.90797 738.53571,356.22354 C 740.04821,353.24165 741.28571,349.91804 741.28571,348.83773 C 741.28571,347.75743 741.84321,345.89062 742.52471,344.68928 C 743.20611,343.48794 744.21861,339.80502 744.77471,336.50502 C 745.33071,333.20502 746.23571,330.50502 746.78571,330.50502 C 748.12511,330.50502 748.67511,335.81583 747.49101,337.31549 C 746.97451,337.96973 746.24491,340.91664 745.86981,343.86417 C 744.95021,351.09081 742.75231,357.4477 738.99261,363.75502 C 736.27081,368.32111 733.28571,370.64843 733.28571,368.20438 z"
           id="path4890" />
        <path
           style="fill:#323232"
           d="M 609.07092,364.255 C 607.5335,360.6231 604.76748,357.63465 603.73229,353.76041 C 600.20281,343.01068 598.41815,331.66814 598.31567,320.35892 C 598.13464,314.94907 600.08288,309.83962 601.41128,304.6855 C 603.71882,300.24049 604.06213,307.63918 603.28655,309.50852 C 602.47957,313.34019 601.52687,317.161 601.63505,321.1134 C 601.62073,327.70284 601.50187,334.40781 602.93552,340.86985 C 605.36081,344.92716 605.34305,350.05664 608.32385,353.83844 C 609.69875,357.33697 610.59447,361.01265 613.05984,363.90416 C 614.20839,368.16642 609.93615,367.42247 609.07092,364.255 z"
           id="path4888" />
        <path
           style="fill:#323232"
           d="M 744.28571,362.03004 C 744.28571,360.86314 745.21411,358.01765 746.34871,355.70671 C 747.48341,353.39578 749.21501,347.68002 750.19661,343.00502 C 751.17821,338.33002 752.38741,334.73002 752.88351,335.00502 C 754.13701,335.69972 753.88481,344.86969 752.51221,348.50502 C 751.88931,350.15502 750.55061,354.20278 749.53731,357.50005 C 748.34181,361.39063 747.09671,363.61032 745.99041,363.82337 C 744.81661,364.04942 744.28571,363.49089 744.28571,362.03004 z"
           id="path4886" />
        <path
           style="fill:#323232"
           d="M 732.78571,329.21252 L 732.78571,313.4206 L 728.41241,304.7554 C 724.34501,296.69644 723.68311,293.00502 726.30531,293.00502 C 726.90071,293.00502 728.00011,294.46752 728.74851,296.25502 C 729.49701,298.04252 730.44021,299.83368 730.84451,300.23537 C 731.24891,300.63706 732.45641,303.33706 733.52801,306.23537 C 734.98521,310.17686 735.60621,315.09403 735.99191,325.74492 C 736.53041,340.61467 736.08011,345.00522 734.01661,345.00473 C 733.09401,345.00451 732.78571,341.04887 732.78571,329.21252 z"
           id="path4884" />
        <path
           style="fill:#323232"
           d="M 657.79081,179.07586 C 657.02871,168.4284 657.32981,167.00502 660.34471,167.00502 C 662.14841,167.00502 662.28571,167.78317 662.28571,178.00502 C 662.28571,188.12932 662.13511,189.00502 660.39361,189.00502 C 658.71221,189.00502 658.42231,187.89927 657.79081,179.07586 z"
           id="path4882" />
        <path
           style="fill:#323232"
           d="M 693.28571,165.31086 C 693.28571,161.85656 692.70051,158.61458 691.86061,157.41539 C 690.15031,154.9736 691.26401,152.66161 693.90551,153.17032 C 695.56791,153.49046 695.78571,154.50598 695.78571,161.93538 C 695.78571,167.76887 695.40351,170.46576 694.53571,170.75502 C 693.63051,171.05676 693.28571,169.55508 693.28571,165.31086 z"
           id="path4880" />
        <path
           style="fill:#cbcbcb;fill-opacity:1"
           d="M 691.66593,133.4979 C 693.62353,134.38985 687.23291,135.03781 690.36031,134.10083 C 696.23111,132.34188 696.89241,129.94624 697.84001,107.00502 C 698.83881,82.823302 698.83181,82.367916 697.43171,80.680927 C 677.90912,86.149681 665.00537,79.267991 657.78571,78.661876 C 654.79621,78.505571 654.78471,78.526026 654.51271,84.505022 C 654.19531,91.480499 656.4921,125.16814 657.5066,130.29857 C 667.7708,137.01393 684.21876,133.3875 691.66593,133.4979 z"
           id="path4878"
           sodipodi:nodetypes="cssccscc" />
        <path
           sodipodi:type="arc"
           style="opacity:1;fill:#cbcbcb;fill-opacity:1;fill-rule:nonzero;stroke:none;stroke-width:1px;stroke-linecap:butt;stroke-linejoin:miter;marker:none;marker-start:none;marker-mid:none;marker-end:none;stroke-miterlimit:4;stroke-dasharray:none;stroke-dashoffset:0;stroke-opacity:1;visibility:visible;display:inline;overflow:visible;enable-background:accumulate"
           id="path6534"
           sodipodi:cx="676.25061"
           sodipodi:cy="63.461449"
           sodipodi:rx="22.497574"
           sodipodi:ry="11.579634"
           d="M 698.74818,63.461449 A 22.497574,11.579634 0 1 1 653.75304,63.461449 A 22.497574,11.579634 0 1 1 698.74818,63.461449 z"
           transform="matrix(1.0588235,0,0,1.0285714,-38.456062,-1.4823376)" />
      </g>
      <g
         transform="translate(1034.9373,-539.20107)"
         id="g6559">
        <path
           style="fill:#323232"
           d="M -259.9624,948.98523 C -271.46204,947.04764 -281.72904,942.38626 -291.7936,936.71438 C -308.70077,927.49499 -321.17358,911.62008 -330.34168,895.00502 C -340.66172,873.91992 -341.84326,848.84026 -336.18042,826.30594 C -331.41127,810.47434 -322.43118,796.4734 -311.14828,784.50395 C -302.6276,776.68547 -293.06425,768.61656 -281.936,764.78943 C -272.30681,756.67721 -269.48797,741.5229 -270.42628,729.26761 C -271.69835,715.46691 -272.18138,701.55831 -274.33625,687.86145 C -283.00158,675.1096 -264.78121,666.72329 -254.21871,666.95214 C -241.63406,666.17128 -223.95174,665.84131 -217.98574,679.5038 C -222.19856,699.2092 -222.74204,719.65679 -222.40348,739.76415 C -217.68899,745.77986 -218.15033,765.39448 -207.35385,753.27517 C -195.37401,748.29336 -191.80303,735.88413 -185.0323,725.95307 C -178.99252,715.51581 -171.99062,705.66118 -166.90529,694.76801 C -157.04656,686.29743 -141.0984,694.73502 -131.83502,701.07436 C -121.1599,708.05885 -111.00833,724.26329 -125.95229,732.72573 C -136.51292,747.60628 -149.89187,760.56747 -158.92384,776.47143 C -163.70901,786.83871 -166.22196,796.32704 -157.20195,805.2394 C -143.58675,828.30772 -141.43876,857.06788 -148.27423,882.68125 C -153.53285,899.35746 -163.69043,914.2656 -177.10566,925.53127 C -186.48599,933.59645 -195.83403,940.72823 -207.53492,944.78017 C -224.09486,951.05448 -242.6014,949.77465 -259.9624,948.98523 z"
           id="path4964" />
        <path
           style="fill:#f5f5f5;fill-opacity:1"
           d="M -221.02747,943.88544 C -209.39547,940.56835 -197.63755,936.68041 -188.2395,928.71758 C -176.86738,919.10747 -165.93603,908.35957 -158.30866,895.46756 C -153.75015,886.51551 -152.63476,876.32278 -149.46721,866.86656 C -148.17384,851.33287 -149.31831,835.33589 -153.89078,820.40085 C -158.47651,813.43399 -161.20653,805.65667 -165.4535,798.50256 C -174.11867,791.75998 -160.11607,778.28079 -169.00832,774.44044 C -180.42905,770.5648 -188.57739,761.0146 -198.00748,754.00502 C -205.59348,755.30723 -213.77424,770.8226 -220.98434,762.56202 C -220.75622,752.11823 -225.66041,742.05477 -237.31502,747.81942 C -247.39714,748.62321 -257.51777,748.24279 -267.61981,748.29523 C -269.88828,755.73081 -269.788,764.2296 -278.12889,767.96996 C -289.71653,773.86878 -301.01009,780.95179 -309.79397,790.75889 C -322.16517,802.51835 -329.60976,818.50755 -333.40377,834.97207 C -339.68194,861.71864 -330.91493,890.45703 -313.96005,911.54157 C -307.3427,920.75844 -297.44777,927.07625 -288.14758,933.33448 C -279.73008,938.62268 -270.24961,941.29257 -260.81014,944.20552 C -247.84801,946.74829 -234.03627,945.63125 -221.02747,943.88544 z"
           id="path4962" />
        <path
           style="fill:#323232"
           d="M -182.08284,916.75502 C -181.67063,916.06752 -178.6741,912.51974 -175.42389,908.87105 C -172.17368,905.22237 -168.99689,901.3655 -168.36435,900.30021 C -164.54121,893.86148 -161.11867,889.00502 -160.40418,889.00502 C -159.21763,889.00502 -160.56085,893.04928 -162.79867,896.21453 C -163.85226,897.70476 -164.71429,899.21387 -164.71429,899.56811 C -164.71429,900.39227 -173.86493,911.64617 -177.46855,915.2539 C -180.25477,918.0433 -183.48544,919.0943 -182.08284,916.75502 z"
           id="path4960" />
        <path
           style="fill:#323232"
           d="M -216.04762,914.33835 C -217.93304,912.45294 -216.48512,911.00502 -212.71429,911.00502 C -209.96194,911.00502 -208.71429,911.43952 -208.71429,912.39803 C -208.71429,914.54654 -214.34865,916.03733 -216.04762,914.33835 z"
           id="path4958" />
        <path
           style="fill:#323232"
           d="M -193.71429,899.00502 C -193.71429,898.10069 -192.98953,897.17503 -188.16787,891.92113 C -187.3684,891.04999 -186.71429,889.98995 -186.71429,889.56549 C -186.71429,889.14102 -185.58929,887.45675 -184.21429,885.82265 C -182.83929,884.18856 -181.71429,882.0761 -181.71429,881.12829 C -181.71429,879.33743 -179.90415,877.00502 -178.51429,877.00502 C -176.9523,877.00502 -177.74464,881.03537 -179.68885,882.97958 C -180.77486,884.06559 -181.95163,886.10246 -182.30388,887.50596 C -182.65614,888.90946 -183.79258,890.51174 -184.82932,891.06658 C -185.86605,891.62142 -186.71429,892.54417 -186.71429,893.11713 C -186.71429,894.20105 -192.12659,900.00502 -193.13737,900.00502 C -193.45467,900.00502 -193.71429,899.55502 -193.71429,899.00502 z"
           id="path4956" />
        <path
           style="fill:#323232"
           d="M -177.0688,872.24043 C -177.91206,870.87601 -176.09209,866.00502 -174.73904,866.00502 C -173.27781,866.00502 -173.47197,869.29137 -175.06165,871.46538 C -175.91655,872.63453 -176.65016,872.91781 -177.0688,872.24043 z"
           id="path4954" />
        <path
           style="fill:#323232"
           d="M -173.71429,850.50502 C -173.71429,846.83835 -173.27839,844.00502 -172.71429,844.00502 C -172.15019,844.00502 -171.71429,846.83835 -171.71429,850.50502 C -171.71429,854.17169 -172.15019,857.00502 -172.71429,857.00502 C -173.27839,857.00502 -173.71429,854.17169 -173.71429,850.50502 z"
           id="path4952" />
        <path
           style="fill:#323232"
           d="M -312.0986,821.19221 C -312.8659,819.95069 -304.24368,807.08552 -300.30456,803.59438 C -294.96787,798.8646 -291.01219,796.00502 -289.80613,796.00502 C -287.84619,796.00502 -288.65877,798.90495 -290.96429,800.13828 C -294.01652,801.77106 -304.71429,812.05275 -304.71429,813.35349 C -304.71429,814.77854 -309.7903,822.00502 -310.79127,822.00502 C -311.23401,822.00502 -311.82231,821.63926 -312.0986,821.19221 z"
           id="path4950" />
        <path
           style="fill:#cbcbcb;fill-opacity:1"
           d="M -128.29598,724.91034 C -146.70461,720.46945 -150.79702,715.78522 -160.66924,708.57791 C -163.55788,703.90399 -166.10113,703.95988 -168.72783,708.75502 C -175.32828,722.83697 -187.83612,734.83828 -192.71429,749.64811 C -189.07667,756.1815 -171.83601,768.99438 -164.09165,769.94163 C -150.61259,762.28256 -135.92656,737.35147 -128.29598,724.91034 z"
           id="path4948"
           sodipodi:nodetypes="cccccc" />
        <path
           style="fill:#cbcbcb;fill-opacity:1"
           d="M -233.21393,741.91576 C -231.39699,741.04492 -229.93028,739.34706 -229.4017,737.5027 C -228.92919,735.85397 -228.16119,733.15502 -227.69503,731.50502 C -226.19934,726.21088 -225.29648,691.21337 -226.61463,689.6251 C -227.60759,688.42866 -228.98533,689.46084 -233.28803,690.20148 C -239.9602,691.34999 -256.12473,690.18038 -262.08057,689.84767 L -268.21429,689.50502 L -268.02244,697.50502 C -267.81342,706.22126 -265.9169,732.54707 -265.12412,737.73699 C -264.69208,740.56539 -264.04255,741.15769 -259.92236,742.48049 C -254.0874,744.35382 -237.57218,744.00461 -233.21393,741.91576 z"
           id="path4936"
           sodipodi:nodetypes="csssssccssc" />
        <path
           sodipodi:type="arc"
           style="opacity:1;fill:#cbcbcb;fill-opacity:1;fill-rule:nonzero;stroke:none;stroke-width:1px;stroke-linecap:butt;stroke-linejoin:miter;marker:none;marker-start:none;marker-mid:none;marker-end:none;stroke-miterlimit:4;stroke-dasharray:none;stroke-dashoffset:0;stroke-opacity:1;visibility:visible;display:inline;overflow:visible;enable-background:accumulate"
           id="path6554"
           sodipodi:cx="-247.50508"
           sodipodi:cy="678.74622"
           sodipodi:rx="24.080233"
           sodipodi:ry="7.199245"
           d="M -223.42485,678.74622 A 24.080233,7.199245 0 1 1 -271.58531,678.74622 A 24.080233,7.199245 0 1 1 -223.42485,678.74622 z" />
        <path
           sodipodi:type="arc"
           style="opacity:1;fill:#cbcbcb;fill-opacity:1;fill-rule:nonzero;stroke:none;stroke-width:1px;stroke-linecap:butt;stroke-linejoin:miter;marker:none;marker-start:none;marker-mid:none;marker-end:none;stroke-miterlimit:4;stroke-dasharray:none;stroke-dashoffset:0;stroke-opacity:1;visibility:visible;display:inline;overflow:visible;enable-background:accumulate"
           id="path6556"
           sodipodi:cx="-133.31015"
           sodipodi:cy="685.94543"
           sodipodi:rx="24.080233"
           sodipodi:ry="11.419492"
           d="M -109.22992,685.94543 A 24.080233,11.419492 0 1 1 -157.39038,685.94543 A 24.080233,11.419492 0 1 1 -109.22992,685.94543 z"
           transform="matrix(0.8453608,0.3822948,0,0.7653316,-30.296715,233.283)" />
      </g>
      <g
         transform="translate(-195.48029,-48.518588)"
         id="g6602">
        <path
           style="fill:#323232"
           d="M 134.78571,969.96918 C 121.40304,968.32394 108.6668,963.23079 98.266178,954.60725 C 81.985979,943.54277 70.267415,925.39742 67.101127,905.94929 C 65.979825,882.80814 68.462559,859.56995 66.859564,836.47741 C 61.887132,822.04355 66.738427,806.70348 65.014591,791.85022 C 64.108925,779.36756 64.803231,766.45215 60.407469,754.60141 C 59.041343,741.75815 75.74036,739.33755 85.367605,739.63532 C 95.858641,739.5843 107.83267,738.73833 115.93051,746.58568 C 122.64652,751.50973 116.52063,735.51936 116.35658,731.92096 C 113.25693,719.12402 128.54517,715.40152 138.22549,715.10781 C 152.93293,714.78602 169.00623,713.19473 182.46932,720.24845 C 190.21252,728.81369 183.009,741.72356 182.97842,751.9515 C 180.98099,768.17283 178.47798,784.37878 177.56315,800.701 C 181.37788,804.88824 178.60946,821.49688 185.42272,818.46284 C 193.37363,810.55367 194.16168,800.4613 192.2246,789.97127 C 191.58193,776.99104 189.02767,764.13143 188.73912,751.16533 C 190.95704,739.2394 207.04799,742.07269 216.29321,740.24494 C 226.3054,740.86806 242.7162,739.90818 245.30352,752.41338 C 241.22233,768.83191 240.87204,786.12395 240.25746,803.04208 C 241.68821,814.72188 241.20616,826.55205 235.0098,836.88047 C 227.95616,856.59534 229.00275,877.6453 227.16984,898.17145 C 226.22433,912.94307 221.72349,927.63109 212.05548,939.05493 C 206.03337,949.21887 195.92236,956.08183 185.88837,961.94906 C 170.17939,969.5877 152.07662,972.3925 134.78571,969.96918 z"
           id="path5050" />
        <path
           style="fill:#f5f5f5;fill-opacity:1"
           d="M 168.7446,963.48688 C 180.74566,959.5356 192.44778,953.65979 201.02052,944.16058 C 207.56187,938.2797 212.50172,930.99843 215.78025,922.84668 C 221.36901,910.53059 223.8432,897.03649 223.65031,883.54177 C 223.86516,864.75055 225.66817,845.71351 232.81238,828.14915 C 234.6175,822.77987 234.75162,817.10617 234.78571,811.505 C 224.43183,813.05411 213.83231,812.85337 203.45152,811.69703 C 193.93011,805.725 192.44125,821.4496 186.66733,825.68882 C 175.72829,828.51771 176.66839,815.95445 175.28535,809.02394 C 171.60751,800.63884 160.74492,807.65989 153.72787,805.78713 C 145.29921,805.70499 136.77773,805.34134 128.53865,803.69129 C 122.6516,808.23195 125.8309,823.79212 114.84792,821.64175 C 110.22072,819.53706 109.52927,813.88963 107.59339,809.69019 C 95.392207,809.72114 83.191022,809.75212 70.989838,809.78314 C 69.044142,814.66869 67.534258,819.96105 70.198912,824.973 C 73.289503,846.4215 72.201135,868.21334 70.906769,889.76337 C 70.627951,900.27752 71.571952,911.06529 76.36772,920.59159 C 80.703655,931.55197 89.486302,940.10175 97.475616,948.51065 C 105.85453,956.69424 117.50917,960.25584 128.40675,963.78158 C 141.52894,967.48745 155.72976,967.85514 168.7446,963.48688 z"
           id="path5048" />
        <path
           style="fill:#323232"
           d="M 155.48571,952.80502 C 152.51264,949.83195 155.601,947.06756 164.18069,945.02215 C 167.14794,944.31475 170.74794,943.12428 172.18069,942.37666 C 175.51296,940.63786 176.28571,940.65843 176.28571,942.48597 C 176.28571,943.30049 175.04821,944.22729 173.53571,944.54553 C 172.02321,944.86377 170.11071,945.54841 169.28571,946.06697 C 168.46071,946.58552 166.77321,947.44758 165.53571,947.98266 C 164.29821,948.51773 163.28571,949.81851 163.28571,950.87328 C 163.28571,953.86659 157.88485,955.20416 155.48571,952.80502 z"
           id="path5046" />
        <path
           style="fill:#323232"
           d="M 185.28571,939.5402 C 185.28571,938.73455 186.19911,937.58655 187.31548,936.98909 C 188.43185,936.39162 191.86859,933.45879 194.95268,930.47168 C 199.75054,925.82469 200.37324,924.81541 199.26577,923.48099 C 198.18775,922.18206 198.30606,921.46876 199.97363,919.21321 C 201.07485,917.7237 202.73212,915.04252 203.65646,913.25502 C 204.5808,911.46752 205.77551,910.00502 206.31139,910.00502 C 207.59723,910.00502 207.57003,913.71126 206.27833,914.50958 C 204.31713,915.72167 201.49074,922.81005 202.54733,923.86664 C 203.83965,925.15896 198.97506,931.40438 192.36642,936.93745 C 187.23654,941.23243 185.28571,941.94952 185.28571,939.5402 z"
           id="path5044" />
        <path
           style="fill:#323232"
           d="M 89.95672,926.75502 C 86.32643,922.29957 82.84742,915.10997 83.84098,914.11642 C 84.4773,913.4801 87.79888,917.32754 89.35641,920.50502 C 89.89561,921.60502 91.45028,924.03407 92.81124,925.9029 C 97.51267,932.3588 95.10764,933.07674 89.95672,926.75502 z"
           id="path5042" />
        <path
           style="fill:#323232"
           d="M 207.28571,907.56404 C 207.28571,907.3215 207.73571,906.84494 208.28571,906.50502 C 208.83571,906.1651 209.28571,906.36354 209.28571,906.946 C 209.28571,907.52846 208.83571,908.00502 208.28571,908.00502 C 207.73571,908.00502 207.28571,907.80658 207.28571,907.56404 z"
           id="path5040" />
        <path
           style="fill:#323232"
           d="M 219.28571,849.00502 C 219.28571,846.25502 219.73571,844.00502 220.28571,844.00502 C 220.83571,844.00502 221.28571,846.25502 221.28571,849.00502 C 221.28571,851.75502 220.83571,854.00502 220.28571,854.00502 C 219.73571,854.00502 219.28571,851.75502 219.28571,849.00502 z"
           id="path5038" />
        <path
           style="fill:#323232"
           d="M 220.28571,841.06404 C 220.28571,840.5465 220.73571,839.84494 221.28571,839.50502 C 221.83571,839.1651 222.28571,839.58854 222.28571,840.446 C 222.28571,841.30346 221.83571,842.00502 221.28571,842.00502 C 220.73571,842.00502 220.28571,841.58158 220.28571,841.06404 z"
           id="path5036" />
        <path
           style="fill:#323232"
           d="M 227.28571,825.56404 C 227.28571,824.06287 229.08105,822.46702 229.87578,823.26176 C 230.57326,823.95923 229.19241,827.00502 228.17872,827.00502 C 227.68757,827.00502 227.28571,826.35658 227.28571,825.56404 z"
           id="path5034" />
        <path
           style="fill:#323232"
           d="M 132.95238,813.33835 C 132.58571,812.97169 132.28571,811.84669 132.28571,810.83835 C 132.28571,809.30502 133.10389,809.00502 137.28571,809.00502 C 141.95238,809.00502 142.28571,809.17169 142.28571,811.50502 C 142.28571,813.78707 141.90793,814.00502 137.95238,814.00502 C 135.56904,814.00502 133.31904,813.70502 132.95238,813.33835 z"
           id="path5032" />
        <path
           style="fill:#ffffff;fill-opacity:1"
           d="M 119.18788,812.8558 C 119.79169,811.12372 120.28571,808.75456 120.28571,807.59099 C 120.28571,806.42742 121.08961,803.90707 122.07216,801.99021 C 123.98446,798.25952 123.88021,793.82447 121.29686,769.00502 C 120.04693,756.9964 119.70966,755.62497 118.23109,756.53878 C 115.41402,758.27982 113.67433,766.31621 111.58472,787.24115 L 110.01328,802.97728 L 113.35424,809.49115 C 115.19177,813.07378 117.00904,816.00502 117.39263,816.00502 C 117.77622,816.00502 118.58408,814.58787 119.18788,812.8558 z"
           id="path5030" />
        <path
           style="fill:#cbcbcb;fill-opacity:1"
           d="M 232.79691,803.99713 C 234.91573,801.43303 234.89337,797.89984 235.30654,794.75515 C 235.8748,787.38841 236.54759,780.0279 237.05746,772.65777 C 237.02105,770.78016 237.31185,768.49016 235.85092,767.05867 C 233.97157,765.9554 231.92869,767.56087 229.99658,767.72637 C 223.89139,768.95305 220.86176,768.53775 214.65608,769.05636 C 212.50532,769.24819 207.46409,769.58538 205.75872,768.42929 C 203.19621,767.33066 200.33008,766.43772 197.52087,766.87754 C 195.35855,767.39366 195.36166,770.07566 195.50453,771.84087 C 196.42496,779.59499 196.98378,787.38695 197.79074,795.15263 C 198.22024,798.01836 198.3663,801.0093 199.4573,803.71177 C 202.48699,806.21605 206.56989,806.76703 210.33905,807.30308 C 216.63056,807.92877 223.15155,807.89416 229.23232,805.9818 C 230.5142,805.52592 231.80692,804.95605 232.79691,803.99713 z"
           id="path5028"
           sodipodi:nodetypes="cccccccccccccc" />
        <path
           style="fill:#cbcbcb;fill-opacity:1"
           d="M 97.919582,805.15763 C 107.26804,801.97258 105.93197,800.40942 106.72754,781.18678 C 107.28979,767.60158 107.23083,766.96402 105.49803,767.89139 C 91.572071,772.06252 81.580585,769.63021 72.57248,766.75269 C 69.87184,766.0923 68.01863,767.96892 69.3276,770.03856 C 69.83772,770.84511 70.26198,777.86767 70.2704,785.64424 C 70.28392,798.13104 70.51183,800.05935 72.22058,802.14424 C 79.40534,805.35934 88.523235,808.17961 97.919582,805.15763 z"
           id="path5022"
           sodipodi:nodetypes="csccsscc" />
        <path
           style="fill:#cbcbcb;fill-opacity:1"
           d="M 169.01819,799.33902 C 170.95538,798.53225 172.43855,797.09367 172.71953,795.74892 C 174.14463,788.9287 177.08185,762.10907 177.43531,752.6893 C 177.72848,744.87665 176.83583,743.70374 171.28571,744.60887 C 160.62293,750.37007 147.06803,748.15065 132.23501,744.63663 C 124.10688,742.50453 123.77536,743.09349 125.186,757.15949 C 125.8118,763.39953 126.76582,774.13002 127.30604,781.00502 C 127.84627,787.88002 128.52611,794.53679 128.81679,795.79784 C 134.91892,800.26312 155.34457,803.31777 169.01819,799.33902 z"
           id="path5008"
           sodipodi:nodetypes="cssccsscc" />
        <path
           style="fill:#323232"
           d="M 180.08571,729.80502 C 181.94581,727.94492 181.50845,725.27444 179.0632,723.56172 C 175.73885,721.23326 175.28571,721.58633 175.28571,726.50502 C 175.28571,730.17169 175.61904,731.00502 177.08571,731.00502 C 178.07571,731.00502 179.42571,730.46502 180.08571,729.80502 z"
           id="path4966" />
        <path
           sodipodi:type="arc"
           style="opacity:1;fill:#cbcbcb;fill-opacity:1;fill-rule:nonzero;stroke:none;stroke-width:1px;stroke-linecap:butt;stroke-linejoin:miter;marker:none;marker-start:none;marker-mid:none;marker-end:none;stroke-miterlimit:4;stroke-dasharray:none;stroke-dashoffset:0;stroke-opacity:1;visibility:visible;display:inline;overflow:visible;enable-background:accumulate"
           id="path6596"
           sodipodi:cx="54.381565"
           sodipodi:cy="758.88147"
           sodipodi:rx="21.123419"
           sodipodi:ry="7.1909509"
           d="M 75.504984,758.88147 A 21.123419,7.1909509 0 1 1 33.258146,758.88147 A 21.123419,7.1909509 0 1 1 75.504984,758.88147 z"
           transform="matrix(1.0425532,0,0,1.1875,31.842908,-146.78462)" />
        <path
           sodipodi:type="arc"
           style="opacity:1;fill:#cbcbcb;fill-opacity:1;fill-rule:nonzero;stroke:none;stroke-width:1px;stroke-linecap:butt;stroke-linejoin:miter;marker:none;marker-start:none;marker-mid:none;marker-end:none;stroke-miterlimit:4;stroke-dasharray:none;stroke-dashoffset:0;stroke-opacity:1;visibility:visible;display:inline;overflow:visible;enable-background:accumulate"
           id="path6598"
           sodipodi:cx="151.00996"
           sodipodi:cy="730.11768"
           sodipodi:rx="27.415501"
           sodipodi:ry="11.685295"
           d="M 178.42546,730.11768 A 27.415501,11.685295 0 1 1 123.59446,730.11768 A 27.415501,11.685295 0 1 1 178.42546,730.11768 z" />
        <path
           sodipodi:type="arc"
           style="opacity:1;fill:#cbcbcb;fill-opacity:1;fill-rule:nonzero;stroke:none;stroke-width:1px;stroke-linecap:butt;stroke-linejoin:miter;marker:none;marker-start:none;marker-mid:none;marker-end:none;stroke-miterlimit:4;stroke-dasharray:none;stroke-dashoffset:0;stroke-opacity:1;visibility:visible;display:inline;overflow:visible;enable-background:accumulate"
           id="path6600"
           sodipodi:cx="216.40268"
           sodipodi:cy="754.61188"
           sodipodi:rx="22.247005"
           sodipodi:ry="7.8651028"
           d="M 238.64968,754.61188 A 22.247005,7.8651028 0 1 1 194.15567,754.61188 A 22.247005,7.8651028 0 1 1 238.64968,754.61188 z" />
      </g>
      <g
         transform="translate(-219.08328,-57.083195)"
         id="g6662">
        <path
           style="fill:#323232"
           d="M 548.78571,978.9552 C 530.20042,976.11935 512.06572,968.56418 498.4516,955.34501 C 489.5543,947.88934 482.86292,937.42674 478.64677,926.52071 C 472.44659,909.2273 471.59273,889.76754 476.1029,871.98504 C 480.85622,861.65005 478.14693,849.94356 473.36819,840.18098 C 470.07993,828.63857 468.9654,816.54785 463.40328,805.70016 C 459.44504,794.91714 453.35566,785.01162 449.56141,774.27038 C 450.81726,759.07488 470.23835,754.78461 482.56093,751.5699 C 495.61627,747.38899 508.28538,755.22831 506.42089,769.74201 C 509.74567,782.97362 510.14539,796.88109 514.88906,809.75686 C 520.73527,814.17385 520.90183,831.52928 528.25424,828.66104 C 527.2325,816.32249 529.74311,804.35472 530.68336,792.4382 C 528.25534,773.53026 527.66914,754.26754 522.43837,735.85106 C 522.23637,721.86917 538.04166,720.06482 548.7425,720.1585 C 564.02479,720.10408 582.74965,718.99443 593.54761,731.88782 C 590.90187,759.5652 585.27992,787.56951 589.89054,815.3096 C 592.76714,819.16277 586.04326,834.50921 594.42355,829.37713 C 595.71728,817.40149 605.40022,809.79203 609.66351,799.1966 C 613.75678,786.00805 616.7885,772.49495 620.34083,759.2007 C 628.5909,748.48198 642.86828,755.62006 653.06442,758.97676 C 664.09233,763.65509 680.21126,775.42714 670.92929,788.72666 C 662.97328,800.83674 655.11463,813.196 648.84396,826.23923 C 646.77791,837.78638 642.0644,848.47174 638.20138,859.43713 C 638.47334,871.90507 643.99769,884.47325 642.66736,897.44889 C 643.0157,909.59233 640.21776,921.74218 635.18161,932.56937 C 629.13475,943.83141 621.34864,954.38304 610.96141,962.11461 C 593.54903,975.59509 570.50577,981.02177 548.78571,978.9552 z"
           id="path5112" />
        <path
           style="fill:#f5f5f5;fill-opacity:1"
           d="M 571.78571,973.92438 C 587.96646,970.27873 604.04543,963.59843 615.54133,951.2553 C 631.00178,935.6986 639.8372,913.28311 638.108,891.35204 C 637.98087,881.1699 632.24059,872.0494 632.9893,861.86416 C 632.80254,852.17157 639.08552,844.14998 641.30256,835.02366 C 647.602,823.93504 630.565,828.71641 625.62941,824.09556 C 618.43759,823.45572 612.11465,810.56733 605.77767,816.33122 C 600.36046,822.10597 601.45738,831.78376 594.713,836.39597 C 583.83632,840.56835 584.65756,826.71581 584.82748,819.83779 C 584.88662,814.04267 585.42839,801.85047 577.25318,808.9607 C 565.38704,809.81708 553.38808,809.75673 541.51647,808.98372 C 532.68651,800.91049 531.27556,816.18781 533.60075,822.33743 C 536.96755,830.13772 529.89086,839.55662 521.57891,834.93334 C 516.65369,830.48024 516.08899,822.44079 513.17815,816.43044 C 505.53866,814.85028 497.82881,823.28068 489.51469,823.61023 C 482.13135,823.89007 471.55376,825.78885 477.64604,835.3631 C 479.73932,844.29486 485.01281,852.51883 483.25684,862.10915 C 482.64449,870.90428 478.12638,878.90579 478.01741,887.8228 C 476.52198,902.0455 479.03498,916.60915 485.28653,929.42367 C 488.95503,935.97824 493.14745,942.58943 498.5463,948.11206 C 505.71907,956.35765 514.52492,963.11236 524.7024,967.20801 C 539.17338,974.4007 555.89885,976.28941 571.78571,973.92438 z"
           id="path5110" />
        <path
           style="fill:#323232"
           d="M 594.28571,948.51756 C 594.28571,947.69946 596.00951,945.94189 598.11651,944.61185 C 603.83921,940.99925 612.89841,930.46909 616.20591,923.58526 C 621.47521,912.61816 622.32541,909.75308 622.95901,900.82646 C 623.43201,894.16287 623.93281,892.00502 625.00641,892.00502 C 627.98111,892.00502 624.83801,918.22473 621.36121,922.41408 C 620.76731,923.12969 619.71981,925.32703 619.03351,927.29706 C 615.69371,936.88405 594.28571,955.24074 594.28571,948.51756 z"
           id="path5108" />
        <path
           style="fill:#323232"
           d="M 520.53571,944.78453 C 519.29821,944.1877 518.28571,942.86816 518.28571,941.85221 C 518.28571,939.72398 519.50797,939.52644 522.60145,941.15472 C 528.24062,944.12295 526.28587,947.55772 520.53571,944.78453 z"
           id="path5106" />
        <path
           style="fill:#323232"
           d="M 498.96677,912.25502 C 496.6357,904.35863 495.73108,897.00502 497.09077,897.00502 C 498.67434,897.00502 499.10076,898.03101 500.88903,906.14399 C 501.78142,910.19256 502.7382,914.51752 503.01521,915.75502 C 503.35493,917.27268 503.05429,918.00502 502.09154,918.00502 C 501.2174,918.00502 500.00634,915.77651 498.96677,912.25502 z"
           id="path5104" />
        <path
           style="fill:#cbcbcb;fill-opacity:1"
           d="M 645.49951,819.30016 C 647.03191,817.83203 648.28571,816.24383 648.28571,815.77082 C 651.86866,808.58996 655.30388,801.06018 660.18661,794.62441 C 660.91421,793.74775 661.28021,792.43299 660.99991,791.70272 C 650.12122,788.49403 637.88603,786.15833 627.82571,778.40783 C 621.54711,775.3553 620.82981,775.98554 618.85891,786.28624 C 617.76556,794.75363 612.70751,802.32209 613.29911,811.02997 C 619.9445,817.87476 636.95283,825.99324 645.49951,819.30016 z"
           id="path5102"
           sodipodi:nodetypes="cccccccc" />
        <path
           style="fill:#cbcbcb;fill-opacity:1"
           d="M 504.57666,812.06297 C 506.15189,810.79462 506.29837,809.46966 505.79269,801.06297 C 505.0609,788.89728 502.86791,775.18722 501.42254,773.74185 C 494.25217,779.48018 479.97258,782.46506 470.52153,783.55044 C 466.56005,783.9408 462.88134,784.78733 462.34662,785.43162 C 462.68083,791.99415 466.75595,798.67474 468.97411,805.00166 C 471.96178,813.86612 474.71501,818.16125 476.87762,817.33138 C 484.44174,820.45926 497.26922,817.46583 504.57666,812.06297 z"
           id="path5092"
           sodipodi:nodetypes="cscccccc" />
        <path
           style="fill:#cbcbcb;fill-opacity:1"
           d="M 572.99241,804.87318 C 581.17651,803.31395 581.98095,801.33232 583.85384,778.11739 C 584.70171,767.60763 585.25821,756.8704 585.09061,754.25688 C 584.81281,749.92785 584.54541,749.47729 582.08516,749.19337 C 580.59986,749.02196 578.42779,749.3938 577.25834,750.01967 C 574.22535,751.64288 553.47234,752.31014 548.16446,750.95512 C 537.49377,748.23105 533.24015,747.65058 532.12447,748.76626 C 531.3175,749.57323 531.31588,752.92945 532.11847,761.1885 C 534.40936,784.76283 536.31559,798.16212 537.78182,800.99751 C 542.26334,806.74515 566.60585,806.01836 572.99241,804.87318 z"
           id="path5082"
           sodipodi:nodetypes="cssssssscc" />
        <path
           sodipodi:type="arc"
           style="fill:#cbcbcb;fill-opacity:1;fill-rule:nonzero;stroke:none;stroke-width:1px;stroke-linecap:butt;stroke-linejoin:miter;marker:none;marker-start:none;marker-mid:none;marker-end:none;stroke-miterlimit:4;stroke-dasharray:none;stroke-dashoffset:0;stroke-opacity:1;visibility:visible;display:inline;overflow:visible;enable-background:accumulate"
           id="path6624"
           sodipodi:cx="558.60956"
           sodipodi:cy="735.85468"
           sodipodi:rx="27.532282"
           sodipodi:ry="9.7841997"
           d="M 586.14184,735.85468 A 27.532282,9.7841997 0 1 1 531.07728,735.85468 A 27.532282,9.7841997 0 1 1 586.14184,735.85468 z" />
        <path
           sodipodi:type="arc"
           style="fill:#cbcbcb;fill-opacity:1;fill-rule:nonzero;stroke:none;stroke-width:1px;stroke-linecap:butt;stroke-linejoin:miter;marker:none;marker-start:none;marker-mid:none;marker-end:none;stroke-miterlimit:4;stroke-dasharray:none;stroke-dashoffset:0;stroke-opacity:1;visibility:visible;display:inline;overflow:visible;enable-background:accumulate"
           id="path6626"
           sodipodi:cx="479.19824"
           sodipodi:cy="754.05786"
           sodipodi:rx="24.574268"
           sodipodi:ry="11.604516"
           d="M 503.77251,754.05786 A 24.574268,11.604516 0 1 1 454.62397,754.05786 A 24.574268,11.604516 0 1 1 503.77251,754.05786 z"
           transform="matrix(0.9351852,-0.1818054,0,0.9817491,30.376527,113.85279)" />
        <path
           sodipodi:type="arc"
           style="fill:#cbcbcb;fill-opacity:1;fill-rule:nonzero;stroke:none;stroke-width:1px;stroke-linecap:butt;stroke-linejoin:miter;marker:none;marker-start:none;marker-mid:none;marker-end:none;stroke-miterlimit:4;stroke-dasharray:none;stroke-dashoffset:0;stroke-opacity:1;visibility:visible;display:inline;overflow:visible;enable-background:accumulate"
           id="path6628"
           sodipodi:cx="649.17029"
           sodipodi:cy="741.08813"
           sodipodi:rx="26.167046"
           sodipodi:ry="13.197292"
           d="M 675.33733,741.08813 A 26.167046,13.197292 0 1 1 623.00324,741.08813 A 26.167046,13.197292 0 1 1 675.33733,741.08813 z"
           transform="matrix(0.8434783,0.311875,0,0.8621873,99.333867,-70.520896)" />
      </g>
    </g>
  </g>
</svg>
