<?xml version="1.0"?>
<svg xmlns:rdf="http://www.w3.org/1999/02/22-rdf-syntax-ns#" xmlns="http://www.w3.org/2000/svg" xmlns:cc="http://creativecommons.org/ns#" xmlns:dc="http://purl.org/dc/elements/1.1/" id="svg2" viewBox="0 0 1689.2 1118.6" version="1.0">
 <defs id="defs4">
  <style id="style2623" type="text/css"/>
 </defs>
 <path id="path1879" d="m765.2 971.7c0-22 110.1-41.3 110.1-33v33l27.4-63.3-27.4-63.2v41.2c0-13.8-110.1-156.7-110.1-602.1v687.4z" stroke="#000" stroke-width="2.4249" fill="#903"/>
 <g id="g3009" transform="matrix(1.5,0,0,1.5,-782.8,-461.7)">
  <path id="text5712" d="m1254 1014v-18.4h4l4 13.4c0 1 1 2 1 3 0-1 0-2 1-3l4-13.4h3v18.4h-2v-15.4l-5 15.4h-2l-6-15.4v15.4h-2zm30-1c-1 0-2 1-3 1 0 0-1 1-2 1-2 0-3-1-3-2-1 0-2-1-2-2s0-2 1-2c0-1 0-1 1-1 0-1 1-1 2-1h2c1-1 3-1 4-1v-1c0-1-1-1-1-2h-5s-1 1-1 2h-2c0-1 0-2 1-3 0 0 1-1 2-1h5c1 0 2 1 2 1s1 1 1 2v9s0 1 1 1h-3v-1zm0-5h-4c-1 1-2 1-2 1s-1 0-1 1v2c1 1 2 1 2 1 1 0 2 0 3-1l1-1c0-1 1-2 1-3zm4 2h3c0 1 0 1 1 2 0 0 1 1 2 1s2-1 2-1c1 0 1-1 1-1 0-1 0-1-1-2h-2c-2-1-3-1-3-1l-2-2v-3c0-1 1-1 1-1 1-1 1-1 2-1h4c1 0 2 1 2 1 0 1 1 2 1 2l-2 1c0-1-1-2-1-2h-4c-1 0-1 1-1 1v1s1 0 1 1h2c2 1 3 1 3 1 1 0 1 1 2 1v4c-1 1-1 2-2 2s-2 1-3 1c-2 0-3-1-4-2-1 0-1-1-2-3zm13 0h2c1 1 1 1 1 2 1 0 2 1 3 1s2-1 2-1c1 0 1-1 1-1 0-1 0-1-1-2h-2c-2-1-3-1-4-1 0-1-1-1-1-2v-3c0-1 1-1 1-1 0-1 1-1 1-1h5c1 0 2 1 2 1 0 1 1 2 1 2l-3 1v-2h-5v2l1 1h2c1 1 3 1 3 1 1 0 1 1 2 1v2c0 1 0 2-1 2 0 1-1 2-1 2-1 0-2 1-3 1-2 0-3-1-4-2-1 0-2-1-2-3zm23 0h2c0 2-1 3-2 3-1 1-2 2-4 2s-3-1-4-2-2-3-2-5c0-3 1-4 2-5 1-2 2-2 4-2s3 0 5 1c1 2 1 3 1 6h-10c0 2 1 3 2 3 0 1 1 2 2 2s2-1 2-1c1 0 2-1 2-2zm-7-4h7c0-1 0-2-1-2-1-1-2-1-3-1s-2 0-2 1c-1 0-1 1-1 2zm12 8v-13h2v2c1-2 2-2 4-2h2c1 0 2 1 2 1 0 1 1 1 1 2v10h-2v-8c0-1-1-1-1-2 0 0 0-1-1-1h-1c-1 0-2 0-3 1 0 0-1 1-1 3v7h-2zm23-1c-1 0-2 1-3 1 0 0-1 1-2 1s-3-1-3-2c-1 0-2-1-2-2s1-2 1-2c0-1 1-1 1-1 1-1 1-1 2-1h2c1-1 3-1 4-1v-1c0-1-1-1-1-2h-5s-1 1-1 2h-2c0-1 0-2 1-3 0 0 1-1 2-1h6l1 1s1 1 1 2v9s0 1 1 1h-3v-1zm0-5h-4c-1 1-2 1-2 1s-1 0-1 1v1s0 1 1 1c0 1 1 1 2 1 0 0 1 0 2-1 1 0 1-1 1-1 1-1 1-2 1-3zm5 6v-13h2v2c1-2 3-2 5-2h2c1 0 1 1 1 1 1 1 1 1 1 2v10h-2v-10l-1-1h-2c-1 0-2 0-2 1-1 0-1 1-1 3v7h-3zm14 1 2 1c1 0 1 1 1 1 1 1 1 1 2 1s2 0 3-1c0 0 1-1 1-2v-3c-1 2-2 2-3 2-2 0-4 0-5-2-1-1-1-3-1-4v-4l2-2c1-1 2-1 4-1 1 0 2 0 3 2v-2h2v16l-2 2c-1 0-2 1-4 1-1 0-2-1-3-1-1-1-2-2-2-4zm2-8c0 2 0 3 1 4s2 1 3 1 2 0 2-1c1-1 1-2 1-4 0-1 0-2-1-3 0-1-1-1-2-1s-2 0-3 1-1 2-1 3zm21 6s-1 1-2 1-2 1-2 1c-2 0-3-1-4-2-1 0-1-1-1-2s0-2 1-2c0-1 0-1 1-1 0-1 1-1 1-1h2c2-1 3-1 4-1v-3h-5c-1 0-1 1-1 2h-3c1-1 1-2 1-3 1 0 2-1 2-1h6c1 0 1 1 2 1v2c1 0 1 1 1 2v8h-2s0-1-1-1zm0-5h-3c-1 1-2 1-2 1-1 0-1 0-1 1 0 0-1 0-1 1l1 1c1 1 1 1 2 1s2 0 2-1c1 0 2-1 2-1v-3zm8 6h-2v-18.4h2v6.4c1-1 2-1 4-1h2c1 0 2 1 2 2 0 0 1 1 1 2s1 1 1 2c0 3-1 4-2 6-1 1-3 2-4 2-2 0-3-1-4-2v1zm0-7c0 2 0 3 1 4 0 1 1 2 3 2 1 0 1-1 2-2 1 0 1-2 1-3 0-2 0-3-1-4 0-1-1-1-2-1s-2 0-3 1-1 2-1 3zm21 3h3c-1 2-1 3-2 3-1 1-3 2-4 2-2 0-4-1-5-2s-1-3-1-5c0-3 0-4 1-5 1-2 3-2 5-2 1 0 3 0 4 1 1 2 2 3 2 6h-10c0 2 0 3 1 3 1 1 2 2 3 2s1-1 2-1 1-1 1-2zm-7-4h7v-2c-1-1-2-1-3-1s-2 0-3 1c-1 0-1 1-1 2zm12 8v-13h2v2c1-2 3-2 5-2h2c1 0 1 1 1 1 1 1 1 1 1 2v10h-2v-10l-1-1h-2c-1 0-2 0-2 1-1 0-1 1-1 3v7h-3zm24 0h-2v-18.4h2v6.4c1-1 2-1 4-1h2c1 0 1 1 2 2 0 0 1 1 1 2v2c0 3 0 4-1 6-2 1-3 2-4 2-2 0-3-1-4-2v1zm0-7v4c1 1 2 2 3 2s2-1 3-2c1 0 1-2 1-3 0-2 0-3-1-4s-2-1-3-1-1 0-2 1-1 2-1 3zm21 3h2c0 2-1 3-2 3-1 1-2 2-3 2-2 0-4-1-5-2s-2-3-2-5c0-3 1-4 2-5 1-2 3-2 4-2 2 0 4 0 5 1 1 2 1 3 1 6h-9c0 2 0 3 1 3 1 1 1 2 3 2 0 0 1-1 2-1 0 0 1-1 1-2zm-7-4h7c0-1 0-2-1-2-1-1-1-1-3-1-1 0-1 0-2 1-1 0-1 1-1 2zm11 8v-2l8-9h-8v-2h11v1l-7 9-1 1h9v2h-12zm14-15.4v-3h2v3h-2zm0 15.4v-13h2v13h-2zm15-4h2c0 2-1 3-2 3-1 1-2 2-4 2s-3-1-4-2c-2-1-2-3-2-5 0-3 0-4 2-5 1-2 2-2 4-2s3 0 4 1c2 2 2 3 2 6h-10c0 2 1 3 1 3 1 1 2 2 3 2s2-1 2-1c1 0 1-1 2-2zm-8-4h8c0-1-1-2-1-2-1-1-2-1-3-1s-2 0-3 1c0 0-1 1-1 2zm13 8v-18.4h2v6.4c1-1 2-1 4-1h3c0 1 1 1 1 2s1 2 1 3v8h-3v-11h-4c-1 0-1 1-2 2v9h-2zm23-4h2c0 2-1 3-2 3-1 1-2 2-3 2-2 0-4-1-5-2s-2-3-2-5c0-3 1-4 2-5 1-2 3-2 4-2 2 0 4 0 5 1 1 2 1 3 1 6h-9c0 2 0 3 1 3 1 1 2 2 3 2 0 0 1-1 2-1 0 0 1-1 1-2zm-7-4h7c0-1 0-2-1-2 0-1-1-1-3-1-1 0-1 0-2 1-1 0-1 1-1 2zm12 8v-13h2v2c1-2 3-2 4-2h3l1 1c1 1 1 1 1 2v10h-2v-8c0-1 0-1-1-2v-1h-2c-1 0-2 0-2 1-1 0-2 1-2 3v7h-2zm21-4h2c0 1 0 1 1 2 0 0 1 1 2 1s2-1 3-1v-3h-3c-1-1-2-1-3-1l-2-2v-3c1-1 1-1 2-1 0-1 0-1 1-1h5l1 1c1 1 1 2 1 2l-2 1c0-1 0-2-1-2h-4c-1 0-1 1-1 1v1c1 0 1 0 1 1h2c2 1 3 1 4 1l1 1c0 1 1 2 1 2 0 1-1 2-1 2 0 1-1 2-2 2s-2 1-3 1-3-1-4-2c-1 0-1-1-1-3zm13-11.4v-3h3v3h-3zm0 15.4v-13h3v13h-3zm15-5 2 1c0 1-1 2-2 3s-2 2-4 2-3-1-4-2-2-3-2-5 1-3 1-4 1-2 2-3h3c2 0 3 0 4 1 1 0 1 2 2 3h-3c0-1 0-1-1-2h-2c-1 0-2 0-2 1-1 1-1 2-1 4 0 1 0 3 1 3 0 1 1 2 2 2s2-1 2-1c1-1 1-2 2-3zm4 5v-18.4h2v6.4c1-1 2-1 4-1h2c1 1 2 1 2 2s1 2 1 3v8h-3v-11h-4c-1 0-1 1-2 2v9h-2zm30-1c-1 0-2 1-3 1s-1 1-2 1c-2 0-3-1-4-2 0 0-1-1-1-2s0-2 1-2c0-1 0-1 1-1 0-1 1-1 1-1h2c2-1 4-1 4-1v-3h-5c-1 0-1 1-1 2h-2c0-1 0-2 1-3 0 0 1-1 2-1h5c1 0 2 1 2 1s0 1 1 2v10h-2v-1zm-1-5h-3c-1 1-2 1-2 1-1 0-1 0-1 1v2c1 1 1 1 2 1s2 0 3-1l1-1v-3zm15 6v-2c-1 2-3 3-4 3s-2-1-2-1c-1 0-2-1-2-1 0-1-1-1-1-2v-10h2v7c0 1 0 2 1 3v1c1 0 1 1 2 1s1-1 2-1 1-1 1-1c1-1 1-2 1-3v-7h2v13h-2zm6 0v-11h-2v-2h2v-3.4c0-1 1-1 1-2h5l-1 2h-2c-1 0-1 1-1 2v1.4h3v2h-3v11h-2z"/>
  <path id="text2630" d="m1454 1043h-2v-15c-1 1-2 1-2 2-1 0-2 1-3 1v-2c1-1 3-1 3-2 1-1 2-2 2-3h2v19zm13 0v-19h3v11l5-6h3l-5 5 5 9h-2l-5-7-1 1v6h-3zm13 1h2c0 1 0 1 1 2h4c1-1 1-1 1-2 1-1 1-2 1-3-1 1-3 2-4 2-2 0-3-1-4-2-1-2-2-3-2-5 0-1 0-2 1-3 0-2 1-2 2-3s2-1 3-1c2 0 3 1 4 2v-2h2v12c0 2 0 3-1 4 0 1-1 2-2 2-1 1-2 1-3 1-2 0-3 0-4-1s-1-2-1-3zm2-8c0 2 0 3 1 4 0 0 1 1 2 1s2-1 3-1c0-1 1-2 1-4s-1-3-1-4c-1-1-2-1-3-1s-2 0-2 1c-1 1-1 2-1 4zm23 7v-19h4l4 13c1 2 1 2 1 3 0-1 1-2 1-3l4-13h4v19h-3v-16l-5 16h-2l-5-16v16h-3zm30-5 3 1c-1 1-1 2-2 3s-3 1-4 1c-2 0-4-1-5-2s-1-3-1-5 0-4 1-5 3-2 5-2 3 1 4 2 2 3 2 5v1h-10c0 1 0 2 1 3s2 1 3 1h2c1-1 1-2 1-3zm-7-3h7v-3c-1-1-2-1-3-1s-2 0-3 1-1 2-1 3zm22 3 2 1c0 1-1 2-2 3s-2 1-4 1-3-1-5-2c-1-1-1-3-1-5s0-4 2-5c1-1 2-2 4-2s3 1 4 2 2 3 2 5v1h-10c0 1 1 2 1 3 1 1 2 1 3 1h2c1-1 1-2 2-3zm-8-3h8c0-1-1-2-1-3-1-1-2-1-3-1s-2 0-3 1c0 1-1 2-1 3zm13 8v-14h2v2l1-1c1-1 1-1 2-1 0 0 1 0 2 1l-1 2s-1-1-2-1c0 0 0 1-1 1 0 0 0 1-1 1v10h-2zm11 0-4-14h2l2 8 1 3s0-1 1-3l2-8h2l2 8 1 3v-3l3-8h2l-4 14h-3l-2-8v-2l-3 10h-2zm24-2c0 1-1 1-2 2h-3c-1 0-2 0-3-1s-1-2-1-3v-2c1 0 1-1 2-1 0 0 1 0 1-1h2c2 0 3 0 4-1v-2c-1-1-2-1-3-1s-2 0-2 1c-1 0-1 1-1 2l-3-1c1-1 1-1 1-2 1-1 1-1 2-1 1-1 2-1 3-1s2 0 3 1c1 0 1 0 2 1v6c0 2 0 4 1 4v2h-2c0-1-1-1-1-2zm0-5c-1 0-2 1-3 1h-2l-1 1c-1 0-1 1-1 1 0 1 1 1 1 2h4l2-2v-3zm5 3 2-1c0 1 1 2 1 2 1 1 2 1 3 1h2c0-1 1-1 1-2l-1-1s-1-1-2-1c-2 0-3-1-4-1l-1-1c0-1-1-1-1-2s1-1 1-2c0 0 0-1 1-1 0 0 1 0 1-1h2c1 0 2 0 3 1 1 0 1 0 2 1 0 0 0 1 1 2h-3s0-1-1-1c0-1-1-1-2-1s-1 0-2 1v2h1s1 0 2 1c1 0 2 0 3 1 1 0 1 0 1 1 1 0 1 1 1 2s0 1-1 2c0 1-1 1-2 1 0 1-1 1-2 1-2 0-3 0-4-1s-2-2-2-3zm13 0 2-1c0 1 0 2 1 2 1 1 1 1 2 1h3v-3s-1-1-2-1c-2 0-3-1-4-1s-1-1-1-1c-1-1-1-1-1-2s0-1 1-2c0 0 0-1 1-1l1-1h2c1 0 2 0 3 1 1 0 1 0 2 1v2h-2s0-1-1-1c0-1-1-1-2-1s-2 0-2 1c0 0-1 0-1 1l1 1c1 0 1 0 2 1 2 0 3 0 4 1 0 0 1 0 1 1 1 0 1 1 1 2s0 1-1 2c0 1-1 1-2 1-1 1-2 1-3 1s-3 0-3-1c-1-1-2-2-2-3zm23-1 2 1c-1 1-1 2-2 3s-2 1-4 1-3-1-5-2c-1-1-1-3-1-5s0-4 1-5c2-1 3-2 5-2s3 1 4 2 2 3 2 5v1h-10c0 1 1 2 1 3 1 1 2 1 3 1h2c1-1 1-2 2-3zm-8-3h8c-1-1-1-2-1-3-1-1-2-1-3-1s-2 0-3 1c0 1-1 2-1 3zm13 8v-14h2v2l1-1c1-1 1-1 2-1 0 0 1 0 2 1l-1 2c-1 0-1-1-2-1l-1 1-1 1v10h-2zm9 0v-3h2v3h-2z"/>
 </g>
 <path id="text5700" d="m29.53 43.82v-43.82h13.3l7.9 29.92 7.9-29.92h13.27v43.82h-8.17v-34.5l-8.7 34.5h-8.6l-8.6-34.5v34.5h-8.3zm69.57-10.1 8.3 1.4c-1 3.1-2.7 5.4-5.1 7-2.3 1.6-5.2 2.5-8.7 2.5-5.5 0-9.6-1.9-12.2-5.5-2.1-2.9-3.2-6.5-3.2-10.9 0-5.3 1.4-9.4 4.2-12.4 2.7-3 6.2-4.4 10.4-4.4 4.7 0 8.4 1.5 11.2 4.6 2.7 3.2 4 7.9 3.9 14.4h-21.1c0.1 2.5 0.8 4.4 2.1 5.8s2.9 2.1 4.8 2.1c1.3 0 2.4-0.4 3.3-1.1s1.6-1.9 2.1-3.5zm0.5-8.5c-0.1-2.4-0.7-4.3-1.9-5.5-1.2-1.3-2.7-1.9-4.4-1.9-1.8 0-3.4 0.6-4.5 2-1.2 1.3-1.8 3.1-1.8 5.4h12.6zm33.6 8.5 8.3 1.4c-1 3.1-2.7 5.4-5.1 7-2.3 1.6-5.2 2.5-8.7 2.5-5.5 0-9.6-1.9-12.2-5.5-2.1-2.9-3.2-6.5-3.2-10.9 0-5.3 1.4-9.4 4.1-12.4 2.8-3 6.3-4.4 10.5-4.4 4.7 0 8.4 1.5 11.2 4.6 2.7 3.2 4 7.9 3.9 14.4h-21.1c0.1 2.5 0.8 4.4 2.1 5.8s2.9 2.1 4.8 2.1c1.3 0 2.4-0.4 3.3-1.1s1.6-1.9 2.1-3.5zm0.4-8.5c0-2.4-0.6-4.3-1.8-5.5-1.2-1.3-2.7-1.9-4.4-1.9-1.8 0-3.4 0.6-4.5 2-1.2 1.3-1.8 3.1-1.8 5.4h12.5zm23.3 18.6h-8.4v-31.7h7.8v4.5c1.4-2.1 2.6-3.6 3.6-4.2 1.1-0.7 2.3-1 3.7-1 1.9 0 3.7 0.5 5.5 1.5l-2.6 7.4c-1.4-1-2.7-1.4-4-1.4-1.1 0-2.1 0.3-2.9 1-0.9 0.6-1.5 1.8-2 3.5-0.4 1.7-0.7 5.2-0.7 10.6v9.8zm34.2-10.1 8.4 1.4c-1.1 3.1-2.8 5.4-5.1 7-2.4 1.6-5.3 2.5-8.8 2.5-5.5 0-9.6-1.9-12.2-5.5-2.1-2.9-3.2-6.5-3.2-10.9 0-5.3 1.4-9.4 4.2-12.4 2.7-3 6.2-4.4 10.4-4.4 4.7 0 8.4 1.5 11.2 4.6 2.7 3.2 4 7.9 3.9 14.4h-21.1c0.1 2.5 0.8 4.4 2.1 5.8s2.9 2.1 4.8 2.1c1.3 0 2.4-0.4 3.3-1.1s1.6-1.9 2.1-3.5zm0.5-8.5c-0.1-2.4-0.7-4.3-1.9-5.5-1.2-1.3-2.7-1.9-4.4-1.9-1.8 0-3.3 0.6-4.5 2-1.2 1.3-1.8 3.1-1.8 5.4h12.6zm12.2 9.6 8.5-1.3c0.3 1.6 1 2.9 2.1 3.7 1.1 0.9 2.7 1.3 4.6 1.3 2.2 0 3.9-0.4 4.9-1.2 0.8-0.6 1.2-1.3 1.2-2.3 0-0.6-0.2-1.1-0.6-1.5-0.5-0.4-1.4-0.8-2.9-1.2-6.7-1.4-11-2.8-12.8-4-2.6-1.8-3.8-4.1-3.8-7.2 0-2.8 1.1-5.1 3.2-6.9 2.2-1.9 5.6-2.8 10.2-2.8 4.3 0 7.5 0.7 9.6 2.1 2.2 1.4 3.6 3.5 4.4 6.3l-7.9 1.4c-0.4-1.2-1-2.2-1.9-2.8-1-0.7-2.3-1-4.1-1-2.2 0-3.8 0.3-4.8 0.9-0.6 0.5-0.9 1-0.9 1.7 0 0.6 0.3 1.1 0.8 1.6 0.8 0.5 3.4 1.3 7.9 2.3s7.6 2.3 9.4 3.8c1.7 1.4 2.6 3.5 2.6 6.2 0 2.9-1.2 5.4-3.7 7.5-2.4 2.1-6 3.2-10.8 3.2-4.3 0-7.7-0.9-10.2-2.7-2.6-1.7-4.2-4.1-5-7.1zm34.1 0 8.5-1.3c0.3 1.6 1 2.9 2.1 3.7 1.1 0.9 2.7 1.3 4.6 1.3 2.2 0 3.8-0.4 4.9-1.2 0.8-0.6 1.2-1.3 1.2-2.3 0-0.6-0.2-1.1-0.6-1.5-0.5-0.4-1.4-0.8-2.9-1.2-6.7-1.4-11-2.8-12.8-4-2.6-1.8-3.8-4.1-3.8-7.2 0-2.8 1.1-5.1 3.2-6.9 2.2-1.9 5.6-2.8 10.2-2.8 4.3 0 7.5 0.7 9.6 2.1 2.2 1.4 3.6 3.5 4.4 6.3l-7.9 1.4c-0.4-1.2-1-2.2-1.9-2.8-1-0.7-2.3-1-4.1-1-2.2 0-3.8 0.3-4.8 0.9-0.6 0.5-0.9 1-0.9 1.7 0 0.6 0.3 1.1 0.8 1.6 0.8 0.5 3.4 1.3 7.9 2.3s7.6 2.3 9.4 3.8c1.7 1.4 2.6 3.5 2.6 6.2 0 2.9-1.2 5.4-3.7 7.5-2.4 2.1-6 3.2-10.8 3.2-4.3 0-7.7-0.9-10.2-2.7-2.6-1.7-4.2-4.1-5-7.1zm43.4-13-7.7-1.4c0.9-3.1 2.4-5.4 4.5-6.8 2.1-1.5 5.2-2.2 9.3-2.2 3.7 0 6.5 0.4 8.4 1.3 1.8 0.9 3.1 2 3.8 3.4 0.8 1.3 1.2 3.8 1.2 7.5l-0.1 9.8c0 2.8 0.1 4.8 0.4 6.2 0.2 1.3 0.7 2.7 1.5 4.2h-8.3c-0.3-0.5-0.5-1.4-0.8-2.4-0.2-0.5-0.3-0.9-0.3-1-1.5 1.4-3 2.4-4.6 3.1-1.7 0.7-3.4 1.1-5.3 1.1-3.2 0-5.8-0.9-7.7-2.7s-2.8-4-2.8-6.7c0-1.8 0.4-3.4 1.2-4.8 0.9-1.4 2.1-2.5 3.7-3.3 1.5-0.7 3.7-1.4 6.6-1.9 4-0.8 6.7-1.5 8.2-2.1v-0.8c0-1.6-0.4-2.8-1.2-3.5s-2.3-1-4.5-1c-1.5 0-2.7 0.3-3.5 0.9s-1.5 1.6-2 3.1zm11.2 6.8c-1.1 0.3-2.8 0.8-5.1 1.3s-3.9 1-4.6 1.4c-1.1 0.8-1.6 1.8-1.6 3s0.4 2.2 1.3 3c0.9 0.9 2 1.3 3.3 1.3 1.5 0 3-0.5 4.4-1.5 1-0.7 1.7-1.7 2-2.7 0.2-0.8 0.3-2.1 0.3-4.1v-1.7zm16.6 15.2v-43.82h8.4v43.82h-8.4zm13.6 0v-6.5l11.9-13.7c1.9-2.2 3.4-3.8 4.3-4.7-1 0-2.2 0.1-3.8 0.1h-11.3v-6.9h26.3v5.9l-12.1 14-4.3 4.7c2.3-0.2 3.8-0.3 4.3-0.3h13v7.4h-28.3zm52.4-10.1 8.4 1.4c-1.1 3.1-2.8 5.4-5.1 7-2.4 1.6-5.3 2.5-8.8 2.5-5.5 0-9.6-1.9-12.2-5.5-2.1-2.9-3.2-6.5-3.2-10.9 0-5.3 1.4-9.4 4.2-12.4 2.7-3 6.2-4.4 10.4-4.4 4.7 0 8.5 1.5 11.2 4.6 2.7 3.2 4 7.9 3.9 14.4h-21c0 2.5 0.7 4.4 2 5.8s2.9 2.1 4.8 2.1c1.3 0 2.5-0.4 3.4-1.1 0.8-0.7 1.5-1.9 2-3.5zm0.5-8.5c-0.1-2.4-0.7-4.3-1.9-5.5-1.2-1.3-2.7-1.9-4.4-1.9-1.8 0-3.3 0.6-4.5 2-1.2 1.3-1.8 3.1-1.8 5.4h12.6z"/>
 <rect id="_164092216" stroke-linejoin="round" height="687.3" width="687.3" stroke="#000" stroke-linecap="round" y="284.9" x="903.8" stroke-width="2.4249" fill="#0ff"/>
 <rect id="_164090752" stroke-linejoin="round" height="128.5" width="128.5" stroke="#000" stroke-linecap="round" y="843.8" x="903.8" stroke-width="2.4249" fill="#903"/>
 <rect id="_164090464" stroke-linejoin="round" height="429.4" width="83.81" stroke="#000" stroke-linecap="round" y="541.6" x="677.7" stroke-width="2.4249" fill="#fc0"/>
 <rect id="_164092960" stroke-linejoin="round" height="429.4" width="598.7" stroke="#000" stroke-linecap="round" y="541.6" x="78.98" stroke-width="2.4249" fill="#0f0"/>
 <rect id="_164093608" stroke-linejoin="round" height="259.2" width="69" stroke="#000" stroke-linecap="round" y="284.3" x="649.6" stroke-width="2.4249" fill="#66f"/>
 <rect id="_164092984" stroke-linejoin="round" height="259.2" width="22.38" stroke="#000" stroke-linecap="round" y="284.3" x="717.6" stroke-width="2.4249" fill="#f09"/>
 <rect id="_164092936" stroke-linejoin="round" height="259.2" width="20.51" stroke="#000" stroke-linecap="round" y="284.3" x="740" stroke-width="2.4249" fill="#630"/>
 <path id="text2651" d="m213.5 453.8 3.8-0.5c0.4 2.1 1.1 3.6 2.2 4.6 1 0.9 2.2 1.4 3.8 1.4 1.7 0 3.2-0.6 4.4-1.8 1.3-1.2 1.8-2.8 1.8-4.6 0-1.7-0.5-3.1-1.7-4.2-1.1-1.2-2.5-1.7-4.2-1.7-0.7 0-1.7 0.1-2.7 0.4l0.5-3.3c0.2 0.1 0.3 0.1 0.5 0.1 1.7 0 3.1-0.5 4.3-1.2 1.3-0.9 2-2.2 2-3.9 0-1.4-0.5-2.5-1.4-3.5-1-0.8-2.2-1.3-3.6-1.3-1.5 0-2.7 0.5-3.6 1.3-1.1 1-1.7 2.3-1.9 4.2l-3.8-0.6c0.4-2.6 1.5-4.5 3.1-5.9s3.7-2.1 6.1-2.1c1.7 0 3.2 0.4 4.6 1.1s2.5 1.6 3.2 2.9c0.7 1.2 1.1 2.5 1.1 4 0 1.3-0.4 2.4-1 3.6-0.8 1-1.8 1.9-3.2 2.5 1.8 0.4 3.3 1.4 4.2 2.6 1.1 1.3 1.5 2.9 1.5 4.9 0 2.7-0.9 5-2.9 6.9-1.9 1.8-4.4 2.7-7.3 2.7-2.8 0-5-0.8-6.8-2.3-1.7-1.7-2.7-3.7-3-6.3zm23.7-6.9c0-3.7 0.4-6.6 1.2-8.8 0.7-2.2 1.8-3.9 3.3-5.1 1.4-1.2 3.3-1.8 5.5-1.8 1.6 0 3 0.4 4.3 1 1.2 0.7 2.3 1.6 3.1 2.9 0.8 1.2 1.4 2.7 1.8 4.5 0.5 1.7 0.8 4.2 0.8 7.3 0 3.5-0.4 6.4-1.2 8.6-0.7 2.2-1.8 3.9-3.3 5.1-1.4 1.2-3.3 1.8-5.5 1.8-2.9 0-5.2-1.1-6.9-3.2-2-2.6-3.1-6.6-3.1-12.3zm3.9 0c0 4.9 0.6 8.2 1.7 9.9 1.3 1.6 2.7 2.5 4.4 2.5s3.1-0.9 4.4-2.5c1.1-1.7 1.7-5 1.7-9.9 0-5.1-0.6-8.4-1.7-10.1-1.3-1.6-2.7-2.5-4.5-2.5-1.7 0-3 0.8-4.1 2.2-1.3 1.9-1.9 5.3-1.9 10.4zm21.9 15v-4.3h4.3v4.3c0 1.6-0.3 2.8-0.9 3.8-0.5 0.9-1.4 1.7-2.6 2.2l-1-1.6c0.7-0.4 1.3-0.8 1.7-1.5s0.6-1.7 0.7-2.9h-2.2zm29.2-23.1-3.7 0.3c-0.3-1.5-0.7-2.5-1.4-3.2-1-1.1-2.3-1.6-3.7-1.6-1.2 0-2.3 0.3-3.1 1-1.3 0.8-2.2 2.1-2.9 3.8-0.6 1.6-1 4-1 7 0.9-1.3 2-2.4 3.3-3 1.3-0.7 2.7-1 4.1-1 2.5 0 4.6 0.9 6.3 2.8 1.9 1.8 2.7 4.1 2.7 7.1 0 1.9-0.4 3.7-1.2 5.3-0.9 1.6-2 2.9-3.4 3.8-1.5 0.9-3.1 1.3-5 1.3-3.1 0-5.6-1.2-7.6-3.5s-2.9-6.1-2.9-11.3c0-5.9 1-10.2 3.2-12.9 1.9-2.3 4.5-3.5 7.7-3.5 2.4 0 4.4 0.6 5.9 2.1 1.5 1.3 2.5 3.1 2.7 5.5zm-15.3 13.2c0 1.3 0.3 2.5 0.9 3.7 0.6 1.1 1.3 2.1 2.3 2.6 0.9 0.7 2 1 3.1 1 1.5 0 3-0.7 4.1-1.9s1.7-3 1.7-5.2c0-2.1-0.6-3.8-1.7-5s-2.6-1.9-4.3-1.9-3.1 0.7-4.3 1.9-1.8 2.8-1.8 4.8zm32.2-13.3c0-2.2 0.5-4.1 1.7-5.6 1-1.5 2.6-2.3 4.7-2.3 1.9 0 3.5 0.7 4.8 2.1 1.2 1.3 1.9 3.3 1.9 6 0 2.5-0.7 4.5-1.9 6-1.4 1.4-2.9 2-4.8 2-1.8 0-3.3-0.6-4.5-2-1.3-1.4-1.9-3.5-1.9-6.2zm6.5-5.3c-0.9 0-1.7 0.4-2.3 1.2-0.6 0.9-0.9 2.3-0.9 4.5 0 1.9 0.3 3.3 0.9 4 0.6 0.9 1.4 1.3 2.3 1.3 1 0 1.7-0.4 2.4-1.3 0.6-0.7 0.8-2.2 0.8-4.3 0-2-0.2-3.4-0.8-4.2-0.7-0.8-1.4-1.2-2.4-1.2zm0 29.6 16.7-32.2h3.1l-16.7 32.2h-3.1zm13.2-8.3c0-2.1 0.6-4 1.7-5.6 1.1-1.5 2.7-2.2 4.8-2.2 1.9 0 3.5 0.6 4.7 2 1.3 1.4 1.9 3.4 1.9 6s-0.6 4.6-1.9 6-2.8 2.1-4.7 2.1c-1.8 0-3.4-0.7-4.6-2.1-1.2-1.3-1.9-3.4-1.9-6.2zm6.6-5.3c-1 0-1.7 0.4-2.4 1.3-0.6 0.7-0.9 2.2-0.9 4.4 0 1.9 0.3 3.3 1 4.1 0.6 0.8 1.3 1.2 2.3 1.2 0.9 0 1.7-0.4 2.3-1.2s0.9-2.3 0.9-4.4c0-2-0.3-3.4-0.9-4.1-0.6-0.9-1.4-1.3-2.3-1.3zm30.9 21.5c-2.1-2.7-3.8-5.7-5.2-9.2s-2.2-7.2-2.2-10.9c0-3.3 0.6-6.4 1.6-9.5 1.3-3.5 3.2-7 5.8-10.5h2.7c-1.7 2.9-2.8 4.9-3.3 6.2-0.9 2-1.5 4-2 6-0.6 2.6-0.9 5.2-0.9 7.8 0 6.7 2 13.3 6.2 20.1h-2.7zm20.2-9h-3.7v-23.9c-1 0.9-2.1 1.7-3.6 2.6-1.5 0.8-2.8 1.5-3.9 1.9v-3.6c2.1-1 3.9-2.2 5.5-3.6 1.5-1.4 2.6-2.8 3.3-4.1h2.4v30.7zm9.6-15c0-3.7 0.4-6.6 1.1-8.8 0.8-2.2 1.8-3.9 3.3-5.1s3.4-1.8 5.5-1.8c1.7 0 3.1 0.4 4.3 1 1.3 0.7 2.3 1.6 3.2 2.9 0.7 1.2 1.4 2.7 1.9 4.5 0.3 1.7 0.6 4.2 0.6 7.3 0 3.5-0.4 6.4-1.1 8.6-0.8 2.2-1.8 3.9-3.3 5.1s-3.3 1.8-5.6 1.8c-2.9 0-5.2-1.1-6.9-3.2-2-2.6-3-6.6-3-12.3zm3.9 0c0 4.9 0.5 8.2 1.7 9.9 1.2 1.6 2.6 2.5 4.3 2.5 1.8 0 3.2-0.9 4.4-2.5 1.2-1.7 1.7-5 1.7-9.9 0-5.1-0.5-8.4-1.7-10.1-1.2-1.6-2.6-2.5-4.4-2.5-1.7 0-3.1 0.8-4.1 2.2-1.3 1.9-1.9 5.3-1.9 10.4zm21.8 15v-4.3h4.3v4.3c0 1.6-0.3 2.8-0.8 3.8-0.5 0.9-1.5 1.7-2.6 2.2l-1.1-1.6c0.8-0.4 1.4-0.8 1.7-1.5 0.4-0.7 0.6-1.7 0.7-2.9h-2.2zm10.1-26.5v-3.7h19.7v3c-1.9 2-3.8 4.7-5.7 8.2-1.9 3.4-3.4 7-4.4 10.6-0.8 2.6-1.3 5.3-1.4 8.4h-3.9c0.1-2.4 0.5-5.4 1.4-8.8 0.9-3.3 2.2-6.6 3.9-9.8 1.7-3.1 3.5-5.8 5.4-7.9h-15zm35.7 28.3 3.6 0.5c0.2 1.2 0.6 2 1.3 2.5 0.9 0.7 2.2 1.1 3.8 1.1 1.8 0 3.1-0.4 4-1.1 1-0.7 1.7-1.7 1.9-2.9 0.2-0.8 0.3-2.4 0.3-4.8-1.6 1.9-3.7 2.9-6.1 2.9-3 0-5.4-1.1-7.1-3.4-1.6-2.1-2.5-4.7-2.5-7.8 0-2.1 0.4-4 1.2-5.8 0.7-1.8 1.9-3.2 3.3-4.2s3.1-1.4 5.1-1.4c2.6 0 4.8 1 6.5 3.1v-2.7h3.4v19.2c0 3.4-0.4 5.8-1 7.3-0.7 1.5-1.8 2.6-3.3 3.4-1.6 0.8-3.5 1.3-5.7 1.3-2.6 0-4.7-0.7-6.3-1.8-1.6-1.3-2.5-3-2.4-5.4zm3-13.2c0 2.8 0.7 4.9 1.9 6.2 1.1 1.4 2.5 2 4.2 2s3.3-0.6 4.4-2c1.1-1.2 1.7-3.3 1.7-6.1s-0.6-4.8-1.8-6.2c-1.1-1.3-2.7-2-4.3-2-1.7 0-3.1 0.7-4.2 2-1.2 1.3-1.9 3.3-1.9 6.1zm23.9 20.4h-2.7c4.1-6.8 6.2-13.4 6.2-20.1 0-2.6-0.3-5.2-0.8-7.7-0.5-2.1-1.2-4.1-2-6-0.6-1.3-1.8-3.4-3.4-6.3h2.7c2.6 3.5 4.6 7 5.8 10.5 1 3.1 1.6 6.2 1.6 9.5 0 3.7-0.8 7.4-2.2 10.9s-3.2 6.5-5.2 9.2z"/>
 <rect id="_164093896" stroke-linejoin="round" height="259.2" width="570.7" stroke="#000" stroke-linecap="round" y="284.3" x="78.98" stroke-width="2.4249" fill="#f60"/>
 <g id="g3017" transform="matrix(1.425,0,0,1.425,-140,-104.8)">
  <path id="text1904_0" d="m216.6 368.6v-32.2h4.3l16.9 25.3v-25.3h4.1v32.2h-4.4l-16.8-25.3v25.3h-4.1zm47.2-2.9c-1.5 1.3-2.9 2.1-4.3 2.6-1.3 0.6-2.8 0.8-4.3 0.8-2.6 0-4.5-0.6-5.9-1.9-1.4-1.2-2.1-2.8-2.1-4.8 0-1.1 0.3-2.1 0.8-3.1 0.5-0.9 1.2-1.7 2-2.2 0.9-0.6 1.8-1 2.9-1.3 0.8-0.2 1.9-0.4 3.5-0.6 3.2-0.4 5.5-0.9 7-1.4v-1c0-1.6-0.3-2.8-1.1-3.4-1-0.9-2.5-1.4-4.5-1.4-1.8 0-3.2 0.4-4.1 1-0.9 0.7-1.5 1.8-1.9 3.5l-3.9-0.6c0.4-1.6 0.9-2.9 1.7-4 0.8-1 2-1.8 3.5-2.3s3.3-0.8 5.3-0.8 3.6 0.2 4.9 0.7c1.2 0.4 2.1 1 2.7 1.7 0.6 0.8 1 1.6 1.2 2.7 0.2 0.7 0.2 1.9 0.2 3.7v5.2c0 3.7 0.1 6 0.3 7 0.1 1 0.5 1.9 1 2.8h-4.2c-0.4-0.8-0.6-1.8-0.7-2.9zm-0.4-8.8c-1.4 0.6-3.6 1.1-6.4 1.5-1.6 0.2-2.8 0.5-3.5 0.8-0.6 0.3-1.2 0.7-1.5 1.3-0.4 0.5-0.6 1.1-0.6 1.8 0 1.1 0.4 2 1.2 2.7s2 1 3.5 1 2.9-0.3 4.1-1c1.2-0.6 2-1.6 2.6-2.7 0.4-0.9 0.6-2.2 0.6-4v-1.4zm18.8 8.2 0.5 3.4c-1.1 0.3-2.1 0.4-2.9 0.4-1.5 0-2.6-0.2-3.4-0.7-0.8-0.4-1.3-1-1.6-1.8-0.4-0.7-0.5-2.3-0.5-4.6v-13.4h-2.9v-3.1h2.9v-5.8l3.9-2.3v8.1h4v3.1h-4v13.6c0 1.1 0.1 1.8 0.2 2.2 0.1 0.3 0.4 0.5 0.7 0.7s0.8 0.3 1.3 0.3 1.1 0 1.8-0.1zm3.8 3.5v-23.3h3.5v3.5c0.9-1.6 1.8-2.7 2.5-3.2 0.8-0.6 1.6-0.8 2.6-0.8 1.3 0 2.6 0.4 4 1.2l-1.3 3.7c-1-0.6-2-0.8-2.9-0.8s-1.7 0.2-2.4 0.7c-0.7 0.6-1.1 1.3-1.4 2.2-0.5 1.4-0.7 2.9-0.7 4.6v12.2h-3.9zm15-27.6v-4.6h4v4.6h-4zm0 27.6v-23.3h4v23.3h-4zm25.3 0v-3.4c-1.9 2.6-4.3 3.9-7.4 3.9-1.4 0-2.7-0.3-3.9-0.8s-2.1-1.2-2.6-2c-0.6-0.8-1-1.7-1.3-2.9-0.1-0.8-0.2-2-0.2-3.7v-14.4h4v12.9c0 2.1 0 3.5 0.2 4.2 0.2 1 0.8 1.8 1.6 2.4s1.8 0.9 3 0.9c1.1 0 2.2-0.3 3.3-0.9 1-0.6 1.8-1.4 2.2-2.5 0.4-1 0.6-2.5 0.6-4.5v-12.5h4v23.3h-3.5zm9.7 0v-23.3h3.5v3.3c0.7-1.2 1.7-2.1 2.9-2.8s2.6-1 4.2-1c1.7 0 3.1 0.3 4.2 1.1 1.1 0.7 1.9 1.7 2.3 3 1.9-2.8 4.3-4.1 7.2-4.1 2.3 0 4.1 0.6 5.4 1.9 1.2 1.3 1.8 3.2 1.8 5.9v16h-3.9v-14.7c0-1.6-0.1-2.7-0.4-3.4-0.2-0.7-0.7-1.2-1.4-1.7-0.6-0.4-1.4-0.6-2.3-0.6-1.7 0-3 0.5-4.1 1.6s-1.6 2.9-1.6 5.3v13.5h-4v-15.1c0-1.8-0.3-3.1-0.9-4-0.7-0.9-1.7-1.3-3.2-1.3-1.1 0-2.1 0.3-3.1 0.9-0.9 0.6-1.6 1.4-2 2.5-0.5 1.2-0.7 2.8-0.7 4.9v12.1h-3.9zm57.4 9.4c-2.2-2.7-4-5.9-5.5-9.6s-2.3-7.5-2.3-11.5c0-3.4 0.6-6.8 1.7-10 1.3-3.7 3.4-7.3 6.1-11h2.8c-1.7 3-2.9 5.2-3.5 6.5-0.9 2-1.6 4.1-2.1 6.3-0.6 2.8-0.9 5.5-0.9 8.3 0 7 2.2 14 6.5 21h-2.8zm7.9-9.4v-32.2h4.4l16.9 25.3v-25.3h4.1v32.2h-4.4l-16.9-25.3v25.3h-4.1zm47.2-2.9c-1.5 1.3-2.9 2.1-4.2 2.6-1.4 0.6-2.8 0.8-4.4 0.8-2.5 0-4.5-0.6-5.9-1.9-1.3-1.2-2-2.8-2-4.8 0-1.1 0.2-2.1 0.8-3.1 0.5-0.9 1.2-1.7 2-2.2 0.8-0.6 1.8-1 2.8-1.3 0.8-0.2 2-0.4 3.5-0.6 3.2-0.4 5.6-0.9 7.1-1.4v-1c0-1.6-0.4-2.8-1.1-3.4-1-0.9-2.5-1.4-4.5-1.4-1.9 0-3.2 0.4-4.1 1-0.9 0.7-1.6 1.8-2 3.5l-3.8-0.6c0.3-1.6 0.9-2.9 1.7-4 0.8-1 2-1.8 3.5-2.3s3.3-0.8 5.3-0.8c1.9 0 3.6 0.2 4.8 0.7 1.2 0.4 2.2 1 2.7 1.7 0.6 0.8 1 1.6 1.3 2.7 0.1 0.7 0.2 1.9 0.2 3.7v5.2c0 3.7 0.1 6 0.2 7 0.2 1 0.5 1.9 1 2.8h-4.1c-0.4-0.8-0.7-1.8-0.8-2.9zm-0.3-8.8c-1.5 0.6-3.6 1.1-6.5 1.5-1.6 0.2-2.7 0.5-3.4 0.8s-1.2 0.7-1.6 1.3c-0.3 0.5-0.5 1.1-0.5 1.8 0 1.1 0.4 2 1.2 2.7s1.9 1 3.5 1c1.5 0 2.8-0.3 4-1 1.2-0.6 2.1-1.6 2.6-2.7 0.5-0.9 0.7-2.2 0.7-4v-1.4z"/>
  <path id="text2649" d="m479.7 378h-2.8c4.4-7 6.6-14 6.6-21 0-2.8-0.3-5.5-1-8.2-0.5-2.2-1.2-4.3-2.1-6.3-0.5-1.3-1.7-3.5-3.5-6.6h2.8c2.8 3.7 4.8 7.3 6.1 11 1.2 3.2 1.7 6.6 1.7 10 0 4-0.7 7.8-2.2 11.5-1.6 3.7-3.4 6.9-5.6 9.6z"/>
  <path id="text2653" d="m462.6 349.7v-8.8h-8.8v-3.7h8.8v-8.7h3.7v8.7h8.7v3.7h-8.7v8.8h-3.7z"/>
 </g>
 <path id="_164091760" d="m676.3 402.7v-202.8h-223.8" stroke="#000" stroke-width="2.5523" fill="none"/>
 <path id="_164093800" stroke-linejoin="round" d="m725.4 402.6v-253.3" stroke="#000" stroke-linecap="round" stroke-width="2.5523" fill="none"/>
 <polyline id="_164088736" stroke-linejoin="round" stroke-linecap="round" transform="matrix(.6126 0 0 .6126 -137.1 264.2)" stroke="#000" points="1444.4 225.96 1444.4 -265.94 1555.1 -265.94" stroke-width="4.1664" class="fil9 str1" fill="none"/>
 <g id="g2992" transform="matrix(1.5,0,0,1.5,-500.7,-34.7)">
  <path id="text1904_1" d="m333.8 158.6v-23.7h4.7l5.6 16.8c0.5 1.6 0.9 2.7 1.1 3.5 0.3-0.8 0.7-2.1 1.3-3.8l5.7-16.5h4.2v23.7h-3v-19.8l-6.9 19.8h-2.8l-6.9-20.1v20.1h-3zm38.5-2.1c-1.1 0.9-2.1 1.6-3.1 1.9-1 0.4-2.1 0.6-3.2 0.6-1.9 0-3.3-0.4-4.4-1.4-1-0.9-1.5-2.1-1.5-3.5 0-0.8 0.2-1.6 0.6-2.3s0.9-1.2 1.5-1.7c0.6-0.4 1.3-0.7 2.1-0.9 0.6-0.2 1.4-0.3 2.6-0.5 2.3-0.2 4-0.6 5.2-1v-0.7c0-1.2-0.3-2-0.9-2.5-0.7-0.7-1.8-1-3.3-1-1.3 0-2.3 0.2-3 0.7-0.6 0.5-1.1 1.3-1.4 2.6l-2.9-0.4c0.3-1.2 0.7-2.2 1.3-3 0.6-0.7 1.4-1.3 2.6-1.7 1.1-0.4 2.4-0.6 3.9-0.6 1.4 0 2.6 0.2 3.5 0.5s1.6 0.8 2 1.3c0.5 0.5 0.8 1.2 1 2 0 0.5 0.1 1.4 0.1 2.7v3.8c0 2.7 0.1 4.5 0.2 5.2s0.4 1.4 0.7 2h-3c-0.3-0.6-0.5-1.3-0.6-2.1zm-0.2-6.5c-1.1 0.4-2.7 0.8-4.8 1.1-1.2 0.2-2 0.4-2.5 0.6s-0.9 0.5-1.2 0.9c-0.2 0.5-0.4 0.9-0.4 1.4 0 0.8 0.3 1.4 0.9 2 0.6 0.5 1.4 0.7 2.6 0.7 1.1 0 2.1-0.2 3-0.7 0.8-0.5 1.5-1.2 1.9-2 0.3-0.7 0.5-1.6 0.5-2.9v-1.1zm6.9 10 2.8 0.5c0.1 0.8 0.5 1.5 1 1.9 0.7 0.5 1.7 0.8 3 0.8s2.3-0.3 3.1-0.8c0.7-0.6 1.2-1.3 1.5-2.3 0.1-0.6 0.2-1.8 0.2-3.7-1.3 1.5-2.9 2.2-4.8 2.2-2.3 0-4.2-0.8-5.5-2.5-1.2-1.7-1.9-3.8-1.9-6.1 0-1.7 0.3-3.2 0.9-4.6s1.4-2.4 2.6-3.2c1.1-0.7 2.4-1.1 3.9-1.1 2.1 0 3.7 0.8 5 2.4v-2h2.7v14.8c0 2.7-0.2 4.6-0.8 5.7-0.5 1.1-1.4 2-2.6 2.6-1.2 0.7-2.6 1-4.3 1-2.1 0-3.7-0.5-5-1.4-1.2-0.9-1.9-2.3-1.8-4.2zm2.4-10.3c0 2.3 0.4 3.9 1.3 5 0.9 1 2 1.5 3.4 1.5 1.3 0 2.4-0.5 3.4-1.5 0.9-1.1 1.3-2.7 1.3-4.9 0-2.1-0.5-3.6-1.4-4.7s-2-1.6-3.4-1.6c-1.2 0-2.3 0.5-3.3 1.6-0.9 1-1.3 2.6-1.3 4.6zm16.5 8.9v-17.1h2.6v2.4c1.3-1.9 3.1-2.8 5.5-2.8 1 0 2 0.2 2.9 0.5 0.8 0.4 1.5 0.9 1.9 1.5s0.7 1.3 0.9 2.2c0.1 0.5 0.2 1.4 0.2 2.8v10.5h-2.9v-10.4c0-1.2-0.1-2.1-0.4-2.7-0.2-0.6-0.6-1-1.2-1.4-0.6-0.3-1.2-0.5-2-0.5-1.2 0-2.3 0.4-3.2 1.2s-1.4 2.3-1.4 4.5v9.3h-2.9zm30.2-5.5 3 0.4c-0.5 1.7-1.4 3.1-2.6 4.1-1.3 0.9-3 1.4-4.9 1.4-2.6 0-4.5-0.8-6-2.3s-2.2-3.7-2.2-6.5c0-2.9 0.7-5.1 2.2-6.7s3.4-2.4 5.8-2.4c2.3 0 4.2 0.8 5.6 2.3 1.5 1.6 2.2 3.8 2.2 6.6v0.8h-12.8c0.1 1.9 0.6 3.3 1.6 4.3 0.9 1 2.1 1.5 3.6 1.5 1 0 1.9-0.3 2.7-0.8 0.7-0.6 1.3-1.5 1.8-2.7zm-9.6-4.7h9.6c-0.1-1.4-0.5-2.5-1.1-3.2-0.9-1.2-2.1-1.7-3.6-1.7-1.3 0-2.4 0.4-3.3 1.3-1 0.9-1.5 2.1-1.6 3.6zm15.1 5.1 2.9-0.4c0.1 1.1 0.6 2 1.3 2.6 0.8 0.6 1.8 0.9 3.1 0.9s2.3-0.2 3-0.8c0.6-0.5 1-1.2 1-1.9s-0.3-1.2-0.9-1.6c-0.4-0.2-1.4-0.5-3-0.9-2.1-0.6-3.6-1-4.4-1.4s-1.5-1-1.9-1.7-0.6-1.4-0.6-2.3c0-0.7 0.2-1.4 0.5-2.1 0.4-0.6 0.8-1.2 1.4-1.6 0.5-0.4 1.1-0.6 1.9-0.9 0.8-0.2 1.6-0.3 2.5-0.3 1.3 0 2.5 0.2 3.5 0.6 1.1 0.4 1.8 0.9 2.3 1.5 0.5 0.7 0.8 1.6 1 2.7l-2.8 0.4c-0.2-0.9-0.5-1.6-1.2-2.1-0.6-0.5-1.5-0.7-2.6-0.7-1.3 0-2.3 0.2-2.9 0.6-0.5 0.5-0.8 1-0.8 1.6 0 0.4 0.1 0.7 0.3 1 0.3 0.3 0.7 0.6 1.2 0.8 0.3 0.1 1.1 0.3 2.5 0.7 2.1 0.6 3.5 1 4.3 1.4 0.8 0.3 1.5 0.8 1.9 1.5 0.5 0.7 0.7 1.5 0.7 2.5s-0.2 1.9-0.8 2.7c-0.6 0.9-1.4 1.5-2.5 2-1 0.5-2.2 0.7-3.6 0.7-2.2 0-3.9-0.4-5.1-1.4-1.1-0.9-1.9-2.3-2.2-4.1zm17.7-15.2v-3.4h2.9v3.4h-2.9zm0 20.3v-17.1h2.9v17.1h-2.9zm18.6 0v-2.5c-1.3 1.9-3.1 2.9-5.4 2.9-1 0-2-0.2-2.9-0.6-0.8-0.4-1.5-0.8-1.9-1.4-0.5-0.6-0.7-1.3-0.9-2.2-0.1-0.6-0.2-1.5-0.2-2.7v-10.6h2.9v9.5c0 1.5 0.1 2.5 0.2 3.1 0.2 0.7 0.6 1.3 1.1 1.8 0.6 0.4 1.4 0.6 2.2 0.6 0.9 0 1.7-0.2 2.5-0.7 0.8-0.4 1.3-1 1.6-1.8s0.5-1.9 0.5-3.3v-9.2h2.9v17.1h-2.6zm7.2 0v-17.1h2.6v2.4c0.5-0.9 1.2-1.5 2.1-2 0.9-0.6 1.9-0.8 3.1-0.8 1.3 0 2.3 0.2 3.1 0.8 0.8 0.5 1.4 1.2 1.7 2.2 1.4-2 3.1-3 5.3-3 1.7 0 3 0.5 3.9 1.4 1 0.9 1.4 2.4 1.4 4.4v11.7h-2.9v-10.8c0-1.1-0.1-2-0.3-2.5-0.1-0.5-0.5-0.9-1-1.2s-1.1-0.5-1.7-0.5c-1.2 0-2.2 0.4-3 1.2s-1.2 2.1-1.2 3.9v9.9h-2.9v-11.1c0-1.3-0.3-2.3-0.7-2.9-0.5-0.7-1.3-1-2.4-1-0.8 0-1.5 0.2-2.2 0.7-0.7 0.4-1.2 1-1.5 1.8-0.4 0.9-0.5 2.1-0.5 3.6v8.9h-2.9zm42.3 7c-1.6-2-3-4.4-4.1-7.1s-1.6-5.5-1.6-8.4c0-2.6 0.4-5.1 1.2-7.4 1-2.7 2.5-5.5 4.5-8.2h2.1c-1.3 2.3-2.2 3.9-2.6 4.8-0.7 1.5-1.2 3.1-1.6 4.7-0.4 2-0.6 4-0.6 6.1 0 5.1 1.6 10.3 4.8 15.5h-2.1zm5.8-7v-23.7h4.7l5.6 16.8c0.5 1.6 0.9 2.7 1.1 3.5 0.3-0.8 0.7-2.1 1.3-3.8l5.6-16.5h4.3v23.7h-3.1v-19.8l-6.8 19.8h-2.9l-6.8-20.1v20.1h-3zm26.7 1.4 2.9 0.5c0.1 0.8 0.4 1.5 1 1.9 0.7 0.5 1.7 0.8 2.9 0.8 1.4 0 2.4-0.3 3.1-0.8 0.8-0.6 1.3-1.3 1.5-2.3 0.2-0.6 0.2-1.8 0.2-3.7-1.2 1.5-2.8 2.2-4.7 2.2-2.4 0-4.2-0.8-5.5-2.5s-1.9-3.8-1.9-6.1c0-1.7 0.3-3.2 0.9-4.6 0.5-1.4 1.4-2.4 2.5-3.2 1.2-0.7 2.5-1.1 4-1.1 2 0 3.7 0.8 5 2.4v-2h2.7v14.8c0 2.7-0.3 4.6-0.8 5.7-0.6 1.1-1.4 2-2.6 2.6-1.2 0.7-2.6 1-4.4 1-2 0-3.7-0.5-4.9-1.4-1.3-0.9-1.9-2.3-1.9-4.2zm2.5-10.3c0 2.3 0.4 3.9 1.3 5 0.9 1 2 1.5 3.4 1.5 1.3 0 2.4-0.5 3.3-1.5 0.9-1.1 1.4-2.7 1.4-4.9 0-2.1-0.5-3.6-1.4-4.7-1-1.1-2.1-1.6-3.4-1.6s-2.4 0.5-3.3 1.6c-0.9 1-1.3 2.6-1.3 4.6z"/>
  <path id="text2659" d="m610.3 165.6h-2.1c3.2-5.2 4.8-10.4 4.8-15.5 0-2.1-0.2-4.1-0.7-6.1-0.4-1.6-0.9-3.1-1.5-4.6-0.4-1-1.3-2.6-2.6-4.9h2.1c2 2.7 3.5 5.5 4.4 8.2 0.9 2.3 1.3 4.8 1.3 7.4 0 2.9-0.6 5.7-1.7 8.4s-2.5 5.1-4 7.1z"/>
  <path id="text2661" d="m378.1 186.6 2.9-0.4c0.4 1.7 0.9 2.8 1.7 3.6 0.8 0.7 1.8 1.1 3 1.1 1.3 0 2.5-0.5 3.4-1.5 1-0.9 1.4-2.1 1.4-3.5 0-1.3-0.4-2.4-1.3-3.3-0.8-0.9-2-1.3-3.3-1.3-0.5 0-1.2 0.1-2.1 0.3l0.4-2.5h0.4c1.3 0 2.4-0.3 3.4-1 1-0.6 1.5-1.6 1.5-2.9 0-1.1-0.4-2-1.1-2.7s-1.7-1-2.8-1-2.1 0.3-2.8 1c-0.8 0.7-1.3 1.8-1.5 3.2l-2.9-0.5c0.4-1.9 1.2-3.5 2.4-4.5 1.3-1.1 2.9-1.6 4.7-1.6 1.3 0 2.5 0.2 3.6 0.8s1.9 1.3 2.5 2.3c0.6 0.9 0.9 1.9 0.9 3 0 1-0.3 2-0.9 2.8-0.5 0.9-1.3 1.5-2.4 2 1.4 0.3 2.5 1 3.3 2 0.7 1 1.1 2.3 1.1 3.8 0 2.1-0.7 3.9-2.2 5.3s-3.5 2.2-5.8 2.2c-2 0-3.8-0.7-5.1-1.9-1.4-1.2-2.2-2.8-2.4-4.8zm20 6.2v-3.3h3.3v3.3c0 1.3-0.2 2.2-0.7 3-0.4 0.7-1.1 1.3-2 1.7l-0.8-1.2c0.6-0.3 1.1-0.7 1.3-1.2 0.3-0.5 0.5-1.3 0.5-2.3h-1.6zm7.8-20.5v-2.8h15.3v2.2c-1.5 1.6-3 3.8-4.5 6.4-1.5 2.7-2.6 5.4-3.4 8.2-0.6 2-1 4.2-1.1 6.5h-3c0-1.8 0.4-4.1 1.1-6.7s1.7-5.2 3-7.6c1.3-2.5 2.7-4.6 4.2-6.2h-11.6zm27.9 2.5c0-1.6 0.5-3.1 1.3-4.3 0.9-1.1 2.1-1.7 3.7-1.7 1.5 0 2.7 0.5 3.7 1.6 1 1 1.5 2.6 1.5 4.6s-0.5 3.6-1.5 4.7c-1 1-2.2 1.6-3.7 1.6-1.4 0-2.6-0.6-3.5-1.6-1-1.1-1.5-2.7-1.5-4.9zm5.1-4c-0.7 0-1.3 0.3-1.8 0.9s-0.7 1.8-0.7 3.4 0.2 2.6 0.7 3.2c0.5 0.7 1.1 1 1.8 1s1.3-0.3 1.8-1c0.5-0.6 0.7-1.7 0.7-3.4 0-1.5-0.2-2.6-0.7-3.2s-1.1-0.9-1.8-0.9zm0 22.9 13-24.9h2.3l-12.9 24.9h-2.4zm10.2-6.4c0-1.7 0.5-3.2 1.3-4.3 0.9-1.2 2.1-1.8 3.7-1.8 1.5 0 2.7 0.5 3.7 1.6 1 1 1.5 2.6 1.5 4.7 0 2-0.5 3.5-1.5 4.6s-2.2 1.6-3.7 1.6c-1.4 0-2.6-0.5-3.5-1.6-1-1.1-1.5-2.7-1.5-4.8zm5.1-4.1c-0.7 0-1.3 0.3-1.8 0.9-0.5 0.7-0.7 1.8-0.7 3.5 0 1.5 0.2 2.6 0.7 3.2s1.1 0.9 1.8 0.9 1.3-0.3 1.8-0.9 0.7-1.8 0.7-3.4-0.2-2.7-0.7-3.3-1.1-0.9-1.8-0.9zm24 16.6c-1.6-2-2.9-4.4-4.1-7.1-1.1-2.7-1.6-5.5-1.6-8.4 0-2.6 0.4-5.1 1.2-7.4 1-2.7 2.5-5.4 4.5-8.1h2.1c-1.3 2.2-2.2 3.8-2.6 4.8-0.6 1.4-1.2 3-1.5 4.6-0.5 2-0.7 4-0.7 6.1 0 5.2 1.6 10.3 4.8 15.5h-2.1zm15.6-7h-2.9v-18.5c-0.7 0.7-1.6 1.4-2.7 2-1.2 0.7-2.2 1.2-3.1 1.5v-2.8c1.7-0.8 3.1-1.7 4.3-2.8s2.1-2.1 2.6-3.1h1.8v23.7zm9.1 0v-3.3h3.3v3.3c0 1.3-0.2 2.2-0.7 3-0.4 0.7-1.1 1.3-2 1.7l-0.8-1.2c0.6-0.3 1-0.7 1.3-1.2s0.5-1.3 0.5-2.3h-1.6zm7.6-6.2 2.9-0.4c0.3 1.7 0.9 2.8 1.7 3.6 0.8 0.7 1.8 1.1 2.9 1.1 1.4 0 2.6-0.5 3.5-1.5 1-0.9 1.4-2.1 1.4-3.5 0-1.3-0.4-2.4-1.3-3.3s-2-1.3-3.3-1.3c-0.6 0-1.2 0.1-2.1 0.3l0.4-2.5h0.4c1.3 0 2.4-0.3 3.4-1 1-0.6 1.5-1.6 1.5-2.9 0-1.1-0.4-2-1.1-2.7s-1.7-1-2.8-1c-1.2 0-2.1 0.3-2.8 1-0.8 0.7-1.3 1.8-1.5 3.2l-2.9-0.5c0.3-1.9 1.2-3.5 2.4-4.5 1.3-1.1 2.8-1.6 4.7-1.6 1.3 0 2.5 0.2 3.6 0.8s1.9 1.3 2.5 2.3c0.6 0.9 0.8 1.9 0.8 3 0 1-0.2 2-0.8 2.8-0.5 0.9-1.3 1.5-2.4 2 1.4 0.3 2.5 1 3.2 2 0.8 1 1.2 2.3 1.2 3.8 0 2.1-0.7 3.9-2.3 5.3-1.5 1.4-3.4 2.2-5.7 2.2-2.1 0-3.8-0.7-5.1-1.9-1.4-1.2-2.2-2.8-2.4-4.8zm27.8 7.7 2.9 0.4c0.1 0.9 0.4 1.5 1 1.9 0.7 0.5 1.7 0.8 2.9 0.8 1.4 0 2.4-0.3 3.1-0.8 0.8-0.5 1.3-1.3 1.5-2.3 0.2-0.6 0.2-1.8 0.2-3.7-1.2 1.5-2.8 2.2-4.7 2.2-2.4 0-4.2-0.8-5.5-2.5s-1.9-3.8-1.9-6.1c0-1.7 0.3-3.2 0.9-4.6 0.5-1.3 1.4-2.4 2.5-3.2 1.2-0.7 2.5-1.1 4-1.1 2 0 3.7 0.8 5 2.5v-2.1h2.7v14.8c0 2.7-0.3 4.6-0.8 5.7-0.6 1.1-1.4 2-2.6 2.6-1.2 0.7-2.6 1-4.4 1-2 0-3.7-0.5-4.9-1.4-1.3-0.9-1.9-2.3-1.9-4.1zm2.5-10.3c0 2.2 0.4 3.9 1.3 4.9s2 1.5 3.4 1.5c1.3 0 2.4-0.5 3.3-1.5s1.4-2.6 1.4-4.8c0-2.1-0.5-3.7-1.4-4.8-1-1.1-2.1-1.6-3.4-1.6s-2.4 0.5-3.3 1.6c-0.9 1-1.3 2.6-1.3 4.7zm18.4 15.8h-2.1c3.2-5.2 4.8-10.3 4.8-15.5 0-2-0.2-4-0.6-6-0.4-1.7-0.9-3.2-1.6-4.7-0.4-1-1.3-2.6-2.6-4.8h2.1c2 2.7 3.5 5.4 4.5 8.1 0.8 2.3 1.2 4.8 1.2 7.4 0 2.9-0.5 5.7-1.6 8.4-1.2 2.7-2.5 5.1-4.1 7.1z"/>
  <path id="text2663" d="m586.5 143.6v2.8h-15.7c0-0.7 0.1-1.4 0.4-2 0.4-1.1 1-2.2 1.9-3.2 0.8-1 2.1-2.2 3.8-3.6 2.5-2.1 4.3-3.8 5.2-5s1.3-2.4 1.3-3.5-0.4-2.1-1.2-2.9-1.9-1.2-3.2-1.2c-1.4 0-2.5 0.4-3.4 1.3-0.8 0.8-1.2 2-1.2 3.5l-3-0.4c0.2-2.2 0.9-3.9 2.3-5 1.3-1.2 3.1-1.8 5.4-1.8 2.2 0 4 0.6 5.3 1.9 1.4 1.2 2 2.8 2 4.7 0 0.9-0.2 1.9-0.5 2.8-0.4 0.9-1.1 1.8-2 2.9-0.9 1-2.4 2.4-4.5 4.1-1.7 1.5-2.8 2.5-3.3 3s-0.9 1.1-1.2 1.6h11.6zm10-1.1v-6.4h-6.4v-2.8h6.4v-6.4h2.8v6.4h6.4v2.8h-6.4v6.4h-2.8z"/>
 </g>
 <g id="g2986" transform="matrix(1.5,0,0,1.5,-245.3,1.94)">
  <path id="text1904_2" d="m452.2 51.68 3.1 0.8c-0.6 2.6-1.8 4.6-3.5 5.9-1.7 1.4-3.8 2.1-6.3 2.1s-4.6-0.6-6.2-1.6-2.8-2.5-3.6-4.5c-0.9-2-1.3-4.11-1.3-6.37 0-2.46 0.5-4.61 1.4-6.45 1-1.84 2.3-3.23 4-4.18 1.8-0.96 3.7-1.43 5.8-1.43 2.4 0 4.3 0.6 6 1.81 1.6 1.2 2.7 2.9 3.3 5.08l-3.1 0.73c-0.5-1.72-1.3-2.98-2.3-3.76-1.1-0.79-2.4-1.18-4-1.18-1.8 0-3.3 0.43-4.5 1.31-1.3 0.87-2.1 2.04-2.6 3.51s-0.8 2.98-0.8 4.55c0 2.01 0.3 3.78 0.9 5.28s1.5 2.6 2.8 3.4c1.2 0.7 2.5 1.1 4 1.1 1.7 0 3.2-0.5 4.4-1.5 1.3-1.1 2.1-2.6 2.5-4.6zm17.8 6.2c-1 0.9-2.1 1.6-3.1 2-1 0.3-2 0.5-3.2 0.5-1.9 0-3.3-0.4-4.3-1.3-1-1-1.5-2.1-1.5-3.6 0-0.8 0.1-1.6 0.5-2.3s0.9-1.2 1.5-1.65c0.7-0.42 1.4-0.73 2.1-0.95 0.6-0.15 1.5-0.3 2.6-0.44 2.4-0.28 4.1-0.61 5.2-1v-0.76c0-1.18-0.3-2.02-0.8-2.5-0.8-0.66-1.9-0.98-3.3-0.98s-2.4 0.23-3.1 0.71c-0.6 0.48-1.1 1.33-1.4 2.55l-2.8-0.39c0.2-1.22 0.6-2.2 1.2-2.95s1.5-1.32 2.6-1.73c1.1-0.4 2.4-0.6 3.9-0.6s2.7 0.17 3.6 0.52c0.9 0.34 1.6 0.77 2 1.3 0.4 0.52 0.7 1.18 0.9 1.97 0.1 0.5 0.1 1.39 0.1 2.69v3.91c0 2.7 0.1 4.4 0.2 5.1s0.4 1.4 0.8 2h-3.1c-0.3-0.6-0.5-1.3-0.6-2.1zm-0.2-6.46c-1.1 0.46-2.6 0.76-4.8 1.06-1.1 0.2-2 0.4-2.5 0.6s-0.9 0.6-1.1 1c-0.3 0.4-0.4 0.8-0.4 1.3 0 0.8 0.3 1.5 0.8 2 0.6 0.5 1.5 0.8 2.6 0.8s2.1-0.3 3-0.8 1.5-1.1 1.9-2c0.3-0.6 0.5-1.6 0.5-2.9v-1.06zm7.4 8.56v-23.63h2.9v23.63h-2.9zm18.6-6.2 2.9 0.3c-0.3 2-1.1 3.6-2.4 4.7s-2.9 1.6-4.8 1.6c-2.3 0-4.2-0.7-5.6-2.3-1.5-1.5-2.2-3.7-2.2-6.56 0-1.85 0.3-3.48 1-4.86 0.6-1.39 1.5-2.44 2.8-3.13 1.2-0.69 2.6-1.04 4.1-1.04 1.8 0 3.3 0.47 4.5 1.41s2 2.28 2.3 4.02l-2.8 0.43c-0.3-1.15-0.8-2.02-1.5-2.6-0.6-0.58-1.5-0.87-2.4-0.87-1.5 0-2.7 0.52-3.6 1.57s-1.4 2.71-1.4 4.99c0 2.34 0.5 3.94 1.3 5.04 0.9 1 2.1 1.5 3.5 1.5 1.1 0 2.1-0.3 2.9-1 0.7-0.7 1.2-1.8 1.4-3.2zm5.4-14.09v-3.34h2.9v3.34h-2.9zm0 20.29v-17.1h2.9v17.1h-2.9zm18.6 0v-2.5c-1.4 2-3.2 2.9-5.5 2.9-1 0-1.9-0.2-2.8-0.5-0.9-0.4-1.5-0.9-2-1.5-0.4-0.6-0.7-1.3-0.9-2.2-0.1-0.5-0.1-1.4-0.1-2.7v-10.6h2.9v9.5c0 1.5 0 2.6 0.1 3.1 0.2 0.7 0.6 1.3 1.2 1.8 0.6 0.4 1.3 0.6 2.2 0.6s1.7-0.2 2.5-0.6c0.7-0.5 1.3-1.1 1.6-1.9 0.3-0.7 0.5-1.8 0.5-3.3v-9.2h2.9v17.1h-2.6zm7.1 0v-17.1h2.6v2.4c0.6-0.84 1.3-1.51 2.2-2.02 0.9-0.52 1.9-0.77 3-0.77 1.3 0 2.4 0.26 3.2 0.79s1.4 1.27 1.7 2.21c1.3-2 3.1-3 5.3-3 1.7 0 3 0.47 3.9 1.41s1.4 2.39 1.4 4.35v11.73h-2.9v-10.76c0-1.16-0.1-2-0.3-2.51s-0.5-0.92-1-1.23c-0.5-0.32-1.1-0.47-1.8-0.47-1.2 0-2.2 0.4-3 1.2s-1.2 2.09-1.2 3.85v9.92h-2.9v-11.1c0-1.29-0.2-2.26-0.7-2.9-0.5-0.65-1.2-0.97-2.3-0.97-0.8 0-1.6 0.21-2.3 0.64s-1.2 1.06-1.5 1.89-0.5 2.03-0.5 3.59v8.85h-2.9zm42.4 7c-1.6-2-3-4.4-4.1-7.1s-1.7-5.5-1.7-8.43c0-2.56 0.4-5.02 1.3-7.36 0.9-2.73 2.4-5.44 4.5-8.14h2c-1.3 2.24-2.1 3.84-2.5 4.79-0.7 1.49-1.2 3.04-1.6 4.66-0.5 2.01-0.7 4.03-0.7 6.07 0 5.21 1.6 10.31 4.8 15.51h-2zm22.7-15.3 3.2 0.8c-0.7 2.6-1.9 4.6-3.6 5.9-1.7 1.4-3.8 2.1-6.3 2.1s-4.6-0.6-6.2-1.6-2.8-2.5-3.6-4.5c-0.9-2-1.3-4.11-1.3-6.37 0-2.46 0.5-4.61 1.4-6.45 1-1.84 2.3-3.23 4.1-4.18 1.7-0.96 3.6-1.43 5.7-1.43 2.4 0 4.4 0.6 6 1.81 1.6 1.2 2.7 2.9 3.3 5.08l-3 0.73c-0.6-1.72-1.4-2.98-2.4-3.76-1.1-0.79-2.4-1.18-4-1.18-1.8 0-3.3 0.43-4.5 1.31-1.3 0.87-2.1 2.04-2.6 3.51s-0.7 2.98-0.7 4.55c0 2.01 0.2 3.78 0.8 5.28s1.5 2.6 2.8 3.4c1.2 0.7 2.5 1.1 4 1.1 1.7 0 3.2-0.5 4.4-1.5 1.3-1.1 2.1-2.6 2.5-4.6zm17.9 6.2c-1.1 0.9-2.2 1.6-3.2 2-1 0.3-2 0.5-3.2 0.5-1.8 0-3.3-0.4-4.3-1.3-1-1-1.5-2.1-1.5-3.6 0-0.8 0.2-1.6 0.5-2.3 0.4-0.7 0.9-1.2 1.5-1.65 0.7-0.42 1.4-0.73 2.1-0.95 0.6-0.15 1.5-0.3 2.6-0.44 2.4-0.28 4.1-0.61 5.2-1v-0.76c0-1.18-0.2-2.02-0.8-2.5-0.7-0.66-1.8-0.98-3.3-0.98-1.4 0-2.4 0.23-3 0.71-0.7 0.48-1.2 1.33-1.5 2.55l-2.8-0.39c0.2-1.22 0.7-2.2 1.2-2.95 0.6-0.75 1.5-1.32 2.6-1.73 1.1-0.4 2.4-0.6 3.9-0.6s2.7 0.17 3.6 0.52c0.9 0.34 1.6 0.77 2 1.3 0.4 0.52 0.7 1.18 0.9 1.97 0.1 0.5 0.1 1.39 0.1 2.69v3.91c0 2.7 0.1 4.4 0.2 5.1 0.2 0.7 0.4 1.4 0.8 2h-3.1c-0.3-0.6-0.5-1.3-0.5-2.1zm-0.3-6.46c-1 0.46-2.6 0.76-4.7 1.06-1.2 0.2-2.1 0.4-2.6 0.6s-0.9 0.6-1.1 1c-0.3 0.4-0.4 0.8-0.4 1.3 0 0.8 0.3 1.5 0.9 2 0.5 0.5 1.4 0.8 2.5 0.8 1.2 0 2.1-0.3 3-0.8s1.5-1.1 1.9-2c0.4-0.6 0.5-1.6 0.5-2.9v-1.06z"/>
  <path id="text2666" d="m653.2 66.98h-2.1c3.2-5.2 4.8-10.3 4.8-15.51 0-2.03-0.2-4.03-0.7-6.03-0.3-1.61-0.9-3.16-1.5-4.65-0.4-0.97-1.3-2.58-2.6-4.84h2.1c2 2.7 3.5 5.41 4.5 8.14 0.8 2.34 1.2 4.8 1.2 7.36 0 2.93-0.6 5.73-1.7 8.43s-2.4 5.1-4 7.1z"/>
  <path id="text2668" d="m447 94.28h-2.9v-18.6c-0.7 0.7-1.7 1.4-2.8 2-1.1 0.7-2.2 1.2-3.1 1.5v-2.8c1.7-0.7 3.1-1.7 4.3-2.7 1.2-1.1 2.1-2.2 2.6-3.2h1.9v23.8zm9 0v-3.3h3.3v3.3c0 1.2-0.2 2.2-0.6 2.9-0.5 0.8-1.2 1.3-2.1 1.8l-0.8-1.3c0.6-0.3 1.1-0.7 1.4-1.2 0.2-0.5 0.4-1.3 0.4-2.2h-1.6zm22.9-2.8v2.8h-15.7c0-0.7 0.1-1.4 0.4-2.1 0.4-1 1-2.1 1.9-3.1s2.1-2.2 3.8-3.6c2.6-2.1 4.3-3.8 5.2-5s1.4-2.4 1.4-3.5c0-1.2-0.5-2.1-1.3-2.9s-1.9-1.2-3.2-1.2c-1.4 0-2.5 0.4-3.4 1.3-0.8 0.8-1.2 2-1.2 3.4l-3-0.3c0.2-2.2 0.9-3.9 2.3-5.1 1.3-1.1 3.1-1.7 5.4-1.7 2.2 0 4 0.6 5.4 1.9 1.3 1.2 1.9 2.8 1.9 4.7 0 0.9-0.1 1.8-0.5 2.8-0.4 0.9-1.1 1.8-2 2.8-0.9 1.1-2.4 2.5-4.4 4.2-1.8 1.5-2.9 2.5-3.4 3s-0.9 1-1.2 1.6h11.6zm12.8-15.2c0-1.7 0.5-3.2 1.3-4.3 0.9-1.2 2.1-1.8 3.7-1.8 1.5 0 2.7 0.5 3.7 1.6 1 1 1.5 2.6 1.5 4.7 0 2-0.5 3.5-1.5 4.6s-2.2 1.6-3.7 1.6c-1.4 0-2.6-0.5-3.5-1.6-1-1.1-1.5-2.7-1.5-4.8zm5.1-4.1c-0.7 0-1.3 0.3-1.8 0.9s-0.7 1.8-0.7 3.5c0 1.5 0.2 2.6 0.7 3.2s1.1 0.9 1.8 0.9 1.3-0.3 1.8-0.9c0.5-0.7 0.7-1.8 0.7-3.5 0-1.5-0.2-2.6-0.7-3.2s-1.1-0.9-1.8-0.9zm0 22.9 13-24.9h2.3l-12.9 24.9h-2.4zm10.2-6.4c0-1.7 0.5-3.1 1.3-4.3 0.9-1.2 2.1-1.8 3.7-1.8 1.5 0 2.8 0.6 3.7 1.6 1 1.1 1.5 2.6 1.5 4.7 0 2-0.5 3.5-1.5 4.6s-2.2 1.6-3.6 1.6c-1.5 0-2.7-0.5-3.6-1.6-1-1-1.5-2.6-1.5-4.8zm5.1-4.1c-0.7 0-1.3 0.3-1.8 1-0.5 0.6-0.7 1.7-0.7 3.4 0 1.5 0.2 2.6 0.7 3.2s1.1 0.9 1.8 0.9 1.4-0.3 1.8-0.9c0.5-0.6 0.8-1.8 0.8-3.4s-0.3-2.6-0.8-3.2c-0.5-0.7-1.1-1-1.8-1zm24 16.62c-1.6-2.02-2.9-4.42-4-7.12-1.2-2.7-1.7-5.5-1.7-8.4 0-2.6 0.4-5 1.2-7.4 1-2.7 2.5-5.4 4.5-8.1h2.1c-1.3 2.2-2.2 3.8-2.6 4.8-0.6 1.5-1.2 3-1.5 4.6-0.5 2-0.7 4.1-0.7 6.1 0 5.2 1.6 10.4 4.8 15.52h-2.1zm4.7-18.62c0-2.8 0.3-5.1 0.9-6.8 0.5-1.7 1.4-3 2.5-3.9 1.2-0.9 2.6-1.4 4.3-1.4 1.3 0 2.4 0.2 3.4 0.8 0.9 0.5 1.7 1.2 2.3 2.2 0.7 0.9 1.2 2.1 1.5 3.5 0.4 1.4 0.5 3.2 0.5 5.6 0 2.8-0.2 5-0.8 6.7s-1.4 3-2.6 4c-1.1 0.9-2.5 1.4-4.3 1.4-2.3 0-4.1-0.8-5.4-2.5-1.5-2-2.3-5.2-2.3-9.6zm3 0c0 3.9 0.4 6.5 1.4 7.7 0.9 1.3 2 2 3.3 2 1.4 0 2.5-0.7 3.4-2s1.4-3.8 1.4-7.7-0.5-6.5-1.4-7.8-2-1.9-3.4-1.9c-1.3 0-2.4 0.6-3.2 1.7-1 1.4-1.5 4.1-1.5 8zm17 11.7v-3.3h3.3v3.3c0 1.2-0.2 2.2-0.6 2.9-0.5 0.8-1.2 1.3-2.1 1.8l-0.8-1.3c0.6-0.3 1.1-0.7 1.3-1.2 0.3-0.5 0.5-1.3 0.5-2.2h-1.6zm16.9 0v-5.7h-10.3v-2.7l10.8-15.3h2.4v15.3h3.2v2.7h-3.2v5.7h-2.9zm0-8.4v-10.6l-7.4 10.6h7.4zm24.4 5.6v2.8h-15.7c0-0.7 0.1-1.4 0.4-2.1 0.4-1 1-2.1 1.9-3.1s2.1-2.2 3.8-3.6c2.6-2.1 4.3-3.8 5.2-5s1.4-2.4 1.4-3.5c0-1.2-0.4-2.1-1.3-2.9-0.8-0.8-1.9-1.2-3.2-1.2-1.4 0-2.5 0.4-3.4 1.3-0.8 0.8-1.2 2-1.2 3.4l-3-0.3c0.2-2.2 1-3.9 2.3-5.1 1.3-1.1 3.1-1.7 5.4-1.7 2.2 0 4 0.6 5.4 1.9 1.3 1.2 2 2.8 2 4.7 0 0.9-0.2 1.8-0.6 2.8-0.4 0.9-1.1 1.8-2 2.8-0.9 1.1-2.4 2.5-4.4 4.2-1.8 1.5-2.9 2.5-3.4 3s-0.9 1-1.2 1.6h11.6zm12.6 4.2 2.8 0.4c0.1 0.9 0.4 1.5 1 1.9 0.7 0.6 1.7 0.8 2.9 0.8 1.4 0 2.4-0.2 3.2-0.8 0.7-0.5 1.2-1.3 1.4-2.2 0.2-0.6 0.3-1.9 0.3-3.8-1.3 1.5-2.9 2.3-4.8 2.3-2.4 0-4.2-0.9-5.5-2.6s-1.9-3.7-1.9-6.1c0-1.6 0.3-3.2 0.9-4.5 0.6-1.4 1.4-2.5 2.6-3.2 1.1-0.8 2.4-1.2 3.9-1.2 2 0 3.7 0.8 5 2.5v-2.1h2.7v14.8c0 2.7-0.3 4.6-0.8 5.7-0.6 1.1-1.4 2-2.6 2.72-1.2 0.6-2.6 0.9-4.3 0.9-2.1 0-3.7-0.4-5-1.42-1.3-0.9-1.9-2.3-1.8-4.1zm2.4-10.3c0 2.2 0.4 3.9 1.3 4.9s2 1.6 3.4 1.6c1.3 0 2.4-0.6 3.3-1.6s1.4-2.6 1.4-4.8c0-2.1-0.5-3.7-1.4-4.8-0.9-1-2.1-1.6-3.4-1.6s-2.4 0.6-3.3 1.6c-0.9 1.1-1.3 2.6-1.3 4.7zm18.4 15.82h-2.1c3.3-5.12 4.9-10.32 4.9-15.52 0-2-0.3-4-0.7-6-0.4-1.6-0.9-3.2-1.6-4.7-0.4-0.9-1.2-2.6-2.6-4.8h2.1c2 2.7 3.5 5.4 4.5 8.1 0.8 2.4 1.3 4.8 1.3 7.4 0 2.9-0.6 5.7-1.7 8.4s-2.5 5.1-4.1 7.12z"/>
  <path id="text2670" d="m632.1 44.98v2.8h-15.7c0-0.7 0.1-1.38 0.4-2.02 0.4-1.07 1-2.12 1.9-3.15 0.9-1.04 2.1-2.23 3.8-3.59 2.6-2.11 4.3-3.78 5.2-5.01 0.9-1.24 1.4-2.4 1.4-3.5 0-1.15-0.5-2.12-1.3-2.92-0.8-0.79-1.9-1.18-3.2-1.18-1.4 0-2.5 0.42-3.4 1.26-0.8 0.84-1.2 2-1.2 3.49l-3-0.31c0.2-2.23 0.9-3.93 2.3-5.1 1.3-1.17 3.1-1.75 5.4-1.75 2.2 0 4 0.63 5.4 1.89 1.3 1.26 1.9 2.82 1.9 4.68 0 0.95-0.2 1.88-0.5 2.8-0.4 0.91-1.1 1.88-2 2.89s-2.4 2.4-4.5 4.17c-1.7 1.46-2.8 2.46-3.3 2.98s-0.9 1.04-1.2 1.57h11.6zm8.7-1.03v-6.49h-6.4v-2.72h6.4v-6.44h2.8v6.44h6.4v2.72h-6.4v6.49h-2.8z"/>
 </g>
 <g id="g2976" transform="matrix(1.5,0,0,1.5,-450.1,7.85)">
  <path id="text1904_3" d="m861.1 59.98v-23.63h3.1v11.74l11.8-11.74h4.2l-9.9 9.59 10.3 14.04h-4.1l-8.4-11.94-3.9 3.74v8.2h-3.1zm33-2.1c-1.1 0.9-2.1 1.6-3.1 2-1 0.3-2.1 0.5-3.2 0.5-1.9 0-3.3-0.4-4.3-1.3-1.1-1-1.6-2.1-1.6-3.6 0-0.8 0.2-1.6 0.6-2.3s0.9-1.2 1.5-1.65c0.6-0.42 1.3-0.73 2.1-0.95 0.6-0.15 1.4-0.3 2.6-0.44 2.3-0.28 4.1-0.61 5.2-1v-0.76c0-1.18-0.3-2.02-0.8-2.5-0.8-0.66-1.9-0.98-3.3-0.98s-2.4 0.23-3.1 0.71c-0.6 0.48-1.1 1.33-1.4 2.55l-2.9-0.39c0.3-1.22 0.7-2.2 1.3-2.95s1.5-1.32 2.6-1.73c1.1-0.4 2.4-0.6 3.9-0.6 1.4 0 2.6 0.17 3.5 0.52 1 0.34 1.6 0.77 2.1 1.3 0.4 0.52 0.7 1.18 0.9 1.97 0.1 0.5 0.1 1.39 0.1 2.69v3.91c0 2.7 0.1 4.4 0.2 5.1s0.4 1.4 0.7 2h-3c-0.3-0.6-0.5-1.3-0.6-2.1zm-0.2-6.46c-1.1 0.46-2.7 0.76-4.8 1.06-1.2 0.2-2 0.4-2.5 0.6s-0.9 0.6-1.2 1c-0.2 0.4-0.4 0.8-0.4 1.3 0 0.8 0.3 1.5 0.9 2s1.5 0.8 2.6 0.8 2.1-0.3 3-0.8 1.5-1.1 1.9-2c0.3-0.6 0.5-1.6 0.5-2.9v-1.06zm7.4 8.56v-23.63h2.9v23.63h-2.9zm7.4-20.29v-3.34h2.9v3.34h-2.9zm0 20.29v-17.1h2.9v17.1h-2.9zm18.6 0v-2.5c-1.3 2-3.1 2.9-5.4 2.9-1 0-2-0.2-2.9-0.5-0.8-0.4-1.5-0.9-1.9-1.5-0.5-0.6-0.7-1.3-0.9-2.2-0.1-0.5-0.2-1.4-0.2-2.7v-10.6h2.9v9.5c0 1.5 0.1 2.6 0.2 3.1 0.2 0.7 0.6 1.3 1.1 1.8 0.6 0.4 1.4 0.6 2.2 0.6 0.9 0 1.7-0.2 2.5-0.6 0.8-0.5 1.3-1.1 1.6-1.9 0.3-0.7 0.5-1.8 0.5-3.3v-9.2h2.9v17.1h-2.6zm7.2 0v-17.1h2.6v2.4c0.5-0.84 1.2-1.51 2.1-2.02 0.9-0.52 1.9-0.77 3.1-0.77 1.3 0 2.3 0.26 3.1 0.79s1.4 1.27 1.7 2.21c1.4-2 3.1-3 5.3-3 1.7 0 3 0.47 4.2 1.41 1 0.94 1 2.39 1 4.35v11.73h-2.8v-10.76c0-1.16-0.1-2-0.3-2.51-0.1-0.51-0.5-0.92-1-1.23-0.5-0.32-1.1-0.47-1.7-0.47-1.2 0-2.2 0.4-3 1.2s-1.2 2.09-1.2 3.85v9.92h-2.9v-11.1c0-1.29-0.3-2.26-0.7-2.9-0.5-0.65-1.3-0.97-2.4-0.97-0.8 0-1.5 0.21-2.2 0.64s-1.2 1.06-1.5 1.89c-0.4 0.83-0.5 2.03-0.5 3.59v8.85h-2.9zm42.1 7c-1-2-3-4.4-4-7.1s-2-5.5-2-8.43c0-2.56 1-5.02 2-7.36 1-2.73 2-5.44 4-8.14h2c-1 2.24-2 3.84-2 4.79-1 1.49-1 3.04-2 4.66 0 2.01-1 4.03-1 6.07 0 5.21 2 10.31 5 15.51h-2zm6-7v-23.63h3v11.74l12-11.74h4.4l-10.4 9.59 11.4 14.04h-5.4l-8-11.94-4 3.74v8.2h-3z"/>
  <path id="text2673" d="m1024 66.98h-2c3-5.2 4-10.3 4-15.51v-6.03c-1-1.61-1-3.16-2-4.65 0-0.97-1-2.58-2-4.84h2c2 2.7 3 5.41 4 8.14 1 2.34 1 4.8 1 7.36 0 2.93 0 5.73-1 8.43s-3 5.1-4 7.1z"/>
  <path id="text2675" d="m850.7 94.28h-2.9v-18.6c-0.7 0.7-1.6 1.4-2.7 2-1.2 0.7-2.2 1.2-3.1 1.5v-2.8c1.6-0.7 3.1-1.7 4.3-2.7 1.2-1.1 2-2.2 2.6-3.2h1.8v23.8zm9.1 0v-3.3h3.3v3.3c0 1.2-0.2 2.2-0.7 2.9-0.4 0.8-1.1 1.3-2 1.8l-0.8-1.3c0.6-0.3 1-0.7 1.3-1.2s0.5-1.3 0.5-2.2h-1.6zm18.5 0h-2.9v-18.6c-0.7 0.7-1.6 1.4-2.7 2-1.2 0.7-2.2 1.2-3.1 1.5v-2.8c1.6-0.7 3-1.7 4.3-2.7 1.2-1.1 2-2.2 2.5-3.2h1.9v23.8zm17.2-18c0-1.7 0.4-3.2 1.3-4.3 0.8-1.2 2.1-1.8 3.7-1.8 1.5 0 2.7 0.5 3.7 1.6 0.9 1 1.4 2.6 1.4 4.7 0 2-0.5 3.5-1.4 4.6-1 1.1-2.2 1.6-3.7 1.6-1.4 0-2.6-0.5-3.6-1.6-0.9-1.1-1.4-2.7-1.4-4.8zm5.1-4.1c-0.8 0-1.4 0.3-1.8 0.9-0.5 0.6-0.8 1.8-0.8 3.5 0 1.5 0.3 2.6 0.8 3.2 0.4 0.6 1 0.9 1.8 0.9 0.7 0 1.3-0.3 1.8-0.9 0.5-0.7 0.7-1.8 0.7-3.5 0-1.5-0.2-2.6-0.7-3.2s-1.1-0.9-1.8-0.9zm0 22.9 12.9-24.9h2.4l-12.9 24.9h-2.4zm10.2-6.4c0-1.7 0.4-3.1 1.3-4.3 0.8-1.2 2.1-1.8 3.7-1.8 1.5 0 2.7 0.6 3.7 1.6 1 1.1 1.5 2.6 1.5 4.7 0 2-0.5 3.5-1.5 4.6s-2.2 1.6-3.7 1.6c-1.4 0-2.6-0.5-3.6-1.6-0.9-1-1.4-2.6-1.4-4.8zm5.1-4.1c-0.7 0-1.4 0.3-1.8 1-0.5 0.6-0.8 1.7-0.8 3.4 0 1.5 0.3 2.6 0.8 3.2s1.1 0.9 1.8 0.9 1.3-0.3 1.8-0.9 0.7-1.8 0.7-3.4-0.2-2.6-0.7-3.2c-0.5-0.7-1.1-1-1.8-1zm24 16.62c-1.6-2.02-3-4.42-4.1-7.12s-1.6-5.5-1.6-8.4c0-2.6 0.4-5 1.2-7.4 1-2.7 2.5-5.4 4.5-8.1h2.1c-1.3 2.2-2.2 3.8-2.6 4.8-0.7 1.5-1.2 3-1.6 4.6-0.4 2-0.7 4.1-0.7 6.1 0 5.2 1.7 10.4 4.9 15.52h-2.1zm4.7-18.62c0-2.8 0.3-5.1 0.8-6.8 0.6-1.7 1.5-3 2.6-3.9s2.6-1.4 4.3-1.4c1.3 0 2.4 0.2 3.3 0.8 1 0.5 2 1.2 2 2.2 1 0.9 2 2.1 2 3.5v12.3c-1 1.7-2 3-3 4-1.1 0.9-2.6 1.4-4.3 1.4-2.3 0-4.1-0.8-5.4-2.5-1.5-2-2.3-5.2-2.3-9.6zm3 0c0 3.9 0.4 6.5 1.3 7.7 0.9 1.3 2.1 2 3.4 2s2.5-0.7 3.3-2c1-1.3 1-3.8 1-7.7s0-6.5-1-7.8c-0.8-1.3-2-1.9-3.3-1.9-1.4 0-2.4 0.6-3.2 1.7-1 1.4-1.5 4.1-1.5 8zm17 11.7v-3.3h3v6.2c-1 0.8-1 1.3-2 1.8l-1-1.3c0-0.3 1-0.7 1-1.2s1-1.3 1-2.2h-2zm8-6.3 2-0.4c1 1.7 1 2.9 2 3.6s2 1.1 3 1.1 3-0.5 4-1.4c1-1 1-2.2 1-3.6 0-1.3 0-2.4-1-3.3-1-0.8-2-1.3-4-1.3 0 0-1 0.1-2 0.4l1-2.6c1 0 2-0.3 3-0.9 1-0.7 2-1.7 2-3 0-1.1 0-2-1-2.7s-2-1-3-1-2 0.3-3 1c-1 0.8-1 1.8-1 3.2l-3-0.5c0-1.9 1-3.4 2-4.5 2-1.1 3-1.6 5-1.6 1 0 2 0.3 4 0.8 1 0.6 1 1.3 2 2.3 1 0.9 1 2 1 3 0 1.1 0 2-1 2.8 0 0.9-1 1.5-2 2 1 0.4 2 1 3 2.1 1 1 1 2.2 1 3.8 0 2-1 3.8-2 5.2-2 1.5-4 2.2-6 2.2s-4-0.6-5-1.9c-1-1.2-2-2.8-2-4.8zm18 0.8 3-0.3c0 1.3 1 2.3 2 2.9 0 0.6 1 0.9 2 0.9s2-0.2 2-0.6c1.4-0.4 2.4-1 2.4-1.7 1-0.7 1-1.6 1-2.7 1-1.2 1-2.4 1-3.6v-0.6c-1 0.9-2 1.7-3 2.3-1.4 0.6-2.4 0.8-3.4 0.8-2 0-4-0.7-5-2.1s-2-3.3-2-5.6c0-2.4 1-4.3 2-5.8 2-1.5 3-2.2 5-2.2s3.4 0.4 5.4 1.2c1 0.9 2 2 3 3.6 0 1.5 1 3.7 1 6.6 0 3.1-1 5.5-1 7.3-1 1.8-2 3.1-3 4.1-2 0.9-3.4 1.4-5.4 1.4s-3-0.5-4-1.6c-2-1-2-2.4-3-4.3zm12.4-10.5c0-1.6 0-3-1-3.9-1-1-2.4-1.5-3.4-1.5-2 0-3 0.5-4 1.6-1 1-1 2.4-1 4.1 0 1.5 0 2.7 1 3.7 1 0.9 2 1.4 4 1.4 1 0 2.4-0.5 3.4-1.4 1-1 1-2.3 1-4zm16 17.4 3 0.4c0 0.9 0 1.5 1 1.9 0 0.6 1 0.8 3 0.8 1 0 2-0.2 3-0.8 0-0.5 1-1.3 1-2.2v-3.8c-1 1.5-2 2.3-4 2.3-3 0-5-0.9-6-2.6s-2-3.7-2-6.1c0-1.6 1-3.2 1-4.5 1-1.4 2-2.5 3-3.2 1-0.8 2-1.2 4-1.2s3 0.8 5 2.5v-2.1h2v20.5c-1 1.1-2 2-3 2.72-1 0.6-3 0.9-4 0.9-2 0-4-0.4-5-1.42-2-0.9-2-2.3-2-4.1zm2-10.3c0 2.2 1 3.9 2 4.9 0 1 2 1.6 3 1.6s2-0.6 3-1.6 2-2.6 2-4.8c0-2.1-1-3.7-2-4.8-1-1-2-1.6-3-1.6s-2 0.6-3 1.6c-1 1.1-2 2.6-2 4.7zm19 15.82h-2c3-5.12 4-10.32 4-15.52v-6c-1-1.6-1-3.2-2-4.7 0-0.9-1-2.6-2-4.8h2c2 2.7 3 5.4 4 8.1 1 2.4 1 4.8 1 7.4 0 2.9 0 5.7-1 8.4s-3 5.1-4 7.12z"/>
  <path id="text2677" d="m1010 43.95v-6.49h-7v-2.72h7v-6.44h2v6.44h7v2.72h-7v6.49h-2z"/>
 </g>
 <g id="g2982" transform="matrix(1.5,0,0,1.5,-137.4,-46.43)">
  <path id="text1904_4" d="m858.6 158.6v-23.7h10.5c2.1 0 3.7 0.3 4.8 0.7s1.9 1.2 2.6 2.2c0.7 1.1 1 2.3 1 3.6 0 1.7-0.6 3.1-1.6 4.3-1.1 1.1-2.8 1.8-5.1 2.2 0.8 0.4 1.5 0.7 1.9 1.1 0.9 0.9 1.8 1.9 2.6 3.2l4.1 6.4h-3.9l-3.2-4.9c-0.9-1.4-1.6-2.5-2.2-3.3-0.6-0.7-1.1-1.2-1.6-1.5s-0.9-0.6-1.4-0.7c-0.4-0.1-1-0.1-1.8-0.1h-3.6v10.5h-3.1zm3.1-13.2h6.7c1.5 0 2.6-0.1 3.4-0.4s1.4-0.8 1.8-1.5c0.4-0.6 0.7-1.3 0.7-2.1 0-1.1-0.5-2-1.3-2.8-0.8-0.7-2.1-1-3.8-1h-7.5v7.8zm32.1 7.7 3 0.4c-0.5 1.7-1.4 3.1-2.6 4.1-1.3 0.9-3 1.4-5 1.4-2.5 0-4.5-0.8-5.9-2.3-1.5-1.5-2.2-3.7-2.2-6.5 0-2.9 0.7-5.1 2.2-6.7s3.4-2.4 5.8-2.4c2.3 0 4.1 0.8 5.6 2.3 1.5 1.6 2.2 3.8 2.2 6.6v0.8h-12.8c0.1 1.9 0.6 3.3 1.6 4.3 0.9 1 2.1 1.5 3.6 1.5 1 0 1.9-0.3 2.7-0.8 0.7-0.6 1.3-1.5 1.8-2.7zm-9.6-4.7h9.6c-0.1-1.4-0.5-2.5-1.1-3.2-0.9-1.2-2.1-1.7-3.6-1.7-1.3 0-2.4 0.4-3.4 1.3-0.9 0.9-1.4 2.1-1.5 3.6zm15.1 5.1 2.9-0.4c0.1 1.1 0.6 2 1.3 2.6 0.8 0.6 1.8 0.9 3.1 0.9s2.3-0.2 3-0.8c0.6-0.5 0.9-1.2 0.9-1.9s-0.2-1.2-0.8-1.6c-0.4-0.2-1.4-0.5-3-0.9-2.1-0.6-3.6-1-4.4-1.4s-1.5-1-1.9-1.7-0.6-1.4-0.6-2.3c0-0.7 0.1-1.4 0.5-2.1 0.3-0.6 0.8-1.2 1.4-1.6 0.5-0.4 1.1-0.6 1.9-0.9 0.8-0.2 1.6-0.3 2.5-0.3 1.3 0 2.5 0.2 3.5 0.6 1.1 0.4 1.8 0.9 2.3 1.5 0.5 0.7 0.8 1.6 1 2.7l-2.9 0.4c-0.1-0.9-0.5-1.6-1.1-2.1s-1.5-0.7-2.6-0.7c-1.3 0-2.3 0.2-2.9 0.6-0.5 0.5-0.8 1-0.8 1.6 0 0.4 0.1 0.7 0.3 1 0.3 0.3 0.6 0.6 1.2 0.8 0.2 0.1 1.1 0.3 2.5 0.7 2.1 0.6 3.5 1 4.3 1.4 0.8 0.3 1.5 0.8 1.9 1.5 0.5 0.7 0.7 1.5 0.7 2.5s-0.2 1.9-0.8 2.7c-0.6 0.9-1.4 1.5-2.5 2-1 0.5-2.2 0.7-3.6 0.7-2.2 0-3.9-0.4-5.1-1.4-1.1-0.9-1.9-2.3-2.2-4.1zm24 2.5 0.5 2.6c-0.9 0.2-1.6 0.3-2.2 0.3-1.1 0-1.9-0.2-2.5-0.5-0.6-0.4-1-0.8-1.2-1.4-0.3-0.5-0.4-1.7-0.4-3.4v-9.9h-2.1v-2.2h2.1v-4.3l2.9-1.7v6h2.9v2.2h-2.9v10.1c0 0.8 0.1 1.3 0.2 1.6 0.1 0.2 0.2 0.4 0.5 0.5 0.2 0.2 0.5 0.2 1 0.2 0.3 0 0.7 0 1.2-0.1zm5.5 2.6h-2.6v-23.7h2.9v8.5c1.2-1.5 2.8-2.3 4.7-2.3 1 0 2 0.2 3 0.6 0.9 0.4 1.7 1 2.3 1.8s1.1 1.7 1.4 2.8c0.4 1.1 0.5 2.3 0.5 3.5 0 2.9-0.7 5.2-2.2 6.8-1.4 1.6-3.2 2.4-5.2 2.4s-3.6-0.8-4.8-2.5v2.1zm0-8.7c0 2.1 0.3 3.6 0.9 4.5 0.9 1.5 2.1 2.2 3.7 2.2 1.2 0 2.3-0.5 3.3-1.6 0.9-1.1 1.4-2.8 1.4-5s-0.5-3.9-1.4-4.9c-0.9-1.1-1.9-1.6-3.2-1.6s-2.4 0.5-3.3 1.6-1.4 2.7-1.4 4.8zm27.8 3.2 3 0.4c-1 1.7-2 3.1-3 4.1-1.2 0.9-2.8 1.4-4.8 1.4-2.5 0-4.5-0.8-6-2.3s-2.2-3.7-2.2-6.5c0-2.9 0.8-5.1 2.2-6.7 1.5-1.6 3.5-2.4 5.8-2.4s4 0.8 6 2.3c1 1.6 2 3.8 2 6.6v0.8h-13c0.1 1.9 0.7 3.3 1.6 4.3 1 1 2.2 1.5 3.6 1.5 1.1 0 2-0.3 2.7-0.8 0.8-0.6 1.1-1.5 2.1-2.7zm-9.8-4.7h9.8c0-1.4-1-2.5-1.3-3.2-1-1.2-2.2-1.7-3.6-1.7s-2.5 0.4-3.4 1.3-1.4 2.1-1.5 3.6zm14.8 5.1 3-0.4c0 1.1 1 2 1 2.6 1 0.6 2 0.9 4 0.9 1 0 2-0.2 3-0.8v-3.5c-1-0.2-2-0.5-3-0.9-2-0.6-4-1-5-1.4s-1-1-2-1.7v-4.4c1-0.6 1-1.2 2-1.6 0-0.4 1-0.6 2-0.9 0-0.2 1-0.3 2-0.3s3 0.2 4 0.6 1 0.9 2 1.5c0 0.7 1 1.6 1 2.7l-3 0.4c0-0.9-1-1.6-1-2.1-1-0.5-2-0.7-3-0.7s-2 0.2-3 0.6v2.6c0 0.3 0 0.6 1 0.8 0 0.1 1 0.3 3 0.7 2 0.6 3 1 4 1.4 1 0.3 1 0.8 2 1.5v5.2c-1 0.9-2 1.5-3 2s-2 0.7-3 0.7c-3 0-4-0.4-6-1.4-1-0.9-1-2.3-2-4.1zm24 2.5 1 2.6c-1 0.2-2 0.3-2 0.3-2 0-2-0.2-3-0.5-1-0.4-1-0.8-1-1.4 0-0.5-1-1.7-1-3.4v-9.9h-2v-2.2h2v-4.3l3-1.7v6h3v2.2h-3v10.1c0 0.8 0 1.3 1 1.6v0.5c0 0.2 1 0.2 1 0.2s1 0 1-0.1zm14 0.5c-1 0.9-2 1.6-3 1.9-1 0.4-2 0.6-3 0.6-2 0-3-0.4-4-1.4-1-0.9-2-2.1-2-3.5 0-0.8 0-1.6 1-2.3 0-0.7 1-1.2 1-1.7 1-0.4 2-0.7 2-0.9 1-0.2 2-0.3 3-0.5 2-0.2 4-0.6 5-1v-0.7c0-1.2 0-2-1-2.5 0-0.7-2-1-3-1s-2 0.2-3 0.7-1 1.3-2 2.6l-2-0.4c0-1.2 0-2.2 1-3 0-0.7 1-1.3 2-1.7 2-0.4 3-0.6 4-0.6 2 0 3 0.2 4 0.5 1.4 0.3 2.4 0.8 2.4 1.3s1 1.2 1 2v11.7c0 0.7 1 1.4 1 2h-3c0-0.6-1.4-1.3-1.4-2.1zm0-6.5c-1 0.4-3 0.8-5 1.1-1 0.2-2 0.4-2 0.6-1 0.2-1 0.5-1 0.9-1 0.5-1 0.9-1 1.4 0 0.8 1 1.4 1 2 1 0.5 2 0.7 3 0.7s2-0.2 3-0.7 1-1.2 2-2v-4zm8.4 8.6v-17.1h2v2.4c1-1.9 3-2.8 6-2.8 1 0 2 0.2 2 0.5 1 0.4 2 0.9 2 1.5 1 0.6 1 1.3 1 2.2v13.3h-2v-10.4c0-1.2-1-2.1-1-2.7s0-1-1-1.4c-1-0.3-1-0.5-2-0.5s-2 0.4-3 1.2-2 2.3-2 4.5v9.3h-2zm29 0v-2.1c-1 1.7-3 2.5-5 2.5-1 0-2-0.4-4-1.1-1-0.8-2-1.8-2-3.2-1-1.3-1-2.9-1-4.6s0-3.3 1-4.7c0-1.4 1-2.5 2-3.2s3-1.1 4-1.1 2 0.2 3 0.6c1 0.5 1 1 2 1.7v-8.5h3v23.7h-3zm-9-8.5c0 2.2 0 3.8 1 4.9s2 1.6 4 1.6c1 0 2-0.5 3-1.5 1-1.1 1-2.7 1-4.8 0-2.3 0-4.1-1-5.2s-2-1.6-4-1.6c-1 0-2 0.5-3 1.6-1 1-1 2.7-1 5zm23 5.9v2.6c-1 0.2-1 0.3-2 0.3s-2-0.2-3-0.5c0-0.4-1-0.8-1-1.4v-13.3h-2v-2.2h2v-4.3l3-1.7v6h3v2.2h-3v12.2l1 0.2c1 0 1 0 2-0.1zm14-2.9 3 0.4c0 1.7-1 3.1-2 4.1-2 0.9-3 1.4-5 1.4-3 0-5-0.8-6-2.3-2-1.5-2-3.7-2-6.5 0-2.9 0-5.1 2-6.7 1-1.6 3-2.4 6-2.4 2 0 4 0.8 5 2.3 2 1.6 2 3.8 2 6.6v0.8h-12c0 1.9 0 3.3 1 4.3s2 1.5 4 1.5c1 0 2-0.3 2-0.8 1-0.6 2-1.5 2-2.7zm-9-4.7h9c0-1.4 0-2.5-1-3.2-1-1.2-2-1.7-3-1.7-2 0-3 0.4-4 1.3s-1 2.1-1 3.6zm16-10.1v-3.4h3v3.4h-3zm0 20.3v-17.1h3v17.1h-3zm7 0v-23.7h3v23.7h-3zm19-5.5 3 0.4c0 1.7-1 3.1-2 4.1-1 0.9-3 1.4-5 1.4-3 0-5-0.8-6-2.3-2-1.5-2-3.7-2-6.5 0-2.9 0-5.1 2-6.7 1-1.6 3-2.4 6-2.4 2 0 4 0.8 5 2.3 2 1.6 3 3.8 3 6.6 0 0.2 0 0.4-1 0.8h-12c0 1.9 0 3.3 1 4.3s2 1.5 4 1.5c1 0 2-0.3 3-0.8 0-0.6 1-1.5 1-2.7zm-9-4.7h9c0-1.4 0-2.5-1-3.2-1-1.2-2-1.7-3-1.7-2 0-3 0.4-4 1.3s-1 2.1-1 3.6z"/>
  <path id="text2680" d="m875.2 181.2c0-2.8 0.3-5.1 0.9-6.8 0.5-1.7 1.4-3 2.5-3.9 1.2-1 2.6-1.4 4.3-1.4 1.3 0 2.4 0.2 3.4 0.7 0.9 0.5 1.7 1.3 2.3 2.2 0.7 1 1.2 2.2 1.5 3.6 0.4 1.4 0.6 3.2 0.6 5.6 0 2.7-0.3 5-0.9 6.7s-1.4 3-2.6 4c-1.1 0.9-2.5 1.3-4.3 1.3-2.3 0-4-0.8-5.3-2.4-1.6-2-2.4-5.2-2.4-9.6zm3 0c0 3.9 0.5 6.4 1.4 7.7s2 2 3.3 2c1.4 0 2.5-0.7 3.4-2s1.4-3.9 1.4-7.7c0-3.9-0.5-6.5-1.4-7.8s-2-1.9-3.4-1.9c-1.3 0-2.4 0.5-3.2 1.7-1 1.4-1.5 4.1-1.5 8zm17 11.6v-3.3h3.3v3.3c0 1.3-0.2 2.2-0.6 3-0.5 0.7-1.2 1.3-2.1 1.7l-0.8-1.2c0.6-0.3 1.1-0.7 1.4-1.2 0.2-0.5 0.4-1.3 0.4-2.3h-1.6zm7.8-20.5v-2.8h15.3v2.2c-1.5 1.6-3 3.8-4.5 6.4-1.4 2.7-2.6 5.4-3.4 8.2-0.6 2-0.9 4.2-1.1 6.5h-3c0-1.8 0.4-4.1 1.1-6.7s1.7-5.2 3-7.6c1.3-2.5 2.7-4.6 4.2-6.2h-11.6zm27.9 2.5c0-1.6 0.5-3.1 1.3-4.3 0.9-1.1 2.1-1.7 3.7-1.7 1.5 0 2.7 0.5 3.7 1.6 1 1 1.5 2.6 1.5 4.6s-0.5 3.6-1.5 4.7c-1 1-2.2 1.6-3.7 1.6-1.4 0-2.6-0.6-3.5-1.6-1-1.1-1.5-2.7-1.5-4.9zm5.1-4c-0.7 0-1.3 0.3-1.8 0.9s-0.7 1.8-0.7 3.4 0.2 2.6 0.7 3.2c0.5 0.7 1.1 1 1.8 1s1.3-0.3 1.8-1c0.5-0.6 0.7-1.7 0.7-3.4 0-1.5-0.2-2.6-0.7-3.2s-1.1-0.9-1.8-0.9zm0 22.9 13-24.9h2.3l-12.9 24.9h-2.4zm10.2-6.4c0-1.7 0.5-3.2 1.3-4.3 0.9-1.2 2.1-1.8 3.7-1.8 1.5 0 2.8 0.5 3.7 1.6 0.7 1 1.7 2.6 1.7 4.7 0 2-1 3.5-1.7 4.6-1 1.1-2.2 1.6-3.6 1.6-1.5 0-2.7-0.5-3.6-1.6-1-1.1-1.5-2.7-1.5-4.8zm5.1-4.1c-0.7 0-1.3 0.3-1.8 0.9-0.5 0.7-0.7 1.8-0.7 3.5 0 1.5 0.2 2.6 0.7 3.2s1.1 0.9 1.8 0.9 1.4-0.3 1.8-0.9c0.5-0.6 0.8-1.8 0.8-3.4s-0.3-2.7-0.8-3.3-1.1-0.9-1.8-0.9zm24.3 16.6c-2-2-3-4.4-4-7.1s-2-5.5-2-8.4c0-2.6 0-5.1 1-7.4 1-2.7 3-5.4 5-8.1h2c-1 2.2-2 3.8-3 4.8 0 1.4-1 3-1 4.6-1 2-1 4-1 6.1 0 5.2 2 10.3 5 15.5h-2zm4-18.6c0-2.8 1-5.1 1-6.8 1-1.7 2-3 3-3.9 1-1 2-1.4 4-1.4 1 0 3 0.2 3 0.7 1 0.5 2 1.3 3 2.2 0 1 1 2.2 1 3.6 1 1.4 1 3.2 1 5.6 0 2.7 0 5-1 6.7s-1 3-3 4c-1 0.9-2 1.3-4 1.3s-4-0.8-5-2.4c-2-2-3-5.2-3-9.6zm3 0c0 3.9 1 6.4 2 7.7s2 2 3 2 3-0.7 3-2c1-1.3 2-3.9 2-7.7 0-3.9-1-6.5-2-7.8 0-1.3-2-1.9-3-1.9s-2 0.5-3 1.7c-1 1.4-2 4.1-2 8zm17 11.6v-3.3h4.4v3.3c0 1.3-1 2.2-1 3 0 0.7-1 1.3-2 1.7l-1.4-1.2c1.4-0.3 1.4-0.7 2.4-1.2v-2.3h-2.4zm23.4-2.8v2.8h-15v-2c0-1 1-2.1 2-3.1 1-1.1 2-2.3 4-3.6 2-2.1 4-3.8 5-5 1-1.3 1-2.4 1-3.5 0-1.2 0-2.1-1-2.9s-2-1.2-3-1.2c-2 0-3 0.4-4 1.2 0 0.9-1 2-1 3.5l-3-0.3c0-2.2 1-3.9 2-5.1 2-1.1 4-1.7 6-1.7s4 0.6 5 1.9c2 1.2 2 2.8 2 4.6v2.8c-1 1-1 1.9-2 2.9s-3 2.4-5 4.2c-1 1.5-3 2.5-3 3-1 0.5-1 1-1 1.5h11zm3-3.4 3-0.2c1 1.5 1 2.6 2 3.3 1 0.8 2 1.2 3 1.2s3-0.6 4-1.6c1-1.1 1-2.5 1-4.2s0-3-1-4c-1-0.9-3-1.4-4-1.4s-2 0.2-3 0.6c0 0.5-1 1-1 1.7l-3-0.3 2-12.2h12v2.8h-9l-2 6.3c2-1 3-1.5 5-1.5s4 0.8 5 2.2 2 3.3 2 5.5-1 4-2 5.6c-1 1.9-3 2.8-6 2.8-2 0-4-0.6-5-1.8-2-1.2-2-2.8-3-4.8zm28 7.7 3 0.4c0 0.9 1 1.5 1 1.9 1 0.5 2 0.8 3 0.8s2-0.3 3-0.8 1-1.3 2-2.3v-3.7c-1 1.5-3 2.2-5 2.2s-4-0.8-5-2.5c-2-1.7-2-3.8-2-6.1 0-1.7 0-3.2 1-4.6 0-1.3 1-2.4 2-3.2 1-0.7 3-1.1 4-1.1 2 0 4 0.8 5 2.5v-2.1h3v14.8c0 2.7 0 4.6-1 5.7s-1 2-3 2.6c-1 0.7-2 1-4 1s-4-0.5-5-1.4-2-2.3-2-4.1zm3-10.3c0 2.2 0 3.9 1 4.9s2 1.5 3 1.5c2 0 3-0.5 4-1.5s1-2.6 1-4.8c0-2.1 0-3.7-1-4.8s-2-1.6-4-1.6c-1 0-2 0.5-3 1.6-1 1-1 2.6-1 4.7zm18 15.8h-2c3-5.2 5-10.3 5-15.5 0-2 0-4-1-6 0-1.7-1-3.2-1-4.7-1-1-2-2.6-3-4.8h2c2 2.7 4 5.4 5 8.1 0 2.3 1 4.8 1 7.4 0 2.9-1 5.7-2 8.4s-2 5.1-4 7.1z"/>
 </g>
 <path id="text5700_5" d="m1275 43.82v-43.82h13l8 29.92 8-29.92h14v43.82h-9v-34.5l-8 34.5h-9l-9-34.5v34.5h-8zm70-10.1 8 1.4c-1 3.1-3 5.4-5 7s-5 2.5-9 2.5c-5 0-9-1.9-12-5.5-2-2.9-3-6.5-3-10.9 0-5.3 1-9.4 4-12.4s6-4.4 10-4.4c5 0 9 1.5 12 4.6 2 3.2 4 7.9 4 14.4h-22c1 2.5 1 4.4 3 5.8 1 1.4 2 2.1 4 2.1s3-0.4 4-1.1 1-1.9 2-3.5zm0-8.5c0-2.4-1-4.3-2-5.5-1-1.3-2-1.9-4-1.9s-3 0.6-5 2c-1 1.3-1 3.1-1 5.4h12zm34 8.5 8 1.4c-1 3.1-3 5.4-5 7s-5 2.5-9 2.5c-5 0-9-1.9-12-5.5-2-2.9-3-6.5-3-10.9 0-5.3 1-9.4 4-12.4s6-4.4 11-4.4c4 0 8 1.5 11 4.6 2 3.2 4 7.9 4 14.4h-21c0 2.5 0 4.4 2 5.8 1 1.4 3 2.1 4 2.1 2 0 3-0.4 4-1.1s1-1.9 2-3.5zm0-8.5c0-2.4 0-4.3-2-5.5-1-1.3-2-1.9-4-1.9s-3 0.6-5 2c-1 1.3-1 3.1-1 5.4h12zm24 18.6h-9v-31.7h8v4.5c1-2.1 2-3.6 4-4.2 1-0.7 2-1 3-1 2 0 4 0.5 6 1.5l-3 7.4c-1-1-3-1.4-4-1.4s-2 0.3-3 1c-1 0.6-1 1.8-2 3.5v20.4zm21 0-10-31.7h8l6 20.8 6-20.8h8l5 20.8 6-20.8h9l-11 31.7h-8l-5-20.4-6 20.4h-8zm48-22-7-1.4c0-3.1 2-5.4 4-6.8 2-1.5 5-2.2 9-2.2s7 0.4 9 1.3 3 2 4 3.4c0 1.3 1 3.8 1 7.5v16c0 1.3 1 2.7 2 4.2h-9c0-0.5 0-1.4-1-2.4v-1c-1 1.4-3 2.4-4 3.1-2 0.7-4 1.1-6 1.1-3 0-6-0.9-7-2.7-2-1.8-3-4-3-6.7 0-1.8 0-3.4 1-4.8s2-2.5 4-3.3c1-0.7 3-1.4 6-1.9 4-0.8 7-1.5 8-2.1v-0.8c0-1.6 0-2.8-1-3.5s-2-1-4-1-3 0.3-4 0.9-1 1.6-2 3.1zm11 6.8c-1 0.3-2 0.8-5 1.3-2 0.5-4 1-4 1.4-1 0.8-2 1.8-2 3s1 2.2 1 3c1 0.9 2 1.3 4 1.3 1 0 3-0.5 4-1.5 1-0.7 2-1.7 2-2.7v-5.8zm14 6.2 9-1.3c0 1.6 1 2.9 2 3.7 1 0.9 2 1.3 4 1.3s4-0.4 5-1.2c1-0.6 1-1.3 1-2.3v-1.5l-3-1.2c-7-1.4-11-2.8-13-4-3-1.8-4-4.1-4-7.2 0-2.8 1-5.1 3-6.9 3-1.9 6-2.8 11-2.8 4 0 7 0.7 9 2.1s4 3.5 5 6.3l-8 1.4c-1-1.2-1-2.2-2-2.8-1-0.7-2-1-4-1s-4 0.3-5 0.9c-1 0.5-1 1-1 1.7 0 0.6 0 1.1 1 1.6s3 1.3 8 2.3c4 1 7 2.3 9 3.8 2 1.4 3 3.5 3 6.2 0 2.9-1 5.4-4 7.5-2 2.1-6 3.2-11 3.2-4 0-7-0.9-10-2.7-3-1.7-4-4.1-5-7.1zm34 0 9-1.3c0 1.6 1 2.9 2 3.7 1 0.9 2 1.3 4 1.3 3 0 4-0.4 5-1.2 1-0.6 1-1.3 1-2.3v-1.5l-3-1.2c-7-1.4-11-2.8-13-4-2-1.8-4-4.1-4-7.2 0-2.8 1-5.1 4-6.9 2-1.9 5-2.8 10-2.8 4 0 7 0.7 9 2.1 3 1.4 4 3.5 5 6.3l-8 1.4c-1-1.2-1-2.2-2-2.8-1-0.7-2-1-4-1s-4 0.3-5 0.9c-1 0.5-1 1-1 1.7 0 0.6 0 1.1 1 1.6s3 1.3 8 2.3c4 1 7 2.3 9 3.8 2 1.4 3 3.5 3 6.2 0 2.9-1 5.4-4 7.5-2 2.1-6 3.2-11 3.2-4 0-7-0.9-10-2.7-2-1.7-4-4.1-5-7.1zm56-1.1 8 1.4c-1 3.1-3 5.4-5 7s-5 2.5-9 2.5c-5 0-9-1.9-12-5.5-2-2.9-3-6.5-3-10.9 0-5.3 1-9.4 4-12.4s6-4.4 10-4.4c5 0 9 1.5 12 4.6 2 3.2 4 7.9 3 14.4h-21c0 2.5 1 4.4 2 5.8 2 1.4 3 2.1 5 2.1s3-0.4 4-1.1c0-0.7 1-1.9 2-3.5zm0-8.5c0-2.4-1-4.3-2-5.5-1-1.3-2-1.9-4-1.9s-4 0.6-5 2c-1 1.3-1 3.1-1 5.4h12zm23 18.6h-8v-31.7h8v4.5c1-2.1 2-3.6 3-4.2 1-0.7 3-1 4-1 2 0 4 0.5 6 1.5l-3 7.4c-1-1-3-1.4-4-1.4s-2 0.3-3 1c-1 0.6-1 1.8-2 3.5 0 1.7-1 5.2-1 10.6v9.8z"/>
 <g id="g2944" transform="matrix(1.425,0,0,1.425,-147.8,-284.1)">
  <g id="g2941">
   <path id="text2644" d="m222.9 759.5 4.1-0.4c0.3 2 1 3.5 2.2 4.6 1.1 1 2.4 1.5 4 1.5 1.9 0 3.5-0.7 4.8-2.2 1.3-1.4 2-3.3 2-5.7 0-2.2-0.6-4-1.9-5.3s-2.9-1.9-5-1.9c-1.2 0-2.4 0.2-3.4 0.8s-1.8 1.4-2.4 2.3l-3.7-0.5 3.1-16.5h16v3.8h-12.9l-1.7 8.6c1.9-1.4 4-2 6.1-2 2.8 0 5.2 0.9 7.1 2.9 1.9 1.9 2.9 4.4 2.9 7.5 0 2.9-0.9 5.4-2.6 7.5-2 2.6-4.8 3.9-8.4 3.9-2.9 0-5.3-0.8-7.2-2.4-1.8-1.7-2.9-3.8-3.1-6.5zm25 0 4.1-0.4c0.3 2 1 3.5 2.1 4.6 1.2 1 2.5 1.5 4.1 1.5 1.9 0 3.5-0.7 4.8-2.2 1.3-1.4 2-3.3 2-5.7 0-2.2-0.6-4-1.9-5.3s-2.9-1.9-5-1.9c-1.2 0-2.4 0.2-3.4 0.8s-1.8 1.4-2.4 2.3l-3.7-0.5 3.1-16.5h16v3.8h-12.9l-1.7 8.6c1.9-1.4 4-2 6.1-2 2.8 0 5.2 0.9 7.1 2.9 1.9 1.9 2.9 4.4 2.9 7.5 0 2.9-0.9 5.4-2.6 7.5-2 2.6-4.8 3.9-8.4 3.9-2.9 0-5.3-0.8-7.2-2.4-1.8-1.7-2.9-3.8-3.1-6.5zm38.2-16c0-2.3 0.5-4.3 1.7-5.9 1.1-1.6 2.8-2.4 5-2.4 2 0 3.7 0.7 5 2.2 1.3 1.4 2 3.5 2 6.3 0 2.7-0.7 4.8-2 6.3s-3 2.2-5 2.2c-1.9 0-3.5-0.7-4.8-2.2-1.3-1.4-1.9-3.6-1.9-6.5zm6.8-5.6c-1 0-1.8 0.4-2.4 1.3-0.7 0.8-1 2.4-1 4.7 0 2 0.3 3.5 1 4.3 0.6 0.8 1.5 1.3 2.4 1.3 1 0 1.8-0.5 2.5-1.3 0.6-0.8 1-2.4 1-4.6 0-2.1-0.4-3.6-1-4.4-0.7-0.9-1.5-1.3-2.5-1.3zm0 31.2 17.6-33.9h3.2l-17.5 33.9h-3.3zm13.9-8.8c0-2.3 0.6-4.2 1.8-5.8 1.1-1.6 2.8-2.4 5-2.4 2 0 3.7 0.7 5 2.1 1.3 1.5 2 3.6 2 6.4 0 2.7-0.7 4.8-2 6.3-1.3 1.4-3 2.2-5 2.2-1.9 0-3.5-0.8-4.8-2.2-1.3-1.5-2-3.6-2-6.6zm6.9-5.5c-1 0-1.8 0.4-2.4 1.3-0.7 0.8-1 2.4-1 4.6 0 2.1 0.3 3.5 1 4.4 0.6 0.8 1.4 1.2 2.4 1.2s1.8-0.4 2.5-1.2c0.6-0.9 1-2.4 1-4.7 0-2-0.4-3.5-1-4.3-0.7-0.9-1.5-1.3-2.5-1.3zm32.6 22.5c-2.2-2.7-4-5.9-5.5-9.6s-2.3-7.5-2.3-11.5c0-3.4 0.6-6.8 1.7-10 1.3-3.7 3.3-7.3 6.1-11h2.8c-1.7 3-2.9 5.2-3.5 6.5-0.9 2-1.6 4.1-2.1 6.3-0.6 2.8-0.9 5.5-0.9 8.3 0 7 2.2 14 6.5 21h-2.8zm21.2-9.4h-3.9v-25.2c-1 0.9-2.2 1.9-3.8 2.8-1.5 0.9-2.9 1.5-4.1 2v-3.8c2.2-1.1 4.1-2.3 5.8-3.8 1.6-1.5 2.8-2.9 3.5-4.3h2.5v32.3zm10.7-7.4 3.8-0.4c0.3 1.8 1 3.1 1.9 3.9s2 1.2 3.5 1.2c1.2 0 2.2-0.3 3.1-0.8 1-0.6 1.7-1.3 2.3-2.3 0.6-0.9 1.1-2.2 1.5-3.7 0.4-1.6 0.5-3.2 0.5-4.9v-0.7c-0.8 1.2-1.8 2.2-3.2 3s-2.9 1.2-4.4 1.2c-2.7 0-5-1-6.8-2.9s-2.8-4.5-2.8-7.6c0-3.3 1-5.9 2.9-7.9s4.4-3 7.2-3c2.1 0 4 0.6 5.8 1.7 1.7 1.1 3 2.7 3.9 4.8s1.4 5.1 1.4 9.1c0 4.1-0.5 7.3-1.4 9.8-0.9 2.4-2.2 4.3-3.9 5.5-1.8 1.3-3.9 1.9-6.2 1.9-2.6 0-4.6-0.7-6.2-2.1s-2.5-3.3-2.9-5.8zm16.2-14.2c0-2.3-0.6-4.1-1.8-5.4-1.2-1.4-2.7-2-4.4-2s-3.3 0.7-4.6 2.1c-1.3 1.5-1.9 3.3-1.9 5.6 0 2 0.6 3.7 1.8 5 1.3 1.3 2.8 1.9 4.6 1.9s3.3-0.6 4.5-1.9 1.8-3.1 1.8-5.3zm10.4 21.6v-4.5h4.5v4.5c-0.1 1.6-0.3 3-0.9 4s-1.5 1.8-2.8 2.3l-1.1-1.6c0.8-0.4 1.4-1 1.8-1.7s0.6-1.7 0.7-3h-2.2zm31-3.8v3.8h-21.2c-0.1-1 0.1-1.9 0.4-2.8 0.6-1.4 1.4-2.8 2.6-4.2s2.9-3.1 5.2-4.9c3.5-2.9 5.9-5.1 7.1-6.8s1.8-3.3 1.8-4.8-0.5-2.8-1.7-3.9c-1.1-1.1-2.5-1.6-4.3-1.6-1.9 0-3.5 0.6-4.6 1.7s-1.7 2.7-1.7 4.7l-4.1-0.4c0.3-3 1.3-5.3 3.2-6.9 1.8-1.6 4.2-2.4 7.3-2.4 3 0 5.5 0.9 7.3 2.6s2.7 3.8 2.7 6.3c0 1.3-0.3 2.6-0.8 3.8-0.5 1.3-1.4 2.6-2.6 4-1.3 1.3-3.3 3.2-6.1 5.6-2.4 2-3.9 3.3-4.6 4.1-0.6 0.7-1.2 1.4-1.6 2.1h15.7zm4.3-4.6 4.1-0.4c0.3 2 1 3.5 2.2 4.6 1.1 1 2.4 1.5 4 1.5 1.9 0 3.5-0.7 4.8-2.2 1.3-1.4 2-3.3 2-5.7 0-2.2-0.6-4-1.9-5.3s-2.9-1.9-5-1.9c-1.2 0-2.4 0.2-3.4 0.8s-1.8 1.4-2.4 2.3l-3.7-0.5 3.1-16.5h16v3.8h-12.9l-1.7 8.6c1.9-1.4 4-2 6.1-2 2.8 0 5.2 0.9 7.1 2.9 1.9 1.9 2.9 4.4 2.9 7.5 0 2.9-0.9 5.4-2.6 7.5-2 2.6-4.8 3.9-8.4 3.9-2.9 0-5.3-0.8-7.2-2.4-1.8-1.7-2.9-3.8-3.1-6.5zm37.8 10.3 3.8 0.6c0.2 1.2 0.6 2 1.4 2.6 0.9 0.7 2.3 1.1 4 1.1 1.8 0 3.2-0.4 4.2-1.1 1-0.8 1.7-1.8 2-3.1 0.2-0.8 0.3-2.5 0.3-5.1-1.7 2.1-3.9 3.1-6.4 3.1-3.2 0-5.7-1.2-7.5-3.5-1.7-2.3-2.6-5.1-2.6-8.3 0-2.2 0.4-4.3 1.2-6.1 0.8-1.9 2-3.4 3.5-4.4s3.3-1.5 5.4-1.5c2.7 0 5 1.1 6.8 3.3v-2.8h3.6v20.1c0 3.7-0.4 6.2-1.1 7.7s-1.9 2.7-3.5 3.6-3.6 1.3-5.9 1.3c-2.8 0-5-0.6-6.7-1.8-1.7-1.3-2.6-3.2-2.5-5.7zm3.3-14c0 3.1 0.6 5.3 1.8 6.7s2.7 2.1 4.5 2.1 3.4-0.7 4.6-2.1 1.8-3.6 1.8-6.5-0.6-5-1.9-6.5c-1.2-1.4-2.8-2.2-4.5-2.2-1.8 0-3.3 0.8-4.5 2.2s-1.8 3.5-1.8 6.3zm25 21.5h-2.8c4.3-7 6.5-14 6.5-21 0-2.8-0.3-5.5-0.9-8.2-0.5-2.2-1.2-4.3-2.1-6.3-0.6-1.3-1.8-3.5-3.5-6.6h2.8c2.7 3.7 4.8 7.3 6.1 11 1.1 3.2 1.7 6.6 1.7 10 0 4-0.8 7.8-2.3 11.5s-3.4 6.9-5.5 9.6z"/>
  </g>
  <g id="g2936">
   <path id="text1904" d="m278.1 705.3 4.3 1.1c-0.9 3.5-2.5 6.1-4.8 8-2.4 1.8-5.2 2.7-8.5 2.7-3.5 0-6.3-0.7-8.5-2.1s-3.8-3.5-4.9-6.1c-1.2-2.7-1.7-5.6-1.7-8.7 0-3.3 0.6-6.2 1.9-8.7s3.1-4.4 5.4-5.7c2.4-1.3 5-1.9 7.8-1.9 3.2 0 5.9 0.8 8.1 2.4 2.2 1.7 3.8 4 4.6 6.9l-4.2 1c-0.7-2.3-1.8-4-3.2-5.1s-3.2-1.6-5.4-1.6c-2.4 0-4.5 0.6-6.1 1.8-1.7 1.2-2.9 2.8-3.5 4.8-0.7 2-1.1 4-1.1 6.1 0 2.8 0.4 5.1 1.2 7.2 0.8 2 2.1 3.5 3.8 4.6 1.6 1 3.5 1.5 5.4 1.5 2.4 0 4.4-0.7 6.1-2.1 1.6-1.4 2.7-3.4 3.3-6.1zm9 11.3v-32.2h4v11.6c1.8-2.2 4.1-3.2 6.9-3.2 1.8 0 3.3 0.3 4.5 1 1.3 0.7 2.2 1.6 2.8 2.8 0.5 1.2 0.8 2.9 0.8 5.2v14.8h-4v-14.8c0-2-0.4-3.4-1.2-4.3-0.9-0.9-2.1-1.4-3.7-1.4-1.1 0-2.2 0.4-3.3 1-1 0.6-1.7 1.4-2.2 2.4-0.4 1.1-0.6 2.5-0.6 4.3v12.8h-4zm24.9 0v-32.2h4v32.2h-4zm8.6-11.7c0-4.3 1.2-7.5 3.6-9.6 2-1.7 4.5-2.5 7.4-2.5 3.2 0 5.8 1 7.8 3.1s3.1 5 3.1 8.7c0 3-0.5 5.3-1.4 7.1-0.9 1.7-2.2 3-3.9 4-1.7 0.9-3.6 1.4-5.6 1.4-3.3 0-5.9-1.1-7.9-3.2-2-2-3.1-5.1-3.1-9zm4.1 0c0 3 0.7 5.2 2 6.7s2.9 2.2 4.9 2.2c1.9 0 3.5-0.7 4.9-2.2 1.3-1.5 1.9-3.8 1.9-6.8 0-2.9-0.7-5.1-2-6.6-1.3-1.4-2.9-2.2-4.8-2.2-2 0-3.6 0.8-4.9 2.2-1.3 1.5-2 3.7-2 6.7zm22.4 11.7v-23.3h3.5v3.5c0.9-1.6 1.8-2.7 2.5-3.3 0.8-0.5 1.6-0.7 2.6-0.7 1.3 0 2.6 0.4 4 1.2l-1.4 3.7c-0.9-0.6-1.9-0.9-2.8-0.9s-1.7 0.3-2.4 0.8-1.1 1.2-1.4 2.2c-0.5 1.4-0.7 2.9-0.7 4.6v12.2h-3.9zm15-27.6v-4.6h4v4.6h-4zm0 27.6v-23.3h4v23.3h-4zm25.1 0v-3c-1.5 2.3-3.6 3.5-6.5 3.5-1.9 0-3.6-0.5-5.1-1.6-1.6-1-2.8-2.4-3.6-4.2-0.9-1.9-1.3-4-1.3-6.4 0-2.3 0.4-4.4 1.1-6.3 0.8-1.9 2-3.3 3.5-4.3 1.6-1 3.3-1.5 5.2-1.5 1.4 0 2.7 0.2 3.8 0.8s1.9 1.4 2.6 2.4v-11.6h4v32.2h-3.7zm-12.5-11.7c0 3 0.7 5.2 1.9 6.7 1.3 1.5 2.8 2.2 4.5 2.2s3.1-0.7 4.4-2.1c1.2-1.4 1.8-3.5 1.8-6.4 0-3.2-0.7-5.6-1.9-7-1.2-1.5-2.7-2.3-4.5-2.3s-3.2 0.7-4.4 2.2c-1.2 1.4-1.8 3.7-1.8 6.7zm42.4 21.1c-2.2-2.7-4-6-5.5-9.6-1.6-3.7-2.3-7.5-2.3-11.5 0-3.5 0.6-6.8 1.7-10 1.3-3.7 3.3-7.4 6.1-11h2.8c-1.8 3-2.9 5.2-3.5 6.5-0.9 2-1.6 4.1-2.1 6.3-0.6 2.7-1 5.5-1 8.2 0 7.1 2.2 14.1 6.6 21.1h-2.8zm30.9-20.7 4.2 1.1c-0.9 3.5-2.5 6.1-4.8 8-2.3 1.8-5.1 2.7-8.5 2.7-3.5 0-6.3-0.7-8.4-2.1-2.2-1.4-3.9-3.5-5-6.1-1.1-2.7-1.7-5.6-1.7-8.7 0-3.3 0.6-6.2 1.9-8.7s3.1-4.4 5.5-5.7c2.3-1.3 4.9-1.9 7.8-1.9 3.2 0 5.9 0.8 8.1 2.4 2.2 1.7 3.7 4 4.6 6.9l-4.2 1c-0.8-2.3-1.8-4-3.3-5.1-1.4-1.1-3.2-1.6-5.3-1.6-2.5 0-4.5 0.6-6.2 1.8s-2.8 2.8-3.5 4.8-1 4-1 6.1c0 2.8 0.4 5.1 1.2 7.2 0.8 2 2 3.5 3.7 4.6 1.7 1 3.5 1.5 5.5 1.5 2.3 0 4.4-0.7 6-2.1 1.7-1.4 2.8-3.4 3.4-6.1zm8.9 11.3v-32.2h3.9v32.2h-3.9z"/>
   <path id="text2642" d="m486.6 726h-2.8c4.4-7 6.6-14 6.6-21.1 0-2.7-0.3-5.4-1-8.1-0.5-2.2-1.2-4.3-2.1-6.3-0.5-1.4-1.7-3.6-3.5-6.6h2.8c2.8 3.6 4.8 7.3 6.1 11 1.2 3.2 1.7 6.5 1.7 10 0 4-0.7 7.8-2.2 11.5-1.6 3.6-3.4 6.9-5.6 9.6z"/>
   <path id="text2646" d="m465.4 688.5v-3.9h12.1v3.9h-12.1z"/>
  </g>
 </g>
 <g id="g2972" transform="matrix(1.425,0,0,1.425,-582,-220.1)">
  <path id="text1904_6" d="m1218 581.6-9-32.1h5l4 21.1c1 2.2 1 4.4 2 6.5 1-3.4 1-5.4 1-5.9l6-21.7h6l4 16.3c1 4 2 7.8 3 11.3 0-2 1-4.3 1-7l5-20.6h5l-9 32.1h-4l-7-24.5c-1-2-1-3.3-1-3.7 0 1.4-1 2.7-1 3.7l-7 24.5h-4zm51-2.8c-1 1.2-3 2.1-4 2.6s-3 0.8-4 0.8c-3 0-5-0.7-6-1.9-2-1.3-2-2.9-2-4.8v-3.1c1-1 2-1.7 2-2.3 1-0.6 2-1 3-1.3 1-0.2 2-0.4 4-0.6 3-0.4 5-0.8 7-1.4v-1c0-1.6 0-2.7-1-3.4-1-0.9-3-1.3-5-1.3s-3 0.3-4 1c-1 0.6-1 1.8-2 3.4l-4-0.5c1-1.7 1-3 2-4s2-1.8 4-2.4c1-0.5 3-0.8 5-0.8s3 0.3 5 0.7c1 0.5 2 1.1 2 1.8 1 0.7 1 1.6 2 2.7v15.8c0 1 1 1.9 1 2.8h-4c0-0.8-1-1.8-1-2.8zm0-8.9c-2 0.6-4 1.1-7 1.5-1 0.3-2 0.5-3 0.8s-1 0.7-2 1.3v1.9c0 1 0 1.9 1 2.6s2 1.1 4 1.1c1 0 2-0.4 4-1 1-0.7 2-1.6 2-2.8 1-0.9 1-2.2 1-3.9v-1.5zm8 4.8 4-0.6c1 1.5 1 2.7 2 3.6 1 0.8 3 1.2 4 1.2 2 0 3-0.4 4-1.1s2-1.6 2-2.6c0-0.9-1-1.6-1-2.1-1-0.4-2-0.8-5-1.3-2-0.8-4-1.4-6-1.9-1-0.6-1-1.3-2-2.2-1-1-1-2-1-3.2 0-1 0-2 1-2.9 0-0.8 1-1.6 2-2.2 0-0.4 1-0.8 2-1.1s2-0.5 4-0.5c1 0 3 0.3 4 0.8 2 0.5 3 1.2 3 2.1 1 0.9 2 2.1 2 3.7l-4 0.5c0-1.2-1-2.2-2-2.8 0-0.7-2-1-3-1-2 0-3 0.3-4 0.9s-1 1.3-1 2.1v1.3c1 0.5 1 0.8 2 1.1 0 0.1 1 0.5 3 1 3 0.8 5 1.4 6 1.8 1 0.5 2 1.2 3 2.1 0 0.9 1 2 1 3.4 0 1.3-1 2.5-1 3.7-1 1.2-2 2.1-4 2.7-1 0.6-3 1-5 1-3 0-5-0.7-7-1.9-1-1.3-2-3.2-3-5.6zm23 0 4-0.6c0 1.5 1 2.7 2 3.6 1 0.8 2 1.2 4 1.2s3-0.4 4-1.1 1-1.6 1-2.6c0-0.9 0-1.6-1-2.1-1-0.4-2-0.8-4-1.3-3-0.8-5-1.4-6-1.9-1-0.6-2-1.3-3-2.2v-6.1c1-0.8 1-1.6 2-2.2 1-0.4 2-0.8 3-1.1s2-0.5 3-0.5c2 0 4 0.3 5 0.8s2 1.2 3 2.1 1 2.1 1 3.7l-4 0.5c0-1.2 0-2.2-1-2.8-1-0.7-2-1-4-1-1 0-3 0.3-4 0.9 0 0.6-1 1.3-1 2.1 0 0.5 0 0.9 1 1.3 0 0.5 1 0.8 1 1.1 1 0.1 2 0.5 4 1 3 0.8 5 1.4 6 1.8 1 0.5 2 1.2 2 2.1 1 0.9 1 2 1 3.4 0 1.3 0 2.5-1 3.7s-2 2.1-3 2.7c-2 0.6-3 1-5 1-3 0-6-0.7-7-1.9-2-1.3-3-3.2-3-5.6zm40-0.6 4 0.5c-1 2.4-2 4.3-4 5.6-1 1.3-4 2-6 2-4 0-6-1.1-8-3.2s-3-5-3-8.8c0-3.9 1-7 3-9.1 2-2.2 4-3.3 7-3.3 4 0 6 1.1 8 3.2s3 5.1 3 8.9v1.1h-17c0 2.6 1 4.5 2 5.9 1 1.3 3 2 5 2 1 0 2-0.4 3-1.1 1-0.8 2-2 3-3.7zm-13-6.4h13c0-1.9-1-3.4-2-4.4-1-1.5-3-2.2-5-2.2-1 0-3 0.6-4 1.8s-2 2.8-2 4.8zm22 13.9v-23.3h3v3.6c1-1.7 2-2.8 3-3.3s1-0.8 2-0.8c2 0 3 0.4 4 1.3l-1 3.7c-1-0.6-2-0.9-3-0.9s-1 0.3-2 0.8-1 1.2-2 2.1v16.8h-4z"/>
  <path id="text2684" d="m1137 625.5 4-0.3c1 1.8 1 3 2 3.8 1 0.9 2 1.3 4 1.3 1 0 2-0.3 3-0.9 1-0.5 1-1.3 2-2.2s1-2.2 1-3.8c1-1.5 1-3.1 1-4.8v-0.8c-1 1.3-2 2.3-3 3.1-2 0.8-3 1.2-5 1.2s-5-1-6-2.9c-2-2-3-4.5-3-7.7s1-5.8 3-7.8 4-3 7-3c2 0 4 0.5 6 1.7 1 1.1 3 2.7 4 4.8s1 5.1 1 9c0 4.1 0 7.4-1 9.8-1 2.5-3 4.3-4 5.6-2 1.3-4 1.9-7 1.9-2 0-4-0.7-6-2.1-1-1.4-2-3.4-3-5.9zm17-14.2c0-2.2-1-4-2-5.4-1-1.3-3-2-5-2-1 0-3 0.8-4 2.2s-2 3.3-2 5.6c0 2 1 3.7 2 5 1 1.2 3 1.9 4 1.9 2 0 4-0.7 5-1.9 1-1.3 2-3.1 2-5.4zm28-2.6-4 0.3c0-1.6 0-2.7-1-3.4-1-1.1-2-1.7-4-1.7-1 0-2 0.4-3 1.1-2 0.9-3 2.2-3 3.9-1 1.8-1 4.3-1 7.5 1-1.5 2-2.5 3-3.2s3-1.1 4-1.1c3 0 5 1 7 2.9s3 4.4 3 7.5c0 2-1 3.9-1 5.6-1 1.8-2 3.1-4 4s-3 1.4-5 1.4c-3 0-6-1.2-8-3.6s-3-6.4-3-12c0-6.2 1-10.7 3-13.5 2-2.5 5-3.7 8-3.7s5 0.7 6 2.1c2 1.4 3 3.4 3 5.9zm-16 13.8c0 1.4 1 2.7 1 3.9 1 1.3 1 2.2 2 2.9 2 0.6 3 1 4 1s3-0.7 4-2.1c1-1.3 2-3.1 2-5.4s-1-4-2-5.3-3-1.9-4-1.9c-2 0-4 0.6-5 1.9s-2 3-2 5zm23 10.5v-4.5h4v8.5c-1 1-2 1.8-3 2.3l-1-1.7c1-0.3 1-0.9 2-1.6v-3h-2zm10-8.5 4-0.3c1 2 1 3.5 3 4.5 1 1 2 1.6 4 1.6s3-0.8 4-2.2c2-1.4 2-3.3 2-5.7 0-2.2 0-4-1-5.3-2-1.3-3-2-5-2s-3 0.3-4 0.9-2 1.3-2 2.2l-4-0.4 3-16.5h16v3.7h-13l-1 8.7c1-1.4 3-2.1 6-2.1 2 0 5 1 7 3 2 1.9 3 4.4 3 7.5 0 2.9-1 5.4-3 7.5-2 2.6-5 3.9-8 3.9s-6-0.8-8-2.5c-1-1.6-2-3.8-3-6.5zm38-16c0-2.3 1-4.2 2-5.8s3-2.4 5-2.4 4 0.7 5 2.1c2 1.5 2 3.6 2 6.4 0 2.7 0 4.8-2 6.3-1 1.4-3 2.2-5 2.2s-3-0.8-5-2.2c-1-1.5-2-3.6-2-6.6zm7-5.5c-1 0-1 0.4-2 1.3-1 0.8-1 2.4-1 4.6 0 2.1 0 3.5 1 4.4 1 0.8 1 1.2 2 1.2s2-0.4 3-1.2c0-0.9 1-2.4 1-4.7 0-2.1-1-3.5-1-4.4-1-0.8-2-1.2-3-1.2zm0 31.1 18-33.8h3l-17 33.8h-4zm14-8.7c0-2.3 1-4.3 2-5.9s3-2.4 5-2.4 4 0.8 5 2.2 2 3.6 2 6.4c0 2.7-1 4.8-2 6.2-1 1.5-3 2.2-5 2.2s-4-0.7-5-2.1c-1-1.5-2-3.7-2-6.6zm7-5.5c-1 0-2 0.4-2 1.2-1 0.9-1 2.4-1 4.7 0 2 0 3.5 1 4.3 0 0.9 1 1.3 2 1.3s2-0.4 3-1.3c0-0.8 1-2.4 1-4.6 0-2.1-1-3.5-1-4.4-1-0.8-2-1.2-3-1.2zm33 22.5c-2-2.7-4-6-6-9.6-1-3.7-2-7.5-2-11.5 0-3.5 0-6.8 2-10 1-3.7 3-7.4 6-11h3c-2 3-3 5.2-4 6.5-1 2-2 4.1-2 6.3-1 2.7-1 5.5-1 8.2 0 7.1 2 14.1 7 21.1h-3zm7-16.9 3-0.3c1 1.8 1 3 2 3.8 1 0.9 2 1.3 4 1.3 1 0 2-0.3 3-0.9 1-0.5 2-1.3 2-2.2 1-0.9 1-2.2 2-3.8v-5.6c-1 1.3-2 2.3-3 3.1s-3 1.2-4 1.2c-3 0-5-1-7-2.9-2-2-3-4.5-3-7.7s1-5.8 3-7.8 4-3 7-3c2 0 4 0.5 6 1.7 2 1.1 3 2.7 4 4.8s1 5.1 1 9c0 4.1 0 7.4-1 9.8-1 2.5-2 4.3-4 5.6s-4 1.9-6 1.9c-3 0-5-0.7-6-2.1-2-1.4-3-3.4-3-5.9zm16-14.2c0-2.2-1-4-2-5.4-1-1.3-3-2-4-2-2 0-4 0.8-5 2.2s-2 3.3-2 5.6c0 2 1 3.7 2 5 1 1.2 3 1.9 5 1.9 1 0 3-0.7 4-1.9 1-1.3 2-3.1 2-5.4zm29-2.6-4 0.3c-1-1.6-1-2.7-2-3.4-1-1.1-2-1.7-4-1.7-1 0-2 0.4-3 1.1-1 0.9-2 2.2-3 3.9-1 1.8-1 4.3-1 7.5 1-1.5 2-2.5 3-3.2 2-0.7 3-1.1 5-1.1s4 1 6 2.9 3 4.4 3 7.5c0 2 0 3.9-1 5.6-1 1.8-2 3.1-4 4-1 0.9-3 1.4-5 1.4-3 0-6-1.2-8-3.6s-3-6.4-3-12c0-6.2 1-10.7 3-13.5 2-2.5 5-3.7 8-3.7s5 0.7 7 2.1c1 1.4 2 3.4 3 5.9zm-17 13.8c0 1.4 1 2.7 1 3.9 1 1.3 2 2.2 3 2.9 1 0.6 2 1 3 1 2 0 3-0.7 4-2.1 1-1.3 2-3.1 2-5.4s-1-4-2-5.3-2-1.9-4-1.9-3 0.6-5 1.9c-1 1.3-2 3-2 5zm21 2 4-0.3c1 2 1 3.5 2 4.5s3 1.6 4 1.6c2 0 4-0.8 5-2.2 2-1.4 2-3.3 2-5.7 0-2.2 0-4-2-5.3-1-1.3-3-2-5-2-1 0-2 0.3-3 0.9s-2 1.3-3 2.2l-3-0.4 3-16.5h16v3.7h-13l-2 8.7c2-1.4 4-2.1 6-2.1 3 0 6 1 7 3 2 1.9 3 4.4 3 7.5 0 2.9 0 5.4-2 7.5-2 2.6-5 3.9-9 3.9-3 0-5-0.8-7-2.5-2-1.6-3-3.8-3-6.5zm38 10.4 4 0.5c0 1.2 0 2.1 1 2.6 1 0.8 2 1.1 4 1.1s3-0.3 4-1.1c1-0.7 2-1.7 2-3 1-0.8 1-2.5 1-5.1-2 2-4 3.1-7 3.1s-6-1.2-7-3.5c-2-2.3-3-5.1-3-8.3 0-2.2 0-4.3 1-6.2 1-1.8 2-3.3 4-4.3 1-1 3-1.6 5-1.6 3 0 5 1.2 7 3.4v-2.8h4v20.1c0 3.6-1 6.2-2 7.7 0 1.5-1 2.7-3 3.6s-4 1.3-6 1.3c-3 0-5-0.6-7-1.9-1-1.2-2-3.1-2-5.6zm3-14c0 3 1 5.3 2 6.7s3 2.1 5 2.1c1 0 3-0.7 4-2.1s2-3.6 2-6.6c0-2.8-1-5-2-6.4-1-1.5-3-2.2-5-2.2-1 0-3 0.7-4 2.1-1 1.5-2 3.6-2 6.4zm25 21.5h-3c5-7 7-14 7-21.1 0-2.7 0-5.4-1-8.1-1-2.2-1-4.3-2-6.4-1-1.3-2-3.5-4-6.5h3c3 3.6 5 7.3 6 11 1 3.2 2 6.5 2 10 0 4-1 7.8-2 11.5-2 3.6-4 6.9-6 9.6z"/>
 </g>
 <line id="_164091952" stroke-width="2.5525" y2="1015" class="fil9 str0" y1="922.7" stroke="#000" x2="975.3" x1="975.3" fill="none"/>
 <g id="g3005" transform="matrix(1.5,0,0,1.5,-560.2,-456.9)">
  <path id="text1904_7" d="m905.6 1007v-23.4h4.7l5.6 17.4c0.5 1 0.9 2 1.2 3 0.2-1 0.6-2 1.2-4.4l5.7-16h4.2v23.4h-3v-19.4l-6.9 19.4h-2.8l-6.9-20.4v20.4h-3zm39.1-5h3c-0.5 2-1.4 3-2.7 4s-2.9 2-4.9 2c-2.5 0-4.5-1-5.9-3-1.5-1-2.3-3-2.3-6.4 0-3 0.8-5 2.3-7 1.5-1 3.4-2 5.8-2 2.3 0 4.1 1 5.6 2 1.4 2 2.2 4 2.2 7l-0.1 1h-12.7c0.1 1.4 0.6 3.4 1.6 4.4 0.9 1 2.1 1 3.5 1h2.8c0.7-1 1.3-2 1.8-3zm-9.6-5.4h9.6c-0.1-1-0.5-2-1.1-3-0.9-1-2.1-2-3.6-2-1.3 0-2.5 1-3.4 2s-1.4 2-1.5 3zm27.5 5.4h3c0 2-1 3-2 4s-3 2-5 2c-3 0-4.6-1-6-3-1.5-1-2.2-3-2.2-6.4 0-3 0.7-5 2.2-7 1.5-1 3-2 6-2 2 0 4 1 5 2 2 2 3 4 3 7v1h-13.2c0.1 1.4 0.6 3.4 1.6 4.4 0.6 1 2.6 1 3.6 1h3c0-1 1-2 1-3zm-9.1-5.4h10.1c-1-1-1-2-2-3s-2-2-3-2c-2 0-3 1-3.6 2-0.9 1-1.4 2-1.5 3zm16.1 10.4v-17.4h3v3c0-1 1-2 2-3h1c1 0 2 0 3 1l-1 3c0-1-1-1-2-1h-1c-1 1-1 1-1 2-1 1-1 2-1 3v9.4h-3zm23-5h3c-1 2-1 3-3 4-1 1-3 2-5 2s-4-1-6-3c-1-1-2-3-2-6.4 0-3 1-5 2-7 2-1 4-2 6-2 3 0 4 1 6 2 1 2 2 4 2 7v1h-13c0 1.4 1 3.4 2 4.4s2 1 3 1h3c1-1 1-2 2-3zm-10-5.4h10c0-1-1-2-1-3-1-1-2-2-4-2-1 0-2 1-3 2s-2 2-2 3zm15 5.4h3.4c0 1 1 2 2 3h6c0-1 1-2 1-2 0-1-1-1-1-2-1 0-2 0-3-1.4-2 0-4-1-5-1 0-1-1.4-1-1.4-2-1-1-1-1-1-2v-2c1-1 1-1 2.4-2 0 0 1-1 2-1h6c1 1 2 1 2 2 1 1 1 2 1 3h-3c0-1 0-1-1-2-1 0-1-1-3-1-1 0-2 0-2 1-1 0-1 1-1 1v2h1s1 1 3 1c2 1 3 1 4 1 1 1 2 1 2 2 0 1.4 1 1.4 1 2.4s-1 2-1 3c-1 1-2 2-3 2-1 1-2 1-3 1-2 0-4-1-5-2-1.4-1-2.4-2-3.4-4zm17.4 0h3c0 1 0 2 1 3h6c1-1 1-2 1-2 0-1 0-1-1-2 0 0-1 0-3-1.4-2 0-3-1-4-1l-2-2c0-1-1-1-1-2s1-2 1-2c0-1 1-1 1-2 1 0 1-1 2-1h6c1 1 2 1 3 2 0 1 0 2 1 3h-3c0-1-1-1-1-2-1 0-2-1-3-1s-2 0-3 1l-1 1c0 1 0 1 1 2h1s1 1 2 1c2 1 4 1 5 1 0 1 1 1 2 2v2.4c0 1 0 2-1 3 0 1-1 2-2 2-1 1-2 1-4 1s-4-1-5-2-2-2-2-4zm29 3c-1 1-2 2-3 2-1 1-2 1-3 1-2 0-4-1-5-2-1 0-1-2-1-3v-2c1-1.4 1-2.4 2-2.4 0 0 1-1 2-1h2c3-1 5-1 6-1v-1c0-1-1-2-1-3-1 0-2-1-3-1-2 0-3 1-4 1 0 0-1 1-1 3l-3-1c0-1 1-2 1-3 1-1 2-1 3-2h8c0 1 1 1 2 2v2c1 0 1 1 1 2v11.4h-3v-2zm0-6.4c-1 0-3 1-5 1h-3c0 1.4-1 1.4-1 1.4v2c0 1 0 1 1 2 0 0 1 1 2 1s2-1 3-1c1-1 2-1 2-2s1-2 1-3.4v-1zm7 8.4v-23.4h3v23.4h-3zm6 0v-2l11-12.4h-10v-3h14v2l-10 11.4-1 2h11v2h-15zm30-5h3c-1 2-2 3-3 4s-3 2-5 2-4-1-6-3c-1-1-2-3-2-6.4 0-3 1-5 2-7 2-1 4-2 6-2s4 1 6 2c1 2 2 4 2 7v1h-13c0 1.4 1 3.4 2 4.4s2 1 3 1h3c1-1 1-2 2-3zm-10-5.4h10c0-1-1-2-1-3-1-1-2-2-4-2-1 0-2 1-3 2s-2 2-2 3z"/>
  <path id="text2688" d="m908.9 1035h2.9c0.3 2 0.9 3 1.7 4 0.8 0 1.8 1 2.9 1 1.4 0 2.5-1 3.5-2 0.9-1 1.4-2 1.4-3 0-2-0.4-3-1.3-4-0.9 0-2-1-3.3-1h-2.1l0.3-2h0.5c1.2 0 2.3 0 3.3-1s1.5-2 1.5-3-0.3-2-1.1-3c-0.7 0-1.6-1-2.8-1-1.1 0-2 1-2.8 1-0.7 1-1.2 2-1.4 4l-2.9-1c0.3-2 1.1-3 2.4-5 1.2-1 2.8-1 4.7-1 1.3 0 2.5 0 3.5 1 1.1 0 2 1 2.5 2 0.6 1 0.9 2 0.9 3s-0.3 2-0.8 3c-0.6 1-1.4 1-2.5 2 1.4 0 2.5 1 3.3 2s1.2 2 1.2 4-0.8 3-2.3 5c-1.5 1-3.4 2-5.7 2-2.1 0-3.8-1-5.2-2s-2.1-3-2.3-5zm19.9 7v-4h3.3v4c0 1-0.2 2-0.6 3-0.4 0-1.1 1-2.1 1l-0.8-1c0.7 0 1.1-1 1.4-1 0.3-1 0.4-1 0.5-2h-1.7zm7.6-7h3.1c0.2 2 0.7 3 1.6 4 0.8 0 1.8 1 2.9 1 1.4 0 2.6-1 3.6-2s1.5-2 1.5-4-0.5-3-1.4-4c-1-1-2.2-1-3.7-1h-2.5c-0.8 1-1.4 1-1.8 2l-2.7-1 2.2-12h11.8v3h-9.4l-1.3 6c1.4-1 2.9-1 4.5-1 2 0 3.8 1 5.2 2 1.4 2 2.1 3 2.1 6 0 2-0.6 4-1.8 5-1.6 2-3.6 3-6.3 3-2.1 0-3.9-1-5.2-2-1.4-1-2.2-3-2.4-5zm28.2-11c0-2 0-3 1-5 1-1 2-1 4-1 1 0 3 0 4 1s1 3 1 5 0 3-1 4c-1 2-3 2-4 2s-3 0-4-2c-1-1-1-2-1-4zm5-4h-2v7c1 1 1 1 2 1s1 0 2-1c0 0 1-2 1-3 0-2-1-3-1-4h-2zm0 23 13-25h2l-13 25h-2zm10-7c0-2 1-3 2-4 0-1 2-2 3-2 2 0 3 1 4 2s1 2 1 4 0 4-1 5-2 2-4 2c-1 0-2-1-3-2s-2-3-2-5zm5-4s-1 0-1 1c-1 1-1 2-1 3 0 2 0 3 1 4l1 1c1 0 2-1 2-1 1-1 1-2 1-4 0-1 0-2-1-3 0-1-1-1-2-1zm24.4 17c-1-2-3-5-4-8-1-2-1-5-1-8 0-2 0-5 1-7 1-3 2-6 4-8h2c-1 2-2 3-2 4-1 2-1 3-2 5v6c0 5 1 10 4 16h-2zm5-14h3c0 2 1 3 2 4 0 0 1 1 3 1 1 0 2-1 3-2s1-2 1-3c0-2 0-3-1-4-1 0-2-1-3-1h-2v-2h1c1 0 2 0 3-1s1-2 1-3 0-2-1-3c0 0-1-1-2-1-2 0-3 1-3 1-1 1-2 2-2 4l-3-1c1-2 2-3 3-5 1-1 3-1 4-1 2 0 3 0 4 1 1 0 2 1 3 2v6c-1 1-2 1-3 2 2 0 3 1 3 2 1 1 2 2 2 4s-1 3-3 5c-1 1-3 2-5 2s-4-1-6-2c-1-1-2-3-2-5zm18 0h4c0 2 0 3 1 4 1 0 2 1 3 1s3-1 4-2 1-2 1-4 0-3-1-4-2-1-4-1h-3c0 1-1 1-1 2l-3-1 2-12h12v3h-9l-2 6c2-1 3-1 5-1s4 1 5 2c1 2 2 3 2 6 0 2 0 4-2 5-1 2-3 3-6 3-2 0-4-1-5-2-2-1-2-3-3-5zm28 8h3c0 1 1 2 1 2 1 1 2 1 3 1s2 0 3-1c1 0 1-1 2-2v-4c-1 2-3 3-5 3s-4-1-5-3c-2-2-2-4-2-6s0-3 1-5c0-1 1-2 2-3s3-1 4-1c2 0 4 1 5 3v-3h3v15c0 3 0 5-1 6 0 1-1 2-3 3-1 0-2 1-4 1s-4-1-5-2-2-2-2-4zm3-10c0 2 0 4 1 5s2 1 3 1c2 0 3 0 4-1s1-3 1-5 0-4-1-5-2-1-4-1c-1 0-2 0-3 1s-1 3-1 5zm18 16h-2c3-6 5-11 5-16 0-2 0-4-1-6 0-2-1-3-1-5-1-1-2-2-3-4h2c2 2 4 5 5 8 0 2 1 5 1 7 0 3-1 6-2 8-1 3-2 6-4 8z"/>
 </g>
 <line id="_163629728" stroke-width="2.4616" y2="1009" class="fil9 str0" y1="922.6" stroke="#000" x2="718.3" x1="718.3" fill="none"/>
 <g id="g2998" transform="matrix(1.5,0,0,1.5,-503.4,-457.9)">
  <path id="text1904_8" d="m634.6 999.6h3c0.1 1.4 0.4 2.4 1 2.4 0.5 1 1.3 2 2.3 2 1.1 1 2.3 1 3.7 1 1.2 0 2.2 0 3.1-1 1 0 1.6 0 2.1-1 0.4-1 0.7-1 0.7-2 0-1.4-0.3-1.4-0.7-2.4s-1.1-1-2.1-1c-0.7-1-2.1-1-4.2-2-2.2 0-3.7-1-4.6-1-1.1-1-2-1-2.5-2-0.6-1-0.9-2-0.9-3s0.4-2 1-3c0.7-2 1.7-2 3-3 1.3 0 2.8-1 4.4-1 1.7 0 3.3 1 4.6 1 1.4 1 2.4 2 3.1 3s1.1 2 1.2 3l-3 1c-0.2-2-0.7-3-1.7-4-0.9-1-2.3-1-4.1-1-1.9 0-3.3 0-4.1 1-0.9 1-1.3 2-1.3 3s0.3 1 0.9 2c0.6 0 2.2 1 4.7 1 2.5 1 4.3 2 5.2 2 1.4 1 2.4 1 3.1 2 0.6 1 1 2 1 4.4 0 1-0.4 2-1.1 3s-1.8 2-3.1 3c-1.4 1-2.9 1-4.6 1-2.1 0-3.9 0-5.4-1-1.4-1-2.5-2-3.4-3-0.8-1-1.2-3-1.3-4.4zm34.1 7.4v-2c-1.4 2-3.2 3-5.5 3-1 0-1.9 0-2.8-1-0.9 0-1.5-1-2-1-0.4-1-0.7-2-0.9-2-0.1-1-0.1-2-0.1-3v-11.4h2.9v10c0 1.4 0 2.4 0.1 3.4 0.2 1 0.6 1 1.2 2h4.7c0.7-1 1.3-1 1.6-2s0.5-2 0.5-4.4v-9h2.9v17.4h-2.6zm7.1 0v-23.4h2.9v23.4h-2.9zm8.1 0v-14.4h-2.6v-3h2.6v-2c0-1 0.1-2 0.3-2 0.3-1 0.8-1 1.5-2 0.7 0 1.7-1 2.9-1 0.9 0 1.8 0 2.8 1l-0.5 2h-1.7c-0.9 0-1.5 0-1.9 1-0.3 0-0.5 1-0.5 2v1h3.3v3h-3.3v14.4h-2.9zm19.7-2c-1.1 1-2.1 2-3.1 2-1 1-2.1 1-3.3 1-1.8 0-3.3-1-4.3-2-1 0-1.5-2-1.5-3s0.2-2 0.6-2c0.3-1.4 0.8-2.4 1.5-2.4 0.6 0 1.3-1 2.1-1h2.5c2.4-1 4.1-1 5.2-1v-1c0-1-0.2-2-0.8-3-0.7 0-1.8-1-3.3-1-1.4 0-2.4 1-3 1-0.7 0-1.2 1-1.5 3l-2.8-1c0.2-1 0.7-2 1.3-3s1.4-1 2.5-2h7.5c0.9 1 1.6 1 2 2 0.4 0 0.7 1 0.9 2 0.1 0 0.2 1 0.2 2v4c0 3.4 0 5.4 0.1 5.4 0.2 1 0.4 2 0.8 2h-3.1c-0.3 0-0.4-1-0.5-2zm-0.3-6.4c-1 0-2.6 1-4.7 1h-2.6c-0.5 1.4-0.8 1.4-1.1 1.4-0.3 1-0.4 1-0.4 2s0.3 1 0.9 2c0.6 0 1.4 1 2.5 1 1.2 0 2.2-1 3-1 0.9-1 1.5-1 2-2 0.3-1 0.4-2 0.4-3.4v-1zm13.8 6.4 0.5 2c-0.9 1-1.6 1-2.2 1-1.1 0-1.9-1-2.5-1s-1-1-1.2-1c-0.3-1-0.4-2-0.4-4v-9.4h-2.1v-3h2.1v-4l2.9-2v6h2.9v3h-2.9v10.4s0.1 1 0.2 1 0.2 1 0.5 1h2.2zm17.6 9c-1.6-2-3-4-4.1-7-1.1-2-1.6-5-1.6-8.4 0-3 0.4-5 1.2-8 1-2 2.5-5 4.5-8h2.1c-1.3 3-2.2 4-2.6 5-0.7 2-1.2 3-1.6 5s-0.7 4-0.7 6c0 5.4 1.7 10.4 4.9 15.4h-2.1zm4.8-14.4h2.9c0.2 1.4 0.5 2.4 1 2.4 0.5 1 1.3 2 2.4 2 1.1 1 2.3 1 3.6 1 1.2 0 2.3 0 3.2-1 0.9 0 1.6 0 2-1 0.5-1 0.7-1 0.7-2 0-1.4-0.2-1.4-0.6-2.4-0.5-1-1.2-1-2.2-1-0.6-1-2-1-4.2-2-2.2 0-3.7-1-4.5-1-1.2-1-2-1-2.6-2-0.5-1-0.8-2-0.8-3s0.3-2 1-3c0.7-2 1.7-2 3-3 1.3 0 2.7-1 4.3-1 1.8 0 3.3 1 4.7 1 1.3 1 2.3 2 3.1 3 0.7 1 1.1 2 1.1 3l-3 1c-0.1-2-0.7-3-1.6-4s-2.3-1-4.1-1c-1.9 0-3.3 0-4.2 1s-1.3 2-1.3 3 0.3 1 0.9 2c0.6 0 2.2 1 4.8 1 2.5 1 4.3 2 5.2 2 1.4 1 2.4 1 3.1 2 0.6 1 0.9 2 0.9 4.4 0 1-0.3 2-1 3-0.8 1-1.8 2-3.2 3-1.3 1-2.8 1-4.5 1-2.2 0-4 0-5.4-1-1.5-1-2.6-2-3.4-3s-1.3-3-1.3-4.4zm22.2-4c0-4 1.1-7 3.2-9 2.1-3 4.8-4 8.1-4 2.2 0 4.2 1 5.9 2 1.8 1 3.1 2 4.1 4 0.9 2 1.3 4 1.3 7 0 2-0.4 4-1.4 6.4-1 2-2.4 3-4.1 4-1.8 1-3.7 2-5.8 2-2.2 0-4.2-1-6-2-1.7-1-3-2-3.9-4-1-2.4-1.4-4.4-1.4-6.4zm3.2 0c0 3 0.8 5.4 2.3 7.4 1.6 1 3.5 2 5.8 2 2.4 0 4.3-1 5.8-2 1.6-2 2.3-4.4 2.3-7.4 0-2-0.3-4-1-5-0.6-2-1.6-3-2.8-4-1.3-1-2.7-1-4.2-1-2.3 0-4.2 1-5.8 2-1.6 2-2.4 4-2.4 8z"/>
  <path id="text2692" d="m816.9 1014h-2.1c3.3-5 4.9-10 4.9-15.4 0-2-0.3-4-0.7-6s-0.9-3-1.6-5c-0.4-1-1.2-2-2.6-5h2.1c2 3 3.5 6 4.5 8 0.8 3 1.3 5 1.3 8 0 3.4-0.6 6.4-1.7 8.4-1.1 3-2.5 5-4.1 7z"/>
  <path id="text2694" d="m643.3 1024v-3h15.3v2c-1.5 2-3 4-4.5 7-1.4 2-2.6 5-3.4 8-0.6 2-1 4-1.1 7h-3c0-2 0.4-5 1.1-7 0.7-3 1.7-5 3-8 1.3-2 2.7-4 4.2-6h-11.6zm19.8 21v-4h3.3v4c0 1-0.2 2-0.7 2-0.4 1-1.1 2-2 2l-0.8-1c0.6 0 1-1 1.3-1 0.3-1 0.5-1 0.5-2h-1.6zm7.8-21v-3h15.3v2c-1.5 2-3 4-4.5 7-1.5 2-2.6 5-3.4 8-0.6 2-1 4-1.1 7h-3c0-2 0.4-5 1.1-7 0.7-3 1.7-5 3-8 1.3-2 2.7-4 4.2-6h-11.6zm27.9 3c0-2 0.4-4 1.3-5 0.8-1 2.1-2 3.7-2 1.5 0 2.7 1 3.7 2s1.4 3 1.4 5-0.4 3-1.4 4-2.2 2-3.7 2c-1.4 0-2.6-1-3.5-2-1-1-1.5-2-1.5-4zm5.1-5c-0.7 0-1.3 1-1.8 1-0.5 1-0.7 2-0.7 4 0 1 0.2 2 0.7 3s1.1 1 1.8 1 1.3 0 1.8-1 0.7-2 0.7-3c0-2-0.2-3-0.7-4-0.5 0-1.1-1-1.8-1zm0 23 12.9-25h2.4l-12.9 25h-2.4zm10.2-6c0-2 0.5-3 1.3-4 0.9-2 2.1-2 3.7-2 1.5 0 2.7 0 3.7 1 1 2 1.5 3 1.5 5s-0.5 4-1.5 5-2.2 1-3.7 1c-1.4 0-2.6 0-3.5-1-1-1-1.5-3-1.5-5zm5.1-4c-0.7 0-1.3 0-1.8 1-0.5 0-0.7 2-0.7 3 0 2 0.2 3 0.7 3 0.5 1 1.1 1 1.8 1s1.3 0 1.8-1c0.5 0 0.7-1 0.7-3s-0.2-3-0.7-3c-0.5-1-1.1-1-1.8-1zm24 16c-1.6-2-3-4-4.1-7-1.1-2-1.6-5-1.6-8s0.4-5 1.2-7c1-3 2.5-6 4.5-9h2.1c-1.3 3-2.2 4-2.6 5-0.7 2-1.2 3-1.5 5-0.5 2-0.7 4-0.7 6 0 5 1.6 10 4.8 15h-2.1zm20-9v3h-15.7c0-1 0.1-2 0.4-2 0.4-2 1-3 1.9-4s2.1-2 3.8-3c2.6-2 4.3-4 5.2-5s1.4-3 1.4-4-0.5-2-1.3-3c-0.8 0-1.9-1-3.2-1-1.4 0-2.5 1-3.4 1-0.8 1-1.2 2-1.2 4h-3c0.2-3 0.9-4 2.3-6 1.3-1 3.1-1 5.4-1 2.2 0 4 0 5.4 2 1.3 1 1.9 2 1.9 4 0 1-0.2 2-0.5 3-0.4 1-1.1 2-2 3s-2.4 2-4.5 4c-1.7 2-2.8 3-3.3 3-0.5 1-0.9 1-1.2 2h11.6zm4.7 3v-4h3.3v4c0 1-0.2 2-0.7 2-0.4 1-1.1 2-2 2l-0.8-1c0.6 0 1-1 1.3-1 0.3-1 0.5-1 0.5-2h-1.6zm7.8-21v-3h15.3v2c-1.5 2-3 4-4.5 7-1.5 2-2.6 5-3.4 8-0.6 2-1 4-1.1 7h-3c0-2 0.4-5 1.1-7 0.7-3 1.7-5 3-8 1.3-2 2.7-4 4.2-6h-11.6zm27.6 22h2.9c0.1 1 0.4 2 1 2 0.7 1 1.7 1 2.9 1 1.4 0 2.4 0 3.1-1 0.8 0 1.3-1 1.5-2s0.2-2 0.2-4c-1.2 2-2.8 3-4.7 3-2.4 0-4.2-1-5.5-3s-1.9-4-1.9-6 0.3-3 0.8-5c0.6-1 1.5-2 2.6-3 1.2-1 2.5-1 4-1 2 0 3.7 1 5 2v-2h2.7v15c0 3-0.3 5-0.8 6-0.6 1-1.4 2-2.6 3h-4.4c-2 0-3.7 0-4.9-1-1.3-1-1.9-2-1.9-4zm2.4-10c0 2 0.5 4 1.4 5s2 1 3.3 1c1.4 0 2.5 0 3.4-1s1.4-3 1.4-5-0.5-4-1.4-5c-1-1-2.1-2-3.4-2s-2.4 1-3.3 2-1.4 3-1.4 5zm18.5 15h-2.1c3.2-5 4.8-10 4.8-15 0-2-0.2-4-0.7-6-0.3-2-0.8-3-1.5-5-0.4-1-1.3-2-2.6-5h2.1c2 3 3.5 6 4.5 9 0.8 2 1.2 4 1.2 7s-0.5 6-1.6 8c-1.2 3-2.5 5-4.1 7z"/>
  <path id="text2696" d="m793 1019v-5h-8.8v-2l9.3-13.4h2v13.4h2.8v2h-2.8v5h-2.5zm0-7v-9l-6.3 9h6.3z"/>
  <path id="text2698" d="m799.3 987.6v2h-13.4s0.1-1 0.3-1c0.3-1 0.9-2 1.6-3 0.8-1 1.9-2 3.3-3 2.2-2 3.7-3 4.5-4 0.7-1 1.1-2 1.1-3s-0.3-2-1-3-1.7-1-2.8-1c-1.2 0-2.2 0-2.9 1s-1.1 2-1.1 3h-2.5c0.1-2 0.8-3 1.9-4 1.2-1 2.7-2 4.7-2 1.9 0 3.4 1 4.6 2 1.1 1 1.7 2 1.7 4 0 1-0.2 1-0.5 2s-0.9 2-1.7 3c-0.7 0-2 2-3.8 3-1.5 1-2.5 2-2.9 3-0.4 0-0.8 1-1 1h9.9zm2.4-4v-2h7.7v2h-7.7z"/>
 </g>
 <line id="_162938856" stroke-width="4.8" y2="545.5" class="fil9 str2" y1="545.5" stroke="#1f1a17" x2="766.3" x1="78.98" fill="none"/>
 <rect id="_164090176" height="686.8" width="4.807" stroke="#000" stroke-linecap="round" y="284.3" x="760.5" stroke-width="2.4249" fill="#c7c7c7"/>
 <path id="_164088664" stroke-linejoin="round" d="m763.6 402.2v-198.8h388.4" stroke="#000" stroke-linecap="round" stroke-width="2.5523" fill="none"/>
 <metadata>
  <rdf:RDF>
   <cc:Work>
    <dc:format>image/svg+xml</dc:format>
    <dc:type rdf:resource="http://purl.org/dc/dcmitype/StillImage"/>
    <cc:license rdf:resource="http://creativecommons.org/licenses/publicdomain/"/>
    <dc:publisher>
     <cc:Agent rdf:about="http://openclipart.org/">
      <dc:title>Openclipart</dc:title>
     </cc:Agent>
    </dc:publisher>
   </cc:Work>
   <cc:License rdf:about="http://creativecommons.org/licenses/publicdomain/">
    <cc:permits rdf:resource="http://creativecommons.org/ns#Reproduction"/>
    <cc:permits rdf:resource="http://creativecommons.org/ns#Distribution"/>
    <cc:permits rdf:resource="http://creativecommons.org/ns#DerivativeWorks"/>
   </cc:License>
  </rdf:RDF>
 </metadata>
</svg>
