<?xml version="1.0"?>
<svg xmlns:rdf="http://www.w3.org/1999/02/22-rdf-syntax-ns#" xmlns="http://www.w3.org/2000/svg" xmlns:cc="http://creativecommons.org/ns#" xmlns:dc="http://purl.org/dc/elements/1.1/" id="svg2" height="335.49" width="367.01" version="1.1" viewBox="0 0 293.61001 268.39099">
 <g id="g4" stroke-linejoin="round" transform="translate(139.79,127.74)" stroke="#000" stroke-linecap="round" stroke-width=".59904" fill="none">
  <path id="path6" d="m0 0h14.4"/>
 </g>
 <g id="g8" fill-rule="evenodd" transform="translate(150.55,99)">
  <path id="path10" d="m3.511 0c-2.091 0-3.511 1.54-3.511 3.82s1.42 3.821 3.52 3.821c0.88 0 1.67-0.27 2.261-0.77 0.79-0.67 1.26-1.8 1.26-2.99 0-2.351-1.39-3.881-3.53-3.881zm0 0.82c1.58 0 2.6 1.2 2.6 3.04 0 1.761-1.051 2.961-2.591 2.961-1.549 0-2.589-1.2-2.589-3.001 0-1.8 1.04-3 2.58-3z"/>
 </g>
 <g id="g12" stroke-linejoin="round" transform="translate(132.47,115.26)" stroke="#000" stroke-linecap="round" stroke-width=".59904" fill="none">
  <path id="path14" d="m7.32 12.48-7.32-12.48"/>
 </g>
 <g id="g16" stroke-linejoin="round" transform="translate(154.19,115.26)" stroke="#000" stroke-linecap="round" stroke-width=".59904" fill="none">
  <path id="path18" d="m0 12.48 6.96-12.48"/>
 </g>
 <g id="g20" stroke-linejoin="round" transform="translate(157.19,108.3)" stroke="#000" stroke-linecap="round" stroke-width=".59904" fill="none">
  <path id="path22" d="m3.96 6.96s-3.96-6.96-3.96-6.96"/>
 </g>
 <g id="g24" stroke-linejoin="round" transform="translate(139.79,103.02)" stroke="#000" stroke-linecap="round" stroke-width=".59904" fill="none">
  <path id="path26" d="m8.88 0h-8.88"/>
 </g>
 <g id="g28" stroke-linejoin="round" transform="translate(132.47,103.02)" stroke="#000" stroke-linecap="round" stroke-width=".59904" fill="none">
  <path id="path30" d="m7.32 0-7.32 12.24"/>
 </g>
 <g id="g32" fill-rule="evenodd" transform="translate(171.8,111.25)">
  <path id="path34" d="m3.511 0c-2.091 0-3.511 1.54-3.511 3.82s1.42 3.821 3.52 3.821c0.88 0 1.67-0.27 2.261-0.77 0.79-0.67 1.26-1.8 1.26-2.99 0-2.351-1.39-3.881-3.53-3.881zm0 0.82c1.58 0 2.6 1.2 2.6 3.04 0 1.761-1.051 2.961-2.591 2.961-1.549 0-2.589-1.2-2.589-3.001 0-1.8 1.04-3 2.58-3z"/>
 </g>
 <g id="g36" stroke-linejoin="round" transform="translate(161.15,115.26)" stroke="#000" stroke-linecap="round" stroke-width=".59904" fill="none">
  <path id="path38" d="m0 0h8.88"/>
 </g>
 <g id="g40" fill-rule="evenodd" transform="translate(129.05,136)">
  <path id="path42" d="m3.511 0c-2.091 0-3.511 1.54-3.511 3.82s1.42 3.821 3.52 3.821c0.88 0 1.67-0.27 2.261-0.77 0.79-0.67 1.26-1.8 1.26-2.99 0-2.351-1.39-3.881-3.53-3.881zm0 0.82c1.58 0 2.6 1.2 2.6 3.04 0 1.761-1.051 2.961-2.591 2.961-1.549 0-2.589-1.2-2.589-3.001 0-1.8 1.04-3 2.58-3z"/>
 </g>
 <g id="g44" fill-rule="evenodd" transform="translate(134.39,127.5)">
  <path id="path46" d="m5.759 0.36-0.6-0.36s-5.159 6.72-5.159 6.72l1.079 0.72 1.2 0.6 3.48-7.68z"/>
 </g>
 <g id="g48" stroke-linejoin="round" transform="translate(134.39,127.5)" stroke="#000" stroke-linecap="round" stroke-width=".1" fill="none">
  <path id="path50" d="m5.759 0.36-0.6-0.36s-5.159 6.72-5.159 6.72l1.079 0.72 1.2 0.6 3.48-7.68z"/>
 </g>
 <g id="g52" fill-rule="evenodd" transform="translate(131.87,89.34)">
  <path id="path54" d="m7.68 13.799 0.6-0.359-6.719-13.44-0.841 1.2-0.72 1.32 7.68 11.279z"/>
 </g>
 <g id="g56" stroke-linejoin="round" transform="translate(131.87,89.34)" stroke="#000" stroke-linecap="round" stroke-width=".1" fill="none">
  <path id="path58" d="m7.68 13.799 0.6-0.359-6.719-13.44-0.841 1.2-0.72 1.32 7.68 11.279z"/>
 </g>
 <g id="g60" fill-rule="evenodd" transform="translate(114.55,111.5)">
  <path id="path62" d="m3.511 0c-2.091 0-3.511 1.54-3.511 3.82s1.42 3.821 3.52 3.821c0.88 0 1.67-0.27 2.261-0.77 0.79-0.67 1.26-1.8 1.26-2.99 0-2.351-1.39-3.881-3.53-3.881zm0 0.82c1.58 0 2.6 1.2 2.6 3.04 0 1.761-1.051 2.961-2.591 2.961-1.549 0-2.589-1.2-2.589-3.001 0-1.8 1.04-3 2.58-3z"/>
 </g>
 <g id="g64" stroke-linejoin="round" transform="translate(131.27,114.9)" stroke="#000" stroke-linecap="round" stroke-width=".59904" fill="none">
  <path id="path66" d="m0 0.84v-0.84"/>
 </g>
 <g id="g68" stroke-linejoin="round" transform="translate(128.87,114.54)" stroke="#000" stroke-linecap="round" stroke-width=".59904" fill="none">
  <path id="path70" d="m0 1.44v-1.44"/>
 </g>
 <g id="g72" stroke-linejoin="round" transform="translate(126.47,114.3)" stroke="#000" stroke-linecap="round" stroke-width=".59904" fill="none">
  <path id="path74" d="m0 1.92v-1.92"/>
 </g>
 <g id="g76" stroke-linejoin="round" transform="translate(124.07,114.06)" stroke="#000" stroke-linecap="round" stroke-width=".59904" fill="none">
  <path id="path78" d="m0 2.4v-2.4"/>
 </g>
 <g id="g80" fill-rule="evenodd" transform="translate(157.55,136)">
  <path id="path82" d="m3.511 0c-2.091 0-3.511 1.54-3.511 3.82s1.42 3.821 3.52 3.821c0.88 0 1.67-0.27 2.261-0.77 0.79-0.67 1.26-1.8 1.26-2.99 0-2.351-1.39-3.881-3.53-3.881zm0 0.82c1.58 0 2.6 1.2 2.6 3.04 0 1.761-1.051 2.961-2.591 2.961-1.549 0-2.589-1.2-2.589-3.001 0-1.8 1.04-3 2.58-3z"/>
 </g>
 <g id="g84" stroke-linejoin="round" transform="translate(154.31,128.46)" stroke="#000" stroke-linecap="round" stroke-width=".59904" fill="none">
  <path id="path86" d="m0.839 0-0.839 0.48"/>
 </g>
 <g id="g88" stroke-linejoin="round" transform="translate(155.27,130.5)" stroke="#000" stroke-linecap="round" stroke-width=".59904" fill="none">
  <path id="path90" d="m1.319 0s-1.319 0.84-1.319 0.84"/>
 </g>
 <g id="g92" stroke-linejoin="round" transform="translate(156.23,132.54)" stroke="#000" stroke-linecap="round" stroke-width=".59904" fill="none">
  <path id="path94" d="m1.919 0-1.919 1.08"/>
 </g>
 <g id="g96" fill-rule="evenodd" transform="translate(136.3,74.25)">
  <path id="path98" d="m3.511 0c-2.091 0-3.511 1.54-3.511 3.82s1.42 3.821 3.52 3.821c0.88 0 1.67-0.27 2.261-0.77 0.79-0.67 1.26-1.8 1.26-2.99 0-2.351-1.39-3.881-3.53-3.881zm0 0.82c1.58 0 2.6 1.2 2.6 3.04 0 1.761-1.051 2.961-2.591 2.961-1.549 0-2.589-1.2-2.589-3.001 0-1.8 1.04-3 2.58-3z"/>
 </g>
 <g id="g100" stroke-linejoin="round" transform="translate(132.59,83.582)" stroke="#000" stroke-linecap="round" stroke-width=".59904" fill="none">
  <path id="path102" d="m0 6.96s4.08-6.96 4.08-6.96"/>
 </g>
 <g id="g104" stroke-linejoin="round" transform="translate(132.59,65.822)" stroke="#000" stroke-linecap="round" stroke-width=".59904" fill="none">
  <path id="path106" d="m4.2 7.319s-4.2-7.319-4.2-7.319"/>
 </g>
 <g id="g108" stroke-linejoin="round" transform="translate(132.59,53.342)" stroke="#000" stroke-linecap="round" stroke-width=".59904" fill="none">
  <path id="path110" d="m0 12.48 7.2-12.48"/>
 </g>
 <g id="g112" fill-rule="evenodd" transform="translate(114.8,62)">
  <path id="path114" d="m3.511 0c-2.091 0-3.511 1.54-3.511 3.82s1.42 3.821 3.52 3.821c0.88 0 1.67-0.27 2.261-0.77 0.79-0.67 1.26-1.8 1.26-2.99 0-2.351-1.39-3.881-3.53-3.881zm0 0.82c1.58 0 2.6 1.2 2.6 3.04 0 1.761-1.051 2.961-2.591 2.961-1.549 0-2.589-1.2-2.589-3.001 0-1.8 1.04-3 2.58-3z"/>
 </g>
 <g id="g116" stroke-linejoin="round" transform="translate(123.59,64.622)" stroke="#000" stroke-linecap="round" stroke-width=".59904" fill="none">
  <path id="path118" d="m9.721 0h-9.721"/>
 </g>
 <g id="g120" stroke-linejoin="round" transform="translate(123.59,67.141)" stroke="#000" stroke-linecap="round" stroke-width=".59904" fill="none">
  <path id="path122" d="m9.841 0h-9.841"/>
 </g>
 <g id="g124" stroke-linejoin="round" transform="translate(139.79,53.342)" stroke="#000" stroke-linecap="round" stroke-width=".59904" fill="none">
  <path id="path126" d="m0 0h14.28"/>
 </g>
 <g id="g128" stroke-linejoin="round" transform="translate(141.47,50.822)" stroke="#000" stroke-linecap="round" stroke-width=".59904" fill="none">
  <path id="path130" d="m0 0h10.921"/>
 </g>
 <g id="g132" stroke-linejoin="round" transform="translate(154.19,41.101)" stroke="#000" stroke-linecap="round" stroke-width=".59904" fill="none">
  <path id="path134" d="m0 12.241 7.081-12.241"/>
 </g>
 <g id="g136" stroke-linejoin="round" transform="translate(154.07,28.622)" stroke="#000" stroke-linecap="round" stroke-width=".59904" fill="none">
  <path id="path138" d="m7.201 12.479-7.201-12.479"/>
 </g>
 <g id="g140" stroke-linejoin="round" transform="translate(152.75,31.382)" stroke="#000" stroke-linecap="round" stroke-width=".59904" fill="none">
  <path id="path142" d="m5.521 9.6s-5.521-9.6-5.521-9.6"/>
 </g>
 <g id="g144" stroke-linejoin="round" transform="translate(139.67,28.622)" stroke="#000" stroke-linecap="round" stroke-width=".59904" fill="none">
  <path id="path146" d="m14.52 0h-14.52"/>
 </g>
 <g id="g148" stroke-linejoin="round" transform="translate(132.59,28.622)" stroke="#000" stroke-linecap="round" stroke-width=".59904" fill="none">
  <path id="path150" d="m7.08 0-7.08 12.479"/>
 </g>
 <g id="g152" stroke-linejoin="round" transform="translate(135.59,31.262)" stroke="#000" stroke-linecap="round" stroke-width=".59904" fill="none">
  <path id="path154" d="m5.4 0s-5.4 9.6-5.4 9.6"/>
 </g>
 <g id="g156" stroke-linejoin="round" transform="translate(132.59,41.101)" stroke="#000" stroke-linecap="round" stroke-width=".59904" fill="none">
  <path id="path158" d="m0 0 7.2 12.241"/>
 </g>
 <g id="g160" fill-rule="evenodd" transform="translate(128.8,12.5)">
  <path id="path162" d="m3.511 0c-2.091 0-3.511 1.54-3.511 3.8203 0 2.2798 1.42 3.8208 3.52 3.8208 0.88 0 1.67-0.27 2.261-0.77 0.79-0.67 1.26-1.8 1.26-2.9903 0-2.3506-1.39-3.8808-3.53-3.8808zm0 0.8203c1.58 0 2.6 1.2002 2.6 3.04 0 1.7608-1.051 2.9608-2.591 2.9608-1.549 0-2.589-1.2-2.589-3.0008 0-1.7998 1.04-3 2.58-3z"/>
 </g>
 <g id="g164" fill-rule="evenodd" transform="translate(122.25,12.62)">
  <path id="path166" d="m4.681 3.9707v3.3203h0.929v-7.291h-0.929v3.1504h-3.751v-3.1504h-0.93v7.291h0.941v-3.3203h3.74z"/>
 </g>
 <g id="g168" stroke-linejoin="round" transform="translate(135.59,21.782)" stroke="#000" stroke-linecap="round" stroke-width=".59904" fill="none">
  <path id="path170" d="m4.08 6.84s-4.08-6.84-4.08-6.84"/>
 </g>
 <g id="g172" fill-rule="evenodd" transform="translate(155.3,9.5)">
  <path id="path174" d="m3.511 0c-2.091 0-3.511 1.54-3.511 3.8203s1.42 3.8208 3.52 3.8208c0.88 0 1.67-0.27 2.261-0.77 0.79-0.67 1.26-1.7998 1.26-2.9903 0-2.3506-1.39-3.8808-3.53-3.8808zm0 0.8203c1.58 0 2.6 1.2002 2.6 3.04 0 1.7608-1.051 2.961-2.591 2.961-1.549 0-2.589-1.2002-2.589-3.001 0-1.7998 1.04-3 2.58-3z"/>
 </g>
 <g id="g176" fill-rule="evenodd" transform="translate(163.75,9.62)">
  <path id="path178" d="m4.681 3.9707v3.3203h0.929v-7.291h-0.929v3.1504h-3.751v-3.1504h-0.93v7.291h0.941v-3.3203h3.74z"/>
 </g>
 <g id="g180" stroke-linejoin="round" transform="translate(154.19,18.542)" stroke="#000" stroke-linecap="round" stroke-width=".59904" fill="none">
  <path id="path182" d="m0 10.08 3-10.08"/>
 </g>
 <g id="g184" fill-rule="evenodd" transform="translate(172.05,37.25)">
  <path id="path186" d="m3.511 0c-2.091 0-3.511 1.54-3.511 3.82s1.42 3.821 3.52 3.821c0.88 0 1.67-0.27 2.261-0.77 0.79-0.67 1.26-1.8 1.26-2.99 0-2.351-1.39-3.881-3.53-3.881zm0 0.82c1.58 0 2.6 1.2 2.6 3.04 0 1.761-1.051 2.961-2.591 2.961-1.549 0-2.589-1.2-2.589-3.001 0-1.8 1.04-3 2.58-3z"/>
 </g>
 <g id="g188" stroke-linejoin="round" transform="translate(161.27,41.101)" stroke="#000" stroke-linecap="round" stroke-width=".59904" fill="none">
  <path id="path190" d="m0 0h8.879"/>
 </g>
 <g id="g192" stroke-linejoin="round" transform="translate(178.67,28.742)" stroke="#000" stroke-linecap="round" stroke-width=".59904" fill="none">
  <path id="path194" d="m0 6.96s4.08-6.96 4.08-6.96"/>
 </g>
 <g id="g196" stroke-linejoin="round" transform="translate(182.75,28.742)" stroke="#000" stroke-linecap="round" stroke-width=".59904" fill="none">
  <path id="path198" d="m0 0h14.28"/>
 </g>
 <g id="g200" fill-rule="evenodd" transform="translate(172.55,8)">
  <path id="path202" d="m3.511 0c-2.091 0-3.511 1.54-3.511 3.8203s1.42 3.8213 3.52 3.8213c0.88 0 1.67-0.2705 2.261-0.7705 0.79-0.67 1.26-1.7998 1.26-2.9903 0-2.3506-1.39-3.8808-3.53-3.8808zm0 0.8203c1.58 0 2.6 1.2002 2.6 3.04 0 1.7608-1.051 2.961-2.591 2.961-1.549 0-2.589-1.2002-2.589-3.001 0-1.7998 1.04-3 2.58-3z"/>
 </g>
 <g id="g204" stroke-linejoin="round" transform="translate(179.51,16.502)" stroke="#000" stroke-linecap="round" stroke-width=".59904" fill="none">
  <path id="path206" d="m5.04 12.24-5.04-12.24"/>
 </g>
 <g id="g208" stroke-linejoin="round" transform="translate(176.51,17.702)" stroke="#000" stroke-linecap="round" stroke-width=".59904" fill="none">
  <path id="path210" d="m5.28 12.84-5.28-12.84"/>
 </g>
 <g id="g212" stroke-linejoin="round" transform="translate(197.03,28.742)" stroke="#000" stroke-linecap="round" stroke-width=".59904" fill="none">
  <path id="path214" d="m0 0 7.08 12.48"/>
 </g>
 <g id="g216" stroke-linejoin="round" transform="translate(200.03,28.982)" stroke="#000" stroke-linecap="round" stroke-width=".59904" fill="none">
  <path id="path218" d="m0 0s5.4 9.6 5.4 9.6"/>
 </g>
 <g id="g220" stroke-linejoin="round" transform="translate(204.11,41.222)" stroke="#000" stroke-linecap="round" stroke-width=".59904" fill="none">
  <path id="path222" d="m0 0h14.281"/>
 </g>
 <g id="g224" stroke-linejoin="round" transform="translate(218.39,28.742)" stroke="#000" stroke-linecap="round" stroke-width=".59904" fill="none">
  <path id="path226" d="m0 12.48 7.199-12.48"/>
 </g>
 <g id="g228" stroke-linejoin="round" transform="translate(217.07,28.862)" stroke="#000" stroke-linecap="round" stroke-width=".59904" fill="none">
  <path id="path230" d="m0 9.6s5.52-9.6 5.52-9.6"/>
 </g>
 <g id="g232" stroke-linejoin="round" transform="translate(218.39,16.382)" stroke="#000" stroke-linecap="round" stroke-width=".59904" fill="none">
  <path id="path234" d="m7.199 12.36-7.199-12.36"/>
 </g>
 <g id="g236" stroke-linejoin="round" transform="translate(204.11,16.382)" stroke="#000" stroke-linecap="round" stroke-width=".59904" fill="none">
  <path id="path238" d="m14.281 0h-14.281"/>
 </g>
 <g id="g240" stroke-linejoin="round" transform="translate(205.79,18.902)" stroke="#000" stroke-linecap="round" stroke-width=".59904" fill="none">
  <path id="path242" d="m10.92 0h-10.92"/>
 </g>
 <g id="g244" stroke-linejoin="round" transform="translate(197.03,16.382)" stroke="#000" stroke-linecap="round" stroke-width=".59904" fill="none">
  <path id="path246" d="m7.08 0-7.08 12.36"/>
 </g>
 <g id="g248" fill-rule="evenodd" transform="translate(222.05)">
  <path id="path250" d="m3.511 0c-2.091 0-3.511 1.54-3.511 3.8203s1.42 3.8213 3.52 3.8213c0.88 0 1.67-0.2705 2.261-0.7705 0.79-0.67 1.26-1.7998 1.26-2.9903 0-2.3506-1.39-3.8808-3.53-3.8808zm0 0.8203c1.58 0 2.6 1.2002 2.6 3.04 0 1.7608-1.051 2.961-2.591 2.961-1.549 0-2.589-1.2002-2.589-3.001 0-1.7998 1.04-3 2.58-3z"/>
 </g>
 <g id="g252" fill-rule="evenodd" transform="translate(230.25 .12)">
  <path id="path254" d="m4.681 3.9707v3.3203h0.929v-7.291h-0.929v3.1504h-3.751v-3.1504h-0.93v7.291h0.941v-3.3203h3.74z"/>
 </g>
 <g id="g256" stroke-linejoin="round" transform="translate(218.39,9.422)" stroke="#000" stroke-linecap="round" stroke-width=".59904" fill="none">
  <path id="path258" d="m0 6.96s3.96-6.96 3.96-6.96"/>
 </g>
 <g id="g260" fill-rule="evenodd" transform="translate(222.05,49.75)">
  <path id="path262" d="m3.511 0c-2.091 0-3.511 1.54-3.511 3.82s1.42 3.821 3.52 3.821c0.88 0 1.67-0.27 2.261-0.77 0.79-0.67 1.26-1.8 1.26-2.99 0-2.351-1.39-3.881-3.53-3.881zm0 0.82c1.58 0 2.6 1.2 2.6 3.04 0 1.761-1.051 2.961-2.591 2.961-1.549 0-2.589-1.2-2.589-3.001 0-1.8 1.04-3 2.58-3z"/>
 </g>
 <g id="g264" fill-rule="evenodd" transform="translate(230.25,49.87)">
  <path id="path266" d="m4.681 3.971v3.32h0.929v-7.291h-0.929v3.15h-3.751v-3.15h-0.93v7.291h0.941v-3.32h3.74z"/>
 </g>
 <g id="g268" stroke-linejoin="round" transform="translate(218.39,41.222)" stroke="#000" stroke-linecap="round" stroke-width=".59904" fill="none">
  <path id="path270" d="m0 0s4.199 7.32 4.199 7.32"/>
 </g>
 <g id="g272" stroke-linejoin="round" transform="translate(178.31,102.9)" stroke="#000" stroke-linecap="round" stroke-width=".59904" fill="none">
  <path id="path274" d="m0 7.32s4.319-7.32 4.319-7.32"/>
 </g>
 <g id="g276" stroke-linejoin="round" transform="translate(182.63,102.9)" stroke="#000" stroke-linecap="round" stroke-width=".59904" fill="none">
  <path id="path278" d="m0 0h14.4"/>
 </g>
 <g id="g280" fill-rule="evenodd" transform="translate(171.8,86.5)">
  <path id="path282" d="m3.511 0c-2.091 0-3.511 1.54-3.511 3.82s1.42 3.821 3.52 3.821c0.88 0 1.67-0.27 2.261-0.77 0.79-0.67 1.26-1.8 1.26-2.99 0-2.351-1.39-3.881-3.53-3.881zm0 0.82c1.58 0 2.6 1.2 2.6 3.04 0 1.761-1.051 2.961-2.591 2.961-1.549 0-2.589-1.2-2.589-3.001 0-1.8 1.04-3 2.58-3z"/>
 </g>
 <g id="g284" stroke-linejoin="round" transform="translate(179.63,95.22)" stroke="#000" stroke-linecap="round" stroke-width=".59904" fill="none">
  <path id="path286" d="m4.44 7.68s-4.44-7.68-4.44-7.68"/>
 </g>
 <g id="g288" stroke-linejoin="round" transform="translate(177.47,96.54)" stroke="#000" stroke-linecap="round" stroke-width=".59904" fill="none">
  <path id="path290" d="m4.32 7.68s-4.32-7.68-4.32-7.68"/>
 </g>
 <g id="g292" stroke-linejoin="round" transform="translate(197.03,102.9)" stroke="#000" stroke-linecap="round" stroke-width=".59904" fill="none">
  <path id="path294" d="m0 0 7.201 12.48"/>
 </g>
 <g id="g296" stroke-linejoin="round" transform="translate(200.03,103.02)" stroke="#000" stroke-linecap="round" stroke-width=".59904" fill="none">
  <path id="path298" d="m0 0s5.52 9.6 5.52 9.6"/>
 </g>
 <g id="g300" stroke-linejoin="round" transform="translate(204.23,115.38)" stroke="#000" stroke-linecap="round" stroke-width=".59904" fill="none">
  <path id="path302" d="m0 0h14.399"/>
 </g>
 <g id="g304" stroke-linejoin="round" transform="translate(218.63,102.9)" stroke="#000" stroke-linecap="round" stroke-width=".59904" fill="none">
  <path id="path306" d="m0 12.48 7.2-12.48"/>
 </g>
 <g id="g308" stroke-linejoin="round" transform="translate(217.31,103.02)" stroke="#000" stroke-linecap="round" stroke-width=".59904" fill="none">
  <path id="path310" d="m0 9.6s5.519-9.6 5.519-9.6"/>
 </g>
 <g id="g312" stroke-linejoin="round" transform="translate(218.51,90.42)" stroke="#000" stroke-linecap="round" stroke-width=".59904" fill="none">
  <path id="path314" d="m7.32 12.48-7.32-12.48"/>
 </g>
 <g id="g316" stroke-linejoin="round" transform="translate(204.23,90.42)" stroke="#000" stroke-linecap="round" stroke-width=".59904" fill="none">
  <path id="path318" d="m14.279 0h-14.279"/>
 </g>
 <g id="g320" stroke-linejoin="round" transform="translate(205.91,92.94)" stroke="#000" stroke-linecap="round" stroke-width=".59904" fill="none">
  <path id="path322" d="m10.92 0h-10.92"/>
 </g>
 <g id="g324" stroke-linejoin="round" transform="translate(197.03,90.42)" stroke="#000" stroke-linecap="round" stroke-width=".59904" fill="none">
  <path id="path326" d="m7.201 0-7.201 12.48"/>
 </g>
 <g id="g328" fill-rule="evenodd" transform="translate(236.55,99)">
  <path id="path330" d="m3.511 0c-2.091 0-3.511 1.54-3.511 3.82s1.42 3.821 3.52 3.821c0.88 0 1.67-0.27 2.261-0.77 0.79-0.67 1.26-1.8 1.26-2.99 0-2.351-1.39-3.881-3.53-3.881zm0 0.82c1.58 0 2.6 1.2 2.6 3.04 0 1.761-1.051 2.961-2.591 2.961-1.549 0-2.589-1.2-2.589-3.001 0-1.8 1.04-3 2.58-3z"/>
 </g>
 <g id="g332" fill-rule="evenodd" transform="translate(245,99.12)">
  <path id="path334" d="m4.681 3.971v3.32h0.929v-7.291h-0.929v3.15h-3.751v-3.15h-0.93v7.291h0.941v-3.32h3.74z"/>
 </g>
 <g id="g336" stroke-linejoin="round" transform="translate(225.83,102.9)" stroke="#000" stroke-linecap="round" stroke-width=".59904" fill="none">
  <path id="path338" d="m0 0h9"/>
 </g>
 <g id="g340" fill-rule="evenodd" transform="translate(222.05,124)">
  <path id="path342" d="m3.511 0c-2.091 0-3.511 1.54-3.511 3.82s1.42 3.821 3.52 3.821c0.88 0 1.67-0.27 2.261-0.77 0.79-0.67 1.26-1.8 1.26-2.99 0-2.351-1.39-3.881-3.53-3.881zm0 0.82c1.58 0 2.6 1.2 2.6 3.04 0 1.761-1.051 2.961-2.591 2.961-1.549 0-2.589-1.2-2.589-3.001 0-1.8 1.04-3 2.58-3z"/>
 </g>
 <g id="g344" stroke-linejoin="round" transform="translate(218.63,115.38)" stroke="#000" stroke-linecap="round" stroke-width=".59904" fill="none">
  <path id="path346" d="m0 0s4.08 7.32 4.08 7.32"/>
 </g>
 <g id="g348" fill-rule="evenodd" transform="translate(222.05,74)">
  <path id="path350" d="m3.511 0c-2.091 0-3.511 1.54-3.511 3.82s1.42 3.821 3.52 3.821c0.88 0 1.67-0.27 2.261-0.77 0.79-0.67 1.26-1.8 1.26-2.99 0-2.351-1.39-3.881-3.53-3.881zm0 0.82c1.58 0 2.6 1.2 2.6 3.04 0 1.761-1.051 2.961-2.591 2.961-1.549 0-2.589-1.2-2.589-3.001 0-1.8 1.04-3 2.58-3z"/>
 </g>
 <g id="g352" fill-rule="evenodd" transform="translate(230.5,74.12)">
  <path id="path354" d="m4.681 3.971v3.32h0.929v-7.291h-0.929v3.15h-3.751v-3.15h-0.93v7.291h0.941v-3.32h3.74z"/>
 </g>
 <g id="g356" stroke-linejoin="round" transform="translate(218.51,83.342)" stroke="#000" stroke-linecap="round" stroke-width=".59904" fill="none">
  <path id="path358" d="m0 7.08 4.08-7.08"/>
 </g>
 <g id="g360" stroke-linejoin="round" transform="translate(153.95,145.38)" stroke="#000" stroke-linecap="round" stroke-width=".59904" fill="none">
  <path id="path362" d="m3.96 0s-3.96 7.08-3.96 7.08"/>
 </g>
 <g id="g364" stroke-linejoin="round" transform="translate(153.95,152.46)" stroke="#000" stroke-linecap="round" stroke-width=".59904" fill="none">
  <path id="path366" d="m0 0 7.2 12.48"/>
 </g>
 <g id="g368" fill-rule="evenodd" transform="translate(136.05,148.5)">
  <path id="path370" d="m3.511 0c-2.091 0-3.511 1.54-3.511 3.82s1.42 3.821 3.52 3.821c0.88 0 1.67-0.27 2.261-0.77 0.79-0.67 1.26-1.8 1.26-2.99 0-2.351-1.39-3.881-3.53-3.881zm0 0.82c1.58 0 2.6 1.2 2.6 3.04 0 1.761-1.051 2.961-2.591 2.961-1.549 0-2.589-1.2-2.589-3.001 0-1.8 1.04-3 2.58-3z"/>
 </g>
 <g id="g372" stroke-linejoin="round" transform="translate(144.95,151.26)" stroke="#000" stroke-linecap="round" stroke-width=".59904" fill="none">
  <path id="path374" d="m9.72 0h-9.72"/>
 </g>
 <g id="g376" stroke-linejoin="round" transform="translate(144.95,153.78)" stroke="#000" stroke-linecap="round" stroke-width=".59904" fill="none">
  <path id="path378" d="m9.84 0h-9.84"/>
 </g>
 <g id="g380" stroke-linejoin="round" transform="translate(153.83,164.94)" stroke="#000" stroke-linecap="round" stroke-width=".59904" fill="none">
  <path id="path382" d="m7.32 0-7.32 12.48"/>
 </g>
 <g id="g384" stroke-linejoin="round" transform="translate(156.83,167.7)" stroke="#000" stroke-linecap="round" stroke-width=".59904" fill="none">
  <path id="path386" d="m5.64 0s-5.64 9.6-5.64 9.6"/>
 </g>
 <g id="g388" stroke-linejoin="round" transform="translate(153.83,177.42)" stroke="#000" stroke-linecap="round" stroke-width=".59904" fill="none">
  <path id="path390" d="m0 0 7.08 12.48"/>
 </g>
 <g id="g392" stroke-linejoin="round" transform="translate(160.91,189.9)" stroke="#000" stroke-linecap="round" stroke-width=".59904" fill="none">
  <path id="path394" d="m0 0h14.52"/>
 </g>
 <g id="g396" stroke-linejoin="round" transform="translate(162.59,187.38)" stroke="#000" stroke-linecap="round" stroke-width=".59904" fill="none">
  <path id="path398" d="m0 0h11.16"/>
 </g>
 <g id="g400" stroke-linejoin="round" transform="translate(175.43,177.42)" stroke="#000" stroke-linecap="round" stroke-width=".59904" fill="none">
  <path id="path402" d="m0 12.48 7.2-12.48"/>
 </g>
 <g id="g404" stroke-linejoin="round" transform="translate(175.43,164.94)" stroke="#000" stroke-linecap="round" stroke-width=".59904" fill="none">
  <path id="path406" d="m7.2 12.48-7.2-12.48"/>
 </g>
 <g id="g408" stroke-linejoin="round" transform="translate(174.11,167.7)" stroke="#000" stroke-linecap="round" stroke-width=".59904" fill="none">
  <path id="path410" d="m5.52 9.6s-5.52-9.6-5.52-9.6"/>
 </g>
 <g id="g412" stroke-linejoin="round" transform="translate(161.15,164.94)" stroke="#000" stroke-linecap="round" stroke-width=".59904" fill="none">
  <path id="path414" d="m14.28 0h-14.28"/>
 </g>
 <g id="g416" fill-rule="evenodd" transform="translate(150.05,198.5)">
  <path id="path418" d="m3.511 0c-2.091 0-3.511 1.54-3.511 3.82s1.42 3.821 3.52 3.821c0.88 0 1.67-0.27 2.261-0.77 0.79-0.67 1.26-1.8 1.26-2.99 0-2.351-1.39-3.881-3.53-3.881zm0 0.82c1.58 0 2.6 1.2 2.6 3.04 0 1.761-1.051 2.961-2.591 2.961-1.549 0-2.589-1.2-2.589-3.001 0-1.8 1.04-3 2.58-3z"/>
 </g>
 <g id="g420" stroke-linejoin="round" transform="translate(156.59,189.9)" stroke="#000" stroke-linecap="round" stroke-width=".59904" fill="none">
  <path id="path422" d="m4.32 0s-4.32 7.32-4.32 7.32"/>
 </g>
 <g id="g424" fill-rule="evenodd" transform="translate(179.05,198.5)">
  <path id="path426" d="m3.511 0c-2.091 0-3.511 1.54-3.511 3.82s1.42 3.821 3.52 3.821c0.88 0 1.67-0.27 2.261-0.77 0.79-0.67 1.26-1.8 1.26-2.99 0-2.351-1.39-3.881-3.53-3.881zm0 0.82c1.58 0 2.6 1.2 2.6 3.04 0 1.761-1.051 2.961-2.591 2.961-1.549 0-2.589-1.2-2.589-3.001 0-1.8 1.04-3 2.58-3z"/>
 </g>
 <g id="g428" fill-rule="evenodd" transform="translate(187.25,198.62)">
  <path id="path430" d="m4.681 3.971v3.32h0.929v-7.291h-0.929v3.15h-3.751v-3.15h-0.93v7.291h0.941v-3.32h3.74z"/>
 </g>
 <g id="g432" stroke-linejoin="round" transform="translate(175.43,189.9)" stroke="#000" stroke-linecap="round" stroke-width=".59904" fill="none">
  <path id="path434" d="m0 0s4.08 7.32 4.08 7.32"/>
 </g>
 <g id="g436" fill-rule="evenodd" transform="translate(193.55,173.5)">
  <path id="path438" d="m3.511 0c-2.091 0-3.511 1.54-3.511 3.82s1.42 3.821 3.52 3.821c0.88 0 1.67-0.27 2.261-0.77 0.79-0.67 1.26-1.8 1.26-2.99 0-2.351-1.39-3.881-3.53-3.881zm0 0.82c1.58 0 2.6 1.2 2.6 3.04 0 1.761-1.051 2.961-2.591 2.961-1.549 0-2.589-1.2-2.589-3.001 0-1.8 1.04-3 2.58-3z"/>
 </g>
 <g id="g440" fill-rule="evenodd" transform="translate(201.75,173.62)">
  <path id="path442" d="m4.681 3.971v3.32h0.929v-7.291h-0.929v3.15h-3.751v-3.15h-0.93v7.291h0.941v-3.32h3.74z"/>
 </g>
 <g id="g444" stroke-linejoin="round" transform="translate(182.63,177.42)" stroke="#000" stroke-linecap="round" stroke-width=".59904" fill="none">
  <path id="path446" d="m0 0h9"/>
 </g>
 <g id="g448" stroke-linejoin="round" transform="translate(156.83,207.66)" stroke="#000" stroke-linecap="round" stroke-width=".59904" fill="none">
  <path id="path450" d="m0 0 4.08 7.2"/>
 </g>
 <g id="g452" stroke-linejoin="round" transform="translate(153.59,214.86)" stroke="#000" stroke-linecap="round" stroke-width=".59904" fill="none">
  <path id="path454" d="m7.32 0-7.32 12.48"/>
 </g>
 <g id="g456" fill-rule="evenodd" transform="translate(171.8,211)">
  <path id="path458" d="m3.511 0c-2.091 0-3.511 1.54-3.511 3.82s1.42 3.821 3.52 3.821c0.88 0 1.67-0.27 2.261-0.77 0.79-0.67 1.26-1.8 1.26-2.99 0-2.351-1.39-3.881-3.53-3.881zm0 0.82c1.58 0 2.6 1.2 2.6 3.04 0 1.761-1.051 2.961-2.591 2.961-1.549 0-2.589-1.2-2.589-3.001 0-1.8 1.04-3 2.58-3z"/>
 </g>
 <g id="g460" stroke-linejoin="round" transform="translate(160.19,216.06)" stroke="#000" stroke-linecap="round" stroke-width=".59904" fill="none">
  <path id="path462" d="m0 0h9.72"/>
 </g>
 <g id="g464" stroke-linejoin="round" transform="translate(160.19,213.54)" stroke="#000" stroke-linecap="round" stroke-width=".59904" fill="none">
  <path id="path466" d="m0 0h9.72"/>
 </g>
 <g id="g468" stroke-linejoin="round" transform="translate(139.19,227.34)" stroke="#000" stroke-linecap="round" stroke-width=".59904" fill="none">
  <path id="path470" d="m14.4 0h-14.4"/>
 </g>
 <g id="g472" stroke-linejoin="round" transform="translate(140.87,229.86)" stroke="#000" stroke-linecap="round" stroke-width=".59904" fill="none">
  <path id="path474" d="m11.04 0h-11.04"/>
 </g>
 <g id="g476" stroke-linejoin="round" transform="translate(131.99,227.34)" stroke="#000" stroke-linecap="round" stroke-width=".59904" fill="none">
  <path id="path478" d="m7.2 0-7.2 12.24"/>
 </g>
 <g id="g480" stroke-linejoin="round" transform="translate(131.99,239.58)" stroke="#000" stroke-linecap="round" stroke-width=".59904" fill="none">
  <path id="path482" d="m0 0 7.08 12.48"/>
 </g>
 <g id="g484" stroke-linejoin="round" transform="translate(134.99,239.82)" stroke="#000" stroke-linecap="round" stroke-width=".59904" fill="none">
  <path id="path486" d="m0 0s5.401 9.6 5.401 9.6"/>
 </g>
 <g id="g488" stroke-linejoin="round" transform="translate(139.07,252.06)" stroke="#000" stroke-linecap="round" stroke-width=".59904" fill="none">
  <path id="path490" d="m0 0h14.52"/>
 </g>
 <g id="g492" stroke-linejoin="round" transform="translate(153.59,239.7)" stroke="#000" stroke-linecap="round" stroke-width=".59904" fill="none">
  <path id="path494" d="m0 12.36 7.2-12.36"/>
 </g>
 <g id="g496" stroke-linejoin="round" transform="translate(152.27,239.82)" stroke="#000" stroke-linecap="round" stroke-width=".59904" fill="none">
  <path id="path498" d="m0 9.48 5.519-9.48"/>
 </g>
 <g id="g500" stroke-linejoin="round" transform="translate(153.59,227.34)" stroke="#000" stroke-linecap="round" stroke-width=".59904" fill="none">
  <path id="path502" d="m7.2 12.36-7.2-12.36"/>
 </g>
 <g id="g504" fill-rule="evenodd" transform="translate(114.05,235.75)">
  <path id="path506" d="m3.511 0c-2.091 0-3.511 1.54-3.511 3.82s1.42 3.821 3.52 3.821c0.88 0 1.67-0.27 2.261-0.77 0.79-0.67 1.26-1.8 1.26-2.99 0-2.351-1.39-3.881-3.53-3.881zm0 0.82c1.58 0 2.6 1.2 2.6 3.04 0 1.761-1.051 2.961-2.591 2.961-1.549 0-2.589-1.2-2.589-3.001 0-1.8 1.04-3 2.58-3z"/>
 </g>
 <g id="g508" fill-rule="evenodd" transform="translate(107.5,235.87)">
  <path id="path510" d="m4.681 3.971v3.32h0.929v-7.291h-0.929v3.15h-3.751v-3.15h-0.93v7.291h0.941v-3.32h3.74z"/>
 </g>
 <g id="g512" stroke-linejoin="round" transform="translate(122.99,239.58)" stroke="#000" stroke-linecap="round" stroke-width=".59904" fill="none">
  <path id="path514" d="m9 0h-9"/>
 </g>
 <g id="g516" fill-rule="evenodd" transform="translate(128.3,260.75)">
  <path id="path518" d="m3.511 0c-2.091 0-3.511 1.54-3.511 3.82s1.42 3.821 3.52 3.821c0.88 0 1.67-0.27 2.261-0.77 0.79-0.67 1.26-1.8 1.26-2.99 0-2.351-1.39-3.881-3.53-3.881zm0 0.82c1.58 0 2.6 1.2 2.6 3.04 0 1.761-1.051 2.961-2.591 2.961-1.549 0-2.589-1.2-2.589-3.001 0-1.8 1.04-3 2.58-3z"/>
 </g>
 <g id="g520" fill-rule="evenodd" transform="translate(121.75,260.87)">
  <path id="path522" d="m4.681 3.971v3.32h0.929v-7.291h-0.929v3.15h-3.751v-3.15h-0.93v7.291h0.941v-3.32h3.74z"/>
 </g>
 <g id="g524" stroke-linejoin="round" transform="translate(134.87,252.06)" stroke="#000" stroke-linecap="round" stroke-width=".59904" fill="none">
  <path id="path526" d="m4.2 0s-4.2 7.32-4.2 7.32"/>
 </g>
 <g id="g528" fill-rule="evenodd" transform="translate(157.3,260.75)">
  <path id="path530" d="m3.511 0c-2.091 0-3.511 1.54-3.511 3.82s1.42 3.821 3.52 3.821c0.88 0 1.67-0.27 2.261-0.77 0.79-0.67 1.26-1.8 1.26-2.99 0-2.351-1.39-3.881-3.53-3.881zm0 0.82c1.58 0 2.6 1.2 2.6 3.04 0 1.761-1.051 2.961-2.591 2.961-1.549 0-2.589-1.2-2.589-3.001 0-1.8 1.04-3 2.58-3z"/>
 </g>
 <g id="g532" fill-rule="evenodd" transform="translate(165.5,260.87)">
  <path id="path534" d="m4.681 3.971v3.32h0.929v-7.291h-0.929v3.15h-3.751v-3.15h-0.93v7.291h0.941v-3.32h3.74z"/>
 </g>
 <g id="g536" stroke-linejoin="round" transform="translate(153.59,252.06)" stroke="#000" stroke-linecap="round" stroke-width=".59904" fill="none">
  <path id="path538" d="m0 0s4.2 7.32 4.2 7.32"/>
 </g>
 <g id="g540" fill-rule="evenodd" transform="translate(236.3,25)">
  <path id="path542" d="m3.511 0c-2.091 0-3.511 1.54-3.511 3.82s1.42 3.821 3.52 3.821c0.88 0 1.67-0.27 2.261-0.77 0.79-0.67 1.26-1.8 1.26-2.99 0-2.351-1.39-3.881-3.53-3.881zm0 0.82c1.58 0 2.6 1.2 2.6 3.04 0 1.761-1.051 2.961-2.591 2.961-1.549 0-2.589-1.2-2.589-3.001 0-1.8 1.04-3 2.58-3z"/>
 </g>
 <g id="g544" fill-rule="evenodd" transform="translate(244.75,25.12)">
  <path id="path546" d="m4.681 3.971v3.32h0.929v-7.291h-0.929v3.15h-3.751v-3.15h-0.93v7.291h0.941v-3.32h3.74z"/>
 </g>
 <g id="g548" stroke-linejoin="round" transform="translate(225.59,28.742)" stroke="#000" stroke-linecap="round" stroke-width=".59904" fill="none">
  <path id="path550" d="m0 0h9"/>
 </g>
 <g id="g552" stroke-linejoin="round" transform="translate(231.11,127.86)" stroke="#000" stroke-linecap="round" stroke-width=".59904" fill="none">
  <path id="path554" d="m0 0h9"/>
 </g>
 <g id="g556" stroke-linejoin="round" transform="translate(240.11,127.86)" stroke="#000" stroke-linecap="round" stroke-width=".59904" fill="none">
  <path id="path558" d="m0 0 7.201 12.48"/>
 </g>
 <g id="g560" fill-rule="evenodd" transform="translate(243.8,111.5)">
  <path id="path562" d="m3.511 0c-2.091 0-3.511 1.54-3.511 3.82s1.42 3.821 3.52 3.821c0.88 0 1.67-0.27 2.261-0.77 0.79-0.67 1.26-1.8 1.26-2.99 0-2.351-1.39-3.881-3.53-3.881zm0 0.82c1.58 0 2.6 1.2 2.6 3.04 0 1.761-1.051 2.961-2.591 2.961-1.549 0-2.589-1.2-2.589-3.001 0-1.8 1.04-3 2.58-3z"/>
 </g>
 <g id="g564" stroke-linejoin="round" transform="translate(240.83,121.5)" stroke="#000" stroke-linecap="round" stroke-width=".59904" fill="none">
  <path id="path566" d="m0 7.56s4.441-7.56 4.441-7.56"/>
 </g>
 <g id="g568" stroke-linejoin="round" transform="translate(238.67,120.18)" stroke="#000" stroke-linecap="round" stroke-width=".59904" fill="none">
  <path id="path570" d="m0 7.68s4.44-7.68 4.44-7.68"/>
 </g>
 <g id="g572" stroke-linejoin="round" transform="translate(239.99,140.34)" stroke="#000" stroke-linecap="round" stroke-width=".59904" fill="none">
  <path id="path574" d="m7.321 0-7.321 12.48"/>
 </g>
 <g id="g576" stroke-linejoin="round" transform="translate(242.99,143.1)" stroke="#000" stroke-linecap="round" stroke-width=".59904" fill="none">
  <path id="path578" d="m5.64 0s-5.64 9.6-5.64 9.6"/>
 </g>
 <g id="g580" stroke-linejoin="round" transform="translate(239.99,152.82)" stroke="#000" stroke-linecap="round" stroke-width=".59904" fill="none">
  <path id="path582" d="m0 0 7.2 12.48"/>
 </g>
 <g id="g584" stroke-linejoin="round" transform="translate(247.19,165.3)" stroke="#000" stroke-linecap="round" stroke-width=".59904" fill="none">
  <path id="path586" d="m0 0h14.4"/>
 </g>
 <g id="g588" stroke-linejoin="round" transform="translate(248.87,162.78)" stroke="#000" stroke-linecap="round" stroke-width=".59904" fill="none">
  <path id="path590" d="m0 0h11.04"/>
 </g>
 <g id="g592" stroke-linejoin="round" transform="translate(261.71,152.82)" stroke="#000" stroke-linecap="round" stroke-width=".59904" fill="none">
  <path id="path594" d="m0 12.48 7.2-12.48"/>
 </g>
 <g id="g596" stroke-linejoin="round" transform="translate(261.59,140.34)" stroke="#000" stroke-linecap="round" stroke-width=".59904" fill="none">
  <path id="path598" d="m7.32 12.48-7.32-12.48"/>
 </g>
 <g id="g600" stroke-linejoin="round" transform="translate(260.27,143.1)" stroke="#000" stroke-linecap="round" stroke-width=".59904" fill="none">
  <path id="path602" d="m5.639 9.6s-5.639-9.6-5.639-9.6"/>
 </g>
 <g id="g604" stroke-linejoin="round" transform="translate(247.31,140.34)" stroke="#000" stroke-linecap="round" stroke-width=".59904" fill="none">
  <path id="path606" d="m14.399 0h-14.399"/>
 </g>
 <g id="g608" fill-rule="evenodd" transform="translate(236.3,173.75)">
  <path id="path610" d="m3.511 0c-2.091 0-3.511 1.54-3.511 3.82s1.42 3.821 3.52 3.821c0.88 0 1.67-0.27 2.261-0.77 0.79-0.67 1.26-1.8 1.26-2.99 0-2.351-1.39-3.881-3.53-3.881zm0 0.82c1.58 0 2.6 1.2 2.6 3.04 0 1.761-1.051 2.961-2.591 2.961-1.549 0-2.589-1.2-2.589-3.001 0-1.8 1.04-3 2.58-3z"/>
 </g>
 <g id="g612" fill-rule="evenodd" transform="translate(229.75,173.87)">
  <path id="path614" d="m4.681 3.971v3.32h0.929v-7.291h-0.929v3.15h-3.751v-3.15h-0.93v7.291h0.941v-3.32h3.74z"/>
 </g>
 <g id="g616" stroke-linejoin="round" transform="translate(242.99,165.3)" stroke="#000" stroke-linecap="round" stroke-width=".59904" fill="none">
  <path id="path618" d="m4.2 0s-4.2 7.32-4.2 7.32"/>
 </g>
 <g id="g620" fill-rule="evenodd" transform="translate(265.3,173.75)">
  <path id="path622" d="m3.511 0c-2.091 0-3.511 1.54-3.511 3.82s1.42 3.821 3.52 3.821c0.88 0 1.67-0.27 2.261-0.77 0.79-0.67 1.26-1.8 1.26-2.99 0-2.351-1.39-3.881-3.53-3.881zm0 0.82c1.58 0 2.6 1.2 2.6 3.04 0 1.761-1.051 2.961-2.591 2.961-1.549 0-2.589-1.2-2.589-3.001 0-1.8 1.04-3 2.58-3z"/>
 </g>
 <g id="g624" fill-rule="evenodd" transform="translate(273.5,173.87)">
  <path id="path626" d="m4.681 3.971v3.32h0.929v-7.291h-0.929v3.15h-3.751v-3.15h-0.93v7.291h0.941v-3.32h3.74z"/>
 </g>
 <g id="g628" stroke-linejoin="round" transform="translate(261.71,165.3)" stroke="#000" stroke-linecap="round" stroke-width=".59904" fill="none">
  <path id="path630" d="m0 0s4.2 7.32 4.2 7.32"/>
 </g>
 <g id="g632" fill-rule="evenodd" transform="translate(279.8,149)">
  <path id="path634" d="m3.511 0c-2.091 0-3.511 1.54-3.511 3.82s1.42 3.821 3.52 3.821c0.88 0 1.67-0.27 2.261-0.77 0.79-0.67 1.26-1.8 1.26-2.99 0-2.351-1.39-3.881-3.53-3.881zm0 0.82c1.58 0 2.6 1.2 2.6 3.04 0 1.761-1.051 2.961-2.591 2.961-1.549 0-2.589-1.2-2.589-3.001 0-1.8 1.04-3 2.58-3z"/>
 </g>
 <g id="g636" fill-rule="evenodd" transform="translate(288,149.12)">
  <path id="path638" d="m4.681 3.971v3.32h0.929v-7.291h-0.929v3.15h-3.751v-3.15h-0.93v7.291h0.941v-3.32h3.74z"/>
 </g>
 <g id="g640" stroke-linejoin="round" transform="translate(268.91,152.82)" stroke="#000" stroke-linecap="round" stroke-width=".59904" fill="none">
  <path id="path642" d="m0 0h9"/>
 </g>
 <g id="g644" stroke-linejoin="round" transform="translate(118.19,139.98)" stroke="#000" stroke-linecap="round" stroke-width=".59904" fill="none">
  <path id="path646" d="m9 0h-9"/>
 </g>
 <g id="g648" stroke-linejoin="round" transform="translate(110.99,139.98)" stroke="#000" stroke-linecap="round" stroke-width=".59904" fill="none">
  <path id="path650" d="m7.2 0-7.2 12.48"/>
 </g>
 <g id="g652" fill-rule="evenodd" transform="translate(107.3,123.5)">
  <path id="path654" d="m3.511 0c-2.091 0-3.511 1.54-3.511 3.82s1.42 3.821 3.52 3.821c0.88 0 1.67-0.27 2.261-0.77 0.79-0.67 1.26-1.8 1.26-2.99 0-2.351-1.39-3.881-3.53-3.881zm0 0.82c1.58 0 2.6 1.2 2.6 3.04 0 1.761-1.051 2.961-2.591 2.961-1.549 0-2.589-1.2-2.589-3.001 0-1.8 1.04-3 2.58-3z"/>
 </g>
 <g id="g656" stroke-linejoin="round" transform="translate(115.19,132.3)" stroke="#000" stroke-linecap="round" stroke-width=".59904" fill="none">
  <path id="path658" d="m4.44 7.68s-4.44-7.68-4.44-7.68"/>
 </g>
 <g id="g660" stroke-linejoin="round" transform="translate(113.03,133.62)" stroke="#000" stroke-linecap="round" stroke-width=".59904" fill="none">
  <path id="path662" d="m4.44 7.68s-4.44-7.68-4.44-7.68"/>
 </g>
 <g id="g664" stroke-linejoin="round" transform="translate(96.591,152.46)" stroke="#000" stroke-linecap="round" stroke-width=".59904" fill="none">
  <path id="path666" d="m14.4 0h-14.4"/>
 </g>
 <g id="g668" stroke-linejoin="round" transform="translate(98.27,154.98)" stroke="#000" stroke-linecap="round" stroke-width=".59904" fill="none">
  <path id="path670" d="m11.04 0h-11.04"/>
 </g>
 <g id="g672" stroke-linejoin="round" transform="translate(89.392,152.46)" stroke="#000" stroke-linecap="round" stroke-width=".59904" fill="none">
  <path id="path674" d="m7.199 0-7.199 12.48"/>
 </g>
 <g id="g676" stroke-linejoin="round" transform="translate(89.392,164.94)" stroke="#000" stroke-linecap="round" stroke-width=".59904" fill="none">
  <path id="path678" d="m0 0 7.079 12.48"/>
 </g>
 <g id="g680" stroke-linejoin="round" transform="translate(92.392,165.18)" stroke="#000" stroke-linecap="round" stroke-width=".59904" fill="none">
  <path id="path682" d="m0 0 5.399 9.6"/>
 </g>
 <g id="g684" stroke-linejoin="round" transform="translate(96.471,177.42)" stroke="#000" stroke-linecap="round" stroke-width=".59904" fill="none">
  <path id="path686" d="m0 0h14.52"/>
 </g>
 <g id="g688" stroke-linejoin="round" transform="translate(110.99,164.94)" stroke="#000" stroke-linecap="round" stroke-width=".59904" fill="none">
  <path id="path690" d="m0 12.48 7.2-12.48"/>
 </g>
 <g id="g692" stroke-linejoin="round" transform="translate(109.67,165.06)" stroke="#000" stroke-linecap="round" stroke-width=".59904" fill="none">
  <path id="path694" d="m0 9.6s5.52-9.6 5.52-9.6"/>
 </g>
 <g id="g696" stroke-linejoin="round" transform="translate(110.99,152.46)" stroke="#000" stroke-linecap="round" stroke-width=".59904" fill="none">
  <path id="path698" d="m7.2 12.48-7.2-12.48"/>
 </g>
 <g id="g700" fill-rule="evenodd" transform="translate(114.8,185.75)">
  <path id="path702" d="m3.511 0c-2.091 0-3.511 1.54-3.511 3.82s1.42 3.821 3.52 3.821c0.88 0 1.67-0.27 2.261-0.77 0.79-0.67 1.26-1.8 1.26-2.99 0-2.351-1.39-3.881-3.53-3.881zm0 0.82c1.58 0 2.6 1.2 2.6 3.04 0 1.761-1.051 2.961-2.591 2.961-1.549 0-2.589-1.2-2.589-3.001 0-1.8 1.04-3 2.58-3z"/>
 </g>
 <g id="g704" fill-rule="evenodd" transform="translate(123,185.87)">
  <path id="path706" d="m4.681 3.971v3.32h0.929v-7.291h-0.929v3.15h-3.751v-3.15h-0.93v7.291h0.941v-3.32h3.74z"/>
 </g>
 <g id="g708" stroke-linejoin="round" transform="translate(110.99,177.42)" stroke="#000" stroke-linecap="round" stroke-width=".59904" fill="none">
  <path id="path710" d="m0 0s4.2 7.2 4.2 7.2"/>
 </g>
 <g id="g712" fill-rule="evenodd" transform="translate(86.8,186.25)">
  <path id="path714" d="m3.511 0c-2.091 0-3.511 1.54-3.511 3.82s1.42 3.821 3.52 3.821c0.88 0 1.67-0.27 2.261-0.77 0.79-0.67 1.26-1.8 1.26-2.99 0-2.351-1.39-3.881-3.53-3.881zm0 0.82c1.58 0 2.6 1.2 2.6 3.04 0 1.761-1.051 2.961-2.591 2.961-1.549 0-2.589-1.2-2.589-3.001 0-1.8 1.04-3 2.58-3z"/>
 </g>
 <g id="g716" fill-rule="evenodd" transform="translate(80.25,186.37)">
  <path id="path718" d="m4.681 3.971v3.32h0.929v-7.291h-0.929v3.15h-3.751v-3.15h-0.93v7.291h0.941v-3.32h3.74z"/>
 </g>
 <g id="g720" stroke-linejoin="round" transform="translate(92.871,177.42)" stroke="#000" stroke-linecap="round" stroke-width=".59904" fill="none">
  <path id="path722" d="m3.6 0-3.6 7.56"/>
 </g>
 <g id="g724" fill-rule="evenodd" transform="translate(71.3,161)">
  <path id="path726" d="m3.511 0c-2.091 0-3.511 1.54-3.511 3.82s1.42 3.821 3.52 3.821c0.88 0 1.67-0.27 2.261-0.77 0.79-0.67 1.26-1.8 1.26-2.99 0-2.351-1.39-3.881-3.53-3.881zm0 0.82c1.58 0 2.6 1.2 2.6 3.04 0 1.761-1.051 2.961-2.591 2.961-1.549 0-2.589-1.2-2.589-3.001 0-1.8 1.04-3 2.58-3z"/>
 </g>
 <g id="g728" stroke-linejoin="round" transform="translate(80.392,164.94)" stroke="#000" stroke-linecap="round" stroke-width=".59904" fill="none">
  <path id="path730" d="m9 0h-9"/>
 </g>
 <g id="g732" stroke-linejoin="round" transform="translate(67.671,170.22)" stroke="#000" stroke-linecap="round" stroke-width=".59904" fill="none">
  <path id="path734" d="m4.08 0-4.08 7.08"/>
 </g>
 <g id="g736" stroke-linejoin="round" transform="translate(53.272,177.3)" stroke="#000" stroke-linecap="round" stroke-width=".59904" fill="none">
  <path id="path738" d="m14.399 0h-14.399"/>
 </g>
 <g id="g740" fill-rule="evenodd" transform="translate(68.05,186.25)">
  <path id="path742" d="m3.511 0c-2.091 0-3.511 1.54-3.511 3.82s1.42 3.821 3.52 3.821c0.88 0 1.67-0.27 2.261-0.77 0.79-0.67 1.26-1.8 1.26-2.99 0-2.351-1.39-3.881-3.53-3.881zm0 0.82c1.58 0 2.6 1.2 2.6 3.04 0 1.761-1.051 2.961-2.591 2.961-1.549 0-2.589-1.2-2.589-3.001 0-1.8 1.04-3 2.58-3z"/>
 </g>
 <g id="g744" stroke-linejoin="round" transform="translate(66.471,177.3)" stroke="#000" stroke-linecap="round" stroke-width=".59904" fill="none">
  <path id="path746" d="m0 0 2.4 7.92"/>
 </g>
 <g id="g748" stroke-linejoin="round" transform="translate(68.511,175.86)" stroke="#000" stroke-linecap="round" stroke-width=".59904" fill="none">
  <path id="path750" d="m0 0s2.64 8.64 2.64 8.64"/>
 </g>
 <g id="g752" stroke-linejoin="round" transform="translate(46.191,164.82)" stroke="#000" stroke-linecap="round" stroke-width=".59904" fill="none">
  <path id="path754" d="m7.081 12.48-7.081-12.48"/>
 </g>
 <g id="g756" stroke-linejoin="round" transform="translate(44.871,167.46)" stroke="#000" stroke-linecap="round" stroke-width=".59904" fill="none">
  <path id="path758" d="m5.401 9.6s-5.401-9.6-5.401-9.6"/>
 </g>
 <g id="g760" stroke-linejoin="round" transform="translate(31.791,164.82)" stroke="#000" stroke-linecap="round" stroke-width=".59904" fill="none">
  <path id="path762" d="m14.4 0h-14.4"/>
 </g>
 <g id="g764" stroke-linejoin="round" transform="translate(24.591,164.82)" stroke="#000" stroke-linecap="round" stroke-width=".59904" fill="none">
  <path id="path766" d="m7.2 0-7.2 12.36"/>
 </g>
 <g id="g768" stroke-linejoin="round" transform="translate(27.591,167.58)" stroke="#000" stroke-linecap="round" stroke-width=".59904" fill="none">
  <path id="path770" d="m5.52 0-5.52 9.48"/>
 </g>
 <g id="g772" stroke-linejoin="round" transform="translate(24.591,177.18)" stroke="#000" stroke-linecap="round" stroke-width=".59904" fill="none">
  <path id="path774" d="m0 0 7.2 12.48"/>
 </g>
 <g id="g776" stroke-linejoin="round" transform="translate(31.791,189.66)" stroke="#000" stroke-linecap="round" stroke-width=".59904" fill="none">
  <path id="path778" d="m0 0h14.4"/>
 </g>
 <g id="g780" stroke-linejoin="round" transform="translate(33.471,187.14)" stroke="#000" stroke-linecap="round" stroke-width=".59904" fill="none">
  <path id="path782" d="m0 0h11.04"/>
 </g>
 <g id="g784" stroke-linejoin="round" transform="translate(46.191,177.3)" stroke="#000" stroke-linecap="round" stroke-width=".59904" fill="none">
  <path id="path786" d="m0 12.36 7.081-12.36"/>
 </g>
 <g id="g788" fill-rule="evenodd" transform="translate(21.05,198.25)">
  <path id="path790" d="m3.511 0c-2.091 0-3.511 1.54-3.511 3.82s1.42 3.821 3.52 3.821c0.88 0 1.67-0.27 2.261-0.77 0.79-0.67 1.26-1.8 1.26-2.99 0-2.351-1.39-3.881-3.53-3.881zm0 0.82c1.58 0 2.6 1.2 2.6 3.04 0 1.761-1.051 2.961-2.591 2.961-1.549 0-2.589-1.2-2.589-3.001 0-1.8 1.04-3 2.58-3z"/>
 </g>
 <g id="g792" fill-rule="evenodd" transform="translate(14.5,198.37)">
  <path id="path794" d="m4.681 3.971v3.32h0.929v-7.291h-0.929v3.15h-3.751v-3.15h-0.93v7.291h0.941v-3.32h3.74z"/>
 </g>
 <g id="g796" stroke-linejoin="round" transform="translate(27.471,189.66)" stroke="#000" stroke-linecap="round" stroke-width=".59904" fill="none">
  <path id="path798" d="m4.32 0s-4.32 7.32-4.32 7.32"/>
 </g>
 <g id="g800" fill-rule="evenodd" transform="translate(6.55,173.25)">
  <path id="path802" d="m3.511 0c-2.091 0-3.511 1.54-3.511 3.82s1.42 3.821 3.52 3.821c0.88 0 1.67-0.27 2.261-0.77 0.79-0.67 1.26-1.8 1.26-2.99 0-2.351-1.39-3.881-3.53-3.881zm0 0.82c1.58 0 2.6 1.2 2.6 3.04 0 1.761-1.051 2.961-2.591 2.961-1.549 0-2.589-1.2-2.589-3.001 0-1.8 1.04-3 2.58-3z"/>
 </g>
 <g id="g804" fill-rule="evenodd" transform="translate(0,173.37)">
  <path id="path806" d="m4.681 3.971v3.32h0.929v-7.291h-0.929v3.15h-3.751v-3.15h-0.93v7.291h0.941v-3.32h3.74z"/>
 </g>
 <g id="g808" stroke-linejoin="round" transform="translate(15.591,177.18)" stroke="#000" stroke-linecap="round" stroke-width=".59904" fill="none">
  <path id="path810" d="m9 0h-9"/>
 </g>
 <g id="g812" fill-rule="evenodd" transform="translate(21.05,148.5)">
  <path id="path814" d="m3.511 0c-2.091 0-3.511 1.54-3.511 3.82s1.42 3.821 3.52 3.821c0.88 0 1.67-0.27 2.261-0.77 0.79-0.67 1.26-1.8 1.26-2.99 0-2.351-1.39-3.881-3.53-3.881zm0 0.82c1.58 0 2.6 1.2 2.6 3.04 0 1.761-1.051 2.961-2.591 2.961-1.549 0-2.589-1.2-2.589-3.001 0-1.8 1.04-3 2.58-3z"/>
 </g>
 <g id="g816" fill-rule="evenodd" transform="translate(14.5,148.62)">
  <path id="path818" d="m4.681 3.971v3.32h0.929v-7.291h-0.929v3.15h-3.751v-3.15h-0.93v7.291h0.941v-3.32h3.74z"/>
 </g>
 <g id="g820" stroke-linejoin="round" transform="translate(27.711,157.74)" stroke="#000" stroke-linecap="round" stroke-width=".59904" fill="none">
  <path id="path822" d="m4.08 7.08-4.08-7.08"/>
 </g>
 <g id="g824" stroke-linejoin="round" transform="translate(110.99,102.9)" stroke="#000" stroke-linecap="round" stroke-width=".59904" fill="none">
  <path id="path826" d="m4.2 7.32s-4.2-7.32-4.2-7.32"/>
 </g>
 <g id="g828" stroke-linejoin="round" transform="translate(96.591,102.9)" stroke="#000" stroke-linecap="round" stroke-width=".59904" fill="none">
  <path id="path830" d="m14.4 0h-14.4"/>
 </g>
 <g id="g832" fill-rule="evenodd" transform="translate(114.55,86.5)">
  <path id="path834" d="m3.511 0c-2.091 0-3.511 1.54-3.511 3.82s1.42 3.821 3.52 3.821c0.88 0 1.67-0.27 2.261-0.77 0.79-0.67 1.26-1.8 1.26-2.99 0-2.351-1.39-3.881-3.53-3.881zm0 0.82c1.58 0 2.6 1.2 2.6 3.04 0 1.761-1.051 2.961-2.591 2.961-1.549 0-2.589-1.2-2.589-3.001 0-1.8 1.04-3 2.58-3z"/>
 </g>
 <g id="g836" stroke-linejoin="round" transform="translate(111.71,96.42)" stroke="#000" stroke-linecap="round" stroke-width=".59904" fill="none">
  <path id="path838" d="m0 7.68s4.44-7.68 4.44-7.68"/>
 </g>
 <g id="g840" stroke-linejoin="round" transform="translate(109.55,95.1)" stroke="#000" stroke-linecap="round" stroke-width=".59904" fill="none">
  <path id="path842" d="m0 7.8s4.44-7.8 4.44-7.8"/>
 </g>
 <g id="g844" stroke-linejoin="round" transform="translate(89.511,90.54)" stroke="#000" stroke-linecap="round" stroke-width=".59904" fill="none">
  <path id="path846" d="m7.08 12.36-7.08-12.36"/>
 </g>
 <g id="g848" stroke-linejoin="round" transform="translate(88.191,93.3)" stroke="#000" stroke-linecap="round" stroke-width=".59904" fill="none">
  <path id="path850" d="m5.4 9.48s-5.4-9.48-5.4-9.48"/>
 </g>
 <g id="g852" stroke-linejoin="round" transform="translate(75.111,90.54)" stroke="#000" stroke-linecap="round" stroke-width=".59904" fill="none">
  <path id="path854" d="m14.4 0h-14.4"/>
 </g>
 <g id="g856" stroke-linejoin="round" transform="translate(67.911,90.54)" stroke="#000" stroke-linecap="round" stroke-width=".59904" fill="none">
  <path id="path858" d="m7.2 0-7.2 12.48"/>
 </g>
 <g id="g860" stroke-linejoin="round" transform="translate(70.911,93.3)" stroke="#000" stroke-linecap="round" stroke-width=".59904" fill="none">
  <path id="path862" d="m5.521 0s-5.521 9.6-5.521 9.6"/>
 </g>
 <g id="g864" stroke-linejoin="round" transform="translate(67.911,103.02)" stroke="#000" stroke-linecap="round" stroke-width=".59904" fill="none">
  <path id="path866" d="m0 0 7.321 12.48"/>
 </g>
 <g id="g868" stroke-linejoin="round" transform="translate(75.232,115.5)" stroke="#000" stroke-linecap="round" stroke-width=".59904" fill="none">
  <path id="path870" d="m0 0h14.279"/>
 </g>
 <g id="g872" stroke-linejoin="round" transform="translate(76.911,112.98)" stroke="#000" stroke-linecap="round" stroke-width=".59904" fill="none">
  <path id="path874" d="m0 0h10.92"/>
 </g>
 <g id="g876" stroke-linejoin="round" transform="translate(89.511,102.9)" stroke="#000" stroke-linecap="round" stroke-width=".59904" fill="none">
  <path id="path878" d="m0 12.6 7.08-12.6"/>
 </g>
 <g id="g880" fill-rule="evenodd" transform="translate(64.55,124)">
  <path id="path882" d="m3.511 0c-2.091 0-3.511 1.54-3.511 3.82s1.42 3.821 3.52 3.821c0.88 0 1.67-0.27 2.261-0.77 0.79-0.67 1.26-1.8 1.26-2.99 0-2.351-1.39-3.881-3.53-3.881zm0 0.82c1.58 0 2.6 1.2 2.6 3.04 0 1.761-1.051 2.961-2.591 2.961-1.549 0-2.589-1.2-2.589-3.001 0-1.8 1.04-3 2.58-3z"/>
 </g>
 <g id="g884" fill-rule="evenodd" transform="translate(57.75,124.12)">
  <path id="path886" d="m4.681 3.971v3.32h0.929v-7.291h-0.929v3.15h-3.751v-3.15h-0.93v7.291h0.941v-3.32h3.74z"/>
 </g>
 <g id="g888" stroke-linejoin="round" transform="translate(70.911,115.5)" stroke="#000" stroke-linecap="round" stroke-width=".59904" fill="none">
  <path id="path890" d="m4.321 0s-4.321 7.32-4.321 7.32"/>
 </g>
 <g id="g892" fill-rule="evenodd" transform="translate(50.05,99)">
  <path id="path894" d="m3.511 0c-2.091 0-3.511 1.54-3.511 3.82s1.42 3.821 3.52 3.821c0.88 0 1.67-0.27 2.261-0.77 0.79-0.67 1.26-1.8 1.26-2.99 0-2.351-1.39-3.881-3.53-3.881zm0 0.82c1.58 0 2.6 1.2 2.6 3.04 0 1.761-1.051 2.961-2.591 2.961-1.549 0-2.589-1.2-2.589-3.001 0-1.8 1.04-3 2.58-3z"/>
 </g>
 <g id="g896" fill-rule="evenodd" transform="translate(43.25,99.12)">
  <path id="path898" d="m4.681 3.971v3.32h0.929v-7.291h-0.929v3.15h-3.751v-3.15h-0.93v7.291h0.941v-3.32h3.74z"/>
 </g>
 <g id="g900" stroke-linejoin="round" transform="translate(58.911,103.02)" stroke="#000" stroke-linecap="round" stroke-width=".59904" fill="none">
  <path id="path902" d="m9 0h-9"/>
 </g>
 <g id="g904" fill-rule="evenodd" transform="translate(64.3,74.25)">
  <path id="path906" d="m3.511 0c-2.091 0-3.511 1.54-3.511 3.82s1.42 3.821 3.52 3.821c0.88 0 1.67-0.27 2.261-0.77 0.79-0.67 1.26-1.8 1.26-2.99 0-2.351-1.39-3.881-3.53-3.881zm0 0.82c1.58 0 2.6 1.2 2.6 3.04 0 1.761-1.051 2.961-2.591 2.961-1.549 0-2.589-1.2-2.589-3.001 0-1.8 1.04-3 2.58-3z"/>
 </g>
 <g id="g908" stroke-linejoin="round" transform="translate(71.031,83.342)" stroke="#000" stroke-linecap="round" stroke-width=".59904" fill="none">
  <path id="path910" d="m4.08 7.2-4.08-7.2"/>
 </g>
 <g id="g912" stroke-linejoin="round" transform="translate(70.791,65.462)" stroke="#000" stroke-linecap="round" stroke-width=".59904" fill="none">
  <path id="path914" d="m0 7.32s4.32-7.32 4.32-7.32"/>
 </g>
 <g id="g916" stroke-linejoin="round" transform="translate(67.791,53.102)" stroke="#000" stroke-linecap="round" stroke-width=".59904" fill="none">
  <path id="path918" d="m7.32 12.36-7.32-12.36"/>
 </g>
 <g id="g920" fill-rule="evenodd" transform="translate(86.05,61.5)">
  <path id="path922" d="m3.511 0c-2.091 0-3.511 1.54-3.511 3.82s1.42 3.821 3.52 3.821c0.88 0 1.67-0.27 2.261-0.77 0.79-0.67 1.26-1.8 1.26-2.99 0-2.351-1.39-3.881-3.53-3.881zm0 0.82c1.58 0 2.6 1.2 2.6 3.04 0 1.761-1.051 2.961-2.591 2.961-1.549 0-2.589-1.2-2.589-3.001 0-1.8 1.04-3 2.58-3z"/>
 </g>
 <g id="g924" stroke-linejoin="round" transform="translate(74.392,66.662)" stroke="#000" stroke-linecap="round" stroke-width=".59904" fill="none">
  <path id="path926" d="m0 0h9.719"/>
 </g>
 <g id="g928" stroke-linejoin="round" transform="translate(74.272,64.141)" stroke="#000" stroke-linecap="round" stroke-width=".59904" fill="none">
  <path id="path930" d="m0 0h9.839"/>
 </g>
 <g id="g932" stroke-linejoin="round" transform="translate(67.791,40.622)" stroke="#000" stroke-linecap="round" stroke-width=".59904" fill="none">
  <path id="path934" d="m0 12.48 7.32-12.48"/>
 </g>
 <g id="g936" stroke-linejoin="round" transform="translate(66.471,40.742)" stroke="#000" stroke-linecap="round" stroke-width=".59904" fill="none">
  <path id="path938" d="m0 9.6s5.64-9.6 5.64-9.6"/>
 </g>
 <g id="g940" stroke-linejoin="round" transform="translate(67.911,28.141)" stroke="#000" stroke-linecap="round" stroke-width=".59904" fill="none">
  <path id="path942" d="m7.2 12.481-7.2-12.481"/>
 </g>
 <g id="g944" stroke-linejoin="round" transform="translate(53.511,28.141)" stroke="#000" stroke-linecap="round" stroke-width=".59904" fill="none">
  <path id="path946" d="m14.4 0h-14.4"/>
 </g>
 <g id="g948" stroke-linejoin="round" transform="translate(55.191,30.662)" stroke="#000" stroke-linecap="round" stroke-width=".59904" fill="none">
  <path id="path950" d="m11.041 0h-11.041"/>
 </g>
 <g id="g952" stroke-linejoin="round" transform="translate(46.312,28.141)" stroke="#000" stroke-linecap="round" stroke-width=".59904" fill="none">
  <path id="path954" d="m7.199 0-7.199 12.601"/>
 </g>
 <g id="g956" stroke-linejoin="round" transform="translate(46.312,40.622)" stroke="#000" stroke-linecap="round" stroke-width=".59904" fill="none">
  <path id="path958" d="m0 0 7.199 12.48"/>
 </g>
 <g id="g960" stroke-linejoin="round" transform="translate(49.312,40.742)" stroke="#000" stroke-linecap="round" stroke-width=".59904" fill="none">
  <path id="path962" d="m0 0s5.519 9.6 5.519 9.6"/>
 </g>
 <g id="g964" stroke-linejoin="round" transform="translate(53.511,53.102)" stroke="#000" stroke-linecap="round" stroke-width=".59904" fill="none">
  <path id="path966" d="m0 0h14.28"/>
 </g>
 <g id="g968" fill-rule="evenodd" transform="translate(28.3,36.75)">
  <path id="path970" d="m3.511 0c-2.091 0-3.511 1.54-3.511 3.82s1.42 3.821 3.52 3.821c0.88 0 1.67-0.27 2.261-0.77 0.79-0.67 1.26-1.8 1.26-2.99 0-2.351-1.39-3.881-3.53-3.881zm0 0.82c1.58 0 2.6 1.2 2.6 3.04 0 1.761-1.051 2.961-2.591 2.961-1.549 0-2.589-1.2-2.589-3.001 0-1.8 1.04-3 2.58-3z"/>
 </g>
 <g id="g972" fill-rule="evenodd" transform="translate(21.5,36.87)">
  <path id="path974" d="m4.681 3.971v3.32h0.929v-7.291h-0.929v3.15h-3.751v-3.15h-0.93v7.291h0.941v-3.32h3.74z"/>
 </g>
 <g id="g976" stroke-linejoin="round" transform="translate(37.312,40.742)" stroke="#000" stroke-linecap="round" stroke-width=".59904" fill="none">
  <path id="path978" d="m9 0h-9"/>
 </g>
 <g id="g980" fill-rule="evenodd" transform="translate(42.55,11.75)">
  <path id="path982" d="m3.511 0c-2.091 0-3.511 1.54-3.511 3.8203 0 2.2798 1.42 3.8208 3.52 3.8208 0.88 0 1.67-0.27 2.261-0.77 0.79-0.67 1.26-1.8 1.26-2.9903 0-2.3506-1.39-3.8808-3.53-3.8808zm0 0.8203c1.58 0 2.6 1.2002 2.6 3.04 0 1.7608-1.051 2.9608-2.591 2.9608-1.549 0-2.589-1.2-2.589-3.0008 0-1.7998 1.04-3 2.58-3z"/>
 </g>
 <g id="g984" fill-rule="evenodd" transform="translate(36,11.87)">
  <path id="path986" d="m4.681 3.9707v3.3203h0.929v-7.291h-0.929v3.1504h-3.751v-3.1504h-0.93v7.291h0.941v-3.3203h3.74z"/>
 </g>
 <g id="g988" stroke-linejoin="round" transform="translate(49.312,21.062)" stroke="#000" stroke-linecap="round" stroke-width=".59904" fill="none">
  <path id="path990" d="m4.199 7.079s-4.199-7.079-4.199-7.079"/>
 </g>
 <g id="g992" fill-rule="evenodd" transform="translate(71.55,11.75)">
  <path id="path994" d="m3.511 0c-2.091 0-3.511 1.54-3.511 3.8203 0 2.2798 1.42 3.8208 3.52 3.8208 0.88 0 1.67-0.27 2.261-0.77 0.79-0.67 1.26-1.8 1.26-2.9903 0-2.3506-1.39-3.8808-3.53-3.8808zm0 0.8203c1.58 0 2.6 1.2002 2.6 3.04 0 1.7608-1.051 2.9608-2.591 2.9608-1.549 0-2.589-1.2-2.589-3.0008 0-1.7998 1.04-3 2.58-3z"/>
 </g>
 <g id="g996" fill-rule="evenodd" transform="translate(80,11.87)">
  <path id="path998" d="m4.681 3.9707v3.3203h0.929v-7.291h-0.929v3.1504h-3.751v-3.1504h-0.93v7.291h0.941v-3.3203h3.74z"/>
 </g>
 <g id="g1000" stroke-linejoin="round" transform="translate(67.911,21.062)" stroke="#000" stroke-linecap="round" stroke-width=".59904" fill="none">
  <path id="path1002" d="m0 7.079s3.96-7.079 3.96-7.079"/>
 </g>
 <metadata>
  <rdf:RDF>
   <cc:Work>
    <dc:format>image/svg+xml</dc:format>
    <dc:type rdf:resource="http://purl.org/dc/dcmitype/StillImage"/>
    <cc:license rdf:resource="http://creativecommons.org/licenses/publicdomain/"/>
    <dc:publisher>
     <cc:Agent rdf:about="http://openclipart.org/">
      <dc:title>Openclipart</dc:title>
     </cc:Agent>
    </dc:publisher>
   </cc:Work>
   <cc:License rdf:about="http://creativecommons.org/licenses/publicdomain/">
    <cc:permits rdf:resource="http://creativecommons.org/ns#Reproduction"/>
    <cc:permits rdf:resource="http://creativecommons.org/ns#Distribution"/>
    <cc:permits rdf:resource="http://creativecommons.org/ns#DerivativeWorks"/>
   </cc:License>
  </rdf:RDF>
 </metadata>
</svg>
