<?xml version="1.0"?>
<svg xmlns:rdf="http://www.w3.org/1999/02/22-rdf-syntax-ns#" xmlns="http://www.w3.org/2000/svg" xmlns:cc="http://web.resource.org/cc/" xmlns:dc="http://purl.org/dc/elements/1.1/" xml:space="preserve" height="290.68" width="430" version="1.0" viewBox="0 0 1730.283 1155.963">
<g transform="matrix(.93265 0 0 .93266 60.359 53.489)">
<polygon points="1367 588 1371 589.5 1371.5 594.5 1271 695.5 1267.5 687.5"/>
<polygon points="1367 447.5 1371 445.5 1375 448 1375 587.5 1371 589.5 1367 588"/>
<polygon points="1267.5 348 1271 340 1366.5 435.5 1371 445.5 1367 447.5"/>
<polygon points="1127 348 1125.5 344 1128 340 1271 340 1267.5 348"/>
<polygon points="879.5 649.5 871 653 890 510 893.99 508.5 897.5 511"/>
<polygon points="990 734 988.99 743.5 871 653 879.5 649.5"/>
<polygon points="1119 681 1122.5 683.5 1115.5 691 988.99 743.5 990 734"/>
<polygon points="1134.5 541 1138.5 539.5 1142 544 1127 680 1122.5 683.5 1119 681"/>
<polygon points="1026.5 458 1027 453 1033 452.5 1138 534 1138.5 539.5 1134.5 541"/>
<polygon points="897.5 511 893.99 508.5 894.5 504 1024.5 450 1027 453 1026.5 458"/>
<rect y="447.83" width="8.081" transform="matrix(.3722 .9281 -.9281 .3722 1077.7 -583.89)" x="966.46" height="113.85"/>
<polygon points="1120.5 343.5 1125.5 344 1127 348 1033 452.5 1027 453 1024.5 450"/>
<polygon points="1267.5 687.5 1271 695.5 1126 688 1122.5 683.5 1127 680"/>
<path d="m4.834-34.863c0-11.882 3.1901-21.183 9.57-27.906 6.38-6.721 14.616-10.082 24.707-10.083 6.608 0.001 12.565 1.579 17.871 4.737 5.306 3.157 9.351 7.56 12.134 13.208s4.175 12.052 4.175 19.214c0 7.259-1.465 13.753-4.395 19.482-2.929 5.729-7.08 10.067-12.451 13.013-5.371 2.9457-11.165 4.4187-17.383 4.4187-6.738 0-12.76-1.6276-18.066-4.8828s-9.326-7.6989-12.06-13.33c-2.7348-5.632-4.102-11.589-4.102-17.871zm9.766 0.146c0 8.627 2.319 15.422 6.958 20.386 4.638 4.9641 10.457 7.4462 17.456 7.4462 7.129 0 12.996-2.5065 17.602-7.5192 4.606-5.013 6.909-12.126 6.909-21.338 0-5.827-0.984-10.913-2.954-15.259-1.969-4.346-4.85-7.715-8.642-10.107-3.793-2.393-8.049-3.589-12.769-3.589-6.706 0-12.475 2.303-17.309 6.909s-7.251 12.297-7.251 23.071z" transform="translate(1027 252)"/>
<polygon points="1074 265.5 1101 253 1128 340 1125.5 344 1120.5 343.5"/>
<path d="m4.834-34.863c0-11.882 3.1901-21.183 9.57-27.906 6.38-6.721 14.616-10.082 24.707-10.083 6.608 0.001 12.565 1.579 17.871 4.737 5.306 3.157 9.351 7.56 12.134 13.208s4.175 12.052 4.175 19.214c0 7.259-1.465 13.753-4.395 19.482-2.929 5.729-7.08 10.067-12.451 13.013-5.371 2.9457-11.165 4.4187-17.383 4.4187-6.738 0-12.76-1.6276-18.066-4.8828s-9.326-7.6989-12.06-13.33c-2.7348-5.632-4.102-11.589-4.102-17.871zm9.766 0.146c0 8.627 2.319 15.422 6.958 20.386 4.638 4.9641 10.457 7.4462 17.456 7.4462 7.129 0 12.996-2.5065 17.602-7.5192 4.606-5.013 6.909-12.126 6.909-21.338 0-5.827-0.984-10.913-2.954-15.259-1.969-4.346-4.85-7.715-8.642-10.107-3.793-2.393-8.049-3.589-12.769-3.589-6.706 0-12.475 2.303-17.309 6.909s-7.251 12.297-7.251 23.071z" transform="translate(1284.5 250.5)"/>
<rect y="250.83" width="8.077" transform="matrix(-.9286 -.3712 .3712 -.9286 2345.4 1049.9)" x="1269.7" height="96.849"/>
<rect y="260.83" width="8.077" transform="matrix(-.9286 -.3712 .3712 -.9286 2388 1078.1)" x="1293.7" height="96.849"/>
<polygon points="1496 657 1496 661.5 1492.5 664.5 1371.5 594.5 1371 589.5 1375 587.5"/>
<polygon points="1616.5 587.5 1620.5 589.5 1618.5 595.5 1501.5 663 1496 661.5 1496 657"/>
<polygon points="1616.5 448 1624.5 443.5 1624.5 588.5 1620.5 589.5 1616.5 587.5"/>
<polygon points="1496 378.5 1496 373.5 1500 371.5 1624.5 443.5 1616.5 448"/>
<polygon points="1375 448 1371 445.5 1375.5 438.5 1491.5 371.5 1496 373.5 1496 378.5"/>
<path d="m4.834-34.863c0-11.882 3.1901-21.183 9.57-27.906 6.38-6.721 14.616-10.082 24.707-10.083 6.608 0.001 12.565 1.579 17.871 4.737 5.306 3.157 9.351 7.56 12.134 13.208s4.175 12.052 4.175 19.214c0 7.259-1.465 13.753-4.395 19.482-2.929 5.729-7.08 10.067-12.451 13.013-5.371 2.9457-11.165 4.4187-17.383 4.4187-6.738 0-12.76-1.6276-18.066-4.8828s-9.326-7.6989-12.06-13.33c-2.7348-5.632-4.102-11.589-4.102-17.871zm9.766 0.146c0 8.627 2.319 15.422 6.958 20.386 4.638 4.9641 10.457 7.4462 17.456 7.4462 7.129 0 12.996-2.5065 17.602-7.5192 4.606-5.013 6.909-12.126 6.909-21.338 0-5.827-0.984-10.913-2.954-15.259-1.969-4.346-4.85-7.715-8.642-10.107-3.793-2.393-8.049-3.589-12.769-3.589-6.706 0-12.475 2.303-17.309 6.909s-7.251 12.297-7.251 23.071z" transform="translate(1652.5 753.49)"/>
<polygon points="1578.5 775.5 1556.5 797.5 1492.5 664.5 1496 661.5 1501.5 663"/>
<polygon points="1647 736 1651 743 1556.5 797.5 1578.5 775.5"/>
<polygon points="1618.5 595.5 1620.5 589.5 1624.5 588.5 1682 666.5 1656 681.5"/>
<polygon points="1223 422.5 1226 425 1229.5 427.5 1146 536.5 1138.5 539.5 1138 534"/>
<polygon points="1282 554 1281.5 558 1281 562 1142 544 1138.5 539.5 1146 536.5"/>
<polygon points="1356 301.5 1371 301.5 1386 301.5 1375.5 438.5 1371 445.5 1366.5 435.5"/>
<path d="m4.834-34.863c0-11.882 3.1901-21.183 9.57-27.906 6.38-6.721 14.616-10.082 24.707-10.083 6.608 0.001 12.565 1.579 17.871 4.737 5.306 3.157 9.351 7.56 12.134 13.208s4.175 12.052 4.175 19.214c0 7.259-1.465 13.753-4.395 19.482-2.929 5.729-7.08 10.067-12.451 13.013-5.371 2.9457-11.165 4.4187-17.383 4.4187-6.738 0-12.76-1.6276-18.066-4.8828s-9.326-7.6989-12.06-13.33c-2.7348-5.632-4.102-11.589-4.102-17.871zm9.766 0.146c0 8.627 2.319 15.422 6.958 20.386 4.638 4.9641 10.457 7.4462 17.456 7.4462 7.129 0 12.996-2.5065 17.602-7.5192 4.606-5.013 6.909-12.126 6.909-21.338 0-5.827-0.984-10.913-2.954-15.259-1.969-4.346-4.85-7.715-8.642-10.107-3.793-2.393-8.049-3.589-12.769-3.589-6.706 0-12.475 2.303-17.309 6.909s-7.251 12.297-7.251 23.071zm71.142 34.717v-71.582h9.473v29.394h37.205v-29.394h9.47v71.582h-9.47v-33.74h-37.205v33.74h-9.473z" transform="translate(1456 269.01)"/>
<polygon points="1481 281.5 1511 281.5 1500 371.5 1496 373.5 1491.5 371.5"/>
<path d="m8.0078 0v-71.582h9.4722v29.394h37.208v-29.394h9.472v71.582h-9.472v-33.74h-37.208v33.74h-9.4722z" transform="translate(1335 772.5)"/>
<polygon points="1386 689.5 1356 689.5 1357 681.5 1385 681.5"/>
<polygon points="1383 666 1359.5 666 1360.5 658 1381.5 658"/>
<polygon points="1379.5 642 1362.5 642 1364 634 1378.5 634"/>
<polygon points="1376 618 1366 618 1367 610 1375 610"/>
<path d="m4.834-34.863c0-11.882 3.1901-21.183 9.57-27.906 6.38-6.721 14.616-10.082 24.707-10.083 6.608 0.001 12.565 1.579 17.871 4.737 5.306 3.157 9.351 7.56 12.134 13.208s4.175 12.052 4.175 19.214c0 7.259-1.465 13.753-4.395 19.482-2.929 5.729-7.08 10.067-12.451 13.013-5.371 2.9457-11.165 4.4187-17.383 4.4187-6.738 0-12.76-1.6276-18.066-4.8828s-9.326-7.6989-12.06-13.33c-2.7348-5.632-4.102-11.589-4.102-17.871zm9.766 0.146c0 8.627 2.319 15.422 6.958 20.386 4.638 4.9641 10.457 7.4462 17.456 7.4462 7.129 0 12.996-2.5065 17.602-7.5192 4.606-5.013 6.909-12.126 6.909-21.338 0-5.827-0.984-10.913-2.954-15.259-1.969-4.346-4.85-7.715-8.642-10.107-3.793-2.393-8.049-3.589-12.769-3.589-6.706 0-12.475 2.303-17.309 6.909s-7.251 12.297-7.251 23.071z" transform="translate(1418.5 840)"/>
<polygon points="1485 761 1456 753 1459 745.5 1486 752.5"/>
<polygon points="1487.5 737 1465 731 1468 723.5 1488.5 729"/>
<polygon points="1490.5 713.5 1474.5 709.5 1477.5 702 1491.5 705.5"/>
<polygon points="1493.5 690 1483.5 687.5 1486.5 680 1494.5 682"/>
<path d="m4.834-34.863c0-11.882 3.1901-21.183 9.57-27.906 6.38-6.721 14.616-10.082 24.707-10.083 6.608 0.001 12.565 1.579 17.871 4.737 5.306 3.157 9.351 7.56 12.134 13.208s4.175 12.052 4.175 19.214c0 7.259-1.465 13.753-4.395 19.482-2.929 5.729-7.08 10.067-12.451 13.013-5.371 2.9457-11.165 4.4187-17.383 4.4187-6.738 0-12.76-1.6276-18.066-4.8828s-9.326-7.6989-12.06-13.33c-2.7348-5.632-4.102-11.589-4.102-17.871zm9.766 0.146c0 8.627 2.319 15.422 6.958 20.386 4.638 4.9641 10.457 7.4462 17.456 7.4462 7.129 0 12.996-2.5065 17.602-7.5192 4.606-5.013 6.909-12.126 6.909-21.338 0-5.827-0.984-10.913-2.954-15.259-1.969-4.346-4.85-7.715-8.642-10.107-3.793-2.393-8.049-3.589-12.769-3.589-6.706 0-12.475 2.303-17.309 6.909s-7.251 12.297-7.251 23.071z" transform="translate(1229.5 874.5)"/>
<polygon points="1284.5 790 1254.5 790 1255.5 782 1283 782"/>
<polygon points="1281 766.5 1257.5 766.5 1258.5 758.5 1280 758.5"/>
<polygon points="1277.5 743 1261 743 1262 735 1276.5 735"/>
<polygon points="1274.5 719.5 1264 719.5 1265.5 711.5 1273.5 711.5"/>
<path d="m4.834-34.863c0-11.882 3.1901-21.183 9.57-27.906 6.38-6.721 14.616-10.082 24.707-10.083 6.608 0.001 12.565 1.579 17.871 4.737 5.306 3.157 9.351 7.56 12.134 13.208s4.175 12.052 4.175 19.214c0 7.259-1.465 13.753-4.395 19.482-2.929 5.729-7.08 10.067-12.451 13.013-5.371 2.9457-11.165 4.4187-17.383 4.4187-6.738 0-12.76-1.6276-18.066-4.8828s-9.326-7.6989-12.06-13.33c-2.7348-5.632-4.102-11.589-4.102-17.871zm9.766 0.146c0 8.627 2.319 15.422 6.958 20.386 4.638 4.9641 10.457 7.4462 17.456 7.4462 7.129 0 12.996-2.5065 17.602-7.5192 4.606-5.013 6.909-12.126 6.909-21.338 0-5.827-0.984-10.913-2.954-15.259-1.969-4.346-4.85-7.715-8.642-10.107-3.793-2.393-8.049-3.589-12.769-3.589-6.706 0-12.475 2.303-17.309 6.909s-7.251 12.297-7.251 23.071zm71.142 34.717v-71.582h9.473v29.394h37.205v-29.394h9.47v71.582h-9.47v-33.74h-37.205v33.74h-9.473z" transform="translate(1045.5 862)"/>
<polygon points="1111.5 782.5 1082.5 775 1115.5 691 1122.5 683.5 1126 688"/>
<polygon points="925 217 920.5 209 1019.5 209 1019.5 217"/>
<polygon points="1199.5 964.5 1195 956.5 1240 878.5 1247 882.5"/>
<path d="m4.834-34.863c0-11.882 3.1901-21.183 9.57-27.906 6.38-6.721 14.616-10.082 24.707-10.083 6.608 0.001 12.565 1.579 17.871 4.737 5.306 3.157 9.351 7.56 12.134 13.208s4.175 12.052 4.175 19.214c0 7.259-1.465 13.753-4.395 19.482-2.929 5.729-7.08 10.067-12.451 13.013-5.371 2.9457-11.165 4.4187-17.383 4.4187-6.738 0-12.76-1.6276-18.066-4.8828s-9.326-7.6989-12.06-13.33c-2.7348-5.632-4.102-11.589-4.102-17.871zm9.766 0.146c0 8.627 2.319 15.422 6.958 20.386 4.638 4.9641 10.457 7.4462 17.456 7.4462 7.129 0 12.996-2.5065 17.602-7.5192 4.606-5.013 6.909-12.126 6.909-21.338 0-5.827-0.984-10.913-2.954-15.259-1.969-4.346-4.85-7.715-8.642-10.107-3.793-2.393-8.049-3.589-12.769-3.589-6.706 0-12.475 2.303-17.309 6.909s-7.251 12.297-7.251 23.071z" transform="translate(1229 1123.5)"/>
<rect y="940.4" width="8.066" transform="matrix(.8681 -.4964 .4964 .8681 -330.33 741.86)" x="1226.7" height="104.19"/>
<rect y="953.53" width="8.066" transform="matrix(.8681 -.4964 .4964 .8681 -339.72 732.53)" x="1204.5" height="103.94"/>
<polygon points="1056 964.5 1054 960.5 1056 956.5 1195 956.5 1199.5 964.5"/>
<polygon points="979.5 839.5 983.99 831.5 1056 956.5 1054 960.5 1049 960.5"/>
<polygon points="963.5 863.5 970.5 859.5 1027.5 958.5 1020.5 962.5"/>
<polygon points="840 839.5 835.5 831.5 983.99 831.5 979.5 839.5"/>
<polygon points="770.5 960.5 761 960.5 835.5 831.5 840 839.5"/>
<polygon points="799 962.5 792 958.5 849.5 859.5 856 863.5"/>
<polygon points="840 1081 835.5 1089 761 960.5 770.5 960.5"/>
<polygon points="979.5 1081 983.99 1089 835.5 1089 840 1081"/>
<rect y="1055" width="114.5" x="852.5" height="7.998"/>
<polygon points="1049 960.5 1054 960.5 1056 964.5 983.99 1089 979.5 1081"/>
<polygon points="778 424 780 421 782.5 418 894.5 504 893.99 508.5 890 510"/>
<path d="m4.834-34.863c0-11.882 3.1901-21.183 9.57-27.906 6.38-6.721 14.616-10.082 24.707-10.083 6.608 0.001 12.565 1.579 17.871 4.737 5.306 3.157 9.351 7.56 12.134 13.208s4.175 12.052 4.175 19.214c0 7.259-1.465 13.753-4.395 19.482-2.929 5.729-7.08 10.067-12.451 13.013-5.371 2.9457-11.165 4.4187-17.383 4.4187-6.738 0-12.76-1.6276-18.066-4.8828s-9.326-7.6989-12.06-13.33c-2.7348-5.632-4.102-11.589-4.102-17.871zm9.766 0.146c0 8.627 2.319 15.422 6.958 20.386 4.638 4.9641 10.457 7.4462 17.456 7.4462 7.129 0 12.996-2.5065 17.602-7.5192 4.606-5.013 6.909-12.126 6.909-21.338 0-5.827-0.984-10.913-2.954-15.259-1.969-4.346-4.85-7.715-8.642-10.107-3.793-2.393-8.049-3.589-12.769-3.589-6.706 0-12.475 2.303-17.309 6.909s-7.251 12.297-7.251 23.071z" transform="translate(710.5 762)"/>
<polygon points="797 713.5 782 687.5 789.5 684.5 803.5 708.5"/>
<polygon points="816 699 804 678.5 811.5 675.5 822 694"/>
<polygon points="834.5 684.5 826.5 669.5 833.5 666.5 841 679.5"/>
<polygon points="853.5 669.5 848.5 660.5 856 657.5 860 664.5"/>
<polygon points="626.5 656 626.5 646.5 711.5 696 707.5 703"/>
<polygon points="502 727.5 502 718.5 626.5 646.5 626.5 656"/>
<path d="m4.834-34.863c0-11.882 3.1901-21.183 9.57-27.906 6.38-6.721 14.616-10.082 24.707-10.083 6.608 0.001 12.565 1.579 17.871 4.737 5.306 3.157 9.351 7.56 12.134 13.208s4.175 12.052 4.175 19.214c0 7.259-1.465 13.753-4.395 19.482-2.929 5.729-7.08 10.067-12.451 13.013-5.371 2.9457-11.165 4.4187-17.383 4.4187-6.738 0-12.76-1.6276-18.066-4.8828s-9.326-7.6989-12.06-13.33c-2.7348-5.632-4.102-11.589-4.102-17.871zm9.766 0.146c0 8.627 2.319 15.422 6.958 20.386 4.638 4.9641 10.457 7.4462 17.456 7.4462 7.129 0 12.996-2.5065 17.602-7.5192 4.606-5.013 6.909-12.126 6.909-21.338 0-5.827-0.984-10.913-2.954-15.259-1.969-4.346-4.85-7.715-8.642-10.107-3.793-2.393-8.049-3.589-12.769-3.589-6.706 0-12.475 2.303-17.309 6.909s-7.251 12.297-7.251 23.071z" transform="translate(586.5 547)"/>
<rect y="559.5" width="8.003" x="609.5" height="99.502"/>
<rect y="559.5" width="7.998" x="635" height="99.502"/>
<polygon points="377.5 656 377.5 646.5 502 718.5 502 727.5"/>
<polygon points="257.5 725.5 253.5 723 253.5 718.5 377.5 646.5 377.5 656"/>
<polygon points="128.5 655.5 128.5 646.5 253.5 718.5 253.5 723 249.5 725.5"/>
<polygon points="7.998 725.5 0 721 128.5 646.5 128.5 655.5"/>
<rect y="652.6" width="8.063" transform="matrix(.4959 .8684 -.8684 .4959 656.04 288.81)" x="75.216" height="113.8"/>
<polygon points="7.998 865 0 869.5 0 721 7.998 725.5"/>
<polygon points="128.5 934.5 128.5 943.5 0 869.5 7.998 865"/>
<rect y="823.59" width="8.063" transform="matrix(.4959 -.8684 .8684 .4959 -724.64 512.64)" x="75.216" height="113.8"/>
<polygon points="249.5 865 257.5 869.5 128.5 943.5 128.5 934.5"/>
<polygon points="249.5 725.5 253.5 723 257.5 725.5 257.5 869.5 249.5 865"/>
<rect y="738" width="8.003" x="223.5" height="114"/>
<path d="m4.834-34.863c0-11.882 3.1901-21.183 9.57-27.906 6.38-6.721 14.616-10.082 24.707-10.083 6.608 0.001 12.565 1.579 17.871 4.737 5.306 3.157 9.351 7.56 12.134 13.208s4.175 12.052 4.175 19.214c0 7.259-1.465 13.753-4.395 19.482-2.929 5.729-7.08 10.067-12.451 13.013-5.371 2.9457-11.165 4.4187-17.383 4.4187-6.738 0-12.76-1.6276-18.066-4.8828s-9.326-7.6989-12.06-13.33c-2.7348-5.632-4.102-11.589-4.102-17.871zm9.766 0.146c0 8.627 2.319 15.422 6.958 20.386 4.638 4.9641 10.457 7.4462 17.456 7.4462 7.129 0 12.996-2.5065 17.602-7.5192 4.606-5.013 6.909-12.126 6.909-21.338 0-5.827-0.984-10.913-2.954-15.259-1.969-4.346-4.85-7.715-8.642-10.107-3.793-2.393-8.049-3.589-12.769-3.589-6.706 0-12.475 2.303-17.309 6.909s-7.251 12.297-7.251 23.071zm71.142 34.717v-71.582h9.473v29.394h37.205v-29.394h9.47v71.582h-9.47v-33.74h-37.205v33.74h-9.473z" transform="translate(462 905.5)"/>
<polygon points="517 821 487 821 488 813 516 813"/>
<polygon points="513.5 798 490.5 798 491.5 790 512.5 790"/>
<polygon points="510.5 774.5 493.5 774.5 494.5 766.5 509.5 766.5"/>
<polygon points="507 751 497 751 498 743 506 743"/>
<path d="m7.6172 0v-71.582h9.7168l37.598 56.201v-56.201h9.082v71.582h-9.717l-37.598-56.25v56.25h-9.0818zm72.656 0v-71.582h9.473v29.394h37.204v-29.394h9.48v71.582h-9.48v-33.74h-37.204v33.74h-9.473z" transform="translate(342.5 547)"/>
<polygon points="362.5 559 392.5 559 391.5 567 364 567"/>
<polygon points="366 580.5 389.5 580.5 388 588.5 367 588.5"/>
<polygon points="369 602 386 602 385 610 370.5 610"/>
<polygon points="372.5 623.5 383 623.5 381.5 631.5 373.5 631.5"/>
<polygon points="249.5 438.5 257.5 434 335 478.5 331 485.5"/>
<polygon points="249.5 295 253.5 292.5 257.5 295 257.5 434 249.5 438.5"/>
<path d="m4.834-34.863c0-11.882 3.1901-21.183 9.57-27.906 6.38-6.721 14.616-10.082 24.707-10.083 6.608 0.001 12.565 1.579 17.871 4.737 5.306 3.157 9.351 7.56 12.134 13.208s4.175 12.052 4.175 19.214c0 7.259-1.465 13.753-4.395 19.482-2.929 5.729-7.08 10.067-12.451 13.013-5.371 2.9457-11.165 4.4187-17.383 4.4187-6.738 0-12.76-1.6276-18.066-4.8828s-9.326-7.6989-12.06-13.33c-2.7348-5.632-4.102-11.589-4.102-17.871zm9.766 0.146c0 8.627 2.319 15.422 6.958 20.386 4.638 4.9641 10.457 7.4462 17.456 7.4462 7.129 0 12.996-2.5065 17.602-7.5192 4.606-5.013 6.909-12.126 6.909-21.338 0-5.827-0.984-10.913-2.954-15.259-1.969-4.346-4.85-7.715-8.642-10.107-3.793-2.393-8.049-3.589-12.769-3.589-6.706 0-12.475 2.303-17.309 6.909s-7.251 12.297-7.251 23.071z" transform="translate(89.502 547)"/>
<rect y="416.91" width="8.059" transform="matrix(.4962 .8682 -.8682 .4962 519.14 45.346)" x="216.47" height="106.17"/>
<polygon points="163.5 477.5 159.5 471 251.5 417.5 255.5 424.5"/>
<polygon points="374 218.5 382 223 257.5 295 253.5 292.5 253.5 288"/>
<polygon points="374 78.999 382 74.502 382 223 374 218.5"/>
<rect y="91.499" width="7.998" x="348" height="114"/>
<polygon points="253.5 8.999 253.5 0 382 74.502 374 78.999"/>
<polygon points="132.5 78.999 124.5 74.502 253.5 0 253.5 8.999"/>
<rect y="5.882" width="8.059" transform="matrix(.4962 .8682 -.8682 .4962 157.47 -145.37)" x="199.97" height="114.24"/>
<polygon points="132.5 218.5 124.5 223 124.5 74.502 132.5 78.999"/>
<polygon points="253.5 288 253.5 292.5 249.5 295 124.5 223 132.5 218.5"/>
<rect y="176.88" width="8.063" transform="matrix(.4959 -.8684 .8684 .4959 -100.37 295.09)" x="199.97" height="114.24"/>
<path d="m4.834-34.863c0-11.882 3.1901-21.183 9.57-27.906 6.38-6.721 14.616-10.082 24.707-10.083 6.608 0.001 12.565 1.579 17.871 4.737 5.306 3.157 9.351 7.56 12.134 13.208s4.175 12.052 4.175 19.214c0 7.259-1.465 13.753-4.395 19.482-2.929 5.729-7.08 10.067-12.451 13.013-5.371 2.9457-11.165 4.4187-17.383 4.4187-6.738 0-12.76-1.6276-18.066-4.8828s-9.326-7.6989-12.06-13.33c-2.7348-5.632-4.102-11.589-4.102-17.871zm9.766 0.146c0 8.627 2.319 15.422 6.958 20.386 4.638 4.9641 10.457 7.4462 17.456 7.4462 7.129 0 12.996-2.5065 17.602-7.5192 4.606-5.013 6.909-12.126 6.909-21.338 0-5.827-0.984-10.913-2.954-15.259-1.969-4.346-4.85-7.715-8.642-10.107-3.793-2.393-8.049-3.589-12.769-3.589-6.706 0-12.475 2.303-17.309 6.909s-7.251 12.297-7.251 23.071z" transform="translate(810.99 127.5)"/>
<rect y="132.2" width="8.059" transform="matrix(-.8682 .4962 -.4962 -.8682 1753.7 -100.8)" x="886.22" height="100.59"/>
<polygon points="883.99 128 891 124 941 211 934.5 215"/>
<polygon points="854.5 339 851 337 847.5 335 920.5 209 925 217"/>
<polygon points="1533 921.5 1528 929.5 1480.5 846.5 1487.5 842.5"/>
<path d="m4.834-34.863c0-11.882 3.1901-21.183 9.57-27.906 6.38-6.721 14.616-10.082 24.707-10.083 6.608 0.001 12.565 1.579 17.871 4.737 5.306 3.157 9.351 7.56 12.134 13.208s4.175 12.052 4.175 19.214c0 7.259-1.465 13.753-4.395 19.482-2.929 5.729-7.08 10.067-12.451 13.013-5.371 2.9457-11.165 4.4187-17.383 4.4187-6.738 0-12.76-1.6276-18.066-4.8828s-9.326-7.6989-12.06-13.33c-2.7348-5.632-4.102-11.589-4.102-17.871zm9.766 0.146c0 8.627 2.319 15.422 6.958 20.386 4.638 4.9641 10.457 7.4462 17.456 7.4462 7.129 0 12.996-2.5065 17.602-7.5192 4.606-5.013 6.909-12.126 6.909-21.338 0-5.827-0.984-10.913-2.954-15.259-1.969-4.346-4.85-7.715-8.642-10.107-3.793-2.393-8.049-3.589-12.769-3.589-6.706 0-12.475 2.303-17.309 6.909s-7.251 12.297-7.251 23.071z" transform="translate(1419 1089)"/>
<polygon points="1496 1019 1489 1015 1542 923.5 1549 927.5"/>
<polygon points="1474 1006 1467 1002 1519.5 910.5 1526.5 914.5"/>
<polygon points="1674 921.5 1674 925.5 1674 929.5 1528 929.5 1533 921.5"/>
</g>
<metadata><rdf:RDF><cc:Work><dc:format>image/svg+xml</dc:format><dc:type rdf:resource="http://purl.org/dc/dcmitype/StillImage"/><cc:license rdf:resource="http://creativecommons.org/licenses/publicdomain/"/><dc:publisher><cc:Agent rdf:about="http://openclipart.org/"><dc:title>Openclipart</dc:title></cc:Agent></dc:publisher></cc:Work><cc:License rdf:about="http://creativecommons.org/licenses/publicdomain/"><cc:permits rdf:resource="http://creativecommons.org/ns#Reproduction"/><cc:permits rdf:resource="http://creativecommons.org/ns#Distribution"/><cc:permits rdf:resource="http://creativecommons.org/ns#DerivativeWorks"/></cc:License></rdf:RDF></metadata></svg>
