<?xml version="1.0"?>
<svg xmlns:rdf="http://www.w3.org/1999/02/22-rdf-syntax-ns#" xmlns="http://www.w3.org/2000/svg" xmlns:cc="http://creativecommons.org/ns#" xmlns:dc="http://purl.org/dc/elements/1.1/" id="svg2" xml:space="preserve" height="260.69" width="400" version="1.0" viewBox="0 0 1609.559 1036.6882">
<g id="g4" transform="matrix(.93265 0 0 .93266 0 -6.8541)">
<polygon id="polygon6" points="1271 695.5 1267.5 687.5 1367 588 1371 589.5 1371.5 594.5"/>
<polygon id="polygon8" points="1375 587.5 1371 589.5 1367 588 1367 447.5 1371 445.5 1375 448"/>
<polygon id="polygon10" points="1371 445.5 1367 447.5 1267.5 348 1271 340 1366.5 435.5"/>
<polygon id="polygon12" points="1271 340 1267.5 348 1127 348 1125.5 344 1128 340"/>
<polygon id="polygon14" points="893.99 508.5 897.5 511 879.5 649.5 871 653 890 510"/>
<polygon id="polygon16" points="879.5 649.5 990 734 988.99 743.5 871 653"/>
<polygon id="polygon18" points="988.99 743.5 990 734 1119 681 1122.5 683.5 1115.5 691"/>
<polygon id="polygon20" points="1127 680 1122.5 683.5 1119 681 1134.5 541 1138.5 539.5 1142 544"/>
<polygon id="polygon22" points="1138 534 1138.5 539.5 1134.5 541 1026.5 458 1027 453 1033 452.5"/>
<polygon id="polygon24" points="1024.5 450 1027 453 1026.5 458 897.5 511 893.99 508.5 894.5 504"/>
<rect id="rect26" transform="matrix(.3722 .9281 -.9281 .3722 1077.7 -583.89)" height="113.85" width="8.081" y="447.83" x="966.46"/>
<polygon id="polygon28" points="1033 452.5 1027 453 1024.5 450 1120.5 343.5 1125.5 344 1127 348"/>
<polygon id="polygon30" points="1122.5 683.5 1127 680 1267.5 687.5 1271 695.5 1126 688"/>
<path id="path32" d="m4.834-34.863c0-11.882 3.1901-21.183 9.57-27.906 6.38-6.721 14.616-10.082 24.707-10.083 6.608 0.001 12.565 1.579 17.871 4.737 5.306 3.157 9.351 7.56 12.134 13.208s4.175 12.052 4.175 19.214c0 7.259-1.465 13.753-4.395 19.482-2.929 5.729-7.08 10.067-12.451 13.013-5.371 2.9457-11.165 4.4187-17.383 4.4187-6.738 0-12.76-1.6276-18.066-4.8828s-9.326-7.6989-12.06-13.33c-2.7348-5.632-4.102-11.589-4.102-17.871zm9.766 0.146c0 8.627 2.319 15.422 6.958 20.386 4.638 4.9641 10.457 7.4462 17.456 7.4462 7.129 0 12.996-2.5065 17.602-7.5192 4.606-5.013 6.909-12.126 6.909-21.338 0-5.827-0.984-10.913-2.954-15.259-1.969-4.346-4.85-7.715-8.642-10.107-3.793-2.393-8.049-3.589-12.769-3.589-6.706 0-12.475 2.303-17.309 6.909s-7.251 12.297-7.251 23.071z" transform="translate(1027,252)"/>
<polygon id="polygon34" points="1125.5 344 1120.5 343.5 1074 265.5 1101 253 1128 340"/>
<path id="path36" d="m4.834-34.863c0-11.882 3.1901-21.183 9.57-27.906 6.38-6.721 14.616-10.082 24.707-10.083 6.608 0.001 12.565 1.579 17.871 4.737 5.306 3.157 9.351 7.56 12.134 13.208s4.175 12.052 4.175 19.214c0 7.259-1.465 13.753-4.395 19.482-2.929 5.729-7.08 10.067-12.451 13.013-5.371 2.9457-11.165 4.4187-17.383 4.4187-6.738 0-12.76-1.6276-18.066-4.8828s-9.326-7.6989-12.06-13.33c-2.7348-5.632-4.102-11.589-4.102-17.871zm9.766 0.146c0 8.627 2.319 15.422 6.958 20.386 4.638 4.9641 10.457 7.4462 17.456 7.4462 7.129 0 12.996-2.5065 17.602-7.5192 4.606-5.013 6.909-12.126 6.909-21.338 0-5.827-0.984-10.913-2.954-15.259-1.969-4.346-4.85-7.715-8.642-10.107-3.793-2.393-8.049-3.589-12.769-3.589-6.706 0-12.475 2.303-17.309 6.909s-7.251 12.297-7.251 23.071z" transform="translate(1284.5,250.5)"/>
<rect id="rect38" transform="matrix(-.9286 -.3712 .3712 -.9286 2345.4 1049.9)" height="96.849" width="8.077" y="250.83" x="1269.7"/>
<rect id="rect40" transform="matrix(-.9286 -.3712 .3712 -.9286 2388 1078.1)" height="96.849" width="8.077" y="260.83" x="1293.7"/>
<polygon id="polygon42" points="1371.5 594.5 1371 589.5 1375 587.5 1496 657 1496 661.5 1492.5 664.5"/>
<polygon id="polygon44" points="1501.5 663 1496 661.5 1496 657 1616.5 587.5 1620.5 589.5 1618.5 595.5"/>
<polygon id="polygon46" points="1620.5 589.5 1616.5 587.5 1616.5 448 1624.5 443.5 1624.5 588.5"/>
<polygon id="polygon48" points="1624.5 443.5 1616.5 448 1496 378.5 1496 373.5 1500 371.5"/>
<polygon id="polygon50" points="1491.5 371.5 1496 373.5 1496 378.5 1375 448 1371 445.5 1375.5 438.5"/>
<path id="path52" d="m4.834-34.863c0-11.882 3.1901-21.183 9.57-27.906 6.38-6.721 14.616-10.082 24.707-10.083 6.608 0.001 12.565 1.579 17.871 4.737 5.306 3.157 9.351 7.56 12.134 13.208s4.175 12.052 4.175 19.214c0 7.259-1.465 13.753-4.395 19.482-2.929 5.729-7.08 10.067-12.451 13.013-5.371 2.9457-11.165 4.4187-17.383 4.4187-6.738 0-12.76-1.6276-18.066-4.8828s-9.326-7.6989-12.06-13.33c-2.7348-5.632-4.102-11.589-4.102-17.871zm9.766 0.146c0 8.627 2.319 15.422 6.958 20.386 4.638 4.9641 10.457 7.4462 17.456 7.4462 7.129 0 12.996-2.5065 17.602-7.5192 4.606-5.013 6.909-12.126 6.909-21.338 0-5.827-0.984-10.913-2.954-15.259-1.969-4.346-4.85-7.715-8.642-10.107-3.793-2.393-8.049-3.589-12.769-3.589-6.706 0-12.475 2.303-17.309 6.909s-7.251 12.297-7.251 23.071z" transform="translate(1652.5,753.49)"/>
<polygon id="polygon54" points="1496 661.5 1501.5 663 1578.5 775.5 1556.5 797.5 1492.5 664.5"/>
<polygon id="polygon56" points="1578.5 775.5 1647 736 1651 743 1556.5 797.5"/>
<polygon id="polygon58" points="1682 666.5 1656 681.5 1618.5 595.5 1620.5 589.5 1624.5 588.5"/>
<polygon id="polygon60" points="1146 536.5 1138.5 539.5 1138 534 1223 422.5 1226 425 1229.5 427.5"/>
<polygon id="polygon62" points="1142 544 1138.5 539.5 1146 536.5 1282 554 1281.5 558 1281 562"/>
<polygon id="polygon64" points="1375.5 438.5 1371 445.5 1366.5 435.5 1356 301.5 1371 301.5 1386 301.5"/>
<path id="path66" d="m4.834-34.863c0-11.882 3.1901-21.183 9.57-27.906 6.38-6.721 14.616-10.082 24.707-10.083 6.608 0.001 12.565 1.579 17.871 4.737 5.306 3.157 9.351 7.56 12.134 13.208s4.175 12.052 4.175 19.214c0 7.259-1.465 13.753-4.395 19.482-2.929 5.729-7.08 10.067-12.451 13.013-5.371 2.9457-11.165 4.4187-17.383 4.4187-6.738 0-12.76-1.6276-18.066-4.8828s-9.326-7.6989-12.06-13.33c-2.7348-5.632-4.102-11.589-4.102-17.871zm9.766 0.146c0 8.627 2.319 15.422 6.958 20.386 4.638 4.9641 10.457 7.4462 17.456 7.4462 7.129 0 12.996-2.5065 17.602-7.5192 4.606-5.013 6.909-12.126 6.909-21.338 0-5.827-0.984-10.913-2.954-15.259-1.969-4.346-4.85-7.715-8.642-10.107-3.793-2.393-8.049-3.589-12.769-3.589-6.706 0-12.475 2.303-17.309 6.909s-7.251 12.297-7.251 23.071zm71.142 34.717v-71.582h9.473v29.394h37.205v-29.394h9.47v71.582h-9.47v-33.74h-37.205v33.74h-9.473z" transform="translate(1456,269.01)"/>
<polygon id="polygon68" points="1496 373.5 1491.5 371.5 1481 281.5 1511 281.5 1500 371.5"/>
<path id="path70" d="m8.0078 0v-71.582h9.4722v29.394h37.208v-29.394h9.472v71.582h-9.472v-33.74h-37.208v33.74h-9.4722z" transform="translate(1335,772.5)"/>
<polygon id="polygon72" points="1385 681.5 1386 689.5 1356 689.5 1357 681.5"/>
<polygon id="polygon74" points="1381.5 658 1383 666 1359.5 666 1360.5 658"/>
<polygon id="polygon76" points="1378.5 634 1379.5 642 1362.5 642 1364 634"/>
<polygon id="polygon78" points="1375 610 1376 618 1366 618 1367 610"/>
<path id="path80" d="m4.834-34.863c0-11.882 3.1901-21.183 9.57-27.906 6.38-6.721 14.616-10.082 24.707-10.083 6.608 0.001 12.565 1.579 17.871 4.737 5.306 3.157 9.351 7.56 12.134 13.208s4.175 12.052 4.175 19.214c0 7.259-1.465 13.753-4.395 19.482-2.929 5.729-7.08 10.067-12.451 13.013-5.371 2.9457-11.165 4.4187-17.383 4.4187-6.738 0-12.76-1.6276-18.066-4.8828s-9.326-7.6989-12.06-13.33c-2.7348-5.632-4.102-11.589-4.102-17.871zm9.766 0.146c0 8.627 2.319 15.422 6.958 20.386 4.638 4.9641 10.457 7.4462 17.456 7.4462 7.129 0 12.996-2.5065 17.602-7.5192 4.606-5.013 6.909-12.126 6.909-21.338 0-5.827-0.984-10.913-2.954-15.259-1.969-4.346-4.85-7.715-8.642-10.107-3.793-2.393-8.049-3.589-12.769-3.589-6.706 0-12.475 2.303-17.309 6.909s-7.251 12.297-7.251 23.071z" transform="translate(1418.5,840)"/>
<polygon id="polygon82" points="1486 752.5 1485 761 1456 753 1459 745.5"/>
<polygon id="polygon84" points="1488.5 729 1487.5 737 1465 731 1468 723.5"/>
<polygon id="polygon86" points="1491.5 705.5 1490.5 713.5 1474.5 709.5 1477.5 702"/>
<polygon id="polygon88" points="1494.5 682 1493.5 690 1483.5 687.5 1486.5 680"/>
<path id="path90" d="m4.834-34.863c0-11.882 3.1901-21.183 9.57-27.906 6.38-6.721 14.616-10.082 24.707-10.083 6.608 0.001 12.565 1.579 17.871 4.737 5.306 3.157 9.351 7.56 12.134 13.208s4.175 12.052 4.175 19.214c0 7.259-1.465 13.753-4.395 19.482-2.929 5.729-7.08 10.067-12.451 13.013-5.371 2.9457-11.165 4.4187-17.383 4.4187-6.738 0-12.76-1.6276-18.066-4.8828s-9.326-7.6989-12.06-13.33c-2.7348-5.632-4.102-11.589-4.102-17.871zm9.766 0.146c0 8.627 2.319 15.422 6.958 20.386 4.638 4.9641 10.457 7.4462 17.456 7.4462 7.129 0 12.996-2.5065 17.602-7.5192 4.606-5.013 6.909-12.126 6.909-21.338 0-5.827-0.984-10.913-2.954-15.259-1.969-4.346-4.85-7.715-8.642-10.107-3.793-2.393-8.049-3.589-12.769-3.589-6.706 0-12.475 2.303-17.309 6.909s-7.251 12.297-7.251 23.071z" transform="translate(1229.5,874.5)"/>
<polygon id="polygon92" points="1283 782 1284.5 790 1254.5 790 1255.5 782"/>
<polygon id="polygon94" points="1280 758.5 1281 766.5 1257.5 766.5 1258.5 758.5"/>
<polygon id="polygon96" points="1276.5 735 1277.5 743 1261 743 1262 735"/>
<polygon id="polygon98" points="1273.5 711.5 1274.5 719.5 1264 719.5 1265.5 711.5"/>
<path id="path100" d="m4.834-34.863c0-11.882 3.1901-21.183 9.57-27.906 6.38-6.721 14.616-10.082 24.707-10.083 6.608 0.001 12.565 1.579 17.871 4.737 5.306 3.157 9.351 7.56 12.134 13.208s4.175 12.052 4.175 19.214c0 7.259-1.465 13.753-4.395 19.482-2.929 5.729-7.08 10.067-12.451 13.013-5.371 2.9457-11.165 4.4187-17.383 4.4187-6.738 0-12.76-1.6276-18.066-4.8828s-9.326-7.6989-12.06-13.33c-2.7348-5.632-4.102-11.589-4.102-17.871zm9.766 0.146c0 8.627 2.319 15.422 6.958 20.386 4.638 4.9641 10.457 7.4462 17.456 7.4462 7.129 0 12.996-2.5065 17.602-7.5192 4.606-5.013 6.909-12.126 6.909-21.338 0-5.827-0.984-10.913-2.954-15.259-1.969-4.346-4.85-7.715-8.642-10.107-3.793-2.393-8.049-3.589-12.769-3.589-6.706 0-12.475 2.303-17.309 6.909s-7.251 12.297-7.251 23.071zm71.142 34.717v-71.582h9.473v29.394h37.205v-29.394h9.47v71.582h-9.47v-33.74h-37.205v33.74h-9.473z" transform="translate(1045.5,862)"/>
<polygon id="polygon102" points="1122.5 683.5 1126 688 1111.5 782.5 1082.5 775 1115.5 691"/>
<polygon id="polygon104" points="1019.5 217 925 217 920.5 209 1019.5 209"/>
<polygon id="polygon106" points="1247 882.5 1199.5 964.5 1195 956.5 1240 878.5"/>
<path id="path108" d="m4.834-34.863c0-11.882 3.1901-21.183 9.57-27.906 6.38-6.721 14.616-10.082 24.707-10.083 6.608 0.001 12.565 1.579 17.871 4.737 5.306 3.157 9.351 7.56 12.134 13.208s4.175 12.052 4.175 19.214c0 7.259-1.465 13.753-4.395 19.482-2.929 5.729-7.08 10.067-12.451 13.013-5.371 2.9457-11.165 4.4187-17.383 4.4187-6.738 0-12.76-1.6276-18.066-4.8828s-9.326-7.6989-12.06-13.33c-2.7348-5.632-4.102-11.589-4.102-17.871zm9.766 0.146c0 8.627 2.319 15.422 6.958 20.386 4.638 4.9641 10.457 7.4462 17.456 7.4462 7.129 0 12.996-2.5065 17.602-7.5192 4.606-5.013 6.909-12.126 6.909-21.338 0-5.827-0.984-10.913-2.954-15.259-1.969-4.346-4.85-7.715-8.642-10.107-3.793-2.393-8.049-3.589-12.769-3.589-6.706 0-12.475 2.303-17.309 6.909s-7.251 12.297-7.251 23.071z" transform="translate(1229,1123.5)"/>
<rect id="rect110" transform="matrix(.8681 -.4964 .4964 .8681 -330.33 741.86)" height="104.19" width="8.066" y="940.4" x="1226.7"/>
<rect id="rect112" transform="matrix(.8681 -.4964 .4964 .8681 -339.72 732.53)" height="103.94" width="8.066" y="953.53" x="1204.5"/>
<polygon id="polygon114" points="1195 956.5 1199.5 964.5 1056 964.5 1054 960.5 1056 956.5"/>
<polygon id="polygon116" points="1054 960.5 1049 960.5 979.5 839.5 983.99 831.5 1056 956.5"/>
<polygon id="polygon118" points="1020.5 962.5 963.5 863.5 970.5 859.5 1027.5 958.5"/>
<polygon id="polygon120" points="979.5 839.5 840 839.5 835.5 831.5 983.99 831.5"/>
<polygon id="polygon122" points="840 839.5 770.5 960.5 761 960.5 835.5 831.5"/>
<polygon id="polygon124" points="856 863.5 799 962.5 792 958.5 849.5 859.5"/>
<polygon id="polygon126" points="770.5 960.5 840 1081 835.5 1089 761 960.5"/>
<polygon id="polygon128" points="840 1081 979.5 1081 983.99 1089 835.5 1089"/>
<rect id="rect130" y="1055" width="114.5" height="7.998" x="852.5"/>
<polygon id="polygon132" points="983.99 1089 979.5 1081 1049 960.5 1054 960.5 1056 964.5"/>
<polygon id="polygon134" points="894.5 504 893.99 508.5 890 510 778 424 780 421 782.5 418"/>
<path id="path136" d="m4.834-34.863c0-11.882 3.1901-21.183 9.57-27.906 6.38-6.721 14.616-10.082 24.707-10.083 6.608 0.001 12.565 1.579 17.871 4.737 5.306 3.157 9.351 7.56 12.134 13.208s4.175 12.052 4.175 19.214c0 7.259-1.465 13.753-4.395 19.482-2.929 5.729-7.08 10.067-12.451 13.013-5.371 2.9457-11.165 4.4187-17.383 4.4187-6.738 0-12.76-1.6276-18.066-4.8828s-9.326-7.6989-12.06-13.33c-2.7348-5.632-4.102-11.589-4.102-17.871zm9.766 0.146c0 8.627 2.319 15.422 6.958 20.386 4.638 4.9641 10.457 7.4462 17.456 7.4462 7.129 0 12.996-2.5065 17.602-7.5192 4.606-5.013 6.909-12.126 6.909-21.338 0-5.827-0.984-10.913-2.954-15.259-1.969-4.346-4.85-7.715-8.642-10.107-3.793-2.393-8.049-3.589-12.769-3.589-6.706 0-12.475 2.303-17.309 6.909s-7.251 12.297-7.251 23.071z" transform="translate(710.5,762)"/>
<polygon id="polygon138" points="803.5 708.5 797 713.5 782 687.5 789.5 684.5"/>
<polygon id="polygon140" points="822 694 816 699 804 678.5 811.5 675.5"/>
<polygon id="polygon142" points="841 679.5 834.5 684.5 826.5 669.5 833.5 666.5"/>
<polygon id="polygon144" points="860 664.5 853.5 669.5 848.5 660.5 856 657.5"/>
<polygon id="polygon146" points="707.5 703 626.5 656 626.5 646.5 711.5 696"/>
<polygon id="polygon148" points="626.5 656 502 727.5 502 718.5 626.5 646.5"/>
<path id="path150" d="m4.834-34.863c0-11.882 3.1901-21.183 9.57-27.906 6.38-6.721 14.616-10.082 24.707-10.083 6.608 0.001 12.565 1.579 17.871 4.737 5.306 3.157 9.351 7.56 12.134 13.208s4.175 12.052 4.175 19.214c0 7.259-1.465 13.753-4.395 19.482-2.929 5.729-7.08 10.067-12.451 13.013-5.371 2.9457-11.165 4.4187-17.383 4.4187-6.738 0-12.76-1.6276-18.066-4.8828s-9.326-7.6989-12.06-13.33c-2.7348-5.632-4.102-11.589-4.102-17.871zm9.766 0.146c0 8.627 2.319 15.422 6.958 20.386 4.638 4.9641 10.457 7.4462 17.456 7.4462 7.129 0 12.996-2.5065 17.602-7.5192 4.606-5.013 6.909-12.126 6.909-21.338 0-5.827-0.984-10.913-2.954-15.259-1.969-4.346-4.85-7.715-8.642-10.107-3.793-2.393-8.049-3.589-12.769-3.589-6.706 0-12.475 2.303-17.309 6.909s-7.251 12.297-7.251 23.071z" transform="translate(586.5,547)"/>
<rect id="rect152" y="559.5" width="8.003" height="99.502" x="609.5"/>
<rect id="rect154" y="559.5" width="7.998" height="99.502" x="635"/>
<polygon id="polygon156" points="502 727.5 377.5 656 377.5 646.5 502 718.5"/>
<polygon id="polygon158" points="377.5 646.5 377.5 656 257.5 725.5 253.5 723 253.5 718.5"/>
<polygon id="polygon160" points="253.5 723 249.5 725.5 128.5 655.5 128.5 646.5 253.5 718.5"/>
<polygon id="polygon162" points="128.5 655.5 7.998 725.5 0 721 128.5 646.5"/>
<rect id="rect164" transform="matrix(.4959 .8684 -.8684 .4959 656.04 288.81)" height="113.8" width="8.063" y="652.6" x="75.216"/>
<polygon id="polygon166" points="7.998 725.5 7.998 865 0 869.5 0 721"/>
<polygon id="polygon168" points="7.998 865 128.5 934.5 128.5 943.5 0 869.5"/>
<rect id="rect170" transform="matrix(.4959 -.8684 .8684 .4959 -724.64 512.64)" height="113.8" width="8.063" y="823.59" x="75.216"/>
<polygon id="polygon172" points="128.5 934.5 249.5 865 257.5 869.5 128.5 943.5"/>
<polygon id="polygon174" points="257.5 869.5 249.5 865 249.5 725.5 253.5 723 257.5 725.5"/>
<rect id="rect176" y="738" width="8.003" height="114" x="223.5"/>
<path id="path178" d="m4.834-34.863c0-11.882 3.1901-21.183 9.57-27.906 6.38-6.721 14.616-10.082 24.707-10.083 6.608 0.001 12.565 1.579 17.871 4.737 5.306 3.157 9.351 7.56 12.134 13.208s4.175 12.052 4.175 19.214c0 7.259-1.465 13.753-4.395 19.482-2.929 5.729-7.08 10.067-12.451 13.013-5.371 2.9457-11.165 4.4187-17.383 4.4187-6.738 0-12.76-1.6276-18.066-4.8828s-9.326-7.6989-12.06-13.33c-2.7348-5.632-4.102-11.589-4.102-17.871zm9.766 0.146c0 8.627 2.319 15.422 6.958 20.386 4.638 4.9641 10.457 7.4462 17.456 7.4462 7.129 0 12.996-2.5065 17.602-7.5192 4.606-5.013 6.909-12.126 6.909-21.338 0-5.827-0.984-10.913-2.954-15.259-1.969-4.346-4.85-7.715-8.642-10.107-3.793-2.393-8.049-3.589-12.769-3.589-6.706 0-12.475 2.303-17.309 6.909s-7.251 12.297-7.251 23.071zm71.142 34.717v-71.582h9.473v29.394h37.205v-29.394h9.47v71.582h-9.47v-33.74h-37.205v33.74h-9.473z" transform="translate(462,905.5)"/>
<polygon id="polygon180" points="516 813 517 821 487 821 488 813"/>
<polygon id="polygon182" points="512.5 790 513.5 798 490.5 798 491.5 790"/>
<polygon id="polygon184" points="509.5 766.5 510.5 774.5 493.5 774.5 494.5 766.5"/>
<polygon id="polygon186" points="506 743 507 751 497 751 498 743"/>
<path id="path188" d="m7.6172 0v-71.582h9.7168l37.598 56.201v-56.201h9.082v71.582h-9.717l-37.598-56.25v56.25h-9.0818zm72.656 0v-71.582h9.473v29.394h37.204v-29.394h9.48v71.582h-9.48v-33.74h-37.204v33.74h-9.473z" transform="translate(342.5,547)"/>
<polygon id="polygon190" points="364 567 362.5 559 392.5 559 391.5 567"/>
<polygon id="polygon192" points="367 588.5 366 580.5 389.5 580.5 388 588.5"/>
<polygon id="polygon194" points="370.5 610 369 602 386 602 385 610"/>
<polygon id="polygon196" points="373.5 631.5 372.5 623.5 383 623.5 381.5 631.5"/>
<polygon id="polygon198" points="331 485.5 249.5 438.5 257.5 434 335 478.5"/>
<polygon id="polygon200" points="257.5 434 249.5 438.5 249.5 295 253.5 292.5 257.5 295"/>
<path id="path202" d="m4.834-34.863c0-11.882 3.1901-21.183 9.57-27.906 6.38-6.721 14.616-10.082 24.707-10.083 6.608 0.001 12.565 1.579 17.871 4.737 5.306 3.157 9.351 7.56 12.134 13.208s4.175 12.052 4.175 19.214c0 7.259-1.465 13.753-4.395 19.482-2.929 5.729-7.08 10.067-12.451 13.013-5.371 2.9457-11.165 4.4187-17.383 4.4187-6.738 0-12.76-1.6276-18.066-4.8828s-9.326-7.6989-12.06-13.33c-2.7348-5.632-4.102-11.589-4.102-17.871zm9.766 0.146c0 8.627 2.319 15.422 6.958 20.386 4.638 4.9641 10.457 7.4462 17.456 7.4462 7.129 0 12.996-2.5065 17.602-7.5192 4.606-5.013 6.909-12.126 6.909-21.338 0-5.827-0.984-10.913-2.954-15.259-1.969-4.346-4.85-7.715-8.642-10.107-3.793-2.393-8.049-3.589-12.769-3.589-6.706 0-12.475 2.303-17.309 6.909s-7.251 12.297-7.251 23.071z" transform="translate(89.502,547)"/>
<rect id="rect204" transform="matrix(.4962 .8682 -.8682 .4962 519.14 45.346)" height="106.17" width="8.059" y="416.91" x="216.47"/>
<polygon id="polygon206" points="255.5 424.5 163.5 477.5 159.5 471 251.5 417.5"/>
<polygon id="polygon208" points="253.5 292.5 253.5 288 374 218.5 382 223 257.5 295"/>
<polygon id="polygon210" points="374 218.5 374 78.999 382 74.502 382 223"/>
<rect id="rect212" y="91.499" width="7.998" height="114" x="348"/>
<polygon id="polygon214" points="374 78.999 253.5 8.999 253.5 0 382 74.502"/>
<polygon id="polygon216" points="253.5 8.999 132.5 78.999 124.5 74.502 253.5 0"/>
<rect id="rect218" transform="matrix(.4962 .8682 -.8682 .4962 157.47 -145.37)" height="114.24" width="8.059" y="5.882" x="199.97"/>
<polygon id="polygon220" points="132.5 78.999 132.5 218.5 124.5 223 124.5 74.502"/>
<polygon id="polygon222" points="124.5 223 132.5 218.5 253.5 288 253.5 292.5 249.5 295"/>
<rect id="rect224" transform="matrix(.4959 -.8684 .8684 .4959 -100.37 295.09)" height="114.24" width="8.063" y="176.88" x="199.97"/>
<path id="path226" d="m4.834-34.863c0-11.882 3.1901-21.183 9.57-27.906 6.38-6.721 14.616-10.082 24.707-10.083 6.608 0.001 12.565 1.579 17.871 4.737 5.306 3.157 9.351 7.56 12.134 13.208s4.175 12.052 4.175 19.214c0 7.259-1.465 13.753-4.395 19.482-2.929 5.729-7.08 10.067-12.451 13.013-5.371 2.9457-11.165 4.4187-17.383 4.4187-6.738 0-12.76-1.6276-18.066-4.8828s-9.326-7.6989-12.06-13.33c-2.7348-5.632-4.102-11.589-4.102-17.871zm9.766 0.146c0 8.627 2.319 15.422 6.958 20.386 4.638 4.9641 10.457 7.4462 17.456 7.4462 7.129 0 12.996-2.5065 17.602-7.5192 4.606-5.013 6.909-12.126 6.909-21.338 0-5.827-0.984-10.913-2.954-15.259-1.969-4.346-4.85-7.715-8.642-10.107-3.793-2.393-8.049-3.589-12.769-3.589-6.706 0-12.475 2.303-17.309 6.909s-7.251 12.297-7.251 23.071z" transform="translate(810.99,127.5)"/>
<rect id="rect228" transform="matrix(-.8682 .4962 -.4962 -.8682 1753.7 -100.8)" height="100.59" width="8.059" y="132.2" x="886.22"/>
<polygon id="polygon230" points="934.5 215 883.99 128 891 124 941 211"/>
<polygon id="polygon232" points="920.5 209 925 217 854.5 339 851 337 847.5 335"/>
<polygon id="polygon234" points="1487.5 842.5 1533 921.5 1528 929.5 1480.5 846.5"/>
<path id="path236" d="m4.834-34.863c0-11.882 3.1901-21.183 9.57-27.906 6.38-6.721 14.616-10.082 24.707-10.083 6.608 0.001 12.565 1.579 17.871 4.737 5.306 3.157 9.351 7.56 12.134 13.208s4.175 12.052 4.175 19.214c0 7.259-1.465 13.753-4.395 19.482-2.929 5.729-7.08 10.067-12.451 13.013-5.371 2.9457-11.165 4.4187-17.383 4.4187-6.738 0-12.76-1.6276-18.066-4.8828s-9.326-7.6989-12.06-13.33c-2.7348-5.632-4.102-11.589-4.102-17.871zm9.766 0.146c0 8.627 2.319 15.422 6.958 20.386 4.638 4.9641 10.457 7.4462 17.456 7.4462 7.129 0 12.996-2.5065 17.602-7.5192 4.606-5.013 6.909-12.126 6.909-21.338 0-5.827-0.984-10.913-2.954-15.259-1.969-4.346-4.85-7.715-8.642-10.107-3.793-2.393-8.049-3.589-12.769-3.589-6.706 0-12.475 2.303-17.309 6.909s-7.251 12.297-7.251 23.071z" transform="translate(1419,1089)"/>
<polygon id="polygon238" points="1549 927.5 1496 1019 1489 1015 1542 923.5"/>
<polygon id="polygon240" points="1526.5 914.5 1474 1006 1467 1002 1519.5 910.5"/>
<polygon id="polygon242" points="1528 929.5 1533 921.5 1674 921.5 1674 925.5 1674 929.5"/>
</g>
<metadata><rdf:RDF><cc:Work><dc:format>image/svg+xml</dc:format><dc:type rdf:resource="http://purl.org/dc/dcmitype/StillImage"/><cc:license rdf:resource="http://creativecommons.org/licenses/publicdomain/"/><dc:publisher><cc:Agent rdf:about="http://openclipart.org/"><dc:title>Openclipart</dc:title></cc:Agent></dc:publisher></cc:Work><cc:License rdf:about="http://creativecommons.org/licenses/publicdomain/"><cc:permits rdf:resource="http://creativecommons.org/ns#Reproduction"/><cc:permits rdf:resource="http://creativecommons.org/ns#Distribution"/><cc:permits rdf:resource="http://creativecommons.org/ns#DerivativeWorks"/></cc:License></rdf:RDF></metadata></svg>
