<?xml version="1.0" encoding="UTF-8" standalone="no"?>
<!-- Created with Inkscape (http://www.inkscape.org/) -->
<svg
   xmlns:svg="http://www.w3.org/2000/svg"
   xmlns="http://www.w3.org/2000/svg"
   version="1.0"
   width="1815.4"
   height="1748.99"
   id="svg2">
  <defs
     id="defs4" />
  <g
     transform="translate(531.88009,361.01537)"
     id="layer1">
    <path
       d="M 449.3197,556.07923 L 513.2196,609.47878 L 520.4195,597.17888 L 527.6195,584.87899 L 449.3197,556.07923 L 449.3197,556.07923 z "
       style="fill:#000000;fill-opacity:1;fill-rule:nonzero;stroke:none"
       id="path2309" />
    <path
       d="M 449.3197,556.07923 L 449.3197,556.07923 L 513.2196,609.47878 L 520.4195,597.17888 L 527.6195,584.87899 L 449.3197,556.07923 L 449.3197,556.07923"
       style="fill:none;stroke:#000000;stroke-width:0.29999918px;stroke-linejoin:round;stroke-dasharray:none;stroke-opacity:1"
       id="path2311" />
    <path
       d="M 341.02,533.57942 L 224.6203,584.57899 L 231.5203,596.87888 L 238.4203,609.17878 L 341.02,533.57942 L 341.02,533.57942 z "
       style="fill:#000000;fill-opacity:1;fill-rule:nonzero;stroke:none"
       id="path2371" />
    <path
       d="M 341.02,533.57942 L 341.02,533.57942 L 224.6203,584.57899 L 231.5203,596.87888 L 238.4203,609.17878 L 341.02,533.57942 L 341.02,533.57942"
       style="fill:none;stroke:#000000;stroke-width:0.29999918px;stroke-linejoin:round;stroke-dasharray:none;stroke-opacity:1"
       id="path2373" />
    <path
       d="M -200.7785,680.87817 L -57.6789,763.67747 L 47.6208,703.07797 M 809.3187,930.47607 L 809.3187,763.67747 L 704.319,703.37797 M 953.6184,346.681 L 809.3187,263.2817 L 704.319,323.88119 M 520.4195,-70.31547 L 375.8199,13.08382 L 375.8199,137.28277 M -57.6789,97.08311 L -57.6789,263.2817 L 47.6208,324.18119 M 231.5203,596.87888 L 126.5206,657.47837 M 245.6203,621.47868 L 127.1206,689.57807 M 217.4204,572.57909 L 104.6207,637.67854 M 520.4195,-70.31547 L 520.4195,-194.51442 M 562.4194,-261.41386 L 664.7191,-320.51333 M 231.5203,430.08029 L 126.5206,369.7808 M 217.4204,454.68009 L 104.0207,389.28064 M 245.6203,405.7805 L 127.1206,337.68108 M 953.6184,346.681 L 1056.5181,287.5815 M 375.8199,722.87777 L 375.8199,804.47717 M 404.0198,722.87777 L 404.0198,804.47717 M 347.62,722.87777 L 347.62,804.47717 M 1140.2178,287.8815 L 1242.5176,346.681 M 323.9201,500.8797 L 338.92,475.07991 M 304.7201,489.77979 L 319.7201,463.98001 M 285.5202,478.67988 L 300.5201,452.8801 M 266.3202,467.57998 L 281.3202,441.7802 M 247.1203,456.48007 L 262.1202,430.68029 M 227.9203,445.38016 L 242.9203,419.58038 M 375.8199,889.67637 L 375.8199,1013.8754 L 231.2203,1097.2747 M 809.3187,930.47607 L 911.9185,989.87557 M 953.6184,1056.475 L 953.6184,1180.674 M 452.0197,452.28011 L 467.0197,478.37989 M 471.2197,441.1802 L 486.2196,467.27998 M 490.4196,430.08029 L 505.4196,455.88008 M 509.6196,418.98039 L 524.6195,444.78017 M -200.7785,680.87817 L -304.5782,739.97767 M -388.278,739.67767 L -490.8777,680.27817 M 520.4195,430.08029 L 625.4192,369.48081 M 506.3196,405.7805 L 624.5192,337.68108 M 534.5195,454.68009 L 647.6192,389.28064 M -57.6789,97.08311 L -159.9786,37.68361 M 520.4195,596.87888 L 625.4192,657.77837 M 534.5195,572.57909 L 647.0192,637.67854 M 506.3196,621.47868 L 624.5192,689.57807 M 375.8199,304.08136 L 375.8199,222.48205 M 347.62,304.08136 L 347.62,222.48205 M 404.0198,304.08136 L 404.0198,222.48205 M 231.2203,1097.2747 L 231.2203,1221.4736 M 189.8204,1288.0731 L 86.9207,1347.4726 M -201.9785,-29.51582 L -201.9785,-153.71477 M -57.6789,97.08311 L 109.1206,97.08311 M -57.6789,97.08311 L 25.7209,-47.51567 M 809.3187,930.47607 L 642.5192,930.47607 M 809.3187,930.47607 L 725.919,1075.0749 M -200.7785,680.87817 L -117.3787,536.2794 M -200.7785,680.87817 L -284.1783,536.2794 M 953.6184,346.681 L 870.2186,491.27978 M 953.6184,346.681 L 1037.0181,491.27978 M 231.2203,1097.2747 L 147.8205,952.67587 M 231.2203,1097.2747 L 64.4208,1097.2747 M 520.4195,-70.31547 L 603.8193,74.2833 M 520.4195,-70.31547 L 687.2191,-70.31547"
       style="fill:none;stroke:#000000;stroke-width:5.99998379px;stroke-linejoin:round;stroke-opacity:1"
       id="path2295" />
    <path
       d="M 375.14523,384.14995 L 375.14523,462.34936"
       style="fill:none;fill-opacity:0.75;fill-rule:evenodd;stroke:#000000;stroke-width:6;stroke-linecap:butt;stroke-linejoin:miter;stroke-miterlimit:4;stroke-dasharray:24, 6;stroke-dashoffset:0;stroke-opacity:1"
       id="path2646" />
    <path
       d="M 375.14523,555.86914 L 375.14523,633.0584"
       style="fill:none;fill-opacity:0.75;fill-rule:evenodd;stroke:#000000;stroke-width:6;stroke-linecap:butt;stroke-linejoin:miter;stroke-miterlimit:4;stroke-dasharray:24, 6;stroke-dashoffset:0;stroke-opacity:1"
       id="path3618" />
    <text
       x="344.78809"
       y="545.22137"
       style="font-size:99px;font-style:normal;font-variant:normal;font-weight:normal;font-stretch:normal;text-align:start;line-height:100%;writing-mode:lr-tb;text-anchor:start;fill:#000000;fill-opacity:1;stroke:none;stroke-width:1px;stroke-linecap:butt;stroke-linejoin:miter;stroke-opacity:1;font-family:Arial"
       id="text3620"
       xml:space="preserve"><tspan
         x="344.78809"
         y="545.22137"
         id="tspan3622">Tc</tspan></text>
    <text
       x="339.43097"
       y="379.50708"
       style="font-size:99px;font-style:normal;font-variant:normal;font-weight:normal;font-stretch:normal;text-align:start;line-height:100%;writing-mode:lr-tb;text-anchor:start;fill:#000000;fill-opacity:1;stroke:none;stroke-width:1px;stroke-linecap:butt;stroke-linejoin:miter;stroke-opacity:1;font-family:Arial"
       id="text3624"
       xml:space="preserve"><tspan
         x="339.43097"
         y="379.50708"
         id="tspan3626">C</tspan></text>
    <text
       x="339.43097"
       y="710.57855"
       style="font-size:99px;font-style:normal;font-variant:normal;font-weight:normal;font-stretch:normal;text-align:start;line-height:100%;writing-mode:lr-tb;text-anchor:start;fill:#000000;fill-opacity:1;stroke:none;stroke-width:1px;stroke-linecap:butt;stroke-linejoin:miter;stroke-opacity:1;font-family:Arial"
       id="text3628"
       xml:space="preserve"><tspan
         x="339.43097"
         y="710.57855"
         id="tspan3630">C</tspan></text>
    <text
       x="339.43097"
       y="210.89606"
       style="font-size:99px;font-style:normal;font-variant:normal;font-weight:normal;font-stretch:normal;text-align:start;line-height:100%;writing-mode:lr-tb;text-anchor:start;fill:#000000;fill-opacity:1;stroke:none;stroke-width:1px;stroke-linecap:butt;stroke-linejoin:miter;stroke-opacity:1;font-family:Arial"
       id="text3632"
       xml:space="preserve"><tspan
         x="339.43097"
         y="210.89606"
         id="tspan3634">N</tspan></text>
    <text
       x="339.43097"
       y="881.13232"
       style="font-size:99px;font-style:normal;font-variant:normal;font-weight:normal;font-stretch:normal;text-align:start;line-height:100%;writing-mode:lr-tb;text-anchor:start;fill:#000000;fill-opacity:1;stroke:none;stroke-width:1px;stroke-linecap:butt;stroke-linejoin:miter;stroke-opacity:1;font-family:Arial"
       id="text3636"
       xml:space="preserve"><tspan
         x="339.43097"
         y="881.13232"
         id="tspan3638">N</tspan></text>
    <text
       x="51.790035"
       y="378.03699"
       style="font-size:99px;font-style:normal;font-variant:normal;font-weight:normal;font-stretch:normal;text-align:start;line-height:100%;writing-mode:lr-tb;text-anchor:start;fill:#000000;fill-opacity:1;stroke:none;stroke-width:1px;stroke-linecap:butt;stroke-linejoin:miter;stroke-opacity:1;font-family:Arial"
       id="text3640"
       xml:space="preserve"><tspan
         x="51.790035"
         y="378.03699"
         id="tspan3642">N</tspan></text>
    <text
       x="628.08209"
       y="378.03699"
       style="font-size:99px;font-style:normal;font-variant:normal;font-weight:normal;font-stretch:normal;text-align:start;line-height:100%;writing-mode:lr-tb;text-anchor:start;fill:#000000;fill-opacity:1;stroke:none;stroke-width:1px;stroke-linecap:butt;stroke-linejoin:miter;stroke-opacity:1;font-family:Arial"
       id="text3644"
       xml:space="preserve"><tspan
         x="628.08209"
         y="378.03699"
         id="tspan3646">N</tspan></text>
    <text
       x="51.790035"
       y="715.68054"
       style="font-size:99px;font-style:normal;font-variant:normal;font-weight:normal;font-stretch:normal;text-align:start;line-height:100%;writing-mode:lr-tb;text-anchor:start;fill:#000000;fill-opacity:1;stroke:none;stroke-width:1px;stroke-linecap:butt;stroke-linejoin:miter;stroke-opacity:1;font-family:Arial"
       id="text3648"
       xml:space="preserve"><tspan
         x="51.790035"
         y="715.68054"
         id="tspan3650">N</tspan></text>
    <text
       x="628.08209"
       y="715.68054"
       style="font-size:99px;font-style:normal;font-variant:normal;font-weight:normal;font-stretch:normal;text-align:start;line-height:100%;writing-mode:lr-tb;text-anchor:start;fill:#000000;fill-opacity:1;stroke:none;stroke-width:1px;stroke-linecap:butt;stroke-linejoin:miter;stroke-opacity:1;font-family:Arial"
       id="text3652"
       xml:space="preserve"><tspan
         x="628.08209"
         y="715.68054"
         id="tspan3654">N</tspan></text>
    <text
       x="-237.7693"
       y="50.16473"
       style="font-size:99px;font-style:normal;font-variant:normal;font-weight:normal;font-stretch:normal;text-align:start;line-height:100%;writing-mode:lr-tb;text-anchor:start;fill:#000000;fill-opacity:1;stroke:none;stroke-width:1px;stroke-linecap:butt;stroke-linejoin:miter;stroke-opacity:1;font-family:Arial"
       id="text3656"
       xml:space="preserve"><tspan
         x="-237.7693"
         y="50.16473"
         id="tspan3658">O</tspan></text>
    <text
       x="481.11624"
       y="-203.60706"
       style="font-size:99px;font-style:normal;font-variant:normal;font-weight:normal;font-stretch:normal;text-align:start;line-height:100%;writing-mode:lr-tb;text-anchor:start;fill:#000000;fill-opacity:1;stroke:none;stroke-width:1px;stroke-linecap:butt;stroke-linejoin:miter;stroke-opacity:1;font-family:Arial"
       id="text3660"
       xml:space="preserve"><tspan
         x="481.11624"
         y="-203.60706"
         id="tspan3662">O</tspan></text>
    <text
       x="1058.9734"
       y="303.89294"
       style="font-size:99px;font-style:normal;font-variant:normal;font-weight:normal;font-stretch:normal;text-align:start;line-height:100%;writing-mode:lr-tb;text-anchor:start;fill:#000000;fill-opacity:1;stroke:none;stroke-width:1px;stroke-linecap:butt;stroke-linejoin:miter;stroke-opacity:1;font-family:Arial"
       id="text3664"
       xml:space="preserve"><tspan
         x="1058.9734"
         y="303.89294"
         id="tspan3666">O</tspan></text>
    <text
       x="-381.2052"
       y="794.96442"
       style="font-size:99px;font-style:normal;font-variant:normal;font-weight:normal;font-stretch:normal;text-align:start;line-height:100%;writing-mode:lr-tb;text-anchor:start;fill:#000000;fill-opacity:1;stroke:none;stroke-width:1px;stroke-linecap:butt;stroke-linejoin:miter;stroke-opacity:1;font-family:Arial"
       id="text3668"
       xml:space="preserve"><tspan
         x="-381.2052"
         y="794.96442"
         id="tspan3670">O</tspan></text>
    <text
       x="193.08049"
       y="1297.4644"
       style="font-size:99px;font-style:normal;font-variant:normal;font-weight:normal;font-stretch:normal;text-align:start;line-height:100%;writing-mode:lr-tb;text-anchor:start;fill:#000000;fill-opacity:1;stroke:none;stroke-width:1px;stroke-linecap:butt;stroke-linejoin:miter;stroke-opacity:1;font-family:Arial"
       id="text3672"
       xml:space="preserve"><tspan
         x="193.08049"
         y="1297.4644"
         id="tspan3674">O</tspan></text>
    <text
       x="912.76093"
       y="1042.4889"
       style="font-size:99px;font-style:normal;font-variant:normal;font-weight:normal;font-stretch:normal;text-align:start;line-height:100%;writing-mode:lr-tb;text-anchor:start;fill:#000000;fill-opacity:1;stroke:none;stroke-width:1px;stroke-linecap:butt;stroke-linejoin:miter;stroke-opacity:1;font-family:Arial"
       id="text3676"
       xml:space="preserve"><tspan
         x="912.76093"
         y="1042.4889"
         id="tspan3678">O</tspan></text>
  </g>
</svg>
