<?xml version="1.0" encoding="UTF-8" standalone="no"?>
<!-- Created with Inkscape (http://www.inkscape.org/) -->
<svg
   xmlns:dc="http://purl.org/dc/elements/1.1/"
   xmlns:cc="http://web.resource.org/cc/"
   xmlns:rdf="http://www.w3.org/1999/02/22-rdf-syntax-ns#"
   xmlns:svg="http://www.w3.org/2000/svg"
   xmlns="http://www.w3.org/2000/svg"
   xmlns:sodipodi="http://sodipodi.sourceforge.net/DTD/sodipodi-0.dtd"
   xmlns:inkscape="http://www.inkscape.org/namespaces/inkscape"
   width="500"
   height="350"
   id="svg2"
   sodipodi:version="0.32"
   inkscape:version="0.45"
   version="1.0"
   sodipodi:docname="Two-Slit Experiment Particles.svg"
   inkscape:output_extension="org.inkscape.output.svg.inkscape"
   sodipodi:docbase="C:\Documents and Settings\JJB\My Documents\My Pictures\Electronics\Illustrations\Materials"
   sodipodi:modified="true">
  <defs
     id="defs4">
    <linearGradient
       id="linearGradient7133">
      <stop
         style="stop-color:#000000;stop-opacity:1;"
         offset="0"
         id="stop7135" />
      <stop
         style="stop-color:#000000;stop-opacity:0;"
         offset="1"
         id="stop7137" />
    </linearGradient>
  </defs>
  <sodipodi:namedview
     id="base"
     pagecolor="#ffffff"
     bordercolor="#666666"
     borderopacity="1.0"
     gridtolerance="10000"
     guidetolerance="10"
     objecttolerance="50"
     inkscape:pageopacity="0.0"
     inkscape:pageshadow="2"
     inkscape:zoom="1.9371429"
     inkscape:cx="250"
     inkscape:cy="175"
     inkscape:document-units="px"
     inkscape:current-layer="layer1"
     width="500px"
     height="350px"
     gridspacingx="5px"
     gridspacingy="5px"
     showgrid="true"
     inkscape:grid-points="true"
     gridempspacing="4"
     inkscape:object-points="false"
     inkscape:window-width="1337"
     inkscape:window-height="874"
     inkscape:window-x="99"
     inkscape:window-y="-4" />
  <metadata
     id="metadata7">
    <rdf:RDF>
      <cc:Work
         rdf:about="">
        <dc:format>image/svg+xml</dc:format>
        <dc:type
           rdf:resource="http://purl.org/dc/dcmitype/StillImage" />
      </cc:Work>
    </rdf:RDF>
  </metadata>
  <g
     inkscape:label="Layer 1"
     inkscape:groupmode="layer"
     id="layer1">
    <path
       style="fill:none;fill-rule:evenodd;stroke:#000099;stroke-width:2;stroke-linecap:butt;stroke-linejoin:miter;stroke-miterlimit:4;stroke-dasharray:none;stroke-opacity:1"
       d="M 175.17281,125.50726 L 459.49107,125.50726"
       id="path4200" />
    <path
       sodipodi:type="arc"
       style="opacity:1;fill:#000080;fill-opacity:1;fill-rule:nonzero;stroke:#000000;stroke-width:2;stroke-linecap:butt;stroke-miterlimit:4;stroke-dasharray:none;stroke-opacity:1"
       id="path2162"
       sodipodi:cx="50"
       sodipodi:cy="175"
       sodipodi:rx="5"
       sodipodi:ry="5"
       d="M 55 175 A 5 5 0 1 1  45,175 A 5 5 0 1 1  55 175 z"
       transform="translate(314,-53.992737)" />
    <path
       style="fill:none;fill-rule:evenodd;stroke:#000000;stroke-width:2;stroke-linecap:butt;stroke-linejoin:miter;stroke-miterlimit:4;stroke-dasharray:none;stroke-opacity:1"
       d="M 170.5,10.163746 L 180.5,10.163746 L 180.5,120.50726 L 170.5,120.50726 L 170.5,10.163746 z "
       id="path4131" />
    <path
       style="fill:none;fill-rule:evenodd;stroke:#000000;stroke-width:2;stroke-linecap:butt;stroke-linejoin:miter;stroke-miterlimit:4;stroke-dasharray:none;stroke-opacity:1"
       d="M 170,129.95231 L 180,129.95231 L 180,180.00726 L 170,180.00726 L 170,129.95231 z "
       id="path4133" />
    <path
       style="fill:none;fill-rule:evenodd;stroke:#000000;stroke-width:2;stroke-linecap:butt;stroke-linejoin:miter;stroke-miterlimit:4;stroke-dasharray:none;stroke-opacity:1"
       d="M 170,190.00726 L 180,190.00726 L 180,299.94563 L 170,299.94563 L 170,190.00726 z "
       id="path4135" />
    <path
       style="fill:none;fill-rule:evenodd;stroke:#000000;stroke-width:2;stroke-linecap:butt;stroke-linejoin:miter;stroke-miterlimit:4;stroke-dasharray:none;stroke-opacity:1"
       d="M 300,9.998943 L 310,9.998943 L 310,299.9827 L 300,299.9827 L 300,9.998943 z "
       id="path4198" />
    <rect
       style="opacity:1;fill:none;fill-opacity:1;fill-rule:nonzero;stroke:#000000;stroke-width:2;stroke-linecap:butt;stroke-miterlimit:4;stroke-dasharray:none;stroke-opacity:1"
       id="rect5191"
       width="120"
       height="289.95099"
       x="340"
       y="10.007263" />
    <text
       xml:space="preserve"
       style="font-size:12px;font-style:normal;font-variant:normal;font-weight:normal;font-stretch:normal;text-align:center;line-height:100%;writing-mode:lr-tb;text-anchor:middle;fill:#000000;fill-opacity:1;stroke:none;stroke-width:1px;stroke-linecap:butt;stroke-linejoin:miter;stroke-opacity:1;font-family:Verdana"
       x="303.62668"
       y="317.96677"
       id="text8228"
       sodipodi:linespacing="100%"><tspan
         sodipodi:role="line"
         id="tspan8230"
         x="303.62668"
         y="317.96677">optical</tspan><tspan
         sodipodi:role="line"
         x="303.62668"
         y="329.96677"
         id="tspan8232">screen</tspan></text>
    <text
       xml:space="preserve"
       style="font-size:12px;font-style:normal;font-variant:normal;font-weight:normal;font-stretch:normal;text-align:center;line-height:100%;writing-mode:lr-tb;text-anchor:middle;fill:#000000;fill-opacity:1;stroke:none;stroke-width:1px;stroke-linecap:butt;stroke-linejoin:miter;stroke-opacity:1;font-family:Verdana"
       x="400.76294"
       y="317.62402"
       id="text8234"
       sodipodi:linespacing="100%"><tspan
         sodipodi:role="line"
         x="400.76294"
         y="317.62402"
         id="tspan8238">optical screen</tspan><tspan
         sodipodi:role="line"
         x="400.76294"
         y="329.62402"
         id="tspan8242">(front view)</tspan></text>
    <text
       xml:space="preserve"
       style="font-size:12px;font-style:normal;font-variant:normal;font-weight:normal;font-stretch:normal;text-align:center;line-height:100%;writing-mode:lr-tb;text-anchor:middle;fill:#000000;fill-opacity:1;stroke:none;stroke-width:1px;stroke-linecap:butt;stroke-linejoin:miter;stroke-opacity:1;font-family:Verdana"
       x="174.85645"
       y="318"
       id="text8244"
       sodipodi:linespacing="100%"><tspan
         sodipodi:role="line"
         id="tspan8246"
         x="174.85645"
         y="318"
         style="font-size:12px;font-style:normal;font-variant:normal;font-weight:normal;font-stretch:normal;text-align:center;line-height:100%;writing-mode:lr-tb;text-anchor:middle;font-family:Verdana">screen with</tspan><tspan
         sodipodi:role="line"
         x="174.85645"
         y="330"
         id="tspan8248"
         style="font-size:12px;font-style:normal;font-variant:normal;font-weight:normal;font-stretch:normal;text-align:center;line-height:100%;writing-mode:lr-tb;text-anchor:middle;font-family:Verdana">two slits</tspan></text>
    <text
       xml:space="preserve"
       style="font-size:12px;font-style:normal;font-variant:normal;font-weight:normal;font-stretch:normal;text-align:start;line-height:100%;writing-mode:lr-tb;text-anchor:start;fill:#000000;fill-opacity:1;stroke:none;stroke-width:1px;stroke-linecap:butt;stroke-linejoin:miter;stroke-opacity:1;font-family:Verdana"
       x="60"
       y="240"
       id="text8250"
       sodipodi:linespacing="100%"><tspan
         sodipodi:role="line"
         x="60"
         y="240"
         id="tspan2449">particles</tspan></text>
    <path
       style="fill:none;fill-rule:evenodd;stroke:#000099;stroke-width:2;stroke-linecap:butt;stroke-linejoin:miter;stroke-miterlimit:4;stroke-dasharray:none;stroke-opacity:1"
       d="M 175.68174,185.00726 L 460,185.00726"
       id="path2453" />
    <path
       sodipodi:type="arc"
       style="opacity:1;fill:#000080;fill-opacity:1;fill-rule:nonzero;stroke:#000000;stroke-width:2;stroke-linecap:butt;stroke-miterlimit:4;stroke-dasharray:none;stroke-opacity:1"
       id="path2455"
       sodipodi:cx="50"
       sodipodi:cy="175"
       sodipodi:rx="5"
       sodipodi:ry="5"
       d="M 55 175 A 5 5 0 1 1  45,175 A 5 5 0 1 1  55 175 z"
       transform="translate(321,-40.992737)" />
    <path
       sodipodi:type="arc"
       style="opacity:1;fill:#000080;fill-opacity:1;fill-rule:nonzero;stroke:#000000;stroke-width:2;stroke-linecap:butt;stroke-miterlimit:4;stroke-dasharray:none;stroke-opacity:1"
       id="path2457"
       sodipodi:cx="50"
       sodipodi:cy="175"
       sodipodi:rx="5"
       sodipodi:ry="5"
       d="M 55 175 A 5 5 0 1 1  45,175 A 5 5 0 1 1  55 175 z"
       transform="translate(334,-53.992737)" />
    <path
       sodipodi:type="arc"
       style="opacity:1;fill:#000080;fill-opacity:1;fill-rule:nonzero;stroke:#000000;stroke-width:2;stroke-linecap:butt;stroke-miterlimit:4;stroke-dasharray:none;stroke-opacity:1"
       id="path2459"
       sodipodi:cx="50"
       sodipodi:cy="175"
       sodipodi:rx="5"
       sodipodi:ry="5"
       d="M 55 175 A 5 5 0 1 1  45,175 A 5 5 0 1 1  55 175 z"
       transform="translate(359,-63.992737)" />
    <path
       sodipodi:type="arc"
       style="opacity:1;fill:#000080;fill-opacity:1;fill-rule:nonzero;stroke:#000000;stroke-width:2;stroke-linecap:butt;stroke-miterlimit:4;stroke-dasharray:none;stroke-opacity:1"
       id="path2461"
       sodipodi:cx="50"
       sodipodi:cy="175"
       sodipodi:rx="5"
       sodipodi:ry="5"
       d="M 55 175 A 5 5 0 1 1  45,175 A 5 5 0 1 1  55 175 z"
       transform="translate(359,-48.992737)" />
    <path
       sodipodi:type="arc"
       style="opacity:1;fill:#000080;fill-opacity:1;fill-rule:nonzero;stroke:#000000;stroke-width:2;stroke-linecap:butt;stroke-miterlimit:4;stroke-dasharray:none;stroke-opacity:1"
       id="path2463"
       sodipodi:cx="50"
       sodipodi:cy="175"
       sodipodi:rx="5"
       sodipodi:ry="5"
       d="M 55 175 A 5 5 0 1 1  45,175 A 5 5 0 1 1  55 175 z"
       transform="translate(346,-45.992737)" />
    <path
       sodipodi:type="arc"
       style="opacity:1;fill:#000080;fill-opacity:1;fill-rule:nonzero;stroke:#000000;stroke-width:2;stroke-linecap:butt;stroke-miterlimit:4;stroke-dasharray:none;stroke-opacity:1"
       id="path2465"
       sodipodi:cx="50"
       sodipodi:cy="175"
       sodipodi:rx="5"
       sodipodi:ry="5"
       d="M 55 175 A 5 5 0 1 1  45,175 A 5 5 0 1 1  55 175 z"
       transform="translate(371,-55.992737)" />
    <path
       sodipodi:type="arc"
       style="opacity:1;fill:#000080;fill-opacity:1;fill-rule:nonzero;stroke:#000000;stroke-width:2;stroke-linecap:butt;stroke-miterlimit:4;stroke-dasharray:none;stroke-opacity:1"
       id="path2467"
       sodipodi:cx="50"
       sodipodi:cy="175"
       sodipodi:rx="5"
       sodipodi:ry="5"
       d="M 55 175 A 5 5 0 1 1  45,175 A 5 5 0 1 1  55 175 z"
       transform="translate(384,-48.992737)" />
    <path
       sodipodi:type="arc"
       style="opacity:1;fill:#000080;fill-opacity:1;fill-rule:nonzero;stroke:#000000;stroke-width:2;stroke-linecap:butt;stroke-miterlimit:4;stroke-dasharray:none;stroke-opacity:1"
       id="path2469"
       sodipodi:cx="50"
       sodipodi:cy="175"
       sodipodi:rx="5"
       sodipodi:ry="5"
       d="M 55 175 A 5 5 0 1 1  45,175 A 5 5 0 1 1  55 175 z"
       transform="translate(399,-53.992737)" />
    <path
       sodipodi:type="arc"
       style="opacity:1;fill:#000080;fill-opacity:1;fill-rule:nonzero;stroke:#000000;stroke-width:2;stroke-linecap:butt;stroke-miterlimit:4;stroke-dasharray:none;stroke-opacity:1"
       id="path2471"
       sodipodi:cx="50"
       sodipodi:cy="175"
       sodipodi:rx="5"
       sodipodi:ry="5"
       d="M 55 175 A 5 5 0 1 1  45,175 A 5 5 0 1 1  55 175 z"
       transform="translate(386,-60.992737)" />
    <path
       sodipodi:type="arc"
       style="opacity:1;fill:#000080;fill-opacity:1;fill-rule:nonzero;stroke:#000000;stroke-width:2;stroke-linecap:butt;stroke-miterlimit:4;stroke-dasharray:none;stroke-opacity:1"
       id="path2473"
       sodipodi:cx="50"
       sodipodi:cy="175"
       sodipodi:rx="5"
       sodipodi:ry="5"
       d="M 55 175 A 5 5 0 1 1  45,175 A 5 5 0 1 1  55 175 z"
       transform="translate(396,-40.992737)" />
    <path
       sodipodi:type="arc"
       style="opacity:1;fill:#000080;fill-opacity:1;fill-rule:nonzero;stroke:#000000;stroke-width:2;stroke-linecap:butt;stroke-miterlimit:4;stroke-dasharray:none;stroke-opacity:1"
       id="path2475"
       sodipodi:cx="50"
       sodipodi:cy="175"
       sodipodi:rx="5"
       sodipodi:ry="5"
       d="M 55 175 A 5 5 0 1 1  45,175 A 5 5 0 1 1  55 175 z"
       transform="translate(398,1.5072632)" />
    <path
       sodipodi:type="arc"
       style="opacity:1;fill:#000080;fill-opacity:1;fill-rule:nonzero;stroke:#000000;stroke-width:2;stroke-linecap:butt;stroke-miterlimit:4;stroke-dasharray:none;stroke-opacity:1"
       id="path2477"
       sodipodi:cx="50"
       sodipodi:cy="175"
       sodipodi:rx="5"
       sodipodi:ry="5"
       d="M 55 175 A 5 5 0 1 1  45,175 A 5 5 0 1 1  55 175 z"
       transform="translate(398,16.507263)" />
    <path
       sodipodi:type="arc"
       style="opacity:1;fill:#000080;fill-opacity:1;fill-rule:nonzero;stroke:#000000;stroke-width:2;stroke-linecap:butt;stroke-miterlimit:4;stroke-dasharray:none;stroke-opacity:1"
       id="path2479"
       sodipodi:cx="50"
       sodipodi:cy="175"
       sodipodi:rx="5"
       sodipodi:ry="5"
       d="M 55 175 A 5 5 0 1 1  45,175 A 5 5 0 1 1  55 175 z"
       transform="translate(378,1.5072632)" />
    <path
       sodipodi:type="arc"
       style="opacity:1;fill:#000080;fill-opacity:1;fill-rule:nonzero;stroke:#000000;stroke-width:2;stroke-linecap:butt;stroke-miterlimit:4;stroke-dasharray:none;stroke-opacity:1"
       id="path2481"
       sodipodi:cx="50"
       sodipodi:cy="175"
       sodipodi:rx="5"
       sodipodi:ry="5"
       d="M 55 175 A 5 5 0 1 1  45,175 A 5 5 0 1 1  55 175 z"
       transform="translate(378,16.507263)" />
    <path
       sodipodi:type="arc"
       style="opacity:1;fill:#000080;fill-opacity:1;fill-rule:nonzero;stroke:#000000;stroke-width:2;stroke-linecap:butt;stroke-miterlimit:4;stroke-dasharray:none;stroke-opacity:1"
       id="path2483"
       sodipodi:cx="50"
       sodipodi:cy="175"
       sodipodi:rx="5"
       sodipodi:ry="5"
       d="M 55 175 A 5 5 0 1 1  45,175 A 5 5 0 1 1  55 175 z"
       transform="translate(363,1.5072632)" />
    <path
       sodipodi:type="arc"
       style="opacity:1;fill:#000080;fill-opacity:1;fill-rule:nonzero;stroke:#000000;stroke-width:2;stroke-linecap:butt;stroke-miterlimit:4;stroke-dasharray:none;stroke-opacity:1"
       id="path2485"
       sodipodi:cx="50"
       sodipodi:cy="175"
       sodipodi:rx="5"
       sodipodi:ry="5"
       d="M 55 175 A 5 5 0 1 1  45,175 A 5 5 0 1 1  55 175 z"
       transform="translate(353,6.5072632)" />
    <path
       sodipodi:type="arc"
       style="opacity:1;fill:#000080;fill-opacity:1;fill-rule:nonzero;stroke:#000000;stroke-width:2;stroke-linecap:butt;stroke-miterlimit:4;stroke-dasharray:none;stroke-opacity:1"
       id="path2487"
       sodipodi:cx="50"
       sodipodi:cy="175"
       sodipodi:rx="5"
       sodipodi:ry="5"
       d="M 55 175 A 5 5 0 1 1  45,175 A 5 5 0 1 1  55 175 z"
       transform="translate(341,3.5072632)" />
    <path
       sodipodi:type="arc"
       style="opacity:1;fill:#000080;fill-opacity:1;fill-rule:nonzero;stroke:#000000;stroke-width:2;stroke-linecap:butt;stroke-miterlimit:4;stroke-dasharray:none;stroke-opacity:1"
       id="path2491"
       sodipodi:cx="50"
       sodipodi:cy="175"
       sodipodi:rx="5"
       sodipodi:ry="5"
       d="M 55 175 A 5 5 0 1 1  45,175 A 5 5 0 1 1  55 175 z"
       transform="translate(327,2.5072632)" />
    <path
       sodipodi:type="arc"
       style="opacity:1;fill:#000080;fill-opacity:1;fill-rule:nonzero;stroke:#000000;stroke-width:2;stroke-linecap:butt;stroke-miterlimit:4;stroke-dasharray:none;stroke-opacity:1"
       id="path2493"
       sodipodi:cx="50"
       sodipodi:cy="175"
       sodipodi:rx="5"
       sodipodi:ry="5"
       d="M 55 175 A 5 5 0 1 1  45,175 A 5 5 0 1 1  55 175 z"
       transform="translate(318,11.507263)" />
    <path
       sodipodi:type="arc"
       style="opacity:1;fill:#000080;fill-opacity:1;fill-rule:nonzero;stroke:#000000;stroke-width:2;stroke-linecap:butt;stroke-miterlimit:4;stroke-dasharray:none;stroke-opacity:1"
       id="path2499"
       sodipodi:cx="50"
       sodipodi:cy="175"
       sodipodi:rx="5"
       sodipodi:ry="5"
       d="M 55 175 A 5 5 0 1 1  45,175 A 5 5 0 1 1  55 175 z"
       transform="translate(308,1.5072632)" />
    <path
       sodipodi:type="arc"
       style="opacity:1;fill:#000080;fill-opacity:1;fill-rule:nonzero;stroke:#000000;stroke-width:2;stroke-linecap:butt;stroke-miterlimit:4;stroke-dasharray:none;stroke-opacity:1"
       id="path2501"
       sodipodi:cx="50"
       sodipodi:cy="175"
       sodipodi:rx="5"
       sodipodi:ry="5"
       d="M 55 175 A 5 5 0 1 1  45,175 A 5 5 0 1 1  55 175 z"
       transform="translate(298,16.507263)" />
    <path
       sodipodi:type="arc"
       style="opacity:1;fill:#000080;fill-opacity:1;fill-rule:nonzero;stroke:#000000;stroke-width:2;stroke-linecap:butt;stroke-miterlimit:4;stroke-dasharray:none;stroke-opacity:1"
       id="path2503"
       sodipodi:cx="50"
       sodipodi:cy="175"
       sodipodi:rx="5"
       sodipodi:ry="5"
       d="M 55 175 A 5 5 0 1 1  45,175 A 5 5 0 1 1  55 175 z"
       transform="translate(308,21.507263)" />
    <path
       sodipodi:type="arc"
       style="opacity:1;fill:#000080;fill-opacity:1;fill-rule:nonzero;stroke:#000000;stroke-width:2;stroke-linecap:butt;stroke-miterlimit:4;stroke-dasharray:none;stroke-opacity:1"
       id="path2505"
       sodipodi:cx="50"
       sodipodi:cy="175"
       sodipodi:rx="5"
       sodipodi:ry="5"
       d="M 55 175 A 5 5 0 1 1  45,175 A 5 5 0 1 1  55 175 z"
       transform="translate(328,21.507263)" />
    <path
       sodipodi:type="arc"
       style="opacity:1;fill:#000080;fill-opacity:1;fill-rule:nonzero;stroke:#000000;stroke-width:2;stroke-linecap:butt;stroke-miterlimit:4;stroke-dasharray:none;stroke-opacity:1"
       id="path2507"
       sodipodi:cx="50"
       sodipodi:cy="175"
       sodipodi:rx="5"
       sodipodi:ry="5"
       d="M 55 175 A 5 5 0 1 1  45,175 A 5 5 0 1 1  55 175 z"
       transform="translate(343,16.507263)" />
    <path
       sodipodi:type="arc"
       style="opacity:1;fill:#000080;fill-opacity:1;fill-rule:nonzero;stroke:#000000;stroke-width:2;stroke-linecap:butt;stroke-miterlimit:4;stroke-dasharray:none;stroke-opacity:1"
       id="path2509"
       sodipodi:cx="50"
       sodipodi:cy="175"
       sodipodi:rx="5"
       sodipodi:ry="5"
       d="M 55 175 A 5 5 0 1 1  45,175 A 5 5 0 1 1  55 175 z"
       transform="translate(353,16.507263)" />
    <path
       sodipodi:type="arc"
       style="opacity:1;fill:#000080;fill-opacity:1;fill-rule:nonzero;stroke:#000000;stroke-width:2;stroke-linecap:butt;stroke-miterlimit:4;stroke-dasharray:none;stroke-opacity:1"
       id="path2511"
       sodipodi:cx="50"
       sodipodi:cy="175"
       sodipodi:rx="5"
       sodipodi:ry="5"
       d="M 55 175 A 5 5 0 1 1  45,175 A 5 5 0 1 1  55 175 z"
       transform="translate(366,13.507263)" />
    <path
       sodipodi:type="arc"
       style="opacity:1;fill:#000080;fill-opacity:1;fill-rule:nonzero;stroke:#000000;stroke-width:2;stroke-linecap:butt;stroke-miterlimit:4;stroke-dasharray:none;stroke-opacity:1"
       id="path2513"
       sodipodi:cx="50"
       sodipodi:cy="175"
       sodipodi:rx="5"
       sodipodi:ry="5"
       d="M 55 175 A 5 5 0 1 1  45,175 A 5 5 0 1 1  55 175 z"
       transform="translate(387,7.5072632)" />
    <path
       sodipodi:type="arc"
       style="opacity:1;fill:#000080;fill-opacity:1;fill-rule:nonzero;stroke:#000000;stroke-width:2;stroke-linecap:butt;stroke-miterlimit:4;stroke-dasharray:none;stroke-opacity:1"
       id="path2515"
       sodipodi:cx="50"
       sodipodi:cy="175"
       sodipodi:rx="5"
       sodipodi:ry="5"
       d="M 55 175 A 5 5 0 1 1  45,175 A 5 5 0 1 1  55 175 z"
       transform="translate(325,-62.492737)" />
    <path
       sodipodi:type="arc"
       style="opacity:1;fill:#000080;fill-opacity:1;fill-rule:nonzero;stroke:#000000;stroke-width:2;stroke-linecap:butt;stroke-miterlimit:4;stroke-dasharray:none;stroke-opacity:1"
       id="path2517"
       sodipodi:cx="50"
       sodipodi:cy="175"
       sodipodi:rx="5"
       sodipodi:ry="5"
       d="M 55 175 A 5 5 0 1 1  45,175 A 5 5 0 1 1  55 175 z"
       transform="translate(306,-40.992737)" />
    <path
       sodipodi:type="arc"
       style="opacity:1;fill:#000080;fill-opacity:1;fill-rule:nonzero;stroke:#000000;stroke-width:2;stroke-linecap:butt;stroke-miterlimit:4;stroke-dasharray:none;stroke-opacity:1"
       id="path2519"
       sodipodi:cx="50"
       sodipodi:cy="175"
       sodipodi:rx="5"
       sodipodi:ry="5"
       d="M 55 175 A 5 5 0 1 1  45,175 A 5 5 0 1 1  55 175 z"
       transform="translate(334,-38.992737)" />
    <path
       sodipodi:type="arc"
       style="opacity:1;fill:#000080;fill-opacity:1;fill-rule:nonzero;stroke:#000000;stroke-width:2;stroke-linecap:butt;stroke-miterlimit:4;stroke-dasharray:none;stroke-opacity:1"
       id="path2521"
       sodipodi:cx="50"
       sodipodi:cy="175"
       sodipodi:rx="5"
       sodipodi:ry="5"
       d="M 55 175 A 5 5 0 1 1  45,175 A 5 5 0 1 1  55 175 z"
       transform="translate(371,-40.992737)" />
    <path
       sodipodi:type="arc"
       style="opacity:1;fill:#000080;fill-opacity:1;fill-rule:nonzero;stroke:#000000;stroke-width:2;stroke-linecap:butt;stroke-miterlimit:4;stroke-dasharray:none;stroke-opacity:1"
       id="path2523"
       sodipodi:cx="50"
       sodipodi:cy="175"
       sodipodi:rx="5"
       sodipodi:ry="5"
       d="M 55 175 A 5 5 0 1 1  45,175 A 5 5 0 1 1  55 175 z"
       transform="translate(299,-53.992737)" />
    <path
       sodipodi:type="arc"
       style="opacity:1;fill:#000080;fill-opacity:1;fill-rule:nonzero;stroke:#000000;stroke-width:2;stroke-linecap:butt;stroke-miterlimit:4;stroke-dasharray:none;stroke-opacity:1"
       id="path2525"
       sodipodi:cx="50"
       sodipodi:cy="175"
       sodipodi:rx="5"
       sodipodi:ry="5"
       d="M 55 175 A 5 5 0 1 1  45,175 A 5 5 0 1 1  55 175 z"
       transform="translate(345,-60.992737)" />
    <path
       sodipodi:type="arc"
       style="opacity:1;fill:#000080;fill-opacity:1;fill-rule:nonzero;stroke:#000000;stroke-width:2;stroke-linecap:butt;stroke-miterlimit:4;stroke-dasharray:none;stroke-opacity:1"
       id="path2527"
       sodipodi:cx="50"
       sodipodi:cy="175"
       sodipodi:rx="5"
       sodipodi:ry="5"
       d="M 55 175 A 5 5 0 1 1  45,175 A 5 5 0 1 1  55 175 z"
       transform="translate(-34,-30.992737)" />
    <path
       sodipodi:type="arc"
       style="opacity:1;fill:#000080;fill-opacity:1;fill-rule:nonzero;stroke:#000000;stroke-width:2;stroke-linecap:butt;stroke-miterlimit:4;stroke-dasharray:none;stroke-opacity:1"
       id="path2529"
       sodipodi:cx="50"
       sodipodi:cy="175"
       sodipodi:rx="5"
       sodipodi:ry="5"
       d="M 55 175 A 5 5 0 1 1  45,175 A 5 5 0 1 1  55 175 z"
       transform="translate(-16,1.0072632)" />
    <path
       sodipodi:type="arc"
       style="opacity:1;fill:#000080;fill-opacity:1;fill-rule:nonzero;stroke:#000000;stroke-width:2;stroke-linecap:butt;stroke-miterlimit:4;stroke-dasharray:none;stroke-opacity:1"
       id="path2531"
       sodipodi:cx="50"
       sodipodi:cy="175"
       sodipodi:rx="5"
       sodipodi:ry="5"
       d="M 55 175 A 5 5 0 1 1  45,175 A 5 5 0 1 1  55 175 z"
       transform="translate(1,14.007263)" />
    <path
       sodipodi:type="arc"
       style="opacity:1;fill:#000080;fill-opacity:1;fill-rule:nonzero;stroke:#000000;stroke-width:2;stroke-linecap:butt;stroke-miterlimit:4;stroke-dasharray:none;stroke-opacity:1"
       id="path2533"
       sodipodi:cx="50"
       sodipodi:cy="175"
       sodipodi:rx="5"
       sodipodi:ry="5"
       d="M 55 175 A 5 5 0 1 1  45,175 A 5 5 0 1 1  55 175 z"
       transform="translate(66,-45.992737)" />
    <path
       sodipodi:type="arc"
       style="opacity:1;fill:#000080;fill-opacity:1;fill-rule:nonzero;stroke:#000000;stroke-width:2;stroke-linecap:butt;stroke-miterlimit:4;stroke-dasharray:none;stroke-opacity:1"
       id="path2535"
       sodipodi:cx="50"
       sodipodi:cy="175"
       sodipodi:rx="5"
       sodipodi:ry="5"
       d="M 55 175 A 5 5 0 1 1  45,175 A 5 5 0 1 1  55 175 z"
       transform="translate(19,-8.9927368)" />
    <path
       sodipodi:type="arc"
       style="opacity:1;fill:#000080;fill-opacity:1;fill-rule:nonzero;stroke:#000000;stroke-width:2;stroke-linecap:butt;stroke-miterlimit:4;stroke-dasharray:none;stroke-opacity:1"
       id="path2537"
       sodipodi:cx="50"
       sodipodi:cy="175"
       sodipodi:rx="5"
       sodipodi:ry="5"
       d="M 55 175 A 5 5 0 1 1  45,175 A 5 5 0 1 1  55 175 z"
       transform="translate(42,-41.992737)" />
    <path
       sodipodi:type="arc"
       style="opacity:1;fill:#000080;fill-opacity:1;fill-rule:nonzero;stroke:#000000;stroke-width:2;stroke-linecap:butt;stroke-miterlimit:4;stroke-dasharray:none;stroke-opacity:1"
       id="path2541"
       sodipodi:cx="50"
       sodipodi:cy="175"
       sodipodi:rx="5"
       sodipodi:ry="5"
       d="M 55 175 A 5 5 0 1 1  45,175 A 5 5 0 1 1  55 175 z"
       transform="translate(90,-34.992737)" />
    <path
       sodipodi:type="arc"
       style="opacity:1;fill:#000080;fill-opacity:1;fill-rule:nonzero;stroke:#000000;stroke-width:2;stroke-linecap:butt;stroke-miterlimit:4;stroke-dasharray:none;stroke-opacity:1"
       id="path2543"
       sodipodi:cx="50"
       sodipodi:cy="175"
       sodipodi:rx="5"
       sodipodi:ry="5"
       d="M 55 175 A 5 5 0 1 1  45,175 A 5 5 0 1 1  55 175 z"
       transform="translate(104,-48.992737)" />
    <path
       sodipodi:type="arc"
       style="opacity:1;fill:#000080;fill-opacity:1;fill-rule:nonzero;stroke:#000000;stroke-width:2;stroke-linecap:butt;stroke-miterlimit:4;stroke-dasharray:none;stroke-opacity:1"
       id="path2545"
       sodipodi:cx="50"
       sodipodi:cy="175"
       sodipodi:rx="5"
       sodipodi:ry="5"
       d="M 55 175 A 5 5 0 1 1  45,175 A 5 5 0 1 1  55 175 z"
       transform="translate(82,-56.992737)" />
    <path
       sodipodi:type="arc"
       style="opacity:1;fill:#000080;fill-opacity:1;fill-rule:nonzero;stroke:#000000;stroke-width:2;stroke-linecap:butt;stroke-miterlimit:4;stroke-dasharray:none;stroke-opacity:1"
       id="path2547"
       sodipodi:cx="50"
       sodipodi:cy="175"
       sodipodi:rx="5"
       sodipodi:ry="5"
       d="M 55 175 A 5 5 0 1 1  45,175 A 5 5 0 1 1  55 175 z"
       transform="translate(76,-20.992737)" />
    <path
       sodipodi:type="arc"
       style="opacity:1;fill:#000080;fill-opacity:1;fill-rule:nonzero;stroke:#000000;stroke-width:2;stroke-linecap:butt;stroke-miterlimit:4;stroke-dasharray:none;stroke-opacity:1"
       id="path2549"
       sodipodi:cx="50"
       sodipodi:cy="175"
       sodipodi:rx="5"
       sodipodi:ry="5"
       d="M 55 175 A 5 5 0 1 1  45,175 A 5 5 0 1 1  55 175 z"
       transform="translate(19,-63.992737)" />
    <path
       sodipodi:type="arc"
       style="opacity:1;fill:#000080;fill-opacity:1;fill-rule:nonzero;stroke:#000000;stroke-width:2;stroke-linecap:butt;stroke-miterlimit:4;stroke-dasharray:none;stroke-opacity:1"
       id="path2551"
       sodipodi:cx="50"
       sodipodi:cy="175"
       sodipodi:rx="5"
       sodipodi:ry="5"
       d="M 55 175 A 5 5 0 1 1  45,175 A 5 5 0 1 1  55 175 z"
       transform="translate(-11,-28.992737)" />
    <path
       sodipodi:type="arc"
       style="opacity:1;fill:#000080;fill-opacity:1;fill-rule:nonzero;stroke:#000000;stroke-width:2;stroke-linecap:butt;stroke-miterlimit:4;stroke-dasharray:none;stroke-opacity:1"
       id="path2553"
       sodipodi:cx="50"
       sodipodi:cy="175"
       sodipodi:rx="5"
       sodipodi:ry="5"
       d="M 55 175 A 5 5 0 1 1  45,175 A 5 5 0 1 1  55 175 z"
       transform="translate(41,-20.992737)" />
    <path
       sodipodi:type="arc"
       style="opacity:1;fill:#000080;fill-opacity:1;fill-rule:nonzero;stroke:#000000;stroke-width:2;stroke-linecap:butt;stroke-miterlimit:4;stroke-dasharray:none;stroke-opacity:1"
       id="path2555"
       sodipodi:cx="50"
       sodipodi:cy="175"
       sodipodi:rx="5"
       sodipodi:ry="5"
       d="M 55 175 A 5 5 0 1 1  45,175 A 5 5 0 1 1  55 175 z"
       transform="translate(61,9.0072632)" />
    <path
       sodipodi:type="arc"
       style="opacity:1;fill:#000080;fill-opacity:1;fill-rule:nonzero;stroke:#000000;stroke-width:2;stroke-linecap:butt;stroke-miterlimit:4;stroke-dasharray:none;stroke-opacity:1"
       id="path2557"
       sodipodi:cx="50"
       sodipodi:cy="175"
       sodipodi:rx="5"
       sodipodi:ry="5"
       d="M 55 175 A 5 5 0 1 1  45,175 A 5 5 0 1 1  55 175 z"
       transform="translate(9,-43.992737)" />
    <path
       sodipodi:type="arc"
       style="opacity:1;fill:#000080;fill-opacity:1;fill-rule:nonzero;stroke:#000000;stroke-width:2;stroke-linecap:butt;stroke-miterlimit:4;stroke-dasharray:none;stroke-opacity:1"
       id="path2559"
       sodipodi:cx="50"
       sodipodi:cy="175"
       sodipodi:rx="5"
       sodipodi:ry="5"
       d="M 55 175 A 5 5 0 1 1  45,175 A 5 5 0 1 1  55 175 z"
       transform="translate(51,-60.992737)" />
    <path
       sodipodi:type="arc"
       style="opacity:1;fill:#000080;fill-opacity:1;fill-rule:nonzero;stroke:#000000;stroke-width:2;stroke-linecap:butt;stroke-miterlimit:4;stroke-dasharray:none;stroke-opacity:1"
       id="path2561"
       sodipodi:cx="50"
       sodipodi:cy="175"
       sodipodi:rx="5"
       sodipodi:ry="5"
       d="M 55 175 A 5 5 0 1 1  45,175 A 5 5 0 1 1  55 175 z"
       transform="translate(-1,-8.9927368)" />
    <path
       sodipodi:type="arc"
       style="opacity:1;fill:#000080;fill-opacity:1;fill-rule:nonzero;stroke:#000000;stroke-width:2;stroke-linecap:butt;stroke-miterlimit:4;stroke-dasharray:none;stroke-opacity:1"
       id="path2563"
       sodipodi:cx="50"
       sodipodi:cy="175"
       sodipodi:rx="5"
       sodipodi:ry="5"
       d="M 55 175 A 5 5 0 1 1  45,175 A 5 5 0 1 1  55 175 z"
       transform="translate(-29,-5.9927368)" />
    <path
       sodipodi:type="arc"
       style="opacity:1;fill:#000080;fill-opacity:1;fill-rule:nonzero;stroke:#000000;stroke-width:2;stroke-linecap:butt;stroke-miterlimit:4;stroke-dasharray:none;stroke-opacity:1"
       id="path2565"
       sodipodi:cx="50"
       sodipodi:cy="175"
       sodipodi:rx="5"
       sodipodi:ry="5"
       d="M 55 175 A 5 5 0 1 1  45,175 A 5 5 0 1 1  55 175 z"
       transform="translate(-30,20.007263)" />
    <path
       sodipodi:type="arc"
       style="opacity:1;fill:#000080;fill-opacity:1;fill-rule:nonzero;stroke:#000000;stroke-width:2;stroke-linecap:butt;stroke-miterlimit:4;stroke-dasharray:none;stroke-opacity:1"
       id="path2567"
       sodipodi:cx="50"
       sodipodi:cy="175"
       sodipodi:rx="5"
       sodipodi:ry="5"
       d="M 55 175 A 5 5 0 1 1  45,175 A 5 5 0 1 1  55 175 z"
       transform="translate(75,20.007263)" />
    <path
       sodipodi:type="arc"
       style="opacity:1;fill:#000080;fill-opacity:1;fill-rule:nonzero;stroke:#000000;stroke-width:2;stroke-linecap:butt;stroke-miterlimit:4;stroke-dasharray:none;stroke-opacity:1"
       id="path2571"
       sodipodi:cx="50"
       sodipodi:cy="175"
       sodipodi:rx="5"
       sodipodi:ry="5"
       d="M 55 175 A 5 5 0 1 1  45,175 A 5 5 0 1 1  55 175 z"
       transform="translate(63,-22.992737)" />
    <path
       sodipodi:type="arc"
       style="opacity:1;fill:#000080;fill-opacity:1;fill-rule:nonzero;stroke:#000000;stroke-width:2;stroke-linecap:butt;stroke-miterlimit:4;stroke-dasharray:none;stroke-opacity:1"
       id="path2573"
       sodipodi:cx="50"
       sodipodi:cy="175"
       sodipodi:rx="5"
       sodipodi:ry="5"
       d="M 55 175 A 5 5 0 1 1  45,175 A 5 5 0 1 1  55 175 z"
       transform="translate(33,12.007263)" />
    <path
       sodipodi:type="arc"
       style="opacity:1;fill:#000080;fill-opacity:1;fill-rule:nonzero;stroke:#000000;stroke-width:2;stroke-linecap:butt;stroke-miterlimit:4;stroke-dasharray:none;stroke-opacity:1"
       id="path2577"
       sodipodi:cx="50"
       sodipodi:cy="175"
       sodipodi:rx="5"
       sodipodi:ry="5"
       d="M 55 175 A 5 5 0 1 1  45,175 A 5 5 0 1 1  55 175 z"
       transform="translate(21,-25.992737)" />
    <path
       sodipodi:type="arc"
       style="opacity:1;fill:#000080;fill-opacity:1;fill-rule:nonzero;stroke:#000000;stroke-width:2;stroke-linecap:butt;stroke-miterlimit:4;stroke-dasharray:none;stroke-opacity:1"
       id="path2579"
       sodipodi:cx="50"
       sodipodi:cy="175"
       sodipodi:rx="5"
       sodipodi:ry="5"
       d="M 55 175 A 5 5 0 1 1  45,175 A 5 5 0 1 1  55 175 z"
       transform="translate(53,-2.9927368)" />
    <path
       sodipodi:type="arc"
       style="opacity:1;fill:#000080;fill-opacity:1;fill-rule:nonzero;stroke:#000000;stroke-width:2;stroke-linecap:butt;stroke-miterlimit:4;stroke-dasharray:none;stroke-opacity:1"
       id="path2581"
       sodipodi:cx="50"
       sodipodi:cy="175"
       sodipodi:rx="5"
       sodipodi:ry="5"
       d="M 55 175 A 5 5 0 1 1  45,175 A 5 5 0 1 1  55 175 z"
       transform="translate(95,-19.992737)" />
    <path
       style="fill:none;fill-rule:evenodd;stroke:#000000;stroke-width:2;stroke-linecap:butt;stroke-linejoin:miter;stroke-miterlimit:4;stroke-dasharray:none;stroke-opacity:1"
       d="M 40,225.00726 L 135,225.00726"
       id="path2583" />
    <path
       style="fill:#000000;fill-rule:evenodd;stroke:#000000;stroke-width:1px;stroke-linecap:butt;stroke-linejoin:miter;stroke-opacity:1"
       d="M 140,225.00726 L 125,220.00726 L 125,230.00726 L 140,225.00726 z "
       id="path2585" />
    <path
       sodipodi:type="arc"
       style="opacity:1;fill:#000080;fill-opacity:1;fill-rule:nonzero;stroke:#000000;stroke-width:2;stroke-linecap:butt;stroke-miterlimit:4;stroke-dasharray:none;stroke-opacity:1"
       id="path6463"
       sodipodi:cx="50"
       sodipodi:cy="175"
       sodipodi:rx="5"
       sodipodi:ry="5"
       d="M 55 175 A 5 5 0 1 1  45,175 A 5 5 0 1 1  55 175 z"
       transform="translate(-11,-48.992737)" />
    <path
       sodipodi:type="arc"
       style="opacity:1;fill:#000080;fill-opacity:1;fill-rule:nonzero;stroke:#000000;stroke-width:2;stroke-linecap:butt;stroke-miterlimit:4;stroke-dasharray:none;stroke-opacity:1"
       id="path6465"
       sodipodi:cx="50"
       sodipodi:cy="175"
       sodipodi:rx="5"
       sodipodi:ry="5"
       d="M 55 175 A 5 5 0 1 1  45,175 A 5 5 0 1 1  55 175 z"
       transform="translate(24,-48.992737)" />
    <path
       sodipodi:type="arc"
       style="opacity:1;fill:#000080;fill-opacity:1;fill-rule:nonzero;stroke:#000000;stroke-width:2;stroke-linecap:butt;stroke-miterlimit:4;stroke-dasharray:none;stroke-opacity:1"
       id="path6467"
       sodipodi:cx="50"
       sodipodi:cy="175"
       sodipodi:rx="5"
       sodipodi:ry="5"
       d="M 55 175 A 5 5 0 1 1  45,175 A 5 5 0 1 1  55 175 z"
       transform="translate(-36,-58.992737)" />
    <path
       sodipodi:type="arc"
       style="opacity:1;fill:#000080;fill-opacity:1;fill-rule:nonzero;stroke:#000000;stroke-width:2;stroke-linecap:butt;stroke-miterlimit:4;stroke-dasharray:none;stroke-opacity:1"
       id="path6469"
       sodipodi:cx="50"
       sodipodi:cy="175"
       sodipodi:rx="5"
       sodipodi:ry="5"
       d="M 55 175 A 5 5 0 1 1  45,175 A 5 5 0 1 1  55 175 z"
       transform="translate(89,6.0072632)" />
    <path
       sodipodi:type="arc"
       style="opacity:1;fill:#000080;fill-opacity:1;fill-rule:nonzero;stroke:#000000;stroke-width:2;stroke-linecap:butt;stroke-miterlimit:4;stroke-dasharray:none;stroke-opacity:1"
       id="path6471"
       sodipodi:cx="50"
       sodipodi:cy="175"
       sodipodi:rx="5"
       sodipodi:ry="5"
       d="M 55 175 A 5 5 0 1 1  45,175 A 5 5 0 1 1  55 175 z"
       transform="translate(109,11.007263)" />
    <path
       sodipodi:type="arc"
       style="opacity:1;fill:#000080;fill-opacity:1;fill-rule:nonzero;stroke:#000000;stroke-width:2;stroke-linecap:butt;stroke-miterlimit:4;stroke-dasharray:none;stroke-opacity:1"
       id="path6473"
       sodipodi:cx="50"
       sodipodi:cy="175"
       sodipodi:rx="5"
       sodipodi:ry="5"
       d="M 55 175 A 5 5 0 1 1  45,175 A 5 5 0 1 1  55 175 z"
       transform="translate(69,-3.9927368)" />
  </g>
</svg>
