<?xml version="1.0" encoding="UTF-8" standalone="no"?>
<!-- Created with Inkscape (http://www.inkscape.org/) -->
<svg
   xmlns:svg="http://www.w3.org/2000/svg"
   xmlns="http://www.w3.org/2000/svg"
   version="1.0"
   width="1024"
   height="335.29034"
   id="svg2">
  <defs
     id="defs3" />
  <g
     transform="translate(83.761178,-134.80615)"
     id="layer1">
    <path
       d="M 746.03362,469.71865 C 745.73764,469.51083 731.38875,444.7559 714.14719,414.7077 L 682.79897,360.0746 L 634.10602,360.06361 C 590.53495,360.05378 585.3281,359.96761 584.6049,359.24444 C 583.57908,358.21862 583.57908,357.25794 584.6049,356.23212 C 585.32815,355.50888 590.53078,355.42329 634.10602,355.41778 L 682.79897,355.41161 L 714.13628,300.51654 C 731.37177,270.32425 745.72067,245.45143 746.02272,245.24362 C 746.32471,245.0358 775.50104,244.86577 810.85898,244.86577 C 846.21691,244.86577 875.38651,245.0358 875.68028,245.24362 C 876.08514,245.53002 907.00119,298.89659 940.10538,356.45254 C 940.81989,357.69489 939.75447,359.62131 908.53154,413.53954 C 890.75922,444.23023 875.97698,469.51083 875.68218,469.71865 C 875.38734,469.92646 846.21691,470.09649 810.85898,470.09649 C 775.50104,470.09649 746.32965,469.92646 746.03362,469.71865 z M 904.71823,411.70946 C 921.83147,382.14537 935.83321,357.85234 935.83321,357.72495 C 935.83321,357.59756 921.83147,333.1956 904.71823,303.49837 L 873.60324,249.50341 L 810.85898,249.49707 L 748.11472,249.49072 L 717.25688,303.51978 C 700.28507,333.23576 686.39905,357.6443 686.39905,357.76097 C 686.39905,357.87765 700.28507,382.15802 717.25688,411.71735 L 748.11472,465.4616 L 810.85898,465.46198 L 873.60324,465.46236 L 904.71823,411.70946 z M 802.63022,442.34949 C 801.49877,442.14255 798.49013,441.67951 795.94436,441.32051 C 785.80884,439.89122 770.32913,433.23325 760.20071,425.94686 C 755.02523,422.22361 747.62717,414.79584 744.22139,409.90338 C 742.40263,407.29073 740.32317,404.43643 739.60043,403.56048 C 738.03681,401.66556 733.49613,392.40986 731.12378,386.28178 C 729.18905,381.28413 727.09827,371.88408 726.29047,364.5509 C 724.97258,352.58763 727.72875,336.1789 733.08037,324.12754 C 738.00235,313.04375 742.89918,305.85607 751.19248,297.54208 C 758.29606,290.42079 760.72468,288.66219 771.29482,282.98551 C 786.75129,274.68463 802.89961,271.39429 819.69646,273.12329 C 829.65269,274.14814 836.27431,276.14705 848.07769,281.69087 C 856.73033,285.75484 861.8967,289.42263 869.6738,297.02267 C 876.57382,303.76559 879.63888,307.32607 882.57726,312.01177 C 884.94257,315.78353 890.59351,327.49254 891.87483,331.27658 C 896.90137,346.1215 897.2368,365.94122 892.70594,380.38782 C 887.85884,395.84264 879.7495,409.41802 869.71011,418.88378 C 862.86903,425.33395 858.75296,428.24633 850.13539,432.73405 C 839.8084,438.112 830.69203,440.94634 820.16483,442.05211 C 812.20711,442.88799 806.13732,442.99092 802.63022,442.34949 z M 820.16483,437.42344 C 826.21919,436.78749 829.30723,436.15425 835.0529,434.37041 C 843.09245,431.8744 853.4525,426.77016 858.71526,422.71231 C 880.92195,405.58994 892.29322,381.29272 891.16948,353.36675 C 890.70522,341.82934 888.40425,332.52669 883.60056,322.76606 C 878.7942,313.00015 876.07727,309.38169 866.58802,300.10846 C 856.33396,290.08783 847.20276,284.60572 834.20277,280.66524 C 826.2609,278.25795 821.11185,277.5502 811.37327,277.52727 C 801.15033,277.5032 795.93772,278.27136 786.42986,281.20305 C 778.84675,283.54126 770.72385,287.4969 763.54364,292.34805 C 759.39985,295.14772 748.51058,306.10551 746.07831,309.92338 C 745.0022,311.61245 743.47859,313.81175 742.69249,314.81071 C 740.72854,317.30643 736.85542,325.15389 735.31577,329.75697 C 733.37707,335.55303 731.04154,347.8197 730.69023,354.05106 C 729.85516,368.86306 734.35881,386.78809 742.10074,399.46621 C 746.97885,407.45454 756.9106,418.43134 763.34168,422.94219 C 773.25908,429.8984 786.21015,435.33543 796.2015,436.73716 C 798.60584,437.07447 801.49877,437.51845 802.63022,437.72376 C 806.14801,438.36211 812.21821,438.25814 820.16483,437.42344 z M 537.50997,355.42394 L 537.50997,332.28056 L 540.72433,332.28734 L 543.93869,332.2941 L 555.51038,350.04729 L 567.08207,367.80047 L 567.21733,350.04051 L 567.35254,332.28056 L 570.43169,332.28056 L 573.51078,332.28056 L 573.51078,355.42394 L 573.51078,378.56732 L 570.29643,378.56003 L 567.08207,378.55275 L 555.51038,360.7909 L 543.93869,343.02906 L 543.80343,360.79819 L 543.66822,378.56732 L 540.58907,378.56732 L 537.50997,378.56732 L 537.50997,355.42394 z M 173.10978,359.65902 C 172.81561,359.4512 158.351,334.58116 140.96619,304.39226 L 109.35746,249.50335 L 61.950272,249.49102 C 19.549192,249.48 14.457742,249.39335 13.734902,248.67051 C 12.709082,247.6447 12.709082,246.68402 13.734902,245.6582 C 14.457762,244.93534 19.547742,244.8489 61.950272,244.83938 L 109.35746,244.82874 L 140.96245,190.19529 C 158.34519,160.14689 172.80981,135.39181 173.10603,135.18399 C 173.40226,134.97618 202.57385,134.80615 237.93178,134.80615 C 273.28972,134.80615 302.46114,134.97618 302.75714,135.18399 C 303.05314,135.39181 317.40204,160.14673 334.64357,190.19494 L 365.99182,244.82803 L 414.4276,244.83903 C 457.76493,244.84886 462.94849,244.93509 463.67159,245.6582 C 464.6974,246.68402 464.6974,247.6447 463.67159,248.67051 C 462.94838,249.39369 457.7691,249.47934 414.4276,249.48486 L 365.99182,249.49102 L 334.65451,304.3861 C 317.41899,334.57839 303.0701,359.4512 302.76807,359.65902 C 302.46606,359.86684 273.28972,360.03687 237.93178,360.03687 C 202.57385,360.03687 173.40394,359.86684 173.10978,359.65902 z M 331.5339,301.38286 C 348.50571,271.66688 362.3556,247.19546 362.31144,247.00193 C 362.26728,246.8084 348.38125,222.52803 331.4536,193.04555 L 300.67606,139.44104 L 237.93178,139.44025 L 175.18752,139.43945 L 144.15701,193.04475 C 127.09023,222.52767 113.08848,246.82089 113.04202,247.02968 C 112.99556,247.23847 126.95929,271.70704 144.07253,301.40427 L 175.18752,355.39923 L 237.93178,355.40557 L 300.67606,355.41192 L 331.5339,301.38286 z M 229.44588,331.95277 C 213.42299,329.95837 199.12619,324.28404 186.65145,314.96786 C 181.57572,311.17729 178.89394,308.68732 174.65121,303.82594 C 171.64614,300.3827 168.57027,296.56762 167.81595,295.348 C 167.06163,294.12838 165.96688,292.50834 165.38316,291.74792 C 161.91221,287.22619 156.47752,273.908 154.45725,264.97299 C 153.23683,259.57552 153.10479,257.96649 153.10134,248.4501 C 153.09726,237.22994 153.53271,233.42395 155.66546,226.03879 C 157.69812,219.00025 160.27744,212.84064 164.2634,205.50628 C 168.21211,198.24046 169.30415,196.66088 174.3884,190.86099 C 178.82102,185.80444 179.18963,185.47527 187.14528,179.46891 C 196.73083,172.232 207.7817,167.12607 219.93138,164.32046 C 225.2487,163.09258 227.49603,162.86508 236.1674,162.67683 C 245.45863,162.47512 246.74279,162.56104 252.88207,163.79512 C 263.42559,165.91451 274.92499,170.35609 282.16135,175.10408 C 293.1907,182.34076 298.55483,187.35201 305.8962,197.27752 C 320.96056,217.64448 326.02663,241.47046 320.53683,266.13319 C 318.87942,273.57908 314.57296,284.4435 311.05801,290.04658 C 303.49079,302.10923 296.01244,310.33811 287.63797,315.81711 C 284.62583,317.7878 281.58277,319.83662 280.87561,320.37005 C 279.00484,321.78123 274.15032,324.14759 268.27533,326.51213 C 257.85907,330.70441 252.07791,331.84304 240.24612,332.03261 C 235.29601,332.11193 230.4359,332.076 229.44588,331.95277 z M 254.29272,326.17513 C 257.06824,325.5786 260.57085,324.73245 262.0763,324.29481 C 265.80306,323.21141 275.88593,318.75053 277.64543,317.40669 C 278.432,316.80593 281.54005,314.70202 284.55218,312.73133 C 290.51933,308.82732 298.92882,300.59172 302.44272,295.21072 C 303.47318,293.63274 305.14725,291.20268 306.16287,289.8106 C 312.32987,281.35774 317.00428,266.47057 317.93848,252.30733 C 318.5385,243.21055 317.50814,233.94985 314.78998,224.00897 C 313.62869,219.76193 309.46357,210.09412 307.37251,206.79202 C 304.0291,201.51228 296.69856,192.39535 292.89916,188.79161 C 285.77572,182.03503 275.08029,175.00504 269.31976,173.29311 C 267.331,172.70209 264.8665,171.79254 263.84307,171.27188 C 262.81965,170.75123 258.46022,169.59626 254.15545,168.70528 C 246.58725,167.13888 245.99437,167.09259 236.21576,167.30467 C 227.50435,167.49361 225.2477,167.72101 219.93138,168.94568 C 213.77617,170.3636 204.81863,173.55988 199.56128,176.21425 C 196.95408,177.5306 184.94835,186.26862 182.13053,188.90072 C 180.42803,190.49102 174.50557,197.25934 172.55049,199.84901 C 167.93051,205.96859 162.39621,218.1238 159.78152,227.89404 C 157.0153,238.23052 156.74825,254.31267 159.16209,265.19689 C 161.00745,273.51777 165.39664,284.3794 169.02093,289.59389 C 169.70903,290.58391 170.88544,292.2801 171.63518,293.3632 C 172.38491,294.4463 175.30055,297.96278 178.11437,301.17762 C 184.16064,308.08558 193.72322,315.57396 201.05555,319.14268 C 209.04918,323.03327 219.7515,326.11741 229.44588,327.32409 C 230.4359,327.44732 235.29601,327.48325 240.24612,327.40393 C 247.02853,327.29526 250.48984,326.99247 254.29272,326.17513 z M 524.65254,327.82211 C 524.22824,327.69849 518.32668,317.86299 511.53796,305.96544 C 496.3775,279.39603 496.78488,280.1555 497.16361,279.16852 C 497.59027,278.05676 498.8216,277.66675 499.96802,278.28028 C 500.76502,278.70683 526.54418,323.08184 527.49095,325.65696 C 527.65953,326.1155 527.42049,326.86766 526.95973,327.32843 C 526.1025,328.18565 525.98596,328.21059 524.65254,327.82211 z M 548.82451,326.27402 C 548.21445,326.09218 526.81171,289.68931 521.68155,280.1079 C 520.47861,277.86124 520.55009,276.52498 521.90095,276.00661 C 523.82797,275.26714 523.1997,274.28048 545.58192,313.19767 C 549.06253,319.2496 551.9103,324.38247 551.9103,324.60405 C 551.9103,325.13022 550.39543,326.64064 549.94496,326.56363 C 549.75303,326.53082 549.24881,326.4005 548.82451,326.27402 z M -21.980648,268.46829 C -25.641098,267.82624 -29.505518,265.84577 -32.256098,263.20224 C -37.244178,258.40827 -39.200238,253.34583 -39.148438,245.36432 C -39.087918,236.03902 -36.069748,229.60193 -29.792538,225.41016 C -26.060008,222.91768 -22.575868,221.99126 -17.159678,222.05115 C -7.5602279,222.15729 -0.19925786,227.56635 2.7293921,236.66624 C 4.2187821,241.29407 4.2093921,249.44642 2.7092621,254.13946 C -0.58477786,264.44468 -10.874488,270.41633 -21.980648,268.46829 z M -12.136848,262.55465 C -8.8603979,261.43825 -5.4148179,258.24793 -3.6882479,254.73196 C -2.3391579,251.98468 -2.2454479,251.37383 -2.2510179,245.36432 C -2.2565679,239.37704 -2.3556479,238.73382 -3.6938979,235.99695 C -6.4111179,230.43999 -11.402018,227.36391 -17.700928,227.36391 C -24.066118,227.36391 -28.790868,230.155 -31.401088,235.45711 C -33.052628,238.81187 -33.102888,239.10416 -33.102888,245.3535 C -33.102888,251.03857 -32.959138,252.11115 -31.875878,254.50823 C -30.413988,257.74317 -26.546558,261.41657 -23.447178,262.51403 C -20.555858,263.53783 -15.080028,263.55749 -12.136848,262.55465 z M -83.761178,245.36432 L -83.761178,222.22094 L -80.675398,222.22094 L -77.589608,222.22094 L -77.589608,231.73544 L -77.589608,241.24994 L -65.760768,241.24994 L -53.931938,241.24994 L -53.931938,231.73544 L -53.931938,222.22094 L -50.846148,222.22094 L -47.760368,222.22094 L -47.760368,245.36432 L -47.760368,268.5077 L -50.846148,268.5077 L -53.931938,268.5077 L -53.931938,257.70745 L -53.931938,246.90721 L -65.760768,246.90721 L -77.589608,246.90721 L -77.589608,257.70745 L -77.589608,268.5077 L -80.675398,268.5077 L -83.761178,268.5077 L -83.761178,245.36432 z M 474.2514,245.36432 L 474.2514,222.22094 L 477.46576,222.22771 L 480.68012,222.23448 L 492.25181,239.98766 L 503.8235,257.74085 L 503.95876,239.98089 L 504.09397,222.22094 L 507.17312,222.22094 L 510.25221,222.22094 L 510.25221,245.36432 L 510.25221,268.5077 L 507.03786,268.50041 L 503.8235,268.49312 L 492.25181,250.73128 L 480.68012,232.96944 L 480.54486,250.73857 L 480.40965,268.5077 L 477.3305,268.5077 L 474.2514,268.5077 L 474.2514,245.36432 z"
       id="path2536"
       style="fill:#000000" />
  </g>
</svg>
