<?xml version="1.0"?>
<svg xmlns:rdf="http://www.w3.org/1999/02/22-rdf-syntax-ns#" xmlns="http://www.w3.org/2000/svg" xmlns:cc="http://web.resource.org/cc/" xmlns:dc="http://purl.org/dc/elements/1.1/" id="svg2" height="335.29" width="1024" version="1.0">
 <g id="layer1" transform="translate(83.761 -134.81)">
  <path id="path2536" d="m746.03 469.72c-0.29-0.21-14.64-24.96-31.88-55.01l-31.35-54.64-48.69-0.01c-43.58-0.01-48.78-0.09-49.51-0.82-1.02-1.02-1.02-1.98 0-3.01 0.73-0.72 5.93-0.81 49.51-0.81l48.69-0.01 31.34-54.89c17.23-30.2 31.58-55.07 31.88-55.28 0.3-0.2 29.48-0.37 64.84-0.37s64.53 0.17 64.82 0.37c0.41 0.29 31.32 53.66 64.43 111.21 0.71 1.24-0.36 3.17-31.58 57.09-17.77 30.69-32.55 55.97-32.85 56.18-0.29 0.21-29.46 0.38-64.82 0.38s-64.53-0.17-64.83-0.38zm158.69-58.01c17.11-29.56 31.11-53.86 31.11-53.99 0-0.12-14-24.52-31.11-54.22l-31.12-54h-62.74l-62.75-0.01-30.85 54.03c-16.97 29.72-30.86 54.12-30.86 54.24s13.89 24.4 30.86 53.96l30.85 53.74h62.75 62.74l31.12-53.75zm-102.09 30.64c-1.13-0.21-4.14-0.67-6.69-1.03-10.13-1.43-25.61-8.09-35.74-15.37-5.17-3.73-12.57-11.15-15.98-16.05-1.82-2.61-3.9-5.46-4.62-6.34-1.56-1.89-6.1-11.15-8.48-17.28-1.93-5-4.02-14.4-4.83-21.73-1.32-11.96 1.44-28.37 6.79-40.42 4.92-11.09 9.82-18.27 18.11-26.59 7.11-7.12 9.53-8.88 20.1-14.55 15.46-8.31 31.61-11.6 48.41-9.87 9.95 1.03 16.57 3.03 28.38 8.57 8.65 4.06 13.82 7.73 21.59 15.33 6.9 6.75 9.97 10.31 12.91 14.99 2.36 3.77 8.01 15.48 9.29 19.27 5.03 14.84 5.37 34.66 0.84 49.11-4.85 15.45-12.96 29.03-23 38.49-6.84 6.45-10.96 9.37-19.57 13.85-10.33 5.38-19.45 8.22-29.98 9.32-7.95 0.84-14.02 0.94-17.53 0.3zm17.53-4.93c6.06-0.63 9.15-1.27 14.89-3.05 8.04-2.5 18.4-7.6 23.67-11.66 22.2-17.12 33.57-41.42 32.45-69.34-0.46-11.54-2.77-20.84-7.57-30.6-4.81-9.77-7.52-13.39-17.01-22.66-10.26-10.02-19.39-15.5-32.39-19.44-7.94-2.41-13.09-3.12-22.83-3.14-10.22-0.03-15.43 0.74-24.94 3.67-7.58 2.34-15.71 6.3-22.89 11.15-4.14 2.8-15.03 13.76-17.46 17.57-1.08 1.69-2.6 3.89-3.39 4.89-1.96 2.5-5.83 10.34-7.37 14.95-1.94 5.79-4.28 18.06-4.63 24.29-0.83 14.81 3.67 32.74 11.41 45.42 4.88 7.98 14.81 18.96 21.24 23.47 9.92 6.96 22.87 12.4 32.86 13.8 2.41 0.33 5.3 0.78 6.43 0.98 3.52 0.64 9.59 0.54 17.53-0.3zm-282.65-82v-23.14l3.21 0.01h3.22l11.57 17.76 11.57 17.75 0.14-17.76 0.13-17.76h3.08 3.08v23.14 23.15l-3.21-0.01-3.22-0.01-11.57-17.76-11.57-17.76-0.14 17.77-0.13 17.77h-3.08-3.08v-23.15zm-364.4 4.24c-0.29-0.21-14.76-25.08-32.14-55.27l-31.61-54.89-47.41-0.01c-42.401-0.01-47.492-0.1-48.215-0.82-1.026-1.03-1.026-1.99 0-3.01 0.723-0.72 5.813-0.81 48.215-0.82l47.41-0.01 31.6-54.63c17.39-30.05 31.85-54.81 32.15-55.02 0.29-0.2 29.46-0.37 64.82-0.37s64.53 0.17 64.83 0.37c0.29 0.21 14.64 24.97 31.88 55.01l31.35 54.64 48.44 0.01c43.33 0.01 48.52 0.1 49.24 0.82 1.03 1.02 1.03 1.98 0 3.01-0.72 0.72-5.9 0.81-49.24 0.81l-48.44 0.01-31.34 54.9c-17.23 30.19-31.58 55.06-31.88 55.27s-29.48 0.38-64.84 0.38-64.53-0.17-64.82-0.38zm158.42-58.28c16.98-29.71 30.83-54.18 30.78-54.38-0.04-0.19-13.93-24.47-30.86-53.95l-30.77-53.61h-62.75-62.74l-31.03 53.6c-17.07 29.49-31.07 53.78-31.12 53.99-0.04 0.21 13.92 24.68 31.03 54.37l31.12 54 62.74 0.01h62.75l30.85-54.03zm-102.08 30.57c-16.03-1.99-30.32-7.67-42.8-16.98-5.07-3.79-7.76-6.28-12-11.14-3-3.45-6.08-7.26-6.83-8.48-0.76-1.22-1.85-2.84-2.44-3.6-3.47-4.52-8.9-17.84-10.92-26.78-1.22-5.39-1.36-7-1.36-16.52 0-11.22 0.43-15.03 2.57-22.41 2.03-7.04 4.61-13.2 8.59-20.53 3.95-7.27 5.04-8.85 10.13-14.65 4.43-5.06 4.8-5.38 12.76-11.39 9.58-7.24 20.63-12.34 32.78-15.15 5.32-1.23 7.57-1.45 16.24-1.64 9.29-0.2 10.57-0.12 16.71 1.12 10.55 2.11 22.04 6.56 29.28 11.3 11.03 7.24 16.39 12.25 23.74 22.18 15.06 20.36 20.13 44.19 14.64 68.85-1.66 7.45-5.97 18.31-9.48 23.92-7.57 12.06-15.05 20.29-23.42 25.77-3.01 1.97-6.06 4.02-6.76 4.55-1.88 1.41-6.73 3.78-12.6 6.14-10.42 4.19-16.2 5.33-28.03 5.52-4.95 0.08-9.81 0.05-10.8-0.08zm24.84-5.77c2.78-0.6 6.28-1.45 7.79-1.89 3.72-1.08 13.81-5.54 15.57-6.88 0.78-0.6 3.89-2.71 6.9-4.68 5.97-3.9 14.38-12.14 17.89-17.52 1.03-1.58 2.71-4.01 3.72-5.4 6.17-8.45 10.84-23.34 11.78-37.5 0.6-9.1-0.43-18.36-3.15-28.3-1.16-4.25-5.33-13.92-7.42-17.22-3.34-5.28-10.67-14.39-14.47-18-7.12-6.75-17.82-13.78-23.58-15.5-1.99-0.59-4.45-1.5-5.48-2.02-1.02-0.52-5.38-1.67-9.68-2.56-7.57-1.57-8.17-1.62-17.94-1.41-8.72 0.19-10.97 0.42-16.29 1.65-6.15 1.41-15.11 4.61-20.37 7.26-2.61 1.32-14.61 10.06-17.43 12.69-1.7 1.59-7.62 8.36-9.58 10.95-4.62 6.12-10.15 18.27-12.77 28.04-2.76 10.34-3.03 26.42-0.62 37.31 1.85 8.32 6.24 19.18 9.86 24.39 0.69 0.99 1.87 2.69 2.62 3.77 0.74 1.09 3.66 4.6 6.47 7.82 6.05 6.91 15.61 14.39 22.95 17.96 7.99 3.89 18.69 6.98 28.39 8.18 0.99 0.13 5.85 0.16 10.8 0.08 6.78-0.1 10.24-0.41 14.04-1.22zm270.36 1.64c-0.42-0.12-6.32-9.96-13.11-21.85-15.16-26.57-14.76-25.81-14.38-26.8 0.43-1.11 1.66-1.5 2.81-0.89 0.8 0.43 26.57 44.8 27.52 47.38 0.17 0.46-0.07 1.21-0.53 1.67-0.86 0.86-0.97 0.88-2.31 0.49zm24.17-1.55c-0.61-0.18-22.01-36.58-27.14-46.16-1.2-2.25-1.13-3.59 0.22-4.1 1.93-0.74 1.3-1.73 23.68 37.19 3.48 6.05 6.33 11.18 6.33 11.4 0 0.53-1.51 2.04-1.97 1.96-0.19-0.03-0.69-0.16-1.12-0.29zm-570.8-57.8c-3.66-0.64-7.525-2.62-10.275-5.27-4.988-4.79-6.944-9.85-6.892-17.84 0.06-9.32 3.078-15.76 9.355-19.95 3.733-2.49 7.217-3.42 12.633-3.36 9.5998 0.11 16.961 5.52 19.889 14.62 1.4898 4.62 1.4804 12.78-0.0197 17.47-3.2941 10.3-13.583 16.28-24.69 14.33zm9.844-5.92c3.2766-1.11 6.7222-4.3 8.4488-7.82 1.349-2.75 1.4428-3.36 1.4372-9.37-0.0056-5.98-0.1046-6.63-1.4429-9.36-2.7172-5.56-7.7081-8.64-14.007-8.64-6.365 0-11.09 2.8-13.7 8.1-1.652 3.35-1.702 3.64-1.702 9.89 0 5.69 0.144 6.76 1.227 9.16 1.462 3.23 5.329 6.91 8.429 8 2.891 1.03 8.367 1.05 11.31 0.04zm-71.624-17.19v-23.14h3.086 3.085v9.52 9.51h11.829 11.829v-9.51-9.52h3.086 3.086v23.14 23.15h-3.086-3.086v-10.8-10.8h-11.829-11.829v10.8 10.8h-3.085-3.086v-23.15zm558.01 0v-23.14l3.22 0.01h3.21l11.57 17.76 11.57 17.75 0.14-17.76 0.13-17.76h3.08 3.08v23.14 23.15l-3.21-0.01-3.22-0.01-11.57-17.76-11.57-17.76-0.14 17.77-0.13 17.77h-3.08-3.08v-23.15z"/>
 </g>
 <metadata>
  <rdf:RDF>
   <cc:Work>
    <dc:format>image/svg+xml</dc:format>
    <dc:type rdf:resource="http://purl.org/dc/dcmitype/StillImage"/>
    <cc:license rdf:resource="http://creativecommons.org/licenses/publicdomain/"/>
    <dc:publisher>
     <cc:Agent rdf:about="http://openclipart.org/">
      <dc:title>Openclipart</dc:title>
     </cc:Agent>
    </dc:publisher>
   </cc:Work>
   <cc:License rdf:about="http://creativecommons.org/licenses/publicdomain/">
    <cc:permits rdf:resource="http://creativecommons.org/ns#Reproduction"/>
    <cc:permits rdf:resource="http://creativecommons.org/ns#Distribution"/>
    <cc:permits rdf:resource="http://creativecommons.org/ns#DerivativeWorks"/>
   </cc:License>
  </rdf:RDF>
 </metadata>
</svg>
