<?xml version="1.0"?>
<svg xmlns:rdf="http://www.w3.org/1999/02/22-rdf-syntax-ns#" xmlns="http://www.w3.org/2000/svg" xmlns:cc="http://creativecommons.org/ns#" xmlns:xlink="http://www.w3.org/1999/xlink" xmlns:dc="http://purl.org/dc/elements/1.1/" id="svg2" height="1292" width="1712" version="1.1">
 <path id="N" d="m543.27 235.69v-72.477h9.8382l38.068 56.904v-56.904h9.1956v72.477h-9.8383l-38.068-56.953v56.953h-9.1955z"/>
 <path id="H" d="m222.97 624.19v-72.477h9.5911v29.762h37.672v-29.762h9.5911v72.477h-9.5911v-34.162h-37.672v34.162h-9.5911z"/>
 <path id="O" d="m306.05 679.89c0-12.03 3.2299-21.448 9.6899-28.254 6.4599-6.806 14.799-10.209 25.016-10.209 6.6906 0.00008 12.722 1.5986 18.094 4.7955 5.3722 3.1971 9.4674 7.6548 12.285 13.373 2.8179 5.7184 4.2269 12.203 4.227 19.454-0.0001 7.3499-1.4832 13.925-4.4495 19.726-2.9663 5.8008-7.1686 10.193-12.607 13.175-5.4382 2.9828-11.305 4.4742-17.6 4.4742-6.8225 0-12.92-1.648-18.292-4.9438-5.3723-3.2959-9.4428-7.7948-12.211-13.497-2.7686-5.7019-4.1528-11.733-4.1528-18.094zm9.8877 0.14833c-0.0001 8.7342 2.3483 15.614 7.0449 20.641 4.6967 5.0262 10.588 7.5394 17.674 7.5394 7.218 0 13.159-2.5378 17.823-7.6135 4.6636-5.0757 6.9955-12.277 6.9955-21.605 0-5.8996-0.9971-11.049-2.991-15.45-1.9941-4.4-4.911-7.8112-8.7506-10.234-3.8398-2.4224-8.1492-3.6337-12.928-3.6337-6.7896 0.00006-12.632 2.3319-17.526 6.9955-4.8945 4.6638-7.3417 12.45-7.3416 23.36z"/>
 <use id="use7" xlink:href="#H" transform="translate(556.8,-110.1)"/>
 <use id="use9" xlink:href="#H" transform="translate(701.1,-500.4)"/>
 <use id="use11" xlink:href="#H" transform="translate(1018.5 152)"/>
 <use id="use13" xlink:href="#H" transform="translate(1170.5 410.61)"/>
 <use id="use15" xlink:href="#N" transform="translate(-247.5,388.5)"/>
 <use id="use17" xlink:href="#N" transform="translate(472.5 682.47)"/>
 <use id="use19" xlink:href="#N" transform="translate(708.9 273.21)"/>
 <use id="use21" xlink:href="#O" transform="translate(168.8,156.8)"/>
 <use id="use23" xlink:href="#O" transform="translate(940.3 440.76)"/>
 <use id="use25" xlink:href="#O" transform="translate(1177 198.6)"/>
 <use id="use27" xlink:href="#O" transform="translate(535.9,-591.4)"/>
 <use id="use29" xlink:href="#O" transform="translate(1286.6 409.98)"/>
 <use id="use31" xlink:href="#O" transform="translate(735.7 319.61)"/>
 <use id="use33" xlink:href="#O" transform="translate(1005.3 319.61)"/>
 <use id="use35" xlink:href="#O" transform="translate(253.96 230.65)"/>
 <use id="use37" xlink:href="#O" transform="translate(499.3 319.61)"/>
 <path id="path39" d="m1141 420.18-93.374 174.13 111.04 86.911 4.7593-5.0608-80.208-94.79 66.206-123.2 87.705 8.8433 1.6996-6.7088-97.832-40.116zm142.63 461.48-5.9501 3.5068 28.52 76.784 30.608-17.672-53.178-62.62 0.0003 0.00043zm118.13-68.468-3.442 5.9452 62.514 53.512 18.516-32.018-77.587-27.44zm-963.33-666.61-96 170.97 109.59 91.469 4.9688-4.875-76.562-96.875 68.531-121.38 80.531 8.1875 1.7812-6.6562-92.844-40.844zm394.22-22.531-27.687 76.781 5.9687 3.4375 52.562-62.406-30.844-17.812zm-262.69 483.81-119.56 96.031 42.125 11.406 82.344-102.5-4.9062-4.9375z"/>
 <path id="path41" d="m600.54 963.71 16.232 76.248m782.48-360.94 118.2-68.4v-136.5l-118.2-68.1-70.5 40.5m-165.9 369 118.2 68.1 118.2-68.1v-136.5m-472.8 136.5-118.2 68.1-118.2-68.1m236.4-136.5-118.2-68.4-118.2 68.4v136.5m709.03 273.53 118.02-68.309-0.026-86.355m-25.584-444.31-0.052 106.09m8.8464 159.27 15.304-26.846m-32.584 13.85 12.809-22.123m-29.967 9.4014 10.193-17.674m-27.198 4.5564 7.576-13.225m-24.856 0.22949 5.0813-8.5018m-22.239-4.2194 2.3426-4.3269m-157.48-4.1004 29.548 2.9353m-23.105-23.866 20.989 2.149m-14.423-22.805 12.033 1.2105m-5.8628-22.019 3.7468 0.30215m-87.097 355.35 25.233 18.321m-10.714-33.652 21.088 14.912m-6.4167-30.639 16.791 11.899m-2.1198-27.626 12.495 8.8862m2.177-24.613 8.1977 5.8735m6.5959-21.327 3.7788 2.5867m235.03 129.32 70.767 40.812m-57.957-62.935 70.767 40.812m-339.45 122.97-38.7 66.9m0-236.4 38.7 66.9m-38.7-54.9h-85.8m85.8-24h-85.8m390.6-242.7 118.2-68.1m-354.6-68.4-118.2 68.4m118.2-153.6v85.2m-315 367.2h-75.6m124.8-43.2-39 67.2h-85.8m-200.4-186.3-58.37 51.859m767.57-188.36-118.2-68.4m-118.2 204.9v-136.5m-236.4 0h236.4m-236.4 136.5v-136.5m70.5 177-70.5-40.5m236.4 0-70.5 40.5m-477.62-678.61 75.3-43.5 118.2 68.1m205.2 116.7-69-116.7h-136.2m-236.1 45.6v90.6l117.9 68.1m-445.5 68.1-135.3-14.4-55.5-124.2 80.1-110.4 135.6 14.4 55.2 124.2m247.5 246.6 117.9-68.1v-136.2m-235.8 136.2 117.9 68.1m236.1-408.6v136.2l-118.2 68.1m-235.8 136.2v-136.2l-129.6-42.3m104.1 157.2v-93.6m-61.5 143.1 87-28.2m-162.6-3.6-47.1-64.5m80.1-110.4-80.1 110.4m50.7-113.1-62.4 85.8m-149.7-108 43.2 96.9m19.8-183.6 105.6 11.1m497.7 194.1 14.7-25.5m-31.2 11.4 10.8-18.6m-27 4.2 6.3-11.1m-22.8-3 2.4-4.2m-217.62 378.96-23.18-87.32m-72.062-19.024 86.4 23.4m-176.1 9.3-51.6 51.6m468 32.4-0.3-106.8m184.5-0.3-92.1-53.1m92.1 160.2-92.1 53.1m-135-166.5 15.3-26.7m-32.4 13.8 12.6-22.2m-29.7 9.3 9.9-17.7m-27.3 4.8 7.8-13.2m-24.9 0.3 5.1-8.7m-22.2-4.2 2.4-4.2m-80.56 165.14-21.14-79.64" stroke="#000" stroke-linecap="square" stroke-width="7.5" fill="none"/>
 <path id="path39-1" d="m1158.1 816.48 1.8644-6.6119-73.808-36.385-10.02 35.603 81.964 7.3938z"/>
 <use id="use7-7" xlink:href="#H" transform="translate(781.93 188.07)" height="1" width="1" y="0" x="0"/>
 <metadata>
  <rdf:RDF>
   <cc:Work>
    <dc:format>image/svg+xml</dc:format>
    <dc:type rdf:resource="http://purl.org/dc/dcmitype/StillImage"/>
    <cc:license rdf:resource="http://creativecommons.org/licenses/publicdomain/"/>
    <dc:publisher>
     <cc:Agent rdf:about="http://openclipart.org/">
      <dc:title>Openclipart</dc:title>
     </cc:Agent>
    </dc:publisher>
   </cc:Work>
   <cc:License rdf:about="http://creativecommons.org/licenses/publicdomain/">
    <cc:permits rdf:resource="http://creativecommons.org/ns#Reproduction"/>
    <cc:permits rdf:resource="http://creativecommons.org/ns#Distribution"/>
    <cc:permits rdf:resource="http://creativecommons.org/ns#DerivativeWorks"/>
   </cc:License>
  </rdf:RDF>
 </metadata>
</svg>
