<?xml version="1.0"?>
<svg xmlns:rdf="http://www.w3.org/1999/02/22-rdf-syntax-ns#" xmlns="http://www.w3.org/2000/svg" xmlns:cc="http://creativecommons.org/ns#" xmlns:xlink="http://www.w3.org/1999/xlink" xmlns:dc="http://purl.org/dc/elements/1.1/" id="svg2" viewBox="0 0 1300.7 780.91" version="1.1">
 <text id="O" font-size="100px" y="69.824219" x="109.80849" font-family="Arial">O</text>
 <text id="text5" font-size="100px" y="217.9585" x="909.8949" font-family="Arial">N</text>
 <use id="use7" xlink:href="#O" transform="translate(500.67,565.72)" height="884" width="1400" y="0" x="0"/>
 <path id="path9" d="m1297 337.96-139.2-38.7-103.5 101.1-125.05-72.3-124.2 74.1-135.3-50.7m-159.3 54.6-74.7-54.3m234-0.3-74.4 54.3m29.7-191.69-144.6 0.3m-0.3 0-44.4 137.39m15.6-131.09-35.1 108.89m-189.9-60.9 76.8 85.2m-61.2-216.89-44.4 137.69 96.9 107.4 141.3-30.3m-193.8-214.79 141.6-30 96.9 107.4m-218.4-55.5 112.2-24m250.8 79.2 44.7 137.39m-62.4-109.2 31.5 96.9m303.6-108.89-13.2 97.79m-23.1-187.49-57.6-60.3-144 13.2-79.5 120.6m-383.1-77.1-55.8-61.8m-85.5-36.002-96.894 20.702m786.89 497.69-93.6 38.4m88.8-50.4 69.6 53.7m38.7 80.4-13.2 97.5m-99.9-243.3-93.6 38.4m84.19-39.35 30.92 4.24m-25.36-24.87 25.56 3.5m-20.01-24.13 20.21 2.77m-14.66-23.4 14.86 2.03m-9.61-22.7 10.11 1.38m-4.56-22.02 4.76 0.66m-0.24-21.43 1.48 0.2" stroke="#000" stroke-width="7.5" fill="none"/>
 <path id="path11" fill="#fff" d="m1005.9 329.02-41.9 7.47-5.7 45.79 40.2 1.72 7.4-54.98z"/>
 <path id="path13" d="m975.09 228.92-3.4 1.81 9.2 38.66-17.8 133.62-109.19 62.81-47.25-64.84-3.47 1.94 39.75 98.28 131.56-76.06 118 68.03 17.6-17.6-54.1-76.37-3.5 1.78 16.6 49.94-81-46.78 18.9-139.44-31.9-35.78z"/>
 <text id="text15" font-size="100px" y="474.47122" x="516.39417" font-family="Arial">N
  <tspan id="tspan17" y="558.47119" x="516.39417">H</tspan>
 </text>
 <use id="use19" xlink:href="#O" transform="translate(750.82,594.8)" height="884" width="1400" y="0" x="0"/>
 <metadata>
  <rdf:RDF>
   <cc:Work>
    <dc:format>image/svg+xml</dc:format>
    <dc:type rdf:resource="http://purl.org/dc/dcmitype/StillImage"/>
    <cc:license rdf:resource="http://creativecommons.org/licenses/publicdomain/"/>
    <dc:publisher>
     <cc:Agent rdf:about="http://openclipart.org/">
      <dc:title>Openclipart</dc:title>
     </cc:Agent>
    </dc:publisher>
   </cc:Work>
   <cc:License rdf:about="http://creativecommons.org/licenses/publicdomain/">
    <cc:permits rdf:resource="http://creativecommons.org/ns#Reproduction"/>
    <cc:permits rdf:resource="http://creativecommons.org/ns#Distribution"/>
    <cc:permits rdf:resource="http://creativecommons.org/ns#DerivativeWorks"/>
   </cc:License>
  </rdf:RDF>
 </metadata>
</svg>
