<?xml version="1.0"?>
<svg xmlns:rdf="http://www.w3.org/1999/02/22-rdf-syntax-ns#" xmlns="http://www.w3.org/2000/svg" xmlns:cc="http://web.resource.org/cc/" xmlns:xlink="http://www.w3.org/1999/xlink" xmlns:dc="http://purl.org/dc/elements/1.1/" height="884" width="1400">
 <text id="O" font-size="100px" y="122.8845" x="159.41449" font-family="Arial">O</text>
 <text y="271.01877" x="959.50092" font-family="Arial" font-size="100px">N</text>
 <use xlink:href="#O" transform="translate(500.67 565.72)"/>
 <path stroke-width="7.5" d="m1346.6 391.02l-139.2-38.7-103.5 101.1-125.05-72.3-124.2 74.1-135.3-50.7m-159.3 54.6l-74.7-54.3m234-0.3l-74.4 54.3m29.7-191.69l-144.6 0.3m-0.3 0l-44.4 137.39m15.6-131.09l-35.1 108.89m-189.9-60.9l76.8 85.2m-61.2-216.89l-44.4 137.69 96.9 107.4 141.3-30.3m-193.8-214.79l141.6-30 96.9 107.4m-218.4-55.5l112.2-24m250.8 79.2l44.7 137.39m-62.4-109.2l31.5 96.9m303.6-108.89l-13.2 97.79m-23.1-187.49l-57.6-60.3-144 13.2-79.5 120.6m-383.1-77.1l-55.8-61.8m-85.5-36.002l-96.894 20.702m786.89 497.69l-93.6 38.4m88.8-50.4l69.6 53.7m38.7 80.4l-13.2 97.5m-99.9-243.3l-93.6 38.4m84.19-39.35l30.92 4.24m-25.36-24.87l25.56 3.5m-20.01-24.13l20.21 2.77m-14.66-23.4l14.86 2.03m-9.61-22.7l10.11 1.38m-4.56-22.02l4.76 0.66m-0.24-21.43l1.48 0.2" stroke="#000" fill="none"/>
 <path d="m1055.5 382.08l-41.9 7.47-5.7 45.79 40.2 1.72 7.4-54.98z" fill="#fff"/>
 <path d="m1024.7 281.98l-3.4 1.81 9.2 38.66-17.8 133.62-109.19 62.81-47.25-64.84-3.47 1.94 39.75 98.28 131.56-76.06 118 68.03 17.6-17.6-54.1-76.37-3.5 1.78 16.6 49.94-81-46.78 18.9-139.44-31.9-35.78z"/>
 <text y="527.53149" x="566.00018" font-family="Arial" font-size="100px">N
  <tspan y="611.53149" x="566.00018">H</tspan>
 </text>
 <use xlink:href="#O" transform="translate(750.82 594.8)"/>
 <metadata>
  <rdf:RDF>
   <cc:Work>
    <dc:format>image/svg+xml</dc:format>
    <dc:type rdf:resource="http://purl.org/dc/dcmitype/StillImage"/>
    <cc:license rdf:resource="http://creativecommons.org/licenses/publicdomain/"/>
    <dc:publisher>
     <cc:Agent rdf:about="http://openclipart.org/">
      <dc:title>Openclipart</dc:title>
     </cc:Agent>
    </dc:publisher>
   </cc:Work>
   <cc:License rdf:about="http://creativecommons.org/licenses/publicdomain/">
    <cc:permits rdf:resource="http://creativecommons.org/ns#Reproduction"/>
    <cc:permits rdf:resource="http://creativecommons.org/ns#Distribution"/>
    <cc:permits rdf:resource="http://creativecommons.org/ns#DerivativeWorks"/>
   </cc:License>
  </rdf:RDF>
 </metadata>
</svg>
