<?xml version="1.0" encoding="UTF-8" standalone="no"?><!-- Created with Inkscape (http://www.inkscape.org/) --><svg xmlns="http://www.w3.org/2000/svg" xmlns:xlink="http://www.w3.org/1999/xlink" width="1400" height="884"><text x="159.41449" y="122.8845" id="O" style="font-size:100px;font-family:Arial">O</text><text x="959.50092" y="271.01877" style="font-size:100px;font-family:Arial">N</text><use transform="translate(500.66561,565.72265)" xlink:href="#O" /><path d="M 1346.6441,391.0236 L 1207.4453,352.3242 L 1103.9463,453.4227 L 978.8474,381.1238 M 978.8474,381.1238 L 854.6485,455.2227 L 719.3497,404.5234 M 560.0512,459.1226 L 485.3519,404.8234 M 719.3497,404.5234 L 644.9504,458.8226 M 674.6501,267.1254 L 530.0514,267.4254 M 529.7515,267.4254 L 485.3519,404.8234 M 500.9517,273.7253 L 465.852,382.6237 M 275.9537,321.7246 L 352.7531,406.9234 M 291.5536,190.0266 L 247.154,327.7245 L 344.0531,435.123 L 485.3519,404.8234 M 291.5536,190.0266 L 433.1523,160.027 L 530.0514,267.4254 M 311.6534,211.9262 L 423.8524,187.9266 M 674.6501,267.1254 L 719.3497,404.5234 M 656.9503,295.325 L 688.45,392.2236 M 992.0473,283.3252 L 978.8474,381.1238 M 955.7476,193.6265 L 898.1481,133.3274 L 754.1494,146.5272 L 674.6501,267.1254 M 291.5536,190.0266 L 235.7541,128.2275 M 150.2549,92.228 L 53.3558,112.9277 M 840.2486,610.6204 L 746.6495,649.0198 M 835.4487,598.6206 L 905.0481,652.3198 M 943.7477,732.7186 L 930.5478,830.2171 M 830.6487,586.9207 L 737.0496,625.3201 M 821.2449,585.9707 L 852.1561,590.2052 M 826.7964,565.3396 L 852.3575,568.8409 M 832.3476,544.7084 L 852.5588,547.4771 M 837.8989,524.0775 L 852.7602,526.113 M 843.153,503.4055 L 853.2586,504.7898 M 848.7043,482.7745 L 853.46,483.4259 M 853.2155,462.0009 L 854.7014,462.2045" style="fill:none;stroke:#000;stroke-width:7.5" /><path d="M 1055.5361,382.0813 L 1013.5971,389.5541 L 1007.8782,435.3438 L 1048.1016,437.0595 L 1055.5361,382.0813 z" fill="#fff" /><path d="M 1024.7265,281.9772 L 1021.289,283.7896 L 1030.5078,322.4459 L 1012.6952,456.0709 L 903.5078,518.8834 L 856.2578,454.0396 L 852.789,455.9772 L 892.539,554.2584 L 1024.1328,478.1959 L 1142.0702,546.2272 L 1159.664,528.6334 L 1105.6015,452.2584 L 1102.0702,454.0396 L 1118.6952,503.9772 L 1037.7265,457.1959 L 1056.5702,317.7584 L 1024.7265,281.9772 z" fill="#000" /><text x="566.00018" y="527.53149" style="font-size:100px;font-family:Arial">N<tspan x="566.00018" y="611.53149">H</tspan></text><use transform="translate(750.82145,594.79799)" xlink:href="#O" /></svg>
