<?xml version="1.0"?>
<svg xmlns:rdf="http://www.w3.org/1999/02/22-rdf-syntax-ns#" xmlns="http://www.w3.org/2000/svg" xmlns:cc="http://creativecommons.org/ns#" xmlns:dc="http://purl.org/dc/elements/1.1/" id="svg2271" viewBox="0 0 348.15 348.15" version="1.0">
 <g id="layer1" transform="translate(-19.671 -19.671)">
  <g id="g3118" transform="translate(-96.046,76.789)">
   <circle id="circle3848" d="M 440,240 C 440,350.45695 350.45695,440 240,440 129.54305,440 40,350.45695 40,240 40,129.54305 129.54305,40 240,40 c 110.45695,0 200,89.54305 200,200 z" transform="matrix(.82894 0 0 .82894 90.849 -81.986)" cy="240" cx="240" r="200" fill="#008d00"/>
   <circle id="circle1738" stroke-width="20" d="M 440,240 C 440,350.45695 350.45695,440 240,440 129.54305,440 40,350.45695 40,240 40,129.54305 129.54305,40 240,40 c 110.45695,0 200,89.54305 200,200 z" transform="matrix(.82894 0 0 .82894 90.849 -81.986)" stroke="#000" cy="240" cx="240" r="200" fill="none"/>
   <path id="path1350" style="color:#000000" d="m320.58 120.89c0 16.91-13.73 30.63-30.63 30.63-16.91 0-30.63-13.72-30.63-30.63s13.72-30.631 30.63-30.631c16.9 0 30.63 13.721 30.63 30.631zm-20.61-40.44 0.05-25.052c17.29-4.473 30.06-20.174 30.06-38.852 0-22.156-17.97-40.151-40.13-40.151-0.17 0-0.36-0.003-0.53 0-0.17 0.002-0.34-0.005-0.51 0-0.08 0.002-0.18-0.003-0.26 0-21.56 0.679-38.85 18.425-38.85 40.151 0 18.678 12.79 34.379 30.08 38.852v25.052c2.57-0.606 7.32-0.972 10.04-1.076 0.09-0.003 6.84 0.28 10.05 1.076zm-50.07 52.06-21.72 12.48c-12.52-12.74-32.51-15.95-48.68-6.61-19.19 11.08-25.79 35.64-14.71 54.83 0.09 0.15 0.18 0.31 0.27 0.46 0.08 0.15 0.16 0.29 0.25 0.44 0.04 0.07 0.09 0.15 0.13 0.23 11.37 18.33 35.38 24.43 54.2 13.57 16.18-9.34 23.38-28.27 18.61-45.48l21.69-12.52c-1.81-1.93-4.5-5.86-5.95-8.17-0.05-0.07-3.18-6.06-4.09-9.23zm80 0 21.72 12.48c12.51-12.74 32.5-15.95 48.67-6.61 19.19 11.08 25.79 35.64 14.71 54.83-0.09 0.15-0.18 0.31-0.26 0.46-0.09 0.15-0.17 0.29-0.26 0.44-0.04 0.07-0.09 0.15-0.13 0.23-11.37 18.33-35.38 24.43-54.2 13.57-16.17-9.34-23.37-28.27-18.6-45.48l-21.7-12.52c1.81-1.93 4.5-5.86 5.95-8.17 0.05-0.07 3.18-6.06 4.1-9.23zm-19.21 24.35 11.94 6.92c-9.07 6.92-20.4 11.04-32.68 11.04-12.3 0-23.64-4.13-32.72-11.07l11.94-6.91c6.11 3.54 13.21 5.57 20.78 5.57 7.55 0 14.63-2.02 20.74-5.55zm32.72-28.85-11.94-6.87v-0.5c0-15.4-8.39-28.592-20.85-35.76l-0.01-13.807c19.53 8.113 33.26 27.37 33.26 49.817 0 2.41-0.15 4.79-0.46 7.12zm-95-6.92-11.93 6.85c-0.3-2.31-0.46-4.66-0.46-7.05 0-22.444 13.73-41.705 33.25-49.822l0.02 13.786c-12.47 7.172-20.88 20.636-20.88 36.036v0.2z" stroke="#000" stroke-width="5" fill="#f00"/>
  </g>
 </g>
 <metadata>
  <rdf:RDF>
   <cc:Work>
    <dc:format>image/svg+xml</dc:format>
    <dc:type rdf:resource="http://purl.org/dc/dcmitype/StillImage"/>
    <cc:license rdf:resource="http://creativecommons.org/licenses/publicdomain/"/>
    <dc:publisher>
     <cc:Agent rdf:about="http://openclipart.org/">
      <dc:title>Openclipart</dc:title>
     </cc:Agent>
    </dc:publisher>
   </cc:Work>
   <cc:License rdf:about="http://creativecommons.org/licenses/publicdomain/">
    <cc:permits rdf:resource="http://creativecommons.org/ns#Reproduction"/>
    <cc:permits rdf:resource="http://creativecommons.org/ns#Distribution"/>
    <cc:permits rdf:resource="http://creativecommons.org/ns#DerivativeWorks"/>
   </cc:License>
  </rdf:RDF>
 </metadata>
</svg>
