<?xml version="1.0"?>
<svg xmlns:rdf="http://www.w3.org/1999/02/22-rdf-syntax-ns#" xmlns="http://www.w3.org/2000/svg" xmlns:cc="http://creativecommons.org/ns#" xmlns:dc="http://purl.org/dc/elements/1.1/" id="svg2" viewBox="0 0 702.5 702.5" version="1.1">
 <circle id="circle4" stroke-width="2.5px" cy="362.5" transform="translate(-11.25,-11.25)" stroke="#000" cx="362.5" r="350" fill="#fff"/>
 <circle id="circle6" stroke-width="93.75" cy="362.5" transform="translate(-11.25,-11.25)" stroke="#c00" cx="362.5" r="290" fill="none"/>
 <g id="TruckSymbol" transform="matrix(.43686 0 0 .43686 132.62 241.78)">
  <path id="path9" fill-rule="evenodd" d="m295.78 86.817v248.26l391.94 0.32c-23 18.79-37.36 44.69-37.17 78.69l-389.07-0.23c-3.73-131.89-190.84-131.44-194.9-0.77-28.106-0.21-32.004-6.59-32.275-32.48v-99c-0.353-44.24-5.878-15.03 26.872-98.93 33.698-89.434 24.408-81.17 54.883-83.475l179.72-12.396zm-77.84 146.38 1.55-105.48-100.05 6.21c-18.24 1.22-18.39 1.33-24.819 22.49l-25.594 68.25c-8.598 20.93-7.23 27.1 16.287 24.04l132.63-15.51zm748.69 102.39 0.2 55.78-64.61 22.87-56.73-0.04c0.23-32.34-13.21-59.54-37.04-78.65l158.18 0.04z"/>
  <rect id="rect11" y="12.159" width="631.32" x="335.83" height="301.7"/>
  <circle id="circle13" d="m 241,412 c 0,42.52593 -34.47407,77 -77,77 -42.52593,0 -77,-34.47407 -77,-77 0,-42.52593 34.47407,-77 77,-77 42.52593,0 77,34.47407 77,77 z" cx="164" cy="412" r="77"/>
  <circle id="circle15" d="m 825,412 c 0,42.52593 -34.47407,77 -77,77 -42.52593,0 -77,-34.47407 -77,-77 0,-42.52593 34.47407,-77 77,-77 42.52593,0 77,34.47407 77,77 z" cx="748" cy="412" r="77"/>
 </g>
 <metadata>
  <rdf:RDF>
   <cc:Work>
    <dc:format>image/svg+xml</dc:format>
    <dc:type rdf:resource="http://purl.org/dc/dcmitype/StillImage"/>
    <cc:license rdf:resource="http://creativecommons.org/licenses/publicdomain/"/>
    <dc:publisher>
     <cc:Agent rdf:about="http://openclipart.org/">
      <dc:title>Openclipart</dc:title>
     </cc:Agent>
    </dc:publisher>
   </cc:Work>
   <cc:License rdf:about="http://creativecommons.org/licenses/publicdomain/">
    <cc:permits rdf:resource="http://creativecommons.org/ns#Reproduction"/>
    <cc:permits rdf:resource="http://creativecommons.org/ns#Distribution"/>
    <cc:permits rdf:resource="http://creativecommons.org/ns#DerivativeWorks"/>
   </cc:License>
  </rdf:RDF>
 </metadata>
</svg>
