<?xml version="1.0"?>
<svg xmlns:rdf="http://www.w3.org/1999/02/22-rdf-syntax-ns#" xmlns="http://www.w3.org/2000/svg" xmlns:cc="http://web.resource.org/cc/" xmlns:dc="http://purl.org/dc/elements/1.1/" height="725" width="725" version="1.1">
 <circle stroke-width="2.5px" stroke="#000" cy="362.5" cx="362.5" r="350" fill="#FFF"/>
 <circle r="290" stroke="#c00" cy="362.5" cx="362.5" stroke-width="93.75" fill="none"/>
 <g id="TruckSymbol" transform="matrix(.43686 0 0 .43686 143.87 253.03)">
  <path d="m295.78 86.817v248.26l391.94 0.32c-23 18.79-37.36 44.69-37.17 78.69l-389.07-0.23c-3.73-131.89-190.84-131.44-194.9-0.77-28.106-0.21-32.004-6.59-32.275-32.48v-99c-0.353-44.24-5.878-15.03 26.872-98.93 33.698-89.434 24.408-81.17 54.883-83.475l179.72-12.388zm-77.84 146.38l1.55-105.48-100.05 6.21c-18.24 1.22-18.39 1.33-24.819 22.49l-25.594 68.25c-8.598 20.93-7.23 27.1 16.287 24.04l132.63-15.51zm748.69 102.39l0.2 55.78-64.61 22.87-56.73-0.04c0.23-32.34-13.21-59.54-37.04-78.65l158.18 0.04z" fill-rule="evenodd"/>
  <rect height="301.7" width="631.32" y="12.159" x="335.83"/>
  <circle cx="164" cy="412" r="77"/>
  <circle cx="748" cy="412" r="77"/>
 </g>
 <metadata>
  <rdf:RDF>
   <cc:Work>
    <dc:format>image/svg+xml</dc:format>
    <dc:type rdf:resource="http://purl.org/dc/dcmitype/StillImage"/>
    <cc:license rdf:resource="http://creativecommons.org/licenses/publicdomain/"/>
    <dc:publisher>
     <cc:Agent rdf:about="http://openclipart.org/">
      <dc:title>Openclipart</dc:title>
     </cc:Agent>
    </dc:publisher>
   </cc:Work>
   <cc:License rdf:about="http://creativecommons.org/licenses/publicdomain/">
    <cc:permits rdf:resource="http://creativecommons.org/ns#Reproduction"/>
    <cc:permits rdf:resource="http://creativecommons.org/ns#Distribution"/>
    <cc:permits rdf:resource="http://creativecommons.org/ns#DerivativeWorks"/>
   </cc:License>
  </rdf:RDF>
 </metadata>
</svg>
